G04 #@! TF.GenerationSoftware,KiCad,Pcbnew,7.0.4*
G04 #@! TF.CreationDate,2023-08-13T11:07:32+02:00*
G04 #@! TF.ProjectId,NB3_body,4e42335f-626f-4647-992e-6b696361645f,0.0.3*
G04 #@! TF.SameCoordinates,PX76bb820PYd4ab5c0*
G04 #@! TF.FileFunction,Copper,L2,Bot*
G04 #@! TF.FilePolarity,Positive*
%FSLAX46Y46*%
G04 Gerber Fmt 4.6, Leading zero omitted, Abs format (unit mm)*
G04 Created by KiCad (PCBNEW 7.0.4) date 2023-08-13 11:07:32*
%MOMM*%
%LPD*%
G01*
G04 APERTURE LIST*
G04 #@! TA.AperFunction,ComponentPad*
%ADD10C,5.700000*%
G04 #@! TD*
G04 #@! TA.AperFunction,ComponentPad*
%ADD11C,4.500000*%
G04 #@! TD*
G04 #@! TA.AperFunction,WasherPad*
%ADD12C,4.500000*%
G04 #@! TD*
G04 #@! TA.AperFunction,WasherPad*
%ADD13C,3.500000*%
G04 #@! TD*
G04 #@! TA.AperFunction,ViaPad*
%ADD14C,0.600000*%
G04 #@! TD*
G04 #@! TA.AperFunction,Conductor*
%ADD15C,0.300000*%
G04 #@! TD*
G04 APERTURE END LIST*
D10*
X95000000Y43000000D03*
D11*
X-86700000Y37000000D03*
D12*
X-24500000Y178000000D03*
X-24500000Y120000000D03*
D11*
X86700000Y9000000D03*
X-86700000Y9000000D03*
D12*
X24500000Y178000000D03*
X24500000Y120000000D03*
X11000000Y166500000D03*
D10*
X-95000000Y31000000D03*
X-95000000Y43000000D03*
D13*
X-7750000Y183000000D03*
D12*
X-30000000Y194000000D03*
D10*
X95000000Y31000000D03*
D12*
X-33500000Y127000000D03*
X11000000Y127000000D03*
D11*
X86700000Y37000000D03*
D10*
X-85000000Y43000000D03*
D12*
X-33500000Y166500000D03*
X48000000Y5500000D03*
X-48000000Y5500000D03*
X30000000Y194000000D03*
D13*
X7750000Y183000000D03*
D10*
X85000000Y43000000D03*
X-85000000Y31000000D03*
X85000000Y31000000D03*
D14*
X0Y183500000D03*
X3000000Y161000000D03*
X40000000Y163450000D03*
X40000000Y160900000D03*
X-1000000Y99950000D03*
X73250000Y97400000D03*
X73250000Y110100000D03*
X-1000000Y118000000D03*
X2000000Y102500000D03*
X2000000Y118000000D03*
X1000000Y110100000D03*
X1000000Y118000000D03*
X19000000Y166000000D03*
X40000000Y166000000D03*
X2540000Y186400000D03*
X40000Y186400000D03*
X-76380000Y97400000D03*
X-76380000Y105000000D03*
X-76380000Y107500000D03*
X76400000Y105000000D03*
X76400000Y107500000D03*
X-71000000Y51500000D03*
X-46500000Y72000000D03*
X-79500000Y49500000D03*
X-46500000Y69500000D03*
X34000000Y54000000D03*
X34000000Y56000000D03*
X78000000Y59000000D03*
X-77000000Y59000000D03*
X80525000Y58960000D03*
X75525000Y58960000D03*
X-74500000Y59000000D03*
X-79500000Y59000000D03*
X-54000000Y77000000D03*
X-45000000Y191000000D03*
X-54000000Y143000000D03*
X-42500000Y191000000D03*
X-51500000Y77000000D03*
X-51500000Y143000000D03*
X-49000000Y77000000D03*
X-40000000Y191000000D03*
X-49000000Y143000000D03*
X-46500000Y137000000D03*
X-36500000Y137000000D03*
X-37500000Y191000000D03*
X-46500000Y77000000D03*
X28000000Y131000000D03*
X-46500000Y143000000D03*
X28000000Y121000000D03*
X-37500000Y56000000D03*
X-40500000Y133000000D03*
X-42000000Y128500000D03*
X-37500000Y179000000D03*
X28000000Y123500000D03*
X-43000000Y126000000D03*
X-40000000Y179000000D03*
X-39500000Y134000000D03*
X-40000000Y56000000D03*
X-42500000Y179000000D03*
X-38500000Y135000000D03*
X-42500000Y56000000D03*
X28000000Y126000000D03*
X-44000000Y123500000D03*
X-45000000Y121000000D03*
X-37500000Y136000000D03*
X-45000000Y179000000D03*
X28000000Y128500000D03*
X-45000000Y56000000D03*
X-35000000Y179000000D03*
X-40000000Y136000000D03*
X34920000Y179920000D03*
X35500000Y174500000D03*
X-34920000Y180080000D03*
X39540000Y168540000D03*
X35000000Y179000000D03*
X32480000Y59480000D03*
X37500000Y174500000D03*
X-40500000Y135500000D03*
X-31500000Y59500000D03*
X40500000Y168500000D03*
X34000000Y143000000D03*
X40980000Y134480000D03*
X32500000Y143000000D03*
X34000000Y145000000D03*
X32500000Y145000000D03*
X34000000Y144000000D03*
X36500000Y173500000D03*
X40000000Y134500000D03*
X31500000Y59500000D03*
X-32520000Y59480000D03*
X32500000Y144000000D03*
X46500000Y77000000D03*
X46500000Y143000000D03*
X37500000Y191000000D03*
X37500000Y68000000D03*
X49000000Y77000000D03*
X40000000Y68000000D03*
X49000000Y143000000D03*
X40000000Y191000000D03*
X51500000Y77000000D03*
X51500000Y143000000D03*
X42500000Y191000000D03*
X54000000Y143000000D03*
X45000000Y191000000D03*
X54000000Y137000000D03*
X54000000Y77000000D03*
X45000000Y179000000D03*
X45000000Y56000000D03*
X45000000Y121000000D03*
X42500000Y56000000D03*
X44000000Y123500000D03*
X42500000Y179000000D03*
X40000000Y56000000D03*
X43000000Y126000000D03*
X40000000Y179000000D03*
X37500000Y56000000D03*
X37500000Y179000000D03*
X42000000Y128500000D03*
D15*
X40000000Y160900000D02*
X20900000Y160900000D01*
X20900000Y160900000D02*
X18000000Y158000000D01*
X18000000Y158000000D02*
X3100000Y158000000D01*
X3100000Y158000000D02*
X0Y161100000D01*
X0Y161100000D02*
X0Y183500000D01*
X3000000Y161000000D02*
X17000000Y161000000D01*
X17000000Y161000000D02*
X19450000Y163450000D01*
X19450000Y163450000D02*
X40000000Y163450000D01*
X73250000Y97400000D02*
X73250000Y110050000D01*
X73250000Y110050000D02*
X73300000Y110100000D01*
X-1000000Y118000000D02*
X-1000000Y99950000D01*
X2000000Y118000000D02*
X2000000Y102500000D01*
X1000000Y118000000D02*
X1000000Y110100000D01*
X40000000Y166000000D02*
X19000000Y166000000D01*
X-46500000Y72000000D02*
X-46500000Y70750000D01*
X-46500000Y70750000D02*
X-65750000Y51500000D01*
X-65750000Y51500000D02*
X-71000000Y51500000D01*
X-46500000Y69500000D02*
X-66500000Y49500000D01*
X-66500000Y49500000D02*
X-79500000Y49500000D01*
X40000000Y68000000D02*
X40000000Y60000000D01*
X40000000Y60000000D02*
X34000000Y54000000D01*
X37500000Y59500000D02*
X34000000Y56000000D01*
X37500000Y68000000D02*
X37500000Y59500000D01*
X-45000000Y149000000D02*
X-49000000Y145000000D01*
X-54000000Y143000000D02*
X-54000000Y137000000D01*
X-50500000Y185500000D02*
X-45000000Y191000000D01*
X-54000000Y137000000D02*
X-54000000Y77000000D01*
X-45000000Y151500000D02*
X-45000000Y149000000D01*
X-50500000Y157000000D02*
X-45000000Y151500000D01*
X-49000000Y145000000D02*
X-52000000Y145000000D01*
X-50500000Y161500000D02*
X-50500000Y157000000D01*
X-50500000Y161500000D02*
X-50500000Y185500000D01*
X-52000000Y145000000D02*
X-54000000Y143000000D01*
X-44000000Y148500000D02*
X-48500000Y144000000D01*
X-50500000Y144000000D02*
X-51500000Y143000000D01*
X-49500000Y184000000D02*
X-42500000Y191000000D01*
X-44000000Y152000000D02*
X-44000000Y148500000D01*
X-49500000Y157500000D02*
X-44000000Y152000000D01*
X-51500000Y143000000D02*
X-51500000Y77000000D01*
X-49500000Y160500000D02*
X-49500000Y157500000D01*
X-49500000Y160500000D02*
X-49500000Y184000000D01*
X-48500000Y144000000D02*
X-50500000Y144000000D01*
X-48549520Y158049520D02*
X-43049520Y152549520D01*
X-43049520Y147950480D02*
X-48000000Y143000000D01*
X-48549520Y159500000D02*
X-48549520Y158049520D01*
X-48000000Y143000000D02*
X-49000000Y143000000D01*
X-48549520Y159500000D02*
X-48549520Y182450480D01*
X-48549520Y182450480D02*
X-40000000Y191000000D01*
X-43049520Y152549520D02*
X-43049520Y147950480D01*
X-49000000Y143000000D02*
X-49000000Y77000000D01*
X-47500000Y181000000D02*
X-47500000Y166000000D01*
X-37500000Y191000000D02*
X-47500000Y181000000D01*
X-36500000Y137000000D02*
X22000000Y137000000D01*
X-46500000Y137000000D02*
X-46500000Y77000000D01*
X-47500000Y158500000D02*
X-42000000Y153000000D01*
X-42000000Y153000000D02*
X-42000000Y147500000D01*
X-42000000Y147500000D02*
X-46500000Y143000000D01*
X-46500000Y143000000D02*
X-46500000Y137000000D01*
X22000000Y137000000D02*
X28000000Y131000000D01*
X-47500000Y166000000D02*
X-47500000Y158500000D01*
X-38000000Y145500000D02*
X-42000000Y141500000D01*
X-42000000Y128500000D02*
X-42000000Y60500000D01*
X-43500000Y173000000D02*
X-43500000Y160500000D01*
X-42000000Y60500000D02*
X-37500000Y56000000D01*
X-37500000Y179000000D02*
X-43500000Y173000000D01*
X-38000000Y155000000D02*
X-38000000Y145500000D01*
X-43500000Y160500000D02*
X-38000000Y155000000D01*
X16000000Y133000000D02*
X28000000Y121000000D01*
X-40500000Y133000000D02*
X16000000Y133000000D01*
X-42000000Y141500000D02*
X-42000000Y128500000D01*
X-43000000Y59000000D02*
X-40000000Y56000000D01*
X-44500000Y160000000D02*
X-39000000Y154500000D01*
X-43000000Y59500000D02*
X-43000000Y59000000D01*
X-39000000Y146000000D02*
X-43000000Y142000000D01*
X-43000000Y126000000D02*
X-43000000Y59500000D01*
X17500000Y134000000D02*
X28000000Y123500000D01*
X-44500000Y174500000D02*
X-44500000Y160000000D01*
X-39000000Y154500000D02*
X-39000000Y146000000D01*
X-40000000Y179000000D02*
X-44500000Y174500000D01*
X-39500000Y134000000D02*
X17500000Y134000000D01*
X-43000000Y142000000D02*
X-43000000Y126000000D01*
X-45500000Y159500000D02*
X-40000000Y154000000D01*
X-44000000Y142500000D02*
X-44000000Y123500000D01*
X-45500000Y176000000D02*
X-45500000Y159500000D01*
X-44000000Y57500000D02*
X-42500000Y56000000D01*
X-44000000Y123500000D02*
X-44000000Y57500000D01*
X-42500000Y179000000D02*
X-45500000Y176000000D01*
X-40000000Y146500000D02*
X-44000000Y142500000D01*
X19000000Y135000000D02*
X28000000Y126000000D01*
X-38500000Y135000000D02*
X19000000Y135000000D01*
X-40000000Y154000000D02*
X-40000000Y146500000D01*
X-46500000Y159000000D02*
X-46500000Y177500000D01*
X-37500000Y136000000D02*
X20500000Y136000000D01*
X-45000000Y121000000D02*
X-45000000Y56000000D01*
X-41000000Y147000000D02*
X-41000000Y153500000D01*
X-45000000Y121000000D02*
X-45000000Y143000000D01*
X-41000000Y153500000D02*
X-46500000Y159000000D01*
X-46500000Y177500000D02*
X-45000000Y179000000D01*
X20500000Y136000000D02*
X28000000Y128500000D01*
X-45000000Y143000000D02*
X-41000000Y147000000D01*
X47500000Y166000000D02*
X47500000Y158500000D01*
X37500000Y191000000D02*
X47500000Y181000000D01*
X47500000Y158500000D02*
X42000000Y153000000D01*
X42000000Y153000000D02*
X42000000Y147500000D01*
X47500000Y181000000D02*
X47500000Y166000000D01*
X42000000Y147500000D02*
X46500000Y143000000D01*
X46500000Y143000000D02*
X46500000Y77000000D01*
X43049520Y152549520D02*
X43049520Y147950480D01*
X48000000Y143000000D02*
X49000000Y143000000D01*
X48549520Y158049520D02*
X43049520Y152549520D01*
X40000000Y191000000D02*
X48549520Y182450480D01*
X48549520Y163549520D02*
X48549520Y158049520D01*
X43049520Y147950480D02*
X48000000Y143000000D01*
X48549520Y182450480D02*
X48549520Y163549520D01*
X49000000Y143000000D02*
X49000000Y77000000D01*
X48500000Y144000000D02*
X50500000Y144000000D01*
X49500000Y161000000D02*
X49500000Y157500000D01*
X44000000Y152000000D02*
X44000000Y148500000D01*
X51500000Y143000000D02*
X51500000Y77000000D01*
X50500000Y144000000D02*
X51500000Y143000000D01*
X49500000Y157500000D02*
X44000000Y152000000D01*
X49500000Y184000000D02*
X49500000Y161000000D01*
X42500000Y191000000D02*
X49500000Y184000000D01*
X44000000Y148500000D02*
X48500000Y144000000D01*
X45000000Y151500000D02*
X50500000Y157000000D01*
X54000000Y143000000D02*
X54000000Y137000000D01*
X52000000Y145000000D02*
X49000000Y145000000D01*
X54000000Y137000000D02*
X54000000Y77000000D01*
X50500000Y157000000D02*
X50500000Y185500000D01*
X49000000Y145000000D02*
X45000000Y149000000D01*
X54000000Y143000000D02*
X52000000Y145000000D01*
X50500000Y185500000D02*
X45000000Y191000000D01*
X45000000Y149000000D02*
X45000000Y151500000D01*
X46500000Y159000000D02*
X46500000Y177500000D01*
X45000000Y143000000D02*
X41000000Y147000000D01*
X45000000Y121000000D02*
X45000000Y143000000D01*
X45000000Y121000000D02*
X45000000Y56000000D01*
X46500000Y177500000D02*
X45000000Y179000000D01*
X41000000Y153500000D02*
X46500000Y159000000D01*
X41000000Y147000000D02*
X41000000Y153500000D01*
X45500000Y159500000D02*
X40000000Y154000000D01*
X40000000Y146500000D02*
X44000000Y142500000D01*
X42500000Y179000000D02*
X45500000Y176000000D01*
X45500000Y176000000D02*
X45500000Y159500000D01*
X40000000Y154000000D02*
X40000000Y146500000D01*
X44000000Y123500000D02*
X44000000Y57500000D01*
X44000000Y57500000D02*
X42500000Y56000000D01*
X44000000Y142500000D02*
X44000000Y123500000D01*
X40000000Y179000000D02*
X44500000Y174500000D01*
X43000000Y59500000D02*
X43000000Y59000000D01*
X44500000Y174500000D02*
X44500000Y160000000D01*
X39000000Y154500000D02*
X39000000Y146000000D01*
X43000000Y59000000D02*
X40000000Y56000000D01*
X43000000Y126000000D02*
X43000000Y59500000D01*
X44500000Y160000000D02*
X39000000Y154500000D01*
X43000000Y142000000D02*
X43000000Y126000000D01*
X39000000Y146000000D02*
X43000000Y142000000D01*
X43500000Y160500000D02*
X38000000Y155000000D01*
X37500000Y179000000D02*
X43500000Y173000000D01*
X42000000Y60500000D02*
X37500000Y56000000D01*
X42000000Y141500000D02*
X42000000Y128500000D01*
X43500000Y173000000D02*
X43500000Y160500000D01*
X38000000Y145500000D02*
X42000000Y141500000D01*
X38000000Y155000000D02*
X38000000Y145500000D01*
X42000000Y128500000D02*
X42000000Y60500000D01*
G04 #@! TA.AperFunction,Conductor*
G36*
X19144578Y199448670D02*
G01*
X22087979Y199309177D01*
X22091415Y199308919D01*
X24965752Y199012590D01*
X24968475Y199012249D01*
X27750967Y198600716D01*
X27752910Y198600395D01*
X29426054Y198296139D01*
X30419751Y198115437D01*
X30421944Y198114999D01*
X32972677Y197556705D01*
X32974980Y197556154D01*
X35409539Y196924563D01*
X35412030Y196923861D01*
X37730441Y196218997D01*
X37733103Y196218122D01*
X38710298Y195872859D01*
X39935449Y195439988D01*
X39938228Y195438930D01*
X42024407Y194587597D01*
X42027360Y194586302D01*
X43752137Y193776901D01*
X43997538Y193661739D01*
X43997562Y193661728D01*
X44000461Y193660275D01*
X45875670Y192659218D01*
X45878375Y192657685D01*
X47679414Y191576963D01*
X47682114Y191575247D01*
X49408866Y190414937D01*
X49411529Y190413045D01*
X49713597Y190186398D01*
X51064108Y189173084D01*
X51066677Y189171048D01*
X52645028Y187851482D01*
X52647523Y187849281D01*
X54151695Y186450080D01*
X54154054Y186447766D01*
X54724107Y185858244D01*
X55584102Y184968878D01*
X55586344Y184966434D01*
X56941549Y183408676D01*
X56944745Y183404686D01*
X58170058Y181741103D01*
X58173845Y181735322D01*
X58924453Y180439898D01*
X59215698Y179937257D01*
X59218763Y179931248D01*
X60077853Y177997602D01*
X60080164Y177991589D01*
X60328877Y177230555D01*
X60751472Y175937458D01*
X60756483Y175922127D01*
X60758080Y175916310D01*
X61251562Y173710779D01*
X61252536Y173705302D01*
X61563046Y171363615D01*
X61563510Y171358566D01*
X61690917Y168880617D01*
X61690986Y168876036D01*
X61635201Y166263586D01*
X61634649Y166256495D01*
X61283453Y163655437D01*
X61278976Y163635117D01*
X60521383Y161181981D01*
X60513523Y161162478D01*
X59348255Y158849141D01*
X59337795Y158831948D01*
X57763688Y156657099D01*
X57751869Y156643051D01*
X55764720Y154603316D01*
X55758718Y154597898D01*
X53357175Y152694635D01*
X53351499Y152690625D01*
X50538378Y150927413D01*
X50533237Y150924516D01*
X47316589Y149305829D01*
X47305127Y149301276D01*
X47300275Y149297333D01*
X47300181Y149297197D01*
X47298623Y149293586D01*
X47298564Y149289578D01*
X47298839Y149288080D01*
X47300299Y149284402D01*
X47303077Y149281543D01*
X47303137Y149281502D01*
X47309133Y149279520D01*
X47321490Y149279339D01*
X51667556Y148829809D01*
X51672543Y148829090D01*
X55812262Y148059262D01*
X55817577Y148058033D01*
X59674041Y146987748D01*
X59741670Y146968979D01*
X59747183Y146967172D01*
X63455838Y145558952D01*
X63461397Y145556528D01*
X66954802Y143829157D01*
X66960242Y143826124D01*
X70213592Y141795172D01*
X70238566Y141779582D01*
X70243713Y141776002D01*
X73290773Y139422837D01*
X73307181Y139410166D01*
X73311884Y139406150D01*
X76160940Y136720588D01*
X76164633Y136716801D01*
X78764203Y133814833D01*
X78767243Y133811170D01*
X78787055Y133785367D01*
X81081723Y130796799D01*
X81084600Y130792728D01*
X83113771Y127666271D01*
X83116396Y127661840D01*
X84860344Y124423256D01*
X84862639Y124418532D01*
X85613246Y122694435D01*
X86320080Y121070879D01*
X86321467Y121067695D01*
X86323368Y121062775D01*
X86551591Y120389399D01*
X87497119Y117599593D01*
X87498594Y117594565D01*
X88387311Y114018882D01*
X88388344Y114013860D01*
X88672669Y112276707D01*
X88991992Y110325716D01*
X88992615Y110320600D01*
X89291969Y106590312D01*
X89292170Y106584860D01*
X89268088Y102882501D01*
X89267810Y102876977D01*
X88920320Y99202325D01*
X88919560Y99196855D01*
X88248646Y95549771D01*
X88247435Y95544478D01*
X87253034Y91924802D01*
X87251431Y91919795D01*
X87249990Y91915865D01*
X85933479Y88327467D01*
X85931558Y88322814D01*
X84289952Y84757736D01*
X84287799Y84753490D01*
X82323247Y81217077D01*
X82319335Y81210908D01*
X79989839Y77968436D01*
X79975826Y77952084D01*
X77236358Y75259953D01*
X77218980Y75245688D01*
X74064748Y73096969D01*
X74045501Y73086194D01*
X70474581Y71479851D01*
X70455356Y71473015D01*
X66465846Y70409130D01*
X66448153Y70405744D01*
X62034940Y69884702D01*
X62027236Y69884268D01*
X57279293Y69907616D01*
X57190425Y69908053D01*
X57183943Y69908419D01*
X51937468Y70477019D01*
X51934349Y70477623D01*
X51925579Y70478330D01*
X51923895Y70478489D01*
X51922802Y70478607D01*
X51922801Y70478607D01*
X51920542Y70478851D01*
X51918257Y70478113D01*
X51914731Y70475277D01*
X51912673Y70471253D01*
X51912186Y70466755D01*
X51913578Y70462454D01*
X51915087Y70460578D01*
X51918058Y70459059D01*
X51919640Y70458221D01*
X51927336Y70454007D01*
X51930328Y70452784D01*
X54487211Y69145156D01*
X54490015Y69143474D01*
X54491484Y69142834D01*
X54495030Y69141156D01*
X54496468Y69140420D01*
X54499545Y69139320D01*
X57107288Y68002565D01*
X57110216Y68001048D01*
X57111632Y68000534D01*
X57115340Y67999055D01*
X57116744Y67998443D01*
X57119915Y67997526D01*
X58010316Y67674310D01*
X59773001Y67034454D01*
X59776046Y67033113D01*
X59777463Y67032698D01*
X59781276Y67031449D01*
X59782660Y67030947D01*
X59785909Y67030228D01*
X62484385Y66240819D01*
X62487503Y66239679D01*
X62488908Y66239363D01*
X62492793Y66238360D01*
X62494214Y66237945D01*
X62497505Y66237434D01*
X65241360Y65621691D01*
X65244548Y65620748D01*
X65246004Y65620517D01*
X65249944Y65619763D01*
X65251382Y65619441D01*
X65254683Y65619141D01*
X68043986Y65177050D01*
X68047210Y65176316D01*
X68048693Y65176176D01*
X68052689Y65175671D01*
X68054175Y65175435D01*
X68057469Y65175346D01*
X70128300Y64979250D01*
X70892209Y64906911D01*
X70895432Y64906385D01*
X70897058Y64906331D01*
X70900945Y64906083D01*
X70902587Y64905928D01*
X70905846Y64906041D01*
X73090468Y64834159D01*
X73792493Y64811059D01*
X76635290Y64661468D01*
X76641919Y64660765D01*
X79342170Y64228573D01*
X79349132Y64227048D01*
X81910529Y63512218D01*
X81917580Y63509792D01*
X84340489Y62512350D01*
X84347296Y62509056D01*
X86632085Y61228900D01*
X86638373Y61224870D01*
X87285796Y60753517D01*
X88785305Y59661807D01*
X88790855Y59657262D01*
X89517855Y58989247D01*
X90788562Y57821637D01*
X90800165Y57810976D01*
X90804864Y57806171D01*
X92676873Y55676070D01*
X92680261Y55671864D01*
X94372501Y53376502D01*
X94375153Y53372608D01*
X95844570Y51031589D01*
X95847054Y51027261D01*
X97093404Y48641030D01*
X97095630Y48636301D01*
X98119027Y46204788D01*
X98120908Y46199721D01*
X98921439Y43722843D01*
X98922902Y43717532D01*
X99087249Y43000003D01*
X99500384Y41196284D01*
X99500634Y41195195D01*
X99501631Y41189753D01*
X99739576Y39468437D01*
X99856490Y38622662D01*
X99856613Y38621776D01*
X99857126Y38616330D01*
X99889464Y37977128D01*
X99989420Y36001307D01*
X99989500Y35998146D01*
X99989500Y19011644D01*
X99987678Y18990296D01*
X99361213Y15346322D01*
X99356015Y15326200D01*
X98230810Y12097902D01*
X98220969Y12076406D01*
X96598304Y9263818D01*
X96583580Y9243346D01*
X94462884Y6843645D01*
X94444639Y6826713D01*
X91823758Y4837749D01*
X91804422Y4825665D01*
X88680694Y3246923D01*
X88662458Y3239435D01*
X85030074Y2070507D01*
X85022097Y2068504D01*
X80879647Y1311679D01*
X80874862Y1310993D01*
X76217131Y825069D01*
X76214937Y824879D01*
X73199450Y616500D01*
X71034623Y466905D01*
X71032853Y466808D01*
X65331224Y236962D01*
X65329716Y236919D01*
X61974943Y182099D01*
X59106913Y135232D01*
X59105737Y135225D01*
X52361199Y161722D01*
X49333702Y226185D01*
X45095242Y316433D01*
X37308329Y599353D01*
X29024140Y1009319D01*
X29015033Y1011365D01*
X28999999Y1011366D01*
X28997639Y1010388D01*
X28994765Y1009280D01*
X28992371Y1008424D01*
X28981234Y998338D01*
X28975856Y990707D01*
X28032554Y47404D01*
X27970244Y13380D01*
X27943461Y10500D01*
X-27943461Y10500D01*
X-28011582Y30502D01*
X-28032556Y47405D01*
X-28975843Y990692D01*
X-28981213Y998315D01*
X-28992373Y1008425D01*
X-28994769Y1009281D01*
X-28997665Y1010398D01*
X-29000000Y1011365D01*
X-29015025Y1011367D01*
X-29024141Y1009319D01*
X-37308331Y599353D01*
X-45095244Y316433D01*
X-49454804Y223607D01*
X-52361200Y161722D01*
X-59105739Y135225D01*
X-59106914Y135232D01*
X-62061744Y183517D01*
X-65329718Y236919D01*
X-65331226Y236962D01*
X-71032858Y466808D01*
X-71034625Y466904D01*
X-73495394Y636951D01*
X-76214939Y824879D01*
X-76217133Y825069D01*
X-80874864Y1310993D01*
X-80879645Y1311678D01*
X-85022103Y2068504D01*
X-85030076Y2070507D01*
X-88662462Y3239436D01*
X-88680698Y3246924D01*
X-91804424Y4825665D01*
X-91823760Y4837749D01*
X-92696415Y5499999D01*
X-50755527Y5499999D01*
X-50735437Y5167861D01*
X-50735436Y5167858D01*
X-50675457Y4840560D01*
X-50576462Y4522873D01*
X-50439904Y4219454D01*
X-50439901Y4219448D01*
X-50267755Y3934683D01*
X-50062548Y3672754D01*
X-50062536Y3672741D01*
X-49827260Y3437465D01*
X-49827247Y3437453D01*
X-49584053Y3246924D01*
X-49565318Y3232246D01*
X-49280557Y3060102D01*
X-49280555Y3060101D01*
X-49280553Y3060100D01*
X-49280547Y3060097D01*
X-48977128Y2923539D01*
X-48977127Y2923539D01*
X-48977123Y2923537D01*
X-48659441Y2824544D01*
X-48332142Y2764564D01*
X-48110714Y2751171D01*
X-48000001Y2744473D01*
X-48000000Y2744473D01*
X-47999999Y2744473D01*
X-47916965Y2749496D01*
X-47667858Y2764564D01*
X-47340559Y2824544D01*
X-47022877Y2923537D01*
X-46719443Y3060102D01*
X-46434682Y3232246D01*
X-46172748Y3437458D01*
X-45937458Y3672748D01*
X-45732246Y3934682D01*
X-45560102Y4219443D01*
X-45423537Y4522877D01*
X-45324544Y4840559D01*
X-45264564Y5167858D01*
X-45244473Y5499999D01*
X45244473Y5499999D01*
X45264563Y5167861D01*
X45264564Y5167858D01*
X45324543Y4840560D01*
X45423538Y4522873D01*
X45560096Y4219454D01*
X45560099Y4219448D01*
X45732245Y3934683D01*
X45937452Y3672754D01*
X45937464Y3672741D01*
X46172740Y3437465D01*
X46172753Y3437453D01*
X46415947Y3246924D01*
X46434682Y3232246D01*
X46719443Y3060102D01*
X46719445Y3060101D01*
X46719447Y3060100D01*
X46719453Y3060097D01*
X47022872Y2923539D01*
X47022873Y2923539D01*
X47022877Y2923537D01*
X47340559Y2824544D01*
X47667858Y2764564D01*
X47889286Y2751171D01*
X47999999Y2744473D01*
X48000000Y2744473D01*
X48000001Y2744473D01*
X48083035Y2749496D01*
X48332142Y2764564D01*
X48659441Y2824544D01*
X48977123Y2923537D01*
X49280557Y3060102D01*
X49565318Y3232246D01*
X49827252Y3437458D01*
X50062542Y3672748D01*
X50267754Y3934682D01*
X50439898Y4219443D01*
X50576463Y4522877D01*
X50675456Y4840559D01*
X50735436Y5167858D01*
X50755527Y5500000D01*
X50735436Y5832142D01*
X50675456Y6159441D01*
X50576463Y6477123D01*
X50576461Y6477128D01*
X50439903Y6780547D01*
X50439900Y6780553D01*
X50417530Y6817557D01*
X50267754Y7065318D01*
X50183588Y7172748D01*
X50062547Y7327247D01*
X50062535Y7327260D01*
X49867010Y7522785D01*
X67988633Y7522785D01*
X67988634Y7500001D01*
X67989498Y7497917D01*
X67989499Y7497912D01*
X67989500Y7497912D01*
X67991963Y7491965D01*
X68008110Y7475822D01*
X68011782Y7473369D01*
X68973378Y6511773D01*
X68975849Y6508075D01*
X68991964Y6491964D01*
X68992353Y6491803D01*
X68994051Y6491100D01*
X68994052Y6491099D01*
X69000000Y6488635D01*
X69022784Y6488634D01*
X69027144Y6489500D01*
X75972845Y6489500D01*
X75977193Y6488635D01*
X75999998Y6488635D01*
X75999998Y6488636D01*
X76000000Y6488635D01*
X76005948Y6491099D01*
X76005948Y6491100D01*
X76008036Y6491964D01*
X76008036Y6491966D01*
X76008053Y6491972D01*
X76009184Y6492441D01*
X76012264Y6496193D01*
X76024177Y6508107D01*
X76026636Y6511789D01*
X76988211Y7473364D01*
X76991874Y7475810D01*
X77008034Y7491964D01*
X77008036Y7491964D01*
X77010500Y7497912D01*
X77011365Y7500000D01*
X77011364Y7500003D01*
X77011365Y7500004D01*
X77011366Y7522785D01*
X77010500Y7527144D01*
X77010500Y8999999D01*
X83944473Y8999999D01*
X83964563Y8667861D01*
X83964564Y8667858D01*
X84024543Y8340560D01*
X84123538Y8022873D01*
X84260096Y7719454D01*
X84260099Y7719448D01*
X84432245Y7434683D01*
X84637452Y7172754D01*
X84637464Y7172741D01*
X84872740Y6937465D01*
X84872753Y6937453D01*
X85073030Y6780547D01*
X85134682Y6732246D01*
X85419443Y6560102D01*
X85419445Y6560101D01*
X85419447Y6560100D01*
X85419453Y6560097D01*
X85722872Y6423539D01*
X85722873Y6423539D01*
X85722877Y6423537D01*
X86040559Y6324544D01*
X86367858Y6264564D01*
X86589286Y6251171D01*
X86699999Y6244473D01*
X86700000Y6244473D01*
X86700001Y6244473D01*
X86783035Y6249496D01*
X87032142Y6264564D01*
X87359441Y6324544D01*
X87677123Y6423537D01*
X87980557Y6560102D01*
X88265318Y6732246D01*
X88527252Y6937458D01*
X88762542Y7172748D01*
X88967754Y7434682D01*
X89139898Y7719443D01*
X89276463Y8022877D01*
X89375456Y8340559D01*
X89435436Y8667858D01*
X89455527Y9000000D01*
X89435436Y9332142D01*
X89375456Y9659441D01*
X89276463Y9977123D01*
X89139898Y10280557D01*
X88967754Y10565318D01*
X88967753Y10565318D01*
X88762547Y10827247D01*
X88762535Y10827260D01*
X88527259Y11062536D01*
X88527246Y11062548D01*
X88265317Y11267755D01*
X87980552Y11439901D01*
X87980546Y11439904D01*
X87677127Y11576462D01*
X87359440Y11675457D01*
X87032142Y11735436D01*
X87032139Y11735437D01*
X86700001Y11755527D01*
X86699999Y11755527D01*
X86367860Y11735437D01*
X86367857Y11735436D01*
X86040559Y11675457D01*
X85722872Y11576462D01*
X85419453Y11439904D01*
X85419447Y11439901D01*
X85134682Y11267755D01*
X84872753Y11062548D01*
X84872740Y11062536D01*
X84637464Y10827260D01*
X84637452Y10827247D01*
X84432245Y10565318D01*
X84260099Y10280553D01*
X84260096Y10280547D01*
X84123538Y9977128D01*
X84024543Y9659441D01*
X83964564Y9332143D01*
X83964563Y9332140D01*
X83944473Y9000002D01*
X83944473Y8999999D01*
X77010500Y8999999D01*
X77010500Y21472846D01*
X77011364Y21477193D01*
X77011365Y21500000D01*
X77008226Y21507577D01*
X77008036Y21508036D01*
X76991925Y21524151D01*
X76988227Y21526622D01*
X76026631Y22488218D01*
X76024178Y22491890D01*
X76008036Y22508036D01*
X76008034Y22508037D01*
X76002088Y22510500D01*
X76000000Y22511365D01*
X75999999Y22511365D01*
X75977194Y22511365D01*
X75972846Y22510500D01*
X69027144Y22510500D01*
X69022784Y22511367D01*
X68999999Y22511366D01*
X68997914Y22510501D01*
X68991964Y22508037D01*
X68975853Y22491929D01*
X68973386Y22488237D01*
X68011763Y21526614D01*
X68008077Y21524150D01*
X67991964Y21508037D01*
X67988635Y21500004D01*
X67988635Y21477193D01*
X67989500Y21472846D01*
X67989500Y7527144D01*
X67988633Y7522785D01*
X49867010Y7522785D01*
X49827259Y7562536D01*
X49827246Y7562548D01*
X49565317Y7767755D01*
X49280552Y7939901D01*
X49280546Y7939904D01*
X48977127Y8076462D01*
X48659440Y8175457D01*
X48332142Y8235436D01*
X48332139Y8235437D01*
X48000001Y8255527D01*
X47999999Y8255527D01*
X47667860Y8235437D01*
X47667857Y8235436D01*
X47340559Y8175457D01*
X47022872Y8076462D01*
X46719453Y7939904D01*
X46719447Y7939901D01*
X46434682Y7767755D01*
X46172753Y7562548D01*
X46172740Y7562536D01*
X45937464Y7327260D01*
X45937452Y7327247D01*
X45732245Y7065318D01*
X45560099Y6780553D01*
X45560096Y6780547D01*
X45423538Y6477128D01*
X45324543Y6159441D01*
X45264564Y5832143D01*
X45264563Y5832140D01*
X45244473Y5500002D01*
X45244473Y5499999D01*
X-45244473Y5499999D01*
X-45244473Y5500000D01*
X-45264564Y5832142D01*
X-45324544Y6159441D01*
X-45423537Y6477123D01*
X-45423539Y6477128D01*
X-45560097Y6780547D01*
X-45560100Y6780553D01*
X-45582470Y6817557D01*
X-45732246Y7065318D01*
X-45816412Y7172748D01*
X-45937453Y7327247D01*
X-45937465Y7327260D01*
X-46172741Y7562536D01*
X-46172754Y7562548D01*
X-46434683Y7767755D01*
X-46719448Y7939901D01*
X-46719454Y7939904D01*
X-47022873Y8076462D01*
X-47340560Y8175457D01*
X-47667858Y8235436D01*
X-47667861Y8235437D01*
X-47999999Y8255527D01*
X-48000001Y8255527D01*
X-48332140Y8235437D01*
X-48332143Y8235436D01*
X-48659441Y8175457D01*
X-48977128Y8076462D01*
X-49280547Y7939904D01*
X-49280553Y7939901D01*
X-49565318Y7767755D01*
X-49827247Y7562548D01*
X-49827260Y7562536D01*
X-50062536Y7327260D01*
X-50062548Y7327247D01*
X-50267755Y7065318D01*
X-50439901Y6780553D01*
X-50439904Y6780547D01*
X-50576462Y6477128D01*
X-50675457Y6159441D01*
X-50735436Y5832143D01*
X-50735437Y5832140D01*
X-50755527Y5500002D01*
X-50755527Y5499999D01*
X-92696415Y5499999D01*
X-94444641Y6826712D01*
X-94462886Y6843644D01*
X-96368528Y8999999D01*
X-89455527Y8999999D01*
X-89435437Y8667861D01*
X-89435436Y8667858D01*
X-89375457Y8340560D01*
X-89276462Y8022873D01*
X-89139904Y7719454D01*
X-89139901Y7719448D01*
X-88967755Y7434683D01*
X-88762548Y7172754D01*
X-88762536Y7172741D01*
X-88527260Y6937465D01*
X-88527247Y6937453D01*
X-88326970Y6780547D01*
X-88265318Y6732246D01*
X-87980557Y6560102D01*
X-87980555Y6560101D01*
X-87980553Y6560100D01*
X-87980547Y6560097D01*
X-87677128Y6423539D01*
X-87677127Y6423539D01*
X-87677123Y6423537D01*
X-87359441Y6324544D01*
X-87032142Y6264564D01*
X-86810715Y6251171D01*
X-86700001Y6244473D01*
X-86700000Y6244473D01*
X-86699999Y6244473D01*
X-86616965Y6249496D01*
X-86367858Y6264564D01*
X-86040559Y6324544D01*
X-85722877Y6423537D01*
X-85419443Y6560102D01*
X-85134682Y6732246D01*
X-84872748Y6937458D01*
X-84637458Y7172748D01*
X-84432246Y7434682D01*
X-84378986Y7522785D01*
X-77011367Y7522785D01*
X-77011366Y7500001D01*
X-77010502Y7497917D01*
X-77010501Y7497912D01*
X-77010500Y7497912D01*
X-77008037Y7491965D01*
X-76991890Y7475822D01*
X-76988218Y7473369D01*
X-76026622Y6511773D01*
X-76024151Y6508075D01*
X-76008036Y6491964D01*
X-76007647Y6491803D01*
X-76005949Y6491100D01*
X-76005948Y6491099D01*
X-76000000Y6488635D01*
X-75977216Y6488634D01*
X-75972856Y6489500D01*
X-69027155Y6489500D01*
X-69022807Y6488635D01*
X-69000002Y6488635D01*
X-69000002Y6488636D01*
X-69000000Y6488635D01*
X-68994052Y6491099D01*
X-68994052Y6491100D01*
X-68991964Y6491964D01*
X-68991964Y6491966D01*
X-68991947Y6491972D01*
X-68990816Y6492441D01*
X-68987736Y6496193D01*
X-68975823Y6508107D01*
X-68973364Y6511789D01*
X-68011789Y7473364D01*
X-68008126Y7475810D01*
X-67991966Y7491964D01*
X-67991964Y7491964D01*
X-67989500Y7497912D01*
X-67988635Y7500000D01*
X-67988636Y7500003D01*
X-67988635Y7500004D01*
X-67988634Y7522785D01*
X-67989500Y7527144D01*
X-67989500Y21472846D01*
X-67988635Y21477193D01*
X-67988635Y21500000D01*
X-67991774Y21507577D01*
X-67991964Y21508036D01*
X-68008075Y21524151D01*
X-68011773Y21526622D01*
X-68973369Y22488218D01*
X-68975822Y22491890D01*
X-68991964Y22508036D01*
X-68991966Y22508037D01*
X-68997912Y22510500D01*
X-69000000Y22511365D01*
X-69000001Y22511365D01*
X-69022806Y22511365D01*
X-69027154Y22510500D01*
X-75972856Y22510500D01*
X-75977216Y22511367D01*
X-76000001Y22511366D01*
X-76002086Y22510501D01*
X-76008036Y22508037D01*
X-76024147Y22491929D01*
X-76026614Y22488237D01*
X-76988237Y21526614D01*
X-76991923Y21524150D01*
X-77008036Y21508037D01*
X-77011365Y21500004D01*
X-77011365Y21477193D01*
X-77010500Y21472846D01*
X-77010500Y7527144D01*
X-77011367Y7522785D01*
X-84378986Y7522785D01*
X-84260102Y7719443D01*
X-84123537Y8022877D01*
X-84024544Y8340559D01*
X-83964564Y8667858D01*
X-83944473Y9000000D01*
X-83964564Y9332142D01*
X-84024544Y9659441D01*
X-84123537Y9977123D01*
X-84260102Y10280557D01*
X-84432246Y10565318D01*
X-84432246Y10565319D01*
X-84637453Y10827247D01*
X-84637465Y10827260D01*
X-84872741Y11062536D01*
X-84872754Y11062548D01*
X-85134683Y11267755D01*
X-85419448Y11439901D01*
X-85419454Y11439904D01*
X-85722873Y11576462D01*
X-86040560Y11675457D01*
X-86367858Y11735436D01*
X-86367861Y11735437D01*
X-86699999Y11755527D01*
X-86700001Y11755527D01*
X-87032140Y11735437D01*
X-87032143Y11735436D01*
X-87359441Y11675457D01*
X-87677128Y11576462D01*
X-87980547Y11439904D01*
X-87980553Y11439901D01*
X-88265318Y11267755D01*
X-88527247Y11062548D01*
X-88527260Y11062536D01*
X-88762536Y10827260D01*
X-88762548Y10827247D01*
X-88967755Y10565318D01*
X-89139901Y10280553D01*
X-89139904Y10280547D01*
X-89276462Y9977128D01*
X-89375457Y9659441D01*
X-89435436Y9332143D01*
X-89435437Y9332140D01*
X-89455527Y9000002D01*
X-89455527Y8999999D01*
X-96368528Y8999999D01*
X-96583583Y9243347D01*
X-96598307Y9263819D01*
X-98220971Y12076406D01*
X-98230812Y12097902D01*
X-98498456Y12865792D01*
X-99356020Y15326208D01*
X-99361213Y15346313D01*
X-99987678Y18990296D01*
X-99989500Y19011644D01*
X-99989500Y30999998D01*
X-98355421Y30999998D01*
X-98335751Y30637215D01*
X-98276975Y30278689D01*
X-98179775Y29928607D01*
X-98179773Y29928601D01*
X-98045303Y29591107D01*
X-98045298Y29591095D01*
X-97944808Y29401551D01*
X-97875119Y29270103D01*
X-97671226Y28969385D01*
X-97436021Y28692479D01*
X-97172269Y28442638D01*
X-97172254Y28442625D01*
X-96883019Y28222755D01*
X-96571708Y28035445D01*
X-96241969Y27882892D01*
X-95897670Y27766884D01*
X-95542847Y27688782D01*
X-95181659Y27649500D01*
X-95181651Y27649500D01*
X-94818349Y27649500D01*
X-94818341Y27649500D01*
X-94457153Y27688782D01*
X-94102330Y27766884D01*
X-93758031Y27882892D01*
X-93428292Y28035445D01*
X-93116981Y28222755D01*
X-92827746Y28442625D01*
X-92563979Y28692479D01*
X-92328773Y28969386D01*
X-92124883Y29270100D01*
X-91954702Y29591095D01*
X-91820225Y29928609D01*
X-91723027Y30278684D01*
X-91664249Y30637215D01*
X-91644579Y31000000D01*
X-91664249Y31362785D01*
X-91723027Y31721316D01*
X-91820225Y32071391D01*
X-91820226Y32071394D01*
X-91820228Y32071400D01*
X-91954698Y32408894D01*
X-91954702Y32408905D01*
X-92124883Y32729900D01*
X-92328773Y33030614D01*
X-92563979Y33307521D01*
X-92563980Y33307522D01*
X-92827732Y33557363D01*
X-92827747Y33557376D01*
X-93116977Y33777242D01*
X-93116983Y33777246D01*
X-93428287Y33964552D01*
X-93428288Y33964553D01*
X-93428292Y33964555D01*
X-93758031Y34117108D01*
X-94102330Y34233116D01*
X-94102335Y34233118D01*
X-94102338Y34233118D01*
X-94457136Y34311215D01*
X-94457165Y34311220D01*
X-94818334Y34350500D01*
X-94818341Y34350500D01*
X-95181659Y34350500D01*
X-95181667Y34350500D01*
X-95542836Y34311220D01*
X-95542865Y34311215D01*
X-95897663Y34233118D01*
X-95897680Y34233113D01*
X-96241967Y34117109D01*
X-96241970Y34117108D01*
X-96241969Y34117108D01*
X-96571701Y33964558D01*
X-96571714Y33964552D01*
X-96883018Y33777246D01*
X-96883024Y33777242D01*
X-97172254Y33557376D01*
X-97172269Y33557363D01*
X-97436021Y33307522D01*
X-97671226Y33030616D01*
X-97875119Y32729898D01*
X-98045299Y32408903D01*
X-98045303Y32408894D01*
X-98179773Y32071400D01*
X-98179775Y32071394D01*
X-98276975Y31721312D01*
X-98335751Y31362786D01*
X-98355421Y31000003D01*
X-98355421Y30999998D01*
X-99989500Y30999998D01*
X-99989500Y35998146D01*
X-99989421Y36001307D01*
X-99938898Y36999999D01*
X-89455527Y36999999D01*
X-89435437Y36667861D01*
X-89435436Y36667858D01*
X-89375457Y36340560D01*
X-89276462Y36022873D01*
X-89139904Y35719454D01*
X-89139901Y35719448D01*
X-88967755Y35434683D01*
X-88762548Y35172754D01*
X-88762536Y35172741D01*
X-88527260Y34937465D01*
X-88527247Y34937453D01*
X-88265318Y34732247D01*
X-88265318Y34732246D01*
X-87980557Y34560102D01*
X-87980555Y34560101D01*
X-87980553Y34560100D01*
X-87980547Y34560097D01*
X-87677128Y34423539D01*
X-87677127Y34423539D01*
X-87677123Y34423537D01*
X-87359441Y34324544D01*
X-87032142Y34264564D01*
X-86876924Y34255175D01*
X-86700001Y34244473D01*
X-86700000Y34244473D01*
X-86699999Y34244473D01*
X-86644350Y34247840D01*
X-86523078Y34255175D01*
X-86453874Y34239323D01*
X-86404226Y34188572D01*
X-86389897Y34119036D01*
X-86415437Y34052793D01*
X-86462564Y34015051D01*
X-86571703Y33964558D01*
X-86571710Y33964554D01*
X-86883018Y33777246D01*
X-86883024Y33777242D01*
X-87172254Y33557376D01*
X-87172269Y33557363D01*
X-87436021Y33307522D01*
X-87671226Y33030616D01*
X-87875119Y32729898D01*
X-88045299Y32408903D01*
X-88045303Y32408894D01*
X-88179773Y32071400D01*
X-88179775Y32071394D01*
X-88276975Y31721312D01*
X-88335751Y31362786D01*
X-88355421Y31000003D01*
X-88355421Y30999998D01*
X-88335751Y30637215D01*
X-88276975Y30278689D01*
X-88179775Y29928607D01*
X-88179773Y29928601D01*
X-88045303Y29591107D01*
X-88045298Y29591095D01*
X-87944808Y29401551D01*
X-87875119Y29270103D01*
X-87671226Y28969385D01*
X-87436021Y28692479D01*
X-87172269Y28442638D01*
X-87172254Y28442625D01*
X-86883019Y28222755D01*
X-86571708Y28035445D01*
X-86241969Y27882892D01*
X-85897670Y27766884D01*
X-85542847Y27688782D01*
X-85181659Y27649500D01*
X-85181651Y27649500D01*
X-84818349Y27649500D01*
X-84818341Y27649500D01*
X-84457153Y27688782D01*
X-84102330Y27766884D01*
X-83758031Y27882892D01*
X-83428292Y28035445D01*
X-83116981Y28222755D01*
X-82827746Y28442625D01*
X-82563979Y28692479D01*
X-82328773Y28969386D01*
X-82124883Y29270100D01*
X-81954702Y29591095D01*
X-81820225Y29928609D01*
X-81723027Y30278684D01*
X-81664249Y30637215D01*
X-81644579Y30999998D01*
X81644579Y30999998D01*
X81664249Y30637215D01*
X81723025Y30278689D01*
X81820225Y29928607D01*
X81820227Y29928601D01*
X81954697Y29591107D01*
X81954702Y29591095D01*
X82055192Y29401551D01*
X82124881Y29270103D01*
X82328774Y28969385D01*
X82563979Y28692479D01*
X82827731Y28442638D01*
X82827746Y28442625D01*
X83116981Y28222755D01*
X83428292Y28035445D01*
X83758031Y27882892D01*
X84102330Y27766884D01*
X84457153Y27688782D01*
X84818341Y27649500D01*
X84818349Y27649500D01*
X85181651Y27649500D01*
X85181659Y27649500D01*
X85542847Y27688782D01*
X85897670Y27766884D01*
X86241969Y27882892D01*
X86571708Y28035445D01*
X86883019Y28222755D01*
X87172254Y28442625D01*
X87436021Y28692479D01*
X87671227Y28969386D01*
X87875117Y29270100D01*
X88045298Y29591095D01*
X88179775Y29928609D01*
X88276973Y30278684D01*
X88335751Y30637215D01*
X88355421Y30999998D01*
X91644579Y30999998D01*
X91664249Y30637215D01*
X91723025Y30278689D01*
X91820225Y29928607D01*
X91820227Y29928601D01*
X91954697Y29591107D01*
X91954702Y29591095D01*
X92055192Y29401551D01*
X92124881Y29270103D01*
X92328774Y28969385D01*
X92563979Y28692479D01*
X92827731Y28442638D01*
X92827746Y28442625D01*
X93116981Y28222755D01*
X93428292Y28035445D01*
X93758031Y27882892D01*
X94102330Y27766884D01*
X94457153Y27688782D01*
X94818341Y27649500D01*
X94818349Y27649500D01*
X95181651Y27649500D01*
X95181659Y27649500D01*
X95542847Y27688782D01*
X95897670Y27766884D01*
X96241969Y27882892D01*
X96571708Y28035445D01*
X96883019Y28222755D01*
X97172254Y28442625D01*
X97436021Y28692479D01*
X97671227Y28969386D01*
X97875117Y29270100D01*
X98045298Y29591095D01*
X98179775Y29928609D01*
X98276973Y30278684D01*
X98335751Y30637215D01*
X98355421Y31000000D01*
X98335751Y31362785D01*
X98276973Y31721316D01*
X98179775Y32071391D01*
X98179774Y32071394D01*
X98179772Y32071400D01*
X98045302Y32408894D01*
X98045298Y32408905D01*
X97875117Y32729900D01*
X97671227Y33030614D01*
X97436021Y33307521D01*
X97436020Y33307522D01*
X97172268Y33557363D01*
X97172253Y33557376D01*
X96883023Y33777242D01*
X96883017Y33777246D01*
X96571713Y33964552D01*
X96571712Y33964553D01*
X96571708Y33964555D01*
X96241969Y34117108D01*
X95897670Y34233116D01*
X95897665Y34233118D01*
X95897662Y34233118D01*
X95542864Y34311215D01*
X95542835Y34311220D01*
X95181666Y34350500D01*
X95181659Y34350500D01*
X94818341Y34350500D01*
X94818333Y34350500D01*
X94457164Y34311220D01*
X94457135Y34311215D01*
X94102337Y34233118D01*
X94102320Y34233113D01*
X93758033Y34117109D01*
X93758030Y34117108D01*
X93758031Y34117108D01*
X93428299Y33964558D01*
X93428286Y33964552D01*
X93116982Y33777246D01*
X93116976Y33777242D01*
X92827746Y33557376D01*
X92827731Y33557363D01*
X92563979Y33307522D01*
X92328774Y33030616D01*
X92124881Y32729898D01*
X91954701Y32408903D01*
X91954697Y32408894D01*
X91820227Y32071400D01*
X91820225Y32071394D01*
X91723025Y31721312D01*
X91664249Y31362786D01*
X91644579Y31000003D01*
X91644579Y30999998D01*
X88355421Y30999998D01*
X88355421Y31000000D01*
X88335751Y31362785D01*
X88276973Y31721316D01*
X88179775Y32071391D01*
X88179774Y32071394D01*
X88179772Y32071400D01*
X88045302Y32408894D01*
X88045298Y32408905D01*
X87875117Y32729900D01*
X87671227Y33030614D01*
X87436021Y33307521D01*
X87436020Y33307522D01*
X87172268Y33557363D01*
X87172253Y33557376D01*
X86883023Y33777242D01*
X86883017Y33777246D01*
X86571713Y33964552D01*
X86571712Y33964553D01*
X86571708Y33964555D01*
X86462561Y34015052D01*
X86409137Y34061807D01*
X86389471Y34130025D01*
X86409808Y34198047D01*
X86463692Y34244275D01*
X86523076Y34255175D01*
X86618811Y34249385D01*
X86699999Y34244473D01*
X86700000Y34244473D01*
X86700001Y34244473D01*
X86783035Y34249496D01*
X87032142Y34264564D01*
X87359441Y34324544D01*
X87677123Y34423537D01*
X87980557Y34560102D01*
X88265318Y34732246D01*
X88527252Y34937458D01*
X88762542Y35172748D01*
X88967754Y35434682D01*
X89139898Y35719443D01*
X89276463Y36022877D01*
X89375456Y36340559D01*
X89435436Y36667858D01*
X89455527Y37000000D01*
X89435436Y37332142D01*
X89375456Y37659441D01*
X89276463Y37977123D01*
X89139898Y38280557D01*
X88967754Y38565318D01*
X88927789Y38616330D01*
X88762547Y38827247D01*
X88762535Y38827260D01*
X88527259Y39062536D01*
X88527246Y39062548D01*
X88265317Y39267755D01*
X87980552Y39439901D01*
X87980546Y39439904D01*
X87677127Y39576462D01*
X87359440Y39675457D01*
X87032142Y39735436D01*
X87032139Y39735437D01*
X86700001Y39755527D01*
X86699997Y39755527D01*
X86523076Y39744826D01*
X86453872Y39760679D01*
X86404225Y39811429D01*
X86389896Y39880965D01*
X86415437Y39947209D01*
X86462560Y39984949D01*
X86571708Y40035445D01*
X86883019Y40222755D01*
X87172254Y40442625D01*
X87436021Y40692479D01*
X87671227Y40969386D01*
X87875117Y41270100D01*
X88045298Y41591095D01*
X88179775Y41928609D01*
X88276973Y42278684D01*
X88335751Y42637215D01*
X88355421Y42999998D01*
X91644579Y42999998D01*
X91664249Y42637215D01*
X91723025Y42278689D01*
X91820225Y41928607D01*
X91820227Y41928601D01*
X91954697Y41591107D01*
X91954702Y41591095D01*
X92124883Y41270100D01*
X92175671Y41195193D01*
X92328774Y40969385D01*
X92563979Y40692479D01*
X92827731Y40442638D01*
X92827746Y40442625D01*
X93116981Y40222755D01*
X93428292Y40035445D01*
X93758031Y39882892D01*
X94102330Y39766884D01*
X94457153Y39688782D01*
X94818341Y39649500D01*
X94818349Y39649500D01*
X95181651Y39649500D01*
X95181659Y39649500D01*
X95542847Y39688782D01*
X95897670Y39766884D01*
X96241969Y39882892D01*
X96571708Y40035445D01*
X96883019Y40222755D01*
X97172254Y40442625D01*
X97436021Y40692479D01*
X97671227Y40969386D01*
X97875117Y41270100D01*
X98045298Y41591095D01*
X98179775Y41928609D01*
X98276973Y42278684D01*
X98335751Y42637215D01*
X98355421Y43000000D01*
X98335751Y43362785D01*
X98294116Y43616748D01*
X98276974Y43721312D01*
X98276154Y43724266D01*
X98179775Y44071391D01*
X98179774Y44071394D01*
X98179772Y44071400D01*
X98045302Y44408894D01*
X98045298Y44408905D01*
X97875117Y44729900D01*
X97671227Y45030614D01*
X97436021Y45307521D01*
X97436020Y45307522D01*
X97172268Y45557363D01*
X97172253Y45557376D01*
X96883023Y45777242D01*
X96883017Y45777246D01*
X96571713Y45964552D01*
X96571712Y45964553D01*
X96571708Y45964555D01*
X96241969Y46117108D01*
X95971903Y46208104D01*
X95897679Y46233113D01*
X95897678Y46233114D01*
X95897670Y46233116D01*
X95897665Y46233118D01*
X95897662Y46233118D01*
X95542864Y46311215D01*
X95542835Y46311220D01*
X95181666Y46350500D01*
X95181659Y46350500D01*
X94818341Y46350500D01*
X94818333Y46350500D01*
X94457164Y46311220D01*
X94457135Y46311215D01*
X94102337Y46233118D01*
X94102320Y46233113D01*
X93758033Y46117109D01*
X93428286Y45964552D01*
X93116982Y45777246D01*
X93116976Y45777242D01*
X92827746Y45557376D01*
X92827731Y45557363D01*
X92563979Y45307522D01*
X92328774Y45030616D01*
X92124881Y44729898D01*
X91954701Y44408903D01*
X91954697Y44408894D01*
X91820227Y44071400D01*
X91820225Y44071394D01*
X91723025Y43721312D01*
X91664249Y43362786D01*
X91644579Y43000003D01*
X91644579Y42999998D01*
X88355421Y42999998D01*
X88355421Y43000000D01*
X88335751Y43362785D01*
X88294116Y43616748D01*
X88276974Y43721312D01*
X88276154Y43724266D01*
X88179775Y44071391D01*
X88179774Y44071394D01*
X88179772Y44071400D01*
X88045302Y44408894D01*
X88045298Y44408905D01*
X87875117Y44729900D01*
X87671227Y45030614D01*
X87436021Y45307521D01*
X87436020Y45307522D01*
X87172268Y45557363D01*
X87172253Y45557376D01*
X86883023Y45777242D01*
X86883017Y45777246D01*
X86571713Y45964552D01*
X86571712Y45964553D01*
X86571708Y45964555D01*
X86241969Y46117108D01*
X85971903Y46208104D01*
X85897679Y46233113D01*
X85897678Y46233114D01*
X85897670Y46233116D01*
X85897665Y46233118D01*
X85897662Y46233118D01*
X85542864Y46311215D01*
X85542835Y46311220D01*
X85181666Y46350500D01*
X85181659Y46350500D01*
X84818341Y46350500D01*
X84818333Y46350500D01*
X84457164Y46311220D01*
X84457135Y46311215D01*
X84102337Y46233118D01*
X84102320Y46233113D01*
X83758033Y46117109D01*
X83428286Y45964552D01*
X83116982Y45777246D01*
X83116976Y45777242D01*
X82827746Y45557376D01*
X82827731Y45557363D01*
X82563979Y45307522D01*
X82328774Y45030616D01*
X82124881Y44729898D01*
X81954701Y44408903D01*
X81954697Y44408894D01*
X81820227Y44071400D01*
X81820225Y44071394D01*
X81723025Y43721312D01*
X81664249Y43362786D01*
X81644579Y43000003D01*
X81644579Y42999998D01*
X81664249Y42637215D01*
X81723025Y42278689D01*
X81820225Y41928607D01*
X81820227Y41928601D01*
X81954697Y41591107D01*
X81954702Y41591095D01*
X82124883Y41270100D01*
X82175671Y41195193D01*
X82328774Y40969385D01*
X82563979Y40692479D01*
X82827731Y40442638D01*
X82827746Y40442625D01*
X83116981Y40222755D01*
X83428292Y40035445D01*
X83758031Y39882892D01*
X84102330Y39766884D01*
X84457153Y39688782D01*
X84818341Y39649500D01*
X84818349Y39649500D01*
X85181651Y39649500D01*
X85181659Y39649500D01*
X85328136Y39665431D01*
X85398018Y39652912D01*
X85450040Y39604598D01*
X85467683Y39535828D01*
X85445346Y39468437D01*
X85406943Y39432342D01*
X85134687Y39267758D01*
X85134682Y39267755D01*
X84872753Y39062548D01*
X84872740Y39062536D01*
X84637464Y38827260D01*
X84637452Y38827247D01*
X84432245Y38565318D01*
X84260099Y38280553D01*
X84260096Y38280547D01*
X84123538Y37977128D01*
X84024543Y37659441D01*
X83964564Y37332143D01*
X83964563Y37332140D01*
X83944473Y37000002D01*
X83944473Y36999999D01*
X83964563Y36667861D01*
X83964564Y36667858D01*
X84024543Y36340560D01*
X84123538Y36022873D01*
X84260096Y35719454D01*
X84260099Y35719448D01*
X84432245Y35434683D01*
X84637452Y35172754D01*
X84637464Y35172741D01*
X84872740Y34937465D01*
X84872753Y34937453D01*
X85134682Y34732247D01*
X85134682Y34732246D01*
X85406943Y34567659D01*
X85454891Y34515301D01*
X85466921Y34445331D01*
X85439212Y34379965D01*
X85380563Y34339955D01*
X85328135Y34334570D01*
X85181666Y34350500D01*
X85181659Y34350500D01*
X84818341Y34350500D01*
X84818333Y34350500D01*
X84457164Y34311220D01*
X84457135Y34311215D01*
X84102337Y34233118D01*
X84102320Y34233113D01*
X83758033Y34117109D01*
X83758030Y34117108D01*
X83758031Y34117108D01*
X83428299Y33964558D01*
X83428286Y33964552D01*
X83116982Y33777246D01*
X83116976Y33777242D01*
X82827746Y33557376D01*
X82827731Y33557363D01*
X82563979Y33307522D01*
X82328774Y33030616D01*
X82124881Y32729898D01*
X81954701Y32408903D01*
X81954697Y32408894D01*
X81820227Y32071400D01*
X81820225Y32071394D01*
X81723025Y31721312D01*
X81664249Y31362786D01*
X81644579Y31000003D01*
X81644579Y30999998D01*
X-81644579Y30999998D01*
X-81644579Y31000000D01*
X-81664249Y31362785D01*
X-81723027Y31721316D01*
X-81820225Y32071391D01*
X-81820226Y32071394D01*
X-81820228Y32071400D01*
X-81954698Y32408894D01*
X-81954702Y32408905D01*
X-82124883Y32729900D01*
X-82328773Y33030614D01*
X-82563979Y33307521D01*
X-82563980Y33307522D01*
X-82827732Y33557363D01*
X-82827747Y33557376D01*
X-83116977Y33777242D01*
X-83116983Y33777246D01*
X-83428287Y33964552D01*
X-83428288Y33964553D01*
X-83428292Y33964555D01*
X-83758031Y34117108D01*
X-84102330Y34233116D01*
X-84102335Y34233118D01*
X-84102338Y34233118D01*
X-84457136Y34311215D01*
X-84457165Y34311220D01*
X-84818334Y34350500D01*
X-84818341Y34350500D01*
X-85181659Y34350500D01*
X-85181667Y34350500D01*
X-85328136Y34334570D01*
X-85398020Y34347089D01*
X-85450042Y34395404D01*
X-85467684Y34464174D01*
X-85445346Y34531564D01*
X-85406948Y34567656D01*
X-85134682Y34732246D01*
X-84872748Y34937458D01*
X-84637458Y35172748D01*
X-84432246Y35434682D01*
X-84260102Y35719443D01*
X-84123537Y36022877D01*
X-84024544Y36340559D01*
X-83964564Y36667858D01*
X-83944473Y37000000D01*
X-83964564Y37332142D01*
X-84024544Y37659441D01*
X-84123537Y37977123D01*
X-84260102Y38280557D01*
X-84432246Y38565318D01*
X-84472211Y38616330D01*
X-84637453Y38827247D01*
X-84637465Y38827260D01*
X-84872741Y39062536D01*
X-84872754Y39062548D01*
X-85134683Y39267755D01*
X-85256599Y39341456D01*
X-85406945Y39432343D01*
X-85454892Y39484700D01*
X-85466922Y39554670D01*
X-85439213Y39620036D01*
X-85380564Y39660046D01*
X-85328138Y39665431D01*
X-85181659Y39649500D01*
X-85181651Y39649500D01*
X-84818349Y39649500D01*
X-84818341Y39649500D01*
X-84457153Y39688782D01*
X-84102330Y39766884D01*
X-83758031Y39882892D01*
X-83428292Y40035445D01*
X-83116981Y40222755D01*
X-82827746Y40442625D01*
X-82563979Y40692479D01*
X-82328773Y40969386D01*
X-82124883Y41270100D01*
X-81954702Y41591095D01*
X-81820225Y41928609D01*
X-81723027Y42278684D01*
X-81664249Y42637215D01*
X-81644579Y43000000D01*
X-81664249Y43362785D01*
X-81705884Y43616748D01*
X-81723026Y43721312D01*
X-81723846Y43724266D01*
X-81820225Y44071391D01*
X-81820226Y44071394D01*
X-81820228Y44071400D01*
X-81954698Y44408894D01*
X-81954702Y44408905D01*
X-82124883Y44729900D01*
X-82328773Y45030614D01*
X-82563979Y45307521D01*
X-82563980Y45307522D01*
X-82827732Y45557363D01*
X-82827747Y45557376D01*
X-83116977Y45777242D01*
X-83116983Y45777246D01*
X-83428287Y45964552D01*
X-83428288Y45964553D01*
X-83428292Y45964555D01*
X-83758031Y46117108D01*
X-84028097Y46208104D01*
X-84102321Y46233113D01*
X-84102322Y46233114D01*
X-84102330Y46233116D01*
X-84102335Y46233118D01*
X-84102338Y46233118D01*
X-84457136Y46311215D01*
X-84457165Y46311220D01*
X-84818334Y46350500D01*
X-84818341Y46350500D01*
X-85181659Y46350500D01*
X-85181667Y46350500D01*
X-85542836Y46311220D01*
X-85542865Y46311215D01*
X-85897663Y46233118D01*
X-85897680Y46233113D01*
X-86241967Y46117109D01*
X-86571714Y45964552D01*
X-86883018Y45777246D01*
X-86883024Y45777242D01*
X-87172254Y45557376D01*
X-87172269Y45557363D01*
X-87436021Y45307522D01*
X-87671226Y45030616D01*
X-87875119Y44729898D01*
X-88045299Y44408903D01*
X-88045303Y44408894D01*
X-88179773Y44071400D01*
X-88179775Y44071394D01*
X-88276975Y43721312D01*
X-88335751Y43362786D01*
X-88355421Y43000003D01*
X-88355421Y42999998D01*
X-88335751Y42637215D01*
X-88276975Y42278689D01*
X-88179775Y41928607D01*
X-88179773Y41928601D01*
X-88045303Y41591107D01*
X-88045298Y41591095D01*
X-87875117Y41270100D01*
X-87824329Y41195193D01*
X-87671226Y40969385D01*
X-87436021Y40692479D01*
X-87172269Y40442638D01*
X-87172254Y40442625D01*
X-86883019Y40222755D01*
X-86571711Y40035447D01*
X-86571712Y40035447D01*
X-86571710Y40035446D01*
X-86571708Y40035445D01*
X-86462564Y39984950D01*
X-86409138Y39938195D01*
X-86389472Y39869976D01*
X-86409808Y39801955D01*
X-86463692Y39755726D01*
X-86523077Y39744826D01*
X-86699997Y39755527D01*
X-86700001Y39755527D01*
X-87032140Y39735437D01*
X-87032143Y39735436D01*
X-87359441Y39675457D01*
X-87677128Y39576462D01*
X-87980547Y39439904D01*
X-87980553Y39439901D01*
X-88265318Y39267755D01*
X-88527247Y39062548D01*
X-88527260Y39062536D01*
X-88762536Y38827260D01*
X-88762548Y38827247D01*
X-88967755Y38565318D01*
X-89139901Y38280553D01*
X-89139904Y38280547D01*
X-89276462Y37977128D01*
X-89375457Y37659441D01*
X-89435436Y37332143D01*
X-89435437Y37332140D01*
X-89455527Y37000002D01*
X-89455527Y36999999D01*
X-99938898Y36999999D01*
X-99857127Y38616349D01*
X-99856618Y38621750D01*
X-99501632Y41189760D01*
X-99500641Y41195169D01*
X-99087252Y42999998D01*
X-98355421Y42999998D01*
X-98335751Y42637215D01*
X-98276975Y42278689D01*
X-98179775Y41928607D01*
X-98179773Y41928601D01*
X-98045303Y41591107D01*
X-98045298Y41591095D01*
X-97875117Y41270100D01*
X-97824329Y41195193D01*
X-97671226Y40969385D01*
X-97436021Y40692479D01*
X-97172269Y40442638D01*
X-97172254Y40442625D01*
X-96883019Y40222755D01*
X-96571708Y40035445D01*
X-96241969Y39882892D01*
X-95897670Y39766884D01*
X-95542847Y39688782D01*
X-95181659Y39649500D01*
X-95181651Y39649500D01*
X-94818349Y39649500D01*
X-94818341Y39649500D01*
X-94457153Y39688782D01*
X-94102330Y39766884D01*
X-93758031Y39882892D01*
X-93428292Y40035445D01*
X-93116981Y40222755D01*
X-92827746Y40442625D01*
X-92563979Y40692479D01*
X-92328773Y40969386D01*
X-92124883Y41270100D01*
X-91954702Y41591095D01*
X-91820225Y41928609D01*
X-91723027Y42278684D01*
X-91664249Y42637215D01*
X-91644579Y43000000D01*
X-91664249Y43362785D01*
X-91705884Y43616748D01*
X-91723026Y43721312D01*
X-91723846Y43724266D01*
X-91820225Y44071391D01*
X-91820226Y44071394D01*
X-91820228Y44071400D01*
X-91954698Y44408894D01*
X-91954702Y44408905D01*
X-92124883Y44729900D01*
X-92328773Y45030614D01*
X-92563979Y45307521D01*
X-92563980Y45307522D01*
X-92827732Y45557363D01*
X-92827747Y45557376D01*
X-93116977Y45777242D01*
X-93116983Y45777246D01*
X-93428287Y45964552D01*
X-93428288Y45964553D01*
X-93428292Y45964555D01*
X-93758031Y46117108D01*
X-94028097Y46208104D01*
X-94102321Y46233113D01*
X-94102322Y46233114D01*
X-94102330Y46233116D01*
X-94102335Y46233118D01*
X-94102338Y46233118D01*
X-94457136Y46311215D01*
X-94457165Y46311220D01*
X-94818334Y46350500D01*
X-94818341Y46350500D01*
X-95181659Y46350500D01*
X-95181667Y46350500D01*
X-95542836Y46311220D01*
X-95542865Y46311215D01*
X-95897663Y46233118D01*
X-95897680Y46233113D01*
X-96241967Y46117109D01*
X-96571714Y45964552D01*
X-96883018Y45777246D01*
X-96883024Y45777242D01*
X-97172254Y45557376D01*
X-97172269Y45557363D01*
X-97436021Y45307522D01*
X-97671226Y45030616D01*
X-97875119Y44729898D01*
X-98045299Y44408903D01*
X-98045303Y44408894D01*
X-98179773Y44071400D01*
X-98179775Y44071394D01*
X-98276975Y43721312D01*
X-98335751Y43362786D01*
X-98355421Y43000003D01*
X-98355421Y42999998D01*
X-99087252Y42999998D01*
X-98922900Y43717550D01*
X-98921441Y43722843D01*
X-98921132Y43723797D01*
X-98498767Y45030616D01*
X-98120910Y46199721D01*
X-98119029Y46204788D01*
X-98116996Y46209617D01*
X-97095630Y48636306D01*
X-97093406Y48641030D01*
X-96738386Y49320743D01*
X-96644758Y49500000D01*
X-80305565Y49500000D01*
X-80285368Y49320745D01*
X-80285367Y49320743D01*
X-80225789Y49150478D01*
X-80225788Y49150475D01*
X-80129818Y48997740D01*
X-80129817Y48997738D01*
X-80002263Y48870184D01*
X-80002261Y48870183D01*
X-79849526Y48774213D01*
X-79849525Y48774213D01*
X-79849522Y48774211D01*
X-79679255Y48714632D01*
X-79500000Y48694435D01*
X-79320745Y48714632D01*
X-79150478Y48774211D01*
X-79088802Y48812966D01*
X-79061392Y48830187D01*
X-78994356Y48849500D01*
X-66585726Y48849500D01*
X-66569621Y48847723D01*
X-66569596Y48847986D01*
X-66561712Y48847242D01*
X-66561704Y48847240D01*
X-66495493Y48849322D01*
X-66490781Y48849469D01*
X-66488802Y48849500D01*
X-66459078Y48849500D01*
X-66459075Y48849500D01*
X-66451834Y48850416D01*
X-66445949Y48850879D01*
X-66397431Y48852403D01*
X-66380327Y48857373D01*
X-66377206Y48858279D01*
X-66357850Y48862289D01*
X-66336942Y48864929D01*
X-66291813Y48882798D01*
X-66286212Y48884716D01*
X-66256811Y48893257D01*
X-66239604Y48898255D01*
X-66239602Y48898256D01*
X-66221471Y48908980D01*
X-66203715Y48917679D01*
X-66184129Y48925432D01*
X-66144872Y48953955D01*
X-66139911Y48957213D01*
X-66139244Y48957608D01*
X-66098135Y48981919D01*
X-66083238Y48996817D01*
X-66068204Y49009658D01*
X-66051163Y49022037D01*
X-66020220Y49059442D01*
X-66016252Y49063804D01*
X-61080056Y54000000D01*
X33194435Y54000000D01*
X33214632Y53820745D01*
X33214633Y53820743D01*
X33274211Y53650478D01*
X33274212Y53650475D01*
X33370182Y53497740D01*
X33370183Y53497738D01*
X33497737Y53370184D01*
X33497739Y53370183D01*
X33650474Y53274213D01*
X33650475Y53274213D01*
X33650478Y53274211D01*
X33820745Y53214632D01*
X34000000Y53194435D01*
X34179255Y53214632D01*
X34349522Y53274211D01*
X34502262Y53370184D01*
X34629816Y53497738D01*
X34725789Y53650478D01*
X34785368Y53820745D01*
X34786104Y53827284D01*
X34813607Y53892737D01*
X34822208Y53902264D01*
X36583853Y55663909D01*
X36646163Y55697933D01*
X36716978Y55692868D01*
X36773814Y55650321D01*
X36779633Y55641848D01*
X36870182Y55497740D01*
X36870183Y55497738D01*
X36997737Y55370184D01*
X36997739Y55370183D01*
X37150474Y55274213D01*
X37150475Y55274213D01*
X37150478Y55274211D01*
X37320745Y55214632D01*
X37500000Y55194435D01*
X37679255Y55214632D01*
X37849522Y55274211D01*
X38002262Y55370184D01*
X38129816Y55497738D01*
X38225789Y55650478D01*
X38285368Y55820745D01*
X38286104Y55827284D01*
X38313607Y55892737D01*
X38322208Y55902264D01*
X42134407Y59714462D01*
X42196717Y59748486D01*
X42267533Y59743421D01*
X42324368Y59700874D01*
X42349179Y59634354D01*
X42349500Y59625365D01*
X42349500Y59321637D01*
X42329498Y59253516D01*
X42312595Y59232542D01*
X39902270Y56822218D01*
X39839958Y56788192D01*
X39827291Y56786106D01*
X39820749Y56785369D01*
X39820738Y56785367D01*
X39650477Y56725789D01*
X39650474Y56725788D01*
X39497739Y56629818D01*
X39497737Y56629817D01*
X39370183Y56502263D01*
X39370182Y56502261D01*
X39274212Y56349526D01*
X39274211Y56349523D01*
X39274211Y56349522D01*
X39214632Y56179255D01*
X39194435Y56000000D01*
X39214632Y55820745D01*
X39261938Y55685553D01*
X39274211Y55650478D01*
X39274212Y55650475D01*
X39370182Y55497740D01*
X39370183Y55497738D01*
X39497737Y55370184D01*
X39497739Y55370183D01*
X39650474Y55274213D01*
X39650475Y55274213D01*
X39650478Y55274211D01*
X39820745Y55214632D01*
X40000000Y55194435D01*
X40179255Y55214632D01*
X40349522Y55274211D01*
X40502262Y55370184D01*
X40629816Y55497738D01*
X40725789Y55650478D01*
X40785368Y55820745D01*
X40786104Y55827284D01*
X40813607Y55892737D01*
X40822208Y55902264D01*
X43134407Y58214462D01*
X43196717Y58248486D01*
X43267533Y58243421D01*
X43324368Y58200874D01*
X43349179Y58134354D01*
X43349500Y58125365D01*
X43349500Y57821637D01*
X43329498Y57753516D01*
X43312595Y57732541D01*
X42402270Y56822217D01*
X42339958Y56788192D01*
X42327291Y56786106D01*
X42320749Y56785369D01*
X42320738Y56785367D01*
X42150477Y56725789D01*
X42150474Y56725788D01*
X41997739Y56629818D01*
X41997737Y56629817D01*
X41870183Y56502263D01*
X41870182Y56502261D01*
X41774212Y56349526D01*
X41774211Y56349523D01*
X41774211Y56349522D01*
X41714632Y56179255D01*
X41694435Y56000000D01*
X41714632Y55820745D01*
X41761938Y55685553D01*
X41774211Y55650478D01*
X41774212Y55650475D01*
X41870182Y55497740D01*
X41870183Y55497738D01*
X41997737Y55370184D01*
X41997739Y55370183D01*
X42150474Y55274213D01*
X42150475Y55274213D01*
X42150478Y55274211D01*
X42320745Y55214632D01*
X42500000Y55194435D01*
X42679255Y55214632D01*
X42849522Y55274211D01*
X43002262Y55370184D01*
X43129816Y55497738D01*
X43225789Y55650478D01*
X43285368Y55820745D01*
X43286104Y55827284D01*
X43313607Y55892737D01*
X43322199Y55902255D01*
X44134408Y56714464D01*
X44196717Y56748486D01*
X44267533Y56743421D01*
X44324368Y56700874D01*
X44349179Y56634354D01*
X44349500Y56625365D01*
X44349500Y56505644D01*
X44330187Y56438608D01*
X44274212Y56349525D01*
X44274211Y56349523D01*
X44274211Y56349522D01*
X44214632Y56179255D01*
X44194435Y56000000D01*
X44214632Y55820745D01*
X44261938Y55685553D01*
X44274211Y55650478D01*
X44274212Y55650475D01*
X44370182Y55497740D01*
X44370183Y55497738D01*
X44497737Y55370184D01*
X44497739Y55370183D01*
X44650474Y55274213D01*
X44650475Y55274213D01*
X44650478Y55274211D01*
X44820745Y55214632D01*
X45000000Y55194435D01*
X45179255Y55214632D01*
X45349522Y55274211D01*
X45502262Y55370184D01*
X45629816Y55497738D01*
X45725789Y55650478D01*
X45785368Y55820745D01*
X45805565Y56000000D01*
X45785368Y56179255D01*
X45725789Y56349522D01*
X45669813Y56438608D01*
X45650500Y56505644D01*
X45650500Y76413231D01*
X45670502Y76481352D01*
X45724158Y76527845D01*
X45794432Y76537949D01*
X45859012Y76508455D01*
X45865595Y76502326D01*
X45997737Y76370184D01*
X45997739Y76370183D01*
X46150474Y76274213D01*
X46150475Y76274213D01*
X46150478Y76274211D01*
X46320745Y76214632D01*
X46500000Y76194435D01*
X46679255Y76214632D01*
X46849522Y76274211D01*
X47002262Y76370184D01*
X47129816Y76497738D01*
X47225789Y76650478D01*
X47285368Y76820745D01*
X47305565Y77000000D01*
X47285368Y77179255D01*
X47225789Y77349522D01*
X47169813Y77438608D01*
X47150500Y77505644D01*
X47150500Y142494358D01*
X47169812Y142561392D01*
X47220366Y142641849D01*
X47273545Y142688885D01*
X47343713Y142699705D01*
X47408591Y142670871D01*
X47416148Y142663906D01*
X47479408Y142600646D01*
X47489540Y142588001D01*
X47489744Y142588169D01*
X47494798Y142582060D01*
X47546537Y142533474D01*
X47547926Y142532128D01*
X47568965Y142511089D01*
X47574720Y142506625D01*
X47579217Y142502785D01*
X47614607Y142469552D01*
X47633066Y142459404D01*
X47649583Y142448556D01*
X47666236Y142435638D01*
X47710794Y142416357D01*
X47716082Y142413765D01*
X47758632Y142390373D01*
X47779048Y142385132D01*
X47797735Y142378734D01*
X47817074Y142370365D01*
X47817078Y142370365D01*
X47817079Y142370364D01*
X47843691Y142366150D01*
X47865002Y142362775D01*
X47870807Y142361573D01*
X47917823Y142349500D01*
X47938884Y142349500D01*
X47958595Y142347949D01*
X47962076Y142347398D01*
X47979405Y142344653D01*
X48014271Y142347949D01*
X48027721Y142349220D01*
X48033654Y142349500D01*
X48223500Y142349500D01*
X48291621Y142329498D01*
X48338114Y142275842D01*
X48349500Y142223500D01*
X48349500Y77505644D01*
X48330187Y77438608D01*
X48274212Y77349525D01*
X48274211Y77349523D01*
X48274211Y77349522D01*
X48214632Y77179255D01*
X48194435Y77000000D01*
X48214632Y76820745D01*
X48214633Y76820743D01*
X48274211Y76650478D01*
X48274212Y76650475D01*
X48370182Y76497740D01*
X48370183Y76497738D01*
X48497737Y76370184D01*
X48497739Y76370183D01*
X48650474Y76274213D01*
X48650475Y76274213D01*
X48650478Y76274211D01*
X48820745Y76214632D01*
X49000000Y76194435D01*
X49179255Y76214632D01*
X49349522Y76274211D01*
X49502262Y76370184D01*
X49629816Y76497738D01*
X49725789Y76650478D01*
X49785368Y76820745D01*
X49805565Y77000000D01*
X49785368Y77179255D01*
X49725789Y77349522D01*
X49669813Y77438608D01*
X49650500Y77505644D01*
X49650500Y142494358D01*
X49669812Y142561392D01*
X49725789Y142650478D01*
X49785368Y142820745D01*
X49805565Y143000000D01*
X49785368Y143179255D01*
X49784445Y143181891D01*
X49784353Y143183700D01*
X49783795Y143186146D01*
X49784223Y143186244D01*
X49780829Y143252793D01*
X49816121Y143314397D01*
X49879115Y143347142D01*
X49903377Y143349500D01*
X50178364Y143349500D01*
X50246485Y143329498D01*
X50267459Y143312595D01*
X50677782Y142902272D01*
X50711808Y142839960D01*
X50713894Y142827291D01*
X50714631Y142820751D01*
X50714633Y142820739D01*
X50774210Y142650479D01*
X50788467Y142627790D01*
X50830187Y142561392D01*
X50849500Y142494358D01*
X50849500Y77505644D01*
X50830187Y77438608D01*
X50774212Y77349525D01*
X50774211Y77349523D01*
X50774211Y77349522D01*
X50714632Y77179255D01*
X50694435Y77000000D01*
X50714632Y76820745D01*
X50714633Y76820743D01*
X50774211Y76650478D01*
X50774212Y76650475D01*
X50870182Y76497740D01*
X50870183Y76497738D01*
X50997737Y76370184D01*
X50997739Y76370183D01*
X51150474Y76274213D01*
X51150475Y76274213D01*
X51150478Y76274211D01*
X51320745Y76214632D01*
X51500000Y76194435D01*
X51679255Y76214632D01*
X51849522Y76274211D01*
X52002262Y76370184D01*
X52129816Y76497738D01*
X52225789Y76650478D01*
X52285368Y76820745D01*
X52305565Y77000000D01*
X52285368Y77179255D01*
X52225789Y77349522D01*
X52169813Y77438608D01*
X52150500Y77505644D01*
X52150500Y142494358D01*
X52169812Y142561392D01*
X52225789Y142650478D01*
X52285368Y142820745D01*
X52305565Y143000000D01*
X52285368Y143179255D01*
X52225789Y143349522D01*
X52225787Y143349525D01*
X52225787Y143349526D01*
X52129817Y143502261D01*
X52129816Y143502263D01*
X52002262Y143629817D01*
X52002260Y143629818D01*
X51849525Y143725788D01*
X51849522Y143725789D01*
X51679261Y143785367D01*
X51679249Y143785369D01*
X51672709Y143786106D01*
X51607258Y143813613D01*
X51597728Y143822218D01*
X51285541Y144134405D01*
X51251515Y144196717D01*
X51256580Y144267532D01*
X51299127Y144324368D01*
X51365647Y144349179D01*
X51374636Y144349500D01*
X51678364Y144349500D01*
X51746485Y144329498D01*
X51767459Y144312595D01*
X53177782Y142902272D01*
X53211808Y142839960D01*
X53213894Y142827291D01*
X53214631Y142820751D01*
X53214633Y142820739D01*
X53274210Y142650479D01*
X53288467Y142627790D01*
X53330187Y142561392D01*
X53349500Y142494358D01*
X53349500Y137505644D01*
X53330187Y137438608D01*
X53274212Y137349525D01*
X53274211Y137349523D01*
X53274211Y137349522D01*
X53214632Y137179255D01*
X53194435Y137000000D01*
X53214632Y136820745D01*
X53214633Y136820743D01*
X53274210Y136650479D01*
X53274211Y136650478D01*
X53330187Y136561392D01*
X53349500Y136494358D01*
X53349500Y77505644D01*
X53330187Y77438608D01*
X53274212Y77349525D01*
X53274211Y77349523D01*
X53274211Y77349522D01*
X53214632Y77179255D01*
X53194435Y77000000D01*
X53214632Y76820745D01*
X53214633Y76820743D01*
X53274211Y76650478D01*
X53274212Y76650475D01*
X53370182Y76497740D01*
X53370183Y76497738D01*
X53497737Y76370184D01*
X53497739Y76370183D01*
X53650474Y76274213D01*
X53650475Y76274213D01*
X53650478Y76274211D01*
X53820745Y76214632D01*
X54000000Y76194435D01*
X54179255Y76214632D01*
X54349522Y76274211D01*
X54502262Y76370184D01*
X54629816Y76497738D01*
X54725789Y76650478D01*
X54785368Y76820745D01*
X54805565Y77000000D01*
X54785368Y77179255D01*
X54725789Y77349522D01*
X54669813Y77438608D01*
X54650500Y77505644D01*
X54650500Y97400000D01*
X72444435Y97400000D01*
X72464632Y97220745D01*
X72464633Y97220743D01*
X72524211Y97050478D01*
X72524212Y97050475D01*
X72620182Y96897740D01*
X72620183Y96897738D01*
X72747737Y96770184D01*
X72747739Y96770183D01*
X72900474Y96674213D01*
X72900475Y96674213D01*
X72900478Y96674211D01*
X73070745Y96614632D01*
X73250000Y96594435D01*
X73429255Y96614632D01*
X73599522Y96674211D01*
X73752262Y96770184D01*
X73879816Y96897738D01*
X73975789Y97050478D01*
X74035368Y97220745D01*
X74055565Y97400000D01*
X74035368Y97579255D01*
X73975789Y97749522D01*
X73919813Y97838608D01*
X73900500Y97905644D01*
X73900500Y109594358D01*
X73919812Y109661392D01*
X73975789Y109750478D01*
X74035368Y109920745D01*
X74055565Y110100000D01*
X74035368Y110279255D01*
X73975789Y110449522D01*
X73975787Y110449525D01*
X73975787Y110449526D01*
X73879817Y110602261D01*
X73879816Y110602263D01*
X73752262Y110729817D01*
X73752260Y110729818D01*
X73599525Y110825788D01*
X73599522Y110825789D01*
X73429255Y110885368D01*
X73250000Y110905565D01*
X73249999Y110905565D01*
X73223926Y110902628D01*
X73070745Y110885368D01*
X73070742Y110885368D01*
X73070742Y110885367D01*
X72900477Y110825789D01*
X72900474Y110825788D01*
X72747739Y110729818D01*
X72747737Y110729817D01*
X72620183Y110602263D01*
X72620182Y110602261D01*
X72524212Y110449526D01*
X72524211Y110449523D01*
X72524211Y110449522D01*
X72464632Y110279255D01*
X72444435Y110100000D01*
X72464632Y109920745D01*
X72464633Y109920743D01*
X72524210Y109750479D01*
X72524211Y109750478D01*
X72580187Y109661392D01*
X72599500Y109594358D01*
X72599500Y97905644D01*
X72580187Y97838608D01*
X72524212Y97749525D01*
X72524211Y97749523D01*
X72524211Y97749522D01*
X72464632Y97579255D01*
X72444435Y97400000D01*
X54650500Y97400000D01*
X54650500Y136494358D01*
X54669812Y136561392D01*
X54725789Y136650478D01*
X54785368Y136820745D01*
X54805565Y137000000D01*
X54785368Y137179255D01*
X54725789Y137349522D01*
X54669813Y137438608D01*
X54650500Y137505644D01*
X54650500Y142494358D01*
X54669812Y142561392D01*
X54725789Y142650478D01*
X54785368Y142820745D01*
X54805565Y143000000D01*
X54785368Y143179255D01*
X54725789Y143349522D01*
X54725787Y143349525D01*
X54725787Y143349526D01*
X54629817Y143502261D01*
X54629816Y143502263D01*
X54502262Y143629817D01*
X54502260Y143629818D01*
X54349525Y143725788D01*
X54349522Y143725789D01*
X54179261Y143785367D01*
X54179249Y143785369D01*
X54172709Y143786106D01*
X54107258Y143813613D01*
X54097728Y143822218D01*
X52520591Y145399355D01*
X52510460Y145412001D01*
X52510256Y145411831D01*
X52505203Y145417939D01*
X52475393Y145445932D01*
X52453460Y145466529D01*
X52452071Y145467875D01*
X52431035Y145488911D01*
X52431021Y145488923D01*
X52425278Y145493378D01*
X52420763Y145497234D01*
X52385397Y145530445D01*
X52385392Y145530449D01*
X52378910Y145534012D01*
X52366930Y145540599D01*
X52350407Y145551452D01*
X52337190Y145561704D01*
X52333764Y145564362D01*
X52289222Y145583638D01*
X52283900Y145586245D01*
X52241372Y145609626D01*
X52241361Y145609630D01*
X52220954Y145614870D01*
X52202257Y145621271D01*
X52182923Y145629637D01*
X52182924Y145629637D01*
X52135001Y145637227D01*
X52129187Y145638431D01*
X52082181Y145650499D01*
X52082180Y145650500D01*
X52082177Y145650500D01*
X52082174Y145650500D01*
X52061116Y145650500D01*
X52041405Y145652051D01*
X52020594Y145655348D01*
X51972279Y145650780D01*
X51966346Y145650500D01*
X49321636Y145650500D01*
X49253515Y145670502D01*
X49232541Y145687405D01*
X45687405Y149232541D01*
X45653379Y149294853D01*
X45650500Y149321636D01*
X45650500Y151178365D01*
X45670502Y151246486D01*
X45687400Y151267455D01*
X50899354Y156479410D01*
X50911994Y156489535D01*
X50911826Y156489739D01*
X50917938Y156494797D01*
X50917937Y156494797D01*
X50917940Y156494798D01*
X50966543Y156546557D01*
X50967858Y156547914D01*
X50988912Y156568966D01*
X50993372Y156574717D01*
X50997225Y156579229D01*
X51030448Y156614607D01*
X51040597Y156633070D01*
X51051448Y156649590D01*
X51064363Y156666237D01*
X51083638Y156710780D01*
X51086252Y156716115D01*
X51109627Y156758632D01*
X51114865Y156779040D01*
X51121273Y156797751D01*
X51129636Y156817074D01*
X51132784Y156836949D01*
X51137227Y156865004D01*
X51138428Y156870812D01*
X51150500Y156917823D01*
X51150500Y156938886D01*
X51152051Y156958597D01*
X51152128Y156959082D01*
X51155347Y156979405D01*
X51150780Y157027725D01*
X51150500Y157033657D01*
X51150500Y185414274D01*
X51152278Y185430378D01*
X51152014Y185430402D01*
X51152760Y185438296D01*
X51150531Y185509234D01*
X51150500Y185511212D01*
X51150500Y185540920D01*
X51150499Y185540930D01*
X51149588Y185548144D01*
X51149121Y185554055D01*
X51147598Y185602569D01*
X51141717Y185622809D01*
X51137710Y185642158D01*
X51135071Y185663058D01*
X51117202Y185708190D01*
X51115288Y185713781D01*
X51101745Y185760398D01*
X51091019Y185778535D01*
X51082320Y185796292D01*
X51074569Y185815870D01*
X51046042Y185855133D01*
X51042781Y185860098D01*
X51038737Y185866936D01*
X51034562Y185873995D01*
X51018082Y185901865D01*
X51003187Y185916760D01*
X50990346Y185931793D01*
X50977962Y185948838D01*
X50968495Y185956670D01*
X50940559Y185979780D01*
X50936185Y185983761D01*
X45822216Y191097730D01*
X45788191Y191160041D01*
X45786105Y191172711D01*
X45785368Y191179255D01*
X45725789Y191349522D01*
X45725787Y191349525D01*
X45725787Y191349526D01*
X45629817Y191502261D01*
X45629816Y191502263D01*
X45502262Y191629817D01*
X45502260Y191629818D01*
X45349525Y191725788D01*
X45349522Y191725789D01*
X45331069Y191732246D01*
X45179255Y191785368D01*
X45000000Y191805565D01*
X44820745Y191785368D01*
X44820742Y191785368D01*
X44820742Y191785367D01*
X44650477Y191725789D01*
X44650474Y191725788D01*
X44497739Y191629818D01*
X44497737Y191629817D01*
X44370183Y191502263D01*
X44370182Y191502261D01*
X44274212Y191349526D01*
X44274211Y191349523D01*
X44274211Y191349522D01*
X44214632Y191179255D01*
X44194435Y191000000D01*
X44214632Y190820745D01*
X44214633Y190820743D01*
X44274211Y190650478D01*
X44274212Y190650475D01*
X44370182Y190497740D01*
X44370183Y190497738D01*
X44497737Y190370184D01*
X44497739Y190370183D01*
X44650474Y190274213D01*
X44650475Y190274213D01*
X44650478Y190274211D01*
X44820745Y190214632D01*
X44827277Y190213896D01*
X44892730Y190186398D01*
X44902270Y190177784D01*
X49812596Y185267458D01*
X49846621Y185205148D01*
X49849500Y185178365D01*
X49849500Y184874636D01*
X49829498Y184806515D01*
X49775842Y184760022D01*
X49705568Y184749918D01*
X49640988Y184779412D01*
X49634405Y184785541D01*
X43322217Y191097729D01*
X43288191Y191160041D01*
X43286105Y191172711D01*
X43285368Y191179255D01*
X43225789Y191349522D01*
X43225787Y191349525D01*
X43225787Y191349526D01*
X43129817Y191502261D01*
X43129816Y191502263D01*
X43002262Y191629817D01*
X43002260Y191629818D01*
X42849525Y191725788D01*
X42849522Y191725789D01*
X42831069Y191732246D01*
X42679255Y191785368D01*
X42500000Y191805565D01*
X42320745Y191785368D01*
X42320742Y191785368D01*
X42320742Y191785367D01*
X42150477Y191725789D01*
X42150474Y191725788D01*
X41997739Y191629818D01*
X41997737Y191629817D01*
X41870183Y191502263D01*
X41870182Y191502261D01*
X41774212Y191349526D01*
X41774211Y191349523D01*
X41774211Y191349522D01*
X41714632Y191179255D01*
X41694435Y191000000D01*
X41714632Y190820745D01*
X41714633Y190820743D01*
X41774211Y190650478D01*
X41774212Y190650475D01*
X41870182Y190497740D01*
X41870183Y190497738D01*
X41997737Y190370184D01*
X41997739Y190370183D01*
X42150474Y190274213D01*
X42150475Y190274213D01*
X42150478Y190274211D01*
X42320745Y190214632D01*
X42327277Y190213896D01*
X42392730Y190186398D01*
X42402271Y190177783D01*
X48812595Y183767460D01*
X48846621Y183705148D01*
X48849500Y183678365D01*
X48849500Y183374637D01*
X48829498Y183306516D01*
X48775842Y183260023D01*
X48705568Y183249919D01*
X48640988Y183279413D01*
X48634405Y183285542D01*
X40822217Y191097729D01*
X40788191Y191160041D01*
X40786105Y191172711D01*
X40785368Y191179255D01*
X40725789Y191349522D01*
X40725787Y191349525D01*
X40725787Y191349526D01*
X40629817Y191502261D01*
X40629816Y191502263D01*
X40502262Y191629817D01*
X40502260Y191629818D01*
X40349525Y191725788D01*
X40349522Y191725789D01*
X40331069Y191732246D01*
X40179255Y191785368D01*
X40000000Y191805565D01*
X39820745Y191785368D01*
X39820742Y191785368D01*
X39820742Y191785367D01*
X39650477Y191725789D01*
X39650474Y191725788D01*
X39497739Y191629818D01*
X39497737Y191629817D01*
X39370183Y191502263D01*
X39370182Y191502261D01*
X39274212Y191349526D01*
X39274211Y191349523D01*
X39274211Y191349522D01*
X39214632Y191179255D01*
X39194435Y191000000D01*
X39214632Y190820745D01*
X39214633Y190820743D01*
X39274211Y190650478D01*
X39274212Y190650475D01*
X39370182Y190497740D01*
X39370183Y190497738D01*
X39497737Y190370184D01*
X39497739Y190370183D01*
X39650474Y190274213D01*
X39650475Y190274213D01*
X39650478Y190274211D01*
X39820745Y190214632D01*
X39827277Y190213896D01*
X39892730Y190186398D01*
X39902271Y190177783D01*
X47862115Y182217939D01*
X47896141Y182155627D01*
X47899020Y182128844D01*
X47899020Y181825116D01*
X47879018Y181756995D01*
X47825362Y181710502D01*
X47755088Y181700398D01*
X47690508Y181729892D01*
X47683925Y181736021D01*
X38322217Y191097729D01*
X38288191Y191160041D01*
X38286105Y191172711D01*
X38285368Y191179255D01*
X38225789Y191349522D01*
X38225787Y191349525D01*
X38225787Y191349526D01*
X38129817Y191502261D01*
X38129816Y191502263D01*
X38002262Y191629817D01*
X38002260Y191629818D01*
X37849525Y191725788D01*
X37849522Y191725789D01*
X37831069Y191732246D01*
X37679255Y191785368D01*
X37500000Y191805565D01*
X37320745Y191785368D01*
X37320742Y191785368D01*
X37320742Y191785367D01*
X37150477Y191725789D01*
X37150474Y191725788D01*
X36997739Y191629818D01*
X36997737Y191629817D01*
X36870183Y191502263D01*
X36870182Y191502261D01*
X36774212Y191349526D01*
X36774211Y191349523D01*
X36774211Y191349522D01*
X36714632Y191179255D01*
X36694435Y191000000D01*
X36714632Y190820745D01*
X36714633Y190820743D01*
X36774211Y190650478D01*
X36774212Y190650475D01*
X36870182Y190497740D01*
X36870183Y190497738D01*
X36997737Y190370184D01*
X36997739Y190370183D01*
X37150474Y190274213D01*
X37150475Y190274213D01*
X37150478Y190274211D01*
X37320745Y190214632D01*
X37327277Y190213896D01*
X37392730Y190186398D01*
X37402271Y190177783D01*
X42107774Y185472280D01*
X46812595Y180767460D01*
X46846621Y180705148D01*
X46849500Y180678365D01*
X46849500Y178374637D01*
X46829498Y178306516D01*
X46775842Y178260023D01*
X46705568Y178249919D01*
X46640988Y178279413D01*
X46634416Y178285531D01*
X45822215Y179097731D01*
X45788192Y179160041D01*
X45786105Y179172711D01*
X45785368Y179179255D01*
X45725789Y179349522D01*
X45725787Y179349525D01*
X45725787Y179349526D01*
X45629817Y179502261D01*
X45629816Y179502263D01*
X45502262Y179629817D01*
X45502260Y179629818D01*
X45349525Y179725788D01*
X45349522Y179725789D01*
X45349522Y179725790D01*
X45179255Y179785368D01*
X45000000Y179805565D01*
X44820745Y179785368D01*
X44820742Y179785368D01*
X44820742Y179785367D01*
X44650477Y179725789D01*
X44650474Y179725788D01*
X44497739Y179629818D01*
X44497737Y179629817D01*
X44370183Y179502263D01*
X44370182Y179502261D01*
X44274212Y179349526D01*
X44274211Y179349523D01*
X44214634Y179179262D01*
X44214632Y179179255D01*
X44194435Y179000000D01*
X44214632Y178820745D01*
X44214633Y178820743D01*
X44274211Y178650478D01*
X44274212Y178650475D01*
X44370182Y178497740D01*
X44370183Y178497738D01*
X44497737Y178370184D01*
X44497739Y178370183D01*
X44650474Y178274213D01*
X44650475Y178274213D01*
X44650478Y178274211D01*
X44820745Y178214632D01*
X44827277Y178213896D01*
X44892730Y178186399D01*
X44902262Y178177793D01*
X45412194Y177667861D01*
X45812595Y177267460D01*
X45846621Y177205148D01*
X45849500Y177178365D01*
X45849500Y176874637D01*
X45829498Y176806516D01*
X45775842Y176760023D01*
X45705568Y176749919D01*
X45640988Y176779413D01*
X45634405Y176785542D01*
X43322217Y179097729D01*
X43288192Y179160041D01*
X43286105Y179172711D01*
X43285368Y179179255D01*
X43225789Y179349522D01*
X43225787Y179349525D01*
X43225787Y179349526D01*
X43129817Y179502261D01*
X43129816Y179502263D01*
X43002262Y179629817D01*
X43002260Y179629818D01*
X42849525Y179725788D01*
X42849522Y179725789D01*
X42849522Y179725790D01*
X42679255Y179785368D01*
X42500000Y179805565D01*
X42320745Y179785368D01*
X42320742Y179785368D01*
X42320742Y179785367D01*
X42150477Y179725789D01*
X42150474Y179725788D01*
X41997739Y179629818D01*
X41997737Y179629817D01*
X41870183Y179502263D01*
X41870182Y179502261D01*
X41774212Y179349526D01*
X41774211Y179349523D01*
X41714634Y179179262D01*
X41714632Y179179255D01*
X41694435Y179000000D01*
X41714632Y178820745D01*
X41714633Y178820743D01*
X41774211Y178650478D01*
X41774212Y178650475D01*
X41870182Y178497740D01*
X41870183Y178497738D01*
X41997737Y178370184D01*
X41997739Y178370183D01*
X42150474Y178274213D01*
X42150475Y178274213D01*
X42150478Y178274211D01*
X42320745Y178214632D01*
X42327277Y178213896D01*
X42392730Y178186398D01*
X42402271Y178177783D01*
X44812596Y175767458D01*
X44846620Y175705148D01*
X44849500Y175678365D01*
X44849500Y175374636D01*
X44829498Y175306515D01*
X44775842Y175260022D01*
X44705568Y175249918D01*
X44640988Y175279412D01*
X44634405Y175285541D01*
X40822217Y179097729D01*
X40788191Y179160041D01*
X40786105Y179172711D01*
X40785368Y179179255D01*
X40725789Y179349522D01*
X40725787Y179349525D01*
X40725787Y179349526D01*
X40629817Y179502261D01*
X40629816Y179502263D01*
X40502262Y179629817D01*
X40502260Y179629818D01*
X40349525Y179725788D01*
X40349522Y179725789D01*
X40349522Y179725790D01*
X40179255Y179785368D01*
X40000000Y179805565D01*
X39999999Y179805565D01*
X39973926Y179802628D01*
X39820745Y179785368D01*
X39820742Y179785368D01*
X39820742Y179785367D01*
X39650477Y179725789D01*
X39650474Y179725788D01*
X39497739Y179629818D01*
X39497737Y179629817D01*
X39370183Y179502263D01*
X39370182Y179502261D01*
X39274212Y179349526D01*
X39274211Y179349523D01*
X39214634Y179179262D01*
X39214632Y179179255D01*
X39194435Y179000000D01*
X39214632Y178820745D01*
X39214633Y178820743D01*
X39274211Y178650478D01*
X39274212Y178650475D01*
X39370182Y178497740D01*
X39370183Y178497738D01*
X39497737Y178370184D01*
X39497739Y178370183D01*
X39650474Y178274213D01*
X39650475Y178274213D01*
X39650478Y178274211D01*
X39820745Y178214632D01*
X39827277Y178213896D01*
X39892730Y178186398D01*
X39902271Y178177783D01*
X43812595Y174267459D01*
X43846621Y174205147D01*
X43849500Y174178364D01*
X43849500Y173874636D01*
X43829498Y173806515D01*
X43775842Y173760022D01*
X43705568Y173749918D01*
X43640988Y173779412D01*
X43634405Y173785541D01*
X38322217Y179097729D01*
X38288191Y179160041D01*
X38286105Y179172711D01*
X38285368Y179179255D01*
X38225789Y179349522D01*
X38225787Y179349525D01*
X38225787Y179349526D01*
X38129817Y179502261D01*
X38129816Y179502263D01*
X38002262Y179629817D01*
X38002260Y179629818D01*
X37849525Y179725788D01*
X37849522Y179725789D01*
X37679255Y179785368D01*
X37500000Y179805565D01*
X37320745Y179785368D01*
X37320742Y179785368D01*
X37320742Y179785367D01*
X37150477Y179725789D01*
X37150474Y179725788D01*
X36997739Y179629818D01*
X36997737Y179629817D01*
X36870183Y179502263D01*
X36870182Y179502261D01*
X36774212Y179349526D01*
X36774211Y179349523D01*
X36714634Y179179262D01*
X36714632Y179179255D01*
X36694435Y179000000D01*
X36714632Y178820745D01*
X36714633Y178820743D01*
X36774211Y178650478D01*
X36774212Y178650475D01*
X36870182Y178497740D01*
X36870183Y178497738D01*
X36997737Y178370184D01*
X36997739Y178370183D01*
X37150474Y178274213D01*
X37150475Y178274213D01*
X37150478Y178274211D01*
X37320745Y178214632D01*
X37327277Y178213896D01*
X37392730Y178186398D01*
X37402271Y178177783D01*
X42812595Y172767460D01*
X42846621Y172705148D01*
X42849500Y172678365D01*
X42849500Y160821637D01*
X42829498Y160753516D01*
X42812595Y160732542D01*
X37600641Y155520589D01*
X37587996Y155510455D01*
X37588164Y155510252D01*
X37582063Y155505206D01*
X37533487Y155453479D01*
X37532113Y155452061D01*
X37511093Y155431040D01*
X37511086Y155431033D01*
X37506620Y155425276D01*
X37502772Y155420771D01*
X37469551Y155385393D01*
X37459405Y155366936D01*
X37448553Y155350416D01*
X37435642Y155333771D01*
X37435637Y155333762D01*
X37416367Y155289234D01*
X37413755Y155283903D01*
X37390373Y155241370D01*
X37385130Y155220951D01*
X37378729Y155202256D01*
X37370364Y155182926D01*
X37370362Y155182919D01*
X37362773Y155135000D01*
X37361569Y155129186D01*
X37349500Y155082178D01*
X37349500Y155061116D01*
X37347949Y155041406D01*
X37344653Y155020596D01*
X37344653Y155020595D01*
X37349220Y154972280D01*
X37349500Y154966348D01*
X37349500Y145585726D01*
X37347722Y145569621D01*
X37347986Y145569596D01*
X37347240Y145561705D01*
X37349469Y145490781D01*
X37349500Y145488802D01*
X37349500Y145459082D01*
X37349501Y145459062D01*
X37350412Y145451845D01*
X37350878Y145445932D01*
X37352402Y145397433D01*
X37352403Y145397430D01*
X37358280Y145377198D01*
X37362287Y145357847D01*
X37364927Y145336949D01*
X37364931Y145336936D01*
X37382792Y145291823D01*
X37384715Y145286207D01*
X37398255Y145239603D01*
X37398256Y145239601D01*
X37408979Y145221469D01*
X37417676Y145203716D01*
X37425428Y145184136D01*
X37425432Y145184129D01*
X37453948Y145144878D01*
X37457207Y145139918D01*
X37481918Y145098136D01*
X37481921Y145098132D01*
X37496812Y145083241D01*
X37509652Y145068208D01*
X37522034Y145051167D01*
X37522037Y145051163D01*
X37526773Y145047245D01*
X37559431Y145020228D01*
X37563812Y145016242D01*
X39580053Y143000001D01*
X41312595Y141267459D01*
X41346621Y141205147D01*
X41349500Y141178364D01*
X41349500Y129005644D01*
X41330187Y128938608D01*
X41274212Y128849525D01*
X41274211Y128849523D01*
X41214633Y128679258D01*
X41214632Y128679255D01*
X41194435Y128500000D01*
X41214632Y128320745D01*
X41214633Y128320743D01*
X41274210Y128150479D01*
X41274211Y128150478D01*
X41330187Y128061392D01*
X41349500Y127994358D01*
X41349500Y60821638D01*
X41329498Y60753517D01*
X41312595Y60732543D01*
X40865595Y60285543D01*
X40803283Y60251517D01*
X40732468Y60256582D01*
X40675632Y60299129D01*
X40650821Y60365649D01*
X40650500Y60374638D01*
X40650500Y67494358D01*
X40669812Y67561392D01*
X40725789Y67650478D01*
X40785368Y67820745D01*
X40805565Y68000000D01*
X40785368Y68179255D01*
X40725789Y68349522D01*
X40725787Y68349525D01*
X40725787Y68349526D01*
X40629817Y68502261D01*
X40629816Y68502263D01*
X40502262Y68629817D01*
X40502260Y68629818D01*
X40349525Y68725788D01*
X40349522Y68725789D01*
X40349521Y68725789D01*
X40179255Y68785368D01*
X40000000Y68805565D01*
X39999999Y68805565D01*
X39973926Y68802628D01*
X39820745Y68785368D01*
X39820742Y68785368D01*
X39820742Y68785367D01*
X39650477Y68725789D01*
X39650474Y68725788D01*
X39497739Y68629818D01*
X39497737Y68629817D01*
X39370183Y68502263D01*
X39370182Y68502261D01*
X39274212Y68349526D01*
X39274211Y68349523D01*
X39274211Y68349522D01*
X39214632Y68179255D01*
X39197372Y68026074D01*
X39194512Y68000679D01*
X39194435Y68000000D01*
X39214632Y67820745D01*
X39214633Y67820743D01*
X39274210Y67650479D01*
X39274211Y67650478D01*
X39330187Y67561392D01*
X39349500Y67494358D01*
X39349500Y60321637D01*
X39329498Y60253516D01*
X39312595Y60232542D01*
X38356174Y59276121D01*
X38293862Y59242095D01*
X38223047Y59247160D01*
X38166211Y59289707D01*
X38141400Y59356227D01*
X38145039Y59396556D01*
X38150499Y59417819D01*
X38150500Y59417825D01*
X38150500Y59438890D01*
X38152051Y59458601D01*
X38155346Y59479404D01*
X38150780Y59527713D01*
X38150500Y59533645D01*
X38150500Y67494358D01*
X38169812Y67561392D01*
X38225789Y67650478D01*
X38285368Y67820745D01*
X38305565Y68000000D01*
X38285368Y68179255D01*
X38225789Y68349522D01*
X38225787Y68349525D01*
X38225787Y68349526D01*
X38129817Y68502261D01*
X38129816Y68502263D01*
X38002262Y68629817D01*
X38002260Y68629818D01*
X37849525Y68725788D01*
X37849522Y68725789D01*
X37849522Y68725790D01*
X37679255Y68785368D01*
X37500000Y68805565D01*
X37320745Y68785368D01*
X37320742Y68785368D01*
X37320742Y68785367D01*
X37150477Y68725789D01*
X37150474Y68725788D01*
X36997739Y68629818D01*
X36997737Y68629817D01*
X36870183Y68502263D01*
X36870182Y68502261D01*
X36774212Y68349526D01*
X36774211Y68349523D01*
X36774211Y68349522D01*
X36714632Y68179255D01*
X36694435Y68000000D01*
X36714632Y67820745D01*
X36714633Y67820743D01*
X36774210Y67650479D01*
X36774211Y67650478D01*
X36830187Y67561392D01*
X36849500Y67494358D01*
X36849500Y59821637D01*
X36829498Y59753516D01*
X36812595Y59732542D01*
X33902270Y56822218D01*
X33839958Y56788192D01*
X33827291Y56786106D01*
X33820749Y56785369D01*
X33820738Y56785367D01*
X33650477Y56725789D01*
X33650474Y56725788D01*
X33497739Y56629818D01*
X33497737Y56629817D01*
X33370183Y56502263D01*
X33370182Y56502261D01*
X33274212Y56349526D01*
X33274211Y56349523D01*
X33274211Y56349522D01*
X33214632Y56179255D01*
X33194435Y56000000D01*
X33214632Y55820745D01*
X33261938Y55685553D01*
X33274211Y55650478D01*
X33274212Y55650475D01*
X33370182Y55497740D01*
X33370183Y55497738D01*
X33497737Y55370184D01*
X33497739Y55370183D01*
X33650474Y55274213D01*
X33650475Y55274213D01*
X33650478Y55274211D01*
X33820745Y55214632D01*
X33986699Y55195934D01*
X34052149Y55168432D01*
X34092342Y55109908D01*
X34094515Y55038945D01*
X34061684Y54981632D01*
X33902270Y54822218D01*
X33839958Y54788192D01*
X33827291Y54786106D01*
X33820749Y54785369D01*
X33820738Y54785367D01*
X33650477Y54725789D01*
X33650474Y54725788D01*
X33497739Y54629818D01*
X33497737Y54629817D01*
X33370183Y54502263D01*
X33370182Y54502261D01*
X33274212Y54349526D01*
X33274211Y54349523D01*
X33274211Y54349522D01*
X33214632Y54179255D01*
X33194435Y54000000D01*
X-61080056Y54000000D01*
X-46402272Y68677784D01*
X-46339962Y68711808D01*
X-46327284Y68713895D01*
X-46323801Y68714288D01*
X-46320745Y68714632D01*
X-46150478Y68774211D01*
X-45997738Y68870184D01*
X-45945702Y68922220D01*
X-45865595Y69002326D01*
X-45803283Y69036352D01*
X-45732468Y69031287D01*
X-45675632Y68988740D01*
X-45650821Y68922220D01*
X-45650500Y68913231D01*
X-45650500Y56505644D01*
X-45669813Y56438608D01*
X-45725788Y56349525D01*
X-45725789Y56349523D01*
X-45725789Y56349522D01*
X-45785368Y56179255D01*
X-45805565Y56000000D01*
X-45785368Y55820745D01*
X-45738062Y55685553D01*
X-45725789Y55650478D01*
X-45725788Y55650475D01*
X-45629818Y55497740D01*
X-45629817Y55497738D01*
X-45502263Y55370184D01*
X-45502261Y55370183D01*
X-45349526Y55274213D01*
X-45349525Y55274213D01*
X-45349522Y55274211D01*
X-45179255Y55214632D01*
X-45000000Y55194435D01*
X-44820745Y55214632D01*
X-44650478Y55274211D01*
X-44497738Y55370184D01*
X-44370184Y55497738D01*
X-44274211Y55650478D01*
X-44214632Y55820745D01*
X-44194435Y56000000D01*
X-44214632Y56179255D01*
X-44274211Y56349522D01*
X-44330187Y56438608D01*
X-44349500Y56505644D01*
X-44349500Y56625364D01*
X-44329498Y56693485D01*
X-44275842Y56739978D01*
X-44205568Y56750082D01*
X-44140988Y56720588D01*
X-44134405Y56714459D01*
X-43322218Y55902272D01*
X-43288192Y55839960D01*
X-43286106Y55827291D01*
X-43285369Y55820751D01*
X-43285367Y55820739D01*
X-43225789Y55650478D01*
X-43225788Y55650475D01*
X-43129818Y55497740D01*
X-43129817Y55497738D01*
X-43002263Y55370184D01*
X-43002261Y55370183D01*
X-42849526Y55274213D01*
X-42849525Y55274213D01*
X-42849522Y55274211D01*
X-42679255Y55214632D01*
X-42500000Y55194435D01*
X-42320745Y55214632D01*
X-42150478Y55274211D01*
X-41997738Y55370184D01*
X-41870184Y55497738D01*
X-41774211Y55650478D01*
X-41714632Y55820745D01*
X-41694435Y56000000D01*
X-41714632Y56179255D01*
X-41774211Y56349522D01*
X-41774213Y56349525D01*
X-41774213Y56349526D01*
X-41870183Y56502261D01*
X-41870184Y56502263D01*
X-41997738Y56629817D01*
X-41997740Y56629818D01*
X-42150475Y56725788D01*
X-42150478Y56725789D01*
X-42320739Y56785367D01*
X-42320751Y56785369D01*
X-42327291Y56786106D01*
X-42392742Y56813613D01*
X-42402272Y56822218D01*
X-43312595Y57732541D01*
X-43346621Y57794853D01*
X-43349500Y57821636D01*
X-43349500Y58125364D01*
X-43329498Y58193485D01*
X-43275842Y58239978D01*
X-43205568Y58250082D01*
X-43140988Y58220588D01*
X-43134405Y58214459D01*
X-40822218Y55902272D01*
X-40788192Y55839960D01*
X-40786106Y55827291D01*
X-40785369Y55820751D01*
X-40785367Y55820739D01*
X-40725789Y55650478D01*
X-40725788Y55650475D01*
X-40629818Y55497740D01*
X-40629817Y55497738D01*
X-40502263Y55370184D01*
X-40502261Y55370183D01*
X-40349526Y55274213D01*
X-40349525Y55274213D01*
X-40349522Y55274211D01*
X-40179255Y55214632D01*
X-40000000Y55194435D01*
X-39820745Y55214632D01*
X-39650478Y55274211D01*
X-39497738Y55370184D01*
X-39370184Y55497738D01*
X-39274211Y55650478D01*
X-39214632Y55820745D01*
X-39194435Y56000000D01*
X-39214632Y56179255D01*
X-39274211Y56349522D01*
X-39274213Y56349525D01*
X-39274213Y56349526D01*
X-39370183Y56502261D01*
X-39370184Y56502263D01*
X-39497738Y56629817D01*
X-39497740Y56629818D01*
X-39650475Y56725788D01*
X-39650478Y56725789D01*
X-39820739Y56785367D01*
X-39820751Y56785369D01*
X-39827291Y56786106D01*
X-39892742Y56813613D01*
X-39902272Y56822218D01*
X-42312595Y59232541D01*
X-42346621Y59294853D01*
X-42349500Y59321636D01*
X-42349500Y59625364D01*
X-42329498Y59693485D01*
X-42275842Y59739978D01*
X-42205568Y59750082D01*
X-42140988Y59720588D01*
X-42134405Y59714459D01*
X-38322218Y55902272D01*
X-38288192Y55839960D01*
X-38286106Y55827291D01*
X-38285369Y55820751D01*
X-38285367Y55820739D01*
X-38225789Y55650478D01*
X-38225788Y55650475D01*
X-38129818Y55497740D01*
X-38129817Y55497738D01*
X-38002263Y55370184D01*
X-38002261Y55370183D01*
X-37849526Y55274213D01*
X-37849525Y55274213D01*
X-37849522Y55274211D01*
X-37679255Y55214632D01*
X-37500000Y55194435D01*
X-37320745Y55214632D01*
X-37150478Y55274211D01*
X-36997738Y55370184D01*
X-36870184Y55497738D01*
X-36774211Y55650478D01*
X-36714632Y55820745D01*
X-36694435Y56000000D01*
X-36714632Y56179255D01*
X-36774211Y56349522D01*
X-36774213Y56349525D01*
X-36774213Y56349526D01*
X-36870183Y56502261D01*
X-36870184Y56502263D01*
X-36997738Y56629817D01*
X-36997740Y56629818D01*
X-37150475Y56725788D01*
X-37150478Y56725789D01*
X-37320739Y56785367D01*
X-37320751Y56785369D01*
X-37327291Y56786106D01*
X-37392742Y56813613D01*
X-37402272Y56822218D01*
X-41312595Y60732542D01*
X-41346621Y60794854D01*
X-41349500Y60821637D01*
X-41349500Y99950000D01*
X-1805565Y99950000D01*
X-1785368Y99770745D01*
X-1785367Y99770743D01*
X-1725789Y99600478D01*
X-1725788Y99600475D01*
X-1629818Y99447740D01*
X-1629817Y99447738D01*
X-1502263Y99320184D01*
X-1502261Y99320183D01*
X-1349526Y99224213D01*
X-1349525Y99224213D01*
X-1349522Y99224211D01*
X-1179255Y99164632D01*
X-1000000Y99144435D01*
X-820745Y99164632D01*
X-650478Y99224211D01*
X-497738Y99320184D01*
X-370184Y99447738D01*
X-274211Y99600478D01*
X-214632Y99770745D01*
X-194435Y99950000D01*
X-214632Y100129255D01*
X-274211Y100299522D01*
X-330190Y100388611D01*
X-349500Y100455641D01*
X-349500Y110100000D01*
X194435Y110100000D01*
X214632Y109920745D01*
X214633Y109920743D01*
X274211Y109750478D01*
X274212Y109750475D01*
X370182Y109597740D01*
X370183Y109597738D01*
X497737Y109470184D01*
X497739Y109470183D01*
X650474Y109374213D01*
X650475Y109374213D01*
X650478Y109374211D01*
X820745Y109314632D01*
X1000000Y109294435D01*
X1179255Y109314632D01*
X1181875Y109315550D01*
X1183672Y109315641D01*
X1186157Y109316208D01*
X1186256Y109315774D01*
X1252778Y109319175D01*
X1314386Y109283892D01*
X1347139Y109220902D01*
X1349500Y109196624D01*
X1349500Y103005644D01*
X1330187Y102938608D01*
X1274212Y102849525D01*
X1274211Y102849523D01*
X1274211Y102849522D01*
X1214632Y102679255D01*
X1194435Y102500000D01*
X1214632Y102320745D01*
X1214633Y102320743D01*
X1274211Y102150478D01*
X1274212Y102150475D01*
X1370182Y101997740D01*
X1370183Y101997738D01*
X1497737Y101870184D01*
X1497739Y101870183D01*
X1650474Y101774213D01*
X1650475Y101774213D01*
X1650478Y101774211D01*
X1820745Y101714632D01*
X2000000Y101694435D01*
X2179255Y101714632D01*
X2349522Y101774211D01*
X2502262Y101870184D01*
X2629816Y101997738D01*
X2725789Y102150478D01*
X2785368Y102320745D01*
X2805565Y102500000D01*
X2785368Y102679255D01*
X2725789Y102849522D01*
X2717912Y102862058D01*
X2669812Y102938609D01*
X2650499Y103005645D01*
X2650499Y117494356D01*
X2669812Y117561393D01*
X2693815Y117599593D01*
X2725789Y117650478D01*
X2785368Y117820745D01*
X2805565Y118000000D01*
X2785368Y118179255D01*
X2725789Y118349522D01*
X2725787Y118349525D01*
X2725787Y118349526D01*
X2629817Y118502261D01*
X2629816Y118502263D01*
X2502262Y118629817D01*
X2502260Y118629818D01*
X2349525Y118725788D01*
X2349522Y118725789D01*
X2349519Y118725790D01*
X2179255Y118785368D01*
X2000000Y118805565D01*
X1820745Y118785368D01*
X1820742Y118785368D01*
X1820742Y118785367D01*
X1650479Y118725790D01*
X1567035Y118673359D01*
X1498714Y118654054D01*
X1432965Y118673359D01*
X1383030Y118704735D01*
X1349522Y118725789D01*
X1349521Y118725790D01*
X1349520Y118725790D01*
X1264388Y118755579D01*
X1179255Y118785368D01*
X1000000Y118805565D01*
X999999Y118805565D01*
X973926Y118802628D01*
X820745Y118785368D01*
X820742Y118785368D01*
X820742Y118785367D01*
X650477Y118725789D01*
X650474Y118725788D01*
X497739Y118629818D01*
X497737Y118629817D01*
X370183Y118502263D01*
X370182Y118502261D01*
X274212Y118349526D01*
X274211Y118349523D01*
X274211Y118349522D01*
X214632Y118179255D01*
X194435Y118000000D01*
X214632Y117820745D01*
X214633Y117820743D01*
X274210Y117650479D01*
X274211Y117650478D01*
X330187Y117561392D01*
X349500Y117494358D01*
X349500Y110605644D01*
X330187Y110538608D01*
X274212Y110449525D01*
X274211Y110449523D01*
X274211Y110449522D01*
X214632Y110279255D01*
X194435Y110100000D01*
X-349500Y110100000D01*
X-349500Y117494362D01*
X-330189Y117561391D01*
X-274211Y117650478D01*
X-214632Y117820745D01*
X-194435Y118000000D01*
X-214632Y118179255D01*
X-274211Y118349522D01*
X-274213Y118349525D01*
X-274213Y118349526D01*
X-370183Y118502261D01*
X-370184Y118502263D01*
X-497738Y118629817D01*
X-497740Y118629818D01*
X-650475Y118725788D01*
X-650478Y118725789D01*
X-650481Y118725790D01*
X-820745Y118785368D01*
X-1000000Y118805565D01*
X-1000001Y118805565D01*
X-1026074Y118802628D01*
X-1179255Y118785368D01*
X-1179258Y118785368D01*
X-1179258Y118785367D01*
X-1349523Y118725789D01*
X-1349526Y118725788D01*
X-1502261Y118629818D01*
X-1502263Y118629817D01*
X-1629817Y118502263D01*
X-1629818Y118502261D01*
X-1725788Y118349526D01*
X-1725789Y118349523D01*
X-1725789Y118349522D01*
X-1785368Y118179255D01*
X-1805565Y118000000D01*
X-1785368Y117820745D01*
X-1785367Y117820743D01*
X-1725790Y117650479D01*
X-1725789Y117650478D01*
X-1669813Y117561392D01*
X-1650500Y117494358D01*
X-1650500Y100455644D01*
X-1669813Y100388608D01*
X-1725788Y100299525D01*
X-1725789Y100299523D01*
X-1725789Y100299522D01*
X-1785368Y100129255D01*
X-1805565Y99950000D01*
X-41349500Y99950000D01*
X-41349500Y119999999D01*
X-27255527Y119999999D01*
X-27235437Y119667861D01*
X-27235436Y119667858D01*
X-27175457Y119340560D01*
X-27076462Y119022873D01*
X-26939904Y118719454D01*
X-26939901Y118719448D01*
X-26767755Y118434683D01*
X-26562548Y118172754D01*
X-26562536Y118172741D01*
X-26327260Y117937465D01*
X-26327247Y117937453D01*
X-26065318Y117732247D01*
X-26065318Y117732246D01*
X-25780557Y117560102D01*
X-25780555Y117560101D01*
X-25780553Y117560100D01*
X-25780547Y117560097D01*
X-25477128Y117423539D01*
X-25477127Y117423539D01*
X-25477123Y117423537D01*
X-25159441Y117324544D01*
X-24832142Y117264564D01*
X-24610715Y117251170D01*
X-24500001Y117244473D01*
X-24500000Y117244473D01*
X-24499999Y117244473D01*
X-24416965Y117249496D01*
X-24167858Y117264564D01*
X-23840559Y117324544D01*
X-23522877Y117423537D01*
X-23219443Y117560102D01*
X-22934682Y117732246D01*
X-22672748Y117937458D01*
X-22437458Y118172748D01*
X-22432357Y118179258D01*
X-22298964Y118349523D01*
X-22232246Y118434682D01*
X-22060102Y118719443D01*
X-21923537Y119022877D01*
X-21824544Y119340559D01*
X-21764564Y119667858D01*
X-21744473Y120000000D01*
X-21764564Y120332142D01*
X-21824544Y120659441D01*
X-21923537Y120977123D01*
X-21933833Y121000000D01*
X-22060097Y121280547D01*
X-22060100Y121280553D01*
X-22101794Y121349523D01*
X-22232246Y121565318D01*
X-22282777Y121629816D01*
X-22437453Y121827247D01*
X-22437465Y121827260D01*
X-22672741Y122062536D01*
X-22672754Y122062548D01*
X-22934683Y122267755D01*
X-23219448Y122439901D01*
X-23219454Y122439904D01*
X-23522873Y122576462D01*
X-23840560Y122675457D01*
X-24167858Y122735436D01*
X-24167861Y122735437D01*
X-24499999Y122755527D01*
X-24500001Y122755527D01*
X-24832140Y122735437D01*
X-24832143Y122735436D01*
X-25159441Y122675457D01*
X-25477128Y122576462D01*
X-25780547Y122439904D01*
X-25780553Y122439901D01*
X-26065318Y122267755D01*
X-26327247Y122062548D01*
X-26327260Y122062536D01*
X-26562536Y121827260D01*
X-26562548Y121827247D01*
X-26767755Y121565318D01*
X-26939901Y121280553D01*
X-26939904Y121280547D01*
X-27076462Y120977128D01*
X-27175457Y120659441D01*
X-27235436Y120332143D01*
X-27235437Y120332140D01*
X-27255527Y120000002D01*
X-27255527Y119999999D01*
X-41349500Y119999999D01*
X-41349500Y126999999D01*
X-36255527Y126999999D01*
X-36235437Y126667861D01*
X-36235436Y126667858D01*
X-36175457Y126340560D01*
X-36076462Y126022873D01*
X-35939904Y125719454D01*
X-35939901Y125719448D01*
X-35767755Y125434683D01*
X-35562548Y125172754D01*
X-35562536Y125172741D01*
X-35327260Y124937465D01*
X-35327247Y124937453D01*
X-35065319Y124732247D01*
X-35065318Y124732246D01*
X-34780557Y124560102D01*
X-34780555Y124560101D01*
X-34780553Y124560100D01*
X-34780547Y124560097D01*
X-34477128Y124423539D01*
X-34477127Y124423539D01*
X-34477123Y124423537D01*
X-34159441Y124324544D01*
X-33832142Y124264564D01*
X-33610714Y124251171D01*
X-33500001Y124244473D01*
X-33500000Y124244473D01*
X-33499999Y124244473D01*
X-33416965Y124249496D01*
X-33167858Y124264564D01*
X-32840559Y124324544D01*
X-32522877Y124423537D01*
X-32219443Y124560102D01*
X-31934682Y124732246D01*
X-31672748Y124937458D01*
X-31437458Y125172748D01*
X-31420466Y125194436D01*
X-31282777Y125370184D01*
X-31232246Y125434682D01*
X-31060102Y125719443D01*
X-30923537Y126022877D01*
X-30824544Y126340559D01*
X-30764564Y126667858D01*
X-30744473Y126999999D01*
X8244472Y126999999D01*
X8264563Y126667861D01*
X8264564Y126667858D01*
X8324543Y126340560D01*
X8423538Y126022873D01*
X8560096Y125719454D01*
X8560099Y125719448D01*
X8732245Y125434683D01*
X8937452Y125172754D01*
X8937464Y125172741D01*
X9172740Y124937465D01*
X9172753Y124937453D01*
X9434682Y124732247D01*
X9434682Y124732246D01*
X9719443Y124560102D01*
X9719445Y124560101D01*
X9719447Y124560100D01*
X9719453Y124560097D01*
X10022872Y124423539D01*
X10022873Y124423539D01*
X10022877Y124423537D01*
X10340559Y124324544D01*
X10667858Y124264564D01*
X10889286Y124251171D01*
X10999999Y124244473D01*
X11000000Y124244473D01*
X11000001Y124244473D01*
X11083035Y124249496D01*
X11332142Y124264564D01*
X11659441Y124324544D01*
X11977123Y124423537D01*
X12280557Y124560102D01*
X12565318Y124732246D01*
X12827252Y124937458D01*
X13062542Y125172748D01*
X13079534Y125194436D01*
X13217223Y125370184D01*
X13267754Y125434682D01*
X13439898Y125719443D01*
X13576463Y126022877D01*
X13675456Y126340559D01*
X13735436Y126667858D01*
X13755527Y127000000D01*
X13735436Y127332142D01*
X13675456Y127659441D01*
X13576463Y127977123D01*
X13567184Y127997740D01*
X13439903Y128280547D01*
X13439900Y128280553D01*
X13415604Y128320743D01*
X13267754Y128565318D01*
X13267753Y128565319D01*
X13062547Y128827247D01*
X13062535Y128827260D01*
X12827259Y129062536D01*
X12827246Y129062548D01*
X12565317Y129267755D01*
X12280552Y129439901D01*
X12280546Y129439904D01*
X11977127Y129576462D01*
X11659440Y129675457D01*
X11332142Y129735436D01*
X11332139Y129735437D01*
X11000001Y129755527D01*
X10999999Y129755527D01*
X10667860Y129735437D01*
X10667857Y129735436D01*
X10340559Y129675457D01*
X10022872Y129576462D01*
X9719453Y129439904D01*
X9719447Y129439901D01*
X9434682Y129267755D01*
X9172753Y129062548D01*
X9172740Y129062536D01*
X8937464Y128827260D01*
X8937452Y128827247D01*
X8732245Y128565318D01*
X8560099Y128280553D01*
X8560096Y128280547D01*
X8423538Y127977128D01*
X8324543Y127659441D01*
X8264564Y127332143D01*
X8264563Y127332140D01*
X8244472Y127000002D01*
X8244472Y126999999D01*
X-30744473Y126999999D01*
X-30744473Y127000000D01*
X-30764564Y127332142D01*
X-30824544Y127659441D01*
X-30923537Y127977123D01*
X-30932816Y127997740D01*
X-31060097Y128280547D01*
X-31060100Y128280553D01*
X-31084396Y128320743D01*
X-31232246Y128565318D01*
X-31437453Y128827247D01*
X-31437465Y128827260D01*
X-31672741Y129062536D01*
X-31672754Y129062548D01*
X-31934683Y129267755D01*
X-32219448Y129439901D01*
X-32219454Y129439904D01*
X-32522873Y129576462D01*
X-32840560Y129675457D01*
X-33167858Y129735436D01*
X-33167861Y129735437D01*
X-33499999Y129755527D01*
X-33500001Y129755527D01*
X-33832140Y129735437D01*
X-33832143Y129735436D01*
X-34159441Y129675457D01*
X-34477128Y129576462D01*
X-34780547Y129439904D01*
X-34780553Y129439901D01*
X-35065318Y129267755D01*
X-35327247Y129062548D01*
X-35327260Y129062536D01*
X-35562536Y128827260D01*
X-35562548Y128827247D01*
X-35767755Y128565318D01*
X-35939901Y128280553D01*
X-35939904Y128280547D01*
X-36076462Y127977128D01*
X-36175457Y127659441D01*
X-36235436Y127332143D01*
X-36235437Y127332140D01*
X-36255527Y127000002D01*
X-36255527Y126999999D01*
X-41349500Y126999999D01*
X-41349500Y127994358D01*
X-41330188Y128061392D01*
X-41274211Y128150478D01*
X-41214632Y128320745D01*
X-41194435Y128500000D01*
X-41214632Y128679255D01*
X-41274211Y128849522D01*
X-41330187Y128938608D01*
X-41349500Y129005644D01*
X-41349500Y132413231D01*
X-41329498Y132481352D01*
X-41275842Y132527845D01*
X-41205568Y132537949D01*
X-41140988Y132508455D01*
X-41134405Y132502326D01*
X-41002263Y132370184D01*
X-41002261Y132370183D01*
X-40849526Y132274213D01*
X-40849525Y132274213D01*
X-40849522Y132274211D01*
X-40679255Y132214632D01*
X-40500000Y132194435D01*
X-40320745Y132214632D01*
X-40150478Y132274211D01*
X-40062489Y132329498D01*
X-40061392Y132330187D01*
X-39994356Y132349500D01*
X15678364Y132349500D01*
X15746485Y132329498D01*
X15767459Y132312595D01*
X25173689Y122906366D01*
X25207715Y122844054D01*
X25202650Y122773239D01*
X25160103Y122716403D01*
X25093583Y122691592D01*
X25061882Y122693335D01*
X24832142Y122735436D01*
X24832139Y122735437D01*
X24500001Y122755527D01*
X24499999Y122755527D01*
X24167860Y122735437D01*
X24167857Y122735436D01*
X23840559Y122675457D01*
X23522872Y122576462D01*
X23219453Y122439904D01*
X23219447Y122439901D01*
X22934682Y122267755D01*
X22672753Y122062548D01*
X22672740Y122062536D01*
X22437464Y121827260D01*
X22437452Y121827247D01*
X22232245Y121565318D01*
X22060099Y121280553D01*
X22060096Y121280547D01*
X21923538Y120977128D01*
X21824543Y120659441D01*
X21764564Y120332143D01*
X21764563Y120332140D01*
X21744473Y120000002D01*
X21744473Y119999999D01*
X21764563Y119667861D01*
X21764564Y119667858D01*
X21824543Y119340560D01*
X21923538Y119022873D01*
X22060096Y118719454D01*
X22060099Y118719448D01*
X22232245Y118434683D01*
X22437452Y118172754D01*
X22437464Y118172741D01*
X22672740Y117937465D01*
X22672753Y117937453D01*
X22934681Y117732247D01*
X22934682Y117732246D01*
X23219443Y117560102D01*
X23219445Y117560101D01*
X23219447Y117560100D01*
X23219453Y117560097D01*
X23522872Y117423539D01*
X23522873Y117423539D01*
X23522877Y117423537D01*
X23840559Y117324544D01*
X24167858Y117264564D01*
X24389286Y117251170D01*
X24499999Y117244473D01*
X24500000Y117244473D01*
X24500001Y117244473D01*
X24583035Y117249496D01*
X24832142Y117264564D01*
X25159441Y117324544D01*
X25477123Y117423537D01*
X25780557Y117560102D01*
X26065318Y117732246D01*
X26327252Y117937458D01*
X26562542Y118172748D01*
X26567643Y118179258D01*
X26701036Y118349523D01*
X26767754Y118434682D01*
X26939898Y118719443D01*
X27076463Y119022877D01*
X27175456Y119340559D01*
X27235436Y119667858D01*
X27255527Y120000000D01*
X27236158Y120320198D01*
X27252010Y120389399D01*
X27302761Y120439047D01*
X27372296Y120453376D01*
X27438540Y120427836D01*
X27451023Y120416898D01*
X27497737Y120370184D01*
X27497739Y120370183D01*
X27650474Y120274213D01*
X27650475Y120274213D01*
X27650478Y120274211D01*
X27820745Y120214632D01*
X28000000Y120194435D01*
X28179255Y120214632D01*
X28349522Y120274211D01*
X28502262Y120370184D01*
X28629816Y120497738D01*
X28725789Y120650478D01*
X28785368Y120820745D01*
X28805565Y121000000D01*
X28785368Y121179255D01*
X28725789Y121349522D01*
X28725787Y121349525D01*
X28725787Y121349526D01*
X28629817Y121502261D01*
X28629816Y121502263D01*
X28502262Y121629817D01*
X28502260Y121629818D01*
X28349525Y121725788D01*
X28349522Y121725789D01*
X28179261Y121785367D01*
X28179249Y121785369D01*
X28172709Y121786106D01*
X28107258Y121813613D01*
X28097728Y121822218D01*
X16785541Y133134405D01*
X16751515Y133196717D01*
X16756580Y133267532D01*
X16799127Y133324368D01*
X16865647Y133349179D01*
X16874636Y133349500D01*
X17178364Y133349500D01*
X17246485Y133329498D01*
X17267459Y133312595D01*
X27177782Y123402272D01*
X27211808Y123339960D01*
X27213894Y123327291D01*
X27214631Y123320751D01*
X27214633Y123320739D01*
X27274211Y123150478D01*
X27274212Y123150475D01*
X27370182Y122997740D01*
X27370183Y122997738D01*
X27497737Y122870184D01*
X27497739Y122870183D01*
X27650474Y122774213D01*
X27650475Y122774213D01*
X27650478Y122774211D01*
X27820745Y122714632D01*
X28000000Y122694435D01*
X28179255Y122714632D01*
X28349522Y122774211D01*
X28502262Y122870184D01*
X28629816Y122997738D01*
X28725789Y123150478D01*
X28785368Y123320745D01*
X28805565Y123500000D01*
X28785368Y123679255D01*
X28725789Y123849522D01*
X28725787Y123849525D01*
X28725787Y123849526D01*
X28629817Y124002261D01*
X28629816Y124002263D01*
X28502262Y124129817D01*
X28502260Y124129818D01*
X28349525Y124225788D01*
X28349522Y124225789D01*
X28179261Y124285367D01*
X28179249Y124285369D01*
X28172709Y124286106D01*
X28107258Y124313613D01*
X28097728Y124322218D01*
X18285541Y134134405D01*
X18251515Y134196717D01*
X18256580Y134267532D01*
X18299127Y134324368D01*
X18365647Y134349179D01*
X18374636Y134349500D01*
X18678364Y134349500D01*
X18746485Y134329498D01*
X18767459Y134312595D01*
X27177782Y125902272D01*
X27211808Y125839960D01*
X27213894Y125827291D01*
X27214631Y125820751D01*
X27214633Y125820739D01*
X27274211Y125650478D01*
X27274212Y125650475D01*
X27370182Y125497740D01*
X27370183Y125497738D01*
X27497737Y125370184D01*
X27497739Y125370183D01*
X27650474Y125274213D01*
X27650475Y125274213D01*
X27650478Y125274211D01*
X27820745Y125214632D01*
X28000000Y125194435D01*
X28179255Y125214632D01*
X28349522Y125274211D01*
X28502262Y125370184D01*
X28629816Y125497738D01*
X28725789Y125650478D01*
X28785368Y125820745D01*
X28805565Y126000000D01*
X28785368Y126179255D01*
X28725789Y126349522D01*
X28725787Y126349525D01*
X28725787Y126349526D01*
X28629817Y126502261D01*
X28629816Y126502263D01*
X28502262Y126629817D01*
X28502260Y126629818D01*
X28349525Y126725788D01*
X28349522Y126725789D01*
X28179261Y126785367D01*
X28179249Y126785369D01*
X28172709Y126786106D01*
X28107258Y126813613D01*
X28097728Y126822218D01*
X19785541Y135134405D01*
X19751515Y135196717D01*
X19756580Y135267532D01*
X19799127Y135324368D01*
X19865647Y135349179D01*
X19874636Y135349500D01*
X20178364Y135349500D01*
X20246485Y135329498D01*
X20267459Y135312595D01*
X27177782Y128402272D01*
X27211808Y128339960D01*
X27213894Y128327291D01*
X27214631Y128320751D01*
X27214633Y128320739D01*
X27274211Y128150478D01*
X27274212Y128150475D01*
X27370182Y127997740D01*
X27370183Y127997738D01*
X27497737Y127870184D01*
X27497739Y127870183D01*
X27650474Y127774213D01*
X27650475Y127774213D01*
X27650478Y127774211D01*
X27820745Y127714632D01*
X28000000Y127694435D01*
X28179255Y127714632D01*
X28349522Y127774211D01*
X28502262Y127870184D01*
X28629816Y127997738D01*
X28725789Y128150478D01*
X28785368Y128320745D01*
X28805565Y128500000D01*
X28785368Y128679255D01*
X28725789Y128849522D01*
X28725787Y128849525D01*
X28725787Y128849526D01*
X28629817Y129002261D01*
X28629816Y129002263D01*
X28502262Y129129817D01*
X28502260Y129129818D01*
X28349525Y129225788D01*
X28349522Y129225789D01*
X28179261Y129285367D01*
X28179249Y129285369D01*
X28172709Y129286106D01*
X28107258Y129313613D01*
X28097728Y129322218D01*
X21285541Y136134405D01*
X21251515Y136196717D01*
X21256580Y136267532D01*
X21299127Y136324368D01*
X21365647Y136349179D01*
X21374636Y136349500D01*
X21678364Y136349500D01*
X21746485Y136329498D01*
X21767459Y136312595D01*
X27177782Y130902272D01*
X27211808Y130839960D01*
X27213894Y130827291D01*
X27214631Y130820751D01*
X27214633Y130820739D01*
X27274211Y130650478D01*
X27274212Y130650475D01*
X27370182Y130497740D01*
X27370183Y130497738D01*
X27497737Y130370184D01*
X27497739Y130370183D01*
X27650474Y130274213D01*
X27650475Y130274213D01*
X27650478Y130274211D01*
X27820745Y130214632D01*
X28000000Y130194435D01*
X28179255Y130214632D01*
X28349522Y130274211D01*
X28502262Y130370184D01*
X28629816Y130497738D01*
X28725789Y130650478D01*
X28785368Y130820745D01*
X28805565Y131000000D01*
X28785368Y131179255D01*
X28725789Y131349522D01*
X28725787Y131349525D01*
X28725787Y131349526D01*
X28629817Y131502261D01*
X28629816Y131502263D01*
X28502262Y131629817D01*
X28502260Y131629818D01*
X28349525Y131725788D01*
X28349522Y131725789D01*
X28179261Y131785367D01*
X28179249Y131785369D01*
X28172709Y131786106D01*
X28107258Y131813613D01*
X28097728Y131822218D01*
X22520591Y137399355D01*
X22510460Y137412001D01*
X22510256Y137411831D01*
X22505203Y137417939D01*
X22453461Y137466528D01*
X22452071Y137467875D01*
X22431035Y137488911D01*
X22431021Y137488923D01*
X22425278Y137493378D01*
X22420763Y137497234D01*
X22385397Y137530445D01*
X22385392Y137530449D01*
X22378910Y137534012D01*
X22366930Y137540599D01*
X22350407Y137551452D01*
X22333765Y137564361D01*
X22333764Y137564362D01*
X22289222Y137583638D01*
X22283900Y137586245D01*
X22241372Y137609626D01*
X22241361Y137609630D01*
X22220954Y137614870D01*
X22202257Y137621271D01*
X22182923Y137629637D01*
X22182924Y137629637D01*
X22135001Y137637227D01*
X22129187Y137638431D01*
X22082181Y137650499D01*
X22082180Y137650500D01*
X22082177Y137650500D01*
X22082174Y137650500D01*
X22061116Y137650500D01*
X22041405Y137652051D01*
X22020594Y137655348D01*
X21972279Y137650780D01*
X21966346Y137650500D01*
X-35994356Y137650500D01*
X-36061392Y137669813D01*
X-36150476Y137725788D01*
X-36150478Y137725789D01*
X-36150479Y137725790D01*
X-36320745Y137785368D01*
X-36500000Y137805565D01*
X-36679255Y137785368D01*
X-36679258Y137785368D01*
X-36679258Y137785367D01*
X-36849523Y137725789D01*
X-36849526Y137725788D01*
X-37002261Y137629818D01*
X-37002263Y137629817D01*
X-37129817Y137502263D01*
X-37129818Y137502261D01*
X-37225788Y137349526D01*
X-37225789Y137349523D01*
X-37225789Y137349522D01*
X-37285368Y137179255D01*
X-37296306Y137082178D01*
X-37305565Y137000000D01*
X-37298566Y136937881D01*
X-37310816Y136867949D01*
X-37358929Y136815741D01*
X-37427630Y136797833D01*
X-37437881Y136798566D01*
X-37500000Y136805565D01*
X-37679255Y136785368D01*
X-37679258Y136785368D01*
X-37679258Y136785367D01*
X-37849523Y136725789D01*
X-37849526Y136725788D01*
X-38002261Y136629818D01*
X-38002263Y136629817D01*
X-38129817Y136502263D01*
X-38129818Y136502261D01*
X-38225788Y136349526D01*
X-38225789Y136349523D01*
X-38254479Y136267532D01*
X-38285368Y136179255D01*
X-38290421Y136134405D01*
X-38305565Y136000000D01*
X-38298566Y135937881D01*
X-38310816Y135867949D01*
X-38358929Y135815741D01*
X-38427630Y135797833D01*
X-38437881Y135798566D01*
X-38500000Y135805565D01*
X-38679255Y135785368D01*
X-38679258Y135785368D01*
X-38679258Y135785367D01*
X-38849523Y135725789D01*
X-38849526Y135725788D01*
X-39002261Y135629818D01*
X-39002263Y135629817D01*
X-39129817Y135502263D01*
X-39129818Y135502261D01*
X-39225788Y135349526D01*
X-39225789Y135349523D01*
X-39254479Y135267532D01*
X-39285368Y135179255D01*
X-39290421Y135134405D01*
X-39305565Y135000000D01*
X-39298566Y134937881D01*
X-39310816Y134867949D01*
X-39358929Y134815741D01*
X-39427630Y134797833D01*
X-39437881Y134798566D01*
X-39500000Y134805565D01*
X-39679255Y134785368D01*
X-39679258Y134785368D01*
X-39679258Y134785367D01*
X-39849523Y134725789D01*
X-39849526Y134725788D01*
X-40002261Y134629818D01*
X-40002263Y134629817D01*
X-40129817Y134502263D01*
X-40129818Y134502261D01*
X-40225788Y134349526D01*
X-40225789Y134349523D01*
X-40254479Y134267532D01*
X-40285368Y134179255D01*
X-40290421Y134134405D01*
X-40305565Y134000000D01*
X-40298566Y133937881D01*
X-40310816Y133867949D01*
X-40358929Y133815741D01*
X-40427630Y133797833D01*
X-40437881Y133798566D01*
X-40500000Y133805565D01*
X-40679255Y133785368D01*
X-40679258Y133785368D01*
X-40679258Y133785367D01*
X-40849523Y133725789D01*
X-40849526Y133725788D01*
X-41002261Y133629818D01*
X-41002263Y133629817D01*
X-41134405Y133497674D01*
X-41196717Y133463648D01*
X-41267532Y133468713D01*
X-41324368Y133511260D01*
X-41349179Y133577780D01*
X-41349500Y133586769D01*
X-41349500Y141178365D01*
X-41329498Y141246486D01*
X-41312600Y141267455D01*
X-40557270Y142022785D01*
X-7511367Y142022785D01*
X-7511366Y142000001D01*
X-7510502Y141997917D01*
X-7510501Y141997912D01*
X-7510500Y141997912D01*
X-7508037Y141991965D01*
X-7491890Y141975822D01*
X-7488218Y141973369D01*
X-5526622Y140011773D01*
X-5524151Y140008075D01*
X-5508036Y139991964D01*
X-5507577Y139991774D01*
X-5505949Y139991100D01*
X-5505948Y139991099D01*
X-5500000Y139988635D01*
X-5500000Y139988636D01*
X-5499999Y139988635D01*
X-5477193Y139988635D01*
X-5472845Y139989500D01*
X5472845Y139989500D01*
X5477193Y139988635D01*
X5499998Y139988635D01*
X5499998Y139988636D01*
X5500000Y139988635D01*
X5505948Y139991099D01*
X5505948Y139991100D01*
X5508036Y139991964D01*
X5508036Y139991966D01*
X5508053Y139991972D01*
X5509184Y139992441D01*
X5512264Y139996193D01*
X5524177Y140008107D01*
X5526636Y140011789D01*
X7488211Y141973364D01*
X7491874Y141975810D01*
X7508034Y141991964D01*
X7508036Y141991964D01*
X7510500Y141997912D01*
X7511365Y142000000D01*
X7511364Y142000003D01*
X7511365Y142000004D01*
X7511366Y142022785D01*
X7510500Y142027144D01*
X7510500Y145687405D01*
X7510499Y149972852D01*
X7511364Y149977193D01*
X7511365Y150000000D01*
X7508226Y150007577D01*
X7508036Y150008036D01*
X7491925Y150024151D01*
X7488227Y150026622D01*
X5526631Y151988218D01*
X5524178Y151991890D01*
X5508036Y152008036D01*
X5508034Y152008037D01*
X5502088Y152010500D01*
X5500000Y152011365D01*
X5499999Y152011365D01*
X5477194Y152011365D01*
X5472846Y152010500D01*
X-5472846Y152010500D01*
X-5477194Y152011365D01*
X-5500000Y152011365D01*
X-5502086Y152010501D01*
X-5508036Y152008037D01*
X-5524147Y151991929D01*
X-5526614Y151988237D01*
X-7488237Y150026614D01*
X-7491923Y150024150D01*
X-7508036Y150008037D01*
X-7511365Y150000004D01*
X-7511365Y149977192D01*
X-7510501Y149972846D01*
X-7510501Y142027144D01*
X-7511367Y142022785D01*
X-40557270Y142022785D01*
X-37600646Y144979410D01*
X-37588006Y144989535D01*
X-37588174Y144989739D01*
X-37582062Y144994797D01*
X-37582063Y144994797D01*
X-37582060Y144994798D01*
X-37533457Y145046557D01*
X-37532142Y145047914D01*
X-37511089Y145068965D01*
X-37506629Y145074716D01*
X-37502777Y145079228D01*
X-37469552Y145114607D01*
X-37459405Y145133067D01*
X-37448552Y145149589D01*
X-37435638Y145166236D01*
X-37416367Y145210772D01*
X-37413762Y145216092D01*
X-37390373Y145258632D01*
X-37385132Y145279050D01*
X-37378734Y145297738D01*
X-37370365Y145317073D01*
X-37362771Y145365027D01*
X-37361579Y145370783D01*
X-37349500Y145417823D01*
X-37349500Y145438891D01*
X-37347949Y145458602D01*
X-37346589Y145467191D01*
X-37344654Y145479405D01*
X-37349220Y145527714D01*
X-37349500Y145533646D01*
X-37349500Y154914274D01*
X-37347722Y154930378D01*
X-37347986Y154930402D01*
X-37347240Y154938296D01*
X-37349469Y155009234D01*
X-37349500Y155011212D01*
X-37349500Y155040920D01*
X-37349501Y155040930D01*
X-37350412Y155048144D01*
X-37350879Y155054055D01*
X-37352402Y155102569D01*
X-37358283Y155122809D01*
X-37362290Y155142158D01*
X-37364929Y155163058D01*
X-37382798Y155208190D01*
X-37384712Y155213781D01*
X-37398255Y155260398D01*
X-37408981Y155278535D01*
X-37417680Y155296292D01*
X-37425431Y155315870D01*
X-37453958Y155355133D01*
X-37457219Y155360098D01*
X-37461263Y155366936D01*
X-37465438Y155373995D01*
X-37481918Y155401865D01*
X-37496813Y155416760D01*
X-37509654Y155431793D01*
X-37522038Y155448838D01*
X-37531505Y155456670D01*
X-37559441Y155479780D01*
X-37563815Y155483761D01*
X-42812596Y160732542D01*
X-42846621Y160794853D01*
X-42849500Y160821636D01*
X-42849500Y166499999D01*
X-36255527Y166499999D01*
X-36235437Y166167861D01*
X-36235436Y166167858D01*
X-36175457Y165840560D01*
X-36076462Y165522873D01*
X-35939904Y165219454D01*
X-35939901Y165219448D01*
X-35767755Y164934683D01*
X-35562548Y164672754D01*
X-35562536Y164672741D01*
X-35327260Y164437465D01*
X-35327247Y164437453D01*
X-35095083Y164255565D01*
X-35065318Y164232246D01*
X-34780557Y164060102D01*
X-34780555Y164060101D01*
X-34780553Y164060100D01*
X-34780547Y164060097D01*
X-34477128Y163923539D01*
X-34477127Y163923539D01*
X-34477123Y163923537D01*
X-34159441Y163824544D01*
X-33832142Y163764564D01*
X-33610715Y163751170D01*
X-33500001Y163744473D01*
X-33500000Y163744473D01*
X-33499999Y163744473D01*
X-33416965Y163749496D01*
X-33167858Y163764564D01*
X-32840559Y163824544D01*
X-32522877Y163923537D01*
X-32219443Y164060102D01*
X-31934682Y164232246D01*
X-31672748Y164437458D01*
X-31437458Y164672748D01*
X-31232246Y164934682D01*
X-31060102Y165219443D01*
X-30923537Y165522877D01*
X-30824544Y165840559D01*
X-30764564Y166167858D01*
X-30744473Y166500000D01*
X-30752326Y166629817D01*
X-30764564Y166832140D01*
X-30764564Y166832142D01*
X-30824544Y167159441D01*
X-30923537Y167477123D01*
X-31060102Y167780557D01*
X-31232246Y168065318D01*
X-31232247Y168065319D01*
X-31437453Y168327247D01*
X-31437465Y168327260D01*
X-31672741Y168562536D01*
X-31672754Y168562548D01*
X-31934683Y168767755D01*
X-32219448Y168939901D01*
X-32219454Y168939904D01*
X-32522873Y169076462D01*
X-32840560Y169175457D01*
X-33167858Y169235436D01*
X-33167861Y169235437D01*
X-33499999Y169255527D01*
X-33500001Y169255527D01*
X-33832140Y169235437D01*
X-33832143Y169235436D01*
X-34159441Y169175457D01*
X-34477128Y169076462D01*
X-34780547Y168939904D01*
X-34780553Y168939901D01*
X-35065318Y168767755D01*
X-35327247Y168562548D01*
X-35327260Y168562536D01*
X-35562536Y168327260D01*
X-35562548Y168327247D01*
X-35767755Y168065318D01*
X-35939901Y167780553D01*
X-35939904Y167780547D01*
X-36076462Y167477128D01*
X-36175457Y167159441D01*
X-36235436Y166832143D01*
X-36235437Y166832140D01*
X-36255527Y166500002D01*
X-36255527Y166499999D01*
X-42849500Y166499999D01*
X-42849500Y172678365D01*
X-42829498Y172746486D01*
X-42812595Y172767460D01*
X-40156516Y175423539D01*
X-37580057Y177999999D01*
X-27255527Y177999999D01*
X-27235437Y177667861D01*
X-27235436Y177667858D01*
X-27175457Y177340560D01*
X-27076462Y177022873D01*
X-26939904Y176719454D01*
X-26939901Y176719448D01*
X-26767755Y176434683D01*
X-26562548Y176172754D01*
X-26562536Y176172741D01*
X-26327260Y175937465D01*
X-26327247Y175937453D01*
X-26083494Y175746486D01*
X-26065318Y175732246D01*
X-25780557Y175560102D01*
X-25780555Y175560101D01*
X-25780553Y175560100D01*
X-25780547Y175560097D01*
X-25477128Y175423539D01*
X-25477127Y175423539D01*
X-25477123Y175423537D01*
X-25159441Y175324544D01*
X-24832142Y175264564D01*
X-24616451Y175251517D01*
X-24500001Y175244473D01*
X-24500000Y175244473D01*
X-24499999Y175244473D01*
X-24409984Y175249918D01*
X-24167858Y175264564D01*
X-23840559Y175324544D01*
X-23522877Y175423537D01*
X-23219443Y175560102D01*
X-22934682Y175732246D01*
X-22699741Y175916310D01*
X-22672754Y175937453D01*
X-22672752Y175937455D01*
X-22672748Y175937458D01*
X-22437458Y176172748D01*
X-22232246Y176434682D01*
X-22060102Y176719443D01*
X-21923537Y177022877D01*
X-21824544Y177340559D01*
X-21764564Y177667858D01*
X-21744982Y177991589D01*
X-21744473Y177999999D01*
X-21744473Y178000002D01*
X-21761060Y178274213D01*
X-21764564Y178332142D01*
X-21824544Y178659441D01*
X-21923537Y178977123D01*
X-21977817Y179097728D01*
X-22060097Y179280547D01*
X-22060100Y179280553D01*
X-22101794Y179349523D01*
X-22232246Y179565318D01*
X-22282777Y179629816D01*
X-22437453Y179827247D01*
X-22437465Y179827260D01*
X-22672741Y180062536D01*
X-22672754Y180062548D01*
X-22934683Y180267755D01*
X-23219448Y180439901D01*
X-23219454Y180439904D01*
X-23522873Y180576462D01*
X-23840560Y180675457D01*
X-24167858Y180735436D01*
X-24167861Y180735437D01*
X-24499999Y180755527D01*
X-24500001Y180755527D01*
X-24832140Y180735437D01*
X-24832143Y180735436D01*
X-25159441Y180675457D01*
X-25477128Y180576462D01*
X-25780547Y180439904D01*
X-25780553Y180439901D01*
X-26065318Y180267755D01*
X-26327247Y180062548D01*
X-26327260Y180062536D01*
X-26562536Y179827260D01*
X-26562548Y179827247D01*
X-26767755Y179565318D01*
X-26939901Y179280553D01*
X-26939904Y179280547D01*
X-27076462Y178977128D01*
X-27175457Y178659441D01*
X-27235436Y178332143D01*
X-27235437Y178332140D01*
X-27255527Y178000002D01*
X-27255527Y177999999D01*
X-37580057Y177999999D01*
X-37402272Y178177784D01*
X-37339962Y178211808D01*
X-37327284Y178213895D01*
X-37323801Y178214288D01*
X-37320745Y178214632D01*
X-37150478Y178274211D01*
X-36997738Y178370184D01*
X-36870184Y178497738D01*
X-36774211Y178650478D01*
X-36714632Y178820745D01*
X-36694435Y179000000D01*
X-36714632Y179179255D01*
X-36774211Y179349522D01*
X-36774213Y179349525D01*
X-36774213Y179349526D01*
X-36870183Y179502261D01*
X-36870184Y179502263D01*
X-36997738Y179629817D01*
X-36997740Y179629818D01*
X-37150475Y179725788D01*
X-37150478Y179725789D01*
X-37320745Y179785368D01*
X-37500000Y179805565D01*
X-37679255Y179785368D01*
X-37679258Y179785368D01*
X-37679258Y179785367D01*
X-37849523Y179725789D01*
X-37849526Y179725788D01*
X-38002261Y179629818D01*
X-38002263Y179629817D01*
X-38129817Y179502263D01*
X-38129818Y179502261D01*
X-38225788Y179349526D01*
X-38225789Y179349523D01*
X-38285367Y179179262D01*
X-38285369Y179179251D01*
X-38286106Y179172709D01*
X-38313614Y179107258D01*
X-38322218Y179097730D01*
X-43634405Y173785542D01*
X-43696717Y173751516D01*
X-43767532Y173756581D01*
X-43824368Y173799128D01*
X-43849179Y173865648D01*
X-43849500Y173874637D01*
X-43849500Y174178365D01*
X-43829498Y174246486D01*
X-43812600Y174267455D01*
X-39902272Y178177784D01*
X-39839962Y178211808D01*
X-39827284Y178213895D01*
X-39823801Y178214288D01*
X-39820745Y178214632D01*
X-39650478Y178274211D01*
X-39497738Y178370184D01*
X-39370184Y178497738D01*
X-39274211Y178650478D01*
X-39214632Y178820745D01*
X-39194435Y179000000D01*
X-39214632Y179179255D01*
X-39274211Y179349522D01*
X-39274213Y179349525D01*
X-39274213Y179349526D01*
X-39370183Y179502261D01*
X-39370184Y179502263D01*
X-39497738Y179629817D01*
X-39497740Y179629818D01*
X-39650475Y179725788D01*
X-39650478Y179725789D01*
X-39820745Y179785368D01*
X-40000000Y179805565D01*
X-40179255Y179785368D01*
X-40179258Y179785368D01*
X-40179258Y179785367D01*
X-40349523Y179725789D01*
X-40349526Y179725788D01*
X-40502261Y179629818D01*
X-40502263Y179629817D01*
X-40629817Y179502263D01*
X-40629818Y179502261D01*
X-40725788Y179349526D01*
X-40725789Y179349523D01*
X-40785367Y179179262D01*
X-40785369Y179179251D01*
X-40786106Y179172709D01*
X-40813614Y179107258D01*
X-40822218Y179097730D01*
X-44634405Y175285543D01*
X-44696717Y175251517D01*
X-44767532Y175256582D01*
X-44824368Y175299129D01*
X-44849179Y175365649D01*
X-44849500Y175374638D01*
X-44849500Y175678365D01*
X-44829498Y175746486D01*
X-44812600Y175767455D01*
X-42402272Y178177784D01*
X-42339962Y178211807D01*
X-42327284Y178213895D01*
X-42323801Y178214288D01*
X-42320745Y178214632D01*
X-42150478Y178274211D01*
X-41997738Y178370184D01*
X-41870184Y178497738D01*
X-41774211Y178650478D01*
X-41714632Y178820745D01*
X-41694435Y179000000D01*
X-41714632Y179179255D01*
X-41774211Y179349522D01*
X-41774213Y179349525D01*
X-41774213Y179349526D01*
X-41870183Y179502261D01*
X-41870184Y179502263D01*
X-41997738Y179629817D01*
X-41997740Y179629818D01*
X-42150475Y179725788D01*
X-42150478Y179725789D01*
X-42150478Y179725790D01*
X-42320745Y179785368D01*
X-42500000Y179805565D01*
X-42679255Y179785368D01*
X-42679258Y179785368D01*
X-42679258Y179785367D01*
X-42849523Y179725789D01*
X-42849526Y179725788D01*
X-43002261Y179629818D01*
X-43002263Y179629817D01*
X-43129817Y179502263D01*
X-43129818Y179502261D01*
X-43225788Y179349526D01*
X-43225789Y179349523D01*
X-43285367Y179179262D01*
X-43285369Y179179251D01*
X-43286106Y179172709D01*
X-43313614Y179107258D01*
X-43322218Y179097730D01*
X-45634405Y176785542D01*
X-45696717Y176751517D01*
X-45767532Y176756581D01*
X-45824368Y176799128D01*
X-45849179Y176865648D01*
X-45849500Y176874637D01*
X-45849500Y177178365D01*
X-45829498Y177246486D01*
X-45812605Y177267450D01*
X-44902271Y178177785D01*
X-44839962Y178211807D01*
X-44827284Y178213895D01*
X-44823801Y178214288D01*
X-44820745Y178214632D01*
X-44650478Y178274211D01*
X-44497738Y178370184D01*
X-44370184Y178497738D01*
X-44274211Y178650478D01*
X-44214632Y178820745D01*
X-44194435Y179000000D01*
X-44214632Y179179255D01*
X-44274211Y179349522D01*
X-44274213Y179349525D01*
X-44274213Y179349526D01*
X-44370183Y179502261D01*
X-44370184Y179502263D01*
X-44497738Y179629817D01*
X-44497740Y179629818D01*
X-44650475Y179725788D01*
X-44650478Y179725789D01*
X-44650478Y179725790D01*
X-44820745Y179785368D01*
X-45000000Y179805565D01*
X-45179255Y179785368D01*
X-45179258Y179785368D01*
X-45179258Y179785367D01*
X-45349523Y179725789D01*
X-45349526Y179725788D01*
X-45502261Y179629818D01*
X-45502263Y179629817D01*
X-45629817Y179502263D01*
X-45629818Y179502261D01*
X-45725788Y179349526D01*
X-45725789Y179349523D01*
X-45785367Y179179262D01*
X-45785369Y179179251D01*
X-45786106Y179172709D01*
X-45813614Y179107258D01*
X-45822218Y179097730D01*
X-46269471Y178650475D01*
X-46634404Y178285542D01*
X-46696717Y178251517D01*
X-46767532Y178256581D01*
X-46824368Y178299128D01*
X-46849179Y178365648D01*
X-46849500Y178374637D01*
X-46849500Y180678365D01*
X-46829498Y180746486D01*
X-46812600Y180767455D01*
X-44580058Y182999997D01*
X-10005330Y182999997D01*
X-9986035Y182705625D01*
X-9986032Y182705607D01*
X-9928482Y182416280D01*
X-9928480Y182416273D01*
X-9865813Y182231664D01*
X-9833652Y182136923D01*
X-9833649Y182136917D01*
X-9703174Y181872338D01*
X-9539275Y181627045D01*
X-9539273Y181627043D01*
X-9344758Y181405242D01*
X-9122957Y181210727D01*
X-8877665Y181046828D01*
X-8613077Y180916348D01*
X-8333722Y180821519D01*
X-8044380Y180763966D01*
X-7876163Y180752941D01*
X-7750003Y180744671D01*
X-7750000Y180744671D01*
X-7749997Y180744671D01*
X-7639608Y180751907D01*
X-7455620Y180763966D01*
X-7166278Y180821519D01*
X-6886923Y180916348D01*
X-6622335Y181046828D01*
X-6377043Y181210727D01*
X-6155242Y181405242D01*
X-5960727Y181627043D01*
X-5796828Y181872335D01*
X-5666348Y182136923D01*
X-5571519Y182416278D01*
X-5513966Y182705620D01*
X-5494671Y183000000D01*
X-5513966Y183294380D01*
X-5554866Y183500000D01*
X-805565Y183500000D01*
X-785368Y183320745D01*
X-785367Y183320743D01*
X-725790Y183150479D01*
X-725789Y183150478D01*
X-669813Y183061392D01*
X-650500Y182994358D01*
X-650500Y161185726D01*
X-652278Y161169621D01*
X-652014Y161169596D01*
X-652760Y161161705D01*
X-650531Y161090781D01*
X-650500Y161088802D01*
X-650500Y161059082D01*
X-650499Y161059062D01*
X-649588Y161051845D01*
X-649122Y161045932D01*
X-647598Y160997433D01*
X-647597Y160997430D01*
X-641720Y160977198D01*
X-637713Y160957847D01*
X-635073Y160936949D01*
X-635069Y160936936D01*
X-617208Y160891823D01*
X-615285Y160886207D01*
X-601745Y160839603D01*
X-601744Y160839601D01*
X-591021Y160821469D01*
X-582324Y160803716D01*
X-574572Y160784136D01*
X-574568Y160784129D01*
X-546052Y160744878D01*
X-542793Y160739918D01*
X-518082Y160698136D01*
X-518079Y160698132D01*
X-503188Y160683241D01*
X-490348Y160668208D01*
X-477966Y160651167D01*
X-477964Y160651164D01*
X-440569Y160620228D01*
X-436188Y160616242D01*
X1330913Y158849141D01*
X2579408Y157600646D01*
X2589540Y157588001D01*
X2589744Y157588169D01*
X2594798Y157582060D01*
X2646537Y157533474D01*
X2647926Y157532128D01*
X2668965Y157511089D01*
X2674720Y157506625D01*
X2679217Y157502785D01*
X2714607Y157469552D01*
X2733066Y157459404D01*
X2749583Y157448556D01*
X2766236Y157435638D01*
X2810794Y157416357D01*
X2816082Y157413765D01*
X2858632Y157390373D01*
X2879048Y157385132D01*
X2897735Y157378734D01*
X2917074Y157370365D01*
X2917078Y157370365D01*
X2917079Y157370364D01*
X2943691Y157366150D01*
X2965002Y157362775D01*
X2970807Y157361573D01*
X3017823Y157349500D01*
X3038884Y157349500D01*
X3058595Y157347949D01*
X3062076Y157347398D01*
X3079405Y157344653D01*
X3114271Y157347949D01*
X3127721Y157349220D01*
X3133654Y157349500D01*
X17914274Y157349500D01*
X17930379Y157347723D01*
X17930404Y157347986D01*
X17938288Y157347242D01*
X17938296Y157347240D01*
X18004507Y157349322D01*
X18009219Y157349469D01*
X18011198Y157349500D01*
X18040922Y157349500D01*
X18040925Y157349500D01*
X18048166Y157350416D01*
X18054051Y157350879D01*
X18102569Y157352403D01*
X18119673Y157357373D01*
X18122794Y157358279D01*
X18142150Y157362289D01*
X18163058Y157364929D01*
X18208187Y157382798D01*
X18213788Y157384716D01*
X18243189Y157393257D01*
X18260396Y157398255D01*
X18260398Y157398256D01*
X18278529Y157408980D01*
X18296285Y157417679D01*
X18315871Y157425432D01*
X18355128Y157453955D01*
X18360089Y157457213D01*
X18363799Y157459407D01*
X18401865Y157481919D01*
X18416762Y157496817D01*
X18431796Y157509658D01*
X18448837Y157522037D01*
X18479780Y157559442D01*
X18483748Y157563804D01*
X21132540Y160212595D01*
X21194853Y160246621D01*
X21221636Y160249500D01*
X39494356Y160249500D01*
X39561392Y160230187D01*
X39586145Y160214634D01*
X39650478Y160174211D01*
X39820745Y160114632D01*
X40000000Y160094435D01*
X40179255Y160114632D01*
X40349522Y160174211D01*
X40502262Y160270184D01*
X40629816Y160397738D01*
X40725789Y160550478D01*
X40785368Y160720745D01*
X40805565Y160900000D01*
X40785368Y161079255D01*
X40725789Y161249522D01*
X40725787Y161249525D01*
X40725787Y161249526D01*
X40629817Y161402261D01*
X40629816Y161402263D01*
X40502262Y161529817D01*
X40502260Y161529818D01*
X40349525Y161625788D01*
X40349522Y161625789D01*
X40270671Y161653380D01*
X40179255Y161685368D01*
X40000000Y161705565D01*
X39820745Y161685368D01*
X39820742Y161685368D01*
X39820742Y161685367D01*
X39650477Y161625789D01*
X39650475Y161625788D01*
X39561392Y161569813D01*
X39494356Y161550500D01*
X20985725Y161550500D01*
X20969619Y161552278D01*
X20969595Y161552014D01*
X20961703Y161552760D01*
X20890780Y161550531D01*
X20888801Y161550500D01*
X20859075Y161550500D01*
X20859069Y161550500D01*
X20859063Y161550499D01*
X20851843Y161549587D01*
X20845931Y161549122D01*
X20797433Y161547598D01*
X20797420Y161547596D01*
X20777193Y161541720D01*
X20757850Y161537714D01*
X20736945Y161535072D01*
X20736936Y161535070D01*
X20691828Y161517210D01*
X20686212Y161515287D01*
X20639603Y161501745D01*
X20639597Y161501743D01*
X20621458Y161491016D01*
X20603714Y161482323D01*
X20584130Y161474569D01*
X20544864Y161446042D01*
X20539904Y161442784D01*
X20498134Y161418081D01*
X20483239Y161403186D01*
X20468212Y161390352D01*
X20451166Y161377967D01*
X20451163Y161377964D01*
X20420221Y161340563D01*
X20416225Y161336172D01*
X17767459Y158687405D01*
X17705147Y158653380D01*
X17678364Y158650500D01*
X3421636Y158650500D01*
X3353515Y158670502D01*
X3332541Y158687405D01*
X1019946Y161000000D01*
X2194435Y161000000D01*
X2214632Y160820745D01*
X2241179Y160744878D01*
X2274211Y160650478D01*
X2274212Y160650475D01*
X2370182Y160497740D01*
X2370183Y160497738D01*
X2497737Y160370184D01*
X2497739Y160370183D01*
X2650474Y160274213D01*
X2650475Y160274213D01*
X2650478Y160274211D01*
X2820745Y160214632D01*
X3000000Y160194435D01*
X3179255Y160214632D01*
X3349522Y160274211D01*
X3411198Y160312966D01*
X3438608Y160330187D01*
X3505644Y160349500D01*
X16914274Y160349500D01*
X16930379Y160347723D01*
X16930404Y160347986D01*
X16938288Y160347242D01*
X16938296Y160347240D01*
X17004507Y160349322D01*
X17009219Y160349469D01*
X17011198Y160349500D01*
X17040922Y160349500D01*
X17040925Y160349500D01*
X17048166Y160350416D01*
X17054051Y160350879D01*
X17102569Y160352403D01*
X17119673Y160357373D01*
X17122794Y160358279D01*
X17142150Y160362289D01*
X17163058Y160364929D01*
X17208187Y160382798D01*
X17213788Y160384716D01*
X17243189Y160393257D01*
X17260396Y160398255D01*
X17260398Y160398256D01*
X17278529Y160408980D01*
X17296285Y160417679D01*
X17315871Y160425432D01*
X17355128Y160453955D01*
X17360089Y160457213D01*
X17360756Y160457608D01*
X17401865Y160481919D01*
X17416762Y160496817D01*
X17431796Y160509658D01*
X17448837Y160522037D01*
X17479780Y160559442D01*
X17483748Y160563804D01*
X19682540Y162762595D01*
X19744853Y162796621D01*
X19771636Y162799500D01*
X39494356Y162799500D01*
X39561392Y162780187D01*
X39589390Y162762595D01*
X39650478Y162724211D01*
X39820745Y162664632D01*
X40000000Y162644435D01*
X40179255Y162664632D01*
X40349522Y162724211D01*
X40502262Y162820184D01*
X40629816Y162947738D01*
X40725789Y163100478D01*
X40785368Y163270745D01*
X40805565Y163450000D01*
X40785368Y163629255D01*
X40725789Y163799522D01*
X40725787Y163799525D01*
X40725787Y163799526D01*
X40629817Y163952261D01*
X40629816Y163952263D01*
X40502262Y164079817D01*
X40502260Y164079818D01*
X40349525Y164175788D01*
X40349522Y164175789D01*
X40349521Y164175790D01*
X40179255Y164235368D01*
X40000000Y164255565D01*
X39820745Y164235368D01*
X39820742Y164235368D01*
X39820742Y164235367D01*
X39650477Y164175789D01*
X39650475Y164175788D01*
X39561392Y164119813D01*
X39494356Y164100500D01*
X19535725Y164100500D01*
X19519619Y164102278D01*
X19519595Y164102014D01*
X19511703Y164102760D01*
X19440780Y164100531D01*
X19438801Y164100500D01*
X19409075Y164100500D01*
X19409069Y164100500D01*
X19409063Y164100499D01*
X19401843Y164099587D01*
X19395931Y164099122D01*
X19347433Y164097598D01*
X19347420Y164097596D01*
X19327193Y164091720D01*
X19307850Y164087714D01*
X19286945Y164085072D01*
X19286936Y164085070D01*
X19241828Y164067210D01*
X19236212Y164065287D01*
X19189603Y164051745D01*
X19189597Y164051743D01*
X19171458Y164041016D01*
X19153714Y164032323D01*
X19134130Y164024569D01*
X19094864Y163996042D01*
X19089904Y163992784D01*
X19048134Y163968081D01*
X19033239Y163953186D01*
X19018212Y163940352D01*
X19001166Y163927967D01*
X19001163Y163927964D01*
X18970221Y163890563D01*
X18966224Y163886172D01*
X17860241Y162780187D01*
X16767459Y161687405D01*
X16705147Y161653380D01*
X16678364Y161650500D01*
X3505644Y161650500D01*
X3438608Y161669813D01*
X3349524Y161725788D01*
X3349522Y161725789D01*
X3349522Y161725790D01*
X3179255Y161785368D01*
X3000000Y161805565D01*
X2820745Y161785368D01*
X2820742Y161785368D01*
X2820742Y161785367D01*
X2650477Y161725789D01*
X2650474Y161725788D01*
X2497739Y161629818D01*
X2497737Y161629817D01*
X2370183Y161502263D01*
X2370182Y161502261D01*
X2274212Y161349526D01*
X2274211Y161349523D01*
X2268269Y161332541D01*
X2214632Y161179255D01*
X2194435Y161000000D01*
X1019946Y161000000D01*
X687405Y161332541D01*
X653379Y161394853D01*
X650500Y161421636D01*
X650500Y166499999D01*
X8244472Y166499999D01*
X8264563Y166167861D01*
X8264564Y166167858D01*
X8324543Y165840560D01*
X8423538Y165522873D01*
X8560096Y165219454D01*
X8560099Y165219448D01*
X8732245Y164934683D01*
X8937452Y164672754D01*
X8937464Y164672741D01*
X9172740Y164437465D01*
X9172753Y164437453D01*
X9404917Y164255565D01*
X9434682Y164232246D01*
X9719443Y164060102D01*
X9719445Y164060101D01*
X9719447Y164060100D01*
X9719453Y164060097D01*
X10022872Y163923539D01*
X10022873Y163923539D01*
X10022877Y163923537D01*
X10340559Y163824544D01*
X10667858Y163764564D01*
X10889286Y163751171D01*
X10999999Y163744473D01*
X11000000Y163744473D01*
X11000001Y163744473D01*
X11083035Y163749496D01*
X11332142Y163764564D01*
X11659441Y163824544D01*
X11977123Y163923537D01*
X12280557Y164060102D01*
X12565318Y164232246D01*
X12827252Y164437458D01*
X13062542Y164672748D01*
X13267754Y164934682D01*
X13439898Y165219443D01*
X13576463Y165522877D01*
X13675456Y165840559D01*
X13704675Y166000000D01*
X18194435Y166000000D01*
X18214632Y165820745D01*
X18214633Y165820743D01*
X18274211Y165650478D01*
X18274212Y165650475D01*
X18370182Y165497740D01*
X18370183Y165497738D01*
X18497737Y165370184D01*
X18497739Y165370183D01*
X18650474Y165274213D01*
X18650475Y165274213D01*
X18650478Y165274211D01*
X18820745Y165214632D01*
X19000000Y165194435D01*
X19179255Y165214632D01*
X19349522Y165274211D01*
X19411198Y165312966D01*
X19438608Y165330187D01*
X19505644Y165349500D01*
X39494356Y165349500D01*
X39561392Y165330187D01*
X39627474Y165288666D01*
X39650478Y165274211D01*
X39820745Y165214632D01*
X40000000Y165194435D01*
X40179255Y165214632D01*
X40349522Y165274211D01*
X40502262Y165370184D01*
X40629816Y165497738D01*
X40725789Y165650478D01*
X40785368Y165820745D01*
X40805565Y166000000D01*
X40785368Y166179255D01*
X40725789Y166349522D01*
X40725787Y166349525D01*
X40725787Y166349526D01*
X40629817Y166502261D01*
X40629816Y166502263D01*
X40502262Y166629817D01*
X40502260Y166629818D01*
X40349525Y166725788D01*
X40349522Y166725789D01*
X40349522Y166725790D01*
X40179255Y166785368D01*
X40000000Y166805565D01*
X39820745Y166785368D01*
X39820742Y166785368D01*
X39820742Y166785367D01*
X39650477Y166725789D01*
X39650475Y166725788D01*
X39561392Y166669813D01*
X39494356Y166650500D01*
X19505644Y166650500D01*
X19438608Y166669813D01*
X19349524Y166725788D01*
X19349522Y166725789D01*
X19349521Y166725789D01*
X19179255Y166785368D01*
X19000000Y166805565D01*
X18999999Y166805565D01*
X18973926Y166802628D01*
X18820745Y166785368D01*
X18820742Y166785368D01*
X18820742Y166785367D01*
X18650477Y166725789D01*
X18650474Y166725788D01*
X18497739Y166629818D01*
X18497737Y166629817D01*
X18370183Y166502263D01*
X18370182Y166502261D01*
X18274212Y166349526D01*
X18274211Y166349523D01*
X18243046Y166260458D01*
X18214632Y166179255D01*
X18194435Y166000000D01*
X13704675Y166000000D01*
X13735436Y166167858D01*
X13755527Y166500000D01*
X13747674Y166629817D01*
X13735436Y166832140D01*
X13735436Y166832142D01*
X13675456Y167159441D01*
X13576463Y167477123D01*
X13439898Y167780557D01*
X13267754Y168065318D01*
X13267754Y168065319D01*
X13062547Y168327247D01*
X13062535Y168327260D01*
X12827259Y168562536D01*
X12827246Y168562548D01*
X12565317Y168767755D01*
X12280552Y168939901D01*
X12280546Y168939904D01*
X11977127Y169076462D01*
X11659440Y169175457D01*
X11332142Y169235436D01*
X11332139Y169235437D01*
X11000001Y169255527D01*
X10999999Y169255527D01*
X10667860Y169235437D01*
X10667857Y169235436D01*
X10340559Y169175457D01*
X10022872Y169076462D01*
X9719453Y168939904D01*
X9719447Y168939901D01*
X9434682Y168767755D01*
X9172753Y168562548D01*
X9172740Y168562536D01*
X8937464Y168327260D01*
X8937452Y168327247D01*
X8732245Y168065318D01*
X8560099Y167780553D01*
X8560096Y167780547D01*
X8423538Y167477128D01*
X8324543Y167159441D01*
X8264564Y166832143D01*
X8264563Y166832140D01*
X8244472Y166500002D01*
X8244472Y166499999D01*
X650500Y166499999D01*
X650500Y171365081D01*
X650500Y177999999D01*
X21744473Y177999999D01*
X21764563Y177667861D01*
X21764564Y177667858D01*
X21824543Y177340560D01*
X21923538Y177022873D01*
X22060096Y176719454D01*
X22060099Y176719448D01*
X22232245Y176434683D01*
X22437452Y176172754D01*
X22437464Y176172741D01*
X22672740Y175937465D01*
X22672753Y175937453D01*
X22916506Y175746486D01*
X22934682Y175732246D01*
X23219443Y175560102D01*
X23219445Y175560101D01*
X23219447Y175560100D01*
X23219453Y175560097D01*
X23522872Y175423539D01*
X23522873Y175423539D01*
X23522877Y175423537D01*
X23840559Y175324544D01*
X24167858Y175264564D01*
X24383549Y175251517D01*
X24499999Y175244473D01*
X24500000Y175244473D01*
X24500001Y175244473D01*
X24590016Y175249918D01*
X24832142Y175264564D01*
X25159441Y175324544D01*
X25477123Y175423537D01*
X25780557Y175560102D01*
X26065318Y175732246D01*
X26300259Y175916310D01*
X26327246Y175937453D01*
X26327248Y175937455D01*
X26327252Y175937458D01*
X26562542Y176172748D01*
X26767754Y176434682D01*
X26939898Y176719443D01*
X27076463Y177022877D01*
X27175456Y177340559D01*
X27235436Y177667858D01*
X27255018Y177991589D01*
X27255527Y177999999D01*
X27255527Y178000002D01*
X27238940Y178274213D01*
X27235436Y178332142D01*
X27175456Y178659441D01*
X27076463Y178977123D01*
X27022183Y179097728D01*
X26939903Y179280547D01*
X26939900Y179280553D01*
X26898206Y179349523D01*
X26767754Y179565318D01*
X26717223Y179629816D01*
X26562547Y179827247D01*
X26562535Y179827260D01*
X26327259Y180062536D01*
X26327246Y180062548D01*
X26065317Y180267755D01*
X25780552Y180439901D01*
X25780546Y180439904D01*
X25477127Y180576462D01*
X25159440Y180675457D01*
X24832142Y180735436D01*
X24832139Y180735437D01*
X24500001Y180755527D01*
X24499999Y180755527D01*
X24167860Y180735437D01*
X24167857Y180735436D01*
X23840559Y180675457D01*
X23522872Y180576462D01*
X23219453Y180439904D01*
X23219447Y180439901D01*
X22934682Y180267755D01*
X22672753Y180062548D01*
X22672740Y180062536D01*
X22437464Y179827260D01*
X22437452Y179827247D01*
X22232245Y179565318D01*
X22060099Y179280553D01*
X22060096Y179280547D01*
X21923538Y178977128D01*
X21824543Y178659441D01*
X21764564Y178332143D01*
X21764563Y178332140D01*
X21744473Y178000002D01*
X21744473Y177999999D01*
X650500Y177999999D01*
X650500Y182994362D01*
X652123Y182999997D01*
X5494670Y182999997D01*
X5513965Y182705625D01*
X5513968Y182705607D01*
X5571518Y182416280D01*
X5571520Y182416273D01*
X5634187Y182231664D01*
X5666348Y182136923D01*
X5666351Y182136917D01*
X5796826Y181872338D01*
X5960725Y181627045D01*
X5960727Y181627043D01*
X6155242Y181405242D01*
X6377043Y181210727D01*
X6622335Y181046828D01*
X6886923Y180916348D01*
X7166278Y180821519D01*
X7455620Y180763966D01*
X7623837Y180752941D01*
X7749997Y180744671D01*
X7750000Y180744671D01*
X7750003Y180744671D01*
X7860392Y180751907D01*
X8044380Y180763966D01*
X8333722Y180821519D01*
X8613077Y180916348D01*
X8877665Y181046828D01*
X9122957Y181210727D01*
X9344758Y181405242D01*
X9539273Y181627043D01*
X9703172Y181872335D01*
X9833652Y182136923D01*
X9928481Y182416278D01*
X9986034Y182705620D01*
X10005329Y183000000D01*
X9986034Y183294380D01*
X9928481Y183583722D01*
X9833652Y183863077D01*
X9703172Y184127664D01*
X9539273Y184372957D01*
X9344758Y184594758D01*
X9127213Y184785541D01*
X9122955Y184789275D01*
X8877662Y184953174D01*
X8613083Y185083649D01*
X8613077Y185083652D01*
X8518336Y185115813D01*
X8333727Y185178480D01*
X8333720Y185178482D01*
X8044393Y185236032D01*
X8044375Y185236035D01*
X7750003Y185255329D01*
X7749997Y185255329D01*
X7455624Y185236035D01*
X7455606Y185236032D01*
X7166279Y185178482D01*
X7166272Y185178480D01*
X6886923Y185083653D01*
X6622338Y184953174D01*
X6377050Y184789279D01*
X6377043Y184789274D01*
X6377043Y184789273D01*
X6155242Y184594758D01*
X5960721Y184372950D01*
X5796826Y184127662D01*
X5666347Y183863077D01*
X5571520Y183583728D01*
X5571518Y183583721D01*
X5513968Y183294394D01*
X5513965Y183294376D01*
X5494670Y183000004D01*
X5494670Y182999997D01*
X652123Y182999997D01*
X669811Y183061391D01*
X725789Y183150478D01*
X785368Y183320745D01*
X805565Y183500000D01*
X785368Y183679255D01*
X725789Y183849522D01*
X725787Y183849525D01*
X725787Y183849526D01*
X629817Y184002261D01*
X629816Y184002263D01*
X502262Y184129817D01*
X502260Y184129818D01*
X349525Y184225788D01*
X349522Y184225789D01*
X179255Y184285368D01*
X0Y184305565D01*
X-1Y184305565D01*
X-26074Y184302628D01*
X-179255Y184285368D01*
X-179258Y184285368D01*
X-179258Y184285367D01*
X-349523Y184225789D01*
X-349526Y184225788D01*
X-502261Y184129818D01*
X-502263Y184129817D01*
X-629817Y184002263D01*
X-629818Y184002261D01*
X-725788Y183849526D01*
X-725789Y183849523D01*
X-725789Y183849522D01*
X-785368Y183679255D01*
X-805565Y183500000D01*
X-5554866Y183500000D01*
X-5571519Y183583722D01*
X-5666348Y183863077D01*
X-5796828Y184127664D01*
X-5960727Y184372957D01*
X-6155242Y184594758D01*
X-6372787Y184785541D01*
X-6377045Y184789275D01*
X-6622338Y184953174D01*
X-6886917Y185083649D01*
X-6886923Y185083652D01*
X-6981664Y185115813D01*
X-7166273Y185178480D01*
X-7166280Y185178482D01*
X-7455607Y185236032D01*
X-7455625Y185236035D01*
X-7749997Y185255329D01*
X-7750003Y185255329D01*
X-8044376Y185236035D01*
X-8044394Y185236032D01*
X-8333721Y185178482D01*
X-8333728Y185178480D01*
X-8613077Y185083653D01*
X-8877662Y184953174D01*
X-9122950Y184789279D01*
X-9122957Y184789274D01*
X-9122957Y184789273D01*
X-9344758Y184594759D01*
X-9344758Y184594758D01*
X-9539279Y184372950D01*
X-9703174Y184127662D01*
X-9833653Y183863077D01*
X-9928480Y183583728D01*
X-9928482Y183583721D01*
X-9986032Y183294394D01*
X-9986035Y183294376D01*
X-10005330Y183000004D01*
X-10005330Y182999997D01*
X-44580058Y182999997D01*
X-37402272Y190177784D01*
X-37339962Y190211808D01*
X-37327284Y190213895D01*
X-37323801Y190214288D01*
X-37320745Y190214632D01*
X-37150478Y190274211D01*
X-36997738Y190370184D01*
X-36870184Y190497738D01*
X-36774211Y190650478D01*
X-36714632Y190820745D01*
X-36694435Y191000000D01*
X-36714632Y191179255D01*
X-36774211Y191349522D01*
X-36774213Y191349525D01*
X-36774213Y191349526D01*
X-36870183Y191502261D01*
X-36870184Y191502263D01*
X-36997738Y191629817D01*
X-36997740Y191629818D01*
X-37150475Y191725788D01*
X-37150478Y191725789D01*
X-37168931Y191732246D01*
X-37320745Y191785368D01*
X-37500000Y191805565D01*
X-37500001Y191805565D01*
X-37526074Y191802628D01*
X-37679255Y191785368D01*
X-37679258Y191785368D01*
X-37679258Y191785367D01*
X-37849523Y191725789D01*
X-37849526Y191725788D01*
X-38002261Y191629818D01*
X-38002263Y191629817D01*
X-38129817Y191502263D01*
X-38129818Y191502261D01*
X-38225788Y191349526D01*
X-38225789Y191349523D01*
X-38285367Y191179262D01*
X-38285369Y191179251D01*
X-38286106Y191172709D01*
X-38313614Y191107258D01*
X-38322218Y191097730D01*
X-47683925Y181736023D01*
X-47746237Y181701997D01*
X-47817052Y181707062D01*
X-47873888Y181749609D01*
X-47898699Y181816129D01*
X-47899020Y181825118D01*
X-47899020Y182128845D01*
X-47879018Y182196966D01*
X-47862120Y182217935D01*
X-39902272Y190177784D01*
X-39839962Y190211808D01*
X-39827284Y190213895D01*
X-39823801Y190214288D01*
X-39820745Y190214632D01*
X-39650478Y190274211D01*
X-39497738Y190370184D01*
X-39370184Y190497738D01*
X-39274211Y190650478D01*
X-39214632Y190820745D01*
X-39194435Y191000000D01*
X-39214632Y191179255D01*
X-39274211Y191349522D01*
X-39274213Y191349525D01*
X-39274213Y191349526D01*
X-39370183Y191502261D01*
X-39370184Y191502263D01*
X-39497738Y191629817D01*
X-39497740Y191629818D01*
X-39650475Y191725788D01*
X-39650478Y191725789D01*
X-39668931Y191732246D01*
X-39820745Y191785368D01*
X-40000000Y191805565D01*
X-40179255Y191785368D01*
X-40179258Y191785368D01*
X-40179258Y191785367D01*
X-40349523Y191725789D01*
X-40349526Y191725788D01*
X-40502261Y191629818D01*
X-40502263Y191629817D01*
X-40629817Y191502263D01*
X-40629818Y191502261D01*
X-40725788Y191349526D01*
X-40725789Y191349523D01*
X-40785367Y191179262D01*
X-40785369Y191179251D01*
X-40786106Y191172709D01*
X-40813614Y191107258D01*
X-40822218Y191097730D01*
X-48634405Y183285542D01*
X-48696717Y183251516D01*
X-48767532Y183256581D01*
X-48824368Y183299128D01*
X-48849179Y183365648D01*
X-48849500Y183374637D01*
X-48849500Y183678365D01*
X-48829498Y183746486D01*
X-48812600Y183767455D01*
X-42402272Y190177784D01*
X-42339962Y190211808D01*
X-42327284Y190213895D01*
X-42323801Y190214288D01*
X-42320745Y190214632D01*
X-42150478Y190274211D01*
X-41997738Y190370184D01*
X-41870184Y190497738D01*
X-41774211Y190650478D01*
X-41714632Y190820745D01*
X-41694435Y191000000D01*
X-41714632Y191179255D01*
X-41774211Y191349522D01*
X-41774213Y191349525D01*
X-41774213Y191349526D01*
X-41870183Y191502261D01*
X-41870184Y191502263D01*
X-41997738Y191629817D01*
X-41997740Y191629818D01*
X-42150475Y191725788D01*
X-42150478Y191725789D01*
X-42168931Y191732246D01*
X-42320745Y191785368D01*
X-42500000Y191805565D01*
X-42500001Y191805565D01*
X-42526074Y191802628D01*
X-42679255Y191785368D01*
X-42679258Y191785368D01*
X-42679258Y191785367D01*
X-42849523Y191725789D01*
X-42849526Y191725788D01*
X-43002261Y191629818D01*
X-43002263Y191629817D01*
X-43129817Y191502263D01*
X-43129818Y191502261D01*
X-43225788Y191349526D01*
X-43225789Y191349523D01*
X-43285367Y191179262D01*
X-43285369Y191179251D01*
X-43286106Y191172709D01*
X-43313614Y191107258D01*
X-43322218Y191097730D01*
X-49634405Y184785542D01*
X-49696717Y184751516D01*
X-49767532Y184756581D01*
X-49824368Y184799128D01*
X-49849179Y184865648D01*
X-49849500Y184874637D01*
X-49849500Y185178365D01*
X-49829498Y185246486D01*
X-49812595Y185267460D01*
X-48614694Y186465361D01*
X-44902272Y190177784D01*
X-44839962Y190211808D01*
X-44827284Y190213895D01*
X-44823801Y190214288D01*
X-44820745Y190214632D01*
X-44650478Y190274211D01*
X-44497738Y190370184D01*
X-44370184Y190497738D01*
X-44274211Y190650478D01*
X-44214632Y190820745D01*
X-44194435Y191000000D01*
X-44214632Y191179255D01*
X-44274211Y191349522D01*
X-44274213Y191349525D01*
X-44274213Y191349526D01*
X-44370183Y191502261D01*
X-44370184Y191502263D01*
X-44497738Y191629817D01*
X-44497740Y191629818D01*
X-44650475Y191725788D01*
X-44650478Y191725789D01*
X-44668931Y191732246D01*
X-44820745Y191785368D01*
X-45000000Y191805565D01*
X-45179255Y191785368D01*
X-45179258Y191785368D01*
X-45179258Y191785367D01*
X-45349523Y191725789D01*
X-45349526Y191725788D01*
X-45502261Y191629818D01*
X-45502263Y191629817D01*
X-45629817Y191502263D01*
X-45629818Y191502261D01*
X-45725788Y191349526D01*
X-45725789Y191349523D01*
X-45785367Y191179262D01*
X-45785369Y191179251D01*
X-45786106Y191172709D01*
X-45813614Y191107258D01*
X-45822218Y191097730D01*
X-50899359Y186020589D01*
X-50912004Y186010455D01*
X-50911836Y186010252D01*
X-50917937Y186005206D01*
X-50966513Y185953479D01*
X-50967887Y185952061D01*
X-50988907Y185931040D01*
X-50988914Y185931033D01*
X-50993380Y185925276D01*
X-50997228Y185920771D01*
X-51030449Y185885393D01*
X-51040595Y185866936D01*
X-51051447Y185850416D01*
X-51064358Y185833771D01*
X-51064363Y185833762D01*
X-51083633Y185789234D01*
X-51086245Y185783903D01*
X-51109627Y185741370D01*
X-51114870Y185720951D01*
X-51121271Y185702256D01*
X-51129636Y185682926D01*
X-51129638Y185682919D01*
X-51137227Y185635000D01*
X-51138431Y185629186D01*
X-51150500Y185582178D01*
X-51150500Y185561116D01*
X-51152051Y185541406D01*
X-51155347Y185520596D01*
X-51155347Y185520595D01*
X-51150780Y185472280D01*
X-51150500Y185466348D01*
X-51150500Y157085726D01*
X-51152278Y157069621D01*
X-51152014Y157069596D01*
X-51152760Y157061705D01*
X-51150531Y156990781D01*
X-51150500Y156988802D01*
X-51150500Y156959082D01*
X-51150499Y156959062D01*
X-51149588Y156951845D01*
X-51149122Y156945932D01*
X-51147598Y156897433D01*
X-51147597Y156897430D01*
X-51141720Y156877198D01*
X-51137713Y156857847D01*
X-51135073Y156836949D01*
X-51135069Y156836936D01*
X-51117208Y156791823D01*
X-51115285Y156786207D01*
X-51101745Y156739603D01*
X-51101744Y156739601D01*
X-51091021Y156721469D01*
X-51082324Y156703716D01*
X-51074572Y156684136D01*
X-51074568Y156684129D01*
X-51046052Y156644878D01*
X-51042793Y156639918D01*
X-51018082Y156598136D01*
X-51018079Y156598132D01*
X-51003188Y156583241D01*
X-50990348Y156568208D01*
X-50977966Y156551167D01*
X-50977963Y156551163D01*
X-50973227Y156547245D01*
X-50940569Y156520228D01*
X-50936188Y156516242D01*
X-47114581Y152694635D01*
X-45687405Y151267459D01*
X-45653379Y151205147D01*
X-45650500Y151178364D01*
X-45650500Y149321636D01*
X-45670502Y149253515D01*
X-45687405Y149232541D01*
X-49232541Y145687405D01*
X-49294853Y145653379D01*
X-49321636Y145650500D01*
X-51914275Y145650500D01*
X-51930381Y145652278D01*
X-51930405Y145652014D01*
X-51938297Y145652760D01*
X-52009220Y145650531D01*
X-52011199Y145650500D01*
X-52040925Y145650500D01*
X-52040931Y145650500D01*
X-52040937Y145650499D01*
X-52048157Y145649587D01*
X-52054069Y145649122D01*
X-52102566Y145647598D01*
X-52102571Y145647597D01*
X-52122801Y145641720D01*
X-52142153Y145637713D01*
X-52163054Y145635073D01*
X-52163059Y145635071D01*
X-52208183Y145617207D01*
X-52213797Y145615285D01*
X-52260398Y145601745D01*
X-52260403Y145601743D01*
X-52278542Y145591016D01*
X-52296286Y145582323D01*
X-52315870Y145574569D01*
X-52355136Y145546042D01*
X-52360096Y145542784D01*
X-52401866Y145518081D01*
X-52416761Y145503186D01*
X-52431788Y145490352D01*
X-52448834Y145477967D01*
X-52448837Y145477964D01*
X-52479779Y145440563D01*
X-52483775Y145436172D01*
X-54097730Y143822218D01*
X-54160042Y143788192D01*
X-54172709Y143786106D01*
X-54179251Y143785369D01*
X-54179262Y143785367D01*
X-54349523Y143725789D01*
X-54349526Y143725788D01*
X-54502261Y143629818D01*
X-54502263Y143629817D01*
X-54629817Y143502263D01*
X-54629818Y143502261D01*
X-54725788Y143349526D01*
X-54725789Y143349523D01*
X-54782957Y143186146D01*
X-54785368Y143179255D01*
X-54805565Y143000000D01*
X-54785368Y142820745D01*
X-54785367Y142820743D01*
X-54725790Y142650479D01*
X-54711533Y142627790D01*
X-54669813Y142561392D01*
X-54650500Y142494358D01*
X-54650500Y77505644D01*
X-54669813Y77438608D01*
X-54725788Y77349525D01*
X-54725789Y77349523D01*
X-54725789Y77349522D01*
X-54785368Y77179255D01*
X-54805565Y77000000D01*
X-54785368Y76820745D01*
X-54785367Y76820743D01*
X-54725789Y76650478D01*
X-54725788Y76650475D01*
X-54629818Y76497740D01*
X-54629817Y76497738D01*
X-54502263Y76370184D01*
X-54502261Y76370183D01*
X-54349526Y76274213D01*
X-54349525Y76274213D01*
X-54349522Y76274211D01*
X-54179255Y76214632D01*
X-54000000Y76194435D01*
X-53820745Y76214632D01*
X-53650478Y76274211D01*
X-53497738Y76370184D01*
X-53370184Y76497738D01*
X-53274211Y76650478D01*
X-53214632Y76820745D01*
X-53194435Y77000000D01*
X-53214632Y77179255D01*
X-53274211Y77349522D01*
X-53330187Y77438608D01*
X-53349500Y77505644D01*
X-53349500Y142494358D01*
X-53330188Y142561392D01*
X-53274211Y142650478D01*
X-53214632Y142820745D01*
X-53213896Y142827284D01*
X-53186393Y142892737D01*
X-53177801Y142902255D01*
X-51767457Y144312598D01*
X-51705147Y144346621D01*
X-51678364Y144349500D01*
X-51374637Y144349500D01*
X-51306516Y144329498D01*
X-51260023Y144275842D01*
X-51249919Y144205568D01*
X-51279413Y144140988D01*
X-51285542Y144134404D01*
X-51597731Y143822217D01*
X-51660043Y143788192D01*
X-51672709Y143786106D01*
X-51679252Y143785369D01*
X-51679262Y143785367D01*
X-51849523Y143725789D01*
X-51849526Y143725788D01*
X-52002261Y143629818D01*
X-52002263Y143629817D01*
X-52129817Y143502263D01*
X-52129818Y143502261D01*
X-52225788Y143349526D01*
X-52225789Y143349523D01*
X-52282957Y143186146D01*
X-52285368Y143179255D01*
X-52305565Y143000000D01*
X-52285368Y142820745D01*
X-52285367Y142820743D01*
X-52225790Y142650479D01*
X-52211533Y142627790D01*
X-52169813Y142561392D01*
X-52150500Y142494358D01*
X-52150500Y77505644D01*
X-52169813Y77438608D01*
X-52225788Y77349525D01*
X-52225789Y77349523D01*
X-52225789Y77349522D01*
X-52285368Y77179255D01*
X-52305565Y77000000D01*
X-52285368Y76820745D01*
X-52285367Y76820743D01*
X-52225789Y76650478D01*
X-52225788Y76650475D01*
X-52129818Y76497740D01*
X-52129817Y76497738D01*
X-52002263Y76370184D01*
X-52002261Y76370183D01*
X-51849526Y76274213D01*
X-51849525Y76274213D01*
X-51849522Y76274211D01*
X-51679255Y76214632D01*
X-51500000Y76194435D01*
X-51320745Y76214632D01*
X-51150478Y76274211D01*
X-50997738Y76370184D01*
X-50870184Y76497738D01*
X-50774211Y76650478D01*
X-50714632Y76820745D01*
X-50694435Y77000000D01*
X-50714632Y77179255D01*
X-50774211Y77349522D01*
X-50830187Y77438608D01*
X-50849500Y77505644D01*
X-50849500Y142494358D01*
X-50830188Y142561392D01*
X-50774211Y142650478D01*
X-50714632Y142820745D01*
X-50713897Y142827278D01*
X-50686399Y142892730D01*
X-50677793Y142902263D01*
X-50267459Y143312596D01*
X-50205146Y143346621D01*
X-50178363Y143349500D01*
X-49903377Y143349500D01*
X-49835256Y143329498D01*
X-49788763Y143275842D01*
X-49778659Y143205568D01*
X-49784446Y143181889D01*
X-49785369Y143179252D01*
X-49805565Y143000001D01*
X-49805565Y143000000D01*
X-49785368Y142820745D01*
X-49785367Y142820743D01*
X-49725790Y142650479D01*
X-49711533Y142627790D01*
X-49669813Y142561392D01*
X-49650500Y142494358D01*
X-49650500Y77505644D01*
X-49669813Y77438608D01*
X-49725788Y77349525D01*
X-49725789Y77349523D01*
X-49725789Y77349522D01*
X-49785368Y77179255D01*
X-49805565Y77000000D01*
X-49785368Y76820745D01*
X-49785367Y76820743D01*
X-49725789Y76650478D01*
X-49725788Y76650475D01*
X-49629818Y76497740D01*
X-49629817Y76497738D01*
X-49502263Y76370184D01*
X-49502261Y76370183D01*
X-49349526Y76274213D01*
X-49349525Y76274213D01*
X-49349522Y76274211D01*
X-49179255Y76214632D01*
X-49000000Y76194435D01*
X-48820745Y76214632D01*
X-48650478Y76274211D01*
X-48497738Y76370184D01*
X-48370184Y76497738D01*
X-48274211Y76650478D01*
X-48214632Y76820745D01*
X-48194435Y77000000D01*
X-48214632Y77179255D01*
X-48274211Y77349522D01*
X-48330187Y77438608D01*
X-48349500Y77505644D01*
X-48349500Y142223500D01*
X-48329498Y142291621D01*
X-48275842Y142338114D01*
X-48223500Y142349500D01*
X-48085726Y142349500D01*
X-48069621Y142347723D01*
X-48069596Y142347986D01*
X-48061712Y142347242D01*
X-48061704Y142347240D01*
X-47995493Y142349322D01*
X-47990781Y142349469D01*
X-47988802Y142349500D01*
X-47959078Y142349500D01*
X-47959075Y142349500D01*
X-47951834Y142350416D01*
X-47945949Y142350879D01*
X-47897431Y142352403D01*
X-47880327Y142357373D01*
X-47877206Y142358279D01*
X-47857850Y142362289D01*
X-47836942Y142364929D01*
X-47791813Y142382798D01*
X-47786212Y142384716D01*
X-47756811Y142393257D01*
X-47739604Y142398255D01*
X-47739602Y142398256D01*
X-47721471Y142408980D01*
X-47703715Y142417679D01*
X-47684129Y142425432D01*
X-47644872Y142453955D01*
X-47639911Y142457213D01*
X-47636201Y142459407D01*
X-47598135Y142481919D01*
X-47583238Y142496817D01*
X-47568204Y142509658D01*
X-47551163Y142522037D01*
X-47520220Y142559442D01*
X-47516252Y142563804D01*
X-47416147Y142663909D01*
X-47353837Y142697933D01*
X-47283022Y142692868D01*
X-47226186Y142650321D01*
X-47220368Y142641849D01*
X-47169814Y142561395D01*
X-47150500Y142494358D01*
X-47150500Y137505644D01*
X-47169813Y137438608D01*
X-47225788Y137349525D01*
X-47225789Y137349523D01*
X-47225789Y137349522D01*
X-47285368Y137179255D01*
X-47305565Y137000000D01*
X-47285368Y136820745D01*
X-47285367Y136820743D01*
X-47225790Y136650479D01*
X-47225789Y136650478D01*
X-47169813Y136561392D01*
X-47150500Y136494358D01*
X-47150500Y77505644D01*
X-47169813Y77438608D01*
X-47225788Y77349525D01*
X-47225789Y77349523D01*
X-47225789Y77349522D01*
X-47285368Y77179255D01*
X-47305565Y77000000D01*
X-47285368Y76820745D01*
X-47285367Y76820743D01*
X-47225789Y76650478D01*
X-47225788Y76650475D01*
X-47129818Y76497740D01*
X-47129817Y76497738D01*
X-47002263Y76370184D01*
X-47002261Y76370183D01*
X-46849526Y76274213D01*
X-46849525Y76274213D01*
X-46849522Y76274211D01*
X-46679255Y76214632D01*
X-46500000Y76194435D01*
X-46320745Y76214632D01*
X-46150478Y76274211D01*
X-45997738Y76370184D01*
X-45945702Y76422220D01*
X-45865595Y76502326D01*
X-45803283Y76536352D01*
X-45732468Y76531287D01*
X-45675632Y76488740D01*
X-45650821Y76422220D01*
X-45650500Y76413231D01*
X-45650500Y72586769D01*
X-45670502Y72518648D01*
X-45724158Y72472155D01*
X-45794432Y72462051D01*
X-45859012Y72491545D01*
X-45865595Y72497674D01*
X-45997738Y72629817D01*
X-45997740Y72629818D01*
X-46150475Y72725788D01*
X-46150478Y72725789D01*
X-46320745Y72785368D01*
X-46500000Y72805565D01*
X-46679255Y72785368D01*
X-46679258Y72785368D01*
X-46679258Y72785367D01*
X-46849523Y72725789D01*
X-46849526Y72725788D01*
X-47002261Y72629818D01*
X-47002263Y72629817D01*
X-47129817Y72502263D01*
X-47129818Y72502261D01*
X-47225788Y72349526D01*
X-47225789Y72349523D01*
X-47225789Y72349522D01*
X-47285368Y72179255D01*
X-47305565Y72000000D01*
X-47285368Y71820745D01*
X-47285367Y71820743D01*
X-47225790Y71650479D01*
X-47225789Y71650478D01*
X-47169813Y71561392D01*
X-47150500Y71494358D01*
X-47150500Y71071636D01*
X-47170502Y71003515D01*
X-47187405Y70982541D01*
X-65982541Y52187405D01*
X-66044853Y52153379D01*
X-66071636Y52150500D01*
X-70494356Y52150500D01*
X-70561392Y52169813D01*
X-70650476Y52225788D01*
X-70650478Y52225789D01*
X-70820745Y52285368D01*
X-71000000Y52305565D01*
X-71179255Y52285368D01*
X-71179258Y52285368D01*
X-71179258Y52285367D01*
X-71349523Y52225789D01*
X-71349526Y52225788D01*
X-71502261Y52129818D01*
X-71502263Y52129817D01*
X-71629817Y52002263D01*
X-71629818Y52002261D01*
X-71725788Y51849526D01*
X-71725789Y51849523D01*
X-71725789Y51849522D01*
X-71785368Y51679255D01*
X-71805565Y51500000D01*
X-71785368Y51320745D01*
X-71785367Y51320743D01*
X-71725789Y51150478D01*
X-71725788Y51150475D01*
X-71629818Y50997740D01*
X-71629817Y50997738D01*
X-71502263Y50870184D01*
X-71502261Y50870183D01*
X-71349526Y50774213D01*
X-71349525Y50774213D01*
X-71349522Y50774211D01*
X-71179255Y50714632D01*
X-71000000Y50694435D01*
X-70820745Y50714632D01*
X-70650478Y50774211D01*
X-70562489Y50829498D01*
X-70561392Y50830187D01*
X-70494356Y50849500D01*
X-66374636Y50849500D01*
X-66306515Y50829498D01*
X-66260022Y50775842D01*
X-66249918Y50705568D01*
X-66279412Y50640988D01*
X-66285541Y50634405D01*
X-66732541Y50187405D01*
X-66794853Y50153379D01*
X-66821636Y50150500D01*
X-78994356Y50150500D01*
X-79061392Y50169813D01*
X-79150476Y50225788D01*
X-79150478Y50225789D01*
X-79150479Y50225790D01*
X-79320745Y50285368D01*
X-79500000Y50305565D01*
X-79500001Y50305565D01*
X-79526074Y50302628D01*
X-79679255Y50285368D01*
X-79679258Y50285368D01*
X-79679258Y50285367D01*
X-79849523Y50225789D01*
X-79849526Y50225788D01*
X-80002261Y50129818D01*
X-80002263Y50129817D01*
X-80129817Y50002263D01*
X-80129818Y50002261D01*
X-80225788Y49849526D01*
X-80225789Y49849523D01*
X-80225789Y49849522D01*
X-80285368Y49679255D01*
X-80305565Y49500000D01*
X-96644758Y49500000D01*
X-95847041Y51027288D01*
X-95844572Y51031589D01*
X-94375146Y53372623D01*
X-94372509Y53376496D01*
X-92680265Y55671862D01*
X-92676880Y55676063D01*
X-92667075Y55687219D01*
X-90804856Y57806182D01*
X-90800167Y57810976D01*
X-88790857Y59657262D01*
X-88785319Y59661797D01*
X-86638367Y61224876D01*
X-86632087Y61228900D01*
X-86017273Y61573379D01*
X-84347301Y62509057D01*
X-84340504Y62512345D01*
X-81917577Y63509794D01*
X-81910537Y63512216D01*
X-79349131Y64227049D01*
X-79342159Y64228575D01*
X-76641920Y64660766D01*
X-76635295Y64661468D01*
X-73792494Y64811059D01*
X-70905832Y64906042D01*
X-70902577Y64905930D01*
X-70900954Y64906083D01*
X-70897061Y64906331D01*
X-70895424Y64906385D01*
X-70892207Y64906912D01*
X-68057459Y65175347D01*
X-68054167Y65175437D01*
X-68052705Y65175669D01*
X-68048701Y65176175D01*
X-68047206Y65176316D01*
X-68043988Y65177050D01*
X-65254670Y65619144D01*
X-65251379Y65619443D01*
X-65249952Y65619763D01*
X-65245993Y65620520D01*
X-65244529Y65620752D01*
X-65241354Y65621693D01*
X-62497481Y66237440D01*
X-62494197Y66237950D01*
X-62492813Y66238354D01*
X-62488902Y66239364D01*
X-62487480Y66239683D01*
X-62484353Y66240829D01*
X-61841406Y66428917D01*
X-59785889Y67030235D01*
X-59782656Y67030950D01*
X-59781307Y67031440D01*
X-59777428Y67032709D01*
X-59776052Y67033111D01*
X-59773014Y67034450D01*
X-57119889Y67997536D01*
X-57116725Y67998450D01*
X-57115352Y67999049D01*
X-57111615Y68000540D01*
X-57110218Y68001047D01*
X-57107295Y68002560D01*
X-55960970Y68502262D01*
X-54499547Y69139320D01*
X-54496466Y69140421D01*
X-54495046Y69141148D01*
X-54491465Y69142843D01*
X-54489994Y69143484D01*
X-54487192Y69145166D01*
X-51930369Y70452764D01*
X-51927374Y70453987D01*
X-51920542Y70457729D01*
X-51920539Y70457729D01*
X-51919592Y70458248D01*
X-51918096Y70459040D01*
X-51917107Y70459545D01*
X-51917106Y70459547D01*
X-51915087Y70460579D01*
X-51914895Y70460819D01*
X-51914892Y70460820D01*
X-51914892Y70460823D01*
X-51913577Y70462456D01*
X-51912187Y70466755D01*
X-51912674Y70471249D01*
X-51914733Y70475277D01*
X-51916623Y70476798D01*
X-51916625Y70476799D01*
X-51918257Y70478112D01*
X-51920542Y70478852D01*
X-51923916Y70478487D01*
X-51925609Y70478328D01*
X-51934263Y70477630D01*
X-51937374Y70477029D01*
X-57183944Y69908419D01*
X-57190427Y69908053D01*
X-57255547Y69907732D01*
X-62027237Y69884268D01*
X-62034941Y69884702D01*
X-66448150Y70405744D01*
X-66465843Y70409130D01*
X-66669717Y70463497D01*
X-67859129Y70780678D01*
X-70455358Y71473015D01*
X-70474583Y71479851D01*
X-74045499Y73086192D01*
X-74064746Y73096967D01*
X-74064749Y73096969D01*
X-77218987Y75245692D01*
X-77236355Y75259949D01*
X-79975831Y77952087D01*
X-79989843Y77968438D01*
X-82319337Y81210908D01*
X-82323243Y81217068D01*
X-84287812Y84753512D01*
X-84289943Y84757713D01*
X-85931563Y88322819D01*
X-85933479Y88327462D01*
X-85933481Y88327467D01*
X-87251441Y91919817D01*
X-87253036Y91924802D01*
X-88246316Y95540399D01*
X-88247437Y95544478D01*
X-88248645Y95549760D01*
X-88919562Y99196856D01*
X-88920322Y99202326D01*
X-89024077Y100299523D01*
X-89267813Y102876991D01*
X-89268090Y102882501D01*
X-89268891Y103005645D01*
X-89292172Y106584878D01*
X-89291971Y106590312D01*
X-88992614Y110320626D01*
X-88991998Y110325692D01*
X-88388346Y114013863D01*
X-88387313Y114018882D01*
X-87988122Y115624996D01*
X-87498594Y117594575D01*
X-87497121Y117599593D01*
X-87496645Y117600996D01*
X-86323363Y121062796D01*
X-86321480Y121067669D01*
X-84862640Y124418533D01*
X-84860353Y124423240D01*
X-83116388Y127661858D01*
X-83113773Y127666271D01*
X-83109403Y127673003D01*
X-81084601Y130792728D01*
X-81081739Y130796779D01*
X-78767230Y133811189D01*
X-78764217Y133814820D01*
X-76164629Y136716807D01*
X-76160961Y136720571D01*
X-73311882Y139406153D01*
X-73307204Y139410148D01*
X-70243712Y141776004D01*
X-70238584Y141779571D01*
X-66960235Y143826129D01*
X-66954812Y143829154D01*
X-63461388Y145556533D01*
X-63455843Y145558950D01*
X-59747178Y146967175D01*
X-59741680Y146968977D01*
X-55817574Y148058034D01*
X-55812269Y148059261D01*
X-51672539Y148829090D01*
X-51667559Y148829809D01*
X-47321492Y149279339D01*
X-47309135Y149279520D01*
X-47306973Y149280236D01*
X-47306970Y149280235D01*
X-47306969Y149280237D01*
X-47303123Y149281508D01*
X-47303056Y149281554D01*
X-47300292Y149284399D01*
X-47298839Y149288060D01*
X-47298556Y149289603D01*
X-47298614Y149293585D01*
X-47300174Y149297199D01*
X-47300253Y149297313D01*
X-47305133Y149301279D01*
X-47316600Y149305833D01*
X-50533244Y150924519D01*
X-50538385Y150927416D01*
X-52813296Y152353288D01*
X-53351501Y152690625D01*
X-53357173Y152694632D01*
X-55758720Y154597898D01*
X-55764722Y154603316D01*
X-57751871Y156643051D01*
X-57763690Y156657099D01*
X-59233180Y158687405D01*
X-59337799Y158831951D01*
X-59348257Y158849141D01*
X-59985708Y160114634D01*
X-60513528Y161162484D01*
X-60521387Y161181987D01*
X-60581910Y161377963D01*
X-61278976Y163635112D01*
X-61283453Y163655431D01*
X-61283454Y163655437D01*
X-61634653Y166256514D01*
X-61635202Y166263571D01*
X-61690988Y168876039D01*
X-61690919Y168880618D01*
X-61629364Y170077807D01*
X-61563511Y171358583D01*
X-61563048Y171363615D01*
X-61562853Y171365080D01*
X-61252538Y173705307D01*
X-61251564Y173710780D01*
X-61250895Y173713769D01*
X-60758082Y175916310D01*
X-60756494Y175922097D01*
X-60080161Y177991605D01*
X-60077860Y177997592D01*
X-59218757Y179931263D01*
X-59215709Y179937242D01*
X-58356395Y181420277D01*
X-58173847Y181735322D01*
X-58170065Y181741097D01*
X-56944745Y183404690D01*
X-56941551Y183408676D01*
X-55586333Y184966449D01*
X-55584115Y184968866D01*
X-54154037Y186447785D01*
X-54151715Y186450062D01*
X-52647506Y187849298D01*
X-52645057Y187851459D01*
X-51066661Y189171063D01*
X-51064129Y189173070D01*
X-49411527Y190413048D01*
X-49408886Y190414925D01*
X-47682098Y191575258D01*
X-47679434Y191576952D01*
X-45878361Y192657695D01*
X-45875689Y192659209D01*
X-44000424Y193660295D01*
X-43997557Y193661732D01*
X-43276734Y193999999D01*
X-32755527Y193999999D01*
X-32735437Y193667861D01*
X-32735436Y193667858D01*
X-32675457Y193340560D01*
X-32576462Y193022873D01*
X-32439904Y192719454D01*
X-32439901Y192719448D01*
X-32267755Y192434683D01*
X-32062548Y192172754D01*
X-32062536Y192172741D01*
X-31827260Y191937465D01*
X-31827247Y191937453D01*
X-31633122Y191785367D01*
X-31565318Y191732246D01*
X-31280557Y191560102D01*
X-31280555Y191560101D01*
X-31280553Y191560100D01*
X-31280547Y191560097D01*
X-30977128Y191423539D01*
X-30977127Y191423539D01*
X-30977123Y191423537D01*
X-30659441Y191324544D01*
X-30332142Y191264564D01*
X-30110714Y191251170D01*
X-30000001Y191244473D01*
X-30000000Y191244473D01*
X-29999999Y191244473D01*
X-29916965Y191249496D01*
X-29667858Y191264564D01*
X-29340559Y191324544D01*
X-29022877Y191423537D01*
X-28719443Y191560102D01*
X-28434682Y191732246D01*
X-28172748Y191937458D01*
X-27937458Y192172748D01*
X-27732246Y192434682D01*
X-27560102Y192719443D01*
X-27423537Y193022877D01*
X-27324544Y193340559D01*
X-27264564Y193667858D01*
X-27244473Y193999999D01*
X27244473Y193999999D01*
X27264563Y193667861D01*
X27264564Y193667858D01*
X27324543Y193340560D01*
X27423538Y193022873D01*
X27560096Y192719454D01*
X27560099Y192719448D01*
X27732245Y192434683D01*
X27937452Y192172754D01*
X27937464Y192172741D01*
X28172740Y191937465D01*
X28172753Y191937453D01*
X28366878Y191785367D01*
X28434682Y191732246D01*
X28719443Y191560102D01*
X28719445Y191560101D01*
X28719447Y191560100D01*
X28719453Y191560097D01*
X29022872Y191423539D01*
X29022873Y191423539D01*
X29022877Y191423537D01*
X29340559Y191324544D01*
X29667858Y191264564D01*
X29889286Y191251170D01*
X29999999Y191244473D01*
X30000000Y191244473D01*
X30000001Y191244473D01*
X30083035Y191249496D01*
X30332142Y191264564D01*
X30659441Y191324544D01*
X30977123Y191423537D01*
X31280557Y191560102D01*
X31565318Y191732246D01*
X31827252Y191937458D01*
X32062542Y192172748D01*
X32267754Y192434682D01*
X32439898Y192719443D01*
X32576463Y193022877D01*
X32675456Y193340559D01*
X32735436Y193667858D01*
X32755527Y194000000D01*
X32735436Y194332142D01*
X32675456Y194659441D01*
X32576463Y194977123D01*
X32439898Y195280557D01*
X32267754Y195565318D01*
X32267754Y195565319D01*
X32062547Y195827247D01*
X32062535Y195827260D01*
X31827259Y196062536D01*
X31827246Y196062548D01*
X31565317Y196267755D01*
X31280552Y196439901D01*
X31280546Y196439904D01*
X30977127Y196576462D01*
X30659440Y196675457D01*
X30332142Y196735436D01*
X30332139Y196735437D01*
X30000001Y196755527D01*
X29999999Y196755527D01*
X29667860Y196735437D01*
X29667857Y196735436D01*
X29340559Y196675457D01*
X29022872Y196576462D01*
X28719453Y196439904D01*
X28719447Y196439901D01*
X28434682Y196267755D01*
X28172753Y196062548D01*
X28172740Y196062536D01*
X27937464Y195827260D01*
X27937452Y195827247D01*
X27732245Y195565318D01*
X27560099Y195280553D01*
X27560096Y195280547D01*
X27423538Y194977128D01*
X27324543Y194659441D01*
X27264564Y194332143D01*
X27264563Y194332140D01*
X27244473Y194000002D01*
X27244473Y193999999D01*
X-27244473Y193999999D01*
X-27244473Y194000000D01*
X-27264564Y194332142D01*
X-27324544Y194659441D01*
X-27423537Y194977123D01*
X-27560102Y195280557D01*
X-27732246Y195565318D01*
X-27732247Y195565319D01*
X-27937453Y195827247D01*
X-27937465Y195827260D01*
X-28172741Y196062536D01*
X-28172754Y196062548D01*
X-28434683Y196267755D01*
X-28719448Y196439901D01*
X-28719454Y196439904D01*
X-29022873Y196576462D01*
X-29340560Y196675457D01*
X-29667858Y196735436D01*
X-29667861Y196735437D01*
X-29999999Y196755527D01*
X-30000001Y196755527D01*
X-30332140Y196735437D01*
X-30332143Y196735436D01*
X-30659441Y196675457D01*
X-30977128Y196576462D01*
X-31280547Y196439904D01*
X-31280553Y196439901D01*
X-31565318Y196267755D01*
X-31827247Y196062548D01*
X-31827260Y196062536D01*
X-32062536Y195827260D01*
X-32062548Y195827247D01*
X-32267755Y195565318D01*
X-32439901Y195280553D01*
X-32439904Y195280547D01*
X-32576462Y194977128D01*
X-32675457Y194659441D01*
X-32735436Y194332143D01*
X-32735437Y194332140D01*
X-32755527Y194000002D01*
X-32755527Y193999999D01*
X-43276734Y193999999D01*
X-42027372Y194586298D01*
X-42024439Y194587584D01*
X-39938216Y195438936D01*
X-39935465Y195439983D01*
X-38089601Y196092166D01*
X-37733111Y196218120D01*
X-37730458Y196218993D01*
X-35412023Y196923864D01*
X-35409554Y196924560D01*
X-32974971Y197556157D01*
X-32972692Y197556702D01*
X-30421930Y198115002D01*
X-30419748Y198115438D01*
X-29882873Y198213068D01*
X-27752931Y198600392D01*
X-27751007Y198600709D01*
X-24968474Y199012249D01*
X-24965762Y199012590D01*
X-22091432Y199308918D01*
X-22088002Y199309175D01*
X-19144579Y199448670D01*
X-19141261Y199448739D01*
X-16128153Y199431426D01*
X-16125019Y199431328D01*
X-13042285Y199257180D01*
X-13039332Y199256942D01*
X-9886907Y198925930D01*
X-9884067Y198925565D01*
X-8415043Y198703119D01*
X-6662042Y198437671D01*
X-6659393Y198437211D01*
X-5120850Y198135827D01*
X-3367655Y197792395D01*
X-3365145Y197791851D01*
X-26306Y196995480D01*
X-18800Y196992375D01*
X-5954Y196990321D01*
X-5952Y196990319D01*
X-4380Y196990068D01*
X-9Y196989198D01*
X14Y196989198D01*
X4396Y196990071D01*
X5952Y196990319D01*
X5952Y196990320D01*
X18846Y196992381D01*
X26357Y196995493D01*
X3365158Y197791854D01*
X3367658Y197792396D01*
X3587028Y197835369D01*
X6659394Y198437211D01*
X6662029Y198437669D01*
X9210816Y198823618D01*
X9884062Y198925564D01*
X9886896Y198925928D01*
X13039332Y199256943D01*
X13042278Y199257180D01*
X16125018Y199431328D01*
X16128150Y199431426D01*
X19141258Y199448739D01*
X19144578Y199448670D01*
G37*
G04 #@! TD.AperFunction*
M02*
