G04 #@! TF.GenerationSoftware,KiCad,Pcbnew,9.0.2*
G04 #@! TF.CreationDate,2025-06-02T15:36:06+01:00*
G04 #@! TF.ProjectId,NB3_body,4e42335f-626f-4647-992e-6b696361645f,0.0.6*
G04 #@! TF.SameCoordinates,PX76bb820PYd4ab5c0*
G04 #@! TF.FileFunction,Soldermask,Bot*
G04 #@! TF.FilePolarity,Negative*
%FSLAX46Y46*%
G04 Gerber Fmt 4.6, Leading zero omitted, Abs format (unit mm)*
G04 Created by KiCad (PCBNEW 9.0.2) date 2025-06-02 15:36:06*
%MOMM*%
%LPD*%
G01*
G04 APERTURE LIST*
%ADD10C,5.700000*%
%ADD11C,4.500000*%
%ADD12R,1.700000X1.700000*%
%ADD13O,1.700000X1.700000*%
%ADD14C,3.500000*%
G04 APERTURE END LIST*
D10*
X95000000Y43000000D03*
D11*
X-90000000Y37000000D03*
X-24500000Y178000000D03*
X-24500000Y120000000D03*
X90000000Y9000000D03*
D12*
X-78275000Y56525000D03*
D13*
X-75735000Y56525000D03*
X-78275000Y53985000D03*
X-75735000Y53985000D03*
X-78275000Y51445000D03*
X-75735000Y51445000D03*
D12*
X75710000Y56540000D03*
D13*
X78250000Y56540000D03*
X75710000Y54000000D03*
X78250000Y54000000D03*
X75710000Y51460000D03*
X78250000Y51460000D03*
D11*
X-90000000Y9000000D03*
X24500000Y178000000D03*
X80000000Y123000000D03*
X24500000Y120000000D03*
X11000000Y166500000D03*
D10*
X-95000000Y31000000D03*
D11*
X-24500000Y3500000D03*
X24500000Y3500000D03*
D10*
X-95000000Y43000000D03*
D14*
X-7750000Y183000000D03*
D11*
X-30000000Y194000000D03*
X80000000Y88000000D03*
D10*
X95000000Y31000000D03*
D11*
X-33500000Y127000000D03*
X11000000Y127000000D03*
X90000000Y37000000D03*
D10*
X-85000000Y43000000D03*
D11*
X-80000000Y123000000D03*
X-33500000Y166500000D03*
X48000000Y5500000D03*
X-48000000Y5500000D03*
X30000000Y194000000D03*
D14*
X7750000Y183000000D03*
D10*
X85000000Y43000000D03*
X-85000000Y31000000D03*
X85000000Y31000000D03*
D11*
X-80000000Y88000000D03*
M02*
