G04 #@! TF.GenerationSoftware,KiCad,Pcbnew,9.0.2*
G04 #@! TF.CreationDate,2025-06-02T15:36:06+01:00*
G04 #@! TF.ProjectId,NB3_body,4e42335f-626f-4647-992e-6b696361645f,0.0.6*
G04 #@! TF.SameCoordinates,PX76bb820PYd4ab5c0*
G04 #@! TF.FileFunction,Copper,L2,Bot*
G04 #@! TF.FilePolarity,Positive*
%FSLAX46Y46*%
G04 Gerber Fmt 4.6, Leading zero omitted, Abs format (unit mm)*
G04 Created by KiCad (PCBNEW 9.0.2) date 2025-06-02 15:36:06*
%MOMM*%
%LPD*%
G01*
G04 APERTURE LIST*
G04 #@! TA.AperFunction,WasherPad*
%ADD10C,5.700000*%
G04 #@! TD*
G04 #@! TA.AperFunction,WasherPad*
%ADD11C,4.500000*%
G04 #@! TD*
G04 #@! TA.AperFunction,ComponentPad*
%ADD12R,1.700000X1.700000*%
G04 #@! TD*
G04 #@! TA.AperFunction,ComponentPad*
%ADD13O,1.700000X1.700000*%
G04 #@! TD*
G04 #@! TA.AperFunction,WasherPad*
%ADD14C,3.500000*%
G04 #@! TD*
G04 #@! TA.AperFunction,ViaPad*
%ADD15C,0.600000*%
G04 #@! TD*
G04 #@! TA.AperFunction,Conductor*
%ADD16C,0.300000*%
G04 #@! TD*
G04 APERTURE END LIST*
D10*
X95000000Y43000000D03*
D11*
X-90000000Y37000000D03*
X-24500000Y178000000D03*
X-24500000Y120000000D03*
X90000000Y9000000D03*
D12*
X-78275000Y56525000D03*
D13*
X-75735000Y56525000D03*
X-78275000Y53985000D03*
X-75735000Y53985000D03*
X-78275000Y51445000D03*
X-75735000Y51445000D03*
D12*
X75710000Y56540000D03*
D13*
X78250000Y56540000D03*
X75710000Y54000000D03*
X78250000Y54000000D03*
X75710000Y51460000D03*
X78250000Y51460000D03*
D11*
X-90000000Y9000000D03*
X24500000Y178000000D03*
X80000000Y123000000D03*
X24500000Y120000000D03*
X11000000Y166500000D03*
D10*
X-95000000Y31000000D03*
D11*
X-24500000Y3500000D03*
X24500000Y3500000D03*
D10*
X-95000000Y43000000D03*
D14*
X-7750000Y183000000D03*
D11*
X-30000000Y194000000D03*
X80000000Y88000000D03*
D10*
X95000000Y31000000D03*
D11*
X-33500000Y127000000D03*
X11000000Y127000000D03*
X90000000Y37000000D03*
D10*
X-85000000Y43000000D03*
D11*
X-80000000Y123000000D03*
X-33500000Y166500000D03*
X48000000Y5500000D03*
X-48000000Y5500000D03*
X30000000Y194000000D03*
D14*
X7750000Y183000000D03*
D10*
X85000000Y43000000D03*
X-85000000Y31000000D03*
X85000000Y31000000D03*
D11*
X-80000000Y88000000D03*
D15*
X-54000000Y77000000D03*
X-45000000Y191000000D03*
X-46500000Y69500000D03*
X-54000000Y143000000D03*
X-67500000Y49500000D03*
X-42500000Y191000000D03*
X-67500000Y51450000D03*
X-51500000Y77000000D03*
X-51500000Y143000000D03*
X-46500000Y72000000D03*
X-49000000Y77000000D03*
X-40000000Y191000000D03*
X-49000000Y143000000D03*
X14000000Y114000000D03*
X-37500000Y191000000D03*
X-26000000Y114000000D03*
X-46500000Y77000000D03*
X-46500000Y143000000D03*
X-46500000Y112500000D03*
X-20000000Y108000000D03*
X-37500000Y56000000D03*
X14000000Y108000000D03*
X-42000000Y118500000D03*
X-37500000Y179000000D03*
X-43000000Y117000000D03*
X14000000Y109500000D03*
X-40000000Y179000000D03*
X-21500000Y109500000D03*
X-40000000Y56000000D03*
X-42500000Y179000000D03*
X-42500000Y56000000D03*
X14000000Y111000000D03*
X-23000000Y111000000D03*
X-44000000Y115500000D03*
X-45000000Y114000000D03*
X14000000Y112500000D03*
X-45000000Y179000000D03*
X-45000000Y56000000D03*
X-24500000Y112500000D03*
X-76380000Y107500000D03*
X-35000000Y179000000D03*
X-40000000Y136000000D03*
X-77000000Y59000000D03*
X2000000Y140000000D03*
X34920000Y179920000D03*
X35500000Y174500000D03*
X-34920000Y180080000D03*
X39540000Y168540000D03*
X3000000Y138500000D03*
X76400000Y102500000D03*
X35000000Y179000000D03*
X40000Y186400000D03*
X32480000Y58000000D03*
X79500000Y58960000D03*
X-79500000Y59000000D03*
X37500000Y174500000D03*
X-76380000Y105000000D03*
X-40500000Y135500000D03*
X1000000Y140000000D03*
X-31500000Y58000000D03*
X40500000Y168500000D03*
X-74500000Y59000000D03*
X34000000Y143000000D03*
X40980000Y134480000D03*
X32500000Y143000000D03*
X34000000Y145000000D03*
X74500000Y58960000D03*
X2000000Y138500000D03*
X32500000Y145000000D03*
X3000000Y140000000D03*
X34000000Y144000000D03*
X-76380000Y97400000D03*
X36500000Y173500000D03*
X77000000Y58960000D03*
X40000000Y134500000D03*
X2540000Y186400000D03*
X76400000Y105000000D03*
X1000000Y138500000D03*
X31500000Y58000000D03*
X-32500000Y58000000D03*
X32500000Y144000000D03*
X34000000Y56000000D03*
X46500000Y77000000D03*
X46500000Y143000000D03*
X37500000Y191000000D03*
X37500000Y68000000D03*
X49000000Y77000000D03*
X40000000Y68000000D03*
X34000000Y54000000D03*
X49000000Y143000000D03*
X40000000Y191000000D03*
X51500000Y77000000D03*
X51500000Y143000000D03*
X42500000Y191000000D03*
X54000000Y143000000D03*
X45000000Y191000000D03*
X54000000Y137000000D03*
X54000000Y77000000D03*
X45000000Y179000000D03*
X45000000Y56000000D03*
X45000000Y121000000D03*
X42500000Y56000000D03*
X44000000Y123500000D03*
X42500000Y179000000D03*
X40000000Y56000000D03*
X43000000Y126000000D03*
X40000000Y179000000D03*
X37500000Y56000000D03*
X37500000Y179000000D03*
X42000000Y128500000D03*
X68000000Y97500000D03*
X68000000Y110500000D03*
X0Y129000000D03*
X13000000Y142000000D03*
X39500000Y110500000D03*
X13000000Y158000000D03*
X-32000000Y102500000D03*
X39500000Y111500000D03*
X14000000Y141500000D03*
X76400000Y99900000D03*
X-30500000Y101500000D03*
X0Y127500000D03*
X76400000Y112600000D03*
X14000000Y157000000D03*
X70000000Y107500000D03*
X15000000Y156000000D03*
X0Y126000000D03*
X15000000Y141100000D03*
X-29000000Y100500000D03*
X39500000Y112500000D03*
X70000000Y112500000D03*
X40000000Y166000000D03*
X39500000Y109500000D03*
X0Y130500000D03*
X12000000Y159000000D03*
X-33500000Y99800000D03*
X-2600000Y186400000D03*
X12000000Y142500000D03*
X19000000Y166000000D03*
X15050000Y175000000D03*
X40000000Y163450000D03*
X-7600000Y186400000D03*
X40000000Y160900000D03*
D16*
X-45000000Y149000000D02*
X-49000000Y145000000D01*
X-54000000Y143000000D02*
X-54000000Y137000000D01*
X-50500000Y185500000D02*
X-45000000Y191000000D01*
X-54000000Y137000000D02*
X-54000000Y77000000D01*
X-45000000Y151500000D02*
X-45000000Y149000000D01*
X-50500000Y157000000D02*
X-45000000Y151500000D01*
X-49000000Y145000000D02*
X-52000000Y145000000D01*
X-50500000Y161500000D02*
X-50500000Y157000000D01*
X-67500000Y49500000D02*
X-66500000Y49500000D01*
X-50500000Y161500000D02*
X-50500000Y185500000D01*
X-52000000Y145000000D02*
X-54000000Y143000000D01*
X-66500000Y49500000D02*
X-46500000Y69500000D01*
X-44000000Y148500000D02*
X-48500000Y144000000D01*
X-67500000Y51450000D02*
X-65800000Y51450000D01*
X-50500000Y144000000D02*
X-51500000Y143000000D01*
X-65800000Y51450000D02*
X-46500000Y70750000D01*
X-49500000Y184000000D02*
X-42500000Y191000000D01*
X-44000000Y152000000D02*
X-44000000Y148500000D01*
X-49500000Y157500000D02*
X-44000000Y152000000D01*
X-51500000Y143000000D02*
X-51500000Y77000000D01*
X-49500000Y160500000D02*
X-49500000Y157500000D01*
X-49500000Y160500000D02*
X-49500000Y184000000D01*
X-46500000Y70750000D02*
X-46500000Y72000000D01*
X-48500000Y144000000D02*
X-50500000Y144000000D01*
X-48549520Y158049520D02*
X-43049520Y152549520D01*
X-43049520Y147950480D02*
X-48000000Y143000000D01*
X-48549520Y159500000D02*
X-48549520Y158049520D01*
X-48000000Y143000000D02*
X-49000000Y143000000D01*
X-48549520Y159500000D02*
X-48549520Y182450480D01*
X-48549520Y182450480D02*
X-40000000Y191000000D01*
X-43049520Y152549520D02*
X-43049520Y147950480D01*
X-49000000Y143000000D02*
X-49000000Y77000000D01*
X-47500000Y181000000D02*
X-47500000Y166000000D01*
X-37500000Y191000000D02*
X-47500000Y181000000D01*
X-46500000Y137000000D02*
X-46500000Y111500000D01*
X-47500000Y158500000D02*
X-42000000Y153000000D01*
X-42000000Y153000000D02*
X-42000000Y147500000D01*
X-42000000Y147500000D02*
X-46500000Y143000000D01*
X-46500000Y111500000D02*
X-46500000Y77000000D01*
X-46500000Y143000000D02*
X-46500000Y137000000D01*
X14000000Y114000000D02*
X-26000000Y114000000D01*
X-47500000Y166000000D02*
X-47500000Y158500000D01*
X-38000000Y145500000D02*
X-42000000Y141500000D01*
X-42000000Y128500000D02*
X-42000000Y60500000D01*
X-43500000Y173000000D02*
X-43500000Y160500000D01*
X-42000000Y60500000D02*
X-37500000Y56000000D01*
X-37500000Y179000000D02*
X-43500000Y173000000D01*
X-38000000Y155000000D02*
X-38000000Y145500000D01*
X-43500000Y160500000D02*
X-38000000Y155000000D01*
X14000000Y108000000D02*
X-20000000Y108000000D01*
X-42000000Y141500000D02*
X-42000000Y128500000D01*
X-43000000Y59000000D02*
X-40000000Y56000000D01*
X-44500000Y160000000D02*
X-39000000Y154500000D01*
X-43000000Y59500000D02*
X-43000000Y59000000D01*
X-39000000Y146000000D02*
X-43000000Y142000000D01*
X-43000000Y126000000D02*
X-43000000Y59500000D01*
X-44500000Y174500000D02*
X-44500000Y160000000D01*
X-39000000Y154500000D02*
X-39000000Y146000000D01*
X-40000000Y179000000D02*
X-44500000Y174500000D01*
X14000000Y109500000D02*
X-21500000Y109500000D01*
X-43000000Y142000000D02*
X-43000000Y126000000D01*
X-45500000Y159500000D02*
X-40000000Y154000000D01*
X-44000000Y142500000D02*
X-44000000Y123500000D01*
X-45500000Y176000000D02*
X-45500000Y159500000D01*
X-44000000Y57500000D02*
X-42500000Y56000000D01*
X-44000000Y123500000D02*
X-44000000Y57500000D01*
X-42500000Y179000000D02*
X-45500000Y176000000D01*
X14000000Y111000000D02*
X-23000000Y111000000D01*
X-40000000Y146500000D02*
X-44000000Y142500000D01*
X-40000000Y154000000D02*
X-40000000Y146500000D01*
X-46500000Y159000000D02*
X-46500000Y177500000D01*
X-45000000Y121000000D02*
X-45000000Y56000000D01*
X14000000Y112500000D02*
X-24500000Y112500000D01*
X-41000000Y147000000D02*
X-41000000Y153500000D01*
X-45000000Y121000000D02*
X-45000000Y143000000D01*
X-41000000Y153500000D02*
X-46500000Y159000000D01*
X-46500000Y177500000D02*
X-45000000Y179000000D01*
X-45000000Y143000000D02*
X-41000000Y147000000D01*
X47500000Y166000000D02*
X47500000Y158500000D01*
X37500000Y191000000D02*
X47500000Y181000000D01*
X37500000Y68000000D02*
X37500000Y59500000D01*
X47500000Y158500000D02*
X42000000Y153000000D01*
X42000000Y153000000D02*
X42000000Y147500000D01*
X37500000Y59500000D02*
X34000000Y56000000D01*
X47500000Y181000000D02*
X47500000Y166000000D01*
X42000000Y147500000D02*
X46500000Y143000000D01*
X46500000Y143000000D02*
X46500000Y77000000D01*
X43049520Y152549520D02*
X43049520Y147950480D01*
X48000000Y143000000D02*
X49000000Y143000000D01*
X48549520Y158049520D02*
X43049520Y152549520D01*
X40000000Y191000000D02*
X48549520Y182450480D01*
X48549520Y163549520D02*
X48549520Y158049520D01*
X43049520Y147950480D02*
X48000000Y143000000D01*
X48549520Y182450480D02*
X48549520Y163549520D01*
X40000000Y68000000D02*
X40000000Y60000000D01*
X49000000Y143000000D02*
X49000000Y77000000D01*
X40000000Y60000000D02*
X34000000Y54000000D01*
X48500000Y144000000D02*
X50500000Y144000000D01*
X49500000Y161000000D02*
X49500000Y157500000D01*
X44000000Y152000000D02*
X44000000Y148500000D01*
X51500000Y143000000D02*
X51500000Y77000000D01*
X50500000Y144000000D02*
X51500000Y143000000D01*
X49500000Y157500000D02*
X44000000Y152000000D01*
X49500000Y184000000D02*
X49500000Y161000000D01*
X42500000Y191000000D02*
X49500000Y184000000D01*
X44000000Y148500000D02*
X48500000Y144000000D01*
X45000000Y151500000D02*
X50500000Y157000000D01*
X54000000Y143000000D02*
X54000000Y137000000D01*
X52000000Y145000000D02*
X49000000Y145000000D01*
X54000000Y137000000D02*
X54000000Y77000000D01*
X50500000Y157000000D02*
X50500000Y185500000D01*
X49000000Y145000000D02*
X45000000Y149000000D01*
X54000000Y143000000D02*
X52000000Y145000000D01*
X50500000Y185500000D02*
X45000000Y191000000D01*
X45000000Y149000000D02*
X45000000Y151500000D01*
X46500000Y159000000D02*
X46500000Y177500000D01*
X45000000Y143000000D02*
X41000000Y147000000D01*
X45000000Y121000000D02*
X45000000Y143000000D01*
X45000000Y121000000D02*
X45000000Y56000000D01*
X46500000Y177500000D02*
X45000000Y179000000D01*
X41000000Y153500000D02*
X46500000Y159000000D01*
X41000000Y147000000D02*
X41000000Y153500000D01*
X45500000Y159500000D02*
X40000000Y154000000D01*
X40000000Y146500000D02*
X44000000Y142500000D01*
X42500000Y179000000D02*
X45500000Y176000000D01*
X45500000Y176000000D02*
X45500000Y159500000D01*
X40000000Y154000000D02*
X40000000Y146500000D01*
X44000000Y123500000D02*
X44000000Y57500000D01*
X44000000Y57500000D02*
X42500000Y56000000D01*
X44000000Y142500000D02*
X44000000Y123500000D01*
X40000000Y179000000D02*
X44500000Y174500000D01*
X43000000Y59500000D02*
X43000000Y59000000D01*
X44500000Y174500000D02*
X44500000Y160000000D01*
X39000000Y154500000D02*
X39000000Y146000000D01*
X43000000Y59000000D02*
X40000000Y56000000D01*
X43000000Y126000000D02*
X43000000Y59500000D01*
X44500000Y160000000D02*
X39000000Y154500000D01*
X43000000Y142000000D02*
X43000000Y126000000D01*
X39000000Y146000000D02*
X43000000Y142000000D01*
X43500000Y160500000D02*
X38000000Y155000000D01*
X37500000Y179000000D02*
X43500000Y173000000D01*
X42000000Y60500000D02*
X37500000Y56000000D01*
X42000000Y141500000D02*
X42000000Y128500000D01*
X43500000Y173000000D02*
X43500000Y160500000D01*
X38000000Y145500000D02*
X42000000Y141500000D01*
X38000000Y155000000D02*
X38000000Y145500000D01*
X42000000Y128500000D02*
X42000000Y60500000D01*
X-24500000Y129000000D02*
X-32000000Y121500000D01*
X68000000Y110500000D02*
X68000000Y97500000D01*
X13000000Y142000000D02*
X13000000Y132500000D01*
X19500000Y116000000D02*
X25000000Y110500000D01*
X13000000Y158000000D02*
X13000000Y142000000D01*
X-32000000Y121500000D02*
X-32000000Y102500000D01*
X0Y129000000D02*
X-24500000Y129000000D01*
X13000000Y132500000D02*
X19500000Y126000000D01*
X19500000Y126000000D02*
X19500000Y116000000D01*
X25000000Y110500000D02*
X39500000Y110500000D01*
X20500000Y116000000D02*
X25000000Y111500000D01*
X75000000Y110000000D02*
X75000000Y111200000D01*
X75000000Y111200000D02*
X76400000Y112600000D01*
X14000000Y141500000D02*
X14000000Y133000000D01*
X-30500000Y121000000D02*
X-24000000Y127500000D01*
X75000000Y101300000D02*
X75000000Y110000000D01*
X25000000Y111500000D02*
X39500000Y111500000D01*
X-24000000Y127500000D02*
X0Y127500000D01*
X-30500000Y101500000D02*
X-30500000Y121000000D01*
X76400000Y99900000D02*
X75000000Y101300000D01*
X20500000Y126500000D02*
X20500000Y116000000D01*
X14000000Y157000000D02*
X14000000Y141500000D01*
X14000000Y133000000D02*
X20500000Y126500000D01*
X15000000Y133500000D02*
X15000000Y141100000D01*
X-29000000Y100500000D02*
X-29000000Y121000000D01*
X70000000Y112500000D02*
X70000000Y107500000D01*
X25000000Y112500000D02*
X21500000Y116000000D01*
X39500000Y112500000D02*
X25000000Y112500000D01*
X-24000000Y126000000D02*
X0Y126000000D01*
X-29000000Y121000000D02*
X-24000000Y126000000D01*
X15000000Y141100000D02*
X15000000Y156000000D01*
X21500000Y127000000D02*
X15000000Y133500000D01*
X21500000Y116000000D02*
X21500000Y127000000D01*
X19000000Y175700000D02*
X19000000Y166000000D01*
X12000000Y132000000D02*
X18500000Y125500000D01*
X-33500000Y99800000D02*
X-33500000Y121500000D01*
X-33500000Y121500000D02*
X-24500000Y130500000D01*
X25000000Y109500000D02*
X39500000Y109500000D01*
X-2600000Y186400000D02*
X-2600000Y179700000D01*
X17200000Y177500000D02*
X19000000Y175700000D01*
X-2600000Y179700000D02*
X-400000Y177500000D01*
X-24500000Y130500000D02*
X0Y130500000D01*
X40000000Y166000000D02*
X19000000Y166000000D01*
X12000000Y159000000D02*
X12000000Y142500000D01*
X-400000Y177500000D02*
X17200000Y177500000D01*
X12000000Y142500000D02*
X12000000Y132000000D01*
X18500000Y116000000D02*
X25000000Y109500000D01*
X18500000Y125500000D02*
X18500000Y116000000D01*
X15050000Y175000000D02*
X15050000Y166100000D01*
X15050000Y166100000D02*
X17700000Y163450000D01*
X17700000Y163450000D02*
X40000000Y163450000D01*
X-7600000Y186200000D02*
X-5200000Y183800000D01*
X-5200000Y166300000D02*
X200000Y160900000D01*
X-5200000Y183800000D02*
X-5200000Y166300000D01*
X200000Y160900000D02*
X40000000Y160900000D01*
X-7600000Y186400000D02*
X-7600000Y186200000D01*
G04 #@! TA.AperFunction,Conductor*
G36*
X-76200925Y56717993D02*
G01*
X-76235000Y56590826D01*
X-76235000Y56459174D01*
X-76200925Y56332007D01*
X-76165703Y56271000D01*
X-77844297Y56271000D01*
X-77809075Y56332007D01*
X-77775000Y56459174D01*
X-77775000Y56590826D01*
X-77809075Y56717993D01*
X-77844297Y56779000D01*
X-76165703Y56779000D01*
X-76200925Y56717993D01*
G37*
G04 #@! TD.AperFunction*
G04 #@! TA.AperFunction,Conductor*
G36*
X77784075Y56732993D02*
G01*
X77750000Y56605826D01*
X77750000Y56474174D01*
X77784075Y56347007D01*
X77819297Y56286000D01*
X76140703Y56286000D01*
X76175925Y56347007D01*
X76210000Y56474174D01*
X76210000Y56605826D01*
X76175925Y56732993D01*
X76140703Y56794000D01*
X77819297Y56794000D01*
X77784075Y56732993D01*
G37*
G04 #@! TD.AperFunction*
G04 #@! TA.AperFunction,Conductor*
G36*
X19146241Y199448591D02*
G01*
X22086256Y199309258D01*
X22093157Y199308739D01*
X24964404Y199012729D01*
X24969849Y199012046D01*
X27749939Y198600868D01*
X27753943Y198600208D01*
X30302718Y198136719D01*
X30418678Y198115632D01*
X30423076Y198114751D01*
X32971481Y197556967D01*
X32976133Y197555855D01*
X35408295Y196924886D01*
X35413267Y196923486D01*
X37729130Y196219396D01*
X37734438Y196217652D01*
X39934029Y195440490D01*
X39939616Y195438364D01*
X42022917Y194588205D01*
X42028817Y194585619D01*
X43996112Y193662408D01*
X44001878Y193659518D01*
X45874264Y192659968D01*
X45879737Y192656867D01*
X47130427Y191906384D01*
X47678008Y191577805D01*
X47683452Y191574346D01*
X49407506Y190415850D01*
X49412852Y190412053D01*
X51062784Y189174078D01*
X51067939Y189169994D01*
X52630957Y187863246D01*
X52643739Y187852560D01*
X52648739Y187848149D01*
X54150458Y186451231D01*
X54155219Y186446562D01*
X54253568Y186344854D01*
X55574355Y184978955D01*
X55582954Y184970063D01*
X55587425Y184965189D01*
X55765915Y184760022D01*
X56939881Y183410594D01*
X56946271Y183402617D01*
X58168014Y181743878D01*
X58175584Y181732324D01*
X58722749Y180788007D01*
X59197047Y179969446D01*
X59214008Y179940175D01*
X59220131Y179928168D01*
X59458399Y179391873D01*
X60076542Y178000552D01*
X60081161Y177988535D01*
X60755545Y175924996D01*
X60758739Y175913367D01*
X61250952Y173713508D01*
X61252899Y173702559D01*
X61562714Y171366125D01*
X61563641Y171356032D01*
X61690800Y168882907D01*
X61690937Y168873747D01*
X61635277Y166267149D01*
X61634173Y166252979D01*
X61283451Y163655430D01*
X61278974Y163635110D01*
X60521383Y161181982D01*
X60513523Y161162479D01*
X59348253Y158849137D01*
X59337793Y158831944D01*
X57763685Y156657096D01*
X57751866Y156643048D01*
X55767537Y154606208D01*
X55755546Y154595383D01*
X53359891Y152696788D01*
X53348548Y152688775D01*
X50540881Y150928981D01*
X50530603Y150923191D01*
X47321013Y149308055D01*
X47321014Y149308054D01*
X47316646Y149305856D01*
X47308561Y149301787D01*
X47307290Y149301918D01*
X47304797Y149299893D01*
X47301931Y149298450D01*
X47301930Y149298450D01*
X47301515Y149298240D01*
X47298956Y149293508D01*
X47299352Y149288139D01*
X47299644Y149287780D01*
X47301669Y149285288D01*
X47303112Y149282421D01*
X47304322Y149282022D01*
X47306002Y149279955D01*
X47307234Y149279423D01*
X47308794Y149279089D01*
X47326383Y149278832D01*
X51665027Y148830070D01*
X51675063Y148828620D01*
X55809555Y148059765D01*
X55820206Y148057302D01*
X59738882Y146969753D01*
X59749905Y146966139D01*
X63117544Y145687405D01*
X63453001Y145560028D01*
X63464122Y145555181D01*
X66952015Y143830535D01*
X66962878Y143824478D01*
X69092985Y142494727D01*
X70235907Y141781241D01*
X70246198Y141774082D01*
X70816694Y141333503D01*
X73288933Y139424258D01*
X73304730Y139412059D01*
X73314139Y139404024D01*
X75948160Y136921158D01*
X76158985Y136722432D01*
X76166407Y136714819D01*
X78762605Y133816615D01*
X78762612Y133816608D01*
X78768700Y133809272D01*
X81080209Y130798770D01*
X81085961Y130790632D01*
X82088000Y129246735D01*
X82802909Y128145234D01*
X83112372Y127668428D01*
X83117617Y127659574D01*
X83361745Y127206218D01*
X84859102Y124425561D01*
X84863690Y124416118D01*
X86320413Y121070115D01*
X86324219Y121060264D01*
X87496279Y117602076D01*
X87499227Y117592023D01*
X88386691Y114021377D01*
X88388756Y114011337D01*
X88991570Y110328292D01*
X88992821Y110318019D01*
X89291751Y106593029D01*
X89292152Y106582130D01*
X89268106Y102885261D01*
X89267549Y102874219D01*
X88920580Y99205074D01*
X88919061Y99194140D01*
X88249135Y95552431D01*
X88246713Y95541849D01*
X87253731Y91927337D01*
X87250522Y91917317D01*
X85934346Y88329828D01*
X85930505Y88320526D01*
X84290953Y84759909D01*
X84286649Y84751421D01*
X82325024Y81220276D01*
X82317208Y81207947D01*
X79989841Y77968438D01*
X79975828Y77952086D01*
X77236359Y75259954D01*
X77218981Y75245689D01*
X74064749Y73096970D01*
X74045502Y73086195D01*
X70474581Y71479852D01*
X70455356Y71473016D01*
X66465849Y70409132D01*
X66448157Y70405746D01*
X62038763Y69885153D01*
X62023369Y69884286D01*
X57193668Y69908036D01*
X57180712Y69908768D01*
X51949933Y70475667D01*
X51926805Y70478173D01*
X51924656Y70479272D01*
X51922648Y70478624D01*
X51920555Y70478850D01*
X51918676Y70477339D01*
X51916379Y70476596D01*
X51915418Y70474719D01*
X51913777Y70473398D01*
X51913517Y70471002D01*
X51912418Y70468852D01*
X51913066Y70466845D01*
X51912840Y70464751D01*
X51914351Y70462873D01*
X51915094Y70460575D01*
X51916971Y70459615D01*
X51918292Y70457973D01*
X51918294Y70457973D01*
X51934207Y70449270D01*
X51941401Y70447122D01*
X52159992Y70335331D01*
X54489457Y69144006D01*
X54489594Y69143658D01*
X54493269Y69142056D01*
X54496867Y69140216D01*
X54496868Y69140217D01*
X54510122Y69133438D01*
X54516968Y69131726D01*
X57109578Y68001566D01*
X57109740Y68001219D01*
X57113522Y67999846D01*
X57117202Y67998242D01*
X57117202Y67998243D01*
X57130725Y67992348D01*
X57137758Y67991049D01*
X59755237Y67040902D01*
X59755242Y67040900D01*
X59775344Y67033603D01*
X59775530Y67033263D01*
X59779388Y67032135D01*
X59783149Y67030769D01*
X59783150Y67030768D01*
X59796922Y67025770D01*
X59804088Y67024910D01*
X62466263Y66246121D01*
X62466262Y66246121D01*
X62486749Y66240128D01*
X62486957Y66239800D01*
X62490872Y66238922D01*
X62494726Y66237794D01*
X62494726Y66237795D01*
X62494731Y66237793D01*
X62494733Y66237792D01*
X62494750Y66237787D01*
X62508734Y66233694D01*
X62515974Y66233289D01*
X65232935Y65623581D01*
X65243788Y65621145D01*
X65244015Y65620832D01*
X65247978Y65620204D01*
X65251881Y65619328D01*
X65251885Y65619327D01*
X65266159Y65616124D01*
X65273373Y65616179D01*
X68046451Y65176659D01*
X68046695Y65176365D01*
X68050697Y65175986D01*
X68054666Y65175357D01*
X68054666Y65175358D01*
X68069195Y65173055D01*
X68076319Y65173560D01*
X70894733Y64906672D01*
X70894989Y64906399D01*
X70899009Y64906268D01*
X70900599Y64906117D01*
X70903021Y64905887D01*
X70903021Y64905888D01*
X70917854Y64904482D01*
X70924842Y64905418D01*
X73791285Y64811100D01*
X73793689Y64810997D01*
X76631953Y64661644D01*
X76645228Y64660235D01*
X79338627Y64229141D01*
X79352580Y64226087D01*
X81906936Y63513220D01*
X81921031Y63508371D01*
X83491012Y62862055D01*
X84294055Y62531465D01*
X84336988Y62513791D01*
X84350612Y62507200D01*
X86628823Y61230728D01*
X86641395Y61222669D01*
X88782410Y59663913D01*
X88793501Y59654830D01*
X90797682Y57813258D01*
X90807075Y57803655D01*
X92675097Y55678090D01*
X92681870Y55669682D01*
X94371105Y53378397D01*
X94376406Y53370614D01*
X95843249Y51033695D01*
X95848214Y51025042D01*
X97092199Y48643338D01*
X97096648Y48633884D01*
X98117976Y46207286D01*
X98121737Y46197157D01*
X98920591Y43725465D01*
X98923516Y43714846D01*
X99500014Y41197899D01*
X99502008Y41187021D01*
X99856239Y38624475D01*
X99857265Y38613588D01*
X99989339Y36002915D01*
X99989500Y35996549D01*
X99989500Y19011644D01*
X99987678Y18990296D01*
X99361213Y15346323D01*
X99356015Y15326201D01*
X98230812Y12097906D01*
X98220971Y12076410D01*
X96598304Y9263818D01*
X96583580Y9243346D01*
X94462885Y6843645D01*
X94444640Y6826713D01*
X91823759Y4837750D01*
X91804423Y4825666D01*
X88680691Y3246922D01*
X88662455Y3239434D01*
X85034000Y2071770D01*
X85018047Y2067764D01*
X80882041Y1312116D01*
X80872470Y1310744D01*
X76218242Y825185D01*
X76213854Y824805D01*
X71035562Y466969D01*
X71031951Y466771D01*
X65331978Y236992D01*
X65328962Y236907D01*
X59107554Y135243D01*
X59105000Y135227D01*
X52362269Y161718D01*
X52360082Y161746D01*
X45096202Y316412D01*
X45094309Y316466D01*
X37309149Y599324D01*
X37307496Y599395D01*
X29026718Y1009191D01*
X29026718Y1009192D01*
X29004562Y1010288D01*
X29004350Y1010500D01*
X29000263Y1010500D01*
X28997148Y1010654D01*
X28997145Y1010654D01*
X28996139Y1010704D01*
X28995652Y1010503D01*
X28994949Y1009799D01*
X28990471Y1005537D01*
X28977467Y993756D01*
X28974034Y988885D01*
X28032554Y47404D01*
X27970244Y13380D01*
X27943461Y10500D01*
X-27943461Y10500D01*
X-28011582Y30502D01*
X-28032556Y47405D01*
X-28989714Y1004563D01*
X-28989728Y1004863D01*
X-28992761Y1007610D01*
X-28995651Y1010500D01*
X-28995652Y1010500D01*
X-28995800Y1010648D01*
X-28995968Y1010713D01*
X-28997145Y1010654D01*
X-28997149Y1010654D01*
X-29000264Y1010500D01*
X-29004349Y1010500D01*
X-29004563Y1010288D01*
X-29026642Y1009196D01*
X-29026643Y1009195D01*
X-37307498Y599395D01*
X-37309151Y599324D01*
X-45094313Y316466D01*
X-45096206Y316412D01*
X-52360084Y161746D01*
X-52362271Y161718D01*
X-59105002Y135227D01*
X-59107556Y135243D01*
X-65328964Y236907D01*
X-65331980Y236992D01*
X-71031954Y466771D01*
X-71035565Y466969D01*
X-76213854Y824804D01*
X-76218242Y825184D01*
X-80872470Y1310743D01*
X-80882041Y1312115D01*
X-85018049Y2067764D01*
X-85034002Y2071770D01*
X-88662455Y3239433D01*
X-88680691Y3246921D01*
X-91804425Y4825666D01*
X-91823761Y4837750D01*
X-92772356Y5557630D01*
X-92899958Y5654466D01*
X-50750500Y5654466D01*
X-50750500Y5345535D01*
X-50715911Y5038544D01*
X-50675250Y4860397D01*
X-50647168Y4737364D01*
X-50647166Y4737358D01*
X-50647167Y4737358D01*
X-50545142Y4445789D01*
X-50545131Y4445762D01*
X-50411098Y4167440D01*
X-50411093Y4167431D01*
X-50246735Y3905857D01*
X-50054118Y3664323D01*
X-49835678Y3445883D01*
X-49835674Y3445880D01*
X-49594143Y3253265D01*
X-49332565Y3088905D01*
X-49054229Y2954865D01*
X-49054213Y2954860D01*
X-49054212Y2954859D01*
X-48762643Y2852834D01*
X-48762640Y2852834D01*
X-48762636Y2852832D01*
X-48539710Y2801951D01*
X-48461457Y2784090D01*
X-48461456Y2784090D01*
X-48461452Y2784089D01*
X-48217435Y2756595D01*
X-48154466Y2749500D01*
X-48154465Y2749500D01*
X-47845534Y2749500D01*
X-47793283Y2755388D01*
X-47538548Y2784089D01*
X-47237364Y2852832D01*
X-46945771Y2954865D01*
X-46667435Y3088905D01*
X-46405857Y3253265D01*
X-46164326Y3445880D01*
X-45955740Y3654466D01*
X-27250500Y3654466D01*
X-27250500Y3345535D01*
X-27215911Y3038544D01*
X-27196811Y2954865D01*
X-27147168Y2737364D01*
X-27147166Y2737358D01*
X-27147167Y2737358D01*
X-27045142Y2445789D01*
X-27045131Y2445762D01*
X-26911098Y2167440D01*
X-26911093Y2167431D01*
X-26746735Y1905857D01*
X-26554118Y1664323D01*
X-26335678Y1445883D01*
X-26335674Y1445880D01*
X-26094143Y1253265D01*
X-25832565Y1088905D01*
X-25554229Y954865D01*
X-25554213Y954860D01*
X-25554212Y954859D01*
X-25262643Y852834D01*
X-25262640Y852834D01*
X-25262636Y852832D01*
X-25050787Y804479D01*
X-24961457Y784090D01*
X-24961456Y784090D01*
X-24961452Y784089D01*
X-24717435Y756595D01*
X-24654466Y749500D01*
X-24654465Y749500D01*
X-24345534Y749500D01*
X-24293283Y755388D01*
X-24038548Y784089D01*
X-23737364Y852832D01*
X-23445771Y954865D01*
X-23167435Y1088905D01*
X-22905857Y1253265D01*
X-22664326Y1445880D01*
X-22445880Y1664326D01*
X-22253265Y1905857D01*
X-22088905Y2167435D01*
X-21954865Y2445771D01*
X-21852832Y2737364D01*
X-21784089Y3038548D01*
X-21749500Y3345535D01*
X-21749500Y3654465D01*
X-21749500Y3654466D01*
X21749500Y3654466D01*
X21749500Y3345535D01*
X21784089Y3038544D01*
X21803189Y2954865D01*
X21852832Y2737364D01*
X21852834Y2737358D01*
X21852833Y2737358D01*
X21954858Y2445789D01*
X21954869Y2445762D01*
X22088902Y2167440D01*
X22088907Y2167431D01*
X22253265Y1905857D01*
X22445882Y1664323D01*
X22664322Y1445883D01*
X22664326Y1445880D01*
X22905857Y1253265D01*
X23167435Y1088905D01*
X23445771Y954865D01*
X23445787Y954860D01*
X23445788Y954859D01*
X23737357Y852834D01*
X23737360Y852834D01*
X23737364Y852832D01*
X23949213Y804479D01*
X24038543Y784090D01*
X24038544Y784090D01*
X24038548Y784089D01*
X24282565Y756595D01*
X24345534Y749500D01*
X24345535Y749500D01*
X24654466Y749500D01*
X24706717Y755388D01*
X24961452Y784089D01*
X25262636Y852832D01*
X25554229Y954865D01*
X25832565Y1088905D01*
X26094143Y1253265D01*
X26335674Y1445880D01*
X26554120Y1664326D01*
X26746735Y1905857D01*
X26911095Y2167435D01*
X27045135Y2445771D01*
X27147168Y2737364D01*
X27215911Y3038548D01*
X27250500Y3345535D01*
X27250500Y3654465D01*
X27215911Y3961452D01*
X27147168Y4262636D01*
X27083089Y4445762D01*
X27045141Y4554212D01*
X27045140Y4554213D01*
X27045135Y4554229D01*
X26921531Y4810894D01*
X26911097Y4832561D01*
X26911092Y4832570D01*
X26781670Y5038544D01*
X26746735Y5094143D01*
X26554120Y5335674D01*
X26554117Y5335678D01*
X26335675Y5554120D01*
X26328941Y5559490D01*
X26209845Y5654466D01*
X45249500Y5654466D01*
X45249500Y5345535D01*
X45284089Y5038544D01*
X45324750Y4860397D01*
X45352832Y4737364D01*
X45352834Y4737358D01*
X45352833Y4737358D01*
X45454858Y4445789D01*
X45454869Y4445762D01*
X45588902Y4167440D01*
X45588907Y4167431D01*
X45753265Y3905857D01*
X45945882Y3664323D01*
X46164322Y3445883D01*
X46164326Y3445880D01*
X46405857Y3253265D01*
X46667435Y3088905D01*
X46945771Y2954865D01*
X46945787Y2954860D01*
X46945788Y2954859D01*
X47237357Y2852834D01*
X47237360Y2852834D01*
X47237364Y2852832D01*
X47460290Y2801951D01*
X47538543Y2784090D01*
X47538544Y2784090D01*
X47538548Y2784089D01*
X47782565Y2756595D01*
X47845534Y2749500D01*
X47845535Y2749500D01*
X48154466Y2749500D01*
X48206717Y2755388D01*
X48461452Y2784089D01*
X48762636Y2852832D01*
X49054229Y2954865D01*
X49332565Y3088905D01*
X49594143Y3253265D01*
X49835674Y3445880D01*
X50054120Y3664326D01*
X50246735Y3905857D01*
X50411095Y4167435D01*
X50545135Y4445771D01*
X50647168Y4737364D01*
X50715911Y5038548D01*
X50750500Y5345535D01*
X50750500Y5654465D01*
X50715911Y5961452D01*
X50647168Y6262636D01*
X50639661Y6284089D01*
X50545141Y6554212D01*
X50545140Y6554213D01*
X50545135Y6554229D01*
X50411095Y6832565D01*
X50246735Y7094143D01*
X50054120Y7335674D01*
X50054117Y7335678D01*
X49835677Y7554118D01*
X49594143Y7746735D01*
X49332569Y7911093D01*
X49332560Y7911098D01*
X49054238Y8045131D01*
X49054233Y8045133D01*
X49054229Y8045135D01*
X49054223Y8045138D01*
X49054211Y8045142D01*
X48762642Y8147167D01*
X48461456Y8215911D01*
X48154466Y8250500D01*
X48154465Y8250500D01*
X47845535Y8250500D01*
X47845534Y8250500D01*
X47538543Y8215911D01*
X47237357Y8147167D01*
X46945788Y8045142D01*
X46945761Y8045131D01*
X46667439Y7911098D01*
X46667430Y7911093D01*
X46405856Y7746735D01*
X46164322Y7554118D01*
X45945882Y7335678D01*
X45753265Y7094144D01*
X45588907Y6832570D01*
X45588902Y6832561D01*
X45454869Y6554239D01*
X45454858Y6554212D01*
X45352833Y6262643D01*
X45284089Y5961457D01*
X45249500Y5654466D01*
X26209845Y5654466D01*
X26094143Y5746735D01*
X25832569Y5911093D01*
X25832560Y5911098D01*
X25554238Y6045131D01*
X25554233Y6045133D01*
X25554229Y6045135D01*
X25554223Y6045138D01*
X25554211Y6045142D01*
X25262642Y6147167D01*
X24961456Y6215911D01*
X24654466Y6250500D01*
X24654465Y6250500D01*
X24345535Y6250500D01*
X24345534Y6250500D01*
X24038543Y6215911D01*
X23737357Y6147167D01*
X23445788Y6045142D01*
X23445761Y6045131D01*
X23167439Y5911098D01*
X23167430Y5911093D01*
X22905856Y5746735D01*
X22664322Y5554118D01*
X22445882Y5335678D01*
X22253265Y5094144D01*
X22088907Y4832570D01*
X22088902Y4832561D01*
X21954869Y4554239D01*
X21954858Y4554212D01*
X21852833Y4262643D01*
X21784089Y3961457D01*
X21749500Y3654466D01*
X-21749500Y3654466D01*
X-21784089Y3961452D01*
X-21852832Y4262636D01*
X-21916911Y4445762D01*
X-21954859Y4554212D01*
X-21954860Y4554213D01*
X-21954865Y4554229D01*
X-22078469Y4810894D01*
X-22088903Y4832561D01*
X-22088908Y4832570D01*
X-22218330Y5038544D01*
X-22253265Y5094143D01*
X-22445880Y5335674D01*
X-22445883Y5335678D01*
X-22664323Y5554118D01*
X-22905857Y5746735D01*
X-23167431Y5911093D01*
X-23167440Y5911098D01*
X-23445762Y6045131D01*
X-23445767Y6045133D01*
X-23445771Y6045135D01*
X-23445777Y6045138D01*
X-23445789Y6045142D01*
X-23737358Y6147167D01*
X-24038544Y6215911D01*
X-24345534Y6250500D01*
X-24345535Y6250500D01*
X-24654465Y6250500D01*
X-24654466Y6250500D01*
X-24961457Y6215911D01*
X-25262643Y6147167D01*
X-25554212Y6045142D01*
X-25554239Y6045131D01*
X-25832561Y5911098D01*
X-25832570Y5911093D01*
X-26094144Y5746735D01*
X-26335678Y5554118D01*
X-26554118Y5335678D01*
X-26746735Y5094144D01*
X-26911093Y4832570D01*
X-26911098Y4832561D01*
X-27045131Y4554239D01*
X-27045142Y4554212D01*
X-27147167Y4262643D01*
X-27215911Y3961457D01*
X-27250500Y3654466D01*
X-45955740Y3654466D01*
X-45945880Y3664326D01*
X-45753265Y3905857D01*
X-45588905Y4167435D01*
X-45454865Y4445771D01*
X-45352832Y4737364D01*
X-45284089Y5038548D01*
X-45249500Y5345535D01*
X-45249500Y5654465D01*
X-45284089Y5961452D01*
X-45352832Y6262636D01*
X-45360339Y6284089D01*
X-45454859Y6554212D01*
X-45454860Y6554213D01*
X-45454865Y6554229D01*
X-45588905Y6832565D01*
X-45753265Y7094143D01*
X-45945880Y7335674D01*
X-45945883Y7335678D01*
X-46164323Y7554118D01*
X-46405857Y7746735D01*
X-46667431Y7911093D01*
X-46667440Y7911098D01*
X-46945762Y8045131D01*
X-46945767Y8045133D01*
X-46945771Y8045135D01*
X-46945777Y8045138D01*
X-46945789Y8045142D01*
X-47237358Y8147167D01*
X-47538544Y8215911D01*
X-47845534Y8250500D01*
X-47845535Y8250500D01*
X-48154465Y8250500D01*
X-48154466Y8250500D01*
X-48461457Y8215911D01*
X-48762643Y8147167D01*
X-49054212Y8045142D01*
X-49054239Y8045131D01*
X-49332561Y7911098D01*
X-49332570Y7911093D01*
X-49594144Y7746735D01*
X-49835678Y7554118D01*
X-50054118Y7335678D01*
X-50246735Y7094144D01*
X-50411093Y6832570D01*
X-50411098Y6832561D01*
X-50545131Y6554239D01*
X-50545142Y6554212D01*
X-50647167Y6262643D01*
X-50715911Y5961457D01*
X-50750500Y5654466D01*
X-92899958Y5654466D01*
X-94444642Y6826713D01*
X-94462887Y6843645D01*
X-96434422Y9074562D01*
X-96505036Y9154466D01*
X-92750500Y9154466D01*
X-92750500Y8845535D01*
X-92715911Y8538544D01*
X-92675250Y8360397D01*
X-92647168Y8237364D01*
X-92647166Y8237358D01*
X-92647167Y8237358D01*
X-92545142Y7945789D01*
X-92545131Y7945762D01*
X-92411098Y7667440D01*
X-92411093Y7667431D01*
X-92246735Y7405857D01*
X-92054118Y7164323D01*
X-91835678Y6945883D01*
X-91835674Y6945880D01*
X-91594143Y6753265D01*
X-91332565Y6588905D01*
X-91054229Y6454865D01*
X-91054213Y6454860D01*
X-91054212Y6454859D01*
X-90762643Y6352834D01*
X-90762640Y6352834D01*
X-90762636Y6352832D01*
X-90539710Y6301951D01*
X-90461457Y6284090D01*
X-90461456Y6284090D01*
X-90461452Y6284089D01*
X-90217435Y6256595D01*
X-90154466Y6249500D01*
X-90154465Y6249500D01*
X-89845534Y6249500D01*
X-89793283Y6255388D01*
X-89538548Y6284089D01*
X-89237364Y6352832D01*
X-88945771Y6454865D01*
X-88667435Y6588905D01*
X-88405857Y6753265D01*
X-88164326Y6945880D01*
X-87945880Y7164326D01*
X-87753265Y7405857D01*
X-87588905Y7667435D01*
X-87454865Y7945771D01*
X-87352832Y8237364D01*
X-87284089Y8538548D01*
X-87249500Y8845535D01*
X-87249500Y9154465D01*
X-87284089Y9461452D01*
X-87352832Y9762636D01*
X-87454865Y10054229D01*
X-87588905Y10332565D01*
X-87753265Y10594143D01*
X-87945880Y10835674D01*
X-87945883Y10835678D01*
X-88164323Y11054118D01*
X-88405857Y11246735D01*
X-88667431Y11411093D01*
X-88667440Y11411098D01*
X-88945762Y11545131D01*
X-88945767Y11545133D01*
X-88945771Y11545135D01*
X-88945777Y11545138D01*
X-88945789Y11545142D01*
X-89237358Y11647167D01*
X-89538544Y11715911D01*
X-89845534Y11750500D01*
X-89845535Y11750500D01*
X-90154465Y11750500D01*
X-90154466Y11750500D01*
X-90461457Y11715911D01*
X-90762643Y11647167D01*
X-91054212Y11545142D01*
X-91054239Y11545131D01*
X-91332561Y11411098D01*
X-91332570Y11411093D01*
X-91594144Y11246735D01*
X-91835678Y11054118D01*
X-92054118Y10835678D01*
X-92246735Y10594144D01*
X-92411093Y10332570D01*
X-92411098Y10332561D01*
X-92545131Y10054239D01*
X-92545142Y10054212D01*
X-92647167Y9762643D01*
X-92715911Y9461457D01*
X-92750500Y9154466D01*
X-96505036Y9154466D01*
X-96583582Y9243346D01*
X-96598306Y9263818D01*
X-98220973Y12076410D01*
X-98230814Y12097906D01*
X-99356016Y15326201D01*
X-99356020Y15326211D01*
X-99361214Y15346323D01*
X-99987678Y18990296D01*
X-99989500Y19011644D01*
X-99989500Y21504349D01*
X-77010500Y21504349D01*
X-77010500Y21493843D01*
X-77010500Y7495650D01*
X-76004351Y6489501D01*
X-76004349Y6489500D01*
X-68995651Y6489500D01*
X-67989500Y7495651D01*
X-67989500Y21493843D01*
X-67989500Y21504349D01*
X67989500Y21504349D01*
X67989500Y21493843D01*
X67989500Y7495650D01*
X68995649Y6489501D01*
X68995651Y6489500D01*
X76004349Y6489500D01*
X77010500Y7495651D01*
X77010500Y9154466D01*
X87249500Y9154466D01*
X87249500Y8845535D01*
X87284089Y8538544D01*
X87324750Y8360397D01*
X87352832Y8237364D01*
X87352834Y8237358D01*
X87352833Y8237358D01*
X87454858Y7945789D01*
X87454869Y7945762D01*
X87588902Y7667440D01*
X87588907Y7667431D01*
X87753265Y7405857D01*
X87945882Y7164323D01*
X88164322Y6945883D01*
X88164326Y6945880D01*
X88405857Y6753265D01*
X88667435Y6588905D01*
X88945771Y6454865D01*
X88945787Y6454860D01*
X88945788Y6454859D01*
X89237357Y6352834D01*
X89237360Y6352834D01*
X89237364Y6352832D01*
X89460290Y6301951D01*
X89538543Y6284090D01*
X89538544Y6284090D01*
X89538548Y6284089D01*
X89782565Y6256595D01*
X89845534Y6249500D01*
X89845535Y6249500D01*
X90154466Y6249500D01*
X90206717Y6255388D01*
X90461452Y6284089D01*
X90762636Y6352832D01*
X91054229Y6454865D01*
X91332565Y6588905D01*
X91594143Y6753265D01*
X91835674Y6945880D01*
X92054120Y7164326D01*
X92246735Y7405857D01*
X92411095Y7667435D01*
X92545135Y7945771D01*
X92647168Y8237364D01*
X92715911Y8538548D01*
X92750500Y8845535D01*
X92750500Y9154465D01*
X92715911Y9461452D01*
X92647168Y9762636D01*
X92545135Y10054229D01*
X92411095Y10332565D01*
X92246735Y10594143D01*
X92054120Y10835674D01*
X92054117Y10835678D01*
X91835677Y11054118D01*
X91594143Y11246735D01*
X91332569Y11411093D01*
X91332560Y11411098D01*
X91054238Y11545131D01*
X91054233Y11545133D01*
X91054229Y11545135D01*
X91054223Y11545138D01*
X91054211Y11545142D01*
X90762642Y11647167D01*
X90461456Y11715911D01*
X90154466Y11750500D01*
X90154465Y11750500D01*
X89845535Y11750500D01*
X89845534Y11750500D01*
X89538543Y11715911D01*
X89237357Y11647167D01*
X88945788Y11545142D01*
X88945761Y11545131D01*
X88667439Y11411098D01*
X88667430Y11411093D01*
X88405856Y11246735D01*
X88164322Y11054118D01*
X87945882Y10835678D01*
X87753265Y10594144D01*
X87588907Y10332570D01*
X87588902Y10332561D01*
X87454869Y10054239D01*
X87454858Y10054212D01*
X87352833Y9762643D01*
X87284089Y9461457D01*
X87249500Y9154466D01*
X77010500Y9154466D01*
X77010500Y21504349D01*
X77004349Y21510500D01*
X76993824Y21521025D01*
X76004350Y22510500D01*
X76004349Y22510500D01*
X69004350Y22510500D01*
X68995651Y22510500D01*
X68995649Y22510500D01*
X68006175Y21521025D01*
X68006173Y21521023D01*
X67995651Y21510500D01*
X67989500Y21504349D01*
X-67989500Y21504349D01*
X-67995651Y21510500D01*
X-68006176Y21521025D01*
X-68995650Y22510500D01*
X-68995651Y22510500D01*
X-75995650Y22510500D01*
X-76004349Y22510500D01*
X-76004351Y22510500D01*
X-76993825Y21521025D01*
X-76993827Y21521023D01*
X-77004349Y21510500D01*
X-77010500Y21504349D01*
X-99989500Y21504349D01*
X-99989500Y31164607D01*
X-98350500Y31164607D01*
X-98350500Y30835394D01*
X-98318235Y30507802D01*
X-98318232Y30507781D01*
X-98254014Y30184927D01*
X-98158450Y29869894D01*
X-98158449Y29869891D01*
X-98032469Y29565749D01*
X-97877285Y29275419D01*
X-97694398Y29001709D01*
X-97694387Y29001694D01*
X-97485557Y28747235D01*
X-97485539Y28747215D01*
X-97252786Y28514462D01*
X-97252776Y28514453D01*
X-97252772Y28514449D01*
X-96998298Y28305607D01*
X-96724579Y28122714D01*
X-96434251Y27967531D01*
X-96130111Y27841552D01*
X-95815087Y27745990D01*
X-95815078Y27745989D01*
X-95815074Y27745987D01*
X-95684212Y27719958D01*
X-95492213Y27681767D01*
X-95164600Y27649500D01*
X-95164591Y27649500D01*
X-94835409Y27649500D01*
X-94835400Y27649500D01*
X-94507787Y27681767D01*
X-94252941Y27732459D01*
X-94184927Y27745987D01*
X-94184925Y27745988D01*
X-94184913Y27745990D01*
X-93869889Y27841552D01*
X-93565749Y27967531D01*
X-93275421Y28122714D01*
X-93001702Y28305607D01*
X-92747228Y28514449D01*
X-92514449Y28747228D01*
X-92305607Y29001702D01*
X-92122714Y29275421D01*
X-91967531Y29565749D01*
X-91841552Y29869889D01*
X-91745990Y30184913D01*
X-91681767Y30507787D01*
X-91649500Y30835400D01*
X-91649500Y31164600D01*
X-91649501Y31164607D01*
X-88350500Y31164607D01*
X-88350500Y30835394D01*
X-88318235Y30507802D01*
X-88318232Y30507781D01*
X-88254014Y30184927D01*
X-88158450Y29869894D01*
X-88158449Y29869891D01*
X-88032469Y29565749D01*
X-87877285Y29275419D01*
X-87694398Y29001709D01*
X-87694387Y29001694D01*
X-87485557Y28747235D01*
X-87485539Y28747215D01*
X-87252786Y28514462D01*
X-87252776Y28514453D01*
X-87252772Y28514449D01*
X-86998298Y28305607D01*
X-86724579Y28122714D01*
X-86434251Y27967531D01*
X-86130111Y27841552D01*
X-85815087Y27745990D01*
X-85815078Y27745989D01*
X-85815074Y27745987D01*
X-85684212Y27719958D01*
X-85492213Y27681767D01*
X-85164600Y27649500D01*
X-85164591Y27649500D01*
X-84835409Y27649500D01*
X-84835400Y27649500D01*
X-84507787Y27681767D01*
X-84252941Y27732459D01*
X-84184927Y27745987D01*
X-84184925Y27745988D01*
X-84184913Y27745990D01*
X-83869889Y27841552D01*
X-83565749Y27967531D01*
X-83275421Y28122714D01*
X-83001702Y28305607D01*
X-82747228Y28514449D01*
X-82514449Y28747228D01*
X-82305607Y29001702D01*
X-82122714Y29275421D01*
X-81967531Y29565749D01*
X-81841552Y29869889D01*
X-81745990Y30184913D01*
X-81681767Y30507787D01*
X-81649500Y30835400D01*
X-81649500Y31164600D01*
X-81649501Y31164607D01*
X81649500Y31164607D01*
X81649500Y30835394D01*
X81681765Y30507802D01*
X81681768Y30507781D01*
X81745986Y30184927D01*
X81841550Y29869894D01*
X81841551Y29869891D01*
X81967531Y29565749D01*
X82122715Y29275419D01*
X82305602Y29001709D01*
X82305613Y29001694D01*
X82514443Y28747235D01*
X82514461Y28747215D01*
X82747214Y28514462D01*
X82747224Y28514453D01*
X82747228Y28514449D01*
X83001702Y28305607D01*
X83275421Y28122714D01*
X83565749Y27967531D01*
X83869889Y27841552D01*
X84184913Y27745990D01*
X84184922Y27745989D01*
X84184926Y27745987D01*
X84315788Y27719958D01*
X84507787Y27681767D01*
X84835400Y27649500D01*
X84835409Y27649500D01*
X85164591Y27649500D01*
X85164600Y27649500D01*
X85492213Y27681767D01*
X85747059Y27732459D01*
X85815073Y27745987D01*
X85815075Y27745988D01*
X85815087Y27745990D01*
X86130111Y27841552D01*
X86434251Y27967531D01*
X86724579Y28122714D01*
X86998298Y28305607D01*
X87252772Y28514449D01*
X87485551Y28747228D01*
X87694393Y29001702D01*
X87877286Y29275421D01*
X88032469Y29565749D01*
X88158448Y29869889D01*
X88254010Y30184913D01*
X88318233Y30507787D01*
X88350500Y30835400D01*
X88350500Y31164600D01*
X88350499Y31164607D01*
X91649500Y31164607D01*
X91649500Y30835394D01*
X91681765Y30507802D01*
X91681768Y30507781D01*
X91745986Y30184927D01*
X91841550Y29869894D01*
X91841551Y29869891D01*
X91967531Y29565749D01*
X92122715Y29275419D01*
X92305602Y29001709D01*
X92305613Y29001694D01*
X92514443Y28747235D01*
X92514461Y28747215D01*
X92747214Y28514462D01*
X92747224Y28514453D01*
X92747228Y28514449D01*
X93001702Y28305607D01*
X93275421Y28122714D01*
X93565749Y27967531D01*
X93869889Y27841552D01*
X94184913Y27745990D01*
X94184922Y27745989D01*
X94184926Y27745987D01*
X94315788Y27719958D01*
X94507787Y27681767D01*
X94835400Y27649500D01*
X94835409Y27649500D01*
X95164591Y27649500D01*
X95164600Y27649500D01*
X95492213Y27681767D01*
X95747059Y27732459D01*
X95815073Y27745987D01*
X95815075Y27745988D01*
X95815087Y27745990D01*
X96130111Y27841552D01*
X96434251Y27967531D01*
X96724579Y28122714D01*
X96998298Y28305607D01*
X97252772Y28514449D01*
X97485551Y28747228D01*
X97694393Y29001702D01*
X97877286Y29275421D01*
X98032469Y29565749D01*
X98158448Y29869889D01*
X98254010Y30184913D01*
X98318233Y30507787D01*
X98350500Y30835400D01*
X98350500Y31164600D01*
X98318233Y31492213D01*
X98254010Y31815087D01*
X98158448Y32130111D01*
X98032469Y32434251D01*
X97877286Y32724579D01*
X97694393Y32998298D01*
X97485551Y33252772D01*
X97485547Y33252776D01*
X97485538Y33252786D01*
X97252785Y33485539D01*
X97252765Y33485557D01*
X96998306Y33694387D01*
X96998291Y33694398D01*
X96724581Y33877285D01*
X96434251Y34032469D01*
X96130109Y34158449D01*
X96130106Y34158450D01*
X95829954Y34249500D01*
X95815087Y34254010D01*
X95815084Y34254011D01*
X95815073Y34254014D01*
X95492219Y34318232D01*
X95492215Y34318233D01*
X95492213Y34318233D01*
X95492209Y34318234D01*
X95492198Y34318235D01*
X95164606Y34350500D01*
X95164600Y34350500D01*
X94835400Y34350500D01*
X94835393Y34350500D01*
X94507801Y34318235D01*
X94507780Y34318232D01*
X94184926Y34254014D01*
X93869893Y34158450D01*
X93869890Y34158449D01*
X93565748Y34032469D01*
X93275418Y33877285D01*
X93001708Y33694398D01*
X93001693Y33694387D01*
X92747234Y33485557D01*
X92747214Y33485539D01*
X92514461Y33252786D01*
X92514443Y33252766D01*
X92305613Y32998307D01*
X92305602Y32998292D01*
X92122715Y32724582D01*
X91967531Y32434252D01*
X91841551Y32130110D01*
X91841550Y32130107D01*
X91745986Y31815074D01*
X91681768Y31492220D01*
X91681765Y31492199D01*
X91649500Y31164607D01*
X88350499Y31164607D01*
X88318233Y31492213D01*
X88254010Y31815087D01*
X88158448Y32130111D01*
X88032469Y32434251D01*
X87877286Y32724579D01*
X87694393Y32998298D01*
X87485551Y33252772D01*
X87485547Y33252776D01*
X87485538Y33252786D01*
X87252785Y33485539D01*
X87252765Y33485557D01*
X86998306Y33694387D01*
X86998291Y33694398D01*
X86724581Y33877285D01*
X86434251Y34032469D01*
X86130109Y34158449D01*
X86130106Y34158450D01*
X85829954Y34249500D01*
X85815087Y34254010D01*
X85815084Y34254011D01*
X85815073Y34254014D01*
X85492219Y34318232D01*
X85492215Y34318233D01*
X85492213Y34318233D01*
X85492209Y34318234D01*
X85492198Y34318235D01*
X85164606Y34350500D01*
X85164600Y34350500D01*
X84835400Y34350500D01*
X84835393Y34350500D01*
X84507801Y34318235D01*
X84507780Y34318232D01*
X84184926Y34254014D01*
X83869893Y34158450D01*
X83869890Y34158449D01*
X83565748Y34032469D01*
X83275418Y33877285D01*
X83001708Y33694398D01*
X83001693Y33694387D01*
X82747234Y33485557D01*
X82747214Y33485539D01*
X82514461Y33252786D01*
X82514443Y33252766D01*
X82305613Y32998307D01*
X82305602Y32998292D01*
X82122715Y32724582D01*
X81967531Y32434252D01*
X81841551Y32130110D01*
X81841550Y32130107D01*
X81745986Y31815074D01*
X81681768Y31492220D01*
X81681765Y31492199D01*
X81649500Y31164607D01*
X-81649501Y31164607D01*
X-81681767Y31492213D01*
X-81745990Y31815087D01*
X-81841552Y32130111D01*
X-81967531Y32434251D01*
X-82122714Y32724579D01*
X-82305607Y32998298D01*
X-82514449Y33252772D01*
X-82514453Y33252776D01*
X-82514462Y33252786D01*
X-82747215Y33485539D01*
X-82747235Y33485557D01*
X-83001694Y33694387D01*
X-83001709Y33694398D01*
X-83275419Y33877285D01*
X-83565749Y34032469D01*
X-83869891Y34158449D01*
X-83869894Y34158450D01*
X-84170046Y34249500D01*
X-84184913Y34254010D01*
X-84184916Y34254011D01*
X-84184927Y34254014D01*
X-84507781Y34318232D01*
X-84507785Y34318233D01*
X-84507787Y34318233D01*
X-84507791Y34318234D01*
X-84507802Y34318235D01*
X-84835394Y34350500D01*
X-84835400Y34350500D01*
X-85164600Y34350500D01*
X-85164607Y34350500D01*
X-85492199Y34318235D01*
X-85492220Y34318232D01*
X-85815074Y34254014D01*
X-86130107Y34158450D01*
X-86130110Y34158449D01*
X-86434252Y34032469D01*
X-86724582Y33877285D01*
X-86998292Y33694398D01*
X-86998307Y33694387D01*
X-87252766Y33485557D01*
X-87252786Y33485539D01*
X-87485539Y33252786D01*
X-87485557Y33252766D01*
X-87694387Y32998307D01*
X-87694398Y32998292D01*
X-87877285Y32724582D01*
X-88032469Y32434252D01*
X-88158449Y32130110D01*
X-88158450Y32130107D01*
X-88254014Y31815074D01*
X-88318232Y31492220D01*
X-88318235Y31492199D01*
X-88350500Y31164607D01*
X-91649501Y31164607D01*
X-91681767Y31492213D01*
X-91745990Y31815087D01*
X-91841552Y32130111D01*
X-91967531Y32434251D01*
X-92122714Y32724579D01*
X-92305607Y32998298D01*
X-92514449Y33252772D01*
X-92514453Y33252776D01*
X-92514462Y33252786D01*
X-92747215Y33485539D01*
X-92747235Y33485557D01*
X-93001694Y33694387D01*
X-93001709Y33694398D01*
X-93275419Y33877285D01*
X-93565749Y34032469D01*
X-93869891Y34158449D01*
X-93869894Y34158450D01*
X-94170046Y34249500D01*
X-94184913Y34254010D01*
X-94184916Y34254011D01*
X-94184927Y34254014D01*
X-94507781Y34318232D01*
X-94507785Y34318233D01*
X-94507787Y34318233D01*
X-94507791Y34318234D01*
X-94507802Y34318235D01*
X-94835394Y34350500D01*
X-94835400Y34350500D01*
X-95164600Y34350500D01*
X-95164607Y34350500D01*
X-95492199Y34318235D01*
X-95492220Y34318232D01*
X-95815074Y34254014D01*
X-96130107Y34158450D01*
X-96130110Y34158449D01*
X-96434252Y34032469D01*
X-96724582Y33877285D01*
X-96998292Y33694398D01*
X-96998307Y33694387D01*
X-97252766Y33485557D01*
X-97252786Y33485539D01*
X-97485539Y33252786D01*
X-97485557Y33252766D01*
X-97694387Y32998307D01*
X-97694398Y32998292D01*
X-97877285Y32724582D01*
X-98032469Y32434252D01*
X-98158449Y32130110D01*
X-98158450Y32130107D01*
X-98254014Y31815074D01*
X-98318232Y31492220D01*
X-98318235Y31492199D01*
X-98350500Y31164607D01*
X-99989500Y31164607D01*
X-99989500Y35996549D01*
X-99989339Y36002915D01*
X-99931083Y37154466D01*
X-92750500Y37154466D01*
X-92750500Y36845535D01*
X-92715911Y36538544D01*
X-92675250Y36360397D01*
X-92647168Y36237364D01*
X-92647166Y36237358D01*
X-92647167Y36237358D01*
X-92545142Y35945789D01*
X-92545131Y35945762D01*
X-92411098Y35667440D01*
X-92411093Y35667431D01*
X-92246735Y35405857D01*
X-92054118Y35164323D01*
X-91835678Y34945883D01*
X-91835674Y34945880D01*
X-91594143Y34753265D01*
X-91332565Y34588905D01*
X-91054229Y34454865D01*
X-91054213Y34454860D01*
X-91054212Y34454859D01*
X-90762643Y34352834D01*
X-90762640Y34352834D01*
X-90762636Y34352832D01*
X-90539710Y34301951D01*
X-90461457Y34284090D01*
X-90461456Y34284090D01*
X-90461452Y34284089D01*
X-90217435Y34256595D01*
X-90154466Y34249500D01*
X-90154465Y34249500D01*
X-89845534Y34249500D01*
X-89793283Y34255388D01*
X-89538548Y34284089D01*
X-89237364Y34352832D01*
X-88945771Y34454865D01*
X-88667435Y34588905D01*
X-88405857Y34753265D01*
X-88164326Y34945880D01*
X-87945880Y35164326D01*
X-87753265Y35405857D01*
X-87588905Y35667435D01*
X-87454865Y35945771D01*
X-87352832Y36237364D01*
X-87284089Y36538548D01*
X-87249500Y36845535D01*
X-87249500Y37154465D01*
X-87249500Y37154466D01*
X87249500Y37154466D01*
X87249500Y36845535D01*
X87284089Y36538544D01*
X87324750Y36360397D01*
X87352832Y36237364D01*
X87352834Y36237358D01*
X87352833Y36237358D01*
X87454858Y35945789D01*
X87454869Y35945762D01*
X87588902Y35667440D01*
X87588907Y35667431D01*
X87753265Y35405857D01*
X87945882Y35164323D01*
X88164322Y34945883D01*
X88164326Y34945880D01*
X88405857Y34753265D01*
X88667435Y34588905D01*
X88945771Y34454865D01*
X88945787Y34454860D01*
X88945788Y34454859D01*
X89237357Y34352834D01*
X89237360Y34352834D01*
X89237364Y34352832D01*
X89460290Y34301951D01*
X89538543Y34284090D01*
X89538544Y34284090D01*
X89538548Y34284089D01*
X89782565Y34256595D01*
X89845534Y34249500D01*
X89845535Y34249500D01*
X90154466Y34249500D01*
X90206717Y34255388D01*
X90461452Y34284089D01*
X90762636Y34352832D01*
X91054229Y34454865D01*
X91332565Y34588905D01*
X91594143Y34753265D01*
X91835674Y34945880D01*
X92054120Y35164326D01*
X92246735Y35405857D01*
X92411095Y35667435D01*
X92545135Y35945771D01*
X92647168Y36237364D01*
X92715911Y36538548D01*
X92750500Y36845535D01*
X92750500Y37154465D01*
X92749384Y37164366D01*
X92715910Y37461457D01*
X92709620Y37489012D01*
X92647168Y37762636D01*
X92545135Y38054229D01*
X92411095Y38332565D01*
X92246735Y38594143D01*
X92054120Y38835674D01*
X92054117Y38835678D01*
X91835677Y39054118D01*
X91594143Y39246735D01*
X91332569Y39411093D01*
X91332560Y39411098D01*
X91054238Y39545131D01*
X91054233Y39545133D01*
X91054229Y39545135D01*
X91054223Y39545138D01*
X91054211Y39545142D01*
X90762642Y39647167D01*
X90461456Y39715911D01*
X90154466Y39750500D01*
X90154465Y39750500D01*
X89845535Y39750500D01*
X89845534Y39750500D01*
X89538543Y39715911D01*
X89237357Y39647167D01*
X88945788Y39545142D01*
X88945761Y39545131D01*
X88667439Y39411098D01*
X88667430Y39411093D01*
X88405856Y39246735D01*
X88164322Y39054118D01*
X87945882Y38835678D01*
X87753265Y38594144D01*
X87588907Y38332570D01*
X87588902Y38332561D01*
X87454869Y38054239D01*
X87454858Y38054212D01*
X87352833Y37762643D01*
X87284089Y37461457D01*
X87249500Y37154466D01*
X-87249500Y37154466D01*
X-87250616Y37164366D01*
X-87284090Y37461457D01*
X-87290380Y37489012D01*
X-87352832Y37762636D01*
X-87454865Y38054229D01*
X-87588905Y38332565D01*
X-87753265Y38594143D01*
X-87945880Y38835674D01*
X-87945883Y38835678D01*
X-88164323Y39054118D01*
X-88405857Y39246735D01*
X-88667431Y39411093D01*
X-88667440Y39411098D01*
X-88945762Y39545131D01*
X-88945767Y39545133D01*
X-88945771Y39545135D01*
X-88945777Y39545138D01*
X-88945789Y39545142D01*
X-89237358Y39647167D01*
X-89538544Y39715911D01*
X-89845534Y39750500D01*
X-89845535Y39750500D01*
X-90154465Y39750500D01*
X-90154466Y39750500D01*
X-90461457Y39715911D01*
X-90762643Y39647167D01*
X-91054212Y39545142D01*
X-91054239Y39545131D01*
X-91332561Y39411098D01*
X-91332570Y39411093D01*
X-91594144Y39246735D01*
X-91835678Y39054118D01*
X-92054118Y38835678D01*
X-92246735Y38594144D01*
X-92411093Y38332570D01*
X-92411098Y38332561D01*
X-92545131Y38054239D01*
X-92545142Y38054212D01*
X-92647167Y37762643D01*
X-92715911Y37461457D01*
X-92750500Y37154466D01*
X-99931083Y37154466D01*
X-99930582Y37164366D01*
X-99857266Y38613602D01*
X-99856243Y38624461D01*
X-99502009Y41187030D01*
X-99500020Y41197881D01*
X-99049548Y43164607D01*
X-98350500Y43164607D01*
X-98350500Y42835394D01*
X-98318235Y42507802D01*
X-98318232Y42507781D01*
X-98254014Y42184927D01*
X-98158450Y41869894D01*
X-98158449Y41869891D01*
X-98032469Y41565749D01*
X-97877285Y41275419D01*
X-97694398Y41001709D01*
X-97694387Y41001694D01*
X-97485557Y40747235D01*
X-97485539Y40747215D01*
X-97252786Y40514462D01*
X-97252776Y40514453D01*
X-97252772Y40514449D01*
X-96998298Y40305607D01*
X-96724579Y40122714D01*
X-96434251Y39967531D01*
X-96130111Y39841552D01*
X-95815087Y39745990D01*
X-95815078Y39745989D01*
X-95815074Y39745987D01*
X-95684212Y39719958D01*
X-95492213Y39681767D01*
X-95164600Y39649500D01*
X-95164591Y39649500D01*
X-94835409Y39649500D01*
X-94835400Y39649500D01*
X-94507787Y39681767D01*
X-94252941Y39732459D01*
X-94184927Y39745987D01*
X-94184925Y39745988D01*
X-94184913Y39745990D01*
X-93869889Y39841552D01*
X-93565749Y39967531D01*
X-93275421Y40122714D01*
X-93001702Y40305607D01*
X-92747228Y40514449D01*
X-92514449Y40747228D01*
X-92305607Y41001702D01*
X-92122714Y41275421D01*
X-91967531Y41565749D01*
X-91841552Y41869889D01*
X-91745990Y42184913D01*
X-91681767Y42507787D01*
X-91649500Y42835400D01*
X-91649500Y43164600D01*
X-91649501Y43164607D01*
X-88350500Y43164607D01*
X-88350500Y42835394D01*
X-88318235Y42507802D01*
X-88318232Y42507781D01*
X-88254014Y42184927D01*
X-88158450Y41869894D01*
X-88158449Y41869891D01*
X-88032469Y41565749D01*
X-87877285Y41275419D01*
X-87694398Y41001709D01*
X-87694387Y41001694D01*
X-87485557Y40747235D01*
X-87485539Y40747215D01*
X-87252786Y40514462D01*
X-87252776Y40514453D01*
X-87252772Y40514449D01*
X-86998298Y40305607D01*
X-86724579Y40122714D01*
X-86434251Y39967531D01*
X-86130111Y39841552D01*
X-85815087Y39745990D01*
X-85815078Y39745989D01*
X-85815074Y39745987D01*
X-85684212Y39719958D01*
X-85492213Y39681767D01*
X-85164600Y39649500D01*
X-85164591Y39649500D01*
X-84835409Y39649500D01*
X-84835400Y39649500D01*
X-84507787Y39681767D01*
X-84252941Y39732459D01*
X-84184927Y39745987D01*
X-84184925Y39745988D01*
X-84184913Y39745990D01*
X-83869889Y39841552D01*
X-83565749Y39967531D01*
X-83275421Y40122714D01*
X-83001702Y40305607D01*
X-82747228Y40514449D01*
X-82514449Y40747228D01*
X-82305607Y41001702D01*
X-82122714Y41275421D01*
X-81967531Y41565749D01*
X-81841552Y41869889D01*
X-81745990Y42184913D01*
X-81681767Y42507787D01*
X-81649500Y42835400D01*
X-81649500Y43164600D01*
X-81649501Y43164607D01*
X81649500Y43164607D01*
X81649500Y42835394D01*
X81681765Y42507802D01*
X81681768Y42507781D01*
X81745986Y42184927D01*
X81841550Y41869894D01*
X81841551Y41869891D01*
X81967531Y41565749D01*
X82122715Y41275419D01*
X82305602Y41001709D01*
X82305613Y41001694D01*
X82514443Y40747235D01*
X82514461Y40747215D01*
X82747214Y40514462D01*
X82747224Y40514453D01*
X82747228Y40514449D01*
X83001702Y40305607D01*
X83275421Y40122714D01*
X83565749Y39967531D01*
X83869889Y39841552D01*
X84184913Y39745990D01*
X84184922Y39745989D01*
X84184926Y39745987D01*
X84315788Y39719958D01*
X84507787Y39681767D01*
X84835400Y39649500D01*
X84835409Y39649500D01*
X85164591Y39649500D01*
X85164600Y39649500D01*
X85492213Y39681767D01*
X85747059Y39732459D01*
X85815073Y39745987D01*
X85815075Y39745988D01*
X85815087Y39745990D01*
X86130111Y39841552D01*
X86434251Y39967531D01*
X86724579Y40122714D01*
X86998298Y40305607D01*
X87252772Y40514449D01*
X87485551Y40747228D01*
X87694393Y41001702D01*
X87877286Y41275421D01*
X88032469Y41565749D01*
X88158448Y41869889D01*
X88254010Y42184913D01*
X88318233Y42507787D01*
X88350500Y42835400D01*
X88350500Y43164600D01*
X88350499Y43164607D01*
X91649500Y43164607D01*
X91649500Y42835394D01*
X91681765Y42507802D01*
X91681768Y42507781D01*
X91745986Y42184927D01*
X91841550Y41869894D01*
X91841551Y41869891D01*
X91967531Y41565749D01*
X92122715Y41275419D01*
X92305602Y41001709D01*
X92305613Y41001694D01*
X92514443Y40747235D01*
X92514461Y40747215D01*
X92747214Y40514462D01*
X92747224Y40514453D01*
X92747228Y40514449D01*
X93001702Y40305607D01*
X93275421Y40122714D01*
X93565749Y39967531D01*
X93869889Y39841552D01*
X94184913Y39745990D01*
X94184922Y39745989D01*
X94184926Y39745987D01*
X94315788Y39719958D01*
X94507787Y39681767D01*
X94835400Y39649500D01*
X94835409Y39649500D01*
X95164591Y39649500D01*
X95164600Y39649500D01*
X95492213Y39681767D01*
X95747059Y39732459D01*
X95815073Y39745987D01*
X95815075Y39745988D01*
X95815087Y39745990D01*
X96130111Y39841552D01*
X96434251Y39967531D01*
X96724579Y40122714D01*
X96998298Y40305607D01*
X97252772Y40514449D01*
X97485551Y40747228D01*
X97694393Y41001702D01*
X97877286Y41275421D01*
X98032469Y41565749D01*
X98158448Y41869889D01*
X98254010Y42184913D01*
X98318233Y42507787D01*
X98350500Y42835400D01*
X98350500Y43164600D01*
X98318233Y43492213D01*
X98254010Y43815087D01*
X98158448Y44130111D01*
X98032469Y44434251D01*
X97877286Y44724579D01*
X97694393Y44998298D01*
X97485551Y45252772D01*
X97485547Y45252776D01*
X97485538Y45252786D01*
X97252785Y45485539D01*
X97252765Y45485557D01*
X96998306Y45694387D01*
X96998291Y45694398D01*
X96724581Y45877285D01*
X96434251Y46032469D01*
X96130109Y46158449D01*
X96130106Y46158450D01*
X95921593Y46221702D01*
X95815087Y46254010D01*
X95815084Y46254011D01*
X95815073Y46254014D01*
X95492219Y46318232D01*
X95492215Y46318233D01*
X95492213Y46318233D01*
X95492209Y46318234D01*
X95492198Y46318235D01*
X95164606Y46350500D01*
X95164600Y46350500D01*
X94835400Y46350500D01*
X94835393Y46350500D01*
X94507801Y46318235D01*
X94507780Y46318232D01*
X94184926Y46254014D01*
X93869893Y46158450D01*
X93869890Y46158449D01*
X93565748Y46032469D01*
X93275418Y45877285D01*
X93001708Y45694398D01*
X93001693Y45694387D01*
X92747234Y45485557D01*
X92747214Y45485539D01*
X92514461Y45252786D01*
X92514443Y45252766D01*
X92305613Y44998307D01*
X92305602Y44998292D01*
X92122715Y44724582D01*
X91967531Y44434252D01*
X91841551Y44130110D01*
X91841550Y44130107D01*
X91745986Y43815074D01*
X91681768Y43492220D01*
X91681765Y43492199D01*
X91649500Y43164607D01*
X88350499Y43164607D01*
X88318233Y43492213D01*
X88254010Y43815087D01*
X88158448Y44130111D01*
X88032469Y44434251D01*
X87877286Y44724579D01*
X87694393Y44998298D01*
X87485551Y45252772D01*
X87485547Y45252776D01*
X87485538Y45252786D01*
X87252785Y45485539D01*
X87252765Y45485557D01*
X86998306Y45694387D01*
X86998291Y45694398D01*
X86724581Y45877285D01*
X86434251Y46032469D01*
X86130109Y46158449D01*
X86130106Y46158450D01*
X85921593Y46221702D01*
X85815087Y46254010D01*
X85815084Y46254011D01*
X85815073Y46254014D01*
X85492219Y46318232D01*
X85492215Y46318233D01*
X85492213Y46318233D01*
X85492209Y46318234D01*
X85492198Y46318235D01*
X85164606Y46350500D01*
X85164600Y46350500D01*
X84835400Y46350500D01*
X84835393Y46350500D01*
X84507801Y46318235D01*
X84507780Y46318232D01*
X84184926Y46254014D01*
X83869893Y46158450D01*
X83869890Y46158449D01*
X83565748Y46032469D01*
X83275418Y45877285D01*
X83001708Y45694398D01*
X83001693Y45694387D01*
X82747234Y45485557D01*
X82747214Y45485539D01*
X82514461Y45252786D01*
X82514443Y45252766D01*
X82305613Y44998307D01*
X82305602Y44998292D01*
X82122715Y44724582D01*
X81967531Y44434252D01*
X81841551Y44130110D01*
X81841550Y44130107D01*
X81745986Y43815074D01*
X81681768Y43492220D01*
X81681765Y43492199D01*
X81649500Y43164607D01*
X-81649501Y43164607D01*
X-81681767Y43492213D01*
X-81745990Y43815087D01*
X-81841552Y44130111D01*
X-81967531Y44434251D01*
X-82122714Y44724579D01*
X-82305607Y44998298D01*
X-82514449Y45252772D01*
X-82514453Y45252776D01*
X-82514462Y45252786D01*
X-82747215Y45485539D01*
X-82747235Y45485557D01*
X-83001694Y45694387D01*
X-83001709Y45694398D01*
X-83275419Y45877285D01*
X-83565749Y46032469D01*
X-83869891Y46158449D01*
X-83869894Y46158450D01*
X-84078407Y46221702D01*
X-84184913Y46254010D01*
X-84184916Y46254011D01*
X-84184927Y46254014D01*
X-84507781Y46318232D01*
X-84507785Y46318233D01*
X-84507787Y46318233D01*
X-84507791Y46318234D01*
X-84507802Y46318235D01*
X-84835394Y46350500D01*
X-84835400Y46350500D01*
X-85164600Y46350500D01*
X-85164607Y46350500D01*
X-85492199Y46318235D01*
X-85492220Y46318232D01*
X-85815074Y46254014D01*
X-86130107Y46158450D01*
X-86130110Y46158449D01*
X-86434252Y46032469D01*
X-86724582Y45877285D01*
X-86998292Y45694398D01*
X-86998307Y45694387D01*
X-87252766Y45485557D01*
X-87252786Y45485539D01*
X-87485539Y45252786D01*
X-87485557Y45252766D01*
X-87694387Y44998307D01*
X-87694398Y44998292D01*
X-87877285Y44724582D01*
X-88032469Y44434252D01*
X-88158449Y44130110D01*
X-88158450Y44130107D01*
X-88254014Y43815074D01*
X-88318232Y43492220D01*
X-88318235Y43492199D01*
X-88350500Y43164607D01*
X-91649501Y43164607D01*
X-91681767Y43492213D01*
X-91745990Y43815087D01*
X-91841552Y44130111D01*
X-91967531Y44434251D01*
X-92122714Y44724579D01*
X-92305607Y44998298D01*
X-92514449Y45252772D01*
X-92514453Y45252776D01*
X-92514462Y45252786D01*
X-92747215Y45485539D01*
X-92747235Y45485557D01*
X-93001694Y45694387D01*
X-93001709Y45694398D01*
X-93275419Y45877285D01*
X-93565749Y46032469D01*
X-93869891Y46158449D01*
X-93869894Y46158450D01*
X-94078407Y46221702D01*
X-94184913Y46254010D01*
X-94184916Y46254011D01*
X-94184927Y46254014D01*
X-94507781Y46318232D01*
X-94507785Y46318233D01*
X-94507787Y46318233D01*
X-94507791Y46318234D01*
X-94507802Y46318235D01*
X-94835394Y46350500D01*
X-94835400Y46350500D01*
X-95164600Y46350500D01*
X-95164607Y46350500D01*
X-95492199Y46318235D01*
X-95492220Y46318232D01*
X-95815074Y46254014D01*
X-96130107Y46158450D01*
X-96130110Y46158449D01*
X-96434252Y46032469D01*
X-96724582Y45877285D01*
X-96998292Y45694398D01*
X-96998307Y45694387D01*
X-97252766Y45485557D01*
X-97252786Y45485539D01*
X-97485539Y45252786D01*
X-97485557Y45252766D01*
X-97694387Y44998307D01*
X-97694398Y44998292D01*
X-97877285Y44724582D01*
X-98032469Y44434252D01*
X-98158449Y44130110D01*
X-98158450Y44130107D01*
X-98254014Y43815074D01*
X-98318232Y43492220D01*
X-98318235Y43492199D01*
X-98350500Y43164607D01*
X-99049548Y43164607D01*
X-98923515Y43714859D01*
X-98920597Y43725452D01*
X-98121734Y46197173D01*
X-98117985Y46207270D01*
X-97096648Y48633891D01*
X-97092201Y48643338D01*
X-95848208Y51025058D01*
X-95843260Y51033680D01*
X-94376398Y53370630D01*
X-94371118Y53378383D01*
X-92681866Y55669690D01*
X-92675106Y55678083D01*
X-91141086Y57423598D01*
X-79633000Y57423598D01*
X-79633000Y56779000D01*
X-78705703Y56779000D01*
X-78740925Y56717993D01*
X-78775000Y56590826D01*
X-78775000Y56459174D01*
X-78740925Y56332007D01*
X-78705703Y56271000D01*
X-79633000Y56271000D01*
X-79633000Y55626403D01*
X-79626495Y55565907D01*
X-79575445Y55429036D01*
X-79575445Y55429035D01*
X-79487905Y55312096D01*
X-79370966Y55224556D01*
X-79244664Y55177448D01*
X-79187828Y55134901D01*
X-79163017Y55068381D01*
X-79178108Y54999007D01*
X-79199600Y54970297D01*
X-79305104Y54864793D01*
X-79430049Y54692820D01*
X-79466241Y54621789D01*
X-79526557Y54503412D01*
X-79592246Y54301243D01*
X-79625500Y54091287D01*
X-79625500Y53878713D01*
X-79592246Y53668757D01*
X-79526557Y53466588D01*
X-79430051Y53277184D01*
X-79305104Y53105208D01*
X-79305102Y53105206D01*
X-79305100Y53105203D01*
X-79154798Y52954901D01*
X-79154795Y52954899D01*
X-79154792Y52954896D01*
X-78982816Y52829949D01*
X-78979683Y52828353D01*
X-78977549Y52827265D01*
X-78925935Y52778516D01*
X-78908871Y52709600D01*
X-78931774Y52642399D01*
X-78977549Y52602735D01*
X-78982817Y52600051D01*
X-79154795Y52475102D01*
X-79154798Y52475100D01*
X-79305100Y52324798D01*
X-79305102Y52324795D01*
X-79430049Y52152820D01*
X-79430051Y52152816D01*
X-79526557Y51963412D01*
X-79592246Y51761243D01*
X-79625500Y51551287D01*
X-79625500Y51338713D01*
X-79592246Y51128757D01*
X-79526557Y50926588D01*
X-79430051Y50737184D01*
X-79305104Y50565208D01*
X-79305102Y50565206D01*
X-79305100Y50565203D01*
X-79154798Y50414901D01*
X-79154795Y50414899D01*
X-79154792Y50414896D01*
X-78982816Y50289949D01*
X-78793412Y50193443D01*
X-78591243Y50127754D01*
X-78381287Y50094500D01*
X-78381284Y50094500D01*
X-78168716Y50094500D01*
X-78168713Y50094500D01*
X-77958757Y50127754D01*
X-77756588Y50193443D01*
X-77567184Y50289949D01*
X-77395208Y50414896D01*
X-77244896Y50565208D01*
X-77119949Y50737184D01*
X-77117267Y50742449D01*
X-77068520Y50794063D01*
X-76999606Y50811130D01*
X-76932404Y50788230D01*
X-76892734Y50742449D01*
X-76890051Y50737184D01*
X-76765104Y50565208D01*
X-76765102Y50565206D01*
X-76765100Y50565203D01*
X-76614798Y50414901D01*
X-76614795Y50414899D01*
X-76614792Y50414896D01*
X-76442816Y50289949D01*
X-76253412Y50193443D01*
X-76051243Y50127754D01*
X-75841287Y50094500D01*
X-75841284Y50094500D01*
X-75628716Y50094500D01*
X-75628713Y50094500D01*
X-75418757Y50127754D01*
X-75216588Y50193443D01*
X-75027184Y50289949D01*
X-74855208Y50414896D01*
X-74704896Y50565208D01*
X-74579949Y50737184D01*
X-74483443Y50926588D01*
X-74417754Y51128757D01*
X-74384500Y51338713D01*
X-74384500Y51528845D01*
X-68300500Y51528845D01*
X-68300500Y51371156D01*
X-68269737Y51216503D01*
X-68209394Y51070821D01*
X-68121789Y50939711D01*
X-68010289Y50828211D01*
X-67879179Y50740606D01*
X-67733497Y50680263D01*
X-67578842Y50649500D01*
X-67578841Y50649500D01*
X-67421159Y50649500D01*
X-67421158Y50649500D01*
X-67266503Y50680263D01*
X-67120821Y50740606D01*
X-67103493Y50752184D01*
X-67064459Y50778265D01*
X-66996707Y50799480D01*
X-66994458Y50799500D01*
X-66424636Y50799500D01*
X-66356515Y50779498D01*
X-66310022Y50725842D01*
X-66299918Y50655568D01*
X-66329412Y50590988D01*
X-66335541Y50584405D01*
X-66732541Y50187405D01*
X-66759910Y50172461D01*
X-66786138Y50155604D01*
X-66792437Y50154699D01*
X-66794853Y50153379D01*
X-66821636Y50150500D01*
X-66994458Y50150500D01*
X-67062579Y50170502D01*
X-67064459Y50171735D01*
X-67120817Y50209392D01*
X-67120821Y50209394D01*
X-67266498Y50269735D01*
X-67266503Y50269737D01*
X-67421156Y50300500D01*
X-67421158Y50300500D01*
X-67578842Y50300500D01*
X-67578845Y50300500D01*
X-67733498Y50269737D01*
X-67733503Y50269735D01*
X-67879180Y50209394D01*
X-68010285Y50121792D01*
X-68010292Y50121787D01*
X-68121787Y50010292D01*
X-68121792Y50010285D01*
X-68209394Y49879180D01*
X-68269735Y49733503D01*
X-68269737Y49733498D01*
X-68300500Y49578845D01*
X-68300500Y49578842D01*
X-68300500Y49421158D01*
X-68269737Y49266503D01*
X-68209394Y49120821D01*
X-68121789Y48989711D01*
X-68010289Y48878211D01*
X-67879179Y48790606D01*
X-67733497Y48730263D01*
X-67578842Y48699500D01*
X-67578841Y48699500D01*
X-67421159Y48699500D01*
X-67421158Y48699500D01*
X-67266503Y48730263D01*
X-67120821Y48790606D01*
X-67106112Y48800435D01*
X-67064459Y48828265D01*
X-66996707Y48849480D01*
X-66994458Y48849500D01*
X-66435936Y48849500D01*
X-66435931Y48849500D01*
X-66310256Y48874499D01*
X-66191873Y48923535D01*
X-66085331Y48994723D01*
X-46397499Y68682557D01*
X-46335189Y68716581D01*
X-46332986Y68717039D01*
X-46266508Y68730262D01*
X-46266508Y68730263D01*
X-46266503Y68730263D01*
X-46120821Y68790606D01*
X-45989711Y68878211D01*
X-45878211Y68989711D01*
X-45878206Y68989720D01*
X-45874280Y68994501D01*
X-45872142Y68992746D01*
X-45826863Y69030636D01*
X-45756425Y69039530D01*
X-45692362Y69008930D01*
X-45655011Y68948552D01*
X-45650500Y68915139D01*
X-45650500Y56505543D01*
X-45670502Y56437422D01*
X-45671734Y56435542D01*
X-45709395Y56379179D01*
X-45769735Y56233503D01*
X-45769737Y56233498D01*
X-45800500Y56078845D01*
X-45800500Y55921156D01*
X-45782961Y55832985D01*
X-45769737Y55766503D01*
X-45709394Y55620821D01*
X-45621789Y55489711D01*
X-45510289Y55378211D01*
X-45379179Y55290606D01*
X-45233497Y55230263D01*
X-45078842Y55199500D01*
X-45078841Y55199500D01*
X-44921159Y55199500D01*
X-44921158Y55199500D01*
X-44766503Y55230263D01*
X-44620821Y55290606D01*
X-44489711Y55378211D01*
X-44378211Y55489711D01*
X-44290606Y55620821D01*
X-44230263Y55766503D01*
X-44199500Y55921158D01*
X-44199500Y56078842D01*
X-44230263Y56233497D01*
X-44290606Y56379179D01*
X-44328266Y56435542D01*
X-44334009Y56453882D01*
X-44344396Y56470045D01*
X-44348920Y56501505D01*
X-44349480Y56503295D01*
X-44349500Y56505543D01*
X-44349500Y56625364D01*
X-44329498Y56693485D01*
X-44275842Y56739978D01*
X-44205568Y56750082D01*
X-44140988Y56720588D01*
X-44134405Y56714459D01*
X-43317446Y55897500D01*
X-43283420Y55835188D01*
X-43282962Y55832988D01*
X-43269737Y55766501D01*
X-43269736Y55766500D01*
X-43231435Y55674034D01*
X-43209394Y55620821D01*
X-43121789Y55489711D01*
X-43010289Y55378211D01*
X-42879179Y55290606D01*
X-42733497Y55230263D01*
X-42578842Y55199500D01*
X-42578841Y55199500D01*
X-42421159Y55199500D01*
X-42421158Y55199500D01*
X-42266503Y55230263D01*
X-42120821Y55290606D01*
X-41989711Y55378211D01*
X-41878211Y55489711D01*
X-41790606Y55620821D01*
X-41730263Y55766503D01*
X-41699500Y55921158D01*
X-41699500Y56078842D01*
X-41730263Y56233497D01*
X-41790606Y56379179D01*
X-41878211Y56510289D01*
X-41989711Y56621789D01*
X-42120821Y56709394D01*
X-42159084Y56725243D01*
X-42266500Y56769736D01*
X-42266501Y56769737D01*
X-42332988Y56782962D01*
X-42395897Y56815871D01*
X-42397500Y56817446D01*
X-43312595Y57732541D01*
X-43346621Y57794853D01*
X-43349500Y57821636D01*
X-43349500Y58125364D01*
X-43329498Y58193485D01*
X-43275842Y58239978D01*
X-43205568Y58250082D01*
X-43140988Y58220588D01*
X-43134405Y58214459D01*
X-40817446Y55897500D01*
X-40783420Y55835188D01*
X-40782962Y55832988D01*
X-40769737Y55766501D01*
X-40769736Y55766500D01*
X-40731435Y55674034D01*
X-40709394Y55620821D01*
X-40621789Y55489711D01*
X-40510289Y55378211D01*
X-40379179Y55290606D01*
X-40233497Y55230263D01*
X-40078842Y55199500D01*
X-40078841Y55199500D01*
X-39921159Y55199500D01*
X-39921158Y55199500D01*
X-39766503Y55230263D01*
X-39620821Y55290606D01*
X-39489711Y55378211D01*
X-39378211Y55489711D01*
X-39290606Y55620821D01*
X-39230263Y55766503D01*
X-39199500Y55921158D01*
X-39199500Y56078842D01*
X-39230263Y56233497D01*
X-39290606Y56379179D01*
X-39378211Y56510289D01*
X-39489711Y56621789D01*
X-39620821Y56709394D01*
X-39659084Y56725243D01*
X-39766500Y56769736D01*
X-39766501Y56769737D01*
X-39832988Y56782962D01*
X-39895897Y56815871D01*
X-39897500Y56817446D01*
X-42312595Y59232541D01*
X-42346621Y59294853D01*
X-42349500Y59321636D01*
X-42349500Y59625364D01*
X-42329498Y59693485D01*
X-42275842Y59739978D01*
X-42205568Y59750082D01*
X-42140988Y59720588D01*
X-42134405Y59714459D01*
X-38317446Y55897500D01*
X-38283420Y55835188D01*
X-38282962Y55832988D01*
X-38269737Y55766501D01*
X-38269736Y55766500D01*
X-38231435Y55674034D01*
X-38209394Y55620821D01*
X-38121789Y55489711D01*
X-38010289Y55378211D01*
X-37879179Y55290606D01*
X-37733497Y55230263D01*
X-37578842Y55199500D01*
X-37578841Y55199500D01*
X-37421159Y55199500D01*
X-37421158Y55199500D01*
X-37266503Y55230263D01*
X-37120821Y55290606D01*
X-36989711Y55378211D01*
X-36878211Y55489711D01*
X-36790606Y55620821D01*
X-36730263Y55766503D01*
X-36699500Y55921158D01*
X-36699500Y56078842D01*
X-36699501Y56078845D01*
X33199500Y56078845D01*
X33199500Y55921156D01*
X33217039Y55832985D01*
X33230263Y55766503D01*
X33290606Y55620821D01*
X33378211Y55489711D01*
X33489711Y55378211D01*
X33620821Y55290606D01*
X33766503Y55230263D01*
X33921158Y55199500D01*
X33921159Y55199500D01*
X33975363Y55199500D01*
X33996950Y55193162D01*
X34019396Y55191556D01*
X34030352Y55183354D01*
X34043484Y55179498D01*
X34058218Y55162493D01*
X34076231Y55149009D01*
X34081013Y55136187D01*
X34089977Y55125842D01*
X34093179Y55103569D01*
X34101042Y55082488D01*
X34098133Y55069117D01*
X34100081Y55055568D01*
X34090732Y55035100D01*
X34085950Y55013114D01*
X34072465Y54995101D01*
X34070587Y54990988D01*
X34064471Y54984419D01*
X33959851Y54879798D01*
X33897498Y54817445D01*
X33835186Y54783420D01*
X33832987Y54782962D01*
X33799780Y54776357D01*
X33766503Y54769737D01*
X33766502Y54769737D01*
X33766499Y54769736D01*
X33620820Y54709394D01*
X33489715Y54621792D01*
X33489708Y54621787D01*
X33378213Y54510292D01*
X33378208Y54510285D01*
X33290606Y54379180D01*
X33230265Y54233503D01*
X33230263Y54233498D01*
X33199500Y54078845D01*
X33199500Y53921156D01*
X33230262Y53766508D01*
X33230263Y53766503D01*
X33290606Y53620821D01*
X33378211Y53489711D01*
X33489711Y53378211D01*
X33620821Y53290606D01*
X33766503Y53230263D01*
X33921158Y53199500D01*
X33921159Y53199500D01*
X34078841Y53199500D01*
X34078842Y53199500D01*
X34233497Y53230263D01*
X34379179Y53290606D01*
X34510289Y53378211D01*
X34621789Y53489711D01*
X34709394Y53620821D01*
X34769737Y53766503D01*
X34782961Y53832986D01*
X34815867Y53895896D01*
X34817386Y53897442D01*
X36584090Y55664146D01*
X36646400Y55698170D01*
X36717215Y55693105D01*
X36774051Y55650558D01*
X36789587Y55623279D01*
X36790603Y55620827D01*
X36790605Y55620822D01*
X36799389Y55607676D01*
X36878211Y55489711D01*
X36989711Y55378211D01*
X37120821Y55290606D01*
X37266503Y55230263D01*
X37421158Y55199500D01*
X37421159Y55199500D01*
X37578841Y55199500D01*
X37578842Y55199500D01*
X37733497Y55230263D01*
X37879179Y55290606D01*
X38010289Y55378211D01*
X38121789Y55489711D01*
X38209394Y55620821D01*
X38269737Y55766503D01*
X38282961Y55832986D01*
X38315867Y55895896D01*
X38317386Y55897442D01*
X42134407Y59714462D01*
X42196717Y59748486D01*
X42267533Y59743421D01*
X42324368Y59700874D01*
X42349179Y59634354D01*
X42349500Y59625365D01*
X42349500Y59321637D01*
X42329498Y59253516D01*
X42312595Y59232542D01*
X39897498Y56817446D01*
X39835186Y56783420D01*
X39832987Y56782962D01*
X39813070Y56779000D01*
X39766503Y56769737D01*
X39766502Y56769737D01*
X39766499Y56769736D01*
X39620820Y56709394D01*
X39489715Y56621792D01*
X39489708Y56621787D01*
X39378213Y56510292D01*
X39378208Y56510285D01*
X39290606Y56379180D01*
X39230265Y56233503D01*
X39230263Y56233498D01*
X39199500Y56078845D01*
X39199500Y55921156D01*
X39217039Y55832985D01*
X39230263Y55766503D01*
X39290606Y55620821D01*
X39378211Y55489711D01*
X39489711Y55378211D01*
X39620821Y55290606D01*
X39766503Y55230263D01*
X39921158Y55199500D01*
X39921159Y55199500D01*
X40078841Y55199500D01*
X40078842Y55199500D01*
X40233497Y55230263D01*
X40379179Y55290606D01*
X40510289Y55378211D01*
X40621789Y55489711D01*
X40709394Y55620821D01*
X40769737Y55766503D01*
X40782961Y55832986D01*
X40815867Y55895896D01*
X40817385Y55897441D01*
X43134407Y58214462D01*
X43196717Y58248486D01*
X43267533Y58243421D01*
X43324368Y58200874D01*
X43349179Y58134354D01*
X43349500Y58125365D01*
X43349500Y57821637D01*
X43329498Y57753516D01*
X43312595Y57732541D01*
X42397498Y56817445D01*
X42335186Y56783420D01*
X42332987Y56782962D01*
X42313070Y56779000D01*
X42266503Y56769737D01*
X42266502Y56769737D01*
X42266499Y56769736D01*
X42120820Y56709394D01*
X41989715Y56621792D01*
X41989708Y56621787D01*
X41878213Y56510292D01*
X41878208Y56510285D01*
X41790606Y56379180D01*
X41730265Y56233503D01*
X41730263Y56233498D01*
X41699500Y56078845D01*
X41699500Y55921156D01*
X41717039Y55832985D01*
X41730263Y55766503D01*
X41790606Y55620821D01*
X41878211Y55489711D01*
X41989711Y55378211D01*
X42120821Y55290606D01*
X42266503Y55230263D01*
X42421158Y55199500D01*
X42421159Y55199500D01*
X42578841Y55199500D01*
X42578842Y55199500D01*
X42733497Y55230263D01*
X42879179Y55290606D01*
X43010289Y55378211D01*
X43121789Y55489711D01*
X43209394Y55620821D01*
X43269737Y55766503D01*
X43282961Y55832985D01*
X43315867Y55895895D01*
X43317445Y55897500D01*
X43799125Y56379180D01*
X44134406Y56714461D01*
X44154151Y56725243D01*
X44171158Y56739979D01*
X44184705Y56741927D01*
X44196717Y56748486D01*
X44219160Y56746881D01*
X44241432Y56750083D01*
X44253881Y56744398D01*
X44267532Y56743421D01*
X44285545Y56729937D01*
X44306012Y56720589D01*
X44313410Y56709077D01*
X44324368Y56700874D01*
X44332231Y56679791D01*
X44344396Y56660863D01*
X44347598Y56638593D01*
X44349179Y56634354D01*
X44349500Y56625365D01*
X44349500Y56505543D01*
X44329498Y56437422D01*
X44328266Y56435542D01*
X44290605Y56379179D01*
X44230265Y56233503D01*
X44230263Y56233498D01*
X44199500Y56078845D01*
X44199500Y55921156D01*
X44217039Y55832985D01*
X44230263Y55766503D01*
X44290606Y55620821D01*
X44378211Y55489711D01*
X44489711Y55378211D01*
X44620821Y55290606D01*
X44766503Y55230263D01*
X44921158Y55199500D01*
X44921159Y55199500D01*
X45078841Y55199500D01*
X45078842Y55199500D01*
X45233497Y55230263D01*
X45379179Y55290606D01*
X45510289Y55378211D01*
X45621789Y55489711D01*
X45709394Y55620821D01*
X45769737Y55766503D01*
X45800500Y55921158D01*
X45800500Y56078842D01*
X45769737Y56233497D01*
X45709394Y56379179D01*
X45667770Y56441475D01*
X45664500Y56447819D01*
X45659081Y56475953D01*
X45650520Y56503295D01*
X45650500Y56505543D01*
X45650500Y57438598D01*
X74352000Y57438598D01*
X74352000Y56794000D01*
X75279297Y56794000D01*
X75244075Y56732993D01*
X75210000Y56605826D01*
X75210000Y56474174D01*
X75244075Y56347007D01*
X75279297Y56286000D01*
X74352000Y56286000D01*
X74352000Y55641403D01*
X74358505Y55580907D01*
X74409555Y55444036D01*
X74409555Y55444035D01*
X74497095Y55327096D01*
X74614034Y55239556D01*
X74740336Y55192448D01*
X74797172Y55149901D01*
X74821983Y55083381D01*
X74806892Y55014007D01*
X74785400Y54985297D01*
X74679896Y54879793D01*
X74554951Y54707820D01*
X74458444Y54518414D01*
X74458443Y54518412D01*
X74413204Y54379180D01*
X74392754Y54316243D01*
X74359500Y54106287D01*
X74359500Y53893713D01*
X74392754Y53683757D01*
X74458443Y53481588D01*
X74554949Y53292184D01*
X74679896Y53120208D01*
X74679898Y53120206D01*
X74679900Y53120203D01*
X74830202Y52969901D01*
X74830205Y52969899D01*
X74830208Y52969896D01*
X75002184Y52844949D01*
X75005317Y52843353D01*
X75007451Y52842265D01*
X75059065Y52793516D01*
X75076129Y52724600D01*
X75053226Y52657399D01*
X75007451Y52617735D01*
X75002183Y52615051D01*
X74830205Y52490102D01*
X74830202Y52490100D01*
X74679900Y52339798D01*
X74679898Y52339795D01*
X74554951Y52167820D01*
X74554949Y52167816D01*
X74458443Y51978412D01*
X74392754Y51776243D01*
X74359500Y51566287D01*
X74359500Y51353713D01*
X74392754Y51143757D01*
X74458443Y50941588D01*
X74554949Y50752184D01*
X74679896Y50580208D01*
X74679898Y50580206D01*
X74679900Y50580203D01*
X74830202Y50429901D01*
X74830205Y50429899D01*
X74830208Y50429896D01*
X75002184Y50304949D01*
X75191588Y50208443D01*
X75393757Y50142754D01*
X75603713Y50109500D01*
X75603716Y50109500D01*
X75816284Y50109500D01*
X75816287Y50109500D01*
X76026243Y50142754D01*
X76228412Y50208443D01*
X76417816Y50304949D01*
X76589792Y50429896D01*
X76740104Y50580208D01*
X76865051Y50752184D01*
X76867733Y50757449D01*
X76916480Y50809063D01*
X76985394Y50826130D01*
X77052596Y50803230D01*
X77092266Y50757449D01*
X77094949Y50752184D01*
X77219896Y50580208D01*
X77219898Y50580206D01*
X77219900Y50580203D01*
X77370202Y50429901D01*
X77370205Y50429899D01*
X77370208Y50429896D01*
X77542184Y50304949D01*
X77731588Y50208443D01*
X77933757Y50142754D01*
X78143713Y50109500D01*
X78143716Y50109500D01*
X78356284Y50109500D01*
X78356287Y50109500D01*
X78566243Y50142754D01*
X78768412Y50208443D01*
X78957816Y50304949D01*
X79129792Y50429896D01*
X79280104Y50580208D01*
X79405051Y50752184D01*
X79501557Y50941588D01*
X79567246Y51143757D01*
X79600500Y51353713D01*
X79600500Y51566287D01*
X79567246Y51776243D01*
X79501557Y51978412D01*
X79405051Y52167816D01*
X79280104Y52339792D01*
X79280101Y52339795D01*
X79280099Y52339798D01*
X79129797Y52490100D01*
X79129794Y52490102D01*
X79129792Y52490104D01*
X78957816Y52615051D01*
X78952551Y52617734D01*
X78900937Y52666480D01*
X78883870Y52735394D01*
X78906770Y52802596D01*
X78952551Y52842267D01*
X78957816Y52844949D01*
X79129792Y52969896D01*
X79280104Y53120208D01*
X79405051Y53292184D01*
X79501557Y53481588D01*
X79567246Y53683757D01*
X79600500Y53893713D01*
X79600500Y54106287D01*
X79567246Y54316243D01*
X79501557Y54518412D01*
X79405051Y54707816D01*
X79280104Y54879792D01*
X79280101Y54879795D01*
X79280099Y54879798D01*
X79129797Y55030100D01*
X79129794Y55030102D01*
X79129792Y55030104D01*
X79028875Y55103424D01*
X78957814Y55155053D01*
X78953598Y55157636D01*
X78954642Y55159341D01*
X78909178Y55202305D01*
X78892131Y55271224D01*
X78915052Y55338419D01*
X78957825Y55375465D01*
X78957529Y55375949D01*
X78960455Y55377743D01*
X78960835Y55378071D01*
X78961754Y55378540D01*
X79134679Y55504178D01*
X79285822Y55655321D01*
X79411463Y55828250D01*
X79508506Y56018708D01*
X79508509Y56018714D01*
X79574559Y56221996D01*
X79584698Y56286000D01*
X78680703Y56286000D01*
X78715925Y56347007D01*
X78750000Y56474174D01*
X78750000Y56605826D01*
X78715925Y56732993D01*
X78680703Y56794000D01*
X79584697Y56794000D01*
X79574559Y56858005D01*
X79508509Y57061287D01*
X79508506Y57061293D01*
X79411463Y57251751D01*
X79285822Y57424680D01*
X79134679Y57575823D01*
X78961750Y57701464D01*
X78771292Y57798507D01*
X78771286Y57798510D01*
X78568004Y57864560D01*
X78504000Y57874698D01*
X78504000Y56970703D01*
X78442993Y57005925D01*
X78315826Y57040000D01*
X78184174Y57040000D01*
X78057007Y57005925D01*
X77996000Y56970703D01*
X77996000Y57874698D01*
X77931995Y57864560D01*
X77728713Y57798510D01*
X77728707Y57798507D01*
X77538249Y57701464D01*
X77365322Y57575824D01*
X77261822Y57472324D01*
X77199510Y57438299D01*
X77128694Y57443365D01*
X77071858Y57485911D01*
X77054671Y57517388D01*
X77010444Y57635966D01*
X76922904Y57752905D01*
X76805965Y57840445D01*
X76669093Y57891495D01*
X76608597Y57898000D01*
X75964000Y57898000D01*
X75964000Y56970703D01*
X75902993Y57005925D01*
X75775826Y57040000D01*
X75644174Y57040000D01*
X75517007Y57005925D01*
X75456000Y56970703D01*
X75456000Y57898000D01*
X74811402Y57898000D01*
X74750906Y57891495D01*
X74614035Y57840445D01*
X74614034Y57840445D01*
X74497095Y57752905D01*
X74409555Y57635966D01*
X74409555Y57635965D01*
X74358505Y57499094D01*
X74352000Y57438598D01*
X45650500Y57438598D01*
X45650500Y76415139D01*
X45670502Y76483260D01*
X45724158Y76529753D01*
X45794432Y76539857D01*
X45859012Y76510363D01*
X45873535Y76493891D01*
X45874280Y76494501D01*
X45878209Y76489714D01*
X45878211Y76489711D01*
X45989711Y76378211D01*
X46120821Y76290606D01*
X46266503Y76230263D01*
X46421158Y76199500D01*
X46421159Y76199500D01*
X46578841Y76199500D01*
X46578842Y76199500D01*
X46733497Y76230263D01*
X46879179Y76290606D01*
X47010289Y76378211D01*
X47121789Y76489711D01*
X47209394Y76620821D01*
X47269737Y76766503D01*
X47300500Y76921158D01*
X47300500Y77078842D01*
X47269737Y77233497D01*
X47209394Y77379179D01*
X47171734Y77435542D01*
X47150520Y77503295D01*
X47150500Y77505543D01*
X47150500Y142494459D01*
X47155371Y142511459D01*
X47155150Y142528374D01*
X47168611Y142557664D01*
X47169621Y142561188D01*
X47170654Y142562843D01*
X47209394Y142620821D01*
X47214404Y142632917D01*
X47219936Y142641777D01*
X47238965Y142658707D01*
X47254947Y142678542D01*
X47265034Y142681901D01*
X47272979Y142688968D01*
X47298143Y142692923D01*
X47322309Y142700967D01*
X47332610Y142698339D01*
X47343115Y142699989D01*
X47366421Y142689712D01*
X47391102Y142683414D01*
X47404757Y142672807D01*
X47408076Y142671343D01*
X47409591Y142669052D01*
X47415910Y142664143D01*
X47585326Y142494727D01*
X47585330Y142494724D01*
X47585331Y142494723D01*
X47673321Y142435931D01*
X47673320Y142435931D01*
X47691870Y142423537D01*
X47691869Y142423537D01*
X47691871Y142423536D01*
X47691873Y142423535D01*
X47810256Y142374499D01*
X47935931Y142349500D01*
X48223500Y142349500D01*
X48291621Y142329498D01*
X48338114Y142275842D01*
X48349500Y142223500D01*
X48349500Y77505543D01*
X48329498Y77437422D01*
X48328266Y77435542D01*
X48290605Y77379179D01*
X48230265Y77233503D01*
X48230263Y77233498D01*
X48199500Y77078845D01*
X48199500Y77078842D01*
X48199500Y76921158D01*
X48230263Y76766503D01*
X48290606Y76620821D01*
X48378211Y76489711D01*
X48489711Y76378211D01*
X48620821Y76290606D01*
X48766503Y76230263D01*
X48921158Y76199500D01*
X48921159Y76199500D01*
X49078841Y76199500D01*
X49078842Y76199500D01*
X49233497Y76230263D01*
X49379179Y76290606D01*
X49510289Y76378211D01*
X49621789Y76489711D01*
X49709394Y76620821D01*
X49769737Y76766503D01*
X49800500Y76921158D01*
X49800500Y77078842D01*
X49769737Y77233497D01*
X49709394Y77379179D01*
X49671734Y77435542D01*
X49650520Y77503295D01*
X49650500Y77505543D01*
X49650500Y142494459D01*
X49670502Y142562580D01*
X49671735Y142564461D01*
X49681344Y142578842D01*
X49709394Y142620821D01*
X49769737Y142766503D01*
X49800500Y142921158D01*
X49800500Y143078842D01*
X49776615Y143198919D01*
X49782943Y143269632D01*
X49826497Y143325700D01*
X49893449Y143349319D01*
X49900194Y143349500D01*
X50178364Y143349500D01*
X50246485Y143329498D01*
X50267459Y143312595D01*
X50682554Y142897500D01*
X50716580Y142835188D01*
X50717038Y142832988D01*
X50730263Y142766501D01*
X50730264Y142766500D01*
X50790606Y142620821D01*
X50818656Y142578842D01*
X50828265Y142564461D01*
X50849480Y142496708D01*
X50849500Y142494459D01*
X50849500Y77505543D01*
X50829498Y77437422D01*
X50828266Y77435542D01*
X50790605Y77379179D01*
X50730265Y77233503D01*
X50730263Y77233498D01*
X50699500Y77078845D01*
X50699500Y77078842D01*
X50699500Y76921158D01*
X50730263Y76766503D01*
X50790606Y76620821D01*
X50878211Y76489711D01*
X50989711Y76378211D01*
X51120821Y76290606D01*
X51266503Y76230263D01*
X51421158Y76199500D01*
X51421159Y76199500D01*
X51578841Y76199500D01*
X51578842Y76199500D01*
X51733497Y76230263D01*
X51879179Y76290606D01*
X52010289Y76378211D01*
X52121789Y76489711D01*
X52209394Y76620821D01*
X52269737Y76766503D01*
X52300500Y76921158D01*
X52300500Y77078842D01*
X52269737Y77233497D01*
X52209394Y77379179D01*
X52171734Y77435542D01*
X52150520Y77503295D01*
X52150500Y77505543D01*
X52150500Y142494459D01*
X52170502Y142562580D01*
X52171735Y142564461D01*
X52181344Y142578842D01*
X52209394Y142620821D01*
X52269737Y142766503D01*
X52300500Y142921158D01*
X52300500Y143078842D01*
X52269737Y143233497D01*
X52209394Y143379179D01*
X52121789Y143510289D01*
X52010289Y143621789D01*
X51879179Y143709394D01*
X51733500Y143769736D01*
X51733499Y143769737D01*
X51667012Y143782962D01*
X51604103Y143815871D01*
X51602500Y143817446D01*
X51285541Y144134405D01*
X51251515Y144196717D01*
X51256580Y144267532D01*
X51299127Y144324368D01*
X51365647Y144349179D01*
X51374636Y144349500D01*
X51678364Y144349500D01*
X51746485Y144329498D01*
X51767459Y144312595D01*
X53182553Y142897501D01*
X53216579Y142835189D01*
X53217036Y142832990D01*
X53230261Y142766510D01*
X53230262Y142766504D01*
X53230263Y142766503D01*
X53290606Y142620821D01*
X53318656Y142578842D01*
X53328265Y142564461D01*
X53349480Y142496708D01*
X53349500Y142494459D01*
X53349500Y137505543D01*
X53329498Y137437422D01*
X53328266Y137435542D01*
X53290605Y137379179D01*
X53230265Y137233503D01*
X53230263Y137233498D01*
X53199500Y137078845D01*
X53199500Y137078842D01*
X53199500Y136921158D01*
X53230263Y136766503D01*
X53290606Y136620821D01*
X53328265Y136564461D01*
X53349480Y136496708D01*
X53349500Y136494459D01*
X53349500Y77505543D01*
X53329498Y77437422D01*
X53328266Y77435542D01*
X53290605Y77379179D01*
X53230265Y77233503D01*
X53230263Y77233498D01*
X53199500Y77078845D01*
X53199500Y77078842D01*
X53199500Y76921158D01*
X53230263Y76766503D01*
X53290606Y76620821D01*
X53378211Y76489711D01*
X53489711Y76378211D01*
X53620821Y76290606D01*
X53766503Y76230263D01*
X53921158Y76199500D01*
X53921159Y76199500D01*
X54078841Y76199500D01*
X54078842Y76199500D01*
X54233497Y76230263D01*
X54379179Y76290606D01*
X54510289Y76378211D01*
X54621789Y76489711D01*
X54709394Y76620821D01*
X54769737Y76766503D01*
X54800500Y76921158D01*
X54800500Y77078842D01*
X54769737Y77233497D01*
X54709394Y77379179D01*
X54671734Y77435542D01*
X54650520Y77503295D01*
X54650500Y77505543D01*
X54650500Y88154466D01*
X77249500Y88154466D01*
X77249500Y87845535D01*
X77284089Y87538544D01*
X77324750Y87360397D01*
X77352832Y87237364D01*
X77352834Y87237358D01*
X77352833Y87237358D01*
X77454858Y86945789D01*
X77454869Y86945762D01*
X77588902Y86667440D01*
X77588907Y86667431D01*
X77753265Y86405857D01*
X77945882Y86164323D01*
X78164322Y85945883D01*
X78164326Y85945880D01*
X78405857Y85753265D01*
X78667435Y85588905D01*
X78945771Y85454865D01*
X78945787Y85454860D01*
X78945788Y85454859D01*
X79237357Y85352834D01*
X79237360Y85352834D01*
X79237364Y85352832D01*
X79460290Y85301951D01*
X79538543Y85284090D01*
X79538544Y85284090D01*
X79538548Y85284089D01*
X79782565Y85256595D01*
X79845534Y85249500D01*
X79845535Y85249500D01*
X80154466Y85249500D01*
X80206717Y85255388D01*
X80461452Y85284089D01*
X80762636Y85352832D01*
X81054229Y85454865D01*
X81332565Y85588905D01*
X81594143Y85753265D01*
X81835674Y85945880D01*
X82054120Y86164326D01*
X82246735Y86405857D01*
X82411095Y86667435D01*
X82545135Y86945771D01*
X82647168Y87237364D01*
X82715911Y87538548D01*
X82750500Y87845535D01*
X82750500Y88154465D01*
X82715911Y88461452D01*
X82647168Y88762636D01*
X82545135Y89054229D01*
X82411095Y89332565D01*
X82246735Y89594143D01*
X82054120Y89835674D01*
X82054117Y89835678D01*
X81835677Y90054118D01*
X81594143Y90246735D01*
X81332569Y90411093D01*
X81332560Y90411098D01*
X81054238Y90545131D01*
X81054233Y90545133D01*
X81054229Y90545135D01*
X81054223Y90545138D01*
X81054211Y90545142D01*
X80762642Y90647167D01*
X80461456Y90715911D01*
X80154466Y90750500D01*
X80154465Y90750500D01*
X79845535Y90750500D01*
X79845534Y90750500D01*
X79538543Y90715911D01*
X79237357Y90647167D01*
X78945788Y90545142D01*
X78945761Y90545131D01*
X78667439Y90411098D01*
X78667430Y90411093D01*
X78405856Y90246735D01*
X78164322Y90054118D01*
X77945882Y89835678D01*
X77753265Y89594144D01*
X77588907Y89332570D01*
X77588902Y89332561D01*
X77454869Y89054239D01*
X77454858Y89054212D01*
X77352833Y88762643D01*
X77284089Y88461457D01*
X77249500Y88154466D01*
X54650500Y88154466D01*
X54650500Y110578845D01*
X67199500Y110578845D01*
X67199500Y110421156D01*
X67225468Y110290609D01*
X67230263Y110266503D01*
X67290606Y110120821D01*
X67328265Y110064461D01*
X67349480Y109996708D01*
X67349500Y109994459D01*
X67349500Y98005543D01*
X67329498Y97937422D01*
X67328266Y97935542D01*
X67290605Y97879179D01*
X67230265Y97733503D01*
X67230263Y97733498D01*
X67199500Y97578845D01*
X67199500Y97578842D01*
X67199500Y97421158D01*
X67230263Y97266503D01*
X67290606Y97120821D01*
X67378211Y96989711D01*
X67489711Y96878211D01*
X67620821Y96790606D01*
X67766503Y96730263D01*
X67921158Y96699500D01*
X67921159Y96699500D01*
X68078841Y96699500D01*
X68078842Y96699500D01*
X68233497Y96730263D01*
X68379179Y96790606D01*
X68510289Y96878211D01*
X68621789Y96989711D01*
X68709394Y97120821D01*
X68769737Y97266503D01*
X68800500Y97421158D01*
X68800500Y97578842D01*
X68769737Y97733497D01*
X68709394Y97879179D01*
X68671734Y97935542D01*
X68650520Y98003295D01*
X68650500Y98005543D01*
X68650500Y109994459D01*
X68670502Y110062580D01*
X68671735Y110064461D01*
X68709394Y110120821D01*
X68769737Y110266503D01*
X68800500Y110421158D01*
X68800500Y110578842D01*
X68769737Y110733497D01*
X68709394Y110879179D01*
X68621789Y111010289D01*
X68510289Y111121789D01*
X68379179Y111209394D01*
X68233497Y111269737D01*
X68078844Y111300500D01*
X68078842Y111300500D01*
X67921158Y111300500D01*
X67921155Y111300500D01*
X67766502Y111269737D01*
X67766497Y111269735D01*
X67620820Y111209394D01*
X67489715Y111121792D01*
X67489708Y111121787D01*
X67378213Y111010292D01*
X67378208Y111010285D01*
X67290606Y110879180D01*
X67230265Y110733503D01*
X67230263Y110733498D01*
X67199500Y110578845D01*
X54650500Y110578845D01*
X54650500Y112578845D01*
X69199500Y112578845D01*
X69199500Y112421156D01*
X69230263Y112266503D01*
X69290606Y112120821D01*
X69328265Y112064461D01*
X69349480Y111996708D01*
X69349500Y111994459D01*
X69349500Y108005543D01*
X69329498Y107937422D01*
X69328266Y107935542D01*
X69290605Y107879179D01*
X69230265Y107733503D01*
X69230263Y107733498D01*
X69199500Y107578845D01*
X69199500Y107421156D01*
X69208043Y107378209D01*
X69230263Y107266503D01*
X69290606Y107120821D01*
X69378211Y106989711D01*
X69489711Y106878211D01*
X69620821Y106790606D01*
X69766503Y106730263D01*
X69921158Y106699500D01*
X69921159Y106699500D01*
X70078841Y106699500D01*
X70078842Y106699500D01*
X70233497Y106730263D01*
X70379179Y106790606D01*
X70510289Y106878211D01*
X70621789Y106989711D01*
X70709394Y107120821D01*
X70769737Y107266503D01*
X70800500Y107421158D01*
X70800500Y107578842D01*
X70769737Y107733497D01*
X70709394Y107879179D01*
X70681345Y107921158D01*
X70671734Y107935542D01*
X70650520Y108003295D01*
X70650500Y108005543D01*
X70650500Y111264068D01*
X74349500Y111264068D01*
X74349500Y101235933D01*
X74374499Y101110255D01*
X74374500Y101110254D01*
X74423535Y100991873D01*
X74494723Y100885331D01*
X74494726Y100885327D01*
X75582554Y99797500D01*
X75616579Y99735188D01*
X75617038Y99732988D01*
X75630263Y99666501D01*
X75630264Y99666500D01*
X75690606Y99520821D01*
X75778211Y99389711D01*
X75889711Y99278211D01*
X76020821Y99190606D01*
X76166503Y99130263D01*
X76321158Y99099500D01*
X76321159Y99099500D01*
X76478841Y99099500D01*
X76478842Y99099500D01*
X76633497Y99130263D01*
X76779179Y99190606D01*
X76910289Y99278211D01*
X77021789Y99389711D01*
X77109394Y99520821D01*
X77169737Y99666503D01*
X77200500Y99821158D01*
X77200500Y99978842D01*
X77169737Y100133497D01*
X77109394Y100279179D01*
X77021789Y100410289D01*
X76910289Y100521789D01*
X76779179Y100609394D01*
X76633500Y100669736D01*
X76633499Y100669737D01*
X76567012Y100682962D01*
X76504103Y100715871D01*
X76502500Y100717446D01*
X75687405Y101532541D01*
X75653379Y101594853D01*
X75650500Y101621636D01*
X75650500Y110878364D01*
X75670502Y110946485D01*
X75687400Y110967455D01*
X76502502Y111782558D01*
X76564813Y111816581D01*
X76566991Y111817035D01*
X76581957Y111820012D01*
X76633491Y111830261D01*
X76633493Y111830263D01*
X76633497Y111830263D01*
X76779179Y111890606D01*
X76910289Y111978211D01*
X77021789Y112089711D01*
X77109394Y112220821D01*
X77169737Y112366503D01*
X77200500Y112521158D01*
X77200500Y112678842D01*
X77169737Y112833497D01*
X77109394Y112979179D01*
X77021789Y113110289D01*
X76910289Y113221789D01*
X76779179Y113309394D01*
X76682354Y113349500D01*
X76633502Y113369735D01*
X76633497Y113369737D01*
X76478844Y113400500D01*
X76478842Y113400500D01*
X76321158Y113400500D01*
X76321155Y113400500D01*
X76166502Y113369737D01*
X76166497Y113369735D01*
X76020820Y113309394D01*
X75889715Y113221792D01*
X75889708Y113221787D01*
X75778213Y113110292D01*
X75778208Y113110285D01*
X75690606Y112979180D01*
X75630264Y112833501D01*
X75617038Y112767013D01*
X75584129Y112704104D01*
X75582554Y112702502D01*
X74494726Y111614674D01*
X74494720Y111614666D01*
X74460915Y111564071D01*
X74460914Y111564070D01*
X74423537Y111508132D01*
X74423536Y111508131D01*
X74374500Y111389747D01*
X74374499Y111389746D01*
X74372397Y111379179D01*
X74350628Y111269737D01*
X74349500Y111264068D01*
X70650500Y111264068D01*
X70650500Y111994459D01*
X70670502Y112062580D01*
X70671735Y112064461D01*
X70709394Y112120821D01*
X70769737Y112266503D01*
X70800500Y112421158D01*
X70800500Y112578842D01*
X70769737Y112733497D01*
X70709394Y112879179D01*
X70621789Y113010289D01*
X70510289Y113121789D01*
X70379179Y113209394D01*
X70233497Y113269737D01*
X70231401Y113270154D01*
X70078844Y113300500D01*
X70078842Y113300500D01*
X69921158Y113300500D01*
X69921155Y113300500D01*
X69766502Y113269737D01*
X69766497Y113269735D01*
X69620820Y113209394D01*
X69489715Y113121792D01*
X69489708Y113121787D01*
X69378213Y113010292D01*
X69378208Y113010285D01*
X69290606Y112879180D01*
X69230265Y112733503D01*
X69230263Y112733498D01*
X69199500Y112578845D01*
X54650500Y112578845D01*
X54650500Y123154466D01*
X77249500Y123154466D01*
X77249500Y122845535D01*
X77284089Y122538544D01*
X77324750Y122360397D01*
X77352832Y122237364D01*
X77352834Y122237358D01*
X77352833Y122237358D01*
X77454858Y121945789D01*
X77454869Y121945762D01*
X77588902Y121667440D01*
X77588907Y121667431D01*
X77753265Y121405857D01*
X77945882Y121164323D01*
X78164322Y120945883D01*
X78164326Y120945880D01*
X78405857Y120753265D01*
X78667435Y120588905D01*
X78945771Y120454865D01*
X78945787Y120454860D01*
X78945788Y120454859D01*
X79237357Y120352834D01*
X79237360Y120352834D01*
X79237364Y120352832D01*
X79460290Y120301951D01*
X79538543Y120284090D01*
X79538544Y120284090D01*
X79538548Y120284089D01*
X79782565Y120256595D01*
X79845534Y120249500D01*
X79845535Y120249500D01*
X80154466Y120249500D01*
X80206717Y120255388D01*
X80461452Y120284089D01*
X80762636Y120352832D01*
X81054229Y120454865D01*
X81332565Y120588905D01*
X81594143Y120753265D01*
X81835674Y120945880D01*
X82054120Y121164326D01*
X82246735Y121405857D01*
X82411095Y121667435D01*
X82545135Y121945771D01*
X82647168Y122237364D01*
X82715911Y122538548D01*
X82750500Y122845535D01*
X82750500Y123154465D01*
X82715911Y123461452D01*
X82647168Y123762636D01*
X82560436Y124010500D01*
X82545141Y124054212D01*
X82545140Y124054213D01*
X82545135Y124054229D01*
X82411095Y124332565D01*
X82398360Y124352832D01*
X82347543Y124433708D01*
X82246735Y124594143D01*
X82054120Y124835674D01*
X82054117Y124835678D01*
X81835677Y125054118D01*
X81594143Y125246735D01*
X81332569Y125411093D01*
X81332560Y125411098D01*
X81054238Y125545131D01*
X81054233Y125545133D01*
X81054229Y125545135D01*
X81054223Y125545138D01*
X81054211Y125545142D01*
X80762642Y125647167D01*
X80461456Y125715911D01*
X80154466Y125750500D01*
X80154465Y125750500D01*
X79845535Y125750500D01*
X79845534Y125750500D01*
X79538543Y125715911D01*
X79237357Y125647167D01*
X78945788Y125545142D01*
X78945761Y125545131D01*
X78667439Y125411098D01*
X78667430Y125411093D01*
X78405856Y125246735D01*
X78164322Y125054118D01*
X77945882Y124835678D01*
X77753265Y124594144D01*
X77588907Y124332570D01*
X77588902Y124332561D01*
X77454869Y124054239D01*
X77454858Y124054212D01*
X77352833Y123762643D01*
X77284089Y123461457D01*
X77249500Y123154466D01*
X54650500Y123154466D01*
X54650500Y136494459D01*
X54670502Y136562580D01*
X54671735Y136564461D01*
X54709394Y136620821D01*
X54769737Y136766503D01*
X54800500Y136921158D01*
X54800500Y137078842D01*
X54769737Y137233497D01*
X54709394Y137379179D01*
X54671734Y137435542D01*
X54650520Y137503295D01*
X54650500Y137505543D01*
X54650500Y142494459D01*
X54670502Y142562580D01*
X54671735Y142564461D01*
X54681344Y142578842D01*
X54709394Y142620821D01*
X54769737Y142766503D01*
X54800500Y142921158D01*
X54800500Y143078842D01*
X54769737Y143233497D01*
X54709394Y143379179D01*
X54621789Y143510289D01*
X54510289Y143621789D01*
X54379179Y143709394D01*
X54233500Y143769736D01*
X54233490Y143769739D01*
X54167010Y143782964D01*
X54104101Y143815872D01*
X54102499Y143817447D01*
X52414673Y145505274D01*
X52414669Y145505277D01*
X52308127Y145576465D01*
X52189746Y145625500D01*
X52189745Y145625501D01*
X52147852Y145633834D01*
X52064069Y145650500D01*
X52064067Y145650500D01*
X49321636Y145650500D01*
X49253515Y145670502D01*
X49232541Y145687405D01*
X45687405Y149232541D01*
X45653379Y149294853D01*
X45650500Y149321636D01*
X45650500Y151178364D01*
X45670502Y151246485D01*
X45687405Y151267459D01*
X51005270Y156585324D01*
X51005277Y156585331D01*
X51076466Y156691874D01*
X51125501Y156810257D01*
X51150500Y156935931D01*
X51150500Y157064069D01*
X51150500Y185564069D01*
X51125501Y185689744D01*
X51125499Y185689749D01*
X51100768Y185749455D01*
X51100748Y185749502D01*
X51076465Y185808128D01*
X51021951Y185889714D01*
X51005277Y185914669D01*
X51005275Y185914671D01*
X51005270Y185914677D01*
X45817444Y191102502D01*
X45783418Y191164814D01*
X45782972Y191166955D01*
X45769737Y191233497D01*
X45709394Y191379179D01*
X45621789Y191510289D01*
X45510289Y191621789D01*
X45379179Y191709394D01*
X45233497Y191769737D01*
X45078844Y191800500D01*
X45078842Y191800500D01*
X44921158Y191800500D01*
X44921155Y191800500D01*
X44766502Y191769737D01*
X44766497Y191769735D01*
X44620820Y191709394D01*
X44489715Y191621792D01*
X44489708Y191621787D01*
X44378213Y191510292D01*
X44378208Y191510285D01*
X44290606Y191379180D01*
X44230265Y191233503D01*
X44230263Y191233498D01*
X44199500Y191078845D01*
X44199500Y191078842D01*
X44199500Y190921158D01*
X44230263Y190766503D01*
X44290606Y190620821D01*
X44378211Y190489711D01*
X44489711Y190378211D01*
X44620821Y190290606D01*
X44766503Y190230263D01*
X44832985Y190217040D01*
X44895893Y190184133D01*
X44897498Y190182556D01*
X49812595Y185267459D01*
X49846621Y185205147D01*
X49849500Y185178364D01*
X49849500Y184874636D01*
X49829498Y184806515D01*
X49775842Y184760022D01*
X49705568Y184749918D01*
X49640988Y184779412D01*
X49634405Y184785541D01*
X43317444Y191102502D01*
X43283418Y191164814D01*
X43282972Y191166955D01*
X43269737Y191233497D01*
X43209394Y191379179D01*
X43121789Y191510289D01*
X43010289Y191621789D01*
X42879179Y191709394D01*
X42733497Y191769737D01*
X42578844Y191800500D01*
X42578842Y191800500D01*
X42421158Y191800500D01*
X42421155Y191800500D01*
X42266502Y191769737D01*
X42266497Y191769735D01*
X42120820Y191709394D01*
X41989715Y191621792D01*
X41989708Y191621787D01*
X41878213Y191510292D01*
X41878208Y191510285D01*
X41790606Y191379180D01*
X41730265Y191233503D01*
X41730263Y191233498D01*
X41699500Y191078845D01*
X41699500Y191078842D01*
X41699500Y190921158D01*
X41730263Y190766503D01*
X41790606Y190620821D01*
X41878211Y190489711D01*
X41989711Y190378211D01*
X42120821Y190290606D01*
X42266503Y190230263D01*
X42332985Y190217040D01*
X42395893Y190184133D01*
X42397498Y190182556D01*
X48812595Y183767459D01*
X48846621Y183705147D01*
X48849500Y183678364D01*
X48849500Y183374636D01*
X48829498Y183306515D01*
X48775842Y183260022D01*
X48705568Y183249918D01*
X48640988Y183279412D01*
X48634405Y183285541D01*
X40817444Y191102502D01*
X40783418Y191164814D01*
X40782972Y191166955D01*
X40769737Y191233497D01*
X40709394Y191379179D01*
X40621789Y191510289D01*
X40510289Y191621789D01*
X40379179Y191709394D01*
X40233497Y191769737D01*
X40078844Y191800500D01*
X40078842Y191800500D01*
X39921158Y191800500D01*
X39921155Y191800500D01*
X39766502Y191769737D01*
X39766497Y191769735D01*
X39620820Y191709394D01*
X39489715Y191621792D01*
X39489708Y191621787D01*
X39378213Y191510292D01*
X39378208Y191510285D01*
X39290606Y191379180D01*
X39230265Y191233503D01*
X39230263Y191233498D01*
X39199500Y191078845D01*
X39199500Y191078842D01*
X39199500Y190921158D01*
X39230263Y190766503D01*
X39290606Y190620821D01*
X39378211Y190489711D01*
X39489711Y190378211D01*
X39620821Y190290606D01*
X39766503Y190230263D01*
X39832985Y190217040D01*
X39895893Y190184133D01*
X39897498Y190182556D01*
X47862115Y182217940D01*
X47896141Y182155628D01*
X47899020Y182128845D01*
X47899020Y181825116D01*
X47879018Y181756995D01*
X47825362Y181710502D01*
X47755088Y181700398D01*
X47690508Y181729892D01*
X47683925Y181736021D01*
X38317444Y191102502D01*
X38283418Y191164814D01*
X38282972Y191166955D01*
X38269737Y191233497D01*
X38209394Y191379179D01*
X38121789Y191510289D01*
X38010289Y191621789D01*
X37879179Y191709394D01*
X37733497Y191769737D01*
X37578844Y191800500D01*
X37578842Y191800500D01*
X37421158Y191800500D01*
X37421155Y191800500D01*
X37266502Y191769737D01*
X37266497Y191769735D01*
X37120820Y191709394D01*
X36989715Y191621792D01*
X36989708Y191621787D01*
X36878213Y191510292D01*
X36878208Y191510285D01*
X36790606Y191379180D01*
X36730265Y191233503D01*
X36730263Y191233498D01*
X36699500Y191078845D01*
X36699500Y191078842D01*
X36699500Y190921158D01*
X36730263Y190766503D01*
X36790606Y190620821D01*
X36878211Y190489711D01*
X36989711Y190378211D01*
X37120821Y190290606D01*
X37266503Y190230263D01*
X37332985Y190217040D01*
X37395893Y190184133D01*
X37397498Y190182556D01*
X46812595Y180767459D01*
X46846621Y180705147D01*
X46849500Y180678364D01*
X46849500Y178374636D01*
X46829498Y178306515D01*
X46775842Y178260022D01*
X46705568Y178249918D01*
X46640988Y178279412D01*
X46634405Y178285541D01*
X45817444Y179102502D01*
X45783418Y179164814D01*
X45782961Y179167013D01*
X45769737Y179233497D01*
X45709394Y179379179D01*
X45621789Y179510289D01*
X45510289Y179621789D01*
X45379179Y179709394D01*
X45233497Y179769737D01*
X45078844Y179800500D01*
X45078842Y179800500D01*
X44921158Y179800500D01*
X44921155Y179800500D01*
X44766502Y179769737D01*
X44766497Y179769735D01*
X44620820Y179709394D01*
X44489715Y179621792D01*
X44489708Y179621787D01*
X44378213Y179510292D01*
X44378208Y179510285D01*
X44290606Y179379180D01*
X44230265Y179233503D01*
X44230263Y179233498D01*
X44199500Y179078845D01*
X44199500Y179078842D01*
X44199500Y178921158D01*
X44230263Y178766503D01*
X44290606Y178620821D01*
X44378211Y178489711D01*
X44489711Y178378211D01*
X44620821Y178290606D01*
X44766503Y178230263D01*
X44832985Y178217040D01*
X44895893Y178184133D01*
X44897498Y178182556D01*
X45812595Y177267459D01*
X45846621Y177205147D01*
X45849500Y177178364D01*
X45849500Y176874636D01*
X45829498Y176806515D01*
X45775842Y176760022D01*
X45705568Y176749918D01*
X45640988Y176779412D01*
X45634405Y176785541D01*
X43317444Y179102502D01*
X43283418Y179164814D01*
X43282961Y179167013D01*
X43269737Y179233497D01*
X43209394Y179379179D01*
X43121789Y179510289D01*
X43010289Y179621789D01*
X42879179Y179709394D01*
X42733497Y179769737D01*
X42578844Y179800500D01*
X42578842Y179800500D01*
X42421158Y179800500D01*
X42421155Y179800500D01*
X42266502Y179769737D01*
X42266497Y179769735D01*
X42120820Y179709394D01*
X41989715Y179621792D01*
X41989708Y179621787D01*
X41878213Y179510292D01*
X41878208Y179510285D01*
X41790606Y179379180D01*
X41730265Y179233503D01*
X41730263Y179233498D01*
X41699500Y179078845D01*
X41699500Y179078842D01*
X41699500Y178921158D01*
X41730263Y178766503D01*
X41790606Y178620821D01*
X41878211Y178489711D01*
X41989711Y178378211D01*
X42120821Y178290606D01*
X42266503Y178230263D01*
X42332985Y178217040D01*
X42395893Y178184133D01*
X42397498Y178182556D01*
X44812595Y175767459D01*
X44846621Y175705147D01*
X44849500Y175678364D01*
X44849500Y175374636D01*
X44829498Y175306515D01*
X44775842Y175260022D01*
X44705568Y175249918D01*
X44640988Y175279412D01*
X44634405Y175285541D01*
X40817444Y179102502D01*
X40783418Y179164814D01*
X40782961Y179167013D01*
X40769737Y179233497D01*
X40709394Y179379179D01*
X40621789Y179510289D01*
X40510289Y179621789D01*
X40379179Y179709394D01*
X40233497Y179769737D01*
X40078844Y179800500D01*
X40078842Y179800500D01*
X39921158Y179800500D01*
X39921155Y179800500D01*
X39766502Y179769737D01*
X39766497Y179769735D01*
X39620820Y179709394D01*
X39489715Y179621792D01*
X39489708Y179621787D01*
X39378213Y179510292D01*
X39378208Y179510285D01*
X39290606Y179379180D01*
X39230265Y179233503D01*
X39230263Y179233498D01*
X39199500Y179078845D01*
X39199500Y179078842D01*
X39199500Y178921158D01*
X39230263Y178766503D01*
X39290606Y178620821D01*
X39378211Y178489711D01*
X39489711Y178378211D01*
X39620821Y178290606D01*
X39766503Y178230263D01*
X39832985Y178217040D01*
X39895893Y178184133D01*
X39897498Y178182556D01*
X43812595Y174267459D01*
X43846621Y174205147D01*
X43849500Y174178364D01*
X43849500Y173874636D01*
X43829498Y173806515D01*
X43775842Y173760022D01*
X43705568Y173749918D01*
X43640988Y173779412D01*
X43634405Y173785541D01*
X38317444Y179102502D01*
X38283418Y179164814D01*
X38282961Y179167013D01*
X38269737Y179233497D01*
X38209394Y179379179D01*
X38121789Y179510289D01*
X38010289Y179621789D01*
X37879179Y179709394D01*
X37733497Y179769737D01*
X37578844Y179800500D01*
X37578842Y179800500D01*
X37421158Y179800500D01*
X37421155Y179800500D01*
X37266502Y179769737D01*
X37266497Y179769735D01*
X37120820Y179709394D01*
X36989715Y179621792D01*
X36989708Y179621787D01*
X36878213Y179510292D01*
X36878208Y179510285D01*
X36790606Y179379180D01*
X36730265Y179233503D01*
X36730263Y179233498D01*
X36699500Y179078845D01*
X36699500Y179078842D01*
X36699500Y178921158D01*
X36730263Y178766503D01*
X36790606Y178620821D01*
X36878211Y178489711D01*
X36989711Y178378211D01*
X37120821Y178290606D01*
X37266503Y178230263D01*
X37332985Y178217040D01*
X37395893Y178184133D01*
X37397498Y178182556D01*
X42812595Y172767459D01*
X42846621Y172705147D01*
X42849500Y172678364D01*
X42849500Y160821637D01*
X42829498Y160753516D01*
X42812595Y160732542D01*
X37494726Y155414674D01*
X37494723Y155414670D01*
X37423535Y155308128D01*
X37374500Y155189747D01*
X37374499Y155189746D01*
X37374499Y155189744D01*
X37349500Y155064069D01*
X37349500Y145435931D01*
X37361720Y145374499D01*
X37374499Y145310256D01*
X37374500Y145310254D01*
X37423535Y145191873D01*
X37494723Y145085331D01*
X37494726Y145085327D01*
X41312595Y141267459D01*
X41346621Y141205147D01*
X41349500Y141178364D01*
X41349500Y129005543D01*
X41329498Y128937422D01*
X41328266Y128935542D01*
X41290605Y128879179D01*
X41230265Y128733503D01*
X41230263Y128733498D01*
X41199500Y128578845D01*
X41199500Y128421156D01*
X41217121Y128332570D01*
X41230263Y128266503D01*
X41290606Y128120821D01*
X41320244Y128076465D01*
X41328265Y128064461D01*
X41349480Y127996708D01*
X41349500Y127994459D01*
X41349500Y60821636D01*
X41329498Y60753515D01*
X41312595Y60732541D01*
X40865595Y60285541D01*
X40803283Y60251515D01*
X40732468Y60256580D01*
X40675632Y60299127D01*
X40650821Y60365647D01*
X40650500Y60374636D01*
X40650500Y67494459D01*
X40670502Y67562580D01*
X40671735Y67564461D01*
X40709394Y67620821D01*
X40769737Y67766503D01*
X40800500Y67921158D01*
X40800500Y68078842D01*
X40769737Y68233497D01*
X40709394Y68379179D01*
X40621789Y68510289D01*
X40510289Y68621789D01*
X40379179Y68709394D01*
X40233497Y68769737D01*
X40078844Y68800500D01*
X40078842Y68800500D01*
X39921158Y68800500D01*
X39921155Y68800500D01*
X39766502Y68769737D01*
X39766497Y68769735D01*
X39620820Y68709394D01*
X39489715Y68621792D01*
X39489708Y68621787D01*
X39378213Y68510292D01*
X39378208Y68510285D01*
X39290606Y68379180D01*
X39230265Y68233503D01*
X39230263Y68233498D01*
X39199500Y68078845D01*
X39199500Y68078842D01*
X39199500Y67921158D01*
X39230263Y67766503D01*
X39290606Y67620821D01*
X39328265Y67564461D01*
X39349480Y67496708D01*
X39349500Y67494459D01*
X39349500Y60321637D01*
X39329498Y60253516D01*
X39312595Y60232542D01*
X38353456Y59273403D01*
X38291144Y59239377D01*
X38220329Y59244442D01*
X38163493Y59286989D01*
X38138682Y59353509D01*
X38140781Y59387076D01*
X38150500Y59435931D01*
X38150500Y67494459D01*
X38170502Y67562580D01*
X38171735Y67564461D01*
X38209394Y67620821D01*
X38269737Y67766503D01*
X38300500Y67921158D01*
X38300500Y68078842D01*
X38269737Y68233497D01*
X38209394Y68379179D01*
X38121789Y68510289D01*
X38010289Y68621789D01*
X37879179Y68709394D01*
X37733497Y68769737D01*
X37578844Y68800500D01*
X37578842Y68800500D01*
X37421158Y68800500D01*
X37421155Y68800500D01*
X37266502Y68769737D01*
X37266497Y68769735D01*
X37120820Y68709394D01*
X36989715Y68621792D01*
X36989708Y68621787D01*
X36878213Y68510292D01*
X36878208Y68510285D01*
X36790606Y68379180D01*
X36730265Y68233503D01*
X36730263Y68233498D01*
X36699500Y68078845D01*
X36699500Y68078842D01*
X36699500Y67921158D01*
X36730263Y67766503D01*
X36790606Y67620821D01*
X36828265Y67564461D01*
X36849480Y67496708D01*
X36849500Y67494459D01*
X36849500Y59821637D01*
X36829498Y59753516D01*
X36812595Y59732542D01*
X33897498Y56817446D01*
X33835186Y56783420D01*
X33832987Y56782962D01*
X33813070Y56779000D01*
X33766503Y56769737D01*
X33766502Y56769737D01*
X33766499Y56769736D01*
X33620820Y56709394D01*
X33489715Y56621792D01*
X33489708Y56621787D01*
X33378213Y56510292D01*
X33378208Y56510285D01*
X33290606Y56379180D01*
X33230265Y56233503D01*
X33230263Y56233498D01*
X33199500Y56078845D01*
X-36699501Y56078845D01*
X-36730263Y56233497D01*
X-36790606Y56379179D01*
X-36878211Y56510289D01*
X-36989711Y56621789D01*
X-37120821Y56709394D01*
X-37159084Y56725243D01*
X-37266500Y56769736D01*
X-37266501Y56769737D01*
X-37332988Y56782962D01*
X-37395897Y56815871D01*
X-37397500Y56817446D01*
X-41312595Y60732541D01*
X-41346621Y60794853D01*
X-41349500Y60821636D01*
X-41349500Y99878845D01*
X-34300500Y99878845D01*
X-34300500Y99721156D01*
X-34269737Y99566503D01*
X-34209394Y99420821D01*
X-34121789Y99289711D01*
X-34010289Y99178211D01*
X-33879179Y99090606D01*
X-33733497Y99030263D01*
X-33578842Y98999500D01*
X-33578841Y98999500D01*
X-33421159Y98999500D01*
X-33421158Y98999500D01*
X-33266503Y99030263D01*
X-33120821Y99090606D01*
X-32989711Y99178211D01*
X-32878211Y99289711D01*
X-32790606Y99420821D01*
X-32730263Y99566503D01*
X-32699500Y99721158D01*
X-32699500Y99878842D01*
X-32730263Y100033497D01*
X-32790606Y100179179D01*
X-32828266Y100235542D01*
X-32849480Y100303295D01*
X-32849500Y100305543D01*
X-32849500Y101915139D01*
X-32829498Y101983260D01*
X-32775842Y102029753D01*
X-32705568Y102039857D01*
X-32640988Y102010363D01*
X-32626465Y101993891D01*
X-32625720Y101994501D01*
X-32621791Y101989714D01*
X-32621789Y101989711D01*
X-32510289Y101878211D01*
X-32379179Y101790606D01*
X-32233497Y101730263D01*
X-32078842Y101699500D01*
X-32078841Y101699500D01*
X-31921159Y101699500D01*
X-31921158Y101699500D01*
X-31766503Y101730263D01*
X-31620821Y101790606D01*
X-31489711Y101878211D01*
X-31459775Y101908148D01*
X-31397467Y101942171D01*
X-31326651Y101937107D01*
X-31269815Y101894561D01*
X-31245003Y101828042D01*
X-31254272Y101770835D01*
X-31269735Y101733503D01*
X-31269737Y101733498D01*
X-31300500Y101578845D01*
X-31300500Y101578842D01*
X-31300500Y101421158D01*
X-31269737Y101266503D01*
X-31209394Y101120821D01*
X-31121789Y100989711D01*
X-31010289Y100878211D01*
X-30879179Y100790606D01*
X-30733497Y100730263D01*
X-30578842Y100699500D01*
X-30578841Y100699500D01*
X-30421159Y100699500D01*
X-30421158Y100699500D01*
X-30266503Y100730263D01*
X-30120821Y100790606D01*
X-29989711Y100878211D01*
X-29959775Y100908148D01*
X-29897467Y100942171D01*
X-29826651Y100937107D01*
X-29769815Y100894561D01*
X-29745003Y100828042D01*
X-29754272Y100770835D01*
X-29769735Y100733503D01*
X-29769737Y100733498D01*
X-29800500Y100578845D01*
X-29800500Y100421156D01*
X-29769737Y100266503D01*
X-29769735Y100266498D01*
X-29714647Y100133503D01*
X-29709394Y100120821D01*
X-29621789Y99989711D01*
X-29510289Y99878211D01*
X-29379179Y99790606D01*
X-29233497Y99730263D01*
X-29078842Y99699500D01*
X-29078841Y99699500D01*
X-28921159Y99699500D01*
X-28921158Y99699500D01*
X-28766503Y99730263D01*
X-28620821Y99790606D01*
X-28489711Y99878211D01*
X-28378211Y99989711D01*
X-28290606Y100120821D01*
X-28230263Y100266503D01*
X-28199500Y100421158D01*
X-28199500Y100578842D01*
X-28230263Y100733497D01*
X-28290606Y100879179D01*
X-28328266Y100935542D01*
X-28349480Y101003295D01*
X-28349500Y101005543D01*
X-28349500Y114078845D01*
X-26800500Y114078845D01*
X-26800500Y114078842D01*
X-26800500Y113921158D01*
X-26769737Y113766503D01*
X-26709394Y113620821D01*
X-26621789Y113489711D01*
X-26510289Y113378211D01*
X-26379179Y113290606D01*
X-26233497Y113230263D01*
X-26078842Y113199500D01*
X-26078841Y113199500D01*
X-25921159Y113199500D01*
X-25921158Y113199500D01*
X-25766503Y113230263D01*
X-25620821Y113290606D01*
X-25606014Y113300500D01*
X-25564459Y113328265D01*
X-25496707Y113349480D01*
X-25494458Y113349500D01*
X-25084862Y113349500D01*
X-25016741Y113329498D01*
X-24970248Y113275842D01*
X-24960144Y113205568D01*
X-24989638Y113140988D01*
X-25006105Y113126458D01*
X-25005499Y113125720D01*
X-25010292Y113121787D01*
X-25121787Y113010292D01*
X-25121792Y113010285D01*
X-25209394Y112879180D01*
X-25269735Y112733503D01*
X-25269737Y112733498D01*
X-25300500Y112578845D01*
X-25300500Y112421156D01*
X-25269737Y112266503D01*
X-25209394Y112120821D01*
X-25121789Y111989711D01*
X-25010289Y111878211D01*
X-24879179Y111790606D01*
X-24733497Y111730263D01*
X-24578842Y111699500D01*
X-24578841Y111699500D01*
X-24421159Y111699500D01*
X-24421158Y111699500D01*
X-24266503Y111730263D01*
X-24120821Y111790606D01*
X-24106014Y111800500D01*
X-24064459Y111828265D01*
X-23996707Y111849480D01*
X-23994458Y111849500D01*
X-23584862Y111849500D01*
X-23516741Y111829498D01*
X-23470248Y111775842D01*
X-23460144Y111705568D01*
X-23489638Y111640988D01*
X-23506105Y111626458D01*
X-23505499Y111625720D01*
X-23510292Y111621787D01*
X-23621787Y111510292D01*
X-23621792Y111510285D01*
X-23709394Y111379180D01*
X-23769735Y111233503D01*
X-23769737Y111233498D01*
X-23800500Y111078845D01*
X-23800500Y110921156D01*
X-23791988Y110878364D01*
X-23769737Y110766503D01*
X-23709394Y110620821D01*
X-23621789Y110489711D01*
X-23510289Y110378211D01*
X-23379179Y110290606D01*
X-23233497Y110230263D01*
X-23078842Y110199500D01*
X-23078841Y110199500D01*
X-22921159Y110199500D01*
X-22921158Y110199500D01*
X-22766503Y110230263D01*
X-22620821Y110290606D01*
X-22606014Y110300500D01*
X-22564459Y110328265D01*
X-22496707Y110349480D01*
X-22494458Y110349500D01*
X-22084862Y110349500D01*
X-22016741Y110329498D01*
X-21970248Y110275842D01*
X-21960144Y110205568D01*
X-21989638Y110140988D01*
X-22006105Y110126458D01*
X-22005499Y110125720D01*
X-22010292Y110121787D01*
X-22121787Y110010292D01*
X-22121792Y110010285D01*
X-22209394Y109879180D01*
X-22269735Y109733503D01*
X-22269737Y109733498D01*
X-22300500Y109578845D01*
X-22300500Y109578842D01*
X-22300500Y109421158D01*
X-22269737Y109266503D01*
X-22209394Y109120821D01*
X-22121789Y108989711D01*
X-22010289Y108878211D01*
X-21879179Y108790606D01*
X-21733497Y108730263D01*
X-21578842Y108699500D01*
X-21578841Y108699500D01*
X-21421159Y108699500D01*
X-21421158Y108699500D01*
X-21266503Y108730263D01*
X-21120821Y108790606D01*
X-21106014Y108800500D01*
X-21064459Y108828265D01*
X-20996707Y108849480D01*
X-20994458Y108849500D01*
X-20584862Y108849500D01*
X-20516741Y108829498D01*
X-20470248Y108775842D01*
X-20460144Y108705568D01*
X-20489638Y108640988D01*
X-20506105Y108626458D01*
X-20505499Y108625720D01*
X-20510292Y108621787D01*
X-20621787Y108510292D01*
X-20621792Y108510285D01*
X-20709394Y108379180D01*
X-20769735Y108233503D01*
X-20769737Y108233498D01*
X-20800500Y108078845D01*
X-20800500Y108078842D01*
X-20800500Y107921158D01*
X-20769737Y107766503D01*
X-20709394Y107620821D01*
X-20621789Y107489711D01*
X-20510289Y107378211D01*
X-20379179Y107290606D01*
X-20233497Y107230263D01*
X-20078842Y107199500D01*
X-20078841Y107199500D01*
X-19921159Y107199500D01*
X-19921158Y107199500D01*
X-19766503Y107230263D01*
X-19620821Y107290606D01*
X-19606112Y107300435D01*
X-19564459Y107328265D01*
X-19496707Y107349480D01*
X-19494458Y107349500D01*
X13494458Y107349500D01*
X13562579Y107329498D01*
X13564459Y107328265D01*
X13620816Y107290609D01*
X13620818Y107290608D01*
X13620821Y107290606D01*
X13766503Y107230263D01*
X13921158Y107199500D01*
X13921159Y107199500D01*
X14078841Y107199500D01*
X14078842Y107199500D01*
X14233497Y107230263D01*
X14379179Y107290606D01*
X14510289Y107378211D01*
X14621789Y107489711D01*
X14709394Y107620821D01*
X14769737Y107766503D01*
X14800500Y107921158D01*
X14800500Y108078842D01*
X14769737Y108233497D01*
X14709394Y108379179D01*
X14621789Y108510289D01*
X14510289Y108621789D01*
X14475198Y108645236D01*
X14429672Y108699711D01*
X14420823Y108770154D01*
X14451464Y108834198D01*
X14475196Y108854763D01*
X14510289Y108878211D01*
X14621789Y108989711D01*
X14709394Y109120821D01*
X14769737Y109266503D01*
X14800500Y109421158D01*
X14800500Y109578842D01*
X14769737Y109733497D01*
X14709394Y109879179D01*
X14621789Y110010289D01*
X14510289Y110121789D01*
X14475198Y110145236D01*
X14429672Y110199711D01*
X14420823Y110270154D01*
X14451464Y110334198D01*
X14475196Y110354763D01*
X14510289Y110378211D01*
X14621789Y110489711D01*
X14709394Y110620821D01*
X14769737Y110766503D01*
X14800500Y110921158D01*
X14800500Y111078842D01*
X14769737Y111233497D01*
X14709394Y111379179D01*
X14621789Y111510289D01*
X14510289Y111621789D01*
X14475198Y111645236D01*
X14429672Y111699711D01*
X14420823Y111770154D01*
X14451464Y111834198D01*
X14475196Y111854763D01*
X14510289Y111878211D01*
X14621789Y111989711D01*
X14709394Y112120821D01*
X14769737Y112266503D01*
X14800500Y112421158D01*
X14800500Y112578842D01*
X14769737Y112733497D01*
X14709394Y112879179D01*
X14621789Y113010289D01*
X14510289Y113121789D01*
X14475198Y113145236D01*
X14429672Y113199711D01*
X14420823Y113270154D01*
X14451464Y113334198D01*
X14475196Y113354763D01*
X14510289Y113378211D01*
X14621789Y113489711D01*
X14709394Y113620821D01*
X14769737Y113766503D01*
X14800500Y113921158D01*
X14800500Y114078842D01*
X14769737Y114233497D01*
X14709394Y114379179D01*
X14621789Y114510289D01*
X14510289Y114621789D01*
X14379179Y114709394D01*
X14233497Y114769737D01*
X14078844Y114800500D01*
X14078842Y114800500D01*
X13921158Y114800500D01*
X13921155Y114800500D01*
X13766502Y114769737D01*
X13766497Y114769735D01*
X13620820Y114709394D01*
X13620816Y114709392D01*
X13564459Y114671735D01*
X13496707Y114650520D01*
X13494458Y114650500D01*
X-25494458Y114650500D01*
X-25562579Y114670502D01*
X-25564459Y114671735D01*
X-25620817Y114709392D01*
X-25620821Y114709394D01*
X-25766498Y114769735D01*
X-25766503Y114769737D01*
X-25921156Y114800500D01*
X-25921158Y114800500D01*
X-26078842Y114800500D01*
X-26078845Y114800500D01*
X-26233498Y114769737D01*
X-26233503Y114769735D01*
X-26379180Y114709394D01*
X-26510285Y114621792D01*
X-26510292Y114621787D01*
X-26621787Y114510292D01*
X-26621792Y114510285D01*
X-26709394Y114379180D01*
X-26769735Y114233503D01*
X-26769737Y114233498D01*
X-26800500Y114078845D01*
X-28349500Y114078845D01*
X-28349500Y120154466D01*
X-27250500Y120154466D01*
X-27250500Y119845535D01*
X-27215911Y119538544D01*
X-27175250Y119360397D01*
X-27147168Y119237364D01*
X-27147166Y119237358D01*
X-27147167Y119237358D01*
X-27045142Y118945789D01*
X-27045131Y118945762D01*
X-26911098Y118667440D01*
X-26911093Y118667431D01*
X-26746735Y118405857D01*
X-26554118Y118164323D01*
X-26335678Y117945883D01*
X-26335674Y117945880D01*
X-26094143Y117753265D01*
X-25904772Y117634276D01*
X-25855012Y117603009D01*
X-25832565Y117588905D01*
X-25554229Y117454865D01*
X-25554213Y117454860D01*
X-25554212Y117454859D01*
X-25262643Y117352834D01*
X-25262640Y117352834D01*
X-25262636Y117352832D01*
X-25039710Y117301951D01*
X-24961457Y117284090D01*
X-24961456Y117284090D01*
X-24961452Y117284089D01*
X-24717435Y117256595D01*
X-24654466Y117249500D01*
X-24654465Y117249500D01*
X-24345534Y117249500D01*
X-24293283Y117255388D01*
X-24038548Y117284089D01*
X-23737364Y117352832D01*
X-23445771Y117454865D01*
X-23167435Y117588905D01*
X-22905857Y117753265D01*
X-22664326Y117945880D01*
X-22445880Y118164326D01*
X-22253265Y118405857D01*
X-22088905Y118667435D01*
X-21954865Y118945771D01*
X-21852832Y119237364D01*
X-21784089Y119538548D01*
X-21749500Y119845535D01*
X-21749500Y120154465D01*
X-21784089Y120461452D01*
X-21852832Y120762636D01*
X-21854520Y120767459D01*
X-21954859Y121054212D01*
X-21954860Y121054213D01*
X-21954865Y121054229D01*
X-22088905Y121332565D01*
X-22253265Y121594143D01*
X-22445880Y121835674D01*
X-22445883Y121835678D01*
X-22664323Y122054118D01*
X-22905857Y122246735D01*
X-23167431Y122411093D01*
X-23167440Y122411098D01*
X-23445762Y122545131D01*
X-23445767Y122545133D01*
X-23445771Y122545135D01*
X-23445777Y122545138D01*
X-23445789Y122545142D01*
X-23737358Y122647167D01*
X-24038544Y122715911D01*
X-24345534Y122750500D01*
X-24345535Y122750500D01*
X-24654465Y122750500D01*
X-24654466Y122750500D01*
X-24961457Y122715911D01*
X-25262643Y122647167D01*
X-25554212Y122545142D01*
X-25554239Y122545131D01*
X-25832561Y122411098D01*
X-25832570Y122411093D01*
X-26094144Y122246735D01*
X-26335678Y122054118D01*
X-26554118Y121835678D01*
X-26746735Y121594144D01*
X-26911093Y121332570D01*
X-26911098Y121332561D01*
X-27045131Y121054239D01*
X-27045142Y121054212D01*
X-27147167Y120762643D01*
X-27215911Y120461457D01*
X-27250500Y120154466D01*
X-28349500Y120154466D01*
X-28349500Y120678364D01*
X-28329498Y120746485D01*
X-28312595Y120767459D01*
X-26075705Y123004349D01*
X-9010500Y123004349D01*
X-9010500Y122993843D01*
X-9010500Y117495650D01*
X-8004351Y116489501D01*
X-8004349Y116489500D01*
X8004349Y116489500D01*
X9010500Y117495651D01*
X9010500Y123004349D01*
X9004349Y123010500D01*
X8553392Y123461457D01*
X8004350Y124010500D01*
X8004349Y124010500D01*
X-7995650Y124010500D01*
X-8004349Y124010500D01*
X-8004351Y124010500D01*
X-8993825Y123021025D01*
X-8993827Y123021023D01*
X-9004349Y123010500D01*
X-9010500Y123004349D01*
X-26075705Y123004349D01*
X-23767459Y125312595D01*
X-23705147Y125346621D01*
X-23678364Y125349500D01*
X-505542Y125349500D01*
X-437421Y125329498D01*
X-435541Y125328265D01*
X-379184Y125290609D01*
X-379182Y125290608D01*
X-379179Y125290606D01*
X-233497Y125230263D01*
X-78842Y125199500D01*
X-78841Y125199500D01*
X78841Y125199500D01*
X78842Y125199500D01*
X233497Y125230263D01*
X379179Y125290606D01*
X510289Y125378211D01*
X621789Y125489711D01*
X709394Y125620821D01*
X769737Y125766503D01*
X800500Y125921158D01*
X800500Y126078842D01*
X769737Y126233497D01*
X709394Y126379179D01*
X621789Y126510289D01*
X510289Y126621789D01*
X475198Y126645236D01*
X429672Y126699711D01*
X420823Y126770154D01*
X451464Y126834198D01*
X475196Y126854763D01*
X510289Y126878211D01*
X621789Y126989711D01*
X709394Y127120821D01*
X723330Y127154466D01*
X8249500Y127154466D01*
X8249500Y126845535D01*
X8284089Y126538544D01*
X8320464Y126379179D01*
X8352832Y126237364D01*
X8352834Y126237358D01*
X8352833Y126237358D01*
X8454858Y125945789D01*
X8454869Y125945762D01*
X8588902Y125667440D01*
X8588907Y125667431D01*
X8753265Y125405857D01*
X8945882Y125164323D01*
X9164322Y124945883D01*
X9164326Y124945880D01*
X9405857Y124753265D01*
X9667435Y124588905D01*
X9945771Y124454865D01*
X9945787Y124454860D01*
X9945788Y124454859D01*
X10237357Y124352834D01*
X10237360Y124352834D01*
X10237364Y124352832D01*
X10460290Y124301951D01*
X10538543Y124284090D01*
X10538544Y124284090D01*
X10538548Y124284089D01*
X10782565Y124256595D01*
X10845534Y124249500D01*
X10845535Y124249500D01*
X11154466Y124249500D01*
X11206717Y124255388D01*
X11461452Y124284089D01*
X11762636Y124352832D01*
X12054229Y124454865D01*
X12332565Y124588905D01*
X12594143Y124753265D01*
X12835674Y124945880D01*
X13054120Y125164326D01*
X13246735Y125405857D01*
X13411095Y125667435D01*
X13545135Y125945771D01*
X13647168Y126237364D01*
X13715911Y126538548D01*
X13750500Y126845535D01*
X13750500Y127154465D01*
X13715911Y127461452D01*
X13647168Y127762636D01*
X13606387Y127879180D01*
X13545141Y128054212D01*
X13545140Y128054213D01*
X13545135Y128054229D01*
X13411095Y128332565D01*
X13246735Y128594143D01*
X13054120Y128835674D01*
X13054117Y128835678D01*
X12835677Y129054118D01*
X12594143Y129246735D01*
X12332569Y129411093D01*
X12332560Y129411098D01*
X12054238Y129545131D01*
X12054233Y129545133D01*
X12054229Y129545135D01*
X12054223Y129545138D01*
X12054211Y129545142D01*
X11762642Y129647167D01*
X11461456Y129715911D01*
X11154466Y129750500D01*
X11154465Y129750500D01*
X10845535Y129750500D01*
X10845534Y129750500D01*
X10538543Y129715911D01*
X10237357Y129647167D01*
X9945788Y129545142D01*
X9945761Y129545131D01*
X9667439Y129411098D01*
X9667430Y129411093D01*
X9405856Y129246735D01*
X9164322Y129054118D01*
X8945882Y128835678D01*
X8753265Y128594144D01*
X8588907Y128332570D01*
X8588902Y128332561D01*
X8454869Y128054239D01*
X8454858Y128054212D01*
X8352833Y127762643D01*
X8284089Y127461457D01*
X8249500Y127154466D01*
X723330Y127154466D01*
X769737Y127266503D01*
X800500Y127421158D01*
X800500Y127578842D01*
X769737Y127733497D01*
X709394Y127879179D01*
X621789Y128010289D01*
X510289Y128121789D01*
X475198Y128145236D01*
X429672Y128199711D01*
X420823Y128270154D01*
X451464Y128334198D01*
X475196Y128354763D01*
X510289Y128378211D01*
X621789Y128489711D01*
X709394Y128620821D01*
X769737Y128766503D01*
X800500Y128921158D01*
X800500Y129078842D01*
X769737Y129233497D01*
X709394Y129379179D01*
X621789Y129510289D01*
X510289Y129621789D01*
X475198Y129645236D01*
X429672Y129699711D01*
X420823Y129770154D01*
X451464Y129834198D01*
X475196Y129854763D01*
X510289Y129878211D01*
X621789Y129989711D01*
X709394Y130120821D01*
X769737Y130266503D01*
X800500Y130421158D01*
X800500Y130578842D01*
X769737Y130733497D01*
X709394Y130879179D01*
X621789Y131010289D01*
X510289Y131121789D01*
X379179Y131209394D01*
X233497Y131269737D01*
X78844Y131300500D01*
X78842Y131300500D01*
X-78842Y131300500D01*
X-78845Y131300500D01*
X-233498Y131269737D01*
X-233503Y131269735D01*
X-379180Y131209394D01*
X-379184Y131209392D01*
X-435541Y131171735D01*
X-503293Y131150520D01*
X-505542Y131150500D01*
X-24564069Y131150500D01*
X-24605961Y131142167D01*
X-24689746Y131125501D01*
X-24689747Y131125500D01*
X-24808128Y131076465D01*
X-24914670Y131005277D01*
X-24914674Y131005274D01*
X-34005274Y121914674D01*
X-34005277Y121914670D01*
X-34058059Y121835674D01*
X-34076465Y121808127D01*
X-34125500Y121689747D01*
X-34125501Y121689746D01*
X-34142167Y121605961D01*
X-34144517Y121594144D01*
X-34150500Y121564068D01*
X-34150500Y100305543D01*
X-34170502Y100237422D01*
X-34171734Y100235542D01*
X-34209395Y100179179D01*
X-34269735Y100033503D01*
X-34269737Y100033498D01*
X-34300500Y99878845D01*
X-41349500Y99878845D01*
X-41349500Y117994459D01*
X-41329498Y118062580D01*
X-41328265Y118064461D01*
X-41290606Y118120821D01*
X-41230263Y118266503D01*
X-41199500Y118421158D01*
X-41199500Y118578842D01*
X-41230263Y118733497D01*
X-41290606Y118879179D01*
X-41328266Y118935542D01*
X-41349480Y119003295D01*
X-41349500Y119005543D01*
X-41349500Y127154466D01*
X-36250500Y127154466D01*
X-36250500Y126845535D01*
X-36215911Y126538544D01*
X-36179536Y126379179D01*
X-36147168Y126237364D01*
X-36147166Y126237358D01*
X-36147167Y126237358D01*
X-36045142Y125945789D01*
X-36045131Y125945762D01*
X-35911098Y125667440D01*
X-35911093Y125667431D01*
X-35746735Y125405857D01*
X-35554118Y125164323D01*
X-35335678Y124945883D01*
X-35335674Y124945880D01*
X-35094143Y124753265D01*
X-34832565Y124588905D01*
X-34554229Y124454865D01*
X-34554213Y124454860D01*
X-34554212Y124454859D01*
X-34262643Y124352834D01*
X-34262640Y124352834D01*
X-34262636Y124352832D01*
X-34039710Y124301951D01*
X-33961457Y124284090D01*
X-33961456Y124284090D01*
X-33961452Y124284089D01*
X-33717435Y124256595D01*
X-33654466Y124249500D01*
X-33654465Y124249500D01*
X-33345534Y124249500D01*
X-33293283Y124255388D01*
X-33038548Y124284089D01*
X-32737364Y124352832D01*
X-32445771Y124454865D01*
X-32167435Y124588905D01*
X-31905857Y124753265D01*
X-31664326Y124945880D01*
X-31445880Y125164326D01*
X-31253265Y125405857D01*
X-31088905Y125667435D01*
X-30954865Y125945771D01*
X-30852832Y126237364D01*
X-30784089Y126538548D01*
X-30749500Y126845535D01*
X-30749500Y127154465D01*
X-30784089Y127461452D01*
X-30852832Y127762636D01*
X-30893613Y127879180D01*
X-30954859Y128054212D01*
X-30954860Y128054213D01*
X-30954865Y128054229D01*
X-31088905Y128332565D01*
X-31253265Y128594143D01*
X-31445880Y128835674D01*
X-31445883Y128835678D01*
X-31664323Y129054118D01*
X-31905857Y129246735D01*
X-32167431Y129411093D01*
X-32167440Y129411098D01*
X-32445762Y129545131D01*
X-32445767Y129545133D01*
X-32445771Y129545135D01*
X-32445777Y129545138D01*
X-32445789Y129545142D01*
X-32737358Y129647167D01*
X-33038544Y129715911D01*
X-33345534Y129750500D01*
X-33345535Y129750500D01*
X-33654465Y129750500D01*
X-33654466Y129750500D01*
X-33961457Y129715911D01*
X-34262643Y129647167D01*
X-34554212Y129545142D01*
X-34554239Y129545131D01*
X-34832561Y129411098D01*
X-34832570Y129411093D01*
X-35094144Y129246735D01*
X-35335678Y129054118D01*
X-35554118Y128835678D01*
X-35746735Y128594144D01*
X-35911093Y128332570D01*
X-35911098Y128332561D01*
X-36045131Y128054239D01*
X-36045142Y128054212D01*
X-36147167Y127762643D01*
X-36215911Y127461457D01*
X-36250500Y127154466D01*
X-41349500Y127154466D01*
X-41349500Y141178364D01*
X-41329498Y141246485D01*
X-41312595Y141267459D01*
X-37494731Y145085323D01*
X-37494724Y145085330D01*
X-37423535Y145191873D01*
X-37374499Y145310256D01*
X-37361720Y145374499D01*
X-37349500Y145435931D01*
X-37349500Y155064069D01*
X-37374499Y155189744D01*
X-37394811Y155238779D01*
X-37423534Y155308126D01*
X-37494723Y155414669D01*
X-37494725Y155414671D01*
X-37494730Y155414677D01*
X-41158898Y159078845D01*
X11199500Y159078845D01*
X11199500Y158921156D01*
X11229460Y158770541D01*
X11230263Y158766503D01*
X11290606Y158620821D01*
X11328265Y158564461D01*
X11349480Y158496708D01*
X11349500Y158494459D01*
X11349500Y143005543D01*
X11329498Y142937422D01*
X11328266Y142935542D01*
X11290605Y142879179D01*
X11230265Y142733503D01*
X11230263Y142733498D01*
X11199500Y142578845D01*
X11199500Y142421156D01*
X11217732Y142329498D01*
X11230263Y142266503D01*
X11290606Y142120821D01*
X11328265Y142064461D01*
X11349480Y141996708D01*
X11349500Y141994459D01*
X11349500Y131935931D01*
X11361720Y131874499D01*
X11374499Y131810256D01*
X11374500Y131810254D01*
X11423535Y131691873D01*
X11494723Y131585331D01*
X11494726Y131585327D01*
X17812595Y125267460D01*
X17846621Y125205148D01*
X17849500Y125178365D01*
X17849500Y115935933D01*
X17874499Y115810255D01*
X17874500Y115810254D01*
X17923535Y115691873D01*
X17994723Y115585331D01*
X17994726Y115585327D01*
X22959234Y110620821D01*
X24494724Y109085331D01*
X24585331Y108994724D01*
X24691873Y108923535D01*
X24810256Y108874499D01*
X24935931Y108849500D01*
X38994458Y108849500D01*
X39062579Y108829498D01*
X39064459Y108828265D01*
X39120816Y108790609D01*
X39120818Y108790608D01*
X39120821Y108790606D01*
X39266503Y108730263D01*
X39421158Y108699500D01*
X39421159Y108699500D01*
X39578841Y108699500D01*
X39578842Y108699500D01*
X39733497Y108730263D01*
X39879179Y108790606D01*
X40010289Y108878211D01*
X40121789Y108989711D01*
X40209394Y109120821D01*
X40269737Y109266503D01*
X40300500Y109421158D01*
X40300500Y109578842D01*
X40269737Y109733497D01*
X40209394Y109879179D01*
X40175436Y109930001D01*
X40154222Y109997750D01*
X40173004Y110066217D01*
X40175409Y110069961D01*
X40209394Y110120821D01*
X40269737Y110266503D01*
X40300500Y110421158D01*
X40300500Y110578842D01*
X40269737Y110733497D01*
X40209394Y110879179D01*
X40175436Y110930001D01*
X40154222Y110997750D01*
X40173004Y111066217D01*
X40175409Y111069961D01*
X40209394Y111120821D01*
X40269737Y111266503D01*
X40300500Y111421158D01*
X40300500Y111578842D01*
X40269737Y111733497D01*
X40209394Y111879179D01*
X40175436Y111930001D01*
X40154222Y111997750D01*
X40173004Y112066217D01*
X40175409Y112069961D01*
X40209394Y112120821D01*
X40269737Y112266503D01*
X40300500Y112421158D01*
X40300500Y112578842D01*
X40269737Y112733497D01*
X40209394Y112879179D01*
X40121789Y113010289D01*
X40010289Y113121789D01*
X39879179Y113209394D01*
X39733497Y113269737D01*
X39731401Y113270154D01*
X39578844Y113300500D01*
X39578842Y113300500D01*
X39421158Y113300500D01*
X39421155Y113300500D01*
X39266502Y113269737D01*
X39266497Y113269735D01*
X39120820Y113209394D01*
X39120816Y113209392D01*
X39064459Y113171735D01*
X38996707Y113150520D01*
X38994458Y113150500D01*
X25321636Y113150500D01*
X25253515Y113170502D01*
X25232541Y113187405D01*
X22187405Y116232541D01*
X22153379Y116294853D01*
X22150500Y116321636D01*
X22150500Y118174633D01*
X22170502Y118242754D01*
X22224158Y118289247D01*
X22294432Y118299351D01*
X22359012Y118269857D01*
X22375011Y118253193D01*
X22445882Y118164323D01*
X22664322Y117945883D01*
X22664326Y117945880D01*
X22905857Y117753265D01*
X23095228Y117634276D01*
X23144988Y117603009D01*
X23167435Y117588905D01*
X23445771Y117454865D01*
X23445787Y117454860D01*
X23445788Y117454859D01*
X23737357Y117352834D01*
X23737360Y117352834D01*
X23737364Y117352832D01*
X23960290Y117301951D01*
X24038543Y117284090D01*
X24038544Y117284090D01*
X24038548Y117284089D01*
X24282565Y117256595D01*
X24345534Y117249500D01*
X24345535Y117249500D01*
X24654466Y117249500D01*
X24706717Y117255388D01*
X24961452Y117284089D01*
X25262636Y117352832D01*
X25554229Y117454865D01*
X25832565Y117588905D01*
X26094143Y117753265D01*
X26335674Y117945880D01*
X26554120Y118164326D01*
X26746735Y118405857D01*
X26911095Y118667435D01*
X27045135Y118945771D01*
X27147168Y119237364D01*
X27215911Y119538548D01*
X27250500Y119845535D01*
X27250500Y120154465D01*
X27215911Y120461452D01*
X27147168Y120762636D01*
X27145480Y120767459D01*
X27045141Y121054212D01*
X27045140Y121054213D01*
X27045135Y121054229D01*
X26911095Y121332565D01*
X26746735Y121594143D01*
X26554120Y121835674D01*
X26554117Y121835678D01*
X26335677Y122054118D01*
X26094143Y122246735D01*
X25832569Y122411093D01*
X25832560Y122411098D01*
X25554238Y122545131D01*
X25554233Y122545133D01*
X25554229Y122545135D01*
X25554223Y122545138D01*
X25554211Y122545142D01*
X25262642Y122647167D01*
X24961456Y122715911D01*
X24654466Y122750500D01*
X24654465Y122750500D01*
X24345535Y122750500D01*
X24345534Y122750500D01*
X24038543Y122715911D01*
X23737357Y122647167D01*
X23445788Y122545142D01*
X23445761Y122545131D01*
X23167439Y122411098D01*
X23167430Y122411093D01*
X22905856Y122246735D01*
X22664322Y122054118D01*
X22445882Y121835678D01*
X22445879Y121835674D01*
X22375010Y121746808D01*
X22316900Y121706020D01*
X22245962Y121703125D01*
X22184720Y121739040D01*
X22152618Y121802365D01*
X22150500Y121825368D01*
X22150500Y127064065D01*
X22150500Y127064069D01*
X22125501Y127189744D01*
X22076465Y127308127D01*
X22005276Y127414669D01*
X21914669Y127505276D01*
X15687405Y133732541D01*
X15653379Y133794853D01*
X15650500Y133821636D01*
X15650500Y140594459D01*
X15670502Y140662580D01*
X15671735Y140664461D01*
X15709394Y140720821D01*
X15769737Y140866503D01*
X15800500Y141021158D01*
X15800500Y141178842D01*
X15769737Y141333497D01*
X15709394Y141479179D01*
X15671734Y141535542D01*
X15650520Y141603295D01*
X15650500Y141605543D01*
X15650500Y155494459D01*
X15670502Y155562580D01*
X15671735Y155564461D01*
X15709394Y155620821D01*
X15769737Y155766503D01*
X15800500Y155921158D01*
X15800500Y156078842D01*
X15769737Y156233497D01*
X15709394Y156379179D01*
X15621789Y156510289D01*
X15510289Y156621789D01*
X15379179Y156709394D01*
X15233497Y156769737D01*
X15229455Y156770541D01*
X15078844Y156800500D01*
X15078842Y156800500D01*
X14926500Y156800500D01*
X14858379Y156820502D01*
X14811886Y156874158D01*
X14800500Y156926500D01*
X14800500Y157078841D01*
X14800499Y157078845D01*
X14769737Y157233497D01*
X14709394Y157379179D01*
X14621789Y157510289D01*
X14510289Y157621789D01*
X14379179Y157709394D01*
X14233497Y157769737D01*
X14229455Y157770541D01*
X14078844Y157800500D01*
X14078842Y157800500D01*
X13926500Y157800500D01*
X13858379Y157820502D01*
X13811886Y157874158D01*
X13800500Y157926500D01*
X13800500Y158078841D01*
X13800499Y158078845D01*
X13769737Y158233497D01*
X13709394Y158379179D01*
X13621789Y158510289D01*
X13510289Y158621789D01*
X13379179Y158709394D01*
X13233497Y158769737D01*
X13229455Y158770541D01*
X13078844Y158800500D01*
X13078842Y158800500D01*
X12926500Y158800500D01*
X12858379Y158820502D01*
X12811886Y158874158D01*
X12800500Y158926500D01*
X12800500Y159078841D01*
X12800499Y159078845D01*
X12769737Y159233497D01*
X12709394Y159379179D01*
X12621789Y159510289D01*
X12510289Y159621789D01*
X12379179Y159709394D01*
X12233497Y159769737D01*
X12078844Y159800500D01*
X12078842Y159800500D01*
X11921158Y159800500D01*
X11921155Y159800500D01*
X11766502Y159769737D01*
X11766497Y159769735D01*
X11620820Y159709394D01*
X11489715Y159621792D01*
X11489708Y159621787D01*
X11378213Y159510292D01*
X11378208Y159510285D01*
X11290606Y159379180D01*
X11230265Y159233503D01*
X11230263Y159233498D01*
X11199500Y159078845D01*
X-41158898Y159078845D01*
X-42812595Y160732542D01*
X-42846621Y160794854D01*
X-42849500Y160821637D01*
X-42849500Y166654466D01*
X-36250500Y166654466D01*
X-36250500Y166345535D01*
X-36215911Y166038544D01*
X-36175250Y165860397D01*
X-36147168Y165737364D01*
X-36147166Y165737358D01*
X-36147167Y165737358D01*
X-36045142Y165445789D01*
X-36045131Y165445762D01*
X-35911098Y165167440D01*
X-35911093Y165167431D01*
X-35746735Y164905857D01*
X-35554118Y164664323D01*
X-35335678Y164445883D01*
X-35335674Y164445880D01*
X-35094143Y164253265D01*
X-35040783Y164219737D01*
X-34851019Y164100500D01*
X-34832565Y164088905D01*
X-34554229Y163954865D01*
X-34554213Y163954860D01*
X-34554212Y163954859D01*
X-34262643Y163852834D01*
X-34262640Y163852834D01*
X-34262636Y163852832D01*
X-34039710Y163801951D01*
X-33961457Y163784090D01*
X-33961456Y163784090D01*
X-33961452Y163784089D01*
X-33717435Y163756595D01*
X-33654466Y163749500D01*
X-33654465Y163749500D01*
X-33345534Y163749500D01*
X-33293283Y163755388D01*
X-33038548Y163784089D01*
X-32737364Y163852832D01*
X-32445771Y163954865D01*
X-32167435Y164088905D01*
X-31905857Y164253265D01*
X-31664326Y164445880D01*
X-31445880Y164664326D01*
X-31253265Y164905857D01*
X-31088905Y165167435D01*
X-30954865Y165445771D01*
X-30852832Y165737364D01*
X-30784089Y166038548D01*
X-30749500Y166345535D01*
X-30749500Y166654465D01*
X-30784089Y166961452D01*
X-30852832Y167262636D01*
X-30954865Y167554229D01*
X-31088905Y167832565D01*
X-31253265Y168094143D01*
X-31445880Y168335674D01*
X-31445883Y168335678D01*
X-31664323Y168554118D01*
X-31905857Y168746735D01*
X-32167431Y168911093D01*
X-32167440Y168911098D01*
X-32445762Y169045131D01*
X-32445767Y169045133D01*
X-32445771Y169045135D01*
X-32445777Y169045138D01*
X-32445789Y169045142D01*
X-32737358Y169147167D01*
X-33038544Y169215911D01*
X-33345534Y169250500D01*
X-33345535Y169250500D01*
X-33654465Y169250500D01*
X-33654466Y169250500D01*
X-33961457Y169215911D01*
X-34262643Y169147167D01*
X-34554212Y169045142D01*
X-34554239Y169045131D01*
X-34832561Y168911098D01*
X-34832570Y168911093D01*
X-35094144Y168746735D01*
X-35335678Y168554118D01*
X-35554118Y168335678D01*
X-35746735Y168094144D01*
X-35911093Y167832570D01*
X-35911098Y167832561D01*
X-36045131Y167554239D01*
X-36045142Y167554212D01*
X-36147167Y167262643D01*
X-36215911Y166961457D01*
X-36250500Y166654466D01*
X-42849500Y166654466D01*
X-42849500Y172678365D01*
X-42829498Y172746486D01*
X-42812600Y172767455D01*
X-37425590Y178154466D01*
X-27250500Y178154466D01*
X-27250500Y177845535D01*
X-27215911Y177538544D01*
X-27175250Y177360397D01*
X-27147168Y177237364D01*
X-27147166Y177237358D01*
X-27147167Y177237358D01*
X-27045142Y176945789D01*
X-27045135Y176945771D01*
X-26911098Y176667440D01*
X-26911093Y176667431D01*
X-26746735Y176405857D01*
X-26554118Y176164323D01*
X-26335678Y175945883D01*
X-26302270Y175919241D01*
X-26094143Y175753265D01*
X-26017563Y175705147D01*
X-25884905Y175621792D01*
X-25832565Y175588905D01*
X-25554229Y175454865D01*
X-25554213Y175454860D01*
X-25554212Y175454859D01*
X-25262643Y175352834D01*
X-25262640Y175352834D01*
X-25262636Y175352832D01*
X-25059707Y175306515D01*
X-24961457Y175284090D01*
X-24961456Y175284090D01*
X-24961452Y175284089D01*
X-24717435Y175256595D01*
X-24654466Y175249500D01*
X-24654465Y175249500D01*
X-24345534Y175249500D01*
X-24282689Y175256581D01*
X-24038548Y175284089D01*
X-23737364Y175352832D01*
X-23445771Y175454865D01*
X-23167435Y175588905D01*
X-22905857Y175753265D01*
X-22664326Y175945880D01*
X-22445880Y176164326D01*
X-22253265Y176405857D01*
X-22088905Y176667435D01*
X-21954865Y176945771D01*
X-21852832Y177237364D01*
X-21784089Y177538548D01*
X-21749500Y177845535D01*
X-21749500Y178154465D01*
X-21784089Y178461452D01*
X-21852832Y178762636D01*
X-21908301Y178921156D01*
X-21954859Y179054212D01*
X-21954860Y179054213D01*
X-21954865Y179054229D01*
X-22088905Y179332565D01*
X-22253265Y179594143D01*
X-22393297Y179769737D01*
X-22445883Y179835678D01*
X-22664323Y180054118D01*
X-22905857Y180246735D01*
X-23167431Y180411093D01*
X-23167440Y180411098D01*
X-23445762Y180545131D01*
X-23445767Y180545133D01*
X-23445771Y180545135D01*
X-23445777Y180545138D01*
X-23445789Y180545142D01*
X-23737358Y180647167D01*
X-24038544Y180715911D01*
X-24345534Y180750500D01*
X-24345535Y180750500D01*
X-24654465Y180750500D01*
X-24654466Y180750500D01*
X-24961457Y180715911D01*
X-25262643Y180647167D01*
X-25554212Y180545142D01*
X-25554239Y180545131D01*
X-25832561Y180411098D01*
X-25832570Y180411093D01*
X-26094144Y180246735D01*
X-26335678Y180054118D01*
X-26554118Y179835678D01*
X-26746735Y179594144D01*
X-26911093Y179332570D01*
X-26911098Y179332561D01*
X-27045131Y179054239D01*
X-27045142Y179054212D01*
X-27147167Y178762643D01*
X-27215911Y178461457D01*
X-27250500Y178154466D01*
X-37425590Y178154466D01*
X-37397499Y178182557D01*
X-37386071Y178189583D01*
X-37379826Y178197264D01*
X-37359878Y178205686D01*
X-37347688Y178213180D01*
X-37340453Y178215554D01*
X-37266503Y178230263D01*
X-37120821Y178290606D01*
X-36989711Y178378211D01*
X-36878211Y178489711D01*
X-36790606Y178620821D01*
X-36730263Y178766503D01*
X-36699500Y178921158D01*
X-36699500Y179078842D01*
X-36730263Y179233497D01*
X-36790606Y179379179D01*
X-36878211Y179510289D01*
X-36989711Y179621789D01*
X-37120821Y179709394D01*
X-37266503Y179769737D01*
X-37421156Y179800500D01*
X-37421158Y179800500D01*
X-37578842Y179800500D01*
X-37578845Y179800500D01*
X-37733498Y179769737D01*
X-37733503Y179769735D01*
X-37879180Y179709394D01*
X-38010285Y179621792D01*
X-38010292Y179621787D01*
X-38121787Y179510292D01*
X-38121792Y179510285D01*
X-38209394Y179379180D01*
X-38269736Y179233501D01*
X-38282962Y179167013D01*
X-38315871Y179104104D01*
X-38317446Y179102502D01*
X-43634405Y173785542D01*
X-43696717Y173751516D01*
X-43767532Y173756581D01*
X-43824368Y173799128D01*
X-43849179Y173865648D01*
X-43849500Y173874637D01*
X-43849500Y174178365D01*
X-43829498Y174246486D01*
X-43812600Y174267455D01*
X-39897499Y178182557D01*
X-39835189Y178216581D01*
X-39832986Y178217039D01*
X-39766508Y178230262D01*
X-39766508Y178230263D01*
X-39766503Y178230263D01*
X-39620821Y178290606D01*
X-39489711Y178378211D01*
X-39378211Y178489711D01*
X-39290606Y178620821D01*
X-39230263Y178766503D01*
X-39199500Y178921158D01*
X-39199500Y179078842D01*
X-39230263Y179233497D01*
X-39290606Y179379179D01*
X-39378211Y179510289D01*
X-39489711Y179621789D01*
X-39620821Y179709394D01*
X-39766503Y179769737D01*
X-39921156Y179800500D01*
X-39921158Y179800500D01*
X-40078842Y179800500D01*
X-40078845Y179800500D01*
X-40233498Y179769737D01*
X-40233503Y179769735D01*
X-40379180Y179709394D01*
X-40510285Y179621792D01*
X-40510292Y179621787D01*
X-40621787Y179510292D01*
X-40621792Y179510285D01*
X-40709394Y179379180D01*
X-40769736Y179233501D01*
X-40782962Y179167013D01*
X-40815871Y179104104D01*
X-40817446Y179102502D01*
X-44634405Y175285542D01*
X-44696717Y175251516D01*
X-44767532Y175256581D01*
X-44824368Y175299128D01*
X-44849179Y175365648D01*
X-44849500Y175374637D01*
X-44849500Y175678365D01*
X-44829498Y175746486D01*
X-44812600Y175767455D01*
X-42397499Y178182557D01*
X-42335189Y178216580D01*
X-42332986Y178217039D01*
X-42266508Y178230262D01*
X-42266508Y178230263D01*
X-42266503Y178230263D01*
X-42120821Y178290606D01*
X-41989711Y178378211D01*
X-41878211Y178489711D01*
X-41790606Y178620821D01*
X-41730263Y178766503D01*
X-41699500Y178921158D01*
X-41699500Y179078842D01*
X-41730263Y179233497D01*
X-41790606Y179379179D01*
X-41878211Y179510289D01*
X-41989711Y179621789D01*
X-42120821Y179709394D01*
X-42266503Y179769737D01*
X-42421156Y179800500D01*
X-42421158Y179800500D01*
X-42578842Y179800500D01*
X-42578845Y179800500D01*
X-42733498Y179769737D01*
X-42733503Y179769735D01*
X-42879180Y179709394D01*
X-43010285Y179621792D01*
X-43010292Y179621787D01*
X-43121787Y179510292D01*
X-43121792Y179510285D01*
X-43209394Y179379180D01*
X-43269736Y179233501D01*
X-43282962Y179167013D01*
X-43315871Y179104104D01*
X-43317446Y179102502D01*
X-45634405Y176785542D01*
X-45696717Y176751517D01*
X-45767532Y176756581D01*
X-45824368Y176799128D01*
X-45849179Y176865648D01*
X-45849500Y176874637D01*
X-45849500Y177178365D01*
X-45829498Y177246486D01*
X-45812599Y177267456D01*
X-44897500Y178182556D01*
X-44835188Y178216581D01*
X-44832985Y178217039D01*
X-44766508Y178230262D01*
X-44766508Y178230263D01*
X-44766503Y178230263D01*
X-44620821Y178290606D01*
X-44489711Y178378211D01*
X-44378211Y178489711D01*
X-44290606Y178620821D01*
X-44230263Y178766503D01*
X-44199500Y178921158D01*
X-44199500Y179078842D01*
X-44230263Y179233497D01*
X-44290606Y179379179D01*
X-44378211Y179510289D01*
X-44489711Y179621789D01*
X-44620821Y179709394D01*
X-44766503Y179769737D01*
X-44921156Y179800500D01*
X-44921158Y179800500D01*
X-45078842Y179800500D01*
X-45078845Y179800500D01*
X-45233498Y179769737D01*
X-45233503Y179769735D01*
X-45379180Y179709394D01*
X-45510285Y179621792D01*
X-45510292Y179621787D01*
X-45621787Y179510292D01*
X-45621792Y179510285D01*
X-45709394Y179379180D01*
X-45769736Y179233501D01*
X-45782962Y179167013D01*
X-45815871Y179104104D01*
X-45817445Y179102502D01*
X-46299125Y178620821D01*
X-46634404Y178285542D01*
X-46696717Y178251517D01*
X-46767532Y178256581D01*
X-46824368Y178299128D01*
X-46849179Y178365648D01*
X-46849500Y178374637D01*
X-46849500Y180678365D01*
X-46829498Y180746486D01*
X-46812600Y180767455D01*
X-44432546Y183147509D01*
X-10000500Y183147509D01*
X-10000500Y182852492D01*
X-9961995Y182560015D01*
X-9961994Y182560009D01*
X-9961993Y182560007D01*
X-9885639Y182275048D01*
X-9772743Y182002493D01*
X-9772742Y182002492D01*
X-9772737Y182002481D01*
X-9625241Y181747010D01*
X-9625236Y181747003D01*
X-9445654Y181512967D01*
X-9445635Y181512946D01*
X-9237055Y181304366D01*
X-9237034Y181304347D01*
X-9002998Y181124765D01*
X-9002991Y181124760D01*
X-8747520Y180977264D01*
X-8747516Y180977263D01*
X-8747507Y180977257D01*
X-8474952Y180864361D01*
X-8189993Y180788007D01*
X-8189987Y180788007D01*
X-8189986Y180788006D01*
X-8156426Y180783588D01*
X-7897506Y180749500D01*
X-7897499Y180749500D01*
X-7602501Y180749500D01*
X-7602494Y180749500D01*
X-7310007Y180788007D01*
X-7025048Y180864361D01*
X-6752493Y180977257D01*
X-6497006Y181124762D01*
X-6262958Y181304354D01*
X-6262946Y181304366D01*
X-6065595Y181501716D01*
X-6003283Y181535742D01*
X-5932468Y181530677D01*
X-5875632Y181488130D01*
X-5850821Y181421610D01*
X-5850500Y181412621D01*
X-5850500Y166235931D01*
X-5836205Y166164069D01*
X-5825501Y166110256D01*
X-5825500Y166110252D01*
X-5825499Y166110251D01*
X-5776466Y165991875D01*
X-5705277Y165885331D01*
X-5705274Y165885327D01*
X-214678Y160394731D01*
X-214672Y160394726D01*
X-214670Y160394724D01*
X-108127Y160323535D01*
X10256Y160274499D01*
X135931Y160249500D01*
X39494458Y160249500D01*
X39562579Y160229498D01*
X39564459Y160228265D01*
X39620816Y160190609D01*
X39620818Y160190608D01*
X39620821Y160190606D01*
X39766503Y160130263D01*
X39921158Y160099500D01*
X39921159Y160099500D01*
X40078841Y160099500D01*
X40078842Y160099500D01*
X40233497Y160130263D01*
X40379179Y160190606D01*
X40510289Y160278211D01*
X40621789Y160389711D01*
X40709394Y160520821D01*
X40769737Y160666503D01*
X40800500Y160821158D01*
X40800500Y160978842D01*
X40769737Y161133497D01*
X40709394Y161279179D01*
X40621789Y161410289D01*
X40510289Y161521789D01*
X40379179Y161609394D01*
X40233497Y161669737D01*
X40078844Y161700500D01*
X40078842Y161700500D01*
X39921158Y161700500D01*
X39921155Y161700500D01*
X39766502Y161669737D01*
X39766497Y161669735D01*
X39620820Y161609394D01*
X39620816Y161609392D01*
X39564459Y161571735D01*
X39496707Y161550520D01*
X39494458Y161550500D01*
X521636Y161550500D01*
X453515Y161570502D01*
X432541Y161587405D01*
X-4512595Y166532541D01*
X-4527540Y166559910D01*
X-4544396Y166586138D01*
X-4545302Y166592437D01*
X-4546621Y166594853D01*
X-4549500Y166621636D01*
X-4549500Y166654466D01*
X8249500Y166654466D01*
X8249500Y166345535D01*
X8284089Y166038544D01*
X8324750Y165860397D01*
X8352832Y165737364D01*
X8352834Y165737358D01*
X8352833Y165737358D01*
X8454858Y165445789D01*
X8454869Y165445762D01*
X8588902Y165167440D01*
X8588907Y165167431D01*
X8753265Y164905857D01*
X8945882Y164664323D01*
X9164322Y164445883D01*
X9164326Y164445880D01*
X9405857Y164253265D01*
X9459217Y164219737D01*
X9648981Y164100500D01*
X9667435Y164088905D01*
X9945771Y163954865D01*
X9945787Y163954860D01*
X9945788Y163954859D01*
X10237357Y163852834D01*
X10237360Y163852834D01*
X10237364Y163852832D01*
X10460290Y163801951D01*
X10538543Y163784090D01*
X10538544Y163784090D01*
X10538548Y163784089D01*
X10782565Y163756595D01*
X10845534Y163749500D01*
X10845535Y163749500D01*
X11154466Y163749500D01*
X11206717Y163755388D01*
X11461452Y163784089D01*
X11762636Y163852832D01*
X12054229Y163954865D01*
X12332565Y164088905D01*
X12594143Y164253265D01*
X12835674Y164445880D01*
X13054120Y164664326D01*
X13246735Y164905857D01*
X13411095Y165167435D01*
X13545135Y165445771D01*
X13647168Y165737364D01*
X13715911Y166038548D01*
X13750500Y166345535D01*
X13750500Y166654465D01*
X13715911Y166961452D01*
X13647168Y167262636D01*
X13545135Y167554229D01*
X13411095Y167832565D01*
X13246735Y168094143D01*
X13054120Y168335674D01*
X13054117Y168335678D01*
X12835677Y168554118D01*
X12594143Y168746735D01*
X12332569Y168911093D01*
X12332560Y168911098D01*
X12054238Y169045131D01*
X12054233Y169045133D01*
X12054229Y169045135D01*
X12054223Y169045138D01*
X12054211Y169045142D01*
X11762642Y169147167D01*
X11461456Y169215911D01*
X11154466Y169250500D01*
X11154465Y169250500D01*
X10845535Y169250500D01*
X10845534Y169250500D01*
X10538543Y169215911D01*
X10237357Y169147167D01*
X9945788Y169045142D01*
X9945761Y169045131D01*
X9667439Y168911098D01*
X9667430Y168911093D01*
X9405856Y168746735D01*
X9164322Y168554118D01*
X8945882Y168335678D01*
X8753265Y168094144D01*
X8588907Y167832570D01*
X8588902Y167832561D01*
X8454869Y167554239D01*
X8454858Y167554212D01*
X8352833Y167262643D01*
X8284089Y166961457D01*
X8249500Y166654466D01*
X-4549500Y166654466D01*
X-4549500Y175078845D01*
X14249500Y175078845D01*
X14249500Y175078842D01*
X14249500Y174921158D01*
X14280263Y174766503D01*
X14340606Y174620821D01*
X14378265Y174564461D01*
X14399480Y174496708D01*
X14399500Y174494459D01*
X14399500Y166035931D01*
X14410310Y165981588D01*
X14424499Y165910256D01*
X14473535Y165791873D01*
X14490490Y165766498D01*
X14544723Y165685331D01*
X14544726Y165685327D01*
X17285326Y162944727D01*
X17285330Y162944724D01*
X17285331Y162944723D01*
X17391873Y162873535D01*
X17510256Y162824499D01*
X17635931Y162799500D01*
X39494458Y162799500D01*
X39562579Y162779498D01*
X39564459Y162778265D01*
X39620816Y162740609D01*
X39620818Y162740608D01*
X39620821Y162740606D01*
X39766503Y162680263D01*
X39921158Y162649500D01*
X39921159Y162649500D01*
X40078841Y162649500D01*
X40078842Y162649500D01*
X40233497Y162680263D01*
X40379179Y162740606D01*
X40510289Y162828211D01*
X40621789Y162939711D01*
X40709394Y163070821D01*
X40769737Y163216503D01*
X40800500Y163371158D01*
X40800500Y163528842D01*
X40769737Y163683497D01*
X40709394Y163829179D01*
X40621789Y163960289D01*
X40510289Y164071789D01*
X40379179Y164159394D01*
X40233497Y164219737D01*
X40078844Y164250500D01*
X40078842Y164250500D01*
X39921158Y164250500D01*
X39921155Y164250500D01*
X39766502Y164219737D01*
X39766497Y164219735D01*
X39620820Y164159394D01*
X39620816Y164159392D01*
X39564459Y164121735D01*
X39496707Y164100520D01*
X39494458Y164100500D01*
X18021636Y164100500D01*
X17953515Y164120502D01*
X17932541Y164137405D01*
X15737405Y166332541D01*
X15703379Y166394853D01*
X15700500Y166421636D01*
X15700500Y174494459D01*
X15720502Y174562580D01*
X15721735Y174564461D01*
X15759394Y174620821D01*
X15819737Y174766503D01*
X15850500Y174921158D01*
X15850500Y175078842D01*
X15819737Y175233497D01*
X15759394Y175379179D01*
X15671789Y175510289D01*
X15560289Y175621789D01*
X15429179Y175709394D01*
X15283497Y175769737D01*
X15128844Y175800500D01*
X15128842Y175800500D01*
X14971158Y175800500D01*
X14971155Y175800500D01*
X14816502Y175769737D01*
X14816497Y175769735D01*
X14670820Y175709394D01*
X14539715Y175621792D01*
X14539708Y175621787D01*
X14428213Y175510292D01*
X14428208Y175510285D01*
X14340606Y175379180D01*
X14280265Y175233503D01*
X14280263Y175233498D01*
X14249500Y175078845D01*
X-4549500Y175078845D01*
X-4549500Y183864065D01*
X-4549500Y183864069D01*
X-4574499Y183989744D01*
X-4594811Y184038779D01*
X-4623534Y184108126D01*
X-4694723Y184214669D01*
X-4694725Y184214671D01*
X-4694730Y184214677D01*
X-6762595Y186282542D01*
X-6777540Y186309911D01*
X-6794396Y186336139D01*
X-6795302Y186342438D01*
X-6796621Y186344854D01*
X-6799500Y186371637D01*
X-6799500Y186478841D01*
X-6799501Y186478845D01*
X-3400500Y186478845D01*
X-3400500Y186321156D01*
X-3398263Y186309911D01*
X-3369737Y186166503D01*
X-3309394Y186020821D01*
X-3271735Y185964461D01*
X-3250520Y185896708D01*
X-3250500Y185894459D01*
X-3250500Y179635931D01*
X-3238671Y179576465D01*
X-3225501Y179510255D01*
X-3225500Y179510254D01*
X-3176465Y179391873D01*
X-3105277Y179285331D01*
X-3105274Y179285327D01*
X-814674Y176994727D01*
X-814670Y176994724D01*
X-741406Y176945771D01*
X-741407Y176945771D01*
X-708130Y176923537D01*
X-708131Y176923537D01*
X-708129Y176923536D01*
X-708127Y176923535D01*
X-589744Y176874499D01*
X-464069Y176849500D01*
X16878364Y176849500D01*
X16946485Y176829498D01*
X16967459Y176812595D01*
X18312595Y175467459D01*
X18346621Y175405147D01*
X18349500Y175378364D01*
X18349500Y166505543D01*
X18329498Y166437422D01*
X18328266Y166435542D01*
X18290605Y166379179D01*
X18230265Y166233503D01*
X18230263Y166233498D01*
X18199500Y166078845D01*
X18199500Y165921156D01*
X18230263Y165766503D01*
X18290606Y165620821D01*
X18378211Y165489711D01*
X18489711Y165378211D01*
X18620821Y165290606D01*
X18766503Y165230263D01*
X18921158Y165199500D01*
X18921159Y165199500D01*
X19078841Y165199500D01*
X19078842Y165199500D01*
X19233497Y165230263D01*
X19379179Y165290606D01*
X19393888Y165300435D01*
X19435541Y165328265D01*
X19503293Y165349480D01*
X19505542Y165349500D01*
X39494458Y165349500D01*
X39562579Y165329498D01*
X39564459Y165328265D01*
X39620816Y165290609D01*
X39620818Y165290608D01*
X39620821Y165290606D01*
X39766503Y165230263D01*
X39921158Y165199500D01*
X39921159Y165199500D01*
X40078841Y165199500D01*
X40078842Y165199500D01*
X40233497Y165230263D01*
X40379179Y165290606D01*
X40510289Y165378211D01*
X40621789Y165489711D01*
X40709394Y165620821D01*
X40769737Y165766503D01*
X40800500Y165921158D01*
X40800500Y166078842D01*
X40769737Y166233497D01*
X40709394Y166379179D01*
X40621789Y166510289D01*
X40510289Y166621789D01*
X40379179Y166709394D01*
X40233497Y166769737D01*
X40078844Y166800500D01*
X40078842Y166800500D01*
X39921158Y166800500D01*
X39921155Y166800500D01*
X39766502Y166769737D01*
X39766497Y166769735D01*
X39620820Y166709394D01*
X39620816Y166709392D01*
X39564459Y166671735D01*
X39496707Y166650520D01*
X39494458Y166650500D01*
X19776500Y166650500D01*
X19708379Y166670502D01*
X19661886Y166724158D01*
X19650500Y166776500D01*
X19650500Y175764065D01*
X19650500Y175764069D01*
X19625501Y175889744D01*
X19576465Y176008127D01*
X19576464Y176008129D01*
X19576463Y176008131D01*
X19576462Y176008132D01*
X19539086Y176064070D01*
X19539085Y176064070D01*
X19505275Y176114671D01*
X19505272Y176114675D01*
X17614673Y178005274D01*
X17614669Y178005277D01*
X17542895Y178053234D01*
X17508127Y178076465D01*
X17389746Y178125500D01*
X17389745Y178125501D01*
X17347852Y178133834D01*
X17264069Y178150500D01*
X17264067Y178150500D01*
X-78364Y178150500D01*
X-91871Y178154466D01*
X21749500Y178154466D01*
X21749500Y177845535D01*
X21784089Y177538544D01*
X21824750Y177360397D01*
X21852832Y177237364D01*
X21852834Y177237358D01*
X21852833Y177237358D01*
X21954858Y176945789D01*
X21954865Y176945771D01*
X22088902Y176667440D01*
X22088907Y176667431D01*
X22253265Y176405857D01*
X22445882Y176164323D01*
X22664322Y175945883D01*
X22697730Y175919241D01*
X22905857Y175753265D01*
X22982437Y175705147D01*
X23115095Y175621792D01*
X23167435Y175588905D01*
X23445771Y175454865D01*
X23445787Y175454860D01*
X23445788Y175454859D01*
X23737357Y175352834D01*
X23737360Y175352834D01*
X23737364Y175352832D01*
X23940293Y175306515D01*
X24038543Y175284090D01*
X24038544Y175284090D01*
X24038548Y175284089D01*
X24282565Y175256595D01*
X24345534Y175249500D01*
X24345535Y175249500D01*
X24654466Y175249500D01*
X24717311Y175256581D01*
X24961452Y175284089D01*
X25262636Y175352832D01*
X25554229Y175454865D01*
X25832565Y175588905D01*
X26094143Y175753265D01*
X26335674Y175945880D01*
X26554120Y176164326D01*
X26746735Y176405857D01*
X26911095Y176667435D01*
X27045135Y176945771D01*
X27147168Y177237364D01*
X27215911Y177538548D01*
X27250500Y177845535D01*
X27250500Y178154465D01*
X27215911Y178461452D01*
X27147168Y178762636D01*
X27091699Y178921156D01*
X27045141Y179054212D01*
X27045140Y179054213D01*
X27045135Y179054229D01*
X26911095Y179332565D01*
X26746735Y179594143D01*
X26606703Y179769737D01*
X26554117Y179835678D01*
X26335677Y180054118D01*
X26094143Y180246735D01*
X25832569Y180411093D01*
X25832560Y180411098D01*
X25554238Y180545131D01*
X25554233Y180545133D01*
X25554229Y180545135D01*
X25554223Y180545138D01*
X25554211Y180545142D01*
X25262642Y180647167D01*
X24961456Y180715911D01*
X24654466Y180750500D01*
X24654465Y180750500D01*
X24345535Y180750500D01*
X24345534Y180750500D01*
X24038543Y180715911D01*
X23737357Y180647167D01*
X23445788Y180545142D01*
X23445761Y180545131D01*
X23167439Y180411098D01*
X23167430Y180411093D01*
X22905856Y180246735D01*
X22664322Y180054118D01*
X22445882Y179835678D01*
X22253265Y179594144D01*
X22088907Y179332570D01*
X22088902Y179332561D01*
X21954869Y179054239D01*
X21954858Y179054212D01*
X21852833Y178762643D01*
X21784089Y178461457D01*
X21749500Y178154466D01*
X-91871Y178154466D01*
X-146485Y178170502D01*
X-167459Y178187405D01*
X-1912595Y179932541D01*
X-1946621Y179994853D01*
X-1949500Y180021636D01*
X-1949500Y183147509D01*
X5499500Y183147509D01*
X5499500Y182852492D01*
X5538005Y182560015D01*
X5538006Y182560009D01*
X5538007Y182560007D01*
X5614361Y182275048D01*
X5727257Y182002493D01*
X5727258Y182002492D01*
X5727263Y182002481D01*
X5874759Y181747010D01*
X5874764Y181747003D01*
X6054346Y181512967D01*
X6054365Y181512946D01*
X6262945Y181304366D01*
X6262966Y181304347D01*
X6497002Y181124765D01*
X6497009Y181124760D01*
X6752480Y180977264D01*
X6752484Y180977263D01*
X6752493Y180977257D01*
X7025048Y180864361D01*
X7310007Y180788007D01*
X7310013Y180788007D01*
X7310014Y180788006D01*
X7343574Y180783588D01*
X7602494Y180749500D01*
X7602501Y180749500D01*
X7897499Y180749500D01*
X7897506Y180749500D01*
X8189993Y180788007D01*
X8474952Y180864361D01*
X8747507Y180977257D01*
X9002994Y181124762D01*
X9237042Y181304354D01*
X9445646Y181512958D01*
X9625238Y181747006D01*
X9772743Y182002493D01*
X9885639Y182275048D01*
X9961993Y182560007D01*
X10000500Y182852494D01*
X10000500Y183147506D01*
X9961993Y183439993D01*
X9885639Y183724952D01*
X9772743Y183997507D01*
X9772737Y183997516D01*
X9772736Y183997520D01*
X9625240Y184252991D01*
X9625235Y184252998D01*
X9445653Y184487034D01*
X9445634Y184487055D01*
X9237054Y184695635D01*
X9237033Y184695654D01*
X9002997Y184875236D01*
X9002990Y184875241D01*
X8747519Y185022737D01*
X8747511Y185022741D01*
X8747507Y185022743D01*
X8474952Y185135639D01*
X8189993Y185211993D01*
X8189991Y185211994D01*
X8189985Y185211995D01*
X7897508Y185250500D01*
X7897506Y185250500D01*
X7602494Y185250500D01*
X7602491Y185250500D01*
X7310014Y185211995D01*
X7025048Y185135639D01*
X6752491Y185022742D01*
X6752480Y185022737D01*
X6497009Y184875241D01*
X6497002Y184875236D01*
X6262966Y184695654D01*
X6262945Y184695635D01*
X6054365Y184487055D01*
X6054346Y184487034D01*
X5874764Y184252998D01*
X5874759Y184252991D01*
X5727263Y183997520D01*
X5727258Y183997509D01*
X5727257Y183997507D01*
X5671985Y183864069D01*
X5614361Y183724952D01*
X5538005Y183439986D01*
X5499500Y183147509D01*
X-1949500Y183147509D01*
X-1949500Y185894459D01*
X-1929498Y185962580D01*
X-1928265Y185964461D01*
X-1890606Y186020821D01*
X-1830263Y186166503D01*
X-1799500Y186321158D01*
X-1799500Y186478842D01*
X-1830263Y186633497D01*
X-1890606Y186779179D01*
X-1978211Y186910289D01*
X-2089711Y187021789D01*
X-2220821Y187109394D01*
X-2366503Y187169737D01*
X-2521156Y187200500D01*
X-2521158Y187200500D01*
X-2678842Y187200500D01*
X-2678845Y187200500D01*
X-2833498Y187169737D01*
X-2833503Y187169735D01*
X-2979180Y187109394D01*
X-3110285Y187021792D01*
X-3110292Y187021787D01*
X-3221787Y186910292D01*
X-3221792Y186910285D01*
X-3309394Y186779180D01*
X-3369735Y186633503D01*
X-3369737Y186633498D01*
X-3400500Y186478845D01*
X-6799501Y186478845D01*
X-6830263Y186633497D01*
X-6890606Y186779179D01*
X-6978211Y186910289D01*
X-7089711Y187021789D01*
X-7220821Y187109394D01*
X-7366503Y187169737D01*
X-7521156Y187200500D01*
X-7521158Y187200500D01*
X-7678842Y187200500D01*
X-7678845Y187200500D01*
X-7833498Y187169737D01*
X-7833503Y187169735D01*
X-7979180Y187109394D01*
X-8110285Y187021792D01*
X-8110292Y187021787D01*
X-8221787Y186910292D01*
X-8221792Y186910285D01*
X-8309394Y186779180D01*
X-8369735Y186633503D01*
X-8369737Y186633498D01*
X-8400500Y186478845D01*
X-8400500Y186321156D01*
X-8398263Y186309911D01*
X-8369737Y186166503D01*
X-8309394Y186020821D01*
X-8221789Y185889711D01*
X-8155614Y185823536D01*
X-8110289Y185778211D01*
X-8084044Y185760675D01*
X-8064950Y185745004D01*
X-7785541Y185465595D01*
X-7751515Y185403283D01*
X-7756580Y185332468D01*
X-7799127Y185275632D01*
X-7865647Y185250821D01*
X-7874636Y185250500D01*
X-7897509Y185250500D01*
X-8189986Y185211995D01*
X-8474952Y185135639D01*
X-8747509Y185022742D01*
X-8747520Y185022737D01*
X-9002991Y184875241D01*
X-9002998Y184875236D01*
X-9237034Y184695654D01*
X-9237055Y184695635D01*
X-9445635Y184487055D01*
X-9445654Y184487034D01*
X-9625236Y184252998D01*
X-9625241Y184252991D01*
X-9772737Y183997520D01*
X-9772742Y183997509D01*
X-9772743Y183997507D01*
X-9828015Y183864069D01*
X-9885639Y183724952D01*
X-9961995Y183439986D01*
X-10000500Y183147509D01*
X-44432546Y183147509D01*
X-37397499Y190182557D01*
X-37335189Y190216581D01*
X-37332986Y190217039D01*
X-37266508Y190230262D01*
X-37266508Y190230263D01*
X-37266503Y190230263D01*
X-37120821Y190290606D01*
X-36989711Y190378211D01*
X-36878211Y190489711D01*
X-36790606Y190620821D01*
X-36730263Y190766503D01*
X-36699500Y190921158D01*
X-36699500Y191078842D01*
X-36730263Y191233497D01*
X-36790606Y191379179D01*
X-36878211Y191510289D01*
X-36989711Y191621789D01*
X-37120821Y191709394D01*
X-37266503Y191769737D01*
X-37421156Y191800500D01*
X-37421158Y191800500D01*
X-37578842Y191800500D01*
X-37578845Y191800500D01*
X-37733498Y191769737D01*
X-37733503Y191769735D01*
X-37879180Y191709394D01*
X-38010285Y191621792D01*
X-38010292Y191621787D01*
X-38121787Y191510292D01*
X-38121792Y191510285D01*
X-38209394Y191379180D01*
X-38269736Y191233501D01*
X-38282962Y191167013D01*
X-38315871Y191104104D01*
X-38317446Y191102502D01*
X-47683925Y181736022D01*
X-47746237Y181701996D01*
X-47817052Y181707061D01*
X-47873888Y181749608D01*
X-47898699Y181816128D01*
X-47899020Y181825117D01*
X-47899020Y182128846D01*
X-47879018Y182196967D01*
X-47862120Y182217936D01*
X-39897500Y190182557D01*
X-39835190Y190216581D01*
X-39833056Y190217025D01*
X-39766503Y190230263D01*
X-39620821Y190290606D01*
X-39489711Y190378211D01*
X-39378211Y190489711D01*
X-39290606Y190620821D01*
X-39230263Y190766503D01*
X-39199500Y190921158D01*
X-39199500Y191078842D01*
X-39230263Y191233497D01*
X-39290606Y191379179D01*
X-39378211Y191510289D01*
X-39489711Y191621789D01*
X-39620821Y191709394D01*
X-39766503Y191769737D01*
X-39921156Y191800500D01*
X-39921158Y191800500D01*
X-40078842Y191800500D01*
X-40078845Y191800500D01*
X-40233498Y191769737D01*
X-40233503Y191769735D01*
X-40379180Y191709394D01*
X-40510285Y191621792D01*
X-40510292Y191621787D01*
X-40621787Y191510292D01*
X-40621792Y191510285D01*
X-40709394Y191379180D01*
X-40769736Y191233501D01*
X-40769739Y191233493D01*
X-40782964Y191167010D01*
X-40815873Y191104102D01*
X-40817447Y191102500D01*
X-48634405Y183285541D01*
X-48696717Y183251515D01*
X-48767532Y183256580D01*
X-48824368Y183299127D01*
X-48849179Y183365647D01*
X-48849500Y183374636D01*
X-48849500Y183678365D01*
X-48829498Y183746486D01*
X-48812600Y183767455D01*
X-42397499Y190182557D01*
X-42335189Y190216581D01*
X-42332986Y190217039D01*
X-42266508Y190230262D01*
X-42266508Y190230263D01*
X-42266503Y190230263D01*
X-42120821Y190290606D01*
X-41989711Y190378211D01*
X-41878211Y190489711D01*
X-41790606Y190620821D01*
X-41730263Y190766503D01*
X-41699500Y190921158D01*
X-41699500Y191078842D01*
X-41730263Y191233497D01*
X-41790606Y191379179D01*
X-41878211Y191510289D01*
X-41989711Y191621789D01*
X-42120821Y191709394D01*
X-42266503Y191769737D01*
X-42421156Y191800500D01*
X-42421158Y191800500D01*
X-42578842Y191800500D01*
X-42578845Y191800500D01*
X-42733498Y191769737D01*
X-42733503Y191769735D01*
X-42879180Y191709394D01*
X-43010285Y191621792D01*
X-43010292Y191621787D01*
X-43121787Y191510292D01*
X-43121792Y191510285D01*
X-43209394Y191379180D01*
X-43269736Y191233501D01*
X-43282962Y191167013D01*
X-43315871Y191104104D01*
X-43317446Y191102502D01*
X-49634405Y184785542D01*
X-49696717Y184751516D01*
X-49767532Y184756581D01*
X-49824368Y184799128D01*
X-49849179Y184865648D01*
X-49849500Y184874637D01*
X-49849500Y185178365D01*
X-49829498Y185246486D01*
X-49812600Y185267455D01*
X-44897499Y190182557D01*
X-44835189Y190216581D01*
X-44832986Y190217039D01*
X-44766508Y190230262D01*
X-44766508Y190230263D01*
X-44766503Y190230263D01*
X-44620821Y190290606D01*
X-44489711Y190378211D01*
X-44378211Y190489711D01*
X-44290606Y190620821D01*
X-44230263Y190766503D01*
X-44199500Y190921158D01*
X-44199500Y191078842D01*
X-44230263Y191233497D01*
X-44290606Y191379179D01*
X-44378211Y191510289D01*
X-44489711Y191621789D01*
X-44620821Y191709394D01*
X-44766503Y191769737D01*
X-44921156Y191800500D01*
X-44921158Y191800500D01*
X-45078842Y191800500D01*
X-45078845Y191800500D01*
X-45233498Y191769737D01*
X-45233503Y191769735D01*
X-45379180Y191709394D01*
X-45510285Y191621792D01*
X-45510292Y191621787D01*
X-45621787Y191510292D01*
X-45621792Y191510285D01*
X-45709394Y191379180D01*
X-45769736Y191233501D01*
X-45782962Y191167013D01*
X-45815871Y191104104D01*
X-45817446Y191102502D01*
X-51005274Y185914674D01*
X-51005277Y185914670D01*
X-51066170Y185823535D01*
X-51066171Y185823536D01*
X-51076463Y185808132D01*
X-51125500Y185689747D01*
X-51125501Y185689746D01*
X-51150500Y185564068D01*
X-51150500Y156935927D01*
X-51147562Y156921161D01*
X-51147562Y156921158D01*
X-51147561Y156921158D01*
X-51125501Y156810256D01*
X-51125500Y156810253D01*
X-51076466Y156691875D01*
X-51076465Y156691873D01*
X-51037249Y156633181D01*
X-51005277Y156585331D01*
X-51005274Y156585327D01*
X-45687405Y151267459D01*
X-45653379Y151205147D01*
X-45650500Y151178364D01*
X-45650500Y149321636D01*
X-45670502Y149253515D01*
X-45687405Y149232541D01*
X-49232541Y145687405D01*
X-49294853Y145653379D01*
X-49321636Y145650500D01*
X-52064069Y145650500D01*
X-52105961Y145642167D01*
X-52189746Y145625501D01*
X-52189747Y145625500D01*
X-52259095Y145596775D01*
X-52306492Y145577142D01*
X-52308129Y145576464D01*
X-52414665Y145505279D01*
X-52414667Y145505278D01*
X-54102501Y143817445D01*
X-54164813Y143783420D01*
X-54167013Y143782962D01*
X-54233500Y143769737D01*
X-54233501Y143769736D01*
X-54379180Y143709394D01*
X-54510285Y143621792D01*
X-54510292Y143621787D01*
X-54621787Y143510292D01*
X-54621792Y143510285D01*
X-54709394Y143379180D01*
X-54769735Y143233503D01*
X-54769737Y143233498D01*
X-54800500Y143078845D01*
X-54800500Y142921156D01*
X-54782962Y142832990D01*
X-54769737Y142766503D01*
X-54709394Y142620821D01*
X-54681344Y142578842D01*
X-54671735Y142564461D01*
X-54650520Y142496708D01*
X-54650500Y142494459D01*
X-54650500Y77505543D01*
X-54670502Y77437422D01*
X-54671734Y77435542D01*
X-54709395Y77379179D01*
X-54769735Y77233503D01*
X-54769737Y77233498D01*
X-54800500Y77078845D01*
X-54800500Y77078842D01*
X-54800500Y76921158D01*
X-54769737Y76766503D01*
X-54709394Y76620821D01*
X-54621789Y76489711D01*
X-54510289Y76378211D01*
X-54379179Y76290606D01*
X-54233497Y76230263D01*
X-54078842Y76199500D01*
X-54078841Y76199500D01*
X-53921159Y76199500D01*
X-53921158Y76199500D01*
X-53766503Y76230263D01*
X-53620821Y76290606D01*
X-53489711Y76378211D01*
X-53378211Y76489711D01*
X-53290606Y76620821D01*
X-53230263Y76766503D01*
X-53199500Y76921158D01*
X-53199500Y77078842D01*
X-53230263Y77233497D01*
X-53290606Y77379179D01*
X-53328266Y77435542D01*
X-53349480Y77503295D01*
X-53349500Y77505543D01*
X-53349500Y142494459D01*
X-53329498Y142562580D01*
X-53328265Y142564461D01*
X-53318656Y142578842D01*
X-53290606Y142620821D01*
X-53230263Y142766503D01*
X-53217039Y142832989D01*
X-53184135Y142895894D01*
X-53182666Y142897391D01*
X-51767458Y144312598D01*
X-51705148Y144346621D01*
X-51678365Y144349500D01*
X-51374637Y144349500D01*
X-51306516Y144329498D01*
X-51260023Y144275842D01*
X-51249919Y144205568D01*
X-51279413Y144140988D01*
X-51285542Y144134404D01*
X-51602503Y143817445D01*
X-51664815Y143783420D01*
X-51667014Y143782963D01*
X-51733492Y143769739D01*
X-51733501Y143769736D01*
X-51879180Y143709394D01*
X-52010285Y143621792D01*
X-52010292Y143621787D01*
X-52121787Y143510292D01*
X-52121792Y143510285D01*
X-52209394Y143379180D01*
X-52269735Y143233503D01*
X-52269737Y143233498D01*
X-52300500Y143078845D01*
X-52300500Y142921156D01*
X-52282962Y142832990D01*
X-52269737Y142766503D01*
X-52209394Y142620821D01*
X-52181344Y142578842D01*
X-52171735Y142564461D01*
X-52150520Y142496708D01*
X-52150500Y142494459D01*
X-52150500Y77505543D01*
X-52170502Y77437422D01*
X-52171734Y77435542D01*
X-52209395Y77379179D01*
X-52269735Y77233503D01*
X-52269737Y77233498D01*
X-52300500Y77078845D01*
X-52300500Y77078842D01*
X-52300500Y76921158D01*
X-52269737Y76766503D01*
X-52209394Y76620821D01*
X-52121789Y76489711D01*
X-52010289Y76378211D01*
X-51879179Y76290606D01*
X-51733497Y76230263D01*
X-51578842Y76199500D01*
X-51578841Y76199500D01*
X-51421159Y76199500D01*
X-51421158Y76199500D01*
X-51266503Y76230263D01*
X-51120821Y76290606D01*
X-50989711Y76378211D01*
X-50878211Y76489711D01*
X-50790606Y76620821D01*
X-50730263Y76766503D01*
X-50699500Y76921158D01*
X-50699500Y77078842D01*
X-50730263Y77233497D01*
X-50790606Y77379179D01*
X-50828266Y77435542D01*
X-50849480Y77503295D01*
X-50849500Y77505543D01*
X-50849500Y142494459D01*
X-50829498Y142562580D01*
X-50828265Y142564461D01*
X-50818656Y142578842D01*
X-50790606Y142620821D01*
X-50730263Y142766503D01*
X-50730263Y142766507D01*
X-50730261Y142766509D01*
X-50717040Y142832983D01*
X-50684134Y142895893D01*
X-50682614Y142897442D01*
X-50267458Y143312596D01*
X-50205146Y143346621D01*
X-50178363Y143349500D01*
X-49900194Y143349500D01*
X-49832073Y143329498D01*
X-49785580Y143275842D01*
X-49775476Y143205568D01*
X-49776615Y143198918D01*
X-49800500Y143078845D01*
X-49800500Y142921156D01*
X-49782962Y142832990D01*
X-49769737Y142766503D01*
X-49709394Y142620821D01*
X-49681344Y142578842D01*
X-49671735Y142564461D01*
X-49650520Y142496708D01*
X-49650500Y142494459D01*
X-49650500Y77505543D01*
X-49670502Y77437422D01*
X-49671734Y77435542D01*
X-49709395Y77379179D01*
X-49769735Y77233503D01*
X-49769737Y77233498D01*
X-49800500Y77078845D01*
X-49800500Y77078842D01*
X-49800500Y76921158D01*
X-49769737Y76766503D01*
X-49709394Y76620821D01*
X-49621789Y76489711D01*
X-49510289Y76378211D01*
X-49379179Y76290606D01*
X-49233497Y76230263D01*
X-49078842Y76199500D01*
X-49078841Y76199500D01*
X-48921159Y76199500D01*
X-48921158Y76199500D01*
X-48766503Y76230263D01*
X-48620821Y76290606D01*
X-48489711Y76378211D01*
X-48378211Y76489711D01*
X-48290606Y76620821D01*
X-48230263Y76766503D01*
X-48199500Y76921158D01*
X-48199500Y77078842D01*
X-48230263Y77233497D01*
X-48290606Y77379179D01*
X-48328266Y77435542D01*
X-48349480Y77503295D01*
X-48349500Y77505543D01*
X-48349500Y142223500D01*
X-48329498Y142291621D01*
X-48275842Y142338114D01*
X-48223500Y142349500D01*
X-47935936Y142349500D01*
X-47935931Y142349500D01*
X-47810256Y142374499D01*
X-47691873Y142423535D01*
X-47673321Y142435931D01*
X-47585331Y142494723D01*
X-47415912Y142664144D01*
X-47353600Y142698168D01*
X-47282784Y142693104D01*
X-47225948Y142650557D01*
X-47219937Y142641778D01*
X-47214404Y142632916D01*
X-47209394Y142620821D01*
X-47170645Y142562829D01*
X-47169621Y142561189D01*
X-47160570Y142528802D01*
X-47150520Y142496708D01*
X-47150500Y142494459D01*
X-47150500Y113005543D01*
X-47170502Y112937422D01*
X-47171734Y112935542D01*
X-47209395Y112879179D01*
X-47269735Y112733503D01*
X-47269737Y112733498D01*
X-47300500Y112578845D01*
X-47300500Y112421156D01*
X-47269737Y112266503D01*
X-47209394Y112120821D01*
X-47171735Y112064461D01*
X-47150520Y111996708D01*
X-47150500Y111994459D01*
X-47150500Y77505543D01*
X-47170502Y77437422D01*
X-47171734Y77435542D01*
X-47209395Y77379179D01*
X-47269735Y77233503D01*
X-47269737Y77233498D01*
X-47300500Y77078845D01*
X-47300500Y77078842D01*
X-47300500Y76921158D01*
X-47269737Y76766503D01*
X-47209394Y76620821D01*
X-47121789Y76489711D01*
X-47010289Y76378211D01*
X-46879179Y76290606D01*
X-46733497Y76230263D01*
X-46578842Y76199500D01*
X-46578841Y76199500D01*
X-46421159Y76199500D01*
X-46421158Y76199500D01*
X-46266503Y76230263D01*
X-46120821Y76290606D01*
X-45989711Y76378211D01*
X-45878211Y76489711D01*
X-45878206Y76489720D01*
X-45874280Y76494501D01*
X-45872142Y76492746D01*
X-45826863Y76530636D01*
X-45756425Y76539530D01*
X-45692362Y76508930D01*
X-45655011Y76448552D01*
X-45650500Y76415139D01*
X-45650500Y72584862D01*
X-45670502Y72516741D01*
X-45724158Y72470248D01*
X-45794432Y72460144D01*
X-45859012Y72489638D01*
X-45873543Y72506105D01*
X-45874280Y72505499D01*
X-45878209Y72510286D01*
X-45878211Y72510289D01*
X-45989711Y72621789D01*
X-46120821Y72709394D01*
X-46266503Y72769737D01*
X-46421156Y72800500D01*
X-46421158Y72800500D01*
X-46578842Y72800500D01*
X-46578845Y72800500D01*
X-46733498Y72769737D01*
X-46733503Y72769735D01*
X-46879180Y72709394D01*
X-47010285Y72621792D01*
X-47010292Y72621787D01*
X-47121787Y72510292D01*
X-47121792Y72510285D01*
X-47209394Y72379180D01*
X-47269735Y72233503D01*
X-47269737Y72233498D01*
X-47300500Y72078845D01*
X-47300500Y72078842D01*
X-47300500Y71921158D01*
X-47269737Y71766503D01*
X-47209394Y71620821D01*
X-47171735Y71564461D01*
X-47150520Y71496708D01*
X-47150500Y71494459D01*
X-47150500Y71071636D01*
X-47170502Y71003515D01*
X-47187405Y70982541D01*
X-66032541Y52137405D01*
X-66094853Y52103379D01*
X-66121636Y52100500D01*
X-66994458Y52100500D01*
X-67062579Y52120502D01*
X-67064459Y52121735D01*
X-67120817Y52159392D01*
X-67120821Y52159394D01*
X-67266498Y52219735D01*
X-67266503Y52219737D01*
X-67421156Y52250500D01*
X-67421158Y52250500D01*
X-67578842Y52250500D01*
X-67578845Y52250500D01*
X-67733498Y52219737D01*
X-67733503Y52219735D01*
X-67879180Y52159394D01*
X-68010285Y52071792D01*
X-68010292Y52071787D01*
X-68121787Y51960292D01*
X-68121792Y51960285D01*
X-68209394Y51829180D01*
X-68269735Y51683503D01*
X-68269737Y51683498D01*
X-68300500Y51528845D01*
X-74384500Y51528845D01*
X-74384500Y51551287D01*
X-74417754Y51761243D01*
X-74483443Y51963412D01*
X-74579949Y52152816D01*
X-74704896Y52324792D01*
X-74704899Y52324795D01*
X-74704901Y52324798D01*
X-74855203Y52475100D01*
X-74855206Y52475102D01*
X-74855208Y52475104D01*
X-75027184Y52600051D01*
X-75032449Y52602734D01*
X-75084063Y52651480D01*
X-75101130Y52720394D01*
X-75078230Y52787596D01*
X-75032449Y52827267D01*
X-75027184Y52829949D01*
X-74855208Y52954896D01*
X-74704896Y53105208D01*
X-74579949Y53277184D01*
X-74483443Y53466588D01*
X-74417754Y53668757D01*
X-74384500Y53878713D01*
X-74384500Y54091287D01*
X-74417754Y54301243D01*
X-74483443Y54503412D01*
X-74579949Y54692816D01*
X-74704896Y54864792D01*
X-74704899Y54864795D01*
X-74704901Y54864798D01*
X-74855203Y55015100D01*
X-74855206Y55015102D01*
X-74855208Y55015104D01*
X-74976970Y55103569D01*
X-75027186Y55140053D01*
X-75031402Y55142636D01*
X-75030358Y55144341D01*
X-75075822Y55187305D01*
X-75092869Y55256224D01*
X-75069948Y55323419D01*
X-75027175Y55360465D01*
X-75027471Y55360949D01*
X-75024545Y55362743D01*
X-75024165Y55363071D01*
X-75023246Y55363540D01*
X-74850321Y55489178D01*
X-74699178Y55640321D01*
X-74573537Y55813250D01*
X-74476494Y56003708D01*
X-74476491Y56003714D01*
X-74410441Y56206996D01*
X-74400302Y56271000D01*
X-75304297Y56271000D01*
X-75269075Y56332007D01*
X-75235000Y56459174D01*
X-75235000Y56590826D01*
X-75269075Y56717993D01*
X-75304297Y56779000D01*
X-74400303Y56779000D01*
X-74410441Y56843005D01*
X-74476491Y57046287D01*
X-74476494Y57046293D01*
X-74573537Y57236751D01*
X-74699178Y57409680D01*
X-74850321Y57560823D01*
X-75023250Y57686464D01*
X-75213708Y57783507D01*
X-75213714Y57783510D01*
X-75416996Y57849560D01*
X-75481000Y57859698D01*
X-75481000Y56955703D01*
X-75542007Y56990925D01*
X-75669174Y57025000D01*
X-75800826Y57025000D01*
X-75927993Y56990925D01*
X-75989000Y56955703D01*
X-75989000Y57859698D01*
X-76053005Y57849560D01*
X-76256287Y57783510D01*
X-76256293Y57783507D01*
X-76446751Y57686464D01*
X-76619678Y57560824D01*
X-76723178Y57457324D01*
X-76785490Y57423299D01*
X-76856306Y57428365D01*
X-76913142Y57470911D01*
X-76930329Y57502388D01*
X-76974556Y57620966D01*
X-77062096Y57737905D01*
X-77179035Y57825445D01*
X-77315907Y57876495D01*
X-77376403Y57883000D01*
X-78021000Y57883000D01*
X-78021000Y56955703D01*
X-78082007Y56990925D01*
X-78209174Y57025000D01*
X-78340826Y57025000D01*
X-78467993Y56990925D01*
X-78529000Y56955703D01*
X-78529000Y57883000D01*
X-79173598Y57883000D01*
X-79234094Y57876495D01*
X-79370965Y57825445D01*
X-79370966Y57825445D01*
X-79487905Y57737905D01*
X-79575445Y57620966D01*
X-79575445Y57620965D01*
X-79626495Y57484094D01*
X-79633000Y57423598D01*
X-91141086Y57423598D01*
X-90807074Y57803660D01*
X-90797699Y57813245D01*
X-88793497Y59654837D01*
X-88782408Y59663917D01*
X-88769829Y59673075D01*
X-86641393Y61222672D01*
X-86628829Y61230726D01*
X-84350603Y62507206D01*
X-84336990Y62513791D01*
X-81921033Y63508371D01*
X-81906943Y63513219D01*
X-79352574Y64226089D01*
X-79338631Y64229140D01*
X-76645229Y64660236D01*
X-76631958Y64661643D01*
X-73793688Y64810997D01*
X-73791293Y64811100D01*
X-70903310Y64906126D01*
X-70903021Y64905887D01*
X-70899013Y64906267D01*
X-70894989Y64906399D01*
X-70894989Y64906400D01*
X-70880113Y64906888D01*
X-70873299Y64908702D01*
X-68054975Y65175581D01*
X-68054666Y65175357D01*
X-68050698Y65175986D01*
X-68046758Y65176359D01*
X-68032066Y65177750D01*
X-68025288Y65180014D01*
X-65252224Y65619532D01*
X-65251898Y65619325D01*
X-65247991Y65620202D01*
X-65244015Y65620832D01*
X-65244015Y65620834D01*
X-65229547Y65623126D01*
X-65222856Y65625844D01*
X-62495067Y66237981D01*
X-62494726Y66237794D01*
X-62490873Y66238922D01*
X-62486957Y66239800D01*
X-62486957Y66239802D01*
X-62486949Y66239803D01*
X-62486945Y66239803D01*
X-62486928Y66239807D01*
X-62472732Y66242990D01*
X-62466205Y66246139D01*
X-59785763Y67030271D01*
X-59783508Y67030930D01*
X-59783157Y67030766D01*
X-59779391Y67032135D01*
X-59775522Y67033266D01*
X-59775519Y67033266D01*
X-59775494Y67033274D01*
X-59761525Y67037357D01*
X-59755223Y67040908D01*
X-57117557Y67998382D01*
X-57117202Y67998242D01*
X-57113523Y67999846D01*
X-57109740Y68001219D01*
X-57109739Y68001222D01*
X-57095868Y68006256D01*
X-57089869Y68010159D01*
X-54513039Y69133438D01*
X-54497224Y69140332D01*
X-54496867Y69140216D01*
X-54493284Y69142049D01*
X-54489594Y69143657D01*
X-54489594Y69143658D01*
X-54475926Y69149614D01*
X-54470254Y69153828D01*
X-51940357Y70447657D01*
X-51920681Y70457716D01*
X-51918292Y70457973D01*
X-51916978Y70459609D01*
X-51915102Y70460567D01*
X-51915096Y70460575D01*
X-51915094Y70460575D01*
X-51915094Y70460577D01*
X-51915085Y70460586D01*
X-51914342Y70462884D01*
X-51912839Y70464751D01*
X-51913066Y70466832D01*
X-51912417Y70468835D01*
X-51912419Y70468863D01*
X-51913519Y70471012D01*
X-51913776Y70473398D01*
X-51915415Y70474717D01*
X-51916373Y70476590D01*
X-51916379Y70476595D01*
X-51916379Y70476596D01*
X-51916381Y70476597D01*
X-51918228Y70478170D01*
X-51920554Y70478851D01*
X-51922651Y70478624D01*
X-51924656Y70479272D01*
X-51926804Y70478174D01*
X-51929295Y70477905D01*
X-51949907Y70475671D01*
X-51949908Y70475672D01*
X-57180714Y69908768D01*
X-57193670Y69908036D01*
X-62023370Y69884286D01*
X-62038763Y69885153D01*
X-66448153Y70405744D01*
X-66465846Y70409130D01*
X-66711809Y70474721D01*
X-68694756Y71003515D01*
X-70455362Y71473017D01*
X-70474587Y71479853D01*
X-74045503Y73086194D01*
X-74064750Y73096969D01*
X-74064751Y73096970D01*
X-77218989Y75245693D01*
X-77236357Y75259950D01*
X-79975831Y77952087D01*
X-79989843Y77968438D01*
X-82317207Y81207943D01*
X-82325023Y81220272D01*
X-82327144Y81224089D01*
X-84286651Y84751422D01*
X-84290944Y84759888D01*
X-85854041Y88154466D01*
X-82750500Y88154466D01*
X-82750500Y87845535D01*
X-82715911Y87538544D01*
X-82675250Y87360397D01*
X-82647168Y87237364D01*
X-82647166Y87237358D01*
X-82647167Y87237358D01*
X-82545142Y86945789D01*
X-82545131Y86945762D01*
X-82411098Y86667440D01*
X-82411093Y86667431D01*
X-82246735Y86405857D01*
X-82054118Y86164323D01*
X-81835678Y85945883D01*
X-81835674Y85945880D01*
X-81594143Y85753265D01*
X-81332565Y85588905D01*
X-81054229Y85454865D01*
X-81054213Y85454860D01*
X-81054212Y85454859D01*
X-80762643Y85352834D01*
X-80762640Y85352834D01*
X-80762636Y85352832D01*
X-80539710Y85301951D01*
X-80461457Y85284090D01*
X-80461456Y85284090D01*
X-80461452Y85284089D01*
X-80217435Y85256595D01*
X-80154466Y85249500D01*
X-80154465Y85249500D01*
X-79845534Y85249500D01*
X-79793283Y85255388D01*
X-79538548Y85284089D01*
X-79237364Y85352832D01*
X-78945771Y85454865D01*
X-78667435Y85588905D01*
X-78405857Y85753265D01*
X-78164326Y85945880D01*
X-77945880Y86164326D01*
X-77753265Y86405857D01*
X-77588905Y86667435D01*
X-77454865Y86945771D01*
X-77352832Y87237364D01*
X-77284089Y87538548D01*
X-77249500Y87845535D01*
X-77249500Y88154465D01*
X-77284089Y88461452D01*
X-77352832Y88762636D01*
X-77454865Y89054229D01*
X-77588905Y89332565D01*
X-77753265Y89594143D01*
X-77945880Y89835674D01*
X-77945883Y89835678D01*
X-78164323Y90054118D01*
X-78405857Y90246735D01*
X-78667431Y90411093D01*
X-78667440Y90411098D01*
X-78945762Y90545131D01*
X-78945767Y90545133D01*
X-78945771Y90545135D01*
X-78945777Y90545138D01*
X-78945789Y90545142D01*
X-79237358Y90647167D01*
X-79538544Y90715911D01*
X-79845534Y90750500D01*
X-79845535Y90750500D01*
X-80154465Y90750500D01*
X-80154466Y90750500D01*
X-80461457Y90715911D01*
X-80762643Y90647167D01*
X-81054212Y90545142D01*
X-81054239Y90545131D01*
X-81332561Y90411098D01*
X-81332570Y90411093D01*
X-81594144Y90246735D01*
X-81835678Y90054118D01*
X-82054118Y89835678D01*
X-82246735Y89594144D01*
X-82411093Y89332570D01*
X-82411098Y89332561D01*
X-82545131Y89054239D01*
X-82545142Y89054212D01*
X-82647167Y88762643D01*
X-82715911Y88461457D01*
X-82750500Y88154466D01*
X-85854041Y88154466D01*
X-85930505Y88320523D01*
X-85934345Y88329822D01*
X-85982639Y88461457D01*
X-87250529Y91917334D01*
X-87253735Y91927344D01*
X-88246719Y95541865D01*
X-88249134Y95552415D01*
X-88919063Y99194140D01*
X-88920582Y99205074D01*
X-88984237Y99878211D01*
X-89267551Y102874219D01*
X-89268108Y102885261D01*
X-89268642Y102967321D01*
X-89292154Y106582142D01*
X-89291754Y106593017D01*
X-88992821Y110318043D01*
X-88991575Y110328268D01*
X-88388758Y114011338D01*
X-88386693Y114021377D01*
X-88333972Y114233497D01*
X-87499227Y117592032D01*
X-87496281Y117602076D01*
X-86324216Y121060279D01*
X-86320422Y121070100D01*
X-85412968Y123154466D01*
X-82750500Y123154466D01*
X-82750500Y122845535D01*
X-82715911Y122538544D01*
X-82675250Y122360397D01*
X-82647168Y122237364D01*
X-82647166Y122237358D01*
X-82647167Y122237358D01*
X-82545142Y121945789D01*
X-82545131Y121945762D01*
X-82411098Y121667440D01*
X-82411093Y121667431D01*
X-82246735Y121405857D01*
X-82054118Y121164323D01*
X-81835678Y120945883D01*
X-81835674Y120945880D01*
X-81594143Y120753265D01*
X-81332565Y120588905D01*
X-81054229Y120454865D01*
X-81054213Y120454860D01*
X-81054212Y120454859D01*
X-80762643Y120352834D01*
X-80762640Y120352834D01*
X-80762636Y120352832D01*
X-80539710Y120301951D01*
X-80461457Y120284090D01*
X-80461456Y120284090D01*
X-80461452Y120284089D01*
X-80217435Y120256595D01*
X-80154466Y120249500D01*
X-80154465Y120249500D01*
X-79845534Y120249500D01*
X-79793283Y120255388D01*
X-79538548Y120284089D01*
X-79237364Y120352832D01*
X-78945771Y120454865D01*
X-78667435Y120588905D01*
X-78405857Y120753265D01*
X-78164326Y120945880D01*
X-77945880Y121164326D01*
X-77753265Y121405857D01*
X-77588905Y121667435D01*
X-77454865Y121945771D01*
X-77352832Y122237364D01*
X-77284089Y122538548D01*
X-77249500Y122845535D01*
X-77249500Y123154465D01*
X-77284089Y123461452D01*
X-77352832Y123762636D01*
X-77439564Y124010500D01*
X-77454859Y124054212D01*
X-77454860Y124054213D01*
X-77454865Y124054229D01*
X-77588905Y124332565D01*
X-77601640Y124352832D01*
X-77652457Y124433708D01*
X-77753265Y124594143D01*
X-77945880Y124835674D01*
X-77945883Y124835678D01*
X-78164323Y125054118D01*
X-78405857Y125246735D01*
X-78667431Y125411093D01*
X-78667440Y125411098D01*
X-78945762Y125545131D01*
X-78945767Y125545133D01*
X-78945771Y125545135D01*
X-78945777Y125545138D01*
X-78945789Y125545142D01*
X-79237358Y125647167D01*
X-79538544Y125715911D01*
X-79845534Y125750500D01*
X-79845535Y125750500D01*
X-80154465Y125750500D01*
X-80154466Y125750500D01*
X-80461457Y125715911D01*
X-80762643Y125647167D01*
X-81054212Y125545142D01*
X-81054239Y125545131D01*
X-81332561Y125411098D01*
X-81332570Y125411093D01*
X-81594144Y125246735D01*
X-81835678Y125054118D01*
X-82054118Y124835678D01*
X-82246735Y124594144D01*
X-82411093Y124332570D01*
X-82411098Y124332561D01*
X-82545131Y124054239D01*
X-82545142Y124054212D01*
X-82647167Y123762643D01*
X-82715911Y123461457D01*
X-82750500Y123154466D01*
X-85412968Y123154466D01*
X-84863688Y124416127D01*
X-84859109Y124425552D01*
X-83117606Y127659598D01*
X-83112384Y127668413D01*
X-81085955Y130790645D01*
X-81080221Y130798758D01*
X-78768682Y133809299D01*
X-78762625Y133816597D01*
X-76166403Y136714826D01*
X-76159007Y136722413D01*
X-73314144Y139404022D01*
X-73304758Y139412037D01*
X-70246193Y141774088D01*
X-70235917Y141781236D01*
X-66962872Y143824483D01*
X-66952026Y143830531D01*
X-63464117Y145555184D01*
X-63453010Y145560026D01*
X-59749901Y146966141D01*
X-59738891Y146969751D01*
X-55820206Y148057304D01*
X-55809565Y148059764D01*
X-51675057Y148828622D01*
X-51665029Y148830070D01*
X-47318006Y149279698D01*
X-47312511Y149280266D01*
X-47311371Y149279692D01*
X-47308328Y149280699D01*
X-47304674Y149281076D01*
X-47303117Y149282420D01*
X-47303112Y149282421D01*
X-47303111Y149282425D01*
X-47300595Y149284594D01*
X-47299648Y149287778D01*
X-47299645Y149287780D01*
X-47299646Y149287784D01*
X-47298575Y149291378D01*
X-47298595Y149292749D01*
X-47298626Y149292892D01*
X-47300539Y149296430D01*
X-47300539Y149296432D01*
X-47300542Y149296434D01*
X-47301520Y149298244D01*
X-47304802Y149299896D01*
X-47307291Y149301918D01*
X-47308561Y149301787D01*
X-47830521Y149564449D01*
X-50530605Y150923191D01*
X-50540883Y150928981D01*
X-53348552Y152688776D01*
X-53359895Y152696789D01*
X-55738853Y154582152D01*
X-55755551Y154595386D01*
X-55767539Y154606207D01*
X-56213594Y155064065D01*
X-57751868Y156643045D01*
X-57763686Y156657093D01*
X-57788860Y156691874D01*
X-59337797Y158831947D01*
X-59348255Y158849137D01*
X-59360859Y158874158D01*
X-60513527Y161162483D01*
X-60521386Y161181986D01*
X-61278977Y163635117D01*
X-61283454Y163655436D01*
X-61287244Y163683503D01*
X-61634177Y166252995D01*
X-61635278Y166267133D01*
X-61690939Y168873748D01*
X-61690802Y168882908D01*
X-61682461Y169045135D01*
X-61563642Y171356045D01*
X-61562718Y171366111D01*
X-61252900Y173702569D01*
X-61250958Y173713492D01*
X-60758741Y175913367D01*
X-60755552Y175924977D01*
X-60081161Y177988541D01*
X-60076544Y178000552D01*
X-60075812Y178002199D01*
X-59220126Y179928184D01*
X-59214021Y179940155D01*
X-58175584Y181732328D01*
X-58168016Y181743878D01*
X-58166344Y181746148D01*
X-56946268Y183402624D01*
X-56939883Y183410594D01*
X-55587405Y184965215D01*
X-55582969Y184970051D01*
X-54155203Y186446580D01*
X-54150477Y186451214D01*
X-52648722Y187848167D01*
X-52643762Y187852543D01*
X-51067923Y189170009D01*
X-51062805Y189174064D01*
X-49412840Y190412064D01*
X-49407522Y190415841D01*
X-47683433Y191574361D01*
X-47678011Y191577805D01*
X-45879731Y192656873D01*
X-45874295Y192659952D01*
X-44001864Y193659527D01*
X-43996130Y193662401D01*
X-42947574Y194154466D01*
X-32750500Y194154466D01*
X-32750500Y193845535D01*
X-32715911Y193538544D01*
X-32675250Y193360397D01*
X-32647168Y193237364D01*
X-32647166Y193237358D01*
X-32647167Y193237358D01*
X-32545142Y192945789D01*
X-32545131Y192945762D01*
X-32411098Y192667440D01*
X-32411093Y192667431D01*
X-32246735Y192405857D01*
X-32054118Y192164323D01*
X-31835678Y191945883D01*
X-31835674Y191945880D01*
X-31594143Y191753265D01*
X-31404772Y191634276D01*
X-31332570Y191588908D01*
X-31332561Y191588903D01*
X-31302333Y191574346D01*
X-31054229Y191454865D01*
X-31054213Y191454860D01*
X-31054212Y191454859D01*
X-30762643Y191352834D01*
X-30762640Y191352834D01*
X-30762636Y191352832D01*
X-30539710Y191301951D01*
X-30461457Y191284090D01*
X-30461456Y191284090D01*
X-30461452Y191284089D01*
X-30217435Y191256595D01*
X-30154466Y191249500D01*
X-30154465Y191249500D01*
X-29845534Y191249500D01*
X-29793283Y191255388D01*
X-29538548Y191284089D01*
X-29237364Y191352832D01*
X-28945771Y191454865D01*
X-28667435Y191588905D01*
X-28405857Y191753265D01*
X-28164326Y191945880D01*
X-27945880Y192164326D01*
X-27753265Y192405857D01*
X-27588905Y192667435D01*
X-27454865Y192945771D01*
X-27352832Y193237364D01*
X-27284089Y193538548D01*
X-27249500Y193845535D01*
X-27249500Y194154465D01*
X-27249500Y194154466D01*
X27249500Y194154466D01*
X27249500Y193845535D01*
X27284089Y193538544D01*
X27324750Y193360397D01*
X27352832Y193237364D01*
X27352834Y193237358D01*
X27352833Y193237358D01*
X27454858Y192945789D01*
X27454869Y192945762D01*
X27588902Y192667440D01*
X27588907Y192667431D01*
X27753265Y192405857D01*
X27945882Y192164323D01*
X28164322Y191945883D01*
X28164326Y191945880D01*
X28405857Y191753265D01*
X28595228Y191634276D01*
X28667430Y191588908D01*
X28667439Y191588903D01*
X28697667Y191574346D01*
X28945771Y191454865D01*
X28945787Y191454860D01*
X28945788Y191454859D01*
X29237357Y191352834D01*
X29237360Y191352834D01*
X29237364Y191352832D01*
X29460290Y191301951D01*
X29538543Y191284090D01*
X29538544Y191284090D01*
X29538548Y191284089D01*
X29782565Y191256595D01*
X29845534Y191249500D01*
X29845535Y191249500D01*
X30154466Y191249500D01*
X30206717Y191255388D01*
X30461452Y191284089D01*
X30762636Y191352832D01*
X31054229Y191454865D01*
X31332565Y191588905D01*
X31594143Y191753265D01*
X31835674Y191945880D01*
X32054120Y192164326D01*
X32246735Y192405857D01*
X32411095Y192667435D01*
X32545135Y192945771D01*
X32647168Y193237364D01*
X32715911Y193538548D01*
X32750500Y193845535D01*
X32750500Y194154465D01*
X32715911Y194461452D01*
X32647168Y194762636D01*
X32545135Y195054229D01*
X32411095Y195332565D01*
X32246735Y195594143D01*
X32054120Y195835674D01*
X32054117Y195835678D01*
X31835677Y196054118D01*
X31594143Y196246735D01*
X31332569Y196411093D01*
X31332560Y196411098D01*
X31054238Y196545131D01*
X31054233Y196545133D01*
X31054229Y196545135D01*
X31054223Y196545138D01*
X31054211Y196545142D01*
X30762642Y196647167D01*
X30461456Y196715911D01*
X30154466Y196750500D01*
X30154465Y196750500D01*
X29845535Y196750500D01*
X29845534Y196750500D01*
X29538543Y196715911D01*
X29237357Y196647167D01*
X28945788Y196545142D01*
X28945761Y196545131D01*
X28667439Y196411098D01*
X28667430Y196411093D01*
X28405856Y196246735D01*
X28164322Y196054118D01*
X27945882Y195835678D01*
X27753265Y195594144D01*
X27588907Y195332570D01*
X27588902Y195332561D01*
X27454869Y195054239D01*
X27454858Y195054212D01*
X27352833Y194762643D01*
X27284089Y194461457D01*
X27249500Y194154466D01*
X-27249500Y194154466D01*
X-27284089Y194461452D01*
X-27352832Y194762636D01*
X-27454865Y195054229D01*
X-27588905Y195332565D01*
X-27753265Y195594143D01*
X-27945880Y195835674D01*
X-27945883Y195835678D01*
X-28164323Y196054118D01*
X-28405857Y196246735D01*
X-28667431Y196411093D01*
X-28667440Y196411098D01*
X-28945762Y196545131D01*
X-28945767Y196545133D01*
X-28945771Y196545135D01*
X-28945777Y196545138D01*
X-28945789Y196545142D01*
X-29237358Y196647167D01*
X-29538544Y196715911D01*
X-29845534Y196750500D01*
X-29845535Y196750500D01*
X-30154465Y196750500D01*
X-30154466Y196750500D01*
X-30461457Y196715911D01*
X-30762643Y196647167D01*
X-31054212Y196545142D01*
X-31054239Y196545131D01*
X-31332561Y196411098D01*
X-31332570Y196411093D01*
X-31594144Y196246735D01*
X-31835678Y196054118D01*
X-32054118Y195835678D01*
X-32246735Y195594144D01*
X-32411093Y195332570D01*
X-32411098Y195332561D01*
X-32545131Y195054239D01*
X-32545142Y195054212D01*
X-32647167Y194762643D01*
X-32715911Y194461457D01*
X-32750500Y194154466D01*
X-42947574Y194154466D01*
X-42028805Y194585625D01*
X-42022933Y194588199D01*
X-39939594Y195438373D01*
X-39934035Y195440489D01*
X-37734427Y196217657D01*
X-37729145Y196219392D01*
X-35413256Y196923490D01*
X-35408310Y196924882D01*
X-32976098Y197555864D01*
X-32971469Y197556970D01*
X-30423067Y198114754D01*
X-30418692Y198115630D01*
X-27753905Y198600214D01*
X-27749920Y198600870D01*
X-24969848Y199012047D01*
X-24964413Y199012729D01*
X-22093156Y199308740D01*
X-22086261Y199309258D01*
X-19146243Y199448591D01*
X-19139574Y199448729D01*
X-16129747Y199431436D01*
X-16123418Y199431238D01*
X-13043797Y199257265D01*
X-13037777Y199256780D01*
X-9888360Y198926082D01*
X-9882659Y198925352D01*
X-6663351Y198437868D01*
X-6658052Y198436948D01*
X-3368903Y197792640D01*
X-3363923Y197791559D01*
X-4069Y196990177D01*
X-1794Y196988778D01*
X0Y196989206D01*
X1794Y196988778D01*
X1796Y196988780D01*
X13560Y196990661D01*
X23680Y196994855D01*
X3363954Y197791566D01*
X3368913Y197792643D01*
X6658058Y198436950D01*
X6663342Y198437867D01*
X9882664Y198925353D01*
X9888354Y198926082D01*
X13037775Y199256780D01*
X13043788Y199257265D01*
X16123418Y199431238D01*
X16129745Y199431436D01*
X19139571Y199448729D01*
X19146241Y199448591D01*
G37*
G04 #@! TD.AperFunction*
M02*
