  0
SECTION
  2
HEADER
  9
$ANGBASE
  50
0.0
  9
$ANGDIR
  70
1
  9
$MEASUREMENT
  70
1
  0
ENDSEC
  0
SECTION
  2
TABLES
  0
TABLE
  2
LTYPE
  70
4
  0
LTYPE
  5
40F
  2
CONTINUOUS
  70
0
  3
Solid line
  72
65
  73
0
  40
0.0
  0
LTYPE
  5
410
  2
DASHDOT
 70
0
  3
Dash Dot ____ _ ____ _
 72
65
 73
4
 40
2.0
 49
1.25
 49
-0.25
 49
0.25
 49
-0.25
  0
LTYPE
  5
411
  2
DASHED
 70
0
  3
Dashed __ __ __ __ __
 72
65
 73
2
 40
0.75
 49
0.5
 49
-0.25
  0
LTYPE
  5
43B
  2
DOTTED
 70
0
  3
Dotted .  .  .  .
 72
65
 73
2
 40
0.2
 49
0.0
 49
-0.2
  0
ENDTAB
  0
TABLE
  2
STYLE
  70
4
  0
STYLE
  2
KICAD
  70
0
  40
0
  41
1
  42
1
  50
0
  71
0
  3
isocp.shx
  0
STYLE
  2
KICADB
  70
0
  40
0
  41
1
  42
1
  50
0
  71
0
  3
isocp.shx
  0
STYLE
  2
KICADI
  70
0
  40
0
  41
1
  42
1
  50
15
  71
0
  3
isocp.shx
  0
STYLE
  2
KICADBI
  70
0
  40
0
  41
1
  42
1
  50
15
  71
0
  3
isocp.shx
  0
ENDTAB
  0
TABLE
  2
LAYER
  70
1
  0
LAYER
  2
BLACK
  70
0
  62
7
  6
CONTINUOUS
  0
ENDTAB
  0
ENDSEC
  0
SECTION
  2
ENTITIES
0
LINE
8
BLACK
6
CONTINUOUS
10
67.
20
37.
11
78.
21
37.
0
LINE
8
BLACK
6
CONTINUOUS
10
78.
20
37.
11
78.
21
19.
0
LINE
8
BLACK
6
CONTINUOUS
10
78.
20
19.
11
67.
21
19.
0
LINE
8
BLACK
6
CONTINUOUS
10
67.
20
19.
11
67.
21
37.
0
LINE
8
BLACK
6
CONTINUOUS
10
-9.5
20
124.5
11
9.5
21
124.5
0
LINE
8
BLACK
6
CONTINUOUS
10
9.5
20
124.5
11
9.5
21
116.
0
LINE
8
BLACK
6
CONTINUOUS
10
9.5
20
116.
11
-9.5
21
116.
0
LINE
8
BLACK
6
CONTINUOUS
10
-9.5
20
116.
11
-9.5
21
124.5
0
LINE
8
BLACK
6
CONTINUOUS
10
-78.
20
37.
11
-67.
21
37.
0
LINE
8
BLACK
6
CONTINUOUS
10
-67.
20
37.
11
-67.
21
19.
0
LINE
8
BLACK
6
CONTINUOUS
10
-67.
20
19.
11
-78.
21
19.
0
LINE
8
BLACK
6
CONTINUOUS
10
-78.
20
19.
11
-78.
21
37.
0
CIRCLE
8
BLACK
10
95.
20
43.
40
3.0999999999999996
0
CIRCLE
8
BLACK
10
-86.7000000000000028
20
37.
40
2.5
0
CIRCLE
8
BLACK
10
-24.5
20
178.
40
2.5
0
CIRCLE
8
BLACK
10
-24.5
20
120.
40
2.5
0
CIRCLE
8
BLACK
10
86.7000000000000028
20
9.
40
2.5
0
LINE
8
BLACK
6
CONTINUOUS
10
-46.8500000000000014
20
189.5
11
-33.1499999999999986
21
189.5
0
LINE
8
BLACK
6
CONTINUOUS
10
-46.8500000000000014
20
180.4499999999999886
11
-46.8500000000000014
21
189.5
0
LINE
8
BLACK
6
CONTINUOUS
10
-33.1499999999999986
20
189.5
11
-33.1499999999999986
21
180.4499999999999886
0
LINE
8
BLACK
6
CONTINUOUS
10
-33.1499999999999986
20
180.4499999999999886
11
-46.8500000000000014
21
180.4499999999999886
0
LINE
8
BLACK
6
CONTINUOUS
10
33.1499999999999986
20
189.5
11
46.8500000000000014
21
189.5
0
LINE
8
BLACK
6
CONTINUOUS
10
33.1499999999999986
20
180.4499999999999886
11
33.1499999999999986
21
189.5
0
LINE
8
BLACK
6
CONTINUOUS
10
46.8500000000000014
20
189.5
11
46.8500000000000014
21
180.4499999999999886
0
LINE
8
BLACK
6
CONTINUOUS
10
46.8500000000000014
20
180.4499999999999886
11
33.1499999999999986
21
180.4499999999999886
0
LINE
8
BLACK
6
CONTINUOUS
10
-80.0750000000000028
20
58.3249999999999957
11
-80.0750000000000028
21
49.6749999999999972
0
LINE
8
BLACK
6
CONTINUOUS
10
-80.0750000000000028
20
49.6749999999999972
11
-73.9249999999999972
21
49.6749999999999972
0
LINE
8
BLACK
6
CONTINUOUS
10
-73.9249999999999972
20
58.3249999999999957
11
-80.0750000000000028
21
58.3249999999999957
0
LINE
8
BLACK
6
CONTINUOUS
10
-73.9249999999999972
20
49.6749999999999972
11
-73.9249999999999972
21
58.3249999999999957
0
LINE
8
BLACK
6
CONTINUOUS
10
73.9099999999999966
20
58.3399999999999963
11
73.9099999999999966
21
49.6899999999999977
0
LINE
8
BLACK
6
CONTINUOUS
10
73.9099999999999966
20
49.6899999999999977
11
80.0600000000000023
21
49.6899999999999977
0
LINE
8
BLACK
6
CONTINUOUS
10
80.0600000000000023
20
58.3399999999999963
11
73.9099999999999966
21
58.3399999999999963
0
LINE
8
BLACK
6
CONTINUOUS
10
80.0600000000000023
20
49.6899999999999977
11
80.0600000000000023
21
58.3399999999999963
0
CIRCLE
8
BLACK
10
-86.7000000000000028
20
9.
40
2.5
0
CIRCLE
8
BLACK
10
24.5
20
178.
40
2.5
0
CIRCLE
8
BLACK
10
80.
20
123.
40
2.5
0
LINE
8
BLACK
6
CONTINUOUS
10
42.1499999999999986
20
141.5
11
55.8499999999999943
21
141.5
0
LINE
8
BLACK
6
CONTINUOUS
10
42.1499999999999986
20
132.4499999999999886
11
42.1499999999999986
21
141.5
0
LINE
8
BLACK
6
CONTINUOUS
10
55.8499999999999943
20
141.5
11
55.8499999999999943
21
132.4499999999999886
0
LINE
8
BLACK
6
CONTINUOUS
10
55.8499999999999943
20
132.4499999999999886
11
42.1499999999999986
21
132.4499999999999886
0
CIRCLE
8
BLACK
10
24.5
20
120.
40
2.5
0
CIRCLE
8
BLACK
10
11.
20
166.5
40
2.5
0
LINE
8
BLACK
6
CONTINUOUS
10
-86.5499999999999972
20
114.3999999999999915
11
-77.5
21
114.3999999999999915
0
LINE
8
BLACK
6
CONTINUOUS
10
-86.5499999999999972
20
95.5999999999999943
11
-86.5499999999999972
21
114.3999999999999915
0
LINE
8
BLACK
6
CONTINUOUS
10
-77.5
20
114.3999999999999915
11
-77.5
21
95.5999999999999943
0
LINE
8
BLACK
6
CONTINUOUS
10
-77.5
20
95.5999999999999943
11
-86.5499999999999972
21
95.5999999999999943
0
CIRCLE
8
BLACK
10
-95.
20
31.
40
3.0999999999999996
0
CIRCLE
8
BLACK
10
-24.5
20
3.5
40
2.5
0
CIRCLE
8
BLACK
10
24.5
20
3.5
40
2.5
0
CIRCLE
8
BLACK
10
-95.
20
43.
40
3.0999999999999996
0
CIRCLE
8
BLACK
10
-7.75
20
183.
40
2.
0
CIRCLE
8
BLACK
10
-30.
20
194.
40
2.5
0
CIRCLE
8
BLACK
10
80.
20
88.
40
2.5
0
CIRCLE
8
BLACK
10
95.
20
31.
40
3.0999999999999996
0
CIRCLE
8
BLACK
10
-33.5
20
127.
40
2.5
0
CIRCLE
8
BLACK
10
11.
20
127.
40
2.5
0
CIRCLE
8
BLACK
10
86.7000000000000028
20
37.
40
2.5
0
CIRCLE
8
BLACK
10
-85.
20
43.
40
3.0999999999999996
0
CIRCLE
8
BLACK
10
-80.
20
123.
40
2.5
0
CIRCLE
8
BLACK
10
-33.5
20
166.5
40
2.5
0
CIRCLE
8
BLACK
10
48.
20
5.5
40
2.5
0
LINE
8
BLACK
6
CONTINUOUS
10
-7.3566009999999995
20
144.9513010000000008
11
-7.3566009999999995
21
135.4406999999999925
0
LINE
8
BLACK
6
CONTINUOUS
10
-7.3566009999999995
20
135.4406999999999925
11
7.3565990000000001
21
135.4406999999999925
0
LINE
8
BLACK
6
CONTINUOUS
10
7.3565990000000001
20
144.9513010000000008
11
-7.3566009999999995
21
144.9513010000000008
0
LINE
8
BLACK
6
CONTINUOUS
10
7.3565990000000001
20
135.4406999999999925
11
7.3565990000000001
21
144.9513010000000008
0
LINE
8
BLACK
6
CONTINUOUS
10
-9.4000000000000004
20
196.5
11
9.4000000000000004
21
196.5
0
LINE
8
BLACK
6
CONTINUOUS
10
-9.4000000000000004
20
187.4499999999999886
11
-9.4000000000000004
21
196.5
0
LINE
8
BLACK
6
CONTINUOUS
10
9.4000000000000004
20
196.5
11
9.4000000000000004
21
187.4499999999999886
0
LINE
8
BLACK
6
CONTINUOUS
10
9.4000000000000004
20
187.4499999999999886
11
-9.4000000000000004
21
187.4499999999999886
0
CIRCLE
8
BLACK
10
-48.
20
5.5
40
2.5
0
LINE
8
BLACK
6
CONTINUOUS
10
29.4499999999999993
20
132.8499999999999943
11
38.5
21
132.8499999999999943
0
LINE
8
BLACK
6
CONTINUOUS
10
29.4499999999999993
20
119.1499999999999915
11
29.4499999999999993
21
132.8499999999999943
0
LINE
8
BLACK
6
CONTINUOUS
10
38.5
20
132.8499999999999943
11
38.5
21
119.1499999999999915
0
LINE
8
BLACK
6
CONTINUOUS
10
38.5
20
119.1499999999999915
11
29.4499999999999993
21
119.1499999999999915
0
LINE
8
BLACK
6
CONTINUOUS
10
-55.8499999999999943
20
141.5
11
-42.1499999999999986
21
141.5
0
LINE
8
BLACK
6
CONTINUOUS
10
-55.8499999999999943
20
132.4499999999999886
11
-55.8499999999999943
21
141.5
0
LINE
8
BLACK
6
CONTINUOUS
10
-42.1499999999999986
20
141.5
11
-42.1499999999999986
21
132.4499999999999886
0
LINE
8
BLACK
6
CONTINUOUS
10
-42.1499999999999986
20
132.4499999999999886
11
-55.8499999999999943
21
132.4499999999999886
0
LINE
8
BLACK
6
CONTINUOUS
10
-46.8500000000000014
20
66.5
11
-33.1499999999999986
21
66.5
0
LINE
8
BLACK
6
CONTINUOUS
10
-46.8500000000000014
20
57.4499999999999957
11
-46.8500000000000014
21
66.5
0
LINE
8
BLACK
6
CONTINUOUS
10
-33.1499999999999986
20
66.5
11
-33.1499999999999986
21
57.4499999999999957
0
LINE
8
BLACK
6
CONTINUOUS
10
-33.1499999999999986
20
57.4499999999999957
11
-46.8500000000000014
21
57.4499999999999957
0
CIRCLE
8
BLACK
10
30.
20
194.
40
2.5
0
CIRCLE
8
BLACK
10
7.75
20
183.
40
2.
0
CIRCLE
8
BLACK
10
85.
20
43.
40
3.0999999999999996
0
CIRCLE
8
BLACK
10
-85.
20
31.
40
3.0999999999999996
0
CIRCLE
8
BLACK
10
85.
20
31.
40
3.0999999999999996
0
LINE
8
BLACK
6
CONTINUOUS
10
29.4406999999999996
20
153.3566009999999835
11
29.4406999999999996
21
138.643400999999983
0
LINE
8
BLACK
6
CONTINUOUS
10
29.4406999999999996
20
138.643400999999983
11
38.9513010000000008
21
138.643400999999983
0
LINE
8
BLACK
6
CONTINUOUS
10
38.9513010000000008
20
153.3566009999999835
11
29.4406999999999996
21
153.3566009999999835
0
LINE
8
BLACK
6
CONTINUOUS
10
38.9513010000000008
20
138.643400999999983
11
38.9513010000000008
21
153.3566009999999835
0
LINE
8
BLACK
6
CONTINUOUS
10
77.4500000000000028
20
114.3999999999999915
11
86.5
21
114.3999999999999915
0
LINE
8
BLACK
6
CONTINUOUS
10
77.4500000000000028
20
95.5999999999999943
11
77.4500000000000028
21
114.3999999999999915
0
LINE
8
BLACK
6
CONTINUOUS
10
86.5
20
114.3999999999999915
11
86.5
21
95.5999999999999943
0
LINE
8
BLACK
6
CONTINUOUS
10
86.5
20
95.5999999999999943
11
77.4500000000000028
21
95.5999999999999943
0
LINE
8
BLACK
6
CONTINUOUS
10
29.4499999999999993
20
172.8499999999999943
11
38.5
21
172.8499999999999943
0
LINE
8
BLACK
6
CONTINUOUS
10
29.4499999999999993
20
159.1500000000000057
11
29.4499999999999993
21
172.8499999999999943
0
LINE
8
BLACK
6
CONTINUOUS
10
38.5
20
172.8499999999999943
11
38.5
21
159.1500000000000057
0
LINE
8
BLACK
6
CONTINUOUS
10
38.5
20
159.1500000000000057
11
29.4499999999999993
21
159.1500000000000057
0
CIRCLE
8
BLACK
10
-80.
20
88.
40
2.5
0
LINE
8
BLACK
6
CONTINUOUS
10
33.1499999999999986
20
66.5
11
46.8500000000000014
21
66.5
0
LINE
8
BLACK
6
CONTINUOUS
10
33.1499999999999986
20
57.4499999999999957
11
33.1499999999999986
21
66.5
0
LINE
8
BLACK
6
CONTINUOUS
10
46.8500000000000014
20
66.5
11
46.8500000000000014
21
57.4499999999999957
0
LINE
8
BLACK
6
CONTINUOUS
10
46.8500000000000014
20
57.4499999999999957
11
33.1499999999999986
21
57.4499999999999957
  0
ENDSEC
  0
EOF
