G04 #@! TF.GenerationSoftware,KiCad,Pcbnew,7.0.10*
G04 #@! TF.CreationDate,2024-02-23T15:51:22+00:00*
G04 #@! TF.ProjectId,NB3_body,4e42335f-626f-4647-992e-6b696361645f,0.0.5*
G04 #@! TF.SameCoordinates,PX76bb820PYd4ab5c0*
G04 #@! TF.FileFunction,Copper,L2,Bot*
G04 #@! TF.FilePolarity,Positive*
%FSLAX46Y46*%
G04 Gerber Fmt 4.6, Leading zero omitted, Abs format (unit mm)*
G04 Created by KiCad (PCBNEW 7.0.10) date 2024-02-23 15:51:22*
%MOMM*%
%LPD*%
G01*
G04 APERTURE LIST*
G04 #@! TA.AperFunction,WasherPad*
%ADD10C,5.700000*%
G04 #@! TD*
G04 #@! TA.AperFunction,WasherPad*
%ADD11C,4.500000*%
G04 #@! TD*
G04 #@! TA.AperFunction,WasherPad*
%ADD12C,3.500000*%
G04 #@! TD*
G04 #@! TA.AperFunction,ViaPad*
%ADD13C,0.600000*%
G04 #@! TD*
G04 #@! TA.AperFunction,Conductor*
%ADD14C,0.300000*%
G04 #@! TD*
G04 APERTURE END LIST*
D10*
X95000000Y43000000D03*
D11*
X-86700000Y37000000D03*
X-24500000Y178000000D03*
X-24500000Y120000000D03*
X86700000Y9000000D03*
X-86700000Y9000000D03*
X24500000Y178000000D03*
X80000000Y123000000D03*
X24500000Y120000000D03*
X11000000Y166500000D03*
D10*
X-95000000Y31000000D03*
X-95000000Y43000000D03*
D12*
X-7750000Y183000000D03*
D11*
X-30000000Y194000000D03*
X80000000Y88000000D03*
D10*
X95000000Y31000000D03*
D11*
X-33500000Y127000000D03*
X11000000Y127000000D03*
X86700000Y37000000D03*
D10*
X-85000000Y43000000D03*
D11*
X-80000000Y123000000D03*
X-33500000Y166500000D03*
X48000000Y5500000D03*
X-48000000Y5500000D03*
X30000000Y194000000D03*
D12*
X7750000Y183000000D03*
D10*
X85000000Y43000000D03*
X-85000000Y31000000D03*
X85000000Y31000000D03*
D11*
X-80000000Y88000000D03*
D13*
X-54000000Y77000000D03*
X-45000000Y191000000D03*
X-79500000Y49500000D03*
X-46500000Y69500000D03*
X-54000000Y143000000D03*
X-42500000Y191000000D03*
X-51500000Y77000000D03*
X-51500000Y143000000D03*
X-46500000Y72000000D03*
X-71000000Y51500000D03*
X-49000000Y77000000D03*
X-40000000Y191000000D03*
X-49000000Y143000000D03*
X-46500000Y137000000D03*
X-36500000Y137000000D03*
X-37500000Y191000000D03*
X-46500000Y77000000D03*
X28000000Y131000000D03*
X-46500000Y143000000D03*
X28000000Y121000000D03*
X-37500000Y56000000D03*
X-40500000Y133000000D03*
X-42000000Y128500000D03*
X-37500000Y179000000D03*
X28000000Y123500000D03*
X-43000000Y126000000D03*
X-40000000Y179000000D03*
X-39500000Y134000000D03*
X-40000000Y56000000D03*
X-42500000Y179000000D03*
X-38500000Y135000000D03*
X-42500000Y56000000D03*
X28000000Y126000000D03*
X-44000000Y123500000D03*
X-45000000Y121000000D03*
X-37500000Y136000000D03*
X-45000000Y179000000D03*
X28000000Y128500000D03*
X-45000000Y56000000D03*
X-76380000Y107500000D03*
X-35000000Y179000000D03*
X-40000000Y136000000D03*
X77000000Y59000000D03*
X74525000Y58960000D03*
X-77000000Y59000000D03*
X34920000Y179920000D03*
X35500000Y174500000D03*
X-34920000Y180080000D03*
X39540000Y168540000D03*
X76400000Y102500000D03*
X35000000Y179000000D03*
X40000Y186400000D03*
X32480000Y59480000D03*
X-79500000Y59000000D03*
X37500000Y174500000D03*
X-76380000Y105000000D03*
X-40500000Y135500000D03*
X-31500000Y59500000D03*
X40500000Y168500000D03*
X-74500000Y59000000D03*
X34000000Y143000000D03*
X40980000Y134480000D03*
X32500000Y143000000D03*
X34000000Y145000000D03*
X32500000Y145000000D03*
X34000000Y144000000D03*
X-76380000Y97400000D03*
X36500000Y173500000D03*
X40000000Y134500000D03*
X2540000Y186400000D03*
X76400000Y105000000D03*
X79525000Y58960000D03*
X31500000Y59500000D03*
X-32520000Y59480000D03*
X32500000Y144000000D03*
X34000000Y56000000D03*
X46500000Y77000000D03*
X46500000Y143000000D03*
X37500000Y191000000D03*
X37500000Y68000000D03*
X49000000Y77000000D03*
X40000000Y68000000D03*
X34000000Y54000000D03*
X49000000Y143000000D03*
X40000000Y191000000D03*
X51500000Y77000000D03*
X51500000Y143000000D03*
X42500000Y191000000D03*
X54000000Y143000000D03*
X45000000Y191000000D03*
X54000000Y137000000D03*
X54000000Y77000000D03*
X45000000Y179000000D03*
X45000000Y56000000D03*
X45000000Y121000000D03*
X42500000Y56000000D03*
X44000000Y123500000D03*
X42500000Y179000000D03*
X40000000Y56000000D03*
X43000000Y126000000D03*
X40000000Y179000000D03*
X37500000Y56000000D03*
X37500000Y179000000D03*
X42000000Y128500000D03*
X-37000000Y112600000D03*
X13000000Y142000000D03*
X13000000Y158000000D03*
X-4400000Y112600000D03*
X-4400000Y110100000D03*
X-37000000Y110100000D03*
X14000000Y141500000D03*
X76400000Y99900000D03*
X1000000Y118000000D03*
X76400000Y112600000D03*
X14000000Y157000000D03*
X1000000Y110100000D03*
X15000000Y156000000D03*
X-4400000Y102400000D03*
X15000000Y141100000D03*
X-37000000Y102400000D03*
X2000000Y102500000D03*
X2000000Y118000000D03*
X40000000Y166000000D03*
X-37000000Y99900000D03*
X-1000000Y118000000D03*
X4000000Y118000000D03*
X12000000Y159000000D03*
X-2600000Y186400000D03*
X-4400000Y99900000D03*
X-1000000Y99950000D03*
X12000000Y142500000D03*
X19000000Y166000000D03*
X15050000Y175000000D03*
X40000000Y163450000D03*
X-7600000Y186400000D03*
X40000000Y160900000D03*
D14*
X-45000000Y149000000D02*
X-49000000Y145000000D01*
X-54000000Y143000000D02*
X-54000000Y137000000D01*
X-50500000Y185500000D02*
X-45000000Y191000000D01*
X-54000000Y137000000D02*
X-54000000Y77000000D01*
X-45000000Y151500000D02*
X-45000000Y149000000D01*
X-50500000Y157000000D02*
X-45000000Y151500000D01*
X-66500000Y49500000D02*
X-79500000Y49500000D01*
X-49000000Y145000000D02*
X-52000000Y145000000D01*
X-50500000Y161500000D02*
X-50500000Y157000000D01*
X-46500000Y69500000D02*
X-66500000Y49500000D01*
X-50500000Y161500000D02*
X-50500000Y185500000D01*
X-52000000Y145000000D02*
X-54000000Y143000000D01*
X-44000000Y148500000D02*
X-48500000Y144000000D01*
X-50500000Y144000000D02*
X-51500000Y143000000D01*
X-49500000Y184000000D02*
X-42500000Y191000000D01*
X-44000000Y152000000D02*
X-44000000Y148500000D01*
X-49500000Y157500000D02*
X-44000000Y152000000D01*
X-51500000Y143000000D02*
X-51500000Y77000000D01*
X-65750000Y51500000D02*
X-71000000Y51500000D01*
X-49500000Y160500000D02*
X-49500000Y157500000D01*
X-49500000Y160500000D02*
X-49500000Y184000000D01*
X-46500000Y72000000D02*
X-46500000Y70750000D01*
X-46500000Y70750000D02*
X-65750000Y51500000D01*
X-48500000Y144000000D02*
X-50500000Y144000000D01*
X-48549520Y158049520D02*
X-43049520Y152549520D01*
X-43049520Y147950480D02*
X-48000000Y143000000D01*
X-48549520Y159500000D02*
X-48549520Y158049520D01*
X-48000000Y143000000D02*
X-49000000Y143000000D01*
X-48549520Y159500000D02*
X-48549520Y182450480D01*
X-48549520Y182450480D02*
X-40000000Y191000000D01*
X-43049520Y152549520D02*
X-43049520Y147950480D01*
X-49000000Y143000000D02*
X-49000000Y77000000D01*
X-47500000Y181000000D02*
X-47500000Y166000000D01*
X-37500000Y191000000D02*
X-47500000Y181000000D01*
X-36500000Y137000000D02*
X22000000Y137000000D01*
X-46500000Y137000000D02*
X-46500000Y77000000D01*
X-47500000Y158500000D02*
X-42000000Y153000000D01*
X-42000000Y153000000D02*
X-42000000Y147500000D01*
X-42000000Y147500000D02*
X-46500000Y143000000D01*
X-46500000Y143000000D02*
X-46500000Y137000000D01*
X22000000Y137000000D02*
X28000000Y131000000D01*
X-47500000Y166000000D02*
X-47500000Y158500000D01*
X-38000000Y145500000D02*
X-42000000Y141500000D01*
X-42000000Y128500000D02*
X-42000000Y60500000D01*
X-43500000Y173000000D02*
X-43500000Y160500000D01*
X-42000000Y60500000D02*
X-37500000Y56000000D01*
X-37500000Y179000000D02*
X-43500000Y173000000D01*
X-38000000Y155000000D02*
X-38000000Y145500000D01*
X-43500000Y160500000D02*
X-38000000Y155000000D01*
X16000000Y133000000D02*
X28000000Y121000000D01*
X-40500000Y133000000D02*
X16000000Y133000000D01*
X-42000000Y141500000D02*
X-42000000Y128500000D01*
X-43000000Y59000000D02*
X-40000000Y56000000D01*
X-44500000Y160000000D02*
X-39000000Y154500000D01*
X-43000000Y59500000D02*
X-43000000Y59000000D01*
X-39000000Y146000000D02*
X-43000000Y142000000D01*
X-43000000Y126000000D02*
X-43000000Y59500000D01*
X17500000Y134000000D02*
X28000000Y123500000D01*
X-44500000Y174500000D02*
X-44500000Y160000000D01*
X-39000000Y154500000D02*
X-39000000Y146000000D01*
X-40000000Y179000000D02*
X-44500000Y174500000D01*
X-39500000Y134000000D02*
X17500000Y134000000D01*
X-43000000Y142000000D02*
X-43000000Y126000000D01*
X-45500000Y159500000D02*
X-40000000Y154000000D01*
X-44000000Y142500000D02*
X-44000000Y123500000D01*
X-45500000Y176000000D02*
X-45500000Y159500000D01*
X-44000000Y57500000D02*
X-42500000Y56000000D01*
X-44000000Y123500000D02*
X-44000000Y57500000D01*
X-42500000Y179000000D02*
X-45500000Y176000000D01*
X-40000000Y146500000D02*
X-44000000Y142500000D01*
X19000000Y135000000D02*
X28000000Y126000000D01*
X-38500000Y135000000D02*
X19000000Y135000000D01*
X-40000000Y154000000D02*
X-40000000Y146500000D01*
X-46500000Y159000000D02*
X-46500000Y177500000D01*
X-37500000Y136000000D02*
X20500000Y136000000D01*
X-45000000Y121000000D02*
X-45000000Y56000000D01*
X-41000000Y147000000D02*
X-41000000Y153500000D01*
X-45000000Y121000000D02*
X-45000000Y143000000D01*
X-41000000Y153500000D02*
X-46500000Y159000000D01*
X-46500000Y177500000D02*
X-45000000Y179000000D01*
X20500000Y136000000D02*
X28000000Y128500000D01*
X-45000000Y143000000D02*
X-41000000Y147000000D01*
X47500000Y166000000D02*
X47500000Y158500000D01*
X37500000Y191000000D02*
X47500000Y181000000D01*
X37500000Y68000000D02*
X37500000Y59500000D01*
X47500000Y158500000D02*
X42000000Y153000000D01*
X42000000Y153000000D02*
X42000000Y147500000D01*
X37500000Y59500000D02*
X34000000Y56000000D01*
X47500000Y181000000D02*
X47500000Y166000000D01*
X42000000Y147500000D02*
X46500000Y143000000D01*
X46500000Y143000000D02*
X46500000Y77000000D01*
X43049520Y152549520D02*
X43049520Y147950480D01*
X48000000Y143000000D02*
X49000000Y143000000D01*
X48549520Y158049520D02*
X43049520Y152549520D01*
X40000000Y191000000D02*
X48549520Y182450480D01*
X48549520Y163549520D02*
X48549520Y158049520D01*
X43049520Y147950480D02*
X48000000Y143000000D01*
X48549520Y182450480D02*
X48549520Y163549520D01*
X40000000Y68000000D02*
X40000000Y60000000D01*
X49000000Y143000000D02*
X49000000Y77000000D01*
X40000000Y60000000D02*
X34000000Y54000000D01*
X48500000Y144000000D02*
X50500000Y144000000D01*
X49500000Y161000000D02*
X49500000Y157500000D01*
X44000000Y152000000D02*
X44000000Y148500000D01*
X51500000Y143000000D02*
X51500000Y77000000D01*
X50500000Y144000000D02*
X51500000Y143000000D01*
X49500000Y157500000D02*
X44000000Y152000000D01*
X49500000Y184000000D02*
X49500000Y161000000D01*
X42500000Y191000000D02*
X49500000Y184000000D01*
X44000000Y148500000D02*
X48500000Y144000000D01*
X45000000Y151500000D02*
X50500000Y157000000D01*
X54000000Y143000000D02*
X54000000Y137000000D01*
X52000000Y145000000D02*
X49000000Y145000000D01*
X54000000Y137000000D02*
X54000000Y77000000D01*
X50500000Y157000000D02*
X50500000Y185500000D01*
X49000000Y145000000D02*
X45000000Y149000000D01*
X54000000Y143000000D02*
X52000000Y145000000D01*
X50500000Y185500000D02*
X45000000Y191000000D01*
X45000000Y149000000D02*
X45000000Y151500000D01*
X46500000Y159000000D02*
X46500000Y177500000D01*
X45000000Y143000000D02*
X41000000Y147000000D01*
X45000000Y121000000D02*
X45000000Y143000000D01*
X45000000Y121000000D02*
X45000000Y56000000D01*
X46500000Y177500000D02*
X45000000Y179000000D01*
X41000000Y153500000D02*
X46500000Y159000000D01*
X41000000Y147000000D02*
X41000000Y153500000D01*
X45500000Y159500000D02*
X40000000Y154000000D01*
X40000000Y146500000D02*
X44000000Y142500000D01*
X42500000Y179000000D02*
X45500000Y176000000D01*
X45500000Y176000000D02*
X45500000Y159500000D01*
X40000000Y154000000D02*
X40000000Y146500000D01*
X44000000Y123500000D02*
X44000000Y57500000D01*
X44000000Y57500000D02*
X42500000Y56000000D01*
X44000000Y142500000D02*
X44000000Y123500000D01*
X40000000Y179000000D02*
X44500000Y174500000D01*
X43000000Y59500000D02*
X43000000Y59000000D01*
X44500000Y174500000D02*
X44500000Y160000000D01*
X39000000Y154500000D02*
X39000000Y146000000D01*
X43000000Y59000000D02*
X40000000Y56000000D01*
X43000000Y126000000D02*
X43000000Y59500000D01*
X44500000Y160000000D02*
X39000000Y154500000D01*
X43000000Y142000000D02*
X43000000Y126000000D01*
X39000000Y146000000D02*
X43000000Y142000000D01*
X43500000Y160500000D02*
X38000000Y155000000D01*
X37500000Y179000000D02*
X43500000Y173000000D01*
X42000000Y60500000D02*
X37500000Y56000000D01*
X42000000Y141500000D02*
X42000000Y128500000D01*
X43500000Y173000000D02*
X43500000Y160500000D01*
X38000000Y145500000D02*
X42000000Y141500000D01*
X38000000Y155000000D02*
X38000000Y145500000D01*
X42000000Y128500000D02*
X42000000Y60500000D01*
X13000000Y158000000D02*
X13000000Y142000000D01*
X-4400000Y112600000D02*
X-37000000Y112600000D01*
X-4400000Y110100000D02*
X-37000000Y110100000D01*
X75000000Y110000000D02*
X75000000Y111200000D01*
X1000000Y118000000D02*
X1000000Y110100000D01*
X75000000Y111200000D02*
X76400000Y112600000D01*
X75000000Y101300000D02*
X75000000Y110000000D01*
X76400000Y99900000D02*
X75000000Y101300000D01*
X14000000Y157000000D02*
X14000000Y141500000D01*
X-4400000Y102400000D02*
X-37000000Y102400000D01*
X2000000Y118000000D02*
X2000000Y102500000D01*
X15000000Y141100000D02*
X15000000Y156000000D01*
X19000000Y175700000D02*
X19000000Y166000000D01*
X200000Y119200000D02*
X2800000Y119200000D01*
X-2600000Y186400000D02*
X-2600000Y179700000D01*
X-1000000Y118000000D02*
X200000Y119200000D01*
X-4400000Y99900000D02*
X-37000000Y99900000D01*
X17200000Y177500000D02*
X19000000Y175700000D01*
X-2600000Y179700000D02*
X-400000Y177500000D01*
X-1000000Y118000000D02*
X-1000000Y99950000D01*
X40000000Y166000000D02*
X19000000Y166000000D01*
X12000000Y159000000D02*
X12000000Y142500000D01*
X-400000Y177500000D02*
X17200000Y177500000D01*
X2800000Y119200000D02*
X4000000Y118000000D01*
X15050000Y175000000D02*
X15050000Y166100000D01*
X15050000Y166100000D02*
X17700000Y163450000D01*
X17700000Y163450000D02*
X40000000Y163450000D01*
X-7600000Y186200000D02*
X-5200000Y183800000D01*
X-5200000Y166300000D02*
X200000Y160900000D01*
X-5200000Y183800000D02*
X-5200000Y166300000D01*
X200000Y160900000D02*
X40000000Y160900000D01*
X-7600000Y186400000D02*
X-7600000Y186200000D01*
G04 #@! TA.AperFunction,Conductor*
G36*
X19146241Y199448591D02*
G01*
X22086253Y199309258D01*
X22093154Y199308739D01*
X24964394Y199012730D01*
X24969839Y199012047D01*
X27749918Y198600871D01*
X27753922Y198600211D01*
X30418648Y198115638D01*
X30423041Y198114758D01*
X32971484Y197556966D01*
X32976136Y197555854D01*
X35408285Y196924889D01*
X35413256Y196923489D01*
X37729108Y196219403D01*
X37734416Y196217659D01*
X39934026Y195440491D01*
X39939613Y195438365D01*
X42022913Y194588206D01*
X42028813Y194585621D01*
X43996113Y193662408D01*
X44001879Y193659518D01*
X45874275Y192659963D01*
X45879745Y192656863D01*
X46686541Y192172741D01*
X47678011Y191577804D01*
X47683455Y191574345D01*
X49407495Y190415858D01*
X49412841Y190412061D01*
X51062784Y189174077D01*
X51067939Y189169993D01*
X52625855Y187867511D01*
X52643749Y187852551D01*
X52648749Y187848140D01*
X54150459Y186451229D01*
X54155220Y186446560D01*
X55381422Y185178480D01*
X55582950Y184970070D01*
X55587432Y184965183D01*
X56939871Y183410604D01*
X56946261Y183402628D01*
X58168008Y181743886D01*
X58175578Y181732332D01*
X58786279Y180678364D01*
X59214010Y179940171D01*
X59220130Y179928170D01*
X59393944Y179536949D01*
X60076545Y178000545D01*
X60081164Y177988528D01*
X60755545Y175924995D01*
X60758739Y175913366D01*
X61250955Y173713494D01*
X61252902Y173702545D01*
X61562713Y171366128D01*
X61563640Y171356035D01*
X61690800Y168882905D01*
X61690937Y168873745D01*
X61635277Y166267141D01*
X61634173Y166252971D01*
X61283453Y163655437D01*
X61278976Y163635117D01*
X60521383Y161181981D01*
X60513523Y161162478D01*
X59348255Y158849141D01*
X59337795Y158831948D01*
X57763688Y156657099D01*
X57751869Y156643051D01*
X55767541Y154606212D01*
X55755550Y154595387D01*
X53359898Y152696793D01*
X53348555Y152688780D01*
X50540879Y150928980D01*
X50530601Y150923190D01*
X47316589Y149305829D01*
X47305127Y149301276D01*
X47300275Y149297333D01*
X47300181Y149297197D01*
X47298623Y149293586D01*
X47298564Y149289578D01*
X47298839Y149288080D01*
X47300299Y149284402D01*
X47303077Y149281543D01*
X47303137Y149281502D01*
X47309133Y149279520D01*
X47321490Y149279339D01*
X51665027Y148830071D01*
X51675063Y148828621D01*
X55809566Y148059763D01*
X55820218Y148057300D01*
X59738876Y146969755D01*
X59749899Y146966141D01*
X63214740Y145650499D01*
X63452997Y145560030D01*
X63464117Y145555183D01*
X63945659Y145317077D01*
X66952016Y143830535D01*
X66962879Y143824478D01*
X69325620Y142349502D01*
X70235905Y141781243D01*
X70246196Y141774084D01*
X70929371Y141246486D01*
X73290773Y139422837D01*
X73304731Y139412058D01*
X73314140Y139404023D01*
X76148494Y136732320D01*
X76158991Y136722426D01*
X76166413Y136714813D01*
X78762606Y133816615D01*
X78762612Y133816609D01*
X78768695Y133809279D01*
X78787055Y133785367D01*
X81080205Y130798776D01*
X81085957Y130790638D01*
X81809746Y129675456D01*
X83109402Y127673003D01*
X83112370Y127668431D01*
X83117615Y127659577D01*
X83293937Y127332140D01*
X84859099Y124425568D01*
X84863687Y124416125D01*
X86320412Y121070117D01*
X86324218Y121060266D01*
X87496278Y117602075D01*
X87499226Y117592022D01*
X88386693Y114021370D01*
X88388758Y114011330D01*
X88991571Y110328293D01*
X88992822Y110318020D01*
X89291751Y106593031D01*
X89292152Y106582132D01*
X89268106Y102885266D01*
X89267549Y102874224D01*
X88920580Y99205074D01*
X88919061Y99194140D01*
X88249138Y95552442D01*
X88246716Y95541860D01*
X87253732Y91927340D01*
X87250523Y91917320D01*
X85934346Y88329830D01*
X85930505Y88320528D01*
X84290947Y84759898D01*
X84286643Y84751410D01*
X82325020Y81220270D01*
X82317204Y81207941D01*
X79989839Y77968436D01*
X79975826Y77952084D01*
X77236358Y75259953D01*
X77218980Y75245688D01*
X74064748Y73096969D01*
X74045501Y73086194D01*
X70474581Y71479851D01*
X70455356Y71473015D01*
X66465846Y70409130D01*
X66448153Y70405744D01*
X62038771Y69885154D01*
X62023378Y69884287D01*
X57193672Y69908037D01*
X57180716Y69908769D01*
X51937468Y70477019D01*
X51934349Y70477623D01*
X51926434Y70478261D01*
X51923046Y70478581D01*
X51922802Y70478607D01*
X51922801Y70478607D01*
X51920542Y70478851D01*
X51918257Y70478113D01*
X51914731Y70475277D01*
X51912673Y70471253D01*
X51912186Y70466755D01*
X51913578Y70462454D01*
X51915087Y70460578D01*
X51917260Y70459467D01*
X51920426Y70457791D01*
X51927337Y70454007D01*
X51930328Y70452784D01*
X54476803Y69150478D01*
X54483426Y69147091D01*
X54487985Y69144358D01*
X54489685Y69143617D01*
X54496776Y69140262D01*
X54498458Y69139402D01*
X54503461Y69137613D01*
X57103412Y68004255D01*
X57108163Y68001793D01*
X57109756Y68001215D01*
X57117169Y67998257D01*
X57118733Y67997575D01*
X57123877Y67996088D01*
X57988656Y67682173D01*
X59769039Y67035893D01*
X59773972Y67033719D01*
X59775538Y67033261D01*
X59783161Y67030765D01*
X59784695Y67030208D01*
X59789950Y67029046D01*
X62480388Y66241989D01*
X62485433Y66240143D01*
X62486950Y66239802D01*
X62494719Y66237797D01*
X62496290Y66237338D01*
X62501620Y66236511D01*
X65237239Y65622616D01*
X65242414Y65621085D01*
X65244023Y65620830D01*
X65251901Y65619324D01*
X65253486Y65618969D01*
X65258833Y65618484D01*
X67843351Y65208850D01*
X68039835Y65177708D01*
X68045059Y65176519D01*
X68046688Y65176365D01*
X68054677Y65175355D01*
X68056341Y65175091D01*
X68061692Y65174946D01*
X70887969Y64907313D01*
X70893202Y64906458D01*
X70895111Y64906395D01*
X70902884Y64905899D01*
X70904815Y64905716D01*
X70910114Y64905901D01*
X73791294Y64811099D01*
X73793698Y64810996D01*
X76631955Y64661644D01*
X76645230Y64660235D01*
X79338627Y64229140D01*
X79352580Y64226086D01*
X81906933Y63513221D01*
X81921028Y63508372D01*
X83489256Y62862778D01*
X84300451Y62528832D01*
X84336976Y62513796D01*
X84350600Y62507205D01*
X86628825Y61230727D01*
X86641397Y61222668D01*
X88782405Y59663918D01*
X88793496Y59654835D01*
X90797690Y57813250D01*
X90807083Y57803647D01*
X92675091Y55678098D01*
X92681864Y55669690D01*
X94371104Y53378397D01*
X94376405Y53370614D01*
X95843244Y51033702D01*
X95848209Y51025049D01*
X97092195Y48643346D01*
X97096644Y48633892D01*
X98117979Y46207279D01*
X98121740Y46197150D01*
X98920592Y43725465D01*
X98923517Y43714846D01*
X99500016Y41197891D01*
X99502010Y41187013D01*
X99856238Y38624485D01*
X99857264Y38613598D01*
X99989339Y36002920D01*
X99989500Y35996554D01*
X99989500Y19011644D01*
X99987678Y18990296D01*
X99361213Y15346322D01*
X99356015Y15326200D01*
X98230810Y12097902D01*
X98220969Y12076406D01*
X96598304Y9263818D01*
X96583580Y9243346D01*
X94462884Y6843645D01*
X94444639Y6826713D01*
X91823758Y4837749D01*
X91804422Y4825665D01*
X88680694Y3246923D01*
X88662458Y3239435D01*
X85033992Y2071768D01*
X85018039Y2067762D01*
X80882028Y1312114D01*
X80872457Y1310742D01*
X76218226Y825183D01*
X76213838Y824803D01*
X71035560Y466969D01*
X71031949Y466771D01*
X65331978Y236992D01*
X65328962Y236907D01*
X59107606Y135243D01*
X59105052Y135227D01*
X52362268Y161718D01*
X52360081Y161746D01*
X45096189Y316413D01*
X45094296Y316467D01*
X37309156Y599323D01*
X37307503Y599394D01*
X29024140Y1009319D01*
X29015033Y1011365D01*
X28999999Y1011366D01*
X28999062Y1010977D01*
X28993315Y1008761D01*
X28992370Y1008424D01*
X28981234Y998338D01*
X28975856Y990707D01*
X28032554Y47404D01*
X27970244Y13380D01*
X27943461Y10500D01*
X-27943461Y10500D01*
X-28011582Y30502D01*
X-28032556Y47405D01*
X-28975843Y990692D01*
X-28981213Y998315D01*
X-28992371Y1008422D01*
X-28992371Y1008423D01*
X-28992373Y1008424D01*
X-28992375Y1008426D01*
X-28993307Y1008759D01*
X-28999099Y1010992D01*
X-29000000Y1011365D01*
X-29015025Y1011367D01*
X-29024141Y1009319D01*
X-37307505Y599394D01*
X-37309158Y599323D01*
X-45094298Y316467D01*
X-45096191Y316413D01*
X-52360083Y161746D01*
X-52362270Y161718D01*
X-59105054Y135227D01*
X-59107608Y135243D01*
X-65328964Y236907D01*
X-65331980Y236992D01*
X-71031954Y466771D01*
X-71035565Y466969D01*
X-76213840Y824803D01*
X-76218228Y825183D01*
X-80872459Y1310742D01*
X-80882030Y1312114D01*
X-85018041Y2067762D01*
X-85033994Y2071768D01*
X-88662462Y3239436D01*
X-88680698Y3246924D01*
X-91804424Y4825665D01*
X-91823760Y4837749D01*
X-92696415Y5499999D01*
X-50755527Y5499999D01*
X-50735437Y5167861D01*
X-50735436Y5167858D01*
X-50675457Y4840560D01*
X-50576462Y4522873D01*
X-50439904Y4219454D01*
X-50439901Y4219448D01*
X-50267755Y3934683D01*
X-50062548Y3672754D01*
X-50062536Y3672741D01*
X-49827260Y3437465D01*
X-49827247Y3437453D01*
X-49584053Y3246924D01*
X-49565318Y3232246D01*
X-49280557Y3060102D01*
X-49280555Y3060101D01*
X-49280553Y3060100D01*
X-49280547Y3060097D01*
X-48977128Y2923539D01*
X-48977127Y2923539D01*
X-48977123Y2923537D01*
X-48659441Y2824544D01*
X-48332142Y2764564D01*
X-48110714Y2751170D01*
X-48000001Y2744473D01*
X-48000000Y2744473D01*
X-47999999Y2744473D01*
X-47916965Y2749496D01*
X-47667858Y2764564D01*
X-47340559Y2824544D01*
X-47022877Y2923537D01*
X-46719443Y3060102D01*
X-46434682Y3232246D01*
X-46172748Y3437458D01*
X-45937458Y3672748D01*
X-45732246Y3934682D01*
X-45560102Y4219443D01*
X-45423537Y4522877D01*
X-45324544Y4840559D01*
X-45264564Y5167858D01*
X-45244473Y5499999D01*
X45244473Y5499999D01*
X45264563Y5167861D01*
X45264564Y5167858D01*
X45324543Y4840560D01*
X45423538Y4522873D01*
X45560096Y4219454D01*
X45560099Y4219448D01*
X45732245Y3934683D01*
X45937452Y3672754D01*
X45937464Y3672741D01*
X46172740Y3437465D01*
X46172753Y3437453D01*
X46415947Y3246924D01*
X46434682Y3232246D01*
X46719443Y3060102D01*
X46719445Y3060101D01*
X46719447Y3060100D01*
X46719453Y3060097D01*
X47022872Y2923539D01*
X47022873Y2923539D01*
X47022877Y2923537D01*
X47340559Y2824544D01*
X47667858Y2764564D01*
X47889286Y2751170D01*
X47999999Y2744473D01*
X48000000Y2744473D01*
X48000001Y2744473D01*
X48083035Y2749496D01*
X48332142Y2764564D01*
X48659441Y2824544D01*
X48977123Y2923537D01*
X49280557Y3060102D01*
X49565318Y3232246D01*
X49827252Y3437458D01*
X50062542Y3672748D01*
X50267754Y3934682D01*
X50439898Y4219443D01*
X50576463Y4522877D01*
X50675456Y4840559D01*
X50735436Y5167858D01*
X50755527Y5500000D01*
X50735436Y5832142D01*
X50675456Y6159441D01*
X50576463Y6477123D01*
X50576461Y6477128D01*
X50439903Y6780547D01*
X50439900Y6780553D01*
X50417530Y6817557D01*
X50267754Y7065318D01*
X50183588Y7172748D01*
X50062547Y7327247D01*
X50062535Y7327260D01*
X49867010Y7522785D01*
X67988633Y7522785D01*
X67988634Y7500001D01*
X67989498Y7497917D01*
X67989499Y7497912D01*
X67989500Y7497912D01*
X67991963Y7491965D01*
X68008110Y7475822D01*
X68011782Y7473369D01*
X68973378Y6511773D01*
X68975849Y6508075D01*
X68991963Y6491966D01*
X68991964Y6491964D01*
X68992171Y6491879D01*
X68992340Y6491808D01*
X68992351Y6491804D01*
X68994051Y6491100D01*
X68994052Y6491099D01*
X69000000Y6488635D01*
X69000000Y6488636D01*
X69000001Y6488635D01*
X69022784Y6488634D01*
X69027144Y6489500D01*
X75972845Y6489500D01*
X75977193Y6488635D01*
X76000000Y6488635D01*
X76005948Y6491099D01*
X76005948Y6491100D01*
X76007659Y6491808D01*
X76008036Y6491964D01*
X76008036Y6491965D01*
X76008078Y6491982D01*
X76009183Y6492440D01*
X76012264Y6496193D01*
X76024177Y6508107D01*
X76026636Y6511789D01*
X76988211Y7473364D01*
X76991874Y7475810D01*
X77008034Y7491964D01*
X77008036Y7491964D01*
X77010500Y7497912D01*
X77011365Y7500000D01*
X77011364Y7500003D01*
X77011365Y7500004D01*
X77011366Y7522785D01*
X77010500Y7527144D01*
X77010500Y8999999D01*
X83944473Y8999999D01*
X83964563Y8667861D01*
X83964564Y8667858D01*
X84024543Y8340560D01*
X84123538Y8022873D01*
X84260096Y7719454D01*
X84260099Y7719448D01*
X84432245Y7434683D01*
X84637452Y7172754D01*
X84637464Y7172741D01*
X84872740Y6937465D01*
X84872753Y6937453D01*
X85073030Y6780547D01*
X85134682Y6732246D01*
X85419443Y6560102D01*
X85419445Y6560101D01*
X85419447Y6560100D01*
X85419453Y6560097D01*
X85722872Y6423539D01*
X85722873Y6423539D01*
X85722877Y6423537D01*
X86040559Y6324544D01*
X86367858Y6264564D01*
X86589286Y6251170D01*
X86699999Y6244473D01*
X86700000Y6244473D01*
X86700001Y6244473D01*
X86783035Y6249496D01*
X87032142Y6264564D01*
X87359441Y6324544D01*
X87677123Y6423537D01*
X87980557Y6560102D01*
X88265318Y6732246D01*
X88527252Y6937458D01*
X88762542Y7172748D01*
X88967754Y7434682D01*
X89139898Y7719443D01*
X89276463Y8022877D01*
X89375456Y8340559D01*
X89435436Y8667858D01*
X89455527Y9000000D01*
X89435436Y9332142D01*
X89375456Y9659441D01*
X89276463Y9977123D01*
X89139898Y10280557D01*
X88967754Y10565318D01*
X88762547Y10827247D01*
X88762535Y10827260D01*
X88527259Y11062536D01*
X88527246Y11062548D01*
X88265317Y11267755D01*
X87980552Y11439901D01*
X87980546Y11439904D01*
X87677127Y11576462D01*
X87359440Y11675457D01*
X87032142Y11735436D01*
X87032139Y11735437D01*
X86700001Y11755527D01*
X86699999Y11755527D01*
X86367860Y11735437D01*
X86367857Y11735436D01*
X86040559Y11675457D01*
X85722872Y11576462D01*
X85419453Y11439904D01*
X85419447Y11439901D01*
X85134682Y11267755D01*
X84872753Y11062548D01*
X84872740Y11062536D01*
X84637464Y10827260D01*
X84637452Y10827247D01*
X84432245Y10565318D01*
X84260099Y10280553D01*
X84260096Y10280547D01*
X84123538Y9977128D01*
X84024543Y9659441D01*
X83964564Y9332143D01*
X83964563Y9332140D01*
X83944473Y9000002D01*
X83944473Y8999999D01*
X77010500Y8999999D01*
X77010500Y21472846D01*
X77011365Y21477193D01*
X77011365Y21499999D01*
X77011363Y21500004D01*
X77008901Y21505948D01*
X77008900Y21505949D01*
X77008036Y21508036D01*
X77008034Y21508037D01*
X76991925Y21524151D01*
X76988227Y21526622D01*
X76026631Y22488218D01*
X76024178Y22491890D01*
X76008035Y22508037D01*
X76002088Y22510500D01*
X76002086Y22510501D01*
X76000000Y22511365D01*
X75977194Y22511365D01*
X75972846Y22510500D01*
X69027144Y22510500D01*
X69022784Y22511367D01*
X69000000Y22511366D01*
X68998322Y22510670D01*
X68997912Y22510500D01*
X68991966Y22508037D01*
X68991964Y22508036D01*
X68975853Y22491929D01*
X68973386Y22488237D01*
X68011763Y21526614D01*
X68008077Y21524150D01*
X67991964Y21508037D01*
X67988635Y21500004D01*
X67988635Y21477193D01*
X67989500Y21472846D01*
X67989500Y7527144D01*
X67988633Y7522785D01*
X49867010Y7522785D01*
X49827259Y7562536D01*
X49827246Y7562548D01*
X49565317Y7767755D01*
X49280552Y7939901D01*
X49280546Y7939904D01*
X48977127Y8076462D01*
X48659440Y8175457D01*
X48332142Y8235436D01*
X48332139Y8235437D01*
X48000001Y8255527D01*
X47999999Y8255527D01*
X47667860Y8235437D01*
X47667857Y8235436D01*
X47340559Y8175457D01*
X47022872Y8076462D01*
X46719453Y7939904D01*
X46719447Y7939901D01*
X46434682Y7767755D01*
X46172753Y7562548D01*
X46172740Y7562536D01*
X45937464Y7327260D01*
X45937452Y7327247D01*
X45732245Y7065318D01*
X45560099Y6780553D01*
X45560096Y6780547D01*
X45423538Y6477128D01*
X45324543Y6159441D01*
X45264564Y5832143D01*
X45264563Y5832140D01*
X45244473Y5500002D01*
X45244473Y5499999D01*
X-45244473Y5499999D01*
X-45244473Y5500000D01*
X-45264564Y5832142D01*
X-45324544Y6159441D01*
X-45423537Y6477123D01*
X-45423539Y6477128D01*
X-45560097Y6780547D01*
X-45560100Y6780553D01*
X-45582470Y6817557D01*
X-45732246Y7065318D01*
X-45816412Y7172748D01*
X-45937453Y7327247D01*
X-45937465Y7327260D01*
X-46172741Y7562536D01*
X-46172754Y7562548D01*
X-46434683Y7767755D01*
X-46719448Y7939901D01*
X-46719454Y7939904D01*
X-47022873Y8076462D01*
X-47340560Y8175457D01*
X-47667858Y8235436D01*
X-47667861Y8235437D01*
X-47999999Y8255527D01*
X-48000001Y8255527D01*
X-48332140Y8235437D01*
X-48332143Y8235436D01*
X-48659441Y8175457D01*
X-48977128Y8076462D01*
X-49280547Y7939904D01*
X-49280553Y7939901D01*
X-49565318Y7767755D01*
X-49827247Y7562548D01*
X-49827260Y7562536D01*
X-50062536Y7327260D01*
X-50062548Y7327247D01*
X-50267755Y7065318D01*
X-50439901Y6780553D01*
X-50439904Y6780547D01*
X-50576462Y6477128D01*
X-50675457Y6159441D01*
X-50735436Y5832143D01*
X-50735437Y5832140D01*
X-50755527Y5500002D01*
X-50755527Y5499999D01*
X-92696415Y5499999D01*
X-94444641Y6826712D01*
X-94462886Y6843644D01*
X-96368528Y8999999D01*
X-89455527Y8999999D01*
X-89435437Y8667861D01*
X-89435436Y8667858D01*
X-89375457Y8340560D01*
X-89276462Y8022873D01*
X-89139904Y7719454D01*
X-89139901Y7719448D01*
X-88967755Y7434683D01*
X-88762548Y7172754D01*
X-88762536Y7172741D01*
X-88527260Y6937465D01*
X-88527247Y6937453D01*
X-88326970Y6780547D01*
X-88265318Y6732246D01*
X-87980557Y6560102D01*
X-87980555Y6560101D01*
X-87980553Y6560100D01*
X-87980547Y6560097D01*
X-87677128Y6423539D01*
X-87677127Y6423539D01*
X-87677123Y6423537D01*
X-87359441Y6324544D01*
X-87032142Y6264564D01*
X-86810714Y6251170D01*
X-86700001Y6244473D01*
X-86700000Y6244473D01*
X-86699999Y6244473D01*
X-86616965Y6249496D01*
X-86367858Y6264564D01*
X-86040559Y6324544D01*
X-85722877Y6423537D01*
X-85419443Y6560102D01*
X-85134682Y6732246D01*
X-84872748Y6937458D01*
X-84637458Y7172748D01*
X-84432246Y7434682D01*
X-84378986Y7522785D01*
X-77011367Y7522785D01*
X-77011366Y7500001D01*
X-77010502Y7497917D01*
X-77010501Y7497912D01*
X-77010500Y7497912D01*
X-77008037Y7491965D01*
X-76991890Y7475822D01*
X-76988218Y7473369D01*
X-76026622Y6511773D01*
X-76024151Y6508075D01*
X-76008037Y6491966D01*
X-76008036Y6491964D01*
X-76007829Y6491879D01*
X-76007660Y6491808D01*
X-76007649Y6491804D01*
X-76005949Y6491100D01*
X-76005948Y6491099D01*
X-76000000Y6488635D01*
X-76000000Y6488636D01*
X-75999999Y6488635D01*
X-75977216Y6488634D01*
X-75972856Y6489500D01*
X-69027155Y6489500D01*
X-69022807Y6488635D01*
X-69000000Y6488635D01*
X-68994052Y6491099D01*
X-68994052Y6491100D01*
X-68992341Y6491808D01*
X-68991964Y6491964D01*
X-68991964Y6491965D01*
X-68991922Y6491982D01*
X-68990817Y6492440D01*
X-68987736Y6496193D01*
X-68975823Y6508107D01*
X-68973364Y6511789D01*
X-68011789Y7473364D01*
X-68008126Y7475810D01*
X-67991966Y7491964D01*
X-67991964Y7491964D01*
X-67989500Y7497912D01*
X-67988635Y7500000D01*
X-67988636Y7500003D01*
X-67988635Y7500004D01*
X-67988634Y7522785D01*
X-67989500Y7527144D01*
X-67989500Y21472846D01*
X-67988635Y21477193D01*
X-67988635Y21499999D01*
X-67988637Y21500004D01*
X-67991099Y21505948D01*
X-67991100Y21505949D01*
X-67991964Y21508036D01*
X-67991966Y21508037D01*
X-68008075Y21524151D01*
X-68011773Y21526622D01*
X-68973369Y22488218D01*
X-68975822Y22491890D01*
X-68991965Y22508037D01*
X-68997912Y22510500D01*
X-68997914Y22510501D01*
X-69000000Y22511365D01*
X-69022806Y22511365D01*
X-69027154Y22510500D01*
X-75972856Y22510500D01*
X-75977216Y22511367D01*
X-76000000Y22511366D01*
X-76001678Y22510670D01*
X-76002088Y22510500D01*
X-76008034Y22508037D01*
X-76008036Y22508036D01*
X-76024147Y22491929D01*
X-76026614Y22488237D01*
X-76988237Y21526614D01*
X-76991923Y21524150D01*
X-77008036Y21508037D01*
X-77011365Y21500004D01*
X-77011365Y21477193D01*
X-77010500Y21472846D01*
X-77010500Y7527144D01*
X-77011367Y7522785D01*
X-84378986Y7522785D01*
X-84260102Y7719443D01*
X-84123537Y8022877D01*
X-84024544Y8340559D01*
X-83964564Y8667858D01*
X-83944473Y9000000D01*
X-83964564Y9332142D01*
X-84024544Y9659441D01*
X-84123537Y9977123D01*
X-84260102Y10280557D01*
X-84432246Y10565318D01*
X-84637453Y10827247D01*
X-84637465Y10827260D01*
X-84872741Y11062536D01*
X-84872754Y11062548D01*
X-85134683Y11267755D01*
X-85419448Y11439901D01*
X-85419454Y11439904D01*
X-85722873Y11576462D01*
X-86040560Y11675457D01*
X-86367858Y11735436D01*
X-86367861Y11735437D01*
X-86699999Y11755527D01*
X-86700001Y11755527D01*
X-87032140Y11735437D01*
X-87032143Y11735436D01*
X-87359441Y11675457D01*
X-87677128Y11576462D01*
X-87980547Y11439904D01*
X-87980553Y11439901D01*
X-88265318Y11267755D01*
X-88527247Y11062548D01*
X-88527260Y11062536D01*
X-88762536Y10827260D01*
X-88762548Y10827247D01*
X-88967755Y10565318D01*
X-89139901Y10280553D01*
X-89139904Y10280547D01*
X-89276462Y9977128D01*
X-89375457Y9659441D01*
X-89435436Y9332143D01*
X-89435437Y9332140D01*
X-89455527Y9000002D01*
X-89455527Y8999999D01*
X-96368528Y8999999D01*
X-96583583Y9243347D01*
X-96598307Y9263819D01*
X-98220971Y12076406D01*
X-98230812Y12097902D01*
X-98498456Y12865792D01*
X-99356020Y15326208D01*
X-99361213Y15346313D01*
X-99987678Y18990296D01*
X-99989500Y19011644D01*
X-99989500Y30999998D01*
X-98355421Y30999998D01*
X-98335751Y30637215D01*
X-98276975Y30278689D01*
X-98179775Y29928607D01*
X-98179773Y29928601D01*
X-98045303Y29591107D01*
X-98045298Y29591095D01*
X-97944808Y29401550D01*
X-97875119Y29270103D01*
X-97671226Y28969385D01*
X-97436021Y28692479D01*
X-97172269Y28442638D01*
X-97172254Y28442625D01*
X-96883019Y28222755D01*
X-96571708Y28035445D01*
X-96241969Y27882892D01*
X-95897670Y27766884D01*
X-95542847Y27688782D01*
X-95181659Y27649500D01*
X-95181651Y27649500D01*
X-94818349Y27649500D01*
X-94818341Y27649500D01*
X-94457153Y27688782D01*
X-94102330Y27766884D01*
X-93758031Y27882892D01*
X-93428292Y28035445D01*
X-93116981Y28222755D01*
X-92827746Y28442625D01*
X-92563979Y28692479D01*
X-92328773Y28969386D01*
X-92124883Y29270100D01*
X-91954702Y29591095D01*
X-91820225Y29928609D01*
X-91723027Y30278684D01*
X-91664249Y30637215D01*
X-91644579Y31000000D01*
X-91664249Y31362785D01*
X-91723027Y31721316D01*
X-91820225Y32071391D01*
X-91820226Y32071394D01*
X-91820228Y32071400D01*
X-91954698Y32408894D01*
X-91954702Y32408905D01*
X-92124883Y32729900D01*
X-92328773Y33030614D01*
X-92563979Y33307521D01*
X-92563980Y33307522D01*
X-92827732Y33557363D01*
X-92827747Y33557376D01*
X-93116977Y33777242D01*
X-93116983Y33777246D01*
X-93428287Y33964552D01*
X-93428288Y33964553D01*
X-93428292Y33964555D01*
X-93758031Y34117108D01*
X-94102330Y34233116D01*
X-94102335Y34233118D01*
X-94102338Y34233118D01*
X-94457136Y34311215D01*
X-94457165Y34311220D01*
X-94818334Y34350500D01*
X-94818341Y34350500D01*
X-95181659Y34350500D01*
X-95181667Y34350500D01*
X-95542836Y34311220D01*
X-95542865Y34311215D01*
X-95897663Y34233118D01*
X-95897680Y34233113D01*
X-96241967Y34117109D01*
X-96241969Y34117108D01*
X-96571701Y33964558D01*
X-96571714Y33964552D01*
X-96883018Y33777246D01*
X-96883024Y33777242D01*
X-97172254Y33557376D01*
X-97172269Y33557363D01*
X-97436021Y33307522D01*
X-97671226Y33030616D01*
X-97875119Y32729898D01*
X-98045299Y32408903D01*
X-98045303Y32408894D01*
X-98179773Y32071400D01*
X-98179775Y32071394D01*
X-98276975Y31721312D01*
X-98335751Y31362786D01*
X-98355421Y31000003D01*
X-98355421Y30999998D01*
X-99989500Y30999998D01*
X-99989500Y35996554D01*
X-99989339Y36002920D01*
X-99938897Y36999999D01*
X-89455527Y36999999D01*
X-89435437Y36667861D01*
X-89435436Y36667858D01*
X-89375457Y36340560D01*
X-89276462Y36022873D01*
X-89139904Y35719454D01*
X-89139901Y35719448D01*
X-88967755Y35434683D01*
X-88762548Y35172754D01*
X-88762536Y35172741D01*
X-88527260Y34937465D01*
X-88527247Y34937453D01*
X-88265318Y34732246D01*
X-87980557Y34560102D01*
X-87980555Y34560101D01*
X-87980553Y34560100D01*
X-87980547Y34560097D01*
X-87677128Y34423539D01*
X-87677127Y34423539D01*
X-87677123Y34423537D01*
X-87359441Y34324544D01*
X-87032142Y34264564D01*
X-86876924Y34255175D01*
X-86700001Y34244473D01*
X-86700000Y34244473D01*
X-86699999Y34244473D01*
X-86644350Y34247840D01*
X-86523078Y34255175D01*
X-86453874Y34239323D01*
X-86404226Y34188572D01*
X-86389897Y34119036D01*
X-86415437Y34052793D01*
X-86462564Y34015051D01*
X-86571703Y33964558D01*
X-86571710Y33964554D01*
X-86883018Y33777246D01*
X-86883024Y33777242D01*
X-87172254Y33557376D01*
X-87172269Y33557363D01*
X-87436021Y33307522D01*
X-87671226Y33030616D01*
X-87875119Y32729898D01*
X-88045299Y32408903D01*
X-88045303Y32408894D01*
X-88179773Y32071400D01*
X-88179775Y32071394D01*
X-88276975Y31721312D01*
X-88335751Y31362786D01*
X-88355421Y31000003D01*
X-88355421Y30999998D01*
X-88335751Y30637215D01*
X-88276975Y30278689D01*
X-88179775Y29928607D01*
X-88179773Y29928601D01*
X-88045303Y29591107D01*
X-88045298Y29591095D01*
X-87944808Y29401550D01*
X-87875119Y29270103D01*
X-87671226Y28969385D01*
X-87436021Y28692479D01*
X-87172269Y28442638D01*
X-87172254Y28442625D01*
X-86883019Y28222755D01*
X-86571708Y28035445D01*
X-86241969Y27882892D01*
X-85897670Y27766884D01*
X-85542847Y27688782D01*
X-85181659Y27649500D01*
X-85181651Y27649500D01*
X-84818349Y27649500D01*
X-84818341Y27649500D01*
X-84457153Y27688782D01*
X-84102330Y27766884D01*
X-83758031Y27882892D01*
X-83428292Y28035445D01*
X-83116981Y28222755D01*
X-82827746Y28442625D01*
X-82563979Y28692479D01*
X-82328773Y28969386D01*
X-82124883Y29270100D01*
X-81954702Y29591095D01*
X-81820225Y29928609D01*
X-81723027Y30278684D01*
X-81664249Y30637215D01*
X-81644579Y30999998D01*
X81644579Y30999998D01*
X81664249Y30637215D01*
X81723025Y30278689D01*
X81820225Y29928607D01*
X81820227Y29928601D01*
X81954697Y29591107D01*
X81954702Y29591095D01*
X82055192Y29401550D01*
X82124881Y29270103D01*
X82328774Y28969385D01*
X82563979Y28692479D01*
X82827731Y28442638D01*
X82827746Y28442625D01*
X83116981Y28222755D01*
X83428292Y28035445D01*
X83758031Y27882892D01*
X84102330Y27766884D01*
X84457153Y27688782D01*
X84818341Y27649500D01*
X84818349Y27649500D01*
X85181651Y27649500D01*
X85181659Y27649500D01*
X85542847Y27688782D01*
X85897670Y27766884D01*
X86241969Y27882892D01*
X86571708Y28035445D01*
X86883019Y28222755D01*
X87172254Y28442625D01*
X87436021Y28692479D01*
X87671227Y28969386D01*
X87875117Y29270100D01*
X88045298Y29591095D01*
X88179775Y29928609D01*
X88276973Y30278684D01*
X88335751Y30637215D01*
X88355421Y30999998D01*
X91644579Y30999998D01*
X91664249Y30637215D01*
X91723025Y30278689D01*
X91820225Y29928607D01*
X91820227Y29928601D01*
X91954697Y29591107D01*
X91954702Y29591095D01*
X92055192Y29401550D01*
X92124881Y29270103D01*
X92328774Y28969385D01*
X92563979Y28692479D01*
X92827731Y28442638D01*
X92827746Y28442625D01*
X93116981Y28222755D01*
X93428292Y28035445D01*
X93758031Y27882892D01*
X94102330Y27766884D01*
X94457153Y27688782D01*
X94818341Y27649500D01*
X94818349Y27649500D01*
X95181651Y27649500D01*
X95181659Y27649500D01*
X95542847Y27688782D01*
X95897670Y27766884D01*
X96241969Y27882892D01*
X96571708Y28035445D01*
X96883019Y28222755D01*
X97172254Y28442625D01*
X97436021Y28692479D01*
X97671227Y28969386D01*
X97875117Y29270100D01*
X98045298Y29591095D01*
X98179775Y29928609D01*
X98276973Y30278684D01*
X98335751Y30637215D01*
X98355421Y31000000D01*
X98335751Y31362785D01*
X98276973Y31721316D01*
X98179775Y32071391D01*
X98179774Y32071394D01*
X98179772Y32071400D01*
X98045302Y32408894D01*
X98045298Y32408905D01*
X97875117Y32729900D01*
X97671227Y33030614D01*
X97436021Y33307521D01*
X97436020Y33307522D01*
X97172268Y33557363D01*
X97172253Y33557376D01*
X96883023Y33777242D01*
X96883017Y33777246D01*
X96571713Y33964552D01*
X96571712Y33964553D01*
X96571708Y33964555D01*
X96241969Y34117108D01*
X95897670Y34233116D01*
X95897665Y34233118D01*
X95897662Y34233118D01*
X95542864Y34311215D01*
X95542835Y34311220D01*
X95181666Y34350500D01*
X95181659Y34350500D01*
X94818341Y34350500D01*
X94818333Y34350500D01*
X94457164Y34311220D01*
X94457135Y34311215D01*
X94102337Y34233118D01*
X94102320Y34233113D01*
X93758033Y34117109D01*
X93758031Y34117108D01*
X93428299Y33964558D01*
X93428286Y33964552D01*
X93116982Y33777246D01*
X93116976Y33777242D01*
X92827746Y33557376D01*
X92827731Y33557363D01*
X92563979Y33307522D01*
X92328774Y33030616D01*
X92124881Y32729898D01*
X91954701Y32408903D01*
X91954697Y32408894D01*
X91820227Y32071400D01*
X91820225Y32071394D01*
X91723025Y31721312D01*
X91664249Y31362786D01*
X91644579Y31000003D01*
X91644579Y30999998D01*
X88355421Y30999998D01*
X88355421Y31000000D01*
X88335751Y31362785D01*
X88276973Y31721316D01*
X88179775Y32071391D01*
X88179774Y32071394D01*
X88179772Y32071400D01*
X88045302Y32408894D01*
X88045298Y32408905D01*
X87875117Y32729900D01*
X87671227Y33030614D01*
X87436021Y33307521D01*
X87436020Y33307522D01*
X87172268Y33557363D01*
X87172253Y33557376D01*
X86883023Y33777242D01*
X86883017Y33777246D01*
X86571713Y33964552D01*
X86571712Y33964553D01*
X86571708Y33964555D01*
X86462561Y34015052D01*
X86409137Y34061807D01*
X86389471Y34130025D01*
X86409808Y34198047D01*
X86463692Y34244275D01*
X86523076Y34255175D01*
X86618811Y34249385D01*
X86699999Y34244473D01*
X86700000Y34244473D01*
X86700001Y34244473D01*
X86783035Y34249496D01*
X87032142Y34264564D01*
X87359441Y34324544D01*
X87677123Y34423537D01*
X87980557Y34560102D01*
X88265318Y34732246D01*
X88527252Y34937458D01*
X88762542Y35172748D01*
X88967754Y35434682D01*
X89139898Y35719443D01*
X89276463Y36022877D01*
X89375456Y36340559D01*
X89435436Y36667858D01*
X89455527Y37000000D01*
X89435436Y37332142D01*
X89375456Y37659441D01*
X89276463Y37977123D01*
X89139898Y38280557D01*
X88967754Y38565318D01*
X88929929Y38613598D01*
X88762547Y38827247D01*
X88762535Y38827260D01*
X88527259Y39062536D01*
X88527246Y39062548D01*
X88265317Y39267755D01*
X87980552Y39439901D01*
X87980546Y39439904D01*
X87677127Y39576462D01*
X87359440Y39675457D01*
X87032142Y39735436D01*
X87032139Y39735437D01*
X86700001Y39755527D01*
X86699997Y39755527D01*
X86523076Y39744826D01*
X86453872Y39760679D01*
X86404225Y39811429D01*
X86389896Y39880965D01*
X86415437Y39947209D01*
X86462560Y39984949D01*
X86571708Y40035445D01*
X86883019Y40222755D01*
X87172254Y40442625D01*
X87436021Y40692479D01*
X87671227Y40969386D01*
X87875117Y41270100D01*
X88045298Y41591095D01*
X88179775Y41928609D01*
X88276973Y42278684D01*
X88335751Y42637215D01*
X88355421Y42999998D01*
X91644579Y42999998D01*
X91664249Y42637215D01*
X91723025Y42278689D01*
X91820225Y41928607D01*
X91820227Y41928601D01*
X91954697Y41591107D01*
X91954702Y41591095D01*
X92124883Y41270100D01*
X92173843Y41197889D01*
X92328774Y40969385D01*
X92563979Y40692479D01*
X92827731Y40442638D01*
X92827746Y40442625D01*
X93116981Y40222755D01*
X93428292Y40035445D01*
X93758031Y39882892D01*
X94102330Y39766884D01*
X94457153Y39688782D01*
X94818341Y39649500D01*
X94818349Y39649500D01*
X95181651Y39649500D01*
X95181659Y39649500D01*
X95542847Y39688782D01*
X95897670Y39766884D01*
X96241969Y39882892D01*
X96571708Y40035445D01*
X96883019Y40222755D01*
X97172254Y40442625D01*
X97436021Y40692479D01*
X97671227Y40969386D01*
X97875117Y41270100D01*
X98045298Y41591095D01*
X98179775Y41928609D01*
X98276973Y42278684D01*
X98335751Y42637215D01*
X98355421Y43000000D01*
X98335751Y43362785D01*
X98276973Y43721316D01*
X98179775Y44071391D01*
X98179774Y44071394D01*
X98179772Y44071400D01*
X98045302Y44408894D01*
X98045298Y44408905D01*
X97875117Y44729900D01*
X97671227Y45030614D01*
X97436021Y45307521D01*
X97436020Y45307522D01*
X97172268Y45557363D01*
X97172253Y45557376D01*
X96883023Y45777242D01*
X96883017Y45777246D01*
X96571713Y45964552D01*
X96571712Y45964553D01*
X96571708Y45964555D01*
X96241969Y46117108D01*
X95971903Y46208104D01*
X95897679Y46233113D01*
X95897678Y46233114D01*
X95897670Y46233116D01*
X95897665Y46233118D01*
X95897662Y46233118D01*
X95542864Y46311215D01*
X95542835Y46311220D01*
X95181666Y46350500D01*
X95181659Y46350500D01*
X94818341Y46350500D01*
X94818333Y46350500D01*
X94457164Y46311220D01*
X94457135Y46311215D01*
X94102337Y46233118D01*
X94102320Y46233113D01*
X93758033Y46117109D01*
X93428286Y45964552D01*
X93116982Y45777246D01*
X93116976Y45777242D01*
X92827746Y45557376D01*
X92827731Y45557363D01*
X92563979Y45307522D01*
X92328774Y45030616D01*
X92124881Y44729898D01*
X91954701Y44408903D01*
X91954697Y44408894D01*
X91820227Y44071400D01*
X91820225Y44071394D01*
X91723025Y43721312D01*
X91664249Y43362786D01*
X91644579Y43000003D01*
X91644579Y42999998D01*
X88355421Y42999998D01*
X88355421Y43000000D01*
X88335751Y43362785D01*
X88276973Y43721316D01*
X88179775Y44071391D01*
X88179774Y44071394D01*
X88179772Y44071400D01*
X88045302Y44408894D01*
X88045298Y44408905D01*
X87875117Y44729900D01*
X87671227Y45030614D01*
X87436021Y45307521D01*
X87436020Y45307522D01*
X87172268Y45557363D01*
X87172253Y45557376D01*
X86883023Y45777242D01*
X86883017Y45777246D01*
X86571713Y45964552D01*
X86571712Y45964553D01*
X86571708Y45964555D01*
X86241969Y46117108D01*
X85971903Y46208104D01*
X85897679Y46233113D01*
X85897678Y46233114D01*
X85897670Y46233116D01*
X85897665Y46233118D01*
X85897662Y46233118D01*
X85542864Y46311215D01*
X85542835Y46311220D01*
X85181666Y46350500D01*
X85181659Y46350500D01*
X84818341Y46350500D01*
X84818333Y46350500D01*
X84457164Y46311220D01*
X84457135Y46311215D01*
X84102337Y46233118D01*
X84102320Y46233113D01*
X83758033Y46117109D01*
X83428286Y45964552D01*
X83116982Y45777246D01*
X83116976Y45777242D01*
X82827746Y45557376D01*
X82827731Y45557363D01*
X82563979Y45307522D01*
X82328774Y45030616D01*
X82124881Y44729898D01*
X81954701Y44408903D01*
X81954697Y44408894D01*
X81820227Y44071400D01*
X81820225Y44071394D01*
X81723025Y43721312D01*
X81664249Y43362786D01*
X81644579Y43000003D01*
X81644579Y42999998D01*
X81664249Y42637215D01*
X81723025Y42278689D01*
X81820225Y41928607D01*
X81820227Y41928601D01*
X81954697Y41591107D01*
X81954702Y41591095D01*
X82124883Y41270100D01*
X82173843Y41197889D01*
X82328774Y40969385D01*
X82563979Y40692479D01*
X82827731Y40442638D01*
X82827746Y40442625D01*
X83116981Y40222755D01*
X83428292Y40035445D01*
X83758031Y39882892D01*
X84102330Y39766884D01*
X84457153Y39688782D01*
X84818341Y39649500D01*
X84818349Y39649500D01*
X85181651Y39649500D01*
X85181659Y39649500D01*
X85328136Y39665431D01*
X85398018Y39652912D01*
X85450040Y39604598D01*
X85467683Y39535828D01*
X85445346Y39468437D01*
X85406943Y39432342D01*
X85134687Y39267758D01*
X85134682Y39267755D01*
X84872753Y39062548D01*
X84872740Y39062536D01*
X84637464Y38827260D01*
X84637452Y38827247D01*
X84432245Y38565318D01*
X84260099Y38280553D01*
X84260096Y38280547D01*
X84123538Y37977128D01*
X84024543Y37659441D01*
X83964564Y37332143D01*
X83964563Y37332140D01*
X83944473Y37000002D01*
X83944473Y36999999D01*
X83964563Y36667861D01*
X83964564Y36667858D01*
X84024543Y36340560D01*
X84123538Y36022873D01*
X84260096Y35719454D01*
X84260099Y35719448D01*
X84432245Y35434683D01*
X84637452Y35172754D01*
X84637464Y35172741D01*
X84872740Y34937465D01*
X84872753Y34937453D01*
X85134682Y34732246D01*
X85406943Y34567659D01*
X85454891Y34515301D01*
X85466921Y34445331D01*
X85439212Y34379965D01*
X85380563Y34339955D01*
X85328135Y34334570D01*
X85181666Y34350500D01*
X85181659Y34350500D01*
X84818341Y34350500D01*
X84818333Y34350500D01*
X84457164Y34311220D01*
X84457135Y34311215D01*
X84102337Y34233118D01*
X84102320Y34233113D01*
X83758033Y34117109D01*
X83758031Y34117108D01*
X83428299Y33964558D01*
X83428286Y33964552D01*
X83116982Y33777246D01*
X83116976Y33777242D01*
X82827746Y33557376D01*
X82827731Y33557363D01*
X82563979Y33307522D01*
X82328774Y33030616D01*
X82124881Y32729898D01*
X81954701Y32408903D01*
X81954697Y32408894D01*
X81820227Y32071400D01*
X81820225Y32071394D01*
X81723025Y31721312D01*
X81664249Y31362786D01*
X81644579Y31000003D01*
X81644579Y30999998D01*
X-81644579Y30999998D01*
X-81644579Y31000000D01*
X-81664249Y31362785D01*
X-81723027Y31721316D01*
X-81820225Y32071391D01*
X-81820226Y32071394D01*
X-81820228Y32071400D01*
X-81954698Y32408894D01*
X-81954702Y32408905D01*
X-82124883Y32729900D01*
X-82328773Y33030614D01*
X-82563979Y33307521D01*
X-82563980Y33307522D01*
X-82827732Y33557363D01*
X-82827747Y33557376D01*
X-83116977Y33777242D01*
X-83116983Y33777246D01*
X-83428287Y33964552D01*
X-83428288Y33964553D01*
X-83428292Y33964555D01*
X-83758031Y34117108D01*
X-84102330Y34233116D01*
X-84102335Y34233118D01*
X-84102338Y34233118D01*
X-84457136Y34311215D01*
X-84457165Y34311220D01*
X-84818334Y34350500D01*
X-84818341Y34350500D01*
X-85181659Y34350500D01*
X-85181667Y34350500D01*
X-85328136Y34334570D01*
X-85398020Y34347089D01*
X-85450042Y34395404D01*
X-85467684Y34464174D01*
X-85445346Y34531564D01*
X-85406948Y34567656D01*
X-85134682Y34732246D01*
X-84872748Y34937458D01*
X-84637458Y35172748D01*
X-84432246Y35434682D01*
X-84260102Y35719443D01*
X-84123537Y36022877D01*
X-84024544Y36340559D01*
X-83964564Y36667858D01*
X-83944473Y37000000D01*
X-83964564Y37332142D01*
X-84024544Y37659441D01*
X-84123537Y37977123D01*
X-84260102Y38280557D01*
X-84432246Y38565318D01*
X-84470071Y38613598D01*
X-84637453Y38827247D01*
X-84637465Y38827260D01*
X-84872741Y39062536D01*
X-84872754Y39062548D01*
X-85134683Y39267755D01*
X-85256599Y39341456D01*
X-85406945Y39432343D01*
X-85454892Y39484700D01*
X-85466922Y39554670D01*
X-85439213Y39620036D01*
X-85380564Y39660046D01*
X-85328138Y39665431D01*
X-85181659Y39649500D01*
X-85181651Y39649500D01*
X-84818349Y39649500D01*
X-84818341Y39649500D01*
X-84457153Y39688782D01*
X-84102330Y39766884D01*
X-83758031Y39882892D01*
X-83428292Y40035445D01*
X-83116981Y40222755D01*
X-82827746Y40442625D01*
X-82563979Y40692479D01*
X-82328773Y40969386D01*
X-82124883Y41270100D01*
X-81954702Y41591095D01*
X-81820225Y41928609D01*
X-81723027Y42278684D01*
X-81664249Y42637215D01*
X-81644579Y43000000D01*
X-81664249Y43362785D01*
X-81723027Y43721316D01*
X-81820225Y44071391D01*
X-81820226Y44071394D01*
X-81820228Y44071400D01*
X-81954698Y44408894D01*
X-81954702Y44408905D01*
X-82124883Y44729900D01*
X-82328773Y45030614D01*
X-82563979Y45307521D01*
X-82563980Y45307522D01*
X-82827732Y45557363D01*
X-82827747Y45557376D01*
X-83116977Y45777242D01*
X-83116983Y45777246D01*
X-83428287Y45964552D01*
X-83428288Y45964553D01*
X-83428292Y45964555D01*
X-83758031Y46117108D01*
X-84028097Y46208104D01*
X-84102321Y46233113D01*
X-84102322Y46233114D01*
X-84102330Y46233116D01*
X-84102335Y46233118D01*
X-84102338Y46233118D01*
X-84457136Y46311215D01*
X-84457165Y46311220D01*
X-84818334Y46350500D01*
X-84818341Y46350500D01*
X-85181659Y46350500D01*
X-85181667Y46350500D01*
X-85542836Y46311220D01*
X-85542865Y46311215D01*
X-85897663Y46233118D01*
X-85897680Y46233113D01*
X-86241967Y46117109D01*
X-86571714Y45964552D01*
X-86883018Y45777246D01*
X-86883024Y45777242D01*
X-87172254Y45557376D01*
X-87172269Y45557363D01*
X-87436021Y45307522D01*
X-87671226Y45030616D01*
X-87875119Y44729898D01*
X-88045299Y44408903D01*
X-88045303Y44408894D01*
X-88179773Y44071400D01*
X-88179775Y44071394D01*
X-88276975Y43721312D01*
X-88335751Y43362786D01*
X-88355421Y43000003D01*
X-88355421Y42999998D01*
X-88335751Y42637215D01*
X-88276975Y42278689D01*
X-88179775Y41928607D01*
X-88179773Y41928601D01*
X-88045303Y41591107D01*
X-88045298Y41591095D01*
X-87875117Y41270100D01*
X-87826157Y41197889D01*
X-87671226Y40969385D01*
X-87436021Y40692479D01*
X-87172269Y40442638D01*
X-87172254Y40442625D01*
X-86883019Y40222755D01*
X-86571711Y40035447D01*
X-86571712Y40035447D01*
X-86571710Y40035446D01*
X-86571708Y40035445D01*
X-86462564Y39984950D01*
X-86409138Y39938195D01*
X-86389472Y39869976D01*
X-86409808Y39801955D01*
X-86463692Y39755726D01*
X-86523077Y39744826D01*
X-86699997Y39755527D01*
X-86700001Y39755527D01*
X-87032140Y39735437D01*
X-87032143Y39735436D01*
X-87359441Y39675457D01*
X-87677128Y39576462D01*
X-87980547Y39439904D01*
X-87980553Y39439901D01*
X-88265318Y39267755D01*
X-88527247Y39062548D01*
X-88527260Y39062536D01*
X-88762536Y38827260D01*
X-88762548Y38827247D01*
X-88967755Y38565318D01*
X-89139901Y38280553D01*
X-89139904Y38280547D01*
X-89276462Y37977128D01*
X-89375457Y37659441D01*
X-89435436Y37332143D01*
X-89435437Y37332140D01*
X-89455527Y37000002D01*
X-89455527Y36999999D01*
X-99938897Y36999999D01*
X-99889465Y37977123D01*
X-99857265Y38613612D01*
X-99856242Y38624471D01*
X-99502010Y41187025D01*
X-99500021Y41197876D01*
X-99087252Y42999998D01*
X-98355421Y42999998D01*
X-98335751Y42637215D01*
X-98276975Y42278689D01*
X-98179775Y41928607D01*
X-98179773Y41928601D01*
X-98045303Y41591107D01*
X-98045298Y41591095D01*
X-97875117Y41270100D01*
X-97826157Y41197889D01*
X-97671226Y40969385D01*
X-97436021Y40692479D01*
X-97172269Y40442638D01*
X-97172254Y40442625D01*
X-96883019Y40222755D01*
X-96571708Y40035445D01*
X-96241969Y39882892D01*
X-95897670Y39766884D01*
X-95542847Y39688782D01*
X-95181659Y39649500D01*
X-95181651Y39649500D01*
X-94818349Y39649500D01*
X-94818341Y39649500D01*
X-94457153Y39688782D01*
X-94102330Y39766884D01*
X-93758031Y39882892D01*
X-93428292Y40035445D01*
X-93116981Y40222755D01*
X-92827746Y40442625D01*
X-92563979Y40692479D01*
X-92328773Y40969386D01*
X-92124883Y41270100D01*
X-91954702Y41591095D01*
X-91820225Y41928609D01*
X-91723027Y42278684D01*
X-91664249Y42637215D01*
X-91644579Y43000000D01*
X-91664249Y43362785D01*
X-91723027Y43721316D01*
X-91820225Y44071391D01*
X-91820226Y44071394D01*
X-91820228Y44071400D01*
X-91954698Y44408894D01*
X-91954702Y44408905D01*
X-92124883Y44729900D01*
X-92328773Y45030614D01*
X-92563979Y45307521D01*
X-92563980Y45307522D01*
X-92827732Y45557363D01*
X-92827747Y45557376D01*
X-93116977Y45777242D01*
X-93116983Y45777246D01*
X-93428287Y45964552D01*
X-93428288Y45964553D01*
X-93428292Y45964555D01*
X-93758031Y46117108D01*
X-94028097Y46208104D01*
X-94102321Y46233113D01*
X-94102322Y46233114D01*
X-94102330Y46233116D01*
X-94102335Y46233118D01*
X-94102338Y46233118D01*
X-94457136Y46311215D01*
X-94457165Y46311220D01*
X-94818334Y46350500D01*
X-94818341Y46350500D01*
X-95181659Y46350500D01*
X-95181667Y46350500D01*
X-95542836Y46311220D01*
X-95542865Y46311215D01*
X-95897663Y46233118D01*
X-95897680Y46233113D01*
X-96241967Y46117109D01*
X-96571714Y45964552D01*
X-96883018Y45777246D01*
X-96883024Y45777242D01*
X-97172254Y45557376D01*
X-97172269Y45557363D01*
X-97436021Y45307522D01*
X-97671226Y45030616D01*
X-97875119Y44729898D01*
X-98045299Y44408903D01*
X-98045303Y44408894D01*
X-98179773Y44071400D01*
X-98179775Y44071394D01*
X-98276975Y43721312D01*
X-98335751Y43362786D01*
X-98355421Y43000003D01*
X-98355421Y42999998D01*
X-99087252Y42999998D01*
X-98923516Y43714859D01*
X-98920598Y43725452D01*
X-98121737Y46197166D01*
X-98117988Y46207263D01*
X-97096644Y48633899D01*
X-97092197Y48643346D01*
X-97090711Y48646191D01*
X-96644758Y49500000D01*
X-80305565Y49500000D01*
X-80285368Y49320745D01*
X-80285367Y49320743D01*
X-80225789Y49150478D01*
X-80225788Y49150475D01*
X-80129818Y48997740D01*
X-80129817Y48997738D01*
X-80002263Y48870184D01*
X-80002261Y48870183D01*
X-79849526Y48774213D01*
X-79849525Y48774213D01*
X-79849522Y48774211D01*
X-79679255Y48714632D01*
X-79500000Y48694435D01*
X-79320745Y48714632D01*
X-79150478Y48774211D01*
X-79088802Y48812966D01*
X-79061392Y48830187D01*
X-78994356Y48849500D01*
X-66585726Y48849500D01*
X-66569621Y48847723D01*
X-66569596Y48847986D01*
X-66561712Y48847242D01*
X-66561704Y48847240D01*
X-66491770Y48849439D01*
X-66487812Y48849500D01*
X-66459078Y48849500D01*
X-66459075Y48849500D01*
X-66454808Y48850040D01*
X-66442970Y48850973D01*
X-66397431Y48852403D01*
X-66380327Y48857373D01*
X-66377206Y48858279D01*
X-66357850Y48862289D01*
X-66336942Y48864929D01*
X-66294577Y48881704D01*
X-66283356Y48885546D01*
X-66257710Y48892996D01*
X-66239604Y48898255D01*
X-66239602Y48898256D01*
X-66221471Y48908980D01*
X-66203715Y48917679D01*
X-66184129Y48925432D01*
X-66147262Y48952218D01*
X-66137362Y48958722D01*
X-66098135Y48981919D01*
X-66083238Y48996817D01*
X-66068204Y49009658D01*
X-66051163Y49022037D01*
X-66022110Y49057159D01*
X-66014141Y49065915D01*
X-61080056Y54000000D01*
X33194435Y54000000D01*
X33214632Y53820745D01*
X33214633Y53820743D01*
X33274211Y53650478D01*
X33274212Y53650475D01*
X33370182Y53497740D01*
X33370183Y53497738D01*
X33497737Y53370184D01*
X33497739Y53370183D01*
X33650474Y53274213D01*
X33650475Y53274213D01*
X33650478Y53274211D01*
X33820745Y53214632D01*
X34000000Y53194435D01*
X34179255Y53214632D01*
X34349522Y53274211D01*
X34502262Y53370184D01*
X34629816Y53497738D01*
X34725789Y53650478D01*
X34785368Y53820745D01*
X34786105Y53827284D01*
X34813607Y53892737D01*
X34822208Y53902264D01*
X36583853Y55663909D01*
X36646163Y55697933D01*
X36716978Y55692868D01*
X36773814Y55650321D01*
X36779633Y55641848D01*
X36870182Y55497740D01*
X36870183Y55497738D01*
X36997737Y55370184D01*
X36997739Y55370183D01*
X37150474Y55274213D01*
X37150475Y55274213D01*
X37150478Y55274211D01*
X37320745Y55214632D01*
X37500000Y55194435D01*
X37679255Y55214632D01*
X37849522Y55274211D01*
X38002262Y55370184D01*
X38129816Y55497738D01*
X38225789Y55650478D01*
X38285368Y55820745D01*
X38286105Y55827284D01*
X38313607Y55892737D01*
X38322208Y55902264D01*
X42134407Y59714462D01*
X42196717Y59748486D01*
X42267533Y59743421D01*
X42324368Y59700874D01*
X42349179Y59634354D01*
X42349500Y59625365D01*
X42349500Y59321637D01*
X42329498Y59253516D01*
X42312595Y59232542D01*
X39902270Y56822218D01*
X39839958Y56788192D01*
X39827291Y56786106D01*
X39820749Y56785369D01*
X39820738Y56785367D01*
X39650477Y56725789D01*
X39650474Y56725788D01*
X39497739Y56629818D01*
X39497737Y56629817D01*
X39370183Y56502263D01*
X39370182Y56502261D01*
X39274212Y56349526D01*
X39274211Y56349523D01*
X39274211Y56349522D01*
X39214632Y56179255D01*
X39194435Y56000000D01*
X39214632Y55820745D01*
X39261938Y55685553D01*
X39274211Y55650478D01*
X39274212Y55650475D01*
X39370182Y55497740D01*
X39370183Y55497738D01*
X39497737Y55370184D01*
X39497739Y55370183D01*
X39650474Y55274213D01*
X39650475Y55274213D01*
X39650478Y55274211D01*
X39820745Y55214632D01*
X40000000Y55194435D01*
X40179255Y55214632D01*
X40349522Y55274211D01*
X40502262Y55370184D01*
X40629816Y55497738D01*
X40725789Y55650478D01*
X40785368Y55820745D01*
X40786105Y55827284D01*
X40813607Y55892737D01*
X40822208Y55902264D01*
X43134407Y58214462D01*
X43196717Y58248486D01*
X43267533Y58243421D01*
X43324368Y58200874D01*
X43349179Y58134354D01*
X43349500Y58125365D01*
X43349500Y57821637D01*
X43329498Y57753516D01*
X43312595Y57732541D01*
X42402270Y56822217D01*
X42339958Y56788192D01*
X42327291Y56786106D01*
X42320749Y56785369D01*
X42320738Y56785367D01*
X42150477Y56725789D01*
X42150474Y56725788D01*
X41997739Y56629818D01*
X41997737Y56629817D01*
X41870183Y56502263D01*
X41870182Y56502261D01*
X41774212Y56349526D01*
X41774211Y56349523D01*
X41774211Y56349522D01*
X41714632Y56179255D01*
X41694435Y56000000D01*
X41714632Y55820745D01*
X41761938Y55685553D01*
X41774211Y55650478D01*
X41774212Y55650475D01*
X41870182Y55497740D01*
X41870183Y55497738D01*
X41997737Y55370184D01*
X41997739Y55370183D01*
X42150474Y55274213D01*
X42150475Y55274213D01*
X42150478Y55274211D01*
X42320745Y55214632D01*
X42500000Y55194435D01*
X42679255Y55214632D01*
X42849522Y55274211D01*
X43002262Y55370184D01*
X43129816Y55497738D01*
X43225789Y55650478D01*
X43285368Y55820745D01*
X43286105Y55827284D01*
X43313607Y55892737D01*
X43322199Y55902255D01*
X44134408Y56714464D01*
X44196717Y56748486D01*
X44267533Y56743421D01*
X44324368Y56700874D01*
X44349179Y56634354D01*
X44349500Y56625365D01*
X44349500Y56505644D01*
X44330187Y56438608D01*
X44274212Y56349525D01*
X44274211Y56349523D01*
X44274211Y56349522D01*
X44214632Y56179255D01*
X44194435Y56000000D01*
X44214632Y55820745D01*
X44261938Y55685553D01*
X44274211Y55650478D01*
X44274212Y55650475D01*
X44370182Y55497740D01*
X44370183Y55497738D01*
X44497737Y55370184D01*
X44497739Y55370183D01*
X44650474Y55274213D01*
X44650475Y55274213D01*
X44650478Y55274211D01*
X44820745Y55214632D01*
X45000000Y55194435D01*
X45179255Y55214632D01*
X45349522Y55274211D01*
X45502262Y55370184D01*
X45629816Y55497738D01*
X45725789Y55650478D01*
X45785368Y55820745D01*
X45805565Y56000000D01*
X45785368Y56179255D01*
X45725789Y56349522D01*
X45669813Y56438608D01*
X45650500Y56505644D01*
X45650500Y76413231D01*
X45670502Y76481352D01*
X45724158Y76527845D01*
X45794432Y76537949D01*
X45859012Y76508455D01*
X45865595Y76502326D01*
X45997737Y76370184D01*
X45997739Y76370183D01*
X46150474Y76274213D01*
X46150475Y76274213D01*
X46150478Y76274211D01*
X46320745Y76214632D01*
X46500000Y76194435D01*
X46679255Y76214632D01*
X46849522Y76274211D01*
X47002262Y76370184D01*
X47129816Y76497738D01*
X47225789Y76650478D01*
X47285368Y76820745D01*
X47305565Y77000000D01*
X47285368Y77179255D01*
X47225789Y77349522D01*
X47169813Y77438608D01*
X47150500Y77505644D01*
X47150500Y142494358D01*
X47169812Y142561392D01*
X47220366Y142641849D01*
X47273545Y142688885D01*
X47343713Y142699705D01*
X47408591Y142670871D01*
X47416148Y142663906D01*
X47479408Y142600646D01*
X47489540Y142588001D01*
X47489744Y142588169D01*
X47494798Y142582060D01*
X47545815Y142534152D01*
X47548626Y142531428D01*
X47568965Y142511089D01*
X47572380Y142508440D01*
X47581393Y142500742D01*
X47614607Y142469552D01*
X47633066Y142459404D01*
X47649583Y142448556D01*
X47666236Y142435638D01*
X47708057Y142417541D01*
X47718685Y142412335D01*
X47758632Y142390373D01*
X47779048Y142385132D01*
X47797735Y142378734D01*
X47817074Y142370365D01*
X47817078Y142370365D01*
X47817079Y142370364D01*
X47830458Y142368246D01*
X47862075Y142363238D01*
X47873685Y142360834D01*
X47917823Y142349500D01*
X47938884Y142349500D01*
X47958595Y142347949D01*
X47962076Y142347398D01*
X47979405Y142344653D01*
X48024765Y142348941D01*
X48036623Y142349500D01*
X48223500Y142349500D01*
X48291621Y142329498D01*
X48338114Y142275842D01*
X48349500Y142223500D01*
X48349500Y77505644D01*
X48330187Y77438608D01*
X48274212Y77349525D01*
X48274211Y77349523D01*
X48274211Y77349522D01*
X48214632Y77179255D01*
X48194435Y77000000D01*
X48214632Y76820745D01*
X48214633Y76820743D01*
X48274211Y76650478D01*
X48274212Y76650475D01*
X48370182Y76497740D01*
X48370183Y76497738D01*
X48497737Y76370184D01*
X48497739Y76370183D01*
X48650474Y76274213D01*
X48650475Y76274213D01*
X48650478Y76274211D01*
X48820745Y76214632D01*
X49000000Y76194435D01*
X49179255Y76214632D01*
X49349522Y76274211D01*
X49502262Y76370184D01*
X49629816Y76497738D01*
X49725789Y76650478D01*
X49785368Y76820745D01*
X49805565Y77000000D01*
X49785368Y77179255D01*
X49725789Y77349522D01*
X49669813Y77438608D01*
X49650500Y77505644D01*
X49650500Y142494358D01*
X49669812Y142561392D01*
X49725789Y142650478D01*
X49785368Y142820745D01*
X49805565Y143000000D01*
X49785368Y143179255D01*
X49784445Y143181891D01*
X49784353Y143183700D01*
X49783795Y143186146D01*
X49784223Y143186244D01*
X49780829Y143252793D01*
X49816121Y143314397D01*
X49879115Y143347142D01*
X49903377Y143349500D01*
X50178364Y143349500D01*
X50246485Y143329498D01*
X50267459Y143312595D01*
X50677782Y142902272D01*
X50711808Y142839960D01*
X50713894Y142827291D01*
X50714631Y142820751D01*
X50714633Y142820739D01*
X50774210Y142650479D01*
X50788467Y142627790D01*
X50830187Y142561392D01*
X50849500Y142494358D01*
X50849500Y77505644D01*
X50830187Y77438608D01*
X50774212Y77349525D01*
X50774211Y77349523D01*
X50774211Y77349522D01*
X50714632Y77179255D01*
X50694435Y77000000D01*
X50714632Y76820745D01*
X50714633Y76820743D01*
X50774211Y76650478D01*
X50774212Y76650475D01*
X50870182Y76497740D01*
X50870183Y76497738D01*
X50997737Y76370184D01*
X50997739Y76370183D01*
X51150474Y76274213D01*
X51150475Y76274213D01*
X51150478Y76274211D01*
X51320745Y76214632D01*
X51500000Y76194435D01*
X51679255Y76214632D01*
X51849522Y76274211D01*
X52002262Y76370184D01*
X52129816Y76497738D01*
X52225789Y76650478D01*
X52285368Y76820745D01*
X52305565Y77000000D01*
X52285368Y77179255D01*
X52225789Y77349522D01*
X52169813Y77438608D01*
X52150500Y77505644D01*
X52150500Y142494358D01*
X52169812Y142561392D01*
X52225789Y142650478D01*
X52285368Y142820745D01*
X52305565Y143000000D01*
X52285368Y143179255D01*
X52225789Y143349522D01*
X52225787Y143349525D01*
X52225787Y143349526D01*
X52129817Y143502261D01*
X52129816Y143502263D01*
X52002262Y143629817D01*
X52002260Y143629818D01*
X51849525Y143725788D01*
X51849522Y143725789D01*
X51679261Y143785367D01*
X51679249Y143785369D01*
X51672709Y143786106D01*
X51607258Y143813613D01*
X51597728Y143822218D01*
X51285541Y144134405D01*
X51251515Y144196717D01*
X51256580Y144267532D01*
X51299127Y144324368D01*
X51365647Y144349179D01*
X51374636Y144349500D01*
X51678364Y144349500D01*
X51746485Y144329498D01*
X51767459Y144312595D01*
X53177782Y142902272D01*
X53211808Y142839960D01*
X53213894Y142827291D01*
X53214631Y142820751D01*
X53214633Y142820739D01*
X53274210Y142650479D01*
X53288467Y142627790D01*
X53330187Y142561392D01*
X53349500Y142494358D01*
X53349500Y137505644D01*
X53330187Y137438608D01*
X53274212Y137349525D01*
X53274211Y137349523D01*
X53274211Y137349522D01*
X53214632Y137179255D01*
X53194435Y137000000D01*
X53214632Y136820745D01*
X53214633Y136820743D01*
X53274210Y136650479D01*
X53274211Y136650478D01*
X53330187Y136561392D01*
X53349500Y136494358D01*
X53349500Y77505644D01*
X53330187Y77438608D01*
X53274212Y77349525D01*
X53274211Y77349523D01*
X53274211Y77349522D01*
X53214632Y77179255D01*
X53194435Y77000000D01*
X53214632Y76820745D01*
X53214633Y76820743D01*
X53274211Y76650478D01*
X53274212Y76650475D01*
X53370182Y76497740D01*
X53370183Y76497738D01*
X53497737Y76370184D01*
X53497739Y76370183D01*
X53650474Y76274213D01*
X53650475Y76274213D01*
X53650478Y76274211D01*
X53820745Y76214632D01*
X54000000Y76194435D01*
X54179255Y76214632D01*
X54349522Y76274211D01*
X54502262Y76370184D01*
X54629816Y76497738D01*
X54725789Y76650478D01*
X54785368Y76820745D01*
X54805565Y77000000D01*
X54785368Y77179255D01*
X54725789Y77349522D01*
X54669813Y77438608D01*
X54650500Y77505644D01*
X54650500Y87999999D01*
X77244473Y87999999D01*
X77264563Y87667861D01*
X77264564Y87667858D01*
X77324543Y87340560D01*
X77423538Y87022873D01*
X77560096Y86719454D01*
X77560099Y86719448D01*
X77732245Y86434683D01*
X77937452Y86172754D01*
X77937464Y86172741D01*
X78172740Y85937465D01*
X78172753Y85937453D01*
X78434682Y85732246D01*
X78719443Y85560102D01*
X78719445Y85560101D01*
X78719447Y85560100D01*
X78719453Y85560097D01*
X79022872Y85423539D01*
X79022873Y85423539D01*
X79022877Y85423537D01*
X79340559Y85324544D01*
X79667858Y85264564D01*
X79889286Y85251170D01*
X79999999Y85244473D01*
X80000000Y85244473D01*
X80000001Y85244473D01*
X80083035Y85249496D01*
X80332142Y85264564D01*
X80659441Y85324544D01*
X80977123Y85423537D01*
X81280557Y85560102D01*
X81565318Y85732246D01*
X81827252Y85937458D01*
X82062542Y86172748D01*
X82267754Y86434682D01*
X82439898Y86719443D01*
X82576463Y87022877D01*
X82675456Y87340559D01*
X82735436Y87667858D01*
X82755527Y88000000D01*
X82735436Y88332142D01*
X82675456Y88659441D01*
X82576463Y88977123D01*
X82439898Y89280557D01*
X82267754Y89565318D01*
X82062547Y89827247D01*
X82062535Y89827260D01*
X81827259Y90062536D01*
X81827246Y90062548D01*
X81565317Y90267755D01*
X81280552Y90439901D01*
X81280546Y90439904D01*
X80977127Y90576462D01*
X80659440Y90675457D01*
X80332142Y90735436D01*
X80332139Y90735437D01*
X80000001Y90755527D01*
X79999999Y90755527D01*
X79667860Y90735437D01*
X79667857Y90735436D01*
X79340559Y90675457D01*
X79022872Y90576462D01*
X78719453Y90439904D01*
X78719447Y90439901D01*
X78434682Y90267755D01*
X78172753Y90062548D01*
X78172740Y90062536D01*
X77937464Y89827260D01*
X77937452Y89827247D01*
X77732245Y89565318D01*
X77560099Y89280553D01*
X77560096Y89280547D01*
X77423538Y88977128D01*
X77324543Y88659441D01*
X77264564Y88332143D01*
X77264563Y88332140D01*
X77244473Y88000002D01*
X77244473Y87999999D01*
X54650500Y87999999D01*
X54650500Y111220596D01*
X74344653Y111220596D01*
X74348941Y111175236D01*
X74349500Y111163378D01*
X74349500Y101385726D01*
X74347722Y101369621D01*
X74347986Y101369596D01*
X74347240Y101361705D01*
X74349438Y101291770D01*
X74349500Y101287812D01*
X74349500Y101259082D01*
X74349501Y101259064D01*
X74350041Y101254787D01*
X74350971Y101242967D01*
X74352402Y101197433D01*
X74352403Y101197430D01*
X74358280Y101177198D01*
X74362287Y101157847D01*
X74364927Y101136949D01*
X74364931Y101136936D01*
X74381699Y101094583D01*
X74385543Y101083356D01*
X74398255Y101039603D01*
X74398256Y101039601D01*
X74408979Y101021469D01*
X74417676Y101003716D01*
X74425428Y100984136D01*
X74425431Y100984132D01*
X74425432Y100984129D01*
X74445156Y100956980D01*
X74452204Y100947279D01*
X74458718Y100937363D01*
X74481918Y100898136D01*
X74481921Y100898132D01*
X74496812Y100883241D01*
X74509652Y100868208D01*
X74522034Y100851167D01*
X74522036Y100851164D01*
X74557143Y100822121D01*
X74565923Y100814131D01*
X75577782Y99802272D01*
X75611808Y99739960D01*
X75613894Y99727291D01*
X75614631Y99720751D01*
X75614633Y99720739D01*
X75674211Y99550478D01*
X75674212Y99550475D01*
X75770182Y99397740D01*
X75770183Y99397738D01*
X75897737Y99270184D01*
X75897739Y99270183D01*
X76050474Y99174213D01*
X76050475Y99174213D01*
X76050478Y99174211D01*
X76220745Y99114632D01*
X76400000Y99094435D01*
X76579255Y99114632D01*
X76749522Y99174211D01*
X76902262Y99270184D01*
X77029816Y99397738D01*
X77125789Y99550478D01*
X77185368Y99720745D01*
X77205565Y99900000D01*
X77185368Y100079255D01*
X77125789Y100249522D01*
X77125787Y100249525D01*
X77125787Y100249526D01*
X77029817Y100402261D01*
X77029816Y100402263D01*
X76902262Y100529817D01*
X76902260Y100529818D01*
X76749525Y100625788D01*
X76749522Y100625789D01*
X76579261Y100685367D01*
X76579249Y100685369D01*
X76572709Y100686106D01*
X76507258Y100713613D01*
X76497728Y100722218D01*
X75687405Y101532541D01*
X75653379Y101594853D01*
X75650500Y101621636D01*
X75650500Y110878364D01*
X75670502Y110946485D01*
X75687400Y110967455D01*
X76497729Y111777785D01*
X76560040Y111811808D01*
X76572710Y111813895D01*
X76579255Y111814632D01*
X76749522Y111874211D01*
X76902262Y111970184D01*
X77029816Y112097738D01*
X77125789Y112250478D01*
X77185368Y112420745D01*
X77205565Y112600000D01*
X77185368Y112779255D01*
X77125789Y112949522D01*
X77125787Y112949525D01*
X77125787Y112949526D01*
X77029817Y113102261D01*
X77029816Y113102263D01*
X76902262Y113229817D01*
X76902260Y113229818D01*
X76749525Y113325788D01*
X76749522Y113325789D01*
X76579255Y113385368D01*
X76400000Y113405565D01*
X76220745Y113385368D01*
X76220742Y113385368D01*
X76220742Y113385367D01*
X76050477Y113325789D01*
X76050474Y113325788D01*
X75897739Y113229818D01*
X75897737Y113229817D01*
X75770183Y113102263D01*
X75770182Y113102261D01*
X75674212Y112949526D01*
X75674211Y112949523D01*
X75614633Y112779262D01*
X75614631Y112779251D01*
X75613894Y112772709D01*
X75586386Y112707258D01*
X75577782Y112697730D01*
X74600641Y111720589D01*
X74587996Y111710455D01*
X74588164Y111710252D01*
X74582063Y111705206D01*
X74534164Y111654199D01*
X74531414Y111651362D01*
X74511093Y111631040D01*
X74511087Y111631034D01*
X74508436Y111627616D01*
X74500744Y111618611D01*
X74469551Y111585393D01*
X74459405Y111566936D01*
X74448553Y111550416D01*
X74435642Y111533771D01*
X74435637Y111533762D01*
X74417546Y111491958D01*
X74412326Y111481302D01*
X74390373Y111441370D01*
X74385130Y111420951D01*
X74378729Y111402256D01*
X74370364Y111382926D01*
X74370362Y111382919D01*
X74363237Y111337932D01*
X74360831Y111326311D01*
X74349500Y111282178D01*
X74349500Y111261116D01*
X74347949Y111241406D01*
X74344653Y111220596D01*
X54650500Y111220596D01*
X54650500Y122999999D01*
X77244473Y122999999D01*
X77264563Y122667861D01*
X77264564Y122667858D01*
X77324543Y122340560D01*
X77423538Y122022873D01*
X77560096Y121719454D01*
X77560099Y121719448D01*
X77732245Y121434683D01*
X77937452Y121172754D01*
X77937464Y121172741D01*
X78172740Y120937465D01*
X78172753Y120937453D01*
X78434682Y120732246D01*
X78719443Y120560102D01*
X78719445Y120560101D01*
X78719447Y120560100D01*
X78719453Y120560097D01*
X79022872Y120423539D01*
X79022873Y120423539D01*
X79022877Y120423537D01*
X79340559Y120324544D01*
X79667858Y120264564D01*
X79889286Y120251170D01*
X79999999Y120244473D01*
X80000000Y120244473D01*
X80000001Y120244473D01*
X80083035Y120249496D01*
X80332142Y120264564D01*
X80659441Y120324544D01*
X80977123Y120423537D01*
X81280557Y120560102D01*
X81565318Y120732246D01*
X81827252Y120937458D01*
X82062542Y121172748D01*
X82067643Y121179258D01*
X82201036Y121349523D01*
X82267754Y121434682D01*
X82439898Y121719443D01*
X82576463Y122022877D01*
X82675456Y122340559D01*
X82735436Y122667858D01*
X82755527Y123000000D01*
X82735436Y123332142D01*
X82675456Y123659441D01*
X82576463Y123977123D01*
X82576461Y123977128D01*
X82439903Y124280547D01*
X82439900Y124280553D01*
X82436989Y124285368D01*
X82267754Y124565318D01*
X82062547Y124827247D01*
X82062535Y124827260D01*
X81827259Y125062536D01*
X81827246Y125062548D01*
X81565317Y125267755D01*
X81280552Y125439901D01*
X81280546Y125439904D01*
X80977127Y125576462D01*
X80659440Y125675457D01*
X80332142Y125735436D01*
X80332139Y125735437D01*
X80000001Y125755527D01*
X79999999Y125755527D01*
X79667860Y125735437D01*
X79667857Y125735436D01*
X79340559Y125675457D01*
X79022872Y125576462D01*
X78719453Y125439904D01*
X78719447Y125439901D01*
X78434682Y125267755D01*
X78172753Y125062548D01*
X78172740Y125062536D01*
X77937464Y124827260D01*
X77937452Y124827247D01*
X77732245Y124565318D01*
X77560099Y124280553D01*
X77560096Y124280547D01*
X77423538Y123977128D01*
X77324543Y123659441D01*
X77264564Y123332143D01*
X77264563Y123332140D01*
X77244473Y123000002D01*
X77244473Y122999999D01*
X54650500Y122999999D01*
X54650500Y136494358D01*
X54669812Y136561392D01*
X54725789Y136650478D01*
X54785368Y136820745D01*
X54805565Y137000000D01*
X54785368Y137179255D01*
X54725789Y137349522D01*
X54669813Y137438608D01*
X54650500Y137505644D01*
X54650500Y142494358D01*
X54669812Y142561392D01*
X54725789Y142650478D01*
X54785368Y142820745D01*
X54805565Y143000000D01*
X54785368Y143179255D01*
X54725789Y143349522D01*
X54725787Y143349525D01*
X54725787Y143349526D01*
X54629817Y143502261D01*
X54629816Y143502263D01*
X54502262Y143629817D01*
X54502260Y143629818D01*
X54349525Y143725788D01*
X54349522Y143725789D01*
X54179261Y143785367D01*
X54179249Y143785369D01*
X54172709Y143786106D01*
X54107258Y143813613D01*
X54097728Y143822218D01*
X52520591Y145399355D01*
X52510460Y145412001D01*
X52510256Y145411831D01*
X52505203Y145417939D01*
X52478675Y145442850D01*
X52454182Y145465851D01*
X52451371Y145468575D01*
X52431035Y145488911D01*
X52431021Y145488923D01*
X52427623Y145491559D01*
X52418600Y145499266D01*
X52385398Y145530445D01*
X52385392Y145530449D01*
X52374175Y145536615D01*
X52366930Y145540599D01*
X52350407Y145551452D01*
X52333765Y145564362D01*
X52304227Y145577144D01*
X52291951Y145582457D01*
X52281298Y145587676D01*
X52241373Y145609625D01*
X52241361Y145609630D01*
X52220954Y145614870D01*
X52202257Y145621271D01*
X52182923Y145629637D01*
X52182924Y145629637D01*
X52137932Y145636763D01*
X52126312Y145639169D01*
X52082181Y145650500D01*
X52082177Y145650500D01*
X52061116Y145650500D01*
X52041405Y145652051D01*
X52020595Y145655347D01*
X51975235Y145651059D01*
X51963377Y145650500D01*
X49321636Y145650500D01*
X49253515Y145670502D01*
X49232541Y145687405D01*
X45687405Y149232541D01*
X45653379Y149294853D01*
X45650500Y149321636D01*
X45650500Y151178365D01*
X45670502Y151246486D01*
X45687400Y151267455D01*
X50899354Y156479410D01*
X50911994Y156489535D01*
X50911826Y156489739D01*
X50917939Y156494797D01*
X50924950Y156502263D01*
X50965835Y156545803D01*
X50968559Y156548614D01*
X50988912Y156568966D01*
X50991552Y156572371D01*
X50999261Y156581398D01*
X51030448Y156614607D01*
X51040597Y156633070D01*
X51051448Y156649590D01*
X51064363Y156666237D01*
X51082458Y156708056D01*
X51087683Y156718718D01*
X51109627Y156758632D01*
X51114865Y156779040D01*
X51121273Y156797751D01*
X51124655Y156805565D01*
X51129636Y156817074D01*
X51136762Y156862071D01*
X51139170Y156873700D01*
X51150500Y156917823D01*
X51150500Y156938885D01*
X51152051Y156958597D01*
X51152128Y156959082D01*
X51155347Y156979405D01*
X51151059Y157024769D01*
X51150500Y157036626D01*
X51150500Y185414274D01*
X51152278Y185430378D01*
X51152014Y185430402D01*
X51152760Y185438296D01*
X51150562Y185508245D01*
X51150500Y185512202D01*
X51150500Y185540920D01*
X51150500Y185540925D01*
X51149959Y185545200D01*
X51149028Y185557036D01*
X51148900Y185561116D01*
X51147598Y185602569D01*
X51141717Y185622809D01*
X51137710Y185642158D01*
X51135071Y185663058D01*
X51118298Y185705420D01*
X51114460Y185716631D01*
X51101745Y185760398D01*
X51096692Y185768942D01*
X51091019Y185778535D01*
X51082320Y185796292D01*
X51074569Y185815870D01*
X51047788Y185852730D01*
X51041269Y185862655D01*
X51038737Y185866936D01*
X51020522Y185897738D01*
X51018082Y185901864D01*
X51018079Y185901868D01*
X51003187Y185916760D01*
X50990346Y185931793D01*
X50977962Y185948838D01*
X50942854Y185977882D01*
X50934075Y185985871D01*
X45822217Y191097729D01*
X45788191Y191160041D01*
X45786105Y191172711D01*
X45785368Y191179255D01*
X45725789Y191349522D01*
X45725787Y191349525D01*
X45725787Y191349526D01*
X45629817Y191502261D01*
X45629816Y191502263D01*
X45502262Y191629817D01*
X45502260Y191629818D01*
X45349525Y191725788D01*
X45349522Y191725789D01*
X45331069Y191732246D01*
X45179255Y191785368D01*
X45000000Y191805565D01*
X44820745Y191785368D01*
X44820742Y191785368D01*
X44820742Y191785367D01*
X44650477Y191725789D01*
X44650474Y191725788D01*
X44497739Y191629818D01*
X44497737Y191629817D01*
X44370183Y191502263D01*
X44370182Y191502261D01*
X44274212Y191349526D01*
X44274211Y191349523D01*
X44274211Y191349522D01*
X44214632Y191179255D01*
X44194435Y191000000D01*
X44214632Y190820745D01*
X44214633Y190820743D01*
X44274211Y190650478D01*
X44274212Y190650475D01*
X44370182Y190497740D01*
X44370183Y190497738D01*
X44497737Y190370184D01*
X44497739Y190370183D01*
X44650474Y190274213D01*
X44650475Y190274213D01*
X44650478Y190274211D01*
X44820745Y190214632D01*
X44827277Y190213896D01*
X44892730Y190186398D01*
X44902271Y190177783D01*
X49812595Y185267459D01*
X49846621Y185205147D01*
X49849500Y185178364D01*
X49849500Y184874636D01*
X49829498Y184806515D01*
X49775842Y184760022D01*
X49705568Y184749918D01*
X49640988Y184779412D01*
X49634405Y184785541D01*
X43322217Y191097729D01*
X43288191Y191160041D01*
X43286105Y191172711D01*
X43285368Y191179255D01*
X43225789Y191349522D01*
X43225787Y191349525D01*
X43225787Y191349526D01*
X43129817Y191502261D01*
X43129816Y191502263D01*
X43002262Y191629817D01*
X43002260Y191629818D01*
X42849525Y191725788D01*
X42849522Y191725789D01*
X42831069Y191732246D01*
X42679255Y191785368D01*
X42500000Y191805565D01*
X42320745Y191785368D01*
X42320742Y191785368D01*
X42320742Y191785367D01*
X42150477Y191725789D01*
X42150474Y191725788D01*
X41997739Y191629818D01*
X41997737Y191629817D01*
X41870183Y191502263D01*
X41870182Y191502261D01*
X41774212Y191349526D01*
X41774211Y191349523D01*
X41774211Y191349522D01*
X41714632Y191179255D01*
X41694435Y191000000D01*
X41714632Y190820745D01*
X41714633Y190820743D01*
X41774211Y190650478D01*
X41774212Y190650475D01*
X41870182Y190497740D01*
X41870183Y190497738D01*
X41997737Y190370184D01*
X41997739Y190370183D01*
X42150474Y190274213D01*
X42150475Y190274213D01*
X42150478Y190274211D01*
X42320745Y190214632D01*
X42327277Y190213896D01*
X42392730Y190186398D01*
X42402271Y190177783D01*
X48812595Y183767459D01*
X48846621Y183705147D01*
X48849500Y183678364D01*
X48849500Y183374636D01*
X48829498Y183306515D01*
X48775842Y183260022D01*
X48705568Y183249918D01*
X48640988Y183279412D01*
X48634405Y183285541D01*
X40822217Y191097729D01*
X40788191Y191160041D01*
X40786105Y191172711D01*
X40785368Y191179255D01*
X40725789Y191349522D01*
X40725787Y191349525D01*
X40725787Y191349526D01*
X40629817Y191502261D01*
X40629816Y191502263D01*
X40502262Y191629817D01*
X40502260Y191629818D01*
X40349525Y191725788D01*
X40349522Y191725789D01*
X40331069Y191732246D01*
X40179255Y191785368D01*
X40000000Y191805565D01*
X39820745Y191785368D01*
X39820742Y191785368D01*
X39820742Y191785367D01*
X39650477Y191725789D01*
X39650474Y191725788D01*
X39497739Y191629818D01*
X39497737Y191629817D01*
X39370183Y191502263D01*
X39370182Y191502261D01*
X39274212Y191349526D01*
X39274211Y191349523D01*
X39274211Y191349522D01*
X39214632Y191179255D01*
X39194435Y191000000D01*
X39214632Y190820745D01*
X39214633Y190820743D01*
X39274211Y190650478D01*
X39274212Y190650475D01*
X39370182Y190497740D01*
X39370183Y190497738D01*
X39497737Y190370184D01*
X39497739Y190370183D01*
X39650474Y190274213D01*
X39650475Y190274213D01*
X39650478Y190274211D01*
X39820745Y190214632D01*
X39827277Y190213896D01*
X39892730Y190186398D01*
X39902271Y190177783D01*
X47862115Y182217939D01*
X47896141Y182155627D01*
X47899020Y182128844D01*
X47899020Y181825116D01*
X47879018Y181756995D01*
X47825362Y181710502D01*
X47755088Y181700398D01*
X47690508Y181729892D01*
X47683925Y181736021D01*
X38322217Y191097729D01*
X38288191Y191160041D01*
X38286105Y191172711D01*
X38285368Y191179255D01*
X38225789Y191349522D01*
X38225787Y191349525D01*
X38225787Y191349526D01*
X38129817Y191502261D01*
X38129816Y191502263D01*
X38002262Y191629817D01*
X38002260Y191629818D01*
X37849525Y191725788D01*
X37849522Y191725789D01*
X37831069Y191732246D01*
X37679255Y191785368D01*
X37500000Y191805565D01*
X37320745Y191785368D01*
X37320742Y191785368D01*
X37320742Y191785367D01*
X37150477Y191725789D01*
X37150474Y191725788D01*
X36997739Y191629818D01*
X36997737Y191629817D01*
X36870183Y191502263D01*
X36870182Y191502261D01*
X36774212Y191349526D01*
X36774211Y191349523D01*
X36774211Y191349522D01*
X36714632Y191179255D01*
X36694435Y191000000D01*
X36714632Y190820745D01*
X36714633Y190820743D01*
X36774211Y190650478D01*
X36774212Y190650475D01*
X36870182Y190497740D01*
X36870183Y190497738D01*
X36997737Y190370184D01*
X36997739Y190370183D01*
X37150474Y190274213D01*
X37150475Y190274213D01*
X37150478Y190274211D01*
X37320745Y190214632D01*
X37327277Y190213896D01*
X37392730Y190186398D01*
X37402271Y190177783D01*
X46812595Y180767459D01*
X46846621Y180705147D01*
X46849500Y180678364D01*
X46849500Y178374636D01*
X46829498Y178306515D01*
X46775842Y178260022D01*
X46705568Y178249918D01*
X46640988Y178279412D01*
X46634405Y178285541D01*
X45822217Y179097729D01*
X45788191Y179160041D01*
X45786105Y179172711D01*
X45785368Y179179255D01*
X45725789Y179349522D01*
X45725787Y179349525D01*
X45725787Y179349526D01*
X45629817Y179502261D01*
X45629816Y179502263D01*
X45502262Y179629817D01*
X45502260Y179629818D01*
X45349525Y179725788D01*
X45349522Y179725789D01*
X45179255Y179785368D01*
X45000000Y179805565D01*
X44820745Y179785368D01*
X44820742Y179785368D01*
X44820742Y179785367D01*
X44650477Y179725789D01*
X44650474Y179725788D01*
X44497739Y179629818D01*
X44497737Y179629817D01*
X44370183Y179502263D01*
X44370182Y179502261D01*
X44274212Y179349526D01*
X44274211Y179349523D01*
X44248564Y179276227D01*
X44214632Y179179255D01*
X44194435Y179000000D01*
X44214632Y178820745D01*
X44214633Y178820743D01*
X44274211Y178650478D01*
X44274212Y178650475D01*
X44370182Y178497740D01*
X44370183Y178497738D01*
X44497737Y178370184D01*
X44497739Y178370183D01*
X44650474Y178274213D01*
X44650475Y178274213D01*
X44650478Y178274211D01*
X44820745Y178214632D01*
X44827277Y178213896D01*
X44892730Y178186398D01*
X44902271Y178177783D01*
X45812595Y177267459D01*
X45846621Y177205147D01*
X45849500Y177178364D01*
X45849500Y176874636D01*
X45829498Y176806515D01*
X45775842Y176760022D01*
X45705568Y176749918D01*
X45640988Y176779412D01*
X45634405Y176785541D01*
X43322217Y179097729D01*
X43288191Y179160041D01*
X43286105Y179172711D01*
X43285368Y179179255D01*
X43225789Y179349522D01*
X43225787Y179349525D01*
X43225787Y179349526D01*
X43129817Y179502261D01*
X43129816Y179502263D01*
X43002262Y179629817D01*
X43002260Y179629818D01*
X42849525Y179725788D01*
X42849522Y179725789D01*
X42679255Y179785368D01*
X42500000Y179805565D01*
X42320745Y179785368D01*
X42320742Y179785368D01*
X42320742Y179785367D01*
X42150477Y179725789D01*
X42150474Y179725788D01*
X41997739Y179629818D01*
X41997737Y179629817D01*
X41870183Y179502263D01*
X41870182Y179502261D01*
X41774212Y179349526D01*
X41774211Y179349523D01*
X41748564Y179276227D01*
X41714632Y179179255D01*
X41694435Y179000000D01*
X41714632Y178820745D01*
X41714633Y178820743D01*
X41774211Y178650478D01*
X41774212Y178650475D01*
X41870182Y178497740D01*
X41870183Y178497738D01*
X41997737Y178370184D01*
X41997739Y178370183D01*
X42150474Y178274213D01*
X42150475Y178274213D01*
X42150478Y178274211D01*
X42320745Y178214632D01*
X42327277Y178213896D01*
X42392730Y178186398D01*
X42402271Y178177783D01*
X44812595Y175767459D01*
X44846621Y175705147D01*
X44849500Y175678364D01*
X44849500Y175374636D01*
X44829498Y175306515D01*
X44775842Y175260022D01*
X44705568Y175249918D01*
X44640988Y175279412D01*
X44634405Y175285541D01*
X40822217Y179097729D01*
X40788191Y179160041D01*
X40786105Y179172711D01*
X40785368Y179179255D01*
X40725789Y179349522D01*
X40725787Y179349525D01*
X40725787Y179349526D01*
X40629817Y179502261D01*
X40629816Y179502263D01*
X40502262Y179629817D01*
X40502260Y179629818D01*
X40349525Y179725788D01*
X40349522Y179725789D01*
X40179255Y179785368D01*
X40000000Y179805565D01*
X39820745Y179785368D01*
X39820742Y179785368D01*
X39820742Y179785367D01*
X39650477Y179725789D01*
X39650474Y179725788D01*
X39497739Y179629818D01*
X39497737Y179629817D01*
X39370183Y179502263D01*
X39370182Y179502261D01*
X39274212Y179349526D01*
X39274211Y179349523D01*
X39248564Y179276227D01*
X39214632Y179179255D01*
X39194435Y179000000D01*
X39214632Y178820745D01*
X39214633Y178820743D01*
X39274211Y178650478D01*
X39274212Y178650475D01*
X39370182Y178497740D01*
X39370183Y178497738D01*
X39497737Y178370184D01*
X39497739Y178370183D01*
X39650474Y178274213D01*
X39650475Y178274213D01*
X39650478Y178274211D01*
X39820745Y178214632D01*
X39827277Y178213896D01*
X39892730Y178186398D01*
X39902271Y178177783D01*
X43812595Y174267459D01*
X43846621Y174205147D01*
X43849500Y174178364D01*
X43849500Y173874636D01*
X43829498Y173806515D01*
X43775842Y173760022D01*
X43705568Y173749918D01*
X43640988Y173779412D01*
X43634405Y173785541D01*
X38322217Y179097729D01*
X38288191Y179160041D01*
X38286105Y179172711D01*
X38285368Y179179255D01*
X38225789Y179349522D01*
X38225787Y179349525D01*
X38225787Y179349526D01*
X38129817Y179502261D01*
X38129816Y179502263D01*
X38002262Y179629817D01*
X38002260Y179629818D01*
X37849525Y179725788D01*
X37849522Y179725789D01*
X37679255Y179785368D01*
X37500000Y179805565D01*
X37320745Y179785368D01*
X37320742Y179785368D01*
X37320742Y179785367D01*
X37150477Y179725789D01*
X37150474Y179725788D01*
X36997739Y179629818D01*
X36997737Y179629817D01*
X36870183Y179502263D01*
X36870182Y179502261D01*
X36774212Y179349526D01*
X36774211Y179349523D01*
X36748564Y179276227D01*
X36714632Y179179255D01*
X36694435Y179000000D01*
X36714632Y178820745D01*
X36714633Y178820743D01*
X36774211Y178650478D01*
X36774212Y178650475D01*
X36870182Y178497740D01*
X36870183Y178497738D01*
X36997737Y178370184D01*
X36997739Y178370183D01*
X37150474Y178274213D01*
X37150475Y178274213D01*
X37150478Y178274211D01*
X37320745Y178214632D01*
X37327277Y178213896D01*
X37392730Y178186398D01*
X37402271Y178177783D01*
X42812595Y172767459D01*
X42846621Y172705147D01*
X42849500Y172678364D01*
X42849500Y160821637D01*
X42829498Y160753516D01*
X42812595Y160732542D01*
X37600641Y155520589D01*
X37587996Y155510455D01*
X37588164Y155510252D01*
X37582063Y155505206D01*
X37534164Y155454199D01*
X37531414Y155451362D01*
X37511093Y155431040D01*
X37511087Y155431034D01*
X37508436Y155427616D01*
X37500744Y155418611D01*
X37469551Y155385393D01*
X37459405Y155366936D01*
X37448553Y155350416D01*
X37435642Y155333771D01*
X37435637Y155333762D01*
X37417546Y155291958D01*
X37412326Y155281302D01*
X37390373Y155241370D01*
X37385130Y155220951D01*
X37378729Y155202256D01*
X37370364Y155182926D01*
X37370362Y155182919D01*
X37363237Y155137932D01*
X37360831Y155126311D01*
X37349500Y155082178D01*
X37349500Y155061116D01*
X37347949Y155041406D01*
X37347873Y155040925D01*
X37344653Y155020595D01*
X37345634Y155010218D01*
X37348941Y154975236D01*
X37349500Y154963378D01*
X37349500Y145585726D01*
X37347722Y145569621D01*
X37347986Y145569596D01*
X37347240Y145561705D01*
X37349438Y145491770D01*
X37349500Y145487812D01*
X37349500Y145459082D01*
X37349501Y145459064D01*
X37350041Y145454787D01*
X37350971Y145442967D01*
X37352402Y145397433D01*
X37352403Y145397430D01*
X37358280Y145377198D01*
X37362287Y145357847D01*
X37364927Y145336949D01*
X37364931Y145336936D01*
X37381699Y145294583D01*
X37385543Y145283356D01*
X37398255Y145239603D01*
X37398256Y145239601D01*
X37408979Y145221469D01*
X37417676Y145203716D01*
X37425428Y145184136D01*
X37425431Y145184132D01*
X37425432Y145184129D01*
X37438430Y145166238D01*
X37452204Y145147279D01*
X37458718Y145137363D01*
X37481918Y145098136D01*
X37481921Y145098132D01*
X37496812Y145083241D01*
X37509652Y145068208D01*
X37522034Y145051167D01*
X37522036Y145051164D01*
X37557143Y145022121D01*
X37565923Y145014131D01*
X41312595Y141267459D01*
X41346621Y141205147D01*
X41349500Y141178364D01*
X41349500Y129005644D01*
X41330187Y128938608D01*
X41274212Y128849525D01*
X41274211Y128849523D01*
X41214633Y128679258D01*
X41214632Y128679255D01*
X41194435Y128500000D01*
X41214632Y128320745D01*
X41214633Y128320743D01*
X41274210Y128150479D01*
X41274211Y128150478D01*
X41330187Y128061392D01*
X41349500Y127994358D01*
X41349500Y60821636D01*
X41329498Y60753515D01*
X41312595Y60732541D01*
X40865595Y60285541D01*
X40803283Y60251515D01*
X40732468Y60256580D01*
X40675632Y60299127D01*
X40650821Y60365647D01*
X40650500Y60374636D01*
X40650500Y67494358D01*
X40669812Y67561392D01*
X40725789Y67650478D01*
X40785368Y67820745D01*
X40805565Y68000000D01*
X40785368Y68179255D01*
X40725789Y68349522D01*
X40725787Y68349525D01*
X40725787Y68349526D01*
X40629817Y68502261D01*
X40629816Y68502263D01*
X40502262Y68629817D01*
X40502260Y68629818D01*
X40349525Y68725788D01*
X40349522Y68725789D01*
X40179255Y68785368D01*
X40000000Y68805565D01*
X39820745Y68785368D01*
X39820742Y68785368D01*
X39820742Y68785367D01*
X39650477Y68725789D01*
X39650474Y68725788D01*
X39497739Y68629818D01*
X39497737Y68629817D01*
X39370183Y68502263D01*
X39370182Y68502261D01*
X39274212Y68349526D01*
X39274211Y68349523D01*
X39274211Y68349522D01*
X39214632Y68179255D01*
X39194435Y68000000D01*
X39214632Y67820745D01*
X39214633Y67820743D01*
X39274210Y67650479D01*
X39274211Y67650478D01*
X39330187Y67561392D01*
X39349500Y67494358D01*
X39349500Y60321637D01*
X39329498Y60253516D01*
X39312595Y60232542D01*
X38356174Y59276121D01*
X38293862Y59242095D01*
X38223047Y59247160D01*
X38166211Y59289707D01*
X38141400Y59356227D01*
X38145039Y59396556D01*
X38150499Y59417819D01*
X38150500Y59417825D01*
X38150500Y59438890D01*
X38152051Y59458601D01*
X38155346Y59479404D01*
X38151059Y59524757D01*
X38150500Y59536614D01*
X38150500Y67494358D01*
X38169812Y67561392D01*
X38225789Y67650478D01*
X38285368Y67820745D01*
X38305565Y68000000D01*
X38285368Y68179255D01*
X38225789Y68349522D01*
X38225787Y68349525D01*
X38225787Y68349526D01*
X38129817Y68502261D01*
X38129816Y68502263D01*
X38002262Y68629817D01*
X38002260Y68629818D01*
X37849525Y68725788D01*
X37849522Y68725789D01*
X37679255Y68785368D01*
X37500000Y68805565D01*
X37320745Y68785368D01*
X37320742Y68785368D01*
X37320742Y68785367D01*
X37150477Y68725789D01*
X37150474Y68725788D01*
X36997739Y68629818D01*
X36997737Y68629817D01*
X36870183Y68502263D01*
X36870182Y68502261D01*
X36774212Y68349526D01*
X36774211Y68349523D01*
X36774211Y68349522D01*
X36714632Y68179255D01*
X36694435Y68000000D01*
X36714632Y67820745D01*
X36714633Y67820743D01*
X36774210Y67650479D01*
X36774211Y67650478D01*
X36830187Y67561392D01*
X36849500Y67494358D01*
X36849500Y59821637D01*
X36829498Y59753516D01*
X36812595Y59732542D01*
X33902270Y56822218D01*
X33839958Y56788192D01*
X33827291Y56786106D01*
X33820749Y56785369D01*
X33820738Y56785367D01*
X33650477Y56725789D01*
X33650474Y56725788D01*
X33497739Y56629818D01*
X33497737Y56629817D01*
X33370183Y56502263D01*
X33370182Y56502261D01*
X33274212Y56349526D01*
X33274211Y56349523D01*
X33274211Y56349522D01*
X33214632Y56179255D01*
X33194435Y56000000D01*
X33214632Y55820745D01*
X33261938Y55685553D01*
X33274211Y55650478D01*
X33274212Y55650475D01*
X33370182Y55497740D01*
X33370183Y55497738D01*
X33497737Y55370184D01*
X33497739Y55370183D01*
X33650474Y55274213D01*
X33650475Y55274213D01*
X33650478Y55274211D01*
X33820745Y55214632D01*
X33986699Y55195934D01*
X34052149Y55168432D01*
X34092342Y55109908D01*
X34094515Y55038945D01*
X34061684Y54981632D01*
X33902270Y54822218D01*
X33839958Y54788192D01*
X33827291Y54786106D01*
X33820749Y54785369D01*
X33820738Y54785367D01*
X33650477Y54725789D01*
X33650474Y54725788D01*
X33497739Y54629818D01*
X33497737Y54629817D01*
X33370183Y54502263D01*
X33370182Y54502261D01*
X33274212Y54349526D01*
X33274211Y54349523D01*
X33274211Y54349522D01*
X33214632Y54179255D01*
X33194435Y54000000D01*
X-61080056Y54000000D01*
X-46402272Y68677784D01*
X-46339962Y68711808D01*
X-46327284Y68713895D01*
X-46323801Y68714288D01*
X-46320745Y68714632D01*
X-46150478Y68774211D01*
X-45997738Y68870184D01*
X-45945702Y68922220D01*
X-45865595Y69002326D01*
X-45803283Y69036352D01*
X-45732468Y69031287D01*
X-45675632Y68988740D01*
X-45650821Y68922220D01*
X-45650500Y68913231D01*
X-45650500Y56505644D01*
X-45669813Y56438608D01*
X-45725788Y56349525D01*
X-45725789Y56349523D01*
X-45725789Y56349522D01*
X-45785368Y56179255D01*
X-45805565Y56000000D01*
X-45785368Y55820745D01*
X-45738062Y55685553D01*
X-45725789Y55650478D01*
X-45725788Y55650475D01*
X-45629818Y55497740D01*
X-45629817Y55497738D01*
X-45502263Y55370184D01*
X-45502261Y55370183D01*
X-45349526Y55274213D01*
X-45349525Y55274213D01*
X-45349522Y55274211D01*
X-45179255Y55214632D01*
X-45000000Y55194435D01*
X-44820745Y55214632D01*
X-44650478Y55274211D01*
X-44497738Y55370184D01*
X-44370184Y55497738D01*
X-44274211Y55650478D01*
X-44214632Y55820745D01*
X-44194435Y56000000D01*
X-44214632Y56179255D01*
X-44274211Y56349522D01*
X-44330187Y56438608D01*
X-44349500Y56505644D01*
X-44349500Y56625364D01*
X-44329498Y56693485D01*
X-44275842Y56739978D01*
X-44205568Y56750082D01*
X-44140988Y56720588D01*
X-44134405Y56714459D01*
X-43322218Y55902272D01*
X-43288192Y55839960D01*
X-43286106Y55827291D01*
X-43285369Y55820751D01*
X-43285367Y55820739D01*
X-43225789Y55650478D01*
X-43225788Y55650475D01*
X-43129818Y55497740D01*
X-43129817Y55497738D01*
X-43002263Y55370184D01*
X-43002261Y55370183D01*
X-42849526Y55274213D01*
X-42849525Y55274213D01*
X-42849522Y55274211D01*
X-42679255Y55214632D01*
X-42500000Y55194435D01*
X-42320745Y55214632D01*
X-42150478Y55274211D01*
X-41997738Y55370184D01*
X-41870184Y55497738D01*
X-41774211Y55650478D01*
X-41714632Y55820745D01*
X-41694435Y56000000D01*
X-41714632Y56179255D01*
X-41774211Y56349522D01*
X-41774213Y56349525D01*
X-41774213Y56349526D01*
X-41870183Y56502261D01*
X-41870184Y56502263D01*
X-41997738Y56629817D01*
X-41997740Y56629818D01*
X-42150475Y56725788D01*
X-42150478Y56725789D01*
X-42320739Y56785367D01*
X-42320751Y56785369D01*
X-42327291Y56786106D01*
X-42392742Y56813613D01*
X-42402272Y56822218D01*
X-43312595Y57732541D01*
X-43346621Y57794853D01*
X-43349500Y57821636D01*
X-43349500Y58125364D01*
X-43329498Y58193485D01*
X-43275842Y58239978D01*
X-43205568Y58250082D01*
X-43140988Y58220588D01*
X-43134405Y58214459D01*
X-40822218Y55902272D01*
X-40788192Y55839960D01*
X-40786106Y55827291D01*
X-40785369Y55820751D01*
X-40785367Y55820739D01*
X-40725789Y55650478D01*
X-40725788Y55650475D01*
X-40629818Y55497740D01*
X-40629817Y55497738D01*
X-40502263Y55370184D01*
X-40502261Y55370183D01*
X-40349526Y55274213D01*
X-40349525Y55274213D01*
X-40349522Y55274211D01*
X-40179255Y55214632D01*
X-40000000Y55194435D01*
X-39820745Y55214632D01*
X-39650478Y55274211D01*
X-39497738Y55370184D01*
X-39370184Y55497738D01*
X-39274211Y55650478D01*
X-39214632Y55820745D01*
X-39194435Y56000000D01*
X-39214632Y56179255D01*
X-39274211Y56349522D01*
X-39274213Y56349525D01*
X-39274213Y56349526D01*
X-39370183Y56502261D01*
X-39370184Y56502263D01*
X-39497738Y56629817D01*
X-39497740Y56629818D01*
X-39650475Y56725788D01*
X-39650478Y56725789D01*
X-39820739Y56785367D01*
X-39820751Y56785369D01*
X-39827291Y56786106D01*
X-39892742Y56813613D01*
X-39902272Y56822218D01*
X-42312595Y59232541D01*
X-42346621Y59294853D01*
X-42349500Y59321636D01*
X-42349500Y59625364D01*
X-42329498Y59693485D01*
X-42275842Y59739978D01*
X-42205568Y59750082D01*
X-42140988Y59720588D01*
X-42134405Y59714459D01*
X-38322218Y55902272D01*
X-38288192Y55839960D01*
X-38286106Y55827291D01*
X-38285369Y55820751D01*
X-38285367Y55820739D01*
X-38225789Y55650478D01*
X-38225788Y55650475D01*
X-38129818Y55497740D01*
X-38129817Y55497738D01*
X-38002263Y55370184D01*
X-38002261Y55370183D01*
X-37849526Y55274213D01*
X-37849525Y55274213D01*
X-37849522Y55274211D01*
X-37679255Y55214632D01*
X-37500000Y55194435D01*
X-37320745Y55214632D01*
X-37150478Y55274211D01*
X-36997738Y55370184D01*
X-36870184Y55497738D01*
X-36774211Y55650478D01*
X-36714632Y55820745D01*
X-36694435Y56000000D01*
X-36714632Y56179255D01*
X-36774211Y56349522D01*
X-36774213Y56349525D01*
X-36774213Y56349526D01*
X-36870183Y56502261D01*
X-36870184Y56502263D01*
X-36997738Y56629817D01*
X-36997740Y56629818D01*
X-37150475Y56725788D01*
X-37150478Y56725789D01*
X-37320739Y56785367D01*
X-37320751Y56785369D01*
X-37327291Y56786106D01*
X-37392742Y56813613D01*
X-37402272Y56822218D01*
X-41312595Y60732541D01*
X-41346621Y60794853D01*
X-41349500Y60821636D01*
X-41349500Y99900000D01*
X-37805565Y99900000D01*
X-37785368Y99720745D01*
X-37785367Y99720743D01*
X-37725789Y99550478D01*
X-37725788Y99550475D01*
X-37629818Y99397740D01*
X-37629817Y99397738D01*
X-37502263Y99270184D01*
X-37502261Y99270183D01*
X-37349526Y99174213D01*
X-37349525Y99174213D01*
X-37349522Y99174211D01*
X-37179255Y99114632D01*
X-37000000Y99094435D01*
X-36820745Y99114632D01*
X-36650478Y99174211D01*
X-36570903Y99224211D01*
X-36561392Y99230187D01*
X-36494356Y99249500D01*
X-4905644Y99249500D01*
X-4838608Y99230187D01*
X-4781239Y99194140D01*
X-4749522Y99174211D01*
X-4579255Y99114632D01*
X-4400000Y99094435D01*
X-4220745Y99114632D01*
X-4050478Y99174211D01*
X-3897738Y99270184D01*
X-3770184Y99397738D01*
X-3674211Y99550478D01*
X-3614632Y99720745D01*
X-3594435Y99900000D01*
X-3600069Y99950000D01*
X-1805565Y99950000D01*
X-1785368Y99770745D01*
X-1767870Y99720739D01*
X-1725789Y99600478D01*
X-1725788Y99600475D01*
X-1629818Y99447740D01*
X-1629817Y99447738D01*
X-1502263Y99320184D01*
X-1502261Y99320183D01*
X-1349526Y99224213D01*
X-1349525Y99224213D01*
X-1349522Y99224211D01*
X-1179255Y99164632D01*
X-1000000Y99144435D01*
X-820745Y99164632D01*
X-650478Y99224211D01*
X-497738Y99320184D01*
X-370184Y99447738D01*
X-274211Y99600478D01*
X-214632Y99770745D01*
X-194435Y99950000D01*
X-214632Y100129255D01*
X-274211Y100299522D01*
X-330187Y100388608D01*
X-349500Y100455644D01*
X-349500Y117494358D01*
X-330188Y117561392D01*
X-274211Y117650478D01*
X-214632Y117820745D01*
X-213895Y117827284D01*
X-186393Y117892737D01*
X-177792Y117902264D01*
X-18367Y118061689D01*
X43943Y118095713D01*
X114758Y118090648D01*
X171594Y118048101D01*
X195933Y117986702D01*
X214632Y117820745D01*
X214632Y117820743D01*
X214633Y117820742D01*
X274210Y117650479D01*
X274211Y117650478D01*
X330187Y117561392D01*
X349500Y117494358D01*
X349500Y110605644D01*
X330187Y110538608D01*
X274212Y110449525D01*
X274211Y110449523D01*
X274211Y110449522D01*
X214632Y110279255D01*
X194435Y110100000D01*
X214632Y109920745D01*
X214633Y109920743D01*
X274211Y109750478D01*
X274212Y109750475D01*
X370182Y109597740D01*
X370183Y109597738D01*
X497737Y109470184D01*
X497739Y109470183D01*
X650474Y109374213D01*
X650475Y109374213D01*
X650478Y109374211D01*
X820745Y109314632D01*
X1000000Y109294435D01*
X1179255Y109314632D01*
X1181875Y109315550D01*
X1183672Y109315641D01*
X1186157Y109316208D01*
X1186256Y109315774D01*
X1252778Y109319175D01*
X1314386Y109283892D01*
X1347139Y109220902D01*
X1349500Y109196624D01*
X1349500Y103005644D01*
X1330187Y102938608D01*
X1274212Y102849525D01*
X1274211Y102849523D01*
X1274211Y102849522D01*
X1214632Y102679255D01*
X1194435Y102500000D01*
X1214632Y102320745D01*
X1214633Y102320743D01*
X1274211Y102150478D01*
X1274212Y102150475D01*
X1370182Y101997740D01*
X1370183Y101997738D01*
X1497737Y101870184D01*
X1497739Y101870183D01*
X1650474Y101774213D01*
X1650475Y101774213D01*
X1650478Y101774211D01*
X1820745Y101714632D01*
X2000000Y101694435D01*
X2179255Y101714632D01*
X2349522Y101774211D01*
X2502262Y101870184D01*
X2629816Y101997738D01*
X2725789Y102150478D01*
X2785368Y102320745D01*
X2805565Y102500000D01*
X2785368Y102679255D01*
X2725789Y102849522D01*
X2669813Y102938608D01*
X2650500Y103005644D01*
X2650500Y117494358D01*
X2669812Y117561392D01*
X2725789Y117650478D01*
X2785368Y117820745D01*
X2804066Y117986703D01*
X2831568Y118052151D01*
X2890092Y118092344D01*
X2961055Y118094517D01*
X3018368Y118061686D01*
X3177782Y117902272D01*
X3211808Y117839960D01*
X3213894Y117827291D01*
X3214631Y117820751D01*
X3214633Y117820739D01*
X3274211Y117650478D01*
X3274212Y117650475D01*
X3370182Y117497740D01*
X3370183Y117497738D01*
X3497737Y117370184D01*
X3497739Y117370183D01*
X3650474Y117274213D01*
X3650475Y117274213D01*
X3650478Y117274211D01*
X3820745Y117214632D01*
X4000000Y117194435D01*
X4179255Y117214632D01*
X4349522Y117274211D01*
X4502262Y117370184D01*
X4629816Y117497738D01*
X4725789Y117650478D01*
X4785368Y117820745D01*
X4805565Y118000000D01*
X4785368Y118179255D01*
X4725789Y118349522D01*
X4725787Y118349525D01*
X4725787Y118349526D01*
X4629817Y118502261D01*
X4629816Y118502263D01*
X4502262Y118629817D01*
X4502260Y118629818D01*
X4349525Y118725788D01*
X4349522Y118725789D01*
X4179261Y118785367D01*
X4179249Y118785369D01*
X4172709Y118786106D01*
X4107258Y118813613D01*
X4097728Y118822218D01*
X3320591Y119599355D01*
X3310460Y119612001D01*
X3310256Y119611831D01*
X3305203Y119617939D01*
X3278675Y119642850D01*
X3254182Y119665851D01*
X3251371Y119668575D01*
X3231035Y119688911D01*
X3231021Y119688923D01*
X3227623Y119691559D01*
X3218600Y119699266D01*
X3185398Y119730445D01*
X3185392Y119730449D01*
X3178910Y119734012D01*
X3166930Y119740599D01*
X3150407Y119751452D01*
X3133765Y119764362D01*
X3110177Y119774569D01*
X3091951Y119782457D01*
X3081298Y119787676D01*
X3041373Y119809625D01*
X3041361Y119809630D01*
X3020954Y119814870D01*
X3002257Y119821271D01*
X2982923Y119829637D01*
X2982924Y119829637D01*
X2937932Y119836763D01*
X2926312Y119839169D01*
X2882181Y119850500D01*
X2882177Y119850500D01*
X2861116Y119850500D01*
X2841405Y119852051D01*
X2820595Y119855347D01*
X2775235Y119851059D01*
X2763377Y119850500D01*
X285725Y119850500D01*
X269619Y119852278D01*
X269595Y119852014D01*
X261703Y119852760D01*
X191769Y119850562D01*
X187811Y119850500D01*
X159075Y119850500D01*
X159071Y119850500D01*
X159059Y119850499D01*
X154785Y119849959D01*
X142967Y119849029D01*
X97433Y119847598D01*
X97420Y119847596D01*
X77193Y119841720D01*
X57850Y119837714D01*
X36945Y119835072D01*
X36936Y119835070D01*
X-5412Y119818303D01*
X-16638Y119814459D01*
X-60397Y119801745D01*
X-60403Y119801743D01*
X-78542Y119791016D01*
X-96286Y119782323D01*
X-115870Y119774569D01*
X-152736Y119747786D01*
X-162650Y119741274D01*
X-201866Y119718081D01*
X-216761Y119703186D01*
X-231788Y119690352D01*
X-248834Y119677967D01*
X-248837Y119677964D01*
X-277887Y119642850D01*
X-285874Y119634074D01*
X-1097730Y118822218D01*
X-1160042Y118788192D01*
X-1172709Y118786106D01*
X-1179251Y118785369D01*
X-1179262Y118785367D01*
X-1349523Y118725789D01*
X-1349526Y118725788D01*
X-1502261Y118629818D01*
X-1502263Y118629817D01*
X-1629817Y118502263D01*
X-1629818Y118502261D01*
X-1725788Y118349526D01*
X-1725789Y118349523D01*
X-1725789Y118349522D01*
X-1785368Y118179255D01*
X-1805565Y118000000D01*
X-1785368Y117820745D01*
X-1785367Y117820743D01*
X-1725790Y117650479D01*
X-1725789Y117650478D01*
X-1669813Y117561392D01*
X-1650500Y117494358D01*
X-1650500Y100455644D01*
X-1669813Y100388608D01*
X-1725788Y100299525D01*
X-1725789Y100299523D01*
X-1743285Y100249522D01*
X-1785368Y100129255D01*
X-1805565Y99950000D01*
X-3600069Y99950000D01*
X-3614632Y100079255D01*
X-3674211Y100249522D01*
X-3674213Y100249525D01*
X-3674213Y100249526D01*
X-3770183Y100402261D01*
X-3770184Y100402263D01*
X-3897738Y100529817D01*
X-3897740Y100529818D01*
X-4050475Y100625788D01*
X-4050478Y100625789D01*
X-4220745Y100685368D01*
X-4400000Y100705565D01*
X-4579255Y100685368D01*
X-4579258Y100685368D01*
X-4579258Y100685367D01*
X-4749523Y100625789D01*
X-4749525Y100625788D01*
X-4838608Y100569813D01*
X-4905644Y100550500D01*
X-36494356Y100550500D01*
X-36561392Y100569813D01*
X-36650476Y100625788D01*
X-36650478Y100625789D01*
X-36820745Y100685368D01*
X-37000000Y100705565D01*
X-37179255Y100685368D01*
X-37179258Y100685368D01*
X-37179258Y100685367D01*
X-37349523Y100625789D01*
X-37349526Y100625788D01*
X-37502261Y100529818D01*
X-37502263Y100529817D01*
X-37629817Y100402263D01*
X-37629818Y100402261D01*
X-37725788Y100249526D01*
X-37725789Y100249523D01*
X-37725789Y100249522D01*
X-37785368Y100079255D01*
X-37805565Y99900000D01*
X-41349500Y99900000D01*
X-41349500Y102400000D01*
X-37805565Y102400000D01*
X-37785368Y102220745D01*
X-37760779Y102150475D01*
X-37725789Y102050478D01*
X-37725788Y102050475D01*
X-37629818Y101897740D01*
X-37629817Y101897738D01*
X-37502263Y101770184D01*
X-37502261Y101770183D01*
X-37349526Y101674213D01*
X-37349525Y101674213D01*
X-37349522Y101674211D01*
X-37179255Y101614632D01*
X-37000000Y101594435D01*
X-36820745Y101614632D01*
X-36650478Y101674211D01*
X-36586145Y101714634D01*
X-36561392Y101730187D01*
X-36494356Y101749500D01*
X-4905644Y101749500D01*
X-4838608Y101730187D01*
X-4813855Y101714634D01*
X-4749522Y101674211D01*
X-4579255Y101614632D01*
X-4400000Y101594435D01*
X-4220745Y101614632D01*
X-4050478Y101674211D01*
X-3897738Y101770184D01*
X-3770184Y101897738D01*
X-3674211Y102050478D01*
X-3614632Y102220745D01*
X-3594435Y102400000D01*
X-3614632Y102579255D01*
X-3674211Y102749522D01*
X-3674213Y102749525D01*
X-3674213Y102749526D01*
X-3770183Y102902261D01*
X-3770184Y102902263D01*
X-3897738Y103029817D01*
X-3897740Y103029818D01*
X-4050475Y103125788D01*
X-4050478Y103125789D01*
X-4220745Y103185368D01*
X-4400000Y103205565D01*
X-4579255Y103185368D01*
X-4579258Y103185368D01*
X-4579258Y103185367D01*
X-4749523Y103125789D01*
X-4749525Y103125788D01*
X-4838608Y103069813D01*
X-4905644Y103050500D01*
X-36494356Y103050500D01*
X-36561392Y103069813D01*
X-36650476Y103125788D01*
X-36650478Y103125789D01*
X-36820745Y103185368D01*
X-37000000Y103205565D01*
X-37179255Y103185368D01*
X-37179258Y103185368D01*
X-37179258Y103185367D01*
X-37349523Y103125789D01*
X-37349526Y103125788D01*
X-37502261Y103029818D01*
X-37502263Y103029817D01*
X-37629817Y102902263D01*
X-37629818Y102902261D01*
X-37725788Y102749526D01*
X-37725789Y102749523D01*
X-37785367Y102579258D01*
X-37785368Y102579255D01*
X-37805565Y102400000D01*
X-41349500Y102400000D01*
X-41349500Y110100000D01*
X-37805565Y110100000D01*
X-37785368Y109920745D01*
X-37785367Y109920743D01*
X-37725789Y109750478D01*
X-37725788Y109750475D01*
X-37629818Y109597740D01*
X-37629817Y109597738D01*
X-37502263Y109470184D01*
X-37502261Y109470183D01*
X-37349526Y109374213D01*
X-37349525Y109374213D01*
X-37349522Y109374211D01*
X-37179255Y109314632D01*
X-37000000Y109294435D01*
X-36820745Y109314632D01*
X-36650478Y109374211D01*
X-36588802Y109412966D01*
X-36561392Y109430187D01*
X-36494356Y109449500D01*
X-4905644Y109449500D01*
X-4838608Y109430187D01*
X-4772526Y109388666D01*
X-4749522Y109374211D01*
X-4579255Y109314632D01*
X-4400000Y109294435D01*
X-4220745Y109314632D01*
X-4050478Y109374211D01*
X-3897738Y109470184D01*
X-3770184Y109597738D01*
X-3674211Y109750478D01*
X-3614632Y109920745D01*
X-3594435Y110100000D01*
X-3614632Y110279255D01*
X-3674211Y110449522D01*
X-3674213Y110449525D01*
X-3674213Y110449526D01*
X-3770183Y110602261D01*
X-3770184Y110602263D01*
X-3897738Y110729817D01*
X-3897740Y110729818D01*
X-4050475Y110825788D01*
X-4050478Y110825789D01*
X-4200729Y110878364D01*
X-4220745Y110885368D01*
X-4400000Y110905565D01*
X-4579255Y110885368D01*
X-4579258Y110885368D01*
X-4579258Y110885367D01*
X-4749523Y110825789D01*
X-4749525Y110825788D01*
X-4838608Y110769813D01*
X-4905644Y110750500D01*
X-36494356Y110750500D01*
X-36561392Y110769813D01*
X-36650476Y110825788D01*
X-36650478Y110825789D01*
X-36800729Y110878364D01*
X-36820745Y110885368D01*
X-37000000Y110905565D01*
X-37179255Y110885368D01*
X-37179258Y110885368D01*
X-37179258Y110885367D01*
X-37349523Y110825789D01*
X-37349526Y110825788D01*
X-37502261Y110729818D01*
X-37502263Y110729817D01*
X-37629817Y110602263D01*
X-37629818Y110602261D01*
X-37725788Y110449526D01*
X-37725789Y110449523D01*
X-37725789Y110449522D01*
X-37785368Y110279255D01*
X-37805565Y110100000D01*
X-41349500Y110100000D01*
X-41349500Y112600000D01*
X-37805565Y112600000D01*
X-37785368Y112420745D01*
X-37785367Y112420743D01*
X-37725789Y112250478D01*
X-37725788Y112250475D01*
X-37629818Y112097740D01*
X-37629817Y112097738D01*
X-37502263Y111970184D01*
X-37502261Y111970183D01*
X-37349526Y111874213D01*
X-37349525Y111874213D01*
X-37349522Y111874211D01*
X-37179255Y111814632D01*
X-37000000Y111794435D01*
X-36820745Y111814632D01*
X-36650478Y111874211D01*
X-36588802Y111912966D01*
X-36561392Y111930187D01*
X-36494356Y111949500D01*
X-4905644Y111949500D01*
X-4838608Y111930187D01*
X-4772526Y111888666D01*
X-4749522Y111874211D01*
X-4579255Y111814632D01*
X-4400000Y111794435D01*
X-4220745Y111814632D01*
X-4050478Y111874211D01*
X-3897738Y111970184D01*
X-3770184Y112097738D01*
X-3674211Y112250478D01*
X-3614632Y112420745D01*
X-3594435Y112600000D01*
X-3614632Y112779255D01*
X-3674211Y112949522D01*
X-3674213Y112949525D01*
X-3674213Y112949526D01*
X-3770183Y113102261D01*
X-3770184Y113102263D01*
X-3897738Y113229817D01*
X-3897740Y113229818D01*
X-4050475Y113325788D01*
X-4050478Y113325789D01*
X-4220745Y113385368D01*
X-4400000Y113405565D01*
X-4579255Y113385368D01*
X-4579258Y113385368D01*
X-4579258Y113385367D01*
X-4749523Y113325789D01*
X-4749525Y113325788D01*
X-4838608Y113269813D01*
X-4905644Y113250500D01*
X-36494356Y113250500D01*
X-36561392Y113269813D01*
X-36650476Y113325788D01*
X-36650478Y113325789D01*
X-36820745Y113385368D01*
X-37000000Y113405565D01*
X-37179255Y113385368D01*
X-37179258Y113385368D01*
X-37179258Y113385367D01*
X-37349523Y113325789D01*
X-37349526Y113325788D01*
X-37502261Y113229818D01*
X-37502263Y113229817D01*
X-37629817Y113102263D01*
X-37629818Y113102261D01*
X-37725788Y112949526D01*
X-37725789Y112949523D01*
X-37725789Y112949522D01*
X-37785368Y112779255D01*
X-37805565Y112600000D01*
X-41349500Y112600000D01*
X-41349500Y119999999D01*
X-27255527Y119999999D01*
X-27235437Y119667861D01*
X-27235436Y119667858D01*
X-27175457Y119340560D01*
X-27076462Y119022873D01*
X-26939904Y118719454D01*
X-26939901Y118719448D01*
X-26767755Y118434683D01*
X-26562548Y118172754D01*
X-26562536Y118172741D01*
X-26327260Y117937465D01*
X-26327247Y117937453D01*
X-26065318Y117732246D01*
X-25780557Y117560102D01*
X-25780555Y117560101D01*
X-25780553Y117560100D01*
X-25780547Y117560097D01*
X-25477128Y117423539D01*
X-25477127Y117423539D01*
X-25477123Y117423537D01*
X-25159441Y117324544D01*
X-24832142Y117264564D01*
X-24610714Y117251170D01*
X-24500001Y117244473D01*
X-24500000Y117244473D01*
X-24499999Y117244473D01*
X-24416965Y117249496D01*
X-24167858Y117264564D01*
X-23840559Y117324544D01*
X-23522877Y117423537D01*
X-23219443Y117560102D01*
X-22934682Y117732246D01*
X-22672748Y117937458D01*
X-22437458Y118172748D01*
X-22432357Y118179258D01*
X-22298964Y118349523D01*
X-22232246Y118434682D01*
X-22060102Y118719443D01*
X-21923537Y119022877D01*
X-21824544Y119340559D01*
X-21764564Y119667858D01*
X-21744473Y120000000D01*
X-21764564Y120332142D01*
X-21824544Y120659441D01*
X-21923537Y120977123D01*
X-21933833Y121000000D01*
X-22060097Y121280547D01*
X-22060100Y121280553D01*
X-22101794Y121349523D01*
X-22232246Y121565318D01*
X-22282777Y121629816D01*
X-22437453Y121827247D01*
X-22437465Y121827260D01*
X-22672741Y122062536D01*
X-22672754Y122062548D01*
X-22934683Y122267755D01*
X-23219448Y122439901D01*
X-23219454Y122439904D01*
X-23522873Y122576462D01*
X-23840560Y122675457D01*
X-24167858Y122735436D01*
X-24167861Y122735437D01*
X-24499999Y122755527D01*
X-24500001Y122755527D01*
X-24832140Y122735437D01*
X-24832143Y122735436D01*
X-25159441Y122675457D01*
X-25477128Y122576462D01*
X-25780547Y122439904D01*
X-25780553Y122439901D01*
X-26065318Y122267755D01*
X-26327247Y122062548D01*
X-26327260Y122062536D01*
X-26562536Y121827260D01*
X-26562548Y121827247D01*
X-26767755Y121565318D01*
X-26939901Y121280553D01*
X-26939904Y121280547D01*
X-27076462Y120977128D01*
X-27175457Y120659441D01*
X-27235436Y120332143D01*
X-27235437Y120332140D01*
X-27255527Y120000002D01*
X-27255527Y119999999D01*
X-41349500Y119999999D01*
X-41349500Y126999999D01*
X-36255527Y126999999D01*
X-36235437Y126667861D01*
X-36235436Y126667858D01*
X-36175457Y126340560D01*
X-36076462Y126022873D01*
X-35939904Y125719454D01*
X-35939901Y125719448D01*
X-35767755Y125434683D01*
X-35562548Y125172754D01*
X-35562536Y125172741D01*
X-35327260Y124937465D01*
X-35327247Y124937453D01*
X-35065318Y124732246D01*
X-34780557Y124560102D01*
X-34780555Y124560101D01*
X-34780553Y124560100D01*
X-34780547Y124560097D01*
X-34477128Y124423539D01*
X-34477127Y124423539D01*
X-34477123Y124423537D01*
X-34159441Y124324544D01*
X-33832142Y124264564D01*
X-33610714Y124251170D01*
X-33500001Y124244473D01*
X-33500000Y124244473D01*
X-33499999Y124244473D01*
X-33416965Y124249496D01*
X-33167858Y124264564D01*
X-32840559Y124324544D01*
X-32522877Y124423537D01*
X-32219443Y124560102D01*
X-31934682Y124732246D01*
X-31672748Y124937458D01*
X-31437458Y125172748D01*
X-31420466Y125194436D01*
X-31282777Y125370184D01*
X-31232246Y125434682D01*
X-31060102Y125719443D01*
X-30923537Y126022877D01*
X-30824544Y126340559D01*
X-30764564Y126667858D01*
X-30744473Y126999999D01*
X8244473Y126999999D01*
X8264563Y126667861D01*
X8264564Y126667858D01*
X8324543Y126340560D01*
X8423538Y126022873D01*
X8560096Y125719454D01*
X8560099Y125719448D01*
X8732245Y125434683D01*
X8937452Y125172754D01*
X8937464Y125172741D01*
X9172740Y124937465D01*
X9172753Y124937453D01*
X9434682Y124732246D01*
X9719443Y124560102D01*
X9719445Y124560101D01*
X9719447Y124560100D01*
X9719453Y124560097D01*
X10022872Y124423539D01*
X10022873Y124423539D01*
X10022877Y124423537D01*
X10340559Y124324544D01*
X10667858Y124264564D01*
X10889286Y124251170D01*
X10999999Y124244473D01*
X11000000Y124244473D01*
X11000001Y124244473D01*
X11083035Y124249496D01*
X11332142Y124264564D01*
X11659441Y124324544D01*
X11977123Y124423537D01*
X12280557Y124560102D01*
X12565318Y124732246D01*
X12827252Y124937458D01*
X13062542Y125172748D01*
X13079534Y125194436D01*
X13217223Y125370184D01*
X13267754Y125434682D01*
X13439898Y125719443D01*
X13576463Y126022877D01*
X13675456Y126340559D01*
X13735436Y126667858D01*
X13755527Y127000000D01*
X13735436Y127332142D01*
X13675456Y127659441D01*
X13576463Y127977123D01*
X13567184Y127997740D01*
X13439903Y128280547D01*
X13439900Y128280553D01*
X13415604Y128320743D01*
X13267754Y128565318D01*
X13062547Y128827247D01*
X13062535Y128827260D01*
X12827259Y129062536D01*
X12827246Y129062548D01*
X12565317Y129267755D01*
X12280552Y129439901D01*
X12280546Y129439904D01*
X11977127Y129576462D01*
X11659440Y129675457D01*
X11332142Y129735436D01*
X11332139Y129735437D01*
X11000001Y129755527D01*
X10999999Y129755527D01*
X10667860Y129735437D01*
X10667857Y129735436D01*
X10340559Y129675457D01*
X10022872Y129576462D01*
X9719453Y129439904D01*
X9719447Y129439901D01*
X9434682Y129267755D01*
X9172753Y129062548D01*
X9172740Y129062536D01*
X8937464Y128827260D01*
X8937452Y128827247D01*
X8732245Y128565318D01*
X8560099Y128280553D01*
X8560096Y128280547D01*
X8423538Y127977128D01*
X8324543Y127659441D01*
X8264564Y127332143D01*
X8264563Y127332140D01*
X8244473Y127000002D01*
X8244473Y126999999D01*
X-30744473Y126999999D01*
X-30744473Y127000000D01*
X-30764564Y127332142D01*
X-30824544Y127659441D01*
X-30923537Y127977123D01*
X-30932816Y127997740D01*
X-31060097Y128280547D01*
X-31060100Y128280553D01*
X-31084396Y128320743D01*
X-31232246Y128565318D01*
X-31437453Y128827247D01*
X-31437465Y128827260D01*
X-31672741Y129062536D01*
X-31672754Y129062548D01*
X-31934683Y129267755D01*
X-32219448Y129439901D01*
X-32219454Y129439904D01*
X-32522873Y129576462D01*
X-32840560Y129675457D01*
X-33167858Y129735436D01*
X-33167861Y129735437D01*
X-33499999Y129755527D01*
X-33500001Y129755527D01*
X-33832140Y129735437D01*
X-33832143Y129735436D01*
X-34159441Y129675457D01*
X-34477128Y129576462D01*
X-34780547Y129439904D01*
X-34780553Y129439901D01*
X-35065318Y129267755D01*
X-35327247Y129062548D01*
X-35327260Y129062536D01*
X-35562536Y128827260D01*
X-35562548Y128827247D01*
X-35767755Y128565318D01*
X-35939901Y128280553D01*
X-35939904Y128280547D01*
X-36076462Y127977128D01*
X-36175457Y127659441D01*
X-36235436Y127332143D01*
X-36235437Y127332140D01*
X-36255527Y127000002D01*
X-36255527Y126999999D01*
X-41349500Y126999999D01*
X-41349500Y127994358D01*
X-41330188Y128061392D01*
X-41274211Y128150478D01*
X-41214632Y128320745D01*
X-41194435Y128500000D01*
X-41214632Y128679255D01*
X-41274211Y128849522D01*
X-41330187Y128938608D01*
X-41349500Y129005644D01*
X-41349500Y132413231D01*
X-41329498Y132481352D01*
X-41275842Y132527845D01*
X-41205568Y132537949D01*
X-41140988Y132508455D01*
X-41134405Y132502326D01*
X-41002263Y132370184D01*
X-41002261Y132370183D01*
X-40849526Y132274213D01*
X-40849525Y132274213D01*
X-40849522Y132274211D01*
X-40679255Y132214632D01*
X-40500000Y132194435D01*
X-40320745Y132214632D01*
X-40150478Y132274211D01*
X-40062489Y132329498D01*
X-40061392Y132330187D01*
X-39994356Y132349500D01*
X15678364Y132349500D01*
X15746485Y132329498D01*
X15767459Y132312595D01*
X25173689Y122906366D01*
X25207715Y122844054D01*
X25202650Y122773239D01*
X25160103Y122716403D01*
X25093583Y122691592D01*
X25061882Y122693335D01*
X24832142Y122735436D01*
X24832139Y122735437D01*
X24500001Y122755527D01*
X24499999Y122755527D01*
X24167860Y122735437D01*
X24167857Y122735436D01*
X23840559Y122675457D01*
X23522872Y122576462D01*
X23219453Y122439904D01*
X23219447Y122439901D01*
X22934682Y122267755D01*
X22672753Y122062548D01*
X22672740Y122062536D01*
X22437464Y121827260D01*
X22437452Y121827247D01*
X22232245Y121565318D01*
X22060099Y121280553D01*
X22060096Y121280547D01*
X21923538Y120977128D01*
X21824543Y120659441D01*
X21764564Y120332143D01*
X21764563Y120332140D01*
X21744473Y120000002D01*
X21744473Y119999999D01*
X21764563Y119667861D01*
X21764564Y119667858D01*
X21824543Y119340560D01*
X21923538Y119022873D01*
X22060096Y118719454D01*
X22060099Y118719448D01*
X22232245Y118434683D01*
X22437452Y118172754D01*
X22437464Y118172741D01*
X22672740Y117937465D01*
X22672753Y117937453D01*
X22934682Y117732246D01*
X23219443Y117560102D01*
X23219445Y117560101D01*
X23219447Y117560100D01*
X23219453Y117560097D01*
X23522872Y117423539D01*
X23522873Y117423539D01*
X23522877Y117423537D01*
X23840559Y117324544D01*
X24167858Y117264564D01*
X24389286Y117251170D01*
X24499999Y117244473D01*
X24500000Y117244473D01*
X24500001Y117244473D01*
X24583035Y117249496D01*
X24832142Y117264564D01*
X25159441Y117324544D01*
X25477123Y117423537D01*
X25780557Y117560102D01*
X26065318Y117732246D01*
X26327252Y117937458D01*
X26562542Y118172748D01*
X26567643Y118179258D01*
X26701036Y118349523D01*
X26767754Y118434682D01*
X26939898Y118719443D01*
X27076463Y119022877D01*
X27175456Y119340559D01*
X27235436Y119667858D01*
X27255527Y120000000D01*
X27236158Y120320198D01*
X27252010Y120389399D01*
X27302761Y120439047D01*
X27372296Y120453376D01*
X27438540Y120427836D01*
X27451023Y120416898D01*
X27497737Y120370184D01*
X27497739Y120370183D01*
X27650474Y120274213D01*
X27650475Y120274213D01*
X27650478Y120274211D01*
X27820745Y120214632D01*
X28000000Y120194435D01*
X28179255Y120214632D01*
X28349522Y120274211D01*
X28502262Y120370184D01*
X28629816Y120497738D01*
X28725789Y120650478D01*
X28785368Y120820745D01*
X28805565Y121000000D01*
X28785368Y121179255D01*
X28725789Y121349522D01*
X28725787Y121349525D01*
X28725787Y121349526D01*
X28629817Y121502261D01*
X28629816Y121502263D01*
X28502262Y121629817D01*
X28502260Y121629818D01*
X28349525Y121725788D01*
X28349522Y121725789D01*
X28179261Y121785367D01*
X28179249Y121785369D01*
X28172709Y121786106D01*
X28107258Y121813613D01*
X28097728Y121822218D01*
X16785541Y133134405D01*
X16751515Y133196717D01*
X16756580Y133267532D01*
X16799127Y133324368D01*
X16865647Y133349179D01*
X16874636Y133349500D01*
X17178364Y133349500D01*
X17246485Y133329498D01*
X17267459Y133312595D01*
X27177782Y123402272D01*
X27211808Y123339960D01*
X27213894Y123327291D01*
X27214631Y123320751D01*
X27214633Y123320739D01*
X27274211Y123150478D01*
X27274212Y123150475D01*
X27370182Y122997740D01*
X27370183Y122997738D01*
X27497737Y122870184D01*
X27497739Y122870183D01*
X27650474Y122774213D01*
X27650475Y122774213D01*
X27650478Y122774211D01*
X27820745Y122714632D01*
X28000000Y122694435D01*
X28179255Y122714632D01*
X28349522Y122774211D01*
X28502262Y122870184D01*
X28629816Y122997738D01*
X28725789Y123150478D01*
X28785368Y123320745D01*
X28805565Y123500000D01*
X28785368Y123679255D01*
X28725789Y123849522D01*
X28725787Y123849525D01*
X28725787Y123849526D01*
X28629817Y124002261D01*
X28629816Y124002263D01*
X28502262Y124129817D01*
X28502260Y124129818D01*
X28349525Y124225788D01*
X28349522Y124225789D01*
X28179261Y124285367D01*
X28179249Y124285369D01*
X28172709Y124286106D01*
X28107258Y124313613D01*
X28097728Y124322218D01*
X18285541Y134134405D01*
X18251515Y134196717D01*
X18256580Y134267532D01*
X18299127Y134324368D01*
X18365647Y134349179D01*
X18374636Y134349500D01*
X18678364Y134349500D01*
X18746485Y134329498D01*
X18767459Y134312595D01*
X27177782Y125902272D01*
X27211808Y125839960D01*
X27213894Y125827291D01*
X27214631Y125820751D01*
X27214633Y125820739D01*
X27274211Y125650478D01*
X27274212Y125650475D01*
X27370182Y125497740D01*
X27370183Y125497738D01*
X27497737Y125370184D01*
X27497739Y125370183D01*
X27650474Y125274213D01*
X27650475Y125274213D01*
X27650478Y125274211D01*
X27820745Y125214632D01*
X28000000Y125194435D01*
X28179255Y125214632D01*
X28349522Y125274211D01*
X28502262Y125370184D01*
X28629816Y125497738D01*
X28725789Y125650478D01*
X28785368Y125820745D01*
X28805565Y126000000D01*
X28785368Y126179255D01*
X28725789Y126349522D01*
X28725787Y126349525D01*
X28725787Y126349526D01*
X28629817Y126502261D01*
X28629816Y126502263D01*
X28502262Y126629817D01*
X28502260Y126629818D01*
X28349525Y126725788D01*
X28349522Y126725789D01*
X28179261Y126785367D01*
X28179249Y126785369D01*
X28172709Y126786106D01*
X28107258Y126813613D01*
X28097728Y126822218D01*
X19785541Y135134405D01*
X19751515Y135196717D01*
X19756580Y135267532D01*
X19799127Y135324368D01*
X19865647Y135349179D01*
X19874636Y135349500D01*
X20178364Y135349500D01*
X20246485Y135329498D01*
X20267459Y135312595D01*
X27177782Y128402272D01*
X27211808Y128339960D01*
X27213894Y128327291D01*
X27214631Y128320751D01*
X27214633Y128320739D01*
X27274211Y128150478D01*
X27274212Y128150475D01*
X27370182Y127997740D01*
X27370183Y127997738D01*
X27497737Y127870184D01*
X27497739Y127870183D01*
X27650474Y127774213D01*
X27650475Y127774213D01*
X27650478Y127774211D01*
X27820745Y127714632D01*
X28000000Y127694435D01*
X28179255Y127714632D01*
X28349522Y127774211D01*
X28502262Y127870184D01*
X28629816Y127997738D01*
X28725789Y128150478D01*
X28785368Y128320745D01*
X28805565Y128500000D01*
X28785368Y128679255D01*
X28725789Y128849522D01*
X28725787Y128849525D01*
X28725787Y128849526D01*
X28629817Y129002261D01*
X28629816Y129002263D01*
X28502262Y129129817D01*
X28502260Y129129818D01*
X28349525Y129225788D01*
X28349522Y129225789D01*
X28179261Y129285367D01*
X28179249Y129285369D01*
X28172709Y129286106D01*
X28107258Y129313613D01*
X28097728Y129322218D01*
X21285541Y136134405D01*
X21251515Y136196717D01*
X21256580Y136267532D01*
X21299127Y136324368D01*
X21365647Y136349179D01*
X21374636Y136349500D01*
X21678364Y136349500D01*
X21746485Y136329498D01*
X21767459Y136312595D01*
X27177782Y130902272D01*
X27211808Y130839960D01*
X27213894Y130827291D01*
X27214631Y130820751D01*
X27214633Y130820739D01*
X27274211Y130650478D01*
X27274212Y130650475D01*
X27370182Y130497740D01*
X27370183Y130497738D01*
X27497737Y130370184D01*
X27497739Y130370183D01*
X27650474Y130274213D01*
X27650475Y130274213D01*
X27650478Y130274211D01*
X27820745Y130214632D01*
X28000000Y130194435D01*
X28179255Y130214632D01*
X28349522Y130274211D01*
X28502262Y130370184D01*
X28629816Y130497738D01*
X28725789Y130650478D01*
X28785368Y130820745D01*
X28805565Y131000000D01*
X28785368Y131179255D01*
X28725789Y131349522D01*
X28725787Y131349525D01*
X28725787Y131349526D01*
X28629817Y131502261D01*
X28629816Y131502263D01*
X28502262Y131629817D01*
X28502260Y131629818D01*
X28349525Y131725788D01*
X28349522Y131725789D01*
X28179261Y131785367D01*
X28179249Y131785369D01*
X28172709Y131786106D01*
X28107258Y131813613D01*
X28097728Y131822218D01*
X22520591Y137399355D01*
X22510460Y137412001D01*
X22510256Y137411831D01*
X22505203Y137417939D01*
X22454183Y137465850D01*
X22451371Y137468575D01*
X22431035Y137488911D01*
X22431021Y137488923D01*
X22427623Y137491559D01*
X22418600Y137499266D01*
X22385398Y137530445D01*
X22385392Y137530449D01*
X22378910Y137534012D01*
X22366930Y137540599D01*
X22350407Y137551452D01*
X22333765Y137564362D01*
X22311271Y137574096D01*
X22291951Y137582457D01*
X22281298Y137587676D01*
X22241373Y137609625D01*
X22241361Y137609630D01*
X22220954Y137614870D01*
X22202257Y137621271D01*
X22182923Y137629637D01*
X22182924Y137629637D01*
X22137932Y137636763D01*
X22126312Y137639169D01*
X22082181Y137650500D01*
X22082177Y137650500D01*
X22061116Y137650500D01*
X22041405Y137652051D01*
X22020595Y137655347D01*
X21975235Y137651059D01*
X21963377Y137650500D01*
X-35994356Y137650500D01*
X-36061392Y137669813D01*
X-36150476Y137725788D01*
X-36150478Y137725789D01*
X-36320745Y137785368D01*
X-36500000Y137805565D01*
X-36679255Y137785368D01*
X-36679258Y137785368D01*
X-36679258Y137785367D01*
X-36849523Y137725789D01*
X-36849526Y137725788D01*
X-37002261Y137629818D01*
X-37002263Y137629817D01*
X-37129817Y137502263D01*
X-37129818Y137502261D01*
X-37225788Y137349526D01*
X-37225789Y137349523D01*
X-37225789Y137349522D01*
X-37285368Y137179255D01*
X-37296306Y137082177D01*
X-37305565Y137000000D01*
X-37298566Y136937881D01*
X-37310816Y136867949D01*
X-37358929Y136815741D01*
X-37427630Y136797833D01*
X-37437881Y136798566D01*
X-37500000Y136805565D01*
X-37679255Y136785368D01*
X-37679258Y136785368D01*
X-37679258Y136785367D01*
X-37849523Y136725789D01*
X-37849526Y136725788D01*
X-38002261Y136629818D01*
X-38002263Y136629817D01*
X-38129817Y136502263D01*
X-38129818Y136502261D01*
X-38225788Y136349526D01*
X-38225789Y136349523D01*
X-38254479Y136267532D01*
X-38285368Y136179255D01*
X-38290421Y136134405D01*
X-38305565Y136000000D01*
X-38298566Y135937881D01*
X-38310816Y135867949D01*
X-38358929Y135815741D01*
X-38427630Y135797833D01*
X-38437881Y135798566D01*
X-38500000Y135805565D01*
X-38679255Y135785368D01*
X-38679258Y135785368D01*
X-38679258Y135785367D01*
X-38849523Y135725789D01*
X-38849526Y135725788D01*
X-39002261Y135629818D01*
X-39002263Y135629817D01*
X-39129817Y135502263D01*
X-39129818Y135502261D01*
X-39225788Y135349526D01*
X-39225789Y135349523D01*
X-39254479Y135267532D01*
X-39285368Y135179255D01*
X-39290421Y135134405D01*
X-39305565Y135000000D01*
X-39298566Y134937881D01*
X-39310816Y134867949D01*
X-39358929Y134815741D01*
X-39427630Y134797833D01*
X-39437881Y134798566D01*
X-39500000Y134805565D01*
X-39679255Y134785368D01*
X-39679258Y134785368D01*
X-39679258Y134785367D01*
X-39849523Y134725789D01*
X-39849526Y134725788D01*
X-40002261Y134629818D01*
X-40002263Y134629817D01*
X-40129817Y134502263D01*
X-40129818Y134502261D01*
X-40225788Y134349526D01*
X-40225789Y134349523D01*
X-40254479Y134267532D01*
X-40285368Y134179255D01*
X-40290421Y134134405D01*
X-40305565Y134000000D01*
X-40298566Y133937881D01*
X-40310816Y133867949D01*
X-40358929Y133815741D01*
X-40427630Y133797833D01*
X-40437881Y133798566D01*
X-40500000Y133805565D01*
X-40679255Y133785368D01*
X-40679258Y133785368D01*
X-40679258Y133785367D01*
X-40849523Y133725789D01*
X-40849526Y133725788D01*
X-41002261Y133629818D01*
X-41002263Y133629817D01*
X-41134405Y133497674D01*
X-41196717Y133463648D01*
X-41267532Y133468713D01*
X-41324368Y133511260D01*
X-41349179Y133577780D01*
X-41349500Y133586769D01*
X-41349500Y141178365D01*
X-41329498Y141246486D01*
X-41312600Y141267455D01*
X-40557270Y142022785D01*
X-7511367Y142022785D01*
X-7511366Y142000001D01*
X-7510502Y141997917D01*
X-7510501Y141997912D01*
X-7510500Y141997912D01*
X-7508037Y141991965D01*
X-7491890Y141975822D01*
X-7488218Y141973369D01*
X-5526622Y140011773D01*
X-5524151Y140008075D01*
X-5508037Y139991966D01*
X-5508036Y139991964D01*
X-5507797Y139991866D01*
X-5507590Y139991779D01*
X-5507578Y139991775D01*
X-5505949Y139991100D01*
X-5505948Y139991099D01*
X-5500000Y139988635D01*
X-5500000Y139988636D01*
X-5499999Y139988635D01*
X-5477193Y139988635D01*
X-5472845Y139989500D01*
X5472845Y139989500D01*
X5477193Y139988635D01*
X5500000Y139988635D01*
X5505948Y139991099D01*
X5505948Y139991100D01*
X5507589Y139991779D01*
X5508036Y139991964D01*
X5508036Y139991965D01*
X5508078Y139991982D01*
X5509183Y139992440D01*
X5512264Y139996193D01*
X5524177Y140008107D01*
X5526636Y140011789D01*
X7488211Y141973364D01*
X7491874Y141975810D01*
X7508034Y141991964D01*
X7508036Y141991964D01*
X7510500Y141997912D01*
X7511365Y142000000D01*
X7511364Y142000003D01*
X7511365Y142000004D01*
X7511366Y142022785D01*
X7510500Y142027144D01*
X7510500Y142500000D01*
X11194435Y142500000D01*
X11214632Y142320745D01*
X11274211Y142150478D01*
X11274212Y142150475D01*
X11370182Y141997740D01*
X11370183Y141997738D01*
X11497737Y141870184D01*
X11497739Y141870183D01*
X11650474Y141774213D01*
X11650475Y141774213D01*
X11650478Y141774211D01*
X11820745Y141714632D01*
X12000000Y141694435D01*
X12151618Y141711519D01*
X12221545Y141699270D01*
X12272408Y141653347D01*
X12370182Y141497740D01*
X12370183Y141497738D01*
X12497737Y141370184D01*
X12497739Y141370183D01*
X12650474Y141274213D01*
X12650475Y141274213D01*
X12650478Y141274211D01*
X12820745Y141214632D01*
X13000000Y141194435D01*
X13151618Y141211519D01*
X13221545Y141199270D01*
X13272408Y141153347D01*
X13370182Y140997740D01*
X13370183Y140997738D01*
X13497737Y140870184D01*
X13497739Y140870183D01*
X13650474Y140774213D01*
X13650475Y140774213D01*
X13650478Y140774211D01*
X13820745Y140714632D01*
X14000000Y140694435D01*
X14179255Y140714632D01*
X14180709Y140715142D01*
X14181705Y140715192D01*
X14186157Y140716208D01*
X14186334Y140715429D01*
X14251612Y140718766D01*
X14313220Y140683481D01*
X14329020Y140663250D01*
X14370184Y140597737D01*
X14497737Y140470184D01*
X14497739Y140470183D01*
X14650474Y140374213D01*
X14650475Y140374213D01*
X14650478Y140374211D01*
X14820745Y140314632D01*
X15000000Y140294435D01*
X15179255Y140314632D01*
X15349522Y140374211D01*
X15502262Y140470184D01*
X15629816Y140597738D01*
X15725789Y140750478D01*
X15785368Y140920745D01*
X15805565Y141100000D01*
X15785368Y141279255D01*
X15725789Y141449522D01*
X15669813Y141538608D01*
X15650500Y141605644D01*
X15650500Y155494358D01*
X15669812Y155561392D01*
X15725789Y155650478D01*
X15785368Y155820745D01*
X15805565Y156000000D01*
X15785368Y156179255D01*
X15725789Y156349522D01*
X15725787Y156349525D01*
X15725787Y156349526D01*
X15629817Y156502261D01*
X15629816Y156502263D01*
X15502262Y156629817D01*
X15502260Y156629818D01*
X15349525Y156725788D01*
X15349522Y156725789D01*
X15179255Y156785368D01*
X15000000Y156805565D01*
X14999999Y156805565D01*
X14937880Y156798566D01*
X14867948Y156810816D01*
X14815740Y156858929D01*
X14797832Y156927630D01*
X14798562Y156937855D01*
X14805565Y157000000D01*
X14785368Y157179255D01*
X14725789Y157349522D01*
X14725787Y157349525D01*
X14725787Y157349526D01*
X14629817Y157502261D01*
X14629816Y157502263D01*
X14502262Y157629817D01*
X14502260Y157629818D01*
X14349525Y157725788D01*
X14349522Y157725789D01*
X14179255Y157785368D01*
X14000000Y157805565D01*
X13999999Y157805565D01*
X13937880Y157798566D01*
X13867948Y157810816D01*
X13815740Y157858929D01*
X13797832Y157927630D01*
X13798562Y157937855D01*
X13805565Y158000000D01*
X13785368Y158179255D01*
X13725789Y158349522D01*
X13725787Y158349525D01*
X13725787Y158349526D01*
X13629817Y158502261D01*
X13629816Y158502263D01*
X13502262Y158629817D01*
X13502260Y158629818D01*
X13349525Y158725788D01*
X13349522Y158725789D01*
X13179255Y158785368D01*
X13000000Y158805565D01*
X12999999Y158805565D01*
X12937880Y158798566D01*
X12867948Y158810816D01*
X12815740Y158858929D01*
X12797832Y158927630D01*
X12798562Y158937855D01*
X12805565Y159000000D01*
X12785368Y159179255D01*
X12725789Y159349522D01*
X12725787Y159349525D01*
X12725787Y159349526D01*
X12629817Y159502261D01*
X12629816Y159502263D01*
X12502262Y159629817D01*
X12502260Y159629818D01*
X12349525Y159725788D01*
X12349522Y159725789D01*
X12179255Y159785368D01*
X12000000Y159805565D01*
X11820745Y159785368D01*
X11820742Y159785368D01*
X11820742Y159785367D01*
X11650477Y159725789D01*
X11650474Y159725788D01*
X11497739Y159629818D01*
X11497737Y159629817D01*
X11370183Y159502263D01*
X11370182Y159502261D01*
X11274212Y159349526D01*
X11274211Y159349523D01*
X11274211Y159349522D01*
X11214632Y159179255D01*
X11194435Y159000000D01*
X11214632Y158820745D01*
X11219944Y158805565D01*
X11274210Y158650479D01*
X11274211Y158650478D01*
X11330187Y158561392D01*
X11349500Y158494358D01*
X11349500Y143005644D01*
X11330187Y142938608D01*
X11274212Y142849525D01*
X11274211Y142849523D01*
X11221788Y142699705D01*
X11214632Y142679255D01*
X11194435Y142500000D01*
X7510500Y142500000D01*
X7510500Y149972846D01*
X7511365Y149977193D01*
X7511365Y149999999D01*
X7511363Y150000004D01*
X7508901Y150005948D01*
X7508900Y150005949D01*
X7508036Y150008036D01*
X7508034Y150008037D01*
X7491925Y150024151D01*
X7488227Y150026622D01*
X5526631Y151988218D01*
X5524178Y151991890D01*
X5508035Y152008037D01*
X5502088Y152010500D01*
X5502086Y152010501D01*
X5500000Y152011365D01*
X5477194Y152011365D01*
X5472846Y152010500D01*
X-5472846Y152010500D01*
X-5477194Y152011365D01*
X-5500000Y152011365D01*
X-5502088Y152010500D01*
X-5508034Y152008037D01*
X-5508036Y152008036D01*
X-5524147Y151991929D01*
X-5526614Y151988237D01*
X-7488237Y150026614D01*
X-7491923Y150024150D01*
X-7508036Y150008037D01*
X-7511365Y150000004D01*
X-7511365Y149977193D01*
X-7510500Y149972846D01*
X-7510500Y142027144D01*
X-7511367Y142022785D01*
X-40557270Y142022785D01*
X-37600646Y144979410D01*
X-37588006Y144989535D01*
X-37588174Y144989739D01*
X-37582061Y144994797D01*
X-37582060Y144994798D01*
X-37534165Y145045803D01*
X-37531441Y145048614D01*
X-37511089Y145068965D01*
X-37508449Y145072370D01*
X-37500740Y145081397D01*
X-37469552Y145114607D01*
X-37459405Y145133067D01*
X-37448552Y145149589D01*
X-37435638Y145166236D01*
X-37417547Y145208045D01*
X-37412324Y145218705D01*
X-37400836Y145239601D01*
X-37390373Y145258632D01*
X-37385132Y145279050D01*
X-37378734Y145297738D01*
X-37370365Y145317073D01*
X-37363238Y145362075D01*
X-37360840Y145373662D01*
X-37349500Y145417823D01*
X-37349500Y145438891D01*
X-37347949Y145458602D01*
X-37346589Y145467191D01*
X-37344654Y145479405D01*
X-37348941Y145524758D01*
X-37349500Y145536615D01*
X-37349500Y154914274D01*
X-37347722Y154930378D01*
X-37347986Y154930402D01*
X-37347240Y154938296D01*
X-37349438Y155008245D01*
X-37349500Y155012202D01*
X-37349500Y155040920D01*
X-37349500Y155040925D01*
X-37350041Y155045200D01*
X-37350972Y155057036D01*
X-37351100Y155061116D01*
X-37352402Y155102569D01*
X-37358283Y155122809D01*
X-37362290Y155142158D01*
X-37364929Y155163058D01*
X-37381702Y155205420D01*
X-37385540Y155216631D01*
X-37398255Y155260398D01*
X-37408981Y155278535D01*
X-37417680Y155296292D01*
X-37425431Y155315870D01*
X-37452212Y155352730D01*
X-37458731Y155362655D01*
X-37461263Y155366936D01*
X-37481919Y155401865D01*
X-37481921Y155401868D01*
X-37496813Y155416760D01*
X-37509654Y155431793D01*
X-37522038Y155448838D01*
X-37557146Y155477882D01*
X-37565925Y155485871D01*
X-42812595Y160732541D01*
X-42846621Y160794853D01*
X-42849500Y160821636D01*
X-42849500Y166499999D01*
X-36255527Y166499999D01*
X-36235437Y166167861D01*
X-36235436Y166167858D01*
X-36175457Y165840560D01*
X-36076462Y165522873D01*
X-35939904Y165219454D01*
X-35939901Y165219448D01*
X-35767755Y164934683D01*
X-35562548Y164672754D01*
X-35562536Y164672741D01*
X-35327260Y164437465D01*
X-35327247Y164437453D01*
X-35095083Y164255565D01*
X-35065318Y164232246D01*
X-34780557Y164060102D01*
X-34780555Y164060101D01*
X-34780553Y164060100D01*
X-34780547Y164060097D01*
X-34477128Y163923539D01*
X-34477127Y163923539D01*
X-34477123Y163923537D01*
X-34159441Y163824544D01*
X-33832142Y163764564D01*
X-33610714Y163751170D01*
X-33500001Y163744473D01*
X-33500000Y163744473D01*
X-33499999Y163744473D01*
X-33416965Y163749496D01*
X-33167858Y163764564D01*
X-32840559Y163824544D01*
X-32522877Y163923537D01*
X-32219443Y164060102D01*
X-31934682Y164232246D01*
X-31672748Y164437458D01*
X-31437458Y164672748D01*
X-31232246Y164934682D01*
X-31060102Y165219443D01*
X-30923537Y165522877D01*
X-30824544Y165840559D01*
X-30764564Y166167858D01*
X-30744473Y166500000D01*
X-30752326Y166629817D01*
X-30764564Y166832140D01*
X-30764564Y166832142D01*
X-30824544Y167159441D01*
X-30923537Y167477123D01*
X-31060102Y167780557D01*
X-31232246Y168065318D01*
X-31437453Y168327247D01*
X-31437465Y168327260D01*
X-31672741Y168562536D01*
X-31672754Y168562548D01*
X-31934683Y168767755D01*
X-32219448Y168939901D01*
X-32219454Y168939904D01*
X-32522873Y169076462D01*
X-32840560Y169175457D01*
X-33167858Y169235436D01*
X-33167861Y169235437D01*
X-33499999Y169255527D01*
X-33500001Y169255527D01*
X-33832140Y169235437D01*
X-33832143Y169235436D01*
X-34159441Y169175457D01*
X-34477128Y169076462D01*
X-34780547Y168939904D01*
X-34780553Y168939901D01*
X-35065318Y168767755D01*
X-35327247Y168562548D01*
X-35327260Y168562536D01*
X-35562536Y168327260D01*
X-35562548Y168327247D01*
X-35767755Y168065318D01*
X-35939901Y167780553D01*
X-35939904Y167780547D01*
X-36076462Y167477128D01*
X-36175457Y167159441D01*
X-36235436Y166832143D01*
X-36235437Y166832140D01*
X-36255527Y166500002D01*
X-36255527Y166499999D01*
X-42849500Y166499999D01*
X-42849500Y172678365D01*
X-42829498Y172746486D01*
X-42812600Y172767455D01*
X-37580057Y177999999D01*
X-27255527Y177999999D01*
X-27235437Y177667861D01*
X-27235436Y177667858D01*
X-27175457Y177340560D01*
X-27076462Y177022873D01*
X-26939904Y176719454D01*
X-26939901Y176719448D01*
X-26767755Y176434683D01*
X-26562548Y176172754D01*
X-26562536Y176172741D01*
X-26327260Y175937465D01*
X-26327247Y175937453D01*
X-26083494Y175746486D01*
X-26065318Y175732246D01*
X-25780557Y175560102D01*
X-25780555Y175560101D01*
X-25780553Y175560100D01*
X-25780547Y175560097D01*
X-25477128Y175423539D01*
X-25477127Y175423539D01*
X-25477123Y175423537D01*
X-25159441Y175324544D01*
X-24832142Y175264564D01*
X-24616434Y175251516D01*
X-24500001Y175244473D01*
X-24500000Y175244473D01*
X-24499999Y175244473D01*
X-24383566Y175251516D01*
X-24167858Y175264564D01*
X-23840559Y175324544D01*
X-23522877Y175423537D01*
X-23219443Y175560102D01*
X-22934682Y175732246D01*
X-22703499Y175913366D01*
X-22672754Y175937453D01*
X-22672752Y175937455D01*
X-22672748Y175937458D01*
X-22437458Y176172748D01*
X-22433435Y176177882D01*
X-22380728Y176245159D01*
X-22232246Y176434682D01*
X-22060102Y176719443D01*
X-21923537Y177022877D01*
X-21824544Y177340559D01*
X-21764564Y177667858D01*
X-21744473Y178000000D01*
X-21744696Y178003679D01*
X-21764564Y178332140D01*
X-21764564Y178332142D01*
X-21824544Y178659441D01*
X-21923537Y178977123D01*
X-21933833Y179000000D01*
X-22060097Y179280547D01*
X-22060100Y179280553D01*
X-22070727Y179298132D01*
X-22232246Y179565318D01*
X-22282777Y179629816D01*
X-22437453Y179827247D01*
X-22437465Y179827260D01*
X-22672741Y180062536D01*
X-22672754Y180062548D01*
X-22934683Y180267755D01*
X-23219448Y180439901D01*
X-23219454Y180439904D01*
X-23522873Y180576462D01*
X-23840560Y180675457D01*
X-24167858Y180735436D01*
X-24167861Y180735437D01*
X-24499999Y180755527D01*
X-24500001Y180755527D01*
X-24832140Y180735437D01*
X-24832143Y180735436D01*
X-25159441Y180675457D01*
X-25477128Y180576462D01*
X-25780547Y180439904D01*
X-25780553Y180439901D01*
X-26065318Y180267755D01*
X-26327247Y180062548D01*
X-26327260Y180062536D01*
X-26562536Y179827260D01*
X-26562548Y179827247D01*
X-26767755Y179565318D01*
X-26939901Y179280553D01*
X-26939904Y179280547D01*
X-27076462Y178977128D01*
X-27175457Y178659441D01*
X-27235436Y178332143D01*
X-27235437Y178332140D01*
X-27255527Y178000002D01*
X-27255527Y177999999D01*
X-37580057Y177999999D01*
X-37402272Y178177784D01*
X-37339962Y178211808D01*
X-37327284Y178213895D01*
X-37323801Y178214288D01*
X-37320745Y178214632D01*
X-37150478Y178274211D01*
X-36997738Y178370184D01*
X-36870184Y178497738D01*
X-36774211Y178650478D01*
X-36714632Y178820745D01*
X-36694435Y179000000D01*
X-36714632Y179179255D01*
X-36774211Y179349522D01*
X-36774213Y179349525D01*
X-36774213Y179349526D01*
X-36870183Y179502261D01*
X-36870184Y179502263D01*
X-36997738Y179629817D01*
X-36997740Y179629818D01*
X-37150475Y179725788D01*
X-37150478Y179725789D01*
X-37320745Y179785368D01*
X-37500000Y179805565D01*
X-37679255Y179785368D01*
X-37679258Y179785368D01*
X-37679258Y179785367D01*
X-37849523Y179725789D01*
X-37849526Y179725788D01*
X-38002261Y179629818D01*
X-38002263Y179629817D01*
X-38129817Y179502263D01*
X-38129818Y179502261D01*
X-38225788Y179349526D01*
X-38225789Y179349523D01*
X-38285367Y179179262D01*
X-38285369Y179179251D01*
X-38286106Y179172709D01*
X-38313614Y179107258D01*
X-38322218Y179097730D01*
X-43634405Y173785542D01*
X-43696717Y173751516D01*
X-43767532Y173756581D01*
X-43824368Y173799128D01*
X-43849179Y173865648D01*
X-43849500Y173874637D01*
X-43849500Y174178365D01*
X-43829498Y174246486D01*
X-43812600Y174267455D01*
X-39902272Y178177784D01*
X-39839962Y178211808D01*
X-39827284Y178213895D01*
X-39823801Y178214288D01*
X-39820745Y178214632D01*
X-39650478Y178274211D01*
X-39497738Y178370184D01*
X-39370184Y178497738D01*
X-39274211Y178650478D01*
X-39214632Y178820745D01*
X-39194435Y179000000D01*
X-39214632Y179179255D01*
X-39274211Y179349522D01*
X-39274213Y179349525D01*
X-39274213Y179349526D01*
X-39370183Y179502261D01*
X-39370184Y179502263D01*
X-39497738Y179629817D01*
X-39497740Y179629818D01*
X-39650475Y179725788D01*
X-39650478Y179725789D01*
X-39820745Y179785368D01*
X-40000000Y179805565D01*
X-40179255Y179785368D01*
X-40179258Y179785368D01*
X-40179258Y179785367D01*
X-40349523Y179725789D01*
X-40349526Y179725788D01*
X-40502261Y179629818D01*
X-40502263Y179629817D01*
X-40629817Y179502263D01*
X-40629818Y179502261D01*
X-40725788Y179349526D01*
X-40725789Y179349523D01*
X-40785367Y179179262D01*
X-40785369Y179179251D01*
X-40786106Y179172709D01*
X-40813614Y179107258D01*
X-40822218Y179097730D01*
X-44634405Y175285542D01*
X-44696717Y175251516D01*
X-44767532Y175256581D01*
X-44824368Y175299128D01*
X-44849179Y175365648D01*
X-44849500Y175374637D01*
X-44849500Y175678365D01*
X-44829498Y175746486D01*
X-44812600Y175767455D01*
X-42402272Y178177784D01*
X-42339962Y178211807D01*
X-42327284Y178213895D01*
X-42323801Y178214288D01*
X-42320745Y178214632D01*
X-42150478Y178274211D01*
X-41997738Y178370184D01*
X-41870184Y178497738D01*
X-41774211Y178650478D01*
X-41714632Y178820745D01*
X-41694435Y179000000D01*
X-41714632Y179179255D01*
X-41774211Y179349522D01*
X-41774213Y179349525D01*
X-41774213Y179349526D01*
X-41870183Y179502261D01*
X-41870184Y179502263D01*
X-41997738Y179629817D01*
X-41997740Y179629818D01*
X-42150475Y179725788D01*
X-42150478Y179725789D01*
X-42320745Y179785368D01*
X-42500000Y179805565D01*
X-42679255Y179785368D01*
X-42679258Y179785368D01*
X-42679258Y179785367D01*
X-42849523Y179725789D01*
X-42849526Y179725788D01*
X-43002261Y179629818D01*
X-43002263Y179629817D01*
X-43129817Y179502263D01*
X-43129818Y179502261D01*
X-43225788Y179349526D01*
X-43225789Y179349523D01*
X-43285367Y179179262D01*
X-43285369Y179179251D01*
X-43286106Y179172709D01*
X-43313614Y179107258D01*
X-43322218Y179097730D01*
X-45634405Y176785542D01*
X-45696717Y176751517D01*
X-45767532Y176756581D01*
X-45824368Y176799128D01*
X-45849179Y176865648D01*
X-45849500Y176874637D01*
X-45849500Y177178365D01*
X-45829498Y177246486D01*
X-45812605Y177267450D01*
X-44902271Y178177785D01*
X-44839962Y178211807D01*
X-44827284Y178213895D01*
X-44823801Y178214288D01*
X-44820745Y178214632D01*
X-44650478Y178274211D01*
X-44497738Y178370184D01*
X-44370184Y178497738D01*
X-44274211Y178650478D01*
X-44214632Y178820745D01*
X-44194435Y179000000D01*
X-44214632Y179179255D01*
X-44274211Y179349522D01*
X-44274213Y179349525D01*
X-44274213Y179349526D01*
X-44370183Y179502261D01*
X-44370184Y179502263D01*
X-44497738Y179629817D01*
X-44497740Y179629818D01*
X-44650475Y179725788D01*
X-44650478Y179725789D01*
X-44820745Y179785368D01*
X-45000000Y179805565D01*
X-45179255Y179785368D01*
X-45179258Y179785368D01*
X-45179258Y179785367D01*
X-45349523Y179725789D01*
X-45349526Y179725788D01*
X-45502261Y179629818D01*
X-45502263Y179629817D01*
X-45629817Y179502263D01*
X-45629818Y179502261D01*
X-45725788Y179349526D01*
X-45725789Y179349523D01*
X-45785367Y179179262D01*
X-45785369Y179179251D01*
X-45786106Y179172709D01*
X-45813614Y179107258D01*
X-45822218Y179097730D01*
X-46269471Y178650475D01*
X-46634404Y178285542D01*
X-46696717Y178251517D01*
X-46767532Y178256581D01*
X-46824368Y178299128D01*
X-46849179Y178365648D01*
X-46849500Y178374637D01*
X-46849500Y180678365D01*
X-46829498Y180746486D01*
X-46812600Y180767455D01*
X-44580058Y182999997D01*
X-10005329Y182999997D01*
X-9986035Y182705625D01*
X-9986032Y182705607D01*
X-9928482Y182416280D01*
X-9928480Y182416273D01*
X-9865813Y182231664D01*
X-9833652Y182136923D01*
X-9833649Y182136917D01*
X-9703174Y181872338D01*
X-9539275Y181627045D01*
X-9539273Y181627043D01*
X-9344758Y181405242D01*
X-9122957Y181210727D01*
X-8877665Y181046828D01*
X-8613077Y180916348D01*
X-8333722Y180821519D01*
X-8044380Y180763966D01*
X-7876163Y180752941D01*
X-7750003Y180744671D01*
X-7750000Y180744671D01*
X-7749997Y180744671D01*
X-7639608Y180751907D01*
X-7455620Y180763966D01*
X-7166278Y180821519D01*
X-6886923Y180916348D01*
X-6622335Y181046828D01*
X-6377043Y181210727D01*
X-6155242Y181405242D01*
X-6071232Y181501038D01*
X-6011279Y181539065D01*
X-5940283Y181538643D01*
X-5880786Y181499905D01*
X-5851678Y181435150D01*
X-5850500Y181417960D01*
X-5850500Y166385726D01*
X-5852278Y166369621D01*
X-5852014Y166369596D01*
X-5852760Y166361705D01*
X-5850562Y166291770D01*
X-5850500Y166287812D01*
X-5850500Y166259082D01*
X-5850499Y166259064D01*
X-5849959Y166254787D01*
X-5849029Y166242967D01*
X-5847598Y166197433D01*
X-5847597Y166197430D01*
X-5841720Y166177198D01*
X-5837713Y166157847D01*
X-5835073Y166136949D01*
X-5835069Y166136936D01*
X-5818301Y166094583D01*
X-5814457Y166083356D01*
X-5801745Y166039603D01*
X-5801744Y166039601D01*
X-5791021Y166021469D01*
X-5782324Y166003716D01*
X-5774572Y165984136D01*
X-5774569Y165984132D01*
X-5774568Y165984129D01*
X-5755474Y165957847D01*
X-5747796Y165947279D01*
X-5741282Y165937363D01*
X-5718082Y165898136D01*
X-5718079Y165898132D01*
X-5703188Y165883241D01*
X-5690348Y165868208D01*
X-5677966Y165851167D01*
X-5677964Y165851164D01*
X-5642857Y165822121D01*
X-5634077Y165814131D01*
X-320592Y160500646D01*
X-310460Y160488001D01*
X-310256Y160488169D01*
X-305202Y160482060D01*
X-254185Y160434152D01*
X-251374Y160431428D01*
X-231035Y160411089D01*
X-227620Y160408440D01*
X-218607Y160400742D01*
X-185393Y160369552D01*
X-166934Y160359404D01*
X-150417Y160348556D01*
X-133764Y160335638D01*
X-133763Y160335638D01*
X-133762Y160335637D01*
X-91960Y160317548D01*
X-81299Y160312325D01*
X-46715Y160293313D01*
X-41368Y160290373D01*
X-20961Y160285134D01*
X-2258Y160278731D01*
X17073Y160270365D01*
X62069Y160263239D01*
X73680Y160260834D01*
X117823Y160249500D01*
X138891Y160249500D01*
X158600Y160247950D01*
X179405Y160244654D01*
X224756Y160248942D01*
X236614Y160249500D01*
X39494356Y160249500D01*
X39561392Y160230187D01*
X39627474Y160188666D01*
X39650478Y160174211D01*
X39820745Y160114632D01*
X40000000Y160094435D01*
X40179255Y160114632D01*
X40349522Y160174211D01*
X40502262Y160270184D01*
X40629816Y160397738D01*
X40725789Y160550478D01*
X40785368Y160720745D01*
X40805565Y160900000D01*
X40785368Y161079255D01*
X40725789Y161249522D01*
X40725787Y161249525D01*
X40725787Y161249526D01*
X40629817Y161402261D01*
X40629816Y161402263D01*
X40502262Y161529817D01*
X40502260Y161529818D01*
X40349525Y161625788D01*
X40349522Y161625789D01*
X40179255Y161685368D01*
X40000000Y161705565D01*
X39820745Y161685368D01*
X39820742Y161685368D01*
X39820742Y161685367D01*
X39650477Y161625789D01*
X39650475Y161625788D01*
X39561392Y161569813D01*
X39494356Y161550500D01*
X521636Y161550500D01*
X453515Y161570502D01*
X432541Y161587405D01*
X-4480053Y166499999D01*
X8244473Y166499999D01*
X8264563Y166167861D01*
X8264564Y166167858D01*
X8324543Y165840560D01*
X8423538Y165522873D01*
X8560096Y165219454D01*
X8560099Y165219448D01*
X8732245Y164934683D01*
X8937452Y164672754D01*
X8937464Y164672741D01*
X9172740Y164437465D01*
X9172753Y164437453D01*
X9404917Y164255565D01*
X9434682Y164232246D01*
X9719443Y164060102D01*
X9719445Y164060101D01*
X9719447Y164060100D01*
X9719453Y164060097D01*
X10022872Y163923539D01*
X10022873Y163923539D01*
X10022877Y163923537D01*
X10340559Y163824544D01*
X10667858Y163764564D01*
X10889286Y163751170D01*
X10999999Y163744473D01*
X11000000Y163744473D01*
X11000001Y163744473D01*
X11083035Y163749496D01*
X11332142Y163764564D01*
X11659441Y163824544D01*
X11977123Y163923537D01*
X12280557Y164060102D01*
X12565318Y164232246D01*
X12827252Y164437458D01*
X13062542Y164672748D01*
X13267754Y164934682D01*
X13439898Y165219443D01*
X13576463Y165522877D01*
X13675456Y165840559D01*
X13735436Y166167858D01*
X13755527Y166500000D01*
X13747674Y166629817D01*
X13735436Y166832140D01*
X13735436Y166832142D01*
X13675456Y167159441D01*
X13576463Y167477123D01*
X13439898Y167780557D01*
X13267754Y168065318D01*
X13062547Y168327247D01*
X13062535Y168327260D01*
X12827259Y168562536D01*
X12827246Y168562548D01*
X12565317Y168767755D01*
X12280552Y168939901D01*
X12280546Y168939904D01*
X11977127Y169076462D01*
X11659440Y169175457D01*
X11332142Y169235436D01*
X11332139Y169235437D01*
X11000001Y169255527D01*
X10999999Y169255527D01*
X10667860Y169235437D01*
X10667857Y169235436D01*
X10340559Y169175457D01*
X10022872Y169076462D01*
X9719453Y168939904D01*
X9719447Y168939901D01*
X9434682Y168767755D01*
X9172753Y168562548D01*
X9172740Y168562536D01*
X8937464Y168327260D01*
X8937452Y168327247D01*
X8732245Y168065318D01*
X8560099Y167780553D01*
X8560096Y167780547D01*
X8423538Y167477128D01*
X8324543Y167159441D01*
X8264564Y166832143D01*
X8264563Y166832140D01*
X8244473Y166500002D01*
X8244473Y166499999D01*
X-4480053Y166499999D01*
X-4512595Y166532541D01*
X-4546621Y166594853D01*
X-4549500Y166621636D01*
X-4549500Y175000000D01*
X14244435Y175000000D01*
X14264632Y174820745D01*
X14264633Y174820743D01*
X14324210Y174650479D01*
X14324211Y174650478D01*
X14380187Y174561392D01*
X14399500Y174494358D01*
X14399500Y166185726D01*
X14397722Y166169621D01*
X14397986Y166169596D01*
X14397240Y166161705D01*
X14399438Y166091770D01*
X14399500Y166087812D01*
X14399500Y166059082D01*
X14399501Y166059064D01*
X14400041Y166054787D01*
X14400971Y166042967D01*
X14402402Y165997433D01*
X14402403Y165997430D01*
X14408280Y165977198D01*
X14412287Y165957847D01*
X14414927Y165936949D01*
X14414931Y165936936D01*
X14431699Y165894583D01*
X14435543Y165883356D01*
X14448255Y165839603D01*
X14448256Y165839601D01*
X14458979Y165821469D01*
X14467676Y165803716D01*
X14475428Y165784136D01*
X14475431Y165784132D01*
X14475432Y165784129D01*
X14495156Y165756980D01*
X14502204Y165747279D01*
X14508718Y165737363D01*
X14531918Y165698136D01*
X14531921Y165698132D01*
X14546812Y165683241D01*
X14559652Y165668208D01*
X14572034Y165651167D01*
X14572036Y165651164D01*
X14607143Y165622121D01*
X14615923Y165614131D01*
X17179408Y163050646D01*
X17189540Y163038001D01*
X17189744Y163038169D01*
X17194798Y163032060D01*
X17245815Y162984152D01*
X17248626Y162981428D01*
X17268965Y162961089D01*
X17272380Y162958440D01*
X17281393Y162950742D01*
X17314607Y162919552D01*
X17333066Y162909404D01*
X17349583Y162898556D01*
X17366236Y162885638D01*
X17408057Y162867541D01*
X17418685Y162862335D01*
X17458632Y162840373D01*
X17479048Y162835132D01*
X17497735Y162828734D01*
X17517074Y162820365D01*
X17517078Y162820365D01*
X17517079Y162820364D01*
X17530458Y162818246D01*
X17562075Y162813238D01*
X17573685Y162810834D01*
X17617823Y162799500D01*
X17638884Y162799500D01*
X17658595Y162797949D01*
X17662076Y162797398D01*
X17679405Y162794653D01*
X17724765Y162798941D01*
X17736623Y162799500D01*
X39494356Y162799500D01*
X39561392Y162780187D01*
X39627474Y162738666D01*
X39650478Y162724211D01*
X39820745Y162664632D01*
X40000000Y162644435D01*
X40179255Y162664632D01*
X40349522Y162724211D01*
X40502262Y162820184D01*
X40629816Y162947738D01*
X40725789Y163100478D01*
X40785368Y163270745D01*
X40805565Y163450000D01*
X40785368Y163629255D01*
X40725789Y163799522D01*
X40725787Y163799525D01*
X40725787Y163799526D01*
X40629817Y163952261D01*
X40629816Y163952263D01*
X40502262Y164079817D01*
X40502260Y164079818D01*
X40349525Y164175788D01*
X40349522Y164175789D01*
X40179255Y164235368D01*
X40000000Y164255565D01*
X39820745Y164235368D01*
X39820742Y164235368D01*
X39820742Y164235367D01*
X39650477Y164175789D01*
X39650475Y164175788D01*
X39561392Y164119813D01*
X39494356Y164100500D01*
X18021636Y164100500D01*
X17953515Y164120502D01*
X17932541Y164137405D01*
X15737405Y166332541D01*
X15703379Y166394853D01*
X15700500Y166421636D01*
X15700500Y174494358D01*
X15719812Y174561392D01*
X15775789Y174650478D01*
X15835368Y174820745D01*
X15855565Y175000000D01*
X15835368Y175179255D01*
X15775789Y175349522D01*
X15775787Y175349525D01*
X15775787Y175349526D01*
X15679817Y175502261D01*
X15679816Y175502263D01*
X15552262Y175629817D01*
X15552260Y175629818D01*
X15399525Y175725788D01*
X15399522Y175725789D01*
X15356277Y175740921D01*
X15229255Y175785368D01*
X15050000Y175805565D01*
X14870745Y175785368D01*
X14870742Y175785368D01*
X14870742Y175785367D01*
X14700477Y175725789D01*
X14700474Y175725788D01*
X14547739Y175629818D01*
X14547737Y175629817D01*
X14420183Y175502263D01*
X14420182Y175502261D01*
X14324212Y175349526D01*
X14324211Y175349523D01*
X14289917Y175251516D01*
X14264632Y175179255D01*
X14244435Y175000000D01*
X-4549500Y175000000D01*
X-4549500Y183714274D01*
X-4547722Y183730378D01*
X-4547986Y183730402D01*
X-4547240Y183738296D01*
X-4549438Y183808245D01*
X-4549500Y183812202D01*
X-4549500Y183840920D01*
X-4549500Y183840925D01*
X-4550041Y183845200D01*
X-4550972Y183857036D01*
X-4552402Y183902569D01*
X-4558283Y183922809D01*
X-4562290Y183942158D01*
X-4564929Y183963058D01*
X-4581702Y184005420D01*
X-4585540Y184016631D01*
X-4598255Y184060398D01*
X-4608981Y184078535D01*
X-4617680Y184096292D01*
X-4625431Y184115870D01*
X-4652212Y184152730D01*
X-4658731Y184162655D01*
X-4681918Y184201864D01*
X-4681921Y184201868D01*
X-4696813Y184216760D01*
X-4709654Y184231793D01*
X-4722038Y184248838D01*
X-4757146Y184277882D01*
X-4765925Y184285871D01*
X-6760199Y186280145D01*
X-6794225Y186342457D01*
X-6796311Y186383350D01*
X-6794435Y186399998D01*
X-6794435Y186400000D01*
X-3405565Y186400000D01*
X-3385368Y186220745D01*
X-3385367Y186220743D01*
X-3325790Y186050479D01*
X-3325789Y186050478D01*
X-3269813Y185961392D01*
X-3250500Y185894358D01*
X-3250500Y179785726D01*
X-3252278Y179769621D01*
X-3252014Y179769596D01*
X-3252760Y179761705D01*
X-3250562Y179691770D01*
X-3250500Y179687812D01*
X-3250500Y179659082D01*
X-3250499Y179659064D01*
X-3249959Y179654787D01*
X-3249029Y179642967D01*
X-3247598Y179597433D01*
X-3247597Y179597430D01*
X-3241720Y179577198D01*
X-3237713Y179557847D01*
X-3235073Y179536949D01*
X-3235069Y179536936D01*
X-3218301Y179494583D01*
X-3214457Y179483356D01*
X-3201745Y179439603D01*
X-3201744Y179439601D01*
X-3191021Y179421469D01*
X-3182324Y179403716D01*
X-3174572Y179384136D01*
X-3174569Y179384132D01*
X-3174568Y179384129D01*
X-3154844Y179356980D01*
X-3147796Y179347279D01*
X-3141282Y179337363D01*
X-3118082Y179298136D01*
X-3118079Y179298132D01*
X-3103188Y179283241D01*
X-3090348Y179268208D01*
X-3077966Y179251167D01*
X-3077964Y179251164D01*
X-3042857Y179222121D01*
X-3034077Y179214131D01*
X-920592Y177100646D01*
X-910460Y177088001D01*
X-910256Y177088169D01*
X-905202Y177082060D01*
X-854185Y177034152D01*
X-851374Y177031428D01*
X-831038Y177011092D01*
X-831031Y177011086D01*
X-827624Y177008443D01*
X-818599Y177000734D01*
X-785396Y176969554D01*
X-785395Y176969554D01*
X-785393Y176969552D01*
X-770494Y176961362D01*
X-766935Y176959405D01*
X-750406Y176948547D01*
X-733763Y176935637D01*
X-691945Y176917541D01*
X-681292Y176912322D01*
X-641370Y176890374D01*
X-641369Y176890373D01*
X-632766Y176888165D01*
X-620971Y176885137D01*
X-602258Y176878730D01*
X-582928Y176870364D01*
X-561416Y176866958D01*
X-537922Y176863237D01*
X-526319Y176860835D01*
X-482177Y176849500D01*
X-461115Y176849500D01*
X-441406Y176847950D01*
X-420595Y176844653D01*
X-375235Y176848941D01*
X-363377Y176849500D01*
X16878364Y176849500D01*
X16946485Y176829498D01*
X16967459Y176812595D01*
X18312595Y175467459D01*
X18346621Y175405147D01*
X18349500Y175378364D01*
X18349500Y166505644D01*
X18330187Y166438608D01*
X18274212Y166349525D01*
X18274211Y166349523D01*
X18242562Y166259075D01*
X18214632Y166179255D01*
X18194435Y166000000D01*
X18214632Y165820745D01*
X18240339Y165747279D01*
X18274211Y165650478D01*
X18274212Y165650475D01*
X18370182Y165497740D01*
X18370183Y165497738D01*
X18497737Y165370184D01*
X18497739Y165370183D01*
X18650474Y165274213D01*
X18650475Y165274213D01*
X18650478Y165274211D01*
X18820745Y165214632D01*
X19000000Y165194435D01*
X19179255Y165214632D01*
X19349522Y165274211D01*
X19411198Y165312966D01*
X19438608Y165330187D01*
X19505644Y165349500D01*
X39494356Y165349500D01*
X39561392Y165330187D01*
X39627474Y165288666D01*
X39650478Y165274211D01*
X39820745Y165214632D01*
X40000000Y165194435D01*
X40179255Y165214632D01*
X40349522Y165274211D01*
X40502262Y165370184D01*
X40629816Y165497738D01*
X40725789Y165650478D01*
X40785368Y165820745D01*
X40805565Y166000000D01*
X40785368Y166179255D01*
X40725789Y166349522D01*
X40725787Y166349525D01*
X40725787Y166349526D01*
X40629817Y166502261D01*
X40629816Y166502263D01*
X40502262Y166629817D01*
X40502260Y166629818D01*
X40349525Y166725788D01*
X40349522Y166725789D01*
X40204598Y166776500D01*
X40179255Y166785368D01*
X40000000Y166805565D01*
X39820745Y166785368D01*
X39820742Y166785368D01*
X39820742Y166785367D01*
X39650477Y166725789D01*
X39650475Y166725788D01*
X39561392Y166669813D01*
X39494356Y166650500D01*
X19776500Y166650500D01*
X19708379Y166670502D01*
X19661886Y166724158D01*
X19650500Y166776500D01*
X19650500Y175614275D01*
X19652278Y175630379D01*
X19652014Y175630403D01*
X19652760Y175638296D01*
X19650562Y175708233D01*
X19650500Y175712191D01*
X19650500Y175740921D01*
X19650500Y175740925D01*
X19649958Y175745210D01*
X19649027Y175757044D01*
X19648137Y175785368D01*
X19647597Y175802570D01*
X19641720Y175822798D01*
X19637712Y175842156D01*
X19635071Y175863055D01*
X19635070Y175863062D01*
X19618297Y175905424D01*
X19614455Y175916644D01*
X19601744Y175960399D01*
X19601744Y175960400D01*
X19601743Y175960402D01*
X19591022Y175978529D01*
X19582321Y175996289D01*
X19574569Y176015869D01*
X19574568Y176015870D01*
X19574568Y176015871D01*
X19547788Y176052731D01*
X19541277Y176062643D01*
X19518081Y176101865D01*
X19518080Y176101866D01*
X19518079Y176101868D01*
X19503187Y176116760D01*
X19490346Y176131793D01*
X19477962Y176148838D01*
X19442854Y176177882D01*
X19434075Y176185871D01*
X17720591Y177899355D01*
X17710460Y177912001D01*
X17710256Y177911831D01*
X17705203Y177917939D01*
X17654183Y177965850D01*
X17651371Y177968575D01*
X17631035Y177988911D01*
X17631021Y177988923D01*
X17627623Y177991559D01*
X17618600Y177999266D01*
X17617819Y177999999D01*
X21744473Y177999999D01*
X21764563Y177667861D01*
X21764564Y177667858D01*
X21824543Y177340560D01*
X21923538Y177022873D01*
X22060096Y176719454D01*
X22060099Y176719448D01*
X22232245Y176434683D01*
X22437452Y176172754D01*
X22437464Y176172741D01*
X22672740Y175937465D01*
X22672753Y175937453D01*
X22916506Y175746486D01*
X22934682Y175732246D01*
X23219443Y175560102D01*
X23219445Y175560101D01*
X23219447Y175560100D01*
X23219453Y175560097D01*
X23522872Y175423539D01*
X23522873Y175423539D01*
X23522877Y175423537D01*
X23840559Y175324544D01*
X24167858Y175264564D01*
X24383566Y175251516D01*
X24499999Y175244473D01*
X24500000Y175244473D01*
X24500001Y175244473D01*
X24616434Y175251516D01*
X24832142Y175264564D01*
X25159441Y175324544D01*
X25477123Y175423537D01*
X25780557Y175560102D01*
X26065318Y175732246D01*
X26296501Y175913366D01*
X26327246Y175937453D01*
X26327248Y175937455D01*
X26327252Y175937458D01*
X26562542Y176172748D01*
X26566565Y176177882D01*
X26619272Y176245159D01*
X26767754Y176434682D01*
X26939898Y176719443D01*
X27076463Y177022877D01*
X27175456Y177340559D01*
X27235436Y177667858D01*
X27255527Y178000000D01*
X27255304Y178003679D01*
X27235436Y178332140D01*
X27235436Y178332142D01*
X27175456Y178659441D01*
X27076463Y178977123D01*
X27066167Y179000000D01*
X26939903Y179280547D01*
X26939900Y179280553D01*
X26929273Y179298132D01*
X26767754Y179565318D01*
X26717223Y179629816D01*
X26562547Y179827247D01*
X26562535Y179827260D01*
X26327259Y180062536D01*
X26327246Y180062548D01*
X26065317Y180267755D01*
X25780552Y180439901D01*
X25780546Y180439904D01*
X25477127Y180576462D01*
X25159440Y180675457D01*
X24832142Y180735436D01*
X24832139Y180735437D01*
X24500001Y180755527D01*
X24499999Y180755527D01*
X24167860Y180735437D01*
X24167857Y180735436D01*
X23840559Y180675457D01*
X23522872Y180576462D01*
X23219453Y180439904D01*
X23219447Y180439901D01*
X22934682Y180267755D01*
X22672753Y180062548D01*
X22672740Y180062536D01*
X22437464Y179827260D01*
X22437452Y179827247D01*
X22232245Y179565318D01*
X22060099Y179280553D01*
X22060096Y179280547D01*
X21923538Y178977128D01*
X21824543Y178659441D01*
X21764564Y178332143D01*
X21764563Y178332140D01*
X21744473Y178000002D01*
X21744473Y177999999D01*
X17617819Y177999999D01*
X17585398Y178030445D01*
X17585392Y178030449D01*
X17578910Y178034012D01*
X17566930Y178040599D01*
X17550407Y178051452D01*
X17533765Y178064362D01*
X17511271Y178074096D01*
X17491951Y178082457D01*
X17481298Y178087676D01*
X17441373Y178109625D01*
X17441361Y178109630D01*
X17420954Y178114870D01*
X17402257Y178121271D01*
X17382923Y178129637D01*
X17382924Y178129637D01*
X17337932Y178136763D01*
X17326312Y178139169D01*
X17282181Y178150500D01*
X17282177Y178150500D01*
X17261116Y178150500D01*
X17241405Y178152051D01*
X17220595Y178155347D01*
X17175235Y178151059D01*
X17163377Y178150500D01*
X-78364Y178150500D01*
X-146485Y178170502D01*
X-167459Y178187405D01*
X-1912595Y179932541D01*
X-1946621Y179994853D01*
X-1949500Y180021636D01*
X-1949500Y182999997D01*
X5494671Y182999997D01*
X5513965Y182705625D01*
X5513968Y182705607D01*
X5571518Y182416280D01*
X5571520Y182416273D01*
X5634187Y182231664D01*
X5666348Y182136923D01*
X5666351Y182136917D01*
X5796826Y181872338D01*
X5960725Y181627045D01*
X5960727Y181627043D01*
X6155242Y181405242D01*
X6377043Y181210727D01*
X6622335Y181046828D01*
X6886923Y180916348D01*
X7166278Y180821519D01*
X7455620Y180763966D01*
X7623837Y180752941D01*
X7749997Y180744671D01*
X7750000Y180744671D01*
X7750003Y180744671D01*
X7860392Y180751907D01*
X8044380Y180763966D01*
X8333722Y180821519D01*
X8613077Y180916348D01*
X8877665Y181046828D01*
X9122957Y181210727D01*
X9344758Y181405242D01*
X9539273Y181627043D01*
X9703172Y181872335D01*
X9833652Y182136923D01*
X9928481Y182416278D01*
X9986034Y182705620D01*
X10005329Y183000000D01*
X9986034Y183294380D01*
X9928481Y183583722D01*
X9833652Y183863077D01*
X9703172Y184127664D01*
X9539273Y184372957D01*
X9344758Y184594758D01*
X9127213Y184785541D01*
X9122955Y184789275D01*
X8877662Y184953174D01*
X8613083Y185083649D01*
X8613077Y185083652D01*
X8518336Y185115813D01*
X8333727Y185178480D01*
X8333720Y185178482D01*
X8044393Y185236032D01*
X8044375Y185236035D01*
X7750003Y185255329D01*
X7749997Y185255329D01*
X7455624Y185236035D01*
X7455606Y185236032D01*
X7166279Y185178482D01*
X7166272Y185178480D01*
X6886923Y185083653D01*
X6622338Y184953174D01*
X6377050Y184789279D01*
X6377043Y184789274D01*
X6377043Y184789273D01*
X6155242Y184594758D01*
X5960721Y184372950D01*
X5796826Y184127662D01*
X5666347Y183863077D01*
X5571520Y183583728D01*
X5571518Y183583721D01*
X5513968Y183294394D01*
X5513965Y183294376D01*
X5494671Y183000004D01*
X5494671Y182999997D01*
X-1949500Y182999997D01*
X-1949500Y185894358D01*
X-1930188Y185961392D01*
X-1874211Y186050478D01*
X-1814632Y186220745D01*
X-1794435Y186400000D01*
X-1814632Y186579255D01*
X-1874211Y186749522D01*
X-1874213Y186749525D01*
X-1874213Y186749526D01*
X-1970183Y186902261D01*
X-1970184Y186902263D01*
X-2097738Y187029817D01*
X-2097740Y187029818D01*
X-2250475Y187125788D01*
X-2250478Y187125789D01*
X-2420745Y187185368D01*
X-2600000Y187205565D01*
X-2779255Y187185368D01*
X-2779258Y187185368D01*
X-2779258Y187185367D01*
X-2949523Y187125789D01*
X-2949526Y187125788D01*
X-3102261Y187029818D01*
X-3102263Y187029817D01*
X-3229817Y186902263D01*
X-3229818Y186902261D01*
X-3325788Y186749526D01*
X-3325789Y186749523D01*
X-3325789Y186749522D01*
X-3385368Y186579255D01*
X-3405565Y186400000D01*
X-6794435Y186400000D01*
X-6814632Y186579255D01*
X-6874211Y186749522D01*
X-6874213Y186749525D01*
X-6874213Y186749526D01*
X-6970183Y186902261D01*
X-6970184Y186902263D01*
X-7097738Y187029817D01*
X-7097740Y187029818D01*
X-7250475Y187125788D01*
X-7250478Y187125789D01*
X-7420745Y187185368D01*
X-7600000Y187205565D01*
X-7779255Y187185368D01*
X-7779258Y187185368D01*
X-7779258Y187185367D01*
X-7949523Y187125789D01*
X-7949526Y187125788D01*
X-8102261Y187029818D01*
X-8102263Y187029817D01*
X-8229817Y186902263D01*
X-8229818Y186902261D01*
X-8325788Y186749526D01*
X-8325789Y186749523D01*
X-8325789Y186749522D01*
X-8385368Y186579255D01*
X-8405565Y186400000D01*
X-8385368Y186220745D01*
X-8385367Y186220743D01*
X-8325789Y186050478D01*
X-8325788Y186050475D01*
X-8229818Y185897740D01*
X-8229817Y185897738D01*
X-8102263Y185770184D01*
X-8100286Y185768942D01*
X-8084381Y185755845D01*
X-8084072Y185756217D01*
X-8042857Y185722121D01*
X-8034077Y185714131D01*
X-7782660Y185462714D01*
X-7748634Y185400402D01*
X-7753699Y185329587D01*
X-7796246Y185272751D01*
X-7862766Y185247940D01*
X-7863514Y185247889D01*
X-8044376Y185236035D01*
X-8044394Y185236032D01*
X-8333721Y185178482D01*
X-8333728Y185178480D01*
X-8613077Y185083653D01*
X-8877662Y184953174D01*
X-9122950Y184789279D01*
X-9122957Y184789274D01*
X-9122957Y184789273D01*
X-9344758Y184594758D01*
X-9539279Y184372950D01*
X-9703174Y184127662D01*
X-9833653Y183863077D01*
X-9928480Y183583728D01*
X-9928482Y183583721D01*
X-9986032Y183294394D01*
X-9986035Y183294376D01*
X-10005329Y183000004D01*
X-10005329Y182999997D01*
X-44580058Y182999997D01*
X-37402272Y190177784D01*
X-37339962Y190211808D01*
X-37327284Y190213895D01*
X-37323801Y190214288D01*
X-37320745Y190214632D01*
X-37150478Y190274211D01*
X-36997738Y190370184D01*
X-36870184Y190497738D01*
X-36774211Y190650478D01*
X-36714632Y190820745D01*
X-36694435Y191000000D01*
X-36714632Y191179255D01*
X-36774211Y191349522D01*
X-36774213Y191349525D01*
X-36774213Y191349526D01*
X-36870183Y191502261D01*
X-36870184Y191502263D01*
X-36997738Y191629817D01*
X-36997740Y191629818D01*
X-37150475Y191725788D01*
X-37150478Y191725789D01*
X-37168931Y191732246D01*
X-37320745Y191785368D01*
X-37500000Y191805565D01*
X-37679255Y191785368D01*
X-37679258Y191785368D01*
X-37679258Y191785367D01*
X-37849523Y191725789D01*
X-37849526Y191725788D01*
X-38002261Y191629818D01*
X-38002263Y191629817D01*
X-38129817Y191502263D01*
X-38129818Y191502261D01*
X-38225788Y191349526D01*
X-38225789Y191349523D01*
X-38285367Y191179262D01*
X-38285369Y191179251D01*
X-38286106Y191172709D01*
X-38313614Y191107258D01*
X-38322218Y191097730D01*
X-47683925Y181736022D01*
X-47746237Y181701996D01*
X-47817052Y181707061D01*
X-47873888Y181749608D01*
X-47898699Y181816128D01*
X-47899020Y181825117D01*
X-47899020Y182128845D01*
X-47879018Y182196966D01*
X-47862120Y182217935D01*
X-39902272Y190177784D01*
X-39839962Y190211808D01*
X-39827284Y190213895D01*
X-39823801Y190214288D01*
X-39820745Y190214632D01*
X-39650478Y190274211D01*
X-39497738Y190370184D01*
X-39370184Y190497738D01*
X-39274211Y190650478D01*
X-39214632Y190820745D01*
X-39194435Y191000000D01*
X-39214632Y191179255D01*
X-39274211Y191349522D01*
X-39274213Y191349525D01*
X-39274213Y191349526D01*
X-39370183Y191502261D01*
X-39370184Y191502263D01*
X-39497738Y191629817D01*
X-39497740Y191629818D01*
X-39650475Y191725788D01*
X-39650478Y191725789D01*
X-39668931Y191732246D01*
X-39820745Y191785368D01*
X-40000000Y191805565D01*
X-40179255Y191785368D01*
X-40179258Y191785368D01*
X-40179258Y191785367D01*
X-40349523Y191725789D01*
X-40349526Y191725788D01*
X-40502261Y191629818D01*
X-40502263Y191629817D01*
X-40629817Y191502263D01*
X-40629818Y191502261D01*
X-40725788Y191349526D01*
X-40725789Y191349523D01*
X-40785367Y191179262D01*
X-40785369Y191179251D01*
X-40786106Y191172709D01*
X-40813614Y191107258D01*
X-40822218Y191097730D01*
X-48634405Y183285542D01*
X-48696717Y183251516D01*
X-48767532Y183256581D01*
X-48824368Y183299128D01*
X-48849179Y183365648D01*
X-48849500Y183374637D01*
X-48849500Y183678365D01*
X-48829498Y183746486D01*
X-48812600Y183767455D01*
X-42402272Y190177784D01*
X-42339962Y190211808D01*
X-42327284Y190213895D01*
X-42323801Y190214288D01*
X-42320745Y190214632D01*
X-42150478Y190274211D01*
X-41997738Y190370184D01*
X-41870184Y190497738D01*
X-41774211Y190650478D01*
X-41714632Y190820745D01*
X-41694435Y191000000D01*
X-41714632Y191179255D01*
X-41774211Y191349522D01*
X-41774213Y191349525D01*
X-41774213Y191349526D01*
X-41870183Y191502261D01*
X-41870184Y191502263D01*
X-41997738Y191629817D01*
X-41997740Y191629818D01*
X-42150475Y191725788D01*
X-42150478Y191725789D01*
X-42168931Y191732246D01*
X-42320745Y191785368D01*
X-42500000Y191805565D01*
X-42679255Y191785368D01*
X-42679258Y191785368D01*
X-42679258Y191785367D01*
X-42849523Y191725789D01*
X-42849526Y191725788D01*
X-43002261Y191629818D01*
X-43002263Y191629817D01*
X-43129817Y191502263D01*
X-43129818Y191502261D01*
X-43225788Y191349526D01*
X-43225789Y191349523D01*
X-43285367Y191179262D01*
X-43285369Y191179251D01*
X-43286106Y191172709D01*
X-43313614Y191107258D01*
X-43322218Y191097730D01*
X-49634405Y184785542D01*
X-49696717Y184751516D01*
X-49767532Y184756581D01*
X-49824368Y184799128D01*
X-49849179Y184865648D01*
X-49849500Y184874637D01*
X-49849500Y185178365D01*
X-49829498Y185246486D01*
X-49812600Y185267455D01*
X-44902272Y190177784D01*
X-44839962Y190211808D01*
X-44827284Y190213895D01*
X-44823801Y190214288D01*
X-44820745Y190214632D01*
X-44650478Y190274211D01*
X-44497738Y190370184D01*
X-44370184Y190497738D01*
X-44274211Y190650478D01*
X-44214632Y190820745D01*
X-44194435Y191000000D01*
X-44214632Y191179255D01*
X-44274211Y191349522D01*
X-44274213Y191349525D01*
X-44274213Y191349526D01*
X-44370183Y191502261D01*
X-44370184Y191502263D01*
X-44497738Y191629817D01*
X-44497740Y191629818D01*
X-44650475Y191725788D01*
X-44650478Y191725789D01*
X-44668931Y191732246D01*
X-44820745Y191785368D01*
X-45000000Y191805565D01*
X-45179255Y191785368D01*
X-45179258Y191785368D01*
X-45179258Y191785367D01*
X-45349523Y191725789D01*
X-45349526Y191725788D01*
X-45502261Y191629818D01*
X-45502263Y191629817D01*
X-45629817Y191502263D01*
X-45629818Y191502261D01*
X-45725788Y191349526D01*
X-45725789Y191349523D01*
X-45785367Y191179262D01*
X-45785369Y191179251D01*
X-45786106Y191172709D01*
X-45813614Y191107258D01*
X-45822218Y191097730D01*
X-50899359Y186020589D01*
X-50912004Y186010455D01*
X-50911836Y186010252D01*
X-50917937Y186005206D01*
X-50965836Y185954199D01*
X-50968586Y185951362D01*
X-50988907Y185931040D01*
X-50988913Y185931034D01*
X-50991564Y185927616D01*
X-50999256Y185918611D01*
X-51030449Y185885393D01*
X-51040595Y185866936D01*
X-51051447Y185850416D01*
X-51064358Y185833771D01*
X-51064363Y185833762D01*
X-51082454Y185791958D01*
X-51087674Y185781302D01*
X-51109627Y185741370D01*
X-51114870Y185720951D01*
X-51121271Y185702256D01*
X-51129636Y185682926D01*
X-51129638Y185682919D01*
X-51136763Y185637932D01*
X-51139169Y185626311D01*
X-51150500Y185582178D01*
X-51150500Y185561116D01*
X-51152051Y185541406D01*
X-51152127Y185540925D01*
X-51155347Y185520595D01*
X-51154366Y185510218D01*
X-51151059Y185475236D01*
X-51150500Y185463378D01*
X-51150500Y157085726D01*
X-51152278Y157069621D01*
X-51152014Y157069596D01*
X-51152760Y157061705D01*
X-51150562Y156991770D01*
X-51150500Y156987812D01*
X-51150500Y156959082D01*
X-51150499Y156959064D01*
X-51149959Y156954787D01*
X-51149029Y156942967D01*
X-51147598Y156897433D01*
X-51147597Y156897430D01*
X-51141720Y156877198D01*
X-51137713Y156857847D01*
X-51135073Y156836949D01*
X-51135069Y156836936D01*
X-51118301Y156794583D01*
X-51114457Y156783356D01*
X-51101745Y156739603D01*
X-51101744Y156739601D01*
X-51091021Y156721469D01*
X-51082324Y156703716D01*
X-51074572Y156684136D01*
X-51074569Y156684132D01*
X-51074568Y156684129D01*
X-51061571Y156666240D01*
X-51047796Y156647279D01*
X-51041282Y156637363D01*
X-51018082Y156598136D01*
X-51018079Y156598132D01*
X-51003188Y156583241D01*
X-50990348Y156568208D01*
X-50977966Y156551167D01*
X-50977964Y156551164D01*
X-50942857Y156522121D01*
X-50934077Y156514131D01*
X-45687405Y151267459D01*
X-45653379Y151205147D01*
X-45650500Y151178364D01*
X-45650500Y149321636D01*
X-45670502Y149253515D01*
X-45687405Y149232541D01*
X-49232541Y145687405D01*
X-49294853Y145653379D01*
X-49321636Y145650500D01*
X-51914275Y145650500D01*
X-51930381Y145652278D01*
X-51930405Y145652014D01*
X-51938297Y145652760D01*
X-52008231Y145650562D01*
X-52012189Y145650500D01*
X-52040925Y145650500D01*
X-52040929Y145650500D01*
X-52040941Y145650499D01*
X-52045215Y145649959D01*
X-52057033Y145649029D01*
X-52102566Y145647598D01*
X-52102571Y145647597D01*
X-52122801Y145641720D01*
X-52142153Y145637713D01*
X-52163054Y145635073D01*
X-52163059Y145635071D01*
X-52205425Y145618299D01*
X-52216646Y145614457D01*
X-52260399Y145601745D01*
X-52260403Y145601743D01*
X-52278542Y145591016D01*
X-52296286Y145582323D01*
X-52315870Y145574569D01*
X-52352736Y145547786D01*
X-52362650Y145541274D01*
X-52401866Y145518081D01*
X-52416761Y145503186D01*
X-52431788Y145490352D01*
X-52448834Y145477967D01*
X-52448837Y145477964D01*
X-52477887Y145442850D01*
X-52485874Y145434074D01*
X-54097730Y143822218D01*
X-54160042Y143788192D01*
X-54172709Y143786106D01*
X-54179251Y143785369D01*
X-54179262Y143785367D01*
X-54349523Y143725789D01*
X-54349526Y143725788D01*
X-54502261Y143629818D01*
X-54502263Y143629817D01*
X-54629817Y143502263D01*
X-54629818Y143502261D01*
X-54725788Y143349526D01*
X-54725789Y143349523D01*
X-54782957Y143186146D01*
X-54785368Y143179255D01*
X-54805565Y143000000D01*
X-54785368Y142820745D01*
X-54785367Y142820743D01*
X-54725790Y142650479D01*
X-54711533Y142627790D01*
X-54669813Y142561392D01*
X-54650500Y142494358D01*
X-54650500Y77505644D01*
X-54669813Y77438608D01*
X-54725788Y77349525D01*
X-54725789Y77349523D01*
X-54725789Y77349522D01*
X-54785368Y77179255D01*
X-54805565Y77000000D01*
X-54785368Y76820745D01*
X-54785367Y76820743D01*
X-54725789Y76650478D01*
X-54725788Y76650475D01*
X-54629818Y76497740D01*
X-54629817Y76497738D01*
X-54502263Y76370184D01*
X-54502261Y76370183D01*
X-54349526Y76274213D01*
X-54349525Y76274213D01*
X-54349522Y76274211D01*
X-54179255Y76214632D01*
X-54000000Y76194435D01*
X-53820745Y76214632D01*
X-53650478Y76274211D01*
X-53497738Y76370184D01*
X-53370184Y76497738D01*
X-53274211Y76650478D01*
X-53214632Y76820745D01*
X-53194435Y77000000D01*
X-53214632Y77179255D01*
X-53274211Y77349522D01*
X-53330187Y77438608D01*
X-53349500Y77505644D01*
X-53349500Y142494358D01*
X-53330188Y142561392D01*
X-53274211Y142650478D01*
X-53214632Y142820745D01*
X-53213895Y142827284D01*
X-53186393Y142892737D01*
X-53177801Y142902255D01*
X-51767457Y144312598D01*
X-51705147Y144346621D01*
X-51678364Y144349500D01*
X-51374637Y144349500D01*
X-51306516Y144329498D01*
X-51260023Y144275842D01*
X-51249919Y144205568D01*
X-51279413Y144140988D01*
X-51285542Y144134404D01*
X-51597731Y143822217D01*
X-51660043Y143788192D01*
X-51672709Y143786106D01*
X-51679252Y143785369D01*
X-51679262Y143785367D01*
X-51849523Y143725789D01*
X-51849526Y143725788D01*
X-52002261Y143629818D01*
X-52002263Y143629817D01*
X-52129817Y143502263D01*
X-52129818Y143502261D01*
X-52225788Y143349526D01*
X-52225789Y143349523D01*
X-52282957Y143186146D01*
X-52285368Y143179255D01*
X-52305565Y143000000D01*
X-52285368Y142820745D01*
X-52285367Y142820743D01*
X-52225790Y142650479D01*
X-52211533Y142627790D01*
X-52169813Y142561392D01*
X-52150500Y142494358D01*
X-52150500Y77505644D01*
X-52169813Y77438608D01*
X-52225788Y77349525D01*
X-52225789Y77349523D01*
X-52225789Y77349522D01*
X-52285368Y77179255D01*
X-52305565Y77000000D01*
X-52285368Y76820745D01*
X-52285367Y76820743D01*
X-52225789Y76650478D01*
X-52225788Y76650475D01*
X-52129818Y76497740D01*
X-52129817Y76497738D01*
X-52002263Y76370184D01*
X-52002261Y76370183D01*
X-51849526Y76274213D01*
X-51849525Y76274213D01*
X-51849522Y76274211D01*
X-51679255Y76214632D01*
X-51500000Y76194435D01*
X-51320745Y76214632D01*
X-51150478Y76274211D01*
X-50997738Y76370184D01*
X-50870184Y76497738D01*
X-50774211Y76650478D01*
X-50714632Y76820745D01*
X-50694435Y77000000D01*
X-50714632Y77179255D01*
X-50774211Y77349522D01*
X-50830187Y77438608D01*
X-50849500Y77505644D01*
X-50849500Y142494358D01*
X-50830188Y142561392D01*
X-50774211Y142650478D01*
X-50714632Y142820745D01*
X-50713897Y142827278D01*
X-50686399Y142892730D01*
X-50677793Y142902263D01*
X-50267458Y143312596D01*
X-50205146Y143346621D01*
X-50178363Y143349500D01*
X-49903377Y143349500D01*
X-49835256Y143329498D01*
X-49788763Y143275842D01*
X-49778659Y143205568D01*
X-49784446Y143181889D01*
X-49785369Y143179252D01*
X-49804929Y143005644D01*
X-49805565Y143000000D01*
X-49785368Y142820745D01*
X-49785367Y142820743D01*
X-49725790Y142650479D01*
X-49711533Y142627790D01*
X-49669813Y142561392D01*
X-49650500Y142494358D01*
X-49650500Y77505644D01*
X-49669813Y77438608D01*
X-49725788Y77349525D01*
X-49725789Y77349523D01*
X-49725789Y77349522D01*
X-49785368Y77179255D01*
X-49805565Y77000000D01*
X-49785368Y76820745D01*
X-49785367Y76820743D01*
X-49725789Y76650478D01*
X-49725788Y76650475D01*
X-49629818Y76497740D01*
X-49629817Y76497738D01*
X-49502263Y76370184D01*
X-49502261Y76370183D01*
X-49349526Y76274213D01*
X-49349525Y76274213D01*
X-49349522Y76274211D01*
X-49179255Y76214632D01*
X-49000000Y76194435D01*
X-48820745Y76214632D01*
X-48650478Y76274211D01*
X-48497738Y76370184D01*
X-48370184Y76497738D01*
X-48274211Y76650478D01*
X-48214632Y76820745D01*
X-48194435Y77000000D01*
X-48214632Y77179255D01*
X-48274211Y77349522D01*
X-48330187Y77438608D01*
X-48349500Y77505644D01*
X-48349500Y142223500D01*
X-48329498Y142291621D01*
X-48275842Y142338114D01*
X-48223500Y142349500D01*
X-48085726Y142349500D01*
X-48069621Y142347723D01*
X-48069596Y142347986D01*
X-48061712Y142347242D01*
X-48061704Y142347240D01*
X-47991770Y142349439D01*
X-47987812Y142349500D01*
X-47959078Y142349500D01*
X-47959075Y142349500D01*
X-47954808Y142350040D01*
X-47942970Y142350973D01*
X-47897431Y142352403D01*
X-47880327Y142357373D01*
X-47877206Y142358279D01*
X-47857850Y142362289D01*
X-47836942Y142364929D01*
X-47794577Y142381704D01*
X-47783356Y142385546D01*
X-47757710Y142392996D01*
X-47739604Y142398255D01*
X-47739602Y142398256D01*
X-47721471Y142408980D01*
X-47703715Y142417679D01*
X-47684129Y142425432D01*
X-47647262Y142452218D01*
X-47637362Y142458722D01*
X-47598135Y142481919D01*
X-47583238Y142496817D01*
X-47568204Y142509658D01*
X-47551163Y142522037D01*
X-47522110Y142557159D01*
X-47514141Y142565915D01*
X-47416147Y142663909D01*
X-47353837Y142697933D01*
X-47283022Y142692868D01*
X-47226186Y142650321D01*
X-47220368Y142641849D01*
X-47169814Y142561395D01*
X-47150500Y142494358D01*
X-47150500Y137505644D01*
X-47169813Y137438608D01*
X-47225788Y137349525D01*
X-47225789Y137349523D01*
X-47225789Y137349522D01*
X-47285368Y137179255D01*
X-47305565Y137000000D01*
X-47285368Y136820745D01*
X-47285367Y136820743D01*
X-47225790Y136650479D01*
X-47225789Y136650478D01*
X-47169813Y136561392D01*
X-47150500Y136494358D01*
X-47150500Y77505644D01*
X-47169813Y77438608D01*
X-47225788Y77349525D01*
X-47225789Y77349523D01*
X-47225789Y77349522D01*
X-47285368Y77179255D01*
X-47305565Y77000000D01*
X-47285368Y76820745D01*
X-47285367Y76820743D01*
X-47225789Y76650478D01*
X-47225788Y76650475D01*
X-47129818Y76497740D01*
X-47129817Y76497738D01*
X-47002263Y76370184D01*
X-47002261Y76370183D01*
X-46849526Y76274213D01*
X-46849525Y76274213D01*
X-46849522Y76274211D01*
X-46679255Y76214632D01*
X-46500000Y76194435D01*
X-46320745Y76214632D01*
X-46150478Y76274211D01*
X-45997738Y76370184D01*
X-45945702Y76422220D01*
X-45865595Y76502326D01*
X-45803283Y76536352D01*
X-45732468Y76531287D01*
X-45675632Y76488740D01*
X-45650821Y76422220D01*
X-45650500Y76413231D01*
X-45650500Y72586769D01*
X-45670502Y72518648D01*
X-45724158Y72472155D01*
X-45794432Y72462051D01*
X-45859012Y72491545D01*
X-45865595Y72497674D01*
X-45997738Y72629817D01*
X-45997740Y72629818D01*
X-46150475Y72725788D01*
X-46150478Y72725789D01*
X-46320745Y72785368D01*
X-46500000Y72805565D01*
X-46679255Y72785368D01*
X-46679258Y72785368D01*
X-46679258Y72785367D01*
X-46849523Y72725789D01*
X-46849526Y72725788D01*
X-47002261Y72629818D01*
X-47002263Y72629817D01*
X-47129817Y72502263D01*
X-47129818Y72502261D01*
X-47225788Y72349526D01*
X-47225789Y72349523D01*
X-47225789Y72349522D01*
X-47285368Y72179255D01*
X-47305565Y72000000D01*
X-47285368Y71820745D01*
X-47285367Y71820743D01*
X-47225790Y71650479D01*
X-47225789Y71650478D01*
X-47169813Y71561392D01*
X-47150500Y71494358D01*
X-47150500Y71071636D01*
X-47170502Y71003515D01*
X-47187405Y70982541D01*
X-65982541Y52187405D01*
X-66044853Y52153379D01*
X-66071636Y52150500D01*
X-70494356Y52150500D01*
X-70561392Y52169813D01*
X-70650476Y52225788D01*
X-70650478Y52225789D01*
X-70820745Y52285368D01*
X-71000000Y52305565D01*
X-71179255Y52285368D01*
X-71179258Y52285368D01*
X-71179258Y52285367D01*
X-71349523Y52225789D01*
X-71349526Y52225788D01*
X-71502261Y52129818D01*
X-71502263Y52129817D01*
X-71629817Y52002263D01*
X-71629818Y52002261D01*
X-71725788Y51849526D01*
X-71725789Y51849523D01*
X-71725789Y51849522D01*
X-71785368Y51679255D01*
X-71805565Y51500000D01*
X-71785368Y51320745D01*
X-71785367Y51320743D01*
X-71725789Y51150478D01*
X-71725788Y51150475D01*
X-71629818Y50997740D01*
X-71629817Y50997738D01*
X-71502263Y50870184D01*
X-71502261Y50870183D01*
X-71349526Y50774213D01*
X-71349525Y50774213D01*
X-71349522Y50774211D01*
X-71179255Y50714632D01*
X-71000000Y50694435D01*
X-70820745Y50714632D01*
X-70650478Y50774211D01*
X-70562489Y50829498D01*
X-70561392Y50830187D01*
X-70494356Y50849500D01*
X-66374636Y50849500D01*
X-66306515Y50829498D01*
X-66260022Y50775842D01*
X-66249918Y50705568D01*
X-66279412Y50640988D01*
X-66285541Y50634405D01*
X-66732541Y50187405D01*
X-66794853Y50153379D01*
X-66821636Y50150500D01*
X-78994356Y50150500D01*
X-79061392Y50169813D01*
X-79150476Y50225788D01*
X-79150478Y50225789D01*
X-79320745Y50285368D01*
X-79500000Y50305565D01*
X-79679255Y50285368D01*
X-79679258Y50285368D01*
X-79679258Y50285367D01*
X-79849523Y50225789D01*
X-79849526Y50225788D01*
X-80002261Y50129818D01*
X-80002263Y50129817D01*
X-80129817Y50002263D01*
X-80129818Y50002261D01*
X-80225788Y49849526D01*
X-80225789Y49849523D01*
X-80225789Y49849522D01*
X-80285368Y49679255D01*
X-80305565Y49500000D01*
X-96644758Y49500000D01*
X-95848200Y51025070D01*
X-95843252Y51033692D01*
X-94376393Y53370637D01*
X-94371113Y53378390D01*
X-92681865Y55669691D01*
X-92675105Y55678084D01*
X-90807067Y57803666D01*
X-90797692Y57813251D01*
X-88793497Y59654835D01*
X-88782412Y59663913D01*
X-88765869Y59675957D01*
X-86641395Y61222671D01*
X-86628831Y61230725D01*
X-84350602Y62507207D01*
X-84336993Y62513791D01*
X-81921028Y63508373D01*
X-81906938Y63513221D01*
X-79352576Y64226088D01*
X-79338633Y64229139D01*
X-76645231Y64660236D01*
X-76631960Y64661643D01*
X-73793696Y64810996D01*
X-73791301Y64811099D01*
X-70910086Y64905902D01*
X-70904797Y64905719D01*
X-70902896Y64905899D01*
X-70895111Y64906395D01*
X-70893175Y64906459D01*
X-70887944Y64907316D01*
X-68061674Y65174948D01*
X-68056324Y65175094D01*
X-68054698Y65175352D01*
X-68046692Y65176364D01*
X-68045037Y65176520D01*
X-68039815Y65177712D01*
X-65258815Y65618487D01*
X-65253472Y65618972D01*
X-65251918Y65619321D01*
X-65244002Y65620835D01*
X-65242375Y65621093D01*
X-65237208Y65622623D01*
X-62501590Y66236518D01*
X-62496266Y66237345D01*
X-62494752Y66237787D01*
X-62486931Y66239806D01*
X-62485386Y66240153D01*
X-62480322Y66242009D01*
X-59789931Y67029052D01*
X-59784675Y67030215D01*
X-59783225Y67030742D01*
X-59775470Y67033281D01*
X-59773984Y67033715D01*
X-59769056Y67035887D01*
X-57123864Y67996093D01*
X-57118718Y67997580D01*
X-57117196Y67998244D01*
X-57109723Y68001225D01*
X-57108187Y68001782D01*
X-57103438Y68004242D01*
X-54503464Y69137613D01*
X-54498459Y69139401D01*
X-54496810Y69140245D01*
X-54489649Y69143633D01*
X-54487942Y69144377D01*
X-54483379Y69147116D01*
X-51930369Y70452764D01*
X-51927374Y70453987D01*
X-51920542Y70457729D01*
X-51920539Y70457729D01*
X-51920382Y70457816D01*
X-51917260Y70459467D01*
X-51915087Y70460578D01*
X-51913577Y70462456D01*
X-51912187Y70466755D01*
X-51912674Y70471249D01*
X-51914733Y70475277D01*
X-51916623Y70476798D01*
X-51916625Y70476799D01*
X-51918257Y70478112D01*
X-51920544Y70478852D01*
X-51923071Y70478579D01*
X-51926451Y70478260D01*
X-51926669Y70478242D01*
X-51926670Y70478242D01*
X-51934265Y70477629D01*
X-51937374Y70477029D01*
X-57180717Y69908769D01*
X-57193673Y69908037D01*
X-62023379Y69884287D01*
X-62038772Y69885154D01*
X-66448150Y70405744D01*
X-66465843Y70409130D01*
X-66669717Y70463497D01*
X-67859129Y70780678D01*
X-70455358Y71473015D01*
X-70474583Y71479851D01*
X-74045499Y73086192D01*
X-74064746Y73096967D01*
X-74064749Y73096969D01*
X-77218987Y75245692D01*
X-77236355Y75259949D01*
X-79975831Y77952087D01*
X-79989843Y77968438D01*
X-82317206Y81207941D01*
X-82325022Y81220270D01*
X-82330140Y81229482D01*
X-84286651Y84751421D01*
X-84290943Y84759887D01*
X-85782913Y87999999D01*
X-82755527Y87999999D01*
X-82735437Y87667861D01*
X-82735436Y87667858D01*
X-82675457Y87340560D01*
X-82576462Y87022873D01*
X-82439904Y86719454D01*
X-82439901Y86719448D01*
X-82267755Y86434683D01*
X-82062548Y86172754D01*
X-82062536Y86172741D01*
X-81827260Y85937465D01*
X-81827247Y85937453D01*
X-81565318Y85732246D01*
X-81280557Y85560102D01*
X-81280555Y85560101D01*
X-81280553Y85560100D01*
X-81280547Y85560097D01*
X-80977128Y85423539D01*
X-80977127Y85423539D01*
X-80977123Y85423537D01*
X-80659441Y85324544D01*
X-80332142Y85264564D01*
X-80110714Y85251170D01*
X-80000001Y85244473D01*
X-80000000Y85244473D01*
X-79999999Y85244473D01*
X-79916965Y85249496D01*
X-79667858Y85264564D01*
X-79340559Y85324544D01*
X-79022877Y85423537D01*
X-78719443Y85560102D01*
X-78434682Y85732246D01*
X-78172748Y85937458D01*
X-77937458Y86172748D01*
X-77732246Y86434682D01*
X-77560102Y86719443D01*
X-77423537Y87022877D01*
X-77324544Y87340559D01*
X-77264564Y87667858D01*
X-77244473Y88000000D01*
X-77264564Y88332142D01*
X-77324544Y88659441D01*
X-77423537Y88977123D01*
X-77560102Y89280557D01*
X-77732246Y89565318D01*
X-77937453Y89827247D01*
X-77937465Y89827260D01*
X-78172741Y90062536D01*
X-78172754Y90062548D01*
X-78434683Y90267755D01*
X-78719448Y90439901D01*
X-78719454Y90439904D01*
X-79022873Y90576462D01*
X-79340560Y90675457D01*
X-79667858Y90735436D01*
X-79667861Y90735437D01*
X-79999999Y90755527D01*
X-80000001Y90755527D01*
X-80332140Y90735437D01*
X-80332143Y90735436D01*
X-80659441Y90675457D01*
X-80977128Y90576462D01*
X-81280547Y90439904D01*
X-81280553Y90439901D01*
X-81565318Y90267755D01*
X-81827247Y90062548D01*
X-81827260Y90062536D01*
X-82062536Y89827260D01*
X-82062548Y89827247D01*
X-82267755Y89565318D01*
X-82439901Y89280553D01*
X-82439904Y89280547D01*
X-82576462Y88977128D01*
X-82675457Y88659441D01*
X-82735436Y88332143D01*
X-82735437Y88332140D01*
X-82755527Y88000002D01*
X-82755527Y87999999D01*
X-85782913Y87999999D01*
X-85930507Y88320528D01*
X-85934346Y88329825D01*
X-86171828Y88977128D01*
X-87250528Y91917330D01*
X-87253734Y91927340D01*
X-88246719Y95541865D01*
X-88249134Y95552415D01*
X-88919063Y99194141D01*
X-88920582Y99205075D01*
X-89267551Y102874224D01*
X-89268108Y102885266D01*
X-89270191Y103205565D01*
X-89292154Y106582144D01*
X-89291754Y106593019D01*
X-88992822Y110318044D01*
X-88991576Y110328269D01*
X-88388760Y114011331D01*
X-88386695Y114021370D01*
X-87593026Y117214632D01*
X-87499226Y117592031D01*
X-87496280Y117602075D01*
X-86324215Y121060281D01*
X-86320421Y121070102D01*
X-85480216Y122999999D01*
X-82755527Y122999999D01*
X-82735437Y122667861D01*
X-82735436Y122667858D01*
X-82675457Y122340560D01*
X-82576462Y122022873D01*
X-82439904Y121719454D01*
X-82439901Y121719448D01*
X-82267755Y121434683D01*
X-82062548Y121172754D01*
X-82062536Y121172741D01*
X-81827260Y120937465D01*
X-81827247Y120937453D01*
X-81565318Y120732246D01*
X-81280557Y120560102D01*
X-81280555Y120560101D01*
X-81280553Y120560100D01*
X-81280547Y120560097D01*
X-80977128Y120423539D01*
X-80977127Y120423539D01*
X-80977123Y120423537D01*
X-80659441Y120324544D01*
X-80332142Y120264564D01*
X-80110714Y120251170D01*
X-80000001Y120244473D01*
X-80000000Y120244473D01*
X-79999999Y120244473D01*
X-79916965Y120249496D01*
X-79667858Y120264564D01*
X-79340559Y120324544D01*
X-79022877Y120423537D01*
X-78719443Y120560102D01*
X-78434682Y120732246D01*
X-78172748Y120937458D01*
X-77937458Y121172748D01*
X-77932357Y121179258D01*
X-77798964Y121349523D01*
X-77732246Y121434682D01*
X-77560102Y121719443D01*
X-77423537Y122022877D01*
X-77324544Y122340559D01*
X-77264564Y122667858D01*
X-77244473Y123000000D01*
X-77264564Y123332142D01*
X-77324544Y123659441D01*
X-77423537Y123977123D01*
X-77423539Y123977128D01*
X-77560097Y124280547D01*
X-77560100Y124280553D01*
X-77563011Y124285368D01*
X-77732246Y124565318D01*
X-77937453Y124827247D01*
X-77937465Y124827260D01*
X-78172741Y125062536D01*
X-78172754Y125062548D01*
X-78434683Y125267755D01*
X-78719448Y125439901D01*
X-78719454Y125439904D01*
X-79022873Y125576462D01*
X-79340560Y125675457D01*
X-79667858Y125735436D01*
X-79667861Y125735437D01*
X-79999999Y125755527D01*
X-80000001Y125755527D01*
X-80332140Y125735437D01*
X-80332143Y125735436D01*
X-80659441Y125675457D01*
X-80977128Y125576462D01*
X-81280547Y125439904D01*
X-81280553Y125439901D01*
X-81565318Y125267755D01*
X-81827247Y125062548D01*
X-81827260Y125062536D01*
X-82062536Y124827260D01*
X-82062548Y124827247D01*
X-82267755Y124565318D01*
X-82439901Y124280553D01*
X-82439904Y124280547D01*
X-82576462Y123977128D01*
X-82675457Y123659441D01*
X-82735436Y123332143D01*
X-82735437Y123332140D01*
X-82755527Y123000002D01*
X-82755527Y122999999D01*
X-85480216Y122999999D01*
X-84863687Y124416128D01*
X-84859108Y124425553D01*
X-83117607Y127659595D01*
X-83112385Y127668410D01*
X-81085955Y130790644D01*
X-81080221Y130798757D01*
X-78768682Y133809299D01*
X-78762625Y133816597D01*
X-76166410Y136714819D01*
X-76159014Y136722406D01*
X-73314139Y139404026D01*
X-73304753Y139412041D01*
X-70246197Y141774085D01*
X-70235921Y141781233D01*
X-66962873Y143824483D01*
X-66952027Y143830531D01*
X-63464109Y145555187D01*
X-63452997Y145560030D01*
X-59749895Y146966143D01*
X-59738885Y146969753D01*
X-55820215Y148057302D01*
X-55809574Y148059762D01*
X-51675058Y148828622D01*
X-51665029Y148830070D01*
X-47321492Y149279339D01*
X-47309135Y149279520D01*
X-47306973Y149280236D01*
X-47306970Y149280235D01*
X-47306969Y149280237D01*
X-47303123Y149281508D01*
X-47303056Y149281554D01*
X-47300292Y149284399D01*
X-47298839Y149288060D01*
X-47298556Y149289603D01*
X-47298614Y149293585D01*
X-47300174Y149297199D01*
X-47300253Y149297313D01*
X-47305133Y149301279D01*
X-47316600Y149305833D01*
X-50530608Y150923193D01*
X-50540886Y150928983D01*
X-53348553Y152688777D01*
X-53359896Y152696790D01*
X-55740563Y154583508D01*
X-55755555Y154595390D01*
X-55767543Y154606212D01*
X-57751871Y156643051D01*
X-57763690Y156657099D01*
X-58988628Y158349522D01*
X-59337799Y158831951D01*
X-59348257Y158849141D01*
X-59392958Y158937883D01*
X-60513528Y161162484D01*
X-60521387Y161181987D01*
X-61278976Y163635112D01*
X-61283453Y163655431D01*
X-61283454Y163655437D01*
X-61634177Y166252987D01*
X-61635278Y166267125D01*
X-61690939Y168873746D01*
X-61690802Y168882906D01*
X-61687872Y168939898D01*
X-61563641Y171356048D01*
X-61562717Y171366114D01*
X-61252902Y173702559D01*
X-61250957Y173713494D01*
X-60758741Y175913369D01*
X-60755552Y175924979D01*
X-60081163Y177988538D01*
X-60076549Y178000543D01*
X-59220125Y179928184D01*
X-59214020Y179940156D01*
X-58175578Y181732336D01*
X-58168010Y181743886D01*
X-58162399Y181751504D01*
X-56946258Y183402635D01*
X-56939879Y183410598D01*
X-55587410Y184965210D01*
X-55582974Y184970046D01*
X-54155204Y186446578D01*
X-54150478Y186451212D01*
X-52648732Y187848158D01*
X-52643772Y187852534D01*
X-51067923Y189170008D01*
X-51062805Y189174063D01*
X-49412829Y190412072D01*
X-49407511Y190415849D01*
X-47683444Y191574354D01*
X-47678026Y191577796D01*
X-45879730Y192656874D01*
X-45874294Y192659953D01*
X-44001842Y193659538D01*
X-43996108Y193662412D01*
X-43276734Y193999999D01*
X-32755527Y193999999D01*
X-32735437Y193667861D01*
X-32735436Y193667858D01*
X-32675457Y193340560D01*
X-32576462Y193022873D01*
X-32439904Y192719454D01*
X-32439901Y192719448D01*
X-32267755Y192434683D01*
X-32062548Y192172754D01*
X-32062536Y192172741D01*
X-31827260Y191937465D01*
X-31827247Y191937453D01*
X-31633122Y191785367D01*
X-31565318Y191732246D01*
X-31280557Y191560102D01*
X-31280555Y191560101D01*
X-31280553Y191560100D01*
X-31280547Y191560097D01*
X-30977128Y191423539D01*
X-30977127Y191423539D01*
X-30977123Y191423537D01*
X-30659441Y191324544D01*
X-30332142Y191264564D01*
X-30110714Y191251170D01*
X-30000001Y191244473D01*
X-30000000Y191244473D01*
X-29999999Y191244473D01*
X-29916965Y191249496D01*
X-29667858Y191264564D01*
X-29340559Y191324544D01*
X-29022877Y191423537D01*
X-28719443Y191560102D01*
X-28434682Y191732246D01*
X-28172748Y191937458D01*
X-27937458Y192172748D01*
X-27732246Y192434682D01*
X-27560102Y192719443D01*
X-27423537Y193022877D01*
X-27324544Y193340559D01*
X-27264564Y193667858D01*
X-27244473Y193999999D01*
X27244473Y193999999D01*
X27264563Y193667861D01*
X27264564Y193667858D01*
X27324543Y193340560D01*
X27423538Y193022873D01*
X27560096Y192719454D01*
X27560099Y192719448D01*
X27732245Y192434683D01*
X27937452Y192172754D01*
X27937464Y192172741D01*
X28172740Y191937465D01*
X28172753Y191937453D01*
X28366878Y191785367D01*
X28434682Y191732246D01*
X28719443Y191560102D01*
X28719445Y191560101D01*
X28719447Y191560100D01*
X28719453Y191560097D01*
X29022872Y191423539D01*
X29022873Y191423539D01*
X29022877Y191423537D01*
X29340559Y191324544D01*
X29667858Y191264564D01*
X29889286Y191251170D01*
X29999999Y191244473D01*
X30000000Y191244473D01*
X30000001Y191244473D01*
X30083035Y191249496D01*
X30332142Y191264564D01*
X30659441Y191324544D01*
X30977123Y191423537D01*
X31280557Y191560102D01*
X31565318Y191732246D01*
X31827252Y191937458D01*
X32062542Y192172748D01*
X32267754Y192434682D01*
X32439898Y192719443D01*
X32576463Y193022877D01*
X32675456Y193340559D01*
X32735436Y193667858D01*
X32755527Y194000000D01*
X32735436Y194332142D01*
X32675456Y194659441D01*
X32576463Y194977123D01*
X32439898Y195280557D01*
X32267754Y195565318D01*
X32062547Y195827247D01*
X32062535Y195827260D01*
X31827259Y196062536D01*
X31827246Y196062548D01*
X31565317Y196267755D01*
X31280552Y196439901D01*
X31280546Y196439904D01*
X30977127Y196576462D01*
X30659440Y196675457D01*
X30332142Y196735436D01*
X30332139Y196735437D01*
X30000001Y196755527D01*
X29999999Y196755527D01*
X29667860Y196735437D01*
X29667857Y196735436D01*
X29340559Y196675457D01*
X29022872Y196576462D01*
X28719453Y196439904D01*
X28719447Y196439901D01*
X28434682Y196267755D01*
X28172753Y196062548D01*
X28172740Y196062536D01*
X27937464Y195827260D01*
X27937452Y195827247D01*
X27732245Y195565318D01*
X27560099Y195280553D01*
X27560096Y195280547D01*
X27423538Y194977128D01*
X27324543Y194659441D01*
X27264564Y194332143D01*
X27264563Y194332140D01*
X27244473Y194000002D01*
X27244473Y193999999D01*
X-27244473Y193999999D01*
X-27244473Y194000000D01*
X-27264564Y194332142D01*
X-27324544Y194659441D01*
X-27423537Y194977123D01*
X-27560102Y195280557D01*
X-27732246Y195565318D01*
X-27937453Y195827247D01*
X-27937465Y195827260D01*
X-28172741Y196062536D01*
X-28172754Y196062548D01*
X-28434683Y196267755D01*
X-28719448Y196439901D01*
X-28719454Y196439904D01*
X-29022873Y196576462D01*
X-29340560Y196675457D01*
X-29667858Y196735436D01*
X-29667861Y196735437D01*
X-29999999Y196755527D01*
X-30000001Y196755527D01*
X-30332140Y196735437D01*
X-30332143Y196735436D01*
X-30659441Y196675457D01*
X-30977128Y196576462D01*
X-31280547Y196439904D01*
X-31280553Y196439901D01*
X-31565318Y196267755D01*
X-31827247Y196062548D01*
X-31827260Y196062536D01*
X-32062536Y195827260D01*
X-32062548Y195827247D01*
X-32267755Y195565318D01*
X-32439901Y195280553D01*
X-32439904Y195280547D01*
X-32576462Y194977128D01*
X-32675457Y194659441D01*
X-32735436Y194332143D01*
X-32735437Y194332140D01*
X-32755527Y194000002D01*
X-32755527Y193999999D01*
X-43276734Y193999999D01*
X-42028817Y194585620D01*
X-42022945Y194588194D01*
X-39939601Y195438370D01*
X-39934042Y195440486D01*
X-37734411Y196217662D01*
X-37729129Y196219397D01*
X-35413245Y196923493D01*
X-35408299Y196924885D01*
X-32976127Y197555857D01*
X-32971498Y197556963D01*
X-30423032Y198114761D01*
X-30418657Y198115637D01*
X-27753943Y198600208D01*
X-27749958Y198600864D01*
X-24969838Y199012048D01*
X-24964403Y199012730D01*
X-22093171Y199308739D01*
X-22086276Y199309257D01*
X-19146243Y199448591D01*
X-19139574Y199448729D01*
X-16129757Y199431436D01*
X-16123428Y199431238D01*
X-13043824Y199257267D01*
X-13037804Y199256782D01*
X-9888349Y198926081D01*
X-9882648Y198925351D01*
X-6663372Y198437872D01*
X-6658073Y198436952D01*
X-3368898Y197792639D01*
X-3363918Y197791558D01*
X-26306Y196995480D01*
X-18800Y196992374D01*
X-6771Y196990451D01*
X-24Y196989109D01*
X28Y196989109D01*
X6780Y196990452D01*
X18846Y196992381D01*
X26357Y196995493D01*
X3363931Y197791561D01*
X3368890Y197792638D01*
X6658075Y198436953D01*
X6663359Y198437870D01*
X9882648Y198925351D01*
X9888338Y198926080D01*
X13037804Y199256782D01*
X13043817Y199257267D01*
X16123427Y199431238D01*
X16129754Y199431436D01*
X19139571Y199448729D01*
X19146241Y199448591D01*
G37*
G04 #@! TD.AperFunction*
M02*
