M48
INCH,TZ
T1C0.0866
T2C0.0984
T3C0.1063
%
G90
G05
T1
X-3051Y72835
X3051Y72835
T2
X-32358Y14395
X-32358Y7308
X32559Y14370
X32559Y7283
T3
X-33465Y41339
X-18898Y2165
X-13386Y64961
X-13386Y50000
X-11811Y76378
X-9646Y70079
X-9646Y47244
X3543Y64961
X3543Y50000
X9646Y70079
X9646Y47244
X11811Y76378
X18898Y2165
X33465Y41339
T0
M30
