M48
INCH,TZ
T1C0.0866
T2C0.1063
T3C0.1260
%
G90
G05
T1
X-3051Y72047
X3051Y72047
T2
X-34134Y14567
X-34134Y3543
X-31496Y48425
X-31496Y34646
X-18898Y2165
X-13189Y65551
X-13189Y50000
X-11811Y76378
X-9646Y70079
X-9646Y47244
X4331Y65551
X4331Y50000
X9646Y70079
X9646Y47244
X11811Y76378
X18898Y2165
X31496Y48425
X31496Y34646
X34134Y14567
X34134Y3543
T3
X-37402Y16929
X-37402Y12205
X-33465Y16929
X-33465Y12205
X33465Y16929
X33465Y12205
X37402Y16929
X37402Y12205
M30
