G04 #@! TF.GenerationSoftware,KiCad,Pcbnew,7.0.10*
G04 #@! TF.CreationDate,2024-02-23T15:51:22+00:00*
G04 #@! TF.ProjectId,NB3_body,4e42335f-626f-4647-992e-6b696361645f,0.0.5*
G04 #@! TF.SameCoordinates,PX76bb820PYd4ab5c0*
G04 #@! TF.FileFunction,Legend,Bot*
G04 #@! TF.FilePolarity,Positive*
%FSLAX46Y46*%
G04 Gerber Fmt 4.6, Leading zero omitted, Abs format (unit mm)*
G04 Created by KiCad (PCBNEW 7.0.10) date 2024-02-23 15:51:22*
%MOMM*%
%LPD*%
G01*
G04 APERTURE LIST*
%ADD10C,0.500000*%
%ADD11C,0.120000*%
%ADD12C,0.150000*%
G04 APERTURE END LIST*
D10*
X65000000Y7000000D02*
G75*
G03*
X57000000Y7000000I-4000000J0D01*
G01*
X57000000Y7000000D02*
G75*
G03*
X65000000Y7000000I4000000J0D01*
G01*
X-52000000Y170000000D02*
G75*
G03*
X-60000000Y170000000I-4000000J0D01*
G01*
X-60000000Y170000000D02*
G75*
G03*
X-52000000Y170000000I4000000J0D01*
G01*
X11400000Y183000000D02*
G75*
G03*
X-11400000Y183000000I-11400000J0D01*
G01*
X-11400000Y183000000D02*
G75*
G03*
X11400000Y183000000I11400000J0D01*
G01*
X-57000000Y7000000D02*
G75*
G03*
X-65000000Y7000000I-4000000J0D01*
G01*
X-65000000Y7000000D02*
G75*
G03*
X-57000000Y7000000I4000000J0D01*
G01*
D11*
X-30000000Y115000000D02*
X30000000Y115000000D01*
X30000000Y41000000D01*
X-30000000Y41000000D01*
X-30000000Y115000000D01*
D10*
X60000000Y170000000D02*
G75*
G03*
X52000000Y170000000I-4000000J0D01*
G01*
X52000000Y170000000D02*
G75*
G03*
X60000000Y170000000I4000000J0D01*
G01*
D11*
X-25000000Y116000000D02*
X25000000Y116000000D01*
X25000000Y11000000D01*
X-25000000Y11000000D01*
X-25000000Y116000000D01*
D12*
X5857143Y41830896D02*
X5380953Y41830896D01*
X5952381Y41545181D02*
X5619048Y42545181D01*
X5619048Y42545181D02*
X5285715Y41545181D01*
X5000000Y41830896D02*
X4523810Y41830896D01*
X5095238Y41545181D02*
X4761905Y42545181D01*
X4761905Y42545181D02*
X4428572Y41545181D01*
X3000000Y42068991D02*
X2857143Y42021372D01*
X2857143Y42021372D02*
X2809524Y41973753D01*
X2809524Y41973753D02*
X2761905Y41878515D01*
X2761905Y41878515D02*
X2761905Y41735658D01*
X2761905Y41735658D02*
X2809524Y41640420D01*
X2809524Y41640420D02*
X2857143Y41592800D01*
X2857143Y41592800D02*
X2952381Y41545181D01*
X2952381Y41545181D02*
X3333333Y41545181D01*
X3333333Y41545181D02*
X3333333Y42545181D01*
X3333333Y42545181D02*
X3000000Y42545181D01*
X3000000Y42545181D02*
X2904762Y42497562D01*
X2904762Y42497562D02*
X2857143Y42449943D01*
X2857143Y42449943D02*
X2809524Y42354705D01*
X2809524Y42354705D02*
X2809524Y42259467D01*
X2809524Y42259467D02*
X2857143Y42164229D01*
X2857143Y42164229D02*
X2904762Y42116610D01*
X2904762Y42116610D02*
X3000000Y42068991D01*
X3000000Y42068991D02*
X3333333Y42068991D01*
X1904762Y41545181D02*
X1904762Y42068991D01*
X1904762Y42068991D02*
X1952381Y42164229D01*
X1952381Y42164229D02*
X2047619Y42211848D01*
X2047619Y42211848D02*
X2238095Y42211848D01*
X2238095Y42211848D02*
X2333333Y42164229D01*
X1904762Y41592800D02*
X2000000Y41545181D01*
X2000000Y41545181D02*
X2238095Y41545181D01*
X2238095Y41545181D02*
X2333333Y41592800D01*
X2333333Y41592800D02*
X2380952Y41688039D01*
X2380952Y41688039D02*
X2380952Y41783277D01*
X2380952Y41783277D02*
X2333333Y41878515D01*
X2333333Y41878515D02*
X2238095Y41926134D01*
X2238095Y41926134D02*
X2000000Y41926134D01*
X2000000Y41926134D02*
X1904762Y41973753D01*
X1571428Y42211848D02*
X1190476Y42211848D01*
X1428571Y42545181D02*
X1428571Y41688039D01*
X1428571Y41688039D02*
X1380952Y41592800D01*
X1380952Y41592800D02*
X1285714Y41545181D01*
X1285714Y41545181D02*
X1190476Y41545181D01*
X999999Y42211848D02*
X619047Y42211848D01*
X857142Y42545181D02*
X857142Y41688039D01*
X857142Y41688039D02*
X809523Y41592800D01*
X809523Y41592800D02*
X714285Y41545181D01*
X714285Y41545181D02*
X619047Y41545181D01*
X-95239Y41592800D02*
X-1Y41545181D01*
X-1Y41545181D02*
X190475Y41545181D01*
X190475Y41545181D02*
X285713Y41592800D01*
X285713Y41592800D02*
X333332Y41688039D01*
X333332Y41688039D02*
X333332Y42068991D01*
X333332Y42068991D02*
X285713Y42164229D01*
X285713Y42164229D02*
X190475Y42211848D01*
X190475Y42211848D02*
X-1Y42211848D01*
X-1Y42211848D02*
X-95239Y42164229D01*
X-95239Y42164229D02*
X-142858Y42068991D01*
X-142858Y42068991D02*
X-142858Y41973753D01*
X-142858Y41973753D02*
X333332Y41878515D01*
X-571430Y41545181D02*
X-571430Y42211848D01*
X-571430Y42021372D02*
X-619049Y42116610D01*
X-619049Y42116610D02*
X-666668Y42164229D01*
X-666668Y42164229D02*
X-761906Y42211848D01*
X-761906Y42211848D02*
X-857144Y42211848D01*
X-1095240Y42211848D02*
X-1333335Y41545181D01*
X-1571430Y42211848D02*
X-1333335Y41545181D01*
X-1333335Y41545181D02*
X-1238097Y41307086D01*
X-1238097Y41307086D02*
X-1190478Y41259467D01*
X-1190478Y41259467D02*
X-1095240Y41211848D01*
X-2714288Y41545181D02*
X-2714288Y42545181D01*
X-2714288Y42545181D02*
X-3095240Y42545181D01*
X-3095240Y42545181D02*
X-3190478Y42497562D01*
X-3190478Y42497562D02*
X-3238097Y42449943D01*
X-3238097Y42449943D02*
X-3285716Y42354705D01*
X-3285716Y42354705D02*
X-3285716Y42211848D01*
X-3285716Y42211848D02*
X-3238097Y42116610D01*
X-3238097Y42116610D02*
X-3190478Y42068991D01*
X-3190478Y42068991D02*
X-3095240Y42021372D01*
X-3095240Y42021372D02*
X-2714288Y42021372D01*
X-4142859Y41545181D02*
X-4142859Y42068991D01*
X-4142859Y42068991D02*
X-4095240Y42164229D01*
X-4095240Y42164229D02*
X-4000002Y42211848D01*
X-4000002Y42211848D02*
X-3809526Y42211848D01*
X-3809526Y42211848D02*
X-3714288Y42164229D01*
X-4142859Y41592800D02*
X-4047621Y41545181D01*
X-4047621Y41545181D02*
X-3809526Y41545181D01*
X-3809526Y41545181D02*
X-3714288Y41592800D01*
X-3714288Y41592800D02*
X-3666669Y41688039D01*
X-3666669Y41688039D02*
X-3666669Y41783277D01*
X-3666669Y41783277D02*
X-3714288Y41878515D01*
X-3714288Y41878515D02*
X-3809526Y41926134D01*
X-3809526Y41926134D02*
X-4047621Y41926134D01*
X-4047621Y41926134D02*
X-4142859Y41973753D01*
X-5047621Y41592800D02*
X-4952383Y41545181D01*
X-4952383Y41545181D02*
X-4761907Y41545181D01*
X-4761907Y41545181D02*
X-4666669Y41592800D01*
X-4666669Y41592800D02*
X-4619050Y41640420D01*
X-4619050Y41640420D02*
X-4571431Y41735658D01*
X-4571431Y41735658D02*
X-4571431Y42021372D01*
X-4571431Y42021372D02*
X-4619050Y42116610D01*
X-4619050Y42116610D02*
X-4666669Y42164229D01*
X-4666669Y42164229D02*
X-4761907Y42211848D01*
X-4761907Y42211848D02*
X-4952383Y42211848D01*
X-4952383Y42211848D02*
X-5047621Y42164229D01*
X-5476193Y41545181D02*
X-5476193Y42545181D01*
X-5571431Y41926134D02*
X-5857145Y41545181D01*
X-5857145Y42211848D02*
X-5476193Y41830896D01*
X3380952Y92765181D02*
X3380952Y93765181D01*
X3380952Y93765181D02*
X2809524Y92765181D01*
X2809524Y92765181D02*
X2809524Y93765181D01*
X2000000Y93288991D02*
X1857143Y93241372D01*
X1857143Y93241372D02*
X1809524Y93193753D01*
X1809524Y93193753D02*
X1761905Y93098515D01*
X1761905Y93098515D02*
X1761905Y92955658D01*
X1761905Y92955658D02*
X1809524Y92860420D01*
X1809524Y92860420D02*
X1857143Y92812800D01*
X1857143Y92812800D02*
X1952381Y92765181D01*
X1952381Y92765181D02*
X2333333Y92765181D01*
X2333333Y92765181D02*
X2333333Y93765181D01*
X2333333Y93765181D02*
X2000000Y93765181D01*
X2000000Y93765181D02*
X1904762Y93717562D01*
X1904762Y93717562D02*
X1857143Y93669943D01*
X1857143Y93669943D02*
X1809524Y93574705D01*
X1809524Y93574705D02*
X1809524Y93479467D01*
X1809524Y93479467D02*
X1857143Y93384229D01*
X1857143Y93384229D02*
X1904762Y93336610D01*
X1904762Y93336610D02*
X2000000Y93288991D01*
X2000000Y93288991D02*
X2333333Y93288991D01*
X1428571Y93765181D02*
X809524Y93765181D01*
X809524Y93765181D02*
X1142857Y93384229D01*
X1142857Y93384229D02*
X1000000Y93384229D01*
X1000000Y93384229D02*
X904762Y93336610D01*
X904762Y93336610D02*
X857143Y93288991D01*
X857143Y93288991D02*
X809524Y93193753D01*
X809524Y93193753D02*
X809524Y92955658D01*
X809524Y92955658D02*
X857143Y92860420D01*
X857143Y92860420D02*
X904762Y92812800D01*
X904762Y92812800D02*
X1000000Y92765181D01*
X1000000Y92765181D02*
X1285714Y92765181D01*
X1285714Y92765181D02*
X1380952Y92812800D01*
X1380952Y92812800D02*
X1428571Y92860420D01*
X619048Y92669943D02*
X-142857Y92669943D01*
X-380953Y92765181D02*
X-380953Y93765181D01*
X-380953Y93384229D02*
X-476191Y93431848D01*
X-476191Y93431848D02*
X-666667Y93431848D01*
X-666667Y93431848D02*
X-761905Y93384229D01*
X-761905Y93384229D02*
X-809524Y93336610D01*
X-809524Y93336610D02*
X-857143Y93241372D01*
X-857143Y93241372D02*
X-857143Y92955658D01*
X-857143Y92955658D02*
X-809524Y92860420D01*
X-809524Y92860420D02*
X-761905Y92812800D01*
X-761905Y92812800D02*
X-666667Y92765181D01*
X-666667Y92765181D02*
X-476191Y92765181D01*
X-476191Y92765181D02*
X-380953Y92812800D01*
X-1428572Y92765181D02*
X-1333334Y92812800D01*
X-1333334Y92812800D02*
X-1285715Y92860420D01*
X-1285715Y92860420D02*
X-1238096Y92955658D01*
X-1238096Y92955658D02*
X-1238096Y93241372D01*
X-1238096Y93241372D02*
X-1285715Y93336610D01*
X-1285715Y93336610D02*
X-1333334Y93384229D01*
X-1333334Y93384229D02*
X-1428572Y93431848D01*
X-1428572Y93431848D02*
X-1571429Y93431848D01*
X-1571429Y93431848D02*
X-1666667Y93384229D01*
X-1666667Y93384229D02*
X-1714286Y93336610D01*
X-1714286Y93336610D02*
X-1761905Y93241372D01*
X-1761905Y93241372D02*
X-1761905Y92955658D01*
X-1761905Y92955658D02*
X-1714286Y92860420D01*
X-1714286Y92860420D02*
X-1666667Y92812800D01*
X-1666667Y92812800D02*
X-1571429Y92765181D01*
X-1571429Y92765181D02*
X-1428572Y92765181D01*
X-2619048Y92765181D02*
X-2619048Y93765181D01*
X-2619048Y92812800D02*
X-2523810Y92765181D01*
X-2523810Y92765181D02*
X-2333334Y92765181D01*
X-2333334Y92765181D02*
X-2238096Y92812800D01*
X-2238096Y92812800D02*
X-2190477Y92860420D01*
X-2190477Y92860420D02*
X-2142858Y92955658D01*
X-2142858Y92955658D02*
X-2142858Y93241372D01*
X-2142858Y93241372D02*
X-2190477Y93336610D01*
X-2190477Y93336610D02*
X-2238096Y93384229D01*
X-2238096Y93384229D02*
X-2333334Y93431848D01*
X-2333334Y93431848D02*
X-2523810Y93431848D01*
X-2523810Y93431848D02*
X-2619048Y93384229D01*
X-3000001Y93431848D02*
X-3238096Y92765181D01*
X-3476191Y93431848D02*
X-3238096Y92765181D01*
X-3238096Y92765181D02*
X-3142858Y92527086D01*
X-3142858Y92527086D02*
X-3095239Y92479467D01*
X-3095239Y92479467D02*
X-3000001Y92431848D01*
X2785714Y91155181D02*
X3119047Y91631372D01*
X3357142Y91155181D02*
X3357142Y92155181D01*
X3357142Y92155181D02*
X2976190Y92155181D01*
X2976190Y92155181D02*
X2880952Y92107562D01*
X2880952Y92107562D02*
X2833333Y92059943D01*
X2833333Y92059943D02*
X2785714Y91964705D01*
X2785714Y91964705D02*
X2785714Y91821848D01*
X2785714Y91821848D02*
X2833333Y91726610D01*
X2833333Y91726610D02*
X2880952Y91678991D01*
X2880952Y91678991D02*
X2976190Y91631372D01*
X2976190Y91631372D02*
X3357142Y91631372D01*
X1976190Y91202800D02*
X2071428Y91155181D01*
X2071428Y91155181D02*
X2261904Y91155181D01*
X2261904Y91155181D02*
X2357142Y91202800D01*
X2357142Y91202800D02*
X2404761Y91298039D01*
X2404761Y91298039D02*
X2404761Y91678991D01*
X2404761Y91678991D02*
X2357142Y91774229D01*
X2357142Y91774229D02*
X2261904Y91821848D01*
X2261904Y91821848D02*
X2071428Y91821848D01*
X2071428Y91821848D02*
X1976190Y91774229D01*
X1976190Y91774229D02*
X1928571Y91678991D01*
X1928571Y91678991D02*
X1928571Y91583753D01*
X1928571Y91583753D02*
X2404761Y91488515D01*
X1595237Y91821848D02*
X1357142Y91155181D01*
X1357142Y91155181D02*
X1119047Y91821848D01*
X-214287Y92155181D02*
X-309525Y92155181D01*
X-309525Y92155181D02*
X-404763Y92107562D01*
X-404763Y92107562D02*
X-452382Y92059943D01*
X-452382Y92059943D02*
X-500001Y91964705D01*
X-500001Y91964705D02*
X-547620Y91774229D01*
X-547620Y91774229D02*
X-547620Y91536134D01*
X-547620Y91536134D02*
X-500001Y91345658D01*
X-500001Y91345658D02*
X-452382Y91250420D01*
X-452382Y91250420D02*
X-404763Y91202800D01*
X-404763Y91202800D02*
X-309525Y91155181D01*
X-309525Y91155181D02*
X-214287Y91155181D01*
X-214287Y91155181D02*
X-119049Y91202800D01*
X-119049Y91202800D02*
X-71430Y91250420D01*
X-71430Y91250420D02*
X-23811Y91345658D01*
X-23811Y91345658D02*
X23808Y91536134D01*
X23808Y91536134D02*
X23808Y91774229D01*
X23808Y91774229D02*
X-23811Y91964705D01*
X-23811Y91964705D02*
X-71430Y92059943D01*
X-71430Y92059943D02*
X-119049Y92107562D01*
X-119049Y92107562D02*
X-214287Y92155181D01*
X-976192Y91250420D02*
X-1023811Y91202800D01*
X-1023811Y91202800D02*
X-976192Y91155181D01*
X-976192Y91155181D02*
X-928573Y91202800D01*
X-928573Y91202800D02*
X-976192Y91250420D01*
X-976192Y91250420D02*
X-976192Y91155181D01*
X-1642858Y92155181D02*
X-1738096Y92155181D01*
X-1738096Y92155181D02*
X-1833334Y92107562D01*
X-1833334Y92107562D02*
X-1880953Y92059943D01*
X-1880953Y92059943D02*
X-1928572Y91964705D01*
X-1928572Y91964705D02*
X-1976191Y91774229D01*
X-1976191Y91774229D02*
X-1976191Y91536134D01*
X-1976191Y91536134D02*
X-1928572Y91345658D01*
X-1928572Y91345658D02*
X-1880953Y91250420D01*
X-1880953Y91250420D02*
X-1833334Y91202800D01*
X-1833334Y91202800D02*
X-1738096Y91155181D01*
X-1738096Y91155181D02*
X-1642858Y91155181D01*
X-1642858Y91155181D02*
X-1547620Y91202800D01*
X-1547620Y91202800D02*
X-1500001Y91250420D01*
X-1500001Y91250420D02*
X-1452382Y91345658D01*
X-1452382Y91345658D02*
X-1404763Y91536134D01*
X-1404763Y91536134D02*
X-1404763Y91774229D01*
X-1404763Y91774229D02*
X-1452382Y91964705D01*
X-1452382Y91964705D02*
X-1500001Y92059943D01*
X-1500001Y92059943D02*
X-1547620Y92107562D01*
X-1547620Y92107562D02*
X-1642858Y92155181D01*
X-2404763Y91250420D02*
X-2452382Y91202800D01*
X-2452382Y91202800D02*
X-2404763Y91155181D01*
X-2404763Y91155181D02*
X-2357144Y91202800D01*
X-2357144Y91202800D02*
X-2404763Y91250420D01*
X-2404763Y91250420D02*
X-2404763Y91155181D01*
X-3357143Y92155181D02*
X-2880953Y92155181D01*
X-2880953Y92155181D02*
X-2833334Y91678991D01*
X-2833334Y91678991D02*
X-2880953Y91726610D01*
X-2880953Y91726610D02*
X-2976191Y91774229D01*
X-2976191Y91774229D02*
X-3214286Y91774229D01*
X-3214286Y91774229D02*
X-3309524Y91726610D01*
X-3309524Y91726610D02*
X-3357143Y91678991D01*
X-3357143Y91678991D02*
X-3404762Y91583753D01*
X-3404762Y91583753D02*
X-3404762Y91345658D01*
X-3404762Y91345658D02*
X-3357143Y91250420D01*
X-3357143Y91250420D02*
X-3309524Y91202800D01*
X-3309524Y91202800D02*
X-3214286Y91155181D01*
X-3214286Y91155181D02*
X-2976191Y91155181D01*
X-2976191Y91155181D02*
X-2880953Y91202800D01*
X-2880953Y91202800D02*
X-2833334Y91250420D01*
X10190477Y88458991D02*
X10523810Y88458991D01*
X10523810Y87935181D02*
X10523810Y88935181D01*
X10523810Y88935181D02*
X10047620Y88935181D01*
X9523810Y87935181D02*
X9619048Y87982800D01*
X9619048Y87982800D02*
X9666667Y88030420D01*
X9666667Y88030420D02*
X9714286Y88125658D01*
X9714286Y88125658D02*
X9714286Y88411372D01*
X9714286Y88411372D02*
X9666667Y88506610D01*
X9666667Y88506610D02*
X9619048Y88554229D01*
X9619048Y88554229D02*
X9523810Y88601848D01*
X9523810Y88601848D02*
X9380953Y88601848D01*
X9380953Y88601848D02*
X9285715Y88554229D01*
X9285715Y88554229D02*
X9238096Y88506610D01*
X9238096Y88506610D02*
X9190477Y88411372D01*
X9190477Y88411372D02*
X9190477Y88125658D01*
X9190477Y88125658D02*
X9238096Y88030420D01*
X9238096Y88030420D02*
X9285715Y87982800D01*
X9285715Y87982800D02*
X9380953Y87935181D01*
X9380953Y87935181D02*
X9523810Y87935181D01*
X8761905Y87935181D02*
X8761905Y88601848D01*
X8761905Y88411372D02*
X8714286Y88506610D01*
X8714286Y88506610D02*
X8666667Y88554229D01*
X8666667Y88554229D02*
X8571429Y88601848D01*
X8571429Y88601848D02*
X8476191Y88601848D01*
X6809524Y87935181D02*
X7142857Y88411372D01*
X7380952Y87935181D02*
X7380952Y88935181D01*
X7380952Y88935181D02*
X7000000Y88935181D01*
X7000000Y88935181D02*
X6904762Y88887562D01*
X6904762Y88887562D02*
X6857143Y88839943D01*
X6857143Y88839943D02*
X6809524Y88744705D01*
X6809524Y88744705D02*
X6809524Y88601848D01*
X6809524Y88601848D02*
X6857143Y88506610D01*
X6857143Y88506610D02*
X6904762Y88458991D01*
X6904762Y88458991D02*
X7000000Y88411372D01*
X7000000Y88411372D02*
X7380952Y88411372D01*
X6000000Y87982800D02*
X6095238Y87935181D01*
X6095238Y87935181D02*
X6285714Y87935181D01*
X6285714Y87935181D02*
X6380952Y87982800D01*
X6380952Y87982800D02*
X6428571Y88078039D01*
X6428571Y88078039D02*
X6428571Y88458991D01*
X6428571Y88458991D02*
X6380952Y88554229D01*
X6380952Y88554229D02*
X6285714Y88601848D01*
X6285714Y88601848D02*
X6095238Y88601848D01*
X6095238Y88601848D02*
X6000000Y88554229D01*
X6000000Y88554229D02*
X5952381Y88458991D01*
X5952381Y88458991D02*
X5952381Y88363753D01*
X5952381Y88363753D02*
X6428571Y88268515D01*
X5571428Y87982800D02*
X5476190Y87935181D01*
X5476190Y87935181D02*
X5285714Y87935181D01*
X5285714Y87935181D02*
X5190476Y87982800D01*
X5190476Y87982800D02*
X5142857Y88078039D01*
X5142857Y88078039D02*
X5142857Y88125658D01*
X5142857Y88125658D02*
X5190476Y88220896D01*
X5190476Y88220896D02*
X5285714Y88268515D01*
X5285714Y88268515D02*
X5428571Y88268515D01*
X5428571Y88268515D02*
X5523809Y88316134D01*
X5523809Y88316134D02*
X5571428Y88411372D01*
X5571428Y88411372D02*
X5571428Y88458991D01*
X5571428Y88458991D02*
X5523809Y88554229D01*
X5523809Y88554229D02*
X5428571Y88601848D01*
X5428571Y88601848D02*
X5285714Y88601848D01*
X5285714Y88601848D02*
X5190476Y88554229D01*
X4333333Y87982800D02*
X4428571Y87935181D01*
X4428571Y87935181D02*
X4619047Y87935181D01*
X4619047Y87935181D02*
X4714285Y87982800D01*
X4714285Y87982800D02*
X4761904Y88078039D01*
X4761904Y88078039D02*
X4761904Y88458991D01*
X4761904Y88458991D02*
X4714285Y88554229D01*
X4714285Y88554229D02*
X4619047Y88601848D01*
X4619047Y88601848D02*
X4428571Y88601848D01*
X4428571Y88601848D02*
X4333333Y88554229D01*
X4333333Y88554229D02*
X4285714Y88458991D01*
X4285714Y88458991D02*
X4285714Y88363753D01*
X4285714Y88363753D02*
X4761904Y88268515D01*
X3428571Y87935181D02*
X3428571Y88458991D01*
X3428571Y88458991D02*
X3476190Y88554229D01*
X3476190Y88554229D02*
X3571428Y88601848D01*
X3571428Y88601848D02*
X3761904Y88601848D01*
X3761904Y88601848D02*
X3857142Y88554229D01*
X3428571Y87982800D02*
X3523809Y87935181D01*
X3523809Y87935181D02*
X3761904Y87935181D01*
X3761904Y87935181D02*
X3857142Y87982800D01*
X3857142Y87982800D02*
X3904761Y88078039D01*
X3904761Y88078039D02*
X3904761Y88173277D01*
X3904761Y88173277D02*
X3857142Y88268515D01*
X3857142Y88268515D02*
X3761904Y88316134D01*
X3761904Y88316134D02*
X3523809Y88316134D01*
X3523809Y88316134D02*
X3428571Y88363753D01*
X2952380Y87935181D02*
X2952380Y88601848D01*
X2952380Y88411372D02*
X2904761Y88506610D01*
X2904761Y88506610D02*
X2857142Y88554229D01*
X2857142Y88554229D02*
X2761904Y88601848D01*
X2761904Y88601848D02*
X2666666Y88601848D01*
X1904761Y87982800D02*
X1999999Y87935181D01*
X1999999Y87935181D02*
X2190475Y87935181D01*
X2190475Y87935181D02*
X2285713Y87982800D01*
X2285713Y87982800D02*
X2333332Y88030420D01*
X2333332Y88030420D02*
X2380951Y88125658D01*
X2380951Y88125658D02*
X2380951Y88411372D01*
X2380951Y88411372D02*
X2333332Y88506610D01*
X2333332Y88506610D02*
X2285713Y88554229D01*
X2285713Y88554229D02*
X2190475Y88601848D01*
X2190475Y88601848D02*
X1999999Y88601848D01*
X1999999Y88601848D02*
X1904761Y88554229D01*
X1476189Y87935181D02*
X1476189Y88935181D01*
X1047618Y87935181D02*
X1047618Y88458991D01*
X1047618Y88458991D02*
X1095237Y88554229D01*
X1095237Y88554229D02*
X1190475Y88601848D01*
X1190475Y88601848D02*
X1333332Y88601848D01*
X1333332Y88601848D02*
X1428570Y88554229D01*
X1428570Y88554229D02*
X1476189Y88506610D01*
X-619049Y87935181D02*
X-619049Y88458991D01*
X-619049Y88458991D02*
X-571430Y88554229D01*
X-571430Y88554229D02*
X-476192Y88601848D01*
X-476192Y88601848D02*
X-285716Y88601848D01*
X-285716Y88601848D02*
X-190478Y88554229D01*
X-619049Y87982800D02*
X-523811Y87935181D01*
X-523811Y87935181D02*
X-285716Y87935181D01*
X-285716Y87935181D02*
X-190478Y87982800D01*
X-190478Y87982800D02*
X-142859Y88078039D01*
X-142859Y88078039D02*
X-142859Y88173277D01*
X-142859Y88173277D02*
X-190478Y88268515D01*
X-190478Y88268515D02*
X-285716Y88316134D01*
X-285716Y88316134D02*
X-523811Y88316134D01*
X-523811Y88316134D02*
X-619049Y88363753D01*
X-1095240Y88601848D02*
X-1095240Y87935181D01*
X-1095240Y88506610D02*
X-1142859Y88554229D01*
X-1142859Y88554229D02*
X-1238097Y88601848D01*
X-1238097Y88601848D02*
X-1380954Y88601848D01*
X-1380954Y88601848D02*
X-1476192Y88554229D01*
X-1476192Y88554229D02*
X-1523811Y88458991D01*
X-1523811Y88458991D02*
X-1523811Y87935181D01*
X-2428573Y87935181D02*
X-2428573Y88935181D01*
X-2428573Y87982800D02*
X-2333335Y87935181D01*
X-2333335Y87935181D02*
X-2142859Y87935181D01*
X-2142859Y87935181D02*
X-2047621Y87982800D01*
X-2047621Y87982800D02*
X-2000002Y88030420D01*
X-2000002Y88030420D02*
X-1952383Y88125658D01*
X-1952383Y88125658D02*
X-1952383Y88411372D01*
X-1952383Y88411372D02*
X-2000002Y88506610D01*
X-2000002Y88506610D02*
X-2047621Y88554229D01*
X-2047621Y88554229D02*
X-2142859Y88601848D01*
X-2142859Y88601848D02*
X-2333335Y88601848D01*
X-2333335Y88601848D02*
X-2428573Y88554229D01*
X-3666669Y88458991D02*
X-4000002Y88458991D01*
X-4142859Y87935181D02*
X-3666669Y87935181D01*
X-3666669Y87935181D02*
X-3666669Y88935181D01*
X-3666669Y88935181D02*
X-4142859Y88935181D01*
X-5000002Y87935181D02*
X-5000002Y88935181D01*
X-5000002Y87982800D02*
X-4904764Y87935181D01*
X-4904764Y87935181D02*
X-4714288Y87935181D01*
X-4714288Y87935181D02*
X-4619050Y87982800D01*
X-4619050Y87982800D02*
X-4571431Y88030420D01*
X-4571431Y88030420D02*
X-4523812Y88125658D01*
X-4523812Y88125658D02*
X-4523812Y88411372D01*
X-4523812Y88411372D02*
X-4571431Y88506610D01*
X-4571431Y88506610D02*
X-4619050Y88554229D01*
X-4619050Y88554229D02*
X-4714288Y88601848D01*
X-4714288Y88601848D02*
X-4904764Y88601848D01*
X-4904764Y88601848D02*
X-5000002Y88554229D01*
X-5904764Y88601848D02*
X-5904764Y87935181D01*
X-5476193Y88601848D02*
X-5476193Y88078039D01*
X-5476193Y88078039D02*
X-5523812Y87982800D01*
X-5523812Y87982800D02*
X-5619050Y87935181D01*
X-5619050Y87935181D02*
X-5761907Y87935181D01*
X-5761907Y87935181D02*
X-5857145Y87982800D01*
X-5857145Y87982800D02*
X-5904764Y88030420D01*
X-6809526Y87982800D02*
X-6714288Y87935181D01*
X-6714288Y87935181D02*
X-6523812Y87935181D01*
X-6523812Y87935181D02*
X-6428574Y87982800D01*
X-6428574Y87982800D02*
X-6380955Y88030420D01*
X-6380955Y88030420D02*
X-6333336Y88125658D01*
X-6333336Y88125658D02*
X-6333336Y88411372D01*
X-6333336Y88411372D02*
X-6380955Y88506610D01*
X-6380955Y88506610D02*
X-6428574Y88554229D01*
X-6428574Y88554229D02*
X-6523812Y88601848D01*
X-6523812Y88601848D02*
X-6714288Y88601848D01*
X-6714288Y88601848D02*
X-6809526Y88554229D01*
X-7666669Y87935181D02*
X-7666669Y88458991D01*
X-7666669Y88458991D02*
X-7619050Y88554229D01*
X-7619050Y88554229D02*
X-7523812Y88601848D01*
X-7523812Y88601848D02*
X-7333336Y88601848D01*
X-7333336Y88601848D02*
X-7238098Y88554229D01*
X-7666669Y87982800D02*
X-7571431Y87935181D01*
X-7571431Y87935181D02*
X-7333336Y87935181D01*
X-7333336Y87935181D02*
X-7238098Y87982800D01*
X-7238098Y87982800D02*
X-7190479Y88078039D01*
X-7190479Y88078039D02*
X-7190479Y88173277D01*
X-7190479Y88173277D02*
X-7238098Y88268515D01*
X-7238098Y88268515D02*
X-7333336Y88316134D01*
X-7333336Y88316134D02*
X-7571431Y88316134D01*
X-7571431Y88316134D02*
X-7666669Y88363753D01*
X-8000003Y88601848D02*
X-8380955Y88601848D01*
X-8142860Y88935181D02*
X-8142860Y88078039D01*
X-8142860Y88078039D02*
X-8190479Y87982800D01*
X-8190479Y87982800D02*
X-8285717Y87935181D01*
X-8285717Y87935181D02*
X-8380955Y87935181D01*
X-8714289Y87935181D02*
X-8714289Y88601848D01*
X-8714289Y88935181D02*
X-8666670Y88887562D01*
X-8666670Y88887562D02*
X-8714289Y88839943D01*
X-8714289Y88839943D02*
X-8761908Y88887562D01*
X-8761908Y88887562D02*
X-8714289Y88935181D01*
X-8714289Y88935181D02*
X-8714289Y88839943D01*
X-9333336Y87935181D02*
X-9238098Y87982800D01*
X-9238098Y87982800D02*
X-9190479Y88030420D01*
X-9190479Y88030420D02*
X-9142860Y88125658D01*
X-9142860Y88125658D02*
X-9142860Y88411372D01*
X-9142860Y88411372D02*
X-9190479Y88506610D01*
X-9190479Y88506610D02*
X-9238098Y88554229D01*
X-9238098Y88554229D02*
X-9333336Y88601848D01*
X-9333336Y88601848D02*
X-9476193Y88601848D01*
X-9476193Y88601848D02*
X-9571431Y88554229D01*
X-9571431Y88554229D02*
X-9619050Y88506610D01*
X-9619050Y88506610D02*
X-9666669Y88411372D01*
X-9666669Y88411372D02*
X-9666669Y88125658D01*
X-9666669Y88125658D02*
X-9619050Y88030420D01*
X-9619050Y88030420D02*
X-9571431Y87982800D01*
X-9571431Y87982800D02*
X-9476193Y87935181D01*
X-9476193Y87935181D02*
X-9333336Y87935181D01*
X-10095241Y88601848D02*
X-10095241Y87935181D01*
X-10095241Y88506610D02*
X-10142860Y88554229D01*
X-10142860Y88554229D02*
X-10238098Y88601848D01*
X-10238098Y88601848D02*
X-10380955Y88601848D01*
X-10380955Y88601848D02*
X-10476193Y88554229D01*
X-10476193Y88554229D02*
X-10523812Y88458991D01*
X-10523812Y88458991D02*
X-10523812Y87935181D01*
X1452380Y87325181D02*
X1261904Y87325181D01*
X1261904Y87325181D02*
X1166666Y87277562D01*
X1166666Y87277562D02*
X1071428Y87182324D01*
X1071428Y87182324D02*
X1023809Y86991848D01*
X1023809Y86991848D02*
X1023809Y86658515D01*
X1023809Y86658515D02*
X1071428Y86468039D01*
X1071428Y86468039D02*
X1166666Y86372800D01*
X1166666Y86372800D02*
X1261904Y86325181D01*
X1261904Y86325181D02*
X1452380Y86325181D01*
X1452380Y86325181D02*
X1547618Y86372800D01*
X1547618Y86372800D02*
X1642856Y86468039D01*
X1642856Y86468039D02*
X1690475Y86658515D01*
X1690475Y86658515D02*
X1690475Y86991848D01*
X1690475Y86991848D02*
X1642856Y87182324D01*
X1642856Y87182324D02*
X1547618Y87277562D01*
X1547618Y87277562D02*
X1452380Y87325181D01*
X595237Y86325181D02*
X595237Y87325181D01*
X595237Y87325181D02*
X23809Y86325181D01*
X23809Y86325181D02*
X23809Y87325181D01*
X-928572Y86325181D02*
X-452382Y86325181D01*
X-452382Y86325181D02*
X-452382Y87325181D01*
X-1452382Y86801372D02*
X-1452382Y86325181D01*
X-1119049Y87325181D02*
X-1452382Y86801372D01*
X-1452382Y86801372D02*
X-1785715Y87325181D01*
X6809524Y11545181D02*
X6809524Y12545181D01*
X6809524Y12545181D02*
X6238096Y11545181D01*
X6238096Y11545181D02*
X6238096Y12545181D01*
X5761905Y11545181D02*
X5761905Y12211848D01*
X5761905Y12545181D02*
X5809524Y12497562D01*
X5809524Y12497562D02*
X5761905Y12449943D01*
X5761905Y12449943D02*
X5714286Y12497562D01*
X5714286Y12497562D02*
X5761905Y12545181D01*
X5761905Y12545181D02*
X5761905Y12449943D01*
X5285715Y11545181D02*
X5285715Y12545181D01*
X5285715Y12545181D02*
X4952382Y11830896D01*
X4952382Y11830896D02*
X4619049Y12545181D01*
X4619049Y12545181D02*
X4619049Y11545181D01*
X4142858Y11545181D02*
X4142858Y12545181D01*
X4142858Y12068991D02*
X3571430Y12068991D01*
X3571430Y11545181D02*
X3571430Y12545181D01*
X2000001Y12068991D02*
X1857144Y12021372D01*
X1857144Y12021372D02*
X1809525Y11973753D01*
X1809525Y11973753D02*
X1761906Y11878515D01*
X1761906Y11878515D02*
X1761906Y11735658D01*
X1761906Y11735658D02*
X1809525Y11640420D01*
X1809525Y11640420D02*
X1857144Y11592800D01*
X1857144Y11592800D02*
X1952382Y11545181D01*
X1952382Y11545181D02*
X2333334Y11545181D01*
X2333334Y11545181D02*
X2333334Y12545181D01*
X2333334Y12545181D02*
X2000001Y12545181D01*
X2000001Y12545181D02*
X1904763Y12497562D01*
X1904763Y12497562D02*
X1857144Y12449943D01*
X1857144Y12449943D02*
X1809525Y12354705D01*
X1809525Y12354705D02*
X1809525Y12259467D01*
X1809525Y12259467D02*
X1857144Y12164229D01*
X1857144Y12164229D02*
X1904763Y12116610D01*
X1904763Y12116610D02*
X2000001Y12068991D01*
X2000001Y12068991D02*
X2333334Y12068991D01*
X904763Y11545181D02*
X904763Y12068991D01*
X904763Y12068991D02*
X952382Y12164229D01*
X952382Y12164229D02*
X1047620Y12211848D01*
X1047620Y12211848D02*
X1238096Y12211848D01*
X1238096Y12211848D02*
X1333334Y12164229D01*
X904763Y11592800D02*
X1000001Y11545181D01*
X1000001Y11545181D02*
X1238096Y11545181D01*
X1238096Y11545181D02*
X1333334Y11592800D01*
X1333334Y11592800D02*
X1380953Y11688039D01*
X1380953Y11688039D02*
X1380953Y11783277D01*
X1380953Y11783277D02*
X1333334Y11878515D01*
X1333334Y11878515D02*
X1238096Y11926134D01*
X1238096Y11926134D02*
X1000001Y11926134D01*
X1000001Y11926134D02*
X904763Y11973753D01*
X571429Y12211848D02*
X190477Y12211848D01*
X428572Y12545181D02*
X428572Y11688039D01*
X428572Y11688039D02*
X380953Y11592800D01*
X380953Y11592800D02*
X285715Y11545181D01*
X285715Y11545181D02*
X190477Y11545181D01*
X0Y12211848D02*
X-380952Y12211848D01*
X-142857Y12545181D02*
X-142857Y11688039D01*
X-142857Y11688039D02*
X-190476Y11592800D01*
X-190476Y11592800D02*
X-285714Y11545181D01*
X-285714Y11545181D02*
X-380952Y11545181D01*
X-1095238Y11592800D02*
X-1000000Y11545181D01*
X-1000000Y11545181D02*
X-809524Y11545181D01*
X-809524Y11545181D02*
X-714286Y11592800D01*
X-714286Y11592800D02*
X-666667Y11688039D01*
X-666667Y11688039D02*
X-666667Y12068991D01*
X-666667Y12068991D02*
X-714286Y12164229D01*
X-714286Y12164229D02*
X-809524Y12211848D01*
X-809524Y12211848D02*
X-1000000Y12211848D01*
X-1000000Y12211848D02*
X-1095238Y12164229D01*
X-1095238Y12164229D02*
X-1142857Y12068991D01*
X-1142857Y12068991D02*
X-1142857Y11973753D01*
X-1142857Y11973753D02*
X-666667Y11878515D01*
X-1571429Y11545181D02*
X-1571429Y12211848D01*
X-1571429Y12021372D02*
X-1619048Y12116610D01*
X-1619048Y12116610D02*
X-1666667Y12164229D01*
X-1666667Y12164229D02*
X-1761905Y12211848D01*
X-1761905Y12211848D02*
X-1857143Y12211848D01*
X-2095239Y12211848D02*
X-2333334Y11545181D01*
X-2571429Y12211848D02*
X-2333334Y11545181D01*
X-2333334Y11545181D02*
X-2238096Y11307086D01*
X-2238096Y11307086D02*
X-2190477Y11259467D01*
X-2190477Y11259467D02*
X-2095239Y11211848D01*
X-3714287Y11545181D02*
X-3714287Y12545181D01*
X-3714287Y12545181D02*
X-4095239Y12545181D01*
X-4095239Y12545181D02*
X-4190477Y12497562D01*
X-4190477Y12497562D02*
X-4238096Y12449943D01*
X-4238096Y12449943D02*
X-4285715Y12354705D01*
X-4285715Y12354705D02*
X-4285715Y12211848D01*
X-4285715Y12211848D02*
X-4238096Y12116610D01*
X-4238096Y12116610D02*
X-4190477Y12068991D01*
X-4190477Y12068991D02*
X-4095239Y12021372D01*
X-4095239Y12021372D02*
X-3714287Y12021372D01*
X-5142858Y11545181D02*
X-5142858Y12068991D01*
X-5142858Y12068991D02*
X-5095239Y12164229D01*
X-5095239Y12164229D02*
X-5000001Y12211848D01*
X-5000001Y12211848D02*
X-4809525Y12211848D01*
X-4809525Y12211848D02*
X-4714287Y12164229D01*
X-5142858Y11592800D02*
X-5047620Y11545181D01*
X-5047620Y11545181D02*
X-4809525Y11545181D01*
X-4809525Y11545181D02*
X-4714287Y11592800D01*
X-4714287Y11592800D02*
X-4666668Y11688039D01*
X-4666668Y11688039D02*
X-4666668Y11783277D01*
X-4666668Y11783277D02*
X-4714287Y11878515D01*
X-4714287Y11878515D02*
X-4809525Y11926134D01*
X-4809525Y11926134D02*
X-5047620Y11926134D01*
X-5047620Y11926134D02*
X-5142858Y11973753D01*
X-6047620Y11592800D02*
X-5952382Y11545181D01*
X-5952382Y11545181D02*
X-5761906Y11545181D01*
X-5761906Y11545181D02*
X-5666668Y11592800D01*
X-5666668Y11592800D02*
X-5619049Y11640420D01*
X-5619049Y11640420D02*
X-5571430Y11735658D01*
X-5571430Y11735658D02*
X-5571430Y12021372D01*
X-5571430Y12021372D02*
X-5619049Y12116610D01*
X-5619049Y12116610D02*
X-5666668Y12164229D01*
X-5666668Y12164229D02*
X-5761906Y12211848D01*
X-5761906Y12211848D02*
X-5952382Y12211848D01*
X-5952382Y12211848D02*
X-6047620Y12164229D01*
X-6476192Y11545181D02*
X-6476192Y12545181D01*
X-6571430Y11926134D02*
X-6857144Y11545181D01*
X-6857144Y12211848D02*
X-6476192Y11830896D01*
M02*
