M48
; DRILL file {KiCad (6.0.7)} date Tue Aug  2 15:10:48 2022
; FORMAT={-:-/ absolute / inch / decimal}
; #@! TF.CreationDate,2022-08-02T15:10:48+01:00
; #@! TF.GenerationSoftware,Kicad,Pcbnew,(6.0.7)
; #@! TF.FileFunction,Plated,1,2,PTH
FMAT,2
INCH
; #@! TA.AperFunction,Plated,PTH,ViaDrill
T1C0.0118
%
G90
G05
T1
X-2.126Y5.6299
X-2.126Y3.0315
X-2.0276Y5.6299
X-2.0276Y3.0315
X-1.9882Y6.3583
X-1.9488Y6.3189
X-1.9291Y5.6299
X-1.9291Y3.0315
X-1.9114Y6.2795
X-1.8307Y5.6299
X-1.8307Y5.3937
X-1.8307Y3.0315
X-1.7717Y7.5197
X-1.7717Y7.0472
X-1.7717Y4.7638
X-1.7717Y2.2047
X-1.7323Y4.8622
X-1.6929Y4.9606
X-1.6732Y7.5197
X-1.6732Y7.0472
X-1.6732Y2.2047
X-1.6535Y5.0591
X-1.5945Y5.3346
X-1.5945Y5.2362
X-1.5748Y7.5197
X-1.5748Y7.0472
X-1.5748Y5.3543
X-1.5748Y2.2047
X-1.5551Y5.2756
X-1.5157Y5.315
X-1.4764Y7.5197
X-1.4764Y7.0472
X-1.4764Y5.3543
X-1.4764Y2.2047
X-1.437Y5.3937
X-1.378Y7.0472
X-1.3748Y7.0898
X-1.2803Y2.3417
X-1.2402Y2.3425
X-0.4921Y7.4606
X-0.3134Y7.6591
X-0.274Y7.6591
X0.2772Y7.6591
X0.3134Y7.6591
X0.4921Y7.4606
X1.1024Y5.1575
X1.1024Y5.0591
X1.1024Y4.9606
X1.1024Y4.8622
X1.1024Y4.7638
X1.2402Y2.3425
X1.2787Y2.3417
X1.2795Y5.7087
X1.2795Y5.6693
X1.2795Y5.6299
X1.3386Y5.7087
X1.3386Y5.6693
X1.3386Y5.6299
X1.3748Y7.0835
X1.378Y7.0472
X1.3976Y6.8701
X1.437Y6.8307
X1.4764Y7.5197
X1.4764Y7.0472
X1.4764Y6.8701
X1.4764Y2.2047
X1.5567Y6.6354
X1.5748Y7.5197
X1.5748Y7.0472
X1.5748Y5.2953
X1.5748Y2.2047
X1.5945Y6.6339
X1.6134Y5.2945
X1.6535Y5.0591
X1.6732Y7.5197
X1.6732Y7.0472
X1.6732Y2.2047
X1.6929Y4.9606
X1.7323Y4.8622
X1.7717Y7.5197
X1.7717Y7.0472
X1.7717Y4.7638
X1.7717Y2.2047
X1.8307Y5.6299
X1.8307Y3.0315
X1.8701Y6.5354
X1.9114Y6.439
X1.9291Y5.6299
X1.9291Y3.0315
X1.9488Y6.3386
X2.0276Y5.6299
X2.0276Y3.0315
X2.126Y5.6299
X2.126Y5.3937
X2.126Y3.0315
T0
M30
