G04 #@! TF.GenerationSoftware,KiCad,Pcbnew,(5.99.0-11065-g2a3d8e22b6)*
G04 #@! TF.CreationDate,2021-07-06T13:27:12+01:00*
G04 #@! TF.ProjectId,NB3_body,4e42335f-626f-4647-992e-6b696361645f,0.0.1*
G04 #@! TF.SameCoordinates,PX76bb820PYd4ab5c0*
G04 #@! TF.FileFunction,Profile,NP*
%FSLAX46Y46*%
G04 Gerber Fmt 4.6, Leading zero omitted, Abs format (unit mm)*
G04 Created by KiCad (PCBNEW (5.99.0-11065-g2a3d8e22b6)) date 2021-07-06 13:27:12*
%MOMM*%
%LPD*%
G01*
G04 APERTURE LIST*
G04 #@! TA.AperFunction,Profile*
%ADD10C,0.130000*%
G04 #@! TD*
G04 #@! TA.AperFunction,Profile*
%ADD11C,0.050000*%
G04 #@! TD*
G04 APERTURE END LIST*
D10*
X-52653243Y187858300D02*
X-54160267Y186456446D01*
X89302691Y106587975D02*
X89278568Y102879197D01*
X69000000Y20000000D02*
X76000000Y20000000D01*
X-76000000Y20000000D02*
X-77000000Y21000000D01*
X0Y197000000D02*
X3364185Y197802415D01*
X76216962Y814493D02*
X71034296Y456356D01*
X71034296Y456356D02*
X65330759Y226433D01*
X-76000000Y36000000D02*
X-69000000Y36000000D01*
X-77235001Y75243896D02*
X-74060749Y73081539D01*
X-78773884Y133819762D02*
X-81091826Y130800882D01*
X59782652Y67042120D02*
X62493500Y66249093D01*
X84298328Y84750820D02*
X82330355Y81208248D01*
X47686415Y191585006D02*
X49416318Y190422580D01*
D11*
X-7500000Y142000000D02*
X-7500000Y150000000D01*
D10*
X-57117411Y68009605D02*
X-59782652Y67042120D01*
X54160267Y186456446D02*
X55592997Y184974783D01*
X-79991536Y77952799D02*
X-77235001Y75243896D01*
X51671575Y148839948D02*
X55817313Y148069002D01*
X92686846Y55680628D02*
X94382587Y53380517D01*
X-92686846Y55680628D02*
X-94382587Y53380517D01*
X-87262350Y91919068D02*
X-85942327Y88321093D01*
X87508051Y117600054D02*
X88398222Y114018520D01*
X-60767561Y175922031D02*
X-61262518Y173709907D01*
X-70247239Y141786545D02*
X-73316465Y139416262D01*
X-51071927Y189180345D02*
X-52653243Y187858300D01*
X-28000000Y0D02*
X28000000Y0D01*
X-66962710Y143836960D02*
X-70247239Y141786545D01*
X89278568Y102879197D02*
X88930471Y99198119D01*
X32976254Y197566670D02*
X35413638Y196934347D01*
X-82330355Y81208248D02*
X-79991536Y77952799D01*
X-98932416Y43723024D02*
X-99511591Y41194388D01*
X-86641023Y61235928D02*
X-88794882Y59667822D01*
X-84298328Y84750820D02*
X-82330355Y81208248D01*
X-39940574Y195449313D02*
X-42030125Y194596603D01*
X76000000Y20000000D02*
X77000000Y21000000D01*
D11*
X-7500000Y142000000D02*
X-5500000Y140000000D01*
D10*
X73792954Y64821549D02*
X76639737Y64671747D01*
X55768945Y154592604D02*
X53360510Y152683879D01*
X-88930471Y99198119D02*
X-88258398Y95544743D01*
X-98129929Y46205955D02*
X-98932416Y43723024D01*
X-85942327Y88321093D02*
X-84298328Y84750820D01*
D11*
X5500000Y152000000D02*
X7500000Y150000000D01*
D10*
X70899681Y64916750D02*
X73792954Y64821549D01*
X-60528046Y161167968D02*
X-59352713Y158834648D01*
X-28000000Y0D02*
X-29000000Y1000000D01*
X-76216962Y814493D02*
X-71034296Y456356D01*
X9884157Y198936198D02*
X13039945Y199267564D01*
D11*
X-5500000Y152000000D02*
X5500000Y152000000D01*
D10*
X45094918Y305936D02*
X37307894Y588861D01*
X73316465Y139416262D02*
X76170388Y136726112D01*
X-96600539Y9246677D02*
X-94461784Y6826540D01*
X-47686415Y191585006D02*
X-49416318Y190422580D01*
X-27753651Y198610932D02*
X-30422925Y198125532D01*
X-59782652Y67042120D02*
X-62493500Y66249093D01*
X-24968433Y199022869D02*
X-27753651Y198610932D01*
X-90810157Y57816055D02*
X-92686846Y55680628D01*
X-65249954Y65630522D02*
X-68052014Y65186408D01*
X-45094918Y305936D02*
X-37307894Y588861D01*
X-61573845Y171362061D02*
X-61701542Y168878493D01*
X-68000000Y35000000D02*
X-68000000Y21000000D01*
X76639737Y64671747D02*
X79347936Y64238283D01*
X-51923747Y70467943D02*
X-54497776Y69151545D01*
X98129929Y46205955D02*
X98932416Y43723024D01*
X-95855014Y51034702D02*
X-97104128Y48643181D01*
X99511591Y41194388D02*
X99867452Y38620046D01*
X6658904Y198447814D02*
X9884157Y198936198D01*
X-94382587Y53380517D02*
X-95855014Y51034702D01*
X59106350Y124721D02*
X52361070Y151222D01*
X-49416318Y190422580D02*
X-51071927Y189180345D01*
X88258398Y95544743D02*
X87262350Y91919068D01*
X55592997Y184974783D02*
X56951435Y183413311D01*
X50541040Y150916687D02*
X47310536Y149291026D01*
X-81917550Y63521159D02*
X-84348579Y62520374D01*
X-16126266Y199441915D02*
X-19143121Y199459249D01*
X-85028715Y2059038D02*
X-80878756Y1300841D01*
X57186580Y69897570D02*
X51923747Y70467943D01*
X-45882220Y192667623D02*
X-47686415Y191585006D01*
X54497776Y69151545D02*
X57117411Y68009605D01*
X77000000Y21000000D02*
X77000000Y35000000D01*
D11*
X7500000Y142000000D02*
X5500000Y140000000D01*
D10*
X98932416Y43723024D02*
X99511591Y41194388D01*
X-55817313Y148069002D02*
X-59747747Y146978189D01*
X47310536Y149291026D02*
X51671575Y148839948D01*
X81917550Y63521159D02*
X84348579Y62520374D01*
X-79347936Y64238283D02*
X-81917550Y63521159D01*
X-58180911Y181744074D02*
X-59226758Y179939114D01*
X91820228Y4821887D02*
X88675872Y3232720D01*
X49416318Y190422580D02*
X51071927Y189180345D01*
X98236493Y12082299D02*
X96600539Y9246677D01*
X-71034296Y456356D02*
X-65330759Y226433D01*
X22090510Y199319567D02*
X24968433Y199022869D01*
X53360510Y152683879D02*
X50541040Y150916687D01*
X-51671575Y148839948D02*
X-55817313Y148069002D01*
X-77000000Y21000000D02*
X-77000000Y35000000D01*
X-91820228Y4821887D02*
X-88675872Y3232720D01*
X82330355Y81208248D02*
X79991536Y77952799D01*
X-54497776Y69151545D02*
X-57117411Y68009605D01*
X-87508051Y117600054D02*
X-88398222Y114018520D01*
X-13039945Y199267564D02*
X-16126266Y199441915D01*
X52361070Y151222D02*
X45094918Y305936D01*
X-54160267Y186456446D02*
X-55592997Y184974783D01*
X-88398222Y114018520D02*
X-89002839Y110324455D01*
X-70468782Y71465728D02*
X-66459097Y70396463D01*
X66962710Y143836960D02*
X70247239Y141786545D01*
X69000000Y36000000D02*
X68000000Y35000000D01*
X-83124213Y127669471D02*
X-84871046Y124425529D01*
X37735078Y196228561D02*
X39940574Y195449313D01*
X13039945Y199267564D02*
X16126266Y199441915D01*
X61262518Y173709907D02*
X61573845Y171362061D01*
X-70899681Y64916750D02*
X-73792954Y64821549D01*
X88794882Y59667822D02*
X90810157Y57816055D01*
X-98236493Y12082299D02*
X-96600539Y9246677D01*
X-56951435Y183413311D02*
X-58180911Y181744074D01*
X-81091826Y130800882D02*
X-83124213Y127669471D01*
X-84348579Y62520374D02*
X-86641023Y61235928D01*
X27753651Y198610932D02*
X30422925Y198125532D01*
X62031697Y69873744D02*
X57186580Y69897570D01*
X-59352713Y158834648D02*
X-57766346Y156642860D01*
X-94461784Y6826540D02*
X-91820228Y4821887D01*
X-32976254Y197566670D02*
X-35413638Y196934347D01*
X97104128Y48643181D02*
X98129929Y46205955D01*
D11*
X7500000Y150000000D02*
X7500000Y142000000D01*
D10*
X81091826Y130800882D02*
X83124213Y127669471D01*
X88930471Y99198119D02*
X88258398Y95544743D01*
X-68000000Y21000000D02*
X-69000000Y20000000D01*
X-63462880Y145567508D02*
X-66962710Y143836960D01*
X-97104128Y48643181D02*
X-98129929Y46205955D01*
X63462880Y145567508D02*
X66962710Y143836960D01*
X-76170388Y136726112D02*
X-78773884Y133819762D01*
X84871046Y124425529D02*
X86332326Y121069057D01*
X-37307894Y588861D02*
X-29000000Y1000000D01*
X37307894Y588861D02*
X29000000Y1000000D01*
X78773884Y133819762D02*
X81091826Y130800882D01*
X100000000Y19000000D02*
X100000000Y36000000D01*
X90810157Y57816055D02*
X92686846Y55680628D01*
X-57766346Y156642860D02*
X-55768945Y154592604D01*
X95855014Y51034702D02*
X97104128Y48643181D01*
X35413638Y196934347D02*
X37735078Y196228561D01*
X-84871046Y124425529D02*
X-86332326Y121069057D01*
X65249954Y65630522D02*
X68052014Y65186408D01*
X83124213Y127669471D02*
X84871046Y124425529D01*
X-44003732Y193670431D02*
X-45882220Y192667623D01*
X52653243Y187858300D02*
X54160267Y186456446D01*
X85028715Y2059038D02*
X80878756Y1300841D01*
X61292345Y163642820D02*
X60528046Y161167968D01*
X-88258398Y95544743D02*
X-87262350Y91919068D01*
X-99511591Y41194388D02*
X-99867452Y38620046D01*
X-42030125Y194596603D02*
X-44003732Y193670431D01*
X76000000Y36000000D02*
X69000000Y36000000D01*
X61701542Y168878493D02*
X61645610Y166259204D01*
X94461784Y6826540D02*
X91820228Y4821887D01*
X86332326Y121069057D02*
X87508051Y117600054D01*
X-60088974Y177998433D02*
X-60767561Y175922031D01*
X57766346Y156642860D02*
X55768945Y154592604D01*
X59226758Y179939114D02*
X60088974Y177998433D01*
X-80878756Y1300841D02*
X-76216962Y814493D01*
X85942327Y88321093D02*
X84298328Y84750820D01*
X-73792954Y64821549D02*
X-76639737Y64671747D01*
X58180911Y181744074D02*
X59226758Y179939114D01*
X-57186580Y69897570D02*
X-51923747Y70467943D01*
X100000000Y19000000D02*
X99369647Y15333407D01*
X51923747Y70467943D02*
X54497776Y69151545D01*
X-30422925Y198125532D02*
X-32976254Y197566670D01*
X-22090510Y199319567D02*
X-24968433Y199022869D01*
X-89278568Y102879197D02*
X-88930471Y99198119D01*
X-6658904Y198447814D02*
X-9884157Y198936198D01*
X19143121Y199459249D02*
X22090510Y199319567D01*
X70468782Y71465728D02*
X66459097Y70396463D01*
X-61292345Y163642820D02*
X-60528046Y161167968D01*
X-55592997Y184974783D02*
X-56951435Y183413311D01*
X-73316465Y139416262D02*
X-76170388Y136726112D01*
X-99867452Y38620046D02*
X-100000000Y36000000D01*
X-61262518Y173709907D02*
X-61573845Y171362061D01*
X-62493500Y66249093D02*
X-65249954Y65630522D01*
X-61701542Y168878493D02*
X-61645610Y166259204D01*
X-55768945Y154592604D02*
X-53360510Y152683879D01*
X86641023Y61235928D02*
X88794882Y59667822D01*
X-77000000Y35000000D02*
X-76000000Y36000000D01*
X-59747747Y146978189D02*
X-63462880Y145567508D01*
X-74060749Y73081539D02*
X-70468782Y71465728D01*
X76170388Y136726112D02*
X78773884Y133819762D01*
X99867452Y38620046D02*
X100000000Y36000000D01*
X-3364185Y197802415D02*
X-6658904Y198447814D01*
X-52361070Y151222D02*
X-45094918Y305936D01*
X-100000000Y19000000D02*
X-100000000Y36000000D01*
X79347936Y64238283D02*
X81917550Y63521159D01*
X45882220Y192667623D02*
X47686415Y191585006D01*
X94382587Y53380517D02*
X95855014Y51034702D01*
X-68052014Y65186408D02*
X-70899681Y64916750D01*
X61645610Y166259204D02*
X61292345Y163642820D01*
X65330759Y226433D02*
X59106350Y124721D01*
X-61645610Y166259204D02*
X-61292345Y163642820D01*
X59747747Y146978189D02*
X63462880Y145567508D01*
X-66459097Y70396463D02*
X-62031697Y69873744D01*
X-69000000Y36000000D02*
X-68000000Y35000000D01*
X60767561Y175922031D02*
X61262518Y173709907D01*
X-88794882Y59667822D02*
X-90810157Y57816055D01*
X-37735078Y196228561D02*
X-39940574Y195449313D01*
X-89302691Y106587975D02*
X-89278568Y102879197D01*
X62493500Y66249093D02*
X65249954Y65630522D01*
X24968433Y199022869D02*
X27753651Y198610932D01*
X-100000000Y19000000D02*
X-99369647Y15333407D01*
X79991536Y77952799D02*
X77235001Y75243896D01*
X39940574Y195449313D02*
X42030125Y194596603D01*
X68000000Y35000000D02*
X68000000Y21000000D01*
X-99369647Y15333407D02*
X-98236493Y12082299D01*
X-50541040Y150916687D02*
X-47310536Y149291026D01*
D11*
X-7500000Y150000000D02*
X-5500000Y152000000D01*
D10*
X-62031697Y69873744D02*
X-57186580Y69897570D01*
X84348579Y62520374D02*
X86641023Y61235928D01*
X96600539Y9246677D02*
X94461784Y6826540D01*
X88675872Y3232720D02*
X85028715Y2059038D01*
X-47310536Y149291026D02*
X-51671575Y148839948D01*
X-69000000Y20000000D02*
X-76000000Y20000000D01*
X42030125Y194596603D02*
X44003732Y193670431D01*
X56951435Y183413311D02*
X58180911Y181744074D01*
X-89002839Y110324455D02*
X-89302691Y106587975D01*
X28000000Y0D02*
X29000000Y1000000D01*
X-59226758Y179939114D02*
X-60088974Y177998433D01*
X60528046Y161167968D02*
X59352713Y158834648D01*
X55817313Y148069002D02*
X59747747Y146978189D01*
X44003732Y193670431D02*
X45882220Y192667623D01*
X-9884157Y198936198D02*
X-13039945Y199267564D01*
X77235001Y75243896D02*
X74060749Y73081539D01*
X68000000Y21000000D02*
X69000000Y20000000D01*
X66459097Y70396463D02*
X62031697Y69873744D01*
X3364185Y197802415D02*
X6658904Y198447814D01*
X59352713Y158834648D02*
X57766346Y156642860D01*
X87262350Y91919068D02*
X85942327Y88321093D01*
X-59106350Y124721D02*
X-52361070Y151222D01*
X61573845Y171362061D02*
X61701542Y168878493D01*
X16126266Y199441915D02*
X19143121Y199459249D01*
X68052014Y65186408D02*
X70899681Y64916750D01*
X57117411Y68009605D02*
X59782652Y67042120D01*
X-19143121Y199459249D02*
X-22090510Y199319567D01*
X60088974Y177998433D02*
X60767561Y175922031D01*
X51071927Y189180345D02*
X52653243Y187858300D01*
X-35413638Y196934347D02*
X-37735078Y196228561D01*
X-88675872Y3232720D02*
X-85028715Y2059038D01*
X80878756Y1300841D02*
X76216962Y814493D01*
X99369647Y15333407D02*
X98236493Y12082299D01*
X70247239Y141786545D02*
X73316465Y139416262D01*
X-86332326Y121069057D02*
X-87508051Y117600054D01*
X-76639737Y64671747D02*
X-79347936Y64238283D01*
X0Y197000000D02*
X-3364185Y197802415D01*
X-53360510Y152683879D02*
X-50541040Y150916687D01*
X88398222Y114018520D02*
X89002839Y110324455D01*
X77000000Y35000000D02*
X76000000Y36000000D01*
D11*
X5500000Y140000000D02*
X-5500000Y140000000D01*
D10*
X89002839Y110324455D02*
X89302691Y106587975D01*
X30422925Y198125532D02*
X32976254Y197566670D01*
X-65330759Y226433D02*
X-59106350Y124721D01*
X74060749Y73081539D02*
X70468782Y71465728D01*
D11*
X1666666Y0D02*
G75*
G03*
X1666666Y0I-1666666J0D01*
G01*
X-2500000Y0D02*
X2500000Y0D01*
X0Y2500000D02*
X0Y-2500000D01*
M02*
