  0
SECTION
  2
HEADER
  9
$ANGBASE
  50
0.0
  9
$ANGDIR
  70
1
  9
$MEASUREMENT
  70
0
  0
ENDSEC
  0
SECTION
  2
TABLES
  0
TABLE
  2
LTYPE
  70
4
  0
LTYPE
  5
40F
  2
CONTINUOUS
  70
0
  3
Solid line
  72
65
  73
0
  40
0.0
  0
LTYPE
  5
410
  2
DASHDOT
 70
0
  3
Dash Dot ____ _ ____ _
 72
65
 73
4
 40
2.0
 49
1.25
 49
-0.25
 49
0.25
 49
-0.25
  0
LTYPE
  5
411
  2
DASHED
 70
0
  3
Dashed __ __ __ __ __
 72
65
 73
2
 40
0.75
 49
0.5
 49
-0.25
  0
LTYPE
  5
43B
  2
DOTTED
 70
0
  3
Dotted .  .  .  .
 72
65
 73
2
 40
0.2
 49
0.0
 49
-0.2
  0
ENDTAB
  0
TABLE
  2
STYLE
  70
4
  0
STYLE
  2
KICAD
  70
0
  40
0
  41
1
  42
1
  50
0
  71
0
  3
isocp.shx
  0
STYLE
  2
KICADB
  70
0
  40
0
  41
1
  42
1
  50
0
  71
0
  3
isocp.shx
  0
STYLE
  2
KICADI
  70
0
  40
0
  41
1
  42
1
  50
15
  71
0
  3
isocp.shx
  0
STYLE
  2
KICADBI
  70
0
  40
0
  41
1
  42
1
  50
15
  71
0
  3
isocp.shx
  0
ENDTAB
  0
TABLE
  2
LAYER
  70
1
  0
LAYER
  2
BLACK
  70
0
  62
7
  6
CONTINUOUS
  0
ENDTAB
  0
ENDSEC
  0
SECTION
  2
ENTITIES
0
LINE
8
BLACK
6
CONTINUOUS
10
-1.87989
20
0.304566
11
-1.86833
21
0.302487
0
LINE
8
BLACK
6
CONTINUOUS
10
-1.86833
20
0.302487
11
-1.85715
21
0.298898
0
LINE
8
BLACK
6
CONTINUOUS
10
-1.85715
20
0.298898
11
-1.84655
21
0.293861
0
LINE
8
BLACK
6
CONTINUOUS
10
-1.84655
20
0.293861
11
-1.8367
21
0.287466
0
LINE
8
BLACK
6
CONTINUOUS
10
-1.8367
20
0.287466
11
-1.82779
21
0.279825
0
LINE
8
BLACK
6
CONTINUOUS
10
-1.82779
20
0.279825
11
-1.81996
21
0.271072
0
LINE
8
BLACK
6
CONTINUOUS
10
-1.81996
20
0.271072
11
-1.81336
21
0.261361
0
LINE
8
BLACK
6
CONTINUOUS
10
-1.81336
20
0.261361
11
-1.8081
21
0.250863
0
LINE
8
BLACK
6
CONTINUOUS
10
-1.8081
20
0.250863
11
-1.80428
21
0.239761
0
LINE
8
BLACK
6
CONTINUOUS
10
-1.80428
20
0.239761
11
-1.80196
21
0.228251
0
LINE
8
BLACK
6
CONTINUOUS
10
-1.80196
20
0.228251
11
-1.80118
21
0.216535
0
LINE
8
BLACK
6
CONTINUOUS
10
-1.80118
20
0.216535
11
-1.80129
21
0.212208
0
LINE
8
BLACK
6
CONTINUOUS
10
-1.80129
20
0.212208
11
-1.80264
21
0.200545
0
LINE
8
BLACK
6
CONTINUOUS
10
-1.80264
20
0.200545
11
-1.80552
21
0.189162
0
LINE
8
BLACK
6
CONTINUOUS
10
-1.80552
20
0.189162
11
-1.80988
21
0.17826
0
LINE
8
BLACK
6
CONTINUOUS
10
-1.80988
20
0.17826
11
-1.81564
21
0.168031
0
LINE
8
BLACK
6
CONTINUOUS
10
-1.81564
20
0.168031
11
-1.82271
21
0.158654
0
LINE
8
BLACK
6
CONTINUOUS
10
-1.82271
20
0.158654
11
-1.83095
21
0.150293
0
LINE
8
BLACK
6
CONTINUOUS
10
-1.83095
20
0.150293
11
-1.84023
21
0.143097
0
LINE
8
BLACK
6
CONTINUOUS
10
-1.84023
20
0.143097
11
-1.85038
21
0.137191
0
LINE
8
BLACK
6
CONTINUOUS
10
-1.85038
20
0.137191
11
-1.86122
21
0.132679
0
LINE
8
BLACK
6
CONTINUOUS
10
-1.86122
20
0.132679
11
-1.87256
21
0.12964
0
LINE
8
BLACK
6
CONTINUOUS
10
-1.87256
20
0.12964
11
-1.8842
21
0.128128
0
LINE
8
BLACK
6
CONTINUOUS
10
-1.8842
20
0.128128
11
-1.89594
21
0.128169
0
LINE
8
BLACK
6
CONTINUOUS
10
-1.89594
20
0.128169
11
-1.90758
21
0.129762
0
LINE
8
BLACK
6
CONTINUOUS
10
-1.90758
20
0.129762
11
-1.9189
21
0.13288
0
LINE
8
BLACK
6
CONTINUOUS
10
-1.9189
20
0.13288
11
-1.9297
21
0.137468
0
LINE
8
BLACK
6
CONTINUOUS
10
-1.9297
20
0.137468
11
-1.93981
21
0.143445
0
LINE
8
BLACK
6
CONTINUOUS
10
-1.93981
20
0.143445
11
-1.94904
21
0.150706
0
LINE
8
BLACK
6
CONTINUOUS
10
-1.94904
20
0.150706
11
-1.95722
21
0.159123
0
LINE
8
BLACK
6
CONTINUOUS
10
-1.95722
20
0.159123
11
-1.96422
21
0.168549
0
LINE
8
BLACK
6
CONTINUOUS
10
-1.96422
20
0.168549
11
-1.96992
21
0.178819
0
LINE
8
BLACK
6
CONTINUOUS
10
-1.96992
20
0.178819
11
-1.9742
21
0.189751
0
LINE
8
BLACK
6
CONTINUOUS
10
-1.9742
20
0.189751
11
-1.977
21
0.201153
0
LINE
8
BLACK
6
CONTINUOUS
10
-1.977
20
0.201153
11
-1.97827
21
0.212826
0
LINE
8
BLACK
6
CONTINUOUS
10
-1.97827
20
0.212826
11
-1.97798
21
0.224564
0
LINE
8
BLACK
6
CONTINUOUS
10
-1.97798
20
0.224564
11
-1.97615
21
0.236161
0
LINE
8
BLACK
6
CONTINUOUS
10
-1.97615
20
0.236161
11
-1.97279
21
0.247413
0
LINE
8
BLACK
6
CONTINUOUS
10
-1.97279
20
0.247413
11
-1.96798
21
0.258122
0
LINE
8
BLACK
6
CONTINUOUS
10
-1.96798
20
0.258122
11
-1.96179
21
0.268101
0
LINE
8
BLACK
6
CONTINUOUS
10
-1.96179
20
0.268101
11
-1.95434
21
0.277174
0
LINE
8
BLACK
6
CONTINUOUS
10
-1.95434
20
0.277174
11
-1.94575
21
0.285182
0
LINE
8
BLACK
6
CONTINUOUS
10
-1.94575
20
0.285182
11
-1.93618
21
0.291984
0
LINE
8
BLACK
6
CONTINUOUS
10
-1.93618
20
0.291984
11
-1.92579
21
0.29746
0
LINE
8
BLACK
6
CONTINUOUS
10
-1.92579
20
0.29746
11
-1.91477
21
0.301514
0
LINE
8
BLACK
6
CONTINUOUS
10
-1.91477
20
0.301514
11
-1.90332
21
0.304075
0
LINE
8
BLACK
6
CONTINUOUS
10
-1.90332
20
0.304075
11
-1.89162
21
0.305099
0
LINE
8
BLACK
6
CONTINUOUS
10
-1.89162
20
0.305099
11
-1.87989
21
0.304566
0
LINE
8
BLACK
6
CONTINUOUS
10
1.89964
20
0.304566
11
1.91119
21
0.302487
0
LINE
8
BLACK
6
CONTINUOUS
10
1.91119
20
0.302487
11
1.92237
21
0.298898
0
LINE
8
BLACK
6
CONTINUOUS
10
1.92237
20
0.298898
11
1.93298
21
0.293861
0
LINE
8
BLACK
6
CONTINUOUS
10
1.93298
20
0.293861
11
1.94283
21
0.287466
0
LINE
8
BLACK
6
CONTINUOUS
10
1.94283
20
0.287466
11
1.95174
21
0.279825
0
LINE
8
BLACK
6
CONTINUOUS
10
1.95174
20
0.279825
11
1.95957
21
0.271072
0
LINE
8
BLACK
6
CONTINUOUS
10
1.95957
20
0.271072
11
1.96617
21
0.261361
0
LINE
8
BLACK
6
CONTINUOUS
10
1.96617
20
0.261361
11
1.97142
21
0.250863
0
LINE
8
BLACK
6
CONTINUOUS
10
1.97142
20
0.250863
11
1.97525
21
0.239761
0
LINE
8
BLACK
6
CONTINUOUS
10
1.97525
20
0.239761
11
1.97757
21
0.228251
0
LINE
8
BLACK
6
CONTINUOUS
10
1.97757
20
0.228251
11
1.97835
21
0.216535
0
LINE
8
BLACK
6
CONTINUOUS
10
1.97835
20
0.216535
11
1.97824
21
0.212208
0
LINE
8
BLACK
6
CONTINUOUS
10
1.97824
20
0.212208
11
1.97689
21
0.200545
0
LINE
8
BLACK
6
CONTINUOUS
10
1.97689
20
0.200545
11
1.97401
21
0.189162
0
LINE
8
BLACK
6
CONTINUOUS
10
1.97401
20
0.189162
11
1.96965
21
0.17826
0
LINE
8
BLACK
6
CONTINUOUS
10
1.96965
20
0.17826
11
1.96389
21
0.168031
0
LINE
8
BLACK
6
CONTINUOUS
10
1.96389
20
0.168031
11
1.95682
21
0.158654
0
LINE
8
BLACK
6
CONTINUOUS
10
1.95682
20
0.158654
11
1.94858
21
0.150293
0
LINE
8
BLACK
6
CONTINUOUS
10
1.94858
20
0.150293
11
1.9393
21
0.143097
0
LINE
8
BLACK
6
CONTINUOUS
10
1.9393
20
0.143097
11
1.92915
21
0.137191
0
LINE
8
BLACK
6
CONTINUOUS
10
1.92915
20
0.137191
11
1.91831
21
0.132679
0
LINE
8
BLACK
6
CONTINUOUS
10
1.91831
20
0.132679
11
1.90697
21
0.12964
0
LINE
8
BLACK
6
CONTINUOUS
10
1.90697
20
0.12964
11
1.89533
21
0.128128
0
LINE
8
BLACK
6
CONTINUOUS
10
1.89533
20
0.128128
11
1.88358
21
0.128169
0
LINE
8
BLACK
6
CONTINUOUS
10
1.88358
20
0.128169
11
1.87195
21
0.129762
0
LINE
8
BLACK
6
CONTINUOUS
10
1.87195
20
0.129762
11
1.86063
21
0.13288
0
LINE
8
BLACK
6
CONTINUOUS
10
1.86063
20
0.13288
11
1.84982
21
0.137468
0
LINE
8
BLACK
6
CONTINUOUS
10
1.84982
20
0.137468
11
1.83972
21
0.143445
0
LINE
8
BLACK
6
CONTINUOUS
10
1.83972
20
0.143445
11
1.83049
21
0.150706
0
LINE
8
BLACK
6
CONTINUOUS
10
1.83049
20
0.150706
11
1.8223
21
0.159123
0
LINE
8
BLACK
6
CONTINUOUS
10
1.8223
20
0.159123
11
1.8153
21
0.168549
0
LINE
8
BLACK
6
CONTINUOUS
10
1.8153
20
0.168549
11
1.80961
21
0.178819
0
LINE
8
BLACK
6
CONTINUOUS
10
1.80961
20
0.178819
11
1.80533
21
0.189751
0
LINE
8
BLACK
6
CONTINUOUS
10
1.80533
20
0.189751
11
1.80253
21
0.201153
0
LINE
8
BLACK
6
CONTINUOUS
10
1.80253
20
0.201153
11
1.80126
21
0.212826
0
LINE
8
BLACK
6
CONTINUOUS
10
1.80126
20
0.212826
11
1.80155
21
0.224564
0
LINE
8
BLACK
6
CONTINUOUS
10
1.80155
20
0.224564
11
1.80338
21
0.236161
0
LINE
8
BLACK
6
CONTINUOUS
10
1.80338
20
0.236161
11
1.80674
21
0.247413
0
LINE
8
BLACK
6
CONTINUOUS
10
1.80674
20
0.247413
11
1.81155
21
0.258122
0
LINE
8
BLACK
6
CONTINUOUS
10
1.81155
20
0.258122
11
1.81774
21
0.268101
0
LINE
8
BLACK
6
CONTINUOUS
10
1.81774
20
0.268101
11
1.82519
21
0.277174
0
LINE
8
BLACK
6
CONTINUOUS
10
1.82519
20
0.277174
11
1.83378
21
0.285182
0
LINE
8
BLACK
6
CONTINUOUS
10
1.83378
20
0.285182
11
1.84335
21
0.291984
0
LINE
8
BLACK
6
CONTINUOUS
10
1.84335
20
0.291984
11
1.85373
21
0.29746
0
LINE
8
BLACK
6
CONTINUOUS
10
1.85373
20
0.29746
11
1.86475
21
0.301514
0
LINE
8
BLACK
6
CONTINUOUS
10
1.86475
20
0.301514
11
1.87621
21
0.304075
0
LINE
8
BLACK
6
CONTINUOUS
10
1.87621
20
0.304075
11
1.88791
21
0.305099
0
LINE
8
BLACK
6
CONTINUOUS
10
1.88791
20
0.305099
11
1.89964
21
0.304566
0
LINE
8
BLACK
6
CONTINUOUS
10
3.27435
20
0.825028
11
3.28632
21
0.821954
0
LINE
8
BLACK
6
CONTINUOUS
10
3.28632
20
0.821954
11
3.29781
21
0.817404
0
LINE
8
BLACK
6
CONTINUOUS
10
3.29781
20
0.817404
11
3.30864
21
0.81145
0
LINE
8
BLACK
6
CONTINUOUS
10
3.30864
20
0.81145
11
3.31864
21
0.804184
0
LINE
8
BLACK
6
CONTINUOUS
10
3.31864
20
0.804184
11
3.32765
21
0.795723
0
LINE
8
BLACK
6
CONTINUOUS
10
3.32765
20
0.795723
11
3.33553
21
0.786199
0
LINE
8
BLACK
6
CONTINUOUS
10
3.33553
20
0.786199
11
3.34216
21
0.775763
0
LINE
8
BLACK
6
CONTINUOUS
10
3.34216
20
0.775763
11
3.34742
21
0.764579
0
LINE
8
BLACK
6
CONTINUOUS
10
3.34742
20
0.764579
11
3.35124
21
0.752824
0
LINE
8
BLACK
6
CONTINUOUS
10
3.35124
20
0.752824
11
3.35355
21
0.740682
0
LINE
8
BLACK
6
CONTINUOUS
10
3.35355
20
0.740682
11
3.35433
21
0.728346
0
LINE
8
BLACK
6
CONTINUOUS
10
3.35433
20
0.728346
11
3.35355
21
0.716011
0
LINE
8
BLACK
6
CONTINUOUS
10
3.35355
20
0.716011
11
3.35124
21
0.703869
0
LINE
8
BLACK
6
CONTINUOUS
10
3.35124
20
0.703869
11
3.34742
21
0.692114
0
LINE
8
BLACK
6
CONTINUOUS
10
3.34742
20
0.692114
11
3.34216
21
0.68093
0
LINE
8
BLACK
6
CONTINUOUS
10
3.34216
20
0.68093
11
3.33553
21
0.670494
0
LINE
8
BLACK
6
CONTINUOUS
10
3.33553
20
0.670494
11
3.32765
21
0.66097
0
LINE
8
BLACK
6
CONTINUOUS
10
3.32765
20
0.66097
11
3.31864
21
0.652509
0
LINE
8
BLACK
6
CONTINUOUS
10
3.31864
20
0.652509
11
3.30864
21
0.645243
0
LINE
8
BLACK
6
CONTINUOUS
10
3.30864
20
0.645243
11
3.29781
21
0.639289
0
LINE
8
BLACK
6
CONTINUOUS
10
3.29781
20
0.639289
11
3.28632
21
0.634739
0
LINE
8
BLACK
6
CONTINUOUS
10
3.28632
20
0.634739
11
3.27435
21
0.631665
0
LINE
8
BLACK
6
CONTINUOUS
10
3.27435
20
0.631665
11
3.26209
21
0.630115
0
LINE
8
BLACK
6
CONTINUOUS
10
3.26209
20
0.630115
11
3.24973
21
0.630115
0
LINE
8
BLACK
6
CONTINUOUS
10
3.24973
20
0.630115
11
3.23746
21
0.631665
0
LINE
8
BLACK
6
CONTINUOUS
10
3.23746
20
0.631665
11
3.22549
21
0.634739
0
LINE
8
BLACK
6
CONTINUOUS
10
3.22549
20
0.634739
11
3.214
21
0.639289
0
LINE
8
BLACK
6
CONTINUOUS
10
3.214
20
0.639289
11
3.20317
21
0.645243
0
LINE
8
BLACK
6
CONTINUOUS
10
3.20317
20
0.645243
11
3.19317
21
0.652509
0
LINE
8
BLACK
6
CONTINUOUS
10
3.19317
20
0.652509
11
3.18416
21
0.66097
0
LINE
8
BLACK
6
CONTINUOUS
10
3.18416
20
0.66097
11
3.17628
21
0.670494
0
LINE
8
BLACK
6
CONTINUOUS
10
3.17628
20
0.670494
11
3.16965
21
0.68093
0
LINE
8
BLACK
6
CONTINUOUS
10
3.16965
20
0.68093
11
3.16439
21
0.692114
0
LINE
8
BLACK
6
CONTINUOUS
10
3.16439
20
0.692114
11
3.16057
21
0.703869
0
LINE
8
BLACK
6
CONTINUOUS
10
3.16057
20
0.703869
11
3.15826
21
0.716011
0
LINE
8
BLACK
6
CONTINUOUS
10
3.15826
20
0.716011
11
3.15748
21
0.728346
0
LINE
8
BLACK
6
CONTINUOUS
10
3.15748
20
0.728346
11
3.15826
21
0.740682
0
LINE
8
BLACK
6
CONTINUOUS
10
3.15826
20
0.740682
11
3.16057
21
0.752824
0
LINE
8
BLACK
6
CONTINUOUS
10
3.16057
20
0.752824
11
3.16439
21
0.764579
0
LINE
8
BLACK
6
CONTINUOUS
10
3.16439
20
0.764579
11
3.16965
21
0.775763
0
LINE
8
BLACK
6
CONTINUOUS
10
3.16965
20
0.775763
11
3.17628
21
0.786199
0
LINE
8
BLACK
6
CONTINUOUS
10
3.17628
20
0.786199
11
3.18416
21
0.795723
0
LINE
8
BLACK
6
CONTINUOUS
10
3.18416
20
0.795723
11
3.19317
21
0.804184
0
LINE
8
BLACK
6
CONTINUOUS
10
3.19317
20
0.804184
11
3.20317
21
0.81145
0
LINE
8
BLACK
6
CONTINUOUS
10
3.20317
20
0.81145
11
3.214
21
0.817404
0
LINE
8
BLACK
6
CONTINUOUS
10
3.214
20
0.817404
11
3.22549
21
0.821954
0
LINE
8
BLACK
6
CONTINUOUS
10
3.22549
20
0.821954
11
3.23746
21
0.825028
0
LINE
8
BLACK
6
CONTINUOUS
10
3.23746
20
0.825028
11
3.24973
21
0.826577
0
LINE
8
BLACK
6
CONTINUOUS
10
3.24973
20
0.826577
11
3.26209
21
0.826577
0
LINE
8
BLACK
6
CONTINUOUS
10
3.26209
20
0.826577
11
3.27435
21
0.825028
0
LINE
8
BLACK
6
CONTINUOUS
10
-3.21738
20
0.827529
11
-3.20541
21
0.824455
0
LINE
8
BLACK
6
CONTINUOUS
10
-3.20541
20
0.824455
11
-3.19392
21
0.819905
0
LINE
8
BLACK
6
CONTINUOUS
10
-3.19392
20
0.819905
11
-3.18309
21
0.81395
0
LINE
8
BLACK
6
CONTINUOUS
10
-3.18309
20
0.81395
11
-3.17309
21
0.806685
0
LINE
8
BLACK
6
CONTINUOUS
10
-3.17309
20
0.806685
11
-3.16408
21
0.798224
0
LINE
8
BLACK
6
CONTINUOUS
10
-3.16408
20
0.798224
11
-3.1562
21
0.7887
0
LINE
8
BLACK
6
CONTINUOUS
10
-3.1562
20
0.7887
11
-3.14958
21
0.778264
0
LINE
8
BLACK
6
CONTINUOUS
10
-3.14958
20
0.778264
11
-3.14431
21
0.76708
0
LINE
8
BLACK
6
CONTINUOUS
10
-3.14431
20
0.76708
11
-3.14049
21
0.755325
0
LINE
8
BLACK
6
CONTINUOUS
10
-3.14049
20
0.755325
11
-3.13818
21
0.743183
0
LINE
8
BLACK
6
CONTINUOUS
10
-3.13818
20
0.743183
11
-3.1374
21
0.730847
0
LINE
8
BLACK
6
CONTINUOUS
10
-3.1374
20
0.730847
11
-3.13818
21
0.718511
0
LINE
8
BLACK
6
CONTINUOUS
10
-3.13818
20
0.718511
11
-3.14049
21
0.70637
0
LINE
8
BLACK
6
CONTINUOUS
10
-3.14049
20
0.70637
11
-3.14431
21
0.694615
0
LINE
8
BLACK
6
CONTINUOUS
10
-3.14431
20
0.694615
11
-3.14958
21
0.683431
0
LINE
8
BLACK
6
CONTINUOUS
10
-3.14958
20
0.683431
11
-3.1562
21
0.672994
0
LINE
8
BLACK
6
CONTINUOUS
10
-3.1562
20
0.672994
11
-3.16408
21
0.663471
0
LINE
8
BLACK
6
CONTINUOUS
10
-3.16408
20
0.663471
11
-3.17309
21
0.655009
0
LINE
8
BLACK
6
CONTINUOUS
10
-3.17309
20
0.655009
11
-3.18309
21
0.647744
0
LINE
8
BLACK
6
CONTINUOUS
10
-3.18309
20
0.647744
11
-3.19392
21
0.641789
0
LINE
8
BLACK
6
CONTINUOUS
10
-3.19392
20
0.641789
11
-3.20541
21
0.637239
0
LINE
8
BLACK
6
CONTINUOUS
10
-3.20541
20
0.637239
11
-3.21738
21
0.634165
0
LINE
8
BLACK
6
CONTINUOUS
10
-3.21738
20
0.634165
11
-3.22965
21
0.632616
0
LINE
8
BLACK
6
CONTINUOUS
10
-3.22965
20
0.632616
11
-3.24201
21
0.632616
0
LINE
8
BLACK
6
CONTINUOUS
10
-3.24201
20
0.632616
11
-3.25427
21
0.634165
0
LINE
8
BLACK
6
CONTINUOUS
10
-3.25427
20
0.634165
11
-3.26624
21
0.637239
0
LINE
8
BLACK
6
CONTINUOUS
10
-3.26624
20
0.637239
11
-3.27773
21
0.641789
0
LINE
8
BLACK
6
CONTINUOUS
10
-3.27773
20
0.641789
11
-3.28857
21
0.647744
0
LINE
8
BLACK
6
CONTINUOUS
10
-3.28857
20
0.647744
11
-3.29857
21
0.655009
0
LINE
8
BLACK
6
CONTINUOUS
10
-3.29857
20
0.655009
11
-3.30758
21
0.663471
0
LINE
8
BLACK
6
CONTINUOUS
10
-3.30758
20
0.663471
11
-3.31545
21
0.672994
0
LINE
8
BLACK
6
CONTINUOUS
10
-3.31545
20
0.672994
11
-3.32208
21
0.683431
0
LINE
8
BLACK
6
CONTINUOUS
10
-3.32208
20
0.683431
11
-3.32734
21
0.694615
0
LINE
8
BLACK
6
CONTINUOUS
10
-3.32734
20
0.694615
11
-3.33116
21
0.70637
0
LINE
8
BLACK
6
CONTINUOUS
10
-3.33116
20
0.70637
11
-3.33348
21
0.718511
0
LINE
8
BLACK
6
CONTINUOUS
10
-3.33348
20
0.718511
11
-3.33425
21
0.730847
0
LINE
8
BLACK
6
CONTINUOUS
10
-3.33425
20
0.730847
11
-3.33348
21
0.743183
0
LINE
8
BLACK
6
CONTINUOUS
10
-3.33348
20
0.743183
11
-3.33116
21
0.755325
0
LINE
8
BLACK
6
CONTINUOUS
10
-3.33116
20
0.755325
11
-3.32734
21
0.76708
0
LINE
8
BLACK
6
CONTINUOUS
10
-3.32734
20
0.76708
11
-3.32208
21
0.778264
0
LINE
8
BLACK
6
CONTINUOUS
10
-3.32208
20
0.778264
11
-3.31545
21
0.7887
0
LINE
8
BLACK
6
CONTINUOUS
10
-3.31545
20
0.7887
11
-3.30758
21
0.798224
0
LINE
8
BLACK
6
CONTINUOUS
10
-3.30758
20
0.798224
11
-3.29857
21
0.806685
0
LINE
8
BLACK
6
CONTINUOUS
10
-3.29857
20
0.806685
11
-3.28857
21
0.81395
0
LINE
8
BLACK
6
CONTINUOUS
10
-3.28857
20
0.81395
11
-3.27773
21
0.819905
0
LINE
8
BLACK
6
CONTINUOUS
10
-3.27773
20
0.819905
11
-3.26624
21
0.824455
0
LINE
8
BLACK
6
CONTINUOUS
10
-3.26624
20
0.824455
11
-3.25427
21
0.827529
0
LINE
8
BLACK
6
CONTINUOUS
10
-3.25427
20
0.827529
11
-3.24201
21
0.829078
0
LINE
8
BLACK
6
CONTINUOUS
10
-3.24201
20
0.829078
11
-3.22965
21
0.829078
0
LINE
8
BLACK
6
CONTINUOUS
10
-3.22965
20
0.829078
11
-3.21738
21
0.827529
0
LINE
8
BLACK
6
CONTINUOUS
10
3.27435
20
1.53369
11
3.28632
21
1.53062
0
LINE
8
BLACK
6
CONTINUOUS
10
3.28632
20
1.53062
11
3.29781
21
1.52607
0
LINE
8
BLACK
6
CONTINUOUS
10
3.29781
20
1.52607
11
3.30864
21
1.52011
0
LINE
8
BLACK
6
CONTINUOUS
10
3.30864
20
1.52011
11
3.31864
21
1.51285
0
LINE
8
BLACK
6
CONTINUOUS
10
3.31864
20
1.51285
11
3.32765
21
1.50438
0
LINE
8
BLACK
6
CONTINUOUS
10
3.32765
20
1.50438
11
3.33553
21
1.49486
0
LINE
8
BLACK
6
CONTINUOUS
10
3.33553
20
1.49486
11
3.34216
21
1.48442
0
LINE
8
BLACK
6
CONTINUOUS
10
3.34216
20
1.48442
11
3.34742
21
1.47324
0
LINE
8
BLACK
6
CONTINUOUS
10
3.34742
20
1.47324
11
3.35124
21
1.46149
0
LINE
8
BLACK
6
CONTINUOUS
10
3.35124
20
1.46149
11
3.35355
21
1.44934
0
LINE
8
BLACK
6
CONTINUOUS
10
3.35355
20
1.44934
11
3.35433
21
1.43701
0
LINE
8
BLACK
6
CONTINUOUS
10
3.35433
20
1.43701
11
3.35355
21
1.42467
0
LINE
8
BLACK
6
CONTINUOUS
10
3.35355
20
1.42467
11
3.35124
21
1.41253
0
LINE
8
BLACK
6
CONTINUOUS
10
3.35124
20
1.41253
11
3.34742
21
1.40078
0
LINE
8
BLACK
6
CONTINUOUS
10
3.34742
20
1.40078
11
3.34216
21
1.38959
0
LINE
8
BLACK
6
CONTINUOUS
10
3.34216
20
1.38959
11
3.33553
21
1.37915
0
LINE
8
BLACK
6
CONTINUOUS
10
3.33553
20
1.37915
11
3.32765
21
1.36963
0
LINE
8
BLACK
6
CONTINUOUS
10
3.32765
20
1.36963
11
3.31864
21
1.36117
0
LINE
8
BLACK
6
CONTINUOUS
10
3.31864
20
1.36117
11
3.30864
21
1.3539
0
LINE
8
BLACK
6
CONTINUOUS
10
3.30864
20
1.3539
11
3.29781
21
1.34795
0
LINE
8
BLACK
6
CONTINUOUS
10
3.29781
20
1.34795
11
3.28632
21
1.3434
0
LINE
8
BLACK
6
CONTINUOUS
10
3.28632
20
1.3434
11
3.27435
21
1.34033
0
LINE
8
BLACK
6
CONTINUOUS
10
3.27435
20
1.34033
11
3.26209
21
1.33878
0
LINE
8
BLACK
6
CONTINUOUS
10
3.26209
20
1.33878
11
3.24973
21
1.33878
0
LINE
8
BLACK
6
CONTINUOUS
10
3.24973
20
1.33878
11
3.23746
21
1.34033
0
LINE
8
BLACK
6
CONTINUOUS
10
3.23746
20
1.34033
11
3.22549
21
1.3434
0
LINE
8
BLACK
6
CONTINUOUS
10
3.22549
20
1.3434
11
3.214
21
1.34795
0
LINE
8
BLACK
6
CONTINUOUS
10
3.214
20
1.34795
11
3.20317
21
1.3539
0
LINE
8
BLACK
6
CONTINUOUS
10
3.20317
20
1.3539
11
3.19317
21
1.36117
0
LINE
8
BLACK
6
CONTINUOUS
10
3.19317
20
1.36117
11
3.18416
21
1.36963
0
LINE
8
BLACK
6
CONTINUOUS
10
3.18416
20
1.36963
11
3.17628
21
1.37915
0
LINE
8
BLACK
6
CONTINUOUS
10
3.17628
20
1.37915
11
3.16965
21
1.38959
0
LINE
8
BLACK
6
CONTINUOUS
10
3.16965
20
1.38959
11
3.16439
21
1.40078
0
LINE
8
BLACK
6
CONTINUOUS
10
3.16439
20
1.40078
11
3.16057
21
1.41253
0
LINE
8
BLACK
6
CONTINUOUS
10
3.16057
20
1.41253
11
3.15826
21
1.42467
0
LINE
8
BLACK
6
CONTINUOUS
10
3.15826
20
1.42467
11
3.15748
21
1.43701
0
LINE
8
BLACK
6
CONTINUOUS
10
3.15748
20
1.43701
11
3.15826
21
1.44934
0
LINE
8
BLACK
6
CONTINUOUS
10
3.15826
20
1.44934
11
3.16057
21
1.46149
0
LINE
8
BLACK
6
CONTINUOUS
10
3.16057
20
1.46149
11
3.16439
21
1.47324
0
LINE
8
BLACK
6
CONTINUOUS
10
3.16439
20
1.47324
11
3.16965
21
1.48442
0
LINE
8
BLACK
6
CONTINUOUS
10
3.16965
20
1.48442
11
3.17628
21
1.49486
0
LINE
8
BLACK
6
CONTINUOUS
10
3.17628
20
1.49486
11
3.18416
21
1.50438
0
LINE
8
BLACK
6
CONTINUOUS
10
3.18416
20
1.50438
11
3.19317
21
1.51285
0
LINE
8
BLACK
6
CONTINUOUS
10
3.19317
20
1.51285
11
3.20317
21
1.52011
0
LINE
8
BLACK
6
CONTINUOUS
10
3.20317
20
1.52011
11
3.214
21
1.52607
0
LINE
8
BLACK
6
CONTINUOUS
10
3.214
20
1.52607
11
3.22549
21
1.53062
0
LINE
8
BLACK
6
CONTINUOUS
10
3.22549
20
1.53062
11
3.23746
21
1.53369
0
LINE
8
BLACK
6
CONTINUOUS
10
3.23746
20
1.53369
11
3.24973
21
1.53524
0
LINE
8
BLACK
6
CONTINUOUS
10
3.24973
20
1.53524
11
3.26209
21
1.53524
0
LINE
8
BLACK
6
CONTINUOUS
10
3.26209
20
1.53524
11
3.27435
21
1.53369
0
LINE
8
BLACK
6
CONTINUOUS
10
-3.21738
20
1.53619
11
-3.20541
21
1.53312
0
LINE
8
BLACK
6
CONTINUOUS
10
-3.20541
20
1.53312
11
-3.19392
21
1.52857
0
LINE
8
BLACK
6
CONTINUOUS
10
-3.19392
20
1.52857
11
-3.18309
21
1.52261
0
LINE
8
BLACK
6
CONTINUOUS
10
-3.18309
20
1.52261
11
-3.17309
21
1.51535
0
LINE
8
BLACK
6
CONTINUOUS
10
-3.17309
20
1.51535
11
-3.16408
21
1.50689
0
LINE
8
BLACK
6
CONTINUOUS
10
-3.16408
20
1.50689
11
-3.1562
21
1.49736
0
LINE
8
BLACK
6
CONTINUOUS
10
-3.1562
20
1.49736
11
-3.14958
21
1.48693
0
LINE
8
BLACK
6
CONTINUOUS
10
-3.14958
20
1.48693
11
-3.14431
21
1.47574
0
LINE
8
BLACK
6
CONTINUOUS
10
-3.14431
20
1.47574
11
-3.14049
21
1.46399
0
LINE
8
BLACK
6
CONTINUOUS
10
-3.14049
20
1.46399
11
-3.13818
21
1.45184
0
LINE
8
BLACK
6
CONTINUOUS
10
-3.13818
20
1.45184
11
-3.1374
21
1.43951
0
LINE
8
BLACK
6
CONTINUOUS
10
-3.1374
20
1.43951
11
-3.13818
21
1.42717
0
LINE
8
BLACK
6
CONTINUOUS
10
-3.13818
20
1.42717
11
-3.14049
21
1.41503
0
LINE
8
BLACK
6
CONTINUOUS
10
-3.14049
20
1.41503
11
-3.14431
21
1.40328
0
LINE
8
BLACK
6
CONTINUOUS
10
-3.14431
20
1.40328
11
-3.14958
21
1.39209
0
LINE
8
BLACK
6
CONTINUOUS
10
-3.14958
20
1.39209
11
-3.1562
21
1.38166
0
LINE
8
BLACK
6
CONTINUOUS
10
-3.1562
20
1.38166
11
-3.16408
21
1.37213
0
LINE
8
BLACK
6
CONTINUOUS
10
-3.16408
20
1.37213
11
-3.17309
21
1.36367
0
LINE
8
BLACK
6
CONTINUOUS
10
-3.17309
20
1.36367
11
-3.18309
21
1.35641
0
LINE
8
BLACK
6
CONTINUOUS
10
-3.18309
20
1.35641
11
-3.19392
21
1.35045
0
LINE
8
BLACK
6
CONTINUOUS
10
-3.19392
20
1.35045
11
-3.20541
21
1.3459
0
LINE
8
BLACK
6
CONTINUOUS
10
-3.20541
20
1.3459
11
-3.21738
21
1.34283
0
LINE
8
BLACK
6
CONTINUOUS
10
-3.21738
20
1.34283
11
-3.22965
21
1.34128
0
LINE
8
BLACK
6
CONTINUOUS
10
-3.22965
20
1.34128
11
-3.24201
21
1.34128
0
LINE
8
BLACK
6
CONTINUOUS
10
-3.24201
20
1.34128
11
-3.25427
21
1.34283
0
LINE
8
BLACK
6
CONTINUOUS
10
-3.25427
20
1.34283
11
-3.26624
21
1.3459
0
LINE
8
BLACK
6
CONTINUOUS
10
-3.26624
20
1.3459
11
-3.27773
21
1.35045
0
LINE
8
BLACK
6
CONTINUOUS
10
-3.27773
20
1.35045
11
-3.28857
21
1.35641
0
LINE
8
BLACK
6
CONTINUOUS
10
-3.28857
20
1.35641
11
-3.29857
21
1.36367
0
LINE
8
BLACK
6
CONTINUOUS
10
-3.29857
20
1.36367
11
-3.30758
21
1.37213
0
LINE
8
BLACK
6
CONTINUOUS
10
-3.30758
20
1.37213
11
-3.31545
21
1.38166
0
LINE
8
BLACK
6
CONTINUOUS
10
-3.31545
20
1.38166
11
-3.32208
21
1.39209
0
LINE
8
BLACK
6
CONTINUOUS
10
-3.32208
20
1.39209
11
-3.32734
21
1.40328
0
LINE
8
BLACK
6
CONTINUOUS
10
-3.32734
20
1.40328
11
-3.33116
21
1.41503
0
LINE
8
BLACK
6
CONTINUOUS
10
-3.33116
20
1.41503
11
-3.33348
21
1.42717
0
LINE
8
BLACK
6
CONTINUOUS
10
-3.33348
20
1.42717
11
-3.33425
21
1.43951
0
LINE
8
BLACK
6
CONTINUOUS
10
-3.33425
20
1.43951
11
-3.33348
21
1.45184
0
LINE
8
BLACK
6
CONTINUOUS
10
-3.33348
20
1.45184
11
-3.33116
21
1.46399
0
LINE
8
BLACK
6
CONTINUOUS
10
-3.33116
20
1.46399
11
-3.32734
21
1.47574
0
LINE
8
BLACK
6
CONTINUOUS
10
-3.32734
20
1.47574
11
-3.32208
21
1.48693
0
LINE
8
BLACK
6
CONTINUOUS
10
-3.32208
20
1.48693
11
-3.31545
21
1.49736
0
LINE
8
BLACK
6
CONTINUOUS
10
-3.31545
20
1.49736
11
-3.30758
21
1.50689
0
LINE
8
BLACK
6
CONTINUOUS
10
-3.30758
20
1.50689
11
-3.29857
21
1.51535
0
LINE
8
BLACK
6
CONTINUOUS
10
-3.29857
20
1.51535
11
-3.28857
21
1.52261
0
LINE
8
BLACK
6
CONTINUOUS
10
-3.28857
20
1.52261
11
-3.27773
21
1.52857
0
LINE
8
BLACK
6
CONTINUOUS
10
-3.27773
20
1.52857
11
-3.26624
21
1.53312
0
LINE
8
BLACK
6
CONTINUOUS
10
-3.26624
20
1.53312
11
-3.25427
21
1.53619
0
LINE
8
BLACK
6
CONTINUOUS
10
-3.25427
20
1.53619
11
-3.24201
21
1.53774
0
LINE
8
BLACK
6
CONTINUOUS
10
-3.24201
20
1.53774
11
-3.22965
21
1.53774
0
LINE
8
BLACK
6
CONTINUOUS
10
-3.22965
20
1.53774
11
-3.21738
21
1.53619
0
LINE
8
BLACK
6
CONTINUOUS
10
-3.33658
20
4.22189
11
-3.32503
21
4.21981
0
LINE
8
BLACK
6
CONTINUOUS
10
-3.32503
20
4.21981
11
-3.31385
21
4.21622
0
LINE
8
BLACK
6
CONTINUOUS
10
-3.31385
20
4.21622
11
-3.30324
21
4.21118
0
LINE
8
BLACK
6
CONTINUOUS
10
-3.30324
20
4.21118
11
-3.29339
21
4.20479
0
LINE
8
BLACK
6
CONTINUOUS
10
-3.29339
20
4.20479
11
-3.28448
21
4.19715
0
LINE
8
BLACK
6
CONTINUOUS
10
-3.28448
20
4.19715
11
-3.27665
21
4.1884
0
LINE
8
BLACK
6
CONTINUOUS
10
-3.27665
20
4.1884
11
-3.27005
21
4.17868
0
LINE
8
BLACK
6
CONTINUOUS
10
-3.27005
20
4.17868
11
-3.2648
21
4.16819
0
LINE
8
BLACK
6
CONTINUOUS
10
-3.2648
20
4.16819
11
-3.26097
21
4.15708
0
LINE
8
BLACK
6
CONTINUOUS
10
-3.26097
20
4.15708
11
-3.25865
21
4.14557
0
LINE
8
BLACK
6
CONTINUOUS
10
-3.25865
20
4.14557
11
-3.25787
21
4.13386
0
LINE
8
BLACK
6
CONTINUOUS
10
-3.25787
20
4.13386
11
-3.25798
21
4.12953
0
LINE
8
BLACK
6
CONTINUOUS
10
-3.25798
20
4.12953
11
-3.25933
21
4.11787
0
LINE
8
BLACK
6
CONTINUOUS
10
-3.25933
20
4.11787
11
-3.26221
21
4.10648
0
LINE
8
BLACK
6
CONTINUOUS
10
-3.26221
20
4.10648
11
-3.26657
21
4.09558
0
LINE
8
BLACK
6
CONTINUOUS
10
-3.26657
20
4.09558
11
-3.27233
21
4.08535
0
LINE
8
BLACK
6
CONTINUOUS
10
-3.27233
20
4.08535
11
-3.2794
21
4.07598
0
LINE
8
BLACK
6
CONTINUOUS
10
-3.2794
20
4.07598
11
-3.28764
21
4.06762
0
LINE
8
BLACK
6
CONTINUOUS
10
-3.28764
20
4.06762
11
-3.29692
21
4.06042
0
LINE
8
BLACK
6
CONTINUOUS
10
-3.29692
20
4.06042
11
-3.30707
21
4.05451
0
LINE
8
BLACK
6
CONTINUOUS
10
-3.30707
20
4.05451
11
-3.31791
21
4.05
0
LINE
8
BLACK
6
CONTINUOUS
10
-3.31791
20
4.05
11
-3.32925
21
4.04696
0
LINE
8
BLACK
6
CONTINUOUS
10
-3.32925
20
4.04696
11
-3.34089
21
4.04545
0
LINE
8
BLACK
6
CONTINUOUS
10
-3.34089
20
4.04545
11
-3.35264
21
4.04549
0
LINE
8
BLACK
6
CONTINUOUS
10
-3.35264
20
4.04549
11
-3.36427
21
4.04708
0
LINE
8
BLACK
6
CONTINUOUS
10
-3.36427
20
4.04708
11
-3.37559
21
4.0502
0
LINE
8
BLACK
6
CONTINUOUS
10
-3.37559
20
4.0502
11
-3.3864
21
4.05479
0
LINE
8
BLACK
6
CONTINUOUS
10
-3.3864
20
4.05479
11
-3.3965
21
4.06077
0
LINE
8
BLACK
6
CONTINUOUS
10
-3.3965
20
4.06077
11
-3.40573
21
4.06803
0
LINE
8
BLACK
6
CONTINUOUS
10
-3.40573
20
4.06803
11
-3.41392
21
4.07645
0
LINE
8
BLACK
6
CONTINUOUS
10
-3.41392
20
4.07645
11
-3.42092
21
4.08587
0
LINE
8
BLACK
6
CONTINUOUS
10
-3.42092
20
4.08587
11
-3.42661
21
4.09614
0
LINE
8
BLACK
6
CONTINUOUS
10
-3.42661
20
4.09614
11
-3.43089
21
4.10707
0
LINE
8
BLACK
6
CONTINUOUS
10
-3.43089
20
4.10707
11
-3.43369
21
4.11848
0
LINE
8
BLACK
6
CONTINUOUS
10
-3.43369
20
4.11848
11
-3.43496
21
4.13015
0
LINE
8
BLACK
6
CONTINUOUS
10
-3.43496
20
4.13015
11
-3.43467
21
4.14189
0
LINE
8
BLACK
6
CONTINUOUS
10
-3.43467
20
4.14189
11
-3.43284
21
4.15348
0
LINE
8
BLACK
6
CONTINUOUS
10
-3.43284
20
4.15348
11
-3.42948
21
4.16474
0
LINE
8
BLACK
6
CONTINUOUS
10
-3.42948
20
4.16474
11
-3.42467
21
4.17545
0
LINE
8
BLACK
6
CONTINUOUS
10
-3.42467
20
4.17545
11
-3.41848
21
4.18542
0
LINE
8
BLACK
6
CONTINUOUS
10
-3.41848
20
4.18542
11
-3.41103
21
4.1945
0
LINE
8
BLACK
6
CONTINUOUS
10
-3.41103
20
4.1945
11
-3.40244
21
4.2025
0
LINE
8
BLACK
6
CONTINUOUS
10
-3.40244
20
4.2025
11
-3.39287
21
4.20931
0
LINE
8
BLACK
6
CONTINUOUS
10
-3.39287
20
4.20931
11
-3.38249
21
4.21478
0
LINE
8
BLACK
6
CONTINUOUS
10
-3.38249
20
4.21478
11
-3.37147
21
4.21884
0
LINE
8
BLACK
6
CONTINUOUS
10
-3.37147
20
4.21884
11
-3.36001
21
4.2214
0
LINE
8
BLACK
6
CONTINUOUS
10
-3.36001
20
4.2214
11
-3.34831
21
4.22242
0
LINE
8
BLACK
6
CONTINUOUS
10
-3.34831
20
4.22242
11
-3.33658
21
4.22189
0
LINE
8
BLACK
6
CONTINUOUS
10
3.35633
20
4.22189
11
3.36789
21
4.21981
0
LINE
8
BLACK
6
CONTINUOUS
10
3.36789
20
4.21981
11
3.37907
21
4.21622
0
LINE
8
BLACK
6
CONTINUOUS
10
3.37907
20
4.21622
11
3.38967
21
4.21118
0
LINE
8
BLACK
6
CONTINUOUS
10
3.38967
20
4.21118
11
3.39952
21
4.20479
0
LINE
8
BLACK
6
CONTINUOUS
10
3.39952
20
4.20479
11
3.40843
21
4.19715
0
LINE
8
BLACK
6
CONTINUOUS
10
3.40843
20
4.19715
11
3.41626
21
4.1884
0
LINE
8
BLACK
6
CONTINUOUS
10
3.41626
20
4.1884
11
3.42286
21
4.17868
0
LINE
8
BLACK
6
CONTINUOUS
10
3.42286
20
4.17868
11
3.42812
21
4.16819
0
LINE
8
BLACK
6
CONTINUOUS
10
3.42812
20
4.16819
11
3.43194
21
4.15708
0
LINE
8
BLACK
6
CONTINUOUS
10
3.43194
20
4.15708
11
3.43426
21
4.14557
0
LINE
8
BLACK
6
CONTINUOUS
10
3.43426
20
4.14557
11
3.43504
21
4.13386
0
LINE
8
BLACK
6
CONTINUOUS
10
3.43504
20
4.13386
11
3.43493
21
4.12953
0
LINE
8
BLACK
6
CONTINUOUS
10
3.43493
20
4.12953
11
3.43358
21
4.11787
0
LINE
8
BLACK
6
CONTINUOUS
10
3.43358
20
4.11787
11
3.4307
21
4.10648
0
LINE
8
BLACK
6
CONTINUOUS
10
3.4307
20
4.10648
11
3.42634
21
4.09558
0
LINE
8
BLACK
6
CONTINUOUS
10
3.42634
20
4.09558
11
3.42058
21
4.08535
0
LINE
8
BLACK
6
CONTINUOUS
10
3.42058
20
4.08535
11
3.41351
21
4.07598
0
LINE
8
BLACK
6
CONTINUOUS
10
3.41351
20
4.07598
11
3.40527
21
4.06762
0
LINE
8
BLACK
6
CONTINUOUS
10
3.40527
20
4.06762
11
3.39599
21
4.06042
0
LINE
8
BLACK
6
CONTINUOUS
10
3.39599
20
4.06042
11
3.38584
21
4.05451
0
LINE
8
BLACK
6
CONTINUOUS
10
3.38584
20
4.05451
11
3.375
21
4.05
0
LINE
8
BLACK
6
CONTINUOUS
10
3.375
20
4.05
11
3.36366
21
4.04696
0
LINE
8
BLACK
6
CONTINUOUS
10
3.36366
20
4.04696
11
3.35202
21
4.04545
0
LINE
8
BLACK
6
CONTINUOUS
10
3.35202
20
4.04545
11
3.34028
21
4.04549
0
LINE
8
BLACK
6
CONTINUOUS
10
3.34028
20
4.04549
11
3.32864
21
4.04708
0
LINE
8
BLACK
6
CONTINUOUS
10
3.32864
20
4.04708
11
3.31732
21
4.0502
0
LINE
8
BLACK
6
CONTINUOUS
10
3.31732
20
4.0502
11
3.30652
21
4.05479
0
LINE
8
BLACK
6
CONTINUOUS
10
3.30652
20
4.05479
11
3.29641
21
4.06077
0
LINE
8
BLACK
6
CONTINUOUS
10
3.29641
20
4.06077
11
3.28718
21
4.06803
0
LINE
8
BLACK
6
CONTINUOUS
10
3.28718
20
4.06803
11
3.279
21
4.07645
0
LINE
8
BLACK
6
CONTINUOUS
10
3.279
20
4.07645
11
3.272
21
4.08587
0
LINE
8
BLACK
6
CONTINUOUS
10
3.272
20
4.08587
11
3.2663
21
4.09614
0
LINE
8
BLACK
6
CONTINUOUS
10
3.2663
20
4.09614
11
3.26202
21
4.10707
0
LINE
8
BLACK
6
CONTINUOUS
10
3.26202
20
4.10707
11
3.25922
21
4.11848
0
LINE
8
BLACK
6
CONTINUOUS
10
3.25922
20
4.11848
11
3.25795
21
4.13015
0
LINE
8
BLACK
6
CONTINUOUS
10
3.25795
20
4.13015
11
3.25824
21
4.14189
0
LINE
8
BLACK
6
CONTINUOUS
10
3.25824
20
4.14189
11
3.26008
21
4.15348
0
LINE
8
BLACK
6
CONTINUOUS
10
3.26008
20
4.15348
11
3.26343
21
4.16474
0
LINE
8
BLACK
6
CONTINUOUS
10
3.26343
20
4.16474
11
3.26824
21
4.17545
0
LINE
8
BLACK
6
CONTINUOUS
10
3.26824
20
4.17545
11
3.27443
21
4.18542
0
LINE
8
BLACK
6
CONTINUOUS
10
3.27443
20
4.18542
11
3.28188
21
4.1945
0
LINE
8
BLACK
6
CONTINUOUS
10
3.28188
20
4.1945
11
3.29047
21
4.2025
0
LINE
8
BLACK
6
CONTINUOUS
10
3.29047
20
4.2025
11
3.30004
21
4.20931
0
LINE
8
BLACK
6
CONTINUOUS
10
3.30004
20
4.20931
11
3.31043
21
4.21478
0
LINE
8
BLACK
6
CONTINUOUS
10
3.31043
20
4.21478
11
3.32145
21
4.21884
0
LINE
8
BLACK
6
CONTINUOUS
10
3.32145
20
4.21884
11
3.3329
21
4.2214
0
LINE
8
BLACK
6
CONTINUOUS
10
3.3329
20
4.2214
11
3.3446
21
4.22242
0
LINE
8
BLACK
6
CONTINUOUS
10
3.3446
20
4.22242
11
3.35633
21
4.22189
0
LINE
8
BLACK
6
CONTINUOUS
10
-0.954693
20
4.81244
11
-0.943137
21
4.81036
0
LINE
8
BLACK
6
CONTINUOUS
10
-0.943137
20
4.81036
11
-0.931957
21
4.80677
0
LINE
8
BLACK
6
CONTINUOUS
10
-0.931957
20
4.80677
11
-0.921351
21
4.80174
0
LINE
8
BLACK
6
CONTINUOUS
10
-0.921351
20
4.80174
11
-0.911504
21
4.79534
0
LINE
8
BLACK
6
CONTINUOUS
10
-0.911504
20
4.79534
11
-0.902589
21
4.7877
0
LINE
8
BLACK
6
CONTINUOUS
10
-0.902589
20
4.7877
11
-0.894763
21
4.77895
0
LINE
8
BLACK
6
CONTINUOUS
10
-0.894763
20
4.77895
11
-0.888163
21
4.76924
0
LINE
8
BLACK
6
CONTINUOUS
10
-0.888163
20
4.76924
11
-0.882906
21
4.75874
0
LINE
8
BLACK
6
CONTINUOUS
10
-0.882906
20
4.75874
11
-0.879083
21
4.74763
0
LINE
8
BLACK
6
CONTINUOUS
10
-0.879083
20
4.74763
11
-0.876762
21
4.73613
0
LINE
8
BLACK
6
CONTINUOUS
10
-0.876762
20
4.73613
11
-0.875984
21
4.72441
0
LINE
8
BLACK
6
CONTINUOUS
10
-0.875984
20
4.72441
11
-0.87609
21
4.72008
0
LINE
8
BLACK
6
CONTINUOUS
10
-0.87609
20
4.72008
11
-0.87744
21
4.70842
0
LINE
8
BLACK
6
CONTINUOUS
10
-0.87744
20
4.70842
11
-0.88032
21
4.69704
0
LINE
8
BLACK
6
CONTINUOUS
10
-0.88032
20
4.69704
11
-0.88468
21
4.68613
0
LINE
8
BLACK
6
CONTINUOUS
10
-0.88468
20
4.68613
11
-0.890444
21
4.6759
0
LINE
8
BLACK
6
CONTINUOUS
10
-0.890444
20
4.6759
11
-0.89751
21
4.66653
0
LINE
8
BLACK
6
CONTINUOUS
10
-0.89751
20
4.66653
11
-0.905755
21
4.65817
0
LINE
8
BLACK
6
CONTINUOUS
10
-0.905755
20
4.65817
11
-0.915032
21
4.65097
0
LINE
8
BLACK
6
CONTINUOUS
10
-0.915032
20
4.65097
11
-0.92518
21
4.64506
0
LINE
8
BLACK
6
CONTINUOUS
10
-0.92518
20
4.64506
11
-0.93602
21
4.64055
0
LINE
8
BLACK
6
CONTINUOUS
10
-0.93602
20
4.64055
11
-0.947361
21
4.63751
0
LINE
8
BLACK
6
CONTINUOUS
10
-0.947361
20
4.63751
11
-0.959005
21
4.636
0
LINE
8
BLACK
6
CONTINUOUS
10
-0.959005
20
4.636
11
-0.970746
21
4.63604
0
LINE
8
BLACK
6
CONTINUOUS
10
-0.970746
20
4.63604
11
-0.982379
21
4.63764
0
LINE
8
BLACK
6
CONTINUOUS
10
-0.982379
20
4.63764
11
-0.993699
21
4.64075
0
LINE
8
BLACK
6
CONTINUOUS
10
-0.993699
20
4.64075
11
-1.00451
21
4.64534
0
LINE
8
BLACK
6
CONTINUOUS
10
-1.00451
20
4.64534
11
-1.01461
21
4.65132
0
LINE
8
BLACK
6
CONTINUOUS
10
-1.01461
20
4.65132
11
-1.02384
21
4.65858
0
LINE
8
BLACK
6
CONTINUOUS
10
-1.02384
20
4.65858
11
-1.03203
21
4.667
0
LINE
8
BLACK
6
CONTINUOUS
10
-1.03203
20
4.667
11
-1.03903
21
4.67642
0
LINE
8
BLACK
6
CONTINUOUS
10
-1.03903
20
4.67642
11
-1.04472
21
4.68669
0
LINE
8
BLACK
6
CONTINUOUS
10
-1.04472
20
4.68669
11
-1.049
21
4.69762
0
LINE
8
BLACK
6
CONTINUOUS
10
-1.049
20
4.69762
11
-1.0518
21
4.70903
0
LINE
8
BLACK
6
CONTINUOUS
10
-1.0518
20
4.70903
11
-1.05307
21
4.7207
0
LINE
8
BLACK
6
CONTINUOUS
10
-1.05307
20
4.7207
11
-1.05279
21
4.73244
0
LINE
8
BLACK
6
CONTINUOUS
10
-1.05279
20
4.73244
11
-1.05095
21
4.74403
0
LINE
8
BLACK
6
CONTINUOUS
10
-1.05095
20
4.74403
11
-1.04759
21
4.75529
0
LINE
8
BLACK
6
CONTINUOUS
10
-1.04759
20
4.75529
11
-1.04278
21
4.766
0
LINE
8
BLACK
6
CONTINUOUS
10
-1.04278
20
4.766
11
-1.03659
21
4.77598
0
LINE
8
BLACK
6
CONTINUOUS
10
-1.03659
20
4.77598
11
-1.02914
21
4.78505
0
LINE
8
BLACK
6
CONTINUOUS
10
-1.02914
20
4.78505
11
-1.02055
21
4.79306
0
LINE
8
BLACK
6
CONTINUOUS
10
-1.02055
20
4.79306
11
-1.01098
21
4.79986
0
LINE
8
BLACK
6
CONTINUOUS
10
-1.01098
20
4.79986
11
-1.0006
21
4.80533
0
LINE
8
BLACK
6
CONTINUOUS
10
-1.0006
20
4.80533
11
-0.989577
21
4.80939
0
LINE
8
BLACK
6
CONTINUOUS
10
-0.989577
20
4.80939
11
-0.978119
21
4.81195
0
LINE
8
BLACK
6
CONTINUOUS
10
-0.978119
20
4.81195
11
-0.966422
21
4.81297
0
LINE
8
BLACK
6
CONTINUOUS
10
-0.966422
20
4.81297
11
-0.954693
21
4.81244
0
LINE
8
BLACK
6
CONTINUOUS
10
0.974441
20
4.81244
11
0.985997
21
4.81036
0
LINE
8
BLACK
6
CONTINUOUS
10
0.985997
20
4.81036
11
0.997176
21
4.80677
0
LINE
8
BLACK
6
CONTINUOUS
10
0.997176
20
4.80677
11
1.00778
21
4.80174
0
LINE
8
BLACK
6
CONTINUOUS
10
1.00778
20
4.80174
11
1.01763
21
4.79534
0
LINE
8
BLACK
6
CONTINUOUS
10
1.01763
20
4.79534
11
1.02655
21
4.7877
0
LINE
8
BLACK
6
CONTINUOUS
10
1.02655
20
4.7877
11
1.03437
21
4.77895
0
LINE
8
BLACK
6
CONTINUOUS
10
1.03437
20
4.77895
11
1.04097
21
4.76924
0
LINE
8
BLACK
6
CONTINUOUS
10
1.04097
20
4.76924
11
1.04623
21
4.75874
0
LINE
8
BLACK
6
CONTINUOUS
10
1.04623
20
4.75874
11
1.05005
21
4.74763
0
LINE
8
BLACK
6
CONTINUOUS
10
1.05005
20
4.74763
11
1.05237
21
4.73613
0
LINE
8
BLACK
6
CONTINUOUS
10
1.05237
20
4.73613
11
1.05315
21
4.72441
0
LINE
8
BLACK
6
CONTINUOUS
10
1.05315
20
4.72441
11
1.05304
21
4.72008
0
LINE
8
BLACK
6
CONTINUOUS
10
1.05304
20
4.72008
11
1.05169
21
4.70842
0
LINE
8
BLACK
6
CONTINUOUS
10
1.05169
20
4.70842
11
1.04881
21
4.69704
0
LINE
8
BLACK
6
CONTINUOUS
10
1.04881
20
4.69704
11
1.04445
21
4.68613
0
LINE
8
BLACK
6
CONTINUOUS
10
1.04445
20
4.68613
11
1.03869
21
4.6759
0
LINE
8
BLACK
6
CONTINUOUS
10
1.03869
20
4.6759
11
1.03162
21
4.66653
0
LINE
8
BLACK
6
CONTINUOUS
10
1.03162
20
4.66653
11
1.02338
21
4.65817
0
LINE
8
BLACK
6
CONTINUOUS
10
1.02338
20
4.65817
11
1.0141
21
4.65097
0
LINE
8
BLACK
6
CONTINUOUS
10
1.0141
20
4.65097
11
1.00395
21
4.64506
0
LINE
8
BLACK
6
CONTINUOUS
10
1.00395
20
4.64506
11
0.993114
21
4.64055
0
LINE
8
BLACK
6
CONTINUOUS
10
0.993114
20
4.64055
11
0.981773
21
4.63751
0
LINE
8
BLACK
6
CONTINUOUS
10
0.981773
20
4.63751
11
0.970129
21
4.636
0
LINE
8
BLACK
6
CONTINUOUS
10
0.970129
20
4.636
11
0.958388
21
4.63604
0
LINE
8
BLACK
6
CONTINUOUS
10
0.958388
20
4.63604
11
0.946755
21
4.63764
0
LINE
8
BLACK
6
CONTINUOUS
10
0.946755
20
4.63764
11
0.935435
21
4.64075
0
LINE
8
BLACK
6
CONTINUOUS
10
0.935435
20
4.64075
11
0.924627
21
4.64534
0
LINE
8
BLACK
6
CONTINUOUS
10
0.924627
20
4.64534
11
0.914521
21
4.65132
0
LINE
8
BLACK
6
CONTINUOUS
10
0.914521
20
4.65132
11
0.905294
21
4.65858
0
LINE
8
BLACK
6
CONTINUOUS
10
0.905294
20
4.65858
11
0.897108
21
4.667
0
LINE
8
BLACK
6
CONTINUOUS
10
0.897108
20
4.667
11
0.890107
21
4.67642
0
LINE
8
BLACK
6
CONTINUOUS
10
0.890107
20
4.67642
11
0.884415
21
4.68669
0
LINE
8
BLACK
6
CONTINUOUS
10
0.884415
20
4.68669
11
0.880131
21
4.69762
0
LINE
8
BLACK
6
CONTINUOUS
10
0.880131
20
4.69762
11
0.87733
21
4.70903
0
LINE
8
BLACK
6
CONTINUOUS
10
0.87733
20
4.70903
11
0.876062
21
4.7207
0
LINE
8
BLACK
6
CONTINUOUS
10
0.876062
20
4.7207
11
0.876349
21
4.73244
0
LINE
8
BLACK
6
CONTINUOUS
10
0.876349
20
4.73244
11
0.878186
21
4.74403
0
LINE
8
BLACK
6
CONTINUOUS
10
0.878186
20
4.74403
11
0.88154
21
4.75529
0
LINE
8
BLACK
6
CONTINUOUS
10
0.88154
20
4.75529
11
0.886353
21
4.766
0
LINE
8
BLACK
6
CONTINUOUS
10
0.886353
20
4.766
11
0.89254
21
4.77598
0
LINE
8
BLACK
6
CONTINUOUS
10
0.89254
20
4.77598
11
0.899993
21
4.78505
0
LINE
8
BLACK
6
CONTINUOUS
10
0.899993
20
4.78505
11
0.90858
21
4.79306
0
LINE
8
BLACK
6
CONTINUOUS
10
0.90858
20
4.79306
11
0.918151
21
4.79986
0
LINE
8
BLACK
6
CONTINUOUS
10
0.918151
20
4.79986
11
0.928537
21
4.80533
0
LINE
8
BLACK
6
CONTINUOUS
10
0.928537
20
4.80533
11
0.939556
21
4.80939
0
LINE
8
BLACK
6
CONTINUOUS
10
0.939556
20
4.80939
11
0.951015
21
4.81195
0
LINE
8
BLACK
6
CONTINUOUS
10
0.951015
20
4.81195
11
0.962712
21
4.81297
0
LINE
8
BLACK
6
CONTINUOUS
10
0.962712
20
4.81297
11
0.974441
21
4.81244
0
LINE
8
BLACK
6
CONTINUOUS
10
-1.32871
20
5.08803
11
-1.31715
21
5.08595
0
LINE
8
BLACK
6
CONTINUOUS
10
-1.31715
20
5.08595
11
-1.30597
21
5.08236
0
LINE
8
BLACK
6
CONTINUOUS
10
-1.30597
20
5.08236
11
-1.29537
21
5.07733
0
LINE
8
BLACK
6
CONTINUOUS
10
-1.29537
20
5.07733
11
-1.28552
21
5.07093
0
LINE
8
BLACK
6
CONTINUOUS
10
-1.28552
20
5.07093
11
-1.2766
21
5.06329
0
LINE
8
BLACK
6
CONTINUOUS
10
-1.2766
20
5.06329
11
-1.26878
21
5.05454
0
LINE
8
BLACK
6
CONTINUOUS
10
-1.26878
20
5.05454
11
-1.26218
21
5.04483
0
LINE
8
BLACK
6
CONTINUOUS
10
-1.26218
20
5.04483
11
-1.25692
21
5.03433
0
LINE
8
BLACK
6
CONTINUOUS
10
-1.25692
20
5.03433
11
-1.2531
21
5.02323
0
LINE
8
BLACK
6
CONTINUOUS
10
-1.2531
20
5.02323
11
-1.25078
21
5.01172
0
LINE
8
BLACK
6
CONTINUOUS
10
-1.25078
20
5.01172
11
-1.25
21
5
0
LINE
8
BLACK
6
CONTINUOUS
10
-1.25
20
5
11
-1.25011
21
4.99567
0
LINE
8
BLACK
6
CONTINUOUS
10
-1.25011
20
4.99567
11
-1.25146
21
4.98401
0
LINE
8
BLACK
6
CONTINUOUS
10
-1.25146
20
4.98401
11
-1.25434
21
4.97263
0
LINE
8
BLACK
6
CONTINUOUS
10
-1.25434
20
4.97263
11
-1.2587
21
4.96172
0
LINE
8
BLACK
6
CONTINUOUS
10
-1.2587
20
4.96172
11
-1.26446
21
4.9515
0
LINE
8
BLACK
6
CONTINUOUS
10
-1.26446
20
4.9515
11
-1.27153
21
4.94212
0
LINE
8
BLACK
6
CONTINUOUS
10
-1.27153
20
4.94212
11
-1.27977
21
4.93376
0
LINE
8
BLACK
6
CONTINUOUS
10
-1.27977
20
4.93376
11
-1.28905
21
4.92656
0
LINE
8
BLACK
6
CONTINUOUS
10
-1.28905
20
4.92656
11
-1.2992
21
4.92066
0
LINE
8
BLACK
6
CONTINUOUS
10
-1.2992
20
4.92066
11
-1.31004
21
4.91614
0
LINE
8
BLACK
6
CONTINUOUS
10
-1.31004
20
4.91614
11
-1.32138
21
4.9131
0
LINE
8
BLACK
6
CONTINUOUS
10
-1.32138
20
4.9131
11
-1.33302
21
4.91159
0
LINE
8
BLACK
6
CONTINUOUS
10
-1.33302
20
4.91159
11
-1.34476
21
4.91163
0
LINE
8
BLACK
6
CONTINUOUS
10
-1.34476
20
4.91163
11
-1.35639
21
4.91323
0
LINE
8
BLACK
6
CONTINUOUS
10
-1.35639
20
4.91323
11
-1.36771
21
4.91634
0
LINE
8
BLACK
6
CONTINUOUS
10
-1.36771
20
4.91634
11
-1.37852
21
4.92093
0
LINE
8
BLACK
6
CONTINUOUS
10
-1.37852
20
4.92093
11
-1.38863
21
4.92691
0
LINE
8
BLACK
6
CONTINUOUS
10
-1.38863
20
4.92691
11
-1.39786
21
4.93417
0
LINE
8
BLACK
6
CONTINUOUS
10
-1.39786
20
4.93417
11
-1.40604
21
4.94259
0
LINE
8
BLACK
6
CONTINUOUS
10
-1.40604
20
4.94259
11
-1.41304
21
4.95201
0
LINE
8
BLACK
6
CONTINUOUS
10
-1.41304
20
4.95201
11
-1.41873
21
4.96228
0
LINE
8
BLACK
6
CONTINUOUS
10
-1.41873
20
4.96228
11
-1.42302
21
4.97322
0
LINE
8
BLACK
6
CONTINUOUS
10
-1.42302
20
4.97322
11
-1.42582
21
4.98462
0
LINE
8
BLACK
6
CONTINUOUS
10
-1.42582
20
4.98462
11
-1.42709
21
4.99629
0
LINE
8
BLACK
6
CONTINUOUS
10
-1.42709
20
4.99629
11
-1.4268
21
5.00803
0
LINE
8
BLACK
6
CONTINUOUS
10
-1.4268
20
5.00803
11
-1.42496
21
5.01963
0
LINE
8
BLACK
6
CONTINUOUS
10
-1.42496
20
5.01963
11
-1.42161
21
5.03088
0
LINE
8
BLACK
6
CONTINUOUS
10
-1.42161
20
5.03088
11
-1.4168
21
5.04159
0
LINE
8
BLACK
6
CONTINUOUS
10
-1.4168
20
5.04159
11
-1.41061
21
5.05157
0
LINE
8
BLACK
6
CONTINUOUS
10
-1.41061
20
5.05157
11
-1.40316
21
5.06064
0
LINE
8
BLACK
6
CONTINUOUS
10
-1.40316
20
5.06064
11
-1.39457
21
5.06865
0
LINE
8
BLACK
6
CONTINUOUS
10
-1.39457
20
5.06865
11
-1.385
21
5.07545
0
LINE
8
BLACK
6
CONTINUOUS
10
-1.385
20
5.07545
11
-1.37461
21
5.08092
0
LINE
8
BLACK
6
CONTINUOUS
10
-1.37461
20
5.08092
11
-1.36359
21
5.08498
0
LINE
8
BLACK
6
CONTINUOUS
10
-1.36359
20
5.08498
11
-1.35213
21
5.08754
0
LINE
8
BLACK
6
CONTINUOUS
10
-1.35213
20
5.08754
11
-1.34044
21
5.08856
0
LINE
8
BLACK
6
CONTINUOUS
10
-1.34044
20
5.08856
11
-1.32871
21
5.08803
0
LINE
8
BLACK
6
CONTINUOUS
10
0.364205
20
5.08803
11
0.375761
21
5.08595
0
LINE
8
BLACK
6
CONTINUOUS
10
0.375761
20
5.08595
11
0.38694
21
5.08236
0
LINE
8
BLACK
6
CONTINUOUS
10
0.38694
20
5.08236
11
0.397547
21
5.07733
0
LINE
8
BLACK
6
CONTINUOUS
10
0.397547
20
5.07733
11
0.407394
21
5.07093
0
LINE
8
BLACK
6
CONTINUOUS
10
0.407394
20
5.07093
11
0.416309
21
5.06329
0
LINE
8
BLACK
6
CONTINUOUS
10
0.416309
20
5.06329
11
0.424135
21
5.05454
0
LINE
8
BLACK
6
CONTINUOUS
10
0.424135
20
5.05454
11
0.430734
21
5.04483
0
LINE
8
BLACK
6
CONTINUOUS
10
0.430734
20
5.04483
11
0.435992
21
5.03433
0
LINE
8
BLACK
6
CONTINUOUS
10
0.435992
20
5.03433
11
0.439814
21
5.02323
0
LINE
8
BLACK
6
CONTINUOUS
10
0.439814
20
5.02323
11
0.442135
21
5.01172
0
LINE
8
BLACK
6
CONTINUOUS
10
0.442135
20
5.01172
11
0.442913
21
5
0
LINE
8
BLACK
6
CONTINUOUS
10
0.442913
20
5
11
0.442808
21
4.99567
0
LINE
8
BLACK
6
CONTINUOUS
10
0.442808
20
4.99567
11
0.441458
21
4.98401
0
LINE
8
BLACK
6
CONTINUOUS
10
0.441458
20
4.98401
11
0.438578
21
4.97263
0
LINE
8
BLACK
6
CONTINUOUS
10
0.438578
20
4.97263
11
0.434217
21
4.96172
0
LINE
8
BLACK
6
CONTINUOUS
10
0.434217
20
4.96172
11
0.428454
21
4.9515
0
LINE
8
BLACK
6
CONTINUOUS
10
0.428454
20
4.9515
11
0.421387
21
4.94212
0
LINE
8
BLACK
6
CONTINUOUS
10
0.421387
20
4.94212
11
0.413143
21
4.93376
0
LINE
8
BLACK
6
CONTINUOUS
10
0.413143
20
4.93376
11
0.403866
21
4.92656
0
LINE
8
BLACK
6
CONTINUOUS
10
0.403866
20
4.92656
11
0.393718
21
4.92066
0
LINE
8
BLACK
6
CONTINUOUS
10
0.393718
20
4.92066
11
0.382878
21
4.91614
0
LINE
8
BLACK
6
CONTINUOUS
10
0.382878
20
4.91614
11
0.371536
21
4.9131
0
LINE
8
BLACK
6
CONTINUOUS
10
0.371536
20
4.9131
11
0.359893
21
4.91159
0
LINE
8
BLACK
6
CONTINUOUS
10
0.359893
20
4.91159
11
0.348151
21
4.91163
0
LINE
8
BLACK
6
CONTINUOUS
10
0.348151
20
4.91163
11
0.336519
21
4.91323
0
LINE
8
BLACK
6
CONTINUOUS
10
0.336519
20
4.91323
11
0.325199
21
4.91634
0
LINE
8
BLACK
6
CONTINUOUS
10
0.325199
20
4.91634
11
0.314391
21
4.92093
0
LINE
8
BLACK
6
CONTINUOUS
10
0.314391
20
4.92093
11
0.304284
21
4.92691
0
LINE
8
BLACK
6
CONTINUOUS
10
0.304284
20
4.92691
11
0.295057
21
4.93417
0
LINE
8
BLACK
6
CONTINUOUS
10
0.295057
20
4.93417
11
0.286872
21
4.94259
0
LINE
8
BLACK
6
CONTINUOUS
10
0.286872
20
4.94259
11
0.279871
21
4.95201
0
LINE
8
BLACK
6
CONTINUOUS
10
0.279871
20
4.95201
11
0.274179
21
4.96228
0
LINE
8
BLACK
6
CONTINUOUS
10
0.274179
20
4.96228
11
0.269895
21
4.97322
0
LINE
8
BLACK
6
CONTINUOUS
10
0.269895
20
4.97322
11
0.267094
21
4.98462
0
LINE
8
BLACK
6
CONTINUOUS
10
0.267094
20
4.98462
11
0.265826
21
4.99629
0
LINE
8
BLACK
6
CONTINUOUS
10
0.265826
20
4.99629
11
0.266113
21
5.00803
0
LINE
8
BLACK
6
CONTINUOUS
10
0.266113
20
5.00803
11
0.267949
21
5.01963
0
LINE
8
BLACK
6
CONTINUOUS
10
0.267949
20
5.01963
11
0.271304
21
5.03088
0
LINE
8
BLACK
6
CONTINUOUS
10
0.271304
20
5.03088
11
0.276117
21
5.04159
0
LINE
8
BLACK
6
CONTINUOUS
10
0.276117
20
5.04159
11
0.282304
21
5.05157
0
LINE
8
BLACK
6
CONTINUOUS
10
0.282304
20
5.05157
11
0.289757
21
5.06064
0
LINE
8
BLACK
6
CONTINUOUS
10
0.289757
20
5.06064
11
0.298344
21
5.06865
0
LINE
8
BLACK
6
CONTINUOUS
10
0.298344
20
5.06865
11
0.307915
21
5.07545
0
LINE
8
BLACK
6
CONTINUOUS
10
0.307915
20
5.07545
11
0.318301
21
5.08092
0
LINE
8
BLACK
6
CONTINUOUS
10
0.318301
20
5.08092
11
0.32932
21
5.08498
0
LINE
8
BLACK
6
CONTINUOUS
10
0.32932
20
5.08498
11
0.340779
21
5.08754
0
LINE
8
BLACK
6
CONTINUOUS
10
0.340779
20
5.08754
11
0.352476
21
5.08856
0
LINE
8
BLACK
6
CONTINUOUS
10
0.352476
20
5.08856
11
0.364205
21
5.08803
0
LINE
8
BLACK
6
CONTINUOUS
10
-1.32871
20
6.58409
11
-1.31715
21
6.58201
0
LINE
8
BLACK
6
CONTINUOUS
10
-1.31715
20
6.58201
11
-1.30597
21
6.57843
0
LINE
8
BLACK
6
CONTINUOUS
10
-1.30597
20
6.57843
11
-1.29537
21
6.57339
0
LINE
8
BLACK
6
CONTINUOUS
10
-1.29537
20
6.57339
11
-1.28552
21
6.56699
0
LINE
8
BLACK
6
CONTINUOUS
10
-1.28552
20
6.56699
11
-1.2766
21
6.55935
0
LINE
8
BLACK
6
CONTINUOUS
10
-1.2766
20
6.55935
11
-1.26878
21
6.5506
0
LINE
8
BLACK
6
CONTINUOUS
10
-1.26878
20
6.5506
11
-1.26218
21
6.54089
0
LINE
8
BLACK
6
CONTINUOUS
10
-1.26218
20
6.54089
11
-1.25692
21
6.53039
0
LINE
8
BLACK
6
CONTINUOUS
10
-1.25692
20
6.53039
11
-1.2531
21
6.51929
0
LINE
8
BLACK
6
CONTINUOUS
10
-1.2531
20
6.51929
11
-1.25078
21
6.50778
0
LINE
8
BLACK
6
CONTINUOUS
10
-1.25078
20
6.50778
11
-1.25
21
6.49606
0
LINE
8
BLACK
6
CONTINUOUS
10
-1.25
20
6.49606
11
-1.25011
21
6.49174
0
LINE
8
BLACK
6
CONTINUOUS
10
-1.25011
20
6.49174
11
-1.25146
21
6.48007
0
LINE
8
BLACK
6
CONTINUOUS
10
-1.25146
20
6.48007
11
-1.25434
21
6.46869
0
LINE
8
BLACK
6
CONTINUOUS
10
-1.25434
20
6.46869
11
-1.2587
21
6.45779
0
LINE
8
BLACK
6
CONTINUOUS
10
-1.2587
20
6.45779
11
-1.26446
21
6.44756
0
LINE
8
BLACK
6
CONTINUOUS
10
-1.26446
20
6.44756
11
-1.27153
21
6.43818
0
LINE
8
BLACK
6
CONTINUOUS
10
-1.27153
20
6.43818
11
-1.27977
21
6.42982
0
LINE
8
BLACK
6
CONTINUOUS
10
-1.27977
20
6.42982
11
-1.28905
21
6.42262
0
LINE
8
BLACK
6
CONTINUOUS
10
-1.28905
20
6.42262
11
-1.2992
21
6.41672
0
LINE
8
BLACK
6
CONTINUOUS
10
-1.2992
20
6.41672
11
-1.31004
21
6.41221
0
LINE
8
BLACK
6
CONTINUOUS
10
-1.31004
20
6.41221
11
-1.32138
21
6.40917
0
LINE
8
BLACK
6
CONTINUOUS
10
-1.32138
20
6.40917
11
-1.33302
21
6.40766
0
LINE
8
BLACK
6
CONTINUOUS
10
-1.33302
20
6.40766
11
-1.34476
21
6.4077
0
LINE
8
BLACK
6
CONTINUOUS
10
-1.34476
20
6.4077
11
-1.35639
21
6.40929
0
LINE
8
BLACK
6
CONTINUOUS
10
-1.35639
20
6.40929
11
-1.36771
21
6.41241
0
LINE
8
BLACK
6
CONTINUOUS
10
-1.36771
20
6.41241
11
-1.37852
21
6.417
0
LINE
8
BLACK
6
CONTINUOUS
10
-1.37852
20
6.417
11
-1.38863
21
6.42297
0
LINE
8
BLACK
6
CONTINUOUS
10
-1.38863
20
6.42297
11
-1.39786
21
6.43023
0
LINE
8
BLACK
6
CONTINUOUS
10
-1.39786
20
6.43023
11
-1.40604
21
6.43865
0
LINE
8
BLACK
6
CONTINUOUS
10
-1.40604
20
6.43865
11
-1.41304
21
6.44808
0
LINE
8
BLACK
6
CONTINUOUS
10
-1.41304
20
6.44808
11
-1.41873
21
6.45835
0
LINE
8
BLACK
6
CONTINUOUS
10
-1.41873
20
6.45835
11
-1.42302
21
6.46928
0
LINE
8
BLACK
6
CONTINUOUS
10
-1.42302
20
6.46928
11
-1.42582
21
6.48068
0
LINE
8
BLACK
6
CONTINUOUS
10
-1.42582
20
6.48068
11
-1.42709
21
6.49235
0
LINE
8
BLACK
6
CONTINUOUS
10
-1.42709
20
6.49235
11
-1.4268
21
6.50409
0
LINE
8
BLACK
6
CONTINUOUS
10
-1.4268
20
6.50409
11
-1.42496
21
6.51569
0
LINE
8
BLACK
6
CONTINUOUS
10
-1.42496
20
6.51569
11
-1.42161
21
6.52694
0
LINE
8
BLACK
6
CONTINUOUS
10
-1.42161
20
6.52694
11
-1.4168
21
6.53765
0
LINE
8
BLACK
6
CONTINUOUS
10
-1.4168
20
6.53765
11
-1.41061
21
6.54763
0
LINE
8
BLACK
6
CONTINUOUS
10
-1.41061
20
6.54763
11
-1.40316
21
6.5567
0
LINE
8
BLACK
6
CONTINUOUS
10
-1.40316
20
6.5567
11
-1.39457
21
6.56471
0
LINE
8
BLACK
6
CONTINUOUS
10
-1.39457
20
6.56471
11
-1.385
21
6.57151
0
LINE
8
BLACK
6
CONTINUOUS
10
-1.385
20
6.57151
11
-1.37461
21
6.57699
0
LINE
8
BLACK
6
CONTINUOUS
10
-1.37461
20
6.57699
11
-1.36359
21
6.58104
0
LINE
8
BLACK
6
CONTINUOUS
10
-1.36359
20
6.58104
11
-1.35213
21
6.5836
0
LINE
8
BLACK
6
CONTINUOUS
10
-1.35213
20
6.5836
11
-1.34044
21
6.58463
0
LINE
8
BLACK
6
CONTINUOUS
10
-1.34044
20
6.58463
11
-1.32871
21
6.58409
0
LINE
8
BLACK
6
CONTINUOUS
10
0.364205
20
6.58409
11
0.375761
21
6.58201
0
LINE
8
BLACK
6
CONTINUOUS
10
0.375761
20
6.58201
11
0.38694
21
6.57843
0
LINE
8
BLACK
6
CONTINUOUS
10
0.38694
20
6.57843
11
0.397547
21
6.57339
0
LINE
8
BLACK
6
CONTINUOUS
10
0.397547
20
6.57339
11
0.407394
21
6.56699
0
LINE
8
BLACK
6
CONTINUOUS
10
0.407394
20
6.56699
11
0.416309
21
6.55935
0
LINE
8
BLACK
6
CONTINUOUS
10
0.416309
20
6.55935
11
0.424135
21
6.5506
0
LINE
8
BLACK
6
CONTINUOUS
10
0.424135
20
6.5506
11
0.430734
21
6.54089
0
LINE
8
BLACK
6
CONTINUOUS
10
0.430734
20
6.54089
11
0.435992
21
6.53039
0
LINE
8
BLACK
6
CONTINUOUS
10
0.435992
20
6.53039
11
0.439814
21
6.51929
0
LINE
8
BLACK
6
CONTINUOUS
10
0.439814
20
6.51929
11
0.442135
21
6.50778
0
LINE
8
BLACK
6
CONTINUOUS
10
0.442135
20
6.50778
11
0.442913
21
6.49606
0
LINE
8
BLACK
6
CONTINUOUS
10
0.442913
20
6.49606
11
0.442808
21
6.49174
0
LINE
8
BLACK
6
CONTINUOUS
10
0.442808
20
6.49174
11
0.441458
21
6.48007
0
LINE
8
BLACK
6
CONTINUOUS
10
0.441458
20
6.48007
11
0.438578
21
6.46869
0
LINE
8
BLACK
6
CONTINUOUS
10
0.438578
20
6.46869
11
0.434217
21
6.45779
0
LINE
8
BLACK
6
CONTINUOUS
10
0.434217
20
6.45779
11
0.428454
21
6.44756
0
LINE
8
BLACK
6
CONTINUOUS
10
0.428454
20
6.44756
11
0.421387
21
6.43818
0
LINE
8
BLACK
6
CONTINUOUS
10
0.421387
20
6.43818
11
0.413143
21
6.42982
0
LINE
8
BLACK
6
CONTINUOUS
10
0.413143
20
6.42982
11
0.403866
21
6.42262
0
LINE
8
BLACK
6
CONTINUOUS
10
0.403866
20
6.42262
11
0.393718
21
6.41672
0
LINE
8
BLACK
6
CONTINUOUS
10
0.393718
20
6.41672
11
0.382878
21
6.41221
0
LINE
8
BLACK
6
CONTINUOUS
10
0.382878
20
6.41221
11
0.371536
21
6.40917
0
LINE
8
BLACK
6
CONTINUOUS
10
0.371536
20
6.40917
11
0.359893
21
6.40766
0
LINE
8
BLACK
6
CONTINUOUS
10
0.359893
20
6.40766
11
0.348151
21
6.4077
0
LINE
8
BLACK
6
CONTINUOUS
10
0.348151
20
6.4077
11
0.336519
21
6.40929
0
LINE
8
BLACK
6
CONTINUOUS
10
0.336519
20
6.40929
11
0.325199
21
6.41241
0
LINE
8
BLACK
6
CONTINUOUS
10
0.325199
20
6.41241
11
0.314391
21
6.417
0
LINE
8
BLACK
6
CONTINUOUS
10
0.314391
20
6.417
11
0.304284
21
6.42297
0
LINE
8
BLACK
6
CONTINUOUS
10
0.304284
20
6.42297
11
0.295057
21
6.43023
0
LINE
8
BLACK
6
CONTINUOUS
10
0.295057
20
6.43023
11
0.286872
21
6.43865
0
LINE
8
BLACK
6
CONTINUOUS
10
0.286872
20
6.43865
11
0.279871
21
6.44808
0
LINE
8
BLACK
6
CONTINUOUS
10
0.279871
20
6.44808
11
0.274179
21
6.45835
0
LINE
8
BLACK
6
CONTINUOUS
10
0.274179
20
6.45835
11
0.269895
21
6.46928
0
LINE
8
BLACK
6
CONTINUOUS
10
0.269895
20
6.46928
11
0.267094
21
6.48068
0
LINE
8
BLACK
6
CONTINUOUS
10
0.267094
20
6.48068
11
0.265826
21
6.49235
0
LINE
8
BLACK
6
CONTINUOUS
10
0.265826
20
6.49235
11
0.266113
21
6.50409
0
LINE
8
BLACK
6
CONTINUOUS
10
0.266113
20
6.50409
11
0.267949
21
6.51569
0
LINE
8
BLACK
6
CONTINUOUS
10
0.267949
20
6.51569
11
0.271304
21
6.52694
0
LINE
8
BLACK
6
CONTINUOUS
10
0.271304
20
6.52694
11
0.276117
21
6.53765
0
LINE
8
BLACK
6
CONTINUOUS
10
0.276117
20
6.53765
11
0.282304
21
6.54763
0
LINE
8
BLACK
6
CONTINUOUS
10
0.282304
20
6.54763
11
0.289757
21
6.5567
0
LINE
8
BLACK
6
CONTINUOUS
10
0.289757
20
6.5567
11
0.298344
21
6.56471
0
LINE
8
BLACK
6
CONTINUOUS
10
0.298344
20
6.56471
11
0.307915
21
6.57151
0
LINE
8
BLACK
6
CONTINUOUS
10
0.307915
20
6.57151
11
0.318301
21
6.57699
0
LINE
8
BLACK
6
CONTINUOUS
10
0.318301
20
6.57699
11
0.32932
21
6.58104
0
LINE
8
BLACK
6
CONTINUOUS
10
0.32932
20
6.58104
11
0.340779
21
6.5836
0
LINE
8
BLACK
6
CONTINUOUS
10
0.340779
20
6.5836
11
0.352476
21
6.58463
0
LINE
8
BLACK
6
CONTINUOUS
10
0.352476
20
6.58463
11
0.364205
21
6.58409
0
LINE
8
BLACK
6
CONTINUOUS
10
0.974441
20
7.0959
11
0.985997
21
7.09383
0
LINE
8
BLACK
6
CONTINUOUS
10
0.985997
20
7.09383
11
0.997176
21
7.09024
0
LINE
8
BLACK
6
CONTINUOUS
10
0.997176
20
7.09024
11
1.00778
21
7.0852
0
LINE
8
BLACK
6
CONTINUOUS
10
1.00778
20
7.0852
11
1.01763
21
7.0788
0
LINE
8
BLACK
6
CONTINUOUS
10
1.01763
20
7.0788
11
1.02655
21
7.07116
0
LINE
8
BLACK
6
CONTINUOUS
10
1.02655
20
7.07116
11
1.03437
21
7.06241
0
LINE
8
BLACK
6
CONTINUOUS
10
1.03437
20
7.06241
11
1.04097
21
7.0527
0
LINE
8
BLACK
6
CONTINUOUS
10
1.04097
20
7.0527
11
1.04623
21
7.0422
0
LINE
8
BLACK
6
CONTINUOUS
10
1.04623
20
7.0422
11
1.05005
21
7.0311
0
LINE
8
BLACK
6
CONTINUOUS
10
1.05005
20
7.0311
11
1.05237
21
7.01959
0
LINE
8
BLACK
6
CONTINUOUS
10
1.05237
20
7.01959
11
1.05315
21
7.00787
0
LINE
8
BLACK
6
CONTINUOUS
10
1.05315
20
7.00787
11
1.05304
21
7.00355
0
LINE
8
BLACK
6
CONTINUOUS
10
1.05304
20
7.00355
11
1.05169
21
6.99188
0
LINE
8
BLACK
6
CONTINUOUS
10
1.05169
20
6.99188
11
1.04881
21
6.9805
0
LINE
8
BLACK
6
CONTINUOUS
10
1.04881
20
6.9805
11
1.04445
21
6.9696
0
LINE
8
BLACK
6
CONTINUOUS
10
1.04445
20
6.9696
11
1.03869
21
6.95937
0
LINE
8
BLACK
6
CONTINUOUS
10
1.03869
20
6.95937
11
1.03162
21
6.94999
0
LINE
8
BLACK
6
CONTINUOUS
10
1.03162
20
6.94999
11
1.02338
21
6.94163
0
LINE
8
BLACK
6
CONTINUOUS
10
1.02338
20
6.94163
11
1.0141
21
6.93444
0
LINE
8
BLACK
6
CONTINUOUS
10
1.0141
20
6.93444
11
1.00395
21
6.92853
0
LINE
8
BLACK
6
CONTINUOUS
10
1.00395
20
6.92853
11
0.993114
21
6.92402
0
LINE
8
BLACK
6
CONTINUOUS
10
0.993114
20
6.92402
11
0.981773
21
6.92098
0
LINE
8
BLACK
6
CONTINUOUS
10
0.981773
20
6.92098
11
0.970129
21
6.91947
0
LINE
8
BLACK
6
CONTINUOUS
10
0.970129
20
6.91947
11
0.958388
21
6.91951
0
LINE
8
BLACK
6
CONTINUOUS
10
0.958388
20
6.91951
11
0.946755
21
6.9211
0
LINE
8
BLACK
6
CONTINUOUS
10
0.946755
20
6.9211
11
0.935435
21
6.92422
0
LINE
8
BLACK
6
CONTINUOUS
10
0.935435
20
6.92422
11
0.924627
21
6.92881
0
LINE
8
BLACK
6
CONTINUOUS
10
0.924627
20
6.92881
11
0.914521
21
6.93478
0
LINE
8
BLACK
6
CONTINUOUS
10
0.914521
20
6.93478
11
0.905294
21
6.94204
0
LINE
8
BLACK
6
CONTINUOUS
10
0.905294
20
6.94204
11
0.897108
21
6.95046
0
LINE
8
BLACK
6
CONTINUOUS
10
0.897108
20
6.95046
11
0.890107
21
6.95989
0
LINE
8
BLACK
6
CONTINUOUS
10
0.890107
20
6.95989
11
0.884415
21
6.97016
0
LINE
8
BLACK
6
CONTINUOUS
10
0.884415
20
6.97016
11
0.880131
21
6.98109
0
LINE
8
BLACK
6
CONTINUOUS
10
0.880131
20
6.98109
11
0.87733
21
6.99249
0
LINE
8
BLACK
6
CONTINUOUS
10
0.87733
20
6.99249
11
0.876062
21
7.00416
0
LINE
8
BLACK
6
CONTINUOUS
10
0.876062
20
7.00416
11
0.876349
21
7.0159
0
LINE
8
BLACK
6
CONTINUOUS
10
0.876349
20
7.0159
11
0.878186
21
7.0275
0
LINE
8
BLACK
6
CONTINUOUS
10
0.878186
20
7.0275
11
0.88154
21
7.03875
0
LINE
8
BLACK
6
CONTINUOUS
10
0.88154
20
7.03875
11
0.886353
21
7.04946
0
LINE
8
BLACK
6
CONTINUOUS
10
0.886353
20
7.04946
11
0.89254
21
7.05944
0
LINE
8
BLACK
6
CONTINUOUS
10
0.89254
20
7.05944
11
0.899993
21
7.06851
0
LINE
8
BLACK
6
CONTINUOUS
10
0.899993
20
7.06851
11
0.90858
21
7.07652
0
LINE
8
BLACK
6
CONTINUOUS
10
0.90858
20
7.07652
11
0.918151
21
7.08332
0
LINE
8
BLACK
6
CONTINUOUS
10
0.918151
20
7.08332
11
0.928537
21
7.0888
0
LINE
8
BLACK
6
CONTINUOUS
10
0.928537
20
7.0888
11
0.939556
21
7.09285
0
LINE
8
BLACK
6
CONTINUOUS
10
0.939556
20
7.09285
11
0.951015
21
7.09541
0
LINE
8
BLACK
6
CONTINUOUS
10
0.951015
20
7.09541
11
0.962712
21
7.09644
0
LINE
8
BLACK
6
CONTINUOUS
10
0.962712
20
7.09644
11
0.974441
21
7.0959
0
LINE
8
BLACK
6
CONTINUOUS
10
-0.954693
20
7.0959
11
-0.943137
21
7.09383
0
LINE
8
BLACK
6
CONTINUOUS
10
-0.943137
20
7.09383
11
-0.931957
21
7.09024
0
LINE
8
BLACK
6
CONTINUOUS
10
-0.931957
20
7.09024
11
-0.921351
21
7.0852
0
LINE
8
BLACK
6
CONTINUOUS
10
-0.921351
20
7.0852
11
-0.911504
21
7.0788
0
LINE
8
BLACK
6
CONTINUOUS
10
-0.911504
20
7.0788
11
-0.902589
21
7.07116
0
LINE
8
BLACK
6
CONTINUOUS
10
-0.902589
20
7.07116
11
-0.894763
21
7.06241
0
LINE
8
BLACK
6
CONTINUOUS
10
-0.894763
20
7.06241
11
-0.888163
21
7.0527
0
LINE
8
BLACK
6
CONTINUOUS
10
-0.888163
20
7.0527
11
-0.882906
21
7.0422
0
LINE
8
BLACK
6
CONTINUOUS
10
-0.882906
20
7.0422
11
-0.879083
21
7.0311
0
LINE
8
BLACK
6
CONTINUOUS
10
-0.879083
20
7.0311
11
-0.876762
21
7.01959
0
LINE
8
BLACK
6
CONTINUOUS
10
-0.876762
20
7.01959
11
-0.875984
21
7.00787
0
LINE
8
BLACK
6
CONTINUOUS
10
-0.875984
20
7.00787
11
-0.87609
21
7.00355
0
LINE
8
BLACK
6
CONTINUOUS
10
-0.87609
20
7.00355
11
-0.87744
21
6.99188
0
LINE
8
BLACK
6
CONTINUOUS
10
-0.87744
20
6.99188
11
-0.88032
21
6.9805
0
LINE
8
BLACK
6
CONTINUOUS
10
-0.88032
20
6.9805
11
-0.88468
21
6.9696
0
LINE
8
BLACK
6
CONTINUOUS
10
-0.88468
20
6.9696
11
-0.890444
21
6.95937
0
LINE
8
BLACK
6
CONTINUOUS
10
-0.890444
20
6.95937
11
-0.89751
21
6.94999
0
LINE
8
BLACK
6
CONTINUOUS
10
-0.89751
20
6.94999
11
-0.905755
21
6.94163
0
LINE
8
BLACK
6
CONTINUOUS
10
-0.905755
20
6.94163
11
-0.915032
21
6.93444
0
LINE
8
BLACK
6
CONTINUOUS
10
-0.915032
20
6.93444
11
-0.92518
21
6.92853
0
LINE
8
BLACK
6
CONTINUOUS
10
-0.92518
20
6.92853
11
-0.93602
21
6.92402
0
LINE
8
BLACK
6
CONTINUOUS
10
-0.93602
20
6.92402
11
-0.947361
21
6.92098
0
LINE
8
BLACK
6
CONTINUOUS
10
-0.947361
20
6.92098
11
-0.959005
21
6.91947
0
LINE
8
BLACK
6
CONTINUOUS
10
-0.959005
20
6.91947
11
-0.970746
21
6.91951
0
LINE
8
BLACK
6
CONTINUOUS
10
-0.970746
20
6.91951
11
-0.982379
21
6.9211
0
LINE
8
BLACK
6
CONTINUOUS
10
-0.982379
20
6.9211
11
-0.993699
21
6.92422
0
LINE
8
BLACK
6
CONTINUOUS
10
-0.993699
20
6.92422
11
-1.00451
21
6.92881
0
LINE
8
BLACK
6
CONTINUOUS
10
-1.00451
20
6.92881
11
-1.01461
21
6.93478
0
LINE
8
BLACK
6
CONTINUOUS
10
-1.01461
20
6.93478
11
-1.02384
21
6.94204
0
LINE
8
BLACK
6
CONTINUOUS
10
-1.02384
20
6.94204
11
-1.03203
21
6.95046
0
LINE
8
BLACK
6
CONTINUOUS
10
-1.03203
20
6.95046
11
-1.03903
21
6.95989
0
LINE
8
BLACK
6
CONTINUOUS
10
-1.03903
20
6.95989
11
-1.04472
21
6.97016
0
LINE
8
BLACK
6
CONTINUOUS
10
-1.04472
20
6.97016
11
-1.049
21
6.98109
0
LINE
8
BLACK
6
CONTINUOUS
10
-1.049
20
6.98109
11
-1.0518
21
6.99249
0
LINE
8
BLACK
6
CONTINUOUS
10
-1.0518
20
6.99249
11
-1.05307
21
7.00416
0
LINE
8
BLACK
6
CONTINUOUS
10
-1.05307
20
7.00416
11
-1.05279
21
7.0159
0
LINE
8
BLACK
6
CONTINUOUS
10
-1.05279
20
7.0159
11
-1.05095
21
7.0275
0
LINE
8
BLACK
6
CONTINUOUS
10
-1.05095
20
7.0275
11
-1.04759
21
7.03875
0
LINE
8
BLACK
6
CONTINUOUS
10
-1.04759
20
7.03875
11
-1.04278
21
7.04946
0
LINE
8
BLACK
6
CONTINUOUS
10
-1.04278
20
7.04946
11
-1.03659
21
7.05944
0
LINE
8
BLACK
6
CONTINUOUS
10
-1.03659
20
7.05944
11
-1.02914
21
7.06851
0
LINE
8
BLACK
6
CONTINUOUS
10
-1.02914
20
7.06851
11
-1.02055
21
7.07652
0
LINE
8
BLACK
6
CONTINUOUS
10
-1.02055
20
7.07652
11
-1.01098
21
7.08332
0
LINE
8
BLACK
6
CONTINUOUS
10
-1.01098
20
7.08332
11
-1.0006
21
7.0888
0
LINE
8
BLACK
6
CONTINUOUS
10
-1.0006
20
7.0888
11
-0.989577
21
7.09285
0
LINE
8
BLACK
6
CONTINUOUS
10
-0.989577
20
7.09285
11
-0.978119
21
7.09541
0
LINE
8
BLACK
6
CONTINUOUS
10
-0.978119
20
7.09541
11
-0.966422
21
7.09644
0
LINE
8
BLACK
6
CONTINUOUS
10
-0.966422
20
7.09644
11
-0.954693
21
7.0959
0
LINE
8
BLACK
6
CONTINUOUS
10
-0.299113
20
7.3521
11
-0.289034
21
7.35046
0
LINE
8
BLACK
6
CONTINUOUS
10
-0.289034
20
7.35046
11
-0.279309
21
7.34735
0
LINE
8
BLACK
6
CONTINUOUS
10
-0.279309
20
7.34735
11
-0.27015
21
7.34283
0
LINE
8
BLACK
6
CONTINUOUS
10
-0.27015
20
7.34283
11
-0.261759
21
7.33701
0
LINE
8
BLACK
6
CONTINUOUS
10
-0.261759
20
7.33701
11
-0.254321
21
7.33001
0
LINE
8
BLACK
6
CONTINUOUS
10
-0.254321
20
7.33001
11
-0.247999
21
7.32199
0
LINE
8
BLACK
6
CONTINUOUS
10
-0.247999
20
7.32199
11
-0.242932
21
7.31313
0
LINE
8
BLACK
6
CONTINUOUS
10
-0.242932
20
7.31313
11
-0.239231
21
7.30361
0
LINE
8
BLACK
6
CONTINUOUS
10
-0.239231
20
7.30361
11
-0.236977
21
7.29365
0
LINE
8
BLACK
6
CONTINUOUS
10
-0.236977
20
7.29365
11
-0.23622
21
7.28346
0
LINE
8
BLACK
6
CONTINUOUS
10
-0.23622
20
7.28346
11
-0.236315
21
7.27986
0
LINE
8
BLACK
6
CONTINUOUS
10
-0.236315
20
7.27986
11
-0.237604
21
7.26973
0
LINE
8
BLACK
6
CONTINUOUS
10
-0.237604
20
7.26973
11
-0.240376
21
7.2599
0
LINE
8
BLACK
6
CONTINUOUS
10
-0.240376
20
7.2599
11
-0.24457
21
7.25059
0
LINE
8
BLACK
6
CONTINUOUS
10
-0.24457
20
7.25059
11
-0.250094
21
7.242
0
LINE
8
BLACK
6
CONTINUOUS
10
-0.250094
20
7.242
11
-0.256827
21
7.23432
0
LINE
8
BLACK
6
CONTINUOUS
10
-0.256827
20
7.23432
11
-0.264621
21
7.22773
0
LINE
8
BLACK
6
CONTINUOUS
10
-0.264621
20
7.22773
11
-0.273305
21
7.22235
0
LINE
8
BLACK
6
CONTINUOUS
10
-0.273305
20
7.22235
11
-0.282687
21
7.21832
0
LINE
8
BLACK
6
CONTINUOUS
10
-0.282687
20
7.21832
11
-0.292563
21
7.21572
0
LINE
8
BLACK
6
CONTINUOUS
10
-0.292563
20
7.21572
11
-0.302714
21
7.21461
0
LINE
8
BLACK
6
CONTINUOUS
10
-0.302714
20
7.21461
11
-0.312918
21
7.21501
0
LINE
8
BLACK
6
CONTINUOUS
10
-0.312918
20
7.21501
11
-0.32295
21
7.21691
0
LINE
8
BLACK
6
CONTINUOUS
10
-0.32295
20
7.21691
11
-0.332591
21
7.22028
0
LINE
8
BLACK
6
CONTINUOUS
10
-0.332591
20
7.22028
11
-0.341628
21
7.22504
0
LINE
8
BLACK
6
CONTINUOUS
10
-0.341628
20
7.22504
11
-0.349864
21
7.23107
0
LINE
8
BLACK
6
CONTINUOUS
10
-0.349864
20
7.23107
11
-0.357116
21
7.23826
0
LINE
8
BLACK
6
CONTINUOUS
10
-0.357116
20
7.23826
11
-0.363226
21
7.24645
0
LINE
8
BLACK
6
CONTINUOUS
10
-0.363226
20
7.24645
11
-0.368059
21
7.25544
0
LINE
8
BLACK
6
CONTINUOUS
10
-0.368059
20
7.25544
11
-0.37151
21
7.26505
0
LINE
8
BLACK
6
CONTINUOUS
10
-0.37151
20
7.26505
11
-0.373502
21
7.27507
0
LINE
8
BLACK
6
CONTINUOUS
10
-0.373502
20
7.27507
11
-0.373992
21
7.28527
0
LINE
8
BLACK
6
CONTINUOUS
10
-0.373992
20
7.28527
11
-0.372969
21
7.29543
0
LINE
8
BLACK
6
CONTINUOUS
10
-0.372969
20
7.29543
11
-0.370455
21
7.30533
0
LINE
8
BLACK
6
CONTINUOUS
10
-0.370455
20
7.30533
11
-0.366506
21
7.31474
0
LINE
8
BLACK
6
CONTINUOUS
10
-0.366506
20
7.31474
11
-0.361209
21
7.32347
0
LINE
8
BLACK
6
CONTINUOUS
10
-0.361209
20
7.32347
11
-0.354679
21
7.33132
0
LINE
8
BLACK
6
CONTINUOUS
10
-0.354679
20
7.33132
11
-0.34706
21
7.33812
0
LINE
8
BLACK
6
CONTINUOUS
10
-0.34706
20
7.33812
11
-0.33852
21
7.34372
0
LINE
8
BLACK
6
CONTINUOUS
10
-0.33852
20
7.34372
11
-0.329247
21
7.348
0
LINE
8
BLACK
6
CONTINUOUS
10
-0.329247
20
7.348
11
-0.319443
21
7.35086
0
LINE
8
BLACK
6
CONTINUOUS
10
-0.319443
20
7.35086
11
-0.309324
21
7.35223
0
LINE
8
BLACK
6
CONTINUOUS
10
-0.309324
20
7.35223
11
-0.299113
21
7.3521
0
LINE
8
BLACK
6
CONTINUOUS
10
0.311123
20
7.3521
11
0.321202
21
7.35046
0
LINE
8
BLACK
6
CONTINUOUS
10
0.321202
20
7.35046
11
0.330928
21
7.34735
0
LINE
8
BLACK
6
CONTINUOUS
10
0.330928
20
7.34735
11
0.340086
21
7.34283
0
LINE
8
BLACK
6
CONTINUOUS
10
0.340086
20
7.34283
11
0.348477
21
7.33701
0
LINE
8
BLACK
6
CONTINUOUS
10
0.348477
20
7.33701
11
0.355915
21
7.33001
0
LINE
8
BLACK
6
CONTINUOUS
10
0.355915
20
7.33001
11
0.362237
21
7.32199
0
LINE
8
BLACK
6
CONTINUOUS
10
0.362237
20
7.32199
11
0.367304
21
7.31313
0
LINE
8
BLACK
6
CONTINUOUS
10
0.367304
20
7.31313
11
0.371005
21
7.30361
0
LINE
8
BLACK
6
CONTINUOUS
10
0.371005
20
7.30361
11
0.373259
21
7.29365
0
LINE
8
BLACK
6
CONTINUOUS
10
0.373259
20
7.29365
11
0.374016
21
7.28346
0
LINE
8
BLACK
6
CONTINUOUS
10
0.374016
20
7.28346
11
0.373921
21
7.27986
0
LINE
8
BLACK
6
CONTINUOUS
10
0.373921
20
7.27986
11
0.372633
21
7.26973
0
LINE
8
BLACK
6
CONTINUOUS
10
0.372633
20
7.26973
11
0.369861
21
7.2599
0
LINE
8
BLACK
6
CONTINUOUS
10
0.369861
20
7.2599
11
0.365667
21
7.25059
0
LINE
8
BLACK
6
CONTINUOUS
10
0.365667
20
7.25059
11
0.360142
21
7.242
0
LINE
8
BLACK
6
CONTINUOUS
10
0.360142
20
7.242
11
0.353409
21
7.23432
0
LINE
8
BLACK
6
CONTINUOUS
10
0.353409
20
7.23432
11
0.345615
21
7.22773
0
LINE
8
BLACK
6
CONTINUOUS
10
0.345615
20
7.22773
11
0.336931
21
7.22235
0
LINE
8
BLACK
6
CONTINUOUS
10
0.336931
20
7.22235
11
0.327549
21
7.21832
0
LINE
8
BLACK
6
CONTINUOUS
10
0.327549
20
7.21832
11
0.317674
21
7.21572
0
LINE
8
BLACK
6
CONTINUOUS
10
0.317674
20
7.21572
11
0.307523
21
7.21461
0
LINE
8
BLACK
6
CONTINUOUS
10
0.307523
20
7.21461
11
0.297319
21
7.21501
0
LINE
8
BLACK
6
CONTINUOUS
10
0.297319
20
7.21501
11
0.287286
21
7.21691
0
LINE
8
BLACK
6
CONTINUOUS
10
0.287286
20
7.21691
11
0.277645
21
7.22028
0
LINE
8
BLACK
6
CONTINUOUS
10
0.277645
20
7.22028
11
0.268608
21
7.22504
0
LINE
8
BLACK
6
CONTINUOUS
10
0.268608
20
7.22504
11
0.260373
21
7.23107
0
LINE
8
BLACK
6
CONTINUOUS
10
0.260373
20
7.23107
11
0.25312
21
7.23826
0
LINE
8
BLACK
6
CONTINUOUS
10
0.25312
20
7.23826
11
0.24701
21
7.24645
0
LINE
8
BLACK
6
CONTINUOUS
10
0.24701
20
7.24645
11
0.242177
21
7.25544
0
LINE
8
BLACK
6
CONTINUOUS
10
0.242177
20
7.25544
11
0.238726
21
7.26505
0
LINE
8
BLACK
6
CONTINUOUS
10
0.238726
20
7.26505
11
0.236734
21
7.27507
0
LINE
8
BLACK
6
CONTINUOUS
10
0.236734
20
7.27507
11
0.236244
21
7.28527
0
LINE
8
BLACK
6
CONTINUOUS
10
0.236244
20
7.28527
11
0.237267
21
7.29543
0
LINE
8
BLACK
6
CONTINUOUS
10
0.237267
20
7.29543
11
0.239781
21
7.30533
0
LINE
8
BLACK
6
CONTINUOUS
10
0.239781
20
7.30533
11
0.24373
21
7.31474
0
LINE
8
BLACK
6
CONTINUOUS
10
0.24373
20
7.31474
11
0.249027
21
7.32347
0
LINE
8
BLACK
6
CONTINUOUS
10
0.249027
20
7.32347
11
0.255557
21
7.33132
0
LINE
8
BLACK
6
CONTINUOUS
10
0.255557
20
7.33132
11
0.263176
21
7.33812
0
LINE
8
BLACK
6
CONTINUOUS
10
0.263176
20
7.33812
11
0.271716
21
7.34372
0
LINE
8
BLACK
6
CONTINUOUS
10
0.271716
20
7.34372
11
0.28099
21
7.348
0
LINE
8
BLACK
6
CONTINUOUS
10
0.28099
20
7.348
11
0.290794
21
7.35086
0
LINE
8
BLACK
6
CONTINUOUS
10
0.290794
20
7.35086
11
0.300912
21
7.35223
0
LINE
8
BLACK
6
CONTINUOUS
10
0.300912
20
7.35223
11
0.311123
21
7.3521
0
LINE
8
BLACK
6
CONTINUOUS
10
-1.17123
20
7.72583
11
-1.15967
21
7.72375
0
LINE
8
BLACK
6
CONTINUOUS
10
-1.15967
20
7.72375
11
-1.14849
21
7.72016
0
LINE
8
BLACK
6
CONTINUOUS
10
-1.14849
20
7.72016
11
-1.13789
21
7.71512
0
LINE
8
BLACK
6
CONTINUOUS
10
-1.13789
20
7.71512
11
-1.12804
21
7.70873
0
LINE
8
BLACK
6
CONTINUOUS
10
-1.12804
20
7.70873
11
-1.11912
21
7.70109
0
LINE
8
BLACK
6
CONTINUOUS
10
-1.11912
20
7.70109
11
-1.1113
21
7.69233
0
LINE
8
BLACK
6
CONTINUOUS
10
-1.1113
20
7.69233
11
-1.1047
21
7.68262
0
LINE
8
BLACK
6
CONTINUOUS
10
-1.1047
20
7.68262
11
-1.09944
21
7.67212
0
LINE
8
BLACK
6
CONTINUOUS
10
-1.09944
20
7.67212
11
-1.09562
21
7.66102
0
LINE
8
BLACK
6
CONTINUOUS
10
-1.09562
20
7.66102
11
-1.0933
21
7.64951
0
LINE
8
BLACK
6
CONTINUOUS
10
-1.0933
20
7.64951
11
-1.09252
21
7.6378
0
LINE
8
BLACK
6
CONTINUOUS
10
-1.09252
20
7.6378
11
-1.09263
21
7.63347
0
LINE
8
BLACK
6
CONTINUOUS
10
-1.09263
20
7.63347
11
-1.09397
21
7.6218
0
LINE
8
BLACK
6
CONTINUOUS
10
-1.09397
20
7.6218
11
-1.09686
21
7.61042
0
LINE
8
BLACK
6
CONTINUOUS
10
-1.09686
20
7.61042
11
-1.10122
21
7.59952
0
LINE
8
BLACK
6
CONTINUOUS
10
-1.10122
20
7.59952
11
-1.10698
21
7.58929
0
LINE
8
BLACK
6
CONTINUOUS
10
-1.10698
20
7.58929
11
-1.11405
21
7.57991
0
LINE
8
BLACK
6
CONTINUOUS
10
-1.11405
20
7.57991
11
-1.12229
21
7.57155
0
LINE
8
BLACK
6
CONTINUOUS
10
-1.12229
20
7.57155
11
-1.13157
21
7.56436
0
LINE
8
BLACK
6
CONTINUOUS
10
-1.13157
20
7.56436
11
-1.14172
21
7.55845
0
LINE
8
BLACK
6
CONTINUOUS
10
-1.14172
20
7.55845
11
-1.15256
21
7.55394
0
LINE
8
BLACK
6
CONTINUOUS
10
-1.15256
20
7.55394
11
-1.1639
21
7.5509
0
LINE
8
BLACK
6
CONTINUOUS
10
-1.1639
20
7.5509
11
-1.17554
21
7.54939
0
LINE
8
BLACK
6
CONTINUOUS
10
-1.17554
20
7.54939
11
-1.18728
21
7.54943
0
LINE
8
BLACK
6
CONTINUOUS
10
-1.18728
20
7.54943
11
-1.19891
21
7.55102
0
LINE
8
BLACK
6
CONTINUOUS
10
-1.19891
20
7.55102
11
-1.21023
21
7.55414
0
LINE
8
BLACK
6
CONTINUOUS
10
-1.21023
20
7.55414
11
-1.22104
21
7.55873
0
LINE
8
BLACK
6
CONTINUOUS
10
-1.22104
20
7.55873
11
-1.23115
21
7.5647
0
LINE
8
BLACK
6
CONTINUOUS
10
-1.23115
20
7.5647
11
-1.24038
21
7.57197
0
LINE
8
BLACK
6
CONTINUOUS
10
-1.24038
20
7.57197
11
-1.24856
21
7.58038
0
LINE
8
BLACK
6
CONTINUOUS
10
-1.24856
20
7.58038
11
-1.25556
21
7.58981
0
LINE
8
BLACK
6
CONTINUOUS
10
-1.25556
20
7.58981
11
-1.26125
21
7.60008
0
LINE
8
BLACK
6
CONTINUOUS
10
-1.26125
20
7.60008
11
-1.26554
21
7.61101
0
LINE
8
BLACK
6
CONTINUOUS
10
-1.26554
20
7.61101
11
-1.26834
21
7.62241
0
LINE
8
BLACK
6
CONTINUOUS
10
-1.26834
20
7.62241
11
-1.26961
21
7.63409
0
LINE
8
BLACK
6
CONTINUOUS
10
-1.26961
20
7.63409
11
-1.26932
21
7.64582
0
LINE
8
BLACK
6
CONTINUOUS
10
-1.26932
20
7.64582
11
-1.26748
21
7.65742
0
LINE
8
BLACK
6
CONTINUOUS
10
-1.26748
20
7.65742
11
-1.26413
21
7.66867
0
LINE
8
BLACK
6
CONTINUOUS
10
-1.26413
20
7.66867
11
-1.25932
21
7.67938
0
LINE
8
BLACK
6
CONTINUOUS
10
-1.25932
20
7.67938
11
-1.25313
21
7.68936
0
LINE
8
BLACK
6
CONTINUOUS
10
-1.25313
20
7.68936
11
-1.24568
21
7.69843
0
LINE
8
BLACK
6
CONTINUOUS
10
-1.24568
20
7.69843
11
-1.23709
21
7.70644
0
LINE
8
BLACK
6
CONTINUOUS
10
-1.23709
20
7.70644
11
-1.22752
21
7.71324
0
LINE
8
BLACK
6
CONTINUOUS
10
-1.22752
20
7.71324
11
-1.21713
21
7.71872
0
LINE
8
BLACK
6
CONTINUOUS
10
-1.21713
20
7.71872
11
-1.20611
21
7.72277
0
LINE
8
BLACK
6
CONTINUOUS
10
-1.20611
20
7.72277
11
-1.19465
21
7.72534
0
LINE
8
BLACK
6
CONTINUOUS
10
-1.19465
20
7.72534
11
-1.18296
21
7.72636
0
LINE
8
BLACK
6
CONTINUOUS
10
-1.18296
20
7.72636
11
-1.17123
21
7.72583
0
LINE
8
BLACK
6
CONTINUOUS
10
1.19098
20
7.72583
11
1.20253
21
7.72375
0
LINE
8
BLACK
6
CONTINUOUS
10
1.20253
20
7.72375
11
1.21371
21
7.72016
0
LINE
8
BLACK
6
CONTINUOUS
10
1.21371
20
7.72016
11
1.22432
21
7.71512
0
LINE
8
BLACK
6
CONTINUOUS
10
1.22432
20
7.71512
11
1.23417
21
7.70873
0
LINE
8
BLACK
6
CONTINUOUS
10
1.23417
20
7.70873
11
1.24308
21
7.70109
0
LINE
8
BLACK
6
CONTINUOUS
10
1.24308
20
7.70109
11
1.25091
21
7.69233
0
LINE
8
BLACK
6
CONTINUOUS
10
1.25091
20
7.69233
11
1.25751
21
7.68262
0
LINE
8
BLACK
6
CONTINUOUS
10
1.25751
20
7.68262
11
1.26276
21
7.67212
0
LINE
8
BLACK
6
CONTINUOUS
10
1.26276
20
7.67212
11
1.26659
21
7.66102
0
LINE
8
BLACK
6
CONTINUOUS
10
1.26659
20
7.66102
11
1.26891
21
7.64951
0
LINE
8
BLACK
6
CONTINUOUS
10
1.26891
20
7.64951
11
1.26969
21
7.6378
0
LINE
8
BLACK
6
CONTINUOUS
10
1.26969
20
7.6378
11
1.26958
21
7.63347
0
LINE
8
BLACK
6
CONTINUOUS
10
1.26958
20
7.63347
11
1.26823
21
7.6218
0
LINE
8
BLACK
6
CONTINUOUS
10
1.26823
20
7.6218
11
1.26535
21
7.61042
0
LINE
8
BLACK
6
CONTINUOUS
10
1.26535
20
7.61042
11
1.26099
21
7.59952
0
LINE
8
BLACK
6
CONTINUOUS
10
1.26099
20
7.59952
11
1.25523
21
7.58929
0
LINE
8
BLACK
6
CONTINUOUS
10
1.25523
20
7.58929
11
1.24816
21
7.57991
0
LINE
8
BLACK
6
CONTINUOUS
10
1.24816
20
7.57991
11
1.23991
21
7.57155
0
LINE
8
BLACK
6
CONTINUOUS
10
1.23991
20
7.57155
11
1.23064
21
7.56436
0
LINE
8
BLACK
6
CONTINUOUS
10
1.23064
20
7.56436
11
1.22049
21
7.55845
0
LINE
8
BLACK
6
CONTINUOUS
10
1.22049
20
7.55845
11
1.20965
21
7.55394
0
LINE
8
BLACK
6
CONTINUOUS
10
1.20965
20
7.55394
11
1.19831
21
7.5509
0
LINE
8
BLACK
6
CONTINUOUS
10
1.19831
20
7.5509
11
1.18666
21
7.54939
0
LINE
8
BLACK
6
CONTINUOUS
10
1.18666
20
7.54939
11
1.17492
21
7.54943
0
LINE
8
BLACK
6
CONTINUOUS
10
1.17492
20
7.54943
11
1.16329
21
7.55102
0
LINE
8
BLACK
6
CONTINUOUS
10
1.16329
20
7.55102
11
1.15197
21
7.55414
0
LINE
8
BLACK
6
CONTINUOUS
10
1.15197
20
7.55414
11
1.14116
21
7.55873
0
LINE
8
BLACK
6
CONTINUOUS
10
1.14116
20
7.55873
11
1.13106
21
7.5647
0
LINE
8
BLACK
6
CONTINUOUS
10
1.13106
20
7.5647
11
1.12183
21
7.57197
0
LINE
8
BLACK
6
CONTINUOUS
10
1.12183
20
7.57197
11
1.11364
21
7.58038
0
LINE
8
BLACK
6
CONTINUOUS
10
1.11364
20
7.58038
11
1.10664
21
7.58981
0
LINE
8
BLACK
6
CONTINUOUS
10
1.10664
20
7.58981
11
1.10095
21
7.60008
0
LINE
8
BLACK
6
CONTINUOUS
10
1.10095
20
7.60008
11
1.09667
21
7.61101
0
LINE
8
BLACK
6
CONTINUOUS
10
1.09667
20
7.61101
11
1.09387
21
7.62241
0
LINE
8
BLACK
6
CONTINUOUS
10
1.09387
20
7.62241
11
1.0926
21
7.63409
0
LINE
8
BLACK
6
CONTINUOUS
10
1.0926
20
7.63409
11
1.09288
21
7.64582
0
LINE
8
BLACK
6
CONTINUOUS
10
1.09288
20
7.64582
11
1.09472
21
7.65742
0
LINE
8
BLACK
6
CONTINUOUS
10
1.09472
20
7.65742
11
1.09808
21
7.66867
0
LINE
8
BLACK
6
CONTINUOUS
10
1.09808
20
7.66867
11
1.10289
21
7.67938
0
LINE
8
BLACK
6
CONTINUOUS
10
1.10289
20
7.67938
11
1.10908
21
7.68936
0
LINE
8
BLACK
6
CONTINUOUS
10
1.10908
20
7.68936
11
1.11653
21
7.69843
0
LINE
8
BLACK
6
CONTINUOUS
10
1.11653
20
7.69843
11
1.12512
21
7.70644
0
LINE
8
BLACK
6
CONTINUOUS
10
1.12512
20
7.70644
11
1.13469
21
7.71324
0
LINE
8
BLACK
6
CONTINUOUS
10
1.13469
20
7.71324
11
1.14507
21
7.71872
0
LINE
8
BLACK
6
CONTINUOUS
10
1.14507
20
7.71872
11
1.15609
21
7.72277
0
LINE
8
BLACK
6
CONTINUOUS
10
1.15609
20
7.72277
11
1.16755
21
7.72534
0
LINE
8
BLACK
6
CONTINUOUS
10
1.16755
20
7.72534
11
1.17925
21
7.72636
0
LINE
8
BLACK
6
CONTINUOUS
10
1.17925
20
7.72636
11
1.19098
21
7.72583
  0
ENDSEC
  0
EOF
