G04 #@! TF.GenerationSoftware,KiCad,Pcbnew,9.0.2*
G04 #@! TF.CreationDate,2025-06-02T15:36:06+01:00*
G04 #@! TF.ProjectId,NB3_body,4e42335f-626f-4647-992e-6b696361645f,0.0.6*
G04 #@! TF.SameCoordinates,PX76bb820PYd4ab5c0*
G04 #@! TF.FileFunction,Legend,Top*
G04 #@! TF.FilePolarity,Positive*
%FSLAX46Y46*%
G04 Gerber Fmt 4.6, Leading zero omitted, Abs format (unit mm)*
G04 Created by KiCad (PCBNEW 9.0.2) date 2025-06-02 15:36:06*
%MOMM*%
%LPD*%
G01*
G04 APERTURE LIST*
%ADD10C,0.200000*%
%ADD11C,0.500000*%
%ADD12C,0.120000*%
%ADD13C,0.150000*%
%ADD14C,0.250000*%
%ADD15C,0.000000*%
G04 APERTURE END LIST*
D10*
X37000000Y105750000D02*
X37000000Y118750000D01*
D11*
X-97500000Y20000000D02*
X-82500000Y20000000D01*
X-82500000Y16000000D01*
X-97500000Y16000000D01*
X-97500000Y20000000D01*
X-68500000Y46500000D02*
X-68500000Y24500000D01*
X-66000000Y84000000D02*
X-66000000Y80000000D01*
X-39000000Y85000000D02*
X-39000000Y131000000D01*
D12*
X82500000Y59000000D02*
X85000000Y59000000D01*
X85000000Y49000000D01*
X82500000Y49000000D01*
X82500000Y59000000D01*
D10*
X-61000000Y59000000D02*
X-48000000Y59000000D01*
X-57000000Y134000000D02*
X-57000000Y140000000D01*
D12*
X37000000Y110750000D02*
X31000000Y110750000D01*
X45250000Y167250000D02*
X39250000Y167250000D01*
D11*
X-48000000Y84000000D02*
X-66000000Y84000000D01*
D10*
X57000000Y136750000D02*
X70000000Y136750000D01*
D12*
X37000000Y113500000D02*
X31000000Y113500000D01*
D11*
X0Y48000000D02*
X0Y6500000D01*
D12*
X-5250000Y148750000D02*
X5750000Y148750000D01*
X5750000Y145750000D01*
X-5250000Y145750000D01*
X-5250000Y148750000D01*
D10*
X57000000Y139750000D02*
X57000000Y133750000D01*
D12*
X9500000Y120000000D02*
X21000000Y120000000D01*
X27250000Y188000000D02*
X27250000Y182000000D01*
D11*
X39000000Y131000000D02*
X39000000Y85000000D01*
X66000000Y56000000D02*
X30000000Y56000000D01*
X75000000Y131000000D02*
X39000000Y131000000D01*
D12*
X24500000Y188000000D02*
X24500000Y182000000D01*
X65000000Y139750000D02*
X65000000Y133750000D01*
X21500000Y178000000D02*
X-21500000Y178000000D01*
X37000000Y116000000D02*
X31000000Y116000000D01*
X-71750000Y56000000D02*
X-69250000Y56000000D01*
X82500000Y52250000D02*
X85000000Y52250000D01*
D11*
X66000000Y80000000D02*
X48000000Y80000000D01*
X30000000Y56000000D02*
X30000000Y10000000D01*
X-39000000Y131000000D02*
X-75000000Y131000000D01*
D10*
X-48000000Y59000000D02*
X-48000000Y65000000D01*
X-70000000Y140000000D02*
X-70000000Y134000000D01*
D11*
X75000000Y85000000D02*
X75000000Y131000000D01*
D10*
X39250000Y159500000D02*
X45250000Y159500000D01*
X32250000Y182000000D02*
X32250000Y188000000D01*
D11*
X-57000000Y130750000D02*
X-57000000Y110250000D01*
D10*
X-32250000Y185000000D02*
X-19250000Y185000000D01*
X47750000Y58750000D02*
X60750000Y58750000D01*
D11*
X59000000Y108000000D02*
G75*
G02*
X55000000Y108000000I-2000000J0D01*
G01*
X55000000Y108000000D02*
G75*
G02*
X59000000Y108000000I2000000J0D01*
G01*
D12*
X69000000Y56000000D02*
X71500000Y56000000D01*
X-64750000Y140000000D02*
X-64750000Y134000000D01*
D11*
X-75000000Y85000000D02*
X-39000000Y85000000D01*
X-48000000Y80000000D02*
X-66000000Y80000000D01*
D12*
X-24250000Y188000000D02*
X-24250000Y182000000D01*
D11*
X2000000Y50000000D02*
G75*
G02*
X-2000000Y50000000I-2000000J0D01*
G01*
X-2000000Y50000000D02*
G75*
G02*
X2000000Y50000000I2000000J0D01*
G01*
D12*
X69000000Y52250000D02*
X71500000Y52250000D01*
X45250000Y169750000D02*
X39250000Y169750000D01*
D10*
X19250000Y182000000D02*
X32250000Y182000000D01*
X57000000Y133750000D02*
X70000000Y133750000D01*
D12*
X-85250000Y52250000D02*
X-82750000Y52250000D01*
D11*
X9000000Y175000000D02*
X9000000Y171000000D01*
X9000000Y5500000D02*
X9000000Y1500000D01*
D10*
X-57000000Y140000000D02*
X-70000000Y140000000D01*
D11*
X9000000Y5500000D02*
X-9000000Y5500000D01*
D12*
X53000000Y64750000D02*
X53000000Y58750000D01*
X-50500000Y65000000D02*
X-50500000Y59000000D01*
D11*
X-30000000Y10000000D02*
X-30000000Y56000000D01*
X-72500000Y46500000D02*
X-72500000Y24500000D01*
X68500000Y46500000D02*
X68500000Y24500000D01*
D10*
X45250000Y159500000D02*
X45250000Y172500000D01*
X47750000Y64750000D02*
X47750000Y58750000D01*
X70000000Y133750000D02*
X70000000Y139750000D01*
D12*
X-55750000Y65000000D02*
X-55750000Y59000000D01*
X-59500000Y140000000D02*
X-59500000Y134000000D01*
X11000000Y163500000D02*
X11000000Y130000000D01*
D10*
X31000000Y118750000D02*
X31000000Y105750000D01*
D11*
X-57000000Y106000000D02*
X-57000000Y85000000D01*
D12*
X-24500000Y175000000D02*
X-24500000Y123000000D01*
X-30500000Y127000000D02*
X8000000Y127000000D01*
X-53000000Y65000000D02*
X-53000000Y59000000D01*
X-67250000Y140000000D02*
X-67250000Y134000000D01*
D11*
X-27500000Y89500000D02*
X-27500000Y6500000D01*
D12*
X25500000Y145750000D02*
X28500000Y145750000D01*
X-21750000Y188000000D02*
X-21750000Y182000000D01*
X25500000Y151000000D02*
X28500000Y151000000D01*
X28500000Y141000000D01*
X25500000Y141000000D01*
X25500000Y151000000D01*
D10*
X-32250000Y182000000D02*
X-19250000Y182000000D01*
D12*
X67500000Y139750000D02*
X67500000Y133750000D01*
D10*
X60750000Y64750000D02*
X47750000Y64750000D01*
D11*
X-55000000Y108000000D02*
G75*
G02*
X-59000000Y108000000I-2000000J0D01*
G01*
X-59000000Y108000000D02*
G75*
G02*
X-55000000Y108000000I2000000J0D01*
G01*
D12*
X50500000Y64750000D02*
X50500000Y58750000D01*
D11*
X57000000Y106000000D02*
X57000000Y85000000D01*
D10*
X-19250000Y182000000D02*
X-19250000Y188000000D01*
D12*
X-21500000Y120000000D02*
X-9500000Y120000000D01*
X-30500000Y166500000D02*
X8000000Y166500000D01*
X-33500000Y130000000D02*
X-33500000Y163500000D01*
X62250000Y139750000D02*
X62250000Y133750000D01*
D10*
X42250000Y172500000D02*
X42250000Y159500000D01*
D11*
X-30000000Y56000000D02*
X-66000000Y56000000D01*
X-9000000Y5500000D02*
X-9000000Y1500000D01*
D10*
X-19250000Y188000000D02*
X-32250000Y188000000D01*
X32250000Y188000000D02*
X19250000Y188000000D01*
D11*
X-48000000Y56000000D02*
X-48000000Y35000000D01*
D12*
X250000Y145750000D02*
X250000Y148750000D01*
D11*
X9000000Y1500000D02*
X-9000000Y1500000D01*
D10*
X70000000Y139750000D02*
X57000000Y139750000D01*
D12*
X82500000Y56000000D02*
X85000000Y56000000D01*
D10*
X-48000000Y65000000D02*
X-61000000Y65000000D01*
D12*
X-62000000Y140000000D02*
X-62000000Y134000000D01*
D11*
X30000000Y10000000D02*
X66000000Y10000000D01*
D12*
X29750000Y188000000D02*
X29750000Y182000000D01*
D11*
X-48000000Y84000000D02*
X-48000000Y80000000D01*
X-66000000Y56000000D02*
X-66000000Y10000000D01*
D12*
X59750000Y139750000D02*
X59750000Y133750000D01*
D10*
X-70000000Y134000000D02*
X-57000000Y134000000D01*
X34000000Y118750000D02*
X34000000Y105750000D01*
D12*
X58250000Y64750000D02*
X58250000Y58750000D01*
X22000000Y188000000D02*
X22000000Y182000000D01*
X-85250000Y59000000D02*
X-82750000Y59000000D01*
X-82750000Y49000000D01*
X-85250000Y49000000D01*
X-85250000Y59000000D01*
D11*
X27500000Y89500000D02*
X-27500000Y89500000D01*
D12*
X-58250000Y65000000D02*
X-58250000Y59000000D01*
D10*
X37000000Y118750000D02*
X31000000Y118750000D01*
X-70000000Y137000000D02*
X-57000000Y137000000D01*
D11*
X48000000Y31000000D02*
X48000000Y10000000D01*
X-48000000Y31000000D02*
X-48000000Y10000000D01*
D12*
X45250000Y164500000D02*
X39250000Y164500000D01*
D11*
X66000000Y84000000D02*
X66000000Y80000000D01*
X-46000000Y33000000D02*
G75*
G02*
X-50000000Y33000000I-2000000J0D01*
G01*
X-50000000Y33000000D02*
G75*
G02*
X-46000000Y33000000I2000000J0D01*
G01*
X0Y89500000D02*
X0Y52000000D01*
D12*
X69000000Y59000000D02*
X71500000Y59000000D01*
X71500000Y49000000D01*
X69000000Y49000000D01*
X69000000Y59000000D01*
D11*
X-66000000Y10000000D02*
X-30000000Y10000000D01*
D12*
X45250000Y162000000D02*
X39250000Y162000000D01*
X55750000Y64750000D02*
X55750000Y58750000D01*
D11*
X68500000Y24500000D02*
X72500000Y24500000D01*
X48000000Y56000000D02*
X48000000Y35000000D01*
X-72500000Y46500000D02*
X-68500000Y46500000D01*
D10*
X19250000Y185000000D02*
X32250000Y185000000D01*
D11*
X-9000000Y175000000D02*
X-9000000Y171000000D01*
D12*
X-71750000Y59000000D02*
X-69250000Y59000000D01*
X-69250000Y49000000D01*
X-71750000Y49000000D01*
X-71750000Y59000000D01*
D10*
X-61000000Y62000000D02*
X-48000000Y62000000D01*
D12*
X-27000000Y188000000D02*
X-27000000Y182000000D01*
D11*
X-72500000Y24500000D02*
X-68500000Y24500000D01*
D10*
X39250000Y172500000D02*
X39250000Y159500000D01*
D12*
X-85250000Y56000000D02*
X-82750000Y56000000D01*
D10*
X60750000Y58750000D02*
X60750000Y64750000D01*
D11*
X9000000Y175000000D02*
X-9000000Y175000000D01*
X66000000Y84000000D02*
X48000000Y84000000D01*
D10*
X47750000Y61750000D02*
X60750000Y61750000D01*
D11*
X-75000000Y131000000D02*
X-75000000Y85000000D01*
D12*
X37000000Y108250000D02*
X31000000Y108250000D01*
D11*
X-27500000Y6500000D02*
X27500000Y6500000D01*
X50000000Y33000000D02*
G75*
G02*
X46000000Y33000000I-2000000J0D01*
G01*
X46000000Y33000000D02*
G75*
G02*
X50000000Y33000000I2000000J0D01*
G01*
X66000000Y10000000D02*
X66000000Y56000000D01*
D10*
X-61000000Y65000000D02*
X-61000000Y59000000D01*
X-32250000Y188000000D02*
X-32250000Y182000000D01*
D12*
X-29500000Y188000000D02*
X-29500000Y182000000D01*
D11*
X39000000Y85000000D02*
X75000000Y85000000D01*
X72500000Y46500000D02*
X72500000Y24500000D01*
X68500000Y46500000D02*
X72500000Y46500000D01*
X9000000Y171000000D02*
X-9000000Y171000000D01*
D10*
X31000000Y105750000D02*
X37000000Y105750000D01*
D12*
X-71750000Y52250000D02*
X-69250000Y52250000D01*
D11*
X57000000Y130750000D02*
X57000000Y110250000D01*
D12*
X24500000Y123000000D02*
X24500000Y175000000D01*
D11*
X82500000Y20000000D02*
X97500000Y20000000D01*
X97500000Y16000000D01*
X82500000Y16000000D01*
X82500000Y20000000D01*
X27500000Y6500000D02*
X27500000Y89500000D01*
D10*
X45250000Y172500000D02*
X39250000Y172500000D01*
X19250000Y188000000D02*
X19250000Y182000000D01*
D11*
X48000000Y84000000D02*
X48000000Y80000000D01*
D13*
X41145180Y164258459D02*
X41145180Y163639412D01*
X41145180Y163639412D02*
X40764228Y163972745D01*
X40764228Y163972745D02*
X40764228Y163829888D01*
X40764228Y163829888D02*
X40716609Y163734650D01*
X40716609Y163734650D02*
X40668990Y163687031D01*
X40668990Y163687031D02*
X40573752Y163639412D01*
X40573752Y163639412D02*
X40335657Y163639412D01*
X40335657Y163639412D02*
X40240419Y163687031D01*
X40240419Y163687031D02*
X40192800Y163734650D01*
X40192800Y163734650D02*
X40145180Y163829888D01*
X40145180Y163829888D02*
X40145180Y164115602D01*
X40145180Y164115602D02*
X40192800Y164210840D01*
X40192800Y164210840D02*
X40240419Y164258459D01*
X40240419Y163210840D02*
X40192800Y163163221D01*
X40192800Y163163221D02*
X40145180Y163210840D01*
X40145180Y163210840D02*
X40192800Y163258459D01*
X40192800Y163258459D02*
X40240419Y163210840D01*
X40240419Y163210840D02*
X40145180Y163210840D01*
X41145180Y162829888D02*
X41145180Y162210841D01*
X41145180Y162210841D02*
X40764228Y162544174D01*
X40764228Y162544174D02*
X40764228Y162401317D01*
X40764228Y162401317D02*
X40716609Y162306079D01*
X40716609Y162306079D02*
X40668990Y162258460D01*
X40668990Y162258460D02*
X40573752Y162210841D01*
X40573752Y162210841D02*
X40335657Y162210841D01*
X40335657Y162210841D02*
X40240419Y162258460D01*
X40240419Y162258460D02*
X40192800Y162306079D01*
X40192800Y162306079D02*
X40145180Y162401317D01*
X40145180Y162401317D02*
X40145180Y162687031D01*
X40145180Y162687031D02*
X40192800Y162782269D01*
X40192800Y162782269D02*
X40240419Y162829888D01*
D14*
X26842857Y150145996D02*
X26319047Y150145996D01*
X26319047Y150145996D02*
X26266666Y149622186D01*
X26266666Y149622186D02*
X26319047Y149674567D01*
X26319047Y149674567D02*
X26423809Y149726948D01*
X26423809Y149726948D02*
X26685714Y149726948D01*
X26685714Y149726948D02*
X26790476Y149674567D01*
X26790476Y149674567D02*
X26842857Y149622186D01*
X26842857Y149622186D02*
X26895238Y149517424D01*
X26895238Y149517424D02*
X26895238Y149255519D01*
X26895238Y149255519D02*
X26842857Y149150757D01*
X26842857Y149150757D02*
X26790476Y149098376D01*
X26790476Y149098376D02*
X26685714Y149045996D01*
X26685714Y149045996D02*
X26423809Y149045996D01*
X26423809Y149045996D02*
X26319047Y149098376D01*
X26319047Y149098376D02*
X26266666Y149150757D01*
X27261904Y149779329D02*
X27523809Y149045996D01*
X27523809Y149045996D02*
X27785714Y149779329D01*
X26842857Y148375058D02*
X26319047Y148375058D01*
X26319047Y148375058D02*
X26266666Y147851248D01*
X26266666Y147851248D02*
X26319047Y147903629D01*
X26319047Y147903629D02*
X26423809Y147956010D01*
X26423809Y147956010D02*
X26685714Y147956010D01*
X26685714Y147956010D02*
X26790476Y147903629D01*
X26790476Y147903629D02*
X26842857Y147851248D01*
X26842857Y147851248D02*
X26895238Y147746486D01*
X26895238Y147746486D02*
X26895238Y147484581D01*
X26895238Y147484581D02*
X26842857Y147379819D01*
X26842857Y147379819D02*
X26790476Y147327438D01*
X26790476Y147327438D02*
X26685714Y147275058D01*
X26685714Y147275058D02*
X26423809Y147275058D01*
X26423809Y147275058D02*
X26319047Y147327438D01*
X26319047Y147327438D02*
X26266666Y147379819D01*
X27261904Y148008391D02*
X27523809Y147275058D01*
X27523809Y147275058D02*
X27785714Y148008391D01*
X26528571Y144833182D02*
X26633333Y144833182D01*
X26633333Y144833182D02*
X26738095Y144780801D01*
X26738095Y144780801D02*
X26790476Y144728420D01*
X26790476Y144728420D02*
X26842857Y144623658D01*
X26842857Y144623658D02*
X26895238Y144414134D01*
X26895238Y144414134D02*
X26895238Y144152229D01*
X26895238Y144152229D02*
X26842857Y143942705D01*
X26842857Y143942705D02*
X26790476Y143837943D01*
X26790476Y143837943D02*
X26738095Y143785562D01*
X26738095Y143785562D02*
X26633333Y143733182D01*
X26633333Y143733182D02*
X26528571Y143733182D01*
X26528571Y143733182D02*
X26423809Y143785562D01*
X26423809Y143785562D02*
X26371428Y143837943D01*
X26371428Y143837943D02*
X26319047Y143942705D01*
X26319047Y143942705D02*
X26266666Y144152229D01*
X26266666Y144152229D02*
X26266666Y144414134D01*
X26266666Y144414134D02*
X26319047Y144623658D01*
X26319047Y144623658D02*
X26371428Y144728420D01*
X26371428Y144728420D02*
X26423809Y144780801D01*
X26423809Y144780801D02*
X26528571Y144833182D01*
X27261904Y144466515D02*
X27523809Y143733182D01*
X27523809Y143733182D02*
X27785714Y144466515D01*
X26528571Y143062244D02*
X26633333Y143062244D01*
X26633333Y143062244D02*
X26738095Y143009863D01*
X26738095Y143009863D02*
X26790476Y142957482D01*
X26790476Y142957482D02*
X26842857Y142852720D01*
X26842857Y142852720D02*
X26895238Y142643196D01*
X26895238Y142643196D02*
X26895238Y142381291D01*
X26895238Y142381291D02*
X26842857Y142171767D01*
X26842857Y142171767D02*
X26790476Y142067005D01*
X26790476Y142067005D02*
X26738095Y142014624D01*
X26738095Y142014624D02*
X26633333Y141962244D01*
X26633333Y141962244D02*
X26528571Y141962244D01*
X26528571Y141962244D02*
X26423809Y142014624D01*
X26423809Y142014624D02*
X26371428Y142067005D01*
X26371428Y142067005D02*
X26319047Y142171767D01*
X26319047Y142171767D02*
X26266666Y142381291D01*
X26266666Y142381291D02*
X26266666Y142643196D01*
X26266666Y142643196D02*
X26319047Y142852720D01*
X26319047Y142852720D02*
X26371428Y142957482D01*
X26371428Y142957482D02*
X26423809Y143009863D01*
X26423809Y143009863D02*
X26528571Y143062244D01*
X27261904Y142695577D02*
X27523809Y141962244D01*
X27523809Y141962244D02*
X27785714Y142695577D01*
X35275057Y118011904D02*
X36008390Y118011904D01*
X35798866Y118011904D02*
X35903628Y117959523D01*
X35903628Y117959523D02*
X35956009Y117907142D01*
X35956009Y117907142D02*
X36008390Y117802380D01*
X36008390Y117802380D02*
X36008390Y117697618D01*
X35275057Y117330952D02*
X36375057Y117330952D01*
X36375057Y117330952D02*
X36375057Y117069047D01*
X36375057Y117069047D02*
X36322676Y116911904D01*
X36322676Y116911904D02*
X36217914Y116807142D01*
X36217914Y116807142D02*
X36113152Y116754761D01*
X36113152Y116754761D02*
X35903628Y116702380D01*
X35903628Y116702380D02*
X35746485Y116702380D01*
X35746485Y116702380D02*
X35536961Y116754761D01*
X35536961Y116754761D02*
X35432199Y116807142D01*
X35432199Y116807142D02*
X35327438Y116911904D01*
X35327438Y116911904D02*
X35275057Y117069047D01*
X35275057Y117069047D02*
X35275057Y117330952D01*
X35275057Y115392857D02*
X36008390Y115392857D01*
X35798866Y115392857D02*
X35903628Y115340476D01*
X35903628Y115340476D02*
X35956009Y115288095D01*
X35956009Y115288095D02*
X36008390Y115183333D01*
X36008390Y115183333D02*
X36008390Y115078571D01*
X35851247Y114711905D02*
X35851247Y114345238D01*
X35275057Y114188095D02*
X35275057Y114711905D01*
X35275057Y114711905D02*
X36375057Y114711905D01*
X36375057Y114711905D02*
X36375057Y114188095D01*
X35275057Y112878572D02*
X36008390Y112878572D01*
X35798866Y112878572D02*
X35903628Y112826191D01*
X35903628Y112826191D02*
X35956009Y112773810D01*
X35956009Y112773810D02*
X36008390Y112669048D01*
X36008390Y112669048D02*
X36008390Y112564286D01*
X35851247Y111830953D02*
X35851247Y112197620D01*
X35275057Y112197620D02*
X36375057Y112197620D01*
X36375057Y112197620D02*
X36375057Y111673810D01*
X35275057Y110416668D02*
X36008390Y110416668D01*
X35798866Y110416668D02*
X35903628Y110364287D01*
X35903628Y110364287D02*
X35956009Y110311906D01*
X35956009Y110311906D02*
X36008390Y110207144D01*
X36008390Y110207144D02*
X36008390Y110102382D01*
X36322676Y109159525D02*
X36375057Y109264287D01*
X36375057Y109264287D02*
X36375057Y109421430D01*
X36375057Y109421430D02*
X36322676Y109578573D01*
X36322676Y109578573D02*
X36217914Y109683335D01*
X36217914Y109683335D02*
X36113152Y109735716D01*
X36113152Y109735716D02*
X35903628Y109788097D01*
X35903628Y109788097D02*
X35746485Y109788097D01*
X35746485Y109788097D02*
X35536961Y109735716D01*
X35536961Y109735716D02*
X35432199Y109683335D01*
X35432199Y109683335D02*
X35327438Y109578573D01*
X35327438Y109578573D02*
X35275057Y109421430D01*
X35275057Y109421430D02*
X35275057Y109316668D01*
X35275057Y109316668D02*
X35327438Y109159525D01*
X35327438Y109159525D02*
X35379818Y109107144D01*
X35379818Y109107144D02*
X35746485Y109107144D01*
X35746485Y109107144D02*
X35746485Y109316668D01*
X35275057Y107797621D02*
X36008390Y107797621D01*
X35798866Y107797621D02*
X35903628Y107745240D01*
X35903628Y107745240D02*
X35956009Y107692859D01*
X35956009Y107692859D02*
X36008390Y107588097D01*
X36008390Y107588097D02*
X36008390Y107483335D01*
X35275057Y107116669D02*
X36375057Y107116669D01*
X35851247Y107116669D02*
X35851247Y106488097D01*
X35275057Y106488097D02*
X36375057Y106488097D01*
X31733181Y117592856D02*
X31785562Y117697618D01*
X31785562Y117697618D02*
X31890323Y117749999D01*
X31890323Y117749999D02*
X32833181Y117749999D01*
X31733181Y117173809D02*
X32833181Y117173809D01*
X32833181Y117173809D02*
X32833181Y116911904D01*
X32833181Y116911904D02*
X32780800Y116754761D01*
X32780800Y116754761D02*
X32676038Y116649999D01*
X32676038Y116649999D02*
X32571276Y116597618D01*
X32571276Y116597618D02*
X32361752Y116545237D01*
X32361752Y116545237D02*
X32204609Y116545237D01*
X32204609Y116545237D02*
X31995085Y116597618D01*
X31995085Y116597618D02*
X31890323Y116649999D01*
X31890323Y116649999D02*
X31785562Y116754761D01*
X31785562Y116754761D02*
X31733181Y116911904D01*
X31733181Y116911904D02*
X31733181Y117173809D01*
X31733181Y115078571D02*
X31785562Y115183333D01*
X31785562Y115183333D02*
X31890323Y115235714D01*
X31890323Y115235714D02*
X32833181Y115235714D01*
X32309371Y114659524D02*
X32309371Y114292857D01*
X31733181Y114135714D02*
X31733181Y114659524D01*
X31733181Y114659524D02*
X32833181Y114659524D01*
X32833181Y114659524D02*
X32833181Y114135714D01*
X31733181Y112669048D02*
X31785562Y112773810D01*
X31785562Y112773810D02*
X31890323Y112826191D01*
X31890323Y112826191D02*
X32833181Y112826191D01*
X32309371Y111883334D02*
X32309371Y112250001D01*
X31733181Y112250001D02*
X32833181Y112250001D01*
X32833181Y112250001D02*
X32833181Y111726191D01*
X31733181Y110311906D02*
X31785562Y110416668D01*
X31785562Y110416668D02*
X31890323Y110469049D01*
X31890323Y110469049D02*
X32833181Y110469049D01*
X32780800Y109316668D02*
X32833181Y109421430D01*
X32833181Y109421430D02*
X32833181Y109578573D01*
X32833181Y109578573D02*
X32780800Y109735716D01*
X32780800Y109735716D02*
X32676038Y109840478D01*
X32676038Y109840478D02*
X32571276Y109892859D01*
X32571276Y109892859D02*
X32361752Y109945240D01*
X32361752Y109945240D02*
X32204609Y109945240D01*
X32204609Y109945240D02*
X31995085Y109892859D01*
X31995085Y109892859D02*
X31890323Y109840478D01*
X31890323Y109840478D02*
X31785562Y109735716D01*
X31785562Y109735716D02*
X31733181Y109578573D01*
X31733181Y109578573D02*
X31733181Y109473811D01*
X31733181Y109473811D02*
X31785562Y109316668D01*
X31785562Y109316668D02*
X31837942Y109264287D01*
X31837942Y109264287D02*
X32204609Y109264287D01*
X32204609Y109264287D02*
X32204609Y109473811D01*
X31733181Y107797621D02*
X31785562Y107902383D01*
X31785562Y107902383D02*
X31890323Y107954764D01*
X31890323Y107954764D02*
X32833181Y107954764D01*
X31733181Y107378574D02*
X32833181Y107378574D01*
X32309371Y107378574D02*
X32309371Y106750002D01*
X31733181Y106750002D02*
X32833181Y106750002D01*
X20433335Y187375058D02*
X19909525Y187375058D01*
X19909525Y187375058D02*
X19857144Y186851248D01*
X19857144Y186851248D02*
X19909525Y186903629D01*
X19909525Y186903629D02*
X20014287Y186956010D01*
X20014287Y186956010D02*
X20276192Y186956010D01*
X20276192Y186956010D02*
X20380954Y186903629D01*
X20380954Y186903629D02*
X20433335Y186851248D01*
X20433335Y186851248D02*
X20485716Y186746486D01*
X20485716Y186746486D02*
X20485716Y186484581D01*
X20485716Y186484581D02*
X20433335Y186379819D01*
X20433335Y186379819D02*
X20380954Y186327438D01*
X20380954Y186327438D02*
X20276192Y186275058D01*
X20276192Y186275058D02*
X20014287Y186275058D01*
X20014287Y186275058D02*
X19909525Y186327438D01*
X19909525Y186327438D02*
X19857144Y186379819D01*
X20852382Y187008391D02*
X21114287Y186275058D01*
X21114287Y186275058D02*
X21376192Y187008391D01*
X22633334Y186275058D02*
X22633334Y187008391D01*
X22633334Y186798867D02*
X22685715Y186903629D01*
X22685715Y186903629D02*
X22738096Y186956010D01*
X22738096Y186956010D02*
X22842858Y187008391D01*
X22842858Y187008391D02*
X22947620Y187008391D01*
X23261905Y186589343D02*
X23785715Y186589343D01*
X23157143Y186275058D02*
X23523810Y187375058D01*
X23523810Y187375058D02*
X23890477Y186275058D01*
X25095238Y186275058D02*
X25095238Y187008391D01*
X25095238Y186798867D02*
X25147619Y186903629D01*
X25147619Y186903629D02*
X25200000Y186956010D01*
X25200000Y186956010D02*
X25304762Y187008391D01*
X25304762Y187008391D02*
X25409524Y187008391D01*
X26142857Y186851248D02*
X26300000Y186798867D01*
X26300000Y186798867D02*
X26352381Y186746486D01*
X26352381Y186746486D02*
X26404762Y186641724D01*
X26404762Y186641724D02*
X26404762Y186484581D01*
X26404762Y186484581D02*
X26352381Y186379819D01*
X26352381Y186379819D02*
X26300000Y186327438D01*
X26300000Y186327438D02*
X26195238Y186275058D01*
X26195238Y186275058D02*
X25776190Y186275058D01*
X25776190Y186275058D02*
X25776190Y187375058D01*
X25776190Y187375058D02*
X26142857Y187375058D01*
X26142857Y187375058D02*
X26247619Y187322677D01*
X26247619Y187322677D02*
X26300000Y187270296D01*
X26300000Y187270296D02*
X26352381Y187165534D01*
X26352381Y187165534D02*
X26352381Y187060772D01*
X26352381Y187060772D02*
X26300000Y186956010D01*
X26300000Y186956010D02*
X26247619Y186903629D01*
X26247619Y186903629D02*
X26142857Y186851248D01*
X26142857Y186851248D02*
X25776190Y186851248D01*
X27714285Y186275058D02*
X27714285Y187008391D01*
X27714285Y186798867D02*
X27766666Y186903629D01*
X27766666Y186903629D02*
X27819047Y186956010D01*
X27819047Y186956010D02*
X27923809Y187008391D01*
X27923809Y187008391D02*
X28028571Y187008391D01*
X29023809Y186379819D02*
X28971428Y186327438D01*
X28971428Y186327438D02*
X28814285Y186275058D01*
X28814285Y186275058D02*
X28709523Y186275058D01*
X28709523Y186275058D02*
X28552380Y186327438D01*
X28552380Y186327438D02*
X28447618Y186432200D01*
X28447618Y186432200D02*
X28395237Y186536962D01*
X28395237Y186536962D02*
X28342856Y186746486D01*
X28342856Y186746486D02*
X28342856Y186903629D01*
X28342856Y186903629D02*
X28395237Y187113153D01*
X28395237Y187113153D02*
X28447618Y187217915D01*
X28447618Y187217915D02*
X28552380Y187322677D01*
X28552380Y187322677D02*
X28709523Y187375058D01*
X28709523Y187375058D02*
X28814285Y187375058D01*
X28814285Y187375058D02*
X28971428Y187322677D01*
X28971428Y187322677D02*
X29023809Y187270296D01*
X30333332Y186275058D02*
X30333332Y187008391D01*
X30333332Y186798867D02*
X30385713Y186903629D01*
X30385713Y186903629D02*
X30438094Y186956010D01*
X30438094Y186956010D02*
X30542856Y187008391D01*
X30542856Y187008391D02*
X30647618Y187008391D01*
X31014284Y186275058D02*
X31014284Y187375058D01*
X31014284Y187375058D02*
X31276189Y187375058D01*
X31276189Y187375058D02*
X31433332Y187322677D01*
X31433332Y187322677D02*
X31538094Y187217915D01*
X31538094Y187217915D02*
X31590475Y187113153D01*
X31590475Y187113153D02*
X31642856Y186903629D01*
X31642856Y186903629D02*
X31642856Y186746486D01*
X31642856Y186746486D02*
X31590475Y186536962D01*
X31590475Y186536962D02*
X31538094Y186432200D01*
X31538094Y186432200D02*
X31433332Y186327438D01*
X31433332Y186327438D02*
X31276189Y186275058D01*
X31276189Y186275058D02*
X31014284Y186275058D01*
X20145239Y183833182D02*
X20250001Y183833182D01*
X20250001Y183833182D02*
X20354763Y183780801D01*
X20354763Y183780801D02*
X20407144Y183728420D01*
X20407144Y183728420D02*
X20459525Y183623658D01*
X20459525Y183623658D02*
X20511906Y183414134D01*
X20511906Y183414134D02*
X20511906Y183152229D01*
X20511906Y183152229D02*
X20459525Y182942705D01*
X20459525Y182942705D02*
X20407144Y182837943D01*
X20407144Y182837943D02*
X20354763Y182785562D01*
X20354763Y182785562D02*
X20250001Y182733182D01*
X20250001Y182733182D02*
X20145239Y182733182D01*
X20145239Y182733182D02*
X20040477Y182785562D01*
X20040477Y182785562D02*
X19988096Y182837943D01*
X19988096Y182837943D02*
X19935715Y182942705D01*
X19935715Y182942705D02*
X19883334Y183152229D01*
X19883334Y183152229D02*
X19883334Y183414134D01*
X19883334Y183414134D02*
X19935715Y183623658D01*
X19935715Y183623658D02*
X19988096Y183728420D01*
X19988096Y183728420D02*
X20040477Y183780801D01*
X20040477Y183780801D02*
X20145239Y183833182D01*
X20878572Y183466515D02*
X21140477Y182733182D01*
X21140477Y182733182D02*
X21402382Y183466515D01*
X22659524Y182733182D02*
X22659524Y183466515D01*
X22659524Y183256991D02*
X22711905Y183361753D01*
X22711905Y183361753D02*
X22764286Y183414134D01*
X22764286Y183414134D02*
X22869048Y183466515D01*
X22869048Y183466515D02*
X22973810Y183466515D01*
X23340476Y183309372D02*
X23707143Y183309372D01*
X23864286Y182733182D02*
X23340476Y182733182D01*
X23340476Y182733182D02*
X23340476Y183833182D01*
X23340476Y183833182D02*
X23864286Y183833182D01*
X25173809Y182733182D02*
X25173809Y183466515D01*
X25173809Y183256991D02*
X25226190Y183361753D01*
X25226190Y183361753D02*
X25278571Y183414134D01*
X25278571Y183414134D02*
X25383333Y183466515D01*
X25383333Y183466515D02*
X25488095Y183466515D01*
X26221428Y183309372D02*
X25854761Y183309372D01*
X25854761Y182733182D02*
X25854761Y183833182D01*
X25854761Y183833182D02*
X26378571Y183833182D01*
X27635713Y182733182D02*
X27635713Y183466515D01*
X27635713Y183256991D02*
X27688094Y183361753D01*
X27688094Y183361753D02*
X27740475Y183414134D01*
X27740475Y183414134D02*
X27845237Y183466515D01*
X27845237Y183466515D02*
X27949999Y183466515D01*
X28892856Y183780801D02*
X28788094Y183833182D01*
X28788094Y183833182D02*
X28630951Y183833182D01*
X28630951Y183833182D02*
X28473808Y183780801D01*
X28473808Y183780801D02*
X28369046Y183676039D01*
X28369046Y183676039D02*
X28316665Y183571277D01*
X28316665Y183571277D02*
X28264284Y183361753D01*
X28264284Y183361753D02*
X28264284Y183204610D01*
X28264284Y183204610D02*
X28316665Y182995086D01*
X28316665Y182995086D02*
X28369046Y182890324D01*
X28369046Y182890324D02*
X28473808Y182785562D01*
X28473808Y182785562D02*
X28630951Y182733182D01*
X28630951Y182733182D02*
X28735713Y182733182D01*
X28735713Y182733182D02*
X28892856Y182785562D01*
X28892856Y182785562D02*
X28945237Y182837943D01*
X28945237Y182837943D02*
X28945237Y183204610D01*
X28945237Y183204610D02*
X28735713Y183204610D01*
X30254760Y182733182D02*
X30254760Y183466515D01*
X30254760Y183256991D02*
X30307141Y183361753D01*
X30307141Y183361753D02*
X30359522Y183414134D01*
X30359522Y183414134D02*
X30464284Y183466515D01*
X30464284Y183466515D02*
X30569046Y183466515D01*
X30935712Y182733182D02*
X30935712Y183833182D01*
X30935712Y183309372D02*
X31564284Y183309372D01*
X31564284Y182733182D02*
X31564284Y183833182D01*
X21587761Y150369048D02*
X23587761Y150369048D01*
X23587761Y150369048D02*
X23587761Y149607143D01*
X23587761Y149607143D02*
X23492523Y149416667D01*
X23492523Y149416667D02*
X23397285Y149321429D01*
X23397285Y149321429D02*
X23206809Y149226191D01*
X23206809Y149226191D02*
X22921095Y149226191D01*
X22921095Y149226191D02*
X22730619Y149321429D01*
X22730619Y149321429D02*
X22635380Y149416667D01*
X22635380Y149416667D02*
X22540142Y149607143D01*
X22540142Y149607143D02*
X22540142Y150369048D01*
X23587761Y147988096D02*
X23587761Y147607143D01*
X23587761Y147607143D02*
X23492523Y147416667D01*
X23492523Y147416667D02*
X23302047Y147226191D01*
X23302047Y147226191D02*
X22921095Y147130953D01*
X22921095Y147130953D02*
X22254428Y147130953D01*
X22254428Y147130953D02*
X21873476Y147226191D01*
X21873476Y147226191D02*
X21683000Y147416667D01*
X21683000Y147416667D02*
X21587761Y147607143D01*
X21587761Y147607143D02*
X21587761Y147988096D01*
X21587761Y147988096D02*
X21683000Y148178572D01*
X21683000Y148178572D02*
X21873476Y148369048D01*
X21873476Y148369048D02*
X22254428Y148464286D01*
X22254428Y148464286D02*
X22921095Y148464286D01*
X22921095Y148464286D02*
X23302047Y148369048D01*
X23302047Y148369048D02*
X23492523Y148178572D01*
X23492523Y148178572D02*
X23587761Y147988096D01*
X23587761Y146464286D02*
X21587761Y145988096D01*
X21587761Y145988096D02*
X23016333Y145607143D01*
X23016333Y145607143D02*
X21587761Y145226191D01*
X21587761Y145226191D02*
X23587761Y144750000D01*
X22635380Y143988096D02*
X22635380Y143321429D01*
X21587761Y143035715D02*
X21587761Y143988096D01*
X21587761Y143988096D02*
X23587761Y143988096D01*
X23587761Y143988096D02*
X23587761Y143035715D01*
X21587761Y141035715D02*
X22540142Y141702382D01*
X21587761Y142178572D02*
X23587761Y142178572D01*
X23587761Y142178572D02*
X23587761Y141416667D01*
X23587761Y141416667D02*
X23492523Y141226191D01*
X23492523Y141226191D02*
X23397285Y141130953D01*
X23397285Y141130953D02*
X23206809Y141035715D01*
X23206809Y141035715D02*
X22921095Y141035715D01*
X22921095Y141035715D02*
X22730619Y141130953D01*
X22730619Y141130953D02*
X22635380Y141226191D01*
X22635380Y141226191D02*
X22540142Y141416667D01*
X22540142Y141416667D02*
X22540142Y142178572D01*
X58183335Y139125058D02*
X57659525Y139125058D01*
X57659525Y139125058D02*
X57607144Y138601248D01*
X57607144Y138601248D02*
X57659525Y138653629D01*
X57659525Y138653629D02*
X57764287Y138706010D01*
X57764287Y138706010D02*
X58026192Y138706010D01*
X58026192Y138706010D02*
X58130954Y138653629D01*
X58130954Y138653629D02*
X58183335Y138601248D01*
X58183335Y138601248D02*
X58235716Y138496486D01*
X58235716Y138496486D02*
X58235716Y138234581D01*
X58235716Y138234581D02*
X58183335Y138129819D01*
X58183335Y138129819D02*
X58130954Y138077438D01*
X58130954Y138077438D02*
X58026192Y138025058D01*
X58026192Y138025058D02*
X57764287Y138025058D01*
X57764287Y138025058D02*
X57659525Y138077438D01*
X57659525Y138077438D02*
X57607144Y138129819D01*
X58602382Y138758391D02*
X58864287Y138025058D01*
X58864287Y138025058D02*
X59126192Y138758391D01*
X60383334Y138025058D02*
X60383334Y138758391D01*
X60383334Y138548867D02*
X60435715Y138653629D01*
X60435715Y138653629D02*
X60488096Y138706010D01*
X60488096Y138706010D02*
X60592858Y138758391D01*
X60592858Y138758391D02*
X60697620Y138758391D01*
X61011905Y138339343D02*
X61535715Y138339343D01*
X60907143Y138025058D02*
X61273810Y139125058D01*
X61273810Y139125058D02*
X61640477Y138025058D01*
X62845238Y138025058D02*
X62845238Y138758391D01*
X62845238Y138548867D02*
X62897619Y138653629D01*
X62897619Y138653629D02*
X62950000Y138706010D01*
X62950000Y138706010D02*
X63054762Y138758391D01*
X63054762Y138758391D02*
X63159524Y138758391D01*
X63892857Y138601248D02*
X64050000Y138548867D01*
X64050000Y138548867D02*
X64102381Y138496486D01*
X64102381Y138496486D02*
X64154762Y138391724D01*
X64154762Y138391724D02*
X64154762Y138234581D01*
X64154762Y138234581D02*
X64102381Y138129819D01*
X64102381Y138129819D02*
X64050000Y138077438D01*
X64050000Y138077438D02*
X63945238Y138025058D01*
X63945238Y138025058D02*
X63526190Y138025058D01*
X63526190Y138025058D02*
X63526190Y139125058D01*
X63526190Y139125058D02*
X63892857Y139125058D01*
X63892857Y139125058D02*
X63997619Y139072677D01*
X63997619Y139072677D02*
X64050000Y139020296D01*
X64050000Y139020296D02*
X64102381Y138915534D01*
X64102381Y138915534D02*
X64102381Y138810772D01*
X64102381Y138810772D02*
X64050000Y138706010D01*
X64050000Y138706010D02*
X63997619Y138653629D01*
X63997619Y138653629D02*
X63892857Y138601248D01*
X63892857Y138601248D02*
X63526190Y138601248D01*
X65464285Y138025058D02*
X65464285Y138758391D01*
X65464285Y138548867D02*
X65516666Y138653629D01*
X65516666Y138653629D02*
X65569047Y138706010D01*
X65569047Y138706010D02*
X65673809Y138758391D01*
X65673809Y138758391D02*
X65778571Y138758391D01*
X66773809Y138129819D02*
X66721428Y138077438D01*
X66721428Y138077438D02*
X66564285Y138025058D01*
X66564285Y138025058D02*
X66459523Y138025058D01*
X66459523Y138025058D02*
X66302380Y138077438D01*
X66302380Y138077438D02*
X66197618Y138182200D01*
X66197618Y138182200D02*
X66145237Y138286962D01*
X66145237Y138286962D02*
X66092856Y138496486D01*
X66092856Y138496486D02*
X66092856Y138653629D01*
X66092856Y138653629D02*
X66145237Y138863153D01*
X66145237Y138863153D02*
X66197618Y138967915D01*
X66197618Y138967915D02*
X66302380Y139072677D01*
X66302380Y139072677D02*
X66459523Y139125058D01*
X66459523Y139125058D02*
X66564285Y139125058D01*
X66564285Y139125058D02*
X66721428Y139072677D01*
X66721428Y139072677D02*
X66773809Y139020296D01*
X68083332Y138025058D02*
X68083332Y138758391D01*
X68083332Y138548867D02*
X68135713Y138653629D01*
X68135713Y138653629D02*
X68188094Y138706010D01*
X68188094Y138706010D02*
X68292856Y138758391D01*
X68292856Y138758391D02*
X68397618Y138758391D01*
X68764284Y138025058D02*
X68764284Y139125058D01*
X68764284Y139125058D02*
X69026189Y139125058D01*
X69026189Y139125058D02*
X69183332Y139072677D01*
X69183332Y139072677D02*
X69288094Y138967915D01*
X69288094Y138967915D02*
X69340475Y138863153D01*
X69340475Y138863153D02*
X69392856Y138653629D01*
X69392856Y138653629D02*
X69392856Y138496486D01*
X69392856Y138496486D02*
X69340475Y138286962D01*
X69340475Y138286962D02*
X69288094Y138182200D01*
X69288094Y138182200D02*
X69183332Y138077438D01*
X69183332Y138077438D02*
X69026189Y138025058D01*
X69026189Y138025058D02*
X68764284Y138025058D01*
X57895239Y135583182D02*
X58000001Y135583182D01*
X58000001Y135583182D02*
X58104763Y135530801D01*
X58104763Y135530801D02*
X58157144Y135478420D01*
X58157144Y135478420D02*
X58209525Y135373658D01*
X58209525Y135373658D02*
X58261906Y135164134D01*
X58261906Y135164134D02*
X58261906Y134902229D01*
X58261906Y134902229D02*
X58209525Y134692705D01*
X58209525Y134692705D02*
X58157144Y134587943D01*
X58157144Y134587943D02*
X58104763Y134535562D01*
X58104763Y134535562D02*
X58000001Y134483182D01*
X58000001Y134483182D02*
X57895239Y134483182D01*
X57895239Y134483182D02*
X57790477Y134535562D01*
X57790477Y134535562D02*
X57738096Y134587943D01*
X57738096Y134587943D02*
X57685715Y134692705D01*
X57685715Y134692705D02*
X57633334Y134902229D01*
X57633334Y134902229D02*
X57633334Y135164134D01*
X57633334Y135164134D02*
X57685715Y135373658D01*
X57685715Y135373658D02*
X57738096Y135478420D01*
X57738096Y135478420D02*
X57790477Y135530801D01*
X57790477Y135530801D02*
X57895239Y135583182D01*
X58628572Y135216515D02*
X58890477Y134483182D01*
X58890477Y134483182D02*
X59152382Y135216515D01*
X60409524Y134483182D02*
X60409524Y135216515D01*
X60409524Y135006991D02*
X60461905Y135111753D01*
X60461905Y135111753D02*
X60514286Y135164134D01*
X60514286Y135164134D02*
X60619048Y135216515D01*
X60619048Y135216515D02*
X60723810Y135216515D01*
X61090476Y135059372D02*
X61457143Y135059372D01*
X61614286Y134483182D02*
X61090476Y134483182D01*
X61090476Y134483182D02*
X61090476Y135583182D01*
X61090476Y135583182D02*
X61614286Y135583182D01*
X62923809Y134483182D02*
X62923809Y135216515D01*
X62923809Y135006991D02*
X62976190Y135111753D01*
X62976190Y135111753D02*
X63028571Y135164134D01*
X63028571Y135164134D02*
X63133333Y135216515D01*
X63133333Y135216515D02*
X63238095Y135216515D01*
X63971428Y135059372D02*
X63604761Y135059372D01*
X63604761Y134483182D02*
X63604761Y135583182D01*
X63604761Y135583182D02*
X64128571Y135583182D01*
X65385713Y134483182D02*
X65385713Y135216515D01*
X65385713Y135006991D02*
X65438094Y135111753D01*
X65438094Y135111753D02*
X65490475Y135164134D01*
X65490475Y135164134D02*
X65595237Y135216515D01*
X65595237Y135216515D02*
X65699999Y135216515D01*
X66642856Y135530801D02*
X66538094Y135583182D01*
X66538094Y135583182D02*
X66380951Y135583182D01*
X66380951Y135583182D02*
X66223808Y135530801D01*
X66223808Y135530801D02*
X66119046Y135426039D01*
X66119046Y135426039D02*
X66066665Y135321277D01*
X66066665Y135321277D02*
X66014284Y135111753D01*
X66014284Y135111753D02*
X66014284Y134954610D01*
X66014284Y134954610D02*
X66066665Y134745086D01*
X66066665Y134745086D02*
X66119046Y134640324D01*
X66119046Y134640324D02*
X66223808Y134535562D01*
X66223808Y134535562D02*
X66380951Y134483182D01*
X66380951Y134483182D02*
X66485713Y134483182D01*
X66485713Y134483182D02*
X66642856Y134535562D01*
X66642856Y134535562D02*
X66695237Y134587943D01*
X66695237Y134587943D02*
X66695237Y134954610D01*
X66695237Y134954610D02*
X66485713Y134954610D01*
X68004760Y134483182D02*
X68004760Y135216515D01*
X68004760Y135006991D02*
X68057141Y135111753D01*
X68057141Y135111753D02*
X68109522Y135164134D01*
X68109522Y135164134D02*
X68214284Y135216515D01*
X68214284Y135216515D02*
X68319046Y135216515D01*
X68685712Y134483182D02*
X68685712Y135583182D01*
X68685712Y135059372D02*
X69314284Y135059372D01*
X69314284Y134483182D02*
X69314284Y135583182D01*
D13*
X44455124Y171372745D02*
X44455124Y171277507D01*
X44455124Y171277507D02*
X44407505Y171182269D01*
X44407505Y171182269D02*
X44359886Y171134650D01*
X44359886Y171134650D02*
X44264648Y171087031D01*
X44264648Y171087031D02*
X44074172Y171039412D01*
X44074172Y171039412D02*
X43836077Y171039412D01*
X43836077Y171039412D02*
X43645601Y171087031D01*
X43645601Y171087031D02*
X43550363Y171134650D01*
X43550363Y171134650D02*
X43502744Y171182269D01*
X43502744Y171182269D02*
X43455124Y171277507D01*
X43455124Y171277507D02*
X43455124Y171372745D01*
X43455124Y171372745D02*
X43502744Y171467983D01*
X43502744Y171467983D02*
X43550363Y171515602D01*
X43550363Y171515602D02*
X43645601Y171563221D01*
X43645601Y171563221D02*
X43836077Y171610840D01*
X43836077Y171610840D02*
X44074172Y171610840D01*
X44074172Y171610840D02*
X44264648Y171563221D01*
X44264648Y171563221D02*
X44359886Y171515602D01*
X44359886Y171515602D02*
X44407505Y171467983D01*
X44407505Y171467983D02*
X44455124Y171372745D01*
X44121791Y170706078D02*
X43455124Y170467983D01*
X43455124Y170467983D02*
X44121791Y170229888D01*
X44455124Y168896554D02*
X44455124Y168801316D01*
X44455124Y168801316D02*
X44407505Y168706078D01*
X44407505Y168706078D02*
X44359886Y168658459D01*
X44359886Y168658459D02*
X44264648Y168610840D01*
X44264648Y168610840D02*
X44074172Y168563221D01*
X44074172Y168563221D02*
X43836077Y168563221D01*
X43836077Y168563221D02*
X43645601Y168610840D01*
X43645601Y168610840D02*
X43550363Y168658459D01*
X43550363Y168658459D02*
X43502744Y168706078D01*
X43502744Y168706078D02*
X43455124Y168801316D01*
X43455124Y168801316D02*
X43455124Y168896554D01*
X43455124Y168896554D02*
X43502744Y168991792D01*
X43502744Y168991792D02*
X43550363Y169039411D01*
X43550363Y169039411D02*
X43645601Y169087030D01*
X43645601Y169087030D02*
X43836077Y169134649D01*
X43836077Y169134649D02*
X44074172Y169134649D01*
X44074172Y169134649D02*
X44264648Y169087030D01*
X44264648Y169087030D02*
X44359886Y169039411D01*
X44359886Y169039411D02*
X44407505Y168991792D01*
X44407505Y168991792D02*
X44455124Y168896554D01*
X44121791Y168229887D02*
X43455124Y167991792D01*
X43455124Y167991792D02*
X44121791Y167753697D01*
X41235236Y171087031D02*
X41235236Y171563221D01*
X41235236Y171563221D02*
X40759046Y171610840D01*
X40759046Y171610840D02*
X40806665Y171563221D01*
X40806665Y171563221D02*
X40854284Y171467983D01*
X40854284Y171467983D02*
X40854284Y171229888D01*
X40854284Y171229888D02*
X40806665Y171134650D01*
X40806665Y171134650D02*
X40759046Y171087031D01*
X40759046Y171087031D02*
X40663808Y171039412D01*
X40663808Y171039412D02*
X40425713Y171039412D01*
X40425713Y171039412D02*
X40330475Y171087031D01*
X40330475Y171087031D02*
X40282856Y171134650D01*
X40282856Y171134650D02*
X40235236Y171229888D01*
X40235236Y171229888D02*
X40235236Y171467983D01*
X40235236Y171467983D02*
X40282856Y171563221D01*
X40282856Y171563221D02*
X40330475Y171610840D01*
X40901903Y170706078D02*
X40235236Y170467983D01*
X40235236Y170467983D02*
X40901903Y170229888D01*
X41235236Y168610840D02*
X41235236Y169087030D01*
X41235236Y169087030D02*
X40759046Y169134649D01*
X40759046Y169134649D02*
X40806665Y169087030D01*
X40806665Y169087030D02*
X40854284Y168991792D01*
X40854284Y168991792D02*
X40854284Y168753697D01*
X40854284Y168753697D02*
X40806665Y168658459D01*
X40806665Y168658459D02*
X40759046Y168610840D01*
X40759046Y168610840D02*
X40663808Y168563221D01*
X40663808Y168563221D02*
X40425713Y168563221D01*
X40425713Y168563221D02*
X40330475Y168610840D01*
X40330475Y168610840D02*
X40282856Y168658459D01*
X40282856Y168658459D02*
X40235236Y168753697D01*
X40235236Y168753697D02*
X40235236Y168991792D01*
X40235236Y168991792D02*
X40282856Y169087030D01*
X40282856Y169087030D02*
X40330475Y169134649D01*
X40901903Y168229887D02*
X40235236Y167991792D01*
X40235236Y167991792D02*
X40901903Y167753697D01*
D14*
X-63523810Y81087762D02*
X-63523810Y83087762D01*
X-63523810Y83087762D02*
X-62857143Y81659191D01*
X-62857143Y81659191D02*
X-62190477Y83087762D01*
X-62190477Y83087762D02*
X-62190477Y81087762D01*
X-61238096Y81087762D02*
X-61238096Y83087762D01*
X-60285715Y81087762D02*
X-60285715Y83087762D01*
X-60285715Y83087762D02*
X-59809525Y83087762D01*
X-59809525Y83087762D02*
X-59523810Y82992524D01*
X-59523810Y82992524D02*
X-59333334Y82802048D01*
X-59333334Y82802048D02*
X-59238096Y82611572D01*
X-59238096Y82611572D02*
X-59142858Y82230620D01*
X-59142858Y82230620D02*
X-59142858Y81944905D01*
X-59142858Y81944905D02*
X-59238096Y81563953D01*
X-59238096Y81563953D02*
X-59333334Y81373477D01*
X-59333334Y81373477D02*
X-59523810Y81183000D01*
X-59523810Y81183000D02*
X-59809525Y81087762D01*
X-59809525Y81087762D02*
X-60285715Y81087762D01*
X-57619048Y82135381D02*
X-57333334Y82040143D01*
X-57333334Y82040143D02*
X-57238096Y81944905D01*
X-57238096Y81944905D02*
X-57142858Y81754429D01*
X-57142858Y81754429D02*
X-57142858Y81468715D01*
X-57142858Y81468715D02*
X-57238096Y81278239D01*
X-57238096Y81278239D02*
X-57333334Y81183000D01*
X-57333334Y81183000D02*
X-57523810Y81087762D01*
X-57523810Y81087762D02*
X-58285715Y81087762D01*
X-58285715Y81087762D02*
X-58285715Y83087762D01*
X-58285715Y83087762D02*
X-57619048Y83087762D01*
X-57619048Y83087762D02*
X-57428572Y82992524D01*
X-57428572Y82992524D02*
X-57333334Y82897286D01*
X-57333334Y82897286D02*
X-57238096Y82706810D01*
X-57238096Y82706810D02*
X-57238096Y82516334D01*
X-57238096Y82516334D02*
X-57333334Y82325858D01*
X-57333334Y82325858D02*
X-57428572Y82230620D01*
X-57428572Y82230620D02*
X-57619048Y82135381D01*
X-57619048Y82135381D02*
X-58285715Y82135381D01*
X-55142858Y81087762D02*
X-55809525Y82040143D01*
X-56285715Y81087762D02*
X-56285715Y83087762D01*
X-56285715Y83087762D02*
X-55523810Y83087762D01*
X-55523810Y83087762D02*
X-55333334Y82992524D01*
X-55333334Y82992524D02*
X-55238096Y82897286D01*
X-55238096Y82897286D02*
X-55142858Y82706810D01*
X-55142858Y82706810D02*
X-55142858Y82421096D01*
X-55142858Y82421096D02*
X-55238096Y82230620D01*
X-55238096Y82230620D02*
X-55333334Y82135381D01*
X-55333334Y82135381D02*
X-55523810Y82040143D01*
X-55523810Y82040143D02*
X-56285715Y82040143D01*
X-54380953Y81659191D02*
X-53428572Y81659191D01*
X-54571429Y81087762D02*
X-53904763Y83087762D01*
X-53904763Y83087762D02*
X-53238096Y81087762D01*
X-52571429Y81087762D02*
X-52571429Y83087762D01*
X-51619048Y81087762D02*
X-51619048Y83087762D01*
X-51619048Y83087762D02*
X-50476191Y81087762D01*
X-50476191Y81087762D02*
X-50476191Y83087762D01*
D13*
X44355124Y166758459D02*
X43355124Y166520364D01*
X43355124Y166520364D02*
X44069410Y166329888D01*
X44069410Y166329888D02*
X43355124Y166139412D01*
X43355124Y166139412D02*
X44355124Y165901316D01*
X43402744Y165567983D02*
X43355124Y165425126D01*
X43355124Y165425126D02*
X43355124Y165187031D01*
X43355124Y165187031D02*
X43402744Y165091793D01*
X43402744Y165091793D02*
X43450363Y165044174D01*
X43450363Y165044174D02*
X43545601Y164996555D01*
X43545601Y164996555D02*
X43640839Y164996555D01*
X43640839Y164996555D02*
X43736077Y165044174D01*
X43736077Y165044174D02*
X43783696Y165091793D01*
X43783696Y165091793D02*
X43831315Y165187031D01*
X43831315Y165187031D02*
X43878934Y165377507D01*
X43878934Y165377507D02*
X43926553Y165472745D01*
X43926553Y165472745D02*
X43974172Y165520364D01*
X43974172Y165520364D02*
X44069410Y165567983D01*
X44069410Y165567983D02*
X44164648Y165567983D01*
X44164648Y165567983D02*
X44259886Y165520364D01*
X44259886Y165520364D02*
X44307505Y165472745D01*
X44307505Y165472745D02*
X44355124Y165377507D01*
X44355124Y165377507D02*
X44355124Y165139412D01*
X44355124Y165139412D02*
X44307505Y164996555D01*
X40230475Y166091793D02*
X40182856Y166139412D01*
X40182856Y166139412D02*
X40135236Y166282269D01*
X40135236Y166282269D02*
X40135236Y166377507D01*
X40135236Y166377507D02*
X40182856Y166520364D01*
X40182856Y166520364D02*
X40278094Y166615602D01*
X40278094Y166615602D02*
X40373332Y166663221D01*
X40373332Y166663221D02*
X40563808Y166710840D01*
X40563808Y166710840D02*
X40706665Y166710840D01*
X40706665Y166710840D02*
X40897141Y166663221D01*
X40897141Y166663221D02*
X40992379Y166615602D01*
X40992379Y166615602D02*
X41087617Y166520364D01*
X41087617Y166520364D02*
X41135236Y166377507D01*
X41135236Y166377507D02*
X41135236Y166282269D01*
X41135236Y166282269D02*
X41087617Y166139412D01*
X41087617Y166139412D02*
X41039998Y166091793D01*
X40135236Y165663221D02*
X41135236Y165663221D01*
X40135236Y165091793D02*
X40706665Y165520364D01*
X41135236Y165091793D02*
X40563808Y165663221D01*
D14*
X-84285715Y93135381D02*
X-83619048Y93135381D01*
X-83333334Y92087762D02*
X-84285715Y92087762D01*
X-84285715Y92087762D02*
X-84285715Y94087762D01*
X-84285715Y94087762D02*
X-83333334Y94087762D01*
X-82571429Y92659191D02*
X-81619048Y92659191D01*
X-82761905Y92087762D02*
X-82095239Y94087762D01*
X-82095239Y94087762D02*
X-81428572Y92087762D01*
X-79619048Y92087762D02*
X-80285715Y93040143D01*
X-80761905Y92087762D02*
X-80761905Y94087762D01*
X-80761905Y94087762D02*
X-80000000Y94087762D01*
X-80000000Y94087762D02*
X-79809524Y93992524D01*
X-79809524Y93992524D02*
X-79714286Y93897286D01*
X-79714286Y93897286D02*
X-79619048Y93706810D01*
X-79619048Y93706810D02*
X-79619048Y93421096D01*
X-79619048Y93421096D02*
X-79714286Y93230620D01*
X-79714286Y93230620D02*
X-79809524Y93135381D01*
X-79809524Y93135381D02*
X-80000000Y93040143D01*
X-80000000Y93040143D02*
X-80761905Y93040143D01*
D13*
X-8690477Y186342800D02*
X-8547620Y186295181D01*
X-8547620Y186295181D02*
X-8309525Y186295181D01*
X-8309525Y186295181D02*
X-8214287Y186342800D01*
X-8214287Y186342800D02*
X-8166668Y186390420D01*
X-8166668Y186390420D02*
X-8119049Y186485658D01*
X-8119049Y186485658D02*
X-8119049Y186580896D01*
X-8119049Y186580896D02*
X-8166668Y186676134D01*
X-8166668Y186676134D02*
X-8214287Y186723753D01*
X-8214287Y186723753D02*
X-8309525Y186771372D01*
X-8309525Y186771372D02*
X-8500001Y186818991D01*
X-8500001Y186818991D02*
X-8595239Y186866610D01*
X-8595239Y186866610D02*
X-8642858Y186914229D01*
X-8642858Y186914229D02*
X-8690477Y187009467D01*
X-8690477Y187009467D02*
X-8690477Y187104705D01*
X-8690477Y187104705D02*
X-8642858Y187199943D01*
X-8642858Y187199943D02*
X-8595239Y187247562D01*
X-8595239Y187247562D02*
X-8500001Y187295181D01*
X-8500001Y187295181D02*
X-8261906Y187295181D01*
X-8261906Y187295181D02*
X-8119049Y187247562D01*
X-7500001Y187295181D02*
X-7309525Y187295181D01*
X-7309525Y187295181D02*
X-7214287Y187247562D01*
X-7214287Y187247562D02*
X-7119049Y187152324D01*
X-7119049Y187152324D02*
X-7071430Y186961848D01*
X-7071430Y186961848D02*
X-7071430Y186628515D01*
X-7071430Y186628515D02*
X-7119049Y186438039D01*
X-7119049Y186438039D02*
X-7214287Y186342800D01*
X-7214287Y186342800D02*
X-7309525Y186295181D01*
X-7309525Y186295181D02*
X-7500001Y186295181D01*
X-7500001Y186295181D02*
X-7595239Y186342800D01*
X-7595239Y186342800D02*
X-7690477Y186438039D01*
X-7690477Y186438039D02*
X-7738096Y186628515D01*
X-7738096Y186628515D02*
X-7738096Y186961848D01*
X-7738096Y186961848D02*
X-7690477Y187152324D01*
X-7690477Y187152324D02*
X-7595239Y187247562D01*
X-7595239Y187247562D02*
X-7500001Y187295181D01*
X-5309525Y186390420D02*
X-5357144Y186342800D01*
X-5357144Y186342800D02*
X-5500001Y186295181D01*
X-5500001Y186295181D02*
X-5595239Y186295181D01*
X-5595239Y186295181D02*
X-5738096Y186342800D01*
X-5738096Y186342800D02*
X-5833334Y186438039D01*
X-5833334Y186438039D02*
X-5880953Y186533277D01*
X-5880953Y186533277D02*
X-5928572Y186723753D01*
X-5928572Y186723753D02*
X-5928572Y186866610D01*
X-5928572Y186866610D02*
X-5880953Y187057086D01*
X-5880953Y187057086D02*
X-5833334Y187152324D01*
X-5833334Y187152324D02*
X-5738096Y187247562D01*
X-5738096Y187247562D02*
X-5595239Y187295181D01*
X-5595239Y187295181D02*
X-5500001Y187295181D01*
X-5500001Y187295181D02*
X-5357144Y187247562D01*
X-5357144Y187247562D02*
X-5309525Y187199943D01*
X-4880953Y186295181D02*
X-4880953Y187295181D01*
X-4309525Y186295181D02*
X-4738096Y186866610D01*
X-4309525Y187295181D02*
X-4880953Y186723753D01*
X-3214286Y187295181D02*
X-2976191Y186295181D01*
X-2976191Y186295181D02*
X-2785715Y187009467D01*
X-2785715Y187009467D02*
X-2595239Y186295181D01*
X-2595239Y186295181D02*
X-2357143Y187295181D01*
X-2023810Y186342800D02*
X-1880953Y186295181D01*
X-1880953Y186295181D02*
X-1642858Y186295181D01*
X-1642858Y186295181D02*
X-1547620Y186342800D01*
X-1547620Y186342800D02*
X-1500001Y186390420D01*
X-1500001Y186390420D02*
X-1452382Y186485658D01*
X-1452382Y186485658D02*
X-1452382Y186580896D01*
X-1452382Y186580896D02*
X-1500001Y186676134D01*
X-1500001Y186676134D02*
X-1547620Y186723753D01*
X-1547620Y186723753D02*
X-1642858Y186771372D01*
X-1642858Y186771372D02*
X-1833334Y186818991D01*
X-1833334Y186818991D02*
X-1928572Y186866610D01*
X-1928572Y186866610D02*
X-1976191Y186914229D01*
X-1976191Y186914229D02*
X-2023810Y187009467D01*
X-2023810Y187009467D02*
X-2023810Y187104705D01*
X-2023810Y187104705D02*
X-1976191Y187199943D01*
X-1976191Y187199943D02*
X-1928572Y187247562D01*
X-1928572Y187247562D02*
X-1833334Y187295181D01*
X-1833334Y187295181D02*
X-1595239Y187295181D01*
X-1595239Y187295181D02*
X-1452382Y187247562D01*
X-71429Y187295181D02*
X23809Y187295181D01*
X23809Y187295181D02*
X119047Y187247562D01*
X119047Y187247562D02*
X166666Y187199943D01*
X166666Y187199943D02*
X214285Y187104705D01*
X214285Y187104705D02*
X261904Y186914229D01*
X261904Y186914229D02*
X261904Y186676134D01*
X261904Y186676134D02*
X214285Y186485658D01*
X214285Y186485658D02*
X166666Y186390420D01*
X166666Y186390420D02*
X119047Y186342800D01*
X119047Y186342800D02*
X23809Y186295181D01*
X23809Y186295181D02*
X-71429Y186295181D01*
X-71429Y186295181D02*
X-166667Y186342800D01*
X-166667Y186342800D02*
X-214286Y186390420D01*
X-214286Y186390420D02*
X-261905Y186485658D01*
X-261905Y186485658D02*
X-309524Y186676134D01*
X-309524Y186676134D02*
X-309524Y186914229D01*
X-309524Y186914229D02*
X-261905Y187104705D01*
X-261905Y187104705D02*
X-214286Y187199943D01*
X-214286Y187199943D02*
X-166667Y187247562D01*
X-166667Y187247562D02*
X-71429Y187295181D01*
X595238Y186961848D02*
X833333Y186295181D01*
X833333Y186295181D02*
X1071428Y186961848D01*
X2404762Y187295181D02*
X2500000Y187295181D01*
X2500000Y187295181D02*
X2595238Y187247562D01*
X2595238Y187247562D02*
X2642857Y187199943D01*
X2642857Y187199943D02*
X2690476Y187104705D01*
X2690476Y187104705D02*
X2738095Y186914229D01*
X2738095Y186914229D02*
X2738095Y186676134D01*
X2738095Y186676134D02*
X2690476Y186485658D01*
X2690476Y186485658D02*
X2642857Y186390420D01*
X2642857Y186390420D02*
X2595238Y186342800D01*
X2595238Y186342800D02*
X2500000Y186295181D01*
X2500000Y186295181D02*
X2404762Y186295181D01*
X2404762Y186295181D02*
X2309524Y186342800D01*
X2309524Y186342800D02*
X2261905Y186390420D01*
X2261905Y186390420D02*
X2214286Y186485658D01*
X2214286Y186485658D02*
X2166667Y186676134D01*
X2166667Y186676134D02*
X2166667Y186914229D01*
X2166667Y186914229D02*
X2214286Y187104705D01*
X2214286Y187104705D02*
X2261905Y187199943D01*
X2261905Y187199943D02*
X2309524Y187247562D01*
X2309524Y187247562D02*
X2404762Y187295181D01*
X3071429Y186961848D02*
X3309524Y186295181D01*
X3309524Y186295181D02*
X3547619Y186961848D01*
X5166667Y187295181D02*
X4690477Y187295181D01*
X4690477Y187295181D02*
X4642858Y186818991D01*
X4642858Y186818991D02*
X4690477Y186866610D01*
X4690477Y186866610D02*
X4785715Y186914229D01*
X4785715Y186914229D02*
X5023810Y186914229D01*
X5023810Y186914229D02*
X5119048Y186866610D01*
X5119048Y186866610D02*
X5166667Y186818991D01*
X5166667Y186818991D02*
X5214286Y186723753D01*
X5214286Y186723753D02*
X5214286Y186485658D01*
X5214286Y186485658D02*
X5166667Y186390420D01*
X5166667Y186390420D02*
X5119048Y186342800D01*
X5119048Y186342800D02*
X5023810Y186295181D01*
X5023810Y186295181D02*
X4785715Y186295181D01*
X4785715Y186295181D02*
X4690477Y186342800D01*
X4690477Y186342800D02*
X4642858Y186390420D01*
X5547620Y186961848D02*
X5785715Y186295181D01*
X5785715Y186295181D02*
X6023810Y186961848D01*
X7166668Y186818991D02*
X7500001Y186818991D01*
X7642858Y186295181D02*
X7166668Y186295181D01*
X7166668Y186295181D02*
X7166668Y187295181D01*
X7166668Y187295181D02*
X7642858Y187295181D01*
X8071430Y186295181D02*
X8071430Y187295181D01*
X8071430Y187295181D02*
X8642858Y186295181D01*
X8642858Y186295181D02*
X8642858Y187295181D01*
D14*
X83278571Y58145996D02*
X83383333Y58145996D01*
X83383333Y58145996D02*
X83488095Y58093615D01*
X83488095Y58093615D02*
X83540476Y58041234D01*
X83540476Y58041234D02*
X83592857Y57936472D01*
X83592857Y57936472D02*
X83645238Y57726948D01*
X83645238Y57726948D02*
X83645238Y57465043D01*
X83645238Y57465043D02*
X83592857Y57255519D01*
X83592857Y57255519D02*
X83540476Y57150757D01*
X83540476Y57150757D02*
X83488095Y57098376D01*
X83488095Y57098376D02*
X83383333Y57045996D01*
X83383333Y57045996D02*
X83278571Y57045996D01*
X83278571Y57045996D02*
X83173809Y57098376D01*
X83173809Y57098376D02*
X83121428Y57150757D01*
X83121428Y57150757D02*
X83069047Y57255519D01*
X83069047Y57255519D02*
X83016666Y57465043D01*
X83016666Y57465043D02*
X83016666Y57726948D01*
X83016666Y57726948D02*
X83069047Y57936472D01*
X83069047Y57936472D02*
X83121428Y58041234D01*
X83121428Y58041234D02*
X83173809Y58093615D01*
X83173809Y58093615D02*
X83278571Y58145996D01*
X84011904Y57779329D02*
X84273809Y57045996D01*
X84273809Y57045996D02*
X84535714Y57779329D01*
X83592857Y54604120D02*
X83069047Y54604120D01*
X83069047Y54604120D02*
X83016666Y54080310D01*
X83016666Y54080310D02*
X83069047Y54132691D01*
X83069047Y54132691D02*
X83173809Y54185072D01*
X83173809Y54185072D02*
X83435714Y54185072D01*
X83435714Y54185072D02*
X83540476Y54132691D01*
X83540476Y54132691D02*
X83592857Y54080310D01*
X83592857Y54080310D02*
X83645238Y53975548D01*
X83645238Y53975548D02*
X83645238Y53713643D01*
X83645238Y53713643D02*
X83592857Y53608881D01*
X83592857Y53608881D02*
X83540476Y53556500D01*
X83540476Y53556500D02*
X83435714Y53504120D01*
X83435714Y53504120D02*
X83173809Y53504120D01*
X83173809Y53504120D02*
X83069047Y53556500D01*
X83069047Y53556500D02*
X83016666Y53608881D01*
X84011904Y54237453D02*
X84273809Y53504120D01*
X84273809Y53504120D02*
X84535714Y54237453D01*
X83121428Y49962244D02*
X83121428Y50695577D01*
X83121428Y50486053D02*
X83173809Y50590815D01*
X83173809Y50590815D02*
X83226190Y50643196D01*
X83226190Y50643196D02*
X83330952Y50695577D01*
X83330952Y50695577D02*
X83435714Y50695577D01*
X84169047Y50538434D02*
X84326190Y50486053D01*
X84326190Y50486053D02*
X84378571Y50433672D01*
X84378571Y50433672D02*
X84430952Y50328910D01*
X84430952Y50328910D02*
X84430952Y50171767D01*
X84430952Y50171767D02*
X84378571Y50067005D01*
X84378571Y50067005D02*
X84326190Y50014624D01*
X84326190Y50014624D02*
X84221428Y49962244D01*
X84221428Y49962244D02*
X83802380Y49962244D01*
X83802380Y49962244D02*
X83802380Y51062244D01*
X83802380Y51062244D02*
X84169047Y51062244D01*
X84169047Y51062244D02*
X84273809Y51009863D01*
X84273809Y51009863D02*
X84326190Y50957482D01*
X84326190Y50957482D02*
X84378571Y50852720D01*
X84378571Y50852720D02*
X84378571Y50747958D01*
X84378571Y50747958D02*
X84326190Y50643196D01*
X84326190Y50643196D02*
X84273809Y50590815D01*
X84273809Y50590815D02*
X84169047Y50538434D01*
X84169047Y50538434D02*
X83802380Y50538434D01*
X71317000Y25428572D02*
X71412238Y25714286D01*
X71412238Y25714286D02*
X71412238Y26190477D01*
X71412238Y26190477D02*
X71317000Y26380953D01*
X71317000Y26380953D02*
X71221761Y26476191D01*
X71221761Y26476191D02*
X71031285Y26571429D01*
X71031285Y26571429D02*
X70840809Y26571429D01*
X70840809Y26571429D02*
X70650333Y26476191D01*
X70650333Y26476191D02*
X70555095Y26380953D01*
X70555095Y26380953D02*
X70459857Y26190477D01*
X70459857Y26190477D02*
X70364619Y25809524D01*
X70364619Y25809524D02*
X70269380Y25619048D01*
X70269380Y25619048D02*
X70174142Y25523810D01*
X70174142Y25523810D02*
X69983666Y25428572D01*
X69983666Y25428572D02*
X69793190Y25428572D01*
X69793190Y25428572D02*
X69602714Y25523810D01*
X69602714Y25523810D02*
X69507476Y25619048D01*
X69507476Y25619048D02*
X69412238Y25809524D01*
X69412238Y25809524D02*
X69412238Y26285715D01*
X69412238Y26285715D02*
X69507476Y26571429D01*
X71412238Y27428572D02*
X69412238Y27428572D01*
X69412238Y27428572D02*
X69412238Y28190477D01*
X69412238Y28190477D02*
X69507476Y28380953D01*
X69507476Y28380953D02*
X69602714Y28476191D01*
X69602714Y28476191D02*
X69793190Y28571429D01*
X69793190Y28571429D02*
X70078904Y28571429D01*
X70078904Y28571429D02*
X70269380Y28476191D01*
X70269380Y28476191D02*
X70364619Y28380953D01*
X70364619Y28380953D02*
X70459857Y28190477D01*
X70459857Y28190477D02*
X70459857Y27428572D01*
X71412238Y29428572D02*
X69412238Y29428572D01*
X71412238Y30380953D02*
X69412238Y30380953D01*
X69412238Y30380953D02*
X71412238Y31523810D01*
X71412238Y31523810D02*
X69412238Y31523810D01*
X70840809Y32380953D02*
X70840809Y33333334D01*
X71412238Y32190477D02*
X69412238Y32857143D01*
X69412238Y32857143D02*
X71412238Y33523810D01*
X71412238Y35142858D02*
X71412238Y34190477D01*
X71412238Y34190477D02*
X69412238Y34190477D01*
X71221761Y38476192D02*
X71317000Y38380954D01*
X71317000Y38380954D02*
X71412238Y38095240D01*
X71412238Y38095240D02*
X71412238Y37904764D01*
X71412238Y37904764D02*
X71317000Y37619049D01*
X71317000Y37619049D02*
X71126523Y37428573D01*
X71126523Y37428573D02*
X70936047Y37333335D01*
X70936047Y37333335D02*
X70555095Y37238097D01*
X70555095Y37238097D02*
X70269380Y37238097D01*
X70269380Y37238097D02*
X69888428Y37333335D01*
X69888428Y37333335D02*
X69697952Y37428573D01*
X69697952Y37428573D02*
X69507476Y37619049D01*
X69507476Y37619049D02*
X69412238Y37904764D01*
X69412238Y37904764D02*
X69412238Y38095240D01*
X69412238Y38095240D02*
X69507476Y38380954D01*
X69507476Y38380954D02*
X69602714Y38476192D01*
X69412238Y39714287D02*
X69412238Y40095240D01*
X69412238Y40095240D02*
X69507476Y40285716D01*
X69507476Y40285716D02*
X69697952Y40476192D01*
X69697952Y40476192D02*
X70078904Y40571430D01*
X70078904Y40571430D02*
X70745571Y40571430D01*
X70745571Y40571430D02*
X71126523Y40476192D01*
X71126523Y40476192D02*
X71317000Y40285716D01*
X71317000Y40285716D02*
X71412238Y40095240D01*
X71412238Y40095240D02*
X71412238Y39714287D01*
X71412238Y39714287D02*
X71317000Y39523811D01*
X71317000Y39523811D02*
X71126523Y39333335D01*
X71126523Y39333335D02*
X70745571Y39238097D01*
X70745571Y39238097D02*
X70078904Y39238097D01*
X70078904Y39238097D02*
X69697952Y39333335D01*
X69697952Y39333335D02*
X69507476Y39523811D01*
X69507476Y39523811D02*
X69412238Y39714287D01*
X71412238Y42571430D02*
X70459857Y41904763D01*
X71412238Y41428573D02*
X69412238Y41428573D01*
X69412238Y41428573D02*
X69412238Y42190478D01*
X69412238Y42190478D02*
X69507476Y42380954D01*
X69507476Y42380954D02*
X69602714Y42476192D01*
X69602714Y42476192D02*
X69793190Y42571430D01*
X69793190Y42571430D02*
X70078904Y42571430D01*
X70078904Y42571430D02*
X70269380Y42476192D01*
X70269380Y42476192D02*
X70364619Y42380954D01*
X70364619Y42380954D02*
X70459857Y42190478D01*
X70459857Y42190478D02*
X70459857Y41428573D01*
X71412238Y43428573D02*
X69412238Y43428573D01*
X69412238Y43428573D02*
X69412238Y43904763D01*
X69412238Y43904763D02*
X69507476Y44190478D01*
X69507476Y44190478D02*
X69697952Y44380954D01*
X69697952Y44380954D02*
X69888428Y44476192D01*
X69888428Y44476192D02*
X70269380Y44571430D01*
X70269380Y44571430D02*
X70555095Y44571430D01*
X70555095Y44571430D02*
X70936047Y44476192D01*
X70936047Y44476192D02*
X71126523Y44380954D01*
X71126523Y44380954D02*
X71317000Y44190478D01*
X71317000Y44190478D02*
X71412238Y43904763D01*
X71412238Y43904763D02*
X71412238Y43428573D01*
X-70971429Y58145996D02*
X-70866667Y58145996D01*
X-70866667Y58145996D02*
X-70761905Y58093615D01*
X-70761905Y58093615D02*
X-70709524Y58041234D01*
X-70709524Y58041234D02*
X-70657143Y57936472D01*
X-70657143Y57936472D02*
X-70604762Y57726948D01*
X-70604762Y57726948D02*
X-70604762Y57465043D01*
X-70604762Y57465043D02*
X-70657143Y57255519D01*
X-70657143Y57255519D02*
X-70709524Y57150757D01*
X-70709524Y57150757D02*
X-70761905Y57098376D01*
X-70761905Y57098376D02*
X-70866667Y57045996D01*
X-70866667Y57045996D02*
X-70971429Y57045996D01*
X-70971429Y57045996D02*
X-71076191Y57098376D01*
X-71076191Y57098376D02*
X-71128572Y57150757D01*
X-71128572Y57150757D02*
X-71180953Y57255519D01*
X-71180953Y57255519D02*
X-71233334Y57465043D01*
X-71233334Y57465043D02*
X-71233334Y57726948D01*
X-71233334Y57726948D02*
X-71180953Y57936472D01*
X-71180953Y57936472D02*
X-71128572Y58041234D01*
X-71128572Y58041234D02*
X-71076191Y58093615D01*
X-71076191Y58093615D02*
X-70971429Y58145996D01*
X-70238096Y57779329D02*
X-69976191Y57045996D01*
X-69976191Y57045996D02*
X-69714286Y57779329D01*
X-70657143Y54604120D02*
X-71180953Y54604120D01*
X-71180953Y54604120D02*
X-71233334Y54080310D01*
X-71233334Y54080310D02*
X-71180953Y54132691D01*
X-71180953Y54132691D02*
X-71076191Y54185072D01*
X-71076191Y54185072D02*
X-70814286Y54185072D01*
X-70814286Y54185072D02*
X-70709524Y54132691D01*
X-70709524Y54132691D02*
X-70657143Y54080310D01*
X-70657143Y54080310D02*
X-70604762Y53975548D01*
X-70604762Y53975548D02*
X-70604762Y53713643D01*
X-70604762Y53713643D02*
X-70657143Y53608881D01*
X-70657143Y53608881D02*
X-70709524Y53556500D01*
X-70709524Y53556500D02*
X-70814286Y53504120D01*
X-70814286Y53504120D02*
X-71076191Y53504120D01*
X-71076191Y53504120D02*
X-71180953Y53556500D01*
X-71180953Y53556500D02*
X-71233334Y53608881D01*
X-70238096Y54237453D02*
X-69976191Y53504120D01*
X-69976191Y53504120D02*
X-69714286Y54237453D01*
X-70919048Y49962244D02*
X-71023810Y50014624D01*
X-71023810Y50014624D02*
X-71076191Y50119386D01*
X-71076191Y50119386D02*
X-71076191Y51062244D01*
X-70133334Y50538434D02*
X-69976191Y50486053D01*
X-69976191Y50486053D02*
X-69923810Y50433672D01*
X-69923810Y50433672D02*
X-69871429Y50328910D01*
X-69871429Y50328910D02*
X-69871429Y50171767D01*
X-69871429Y50171767D02*
X-69923810Y50067005D01*
X-69923810Y50067005D02*
X-69976191Y50014624D01*
X-69976191Y50014624D02*
X-70080953Y49962244D01*
X-70080953Y49962244D02*
X-70500001Y49962244D01*
X-70500001Y49962244D02*
X-70500001Y51062244D01*
X-70500001Y51062244D02*
X-70133334Y51062244D01*
X-70133334Y51062244D02*
X-70028572Y51009863D01*
X-70028572Y51009863D02*
X-69976191Y50957482D01*
X-69976191Y50957482D02*
X-69923810Y50852720D01*
X-69923810Y50852720D02*
X-69923810Y50747958D01*
X-69923810Y50747958D02*
X-69976191Y50643196D01*
X-69976191Y50643196D02*
X-70028572Y50590815D01*
X-70028572Y50590815D02*
X-70133334Y50538434D01*
X-70133334Y50538434D02*
X-70500001Y50538434D01*
X-7047619Y173135381D02*
X-7714286Y173135381D01*
X-7714286Y172087762D02*
X-7714286Y174087762D01*
X-7714286Y174087762D02*
X-6761905Y174087762D01*
X-5619048Y174087762D02*
X-5238095Y174087762D01*
X-5238095Y174087762D02*
X-5047619Y173992524D01*
X-5047619Y173992524D02*
X-4857143Y173802048D01*
X-4857143Y173802048D02*
X-4761905Y173421096D01*
X-4761905Y173421096D02*
X-4761905Y172754429D01*
X-4761905Y172754429D02*
X-4857143Y172373477D01*
X-4857143Y172373477D02*
X-5047619Y172183000D01*
X-5047619Y172183000D02*
X-5238095Y172087762D01*
X-5238095Y172087762D02*
X-5619048Y172087762D01*
X-5619048Y172087762D02*
X-5809524Y172183000D01*
X-5809524Y172183000D02*
X-6000000Y172373477D01*
X-6000000Y172373477D02*
X-6095238Y172754429D01*
X-6095238Y172754429D02*
X-6095238Y173421096D01*
X-6095238Y173421096D02*
X-6000000Y173802048D01*
X-6000000Y173802048D02*
X-5809524Y173992524D01*
X-5809524Y173992524D02*
X-5619048Y174087762D01*
X-2761905Y172087762D02*
X-3428572Y173040143D01*
X-3904762Y172087762D02*
X-3904762Y174087762D01*
X-3904762Y174087762D02*
X-3142857Y174087762D01*
X-3142857Y174087762D02*
X-2952381Y173992524D01*
X-2952381Y173992524D02*
X-2857143Y173897286D01*
X-2857143Y173897286D02*
X-2761905Y173706810D01*
X-2761905Y173706810D02*
X-2761905Y173421096D01*
X-2761905Y173421096D02*
X-2857143Y173230620D01*
X-2857143Y173230620D02*
X-2952381Y173135381D01*
X-2952381Y173135381D02*
X-3142857Y173040143D01*
X-3142857Y173040143D02*
X-3904762Y173040143D01*
X-1904762Y173135381D02*
X-1238095Y173135381D01*
X-952381Y172087762D02*
X-1904762Y172087762D01*
X-1904762Y172087762D02*
X-1904762Y174087762D01*
X-1904762Y174087762D02*
X-952381Y174087762D01*
X571429Y173135381D02*
X857143Y173040143D01*
X857143Y173040143D02*
X952381Y172944905D01*
X952381Y172944905D02*
X1047619Y172754429D01*
X1047619Y172754429D02*
X1047619Y172468715D01*
X1047619Y172468715D02*
X952381Y172278239D01*
X952381Y172278239D02*
X857143Y172183000D01*
X857143Y172183000D02*
X666667Y172087762D01*
X666667Y172087762D02*
X-95238Y172087762D01*
X-95238Y172087762D02*
X-95238Y174087762D01*
X-95238Y174087762D02*
X571429Y174087762D01*
X571429Y174087762D02*
X761905Y173992524D01*
X761905Y173992524D02*
X857143Y173897286D01*
X857143Y173897286D02*
X952381Y173706810D01*
X952381Y173706810D02*
X952381Y173516334D01*
X952381Y173516334D02*
X857143Y173325858D01*
X857143Y173325858D02*
X761905Y173230620D01*
X761905Y173230620D02*
X571429Y173135381D01*
X571429Y173135381D02*
X-95238Y173135381D01*
X3047619Y172087762D02*
X2380952Y173040143D01*
X1904762Y172087762D02*
X1904762Y174087762D01*
X1904762Y174087762D02*
X2666667Y174087762D01*
X2666667Y174087762D02*
X2857143Y173992524D01*
X2857143Y173992524D02*
X2952381Y173897286D01*
X2952381Y173897286D02*
X3047619Y173706810D01*
X3047619Y173706810D02*
X3047619Y173421096D01*
X3047619Y173421096D02*
X2952381Y173230620D01*
X2952381Y173230620D02*
X2857143Y173135381D01*
X2857143Y173135381D02*
X2666667Y173040143D01*
X2666667Y173040143D02*
X1904762Y173040143D01*
X3809524Y172659191D02*
X4761905Y172659191D01*
X3619048Y172087762D02*
X4285714Y174087762D01*
X4285714Y174087762D02*
X4952381Y172087762D01*
X5619048Y172087762D02*
X5619048Y174087762D01*
X6571429Y172087762D02*
X6571429Y174087762D01*
X6571429Y174087762D02*
X7714286Y172087762D01*
X7714286Y172087762D02*
X7714286Y174087762D01*
X-4571429Y182187762D02*
X-4571429Y184187762D01*
X-4571429Y184187762D02*
X-3904762Y182759191D01*
X-3904762Y182759191D02*
X-3238096Y184187762D01*
X-3238096Y184187762D02*
X-3238096Y182187762D01*
X-1904763Y184187762D02*
X-1523810Y184187762D01*
X-1523810Y184187762D02*
X-1333334Y184092524D01*
X-1333334Y184092524D02*
X-1142858Y183902048D01*
X-1142858Y183902048D02*
X-1047620Y183521096D01*
X-1047620Y183521096D02*
X-1047620Y182854429D01*
X-1047620Y182854429D02*
X-1142858Y182473477D01*
X-1142858Y182473477D02*
X-1333334Y182283000D01*
X-1333334Y182283000D02*
X-1523810Y182187762D01*
X-1523810Y182187762D02*
X-1904763Y182187762D01*
X-1904763Y182187762D02*
X-2095239Y182283000D01*
X-2095239Y182283000D02*
X-2285715Y182473477D01*
X-2285715Y182473477D02*
X-2380953Y182854429D01*
X-2380953Y182854429D02*
X-2380953Y183521096D01*
X-2380953Y183521096D02*
X-2285715Y183902048D01*
X-2285715Y183902048D02*
X-2095239Y184092524D01*
X-2095239Y184092524D02*
X-1904763Y184187762D01*
X-190477Y184187762D02*
X-190477Y182568715D01*
X-190477Y182568715D02*
X-95239Y182378239D01*
X-95239Y182378239D02*
X-1Y182283000D01*
X-1Y182283000D02*
X190475Y182187762D01*
X190475Y182187762D02*
X571428Y182187762D01*
X571428Y182187762D02*
X761904Y182283000D01*
X761904Y182283000D02*
X857142Y182378239D01*
X857142Y182378239D02*
X952380Y182568715D01*
X952380Y182568715D02*
X952380Y184187762D01*
X1619047Y184187762D02*
X2761904Y184187762D01*
X2190475Y182187762D02*
X2190475Y184187762D01*
X3428571Y182187762D02*
X3428571Y184187762D01*
X3428571Y183235381D02*
X4571428Y183235381D01*
X4571428Y182187762D02*
X4571428Y184187762D01*
X-69683000Y25428572D02*
X-69587762Y25714286D01*
X-69587762Y25714286D02*
X-69587762Y26190477D01*
X-69587762Y26190477D02*
X-69683000Y26380953D01*
X-69683000Y26380953D02*
X-69778239Y26476191D01*
X-69778239Y26476191D02*
X-69968715Y26571429D01*
X-69968715Y26571429D02*
X-70159191Y26571429D01*
X-70159191Y26571429D02*
X-70349667Y26476191D01*
X-70349667Y26476191D02*
X-70444905Y26380953D01*
X-70444905Y26380953D02*
X-70540143Y26190477D01*
X-70540143Y26190477D02*
X-70635381Y25809524D01*
X-70635381Y25809524D02*
X-70730620Y25619048D01*
X-70730620Y25619048D02*
X-70825858Y25523810D01*
X-70825858Y25523810D02*
X-71016334Y25428572D01*
X-71016334Y25428572D02*
X-71206810Y25428572D01*
X-71206810Y25428572D02*
X-71397286Y25523810D01*
X-71397286Y25523810D02*
X-71492524Y25619048D01*
X-71492524Y25619048D02*
X-71587762Y25809524D01*
X-71587762Y25809524D02*
X-71587762Y26285715D01*
X-71587762Y26285715D02*
X-71492524Y26571429D01*
X-69587762Y27428572D02*
X-71587762Y27428572D01*
X-71587762Y27428572D02*
X-71587762Y28190477D01*
X-71587762Y28190477D02*
X-71492524Y28380953D01*
X-71492524Y28380953D02*
X-71397286Y28476191D01*
X-71397286Y28476191D02*
X-71206810Y28571429D01*
X-71206810Y28571429D02*
X-70921096Y28571429D01*
X-70921096Y28571429D02*
X-70730620Y28476191D01*
X-70730620Y28476191D02*
X-70635381Y28380953D01*
X-70635381Y28380953D02*
X-70540143Y28190477D01*
X-70540143Y28190477D02*
X-70540143Y27428572D01*
X-69587762Y29428572D02*
X-71587762Y29428572D01*
X-69587762Y30380953D02*
X-71587762Y30380953D01*
X-71587762Y30380953D02*
X-69587762Y31523810D01*
X-69587762Y31523810D02*
X-71587762Y31523810D01*
X-70159191Y32380953D02*
X-70159191Y33333334D01*
X-69587762Y32190477D02*
X-71587762Y32857143D01*
X-71587762Y32857143D02*
X-69587762Y33523810D01*
X-69587762Y35142858D02*
X-69587762Y34190477D01*
X-69587762Y34190477D02*
X-71587762Y34190477D01*
X-69778239Y38476192D02*
X-69683000Y38380954D01*
X-69683000Y38380954D02*
X-69587762Y38095240D01*
X-69587762Y38095240D02*
X-69587762Y37904764D01*
X-69587762Y37904764D02*
X-69683000Y37619049D01*
X-69683000Y37619049D02*
X-69873477Y37428573D01*
X-69873477Y37428573D02*
X-70063953Y37333335D01*
X-70063953Y37333335D02*
X-70444905Y37238097D01*
X-70444905Y37238097D02*
X-70730620Y37238097D01*
X-70730620Y37238097D02*
X-71111572Y37333335D01*
X-71111572Y37333335D02*
X-71302048Y37428573D01*
X-71302048Y37428573D02*
X-71492524Y37619049D01*
X-71492524Y37619049D02*
X-71587762Y37904764D01*
X-71587762Y37904764D02*
X-71587762Y38095240D01*
X-71587762Y38095240D02*
X-71492524Y38380954D01*
X-71492524Y38380954D02*
X-71397286Y38476192D01*
X-71587762Y39714287D02*
X-71587762Y40095240D01*
X-71587762Y40095240D02*
X-71492524Y40285716D01*
X-71492524Y40285716D02*
X-71302048Y40476192D01*
X-71302048Y40476192D02*
X-70921096Y40571430D01*
X-70921096Y40571430D02*
X-70254429Y40571430D01*
X-70254429Y40571430D02*
X-69873477Y40476192D01*
X-69873477Y40476192D02*
X-69683000Y40285716D01*
X-69683000Y40285716D02*
X-69587762Y40095240D01*
X-69587762Y40095240D02*
X-69587762Y39714287D01*
X-69587762Y39714287D02*
X-69683000Y39523811D01*
X-69683000Y39523811D02*
X-69873477Y39333335D01*
X-69873477Y39333335D02*
X-70254429Y39238097D01*
X-70254429Y39238097D02*
X-70921096Y39238097D01*
X-70921096Y39238097D02*
X-71302048Y39333335D01*
X-71302048Y39333335D02*
X-71492524Y39523811D01*
X-71492524Y39523811D02*
X-71587762Y39714287D01*
X-69587762Y42571430D02*
X-70540143Y41904763D01*
X-69587762Y41428573D02*
X-71587762Y41428573D01*
X-71587762Y41428573D02*
X-71587762Y42190478D01*
X-71587762Y42190478D02*
X-71492524Y42380954D01*
X-71492524Y42380954D02*
X-71397286Y42476192D01*
X-71397286Y42476192D02*
X-71206810Y42571430D01*
X-71206810Y42571430D02*
X-70921096Y42571430D01*
X-70921096Y42571430D02*
X-70730620Y42476192D01*
X-70730620Y42476192D02*
X-70635381Y42380954D01*
X-70635381Y42380954D02*
X-70540143Y42190478D01*
X-70540143Y42190478D02*
X-70540143Y41428573D01*
X-69587762Y43428573D02*
X-71587762Y43428573D01*
X-71587762Y43428573D02*
X-71587762Y43904763D01*
X-71587762Y43904763D02*
X-71492524Y44190478D01*
X-71492524Y44190478D02*
X-71302048Y44380954D01*
X-71302048Y44380954D02*
X-71111572Y44476192D01*
X-71111572Y44476192D02*
X-70730620Y44571430D01*
X-70730620Y44571430D02*
X-70444905Y44571430D01*
X-70444905Y44571430D02*
X-70063953Y44476192D01*
X-70063953Y44476192D02*
X-69873477Y44380954D01*
X-69873477Y44380954D02*
X-69683000Y44190478D01*
X-69683000Y44190478D02*
X-69587762Y43904763D01*
X-69587762Y43904763D02*
X-69587762Y43428573D01*
X48933335Y64125058D02*
X48409525Y64125058D01*
X48409525Y64125058D02*
X48357144Y63601248D01*
X48357144Y63601248D02*
X48409525Y63653629D01*
X48409525Y63653629D02*
X48514287Y63706010D01*
X48514287Y63706010D02*
X48776192Y63706010D01*
X48776192Y63706010D02*
X48880954Y63653629D01*
X48880954Y63653629D02*
X48933335Y63601248D01*
X48933335Y63601248D02*
X48985716Y63496486D01*
X48985716Y63496486D02*
X48985716Y63234581D01*
X48985716Y63234581D02*
X48933335Y63129819D01*
X48933335Y63129819D02*
X48880954Y63077438D01*
X48880954Y63077438D02*
X48776192Y63025058D01*
X48776192Y63025058D02*
X48514287Y63025058D01*
X48514287Y63025058D02*
X48409525Y63077438D01*
X48409525Y63077438D02*
X48357144Y63129819D01*
X49352382Y63758391D02*
X49614287Y63025058D01*
X49614287Y63025058D02*
X49876192Y63758391D01*
X51133334Y63025058D02*
X51133334Y63758391D01*
X51133334Y63548867D02*
X51185715Y63653629D01*
X51185715Y63653629D02*
X51238096Y63706010D01*
X51238096Y63706010D02*
X51342858Y63758391D01*
X51342858Y63758391D02*
X51447620Y63758391D01*
X51761905Y63339343D02*
X52285715Y63339343D01*
X51657143Y63025058D02*
X52023810Y64125058D01*
X52023810Y64125058D02*
X52390477Y63025058D01*
X53595238Y63025058D02*
X53595238Y63758391D01*
X53595238Y63548867D02*
X53647619Y63653629D01*
X53647619Y63653629D02*
X53700000Y63706010D01*
X53700000Y63706010D02*
X53804762Y63758391D01*
X53804762Y63758391D02*
X53909524Y63758391D01*
X54642857Y63601248D02*
X54800000Y63548867D01*
X54800000Y63548867D02*
X54852381Y63496486D01*
X54852381Y63496486D02*
X54904762Y63391724D01*
X54904762Y63391724D02*
X54904762Y63234581D01*
X54904762Y63234581D02*
X54852381Y63129819D01*
X54852381Y63129819D02*
X54800000Y63077438D01*
X54800000Y63077438D02*
X54695238Y63025058D01*
X54695238Y63025058D02*
X54276190Y63025058D01*
X54276190Y63025058D02*
X54276190Y64125058D01*
X54276190Y64125058D02*
X54642857Y64125058D01*
X54642857Y64125058D02*
X54747619Y64072677D01*
X54747619Y64072677D02*
X54800000Y64020296D01*
X54800000Y64020296D02*
X54852381Y63915534D01*
X54852381Y63915534D02*
X54852381Y63810772D01*
X54852381Y63810772D02*
X54800000Y63706010D01*
X54800000Y63706010D02*
X54747619Y63653629D01*
X54747619Y63653629D02*
X54642857Y63601248D01*
X54642857Y63601248D02*
X54276190Y63601248D01*
X56214285Y63025058D02*
X56214285Y63758391D01*
X56214285Y63548867D02*
X56266666Y63653629D01*
X56266666Y63653629D02*
X56319047Y63706010D01*
X56319047Y63706010D02*
X56423809Y63758391D01*
X56423809Y63758391D02*
X56528571Y63758391D01*
X57523809Y63129819D02*
X57471428Y63077438D01*
X57471428Y63077438D02*
X57314285Y63025058D01*
X57314285Y63025058D02*
X57209523Y63025058D01*
X57209523Y63025058D02*
X57052380Y63077438D01*
X57052380Y63077438D02*
X56947618Y63182200D01*
X56947618Y63182200D02*
X56895237Y63286962D01*
X56895237Y63286962D02*
X56842856Y63496486D01*
X56842856Y63496486D02*
X56842856Y63653629D01*
X56842856Y63653629D02*
X56895237Y63863153D01*
X56895237Y63863153D02*
X56947618Y63967915D01*
X56947618Y63967915D02*
X57052380Y64072677D01*
X57052380Y64072677D02*
X57209523Y64125058D01*
X57209523Y64125058D02*
X57314285Y64125058D01*
X57314285Y64125058D02*
X57471428Y64072677D01*
X57471428Y64072677D02*
X57523809Y64020296D01*
X58833332Y63025058D02*
X58833332Y63758391D01*
X58833332Y63548867D02*
X58885713Y63653629D01*
X58885713Y63653629D02*
X58938094Y63706010D01*
X58938094Y63706010D02*
X59042856Y63758391D01*
X59042856Y63758391D02*
X59147618Y63758391D01*
X59514284Y63025058D02*
X59514284Y64125058D01*
X59514284Y64125058D02*
X59776189Y64125058D01*
X59776189Y64125058D02*
X59933332Y64072677D01*
X59933332Y64072677D02*
X60038094Y63967915D01*
X60038094Y63967915D02*
X60090475Y63863153D01*
X60090475Y63863153D02*
X60142856Y63653629D01*
X60142856Y63653629D02*
X60142856Y63496486D01*
X60142856Y63496486D02*
X60090475Y63286962D01*
X60090475Y63286962D02*
X60038094Y63182200D01*
X60038094Y63182200D02*
X59933332Y63077438D01*
X59933332Y63077438D02*
X59776189Y63025058D01*
X59776189Y63025058D02*
X59514284Y63025058D01*
X48645239Y60583182D02*
X48750001Y60583182D01*
X48750001Y60583182D02*
X48854763Y60530801D01*
X48854763Y60530801D02*
X48907144Y60478420D01*
X48907144Y60478420D02*
X48959525Y60373658D01*
X48959525Y60373658D02*
X49011906Y60164134D01*
X49011906Y60164134D02*
X49011906Y59902229D01*
X49011906Y59902229D02*
X48959525Y59692705D01*
X48959525Y59692705D02*
X48907144Y59587943D01*
X48907144Y59587943D02*
X48854763Y59535562D01*
X48854763Y59535562D02*
X48750001Y59483182D01*
X48750001Y59483182D02*
X48645239Y59483182D01*
X48645239Y59483182D02*
X48540477Y59535562D01*
X48540477Y59535562D02*
X48488096Y59587943D01*
X48488096Y59587943D02*
X48435715Y59692705D01*
X48435715Y59692705D02*
X48383334Y59902229D01*
X48383334Y59902229D02*
X48383334Y60164134D01*
X48383334Y60164134D02*
X48435715Y60373658D01*
X48435715Y60373658D02*
X48488096Y60478420D01*
X48488096Y60478420D02*
X48540477Y60530801D01*
X48540477Y60530801D02*
X48645239Y60583182D01*
X49378572Y60216515D02*
X49640477Y59483182D01*
X49640477Y59483182D02*
X49902382Y60216515D01*
X51159524Y59483182D02*
X51159524Y60216515D01*
X51159524Y60006991D02*
X51211905Y60111753D01*
X51211905Y60111753D02*
X51264286Y60164134D01*
X51264286Y60164134D02*
X51369048Y60216515D01*
X51369048Y60216515D02*
X51473810Y60216515D01*
X51840476Y60059372D02*
X52207143Y60059372D01*
X52364286Y59483182D02*
X51840476Y59483182D01*
X51840476Y59483182D02*
X51840476Y60583182D01*
X51840476Y60583182D02*
X52364286Y60583182D01*
X53673809Y59483182D02*
X53673809Y60216515D01*
X53673809Y60006991D02*
X53726190Y60111753D01*
X53726190Y60111753D02*
X53778571Y60164134D01*
X53778571Y60164134D02*
X53883333Y60216515D01*
X53883333Y60216515D02*
X53988095Y60216515D01*
X54721428Y60059372D02*
X54354761Y60059372D01*
X54354761Y59483182D02*
X54354761Y60583182D01*
X54354761Y60583182D02*
X54878571Y60583182D01*
X56135713Y59483182D02*
X56135713Y60216515D01*
X56135713Y60006991D02*
X56188094Y60111753D01*
X56188094Y60111753D02*
X56240475Y60164134D01*
X56240475Y60164134D02*
X56345237Y60216515D01*
X56345237Y60216515D02*
X56449999Y60216515D01*
X57392856Y60530801D02*
X57288094Y60583182D01*
X57288094Y60583182D02*
X57130951Y60583182D01*
X57130951Y60583182D02*
X56973808Y60530801D01*
X56973808Y60530801D02*
X56869046Y60426039D01*
X56869046Y60426039D02*
X56816665Y60321277D01*
X56816665Y60321277D02*
X56764284Y60111753D01*
X56764284Y60111753D02*
X56764284Y59954610D01*
X56764284Y59954610D02*
X56816665Y59745086D01*
X56816665Y59745086D02*
X56869046Y59640324D01*
X56869046Y59640324D02*
X56973808Y59535562D01*
X56973808Y59535562D02*
X57130951Y59483182D01*
X57130951Y59483182D02*
X57235713Y59483182D01*
X57235713Y59483182D02*
X57392856Y59535562D01*
X57392856Y59535562D02*
X57445237Y59587943D01*
X57445237Y59587943D02*
X57445237Y59954610D01*
X57445237Y59954610D02*
X57235713Y59954610D01*
X58754760Y59483182D02*
X58754760Y60216515D01*
X58754760Y60006991D02*
X58807141Y60111753D01*
X58807141Y60111753D02*
X58859522Y60164134D01*
X58859522Y60164134D02*
X58964284Y60216515D01*
X58964284Y60216515D02*
X59069046Y60216515D01*
X59435712Y59483182D02*
X59435712Y60583182D01*
X59435712Y60059372D02*
X60064284Y60059372D01*
X60064284Y59483182D02*
X60064284Y60583182D01*
X69778571Y58145996D02*
X69883333Y58145996D01*
X69883333Y58145996D02*
X69988095Y58093615D01*
X69988095Y58093615D02*
X70040476Y58041234D01*
X70040476Y58041234D02*
X70092857Y57936472D01*
X70092857Y57936472D02*
X70145238Y57726948D01*
X70145238Y57726948D02*
X70145238Y57465043D01*
X70145238Y57465043D02*
X70092857Y57255519D01*
X70092857Y57255519D02*
X70040476Y57150757D01*
X70040476Y57150757D02*
X69988095Y57098376D01*
X69988095Y57098376D02*
X69883333Y57045996D01*
X69883333Y57045996D02*
X69778571Y57045996D01*
X69778571Y57045996D02*
X69673809Y57098376D01*
X69673809Y57098376D02*
X69621428Y57150757D01*
X69621428Y57150757D02*
X69569047Y57255519D01*
X69569047Y57255519D02*
X69516666Y57465043D01*
X69516666Y57465043D02*
X69516666Y57726948D01*
X69516666Y57726948D02*
X69569047Y57936472D01*
X69569047Y57936472D02*
X69621428Y58041234D01*
X69621428Y58041234D02*
X69673809Y58093615D01*
X69673809Y58093615D02*
X69778571Y58145996D01*
X70511904Y57779329D02*
X70773809Y57045996D01*
X70773809Y57045996D02*
X71035714Y57779329D01*
X70092857Y54604120D02*
X69569047Y54604120D01*
X69569047Y54604120D02*
X69516666Y54080310D01*
X69516666Y54080310D02*
X69569047Y54132691D01*
X69569047Y54132691D02*
X69673809Y54185072D01*
X69673809Y54185072D02*
X69935714Y54185072D01*
X69935714Y54185072D02*
X70040476Y54132691D01*
X70040476Y54132691D02*
X70092857Y54080310D01*
X70092857Y54080310D02*
X70145238Y53975548D01*
X70145238Y53975548D02*
X70145238Y53713643D01*
X70145238Y53713643D02*
X70092857Y53608881D01*
X70092857Y53608881D02*
X70040476Y53556500D01*
X70040476Y53556500D02*
X69935714Y53504120D01*
X69935714Y53504120D02*
X69673809Y53504120D01*
X69673809Y53504120D02*
X69569047Y53556500D01*
X69569047Y53556500D02*
X69516666Y53608881D01*
X70511904Y54237453D02*
X70773809Y53504120D01*
X70773809Y53504120D02*
X71035714Y54237453D01*
X69700000Y49962244D02*
X69700000Y50695577D01*
X69700000Y50486053D02*
X69752381Y50590815D01*
X69752381Y50590815D02*
X69804762Y50643196D01*
X69804762Y50643196D02*
X69909524Y50695577D01*
X69909524Y50695577D02*
X70014286Y50695577D01*
X70328571Y50276529D02*
X70852381Y50276529D01*
X70223809Y49962244D02*
X70590476Y51062244D01*
X70590476Y51062244D02*
X70957143Y49962244D01*
X79714285Y93135381D02*
X80380952Y93135381D01*
X80666666Y92087762D02*
X79714285Y92087762D01*
X79714285Y92087762D02*
X79714285Y94087762D01*
X79714285Y94087762D02*
X80666666Y94087762D01*
X81428571Y92659191D02*
X82380952Y92659191D01*
X81238095Y92087762D02*
X81904761Y94087762D01*
X81904761Y94087762D02*
X82571428Y92087762D01*
X84380952Y92087762D02*
X83714285Y93040143D01*
X83238095Y92087762D02*
X83238095Y94087762D01*
X83238095Y94087762D02*
X84000000Y94087762D01*
X84000000Y94087762D02*
X84190476Y93992524D01*
X84190476Y93992524D02*
X84285714Y93897286D01*
X84285714Y93897286D02*
X84380952Y93706810D01*
X84380952Y93706810D02*
X84380952Y93421096D01*
X84380952Y93421096D02*
X84285714Y93230620D01*
X84285714Y93230620D02*
X84190476Y93135381D01*
X84190476Y93135381D02*
X84000000Y93040143D01*
X84000000Y93040143D02*
X83238095Y93040143D01*
X-96333334Y17087762D02*
X-96333334Y19087762D01*
X-96333334Y19087762D02*
X-95666667Y17659191D01*
X-95666667Y17659191D02*
X-95000001Y19087762D01*
X-95000001Y19087762D02*
X-95000001Y17087762D01*
X-94047620Y19087762D02*
X-94047620Y17468715D01*
X-94047620Y17468715D02*
X-93952382Y17278239D01*
X-93952382Y17278239D02*
X-93857144Y17183000D01*
X-93857144Y17183000D02*
X-93666668Y17087762D01*
X-93666668Y17087762D02*
X-93285715Y17087762D01*
X-93285715Y17087762D02*
X-93095239Y17183000D01*
X-93095239Y17183000D02*
X-93000001Y17278239D01*
X-93000001Y17278239D02*
X-92904763Y17468715D01*
X-92904763Y17468715D02*
X-92904763Y19087762D01*
X-92047620Y17183000D02*
X-91761906Y17087762D01*
X-91761906Y17087762D02*
X-91285715Y17087762D01*
X-91285715Y17087762D02*
X-91095239Y17183000D01*
X-91095239Y17183000D02*
X-91000001Y17278239D01*
X-91000001Y17278239D02*
X-90904763Y17468715D01*
X-90904763Y17468715D02*
X-90904763Y17659191D01*
X-90904763Y17659191D02*
X-91000001Y17849667D01*
X-91000001Y17849667D02*
X-91095239Y17944905D01*
X-91095239Y17944905D02*
X-91285715Y18040143D01*
X-91285715Y18040143D02*
X-91666668Y18135381D01*
X-91666668Y18135381D02*
X-91857144Y18230620D01*
X-91857144Y18230620D02*
X-91952382Y18325858D01*
X-91952382Y18325858D02*
X-92047620Y18516334D01*
X-92047620Y18516334D02*
X-92047620Y18706810D01*
X-92047620Y18706810D02*
X-91952382Y18897286D01*
X-91952382Y18897286D02*
X-91857144Y18992524D01*
X-91857144Y18992524D02*
X-91666668Y19087762D01*
X-91666668Y19087762D02*
X-91190477Y19087762D01*
X-91190477Y19087762D02*
X-90904763Y18992524D01*
X-88904763Y17278239D02*
X-89000001Y17183000D01*
X-89000001Y17183000D02*
X-89285715Y17087762D01*
X-89285715Y17087762D02*
X-89476191Y17087762D01*
X-89476191Y17087762D02*
X-89761906Y17183000D01*
X-89761906Y17183000D02*
X-89952382Y17373477D01*
X-89952382Y17373477D02*
X-90047620Y17563953D01*
X-90047620Y17563953D02*
X-90142858Y17944905D01*
X-90142858Y17944905D02*
X-90142858Y18230620D01*
X-90142858Y18230620D02*
X-90047620Y18611572D01*
X-90047620Y18611572D02*
X-89952382Y18802048D01*
X-89952382Y18802048D02*
X-89761906Y18992524D01*
X-89761906Y18992524D02*
X-89476191Y19087762D01*
X-89476191Y19087762D02*
X-89285715Y19087762D01*
X-89285715Y19087762D02*
X-89000001Y18992524D01*
X-89000001Y18992524D02*
X-88904763Y18897286D01*
X-87095239Y17087762D02*
X-88047620Y17087762D01*
X-88047620Y17087762D02*
X-88047620Y19087762D01*
X-86428572Y18135381D02*
X-85761905Y18135381D01*
X-85476191Y17087762D02*
X-86428572Y17087762D01*
X-86428572Y17087762D02*
X-86428572Y19087762D01*
X-86428572Y19087762D02*
X-85476191Y19087762D01*
X-84714286Y17183000D02*
X-84428572Y17087762D01*
X-84428572Y17087762D02*
X-83952381Y17087762D01*
X-83952381Y17087762D02*
X-83761905Y17183000D01*
X-83761905Y17183000D02*
X-83666667Y17278239D01*
X-83666667Y17278239D02*
X-83571429Y17468715D01*
X-83571429Y17468715D02*
X-83571429Y17659191D01*
X-83571429Y17659191D02*
X-83666667Y17849667D01*
X-83666667Y17849667D02*
X-83761905Y17944905D01*
X-83761905Y17944905D02*
X-83952381Y18040143D01*
X-83952381Y18040143D02*
X-84333334Y18135381D01*
X-84333334Y18135381D02*
X-84523810Y18230620D01*
X-84523810Y18230620D02*
X-84619048Y18325858D01*
X-84619048Y18325858D02*
X-84714286Y18516334D01*
X-84714286Y18516334D02*
X-84714286Y18706810D01*
X-84714286Y18706810D02*
X-84619048Y18897286D01*
X-84619048Y18897286D02*
X-84523810Y18992524D01*
X-84523810Y18992524D02*
X-84333334Y19087762D01*
X-84333334Y19087762D02*
X-83857143Y19087762D01*
X-83857143Y19087762D02*
X-83571429Y18992524D01*
D13*
X43868990Y164063221D02*
X43868990Y163729888D01*
X43345180Y163587031D02*
X43345180Y164063221D01*
X43345180Y164063221D02*
X44345180Y164063221D01*
X44345180Y164063221D02*
X44345180Y163587031D01*
X43345180Y163158459D02*
X44345180Y163158459D01*
X44345180Y163158459D02*
X43345180Y162587031D01*
X43345180Y162587031D02*
X44345180Y162587031D01*
D14*
X1061905Y147854120D02*
X1166667Y147854120D01*
X1166667Y147854120D02*
X1271429Y147801739D01*
X1271429Y147801739D02*
X1323810Y147749358D01*
X1323810Y147749358D02*
X1376191Y147644596D01*
X1376191Y147644596D02*
X1428572Y147435072D01*
X1428572Y147435072D02*
X1428572Y147173167D01*
X1428572Y147173167D02*
X1376191Y146963643D01*
X1376191Y146963643D02*
X1323810Y146858881D01*
X1323810Y146858881D02*
X1271429Y146806500D01*
X1271429Y146806500D02*
X1166667Y146754120D01*
X1166667Y146754120D02*
X1061905Y146754120D01*
X1061905Y146754120D02*
X957143Y146806500D01*
X957143Y146806500D02*
X904762Y146858881D01*
X904762Y146858881D02*
X852381Y146963643D01*
X852381Y146963643D02*
X800000Y147173167D01*
X800000Y147173167D02*
X800000Y147435072D01*
X800000Y147435072D02*
X852381Y147644596D01*
X852381Y147644596D02*
X904762Y147749358D01*
X904762Y147749358D02*
X957143Y147801739D01*
X957143Y147801739D02*
X1061905Y147854120D01*
X1795238Y147487453D02*
X2057143Y146754120D01*
X2057143Y146754120D02*
X2319048Y147487453D01*
X3000000Y146387453D02*
X3000000Y147958881D01*
X3995238Y147854120D02*
X4100000Y147854120D01*
X4100000Y147854120D02*
X4204762Y147801739D01*
X4204762Y147801739D02*
X4257143Y147749358D01*
X4257143Y147749358D02*
X4309524Y147644596D01*
X4309524Y147644596D02*
X4361905Y147435072D01*
X4361905Y147435072D02*
X4361905Y147173167D01*
X4361905Y147173167D02*
X4309524Y146963643D01*
X4309524Y146963643D02*
X4257143Y146858881D01*
X4257143Y146858881D02*
X4204762Y146806500D01*
X4204762Y146806500D02*
X4100000Y146754120D01*
X4100000Y146754120D02*
X3995238Y146754120D01*
X3995238Y146754120D02*
X3890476Y146806500D01*
X3890476Y146806500D02*
X3838095Y146858881D01*
X3838095Y146858881D02*
X3785714Y146963643D01*
X3785714Y146963643D02*
X3733333Y147173167D01*
X3733333Y147173167D02*
X3733333Y147435072D01*
X3733333Y147435072D02*
X3785714Y147644596D01*
X3785714Y147644596D02*
X3838095Y147749358D01*
X3838095Y147749358D02*
X3890476Y147801739D01*
X3890476Y147801739D02*
X3995238Y147854120D01*
X4728571Y147487453D02*
X4990476Y146754120D01*
X4990476Y146754120D02*
X5252381Y147487453D01*
X-30973808Y186275058D02*
X-31078570Y186327438D01*
X-31078570Y186327438D02*
X-31130951Y186432200D01*
X-31130951Y186432200D02*
X-31130951Y187375058D01*
X-30607142Y186589343D02*
X-30083332Y186589343D01*
X-30711904Y186275058D02*
X-30345237Y187375058D01*
X-30345237Y187375058D02*
X-29978570Y186275058D01*
X-28616666Y186275058D02*
X-28721428Y186327438D01*
X-28721428Y186327438D02*
X-28773809Y186432200D01*
X-28773809Y186432200D02*
X-28773809Y187375058D01*
X-27830952Y186851248D02*
X-27673809Y186798867D01*
X-27673809Y186798867D02*
X-27621428Y186746486D01*
X-27621428Y186746486D02*
X-27569047Y186641724D01*
X-27569047Y186641724D02*
X-27569047Y186484581D01*
X-27569047Y186484581D02*
X-27621428Y186379819D01*
X-27621428Y186379819D02*
X-27673809Y186327438D01*
X-27673809Y186327438D02*
X-27778571Y186275058D01*
X-27778571Y186275058D02*
X-28197619Y186275058D01*
X-28197619Y186275058D02*
X-28197619Y187375058D01*
X-28197619Y187375058D02*
X-27830952Y187375058D01*
X-27830952Y187375058D02*
X-27726190Y187322677D01*
X-27726190Y187322677D02*
X-27673809Y187270296D01*
X-27673809Y187270296D02*
X-27621428Y187165534D01*
X-27621428Y187165534D02*
X-27621428Y187060772D01*
X-27621428Y187060772D02*
X-27673809Y186956010D01*
X-27673809Y186956010D02*
X-27726190Y186903629D01*
X-27726190Y186903629D02*
X-27830952Y186851248D01*
X-27830952Y186851248D02*
X-28197619Y186851248D01*
X-26102381Y186275058D02*
X-26207143Y186327438D01*
X-26207143Y186327438D02*
X-26259524Y186432200D01*
X-26259524Y186432200D02*
X-26259524Y187375058D01*
X-25054762Y186379819D02*
X-25107143Y186327438D01*
X-25107143Y186327438D02*
X-25264286Y186275058D01*
X-25264286Y186275058D02*
X-25369048Y186275058D01*
X-25369048Y186275058D02*
X-25526191Y186327438D01*
X-25526191Y186327438D02*
X-25630953Y186432200D01*
X-25630953Y186432200D02*
X-25683334Y186536962D01*
X-25683334Y186536962D02*
X-25735715Y186746486D01*
X-25735715Y186746486D02*
X-25735715Y186903629D01*
X-25735715Y186903629D02*
X-25683334Y187113153D01*
X-25683334Y187113153D02*
X-25630953Y187217915D01*
X-25630953Y187217915D02*
X-25526191Y187322677D01*
X-25526191Y187322677D02*
X-25369048Y187375058D01*
X-25369048Y187375058D02*
X-25264286Y187375058D01*
X-25264286Y187375058D02*
X-25107143Y187322677D01*
X-25107143Y187322677D02*
X-25054762Y187270296D01*
X-23588096Y186275058D02*
X-23692858Y186327438D01*
X-23692858Y186327438D02*
X-23745239Y186432200D01*
X-23745239Y186432200D02*
X-23745239Y187375058D01*
X-23169049Y186275058D02*
X-23169049Y187375058D01*
X-23169049Y187375058D02*
X-22907144Y187375058D01*
X-22907144Y187375058D02*
X-22750001Y187322677D01*
X-22750001Y187322677D02*
X-22645239Y187217915D01*
X-22645239Y187217915D02*
X-22592858Y187113153D01*
X-22592858Y187113153D02*
X-22540477Y186903629D01*
X-22540477Y186903629D02*
X-22540477Y186746486D01*
X-22540477Y186746486D02*
X-22592858Y186536962D01*
X-22592858Y186536962D02*
X-22645239Y186432200D01*
X-22645239Y186432200D02*
X-22750001Y186327438D01*
X-22750001Y186327438D02*
X-22907144Y186275058D01*
X-22907144Y186275058D02*
X-23169049Y186275058D01*
X-20707144Y187375058D02*
X-21230954Y187375058D01*
X-21230954Y187375058D02*
X-21283335Y186851248D01*
X-21283335Y186851248D02*
X-21230954Y186903629D01*
X-21230954Y186903629D02*
X-21126192Y186956010D01*
X-21126192Y186956010D02*
X-20864287Y186956010D01*
X-20864287Y186956010D02*
X-20759525Y186903629D01*
X-20759525Y186903629D02*
X-20707144Y186851248D01*
X-20707144Y186851248D02*
X-20654763Y186746486D01*
X-20654763Y186746486D02*
X-20654763Y186484581D01*
X-20654763Y186484581D02*
X-20707144Y186379819D01*
X-20707144Y186379819D02*
X-20759525Y186327438D01*
X-20759525Y186327438D02*
X-20864287Y186275058D01*
X-20864287Y186275058D02*
X-21126192Y186275058D01*
X-21126192Y186275058D02*
X-21230954Y186327438D01*
X-21230954Y186327438D02*
X-21283335Y186379819D01*
X-20288097Y187008391D02*
X-20026192Y186275058D01*
X-20026192Y186275058D02*
X-19764287Y187008391D01*
X-30947618Y182733182D02*
X-31052380Y182785562D01*
X-31052380Y182785562D02*
X-31104761Y182890324D01*
X-31104761Y182890324D02*
X-31104761Y183833182D01*
X-30528571Y183309372D02*
X-30161904Y183309372D01*
X-30004761Y182733182D02*
X-30528571Y182733182D01*
X-30528571Y182733182D02*
X-30528571Y183833182D01*
X-30528571Y183833182D02*
X-30004761Y183833182D01*
X-28538095Y182733182D02*
X-28642857Y182785562D01*
X-28642857Y182785562D02*
X-28695238Y182890324D01*
X-28695238Y182890324D02*
X-28695238Y183833182D01*
X-27752381Y183309372D02*
X-28119048Y183309372D01*
X-28119048Y182733182D02*
X-28119048Y183833182D01*
X-28119048Y183833182D02*
X-27595238Y183833182D01*
X-26180953Y182733182D02*
X-26285715Y182785562D01*
X-26285715Y182785562D02*
X-26338096Y182890324D01*
X-26338096Y182890324D02*
X-26338096Y183833182D01*
X-25185715Y183780801D02*
X-25290477Y183833182D01*
X-25290477Y183833182D02*
X-25447620Y183833182D01*
X-25447620Y183833182D02*
X-25604763Y183780801D01*
X-25604763Y183780801D02*
X-25709525Y183676039D01*
X-25709525Y183676039D02*
X-25761906Y183571277D01*
X-25761906Y183571277D02*
X-25814287Y183361753D01*
X-25814287Y183361753D02*
X-25814287Y183204610D01*
X-25814287Y183204610D02*
X-25761906Y182995086D01*
X-25761906Y182995086D02*
X-25709525Y182890324D01*
X-25709525Y182890324D02*
X-25604763Y182785562D01*
X-25604763Y182785562D02*
X-25447620Y182733182D01*
X-25447620Y182733182D02*
X-25342858Y182733182D01*
X-25342858Y182733182D02*
X-25185715Y182785562D01*
X-25185715Y182785562D02*
X-25133334Y182837943D01*
X-25133334Y182837943D02*
X-25133334Y183204610D01*
X-25133334Y183204610D02*
X-25342858Y183204610D01*
X-23666668Y182733182D02*
X-23771430Y182785562D01*
X-23771430Y182785562D02*
X-23823811Y182890324D01*
X-23823811Y182890324D02*
X-23823811Y183833182D01*
X-23247621Y182733182D02*
X-23247621Y183833182D01*
X-23247621Y183309372D02*
X-22619049Y183309372D01*
X-22619049Y182733182D02*
X-22619049Y183833182D01*
X-21047621Y183833182D02*
X-20942859Y183833182D01*
X-20942859Y183833182D02*
X-20838097Y183780801D01*
X-20838097Y183780801D02*
X-20785716Y183728420D01*
X-20785716Y183728420D02*
X-20733335Y183623658D01*
X-20733335Y183623658D02*
X-20680954Y183414134D01*
X-20680954Y183414134D02*
X-20680954Y183152229D01*
X-20680954Y183152229D02*
X-20733335Y182942705D01*
X-20733335Y182942705D02*
X-20785716Y182837943D01*
X-20785716Y182837943D02*
X-20838097Y182785562D01*
X-20838097Y182785562D02*
X-20942859Y182733182D01*
X-20942859Y182733182D02*
X-21047621Y182733182D01*
X-21047621Y182733182D02*
X-21152383Y182785562D01*
X-21152383Y182785562D02*
X-21204764Y182837943D01*
X-21204764Y182837943D02*
X-21257145Y182942705D01*
X-21257145Y182942705D02*
X-21309526Y183152229D01*
X-21309526Y183152229D02*
X-21309526Y183414134D01*
X-21309526Y183414134D02*
X-21257145Y183623658D01*
X-21257145Y183623658D02*
X-21204764Y183728420D01*
X-21204764Y183728420D02*
X-21152383Y183780801D01*
X-21152383Y183780801D02*
X-21047621Y183833182D01*
X-20314288Y183466515D02*
X-20052383Y182733182D01*
X-20052383Y182733182D02*
X-19790478Y183466515D01*
D13*
X43402744Y161609524D02*
X43355124Y161466667D01*
X43355124Y161466667D02*
X43355124Y161228572D01*
X43355124Y161228572D02*
X43402744Y161133334D01*
X43402744Y161133334D02*
X43450363Y161085715D01*
X43450363Y161085715D02*
X43545601Y161038096D01*
X43545601Y161038096D02*
X43640839Y161038096D01*
X43640839Y161038096D02*
X43736077Y161085715D01*
X43736077Y161085715D02*
X43783696Y161133334D01*
X43783696Y161133334D02*
X43831315Y161228572D01*
X43831315Y161228572D02*
X43878934Y161419048D01*
X43878934Y161419048D02*
X43926553Y161514286D01*
X43926553Y161514286D02*
X43974172Y161561905D01*
X43974172Y161561905D02*
X44069410Y161609524D01*
X44069410Y161609524D02*
X44164648Y161609524D01*
X44164648Y161609524D02*
X44259886Y161561905D01*
X44259886Y161561905D02*
X44307505Y161514286D01*
X44307505Y161514286D02*
X44355124Y161419048D01*
X44355124Y161419048D02*
X44355124Y161180953D01*
X44355124Y161180953D02*
X44307505Y161038096D01*
X44355124Y160419048D02*
X44355124Y160228572D01*
X44355124Y160228572D02*
X44307505Y160133334D01*
X44307505Y160133334D02*
X44212267Y160038096D01*
X44212267Y160038096D02*
X44021791Y159990477D01*
X44021791Y159990477D02*
X43688458Y159990477D01*
X43688458Y159990477D02*
X43497982Y160038096D01*
X43497982Y160038096D02*
X43402744Y160133334D01*
X43402744Y160133334D02*
X43355124Y160228572D01*
X43355124Y160228572D02*
X43355124Y160419048D01*
X43355124Y160419048D02*
X43402744Y160514286D01*
X43402744Y160514286D02*
X43497982Y160609524D01*
X43497982Y160609524D02*
X43688458Y160657143D01*
X43688458Y160657143D02*
X44021791Y160657143D01*
X44021791Y160657143D02*
X44212267Y160609524D01*
X44212267Y160609524D02*
X44307505Y160514286D01*
X44307505Y160514286D02*
X44355124Y160419048D01*
X40182856Y161323809D02*
X40135236Y161180952D01*
X40135236Y161180952D02*
X40135236Y160942857D01*
X40135236Y160942857D02*
X40182856Y160847619D01*
X40182856Y160847619D02*
X40230475Y160800000D01*
X40230475Y160800000D02*
X40325713Y160752381D01*
X40325713Y160752381D02*
X40420951Y160752381D01*
X40420951Y160752381D02*
X40516189Y160800000D01*
X40516189Y160800000D02*
X40563808Y160847619D01*
X40563808Y160847619D02*
X40611427Y160942857D01*
X40611427Y160942857D02*
X40659046Y161133333D01*
X40659046Y161133333D02*
X40706665Y161228571D01*
X40706665Y161228571D02*
X40754284Y161276190D01*
X40754284Y161276190D02*
X40849522Y161323809D01*
X40849522Y161323809D02*
X40944760Y161323809D01*
X40944760Y161323809D02*
X41039998Y161276190D01*
X41039998Y161276190D02*
X41087617Y161228571D01*
X41087617Y161228571D02*
X41135236Y161133333D01*
X41135236Y161133333D02*
X41135236Y160895238D01*
X41135236Y160895238D02*
X41087617Y160752381D01*
X40135236Y160323809D02*
X41135236Y160323809D01*
D14*
X-84471429Y58145996D02*
X-84366667Y58145996D01*
X-84366667Y58145996D02*
X-84261905Y58093615D01*
X-84261905Y58093615D02*
X-84209524Y58041234D01*
X-84209524Y58041234D02*
X-84157143Y57936472D01*
X-84157143Y57936472D02*
X-84104762Y57726948D01*
X-84104762Y57726948D02*
X-84104762Y57465043D01*
X-84104762Y57465043D02*
X-84157143Y57255519D01*
X-84157143Y57255519D02*
X-84209524Y57150757D01*
X-84209524Y57150757D02*
X-84261905Y57098376D01*
X-84261905Y57098376D02*
X-84366667Y57045996D01*
X-84366667Y57045996D02*
X-84471429Y57045996D01*
X-84471429Y57045996D02*
X-84576191Y57098376D01*
X-84576191Y57098376D02*
X-84628572Y57150757D01*
X-84628572Y57150757D02*
X-84680953Y57255519D01*
X-84680953Y57255519D02*
X-84733334Y57465043D01*
X-84733334Y57465043D02*
X-84733334Y57726948D01*
X-84733334Y57726948D02*
X-84680953Y57936472D01*
X-84680953Y57936472D02*
X-84628572Y58041234D01*
X-84628572Y58041234D02*
X-84576191Y58093615D01*
X-84576191Y58093615D02*
X-84471429Y58145996D01*
X-83738096Y57779329D02*
X-83476191Y57045996D01*
X-83476191Y57045996D02*
X-83214286Y57779329D01*
X-84157143Y54604120D02*
X-84680953Y54604120D01*
X-84680953Y54604120D02*
X-84733334Y54080310D01*
X-84733334Y54080310D02*
X-84680953Y54132691D01*
X-84680953Y54132691D02*
X-84576191Y54185072D01*
X-84576191Y54185072D02*
X-84314286Y54185072D01*
X-84314286Y54185072D02*
X-84209524Y54132691D01*
X-84209524Y54132691D02*
X-84157143Y54080310D01*
X-84157143Y54080310D02*
X-84104762Y53975548D01*
X-84104762Y53975548D02*
X-84104762Y53713643D01*
X-84104762Y53713643D02*
X-84157143Y53608881D01*
X-84157143Y53608881D02*
X-84209524Y53556500D01*
X-84209524Y53556500D02*
X-84314286Y53504120D01*
X-84314286Y53504120D02*
X-84576191Y53504120D01*
X-84576191Y53504120D02*
X-84680953Y53556500D01*
X-84680953Y53556500D02*
X-84733334Y53608881D01*
X-83738096Y54237453D02*
X-83476191Y53504120D01*
X-83476191Y53504120D02*
X-83214286Y54237453D01*
X-84340476Y49962244D02*
X-84445238Y50014624D01*
X-84445238Y50014624D02*
X-84497619Y50119386D01*
X-84497619Y50119386D02*
X-84497619Y51062244D01*
X-83973810Y50276529D02*
X-83450000Y50276529D01*
X-84078572Y49962244D02*
X-83711905Y51062244D01*
X-83711905Y51062244D02*
X-83345238Y49962244D01*
X-11476192Y92087762D02*
X-11476192Y94087762D01*
X-11476192Y94087762D02*
X-10333335Y92087762D01*
X-10333335Y92087762D02*
X-10333335Y94087762D01*
X-9095240Y92087762D02*
X-9285716Y92183000D01*
X-9285716Y92183000D02*
X-9380954Y92278239D01*
X-9380954Y92278239D02*
X-9476192Y92468715D01*
X-9476192Y92468715D02*
X-9476192Y93040143D01*
X-9476192Y93040143D02*
X-9380954Y93230620D01*
X-9380954Y93230620D02*
X-9285716Y93325858D01*
X-9285716Y93325858D02*
X-9095240Y93421096D01*
X-9095240Y93421096D02*
X-8809525Y93421096D01*
X-8809525Y93421096D02*
X-8619049Y93325858D01*
X-8619049Y93325858D02*
X-8523811Y93230620D01*
X-8523811Y93230620D02*
X-8428573Y93040143D01*
X-8428573Y93040143D02*
X-8428573Y92468715D01*
X-8428573Y92468715D02*
X-8523811Y92278239D01*
X-8523811Y92278239D02*
X-8619049Y92183000D01*
X-8619049Y92183000D02*
X-8809525Y92087762D01*
X-8809525Y92087762D02*
X-9095240Y92087762D01*
X-5380953Y93135381D02*
X-5095239Y93040143D01*
X-5095239Y93040143D02*
X-5000001Y92944905D01*
X-5000001Y92944905D02*
X-4904763Y92754429D01*
X-4904763Y92754429D02*
X-4904763Y92468715D01*
X-4904763Y92468715D02*
X-5000001Y92278239D01*
X-5000001Y92278239D02*
X-5095239Y92183000D01*
X-5095239Y92183000D02*
X-5285715Y92087762D01*
X-5285715Y92087762D02*
X-6047620Y92087762D01*
X-6047620Y92087762D02*
X-6047620Y94087762D01*
X-6047620Y94087762D02*
X-5380953Y94087762D01*
X-5380953Y94087762D02*
X-5190477Y93992524D01*
X-5190477Y93992524D02*
X-5095239Y93897286D01*
X-5095239Y93897286D02*
X-5000001Y93706810D01*
X-5000001Y93706810D02*
X-5000001Y93516334D01*
X-5000001Y93516334D02*
X-5095239Y93325858D01*
X-5095239Y93325858D02*
X-5190477Y93230620D01*
X-5190477Y93230620D02*
X-5380953Y93135381D01*
X-5380953Y93135381D02*
X-6047620Y93135381D01*
X-3761906Y92087762D02*
X-3952382Y92183000D01*
X-3952382Y92183000D02*
X-4047620Y92373477D01*
X-4047620Y92373477D02*
X-4047620Y94087762D01*
X-2142858Y92087762D02*
X-2142858Y93135381D01*
X-2142858Y93135381D02*
X-2238096Y93325858D01*
X-2238096Y93325858D02*
X-2428572Y93421096D01*
X-2428572Y93421096D02*
X-2809525Y93421096D01*
X-2809525Y93421096D02*
X-3000001Y93325858D01*
X-2142858Y92183000D02*
X-2333334Y92087762D01*
X-2333334Y92087762D02*
X-2809525Y92087762D01*
X-2809525Y92087762D02*
X-3000001Y92183000D01*
X-3000001Y92183000D02*
X-3095239Y92373477D01*
X-3095239Y92373477D02*
X-3095239Y92563953D01*
X-3095239Y92563953D02*
X-3000001Y92754429D01*
X-3000001Y92754429D02*
X-2809525Y92849667D01*
X-2809525Y92849667D02*
X-2333334Y92849667D01*
X-2333334Y92849667D02*
X-2142858Y92944905D01*
X-333334Y92183000D02*
X-523810Y92087762D01*
X-523810Y92087762D02*
X-904763Y92087762D01*
X-904763Y92087762D02*
X-1095239Y92183000D01*
X-1095239Y92183000D02*
X-1190477Y92278239D01*
X-1190477Y92278239D02*
X-1285715Y92468715D01*
X-1285715Y92468715D02*
X-1285715Y93040143D01*
X-1285715Y93040143D02*
X-1190477Y93230620D01*
X-1190477Y93230620D02*
X-1095239Y93325858D01*
X-1095239Y93325858D02*
X-904763Y93421096D01*
X-904763Y93421096D02*
X-523810Y93421096D01*
X-523810Y93421096D02*
X-333334Y93325858D01*
X523809Y92087762D02*
X523809Y94087762D01*
X714285Y92849667D02*
X1285714Y92087762D01*
X1285714Y93421096D02*
X523809Y92659191D01*
X4333334Y93135381D02*
X4619048Y93040143D01*
X4619048Y93040143D02*
X4714286Y92944905D01*
X4714286Y92944905D02*
X4809524Y92754429D01*
X4809524Y92754429D02*
X4809524Y92468715D01*
X4809524Y92468715D02*
X4714286Y92278239D01*
X4714286Y92278239D02*
X4619048Y92183000D01*
X4619048Y92183000D02*
X4428572Y92087762D01*
X4428572Y92087762D02*
X3666667Y92087762D01*
X3666667Y92087762D02*
X3666667Y94087762D01*
X3666667Y94087762D02*
X4333334Y94087762D01*
X4333334Y94087762D02*
X4523810Y93992524D01*
X4523810Y93992524D02*
X4619048Y93897286D01*
X4619048Y93897286D02*
X4714286Y93706810D01*
X4714286Y93706810D02*
X4714286Y93516334D01*
X4714286Y93516334D02*
X4619048Y93325858D01*
X4619048Y93325858D02*
X4523810Y93230620D01*
X4523810Y93230620D02*
X4333334Y93135381D01*
X4333334Y93135381D02*
X3666667Y93135381D01*
X5952381Y92087762D02*
X5761905Y92183000D01*
X5761905Y92183000D02*
X5666667Y92278239D01*
X5666667Y92278239D02*
X5571429Y92468715D01*
X5571429Y92468715D02*
X5571429Y93040143D01*
X5571429Y93040143D02*
X5666667Y93230620D01*
X5666667Y93230620D02*
X5761905Y93325858D01*
X5761905Y93325858D02*
X5952381Y93421096D01*
X5952381Y93421096D02*
X6238096Y93421096D01*
X6238096Y93421096D02*
X6428572Y93325858D01*
X6428572Y93325858D02*
X6523810Y93230620D01*
X6523810Y93230620D02*
X6619048Y93040143D01*
X6619048Y93040143D02*
X6619048Y92468715D01*
X6619048Y92468715D02*
X6523810Y92278239D01*
X6523810Y92278239D02*
X6428572Y92183000D01*
X6428572Y92183000D02*
X6238096Y92087762D01*
X6238096Y92087762D02*
X5952381Y92087762D01*
X7285715Y92087762D02*
X8333334Y93421096D01*
X7285715Y93421096D02*
X8333334Y92087762D01*
X9857144Y92183000D02*
X9666668Y92087762D01*
X9666668Y92087762D02*
X9285715Y92087762D01*
X9285715Y92087762D02*
X9095239Y92183000D01*
X9095239Y92183000D02*
X9000001Y92373477D01*
X9000001Y92373477D02*
X9000001Y93135381D01*
X9000001Y93135381D02*
X9095239Y93325858D01*
X9095239Y93325858D02*
X9285715Y93421096D01*
X9285715Y93421096D02*
X9666668Y93421096D01*
X9666668Y93421096D02*
X9857144Y93325858D01*
X9857144Y93325858D02*
X9952382Y93135381D01*
X9952382Y93135381D02*
X9952382Y92944905D01*
X9952382Y92944905D02*
X9000001Y92754429D01*
X10714287Y92183000D02*
X10904763Y92087762D01*
X10904763Y92087762D02*
X11285715Y92087762D01*
X11285715Y92087762D02*
X11476192Y92183000D01*
X11476192Y92183000D02*
X11571430Y92373477D01*
X11571430Y92373477D02*
X11571430Y92468715D01*
X11571430Y92468715D02*
X11476192Y92659191D01*
X11476192Y92659191D02*
X11285715Y92754429D01*
X11285715Y92754429D02*
X11000001Y92754429D01*
X11000001Y92754429D02*
X10809525Y92849667D01*
X10809525Y92849667D02*
X10714287Y93040143D01*
X10714287Y93040143D02*
X10714287Y93135381D01*
X10714287Y93135381D02*
X10809525Y93325858D01*
X10809525Y93325858D02*
X11000001Y93421096D01*
X11000001Y93421096D02*
X11285715Y93421096D01*
X11285715Y93421096D02*
X11476192Y93325858D01*
X50476190Y81087762D02*
X50476190Y83087762D01*
X50476190Y83087762D02*
X51142857Y81659191D01*
X51142857Y81659191D02*
X51809523Y83087762D01*
X51809523Y83087762D02*
X51809523Y81087762D01*
X52761904Y81087762D02*
X52761904Y83087762D01*
X53714285Y81087762D02*
X53714285Y83087762D01*
X53714285Y83087762D02*
X54190475Y83087762D01*
X54190475Y83087762D02*
X54476190Y82992524D01*
X54476190Y82992524D02*
X54666666Y82802048D01*
X54666666Y82802048D02*
X54761904Y82611572D01*
X54761904Y82611572D02*
X54857142Y82230620D01*
X54857142Y82230620D02*
X54857142Y81944905D01*
X54857142Y81944905D02*
X54761904Y81563953D01*
X54761904Y81563953D02*
X54666666Y81373477D01*
X54666666Y81373477D02*
X54476190Y81183000D01*
X54476190Y81183000D02*
X54190475Y81087762D01*
X54190475Y81087762D02*
X53714285Y81087762D01*
X56380952Y82135381D02*
X56666666Y82040143D01*
X56666666Y82040143D02*
X56761904Y81944905D01*
X56761904Y81944905D02*
X56857142Y81754429D01*
X56857142Y81754429D02*
X56857142Y81468715D01*
X56857142Y81468715D02*
X56761904Y81278239D01*
X56761904Y81278239D02*
X56666666Y81183000D01*
X56666666Y81183000D02*
X56476190Y81087762D01*
X56476190Y81087762D02*
X55714285Y81087762D01*
X55714285Y81087762D02*
X55714285Y83087762D01*
X55714285Y83087762D02*
X56380952Y83087762D01*
X56380952Y83087762D02*
X56571428Y82992524D01*
X56571428Y82992524D02*
X56666666Y82897286D01*
X56666666Y82897286D02*
X56761904Y82706810D01*
X56761904Y82706810D02*
X56761904Y82516334D01*
X56761904Y82516334D02*
X56666666Y82325858D01*
X56666666Y82325858D02*
X56571428Y82230620D01*
X56571428Y82230620D02*
X56380952Y82135381D01*
X56380952Y82135381D02*
X55714285Y82135381D01*
X58857142Y81087762D02*
X58190475Y82040143D01*
X57714285Y81087762D02*
X57714285Y83087762D01*
X57714285Y83087762D02*
X58476190Y83087762D01*
X58476190Y83087762D02*
X58666666Y82992524D01*
X58666666Y82992524D02*
X58761904Y82897286D01*
X58761904Y82897286D02*
X58857142Y82706810D01*
X58857142Y82706810D02*
X58857142Y82421096D01*
X58857142Y82421096D02*
X58761904Y82230620D01*
X58761904Y82230620D02*
X58666666Y82135381D01*
X58666666Y82135381D02*
X58476190Y82040143D01*
X58476190Y82040143D02*
X57714285Y82040143D01*
X59619047Y81659191D02*
X60571428Y81659191D01*
X59428571Y81087762D02*
X60095237Y83087762D01*
X60095237Y83087762D02*
X60761904Y81087762D01*
X61428571Y81087762D02*
X61428571Y83087762D01*
X62380952Y81087762D02*
X62380952Y83087762D01*
X62380952Y83087762D02*
X63523809Y81087762D01*
X63523809Y81087762D02*
X63523809Y83087762D01*
X83666666Y17087762D02*
X83666666Y19087762D01*
X83666666Y19087762D02*
X84333333Y17659191D01*
X84333333Y17659191D02*
X84999999Y19087762D01*
X84999999Y19087762D02*
X84999999Y17087762D01*
X85952380Y19087762D02*
X85952380Y17468715D01*
X85952380Y17468715D02*
X86047618Y17278239D01*
X86047618Y17278239D02*
X86142856Y17183000D01*
X86142856Y17183000D02*
X86333332Y17087762D01*
X86333332Y17087762D02*
X86714285Y17087762D01*
X86714285Y17087762D02*
X86904761Y17183000D01*
X86904761Y17183000D02*
X86999999Y17278239D01*
X86999999Y17278239D02*
X87095237Y17468715D01*
X87095237Y17468715D02*
X87095237Y19087762D01*
X87952380Y17183000D02*
X88238094Y17087762D01*
X88238094Y17087762D02*
X88714285Y17087762D01*
X88714285Y17087762D02*
X88904761Y17183000D01*
X88904761Y17183000D02*
X88999999Y17278239D01*
X88999999Y17278239D02*
X89095237Y17468715D01*
X89095237Y17468715D02*
X89095237Y17659191D01*
X89095237Y17659191D02*
X88999999Y17849667D01*
X88999999Y17849667D02*
X88904761Y17944905D01*
X88904761Y17944905D02*
X88714285Y18040143D01*
X88714285Y18040143D02*
X88333332Y18135381D01*
X88333332Y18135381D02*
X88142856Y18230620D01*
X88142856Y18230620D02*
X88047618Y18325858D01*
X88047618Y18325858D02*
X87952380Y18516334D01*
X87952380Y18516334D02*
X87952380Y18706810D01*
X87952380Y18706810D02*
X88047618Y18897286D01*
X88047618Y18897286D02*
X88142856Y18992524D01*
X88142856Y18992524D02*
X88333332Y19087762D01*
X88333332Y19087762D02*
X88809523Y19087762D01*
X88809523Y19087762D02*
X89095237Y18992524D01*
X91095237Y17278239D02*
X90999999Y17183000D01*
X90999999Y17183000D02*
X90714285Y17087762D01*
X90714285Y17087762D02*
X90523809Y17087762D01*
X90523809Y17087762D02*
X90238094Y17183000D01*
X90238094Y17183000D02*
X90047618Y17373477D01*
X90047618Y17373477D02*
X89952380Y17563953D01*
X89952380Y17563953D02*
X89857142Y17944905D01*
X89857142Y17944905D02*
X89857142Y18230620D01*
X89857142Y18230620D02*
X89952380Y18611572D01*
X89952380Y18611572D02*
X90047618Y18802048D01*
X90047618Y18802048D02*
X90238094Y18992524D01*
X90238094Y18992524D02*
X90523809Y19087762D01*
X90523809Y19087762D02*
X90714285Y19087762D01*
X90714285Y19087762D02*
X90999999Y18992524D01*
X90999999Y18992524D02*
X91095237Y18897286D01*
X92904761Y17087762D02*
X91952380Y17087762D01*
X91952380Y17087762D02*
X91952380Y19087762D01*
X93571428Y18135381D02*
X94238095Y18135381D01*
X94523809Y17087762D02*
X93571428Y17087762D01*
X93571428Y17087762D02*
X93571428Y19087762D01*
X93571428Y19087762D02*
X94523809Y19087762D01*
X95285714Y17183000D02*
X95571428Y17087762D01*
X95571428Y17087762D02*
X96047619Y17087762D01*
X96047619Y17087762D02*
X96238095Y17183000D01*
X96238095Y17183000D02*
X96333333Y17278239D01*
X96333333Y17278239D02*
X96428571Y17468715D01*
X96428571Y17468715D02*
X96428571Y17659191D01*
X96428571Y17659191D02*
X96333333Y17849667D01*
X96333333Y17849667D02*
X96238095Y17944905D01*
X96238095Y17944905D02*
X96047619Y18040143D01*
X96047619Y18040143D02*
X95666666Y18135381D01*
X95666666Y18135381D02*
X95476190Y18230620D01*
X95476190Y18230620D02*
X95380952Y18325858D01*
X95380952Y18325858D02*
X95285714Y18516334D01*
X95285714Y18516334D02*
X95285714Y18706810D01*
X95285714Y18706810D02*
X95380952Y18897286D01*
X95380952Y18897286D02*
X95476190Y18992524D01*
X95476190Y18992524D02*
X95666666Y19087762D01*
X95666666Y19087762D02*
X96142857Y19087762D01*
X96142857Y19087762D02*
X96428571Y18992524D01*
X-7476191Y2587762D02*
X-7476191Y4587762D01*
X-7476191Y3635381D02*
X-6333334Y3635381D01*
X-6333334Y2587762D02*
X-6333334Y4587762D01*
X-5380953Y2587762D02*
X-5380953Y4587762D01*
X-4428572Y2587762D02*
X-4428572Y4587762D01*
X-4428572Y4587762D02*
X-3285715Y2587762D01*
X-3285715Y2587762D02*
X-3285715Y4587762D01*
X-2333334Y2587762D02*
X-2333334Y4587762D01*
X-2333334Y4587762D02*
X-1857144Y4587762D01*
X-1857144Y4587762D02*
X-1571429Y4492524D01*
X-1571429Y4492524D02*
X-1380953Y4302048D01*
X-1380953Y4302048D02*
X-1285715Y4111572D01*
X-1285715Y4111572D02*
X-1190477Y3730620D01*
X-1190477Y3730620D02*
X-1190477Y3444905D01*
X-1190477Y3444905D02*
X-1285715Y3063953D01*
X-1285715Y3063953D02*
X-1380953Y2873477D01*
X-1380953Y2873477D02*
X-1571429Y2683000D01*
X-1571429Y2683000D02*
X-1857144Y2587762D01*
X-1857144Y2587762D02*
X-2333334Y2587762D01*
X333333Y3635381D02*
X619047Y3540143D01*
X619047Y3540143D02*
X714285Y3444905D01*
X714285Y3444905D02*
X809523Y3254429D01*
X809523Y3254429D02*
X809523Y2968715D01*
X809523Y2968715D02*
X714285Y2778239D01*
X714285Y2778239D02*
X619047Y2683000D01*
X619047Y2683000D02*
X428571Y2587762D01*
X428571Y2587762D02*
X-333334Y2587762D01*
X-333334Y2587762D02*
X-333334Y4587762D01*
X-333334Y4587762D02*
X333333Y4587762D01*
X333333Y4587762D02*
X523809Y4492524D01*
X523809Y4492524D02*
X619047Y4397286D01*
X619047Y4397286D02*
X714285Y4206810D01*
X714285Y4206810D02*
X714285Y4016334D01*
X714285Y4016334D02*
X619047Y3825858D01*
X619047Y3825858D02*
X523809Y3730620D01*
X523809Y3730620D02*
X333333Y3635381D01*
X333333Y3635381D02*
X-333334Y3635381D01*
X2809523Y2587762D02*
X2142856Y3540143D01*
X1666666Y2587762D02*
X1666666Y4587762D01*
X1666666Y4587762D02*
X2428571Y4587762D01*
X2428571Y4587762D02*
X2619047Y4492524D01*
X2619047Y4492524D02*
X2714285Y4397286D01*
X2714285Y4397286D02*
X2809523Y4206810D01*
X2809523Y4206810D02*
X2809523Y3921096D01*
X2809523Y3921096D02*
X2714285Y3730620D01*
X2714285Y3730620D02*
X2619047Y3635381D01*
X2619047Y3635381D02*
X2428571Y3540143D01*
X2428571Y3540143D02*
X1666666Y3540143D01*
X3571428Y3159191D02*
X4523809Y3159191D01*
X3380952Y2587762D02*
X4047618Y4587762D01*
X4047618Y4587762D02*
X4714285Y2587762D01*
X5380952Y2587762D02*
X5380952Y4587762D01*
X6333333Y2587762D02*
X6333333Y4587762D01*
X6333333Y4587762D02*
X7476190Y2587762D01*
X7476190Y2587762D02*
X7476190Y4587762D01*
D13*
X76945180Y114000000D02*
X76945180Y113380953D01*
X76945180Y113380953D02*
X76564228Y113714286D01*
X76564228Y113714286D02*
X76564228Y113571429D01*
X76564228Y113571429D02*
X76516609Y113476191D01*
X76516609Y113476191D02*
X76468990Y113428572D01*
X76468990Y113428572D02*
X76373752Y113380953D01*
X76373752Y113380953D02*
X76135657Y113380953D01*
X76135657Y113380953D02*
X76040419Y113428572D01*
X76040419Y113428572D02*
X75992800Y113476191D01*
X75992800Y113476191D02*
X75945180Y113571429D01*
X75945180Y113571429D02*
X75945180Y113857143D01*
X75945180Y113857143D02*
X75992800Y113952381D01*
X75992800Y113952381D02*
X76040419Y114000000D01*
X76040419Y112952381D02*
X75992800Y112904762D01*
X75992800Y112904762D02*
X75945180Y112952381D01*
X75945180Y112952381D02*
X75992800Y113000000D01*
X75992800Y113000000D02*
X76040419Y112952381D01*
X76040419Y112952381D02*
X75945180Y112952381D01*
X76945180Y112571429D02*
X76945180Y111952382D01*
X76945180Y111952382D02*
X76564228Y112285715D01*
X76564228Y112285715D02*
X76564228Y112142858D01*
X76564228Y112142858D02*
X76516609Y112047620D01*
X76516609Y112047620D02*
X76468990Y112000001D01*
X76468990Y112000001D02*
X76373752Y111952382D01*
X76373752Y111952382D02*
X76135657Y111952382D01*
X76135657Y111952382D02*
X76040419Y112000001D01*
X76040419Y112000001D02*
X75992800Y112047620D01*
X75992800Y112047620D02*
X75945180Y112142858D01*
X75945180Y112142858D02*
X75945180Y112428572D01*
X75945180Y112428572D02*
X75992800Y112523810D01*
X75992800Y112523810D02*
X76040419Y112571429D01*
X76945180Y110857143D02*
X75945180Y110619048D01*
X75945180Y110619048D02*
X76659466Y110428572D01*
X76659466Y110428572D02*
X75945180Y110238096D01*
X75945180Y110238096D02*
X76945180Y110000000D01*
X75992800Y109666667D02*
X75945180Y109523810D01*
X75945180Y109523810D02*
X75945180Y109285715D01*
X75945180Y109285715D02*
X75992800Y109190477D01*
X75992800Y109190477D02*
X76040419Y109142858D01*
X76040419Y109142858D02*
X76135657Y109095239D01*
X76135657Y109095239D02*
X76230895Y109095239D01*
X76230895Y109095239D02*
X76326133Y109142858D01*
X76326133Y109142858D02*
X76373752Y109190477D01*
X76373752Y109190477D02*
X76421371Y109285715D01*
X76421371Y109285715D02*
X76468990Y109476191D01*
X76468990Y109476191D02*
X76516609Y109571429D01*
X76516609Y109571429D02*
X76564228Y109619048D01*
X76564228Y109619048D02*
X76659466Y109666667D01*
X76659466Y109666667D02*
X76754704Y109666667D01*
X76754704Y109666667D02*
X76849942Y109619048D01*
X76849942Y109619048D02*
X76897561Y109571429D01*
X76897561Y109571429D02*
X76945180Y109476191D01*
X76945180Y109476191D02*
X76945180Y109238096D01*
X76945180Y109238096D02*
X76897561Y109095239D01*
X75992800Y107952381D02*
X75945180Y107809524D01*
X75945180Y107809524D02*
X75945180Y107571429D01*
X75945180Y107571429D02*
X75992800Y107476191D01*
X75992800Y107476191D02*
X76040419Y107428572D01*
X76040419Y107428572D02*
X76135657Y107380953D01*
X76135657Y107380953D02*
X76230895Y107380953D01*
X76230895Y107380953D02*
X76326133Y107428572D01*
X76326133Y107428572D02*
X76373752Y107476191D01*
X76373752Y107476191D02*
X76421371Y107571429D01*
X76421371Y107571429D02*
X76468990Y107761905D01*
X76468990Y107761905D02*
X76516609Y107857143D01*
X76516609Y107857143D02*
X76564228Y107904762D01*
X76564228Y107904762D02*
X76659466Y107952381D01*
X76659466Y107952381D02*
X76754704Y107952381D01*
X76754704Y107952381D02*
X76849942Y107904762D01*
X76849942Y107904762D02*
X76897561Y107857143D01*
X76897561Y107857143D02*
X76945180Y107761905D01*
X76945180Y107761905D02*
X76945180Y107523810D01*
X76945180Y107523810D02*
X76897561Y107380953D01*
X75945180Y106952381D02*
X76945180Y106952381D01*
X76945180Y105523810D02*
X76945180Y105428572D01*
X76945180Y105428572D02*
X76897561Y105333334D01*
X76897561Y105333334D02*
X76849942Y105285715D01*
X76849942Y105285715D02*
X76754704Y105238096D01*
X76754704Y105238096D02*
X76564228Y105190477D01*
X76564228Y105190477D02*
X76326133Y105190477D01*
X76326133Y105190477D02*
X76135657Y105238096D01*
X76135657Y105238096D02*
X76040419Y105285715D01*
X76040419Y105285715D02*
X75992800Y105333334D01*
X75992800Y105333334D02*
X75945180Y105428572D01*
X75945180Y105428572D02*
X75945180Y105523810D01*
X75945180Y105523810D02*
X75992800Y105619048D01*
X75992800Y105619048D02*
X76040419Y105666667D01*
X76040419Y105666667D02*
X76135657Y105714286D01*
X76135657Y105714286D02*
X76326133Y105761905D01*
X76326133Y105761905D02*
X76564228Y105761905D01*
X76564228Y105761905D02*
X76754704Y105714286D01*
X76754704Y105714286D02*
X76849942Y105666667D01*
X76849942Y105666667D02*
X76897561Y105619048D01*
X76897561Y105619048D02*
X76945180Y105523810D01*
X76611847Y104857143D02*
X75945180Y104619048D01*
X75945180Y104619048D02*
X76611847Y104380953D01*
X76945180Y103047619D02*
X76945180Y102952381D01*
X76945180Y102952381D02*
X76897561Y102857143D01*
X76897561Y102857143D02*
X76849942Y102809524D01*
X76849942Y102809524D02*
X76754704Y102761905D01*
X76754704Y102761905D02*
X76564228Y102714286D01*
X76564228Y102714286D02*
X76326133Y102714286D01*
X76326133Y102714286D02*
X76135657Y102761905D01*
X76135657Y102761905D02*
X76040419Y102809524D01*
X76040419Y102809524D02*
X75992800Y102857143D01*
X75992800Y102857143D02*
X75945180Y102952381D01*
X75945180Y102952381D02*
X75945180Y103047619D01*
X75945180Y103047619D02*
X75992800Y103142857D01*
X75992800Y103142857D02*
X76040419Y103190476D01*
X76040419Y103190476D02*
X76135657Y103238095D01*
X76135657Y103238095D02*
X76326133Y103285714D01*
X76326133Y103285714D02*
X76564228Y103285714D01*
X76564228Y103285714D02*
X76754704Y103238095D01*
X76754704Y103238095D02*
X76849942Y103190476D01*
X76849942Y103190476D02*
X76897561Y103142857D01*
X76897561Y103142857D02*
X76945180Y103047619D01*
X76611847Y102380952D02*
X75945180Y102142857D01*
X75945180Y102142857D02*
X76611847Y101904762D01*
X76945180Y100857142D02*
X76945180Y100238095D01*
X76945180Y100238095D02*
X76564228Y100571428D01*
X76564228Y100571428D02*
X76564228Y100428571D01*
X76564228Y100428571D02*
X76516609Y100333333D01*
X76516609Y100333333D02*
X76468990Y100285714D01*
X76468990Y100285714D02*
X76373752Y100238095D01*
X76373752Y100238095D02*
X76135657Y100238095D01*
X76135657Y100238095D02*
X76040419Y100285714D01*
X76040419Y100285714D02*
X75992800Y100333333D01*
X75992800Y100333333D02*
X75945180Y100428571D01*
X75945180Y100428571D02*
X75945180Y100714285D01*
X75945180Y100714285D02*
X75992800Y100809523D01*
X75992800Y100809523D02*
X76040419Y100857142D01*
X76040419Y99809523D02*
X75992800Y99761904D01*
X75992800Y99761904D02*
X75945180Y99809523D01*
X75945180Y99809523D02*
X75992800Y99857142D01*
X75992800Y99857142D02*
X76040419Y99809523D01*
X76040419Y99809523D02*
X75945180Y99809523D01*
X76945180Y99428571D02*
X76945180Y98809524D01*
X76945180Y98809524D02*
X76564228Y99142857D01*
X76564228Y99142857D02*
X76564228Y99000000D01*
X76564228Y99000000D02*
X76516609Y98904762D01*
X76516609Y98904762D02*
X76468990Y98857143D01*
X76468990Y98857143D02*
X76373752Y98809524D01*
X76373752Y98809524D02*
X76135657Y98809524D01*
X76135657Y98809524D02*
X76040419Y98857143D01*
X76040419Y98857143D02*
X75992800Y98904762D01*
X75992800Y98904762D02*
X75945180Y99000000D01*
X75945180Y99000000D02*
X75945180Y99285714D01*
X75945180Y99285714D02*
X75992800Y99380952D01*
X75992800Y99380952D02*
X76040419Y99428571D01*
X76040419Y97047619D02*
X75992800Y97095238D01*
X75992800Y97095238D02*
X75945180Y97238095D01*
X75945180Y97238095D02*
X75945180Y97333333D01*
X75945180Y97333333D02*
X75992800Y97476190D01*
X75992800Y97476190D02*
X76088038Y97571428D01*
X76088038Y97571428D02*
X76183276Y97619047D01*
X76183276Y97619047D02*
X76373752Y97666666D01*
X76373752Y97666666D02*
X76516609Y97666666D01*
X76516609Y97666666D02*
X76707085Y97619047D01*
X76707085Y97619047D02*
X76802323Y97571428D01*
X76802323Y97571428D02*
X76897561Y97476190D01*
X76897561Y97476190D02*
X76945180Y97333333D01*
X76945180Y97333333D02*
X76945180Y97238095D01*
X76945180Y97238095D02*
X76897561Y97095238D01*
X76897561Y97095238D02*
X76849942Y97047619D01*
X75945180Y96619047D02*
X76945180Y96619047D01*
X75945180Y96047619D02*
X76516609Y96476190D01*
X76945180Y96047619D02*
X76373752Y96619047D01*
X-77045181Y96619048D02*
X-77045181Y96714286D01*
X-77045181Y96714286D02*
X-76997562Y96809524D01*
X-76997562Y96809524D02*
X-76949943Y96857143D01*
X-76949943Y96857143D02*
X-76854705Y96904762D01*
X-76854705Y96904762D02*
X-76664229Y96952381D01*
X-76664229Y96952381D02*
X-76426134Y96952381D01*
X-76426134Y96952381D02*
X-76235658Y96904762D01*
X-76235658Y96904762D02*
X-76140420Y96857143D01*
X-76140420Y96857143D02*
X-76092800Y96809524D01*
X-76092800Y96809524D02*
X-76045181Y96714286D01*
X-76045181Y96714286D02*
X-76045181Y96619048D01*
X-76045181Y96619048D02*
X-76092800Y96523810D01*
X-76092800Y96523810D02*
X-76140420Y96476191D01*
X-76140420Y96476191D02*
X-76235658Y96428572D01*
X-76235658Y96428572D02*
X-76426134Y96380953D01*
X-76426134Y96380953D02*
X-76664229Y96380953D01*
X-76664229Y96380953D02*
X-76854705Y96428572D01*
X-76854705Y96428572D02*
X-76949943Y96476191D01*
X-76949943Y96476191D02*
X-76997562Y96523810D01*
X-76997562Y96523810D02*
X-77045181Y96619048D01*
X-76711848Y97285715D02*
X-76045181Y97523810D01*
X-76045181Y97523810D02*
X-76711848Y97761905D01*
X-77045181Y98809525D02*
X-76045181Y99047620D01*
X-76045181Y99047620D02*
X-76759467Y99238096D01*
X-76759467Y99238096D02*
X-76045181Y99428572D01*
X-76045181Y99428572D02*
X-77045181Y99666667D01*
X-76092800Y100000001D02*
X-76045181Y100142858D01*
X-76045181Y100142858D02*
X-76045181Y100380953D01*
X-76045181Y100380953D02*
X-76092800Y100476191D01*
X-76092800Y100476191D02*
X-76140420Y100523810D01*
X-76140420Y100523810D02*
X-76235658Y100571429D01*
X-76235658Y100571429D02*
X-76330896Y100571429D01*
X-76330896Y100571429D02*
X-76426134Y100523810D01*
X-76426134Y100523810D02*
X-76473753Y100476191D01*
X-76473753Y100476191D02*
X-76521372Y100380953D01*
X-76521372Y100380953D02*
X-76568991Y100190477D01*
X-76568991Y100190477D02*
X-76616610Y100095239D01*
X-76616610Y100095239D02*
X-76664229Y100047620D01*
X-76664229Y100047620D02*
X-76759467Y100000001D01*
X-76759467Y100000001D02*
X-76854705Y100000001D01*
X-76854705Y100000001D02*
X-76949943Y100047620D01*
X-76949943Y100047620D02*
X-76997562Y100095239D01*
X-76997562Y100095239D02*
X-77045181Y100190477D01*
X-77045181Y100190477D02*
X-77045181Y100428572D01*
X-77045181Y100428572D02*
X-76997562Y100571429D01*
X-76092800Y101714287D02*
X-76045181Y101857144D01*
X-76045181Y101857144D02*
X-76045181Y102095239D01*
X-76045181Y102095239D02*
X-76092800Y102190477D01*
X-76092800Y102190477D02*
X-76140420Y102238096D01*
X-76140420Y102238096D02*
X-76235658Y102285715D01*
X-76235658Y102285715D02*
X-76330896Y102285715D01*
X-76330896Y102285715D02*
X-76426134Y102238096D01*
X-76426134Y102238096D02*
X-76473753Y102190477D01*
X-76473753Y102190477D02*
X-76521372Y102095239D01*
X-76521372Y102095239D02*
X-76568991Y101904763D01*
X-76568991Y101904763D02*
X-76616610Y101809525D01*
X-76616610Y101809525D02*
X-76664229Y101761906D01*
X-76664229Y101761906D02*
X-76759467Y101714287D01*
X-76759467Y101714287D02*
X-76854705Y101714287D01*
X-76854705Y101714287D02*
X-76949943Y101761906D01*
X-76949943Y101761906D02*
X-76997562Y101809525D01*
X-76997562Y101809525D02*
X-77045181Y101904763D01*
X-77045181Y101904763D02*
X-77045181Y102142858D01*
X-77045181Y102142858D02*
X-76997562Y102285715D01*
X-76045181Y102714287D02*
X-77045181Y102714287D01*
X-77045181Y104142858D02*
X-77045181Y104238096D01*
X-77045181Y104238096D02*
X-76997562Y104333334D01*
X-76997562Y104333334D02*
X-76949943Y104380953D01*
X-76949943Y104380953D02*
X-76854705Y104428572D01*
X-76854705Y104428572D02*
X-76664229Y104476191D01*
X-76664229Y104476191D02*
X-76426134Y104476191D01*
X-76426134Y104476191D02*
X-76235658Y104428572D01*
X-76235658Y104428572D02*
X-76140420Y104380953D01*
X-76140420Y104380953D02*
X-76092800Y104333334D01*
X-76092800Y104333334D02*
X-76045181Y104238096D01*
X-76045181Y104238096D02*
X-76045181Y104142858D01*
X-76045181Y104142858D02*
X-76092800Y104047620D01*
X-76092800Y104047620D02*
X-76140420Y104000001D01*
X-76140420Y104000001D02*
X-76235658Y103952382D01*
X-76235658Y103952382D02*
X-76426134Y103904763D01*
X-76426134Y103904763D02*
X-76664229Y103904763D01*
X-76664229Y103904763D02*
X-76854705Y103952382D01*
X-76854705Y103952382D02*
X-76949943Y104000001D01*
X-76949943Y104000001D02*
X-76997562Y104047620D01*
X-76997562Y104047620D02*
X-77045181Y104142858D01*
X-76711848Y104809525D02*
X-76045181Y105047620D01*
X-76045181Y105047620D02*
X-76711848Y105285715D01*
X-77045181Y106619049D02*
X-77045181Y106714287D01*
X-77045181Y106714287D02*
X-76997562Y106809525D01*
X-76997562Y106809525D02*
X-76949943Y106857144D01*
X-76949943Y106857144D02*
X-76854705Y106904763D01*
X-76854705Y106904763D02*
X-76664229Y106952382D01*
X-76664229Y106952382D02*
X-76426134Y106952382D01*
X-76426134Y106952382D02*
X-76235658Y106904763D01*
X-76235658Y106904763D02*
X-76140420Y106857144D01*
X-76140420Y106857144D02*
X-76092800Y106809525D01*
X-76092800Y106809525D02*
X-76045181Y106714287D01*
X-76045181Y106714287D02*
X-76045181Y106619049D01*
X-76045181Y106619049D02*
X-76092800Y106523811D01*
X-76092800Y106523811D02*
X-76140420Y106476192D01*
X-76140420Y106476192D02*
X-76235658Y106428573D01*
X-76235658Y106428573D02*
X-76426134Y106380954D01*
X-76426134Y106380954D02*
X-76664229Y106380954D01*
X-76664229Y106380954D02*
X-76854705Y106428573D01*
X-76854705Y106428573D02*
X-76949943Y106476192D01*
X-76949943Y106476192D02*
X-76997562Y106523811D01*
X-76997562Y106523811D02*
X-77045181Y106619049D01*
X-76711848Y107285716D02*
X-76045181Y107523811D01*
X-76045181Y107523811D02*
X-76711848Y107761906D01*
X-77045181Y108809526D02*
X-77045181Y109428573D01*
X-77045181Y109428573D02*
X-76664229Y109095240D01*
X-76664229Y109095240D02*
X-76664229Y109238097D01*
X-76664229Y109238097D02*
X-76616610Y109333335D01*
X-76616610Y109333335D02*
X-76568991Y109380954D01*
X-76568991Y109380954D02*
X-76473753Y109428573D01*
X-76473753Y109428573D02*
X-76235658Y109428573D01*
X-76235658Y109428573D02*
X-76140420Y109380954D01*
X-76140420Y109380954D02*
X-76092800Y109333335D01*
X-76092800Y109333335D02*
X-76045181Y109238097D01*
X-76045181Y109238097D02*
X-76045181Y108952383D01*
X-76045181Y108952383D02*
X-76092800Y108857145D01*
X-76092800Y108857145D02*
X-76140420Y108809526D01*
X-76140420Y109857145D02*
X-76092800Y109904764D01*
X-76092800Y109904764D02*
X-76045181Y109857145D01*
X-76045181Y109857145D02*
X-76092800Y109809526D01*
X-76092800Y109809526D02*
X-76140420Y109857145D01*
X-76140420Y109857145D02*
X-76045181Y109857145D01*
X-77045181Y110238097D02*
X-77045181Y110857144D01*
X-77045181Y110857144D02*
X-76664229Y110523811D01*
X-76664229Y110523811D02*
X-76664229Y110666668D01*
X-76664229Y110666668D02*
X-76616610Y110761906D01*
X-76616610Y110761906D02*
X-76568991Y110809525D01*
X-76568991Y110809525D02*
X-76473753Y110857144D01*
X-76473753Y110857144D02*
X-76235658Y110857144D01*
X-76235658Y110857144D02*
X-76140420Y110809525D01*
X-76140420Y110809525D02*
X-76092800Y110761906D01*
X-76092800Y110761906D02*
X-76045181Y110666668D01*
X-76045181Y110666668D02*
X-76045181Y110380954D01*
X-76045181Y110380954D02*
X-76092800Y110285716D01*
X-76092800Y110285716D02*
X-76140420Y110238097D01*
X-76140420Y112619049D02*
X-76092800Y112571430D01*
X-76092800Y112571430D02*
X-76045181Y112428573D01*
X-76045181Y112428573D02*
X-76045181Y112333335D01*
X-76045181Y112333335D02*
X-76092800Y112190478D01*
X-76092800Y112190478D02*
X-76188039Y112095240D01*
X-76188039Y112095240D02*
X-76283277Y112047621D01*
X-76283277Y112047621D02*
X-76473753Y112000002D01*
X-76473753Y112000002D02*
X-76616610Y112000002D01*
X-76616610Y112000002D02*
X-76807086Y112047621D01*
X-76807086Y112047621D02*
X-76902324Y112095240D01*
X-76902324Y112095240D02*
X-76997562Y112190478D01*
X-76997562Y112190478D02*
X-77045181Y112333335D01*
X-77045181Y112333335D02*
X-77045181Y112428573D01*
X-77045181Y112428573D02*
X-76997562Y112571430D01*
X-76997562Y112571430D02*
X-76949943Y112619049D01*
X-76045181Y113047621D02*
X-77045181Y113047621D01*
X-76045181Y113619049D02*
X-76616610Y113190478D01*
X-77045181Y113619049D02*
X-76473753Y113047621D01*
D14*
X-68723808Y138275058D02*
X-68828570Y138327438D01*
X-68828570Y138327438D02*
X-68880951Y138432200D01*
X-68880951Y138432200D02*
X-68880951Y139375058D01*
X-68357142Y138589343D02*
X-67833332Y138589343D01*
X-68461904Y138275058D02*
X-68095237Y139375058D01*
X-68095237Y139375058D02*
X-67728570Y138275058D01*
X-66366666Y138275058D02*
X-66471428Y138327438D01*
X-66471428Y138327438D02*
X-66523809Y138432200D01*
X-66523809Y138432200D02*
X-66523809Y139375058D01*
X-65580952Y138851248D02*
X-65423809Y138798867D01*
X-65423809Y138798867D02*
X-65371428Y138746486D01*
X-65371428Y138746486D02*
X-65319047Y138641724D01*
X-65319047Y138641724D02*
X-65319047Y138484581D01*
X-65319047Y138484581D02*
X-65371428Y138379819D01*
X-65371428Y138379819D02*
X-65423809Y138327438D01*
X-65423809Y138327438D02*
X-65528571Y138275058D01*
X-65528571Y138275058D02*
X-65947619Y138275058D01*
X-65947619Y138275058D02*
X-65947619Y139375058D01*
X-65947619Y139375058D02*
X-65580952Y139375058D01*
X-65580952Y139375058D02*
X-65476190Y139322677D01*
X-65476190Y139322677D02*
X-65423809Y139270296D01*
X-65423809Y139270296D02*
X-65371428Y139165534D01*
X-65371428Y139165534D02*
X-65371428Y139060772D01*
X-65371428Y139060772D02*
X-65423809Y138956010D01*
X-65423809Y138956010D02*
X-65476190Y138903629D01*
X-65476190Y138903629D02*
X-65580952Y138851248D01*
X-65580952Y138851248D02*
X-65947619Y138851248D01*
X-63852381Y138275058D02*
X-63957143Y138327438D01*
X-63957143Y138327438D02*
X-64009524Y138432200D01*
X-64009524Y138432200D02*
X-64009524Y139375058D01*
X-62804762Y138379819D02*
X-62857143Y138327438D01*
X-62857143Y138327438D02*
X-63014286Y138275058D01*
X-63014286Y138275058D02*
X-63119048Y138275058D01*
X-63119048Y138275058D02*
X-63276191Y138327438D01*
X-63276191Y138327438D02*
X-63380953Y138432200D01*
X-63380953Y138432200D02*
X-63433334Y138536962D01*
X-63433334Y138536962D02*
X-63485715Y138746486D01*
X-63485715Y138746486D02*
X-63485715Y138903629D01*
X-63485715Y138903629D02*
X-63433334Y139113153D01*
X-63433334Y139113153D02*
X-63380953Y139217915D01*
X-63380953Y139217915D02*
X-63276191Y139322677D01*
X-63276191Y139322677D02*
X-63119048Y139375058D01*
X-63119048Y139375058D02*
X-63014286Y139375058D01*
X-63014286Y139375058D02*
X-62857143Y139322677D01*
X-62857143Y139322677D02*
X-62804762Y139270296D01*
X-61338096Y138275058D02*
X-61442858Y138327438D01*
X-61442858Y138327438D02*
X-61495239Y138432200D01*
X-61495239Y138432200D02*
X-61495239Y139375058D01*
X-60919049Y138275058D02*
X-60919049Y139375058D01*
X-60919049Y139375058D02*
X-60657144Y139375058D01*
X-60657144Y139375058D02*
X-60500001Y139322677D01*
X-60500001Y139322677D02*
X-60395239Y139217915D01*
X-60395239Y139217915D02*
X-60342858Y139113153D01*
X-60342858Y139113153D02*
X-60290477Y138903629D01*
X-60290477Y138903629D02*
X-60290477Y138746486D01*
X-60290477Y138746486D02*
X-60342858Y138536962D01*
X-60342858Y138536962D02*
X-60395239Y138432200D01*
X-60395239Y138432200D02*
X-60500001Y138327438D01*
X-60500001Y138327438D02*
X-60657144Y138275058D01*
X-60657144Y138275058D02*
X-60919049Y138275058D01*
X-58457144Y139375058D02*
X-58980954Y139375058D01*
X-58980954Y139375058D02*
X-59033335Y138851248D01*
X-59033335Y138851248D02*
X-58980954Y138903629D01*
X-58980954Y138903629D02*
X-58876192Y138956010D01*
X-58876192Y138956010D02*
X-58614287Y138956010D01*
X-58614287Y138956010D02*
X-58509525Y138903629D01*
X-58509525Y138903629D02*
X-58457144Y138851248D01*
X-58457144Y138851248D02*
X-58404763Y138746486D01*
X-58404763Y138746486D02*
X-58404763Y138484581D01*
X-58404763Y138484581D02*
X-58457144Y138379819D01*
X-58457144Y138379819D02*
X-58509525Y138327438D01*
X-58509525Y138327438D02*
X-58614287Y138275058D01*
X-58614287Y138275058D02*
X-58876192Y138275058D01*
X-58876192Y138275058D02*
X-58980954Y138327438D01*
X-58980954Y138327438D02*
X-59033335Y138379819D01*
X-58038097Y139008391D02*
X-57776192Y138275058D01*
X-57776192Y138275058D02*
X-57514287Y139008391D01*
X-68697618Y134733182D02*
X-68802380Y134785562D01*
X-68802380Y134785562D02*
X-68854761Y134890324D01*
X-68854761Y134890324D02*
X-68854761Y135833182D01*
X-68278571Y135309372D02*
X-67911904Y135309372D01*
X-67754761Y134733182D02*
X-68278571Y134733182D01*
X-68278571Y134733182D02*
X-68278571Y135833182D01*
X-68278571Y135833182D02*
X-67754761Y135833182D01*
X-66288095Y134733182D02*
X-66392857Y134785562D01*
X-66392857Y134785562D02*
X-66445238Y134890324D01*
X-66445238Y134890324D02*
X-66445238Y135833182D01*
X-65502381Y135309372D02*
X-65869048Y135309372D01*
X-65869048Y134733182D02*
X-65869048Y135833182D01*
X-65869048Y135833182D02*
X-65345238Y135833182D01*
X-63930953Y134733182D02*
X-64035715Y134785562D01*
X-64035715Y134785562D02*
X-64088096Y134890324D01*
X-64088096Y134890324D02*
X-64088096Y135833182D01*
X-62935715Y135780801D02*
X-63040477Y135833182D01*
X-63040477Y135833182D02*
X-63197620Y135833182D01*
X-63197620Y135833182D02*
X-63354763Y135780801D01*
X-63354763Y135780801D02*
X-63459525Y135676039D01*
X-63459525Y135676039D02*
X-63511906Y135571277D01*
X-63511906Y135571277D02*
X-63564287Y135361753D01*
X-63564287Y135361753D02*
X-63564287Y135204610D01*
X-63564287Y135204610D02*
X-63511906Y134995086D01*
X-63511906Y134995086D02*
X-63459525Y134890324D01*
X-63459525Y134890324D02*
X-63354763Y134785562D01*
X-63354763Y134785562D02*
X-63197620Y134733182D01*
X-63197620Y134733182D02*
X-63092858Y134733182D01*
X-63092858Y134733182D02*
X-62935715Y134785562D01*
X-62935715Y134785562D02*
X-62883334Y134837943D01*
X-62883334Y134837943D02*
X-62883334Y135204610D01*
X-62883334Y135204610D02*
X-63092858Y135204610D01*
X-61416668Y134733182D02*
X-61521430Y134785562D01*
X-61521430Y134785562D02*
X-61573811Y134890324D01*
X-61573811Y134890324D02*
X-61573811Y135833182D01*
X-60997621Y134733182D02*
X-60997621Y135833182D01*
X-60997621Y135309372D02*
X-60369049Y135309372D01*
X-60369049Y134733182D02*
X-60369049Y135833182D01*
X-58797621Y135833182D02*
X-58692859Y135833182D01*
X-58692859Y135833182D02*
X-58588097Y135780801D01*
X-58588097Y135780801D02*
X-58535716Y135728420D01*
X-58535716Y135728420D02*
X-58483335Y135623658D01*
X-58483335Y135623658D02*
X-58430954Y135414134D01*
X-58430954Y135414134D02*
X-58430954Y135152229D01*
X-58430954Y135152229D02*
X-58483335Y134942705D01*
X-58483335Y134942705D02*
X-58535716Y134837943D01*
X-58535716Y134837943D02*
X-58588097Y134785562D01*
X-58588097Y134785562D02*
X-58692859Y134733182D01*
X-58692859Y134733182D02*
X-58797621Y134733182D01*
X-58797621Y134733182D02*
X-58902383Y134785562D01*
X-58902383Y134785562D02*
X-58954764Y134837943D01*
X-58954764Y134837943D02*
X-59007145Y134942705D01*
X-59007145Y134942705D02*
X-59059526Y135152229D01*
X-59059526Y135152229D02*
X-59059526Y135414134D01*
X-59059526Y135414134D02*
X-59007145Y135623658D01*
X-59007145Y135623658D02*
X-58954764Y135728420D01*
X-58954764Y135728420D02*
X-58902383Y135780801D01*
X-58902383Y135780801D02*
X-58797621Y135833182D01*
X-58064288Y135466515D02*
X-57802383Y134733182D01*
X-57802383Y134733182D02*
X-57540478Y135466515D01*
X-59723808Y63275058D02*
X-59828570Y63327438D01*
X-59828570Y63327438D02*
X-59880951Y63432200D01*
X-59880951Y63432200D02*
X-59880951Y64375058D01*
X-59357142Y63589343D02*
X-58833332Y63589343D01*
X-59461904Y63275058D02*
X-59095237Y64375058D01*
X-59095237Y64375058D02*
X-58728570Y63275058D01*
X-57366666Y63275058D02*
X-57471428Y63327438D01*
X-57471428Y63327438D02*
X-57523809Y63432200D01*
X-57523809Y63432200D02*
X-57523809Y64375058D01*
X-56580952Y63851248D02*
X-56423809Y63798867D01*
X-56423809Y63798867D02*
X-56371428Y63746486D01*
X-56371428Y63746486D02*
X-56319047Y63641724D01*
X-56319047Y63641724D02*
X-56319047Y63484581D01*
X-56319047Y63484581D02*
X-56371428Y63379819D01*
X-56371428Y63379819D02*
X-56423809Y63327438D01*
X-56423809Y63327438D02*
X-56528571Y63275058D01*
X-56528571Y63275058D02*
X-56947619Y63275058D01*
X-56947619Y63275058D02*
X-56947619Y64375058D01*
X-56947619Y64375058D02*
X-56580952Y64375058D01*
X-56580952Y64375058D02*
X-56476190Y64322677D01*
X-56476190Y64322677D02*
X-56423809Y64270296D01*
X-56423809Y64270296D02*
X-56371428Y64165534D01*
X-56371428Y64165534D02*
X-56371428Y64060772D01*
X-56371428Y64060772D02*
X-56423809Y63956010D01*
X-56423809Y63956010D02*
X-56476190Y63903629D01*
X-56476190Y63903629D02*
X-56580952Y63851248D01*
X-56580952Y63851248D02*
X-56947619Y63851248D01*
X-54852381Y63275058D02*
X-54957143Y63327438D01*
X-54957143Y63327438D02*
X-55009524Y63432200D01*
X-55009524Y63432200D02*
X-55009524Y64375058D01*
X-53804762Y63379819D02*
X-53857143Y63327438D01*
X-53857143Y63327438D02*
X-54014286Y63275058D01*
X-54014286Y63275058D02*
X-54119048Y63275058D01*
X-54119048Y63275058D02*
X-54276191Y63327438D01*
X-54276191Y63327438D02*
X-54380953Y63432200D01*
X-54380953Y63432200D02*
X-54433334Y63536962D01*
X-54433334Y63536962D02*
X-54485715Y63746486D01*
X-54485715Y63746486D02*
X-54485715Y63903629D01*
X-54485715Y63903629D02*
X-54433334Y64113153D01*
X-54433334Y64113153D02*
X-54380953Y64217915D01*
X-54380953Y64217915D02*
X-54276191Y64322677D01*
X-54276191Y64322677D02*
X-54119048Y64375058D01*
X-54119048Y64375058D02*
X-54014286Y64375058D01*
X-54014286Y64375058D02*
X-53857143Y64322677D01*
X-53857143Y64322677D02*
X-53804762Y64270296D01*
X-52338096Y63275058D02*
X-52442858Y63327438D01*
X-52442858Y63327438D02*
X-52495239Y63432200D01*
X-52495239Y63432200D02*
X-52495239Y64375058D01*
X-51919049Y63275058D02*
X-51919049Y64375058D01*
X-51919049Y64375058D02*
X-51657144Y64375058D01*
X-51657144Y64375058D02*
X-51500001Y64322677D01*
X-51500001Y64322677D02*
X-51395239Y64217915D01*
X-51395239Y64217915D02*
X-51342858Y64113153D01*
X-51342858Y64113153D02*
X-51290477Y63903629D01*
X-51290477Y63903629D02*
X-51290477Y63746486D01*
X-51290477Y63746486D02*
X-51342858Y63536962D01*
X-51342858Y63536962D02*
X-51395239Y63432200D01*
X-51395239Y63432200D02*
X-51500001Y63327438D01*
X-51500001Y63327438D02*
X-51657144Y63275058D01*
X-51657144Y63275058D02*
X-51919049Y63275058D01*
X-49457144Y64375058D02*
X-49980954Y64375058D01*
X-49980954Y64375058D02*
X-50033335Y63851248D01*
X-50033335Y63851248D02*
X-49980954Y63903629D01*
X-49980954Y63903629D02*
X-49876192Y63956010D01*
X-49876192Y63956010D02*
X-49614287Y63956010D01*
X-49614287Y63956010D02*
X-49509525Y63903629D01*
X-49509525Y63903629D02*
X-49457144Y63851248D01*
X-49457144Y63851248D02*
X-49404763Y63746486D01*
X-49404763Y63746486D02*
X-49404763Y63484581D01*
X-49404763Y63484581D02*
X-49457144Y63379819D01*
X-49457144Y63379819D02*
X-49509525Y63327438D01*
X-49509525Y63327438D02*
X-49614287Y63275058D01*
X-49614287Y63275058D02*
X-49876192Y63275058D01*
X-49876192Y63275058D02*
X-49980954Y63327438D01*
X-49980954Y63327438D02*
X-50033335Y63379819D01*
X-49038097Y64008391D02*
X-48776192Y63275058D01*
X-48776192Y63275058D02*
X-48514287Y64008391D01*
X-59697618Y59733182D02*
X-59802380Y59785562D01*
X-59802380Y59785562D02*
X-59854761Y59890324D01*
X-59854761Y59890324D02*
X-59854761Y60833182D01*
X-59278571Y60309372D02*
X-58911904Y60309372D01*
X-58754761Y59733182D02*
X-59278571Y59733182D01*
X-59278571Y59733182D02*
X-59278571Y60833182D01*
X-59278571Y60833182D02*
X-58754761Y60833182D01*
X-57288095Y59733182D02*
X-57392857Y59785562D01*
X-57392857Y59785562D02*
X-57445238Y59890324D01*
X-57445238Y59890324D02*
X-57445238Y60833182D01*
X-56502381Y60309372D02*
X-56869048Y60309372D01*
X-56869048Y59733182D02*
X-56869048Y60833182D01*
X-56869048Y60833182D02*
X-56345238Y60833182D01*
X-54930953Y59733182D02*
X-55035715Y59785562D01*
X-55035715Y59785562D02*
X-55088096Y59890324D01*
X-55088096Y59890324D02*
X-55088096Y60833182D01*
X-53935715Y60780801D02*
X-54040477Y60833182D01*
X-54040477Y60833182D02*
X-54197620Y60833182D01*
X-54197620Y60833182D02*
X-54354763Y60780801D01*
X-54354763Y60780801D02*
X-54459525Y60676039D01*
X-54459525Y60676039D02*
X-54511906Y60571277D01*
X-54511906Y60571277D02*
X-54564287Y60361753D01*
X-54564287Y60361753D02*
X-54564287Y60204610D01*
X-54564287Y60204610D02*
X-54511906Y59995086D01*
X-54511906Y59995086D02*
X-54459525Y59890324D01*
X-54459525Y59890324D02*
X-54354763Y59785562D01*
X-54354763Y59785562D02*
X-54197620Y59733182D01*
X-54197620Y59733182D02*
X-54092858Y59733182D01*
X-54092858Y59733182D02*
X-53935715Y59785562D01*
X-53935715Y59785562D02*
X-53883334Y59837943D01*
X-53883334Y59837943D02*
X-53883334Y60204610D01*
X-53883334Y60204610D02*
X-54092858Y60204610D01*
X-52416668Y59733182D02*
X-52521430Y59785562D01*
X-52521430Y59785562D02*
X-52573811Y59890324D01*
X-52573811Y59890324D02*
X-52573811Y60833182D01*
X-51997621Y59733182D02*
X-51997621Y60833182D01*
X-51997621Y60309372D02*
X-51369049Y60309372D01*
X-51369049Y59733182D02*
X-51369049Y60833182D01*
X-49797621Y60833182D02*
X-49692859Y60833182D01*
X-49692859Y60833182D02*
X-49588097Y60780801D01*
X-49588097Y60780801D02*
X-49535716Y60728420D01*
X-49535716Y60728420D02*
X-49483335Y60623658D01*
X-49483335Y60623658D02*
X-49430954Y60414134D01*
X-49430954Y60414134D02*
X-49430954Y60152229D01*
X-49430954Y60152229D02*
X-49483335Y59942705D01*
X-49483335Y59942705D02*
X-49535716Y59837943D01*
X-49535716Y59837943D02*
X-49588097Y59785562D01*
X-49588097Y59785562D02*
X-49692859Y59733182D01*
X-49692859Y59733182D02*
X-49797621Y59733182D01*
X-49797621Y59733182D02*
X-49902383Y59785562D01*
X-49902383Y59785562D02*
X-49954764Y59837943D01*
X-49954764Y59837943D02*
X-50007145Y59942705D01*
X-50007145Y59942705D02*
X-50059526Y60152229D01*
X-50059526Y60152229D02*
X-50059526Y60414134D01*
X-50059526Y60414134D02*
X-50007145Y60623658D01*
X-50007145Y60623658D02*
X-49954764Y60728420D01*
X-49954764Y60728420D02*
X-49902383Y60780801D01*
X-49902383Y60780801D02*
X-49797621Y60833182D01*
X-49064288Y60466515D02*
X-48802383Y59733182D01*
X-48802383Y59733182D02*
X-48540478Y60466515D01*
X-4123809Y147854120D02*
X-4647619Y147854120D01*
X-4647619Y147854120D02*
X-4700000Y147330310D01*
X-4700000Y147330310D02*
X-4647619Y147382691D01*
X-4647619Y147382691D02*
X-4542857Y147435072D01*
X-4542857Y147435072D02*
X-4280952Y147435072D01*
X-4280952Y147435072D02*
X-4176190Y147382691D01*
X-4176190Y147382691D02*
X-4123809Y147330310D01*
X-4123809Y147330310D02*
X-4071428Y147225548D01*
X-4071428Y147225548D02*
X-4071428Y146963643D01*
X-4071428Y146963643D02*
X-4123809Y146858881D01*
X-4123809Y146858881D02*
X-4176190Y146806500D01*
X-4176190Y146806500D02*
X-4280952Y146754120D01*
X-4280952Y146754120D02*
X-4542857Y146754120D01*
X-4542857Y146754120D02*
X-4647619Y146806500D01*
X-4647619Y146806500D02*
X-4700000Y146858881D01*
X-3704762Y147487453D02*
X-3442857Y146754120D01*
X-3442857Y146754120D02*
X-3180952Y147487453D01*
X-2500000Y146387453D02*
X-2500000Y147958881D01*
X-1190476Y147854120D02*
X-1714286Y147854120D01*
X-1714286Y147854120D02*
X-1766667Y147330310D01*
X-1766667Y147330310D02*
X-1714286Y147382691D01*
X-1714286Y147382691D02*
X-1609524Y147435072D01*
X-1609524Y147435072D02*
X-1347619Y147435072D01*
X-1347619Y147435072D02*
X-1242857Y147382691D01*
X-1242857Y147382691D02*
X-1190476Y147330310D01*
X-1190476Y147330310D02*
X-1138095Y147225548D01*
X-1138095Y147225548D02*
X-1138095Y146963643D01*
X-1138095Y146963643D02*
X-1190476Y146858881D01*
X-1190476Y146858881D02*
X-1242857Y146806500D01*
X-1242857Y146806500D02*
X-1347619Y146754120D01*
X-1347619Y146754120D02*
X-1609524Y146754120D01*
X-1609524Y146754120D02*
X-1714286Y146806500D01*
X-1714286Y146806500D02*
X-1766667Y146858881D01*
X-771429Y147487453D02*
X-509524Y146754120D01*
X-509524Y146754120D02*
X-247619Y147487453D01*
D13*
X-809525Y138386181D02*
X-809525Y137671896D01*
X-809525Y137671896D02*
X-857144Y137529039D01*
X-857144Y137529039D02*
X-952382Y137433800D01*
X-952382Y137433800D02*
X-1095239Y137386181D01*
X-1095239Y137386181D02*
X-1190477Y137386181D01*
X190475Y137386181D02*
X-380953Y137386181D01*
X-95239Y137386181D02*
X-95239Y138386181D01*
X-95239Y138386181D02*
X-190477Y138243324D01*
X-190477Y138243324D02*
X-285715Y138148086D01*
X-285715Y138148086D02*
X-380953Y138100467D01*
X1142856Y137386181D02*
X571428Y137386181D01*
X857142Y137386181D02*
X857142Y138386181D01*
X857142Y138386181D02*
X761904Y138243324D01*
X761904Y138243324D02*
X666666Y138148086D01*
X666666Y138148086D02*
X571428Y138100467D01*
X31295819Y145190478D02*
X32010104Y145190478D01*
X32010104Y145190478D02*
X32152961Y145142859D01*
X32152961Y145142859D02*
X32248200Y145047621D01*
X32248200Y145047621D02*
X32295819Y144904764D01*
X32295819Y144904764D02*
X32295819Y144809526D01*
X32295819Y146190478D02*
X32295819Y145619050D01*
X32295819Y145904764D02*
X31295819Y145904764D01*
X31295819Y145904764D02*
X31438676Y145809526D01*
X31438676Y145809526D02*
X31533914Y145714288D01*
X31533914Y145714288D02*
X31581533Y145619050D01*
X31295819Y146809526D02*
X31295819Y146904764D01*
X31295819Y146904764D02*
X31343438Y147000002D01*
X31343438Y147000002D02*
X31391057Y147047621D01*
X31391057Y147047621D02*
X31486295Y147095240D01*
X31486295Y147095240D02*
X31676771Y147142859D01*
X31676771Y147142859D02*
X31914866Y147142859D01*
X31914866Y147142859D02*
X32105342Y147095240D01*
X32105342Y147095240D02*
X32200580Y147047621D01*
X32200580Y147047621D02*
X32248200Y147000002D01*
X32248200Y147000002D02*
X32295819Y146904764D01*
X32295819Y146904764D02*
X32295819Y146809526D01*
X32295819Y146809526D02*
X32248200Y146714288D01*
X32248200Y146714288D02*
X32200580Y146666669D01*
X32200580Y146666669D02*
X32105342Y146619050D01*
X32105342Y146619050D02*
X31914866Y146571431D01*
X31914866Y146571431D02*
X31676771Y146571431D01*
X31676771Y146571431D02*
X31486295Y146619050D01*
X31486295Y146619050D02*
X31391057Y146666669D01*
X31391057Y146666669D02*
X31343438Y146714288D01*
X31343438Y146714288D02*
X31295819Y146809526D01*
D12*
X-46410000Y187600000D02*
X-45840000Y187600000D01*
X-46410000Y182400000D02*
X-46410000Y187600000D01*
X-46410000Y182400000D02*
X-45840000Y182400000D01*
X-45840000Y187600000D02*
X-45840000Y188960000D01*
X-44320000Y187600000D02*
X-43300000Y187600000D01*
X-44320000Y182400000D02*
X-43300000Y182400000D01*
X-41780000Y187600000D02*
X-40760000Y187600000D01*
X-41780000Y182400000D02*
X-40760000Y182400000D01*
X-39240000Y187600000D02*
X-38220000Y187600000D01*
X-39240000Y182400000D02*
X-38220000Y182400000D01*
X-36700000Y187600000D02*
X-35680000Y187600000D01*
X-36700000Y182400000D02*
X-35680000Y182400000D01*
X-34160000Y187600000D02*
X-33590000Y187600000D01*
X-34160000Y182400000D02*
X-33590000Y182400000D01*
X-33590000Y182400000D02*
X-33590000Y187600000D01*
D15*
G36*
X1200082Y114167918D02*
G01*
X1207707Y114021722D01*
X2624317Y114015153D01*
X4040926Y114008583D01*
X4048140Y113735473D01*
X4055355Y113462363D01*
X5345695Y113455773D01*
X6636036Y113449184D01*
X6636036Y112864632D01*
X6636036Y112280081D01*
X7373373Y112280081D01*
X8110710Y112280081D01*
X8110710Y111606307D01*
X8110710Y110932533D01*
X8886186Y110932533D01*
X9661661Y110932533D01*
X9661661Y109788389D01*
X9661661Y108644245D01*
X10208308Y108644245D01*
X10754954Y108644245D01*
X10754954Y106533934D01*
X10754954Y104423624D01*
X10284584Y104423624D01*
X9814214Y104423624D01*
X9814214Y102809110D01*
X9814214Y101194595D01*
X9318802Y101194595D01*
X8823390Y101194595D01*
X8816650Y100450901D01*
X8809909Y99707208D01*
X8104354Y99700449D01*
X7398798Y99693691D01*
X7398798Y98079578D01*
X7398798Y96465466D01*
X5305438Y96465466D01*
X4983607Y96465667D01*
X4676477Y96466250D01*
X4387838Y96467185D01*
X4121483Y96468441D01*
X3881205Y96469988D01*
X3670795Y96471794D01*
X3494046Y96473831D01*
X3354748Y96476067D01*
X3256695Y96478471D01*
X3203679Y96481014D01*
X3195128Y96482416D01*
X3191112Y96510988D01*
X3187435Y96584403D01*
X3184215Y96696654D01*
X3181566Y96841736D01*
X3179605Y97013641D01*
X3178448Y97206363D01*
X3178178Y97359593D01*
X3178178Y98219820D01*
X2479658Y98219820D01*
X1781139Y98219820D01*
X1774461Y98575776D01*
X3483283Y98575776D01*
X3483283Y96770571D01*
X5288488Y96770571D01*
X7093693Y96770571D01*
X7093693Y98575776D01*
X7093693Y100380981D01*
X5288488Y100380981D01*
X3483283Y100380981D01*
X3483283Y98575776D01*
X1774461Y98575776D01*
X1774103Y98594845D01*
X1767067Y98969870D01*
X743693Y98976515D01*
X-279680Y98983160D01*
X-279680Y100024962D01*
X-279680Y101066764D01*
X-1099650Y101073472D01*
X-1919620Y101080181D01*
X25425Y101080181D01*
X25425Y99287688D01*
X902602Y99287688D01*
X1779779Y99287688D01*
X1779779Y100380981D01*
X1779779Y100864065D01*
X1779779Y102440441D01*
X2707807Y102440441D01*
X3635835Y102440441D01*
X3635835Y102656557D01*
X3635835Y102872673D01*
X1830630Y102872673D01*
X25425Y102872673D01*
X25425Y101080181D01*
X-1919620Y101080181D01*
X-1926606Y101493344D01*
X-1933592Y101906507D01*
X-3878008Y101906507D01*
X-5822423Y101906507D01*
X-5822423Y102211612D01*
X-5822423Y102326027D01*
X-5822423Y102745546D01*
X-5517318Y102745546D01*
X-5517318Y102478579D01*
X-5517318Y102211612D01*
X-3724825Y102211612D01*
X-1932333Y102211612D01*
X-1932333Y102597231D01*
X-1627228Y102597231D01*
X-1626877Y102355895D01*
X-1625870Y102130238D01*
X-1624280Y101925329D01*
X-1622177Y101746236D01*
X-1619633Y101598028D01*
X-1616718Y101485774D01*
X-1613504Y101414543D01*
X-1610277Y101389523D01*
X-1581258Y101384950D01*
X-1508318Y101380843D01*
X-1398386Y101377379D01*
X-1258393Y101374731D01*
X-1095268Y101373074D01*
X-936504Y101372573D01*
X-279680Y101372573D01*
X-279680Y102275176D01*
X-279680Y102872673D01*
X-279680Y103177778D01*
X851751Y103177778D01*
X1983183Y103177778D01*
X1983183Y103482883D01*
X1983183Y103787988D01*
X177977Y103787988D01*
X-1627228Y103787988D01*
X-1627228Y102597231D01*
X-1932333Y102597231D01*
X-1932333Y102999800D01*
X-1932333Y103787988D01*
X-2974775Y103787988D01*
X-4017218Y103787988D01*
X-4017218Y103266767D01*
X-4017218Y102745546D01*
X-4767268Y102745546D01*
X-5517318Y102745546D01*
X-5822423Y102745546D01*
X-7030131Y102745546D01*
X-8237838Y102745546D01*
X-8237838Y103164752D01*
X-8237838Y103583959D01*
X-9172223Y103590628D01*
X-10106607Y103597298D01*
X-10113262Y104582533D01*
X-10119917Y105567768D01*
X-10577276Y105567768D01*
X-11034635Y105567768D01*
X-11034635Y107665366D01*
X-10729530Y107665366D01*
X-10729530Y105872873D01*
X-10411712Y105872873D01*
X-10093894Y105872873D01*
X-10093894Y106839040D01*
X-10093894Y107500101D01*
X-9814215Y107500101D01*
X-9814215Y105711846D01*
X-9813980Y105414825D01*
X-9813300Y105132756D01*
X-9812215Y104869748D01*
X-9810762Y104629913D01*
X-9808981Y104417360D01*
X-9806910Y104236199D01*
X-9804587Y104090541D01*
X-9802052Y103984496D01*
X-9799342Y103922175D01*
X-9797264Y103906640D01*
X-9768519Y103902407D01*
X-9695285Y103898560D01*
X-9583927Y103895236D01*
X-9440808Y103892572D01*
X-9272289Y103890705D01*
X-9084735Y103889772D01*
X-9009076Y103889690D01*
X-8237838Y103889690D01*
X-8237838Y105415216D01*
X-8237838Y106635636D01*
X-7932733Y106635636D01*
X-7932733Y104843144D01*
X-7932733Y103050651D01*
X-6127528Y103050651D01*
X-4322323Y103050651D01*
X-4322323Y104093094D01*
X-4322323Y104843144D01*
X-4322323Y106635636D01*
X-6127528Y106635636D01*
X-7932733Y106635636D01*
X-8237838Y106635636D01*
X-8237838Y106661062D01*
X-940741Y106661062D01*
X-940741Y105377078D01*
X-940741Y104093094D01*
X572072Y104093094D01*
X2084884Y104093094D01*
X2084884Y105083796D01*
X2084884Y106074498D01*
X2020900Y106076277D01*
X2389989Y106076277D01*
X2389989Y104627028D01*
X2389989Y103177778D01*
X3165465Y103177778D01*
X3940940Y103177778D01*
X3940940Y102834535D01*
X3940940Y102491292D01*
X4271471Y102491292D01*
X4602002Y102491292D01*
X4602002Y103025396D01*
X4907107Y103025396D01*
X4907107Y102440441D01*
X5441041Y102440441D01*
X5974974Y102440441D01*
X5974974Y101563264D01*
X5974974Y100686087D01*
X6686886Y100686087D01*
X7398798Y100686087D01*
X7398798Y100342347D01*
X7398798Y99998608D01*
X7951801Y100005461D01*
X8504804Y100012313D01*
X8504804Y101804805D01*
X8504804Y103597298D01*
X6705955Y103603825D01*
X4907107Y103610352D01*
X4907107Y103025396D01*
X4602002Y103025396D01*
X4602002Y103037478D01*
X4602002Y103583665D01*
X3998148Y103590481D01*
X3394294Y103597298D01*
X3394225Y103610352D01*
X3389489Y104499900D01*
X5898698Y104499900D01*
X5898698Y103915116D01*
X7347947Y103915116D01*
X8797197Y103915116D01*
X8797197Y102711645D01*
X8797559Y102468966D01*
X8798596Y102241919D01*
X8800236Y102035551D01*
X8802406Y101854907D01*
X8805032Y101705031D01*
X8808042Y101590968D01*
X8811362Y101517763D01*
X8814851Y101490521D01*
X8845558Y101484446D01*
X8916995Y101480377D01*
X9019071Y101478622D01*
X9141694Y101479486D01*
X9164450Y101479928D01*
X9496396Y101486987D01*
X9496396Y102961662D01*
X9496396Y104436337D01*
X8028078Y104442900D01*
X6559759Y104449463D01*
X6559759Y104767074D01*
X6559759Y105084685D01*
X6229229Y105084685D01*
X5898698Y105084685D01*
X5898698Y104499900D01*
X3389489Y104499900D01*
X3387696Y104836787D01*
X3386376Y105084685D01*
X3382902Y105737271D01*
X3381097Y106076277D01*
X2885543Y106076277D01*
X2389989Y106076277D01*
X2020900Y106076277D01*
X1824274Y106081744D01*
X1563663Y106088989D01*
X1559949Y106381382D01*
X1556801Y106629280D01*
X1549939Y107169570D01*
X1856056Y107169570D01*
X1856056Y106775476D01*
X1856056Y106381382D01*
X3661261Y106381382D01*
X5466466Y106381382D01*
X5466466Y106711912D01*
X6839439Y106711912D01*
X6839439Y105737271D01*
X6839867Y105519455D01*
X6841086Y105317721D01*
X6843001Y105137696D01*
X6845515Y104985004D01*
X6848533Y104865273D01*
X6851957Y104784129D01*
X6855692Y104747197D01*
X6856389Y104745680D01*
X6884003Y104742866D01*
X6958357Y104740199D01*
X7075341Y104737717D01*
X7230845Y104735457D01*
X7420758Y104733459D01*
X7640970Y104731762D01*
X7887372Y104730403D01*
X8155851Y104729422D01*
X8442299Y104728857D01*
X8661594Y104728729D01*
X10449849Y104728729D01*
X10449849Y106533934D01*
X10449849Y108339140D01*
X10055755Y108339140D01*
X9661661Y108339140D01*
X9661661Y107525526D01*
X9661661Y106711912D01*
X8250550Y106711912D01*
X6839439Y106711912D01*
X5466466Y106711912D01*
X5466466Y107017018D01*
X5466466Y108058947D01*
X5771571Y108058947D01*
X5771571Y107537982D01*
X5771571Y107017018D01*
X7564064Y107017018D01*
X9356556Y107017018D01*
X9356556Y108822223D01*
X9356556Y110627428D01*
X8733868Y110627428D01*
X8111181Y110627428D01*
X8104589Y109349800D01*
X8097997Y108072173D01*
X6934784Y108065560D01*
X5771571Y108058947D01*
X5466466Y108058947D01*
X5466466Y108186587D01*
X5466466Y108364565D01*
X5466466Y109254455D01*
X5771571Y109254455D01*
X5771571Y108809510D01*
X5771571Y108364565D01*
X6788588Y108364565D01*
X7805605Y108364565D01*
X7805605Y110169770D01*
X7805605Y111974975D01*
X7220820Y111974975D01*
X6636036Y111974975D01*
X6636036Y110614715D01*
X6636036Y109254455D01*
X6203803Y109254455D01*
X5771571Y109254455D01*
X5466466Y109254455D01*
X5466466Y109991792D01*
X4055355Y109991792D01*
X2644244Y109991792D01*
X2644244Y108580681D01*
X2644244Y107169570D01*
X2250150Y107169570D01*
X1856056Y107169570D01*
X1549939Y107169570D01*
X609704Y107169570D01*
X-330531Y107169570D01*
X-330531Y106915316D01*
X-330531Y106661062D01*
X-635636Y106661062D01*
X-940741Y106661062D01*
X-8237838Y106661062D01*
X-8237838Y106940741D01*
X-7220821Y106940741D01*
X-6203804Y106940741D01*
X-6203804Y107220421D01*
X-6203804Y107500101D01*
X-8009010Y107500101D01*
X-9814215Y107500101D01*
X-10093894Y107500101D01*
X-10093894Y107805206D01*
X-8606507Y107805206D01*
X-7119120Y107805206D01*
X-7119120Y108631532D01*
X-7119120Y108695096D01*
X-5898699Y108695096D01*
X-5898699Y107817918D01*
X-5898699Y106940741D01*
X-5530546Y106940741D01*
X-5162394Y106940741D01*
X-5155521Y107468319D01*
X-5148649Y107995896D01*
X-3769320Y108002472D01*
X-2389990Y108009047D01*
X-2389990Y108657176D01*
X-2389990Y109305306D01*
X-3292593Y109305306D01*
X-4195196Y109305306D01*
X-4195196Y109000201D01*
X-4195196Y108695096D01*
X-5046947Y108695096D01*
X-5898699Y108695096D01*
X-7119120Y108695096D01*
X-7119120Y109457858D01*
X-8924325Y109457858D01*
X-10729530Y109457858D01*
X-10729530Y107665366D01*
X-11034635Y107665366D01*
X-11034635Y109457858D01*
X-11034635Y109762963D01*
X-10577330Y109762963D01*
X-10120024Y109762963D01*
X-10113316Y110582933D01*
X-10106607Y111402903D01*
X-9248499Y111409598D01*
X-8390391Y111416293D01*
X-8390391Y112000401D01*
X-8085286Y112000401D01*
X-8085286Y111415616D01*
X-6991992Y111415616D01*
X-5898699Y111415616D01*
X-5898699Y110207908D01*
X-5898699Y109000201D01*
X-5186787Y109000201D01*
X-4474875Y109000201D01*
X-4474875Y110093494D01*
X-4195196Y110093494D01*
X-4195196Y109610411D01*
X-3140041Y109610411D01*
X-2084885Y109610411D01*
X-2084885Y108809996D01*
X-2084885Y108009582D01*
X-1519170Y108002739D01*
X-953454Y107995896D01*
X-946571Y107481032D01*
X-939688Y106966167D01*
X-787662Y106966167D01*
X-635636Y106966167D01*
X-635636Y108771372D01*
X-635636Y110576577D01*
X-2415416Y110576577D01*
X-4195196Y110576577D01*
X-4195196Y110093494D01*
X-4474875Y110093494D01*
X-4474875Y110576577D01*
X-4474875Y110792693D01*
X-4474875Y112585186D01*
X-6280081Y112585186D01*
X-8085286Y112585186D01*
X-8085286Y112000401D01*
X-8390391Y112000401D01*
X-8390391Y112153292D01*
X-8390391Y112585186D01*
X-8390391Y112890291D01*
X-7208754Y112890291D01*
X-6027118Y112890291D01*
X-6022672Y113144545D01*
X-5720721Y113144545D01*
X-5720721Y112890291D01*
X-4957958Y112890291D01*
X-4195196Y112890291D01*
X-4195196Y111885986D01*
X-4195196Y110881682D01*
X-3152753Y110881682D01*
X-2110311Y110881682D01*
X-2110311Y112140241D01*
X-2110311Y113398799D01*
X-3915516Y113398799D01*
X-5720721Y113398799D01*
X-5720721Y113144545D01*
X-6022672Y113144545D01*
X-6020116Y113290741D01*
X-6018227Y113398799D01*
X-6013114Y113691192D01*
X-4506657Y113697750D01*
X-3000201Y113704308D01*
X-3000201Y113856457D01*
X-2695096Y113856457D01*
X-2695096Y113703904D01*
X-2250151Y113703904D01*
X-1805206Y113703904D01*
X-1805206Y112292793D01*
X-1805206Y110881682D01*
X-1067868Y110881682D01*
X-330531Y110881682D01*
X-330531Y110640141D01*
X-330531Y110398599D01*
X279679Y110398599D01*
X889889Y110398599D01*
X889889Y111364765D01*
X1194487Y111364765D01*
X1919365Y111364765D01*
X2644244Y111364765D01*
X2644244Y110830831D01*
X2644244Y110296897D01*
X3203782Y110296897D01*
X3763320Y110296897D01*
X3757877Y111721059D01*
X4042642Y111721059D01*
X4042642Y110297574D01*
X4900750Y110290879D01*
X5758858Y110284185D01*
X5765913Y109921872D01*
X5772967Y109559560D01*
X6051949Y109559560D01*
X6330930Y109559560D01*
X6330930Y111352053D01*
X6330930Y113144545D01*
X5186786Y113144545D01*
X4042642Y113144545D01*
X4042642Y111721059D01*
X3757877Y111721059D01*
X3756785Y112006757D01*
X3752436Y113144545D01*
X3750250Y113716617D01*
X2478978Y113716617D01*
X1207707Y113716617D01*
X1201097Y112540691D01*
X1194487Y111364765D01*
X889889Y111364765D01*
X889889Y112203804D01*
X889889Y114009010D01*
X-902603Y114009010D01*
X-2695096Y114009010D01*
X-2695096Y113856457D01*
X-3000201Y113856457D01*
X-3000201Y114009010D01*
X-3000201Y114009211D01*
X-3000201Y114314115D01*
X-903872Y114314115D01*
X1192457Y114314115D01*
X1200082Y114167918D01*
G37*
D12*
X33590000Y187600000D02*
X34160000Y187600000D01*
X33590000Y182400000D02*
X33590000Y187600000D01*
X33590000Y182400000D02*
X34160000Y182400000D01*
X34160000Y187600000D02*
X34160000Y188960000D01*
X35680000Y187600000D02*
X36700000Y187600000D01*
X35680000Y182400000D02*
X36700000Y182400000D01*
X38220000Y187600000D02*
X39240000Y187600000D01*
X38220000Y182400000D02*
X39240000Y182400000D01*
X40760000Y187600000D02*
X41780000Y187600000D01*
X40760000Y182400000D02*
X41780000Y182400000D01*
X43300000Y187600000D02*
X44320000Y187600000D01*
X43300000Y182400000D02*
X44320000Y182400000D01*
X45840000Y187600000D02*
X46410000Y187600000D01*
X45840000Y182400000D02*
X46410000Y182400000D01*
X46410000Y182400000D02*
X46410000Y187600000D01*
X-79605000Y57855000D02*
X-78275000Y57855000D01*
X-79605000Y56525000D02*
X-79605000Y57855000D01*
X-79605000Y55255000D02*
X-79605000Y50115000D01*
X-79605000Y55255000D02*
X-77005000Y55255000D01*
X-79605000Y50115000D02*
X-74405000Y50115000D01*
X-77005000Y57855000D02*
X-74405000Y57855000D01*
X-77005000Y55255000D02*
X-77005000Y57855000D01*
X-74405000Y57855000D02*
X-74405000Y50115000D01*
X74380000Y57870000D02*
X75710000Y57870000D01*
X74380000Y56540000D02*
X74380000Y57870000D01*
X74380000Y55270000D02*
X74380000Y50130000D01*
X74380000Y55270000D02*
X76980000Y55270000D01*
X74380000Y50130000D02*
X79580000Y50130000D01*
X76980000Y57870000D02*
X79580000Y57870000D01*
X76980000Y55270000D02*
X76980000Y57870000D01*
X79580000Y57870000D02*
X79580000Y50130000D01*
X42590000Y139600000D02*
X43160000Y139600000D01*
X42590000Y134400000D02*
X42590000Y139600000D01*
X42590000Y134400000D02*
X43160000Y134400000D01*
X43160000Y139600000D02*
X43160000Y140960000D01*
X44680000Y139600000D02*
X45700000Y139600000D01*
X44680000Y134400000D02*
X45700000Y134400000D01*
X47220000Y139600000D02*
X48240000Y139600000D01*
X47220000Y134400000D02*
X48240000Y134400000D01*
X49760000Y139600000D02*
X50780000Y139600000D01*
X49760000Y134400000D02*
X50780000Y134400000D01*
X52300000Y139600000D02*
X53320000Y139600000D01*
X52300000Y134400000D02*
X53320000Y134400000D01*
X54840000Y139600000D02*
X55410000Y139600000D01*
X54840000Y134400000D02*
X55410000Y134400000D01*
X55410000Y134400000D02*
X55410000Y139600000D01*
X-84600000Y113950000D02*
X-84600000Y113380000D01*
X-84600000Y113950000D02*
X-79400000Y113950000D01*
X-84600000Y111860000D02*
X-84600000Y110840000D01*
X-84600000Y109320000D02*
X-84600000Y108300000D01*
X-84600000Y106780000D02*
X-84600000Y105760000D01*
X-84600000Y104240000D02*
X-84600000Y103220000D01*
X-84600000Y101700000D02*
X-84600000Y100680000D01*
X-84600000Y99160000D02*
X-84600000Y98140000D01*
X-84600000Y96620000D02*
X-84600000Y96050000D01*
X-84600000Y96050000D02*
X-79400000Y96050000D01*
X-79400000Y113950000D02*
X-79400000Y113380000D01*
X-79400000Y113380000D02*
X-78040000Y113380000D01*
X-79400000Y111860000D02*
X-79400000Y110840000D01*
X-79400000Y109320000D02*
X-79400000Y108300000D01*
X-79400000Y106780000D02*
X-79400000Y105760000D01*
X-79400000Y104240000D02*
X-79400000Y103220000D01*
X-79400000Y101700000D02*
X-79400000Y100680000D01*
X-79400000Y99160000D02*
X-79400000Y98140000D01*
X-79400000Y96620000D02*
X-79400000Y96050000D01*
X-6077002Y144432300D02*
X-6077002Y139280039D01*
X-4217161Y135567700D02*
X4217158Y135567700D01*
X-3828040Y144432300D02*
X-6077002Y144432300D01*
X-1828042Y144432300D02*
X-2171960Y144432300D01*
X171959Y144432300D02*
X-171962Y144432300D01*
X2171958Y144432300D02*
X1828039Y144432300D01*
X6077000Y144432300D02*
X3828038Y144432300D01*
X6077000Y139280039D02*
X6077000Y144432300D01*
X-6331001Y142944701D02*
G75*
G02*
X-7093001Y142944701I-381000J0D01*
G01*
X-7093001Y142944701D02*
G75*
G02*
X-6331001Y142944701I381000J0D01*
G01*
X-8950000Y194600000D02*
X-8380000Y194600000D01*
X-8950000Y189400000D02*
X-8950000Y194600000D01*
X-8950000Y189400000D02*
X-8380000Y189400000D01*
X-8380000Y194600000D02*
X-8380000Y195960000D01*
X-6860000Y194600000D02*
X-5840000Y194600000D01*
X-6860000Y189400000D02*
X-5840000Y189400000D01*
X-4320000Y194600000D02*
X-3300000Y194600000D01*
X-4320000Y189400000D02*
X-3300000Y189400000D01*
X-1780000Y194600000D02*
X-760000Y194600000D01*
X-1780000Y189400000D02*
X-760000Y189400000D01*
X760000Y194600000D02*
X1780000Y194600000D01*
X760000Y189400000D02*
X1780000Y189400000D01*
X3300000Y194600000D02*
X4320000Y194600000D01*
X3300000Y189400000D02*
X4320000Y189400000D01*
X5840000Y194600000D02*
X6860000Y194600000D01*
X5840000Y189400000D02*
X6860000Y189400000D01*
X8380000Y194600000D02*
X8950000Y194600000D01*
X8380000Y189400000D02*
X8950000Y189400000D01*
X8950000Y189400000D02*
X8950000Y194600000D01*
X31400000Y132410000D02*
X31400000Y131840000D01*
X31400000Y132410000D02*
X36600000Y132410000D01*
X31400000Y130320000D02*
X31400000Y129300000D01*
X31400000Y127780000D02*
X31400000Y126760000D01*
X31400000Y125240000D02*
X31400000Y124220000D01*
X31400000Y122700000D02*
X31400000Y121680000D01*
X31400000Y120160000D02*
X31400000Y119590000D01*
X31400000Y119590000D02*
X36600000Y119590000D01*
X36600000Y132410000D02*
X36600000Y131840000D01*
X36600000Y131840000D02*
X37960000Y131840000D01*
X36600000Y130320000D02*
X36600000Y129300000D01*
X36600000Y127780000D02*
X36600000Y126760000D01*
X36600000Y125240000D02*
X36600000Y124220000D01*
X36600000Y122700000D02*
X36600000Y121680000D01*
X36600000Y120160000D02*
X36600000Y119590000D01*
X-55410000Y139600000D02*
X-54840000Y139600000D01*
X-55410000Y134400000D02*
X-55410000Y139600000D01*
X-55410000Y134400000D02*
X-54840000Y134400000D01*
X-54840000Y139600000D02*
X-54840000Y140960000D01*
X-53320000Y139600000D02*
X-52300000Y139600000D01*
X-53320000Y134400000D02*
X-52300000Y134400000D01*
X-50780000Y139600000D02*
X-49760000Y139600000D01*
X-50780000Y134400000D02*
X-49760000Y134400000D01*
X-48240000Y139600000D02*
X-47220000Y139600000D01*
X-48240000Y134400000D02*
X-47220000Y134400000D01*
X-45700000Y139600000D02*
X-44680000Y139600000D01*
X-45700000Y134400000D02*
X-44680000Y134400000D01*
X-43160000Y139600000D02*
X-42590000Y139600000D01*
X-43160000Y134400000D02*
X-42590000Y134400000D01*
X-42590000Y134400000D02*
X-42590000Y139600000D01*
X-46410000Y64600000D02*
X-45840000Y64600000D01*
X-46410000Y59400000D02*
X-46410000Y64600000D01*
X-46410000Y59400000D02*
X-45840000Y59400000D01*
X-45840000Y64600000D02*
X-45840000Y65960000D01*
X-44320000Y64600000D02*
X-43300000Y64600000D01*
X-44320000Y59400000D02*
X-43300000Y59400000D01*
X-41780000Y64600000D02*
X-40760000Y64600000D01*
X-41780000Y59400000D02*
X-40760000Y59400000D01*
X-39240000Y64600000D02*
X-38220000Y64600000D01*
X-39240000Y59400000D02*
X-38220000Y59400000D01*
X-36700000Y64600000D02*
X-35680000Y64600000D01*
X-36700000Y59400000D02*
X-35680000Y59400000D01*
X-34160000Y64600000D02*
X-33590000Y64600000D01*
X-34160000Y59400000D02*
X-33590000Y59400000D01*
X-33590000Y59400000D02*
X-33590000Y64600000D01*
X29567700Y150217161D02*
X29567700Y141782842D01*
X33280039Y139923000D02*
X38432300Y139923000D01*
X38432300Y152077002D02*
X33280039Y152077002D01*
X38432300Y149828040D02*
X38432300Y152077002D01*
X38432300Y147828042D02*
X38432300Y148171960D01*
X38432300Y145828041D02*
X38432300Y146171962D01*
X38432300Y143828042D02*
X38432300Y144171961D01*
X38432300Y139923000D02*
X38432300Y142171962D01*
X79400000Y113950000D02*
X79400000Y113380000D01*
X79400000Y113950000D02*
X84600000Y113950000D01*
X79400000Y111860000D02*
X79400000Y110840000D01*
X79400000Y109320000D02*
X79400000Y108300000D01*
X79400000Y106780000D02*
X79400000Y105760000D01*
X79400000Y104240000D02*
X79400000Y103220000D01*
X79400000Y101700000D02*
X79400000Y100680000D01*
X79400000Y99160000D02*
X79400000Y98140000D01*
X79400000Y96620000D02*
X79400000Y96050000D01*
X79400000Y96050000D02*
X84600000Y96050000D01*
X84600000Y113950000D02*
X84600000Y113380000D01*
X84600000Y113380000D02*
X85960000Y113380000D01*
X84600000Y111860000D02*
X84600000Y110840000D01*
X84600000Y109320000D02*
X84600000Y108300000D01*
X84600000Y106780000D02*
X84600000Y105760000D01*
X84600000Y104240000D02*
X84600000Y103220000D01*
X84600000Y101700000D02*
X84600000Y100680000D01*
X84600000Y99160000D02*
X84600000Y98140000D01*
X84600000Y96620000D02*
X84600000Y96050000D01*
X31400000Y172410000D02*
X31400000Y171840000D01*
X31400000Y172410000D02*
X36600000Y172410000D01*
X31400000Y170320000D02*
X31400000Y169300000D01*
X31400000Y167780000D02*
X31400000Y166760000D01*
X31400000Y165240000D02*
X31400000Y164220000D01*
X31400000Y162700000D02*
X31400000Y161680000D01*
X31400000Y160160000D02*
X31400000Y159590000D01*
X31400000Y159590000D02*
X36600000Y159590000D01*
X36600000Y172410000D02*
X36600000Y171840000D01*
X36600000Y171840000D02*
X37960000Y171840000D01*
X36600000Y170320000D02*
X36600000Y169300000D01*
X36600000Y167780000D02*
X36600000Y166760000D01*
X36600000Y165240000D02*
X36600000Y164220000D01*
X36600000Y162700000D02*
X36600000Y161680000D01*
X36600000Y160160000D02*
X36600000Y159590000D01*
X33590000Y64600000D02*
X34160000Y64600000D01*
X33590000Y59400000D02*
X33590000Y64600000D01*
X33590000Y59400000D02*
X34160000Y59400000D01*
X34160000Y64600000D02*
X34160000Y65960000D01*
X35680000Y64600000D02*
X36700000Y64600000D01*
X35680000Y59400000D02*
X36700000Y59400000D01*
X38220000Y64600000D02*
X39240000Y64600000D01*
X38220000Y59400000D02*
X39240000Y59400000D01*
X40760000Y64600000D02*
X41780000Y64600000D01*
X40760000Y59400000D02*
X41780000Y59400000D01*
X43300000Y64600000D02*
X44320000Y64600000D01*
X43300000Y59400000D02*
X44320000Y59400000D01*
X45840000Y64600000D02*
X46410000Y64600000D01*
X45840000Y59400000D02*
X46410000Y59400000D01*
X46410000Y59400000D02*
X46410000Y64600000D01*
M02*
