  0
SECTION
  2
HEADER
  9
$ANGBASE
  50
0.0
  9
$ANGDIR
  70
1
  9
$MEASUREMENT
  70
1
  0
ENDSEC
  0
SECTION
  2
TABLES
  0
TABLE
  2
LTYPE
  70
4
  0
LTYPE
  5
40F
  2
CONTINUOUS
  70
0
  3
Solid line
  72
65
  73
0
  40
0.0
  0
LTYPE
  5
410
  2
DASHDOT
 70
0
  3
Dash Dot ____ _ ____ _
 72
65
 73
4
 40
2.0
 49
1.25
 49
-0.25
 49
0.25
 49
-0.25
  0
LTYPE
  5
411
  2
DASHED
 70
0
  3
Dashed __ __ __ __ __
 72
65
 73
2
 40
0.75
 49
0.5
 49
-0.25
  0
LTYPE
  5
43B
  2
DOTTED
 70
0
  3
Dotted .  .  .  .
 72
65
 73
2
 40
0.2
 49
0.0
 49
-0.2
  0
ENDTAB
  0
TABLE
  2
STYLE
  70
4
  0
STYLE
  2
KICAD
  70
0
  40
0
  41
1
  42
1
  50
0
  71
0
  3
isocp.shx
  0
STYLE
  2
KICADB
  70
0
  40
0
  41
1
  42
1
  50
0
  71
0
  3
isocp.shx
  0
STYLE
  2
KICADI
  70
0
  40
0
  41
1
  42
1
  50
15
  71
0
  3
isocp.shx
  0
STYLE
  2
KICADBI
  70
0
  40
0
  41
1
  42
1
  50
15
  71
0
  3
isocp.shx
  0
ENDTAB
  0
TABLE
  2
LAYER
  70
1
  0
LAYER
  2
BLACK
  70
0
  62
7
  6
CONTINUOUS
  0
ENDTAB
  0
ENDSEC
  0
SECTION
  2
ENTITIES
0
LINE
8
BLACK
6
CONTINUOUS
10
-52.6532429999999962
20
187.8582999999999856
11
-54.1602669999999975
21
186.4564459999999997
0
LINE
8
BLACK
6
CONTINUOUS
10
89.3026909999999958
20
106.5879750000000001
11
89.2785679999999928
21
102.8791969999999907
0
LINE
8
BLACK
6
CONTINUOUS
10
69.
20
6.5
11
76.
21
6.5
0
LINE
8
BLACK
6
CONTINUOUS
10
-76.
20
6.5
11
-77.
21
7.5
0
LINE
8
BLACK
6
CONTINUOUS
10
0.
20
197.
11
3.364185
21
197.8024149999999963
0
LINE
8
BLACK
6
CONTINUOUS
10
76.2169619999999952
20
0.8144929999999999
11
71.0342959999999977
21
0.456356
0
LINE
8
BLACK
6
CONTINUOUS
10
71.0342959999999977
20
0.456356
11
65.3307590000000005
21
0.226433
0
LINE
8
BLACK
6
CONTINUOUS
10
-76.
20
22.5
11
-69.
21
22.5
0
LINE
8
BLACK
6
CONTINUOUS
10
-77.2350009999999969
20
75.2438959999999923
11
-74.0607490000000013
21
73.0815389999999923
0
LINE
8
BLACK
6
CONTINUOUS
10
-78.7738839999999954
20
133.8197619999999972
11
-81.0918259999999975
21
130.8008820000000014
0
LINE
8
BLACK
6
CONTINUOUS
10
59.7826519999999988
20
67.042119999999997
11
62.4934999999999974
21
66.249093000000002
0
LINE
8
BLACK
6
CONTINUOUS
10
84.2983279999999979
20
84.7508199999999903
11
82.3303549999999973
21
81.2082479999999975
0
LINE
8
BLACK
6
CONTINUOUS
10
47.6864149999999967
20
191.5850059999999928
11
49.4163179999999969
21
190.4225799999999822
0
LINE
8
BLACK
6
CONTINUOUS
10
-57.117410999999997
20
68.0096049999999934
11
-59.7826519999999988
21
67.042119999999997
0
LINE
8
BLACK
6
CONTINUOUS
10
54.1602669999999975
20
186.4564459999999997
11
55.5929969999999969
21
184.9747830000000022
0
LINE
8
BLACK
6
CONTINUOUS
10
-79.9915359999999964
20
77.9527989999999988
11
-77.2350009999999969
21
75.2438959999999923
0
LINE
8
BLACK
6
CONTINUOUS
10
51.6715749999999971
20
148.8399479999999926
11
55.8173129999999986
21
148.0690019999999834
0
LINE
8
BLACK
6
CONTINUOUS
10
92.6868460000000027
20
55.6806279999999987
11
94.3825870000000009
21
53.3805169999999976
0
LINE
8
BLACK
6
CONTINUOUS
10
-92.6868460000000027
20
55.6806279999999987
11
-94.3825870000000009
21
53.3805169999999976
0
LINE
8
BLACK
6
CONTINUOUS
10
-87.2623499999999979
20
91.9190679999999958
11
-85.9423269999999917
21
88.3210929999999905
0
LINE
8
BLACK
6
CONTINUOUS
10
87.5080509999999947
20
117.6000540000000001
11
88.3982219999999899
21
114.0185199999999952
0
LINE
8
BLACK
6
CONTINUOUS
10
-60.7675610000000006
20
175.922031000000004
11
-61.262518
21
173.709906999999987
0
LINE
8
BLACK
6
CONTINUOUS
10
-70.2472389999999933
20
141.7865449999999896
11
-73.3164649999999938
21
139.416261999999989
0
LINE
8
BLACK
6
CONTINUOUS
10
-51.0719269999999952
20
189.1803449999999884
11
-52.6532429999999962
21
187.8582999999999856
0
LINE
8
BLACK
6
CONTINUOUS
10
-28.
20
0.
11
28.
21
0.
0
LINE
8
BLACK
6
CONTINUOUS
10
-66.9627100000000013
20
143.8369600000000048
11
-70.2472389999999933
21
141.7865449999999896
0
LINE
8
BLACK
6
CONTINUOUS
10
89.2785679999999928
20
102.8791969999999907
11
88.9304709999999972
21
99.1981189999999913
0
LINE
8
BLACK
6
CONTINUOUS
10
32.9762539999999973
20
197.5666699999999878
11
35.4136379999999988
21
196.9343470000000025
0
LINE
8
BLACK
6
CONTINUOUS
10
-8.
20
124.
11
8.
21
124.
0
LINE
8
BLACK
6
CONTINUOUS
10
-82.3303549999999973
20
81.2082479999999975
11
-79.9915359999999964
21
77.9527989999999988
0
LINE
8
BLACK
6
CONTINUOUS
10
-98.9324159999999893
20
43.7230239999999952
11
-99.5115909999999957
21
41.1943879999999965
0
LINE
8
BLACK
6
CONTINUOUS
10
9.
20
123.
11
9.
21
117.5
0
LINE
8
BLACK
6
CONTINUOUS
10
-86.6410229999999899
20
61.2359279999999941
11
-88.7948820000000012
21
59.6678219999999939
0
LINE
8
BLACK
6
CONTINUOUS
10
-84.2983279999999979
20
84.7508199999999903
11
-82.3303549999999973
21
81.2082479999999975
0
LINE
8
BLACK
6
CONTINUOUS
10
-39.940573999999998
20
195.4493129999999894
11
-42.0301249999999982
21
194.5966029999999876
0
LINE
8
BLACK
6
CONTINUOUS
10
76.
20
6.5
11
77.
21
7.5
0
LINE
8
BLACK
6
CONTINUOUS
10
73.7929539999999946
20
64.8215489999999903
11
76.6397369999999967
21
64.6717469999999963
0
LINE
8
BLACK
6
CONTINUOUS
10
55.7689449999999951
20
154.5926039999999944
11
53.3605099999999979
21
152.6838789999999904
0
LINE
8
BLACK
6
CONTINUOUS
10
-88.9304709999999972
20
99.1981189999999913
11
-88.2583979999999997
21
95.5447429999999969
0
LINE
8
BLACK
6
CONTINUOUS
10
-98.12992899999999
20
46.2059549999999959
11
-98.9324159999999893
21
43.7230239999999952
0
LINE
8
BLACK
6
CONTINUOUS
10
-85.9423269999999917
20
88.3210929999999905
11
-84.2983279999999979
21
84.7508199999999903
0
LINE
8
BLACK
6
CONTINUOUS
10
70.8996810000000011
20
64.9167499999999933
11
73.7929539999999946
21
64.8215489999999903
0
LINE
8
BLACK
6
CONTINUOUS
10
-60.5280459999999962
20
161.1679680000000019
11
-59.3527129999999943
21
158.8346479999999872
0
LINE
8
BLACK
6
CONTINUOUS
10
-28.
20
0.
11
-29.
21
1.
0
LINE
8
BLACK
6
CONTINUOUS
10
-76.2169619999999952
20
0.8144929999999999
11
-71.0342959999999977
21
0.456356
0
LINE
8
BLACK
6
CONTINUOUS
10
9.8841570000000001
20
198.9361979999999903
11
13.0399449999999995
21
199.267563999999993
0
LINE
8
BLACK
6
CONTINUOUS
10
45.0949179999999998
20
0.305936
11
37.3078939999999974
21
0.588861
0
LINE
8
BLACK
6
CONTINUOUS
10
73.3164649999999938
20
139.416261999999989
11
76.1703880000000026
21
136.7261120000000005
0
LINE
8
BLACK
6
CONTINUOUS
10
-96.6005389999999977
20
9.246677
11
-94.4617839999999944
21
6.8265399999999996
0
LINE
8
BLACK
6
CONTINUOUS
10
-47.6864149999999967
20
191.5850059999999928
11
-49.4163179999999969
21
190.4225799999999822
0
LINE
8
BLACK
6
CONTINUOUS
10
-27.7536509999999979
20
198.6109319999999911
11
-30.4229249999999993
21
198.1255319999999926
0
LINE
8
BLACK
6
CONTINUOUS
10
-59.7826519999999988
20
67.042119999999997
11
-62.4934999999999974
21
66.249093000000002
0
LINE
8
BLACK
6
CONTINUOUS
10
-24.9684329999999974
20
199.0228689999999858
11
-27.7536509999999979
21
198.6109319999999911
0
LINE
8
BLACK
6
CONTINUOUS
10
-90.8101569999999896
20
57.8160549999999986
11
-92.6868460000000027
21
55.6806279999999987
0
LINE
8
BLACK
6
CONTINUOUS
10
-65.2499540000000025
20
65.6305219999999991
11
-68.0520139999999998
21
65.1864080000000001
0
LINE
8
BLACK
6
CONTINUOUS
10
-45.0949179999999998
20
0.305936
11
-37.3078939999999974
21
0.588861
0
LINE
8
BLACK
6
CONTINUOUS
10
-61.5738449999999986
20
171.3620609999999829
11
-61.7015419999999963
21
168.8784929999999918
0
LINE
8
BLACK
6
CONTINUOUS
10
-68.
20
21.5
11
-68.
21
7.5
0
LINE
8
BLACK
6
CONTINUOUS
10
76.6397369999999967
20
64.6717469999999963
11
79.34793599999999
21
64.2382829999999956
0
LINE
8
BLACK
6
CONTINUOUS
10
-51.9237469999999988
20
70.4679429999999911
11
-54.4977759999999947
21
69.1515449999999987
0
LINE
8
BLACK
6
CONTINUOUS
10
98.12992899999999
20
46.2059549999999959
11
98.9324159999999893
21
43.7230239999999952
0
LINE
8
BLACK
6
CONTINUOUS
10
-95.8550139999999971
20
51.0347019999999958
11
-97.1041279999999887
21
48.6431809999999984
0
LINE
8
BLACK
6
CONTINUOUS
10
99.5115909999999957
20
41.1943879999999965
11
99.8674520000000001
21
38.620045999999995
0
LINE
8
BLACK
6
CONTINUOUS
10
6.6589039999999997
20
198.4478139999999939
11
9.8841570000000001
21
198.9361979999999903
0
LINE
8
BLACK
6
CONTINUOUS
10
-94.3825870000000009
20
53.3805169999999976
11
-95.8550139999999971
21
51.0347019999999958
0
LINE
8
BLACK
6
CONTINUOUS
10
59.1063499999999991
20
0.124721
11
52.361069999999998
21
0.151222
0
LINE
8
BLACK
6
CONTINUOUS
10
-49.4163179999999969
20
190.4225799999999822
11
-51.0719269999999952
21
189.1803449999999884
0
LINE
8
BLACK
6
CONTINUOUS
10
88.2583979999999997
20
95.5447429999999969
11
87.2623499999999979
21
91.9190679999999958
0
LINE
8
BLACK
6
CONTINUOUS
10
55.5929969999999969
20
184.9747830000000022
11
56.9514349999999965
21
183.4133109999999931
0
LINE
8
BLACK
6
CONTINUOUS
10
50.5410399999999953
20
150.916686999999996
11
47.310535999999999
21
149.291025999999988
0
LINE
8
BLACK
6
CONTINUOUS
10
-81.9175499999999914
20
63.5211589999999973
11
-84.3485790000000009
21
62.5203739999999968
0
LINE
8
BLACK
6
CONTINUOUS
10
-16.1262659999999975
20
199.4419149999999945
11
-19.1431210000000007
21
199.4592489999999998
0
LINE
8
BLACK
6
CONTINUOUS
10
-85.0287149999999912
20
2.0590379999999997
11
-80.8787559999999957
21
1.3008409999999999
0
LINE
8
BLACK
6
CONTINUOUS
10
57.1865799999999993
20
69.8975700000000018
11
51.9237469999999988
21
70.4679429999999911
0
LINE
8
BLACK
6
CONTINUOUS
10
-45.8822199999999967
20
192.6676229999999919
11
-47.6864149999999967
21
191.5850059999999928
0
LINE
8
BLACK
6
CONTINUOUS
10
54.4977759999999947
20
69.1515449999999987
11
57.117410999999997
21
68.0096049999999934
0
LINE
8
BLACK
6
CONTINUOUS
10
77.
20
7.5
11
77.
21
21.5
0
LINE
8
BLACK
6
CONTINUOUS
10
98.9324159999999893
20
43.7230239999999952
11
99.5115909999999957
21
41.1943879999999965
0
LINE
8
BLACK
6
CONTINUOUS
10
-55.8173129999999986
20
148.0690019999999834
11
-59.7477469999999968
21
146.9781889999999862
0
LINE
8
BLACK
6
CONTINUOUS
10
47.310535999999999
20
149.291025999999988
11
51.6715749999999971
21
148.8399479999999926
0
LINE
8
BLACK
6
CONTINUOUS
10
81.9175499999999914
20
63.5211589999999973
11
84.3485790000000009
21
62.5203739999999968
0
LINE
8
BLACK
6
CONTINUOUS
10
-79.34793599999999
20
64.2382829999999956
11
-81.9175499999999914
21
63.5211589999999973
0
LINE
8
BLACK
6
CONTINUOUS
10
-58.1809109999999947
20
181.7440739999999835
11
-59.2267579999999967
21
179.9391139999999893
0
LINE
8
BLACK
6
CONTINUOUS
10
91.8202280000000002
20
4.8218869999999994
11
88.6758719999999983
21
3.23272
0
LINE
8
BLACK
6
CONTINUOUS
10
49.4163179999999969
20
190.4225799999999822
11
51.0719269999999952
21
189.1803449999999884
0
LINE
8
BLACK
6
CONTINUOUS
10
98.2364929999999958
20
12.082298999999999
11
96.6005389999999977
21
9.246677
0
LINE
8
BLACK
6
CONTINUOUS
10
-71.0342959999999977
20
0.456356
11
-65.3307590000000005
21
0.226433
0
LINE
8
BLACK
6
CONTINUOUS
10
22.0905099999999983
20
199.319566999999978
11
24.9684329999999974
21
199.0228689999999858
0
LINE
8
BLACK
6
CONTINUOUS
10
53.3605099999999979
20
152.6838789999999904
11
50.5410399999999953
21
150.916686999999996
0
LINE
8
BLACK
6
CONTINUOUS
10
-51.6715749999999971
20
148.8399479999999926
11
-55.8173129999999986
21
148.0690019999999834
0
LINE
8
BLACK
6
CONTINUOUS
10
-77.
20
7.5
11
-77.
21
21.5
0
LINE
8
BLACK
6
CONTINUOUS
10
-91.8202280000000002
20
4.8218869999999994
11
-88.6758719999999983
21
3.23272
0
LINE
8
BLACK
6
CONTINUOUS
10
82.3303549999999973
20
81.2082479999999975
11
79.9915359999999964
21
77.9527989999999988
0
LINE
8
BLACK
6
CONTINUOUS
10
-54.4977759999999947
20
69.1515449999999987
11
-57.117410999999997
21
68.0096049999999934
0
LINE
8
BLACK
6
CONTINUOUS
10
-87.5080509999999947
20
117.6000540000000001
11
-88.3982219999999899
21
114.0185199999999952
0
LINE
8
BLACK
6
CONTINUOUS
10
-13.0399449999999995
20
199.267563999999993
11
-16.1262659999999975
21
199.4419149999999945
0
LINE
8
BLACK
6
CONTINUOUS
10
52.361069999999998
20
0.151222
11
45.0949179999999998
21
0.305936
0
LINE
8
BLACK
6
CONTINUOUS
10
-54.1602669999999975
20
186.4564459999999997
11
-55.5929969999999969
21
184.9747830000000022
0
LINE
8
BLACK
6
CONTINUOUS
10
-88.3982219999999899
20
114.0185199999999952
11
-89.0028389999999945
21
110.3244550000000004
0
LINE
8
BLACK
6
CONTINUOUS
10
-70.4687819999999903
20
71.4657279999999986
11
-66.4590969999999999
21
70.3964629999999971
0
LINE
8
BLACK
6
CONTINUOUS
10
66.9627100000000013
20
143.8369600000000048
11
70.2472389999999933
21
141.7865449999999896
0
LINE
8
BLACK
6
CONTINUOUS
10
69.
20
22.5
11
68.
21
21.5
0
LINE
8
BLACK
6
CONTINUOUS
10
-83.1242129999999975
20
127.6694709999999873
11
-84.8710459999999927
21
124.4255289999999974
0
LINE
8
BLACK
6
CONTINUOUS
10
37.7350780000000015
20
196.2285609999999849
11
39.940573999999998
21
195.4493129999999894
0
LINE
8
BLACK
6
CONTINUOUS
10
13.0399449999999995
20
199.267563999999993
11
16.1262659999999975
21
199.4419149999999945
0
LINE
8
BLACK
6
CONTINUOUS
10
61.262518
20
173.709906999999987
11
61.5738449999999986
21
171.3620609999999829
0
LINE
8
BLACK
6
CONTINUOUS
10
-70.8996810000000011
20
64.9167499999999933
11
-73.7929539999999946
21
64.8215489999999903
0
LINE
8
BLACK
6
CONTINUOUS
10
88.7948820000000012
20
59.6678219999999939
11
90.8101569999999896
21
57.8160549999999986
0
LINE
8
BLACK
6
CONTINUOUS
10
-98.2364929999999958
20
12.082298999999999
11
-96.6005389999999977
21
9.246677
0
LINE
8
BLACK
6
CONTINUOUS
10
-56.9514349999999965
20
183.4133109999999931
11
-58.1809109999999947
21
181.7440739999999835
0
LINE
8
BLACK
6
CONTINUOUS
10
-81.0918259999999975
20
130.8008820000000014
11
-83.1242129999999975
21
127.6694709999999873
0
LINE
8
BLACK
6
CONTINUOUS
10
-84.3485790000000009
20
62.5203739999999968
11
-86.6410229999999899
21
61.2359279999999941
0
LINE
8
BLACK
6
CONTINUOUS
10
27.7536509999999979
20
198.6109319999999911
11
30.4229249999999993
21
198.1255319999999926
0
LINE
8
BLACK
6
CONTINUOUS
10
62.0316969999999941
20
69.8737440000000021
11
57.1865799999999993
21
69.8975700000000018
0
LINE
8
BLACK
6
CONTINUOUS
10
-59.3527129999999943
20
158.8346479999999872
11
-57.7663459999999986
21
156.6428599999999847
0
LINE
8
BLACK
6
CONTINUOUS
10
-94.4617839999999944
20
6.8265399999999996
11
-91.8202280000000002
21
4.8218869999999994
0
LINE
8
BLACK
6
CONTINUOUS
10
-32.9762539999999973
20
197.5666699999999878
11
-35.4136379999999988
21
196.9343470000000025
0
LINE
8
BLACK
6
CONTINUOUS
10
-9.
20
123.
11
-8.
21
124.
0
LINE
8
BLACK
6
CONTINUOUS
10
97.1041279999999887
20
48.6431809999999984
11
98.12992899999999
21
46.2059549999999959
0
LINE
8
BLACK
6
CONTINUOUS
10
81.0918259999999975
20
130.8008820000000014
11
83.1242129999999975
21
127.6694709999999873
0
LINE
8
BLACK
6
CONTINUOUS
10
88.9304709999999972
20
99.1981189999999913
11
88.2583979999999997
21
95.5447429999999969
0
LINE
8
BLACK
6
CONTINUOUS
10
-68.
20
7.5
11
-69.
21
6.5
0
LINE
8
BLACK
6
CONTINUOUS
10
-63.4628799999999984
20
145.5675080000000037
11
-66.9627100000000013
21
143.8369600000000048
0
LINE
8
BLACK
6
CONTINUOUS
10
-97.1041279999999887
20
48.6431809999999984
11
-98.12992899999999
21
46.2059549999999959
0
LINE
8
BLACK
6
CONTINUOUS
10
63.4628799999999984
20
145.5675080000000037
11
66.9627100000000013
21
143.8369600000000048
0
LINE
8
BLACK
6
CONTINUOUS
10
-76.1703880000000026
20
136.7261120000000005
11
-78.7738839999999954
21
133.8197619999999972
0
LINE
8
BLACK
6
CONTINUOUS
10
84.8710459999999927
20
124.4255289999999974
11
86.3323259999999948
21
121.0690570000000008
0
LINE
8
BLACK
6
CONTINUOUS
10
-37.3078939999999974
20
0.588861
11
-29.
21
1.
0
LINE
8
BLACK
6
CONTINUOUS
10
37.3078939999999974
20
0.588861
11
29.
21
1.
0
LINE
8
BLACK
6
CONTINUOUS
10
78.7738839999999954
20
133.8197619999999972
11
81.0918259999999975
21
130.8008820000000014
0
LINE
8
BLACK
6
CONTINUOUS
10
100.
20
19.
11
100.
21
36.
0
LINE
8
BLACK
6
CONTINUOUS
10
90.8101569999999896
20
57.8160549999999986
11
92.6868460000000027
21
55.6806279999999987
0
LINE
8
BLACK
6
CONTINUOUS
10
-57.7663459999999986
20
156.6428599999999847
11
-55.7689449999999951
21
154.5926039999999944
0
LINE
8
BLACK
6
CONTINUOUS
10
95.8550139999999971
20
51.0347019999999958
11
97.1041279999999887
21
48.6431809999999984
0
LINE
8
BLACK
6
CONTINUOUS
10
35.4136379999999988
20
196.9343470000000025
11
37.7350780000000015
21
196.2285609999999849
0
LINE
8
BLACK
6
CONTINUOUS
10
-84.8710459999999927
20
124.4255289999999974
11
-86.3323259999999948
21
121.0690570000000008
0
LINE
8
BLACK
6
CONTINUOUS
10
65.2499540000000025
20
65.6305219999999991
11
68.0520139999999998
21
65.1864080000000001
0
LINE
8
BLACK
6
CONTINUOUS
10
83.1242129999999975
20
127.6694709999999873
11
84.8710459999999927
21
124.4255289999999974
0
LINE
8
BLACK
6
CONTINUOUS
10
-44.0037319999999994
20
193.6704309999999793
11
-45.8822199999999967
21
192.6676229999999919
0
LINE
8
BLACK
6
CONTINUOUS
10
52.6532429999999962
20
187.8582999999999856
11
54.1602669999999975
21
186.4564459999999997
0
LINE
8
BLACK
6
CONTINUOUS
10
85.0287149999999912
20
2.0590379999999997
11
80.8787559999999957
21
1.3008409999999999
0
LINE
8
BLACK
6
CONTINUOUS
10
61.2923449999999974
20
163.6428200000000004
11
60.5280459999999962
21
161.1679680000000019
0
LINE
8
BLACK
6
CONTINUOUS
10
-88.2583979999999997
20
95.5447429999999969
11
-87.2623499999999979
21
91.9190679999999958
0
LINE
8
BLACK
6
CONTINUOUS
10
-99.5115909999999957
20
41.1943879999999965
11
-99.8674520000000001
21
38.620045999999995
0
LINE
8
BLACK
6
CONTINUOUS
10
-42.0301249999999982
20
194.5966029999999876
11
-44.0037319999999994
21
193.6704309999999793
0
LINE
8
BLACK
6
CONTINUOUS
10
76.
20
22.5
11
69.
21
22.5
0
LINE
8
BLACK
6
CONTINUOUS
10
61.7015419999999963
20
168.8784929999999918
11
61.6456099999999978
21
166.2592039999999827
0
LINE
8
BLACK
6
CONTINUOUS
10
94.4617839999999944
20
6.8265399999999996
11
91.8202280000000002
21
4.8218869999999994
0
LINE
8
BLACK
6
CONTINUOUS
10
86.3323259999999948
20
121.0690570000000008
11
87.5080509999999947
21
117.6000540000000001
0
LINE
8
BLACK
6
CONTINUOUS
10
-60.0889740000000003
20
177.9984330000000057
11
-60.7675610000000006
21
175.922031000000004
0
LINE
8
BLACK
6
CONTINUOUS
10
57.7663459999999986
20
156.6428599999999847
11
55.7689449999999951
21
154.5926039999999944
0
LINE
8
BLACK
6
CONTINUOUS
10
59.2267579999999967
20
179.9391139999999893
11
60.0889740000000003
21
177.9984330000000057
0
LINE
8
BLACK
6
CONTINUOUS
10
-80.8787559999999957
20
1.3008409999999999
11
-76.2169619999999952
21
0.8144929999999999
0
LINE
8
BLACK
6
CONTINUOUS
10
85.9423269999999917
20
88.3210929999999905
11
84.2983279999999979
21
84.7508199999999903
0
LINE
8
BLACK
6
CONTINUOUS
10
-73.7929539999999946
20
64.8215489999999903
11
-76.6397369999999967
21
64.6717469999999963
0
LINE
8
BLACK
6
CONTINUOUS
10
58.1809109999999947
20
181.7440739999999835
11
59.2267579999999967
21
179.9391139999999893
0
LINE
8
BLACK
6
CONTINUOUS
10
-57.1865799999999993
20
69.8975700000000018
11
-51.9237469999999988
21
70.4679429999999911
0
LINE
8
BLACK
6
CONTINUOUS
10
100.
20
19.
11
99.3696470000000005
21
15.3334069999999993
0
LINE
8
BLACK
6
CONTINUOUS
10
51.9237469999999988
20
70.4679429999999911
11
54.4977759999999947
21
69.1515449999999987
0
LINE
8
BLACK
6
CONTINUOUS
10
-30.4229249999999993
20
198.1255319999999926
11
-32.9762539999999973
21
197.5666699999999878
0
LINE
8
BLACK
6
CONTINUOUS
10
-22.0905099999999983
20
199.319566999999978
11
-24.9684329999999974
21
199.0228689999999858
0
LINE
8
BLACK
6
CONTINUOUS
10
-89.2785679999999928
20
102.8791969999999907
11
-88.9304709999999972
21
99.1981189999999913
0
LINE
8
BLACK
6
CONTINUOUS
10
-6.6589039999999997
20
198.4478139999999939
11
-9.8841570000000001
21
198.9361979999999903
0
LINE
8
BLACK
6
CONTINUOUS
10
19.1431210000000007
20
199.4592489999999998
11
22.0905099999999983
21
199.319566999999978
0
LINE
8
BLACK
6
CONTINUOUS
10
70.4687819999999903
20
71.4657279999999986
11
66.4590969999999999
21
70.3964629999999971
0
LINE
8
BLACK
6
CONTINUOUS
10
-61.2923449999999974
20
163.6428200000000004
11
-60.5280459999999962
21
161.1679680000000019
0
LINE
8
BLACK
6
CONTINUOUS
10
-55.5929969999999969
20
184.9747830000000022
11
-56.9514349999999965
21
183.4133109999999931
0
LINE
8
BLACK
6
CONTINUOUS
10
-73.3164649999999938
20
139.416261999999989
11
-76.1703880000000026
21
136.7261120000000005
0
LINE
8
BLACK
6
CONTINUOUS
10
-99.8674520000000001
20
38.620045999999995
11
-100.
21
36.
0
LINE
8
BLACK
6
CONTINUOUS
10
-61.262518
20
173.709906999999987
11
-61.5738449999999986
21
171.3620609999999829
0
LINE
8
BLACK
6
CONTINUOUS
10
-62.4934999999999974
20
66.249093000000002
11
-65.2499540000000025
21
65.6305219999999991
0
LINE
8
BLACK
6
CONTINUOUS
10
-61.7015419999999963
20
168.8784929999999918
11
-61.6456099999999978
21
166.2592039999999827
0
LINE
8
BLACK
6
CONTINUOUS
10
-55.7689449999999951
20
154.5926039999999944
11
-53.3605099999999979
21
152.6838789999999904
0
LINE
8
BLACK
6
CONTINUOUS
10
86.6410229999999899
20
61.2359279999999941
11
88.7948820000000012
21
59.6678219999999939
0
LINE
8
BLACK
6
CONTINUOUS
10
-77.
20
21.5
11
-76.
21
22.5
0
LINE
8
BLACK
6
CONTINUOUS
10
-59.7477469999999968
20
146.9781889999999862
11
-63.4628799999999984
21
145.5675080000000037
0
LINE
8
BLACK
6
CONTINUOUS
10
-74.0607490000000013
20
73.0815389999999923
11
-70.4687819999999903
21
71.4657279999999986
0
LINE
8
BLACK
6
CONTINUOUS
10
9.
20
117.5
11
8.
21
116.5
0
LINE
8
BLACK
6
CONTINUOUS
10
76.1703880000000026
20
136.7261120000000005
11
78.7738839999999954
21
133.8197619999999972
0
LINE
8
BLACK
6
CONTINUOUS
10
99.8674520000000001
20
38.620045999999995
11
100.
21
36.
0
LINE
8
BLACK
6
CONTINUOUS
10
-3.364185
20
197.8024149999999963
11
-6.6589039999999997
21
198.4478139999999939
0
LINE
8
BLACK
6
CONTINUOUS
10
-52.361069999999998
20
0.151222
11
-45.0949179999999998
21
0.305936
0
LINE
8
BLACK
6
CONTINUOUS
10
-100.
20
19.
11
-100.
21
36.
0
LINE
8
BLACK
6
CONTINUOUS
10
79.34793599999999
20
64.2382829999999956
11
81.9175499999999914
21
63.5211589999999973
0
LINE
8
BLACK
6
CONTINUOUS
10
45.8822199999999967
20
192.6676229999999919
11
47.6864149999999967
21
191.5850059999999928
0
LINE
8
BLACK
6
CONTINUOUS
10
94.3825870000000009
20
53.3805169999999976
11
95.8550139999999971
21
51.0347019999999958
0
LINE
8
BLACK
6
CONTINUOUS
10
-68.0520139999999998
20
65.1864080000000001
11
-70.8996810000000011
21
64.9167499999999933
0
LINE
8
BLACK
6
CONTINUOUS
10
61.6456099999999978
20
166.2592039999999827
11
61.2923449999999974
21
163.6428200000000004
0
LINE
8
BLACK
6
CONTINUOUS
10
65.3307590000000005
20
0.226433
11
59.1063499999999991
21
0.124721
0
LINE
8
BLACK
6
CONTINUOUS
10
-61.6456099999999978
20
166.2592039999999827
11
-61.2923449999999974
21
163.6428200000000004
0
LINE
8
BLACK
6
CONTINUOUS
10
59.7477469999999968
20
146.9781889999999862
11
63.4628799999999984
21
145.5675080000000037
0
LINE
8
BLACK
6
CONTINUOUS
10
-66.4590969999999999
20
70.3964629999999971
11
-62.0316969999999941
21
69.8737440000000021
0
LINE
8
BLACK
6
CONTINUOUS
10
-69.
20
22.5
11
-68.
21
21.5
0
LINE
8
BLACK
6
CONTINUOUS
10
60.7675610000000006
20
175.922031000000004
11
61.262518
21
173.709906999999987
0
LINE
8
BLACK
6
CONTINUOUS
10
-88.7948820000000012
20
59.6678219999999939
11
-90.8101569999999896
21
57.8160549999999986
0
LINE
8
BLACK
6
CONTINUOUS
10
-37.7350780000000015
20
196.2285609999999849
11
-39.940573999999998
21
195.4493129999999894
0
LINE
8
BLACK
6
CONTINUOUS
10
-89.3026909999999958
20
106.5879750000000001
11
-89.2785679999999928
21
102.8791969999999907
0
LINE
8
BLACK
6
CONTINUOUS
10
62.4934999999999974
20
66.249093000000002
11
65.2499540000000025
21
65.6305219999999991
0
LINE
8
BLACK
6
CONTINUOUS
10
24.9684329999999974
20
199.0228689999999858
11
27.7536509999999979
21
198.6109319999999911
0
LINE
8
BLACK
6
CONTINUOUS
10
-100.
20
19.
11
-99.3696470000000005
21
15.3334069999999993
0
LINE
8
BLACK
6
CONTINUOUS
10
79.9915359999999964
20
77.9527989999999988
11
77.2350009999999969
21
75.2438959999999923
0
LINE
8
BLACK
6
CONTINUOUS
10
39.940573999999998
20
195.4493129999999894
11
42.0301249999999982
21
194.5966029999999876
0
LINE
8
BLACK
6
CONTINUOUS
10
68.
20
21.5
11
68.
21
7.5
0
LINE
8
BLACK
6
CONTINUOUS
10
-99.3696470000000005
20
15.3334069999999993
11
-98.2364929999999958
21
12.082298999999999
0
LINE
8
BLACK
6
CONTINUOUS
10
-50.5410399999999953
20
150.916686999999996
11
-47.310535999999999
21
149.291025999999988
0
LINE
8
BLACK
6
CONTINUOUS
10
-62.0316969999999941
20
69.8737440000000021
11
-57.1865799999999993
21
69.8975700000000018
0
LINE
8
BLACK
6
CONTINUOUS
10
84.3485790000000009
20
62.5203739999999968
11
86.6410229999999899
21
61.2359279999999941
0
LINE
8
BLACK
6
CONTINUOUS
10
96.6005389999999977
20
9.246677
11
94.4617839999999944
21
6.8265399999999996
0
LINE
8
BLACK
6
CONTINUOUS
10
88.6758719999999983
20
3.23272
11
85.0287149999999912
21
2.0590379999999997
0
LINE
8
BLACK
6
CONTINUOUS
10
-47.310535999999999
20
149.291025999999988
11
-51.6715749999999971
21
148.8399479999999926
0
LINE
8
BLACK
6
CONTINUOUS
10
-69.
20
6.5
11
-76.
21
6.5
0
LINE
8
BLACK
6
CONTINUOUS
10
42.0301249999999982
20
194.5966029999999876
11
44.0037319999999994
21
193.6704309999999793
0
LINE
8
BLACK
6
CONTINUOUS
10
56.9514349999999965
20
183.4133109999999931
11
58.1809109999999947
21
181.7440739999999835
0
LINE
8
BLACK
6
CONTINUOUS
10
-89.0028389999999945
20
110.3244550000000004
11
-89.3026909999999958
21
106.5879750000000001
0
LINE
8
BLACK
6
CONTINUOUS
10
28.
20
0.
11
29.
21
1.
0
LINE
8
BLACK
6
CONTINUOUS
10
-59.2267579999999967
20
179.9391139999999893
11
-60.0889740000000003
21
177.9984330000000057
0
LINE
8
BLACK
6
CONTINUOUS
10
60.5280459999999962
20
161.1679680000000019
11
59.3527129999999943
21
158.8346479999999872
0
LINE
8
BLACK
6
CONTINUOUS
10
55.8173129999999986
20
148.0690019999999834
11
59.7477469999999968
21
146.9781889999999862
0
LINE
8
BLACK
6
CONTINUOUS
10
44.0037319999999994
20
193.6704309999999793
11
45.8822199999999967
21
192.6676229999999919
0
LINE
8
BLACK
6
CONTINUOUS
10
-9.8841570000000001
20
198.9361979999999903
11
-13.0399449999999995
21
199.267563999999993
0
LINE
8
BLACK
6
CONTINUOUS
10
8.
20
124.
11
9.
21
123.
0
LINE
8
BLACK
6
CONTINUOUS
10
77.2350009999999969
20
75.2438959999999923
11
74.0607490000000013
21
73.0815389999999923
0
LINE
8
BLACK
6
CONTINUOUS
10
68.
20
7.5
11
69.
21
6.5
0
LINE
8
BLACK
6
CONTINUOUS
10
66.4590969999999999
20
70.3964629999999971
11
62.0316969999999941
21
69.8737440000000021
0
LINE
8
BLACK
6
CONTINUOUS
10
3.364185
20
197.8024149999999963
11
6.6589039999999997
21
198.4478139999999939
0
LINE
8
BLACK
6
CONTINUOUS
10
59.3527129999999943
20
158.8346479999999872
11
57.7663459999999986
21
156.6428599999999847
0
LINE
8
BLACK
6
CONTINUOUS
10
87.2623499999999979
20
91.9190679999999958
11
85.9423269999999917
21
88.3210929999999905
0
LINE
8
BLACK
6
CONTINUOUS
10
-59.1063499999999991
20
0.124721
11
-52.361069999999998
21
0.151222
0
LINE
8
BLACK
6
CONTINUOUS
10
61.5738449999999986
20
171.3620609999999829
11
61.7015419999999963
21
168.8784929999999918
0
LINE
8
BLACK
6
CONTINUOUS
10
-8.
20
116.5
11
-9.
21
117.5
0
LINE
8
BLACK
6
CONTINUOUS
10
16.1262659999999975
20
199.4419149999999945
11
19.1431210000000007
21
199.4592489999999998
0
LINE
8
BLACK
6
CONTINUOUS
10
68.0520139999999998
20
65.1864080000000001
11
70.8996810000000011
21
64.9167499999999933
0
LINE
8
BLACK
6
CONTINUOUS
10
57.117410999999997
20
68.0096049999999934
11
59.7826519999999988
21
67.042119999999997
0
LINE
8
BLACK
6
CONTINUOUS
10
8.
20
116.5
11
-8.
21
116.5
0
LINE
8
BLACK
6
CONTINUOUS
10
-19.1431210000000007
20
199.4592489999999998
11
-22.0905099999999983
21
199.319566999999978
0
LINE
8
BLACK
6
CONTINUOUS
10
60.0889740000000003
20
177.9984330000000057
11
60.7675610000000006
21
175.922031000000004
0
LINE
8
BLACK
6
CONTINUOUS
10
51.0719269999999952
20
189.1803449999999884
11
52.6532429999999962
21
187.8582999999999856
0
LINE
8
BLACK
6
CONTINUOUS
10
-9.
20
117.5
11
-9.
21
123.
0
LINE
8
BLACK
6
CONTINUOUS
10
-35.4136379999999988
20
196.9343470000000025
11
-37.7350780000000015
21
196.2285609999999849
0
LINE
8
BLACK
6
CONTINUOUS
10
-88.6758719999999983
20
3.23272
11
-85.0287149999999912
21
2.0590379999999997
0
LINE
8
BLACK
6
CONTINUOUS
10
80.8787559999999957
20
1.3008409999999999
11
76.2169619999999952
21
0.8144929999999999
0
LINE
8
BLACK
6
CONTINUOUS
10
99.3696470000000005
20
15.3334069999999993
11
98.2364929999999958
21
12.082298999999999
0
LINE
8
BLACK
6
CONTINUOUS
10
70.2472389999999933
20
141.7865449999999896
11
73.3164649999999938
21
139.416261999999989
0
LINE
8
BLACK
6
CONTINUOUS
10
-86.3323259999999948
20
121.0690570000000008
11
-87.5080509999999947
21
117.6000540000000001
0
LINE
8
BLACK
6
CONTINUOUS
10
-76.6397369999999967
20
64.6717469999999963
11
-79.34793599999999
21
64.2382829999999956
0
LINE
8
BLACK
6
CONTINUOUS
10
0.
20
197.
11
-3.364185
21
197.8024149999999963
0
LINE
8
BLACK
6
CONTINUOUS
10
-53.3605099999999979
20
152.6838789999999904
11
-50.5410399999999953
21
150.916686999999996
0
LINE
8
BLACK
6
CONTINUOUS
10
88.3982219999999899
20
114.0185199999999952
11
89.0028389999999945
21
110.3244550000000004
0
LINE
8
BLACK
6
CONTINUOUS
10
77.
20
21.5
11
76.
21
22.5
0
LINE
8
BLACK
6
CONTINUOUS
10
89.0028389999999945
20
110.3244550000000004
11
89.3026909999999958
21
106.5879750000000001
0
LINE
8
BLACK
6
CONTINUOUS
10
30.4229249999999993
20
198.1255319999999926
11
32.9762539999999973
21
197.5666699999999878
0
LINE
8
BLACK
6
CONTINUOUS
10
-65.3307590000000005
20
0.226433
11
-59.1063499999999991
21
0.124721
0
LINE
8
BLACK
6
CONTINUOUS
10
74.0607490000000013
20
73.0815389999999923
11
70.4687819999999903
21
71.4657279999999986
  0
ENDSEC
  0
EOF
