M48
INCH,TZ
T1C0.0118
%
G90
G05
T1
X-21260Y56299
X-21260Y30315
X-20276Y56299
X-20276Y30315
X-19882Y63583
X-19488Y63189
X-19291Y56299
X-19291Y30315
X-19114Y62795
X-18307Y56299
X-18307Y53937
X-18307Y30315
X-17717Y75197
X-17717Y70472
X-17717Y47638
X-17717Y22047
X-17323Y48622
X-16929Y49606
X-16732Y75197
X-16732Y70472
X-16732Y22047
X-16535Y50591
X-15945Y53346
X-15945Y52362
X-15748Y75197
X-15748Y70472
X-15748Y53543
X-15748Y22047
X-15551Y52756
X-15157Y53150
X-14764Y75197
X-14764Y70472
X-14764Y53543
X-14764Y22047
X-14370Y53937
X-13780Y70472
X-13748Y70898
X-12803Y23417
X-12402Y23425
X-4921Y74606
X-3134Y76591
X-2740Y76591
X2772Y76591
X3134Y76591
X4921Y74606
X11024Y51575
X11024Y50591
X11024Y49606
X11024Y48622
X11024Y47638
X12402Y23425
X12787Y23417
X12795Y57087
X12795Y56693
X12795Y56299
X13386Y57087
X13386Y56693
X13386Y56299
X13748Y70835
X13780Y70472
X13976Y68701
X14370Y68307
X14764Y75197
X14764Y70472
X14764Y68701
X14764Y22047
X15567Y66354
X15748Y75197
X15748Y70472
X15748Y52953
X15748Y22047
X15945Y66339
X16134Y52945
X16535Y50591
X16732Y75197
X16732Y70472
X16732Y22047
X16929Y49606
X17323Y48622
X17717Y75197
X17717Y70472
X17717Y47638
X17717Y22047
X18307Y56299
X18307Y30315
X18701Y65354
X19114Y64390
X19291Y56299
X19291Y30315
X19488Y63386
X20276Y56299
X20276Y30315
X21260Y56299
X21260Y53937
X21260Y30315
T0
M30
