M48
INCH,TZ
T1C0.0118
T2C0.0394
%
G90
G05
T1
X-31299Y23228
X-30315Y23228
X-30071Y42323
X-30071Y41339
X-30071Y38346
X-29331Y23228
X-26575Y20256
X-26575Y19488
X-21260Y56299
X-21260Y30315
X-20276Y56299
X-20276Y30315
X-19291Y56299
X-19291Y30315
X-18307Y56299
X-18307Y44291
X-18307Y30315
X-18307Y28346
X-18307Y27362
X-17717Y75197
X-17717Y70472
X-17717Y44882
X-17717Y22047
X-17323Y45472
X-16929Y46063
X-16732Y75197
X-16732Y70472
X-16732Y22047
X-16535Y46654
X-15945Y53346
X-15748Y75197
X-15748Y70472
X-15748Y53543
X-15748Y22047
X-14764Y75197
X-14764Y70472
X-14764Y22047
X-13780Y70472
X-13748Y70898
X-13189Y39291
X-12795Y22835
X-12598Y40354
X-12402Y22835
X-12008Y39961
X-11417Y39567
X-10236Y44882
X-9646Y44291
X-9055Y43701
X-8465Y43110
X-7874Y42520
X-2992Y73386
X-1024Y73386
X0Y51378
X0Y50787
X0Y50197
X0Y49606
X16Y73386
X394Y55118
X394Y54528
X787Y55118
X787Y54528
X1000Y73386
X1181Y55118
X1181Y54528
X4724Y62598
X4724Y56102
X5118Y62205
X5118Y55906
X5512Y61811
X5512Y55709
X5512Y44882
X5512Y44291
X5512Y43701
X5512Y43110
X5512Y42520
X5906Y61417
X5906Y55551
X5925Y68898
X7480Y65354
X12402Y22835
X12787Y22835
X12795Y57087
X12795Y56693
X12795Y56299
X13386Y57087
X13386Y56693
X13386Y56299
X13386Y22047
X13386Y21260
X13748Y70835
X13780Y70472
X13976Y68701
X14370Y68307
X14764Y75197
X14764Y70472
X14764Y68701
X14764Y26772
X14764Y22047
X15551Y44291
X15551Y43898
X15551Y43504
X15551Y43110
X15567Y66354
X15748Y75197
X15748Y70472
X15748Y65354
X15748Y64350
X15748Y63346
X15748Y52953
X15748Y26772
X15748Y22047
X15945Y66339
X16134Y52945
X16535Y50591
X16732Y75197
X16732Y70472
X16732Y22047
X16929Y49606
X17323Y48622
X17717Y75197
X17717Y70472
X17717Y47638
X17717Y22047
X18307Y56299
X18307Y30315
X19291Y56299
X19291Y30315
X20276Y56299
X20276Y30315
X21260Y56299
X21260Y53937
X21260Y30315
X26772Y43504
X26772Y38386
X27559Y44291
X27559Y42323
X29331Y23213
X30079Y44331
X30079Y41339
X30079Y40354
X30079Y39331
X30315Y23213
X31299Y23213
T2
X-30817Y22254
X-30817Y21254
X-30817Y20254
X-29817Y22254
X-29817Y21254
X-29817Y20254
X29807Y22260
X29807Y21260
X29807Y20260
X30807Y22260
X30807Y21260
X30807Y20260
M30
