M48
INCH,TZ
T1C0.0118
T2C0.1063
T3C0.1260
%
G90
G05
T1
X-31299Y23228
X-31299Y19488
X-30315Y23228
X-30071Y42323
X-30071Y41339
X-30071Y38346
X-29331Y23228
X-27953Y20276
X-21260Y56299
X-21260Y30315
X-20276Y56299
X-20276Y30315
X-19291Y56299
X-19291Y30315
X-18307Y56299
X-18307Y53937
X-18307Y30315
X-18307Y28346
X-18307Y27362
X-17717Y75197
X-17717Y70472
X-17717Y47638
X-17717Y22047
X-17323Y48622
X-16929Y49606
X-16732Y75197
X-16732Y70472
X-16732Y22047
X-16535Y50591
X-15945Y53346
X-15945Y52362
X-15748Y75197
X-15748Y70472
X-15748Y53543
X-15748Y22047
X-15551Y52756
X-15157Y53150
X-14764Y75197
X-14764Y70472
X-14764Y53543
X-14764Y22047
X-14370Y53937
X-13780Y70472
X-13748Y70898
X-12803Y23417
X-12402Y23425
X-394Y46457
X-394Y39350
X0Y72244
X16Y73386
X394Y46457
X394Y43346
X787Y46457
X787Y40354
X1000Y73386
X1181Y63386
X7480Y65354
X11024Y51575
X11024Y50591
X11024Y49606
X11024Y48622
X11024Y47638
X12402Y23425
X12787Y23417
X12795Y57087
X12795Y56693
X12795Y56299
X13386Y57087
X13386Y56693
X13386Y56299
X13386Y22047
X13386Y21260
X13748Y70835
X13780Y70472
X13976Y68701
X14370Y68307
X14764Y75197
X14764Y70472
X14764Y68701
X14764Y26772
X14764Y22047
X15567Y66354
X15748Y75197
X15748Y70472
X15748Y65354
X15748Y64350
X15748Y63346
X15748Y52953
X15748Y26772
X15748Y22047
X15945Y66339
X16134Y52945
X16535Y50591
X16732Y75197
X16732Y70472
X16732Y22047
X16929Y49606
X17323Y48622
X17717Y75197
X17717Y70472
X17717Y47638
X17717Y22047
X18307Y56299
X18307Y30315
X19291Y56299
X19291Y30315
X20276Y56299
X20276Y30315
X21260Y56299
X21260Y53937
X21260Y30315
X28839Y43346
X28839Y38346
X29734Y23213
X30079Y42323
X30079Y41339
X30709Y23228
X31703Y23213
T2
X-34134Y14567
X-34134Y3543
X34134Y14567
X34134Y3543
T3
X-37402Y16929
X-37402Y12205
X-33465Y16929
X-33465Y12205
X33465Y16929
X33465Y12205
X37402Y16929
X37402Y12205
T0
M30
