  0
SECTION
  2
HEADER
  9
$ANGBASE
  50
0.0
  9
$ANGDIR
  70
1
  9
$MEASUREMENT
  70
1
  0
ENDSEC
  0
SECTION
  2
TABLES
  0
TABLE
  2
LTYPE
  70
4
  0
LTYPE
  5
40F
  2
CONTINUOUS
  70
0
  3
Solid line
  72
65
  73
0
  40
0.0
  0
LTYPE
  5
410
  2
DASHDOT
 70
0
  3
Dash Dot ____ _ ____ _
 72
65
 73
4
 40
2.0
 49
1.25
 49
-0.25
 49
0.25
 49
-0.25
  0
LTYPE
  5
411
  2
DASHED
 70
0
  3
Dashed __ __ __ __ __
 72
65
 73
2
 40
0.75
 49
0.5
 49
-0.25
  0
LTYPE
  5
43B
  2
DOTTED
 70
0
  3
Dotted .  .  .  .
 72
65
 73
2
 40
0.2
 49
0.0
 49
-0.2
  0
ENDTAB
  0
TABLE
  2
STYLE
  70
4
  0
STYLE
  2
KICAD
  70
0
  40
0
  41
1
  42
1
  50
0
  71
0
  3
isocp.shx
  0
STYLE
  2
KICADB
  70
0
  40
0
  41
1
  42
1
  50
0
  71
0
  3
isocp.shx
  0
STYLE
  2
KICADI
  70
0
  40
0
  41
1
  42
1
  50
15
  71
0
  3
isocp.shx
  0
STYLE
  2
KICADBI
  70
0
  40
0
  41
1
  42
1
  50
15
  71
0
  3
isocp.shx
  0
ENDTAB
  0
TABLE
  2
LAYER
  70
1
  0
LAYER
  2
BLACK
  70
0
  62
7
  6
CONTINUOUS
  0
ENDTAB
  0
ENDSEC
  0
SECTION
  2
ENTITIES
0
LINE
8
BLACK
6
CONTINUOUS
10
-68.975126000000003
20
22.5600519999999989
11
-68.9751249999999914
21
22.5600519999999989
0
LINE
8
BLACK
6
CONTINUOUS
10
-68.9751249999999914
20
22.5600519999999989
11
-68.9540379999999971
21
22.5459619999999994
0
LINE
8
BLACK
6
CONTINUOUS
10
-68.9540379999999971
20
22.5459619999999994
11
-67.9540379999999971
21
21.5459619999999994
0
LINE
8
BLACK
6
CONTINUOUS
10
-67.9540379999999971
20
21.5459619999999994
11
-67.9399489999999986
21
21.524874999999998
0
LINE
8
BLACK
6
CONTINUOUS
10
-67.9399489999999986
20
21.524874999999998
11
-67.9399480000000011
21
21.5248740000000005
0
LINE
8
BLACK
6
CONTINUOUS
10
-67.9399480000000011
20
21.5248740000000005
11
-67.9350000000000023
21
21.5
0
LINE
8
BLACK
6
CONTINUOUS
10
-67.9350000000000023
20
21.5
11
-67.9350000000000023
21
7.5
0
LINE
8
BLACK
6
CONTINUOUS
10
-67.9350000000000023
20
7.5
11
-67.9399480000000011
21
7.4751259999999995
0
LINE
8
BLACK
6
CONTINUOUS
10
-67.9399480000000011
20
7.4751259999999995
11
-67.9540379999999971
21
7.4540379999999997
0
LINE
8
BLACK
6
CONTINUOUS
10
-67.9540379999999971
20
7.4540379999999997
11
-68.9540379999999971
21
6.4540379999999997
0
LINE
8
BLACK
6
CONTINUOUS
10
-68.9540379999999971
20
6.4540379999999997
11
-68.9751249999999914
21
6.4399479999999993
0
LINE
8
BLACK
6
CONTINUOUS
10
-68.9751249999999914
20
6.4399479999999993
11
-68.975126000000003
21
6.4399479999999993
0
LINE
8
BLACK
6
CONTINUOUS
10
-68.975126000000003
20
6.4399479999999993
11
-69.
21
6.4349999999999996
0
LINE
8
BLACK
6
CONTINUOUS
10
-69.
20
6.4349999999999996
11
-76.
21
6.4349999999999996
0
LINE
8
BLACK
6
CONTINUOUS
10
-76.
20
6.4349999999999996
11
-76.024873999999997
21
6.4399479999999993
0
LINE
8
BLACK
6
CONTINUOUS
10
-76.024873999999997
20
6.4399479999999993
11
-76.0459620000000029
21
6.4540379999999997
0
LINE
8
BLACK
6
CONTINUOUS
10
-76.0459620000000029
20
6.4540379999999997
11
-77.0459620000000029
21
7.4540379999999997
0
LINE
8
BLACK
6
CONTINUOUS
10
-77.0459620000000029
20
7.4540379999999997
11
-77.0600519999999989
21
7.4751249999999994
0
LINE
8
BLACK
6
CONTINUOUS
10
-77.0600519999999989
20
7.4751249999999994
11
-77.0600519999999989
21
7.4751259999999995
0
LINE
8
BLACK
6
CONTINUOUS
10
-77.0600519999999989
20
7.4751259999999995
11
-77.0649999999999977
21
7.5
0
LINE
8
BLACK
6
CONTINUOUS
10
-77.0649999999999977
20
7.5
11
-77.0649999999999977
21
21.5
0
LINE
8
BLACK
6
CONTINUOUS
10
-77.0649999999999977
20
21.5
11
-77.0600519999999989
21
21.5248740000000005
0
LINE
8
BLACK
6
CONTINUOUS
10
-77.0600519999999989
20
21.5248740000000005
11
-77.0600519999999989
21
21.524874999999998
0
LINE
8
BLACK
6
CONTINUOUS
10
-77.0600519999999989
20
21.524874999999998
11
-77.0459620000000029
21
21.5459619999999994
0
LINE
8
BLACK
6
CONTINUOUS
10
-77.0459620000000029
20
21.5459619999999994
11
-76.0459620000000029
21
22.5459619999999994
0
LINE
8
BLACK
6
CONTINUOUS
10
-76.0459620000000029
20
22.5459619999999994
11
-76.024873999999997
21
22.5600519999999989
0
LINE
8
BLACK
6
CONTINUOUS
10
-76.024873999999997
20
22.5600519999999989
11
-76.
21
22.5649999999999977
0
LINE
8
BLACK
6
CONTINUOUS
10
-76.
20
22.5649999999999977
11
-69.
21
22.5649999999999977
0
LINE
8
BLACK
6
CONTINUOUS
10
-69.
20
22.5649999999999977
11
-68.975126000000003
21
22.5600519999999989
0
LINE
8
BLACK
6
CONTINUOUS
10
-75.9730759999999918
20
22.4349999999999987
11
-76.9350000000000023
21
21.4730759999999989
0
LINE
8
BLACK
6
CONTINUOUS
10
-76.9350000000000023
20
21.4730759999999989
11
-76.9350000000000023
21
7.5269239999999993
0
LINE
8
BLACK
6
CONTINUOUS
10
-76.9350000000000023
20
7.5269239999999993
11
-75.9730759999999918
21
6.5649999999999995
0
LINE
8
BLACK
6
CONTINUOUS
10
-75.9730759999999918
20
6.5649999999999995
11
-69.026923999999994
21
6.5649999999999995
0
LINE
8
BLACK
6
CONTINUOUS
10
-69.026923999999994
20
6.5649999999999995
11
-68.0649999999999977
21
7.5269239999999993
0
LINE
8
BLACK
6
CONTINUOUS
10
-68.0649999999999977
20
7.5269239999999993
11
-68.0649999999999977
21
21.4730759999999989
0
LINE
8
BLACK
6
CONTINUOUS
10
-68.0649999999999977
20
21.4730759999999989
11
-69.026923999999994
21
22.4349999999999987
0
LINE
8
BLACK
6
CONTINUOUS
10
-69.026923999999994
20
22.4349999999999987
11
-75.9730759999999918
21
22.4349999999999987
0
LINE
8
BLACK
6
CONTINUOUS
10
76.024873999999997
20
22.5600519999999989
11
76.0248749999999944
21
22.5600519999999989
0
LINE
8
BLACK
6
CONTINUOUS
10
76.0248749999999944
20
22.5600519999999989
11
76.0459620000000029
21
22.5459619999999994
0
LINE
8
BLACK
6
CONTINUOUS
10
76.0459620000000029
20
22.5459619999999994
11
77.0459620000000029
21
21.5459619999999994
0
LINE
8
BLACK
6
CONTINUOUS
10
77.0459620000000029
20
21.5459619999999994
11
77.0600510000000014
21
21.524874999999998
0
LINE
8
BLACK
6
CONTINUOUS
10
77.0600510000000014
20
21.524874999999998
11
77.0600519999999989
21
21.5248740000000005
0
LINE
8
BLACK
6
CONTINUOUS
10
77.0600519999999989
20
21.5248740000000005
11
77.0649999999999977
21
21.5
0
LINE
8
BLACK
6
CONTINUOUS
10
77.0649999999999977
20
21.5
11
77.0649999999999977
21
7.5
0
LINE
8
BLACK
6
CONTINUOUS
10
77.0649999999999977
20
7.5
11
77.0600519999999989
21
7.4751259999999995
0
LINE
8
BLACK
6
CONTINUOUS
10
77.0600519999999989
20
7.4751259999999995
11
77.0459620000000029
21
7.4540379999999997
0
LINE
8
BLACK
6
CONTINUOUS
10
77.0459620000000029
20
7.4540379999999997
11
76.0459620000000029
21
6.4540379999999997
0
LINE
8
BLACK
6
CONTINUOUS
10
76.0459620000000029
20
6.4540379999999997
11
76.0248749999999944
21
6.4399479999999993
0
LINE
8
BLACK
6
CONTINUOUS
10
76.0248749999999944
20
6.4399479999999993
11
76.024873999999997
21
6.4399479999999993
0
LINE
8
BLACK
6
CONTINUOUS
10
76.024873999999997
20
6.4399479999999993
11
76.
21
6.4349999999999996
0
LINE
8
BLACK
6
CONTINUOUS
10
76.
20
6.4349999999999996
11
69.
21
6.4349999999999996
0
LINE
8
BLACK
6
CONTINUOUS
10
69.
20
6.4349999999999996
11
68.975126000000003
21
6.4399479999999993
0
LINE
8
BLACK
6
CONTINUOUS
10
68.975126000000003
20
6.4399479999999993
11
68.9540379999999971
21
6.4540379999999997
0
LINE
8
BLACK
6
CONTINUOUS
10
68.9540379999999971
20
6.4540379999999997
11
67.9540379999999971
21
7.4540379999999997
0
LINE
8
BLACK
6
CONTINUOUS
10
67.9540379999999971
20
7.4540379999999997
11
67.9399480000000011
21
7.4751249999999994
0
LINE
8
BLACK
6
CONTINUOUS
10
67.9399480000000011
20
7.4751249999999994
11
67.9399480000000011
21
7.4751259999999995
0
LINE
8
BLACK
6
CONTINUOUS
10
67.9399480000000011
20
7.4751259999999995
11
67.9350000000000023
21
7.5
0
LINE
8
BLACK
6
CONTINUOUS
10
67.9350000000000023
20
7.5
11
67.9350000000000023
21
21.5
0
LINE
8
BLACK
6
CONTINUOUS
10
67.9350000000000023
20
21.5
11
67.9399480000000011
21
21.5248740000000005
0
LINE
8
BLACK
6
CONTINUOUS
10
67.9399480000000011
20
21.5248740000000005
11
67.9399480000000011
21
21.524874999999998
0
LINE
8
BLACK
6
CONTINUOUS
10
67.9399480000000011
20
21.524874999999998
11
67.9540379999999971
21
21.5459619999999994
0
LINE
8
BLACK
6
CONTINUOUS
10
67.9540379999999971
20
21.5459619999999994
11
68.9540379999999971
21
22.5459619999999994
0
LINE
8
BLACK
6
CONTINUOUS
10
68.9540379999999971
20
22.5459619999999994
11
68.975126000000003
21
22.5600519999999989
0
LINE
8
BLACK
6
CONTINUOUS
10
68.975126000000003
20
22.5600519999999989
11
69.
21
22.5649999999999977
0
LINE
8
BLACK
6
CONTINUOUS
10
69.
20
22.5649999999999977
11
76.
21
22.5649999999999977
0
LINE
8
BLACK
6
CONTINUOUS
10
76.
20
22.5649999999999977
11
76.024873999999997
21
22.5600519999999989
0
LINE
8
BLACK
6
CONTINUOUS
10
69.026923999999994
20
22.4349999999999987
11
68.0649999999999977
21
21.4730759999999989
0
LINE
8
BLACK
6
CONTINUOUS
10
68.0649999999999977
20
21.4730759999999989
11
68.0649999999999977
21
7.5269239999999993
0
LINE
8
BLACK
6
CONTINUOUS
10
68.0649999999999977
20
7.5269239999999993
11
69.026923999999994
21
6.5649999999999995
0
LINE
8
BLACK
6
CONTINUOUS
10
69.026923999999994
20
6.5649999999999995
11
75.9730759999999918
21
6.5649999999999995
0
LINE
8
BLACK
6
CONTINUOUS
10
75.9730759999999918
20
6.5649999999999995
11
76.9350000000000023
21
7.5269239999999993
0
LINE
8
BLACK
6
CONTINUOUS
10
76.9350000000000023
20
7.5269239999999993
11
76.9350000000000023
21
21.4730759999999989
0
LINE
8
BLACK
6
CONTINUOUS
10
76.9350000000000023
20
21.4730759999999989
11
75.9730759999999918
21
22.4349999999999987
0
LINE
8
BLACK
6
CONTINUOUS
10
75.9730759999999918
20
22.4349999999999987
11
69.026923999999994
21
22.4349999999999987
0
LINE
8
BLACK
6
CONTINUOUS
10
8.0095669999999988
20
124.0230969999999928
11
8.0176780000000001
21
124.0176779999999894
0
LINE
8
BLACK
6
CONTINUOUS
10
8.0176780000000001
20
124.0176779999999894
11
9.0176780000000001
21
123.0176769999999919
0
LINE
8
BLACK
6
CONTINUOUS
10
9.0176780000000001
20
123.0176769999999919
11
9.0230969999999999
21
123.0095669999999899
0
LINE
8
BLACK
6
CONTINUOUS
10
9.0230969999999999
20
123.0095669999999899
11
9.0250000000000004
21
123.
0
LINE
8
BLACK
6
CONTINUOUS
10
9.0250000000000004
20
123.
11
9.0250000000000004
21
117.5
0
LINE
8
BLACK
6
CONTINUOUS
10
9.0250000000000004
20
117.5
11
9.0230969999999999
21
117.4904329999999959
0
LINE
8
BLACK
6
CONTINUOUS
10
9.0230969999999999
20
117.4904329999999959
11
9.0176780000000001
21
117.4823229999999938
0
LINE
8
BLACK
6
CONTINUOUS
10
9.0176780000000001
20
117.4823229999999938
11
8.0176780000000001
21
116.4823219999999964
0
LINE
8
BLACK
6
CONTINUOUS
10
8.0176780000000001
20
116.4823219999999964
11
8.0095669999999988
21
116.476902999999993
0
LINE
8
BLACK
6
CONTINUOUS
10
8.0095669999999988
20
116.476902999999993
11
8.
21
116.4749999999999943
0
LINE
8
BLACK
6
CONTINUOUS
10
8.
20
116.4749999999999943
11
-8.
21
116.4749999999999943
0
LINE
8
BLACK
6
CONTINUOUS
10
-8.
20
116.4749999999999943
11
-8.0095669999999988
21
116.476902999999993
0
LINE
8
BLACK
6
CONTINUOUS
10
-8.0095669999999988
20
116.476902999999993
11
-8.0176769999999991
21
116.4823219999999964
0
LINE
8
BLACK
6
CONTINUOUS
10
-8.0176769999999991
20
116.4823219999999964
11
-9.0176780000000001
21
117.4823219999999964
0
LINE
8
BLACK
6
CONTINUOUS
10
-9.0176780000000001
20
117.4823219999999964
11
-9.0230969999999999
21
117.4904329999999959
0
LINE
8
BLACK
6
CONTINUOUS
10
-9.0230969999999999
20
117.4904329999999959
11
-9.0250000000000004
21
117.5
0
LINE
8
BLACK
6
CONTINUOUS
10
-9.0250000000000004
20
117.5
11
-9.0250000000000004
21
123.
0
LINE
8
BLACK
6
CONTINUOUS
10
-9.0250000000000004
20
123.
11
-9.0230969999999999
21
123.0095669999999899
0
LINE
8
BLACK
6
CONTINUOUS
10
-9.0230969999999999
20
123.0095669999999899
11
-9.0176780000000001
21
123.0176779999999894
0
LINE
8
BLACK
6
CONTINUOUS
10
-9.0176780000000001
20
123.0176779999999894
11
-8.0176769999999991
21
124.0176779999999894
0
LINE
8
BLACK
6
CONTINUOUS
10
-8.0176769999999991
20
124.0176779999999894
11
-8.0095669999999988
21
124.0230969999999928
0
LINE
8
BLACK
6
CONTINUOUS
10
-8.0095669999999988
20
124.0230969999999928
11
-8.
21
124.0249999999999915
0
LINE
8
BLACK
6
CONTINUOUS
10
-8.
20
124.0249999999999915
11
8.
21
124.0249999999999915
0
LINE
8
BLACK
6
CONTINUOUS
10
8.
20
124.0249999999999915
11
8.0095669999999988
21
124.0230969999999928
0
LINE
8
BLACK
6
CONTINUOUS
10
-7.9896449999999994
20
123.9749999999999943
11
-8.9749999999999996
21
122.9896449999999959
0
LINE
8
BLACK
6
CONTINUOUS
10
-8.9749999999999996
20
122.9896449999999959
11
-8.9749999999999996
21
117.5103560000000016
0
LINE
8
BLACK
6
CONTINUOUS
10
-8.9749999999999996
20
117.5103560000000016
11
-7.9896449999999994
21
116.5249999999999915
0
LINE
8
BLACK
6
CONTINUOUS
10
-7.9896449999999994
20
116.5249999999999915
11
7.9896439999999993
21
116.5249999999999915
0
LINE
8
BLACK
6
CONTINUOUS
10
7.9896439999999993
20
116.5249999999999915
11
8.9749999999999996
21
117.5103560000000016
0
LINE
8
BLACK
6
CONTINUOUS
10
8.9749999999999996
20
117.5103560000000016
11
8.9749999999999996
21
122.9896449999999959
0
LINE
8
BLACK
6
CONTINUOUS
10
8.9749999999999996
20
122.9896449999999959
11
7.9896439999999993
21
123.9749999999999943
0
LINE
8
BLACK
6
CONTINUOUS
10
7.9896439999999993
20
123.9749999999999943
11
-7.9896449999999994
21
123.9749999999999943
0
LINE
8
BLACK
6
CONTINUOUS
10
19.1444669999999988
20
199.5239169999999831
11
19.1461979999999983
21
199.5241759999999829
0
LINE
8
BLACK
6
CONTINUOUS
10
19.1461979999999983
20
199.5241759999999829
11
22.0935869999999994
21
199.3844939999999895
0
LINE
8
BLACK
6
CONTINUOUS
10
22.0935869999999994
20
199.3844939999999895
11
22.0953579999999974
21
199.3840539999999919
0
LINE
8
BLACK
6
CONTINUOUS
10
22.0953579999999974
20
199.3840539999999919
11
22.0971759999999975
21
199.384223999999989
0
LINE
8
BLACK
6
CONTINUOUS
10
22.0971759999999975
20
199.384223999999989
11
24.9750990000000002
21
199.0875259999999969
0
LINE
8
BLACK
6
CONTINUOUS
10
24.9750990000000002
20
199.0875259999999969
11
24.9764869999999988
21
199.0870979999999975
0
LINE
8
BLACK
6
CONTINUOUS
10
24.9764869999999988
20
199.0870979999999975
11
24.9779429999999998
21
199.0871699999999862
0
LINE
8
BLACK
6
CONTINUOUS
10
24.9779429999999998
20
199.0871699999999862
11
27.7631610000000002
21
198.6752329999999915
0
LINE
8
BLACK
6
CONTINUOUS
10
27.7631610000000002
20
198.6752329999999915
11
27.7641899999999993
21
198.6748659999999802
0
LINE
8
BLACK
6
CONTINUOUS
10
27.7641899999999993
20
198.6748659999999802
11
27.7652799999999971
21
198.6748829999999941
0
LINE
8
BLACK
6
CONTINUOUS
10
27.7652799999999971
20
198.6748829999999941
11
30.4345539999999986
21
198.1894829999999956
0
LINE
8
BLACK
6
CONTINUOUS
10
30.4345539999999986
20
198.1894829999999956
11
30.4356459999999984
21
198.1890520000000038
0
LINE
8
BLACK
6
CONTINUOUS
10
30.4356459999999984
20
198.1890520000000038
11
30.4368229999999969
21
198.189029000000005
0
LINE
8
BLACK
6
CONTINUOUS
10
30.4368229999999969
20
198.189029000000005
11
32.9901520000000019
21
197.6301670000000001
0
LINE
8
BLACK
6
CONTINUOUS
10
32.9901520000000019
20
197.6301670000000001
11
32.9913129999999981
21
197.6296600000000012
0
LINE
8
BLACK
6
CONTINUOUS
10
32.9913129999999981
20
197.6296600000000012
11
32.9925759999999997
21
197.6295869999999866
0
LINE
8
BLACK
6
CONTINUOUS
10
32.9925759999999997
20
197.6295869999999866
11
35.4299600000000012
21
196.9972640000000013
0
LINE
8
BLACK
6
CONTINUOUS
10
35.4299600000000012
20
196.9972640000000013
11
35.4311879999999988
21
196.9966709999999921
0
LINE
8
BLACK
6
CONTINUOUS
10
35.4311879999999988
20
196.9966709999999921
11
35.4325449999999975
21
196.9965359999999919
0
LINE
8
BLACK
6
CONTINUOUS
10
35.4325449999999975
20
196.9965359999999919
11
37.7539850000000001
21
196.2907500000000027
0
LINE
8
BLACK
6
CONTINUOUS
10
37.7539850000000001
20
196.2907500000000027
11
37.755277999999997
21
196.2900579999999877
0
LINE
8
BLACK
6
CONTINUOUS
10
37.755277999999997
20
196.2900579999999877
11
37.7567319999999995
21
196.2898479999999779
0
LINE
8
BLACK
6
CONTINUOUS
10
37.7567319999999995
20
196.2898479999999779
11
39.9622279999999961
21
195.5105999999999824
0
LINE
8
BLACK
6
CONTINUOUS
10
39.9622279999999961
20
195.5105999999999824
11
39.9635829999999999
21
195.5097949999999969
0
LINE
8
BLACK
6
CONTINUOUS
10
39.9635829999999999
20
195.5097949999999969
11
39.9651330000000016
21
195.5094949999999869
0
LINE
8
BLACK
6
CONTINUOUS
10
39.9651330000000016
20
195.5094949999999869
11
42.0546839999999946
21
194.6567849999999851
0
LINE
8
BLACK
6
CONTINUOUS
10
42.0546839999999946
20
194.6567849999999851
11
42.0560949999999991
21
194.6558529999999791
0
LINE
8
BLACK
6
CONTINUOUS
10
42.0560949999999991
20
194.6558529999999791
11
42.057738999999998
21
194.6554459999999835
0
LINE
8
BLACK
6
CONTINUOUS
10
42.057738999999998
20
194.6554459999999835
11
44.0313459999999992
21
193.7292740000000038
0
LINE
8
BLACK
6
CONTINUOUS
10
44.0313459999999992
20
193.7292740000000038
11
44.0327149999999961
21
193.7282649999999933
0
LINE
8
BLACK
6
CONTINUOUS
10
44.0327149999999961
20
193.7282649999999933
11
44.0343429999999998
21
193.7277719999999874
0
LINE
8
BLACK
6
CONTINUOUS
10
44.0343429999999998
20
193.7277719999999874
11
45.9128309999999971
21
192.7249639999999999
0
LINE
8
BLACK
6
CONTINUOUS
10
45.9128309999999971
20
192.7249639999999999
11
45.9141089999999963
21
192.7239170000000001
0
LINE
8
BLACK
6
CONTINUOUS
10
45.9141089999999963
20
192.7239170000000001
11
45.9156639999999996
21
192.7233589999999879
0
LINE
8
BLACK
6
CONTINUOUS
10
45.9156639999999996
20
192.7233589999999879
11
47.7198589999999996
21
191.6407419999999888
0
LINE
8
BLACK
6
CONTINUOUS
10
47.7198589999999996
20
191.6407419999999888
11
47.7211089999999984
21
191.6396079999999813
0
LINE
8
BLACK
6
CONTINUOUS
10
47.7211089999999984
20
191.6396079999999813
11
47.7226679999999988
21
191.6389570000000049
0
LINE
8
BLACK
6
CONTINUOUS
10
47.7226679999999988
20
191.6389570000000049
11
49.4525709999999989
21
190.4765309999999943
0
LINE
8
BLACK
6
CONTINUOUS
10
49.4525709999999989
20
190.4765309999999943
11
49.4537799999999947
21
190.4753149999999948
0
LINE
8
BLACK
6
CONTINUOUS
10
49.4537799999999947
20
190.4753149999999948
11
49.455328999999999
21
190.4745719999999949
0
LINE
8
BLACK
6
CONTINUOUS
10
49.455328999999999
20
190.4745719999999949
11
51.1109369999999998
21
189.2323370000000011
0
LINE
8
BLACK
6
CONTINUOUS
10
51.1109369999999998
20
189.2323370000000011
11
51.112093999999999
21
189.2310459999999921
0
LINE
8
BLACK
6
CONTINUOUS
10
51.112093999999999
20
189.2310459999999921
11
51.1136189999999999
21
189.230212999999992
0
LINE
8
BLACK
6
CONTINUOUS
10
51.1136189999999999
20
189.230212999999992
11
52.694935000000001
21
187.9081679999999892
0
LINE
8
BLACK
6
CONTINUOUS
10
52.694935000000001
20
187.9081679999999892
11
52.6960289999999958
21
187.9068089999999813
0
LINE
8
BLACK
6
CONTINUOUS
10
52.6960289999999958
20
187.9068089999999813
11
52.6975139999999982
21
187.9058929999999918
0
LINE
8
BLACK
6
CONTINUOUS
10
52.6975139999999982
20
187.9058929999999918
11
54.2045379999999994
21
186.5040389999999775
0
LINE
8
BLACK
6
CONTINUOUS
10
54.2045379999999994
20
186.5040389999999775
11
54.2055590000000009
21
186.5026239999999973
0
LINE
8
BLACK
6
CONTINUOUS
10
54.2055590000000009
20
186.5026239999999973
11
54.2069939999999946
21
186.5016299999999774
0
LINE
8
BLACK
6
CONTINUOUS
10
54.2069939999999946
20
186.5016299999999774
11
55.639723999999994
21
185.0199669999999799
0
LINE
8
BLACK
6
CONTINUOUS
10
55.639723999999994
20
185.0199669999999799
11
55.640664000000001
21
185.0185079999999971
0
LINE
8
BLACK
6
CONTINUOUS
10
55.640664000000001
20
185.0185079999999971
11
55.6420359999999974
21
185.0174459999999783
0
LINE
8
BLACK
6
CONTINUOUS
10
55.6420359999999974
20
185.0174459999999783
11
57.0004749999999945
21
183.4559739999999977
0
LINE
8
BLACK
6
CONTINUOUS
10
57.0004749999999945
20
183.4559739999999977
11
57.0017999999999958
21
183.4536569999999926
0
LINE
8
BLACK
6
CONTINUOUS
10
57.0017999999999958
20
183.4536569999999926
11
57.0037710000000004
21
183.4518589999999847
0
LINE
8
BLACK
6
CONTINUOUS
10
57.0037710000000004
20
183.4518589999999847
11
58.2332469999999986
21
181.7826220000000035
0
LINE
8
BLACK
6
CONTINUOUS
10
58.2332469999999986
20
181.7826220000000035
11
58.2347739999999945
21
181.7793649999999843
0
LINE
8
BLACK
6
CONTINUOUS
10
58.2347739999999945
20
181.7793649999999843
11
58.2371519999999947
21
181.7766619999999875
0
LINE
8
BLACK
6
CONTINUOUS
10
58.2371519999999947
20
181.7766619999999875
11
59.2829989999999967
21
179.9717019999999934
0
LINE
8
BLACK
6
CONTINUOUS
10
59.2829989999999967
20
179.9717019999999934
11
59.2841339999999946
21
179.9683759999999779
0
LINE
8
BLACK
6
CONTINUOUS
10
59.2841339999999946
20
179.9683759999999779
11
59.2861589999999978
21
179.965504999999979
0
LINE
8
BLACK
6
CONTINUOUS
10
59.2861589999999978
20
179.965504999999979
11
60.1483749999999944
21
178.0248239999999953
0
LINE
8
BLACK
6
CONTINUOUS
10
60.1483749999999944
20
178.0248239999999953
11
60.1491129999999998
21
178.0215509999999881
0
LINE
8
BLACK
6
CONTINUOUS
10
60.1491129999999998
20
178.0215509999999881
11
60.1507579999999962
21
178.0186249999999859
0
LINE
8
BLACK
6
CONTINUOUS
10
60.1507579999999962
20
178.0186249999999859
11
60.8293449999999964
21
175.9422219999999868
0
LINE
8
BLACK
6
CONTINUOUS
10
60.8293449999999964
20
175.9422219999999868
11
60.8297189999999972
21
175.9391029999999887
0
LINE
8
BLACK
6
CONTINUOUS
10
60.8297189999999972
20
175.9391029999999887
11
60.8309929999999994
21
175.9362239999999815
0
LINE
8
BLACK
6
CONTINUOUS
10
60.8309929999999994
20
175.9362239999999815
11
61.3259499999999989
21
173.7240999999999929
0
LINE
8
BLACK
6
CONTINUOUS
10
61.3259499999999989
20
173.7240999999999929
11
61.3260179999999977
21
173.7211979999999869
0
LINE
8
BLACK
6
CONTINUOUS
10
61.3260179999999977
20
173.7211979999999869
11
61.3269540000000006
21
173.7184509999999875
0
LINE
8
BLACK
6
CONTINUOUS
10
61.3269540000000006
20
173.7184509999999875
11
61.6382809999999992
21
171.3706049999999834
0
LINE
8
BLACK
6
CONTINUOUS
10
61.6382809999999992
20
171.3706049999999834
11
61.6381099999999975
21
171.3679640000000006
0
LINE
8
BLACK
6
CONTINUOUS
10
61.6381099999999975
20
171.3679640000000006
11
61.6387590000000003
21
171.3653989999999965
0
LINE
8
BLACK
6
CONTINUOUS
10
61.6387590000000003
20
171.3653989999999965
11
61.766455999999998
21
168.8818299999999795
0
LINE
8
BLACK
6
CONTINUOUS
10
61.766455999999998
20
168.8818299999999795
11
61.7661099999999976
21
168.8794619999999895
0
LINE
8
BLACK
6
CONTINUOUS
10
61.7661099999999976
20
168.8794619999999895
11
61.7665269999999964
21
168.8771050000000002
0
LINE
8
BLACK
6
CONTINUOUS
10
61.7665269999999964
20
168.8771050000000002
11
61.7105949999999979
21
166.2578159999999912
0
LINE
8
BLACK
6
CONTINUOUS
10
61.7105949999999979
20
166.2578159999999912
11
61.7097949999999997
21
166.2542009999999948
0
LINE
8
BLACK
6
CONTINUOUS
10
61.7097949999999997
20
166.2542009999999948
11
61.7100249999999946
21
166.2505060000000014
0
LINE
8
BLACK
6
CONTINUOUS
10
61.7100249999999946
20
166.2505060000000014
11
61.3567599999999942
21
163.6341229999999882
0
LINE
8
BLACK
6
CONTINUOUS
10
61.3567599999999942
20
163.6341229999999882
11
61.3550070000000005
21
163.6290159999999787
0
LINE
8
BLACK
6
CONTINUOUS
10
61.3550070000000005
20
163.6290159999999787
11
61.3544509999999974
21
163.6236399999999946
0
LINE
8
BLACK
6
CONTINUOUS
10
61.3544509999999974
20
163.6236399999999946
11
60.5901519999999962
21
161.1487879999999961
0
LINE
8
BLACK
6
CONTINUOUS
10
60.5901519999999962
20
161.1487879999999961
11
60.5875539999999972
21
161.1439869999999814
0
LINE
8
BLACK
6
CONTINUOUS
10
60.5875539999999972
20
161.1439869999999814
11
60.5860969999999952
21
161.1387259999999912
0
LINE
8
BLACK
6
CONTINUOUS
10
60.5860969999999952
20
161.1387259999999912
11
59.4107640000000004
21
158.8054070000000024
0
LINE
8
BLACK
6
CONTINUOUS
10
59.4107640000000004
20
158.8054070000000024
11
59.4075479999999985
21
158.801288999999997
0
LINE
8
BLACK
6
CONTINUOUS
10
59.4075479999999985
20
158.801288999999997
11
59.4053679999999957
21
158.7965370000000007
0
LINE
8
BLACK
6
CONTINUOUS
10
59.4053679999999957
20
158.7965370000000007
11
57.8190010000000001
21
156.6047489999999982
0
LINE
8
BLACK
6
CONTINUOUS
10
57.8190010000000001
20
156.6047489999999982
11
57.8155019999999951
21
156.6015040000000056
0
LINE
8
BLACK
6
CONTINUOUS
10
57.8155019999999951
20
156.6015040000000056
11
57.8129039999999961
21
156.5975019999999915
0
LINE
8
BLACK
6
CONTINUOUS
10
57.8129039999999961
20
156.5975019999999915
11
55.8155029999999996
21
154.5472460000000012
0
LINE
8
BLACK
6
CONTINUOUS
10
55.8155029999999996
20
154.5472460000000012
11
55.812037999999994
21
154.5448649999999873
0
LINE
8
BLACK
6
CONTINUOUS
10
55.812037999999994
20
154.5448649999999873
11
55.8093170000000001
21
154.5416620000000023
0
LINE
8
BLACK
6
CONTINUOUS
10
55.8093170000000001
20
154.5416620000000023
11
53.4008819999999957
21
152.6329369999999983
0
LINE
8
BLACK
6
CONTINUOUS
10
53.4008819999999957
20
152.6329369999999983
11
53.3976619999999969
21
152.6312859999999887
0
LINE
8
BLACK
6
CONTINUOUS
10
53.3976619999999969
20
152.6312859999999887
11
53.3950299999999984
21
152.6288030000000049
0
LINE
8
BLACK
6
CONTINUOUS
10
53.3950299999999984
20
152.6288030000000049
11
50.5755599999999959
21
150.8616109999999821
0
LINE
8
BLACK
6
CONTINUOUS
10
50.5755599999999959
20
150.8616109999999821
11
50.5726839999999953
21
150.8605179999999848
0
LINE
8
BLACK
6
CONTINUOUS
10
50.5726839999999953
20
150.8605179999999848
11
50.5702579999999955
21
150.8586239999999918
0
LINE
8
BLACK
6
CONTINUOUS
10
50.5702579999999955
20
150.8586239999999918
11
47.5381980000000013
21
149.3328249999999855
0
LINE
8
BLACK
6
CONTINUOUS
10
47.5381980000000013
20
149.3328249999999855
11
51.6782619999999966
21
148.9046029999999803
0
LINE
8
BLACK
6
CONTINUOUS
10
51.6782619999999966
20
148.9046029999999803
11
51.6808019999999999
21
148.9038189999999986
0
LINE
8
BLACK
6
CONTINUOUS
10
51.6808019999999999
20
148.9038189999999986
11
51.6834589999999992
21
148.9038520000000005
0
LINE
8
BLACK
6
CONTINUOUS
10
51.6834589999999992
20
148.9038520000000005
11
55.8291970000000006
21
148.1329059999999913
0
LINE
8
BLACK
6
CONTINUOUS
10
55.8291970000000006
20
148.1329059999999913
11
55.8318459999999988
21
148.1318479999999909
0
LINE
8
BLACK
6
CONTINUOUS
10
55.8318459999999988
20
148.1318479999999909
11
55.8346949999999964
21
148.1316349999999886
0
LINE
8
BLACK
6
CONTINUOUS
10
55.8346949999999964
20
148.1316349999999886
11
59.7651289999999946
21
147.0408219999999915
0
LINE
8
BLACK
6
CONTINUOUS
10
59.7651289999999946
20
147.0408219999999915
11
59.767832999999996
21
147.0394589999999937
0
LINE
8
BLACK
6
CONTINUOUS
10
59.767832999999996
20
147.0394589999999937
11
59.770820999999998
21
147.0389559999999847
0
LINE
8
BLACK
6
CONTINUOUS
10
59.770820999999998
20
147.0389559999999847
11
63.485952999999995
21
145.6282750000000021
0
LINE
8
BLACK
6
CONTINUOUS
10
63.485952999999995
20
145.6282750000000021
11
63.4886339999999976
21
145.6265970000000038
0
LINE
8
BLACK
6
CONTINUOUS
10
63.4886339999999976
20
145.6265970000000038
11
63.4916909999999959
21
145.6257740000000069
0
LINE
8
BLACK
6
CONTINUOUS
10
63.4916909999999959
20
145.6257740000000069
11
66.9915209999999917
21
143.8952259999999796
0
LINE
8
BLACK
6
CONTINUOUS
10
66.9915209999999917
20
143.8952259999999796
11
66.994094000000004
21
143.8932470000000023
0
LINE
8
BLACK
6
CONTINUOUS
10
66.994094000000004
20
143.8932470000000023
11
66.997130999999996
21
143.8920980000000043
0
LINE
8
BLACK
6
CONTINUOUS
10
66.997130999999996
20
143.8920980000000043
11
70.2816589999999906
21
141.8416829999999891
0
LINE
8
BLACK
6
CONTINUOUS
10
70.2816589999999906
20
141.8416829999999891
11
70.2840389999999928
21
141.839445999999981
0
LINE
8
BLACK
6
CONTINUOUS
10
70.2840389999999928
20
141.839445999999981
11
70.2869680000000017
21
141.8379899999999907
0
LINE
8
BLACK
6
CONTINUOUS
10
70.2869680000000017
20
141.8379899999999907
11
73.3561940000000021
21
139.4677069999999901
0
LINE
8
BLACK
6
CONTINUOUS
10
73.3561940000000021
20
139.4677069999999901
11
73.3583129999999954
21
139.4652749999999912
0
LINE
8
BLACK
6
CONTINUOUS
10
73.3583129999999954
20
139.4652749999999912
11
73.3610499999999917
21
139.4635609999999986
0
LINE
8
BLACK
6
CONTINUOUS
10
73.3610499999999917
20
139.4635609999999986
11
76.2149730000000005
21
136.7734109999999816
0
LINE
8
BLACK
6
CONTINUOUS
10
76.2149730000000005
20
136.7734109999999816
11
76.216583
21
136.7711489999999799
0
LINE
8
BLACK
6
CONTINUOUS
10
76.216583
20
136.7711489999999799
11
76.2188029999999941
21
136.7694819999999822
0
LINE
8
BLACK
6
CONTINUOUS
10
76.2188029999999941
20
136.7694819999999822
11
78.8222999999999985
21
133.8631320000000073
0
LINE
8
BLACK
6
CONTINUOUS
10
78.8222999999999985
20
133.8631320000000073
11
78.8235679999999945
21
133.8609879999999919
0
LINE
8
BLACK
6
CONTINUOUS
10
78.8235679999999945
20
133.8609879999999919
11
78.8254400000000004
21
133.8593469999999854
0
LINE
8
BLACK
6
CONTINUOUS
10
78.8254400000000004
20
133.8593469999999854
11
81.1433820000000026
21
130.8404679999999871
0
LINE
8
BLACK
6
CONTINUOUS
10
81.1433820000000026
20
130.8404679999999871
11
81.1445339999999931
21
130.8381329999999991
0
LINE
8
BLACK
6
CONTINUOUS
10
81.1445339999999931
20
130.8381329999999991
11
81.1463490000000007
21
130.8362689999999873
0
LINE
8
BLACK
6
CONTINUOUS
10
81.1463490000000007
20
130.8362689999999873
11
83.1787360000000007
21
127.7048579999999873
0
LINE
8
BLACK
6
CONTINUOUS
10
83.1787360000000007
20
127.7048579999999873
11
83.1797309999999896
21
127.7023619999999937
0
LINE
8
BLACK
6
CONTINUOUS
10
83.1797309999999896
20
127.7023619999999937
11
83.1814430000000016
21
127.7002889999999979
0
LINE
8
BLACK
6
CONTINUOUS
10
83.1814430000000016
20
127.7002889999999979
11
84.9282759999999968
21
124.4563469999999938
0
LINE
8
BLACK
6
CONTINUOUS
10
84.9282759999999968
20
124.4563469999999938
11
84.9290790000000015
21
124.453725999999989
0
LINE
8
BLACK
6
CONTINUOUS
10
84.9290790000000015
20
124.453725999999989
11
84.9306429999999892
21
124.4514749999999879
0
LINE
8
BLACK
6
CONTINUOUS
10
84.9306429999999892
20
124.4514749999999879
11
86.3919229999999914
21
121.0950029999999913
0
LINE
8
BLACK
6
CONTINUOUS
10
86.3919229999999914
20
121.0950029999999913
11
86.3925089999999898
21
121.0923090000000002
0
LINE
8
BLACK
6
CONTINUOUS
10
86.3925089999999898
20
121.0923090000000002
11
86.3938859999999949
21
121.0899209999999897
0
LINE
8
BLACK
6
CONTINUOUS
10
86.3938859999999949
20
121.0899209999999897
11
87.5696109999999948
21
117.6209190000000007
0
LINE
8
BLACK
6
CONTINUOUS
10
87.5696109999999948
20
117.6209190000000007
11
87.5699659999999938
21
117.6182079999999956
0
LINE
8
BLACK
6
CONTINUOUS
10
87.5699659999999938
20
117.6182079999999956
11
87.5711319999999915
21
117.6157319999999942
0
LINE
8
BLACK
6
CONTINUOUS
10
87.5711319999999915
20
117.6157319999999942
11
88.4613030000000009
21
114.0341979999999893
0
LINE
8
BLACK
6
CONTINUOUS
10
88.4613030000000009
20
114.0341979999999893
11
88.4614289999999954
21
114.0315239999999903
0
LINE
8
BLACK
6
CONTINUOUS
10
88.4614289999999954
20
114.0315239999999903
11
88.4623679999999979
21
114.029018999999991
0
LINE
8
BLACK
6
CONTINUOUS
10
88.4623679999999979
20
114.029018999999991
11
89.066986
21
110.3349539999999962
0
LINE
8
BLACK
6
CONTINUOUS
10
89.066986
20
110.3349539999999962
11
89.0668929999999932
21
110.3322539999999918
0
LINE
8
BLACK
6
CONTINUOUS
10
89.0668929999999932
20
110.3322539999999918
11
89.0676309999999916
21
110.3296549999999883
0
LINE
8
BLACK
6
CONTINUOUS
10
89.0676309999999916
20
110.3296549999999883
11
89.3674829999999929
21
106.5931750000000022
0
LINE
8
BLACK
6
CONTINUOUS
10
89.3674829999999929
20
106.5931750000000022
11
89.3671519999999902
21
106.5903479999999917
0
LINE
8
BLACK
6
CONTINUOUS
10
89.3671519999999902
20
106.5903479999999917
11
89.3676899999999961
21
106.5875519999999881
0
LINE
8
BLACK
6
CONTINUOUS
10
89.3676899999999961
20
106.5875519999999881
11
89.3435669999999931
21
102.8787739999999928
0
LINE
8
BLACK
6
CONTINUOUS
10
89.3435669999999931
20
102.8787739999999928
11
89.3429849999999988
21
102.875945999999999
0
LINE
8
BLACK
6
CONTINUOUS
10
89.3429849999999988
20
102.875945999999999
11
89.3432789999999954
21
102.8730779999999925
0
LINE
8
BLACK
6
CONTINUOUS
10
89.3432789999999954
20
102.8730779999999925
11
88.9951819999999998
21
99.1919999999999931
0
LINE
8
BLACK
6
CONTINUOUS
10
88.9951819999999998
20
99.1919999999999931
11
88.9943559999999962
21
99.1892399999999981
0
LINE
8
BLACK
6
CONTINUOUS
10
88.9943559999999962
20
99.1892399999999981
11
88.9943979999999897
21
99.1863589999999959
0
LINE
8
BLACK
6
CONTINUOUS
10
88.9943979999999897
20
99.1863589999999959
11
88.3223249999999922
21
95.5329830000000015
0
LINE
8
BLACK
6
CONTINUOUS
10
88.3223249999999922
20
95.5329830000000015
11
88.3212789999999899
21
95.5303519999999935
0
LINE
8
BLACK
6
CONTINUOUS
10
88.3212789999999899
20
95.5303519999999935
11
88.3210759999999908
21
95.5275239999999997
0
LINE
8
BLACK
6
CONTINUOUS
10
88.3210759999999908
20
95.5275239999999997
11
87.325027999999989
21
91.9018489999999986
0
LINE
8
BLACK
6
CONTINUOUS
10
87.325027999999989
20
91.9018489999999986
11
87.323796999999999
21
91.8993940000000009
0
LINE
8
BLACK
6
CONTINUOUS
10
87.323796999999999
20
91.8993940000000009
11
87.3233729999999895
21
91.8966799999999893
0
LINE
8
BLACK
6
CONTINUOUS
10
87.3233729999999895
20
91.8966799999999893
11
86.0033499999999975
21
88.2987049999999982
0
LINE
8
BLACK
6
CONTINUOUS
10
86.0033499999999975
20
88.2987049999999982
11
86.0019810000000007
21
88.2964630000000028
0
LINE
8
BLACK
6
CONTINUOUS
10
86.0019810000000007
20
88.2964630000000028
11
86.0013689999999968
21
88.2939069999999901
0
LINE
8
BLACK
6
CONTINUOUS
10
86.0013689999999968
20
88.2939069999999901
11
84.3573689999999914
21
84.7236329999999924
0
LINE
8
BLACK
6
CONTINUOUS
10
84.3573689999999914
20
84.7236329999999924
11
84.3559089999999969
21
84.7216229999999939
0
LINE
8
BLACK
6
CONTINUOUS
10
84.3559089999999969
20
84.7216229999999939
11
84.3551489999999973
21
84.7192539999999923
0
LINE
8
BLACK
6
CONTINUOUS
10
84.3551489999999973
20
84.7192539999999923
11
82.3871759999999966
21
81.176682999999997
0
LINE
8
BLACK
6
CONTINUOUS
10
82.3871759999999966
20
81.176682999999997
11
82.3847169999999949
21
81.1737849999999952
0
LINE
8
BLACK
6
CONTINUOUS
10
82.3847169999999949
20
81.1737849999999952
11
82.3831440000000015
21
81.1703229999999962
0
LINE
8
BLACK
6
CONTINUOUS
10
82.3831440000000015
20
81.1703229999999962
11
80.0443250000000006
21
77.9148739999999975
0
LINE
8
BLACK
6
CONTINUOUS
10
80.0443250000000006
20
77.9148739999999975
11
80.0402429999999896
21
77.9110609999999895
0
LINE
8
BLACK
6
CONTINUOUS
10
80.0402429999999896
20
77.9110609999999895
11
80.0370959999999911
21
77.9064379999999943
0
LINE
8
BLACK
6
CONTINUOUS
10
80.0370959999999911
20
77.9064379999999943
11
77.2805609999999916
21
75.197535000000002
0
LINE
8
BLACK
6
CONTINUOUS
10
77.2805609999999916
20
75.197535000000002
11
77.2756820000000033
21
75.1943380000000019
0
LINE
8
BLACK
6
CONTINUOUS
10
77.2756820000000033
20
75.1943380000000019
11
77.2715960000000024
21
75.1901759999999939
0
LINE
8
BLACK
6
CONTINUOUS
10
77.2715960000000024
20
75.1901759999999939
11
74.0973439999999925
21
73.0278189999999938
0
LINE
8
BLACK
6
CONTINUOUS
10
74.0973439999999925
20
73.0278189999999938
11
74.0920739999999967
21
73.025582
0
LINE
8
BLACK
6
CONTINUOUS
10
74.0920739999999967
20
73.025582
11
74.0874149999999929
21
73.0222610000000003
0
LINE
8
BLACK
6
CONTINUOUS
10
74.0874149999999929
20
73.0222610000000003
11
70.4954479999999961
21
71.4064499999999924
0
LINE
8
BLACK
6
CONTINUOUS
10
70.4954479999999961
20
71.4064499999999924
11
70.4902850000000001
21
71.4052609999999959
0
LINE
8
BLACK
6
CONTINUOUS
10
70.4902850000000001
20
71.4052609999999959
11
70.4855299999999971
21
71.4029230000000013
0
LINE
8
BLACK
6
CONTINUOUS
10
70.4855299999999971
20
71.4029230000000013
11
66.4758449999999925
21
70.3336579999999998
0
LINE
8
BLACK
6
CONTINUOUS
10
66.4758449999999925
20
70.3336579999999998
11
66.4711750000000023
21
70.3333579999999898
0
LINE
8
BLACK
6
CONTINUOUS
10
66.4711750000000023
20
70.3333579999999898
11
66.4667189999999977
21
70.331910999999991
0
LINE
8
BLACK
6
CONTINUOUS
10
66.4667189999999977
20
70.331910999999991
11
62.0393179999999944
21
69.8091919999999959
0
LINE
8
BLACK
6
CONTINUOUS
10
62.0393179999999944
20
69.8091919999999959
11
62.0353159999999946
21
69.8095089999999914
0
LINE
8
BLACK
6
CONTINUOUS
10
62.0353159999999946
20
69.8095089999999914
11
62.0313779999999966
21
69.8087450000000018
0
LINE
8
BLACK
6
CONTINUOUS
10
62.0313779999999966
20
69.8087450000000018
11
57.1862599999999972
21
69.8325710000000015
0
LINE
8
BLACK
6
CONTINUOUS
10
57.1862599999999972
20
69.8325710000000015
11
57.1829469999999986
21
69.8332470000000001
0
LINE
8
BLACK
6
CONTINUOUS
10
57.1829469999999986
20
69.8332470000000001
11
57.1795769999999948
21
69.8329480000000018
0
LINE
8
BLACK
6
CONTINUOUS
10
57.1795769999999948
20
69.8329480000000018
11
52.2671089999999978
21
70.3653499999999923
0
LINE
8
BLACK
6
CONTINUOUS
10
52.2671089999999978
20
70.3653499999999923
11
54.525582
21
69.210331999999994
0
LINE
8
BLACK
6
CONTINUOUS
10
54.525582
20
69.210331999999994
11
57.1415140000000008
21
68.0700059999999922
0
LINE
8
BLACK
6
CONTINUOUS
10
57.1415140000000008
20
68.0700059999999922
11
59.8028919999999999
21
67.1039229999999947
0
LINE
8
BLACK
6
CONTINUOUS
10
59.8028919999999999
20
67.1039229999999947
11
62.5097499999999968
21
66.3120639999999923
0
LINE
8
BLACK
6
CONTINUOUS
10
62.5097499999999968
20
66.3120639999999923
11
65.262170999999995
21
65.6943979999999925
0
LINE
8
BLACK
6
CONTINUOUS
10
65.262170999999995
20
65.6943979999999925
11
68.0601699999999994
21
65.2509269999999901
0
LINE
8
BLACK
6
CONTINUOUS
10
68.0601699999999994
20
65.2509269999999901
11
70.9038230000000027
21
64.9816500000000019
0
LINE
8
BLACK
6
CONTINUOUS
10
70.9038230000000027
20
64.9816500000000019
11
73.7950919999999968
21
64.8865139999999911
0
LINE
8
BLACK
6
CONTINUOUS
10
73.7950919999999968
20
64.8865139999999911
11
73.7957260000000019
21
64.8863659999999953
0
LINE
8
BLACK
6
CONTINUOUS
10
73.7957260000000019
20
64.8863659999999953
11
73.796369999999996
21
64.8864590000000021
0
LINE
8
BLACK
6
CONTINUOUS
10
73.796369999999996
20
64.8864590000000021
11
76.6431529999999981
21
64.7366569999999939
0
LINE
8
BLACK
6
CONTINUOUS
10
76.6431529999999981
20
64.7366569999999939
11
76.646529000000001
21
64.7357990000000001
0
LINE
8
BLACK
6
CONTINUOUS
10
76.646529000000001
20
64.7357990000000001
11
76.6500099999999946
21
64.7359299999999962
0
LINE
8
BLACK
6
CONTINUOUS
10
76.6500099999999946
20
64.7359299999999962
11
79.3582090000000022
21
64.3024659999999955
0
LINE
8
BLACK
6
CONTINUOUS
10
79.3582090000000022
20
64.3024659999999955
11
79.3616959999999949
21
64.3011729999999915
0
LINE
8
BLACK
6
CONTINUOUS
10
79.3616959999999949
20
64.3011729999999915
11
79.3654080000000022
21
64.3008909999999929
0
LINE
8
BLACK
6
CONTINUOUS
10
79.3654080000000022
20
64.3008909999999929
11
81.935023000000001
21
63.5837669999999946
0
LINE
8
BLACK
6
CONTINUOUS
10
81.935023000000001
20
63.5837669999999946
11
81.938486999999995
21
63.5820139999999938
0
LINE
8
BLACK
6
CONTINUOUS
10
81.938486999999995
20
63.5820139999999938
11
81.9422939999999898
21
63.5812649999999948
0
LINE
8
BLACK
6
CONTINUOUS
10
81.9422939999999898
20
63.5812649999999948
11
84.3733229999999992
21
62.5804799999999943
0
LINE
8
BLACK
6
CONTINUOUS
10
84.3733229999999992
20
62.5804799999999943
11
84.3766030000000029
21
62.5782989999999941
0
LINE
8
BLACK
6
CONTINUOUS
10
84.3766030000000029
20
62.5782989999999941
11
84.3803509999999903
21
62.5770799999999952
0
LINE
8
BLACK
6
CONTINUOUS
10
84.3803509999999903
20
62.5770799999999952
11
86.6727949999999936
21
61.2926339999999996
0
LINE
8
BLACK
6
CONTINUOUS
10
86.6727949999999936
20
61.2926339999999996
11
86.6757499999999936
21
61.290108999999994
0
LINE
8
BLACK
6
CONTINUOUS
10
86.6757499999999936
20
61.290108999999994
11
86.6792810000000031
21
61.2884770000000003
0
LINE
8
BLACK
6
CONTINUOUS
10
86.6792810000000031
20
61.2884770000000003
11
88.8331390000000027
21
59.7203710000000001
0
LINE
8
BLACK
6
CONTINUOUS
10
88.8331390000000027
20
59.7203710000000001
11
88.8356699999999933
21
59.7176279999999977
0
LINE
8
BLACK
6
CONTINUOUS
10
88.8356699999999933
20
59.7176279999999977
11
88.8388609999999943
21
59.7156850000000006
0
LINE
8
BLACK
6
CONTINUOUS
10
88.8388609999999943
20
59.7156850000000006
11
90.8541359999999969
21
57.8639170000000007
0
LINE
8
BLACK
6
CONTINUOUS
10
90.8541359999999969
20
57.8639170000000007
11
90.8561989999999895
21
57.8610939999999943
0
LINE
8
BLACK
6
CONTINUOUS
10
90.8561989999999895
20
57.8610939999999943
11
90.8589819999999975
21
57.8589640000000003
0
LINE
8
BLACK
6
CONTINUOUS
10
90.8589819999999975
20
57.8589640000000003
11
92.7356709999999964
21
55.7235359999999957
0
LINE
8
BLACK
6
CONTINUOUS
10
92.7356709999999964
20
55.7235359999999957
11
92.7370809999999892
21
55.7210999999999999
0
LINE
8
BLACK
6
CONTINUOUS
10
92.7370809999999892
20
55.7210999999999999
11
92.7391649999999998
21
55.7192000000000007
0
LINE
8
BLACK
6
CONTINUOUS
10
92.7391649999999998
20
55.7192000000000007
11
94.434905999999998
21
53.419087999999995
0
LINE
8
BLACK
6
CONTINUOUS
10
94.434905999999998
20
53.419087999999995
11
94.4359509999999887
21
53.4168609999999973
0
LINE
8
BLACK
6
CONTINUOUS
10
94.4359509999999887
20
53.4168609999999973
11
94.4376400000000018
21
53.4150729999999996
0
LINE
8
BLACK
6
CONTINUOUS
10
94.4376400000000018
20
53.4150729999999996
11
95.910066999999998
21
51.0692579999999978
0
LINE
8
BLACK
6
CONTINUOUS
10
95.910066999999998
20
51.0692579999999978
11
95.9109929999999906
21
51.0668269999999964
0
LINE
8
BLACK
6
CONTINUOUS
10
95.9109929999999906
20
51.0668269999999964
11
95.9126289999999955
21
51.0647949999999966
0
LINE
8
BLACK
6
CONTINUOUS
10
95.9126289999999955
20
51.0647949999999966
11
97.1617419999999896
21
48.6732739999999993
0
LINE
8
BLACK
6
CONTINUOUS
10
97.1617419999999896
20
48.6732739999999993
11
97.1625080000000025
21
48.6706569999999985
0
LINE
8
BLACK
6
CONTINUOUS
10
97.1625080000000025
20
48.6706569999999985
11
97.1640379999999908
21
48.6683960000000013
0
LINE
8
BLACK
6
CONTINUOUS
10
97.1640379999999908
20
48.6683960000000013
11
98.1898389999999921
21
46.2311699999999988
0
LINE
8
BLACK
6
CONTINUOUS
10
98.1898389999999921
20
46.2311699999999988
11
98.1904040000000009
21
46.2284079999999946
0
LINE
8
BLACK
6
CONTINUOUS
10
98.1904040000000009
20
46.2284079999999946
11
98.1917789999999968
21
46.2259449999999958
0
LINE
8
BLACK
6
CONTINUOUS
10
98.1917789999999968
20
46.2259449999999958
11
98.9942659999999961
21
43.7430139999999952
0
LINE
8
BLACK
6
CONTINUOUS
10
98.9942659999999961
20
43.7430139999999952
11
98.9945989999999938
21
43.740158000000001
0
LINE
8
BLACK
6
CONTINUOUS
10
98.9945989999999938
20
43.740158000000001
11
98.9957749999999947
21
43.7375359999999986
0
LINE
8
BLACK
6
CONTINUOUS
10
98.9957749999999947
20
43.7375359999999986
11
99.5749500000000012
21
41.2088999999999999
0
LINE
8
BLACK
6
CONTINUOUS
10
99.5749500000000012
20
41.2088999999999999
11
99.5750329999999906
21
41.2060180000000003
0
LINE
8
BLACK
6
CONTINUOUS
10
99.5750329999999906
20
41.2060180000000003
11
99.5759789999999896
21
41.2032889999999981
0
LINE
8
BLACK
6
CONTINUOUS
10
99.5759789999999896
20
41.2032889999999981
11
99.931839999999994
21
38.6289459999999991
0
LINE
8
BLACK
6
CONTINUOUS
10
99.931839999999994
20
38.6289459999999991
11
99.9316709999999944
21
38.6260970000000015
0
LINE
8
BLACK
6
CONTINUOUS
10
99.9316709999999944
20
38.6260970000000015
11
99.9323689999999942
21
38.6233299999999957
0
LINE
8
BLACK
6
CONTINUOUS
10
99.9323689999999942
20
38.6233299999999957
11
100.0649169999999941
21
36.0032840000000007
0
LINE
8
BLACK
6
CONTINUOUS
10
100.0649169999999941
20
36.0032840000000007
11
100.0646739999999966
21
36.0016350000000003
0
LINE
8
BLACK
6
CONTINUOUS
10
100.0646739999999966
20
36.0016350000000003
11
100.0649999999999977
21
36.
0
LINE
8
BLACK
6
CONTINUOUS
10
100.0649999999999977
20
36.
11
100.0649999999999977
21
19.
0
LINE
8
BLACK
6
CONTINUOUS
10
100.0649999999999977
20
19.
11
100.0639139999999969
21
18.9945449999999987
0
LINE
8
BLACK
6
CONTINUOUS
10
100.0639139999999969
20
18.9945449999999987
11
100.0640599999999978
21
18.9889869999999981
0
LINE
8
BLACK
6
CONTINUOUS
10
100.0640599999999978
20
18.9889869999999981
11
99.4337069999999983
21
15.3223939999999992
0
LINE
8
BLACK
6
CONTINUOUS
10
99.4337069999999983
20
15.3223939999999992
11
99.4317729999999926
21
15.317359999999999
0
LINE
8
BLACK
6
CONTINUOUS
10
99.4317729999999926
20
15.317359999999999
11
99.4310259999999886
21
15.3120139999999996
0
LINE
8
BLACK
6
CONTINUOUS
10
99.4310259999999886
20
15.3120139999999996
11
98.2978719999999981
21
12.0609059999999992
0
LINE
8
BLACK
6
CONTINUOUS
10
98.2978719999999981
20
12.0609059999999992
11
98.2947619999999915
21
12.0556209999999986
0
LINE
8
BLACK
6
CONTINUOUS
10
98.2947619999999915
20
12.0556209999999986
11
98.2927949999999981
21
12.0498169999999991
0
LINE
8
BLACK
6
CONTINUOUS
10
98.2927949999999981
20
12.0498169999999991
11
96.656841
21
9.2141950000000001
0
LINE
8
BLACK
6
CONTINUOUS
10
96.656841
20
9.2141950000000001
11
96.6525329999999911
21
9.2092809999999989
0
LINE
8
BLACK
6
CONTINUOUS
10
96.6525329999999911
20
9.2092809999999989
11
96.6492449999999934
21
9.2036339999999992
0
LINE
8
BLACK
6
CONTINUOUS
10
96.6492449999999934
20
9.2036339999999992
11
94.5104899999999901
21
6.7834969999999997
0
LINE
8
BLACK
6
CONTINUOUS
10
94.5104899999999901
20
6.7834969999999997
11
94.5053569999999894
21
6.7795899999999998
0
LINE
8
BLACK
6
CONTINUOUS
10
94.5053569999999894
20
6.7795899999999998
11
94.5010779999999926
21
6.774762
0
LINE
8
BLACK
6
CONTINUOUS
10
94.5010779999999926
20
6.774762
11
91.8595219999999983
21
4.7701089999999997
0
LINE
8
BLACK
6
CONTINUOUS
10
91.8595219999999983
20
4.7701089999999997
11
91.8542029999999983
21
4.7675219999999996
0
LINE
8
BLACK
6
CONTINUOUS
10
91.8542029999999983
20
4.7675219999999996
11
91.8495470000000012
21
4.7638749999999996
0
LINE
8
BLACK
6
CONTINUOUS
10
91.8495470000000012
20
4.7638749999999996
11
88.7051909999999992
21
3.1747079999999999
0
LINE
8
BLACK
6
CONTINUOUS
10
88.7051909999999992
20
3.1747079999999999
11
88.7002579999999909
21
3.1733349999999998
0
LINE
8
BLACK
6
CONTINUOUS
10
88.7002579999999909
20
3.1733349999999998
11
88.6957839999999891
21
3.1708449999999999
0
LINE
8
BLACK
6
CONTINUOUS
10
88.6957839999999891
20
3.1708449999999999
11
85.0486269999999962
21
1.9971629999999998
0
LINE
8
BLACK
6
CONTINUOUS
10
85.0486269999999962
20
1.9971629999999998
11
85.0443759999999997
21
1.9966729999999999
0
LINE
8
BLACK
6
CONTINUOUS
10
85.0443759999999997
20
1.9966729999999999
11
85.0403969999999987
21
1.995096
0
LINE
8
BLACK
6
CONTINUOUS
10
85.0403969999999987
20
1.995096
11
80.8904380000000032
21
1.236899
0
LINE
8
BLACK
6
CONTINUOUS
10
80.8904380000000032
20
1.236899
11
80.8879110000000026
21
1.236939
0
LINE
8
BLACK
6
CONTINUOUS
10
80.8879110000000026
20
1.236939
11
80.8855009999999908
21
1.236192
0
LINE
8
BLACK
6
CONTINUOUS
10
80.8855009999999908
20
1.236192
11
76.2237069999999903
21
0.749844
0
LINE
8
BLACK
6
CONTINUOUS
10
76.2237069999999903
20
0.749844
11
76.2225559999999973
21
0.7499509999999999
0
LINE
8
BLACK
6
CONTINUOUS
10
76.2225559999999973
20
0.7499509999999999
11
76.2214429999999936
21
0.749648
0
LINE
8
BLACK
6
CONTINUOUS
10
76.2214429999999936
20
0.749648
11
71.0387769999999961
21
0.391511
0
LINE
8
BLACK
6
CONTINUOUS
10
71.0387769999999961
20
0.391511
11
71.0378359999999986
21
0.391632
0
LINE
8
BLACK
6
CONTINUOUS
10
71.0378359999999986
20
0.391632
11
71.0369139999999959
21
0.391409
0
LINE
8
BLACK
6
CONTINUOUS
10
71.0369139999999959
20
0.391409
11
65.3333769999999987
21
0.161486
0
LINE
8
BLACK
6
CONTINUOUS
10
65.3333769999999987
20
0.161486
11
65.3325940000000003
21
0.16161
0
LINE
8
BLACK
6
CONTINUOUS
10
65.3325940000000003
20
0.16161
11
65.3318209999999908
21
0.161442
0
LINE
8
BLACK
6
CONTINUOUS
10
65.3318209999999908
20
0.161442
11
59.1074119999999965
21
0.05973
0
LINE
8
BLACK
6
CONTINUOUS
10
59.1074119999999965
20
0.05973
11
59.1067520000000002
21
0.059851
0
LINE
8
BLACK
6
CONTINUOUS
10
59.1067520000000002
20
0.059851
11
59.1060949999999963
21
0.059722
0
LINE
8
BLACK
6
CONTINUOUS
10
59.1060949999999963
20
0.059722
11
52.3608149999999952
21
0.086223
0
LINE
8
BLACK
6
CONTINUOUS
10
52.3608149999999952
20
0.086223
11
52.3602519999999956
21
0.086338
0
LINE
8
BLACK
6
CONTINUOUS
10
52.3602519999999956
20
0.086338
11
52.3596859999999964
21
0.086237
0
LINE
8
BLACK
6
CONTINUOUS
10
52.3596859999999964
20
0.086237
11
45.0935339999999982
21
0.240951
0
LINE
8
BLACK
6
CONTINUOUS
10
45.0935339999999982
20
0.240951
11
45.0930490000000006
21
0.241059
0
LINE
8
BLACK
6
CONTINUOUS
10
45.0930490000000006
20
0.241059
11
45.0925579999999968
21
0.240979
0
LINE
8
BLACK
6
CONTINUOUS
10
45.0925579999999968
20
0.240979
11
37.3055340000000015
21
0.5239039999999999
0
LINE
8
BLACK
6
CONTINUOUS
10
37.3055340000000015
20
0.5239039999999999
11
37.3051120000000012
21
0.524004
0
LINE
8
BLACK
6
CONTINUOUS
10
37.3051120000000012
20
0.524004
11
37.3046809999999951
21
0.52394
0
LINE
8
BLACK
6
CONTINUOUS
10
37.3046809999999951
20
0.52394
11
29.0255779999999994
21
0.933655
0
LINE
8
BLACK
6
CONTINUOUS
10
29.0255779999999994
20
0.933655
11
28.0459619999999994
21
-0.045962
0
LINE
8
BLACK
6
CONTINUOUS
10
28.0459619999999994
20
-0.045962
11
28.024874999999998
21
-0.060052
0
LINE
8
BLACK
6
CONTINUOUS
10
28.024874999999998
20
-0.060052
11
28.0248740000000005
21
-0.060052
0
LINE
8
BLACK
6
CONTINUOUS
10
28.0248740000000005
20
-0.060052
11
28.
21
-0.065
0
LINE
8
BLACK
6
CONTINUOUS
10
28.
20
-0.065
11
-28.
21
-0.065
0
LINE
8
BLACK
6
CONTINUOUS
10
-28.
20
-0.065
11
-28.0248740000000005
21
-0.060052
0
LINE
8
BLACK
6
CONTINUOUS
10
-28.0248740000000005
20
-0.060052
11
-28.0459619999999994
21
-0.045962
0
LINE
8
BLACK
6
CONTINUOUS
10
-28.0459619999999994
20
-0.045962
11
-29.0255790000000005
21
0.933655
0
LINE
8
BLACK
6
CONTINUOUS
10
-29.0255790000000005
20
0.933655
11
-37.3046809999999951
21
0.52394
0
LINE
8
BLACK
6
CONTINUOUS
10
-37.3046809999999951
20
0.52394
11
-37.3051129999999986
21
0.524004
0
LINE
8
BLACK
6
CONTINUOUS
10
-37.3051129999999986
20
0.524004
11
-37.3055340000000015
21
0.5239039999999999
0
LINE
8
BLACK
6
CONTINUOUS
10
-37.3055340000000015
20
0.5239039999999999
11
-45.0925579999999968
21
0.240979
0
LINE
8
BLACK
6
CONTINUOUS
10
-45.0925579999999968
20
0.240979
11
-45.0930499999999981
21
0.241059
0
LINE
8
BLACK
6
CONTINUOUS
10
-45.0930499999999981
20
0.241059
11
-45.0935339999999982
21
0.240951
0
LINE
8
BLACK
6
CONTINUOUS
10
-45.0935339999999982
20
0.240951
11
-52.3596859999999964
21
0.086237
0
LINE
8
BLACK
6
CONTINUOUS
10
-52.3596859999999964
20
0.086237
11
-52.3602530000000002
21
0.086338
0
LINE
8
BLACK
6
CONTINUOUS
10
-52.3602530000000002
20
0.086338
11
-52.3608149999999952
21
0.086223
0
LINE
8
BLACK
6
CONTINUOUS
10
-52.3608149999999952
20
0.086223
11
-59.1060949999999963
21
0.059722
0
LINE
8
BLACK
6
CONTINUOUS
10
-59.1060949999999963
20
0.059722
11
-59.1067529999999977
21
0.059851
0
LINE
8
BLACK
6
CONTINUOUS
10
-59.1067529999999977
20
0.059851
11
-59.1074119999999965
21
0.05973
0
LINE
8
BLACK
6
CONTINUOUS
10
-59.1074119999999965
20
0.05973
11
-65.3318209999999908
21
0.161442
0
LINE
8
BLACK
6
CONTINUOUS
10
-65.3318209999999908
20
0.161442
11
-65.3325959999999952
21
0.16161
0
LINE
8
BLACK
6
CONTINUOUS
10
-65.3325959999999952
20
0.16161
11
-65.3333779999999962
21
0.161486
0
LINE
8
BLACK
6
CONTINUOUS
10
-65.3333779999999962
20
0.161486
11
-71.0369139999999959
21
0.391409
0
LINE
8
BLACK
6
CONTINUOUS
10
-71.0369139999999959
20
0.391409
11
-71.0378369999999961
21
0.391632
0
LINE
8
BLACK
6
CONTINUOUS
10
-71.0378369999999961
20
0.391632
11
-71.0387769999999961
21
0.391511
0
LINE
8
BLACK
6
CONTINUOUS
10
-71.0387769999999961
20
0.391511
11
-76.2214429999999936
21
0.749648
0
LINE
8
BLACK
6
CONTINUOUS
10
-76.2214429999999936
20
0.749648
11
-76.2225569999999948
21
0.7499509999999999
0
LINE
8
BLACK
6
CONTINUOUS
10
-76.2225569999999948
20
0.7499509999999999
11
-76.2237059999999929
21
0.749844
0
LINE
8
BLACK
6
CONTINUOUS
10
-76.2237059999999929
20
0.749844
11
-80.8855009999999908
21
1.236192
0
LINE
8
BLACK
6
CONTINUOUS
10
-80.8855009999999908
20
1.236192
11
-80.887912
21
1.236939
0
LINE
8
BLACK
6
CONTINUOUS
10
-80.887912
20
1.236939
11
-80.8904380000000032
21
1.236899
0
LINE
8
BLACK
6
CONTINUOUS
10
-80.8904380000000032
20
1.236899
11
-85.0403969999999987
21
1.995096
0
LINE
8
BLACK
6
CONTINUOUS
10
-85.0403969999999987
20
1.995096
11
-85.0443769999999972
21
1.9966729999999999
0
LINE
8
BLACK
6
CONTINUOUS
10
-85.0443769999999972
20
1.9966729999999999
11
-85.0486269999999962
21
1.9971629999999998
0
LINE
8
BLACK
6
CONTINUOUS
10
-85.0486269999999962
20
1.9971629999999998
11
-88.6957839999999891
21
3.1708449999999999
0
LINE
8
BLACK
6
CONTINUOUS
10
-88.6957839999999891
20
3.1708449999999999
11
-88.7002590000000026
21
3.1733349999999998
0
LINE
8
BLACK
6
CONTINUOUS
10
-88.7002590000000026
20
3.1733349999999998
11
-88.7051919999999967
21
3.1747079999999999
0
LINE
8
BLACK
6
CONTINUOUS
10
-88.7051919999999967
20
3.1747079999999999
11
-91.8495470000000012
21
4.7638749999999996
0
LINE
8
BLACK
6
CONTINUOUS
10
-91.8495470000000012
20
4.7638749999999996
11
-91.8542039999999957
21
4.7675219999999996
0
LINE
8
BLACK
6
CONTINUOUS
10
-91.8542039999999957
20
4.7675219999999996
11
-91.8595219999999983
21
4.7701089999999997
0
LINE
8
BLACK
6
CONTINUOUS
10
-91.8595219999999983
20
4.7701089999999997
11
-94.5010779999999926
21
6.774762
0
LINE
8
BLACK
6
CONTINUOUS
10
-94.5010779999999926
20
6.774762
11
-94.5053580000000011
21
6.7795899999999998
0
LINE
8
BLACK
6
CONTINUOUS
10
-94.5053580000000011
20
6.7795899999999998
11
-94.5104899999999901
21
6.7834969999999997
0
LINE
8
BLACK
6
CONTINUOUS
10
-94.5104899999999901
20
6.7834969999999997
11
-96.6492449999999934
21
9.2036339999999992
0
LINE
8
BLACK
6
CONTINUOUS
10
-96.6492449999999934
20
9.2036339999999992
11
-96.6525339999999886
21
9.2092809999999989
0
LINE
8
BLACK
6
CONTINUOUS
10
-96.6525339999999886
20
9.2092809999999989
11
-96.656841
21
9.2141950000000001
0
LINE
8
BLACK
6
CONTINUOUS
10
-96.656841
20
9.2141950000000001
11
-98.2927949999999981
21
12.0498169999999991
0
LINE
8
BLACK
6
CONTINUOUS
10
-98.2927949999999981
20
12.0498169999999991
11
-98.294762999999989
21
12.0556209999999986
0
LINE
8
BLACK
6
CONTINUOUS
10
-98.294762999999989
20
12.0556209999999986
11
-98.2978719999999981
21
12.0609059999999992
0
LINE
8
BLACK
6
CONTINUOUS
10
-98.2978719999999981
20
12.0609059999999992
11
-99.4310259999999886
21
15.3120139999999996
0
LINE
8
BLACK
6
CONTINUOUS
10
-99.4310259999999886
20
15.3120139999999996
11
-99.4317739999999901
21
15.317359999999999
0
LINE
8
BLACK
6
CONTINUOUS
10
-99.4317739999999901
20
15.317359999999999
11
-99.4337069999999983
21
15.3223939999999992
0
LINE
8
BLACK
6
CONTINUOUS
10
-99.4337069999999983
20
15.3223939999999992
11
-100.0640599999999978
21
18.9889869999999981
0
LINE
8
BLACK
6
CONTINUOUS
10
-100.0640599999999978
20
18.9889869999999981
11
-100.0639149999999944
21
18.9945449999999987
0
LINE
8
BLACK
6
CONTINUOUS
10
-100.0639149999999944
20
18.9945449999999987
11
-100.0649999999999977
21
19.
0
LINE
8
BLACK
6
CONTINUOUS
10
-100.0649999999999977
20
19.
11
-100.0649999999999977
21
36.
0
LINE
8
BLACK
6
CONTINUOUS
10
-100.0649999999999977
20
36.
11
-100.064674999999994
21
36.0016350000000003
0
LINE
8
BLACK
6
CONTINUOUS
10
-100.064674999999994
20
36.0016350000000003
11
-100.0649169999999941
21
36.0032840000000007
0
LINE
8
BLACK
6
CONTINUOUS
10
-100.0649169999999941
20
36.0032840000000007
11
-99.9323689999999942
21
38.6233299999999957
0
LINE
8
BLACK
6
CONTINUOUS
10
-99.9323689999999942
20
38.6233299999999957
11
-99.9316719999999918
21
38.6260979999999989
0
LINE
8
BLACK
6
CONTINUOUS
10
-99.9316719999999918
20
38.6260979999999989
11
-99.931839999999994
21
38.6289469999999966
0
LINE
8
BLACK
6
CONTINUOUS
10
-99.931839999999994
20
38.6289469999999966
11
-99.5759789999999896
21
41.2032889999999981
0
LINE
8
BLACK
6
CONTINUOUS
10
-99.5759789999999896
20
41.2032889999999981
11
-99.5750340000000023
21
41.2060180000000003
0
LINE
8
BLACK
6
CONTINUOUS
10
-99.5750340000000023
20
41.2060180000000003
11
-99.5749500000000012
21
41.2088999999999999
0
LINE
8
BLACK
6
CONTINUOUS
10
-99.5749500000000012
20
41.2088999999999999
11
-98.9957749999999947
21
43.7375359999999986
0
LINE
8
BLACK
6
CONTINUOUS
10
-98.9957749999999947
20
43.7375359999999986
11
-98.9945999999999913
21
43.740158000000001
0
LINE
8
BLACK
6
CONTINUOUS
10
-98.9945999999999913
20
43.740158000000001
11
-98.9942659999999961
21
43.7430139999999952
0
LINE
8
BLACK
6
CONTINUOUS
10
-98.9942659999999961
20
43.7430139999999952
11
-98.1917789999999968
21
46.2259449999999958
0
LINE
8
BLACK
6
CONTINUOUS
10
-98.1917789999999968
20
46.2259449999999958
11
-98.1904049999999984
21
46.2284079999999946
0
LINE
8
BLACK
6
CONTINUOUS
10
-98.1904049999999984
20
46.2284079999999946
11
-98.1898389999999921
21
46.2311699999999988
0
LINE
8
BLACK
6
CONTINUOUS
10
-98.1898389999999921
20
46.2311699999999988
11
-97.1640379999999908
21
48.6683960000000013
0
LINE
8
BLACK
6
CONTINUOUS
10
-97.1640379999999908
20
48.6683960000000013
11
-97.162510999999995
21
48.6706549999999964
0
LINE
8
BLACK
6
CONTINUOUS
10
-97.162510999999995
20
48.6706549999999964
11
-97.1617430000000013
21
48.6732739999999993
0
LINE
8
BLACK
6
CONTINUOUS
10
-97.1617430000000013
20
48.6732739999999993
11
-95.9126289999999955
21
51.0647939999999991
0
LINE
8
BLACK
6
CONTINUOUS
10
-95.9126289999999955
20
51.0647939999999991
11
-95.9109949999999998
21
51.0668249999999944
0
LINE
8
BLACK
6
CONTINUOUS
10
-95.9109949999999998
20
51.0668249999999944
11
-95.910066999999998
21
51.0692579999999978
0
LINE
8
BLACK
6
CONTINUOUS
10
-95.910066999999998
20
51.0692579999999978
11
-94.4376400000000018
21
53.4150729999999996
0
LINE
8
BLACK
6
CONTINUOUS
10
-94.4376400000000018
20
53.4150729999999996
11
-94.4359529999999978
21
53.4168599999999998
0
LINE
8
BLACK
6
CONTINUOUS
10
-94.4359529999999978
20
53.4168599999999998
11
-94.434905999999998
21
53.4190889999999996
0
LINE
8
BLACK
6
CONTINUOUS
10
-94.434905999999998
20
53.4190889999999996
11
-92.7391640000000024
21
55.7192000000000007
0
LINE
8
BLACK
6
CONTINUOUS
10
-92.7391640000000024
20
55.7192000000000007
11
-92.7370839999999959
21
55.7210970000000003
0
LINE
8
BLACK
6
CONTINUOUS
10
-92.7370839999999959
20
55.7210970000000003
11
-92.7356709999999964
21
55.7235370000000003
0
LINE
8
BLACK
6
CONTINUOUS
10
-92.7356709999999964
20
55.7235370000000003
11
-90.858981
21
57.8589640000000003
0
LINE
8
BLACK
6
CONTINUOUS
10
-90.858981
20
57.8589640000000003
11
-90.8562029999999936
21
57.8610919999999993
0
LINE
8
BLACK
6
CONTINUOUS
10
-90.8562029999999936
20
57.8610919999999993
11
-90.8541359999999969
21
57.8639179999999982
0
LINE
8
BLACK
6
CONTINUOUS
10
-90.8541359999999969
20
57.8639179999999982
11
-88.8388609999999943
21
59.7156850000000006
0
LINE
8
BLACK
6
CONTINUOUS
10
-88.8388609999999943
20
59.7156850000000006
11
-88.8356729999999999
21
59.7176259999999957
0
LINE
8
BLACK
6
CONTINUOUS
10
-88.8356729999999999
20
59.7176259999999957
11
-88.8331400000000002
21
59.7203710000000001
0
LINE
8
BLACK
6
CONTINUOUS
10
-88.8331400000000002
20
59.7203710000000001
11
-86.6792810000000031
21
61.2884759999999957
0
LINE
8
BLACK
6
CONTINUOUS
10
-86.6792810000000031
20
61.2884759999999957
11
-86.6757530000000003
21
61.290106999999999
0
LINE
8
BLACK
6
CONTINUOUS
10
-86.6757530000000003
20
61.290106999999999
11
-86.6727949999999936
21
61.2926339999999996
0
LINE
8
BLACK
6
CONTINUOUS
10
-86.6727949999999936
20
61.2926339999999996
11
-84.3803509999999903
21
62.5770799999999952
0
LINE
8
BLACK
6
CONTINUOUS
10
-84.3803509999999903
20
62.5770799999999952
11
-84.3766040000000004
21
62.5782989999999941
0
LINE
8
BLACK
6
CONTINUOUS
10
-84.3766040000000004
20
62.5782989999999941
11
-84.3733229999999992
21
62.5804799999999943
0
LINE
8
BLACK
6
CONTINUOUS
10
-84.3733229999999992
20
62.5804799999999943
11
-81.9422939999999898
21
63.5812649999999948
0
LINE
8
BLACK
6
CONTINUOUS
10
-81.9422939999999898
20
63.5812649999999948
11
-81.9384859999999975
21
63.5820139999999938
0
LINE
8
BLACK
6
CONTINUOUS
10
-81.9384859999999975
20
63.5820139999999938
11
-81.9350219999999894
21
63.5837669999999946
0
LINE
8
BLACK
6
CONTINUOUS
10
-81.9350219999999894
20
63.5837669999999946
11
-79.3654080000000022
21
64.3008909999999929
0
LINE
8
BLACK
6
CONTINUOUS
10
-79.3654080000000022
20
64.3008909999999929
11
-79.3616969999999924
21
64.3011729999999915
0
LINE
8
BLACK
6
CONTINUOUS
10
-79.3616969999999924
20
64.3011729999999915
11
-79.3582090000000022
21
64.3024659999999955
0
LINE
8
BLACK
6
CONTINUOUS
10
-79.3582090000000022
20
64.3024659999999955
11
-76.6500099999999946
21
64.7359299999999962
0
LINE
8
BLACK
6
CONTINUOUS
10
-76.6500099999999946
20
64.7359299999999962
11
-76.646529000000001
21
64.7357990000000001
0
LINE
8
BLACK
6
CONTINUOUS
10
-76.646529000000001
20
64.7357990000000001
11
-76.6431529999999981
21
64.7366569999999939
0
LINE
8
BLACK
6
CONTINUOUS
10
-76.6431529999999981
20
64.7366569999999939
11
-73.7963689999999986
21
64.8864590000000021
0
LINE
8
BLACK
6
CONTINUOUS
10
-73.7963689999999986
20
64.8864590000000021
11
-73.7957269999999994
21
64.8863659999999953
0
LINE
8
BLACK
6
CONTINUOUS
10
-73.7957269999999994
20
64.8863659999999953
11
-73.7950919999999968
21
64.8865139999999911
0
LINE
8
BLACK
6
CONTINUOUS
10
-73.7950919999999968
20
64.8865139999999911
11
-70.9038240000000002
21
64.9816500000000019
0
LINE
8
BLACK
6
CONTINUOUS
10
-70.9038240000000002
20
64.9816500000000019
11
-68.0601709999999969
21
65.2509269999999901
0
LINE
8
BLACK
6
CONTINUOUS
10
-68.0601709999999969
20
65.2509269999999901
11
-65.2621719999999925
21
65.6943979999999925
0
LINE
8
BLACK
6
CONTINUOUS
10
-65.2621719999999925
20
65.6943979999999925
11
-62.5097499999999968
21
66.3120639999999923
0
LINE
8
BLACK
6
CONTINUOUS
10
-62.5097499999999968
20
66.3120639999999923
11
-59.8028929999999974
21
67.1039229999999947
0
LINE
8
BLACK
6
CONTINUOUS
10
-59.8028929999999974
20
67.1039229999999947
11
-57.1415149999999983
21
68.0700059999999922
0
LINE
8
BLACK
6
CONTINUOUS
10
-57.1415149999999983
20
68.0700059999999922
11
-54.5255829999999975
21
69.210331999999994
0
LINE
8
BLACK
6
CONTINUOUS
10
-54.5255829999999975
20
69.210331999999994
11
-52.2671099999999953
21
70.3653499999999923
0
LINE
8
BLACK
6
CONTINUOUS
10
-52.2671099999999953
20
70.3653499999999923
11
-57.1795759999999973
21
69.8329480000000018
0
LINE
8
BLACK
6
CONTINUOUS
10
-57.1795759999999973
20
69.8329480000000018
11
-57.1829479999999961
21
69.8332470000000001
0
LINE
8
BLACK
6
CONTINUOUS
10
-57.1829479999999961
20
69.8332470000000001
11
-57.1862599999999972
21
69.8325710000000015
0
LINE
8
BLACK
6
CONTINUOUS
10
-57.1862599999999972
20
69.8325710000000015
11
-62.0313769999999991
21
69.8087450000000018
0
LINE
8
BLACK
6
CONTINUOUS
10
-62.0313769999999991
20
69.8087450000000018
11
-62.0353159999999946
21
69.8095089999999914
0
LINE
8
BLACK
6
CONTINUOUS
10
-62.0353159999999946
20
69.8095089999999914
11
-62.0393179999999944
21
69.8091919999999959
0
LINE
8
BLACK
6
CONTINUOUS
10
-62.0393179999999944
20
69.8091919999999959
11
-66.4667180000000002
21
70.331910999999991
0
LINE
8
BLACK
6
CONTINUOUS
10
-66.4667180000000002
20
70.331910999999991
11
-66.4711739999999907
21
70.3333579999999898
0
LINE
8
BLACK
6
CONTINUOUS
10
-66.4711739999999907
20
70.3333579999999898
11
-66.47584599999999
21
70.3336579999999998
0
LINE
8
BLACK
6
CONTINUOUS
10
-66.47584599999999
20
70.3336579999999998
11
-70.4855299999999971
21
71.4029230000000013
0
LINE
8
BLACK
6
CONTINUOUS
10
-70.4855299999999971
20
71.4029230000000013
11
-70.4902829999999909
21
71.4052599999999984
0
LINE
8
BLACK
6
CONTINUOUS
10
-70.4902829999999909
20
71.4052599999999984
11
-70.4954479999999961
21
71.406448999999995
0
LINE
8
BLACK
6
CONTINUOUS
10
-70.4954479999999961
20
71.406448999999995
11
-74.0874149999999929
21
73.0222610000000003
0
LINE
8
BLACK
6
CONTINUOUS
10
-74.0874149999999929
20
73.0222610000000003
11
-74.0920749999999941
21
73.025582
0
LINE
8
BLACK
6
CONTINUOUS
10
-74.0920749999999941
20
73.025582
11
-74.0973439999999925
21
73.0278189999999938
0
LINE
8
BLACK
6
CONTINUOUS
10
-74.0973439999999925
20
73.0278189999999938
11
-77.2715960000000024
21
75.1901759999999939
0
LINE
8
BLACK
6
CONTINUOUS
10
-77.2715960000000024
20
75.1901759999999939
11
-77.2756830000000008
21
75.1943369999999902
0
LINE
8
BLACK
6
CONTINUOUS
10
-77.2756830000000008
20
75.1943369999999902
11
-77.2805609999999916
21
75.197535000000002
0
LINE
8
BLACK
6
CONTINUOUS
10
-77.2805609999999916
20
75.197535000000002
11
-80.0370959999999911
21
77.9064379999999943
0
LINE
8
BLACK
6
CONTINUOUS
10
-80.0370959999999911
20
77.9064379999999943
11
-80.0402429999999896
21
77.911059999999992
0
LINE
8
BLACK
6
CONTINUOUS
10
-80.0402429999999896
20
77.911059999999992
11
-80.0443250000000006
21
77.9148739999999975
0
LINE
8
BLACK
6
CONTINUOUS
10
-80.0443250000000006
20
77.9148739999999975
11
-82.3831440000000015
21
81.1703229999999962
0
LINE
8
BLACK
6
CONTINUOUS
10
-82.3831440000000015
20
81.1703229999999962
11
-82.3847179999999923
21
81.1737849999999952
0
LINE
8
BLACK
6
CONTINUOUS
10
-82.3847179999999923
20
81.1737849999999952
11
-82.3871759999999966
21
81.176682999999997
0
LINE
8
BLACK
6
CONTINUOUS
10
-82.3871759999999966
20
81.176682999999997
11
-84.3551489999999973
21
84.7192549999999898
0
LINE
8
BLACK
6
CONTINUOUS
10
-84.3551489999999973
20
84.7192549999999898
11
-84.3559089999999969
21
84.7216219999999964
0
LINE
8
BLACK
6
CONTINUOUS
10
-84.3559089999999969
20
84.7216219999999964
11
-84.3573689999999914
21
84.7236329999999924
0
LINE
8
BLACK
6
CONTINUOUS
10
-84.3573689999999914
20
84.7236329999999924
11
-86.0013679999999994
21
88.2939059999999927
0
LINE
8
BLACK
6
CONTINUOUS
10
-86.0013679999999994
20
88.2939059999999927
11
-86.0019810000000007
21
88.2964609999999936
0
LINE
8
BLACK
6
CONTINUOUS
10
-86.0019810000000007
20
88.2964609999999936
11
-86.0033499999999975
21
88.2987049999999982
0
LINE
8
BLACK
6
CONTINUOUS
10
-86.0033499999999975
20
88.2987049999999982
11
-87.3233729999999895
21
91.8966799999999893
0
LINE
8
BLACK
6
CONTINUOUS
10
-87.3233729999999895
20
91.8966799999999893
11
-87.3237979999999965
21
91.8993940000000009
0
LINE
8
BLACK
6
CONTINUOUS
10
-87.3237979999999965
20
91.8993940000000009
11
-87.325027999999989
21
91.9018489999999986
0
LINE
8
BLACK
6
CONTINUOUS
10
-87.325027999999989
20
91.9018489999999986
11
-88.3210759999999908
21
95.5275239999999997
0
LINE
8
BLACK
6
CONTINUOUS
10
-88.3210759999999908
20
95.5275239999999997
11
-88.3212800000000016
21
95.5303519999999935
0
LINE
8
BLACK
6
CONTINUOUS
10
-88.3212800000000016
20
95.5303519999999935
11
-88.3223249999999922
21
95.5329830000000015
0
LINE
8
BLACK
6
CONTINUOUS
10
-88.3223249999999922
20
95.5329830000000015
11
-88.9943979999999897
21
99.1863589999999959
0
LINE
8
BLACK
6
CONTINUOUS
10
-88.9943979999999897
20
99.1863589999999959
11
-88.9943569999999937
21
99.1892399999999981
0
LINE
8
BLACK
6
CONTINUOUS
10
-88.9943569999999937
20
99.1892399999999981
11
-88.9951819999999998
21
99.1919999999999931
0
LINE
8
BLACK
6
CONTINUOUS
10
-88.9951819999999998
20
99.1919999999999931
11
-89.3432789999999954
21
102.8730779999999925
0
LINE
8
BLACK
6
CONTINUOUS
10
-89.3432789999999954
20
102.8730779999999925
11
-89.3429859999999962
21
102.8759469999999965
0
LINE
8
BLACK
6
CONTINUOUS
10
-89.3429859999999962
20
102.8759469999999965
11
-89.3435669999999931
21
102.8787749999999903
0
LINE
8
BLACK
6
CONTINUOUS
10
-89.3435669999999931
20
102.8787749999999903
11
-89.3676899999999961
21
106.5875519999999881
0
LINE
8
BLACK
6
CONTINUOUS
10
-89.3676899999999961
20
106.5875519999999881
11
-89.3671530000000018
21
106.5903479999999917
0
LINE
8
BLACK
6
CONTINUOUS
10
-89.3671530000000018
20
106.5903479999999917
11
-89.3674829999999929
21
106.5931750000000022
0
LINE
8
BLACK
6
CONTINUOUS
10
-89.3674829999999929
20
106.5931750000000022
11
-89.0676309999999916
21
110.3296539999999908
0
LINE
8
BLACK
6
CONTINUOUS
10
-89.0676309999999916
20
110.3296539999999908
11
-89.0668929999999932
21
110.332256000000001
0
LINE
8
BLACK
6
CONTINUOUS
10
-89.0668929999999932
20
110.332256000000001
11
-89.0669850000000025
21
110.3349539999999962
0
LINE
8
BLACK
6
CONTINUOUS
10
-89.0669850000000025
20
110.3349539999999962
11
-88.4623679999999979
21
114.029018999999991
0
LINE
8
BLACK
6
CONTINUOUS
10
-88.4623679999999979
20
114.029018999999991
11
-88.4614299999999929
21
114.0315239999999903
0
LINE
8
BLACK
6
CONTINUOUS
10
-88.4614299999999929
20
114.0315239999999903
11
-88.4613030000000009
21
114.0341979999999893
0
LINE
8
BLACK
6
CONTINUOUS
10
-88.4613030000000009
20
114.0341979999999893
11
-87.5711319999999915
21
117.6157319999999942
0
LINE
8
BLACK
6
CONTINUOUS
10
-87.5711319999999915
20
117.6157319999999942
11
-87.5699669999999912
21
117.6182079999999956
0
LINE
8
BLACK
6
CONTINUOUS
10
-87.5699669999999912
20
117.6182079999999956
11
-87.5696109999999948
21
117.620917999999989
0
LINE
8
BLACK
6
CONTINUOUS
10
-87.5696109999999948
20
117.620917999999989
11
-86.3938859999999949
21
121.0899209999999897
0
LINE
8
BLACK
6
CONTINUOUS
10
-86.3938859999999949
20
121.0899209999999897
11
-86.3925100000000015
21
121.0923079999999885
0
LINE
8
BLACK
6
CONTINUOUS
10
-86.3925100000000015
20
121.0923079999999885
11
-86.3919229999999914
21
121.0950029999999913
0
LINE
8
BLACK
6
CONTINUOUS
10
-86.3919229999999914
20
121.0950029999999913
11
-84.9306429999999892
21
124.4514749999999879
0
LINE
8
BLACK
6
CONTINUOUS
10
-84.9306429999999892
20
124.4514749999999879
11
-84.929079999999999
21
124.453725999999989
0
LINE
8
BLACK
6
CONTINUOUS
10
-84.929079999999999
20
124.453725999999989
11
-84.9282759999999968
21
124.4563469999999938
0
LINE
8
BLACK
6
CONTINUOUS
10
-84.9282759999999968
20
124.4563469999999938
11
-83.1814430000000016
21
127.7002880000000005
0
LINE
8
BLACK
6
CONTINUOUS
10
-83.1814430000000016
20
127.7002880000000005
11
-83.1797320000000013
21
127.7023599999999988
0
LINE
8
BLACK
6
CONTINUOUS
10
-83.1797320000000013
20
127.7023599999999988
11
-83.1787360000000007
21
127.7048579999999873
0
LINE
8
BLACK
6
CONTINUOUS
10
-83.1787360000000007
20
127.7048579999999873
11
-81.1463490000000007
21
130.8362689999999873
0
LINE
8
BLACK
6
CONTINUOUS
10
-81.1463490000000007
20
130.8362689999999873
11
-81.1445339999999931
21
130.8381339999999966
0
LINE
8
BLACK
6
CONTINUOUS
10
-81.1445339999999931
20
130.8381339999999966
11
-81.1433820000000026
21
130.8404669999999896
0
LINE
8
BLACK
6
CONTINUOUS
10
-81.1433820000000026
20
130.8404669999999896
11
-78.8254400000000004
21
133.8593469999999854
0
LINE
8
BLACK
6
CONTINUOUS
10
-78.8254400000000004
20
133.8593469999999854
11
-78.8235669999999971
21
133.8609889999999893
0
LINE
8
BLACK
6
CONTINUOUS
10
-78.8235669999999971
20
133.8609889999999893
11
-78.822299000000001
21
133.8631320000000073
0
LINE
8
BLACK
6
CONTINUOUS
10
-78.822299000000001
20
133.8631320000000073
11
-76.2188029999999941
21
136.7694819999999822
0
LINE
8
BLACK
6
CONTINUOUS
10
-76.2188029999999941
20
136.7694819999999822
11
-76.2165839999999974
21
136.7711489999999799
0
LINE
8
BLACK
6
CONTINUOUS
10
-76.2165839999999974
20
136.7711489999999799
11
-76.2149730000000005
21
136.7734109999999816
0
LINE
8
BLACK
6
CONTINUOUS
10
-76.2149730000000005
20
136.7734109999999816
11
-73.3610499999999917
21
139.4635609999999986
0
LINE
8
BLACK
6
CONTINUOUS
10
-73.3610499999999917
20
139.4635609999999986
11
-73.3583149999999904
21
139.4652749999999912
0
LINE
8
BLACK
6
CONTINUOUS
10
-73.3583149999999904
20
139.4652749999999912
11
-73.3561940000000021
21
139.4677069999999901
0
LINE
8
BLACK
6
CONTINUOUS
10
-73.3561940000000021
20
139.4677069999999901
11
-70.2869689999999991
21
141.8379899999999907
0
LINE
8
BLACK
6
CONTINUOUS
10
-70.2869689999999991
20
141.8379899999999907
11
-70.284041000000002
21
141.839445999999981
0
LINE
8
BLACK
6
CONTINUOUS
10
-70.284041000000002
20
141.839445999999981
11
-70.2816600000000022
21
141.8416829999999891
0
LINE
8
BLACK
6
CONTINUOUS
10
-70.2816600000000022
20
141.8416829999999891
11
-66.997130999999996
21
143.8920980000000043
0
LINE
8
BLACK
6
CONTINUOUS
10
-66.997130999999996
20
143.8920980000000043
11
-66.9940950000000015
21
143.8932470000000023
0
LINE
8
BLACK
6
CONTINUOUS
10
-66.9940950000000015
20
143.8932470000000023
11
-66.9915209999999917
21
143.8952259999999796
0
LINE
8
BLACK
6
CONTINUOUS
10
-66.9915209999999917
20
143.8952259999999796
11
-63.4916909999999959
21
145.6257740000000069
0
LINE
8
BLACK
6
CONTINUOUS
10
-63.4916909999999959
20
145.6257740000000069
11
-63.4886369999999971
21
145.6265960000000064
0
LINE
8
BLACK
6
CONTINUOUS
10
-63.4886369999999971
20
145.6265960000000064
11
-63.4859539999999996
21
145.6282750000000021
0
LINE
8
BLACK
6
CONTINUOUS
10
-63.4859539999999996
20
145.6282750000000021
11
-59.770820999999998
21
147.0389559999999847
0
LINE
8
BLACK
6
CONTINUOUS
10
-59.770820999999998
20
147.0389559999999847
11
-59.7678340000000006
21
147.0394589999999937
0
LINE
8
BLACK
6
CONTINUOUS
10
-59.7678340000000006
20
147.0394589999999937
11
-59.7651289999999946
21
147.0408219999999915
0
LINE
8
BLACK
6
CONTINUOUS
10
-59.7651289999999946
20
147.0408219999999915
11
-55.834696000000001
21
148.1316349999999886
0
LINE
8
BLACK
6
CONTINUOUS
10
-55.834696000000001
20
148.1316349999999886
11
-55.8318469999999962
21
148.1318479999999909
0
LINE
8
BLACK
6
CONTINUOUS
10
-55.8318469999999962
20
148.1318479999999909
11
-55.8291970000000006
21
148.1329059999999913
0
LINE
8
BLACK
6
CONTINUOUS
10
-55.8291970000000006
20
148.1329059999999913
11
-51.6834579999999946
21
148.9038520000000005
0
LINE
8
BLACK
6
CONTINUOUS
10
-51.6834579999999946
20
148.9038520000000005
11
-51.6808029999999974
21
148.9038189999999986
0
LINE
8
BLACK
6
CONTINUOUS
10
-51.6808029999999974
20
148.9038189999999986
11
-51.6782630000000012
21
148.9046029999999803
0
LINE
8
BLACK
6
CONTINUOUS
10
-51.6782630000000012
20
148.9046029999999803
11
-47.5381999999999962
21
149.3328249999999855
0
LINE
8
BLACK
6
CONTINUOUS
10
-47.5381999999999962
20
149.3328249999999855
11
-50.5702579999999955
21
150.8586239999999918
0
LINE
8
BLACK
6
CONTINUOUS
10
-50.5702579999999955
20
150.8586239999999918
11
-50.5726839999999953
21
150.8605169999999873
0
LINE
8
BLACK
6
CONTINUOUS
10
-50.5726839999999953
20
150.8605169999999873
11
-50.5755610000000004
21
150.8616109999999821
0
LINE
8
BLACK
6
CONTINUOUS
10
-50.5755610000000004
20
150.8616109999999821
11
-53.3950299999999984
21
152.6288030000000049
0
LINE
8
BLACK
6
CONTINUOUS
10
-53.3950299999999984
20
152.6288030000000049
11
-53.3976629999999943
21
152.6312859999999887
0
LINE
8
BLACK
6
CONTINUOUS
10
-53.3976629999999943
20
152.6312859999999887
11
-53.4008819999999957
21
152.6329369999999983
0
LINE
8
BLACK
6
CONTINUOUS
10
-53.4008819999999957
20
152.6329369999999983
11
-55.8093170000000001
21
154.5416620000000023
0
LINE
8
BLACK
6
CONTINUOUS
10
-55.8093170000000001
20
154.5416620000000023
11
-55.8120389999999986
21
154.5448659999999848
0
LINE
8
BLACK
6
CONTINUOUS
10
-55.8120389999999986
20
154.5448659999999848
11
-55.8155029999999996
21
154.5472460000000012
0
LINE
8
BLACK
6
CONTINUOUS
10
-55.8155029999999996
20
154.5472460000000012
11
-57.8129039999999961
21
156.5975019999999915
0
LINE
8
BLACK
6
CONTINUOUS
10
-57.8129039999999961
20
156.5975019999999915
11
-57.8155039999999971
21
156.6015060000000005
0
LINE
8
BLACK
6
CONTINUOUS
10
-57.8155039999999971
20
156.6015060000000005
11
-57.8190010000000001
21
156.6047499999999957
0
LINE
8
BLACK
6
CONTINUOUS
10
-57.8190010000000001
20
156.6047499999999957
11
-59.4053679999999957
21
158.7965370000000007
0
LINE
8
BLACK
6
CONTINUOUS
10
-59.4053679999999957
20
158.7965370000000007
11
-59.4075489999999959
21
158.801288999999997
0
LINE
8
BLACK
6
CONTINUOUS
10
-59.4075489999999959
20
158.801288999999997
11
-59.4107640000000004
21
158.8054070000000024
0
LINE
8
BLACK
6
CONTINUOUS
10
-59.4107640000000004
20
158.8054070000000024
11
-60.5860969999999952
21
161.1387269999999887
0
LINE
8
BLACK
6
CONTINUOUS
10
-60.5860969999999952
20
161.1387269999999887
11
-60.5875549999999947
21
161.1439869999999814
0
LINE
8
BLACK
6
CONTINUOUS
10
-60.5875549999999947
20
161.1439869999999814
11
-60.5901519999999962
21
161.1487889999999936
0
LINE
8
BLACK
6
CONTINUOUS
10
-60.5901519999999962
20
161.1487889999999936
11
-61.3544509999999974
21
163.6236399999999946
0
LINE
8
BLACK
6
CONTINUOUS
10
-61.3544509999999974
20
163.6236399999999946
11
-61.355007999999998
21
163.6290129999999863
0
LINE
8
BLACK
6
CONTINUOUS
10
-61.355007999999998
20
163.6290129999999863
11
-61.3567609999999988
21
163.6341229999999882
0
LINE
8
BLACK
6
CONTINUOUS
10
-61.3567609999999988
20
163.6341229999999882
11
-61.7100249999999946
21
166.2505069999999989
0
LINE
8
BLACK
6
CONTINUOUS
10
-61.7100249999999946
20
166.2505069999999989
11
-61.7097959999999972
21
166.2542009999999948
0
LINE
8
BLACK
6
CONTINUOUS
10
-61.7097959999999972
20
166.2542009999999948
11
-61.7105949999999979
21
166.2578159999999912
0
LINE
8
BLACK
6
CONTINUOUS
10
-61.7105949999999979
20
166.2578159999999912
11
-61.7665269999999964
21
168.8771050000000002
0
LINE
8
BLACK
6
CONTINUOUS
10
-61.7665269999999964
20
168.8771050000000002
11
-61.7661109999999951
21
168.879462999999987
0
LINE
8
BLACK
6
CONTINUOUS
10
-61.7661109999999951
20
168.879462999999987
11
-61.766455999999998
21
168.8818310000000054
0
LINE
8
BLACK
6
CONTINUOUS
10
-61.766455999999998
20
168.8818310000000054
11
-61.6387590000000003
21
171.3653989999999965
0
LINE
8
BLACK
6
CONTINUOUS
10
-61.6387590000000003
20
171.3653989999999965
11
-61.638110999999995
21
171.3679640000000006
0
LINE
8
BLACK
6
CONTINUOUS
10
-61.638110999999995
20
171.3679640000000006
11
-61.6382809999999992
21
171.3706049999999834
0
LINE
8
BLACK
6
CONTINUOUS
10
-61.6382809999999992
20
171.3706049999999834
11
-61.3269540000000006
21
173.7184509999999875
0
LINE
8
BLACK
6
CONTINUOUS
10
-61.3269540000000006
20
173.7184509999999875
11
-61.3260189999999952
21
173.7211979999999869
0
LINE
8
BLACK
6
CONTINUOUS
10
-61.3260189999999952
20
173.7211979999999869
11
-61.3259499999999989
21
173.7240999999999929
0
LINE
8
BLACK
6
CONTINUOUS
10
-61.3259499999999989
20
173.7240999999999929
11
-60.8309929999999994
21
175.936222999999984
0
LINE
8
BLACK
6
CONTINUOUS
10
-60.8309929999999994
20
175.936222999999984
11
-60.8297199999999947
21
175.9391009999999937
0
LINE
8
BLACK
6
CONTINUOUS
10
-60.8297199999999947
20
175.9391009999999937
11
-60.8293449999999964
21
175.9422229999999843
0
LINE
8
BLACK
6
CONTINUOUS
10
-60.8293449999999964
20
175.9422229999999843
11
-60.1507579999999962
21
178.0186249999999859
0
LINE
8
BLACK
6
CONTINUOUS
10
-60.1507579999999962
20
178.0186249999999859
11
-60.1491139999999973
21
178.0215509999999881
0
LINE
8
BLACK
6
CONTINUOUS
10
-60.1491139999999973
20
178.0215509999999881
11
-60.1483749999999944
21
178.0248239999999953
0
LINE
8
BLACK
6
CONTINUOUS
10
-60.1483749999999944
20
178.0248239999999953
11
-59.2861589999999978
21
179.965504999999979
0
LINE
8
BLACK
6
CONTINUOUS
10
-59.2861589999999978
20
179.965504999999979
11
-59.2841349999999991
21
179.9683759999999779
0
LINE
8
BLACK
6
CONTINUOUS
10
-59.2841349999999991
20
179.9683759999999779
11
-59.2829989999999967
21
179.9717019999999934
0
LINE
8
BLACK
6
CONTINUOUS
10
-59.2829989999999967
20
179.9717019999999934
11
-58.2371519999999947
21
181.7766609999999901
0
LINE
8
BLACK
6
CONTINUOUS
10
-58.2371519999999947
20
181.7766609999999901
11
-58.2347759999999965
21
181.7793629999999894
0
LINE
8
BLACK
6
CONTINUOUS
10
-58.2347759999999965
20
181.7793629999999894
11
-58.2332469999999986
21
181.7826220000000035
0
LINE
8
BLACK
6
CONTINUOUS
10
-58.2332469999999986
20
181.7826220000000035
11
-57.0037710000000004
21
183.4518589999999847
0
LINE
8
BLACK
6
CONTINUOUS
10
-57.0037710000000004
20
183.4518589999999847
11
-57.0017989999999983
21
183.4536589999999876
0
LINE
8
BLACK
6
CONTINUOUS
10
-57.0017989999999983
20
183.4536589999999876
11
-57.000473999999997
21
183.4559739999999977
0
LINE
8
BLACK
6
CONTINUOUS
10
-57.000473999999997
20
183.4559739999999977
11
-55.6420359999999974
21
185.0174459999999783
0
LINE
8
BLACK
6
CONTINUOUS
10
-55.6420359999999974
20
185.0174459999999783
11
-55.6406649999999985
21
185.0185079999999971
0
LINE
8
BLACK
6
CONTINUOUS
10
-55.6406649999999985
20
185.0185079999999971
11
-55.639723999999994
21
185.0199669999999799
0
LINE
8
BLACK
6
CONTINUOUS
10
-55.639723999999994
20
185.0199669999999799
11
-54.2069939999999946
21
186.5016299999999774
0
LINE
8
BLACK
6
CONTINUOUS
10
-54.2069939999999946
20
186.5016299999999774
11
-54.2055599999999984
21
186.5026239999999973
0
LINE
8
BLACK
6
CONTINUOUS
10
-54.2055599999999984
20
186.5026239999999973
11
-54.2045379999999994
21
186.5040389999999775
0
LINE
8
BLACK
6
CONTINUOUS
10
-54.2045379999999994
20
186.5040389999999775
11
-52.6975139999999982
21
187.9058919999999944
0
LINE
8
BLACK
6
CONTINUOUS
10
-52.6975139999999982
20
187.9058919999999944
11
-52.6960319999999953
21
187.9068079999999838
0
LINE
8
BLACK
6
CONTINUOUS
10
-52.6960319999999953
20
187.9068079999999838
11
-52.694935000000001
21
187.9081679999999892
0
LINE
8
BLACK
6
CONTINUOUS
10
-52.694935000000001
20
187.9081679999999892
11
-51.1136179999999953
21
189.230212999999992
0
LINE
8
BLACK
6
CONTINUOUS
10
-51.1136179999999953
20
189.230212999999992
11
-51.1120969999999986
21
189.2310439999999971
0
LINE
8
BLACK
6
CONTINUOUS
10
-51.1120969999999986
20
189.2310439999999971
11
-51.1109379999999973
21
189.2323370000000011
0
LINE
8
BLACK
6
CONTINUOUS
10
-51.1109379999999973
20
189.2323370000000011
11
-49.455328999999999
21
190.4745719999999949
0
LINE
8
BLACK
6
CONTINUOUS
10
-49.455328999999999
20
190.4745719999999949
11
-49.4537809999999993
21
190.4753149999999948
0
LINE
8
BLACK
6
CONTINUOUS
10
-49.4537809999999993
20
190.4753149999999948
11
-49.4525709999999989
21
190.4765309999999943
0
LINE
8
BLACK
6
CONTINUOUS
10
-49.4525709999999989
20
190.4765309999999943
11
-47.7226679999999988
21
191.6389570000000049
0
LINE
8
BLACK
6
CONTINUOUS
10
-47.7226679999999988
20
191.6389570000000049
11
-47.7211099999999959
21
191.6396079999999813
0
LINE
8
BLACK
6
CONTINUOUS
10
-47.7211099999999959
20
191.6396079999999813
11
-47.7198589999999996
21
191.6407419999999888
0
LINE
8
BLACK
6
CONTINUOUS
10
-47.7198589999999996
20
191.6407419999999888
11
-45.9156649999999971
21
192.7233589999999879
0
LINE
8
BLACK
6
CONTINUOUS
10
-45.9156649999999971
20
192.7233589999999879
11
-45.9141089999999963
21
192.7239170000000001
0
LINE
8
BLACK
6
CONTINUOUS
10
-45.9141089999999963
20
192.7239170000000001
11
-45.9128309999999971
21
192.7249639999999999
0
LINE
8
BLACK
6
CONTINUOUS
10
-45.9128309999999971
20
192.7249639999999999
11
-44.0343429999999998
21
193.7277719999999874
0
LINE
8
BLACK
6
CONTINUOUS
10
-44.0343429999999998
20
193.7277719999999874
11
-44.0327160000000006
21
193.7282649999999933
0
LINE
8
BLACK
6
CONTINUOUS
10
-44.0327160000000006
20
193.7282649999999933
11
-44.0313459999999992
21
193.7292740000000038
0
LINE
8
BLACK
6
CONTINUOUS
10
-44.0313459999999992
20
193.7292740000000038
11
-42.057738999999998
21
194.6554459999999835
0
LINE
8
BLACK
6
CONTINUOUS
10
-42.057738999999998
20
194.6554459999999835
11
-42.0560959999999966
21
194.6558529999999791
0
LINE
8
BLACK
6
CONTINUOUS
10
-42.0560959999999966
20
194.6558529999999791
11
-42.0546839999999946
21
194.6567849999999851
0
LINE
8
BLACK
6
CONTINUOUS
10
-42.0546839999999946
20
194.6567849999999851
11
-39.965133999999999
21
195.5094949999999869
0
LINE
8
BLACK
6
CONTINUOUS
10
-39.965133999999999
20
195.5094949999999869
11
-39.9635839999999973
21
195.5097959999999944
0
LINE
8
BLACK
6
CONTINUOUS
10
-39.9635839999999973
20
195.5097959999999944
11
-39.9622279999999961
21
195.5105999999999824
0
LINE
8
BLACK
6
CONTINUOUS
10
-39.9622279999999961
20
195.5105999999999824
11
-37.7567319999999995
21
196.2898479999999779
0
LINE
8
BLACK
6
CONTINUOUS
10
-37.7567319999999995
20
196.2898479999999779
11
-37.7552790000000016
21
196.2900579999999877
0
LINE
8
BLACK
6
CONTINUOUS
10
-37.7552790000000016
20
196.2900579999999877
11
-37.7539850000000001
21
196.2907500000000027
0
LINE
8
BLACK
6
CONTINUOUS
10
-37.7539850000000001
20
196.2907500000000027
11
-35.4325449999999975
21
196.9965359999999919
0
LINE
8
BLACK
6
CONTINUOUS
10
-35.4325449999999975
20
196.9965359999999919
11
-35.4311889999999963
21
196.9966709999999921
0
LINE
8
BLACK
6
CONTINUOUS
10
-35.4311889999999963
20
196.9966709999999921
11
-35.4299600000000012
21
196.9972640000000013
0
LINE
8
BLACK
6
CONTINUOUS
10
-35.4299600000000012
20
196.9972640000000013
11
-32.9925769999999972
21
197.6295869999999866
0
LINE
8
BLACK
6
CONTINUOUS
10
-32.9925769999999972
20
197.6295869999999866
11
-32.9913139999999956
21
197.6296600000000012
0
LINE
8
BLACK
6
CONTINUOUS
10
-32.9913139999999956
20
197.6296600000000012
11
-32.9901520000000019
21
197.6301670000000001
0
LINE
8
BLACK
6
CONTINUOUS
10
-32.9901520000000019
20
197.6301670000000001
11
-30.4368229999999969
21
198.189029000000005
0
LINE
8
BLACK
6
CONTINUOUS
10
-30.4368229999999969
20
198.189029000000005
11
-30.4356469999999995
21
198.1890520000000038
0
LINE
8
BLACK
6
CONTINUOUS
10
-30.4356469999999995
20
198.1890520000000038
11
-30.4345539999999986
21
198.1894829999999956
0
LINE
8
BLACK
6
CONTINUOUS
10
-30.4345539999999986
20
198.1894829999999956
11
-27.7652809999999981
21
198.6748829999999941
0
LINE
8
BLACK
6
CONTINUOUS
10
-27.7652809999999981
20
198.6748829999999941
11
-27.7641910000000003
21
198.6748659999999802
0
LINE
8
BLACK
6
CONTINUOUS
10
-27.7641910000000003
20
198.6748659999999802
11
-27.7631610000000002
21
198.6752329999999915
0
LINE
8
BLACK
6
CONTINUOUS
10
-27.7631610000000002
20
198.6752329999999915
11
-24.9779429999999998
21
199.0871689999999887
0
LINE
8
BLACK
6
CONTINUOUS
10
-24.9779429999999998
20
199.0871689999999887
11
-24.9764909999999993
21
199.0870979999999975
0
LINE
8
BLACK
6
CONTINUOUS
10
-24.9764909999999993
20
199.0870979999999975
11
-24.9750990000000002
21
199.0875259999999969
0
LINE
8
BLACK
6
CONTINUOUS
10
-24.9750990000000002
20
199.0875259999999969
11
-22.097175
21
199.384223999999989
0
LINE
8
BLACK
6
CONTINUOUS
10
-22.097175
20
199.384223999999989
11
-22.0953589999999984
21
199.3840539999999919
0
LINE
8
BLACK
6
CONTINUOUS
10
-22.0953589999999984
20
199.3840539999999919
11
-22.0935869999999994
21
199.3844939999999895
0
LINE
8
BLACK
6
CONTINUOUS
10
-22.0935869999999994
20
199.3844939999999895
11
-19.1461979999999983
21
199.5241759999999829
0
LINE
8
BLACK
6
CONTINUOUS
10
-19.1461979999999983
20
199.5241759999999829
11
-19.1444679999999998
21
199.5239169999999831
0
LINE
8
BLACK
6
CONTINUOUS
10
-19.1444679999999998
20
199.5239169999999831
11
-19.1427479999999974
21
199.524248
0
LINE
8
BLACK
6
CONTINUOUS
10
-19.1427479999999974
20
199.524248
11
-16.1258920000000003
21
199.5069139999999948
0
LINE
8
BLACK
6
CONTINUOUS
10
-16.1258920000000003
20
199.5069139999999948
11
-16.124255999999999
21
199.5065789999999879
0
LINE
8
BLACK
6
CONTINUOUS
10
-16.124255999999999
20
199.5065789999999879
11
-16.1225999999999985
21
199.5068119999999965
0
LINE
8
BLACK
6
CONTINUOUS
10
-16.1225999999999985
20
199.5068119999999965
11
-13.0362789999999986
21
199.332460999999995
0
LINE
8
BLACK
6
CONTINUOUS
10
-13.0362789999999986
20
199.332460999999995
11
-13.0347399999999993
21
199.3320640000000026
0
LINE
8
BLACK
6
CONTINUOUS
10
-13.0347399999999993
20
199.3320640000000026
11
-13.0331569999999992
21
199.3322089999999776
0
LINE
8
BLACK
6
CONTINUOUS
10
-13.0331569999999992
20
199.3322089999999776
11
-9.8773699999999991
21
199.0008430000000033
0
LINE
8
BLACK
6
CONTINUOUS
10
-9.8773699999999991
20
199.0008430000000033
11
-9.8759289999999993
21
199.000395999999995
0
LINE
8
BLACK
6
CONTINUOUS
10
-9.8759289999999993
20
199.000395999999995
11
-9.8744249999999987
21
199.0004649999999913
0
LINE
8
BLACK
6
CONTINUOUS
10
-9.8744249999999987
20
199.0004649999999913
11
-6.6491729999999993
21
198.5120809999999949
0
LINE
8
BLACK
6
CONTINUOUS
10
-6.6491729999999993
20
198.5120809999999949
11
-6.6478359999999999
21
198.5115979999999922
0
LINE
8
BLACK
6
CONTINUOUS
10
-6.6478359999999999
20
198.5115979999999922
11
-6.6464089999999993
21
198.5116019999999821
0
LINE
8
BLACK
6
CONTINUOUS
10
-6.6464089999999993
20
198.5116019999999821
11
-3.3516900000000001
21
197.8662029999999845
0
LINE
8
BLACK
6
CONTINUOUS
10
-3.3516900000000001
20
197.8662029999999845
11
-3.3504459999999998
21
197.8656919999999957
0
LINE
8
BLACK
6
CONTINUOUS
10
-3.3504459999999998
20
197.8656919999999957
11
-3.3491039999999996
21
197.8656409999999823
0
LINE
8
BLACK
6
CONTINUOUS
10
-3.3491039999999996
20
197.8656409999999823
11
-0.000001
21
197.0668229999999994
0
LINE
8
BLACK
6
CONTINUOUS
10
-0.000001
20
197.0668229999999994
11
3.3491039999999996
21
197.8656409999999823
0
LINE
8
BLACK
6
CONTINUOUS
10
3.3491039999999996
20
197.8656409999999823
11
3.3504449999999997
21
197.8656919999999957
0
LINE
8
BLACK
6
CONTINUOUS
10
3.3504449999999997
20
197.8656919999999957
11
3.3516900000000001
21
197.8662029999999845
0
LINE
8
BLACK
6
CONTINUOUS
10
3.3516900000000001
20
197.8662029999999845
11
6.6464080000000001
21
198.5116019999999821
0
LINE
8
BLACK
6
CONTINUOUS
10
6.6464080000000001
20
198.5116019999999821
11
6.6478339999999996
21
198.5115979999999922
0
LINE
8
BLACK
6
CONTINUOUS
10
6.6478339999999996
20
198.5115979999999922
11
6.6491720000000001
21
198.5120809999999949
0
LINE
8
BLACK
6
CONTINUOUS
10
6.6491720000000001
20
198.5120809999999949
11
9.8744249999999987
21
199.0004649999999913
0
LINE
8
BLACK
6
CONTINUOUS
10
9.8744249999999987
20
199.0004649999999913
11
9.875928
21
199.000395999999995
0
LINE
8
BLACK
6
CONTINUOUS
10
9.875928
20
199.000395999999995
11
9.8773689999999998
21
199.0008430000000033
0
LINE
8
BLACK
6
CONTINUOUS
10
9.8773689999999998
20
199.0008430000000033
11
13.0331569999999992
21
199.3322089999999776
0
LINE
8
BLACK
6
CONTINUOUS
10
13.0331569999999992
20
199.3322089999999776
11
13.0347390000000001
21
199.3320640000000026
0
LINE
8
BLACK
6
CONTINUOUS
10
13.0347390000000001
20
199.3320640000000026
11
13.0362789999999986
21
199.332460999999995
0
LINE
8
BLACK
6
CONTINUOUS
10
13.0362789999999986
20
199.332460999999995
11
16.1225999999999985
21
199.5068119999999965
0
LINE
8
BLACK
6
CONTINUOUS
10
16.1225999999999985
20
199.5068119999999965
11
16.124255999999999
21
199.5065789999999879
0
LINE
8
BLACK
6
CONTINUOUS
10
16.124255999999999
20
199.5065789999999879
11
16.1258929999999978
21
199.5069139999999948
0
LINE
8
BLACK
6
CONTINUOUS
10
16.1258929999999978
20
199.5069139999999948
11
19.1427479999999974
21
199.524248
0
LINE
8
BLACK
6
CONTINUOUS
10
19.1427479999999974
20
199.524248
11
19.1444669999999988
21
199.5239169999999831
0
LINE
8
BLACK
6
CONTINUOUS
10
16.1282940000000004
20
199.3769259999999974
11
13.0451709999999999
21
199.2027559999999937
0
LINE
8
BLACK
6
CONTINUOUS
10
13.0451709999999999
20
199.2027559999999937
11
9.8924019999999988
21
198.8717069999999865
0
LINE
8
BLACK
6
CONTINUOUS
10
9.8924019999999988
20
198.8717069999999865
11
6.6700349999999995
21
198.3837589999999977
0
LINE
8
BLACK
6
CONTINUOUS
10
6.6700349999999995
20
198.3837589999999977
11
3.3779599999999999
21
197.7388779999999997
0
LINE
8
BLACK
6
CONTINUOUS
10
3.3779599999999999
20
197.7388779999999997
11
0.015081
21
196.9367739999999856
0
LINE
8
BLACK
6
CONTINUOUS
10
0.015081
20
196.9367739999999856
11
0.011607
21
196.9366430000000037
0
LINE
8
BLACK
6
CONTINUOUS
10
0.011607
20
196.9366430000000037
11
0.010263
21
196.9358159999999884
0
LINE
8
BLACK
6
CONTINUOUS
10
0.010263
20
196.9358159999999884
11
0.
21
196.9362040000000036
0
LINE
8
BLACK
6
CONTINUOUS
10
0.
20
196.9362040000000036
11
-0.010263
21
196.9358159999999884
0
LINE
8
BLACK
6
CONTINUOUS
10
-0.010263
20
196.9358159999999884
11
-0.011608
21
196.9366430000000037
0
LINE
8
BLACK
6
CONTINUOUS
10
-0.011608
20
196.9366430000000037
11
-0.015081
21
196.9367739999999856
0
LINE
8
BLACK
6
CONTINUOUS
10
-0.015081
20
196.9367739999999856
11
-3.3779619999999997
21
197.7388779999999997
0
LINE
8
BLACK
6
CONTINUOUS
10
-3.3779619999999997
20
197.7388779999999997
11
-6.6700359999999996
21
198.3837589999999977
0
LINE
8
BLACK
6
CONTINUOUS
10
-6.6700359999999996
20
198.3837589999999977
11
-9.8924059999999994
21
198.8717069999999865
0
LINE
8
BLACK
6
CONTINUOUS
10
-9.8924059999999994
20
198.8717069999999865
11
-13.0451739999999994
21
199.2027559999999937
0
LINE
8
BLACK
6
CONTINUOUS
10
-13.0451739999999994
20
199.2027559999999937
11
-16.1282949999999978
21
199.3769259999999974
0
LINE
8
BLACK
6
CONTINUOUS
10
-16.1282949999999978
20
199.3769259999999974
11
-19.1417730000000006
21
199.3942409999999938
0
LINE
8
BLACK
6
CONTINUOUS
10
-19.1417730000000006
20
199.3942409999999938
11
-22.0856379999999994
21
199.2547260000000051
0
LINE
8
BLACK
6
CONTINUOUS
10
-22.0856379999999994
20
199.2547260000000051
11
-24.9603249999999974
21
198.9583609999999965
0
LINE
8
BLACK
6
CONTINUOUS
10
-24.9603249999999974
20
198.9583609999999965
11
-27.7431009999999993
21
198.5467849999999999
0
LINE
8
BLACK
6
CONTINUOUS
10
-27.7431009999999993
20
198.5467849999999999
11
-30.410145
21
198.0617909999999995
0
LINE
8
BLACK
6
CONTINUOUS
10
-30.410145
20
198.0617909999999995
11
-32.9611519999999985
21
197.503436999999991
0
LINE
8
BLACK
6
CONTINUOUS
10
-32.9611519999999985
20
197.503436999999991
11
-35.396017999999998
21
196.8717669999999771
0
LINE
8
BLACK
6
CONTINUOUS
10
-35.396017999999998
20
196.8717669999999771
11
-37.7147799999999975
21
196.1667949999999792
0
LINE
8
BLACK
6
CONTINUOUS
10
-37.7147799999999975
20
196.1667949999999792
11
-39.9174509999999998
21
195.388545999999991
0
LINE
8
BLACK
6
CONTINUOUS
10
-39.9174509999999998
20
195.388545999999991
11
-42.004019999999997
21
194.537052999999986
0
LINE
8
BLACK
6
CONTINUOUS
10
-42.004019999999997
20
194.537052999999986
11
-43.9746019999999973
21
193.6123000000000047
0
LINE
8
BLACK
6
CONTINUOUS
10
-43.9746019999999973
20
193.6123000000000047
11
-45.8501750000000001
21
192.6110479999999825
0
LINE
8
BLACK
6
CONTINUOUS
10
-45.8501750000000001
20
192.6110479999999825
11
-47.6515449999999987
21
191.5301259999999957
0
LINE
8
BLACK
6
CONTINUOUS
10
-47.6515449999999987
20
191.5301259999999957
11
-49.3786659999999955
21
190.3695699999999817
0
LINE
8
BLACK
6
CONTINUOUS
10
-49.3786659999999955
20
190.3695699999999817
11
-51.0315469999999962
21
189.1293809999999951
0
LINE
8
BLACK
6
CONTINUOUS
10
-51.0315469999999962
20
189.1293809999999951
11
-52.6102349999999959
21
187.8095339999999851
0
LINE
8
BLACK
6
CONTINUOUS
10
-52.6102349999999959
20
187.8095339999999851
11
-54.1147369999999981
21
186.4100249999999903
0
LINE
8
BLACK
6
CONTINUOUS
10
-54.1147369999999981
20
186.4100249999999903
11
-55.5450759999999946
21
184.9308350000000019
0
LINE
8
BLACK
6
CONTINUOUS
10
-55.5450759999999946
20
184.9308350000000019
11
-56.9006609999999995
21
183.3726429999999823
0
LINE
8
BLACK
6
CONTINUOUS
10
-56.9006609999999995
20
183.3726429999999823
11
-58.1264579999999995
21
181.7084009999999807
0
LINE
8
BLACK
6
CONTINUOUS
10
-58.1264579999999995
20
181.7084009999999807
11
-59.1687739999999991
21
179.9095360000000028
0
LINE
8
BLACK
6
CONTINUOUS
10
-59.1687739999999991
20
179.9095360000000028
11
-60.0282239999999945
21
177.9750799999999913
0
LINE
8
BLACK
6
CONTINUOUS
10
-60.0282239999999945
20
177.9750799999999913
11
-60.7048079999999999
21
175.9048059999999793
0
LINE
8
BLACK
6
CONTINUOUS
10
-60.7048079999999999
20
175.9048059999999793
11
-61.1984609999999947
21
173.6985119999999938
0
LINE
8
BLACK
6
CONTINUOUS
10
-61.1984609999999947
20
173.6985119999999938
11
-61.5090659999999971
21
171.3561080000000061
0
LINE
8
BLACK
6
CONTINUOUS
10
-61.5090659999999971
20
171.3561080000000061
11
-61.6365069999999946
21
168.8775179999999807
0
LINE
8
BLACK
6
CONTINUOUS
10
-61.6365069999999946
20
168.8775179999999807
11
-61.5807039999999972
21
166.2642599999999788
0
LINE
8
BLACK
6
CONTINUOUS
10
-61.5807039999999972
20
166.2642599999999788
11
-61.2286519999999967
21
163.6568579999999997
0
LINE
8
BLACK
6
CONTINUOUS
10
-61.2286519999999967
20
163.6568579999999997
11
-60.4675459999999987
21
161.1923459999999864
0
LINE
8
BLACK
6
CONTINUOUS
10
-60.4675459999999987
20
161.1923459999999864
11
-59.2970049999999986
21
158.8685399999999959
0
LINE
8
BLACK
6
CONTINUOUS
10
-59.2970049999999986
20
158.8685399999999959
11
-57.7164749999999955
21
156.6848169999999811
0
LINE
8
BLACK
6
CONTINUOUS
10
-57.7164749999999955
20
156.6848169999999811
11
-55.7253009999999946
21
154.6409529999999961
0
LINE
8
BLACK
6
CONTINUOUS
10
-55.7253009999999946
20
154.6409529999999961
11
-53.3229509999999962
21
152.7370499999999822
0
LINE
8
BLACK
6
CONTINUOUS
10
-53.3229509999999962
20
152.7370499999999822
11
-50.5091019999999986
21
150.9733809999999892
0
LINE
8
BLACK
6
CONTINUOUS
10
-50.5091019999999986
20
150.9733809999999892
11
-47.2813179999999988
21
149.3490889999999922
0
LINE
8
BLACK
6
CONTINUOUS
10
-47.2813179999999988
20
149.3490889999999922
11
-47.2613229999999973
21
149.3334879999999885
0
LINE
8
BLACK
6
CONTINUOUS
10
-47.2613229999999973
20
149.3334879999999885
11
-47.2590310000000002
21
149.3265519999999924
0
LINE
8
BLACK
6
CONTINUOUS
10
-47.2590310000000002
20
149.3265519999999924
11
-47.2533619999999956
21
149.321945999999997
0
LINE
8
BLACK
6
CONTINUOUS
10
-47.2533619999999956
20
149.321945999999997
11
-47.2514739999999946
21
149.3036840000000041
0
LINE
8
BLACK
6
CONTINUOUS
10
-47.2514739999999946
20
149.3036840000000041
11
-47.2457119999999975
21
149.2862509999999929
0
LINE
8
BLACK
6
CONTINUOUS
10
-47.2457119999999975
20
149.2862509999999929
11
-47.2489959999999982
21
149.2797269999999799
0
LINE
8
BLACK
6
CONTINUOUS
10
-47.2489959999999982
20
149.2797269999999799
11
-47.2482439999999997
21
149.2724619999999902
0
LINE
8
BLACK
6
CONTINUOUS
10
-47.2482439999999997
20
149.2724619999999902
11
-47.2598219999999998
21
149.2582129999999836
0
LINE
8
BLACK
6
CONTINUOUS
10
-47.2598219999999998
20
149.2582129999999836
11
-47.2680749999999961
21
149.2418129999999792
0
LINE
8
BLACK
6
CONTINUOUS
10
-47.2680749999999961
20
149.2418129999999792
11
-47.2750099999999946
21
149.2395219999999938
0
LINE
8
BLACK
6
CONTINUOUS
10
-47.2750099999999946
20
149.2395219999999938
11
-47.2796159999999972
21
149.2338519999999846
0
LINE
8
BLACK
6
CONTINUOUS
10
-47.2796159999999972
20
149.2338519999999846
11
-47.3038489999999996
21
149.2263710000000003
0
LINE
8
BLACK
6
CONTINUOUS
10
-47.3038489999999996
20
149.2263710000000003
11
-51.6622789999999981
21
148.7755630000000053
0
LINE
8
BLACK
6
CONTINUOUS
10
-51.6622789999999981
20
148.7755630000000053
11
-55.8026459999999958
21
148.0056160000000034
0
LINE
8
BLACK
6
CONTINUOUS
10
-55.8026459999999958
20
148.0056160000000034
11
-59.7274789999999953
21
146.9163580000000024
0
LINE
8
BLACK
6
CONTINUOUS
10
-59.7274789999999953
20
146.9163580000000024
11
-63.4368809999999996
21
145.5078519999999855
0
LINE
8
BLACK
6
CONTINUOUS
10
-63.4368809999999996
20
145.5078519999999855
11
-66.9310219999999987
21
143.78011699999999
0
LINE
8
BLACK
6
CONTINUOUS
10
-66.9310219999999987
20
143.78011699999999
11
-70.2100739999999917
21
141.7331209999999828
0
LINE
8
BLACK
6
CONTINUOUS
10
-70.2100739999999917
20
141.7331209999999828
11
-73.2742039999999974
21
139.3667729999999949
0
LINE
8
BLACK
6
CONTINUOUS
10
-73.2742039999999974
20
139.3667729999999949
11
-76.1238019999999977
21
136.6807000000000016
0
LINE
8
BLACK
6
CONTINUOUS
10
-76.1238019999999977
20
136.6807000000000016
11
-78.7238210000000009
21
133.7782330000000002
0
LINE
8
BLACK
6
CONTINUOUS
10
-78.7238210000000009
20
133.7782330000000002
11
-81.0387039999999956
21
130.7633380000000045
0
LINE
8
BLACK
6
CONTINUOUS
10
-81.0387039999999956
20
130.7633380000000045
11
-83.0682419999999979
21
127.6363159999999937
0
LINE
8
BLACK
6
CONTINUOUS
10
-83.0682419999999979
20
127.6363159999999937
11
-84.8125319999999903
21
124.3970959999999906
0
LINE
8
BLACK
6
CONTINUOUS
10
-84.8125319999999903
20
124.3970959999999906
11
-86.2716419999999999
21
121.0456099999999964
0
LINE
8
BLACK
6
CONTINUOUS
10
-86.2716419999999999
20
121.0456099999999964
11
-87.4456210000000027
21
117.5817579999999936
0
LINE
8
BLACK
6
CONTINUOUS
10
-87.4456210000000027
20
117.5817579999999936
11
-88.3345020000000005
21
114.0054149999999993
0
LINE
8
BLACK
6
CONTINUOUS
10
-88.3345020000000005
20
114.0054149999999993
11
-88.9382599999999996
21
110.3166030000000006
0
LINE
8
BLACK
6
CONTINUOUS
10
-88.9382599999999996
20
110.3166030000000006
11
-89.2376739999999984
21
106.5855829999999997
0
LINE
8
BLACK
6
CONTINUOUS
10
-89.2376739999999984
20
106.5855829999999997
11
-89.2135880000000014
21
102.8824669999999912
0
LINE
8
BLACK
6
CONTINUOUS
10
-89.2135880000000014
20
102.8824669999999912
11
-88.8660289999999975
21
99.2070769999999982
0
LINE
8
BLACK
6
CONTINUOUS
10
-88.8660289999999975
20
99.2070769999999982
11
-88.194980000000001
21
95.5592659999999938
0
LINE
8
BLACK
6
CONTINUOUS
10
-88.194980000000001
20
95.5592659999999938
11
-87.2003919999999937
21
91.9389070000000004
0
LINE
8
BLACK
6
CONTINUOUS
10
-87.2003919999999937
20
91.9389070000000004
11
-85.8821969999999908
21
88.3459149999999909
0
LINE
8
BLACK
6
CONTINUOUS
10
-85.8821969999999908
20
88.3459149999999909
11
-84.240312000000003
21
84.7802329999999955
0
LINE
8
BLACK
6
CONTINUOUS
10
-84.240312000000003
20
84.7802329999999955
11
-82.2753639999999962
21
81.2431079999999923
0
LINE
8
BLACK
6
CONTINUOUS
10
-82.2753639999999962
20
81.2431079999999923
11
-79.9420020000000022
21
77.9952550000000002
0
LINE
8
BLACK
6
CONTINUOUS
10
-79.9420020000000022
20
77.9952550000000002
11
-77.1935939999999903
21
75.2943379999999962
0
LINE
8
BLACK
6
CONTINUOUS
10
-77.1935939999999903
20
75.2943379999999962
11
-74.0288719999999927
21
73.1384729999999905
0
LINE
8
BLACK
6
CONTINUOUS
10
-74.0288719999999927
20
73.1384729999999905
11
-70.4469330000000014
21
71.5271729999999906
0
LINE
8
BLACK
6
CONTINUOUS
10
-70.4469330000000014
20
71.5271729999999906
11
-66.4468540000000019
21
70.4604700000000008
0
LINE
8
BLACK
6
CONTINUOUS
10
-66.4468540000000019
20
70.4604700000000008
11
-62.0280279999999991
21
69.9387629999999945
0
LINE
8
BLACK
6
CONTINUOUS
10
-62.0280279999999991
20
69.9387629999999945
11
-57.190258
21
69.9625529999999998
0
LINE
8
BLACK
6
CONTINUOUS
10
-57.190258
20
69.9625529999999998
11
-51.9307499999999962
21
70.5325649999999911
0
LINE
8
BLACK
6
CONTINUOUS
10
-51.9307499999999962
20
70.5325649999999911
11
-51.9298310000000001
21
70.5324839999999966
0
LINE
8
BLACK
6
CONTINUOUS
10
-51.9298310000000001
20
70.5324839999999966
11
-51.9289439999999942
21
70.5327350000000024
0
LINE
8
BLACK
6
CONTINUOUS
10
-51.9289439999999942
20
70.5327350000000024
11
-51.9275379999999984
21
70.5322809999999976
0
LINE
8
BLACK
6
CONTINUOUS
10
-51.9275379999999984
20
70.5322809999999976
11
-51.9054879999999983
21
70.5303260000000023
0
LINE
8
BLACK
6
CONTINUOUS
10
-51.9054879999999983
20
70.5303260000000023
11
-51.8947359999999946
21
70.5216769999999968
0
LINE
8
BLACK
6
CONTINUOUS
10
-51.8947359999999946
20
70.5216769999999968
11
-51.8816069999999954
21
70.5174319999999994
0
LINE
8
BLACK
6
CONTINUOUS
10
-51.8816069999999954
20
70.5174319999999994
11
-51.8761189999999957
21
70.5067009999999925
0
LINE
8
BLACK
6
CONTINUOUS
10
-51.8761189999999957
20
70.5067009999999925
11
-51.8667239999999978
21
70.4991430000000037
0
LINE
8
BLACK
6
CONTINUOUS
10
-51.8667239999999978
20
70.4991430000000037
11
-51.865237999999998
21
70.4854239999999947
0
LINE
8
BLACK
6
CONTINUOUS
10
-51.865237999999998
20
70.4854239999999947
11
-51.8589549999999946
21
70.4731400000000008
0
LINE
8
BLACK
6
CONTINUOUS
10
-51.8589549999999946
20
70.4731400000000008
11
-51.8626629999999977
21
70.4616709999999955
0
LINE
8
BLACK
6
CONTINUOUS
10
-51.8626629999999977
20
70.4616709999999955
11
-51.8613639999999947
21
70.4496839999999906
0
LINE
8
BLACK
6
CONTINUOUS
10
-51.8613639999999947
20
70.4496839999999906
11
-51.8700139999999976
21
70.4389319999999941
0
LINE
8
BLACK
6
CONTINUOUS
10
-51.8700139999999976
20
70.4389319999999941
11
-51.8742579999999975
21
70.4258030000000019
0
LINE
8
BLACK
6
CONTINUOUS
10
-51.8742579999999975
20
70.4258030000000019
11
-51.8916199999999961
21
70.4120739999999898
0
LINE
8
BLACK
6
CONTINUOUS
10
-51.8916199999999961
20
70.4120739999999898
11
-51.8925470000000004
21
70.4109210000000019
0
LINE
8
BLACK
6
CONTINUOUS
10
-51.8925470000000004
20
70.4109210000000019
11
-51.8934269999999955
21
70.4106450000000024
0
LINE
8
BLACK
6
CONTINUOUS
10
-51.8934269999999955
20
70.4106450000000024
11
-51.8941510000000008
21
70.4100719999999995
0
LINE
8
BLACK
6
CONTINUOUS
10
-51.8941510000000008
20
70.4100719999999995
11
-54.4681799999999967
21
69.0936739999999929
0
LINE
8
BLACK
6
CONTINUOUS
10
-54.4681799999999967
20
69.0936739999999929
11
-54.4701339999999945
21
69.093119999999999
0
LINE
8
BLACK
6
CONTINUOUS
10
-54.4701339999999945
20
69.093119999999999
11
-54.4718019999999967
21
69.0919600000000003
0
LINE
8
BLACK
6
CONTINUOUS
10
-54.4718019999999967
20
69.0919600000000003
11
-57.0914369999999991
21
67.950019999999995
0
LINE
8
BLACK
6
CONTINUOUS
10
-57.0914369999999991
20
67.950019999999995
11
-57.0934619999999953
21
67.949579
0
LINE
8
BLACK
6
CONTINUOUS
10
-57.0934619999999953
20
67.949579
11
-57.0952319999999958
21
67.9485059999999947
0
LINE
8
BLACK
6
CONTINUOUS
10
-57.0952319999999958
20
67.9485059999999947
11
-59.7604729999999975
21
66.9810209999999984
0
LINE
8
BLACK
6
CONTINUOUS
10
-59.7604729999999975
20
66.9810209999999984
11
-59.7625439999999983
21
66.9807050000000004
0
LINE
8
BLACK
6
CONTINUOUS
10
-59.7625439999999983
20
66.9807050000000004
11
-59.7644009999999994
21
66.9797349999999909
0
LINE
8
BLACK
6
CONTINUOUS
10
-59.7644009999999994
20
66.9797349999999909
11
-62.4752499999999955
21
66.1867079999999959
0
LINE
8
BLACK
6
CONTINUOUS
10
-62.4752499999999955
20
66.1867079999999959
11
-62.4773429999999976
21
66.186522999999994
0
LINE
8
BLACK
6
CONTINUOUS
10
-62.4773429999999976
20
66.186522999999994
11
-62.4792670000000001
21
66.1856700000000018
0
LINE
8
BLACK
6
CONTINUOUS
10
-62.4792670000000001
20
66.1856700000000018
11
-65.2357209999999981
21
65.5670989999999989
0
LINE
8
BLACK
6
CONTINUOUS
10
-65.2357209999999981
20
65.5670989999999989
11
-65.2378149999999977
21
65.5670479999999998
0
LINE
8
BLACK
6
CONTINUOUS
10
-65.2378149999999977
20
65.5670479999999998
11
-65.2397789999999986
21
65.566322999999997
0
LINE
8
BLACK
6
CONTINUOUS
10
-65.2397789999999986
20
65.566322999999997
11
-68.041838999999996
21
65.122208999999998
0
LINE
8
BLACK
6
CONTINUOUS
10
-68.041838999999996
20
65.122208999999998
11
-68.0439049999999952
21
65.1222910000000041
0
LINE
8
BLACK
6
CONTINUOUS
10
-68.0439049999999952
20
65.1222910000000041
11
-68.0458859999999959
21
65.1216969999999975
0
LINE
8
BLACK
6
CONTINUOUS
10
-68.0458859999999959
20
65.1216969999999975
11
-70.8935529999999972
21
64.8520389999999907
0
LINE
8
BLACK
6
CONTINUOUS
10
-70.8935529999999972
20
64.8520389999999907
11
-70.8955710000000039
21
64.8522459999999938
0
LINE
8
BLACK
6
CONTINUOUS
10
-70.8955710000000039
20
64.8522459999999938
11
-70.8975429999999989
21
64.8517849999999925
0
LINE
8
BLACK
6
CONTINUOUS
10
-70.8975429999999989
20
64.8517849999999925
11
-73.7901949999999971
21
64.7566049999999933
0
LINE
8
BLACK
6
CONTINUOUS
10
-73.7901949999999971
20
64.7566049999999933
11
-76.6328730000000036
21
64.607018999999994
0
LINE
8
BLACK
6
CONTINUOUS
10
-76.6328730000000036
20
64.607018999999994
11
-79.3340139999999963
21
64.1746849999999966
0
LINE
8
BLACK
6
CONTINUOUS
10
-79.3340139999999963
20
64.1746849999999966
11
-81.8963699999999903
21
63.4595859999999945
0
LINE
8
BLACK
6
CONTINUOUS
10
-81.8963699999999903
20
63.4595859999999945
11
-84.3202169999999995
21
62.4617579999999961
0
LINE
8
BLACK
6
CONTINUOUS
10
-84.3202169999999995
20
62.4617579999999961
11
-86.6058869999999956
21
61.1811079999999947
0
LINE
8
BLACK
6
CONTINUOUS
10
-86.6058869999999956
20
61.1811079999999947
11
-88.7536379999999951
21
59.617447999999996
0
LINE
8
BLACK
6
CONTINUOUS
10
-88.7536379999999951
20
59.617447999999996
11
-90.7636249999999905
21
57.7705379999999948
0
LINE
8
BLACK
6
CONTINUOUS
10
-90.7636249999999905
20
57.7705379999999948
11
-92.6361849999999976
21
55.6398089999999996
0
LINE
8
BLACK
6
CONTINUOUS
10
-92.6361849999999976
20
55.6398089999999996
11
-94.3288340000000005
21
53.3438919999999968
0
LINE
8
BLACK
6
CONTINUOUS
10
-94.3288340000000005
20
53.3438919999999968
11
-95.7985919999999993
21
51.002328999999996
0
LINE
8
BLACK
6
CONTINUOUS
10
-95.7985919999999993
20
51.002328999999996
11
-97.045267999999993
21
48.615473999999999
0
LINE
8
BLACK
6
CONTINUOUS
10
-97.045267999999993
20
48.615473999999999
11
-98.0689369999999911
21
46.1833129999999983
0
LINE
8
BLACK
6
CONTINUOUS
10
-98.0689369999999911
20
46.1833129999999983
11
-98.8696939999999955
21
43.7057349999999971
0
LINE
8
BLACK
6
CONTINUOUS
10
-98.8696939999999955
20
43.7057349999999971
11
-99.4475939999999952
21
41.1826650000000001
0
LINE
8
BLACK
6
CONTINUOUS
10
-99.4475939999999952
20
41.1826650000000001
11
-99.8026780000000002
21
38.6139389999999949
0
LINE
8
BLACK
6
CONTINUOUS
10
-99.8026780000000002
20
38.6139389999999949
11
-99.9350000000000023
21
35.9983569999999986
0
LINE
8
BLACK
6
CONTINUOUS
10
-99.9350000000000023
20
35.9983569999999986
11
-99.9350000000000023
21
19.0055459999999989
0
LINE
8
BLACK
6
CONTINUOUS
10
-99.9350000000000023
20
19.0055459999999989
11
-99.3064990000000023
21
15.3497249999999994
0
LINE
8
BLACK
6
CONTINUOUS
10
-99.3064990000000023
20
15.3497249999999994
11
-98.1771299999999911
21
12.1094749999999998
0
LINE
8
BLACK
6
CONTINUOUS
10
-98.1771299999999911
20
12.1094749999999998
11
-96.5475039999999893
21
9.2848209999999991
0
LINE
8
BLACK
6
CONTINUOUS
10
-96.5475039999999893
20
9.2848209999999991
11
-94.4173509999999965
21
6.8744179999999995
0
LINE
8
BLACK
6
CONTINUOUS
10
-94.4173509999999965
20
6.8744179999999995
11
-91.7856389999999891
21
4.8772359999999999
0
LINE
8
BLACK
6
CONTINUOUS
10
-91.7856389999999891
20
4.8772359999999999
11
-88.6511059999999986
21
3.2930329999999999
0
LINE
8
BLACK
6
CONTINUOUS
10
-88.6511059999999986
20
3.2930329999999999
11
-85.0128529999999927
21
2.122217
0
LINE
8
BLACK
6
CONTINUOUS
10
-85.0128529999999927
20
2.122217
11
-80.8695239999999984
21
1.3652309999999999
0
LINE
8
BLACK
6
CONTINUOUS
10
-80.8695239999999984
20
1.3652309999999999
11
-76.2113399999999928
21
0.8792599999999999
0
LINE
8
BLACK
6
CONTINUOUS
10
-76.2113399999999928
20
0.8792599999999999
11
-71.0307499999999976
21
0.521266
0
LINE
8
BLACK
6
CONTINUOUS
10
-71.0307499999999976
20
0.521266
11
-65.3289159999999924
21
0.291412
0
LINE
8
BLACK
6
CONTINUOUS
10
-65.3289159999999924
20
0.291412
11
-59.1059379999999948
21
0.189723
0
LINE
8
BLACK
6
CONTINUOUS
10
-59.1059379999999948
20
0.189723
11
-52.3619039999999956
21
0.216219
0
LINE
8
BLACK
6
CONTINUOUS
10
-52.3619039999999956
20
0.216219
11
-45.0967989999999972
21
0.370911
0
LINE
8
BLACK
6
CONTINUOUS
10
-45.0967989999999972
20
0.370911
11
-37.310727
21
0.653801
0
LINE
8
BLACK
6
CONTINUOUS
10
-37.310727
20
0.653801
11
-29.0032129999999988
21
1.064921
0
LINE
8
BLACK
6
CONTINUOUS
10
-29.0032129999999988
20
1.064921
11
-28.9781249999999986
21
1.0612079999999999
0
LINE
8
BLACK
6
CONTINUOUS
10
-28.9781249999999986
20
1.0612079999999999
11
-28.9768489999999979
21
1.060052
0
LINE
8
BLACK
6
CONTINUOUS
10
-28.9768489999999979
20
1.060052
11
-28.9751249999999985
21
1.060052
0
LINE
8
BLACK
6
CONTINUOUS
10
-28.9751249999999985
20
1.060052
11
-28.9540379999999971
21
1.0459620000000001
0
LINE
8
BLACK
6
CONTINUOUS
10
-28.9540379999999971
20
1.0459620000000001
11
-27.9730759999999989
21
0.065
0
LINE
8
BLACK
6
CONTINUOUS
10
-27.9730759999999989
20
0.065
11
27.9730759999999989
21
0.065
0
LINE
8
BLACK
6
CONTINUOUS
10
27.9730759999999989
20
0.065
11
28.9540379999999971
21
1.0459620000000001
0
LINE
8
BLACK
6
CONTINUOUS
10
28.9540379999999971
20
1.0459620000000001
11
28.9751259999999995
21
1.060052
0
LINE
8
BLACK
6
CONTINUOUS
10
28.9751259999999995
20
1.060052
11
28.9768489999999979
21
1.060052
0
LINE
8
BLACK
6
CONTINUOUS
10
28.9768489999999979
20
1.060052
11
28.9781249999999986
21
1.0612079999999999
0
LINE
8
BLACK
6
CONTINUOUS
10
28.9781249999999986
20
1.0612079999999999
11
29.0032129999999988
21
1.064921
0
LINE
8
BLACK
6
CONTINUOUS
10
29.0032129999999988
20
1.064921
11
37.3107259999999954
21
0.653801
0
LINE
8
BLACK
6
CONTINUOUS
10
37.3107259999999954
20
0.653801
11
45.0967979999999997
21
0.370911
0
LINE
8
BLACK
6
CONTINUOUS
10
45.0967979999999997
20
0.370911
11
52.3619029999999981
21
0.216219
0
LINE
8
BLACK
6
CONTINUOUS
10
52.3619029999999981
20
0.216219
11
59.1059369999999973
21
0.189723
0
LINE
8
BLACK
6
CONTINUOUS
10
59.1059369999999973
20
0.189723
11
65.328914999999995
21
0.291412
0
LINE
8
BLACK
6
CONTINUOUS
10
65.328914999999995
20
0.291412
11
71.0307499999999976
21
0.521266
0
LINE
8
BLACK
6
CONTINUOUS
10
71.0307499999999976
20
0.521266
11
76.2113389999999953
21
0.8792599999999999
0
LINE
8
BLACK
6
CONTINUOUS
10
76.2113389999999953
20
0.8792599999999999
11
80.8695209999999918
21
1.3652309999999999
0
LINE
8
BLACK
6
CONTINUOUS
10
80.8695209999999918
20
1.3652309999999999
11
85.0128519999999952
21
2.122217
0
LINE
8
BLACK
6
CONTINUOUS
10
85.0128519999999952
20
2.122217
11
88.6511050000000012
21
3.2930329999999999
0
LINE
8
BLACK
6
CONTINUOUS
10
88.6511050000000012
20
3.2930329999999999
11
91.7856400000000008
21
4.877237
0
LINE
8
BLACK
6
CONTINUOUS
10
91.7856400000000008
20
4.877237
11
94.417349999999999
21
6.8744179999999995
0
LINE
8
BLACK
6
CONTINUOUS
10
94.417349999999999
20
6.8744179999999995
11
96.5475029999999919
21
9.2848209999999991
0
LINE
8
BLACK
6
CONTINUOUS
10
96.5475029999999919
20
9.2848209999999991
11
98.1771289999999937
21
12.1094749999999998
0
LINE
8
BLACK
6
CONTINUOUS
10
98.1771289999999937
20
12.1094749999999998
11
99.3064979999999906
21
15.3497249999999994
0
LINE
8
BLACK
6
CONTINUOUS
10
99.3064979999999906
20
15.3497249999999994
11
99.9350000000000023
21
19.0055459999999989
0
LINE
8
BLACK
6
CONTINUOUS
10
99.9350000000000023
20
19.0055459999999989
11
99.9350000000000023
21
35.9983569999999986
0
LINE
8
BLACK
6
CONTINUOUS
10
99.9350000000000023
20
35.9983569999999986
11
99.8026769999999885
21
38.6139389999999949
0
LINE
8
BLACK
6
CONTINUOUS
10
99.8026769999999885
20
38.6139389999999949
11
99.4475920000000002
21
41.182666999999995
0
LINE
8
BLACK
6
CONTINUOUS
10
99.4475920000000002
20
41.182666999999995
11
98.8696929999999981
21
43.7057349999999971
0
LINE
8
BLACK
6
CONTINUOUS
10
98.8696929999999981
20
43.7057349999999971
11
98.0689359999999937
21
46.1833129999999983
0
LINE
8
BLACK
6
CONTINUOUS
10
98.0689359999999937
20
46.1833129999999983
11
97.0452650000000006
21
48.6154790000000006
0
LINE
8
BLACK
6
CONTINUOUS
10
97.0452650000000006
20
48.6154790000000006
11
95.7985850000000028
21
51.0023379999999946
0
LINE
8
BLACK
6
CONTINUOUS
10
95.7985850000000028
20
51.0023379999999946
11
94.3288269999999898
21
53.3439009999999953
0
LINE
8
BLACK
6
CONTINUOUS
10
94.3288269999999898
20
53.3439009999999953
11
92.6361749999999944
21
55.6398209999999978
0
LINE
8
BLACK
6
CONTINUOUS
10
92.6361749999999944
20
55.6398209999999978
11
90.7636199999999889
21
57.7705429999999964
0
LINE
8
BLACK
6
CONTINUOUS
10
90.7636199999999889
20
57.7705429999999964
11
88.7536269999999945
21
59.6174559999999971
0
LINE
8
BLACK
6
CONTINUOUS
10
88.7536269999999945
20
59.6174559999999971
11
86.605881999999994
21
61.1811099999999968
0
LINE
8
BLACK
6
CONTINUOUS
10
86.605881999999994
20
61.1811099999999968
11
84.3202160000000021
21
62.4617579999999961
0
LINE
8
BLACK
6
CONTINUOUS
10
84.3202160000000021
20
62.4617579999999961
11
81.8963689999999929
21
63.4595859999999945
0
LINE
8
BLACK
6
CONTINUOUS
10
81.8963689999999929
20
63.4595859999999945
11
79.3340149999999937
21
64.1746839999999992
0
LINE
8
BLACK
6
CONTINUOUS
10
79.3340149999999937
20
64.1746839999999992
11
76.6328709999999944
21
64.607018999999994
0
LINE
8
BLACK
6
CONTINUOUS
10
76.6328709999999944
20
64.607018999999994
11
73.7901930000000021
21
64.7566049999999933
0
LINE
8
BLACK
6
CONTINUOUS
10
73.7901930000000021
20
64.7566049999999933
11
70.8975429999999989
21
64.8517849999999925
0
LINE
8
BLACK
6
CONTINUOUS
10
70.8975429999999989
20
64.8517849999999925
11
70.8955699999999922
21
64.8522459999999938
0
LINE
8
BLACK
6
CONTINUOUS
10
70.8955699999999922
20
64.8522459999999938
11
70.8935529999999972
21
64.8520389999999907
0
LINE
8
BLACK
6
CONTINUOUS
10
70.8935529999999972
20
64.8520389999999907
11
68.0458859999999959
21
65.1216969999999975
0
LINE
8
BLACK
6
CONTINUOUS
10
68.0458859999999959
20
65.1216969999999975
11
68.0439039999999977
21
65.1222910000000041
0
LINE
8
BLACK
6
CONTINUOUS
10
68.0439039999999977
20
65.1222910000000041
11
68.041838999999996
21
65.122208999999998
0
LINE
8
BLACK
6
CONTINUOUS
10
68.041838999999996
20
65.122208999999998
11
65.2397789999999986
21
65.566322999999997
0
LINE
8
BLACK
6
CONTINUOUS
10
65.2397789999999986
20
65.566322999999997
11
65.2378140000000002
21
65.5670479999999998
0
LINE
8
BLACK
6
CONTINUOUS
10
65.2378140000000002
20
65.5670479999999998
11
65.2357219999999955
21
65.5670989999999989
0
LINE
8
BLACK
6
CONTINUOUS
10
65.2357219999999955
20
65.5670989999999989
11
62.4792670000000001
21
66.1856700000000018
0
LINE
8
BLACK
6
CONTINUOUS
10
62.4792670000000001
20
66.1856700000000018
11
62.4773420000000002
21
66.186522999999994
0
LINE
8
BLACK
6
CONTINUOUS
10
62.4773420000000002
20
66.186522999999994
11
62.4752499999999955
21
66.1867079999999959
0
LINE
8
BLACK
6
CONTINUOUS
10
62.4752499999999955
20
66.1867079999999959
11
59.7644019999999969
21
66.9797349999999909
0
LINE
8
BLACK
6
CONTINUOUS
10
59.7644019999999969
20
66.9797349999999909
11
59.7625449999999958
21
66.9807040000000029
0
LINE
8
BLACK
6
CONTINUOUS
10
59.7625449999999958
20
66.9807040000000029
11
59.7604729999999975
21
66.9810209999999984
0
LINE
8
BLACK
6
CONTINUOUS
10
59.7604729999999975
20
66.9810209999999984
11
57.0952319999999958
21
67.9485059999999947
0
LINE
8
BLACK
6
CONTINUOUS
10
57.0952319999999958
20
67.9485059999999947
11
57.0934600000000003
21
67.949579
0
LINE
8
BLACK
6
CONTINUOUS
10
57.0934600000000003
20
67.949579
11
57.0914369999999991
21
67.950019999999995
0
LINE
8
BLACK
6
CONTINUOUS
10
57.0914369999999991
20
67.950019999999995
11
54.4718019999999967
21
69.0919600000000003
0
LINE
8
BLACK
6
CONTINUOUS
10
54.4718019999999967
20
69.0919600000000003
11
54.470132999999997
21
69.093119999999999
0
LINE
8
BLACK
6
CONTINUOUS
10
54.470132999999997
20
69.093119999999999
11
54.4681799999999967
21
69.0936739999999929
0
LINE
8
BLACK
6
CONTINUOUS
10
54.4681799999999967
20
69.0936739999999929
11
51.8941510000000008
21
70.4100719999999995
0
LINE
8
BLACK
6
CONTINUOUS
10
51.8941510000000008
20
70.4100719999999995
11
51.8934259999999981
21
70.4106450000000024
0
LINE
8
BLACK
6
CONTINUOUS
10
51.8934259999999981
20
70.4106450000000024
11
51.8925470000000004
21
70.4109210000000019
0
LINE
8
BLACK
6
CONTINUOUS
10
51.8925470000000004
20
70.4109210000000019
11
51.8916189999999986
21
70.4120739999999898
0
LINE
8
BLACK
6
CONTINUOUS
10
51.8916189999999986
20
70.4120739999999898
11
51.8742579999999975
21
70.4258030000000019
0
LINE
8
BLACK
6
CONTINUOUS
10
51.8742579999999975
20
70.4258030000000019
11
51.8700130000000001
21
70.4389340000000033
0
LINE
8
BLACK
6
CONTINUOUS
10
51.8700130000000001
20
70.4389340000000033
11
51.8613649999999993
21
70.4496839999999906
0
LINE
8
BLACK
6
CONTINUOUS
10
51.8613649999999993
20
70.4496839999999906
11
51.8626629999999977
21
70.4616680000000031
0
LINE
8
BLACK
6
CONTINUOUS
10
51.8626629999999977
20
70.4616680000000031
11
51.8589549999999946
21
70.4731400000000008
0
LINE
8
BLACK
6
CONTINUOUS
10
51.8589549999999946
20
70.4731400000000008
11
51.865237999999998
21
70.4854270000000014
0
LINE
8
BLACK
6
CONTINUOUS
10
51.865237999999998
20
70.4854270000000014
11
51.8667249999999953
21
70.4991430000000037
0
LINE
8
BLACK
6
CONTINUOUS
10
51.8667249999999953
20
70.4991430000000037
11
51.8761170000000007
21
70.5066989999999976
0
LINE
8
BLACK
6
CONTINUOUS
10
51.8761170000000007
20
70.5066989999999976
11
51.8816069999999954
21
70.5174319999999994
0
LINE
8
BLACK
6
CONTINUOUS
10
51.8816069999999954
20
70.5174319999999994
11
51.8947369999999992
21
70.5216769999999968
0
LINE
8
BLACK
6
CONTINUOUS
10
51.8947369999999992
20
70.5216769999999968
11
51.9054879999999983
21
70.5303249999999906
0
LINE
8
BLACK
6
CONTINUOUS
10
51.9054879999999983
20
70.5303249999999906
11
51.9275359999999964
21
70.5322800000000001
0
LINE
8
BLACK
6
CONTINUOUS
10
51.9275359999999964
20
70.5322800000000001
11
51.9289439999999942
21
70.5327350000000024
0
LINE
8
BLACK
6
CONTINUOUS
10
51.9289439999999942
20
70.5327350000000024
11
51.9298299999999955
21
70.5324839999999966
0
LINE
8
BLACK
6
CONTINUOUS
10
51.9298299999999955
20
70.5324839999999966
11
51.9307510000000008
21
70.5325649999999911
0
LINE
8
BLACK
6
CONTINUOUS
10
51.9307510000000008
20
70.5325649999999911
11
57.1902569999999955
21
69.9625529999999998
0
LINE
8
BLACK
6
CONTINUOUS
10
57.1902569999999955
20
69.9625529999999998
11
62.0280279999999991
21
69.9387629999999945
0
LINE
8
BLACK
6
CONTINUOUS
10
62.0280279999999991
20
69.9387629999999945
11
66.4468529999999902
21
70.4604700000000008
0
LINE
8
BLACK
6
CONTINUOUS
10
66.4468529999999902
20
70.4604700000000008
11
70.4469330000000014
21
71.5271740000000023
0
LINE
8
BLACK
6
CONTINUOUS
10
70.4469330000000014
20
71.5271740000000023
11
74.0288749999999993
21
73.1384759999999972
0
LINE
8
BLACK
6
CONTINUOUS
10
74.0288749999999993
20
73.1384759999999972
11
77.1935929999999928
21
75.2943379999999962
0
LINE
8
BLACK
6
CONTINUOUS
10
77.1935929999999928
20
75.2943379999999962
11
79.9420009999999905
21
77.9952550000000002
0
LINE
8
BLACK
6
CONTINUOUS
10
79.9420009999999905
20
77.9952550000000002
11
82.2753649999999936
21
81.243110999999999
0
LINE
8
BLACK
6
CONTINUOUS
10
82.2753649999999936
20
81.243110999999999
11
84.2403139999999979
21
84.7802389999999946
0
LINE
8
BLACK
6
CONTINUOUS
10
84.2403139999999979
20
84.7802389999999946
11
85.8821959999999933
21
88.3459149999999909
0
LINE
8
BLACK
6
CONTINUOUS
10
85.8821959999999933
20
88.3459149999999909
11
87.2003909999999962
21
91.9389070000000004
0
LINE
8
BLACK
6
CONTINUOUS
10
87.2003909999999962
20
91.9389070000000004
11
88.1949789999999894
21
95.5592659999999938
0
LINE
8
BLACK
6
CONTINUOUS
10
88.1949789999999894
20
95.5592659999999938
11
88.866028
21
99.2070769999999982
0
LINE
8
BLACK
6
CONTINUOUS
10
88.866028
20
99.2070769999999982
11
89.2135869999999898
21
102.8824669999999912
0
LINE
8
BLACK
6
CONTINUOUS
10
89.2135869999999898
20
102.8824669999999912
11
89.2376730000000009
21
106.5855839999999972
0
LINE
8
BLACK
6
CONTINUOUS
10
89.2376730000000009
20
106.5855839999999972
11
88.9382590000000022
21
110.3166030000000006
0
LINE
8
BLACK
6
CONTINUOUS
10
88.9382590000000022
20
110.3166030000000006
11
88.3345039999999955
21
114.0054030000000012
0
LINE
8
BLACK
6
CONTINUOUS
10
88.3345039999999955
20
114.0054030000000012
11
87.445619999999991
21
117.5817579999999936
0
LINE
8
BLACK
6
CONTINUOUS
10
87.445619999999991
20
117.5817579999999936
11
86.2716419999999999
21
121.0456059999999923
0
LINE
8
BLACK
6
CONTINUOUS
10
86.2716419999999999
20
121.0456059999999923
11
84.8125289999999978
21
124.3971009999999922
0
LINE
8
BLACK
6
CONTINUOUS
10
84.8125289999999978
20
124.3971009999999922
11
83.0682410000000004
21
127.6363159999999937
0
LINE
8
BLACK
6
CONTINUOUS
10
83.0682410000000004
20
127.6363159999999937
11
81.0387029999999982
21
130.7633380000000045
0
LINE
8
BLACK
6
CONTINUOUS
10
81.0387029999999982
20
130.7633380000000045
11
78.7238249999999908
21
133.7782269999999869
0
LINE
8
BLACK
6
CONTINUOUS
10
78.7238249999999908
20
133.7782269999999869
11
76.1238079999999968
21
136.6806939999999884
0
LINE
8
BLACK
6
CONTINUOUS
10
76.1238079999999968
20
136.6806939999999884
11
73.2742080000000016
21
139.366769000000005
0
LINE
8
BLACK
6
CONTINUOUS
10
73.2742080000000016
20
139.366769000000005
11
70.2100729999999942
21
141.7331209999999828
0
LINE
8
BLACK
6
CONTINUOUS
10
70.2100729999999942
20
141.7331209999999828
11
66.9310159999999996
21
143.7801199999999824
0
LINE
8
BLACK
6
CONTINUOUS
10
66.9310159999999996
20
143.7801199999999824
11
63.4368799999999951
21
145.5078519999999855
0
LINE
8
BLACK
6
CONTINUOUS
10
63.4368799999999951
20
145.5078519999999855
11
59.7274770000000004
21
146.9163580000000024
0
LINE
8
BLACK
6
CONTINUOUS
10
59.7274770000000004
20
146.9163580000000024
11
55.8026429999999962
21
148.0056170000000009
0
LINE
8
BLACK
6
CONTINUOUS
10
55.8026429999999962
20
148.0056170000000009
11
51.6622780000000006
21
148.7755630000000053
0
LINE
8
BLACK
6
CONTINUOUS
10
51.6622780000000006
20
148.7755630000000053
11
47.303847999999995
21
149.2263710000000003
0
LINE
8
BLACK
6
CONTINUOUS
10
47.303847999999995
20
149.2263710000000003
11
47.2796159999999972
21
149.2338519999999846
0
LINE
8
BLACK
6
CONTINUOUS
10
47.2796159999999972
20
149.2338519999999846
11
47.2750099999999946
21
149.2395199999999988
0
LINE
8
BLACK
6
CONTINUOUS
10
47.2750099999999946
20
149.2395199999999988
11
47.2680739999999986
21
149.2418119999999817
0
LINE
8
BLACK
6
CONTINUOUS
10
47.2680739999999986
20
149.2418119999999817
11
47.2598190000000002
21
149.2582160000000044
0
LINE
8
BLACK
6
CONTINUOUS
10
47.2598190000000002
20
149.2582160000000044
11
47.2482439999999997
21
149.2724619999999902
0
LINE
8
BLACK
6
CONTINUOUS
10
47.2482439999999997
20
149.2724619999999902
11
47.2489950000000007
21
149.2797269999999799
0
LINE
8
BLACK
6
CONTINUOUS
10
47.2489950000000007
20
149.2797269999999799
11
47.2457119999999975
21
149.2862509999999929
0
LINE
8
BLACK
6
CONTINUOUS
10
47.2457119999999975
20
149.2862509999999929
11
47.2514729999999972
21
149.303685999999999
0
LINE
8
BLACK
6
CONTINUOUS
10
47.2514729999999972
20
149.303685999999999
11
47.2533619999999956
21
149.321945999999997
0
LINE
8
BLACK
6
CONTINUOUS
10
47.2533619999999956
20
149.321945999999997
11
47.2590289999999982
21
149.3265519999999924
0
LINE
8
BLACK
6
CONTINUOUS
10
47.2590289999999982
20
149.3265519999999924
11
47.2613219999999998
21
149.3334879999999885
0
LINE
8
BLACK
6
CONTINUOUS
10
47.2613219999999998
20
149.3334879999999885
11
47.2813179999999988
21
149.3490889999999922
0
LINE
8
BLACK
6
CONTINUOUS
10
47.2813179999999988
20
149.3490889999999922
11
50.5091049999999981
21
150.9733839999999816
0
LINE
8
BLACK
6
CONTINUOUS
10
50.5091049999999981
20
150.9733839999999816
11
53.3229529999999983
21
152.7370530000000031
0
LINE
8
BLACK
6
CONTINUOUS
10
53.3229529999999983
20
152.7370530000000031
11
55.7252999999999972
21
154.6409529999999961
0
LINE
8
BLACK
6
CONTINUOUS
10
55.7252999999999972
20
154.6409529999999961
11
57.7164739999999981
21
156.6848169999999811
0
LINE
8
BLACK
6
CONTINUOUS
10
57.7164739999999981
20
156.6848169999999811
11
59.2970039999999941
21
158.8685389999999984
0
LINE
8
BLACK
6
CONTINUOUS
10
59.2970039999999941
20
158.8685389999999984
11
60.4675449999999941
21
161.1923459999999864
0
LINE
8
BLACK
6
CONTINUOUS
10
60.4675449999999941
20
161.1923459999999864
11
61.2286499999999947
21
163.6568570000000022
0
LINE
8
BLACK
6
CONTINUOUS
10
61.2286499999999947
20
163.6568570000000022
11
61.5807029999999997
21
166.2642689999999845
0
LINE
8
BLACK
6
CONTINUOUS
10
61.5807029999999997
20
166.2642689999999845
11
61.6365059999999971
21
168.8775179999999807
0
LINE
8
BLACK
6
CONTINUOUS
10
61.6365059999999971
20
168.8775179999999807
11
61.5090649999999997
21
171.3561080000000061
0
LINE
8
BLACK
6
CONTINUOUS
10
61.5090649999999997
20
171.3561080000000061
11
61.1984589999999997
21
173.6985139999999888
0
LINE
8
BLACK
6
CONTINUOUS
10
61.1984589999999997
20
173.6985139999999888
11
60.7048069999999953
21
175.9048059999999793
0
LINE
8
BLACK
6
CONTINUOUS
10
60.7048069999999953
20
175.9048059999999793
11
60.0282219999999995
21
177.9750819999999862
0
LINE
8
BLACK
6
CONTINUOUS
10
60.0282219999999995
20
177.9750819999999862
11
59.1687709999999996
21
179.9095409999999902
0
LINE
8
BLACK
6
CONTINUOUS
10
59.1687709999999996
20
179.9095409999999902
11
58.1264569999999949
21
181.7084009999999807
0
LINE
8
BLACK
6
CONTINUOUS
10
58.1264569999999949
20
181.7084009999999807
11
56.9006599999999949
21
183.3726429999999823
0
LINE
8
BLACK
6
CONTINUOUS
10
56.9006599999999949
20
183.3726429999999823
11
55.5450850000000003
21
184.9308240000000012
0
LINE
8
BLACK
6
CONTINUOUS
10
55.5450850000000003
20
184.9308240000000012
11
54.1147269999999949
21
186.4100349999999935
0
LINE
8
BLACK
6
CONTINUOUS
10
54.1147269999999949
20
186.4100349999999935
11
52.6102249999999998
21
187.8095419999999933
0
LINE
8
BLACK
6
CONTINUOUS
10
52.6102249999999998
20
187.8095419999999933
11
51.0315459999999987
21
189.1293809999999951
0
LINE
8
BLACK
6
CONTINUOUS
10
51.0315459999999987
20
189.1293809999999951
11
49.3786559999999994
21
190.369575999999995
0
LINE
8
BLACK
6
CONTINUOUS
10
49.3786559999999994
20
190.369575999999995
11
47.6515529999999998
21
191.5301209999999799
0
LINE
8
BLACK
6
CONTINUOUS
10
47.6515529999999998
20
191.5301209999999799
11
45.8501739999999955
21
192.6110479999999825
0
LINE
8
BLACK
6
CONTINUOUS
10
45.8501739999999955
20
192.6110479999999825
11
43.9746009999999998
21
193.6123000000000047
0
LINE
8
BLACK
6
CONTINUOUS
10
43.9746009999999998
20
193.6123000000000047
11
42.0040259999999961
21
194.5370499999999936
0
LINE
8
BLACK
6
CONTINUOUS
10
42.0040259999999961
20
194.5370499999999936
11
39.9174499999999952
21
195.388545999999991
0
LINE
8
BLACK
6
CONTINUOUS
10
39.9174499999999952
20
195.388545999999991
11
37.7147790000000001
21
196.1667949999999792
0
LINE
8
BLACK
6
CONTINUOUS
10
37.7147790000000001
20
196.1667949999999792
11
35.3960229999999996
21
196.8717659999999796
0
LINE
8
BLACK
6
CONTINUOUS
10
35.3960229999999996
20
196.8717659999999796
11
32.961151000000001
21
197.503436999999991
0
LINE
8
BLACK
6
CONTINUOUS
10
32.961151000000001
20
197.503436999999991
11
30.410148999999997
21
198.061790000000002
0
LINE
8
BLACK
6
CONTINUOUS
10
30.410148999999997
20
198.061790000000002
11
27.7430699999999995
21
198.5467909999999847
0
LINE
8
BLACK
6
CONTINUOUS
10
27.7430699999999995
20
198.5467909999999847
11
24.9603219999999979
21
198.9583619999999939
0
LINE
8
BLACK
6
CONTINUOUS
10
24.9603219999999979
20
198.9583619999999939
11
22.0856369999999984
21
199.2547260000000051
0
LINE
8
BLACK
6
CONTINUOUS
10
22.0856369999999984
20
199.2547260000000051
11
19.1417719999999996
21
199.3942409999999938
0
LINE
8
BLACK
6
CONTINUOUS
10
19.1417719999999996
20
199.3942409999999938
11
16.1282940000000004
21
199.3769259999999974
  0
ENDSEC
  0
EOF
