G04 #@! TF.GenerationSoftware,KiCad,Pcbnew,7.0.4*
G04 #@! TF.CreationDate,2023-08-12T11:29:38+02:00*
G04 #@! TF.ProjectId,NB3_ear,4e42335f-6561-4722-9e6b-696361645f70,0.0.1*
G04 #@! TF.SameCoordinates,PX868b5c0PY6ee3738*
G04 #@! TF.FileFunction,Legend,Bot*
G04 #@! TF.FilePolarity,Positive*
%FSLAX46Y46*%
G04 Gerber Fmt 4.6, Leading zero omitted, Abs format (unit mm)*
G04 Created by KiCad (PCBNEW 7.0.4) date 2023-08-12 11:29:38*
%MOMM*%
%LPD*%
G01*
G04 APERTURE LIST*
%ADD10C,0.150000*%
G04 APERTURE END LIST*
D10*
X6190000Y5255000D02*
X6190000Y2715000D01*
X1110000Y5255000D02*
X18890000Y5255000D01*
X18890000Y2715000D01*
X1110000Y2715000D01*
X1110000Y5255000D01*
X13810000Y5255000D02*
X13810000Y2715000D01*
X3650000Y12875000D02*
G75*
G03*
X3650000Y15415000I0J1270000D01*
G01*
X3650000Y12875000D02*
X3650000Y15415000D01*
X8730000Y5255000D02*
X8730000Y2715000D01*
X16350000Y5255000D02*
X16350000Y2715000D01*
X11270000Y5255000D02*
X11270000Y2715000D01*
X4666000Y14907000D02*
X5936000Y14907000D01*
X10966536Y16074000D02*
G75*
G03*
X10966536Y16074000I-966536J0D01*
G01*
X4666000Y13383000D02*
X5936000Y13383000D01*
X3650000Y5255000D02*
X3650000Y2715000D01*
X3279999Y3485800D02*
X3179999Y3447705D01*
X3179999Y3447705D02*
X3013333Y3447705D01*
X3013333Y3447705D02*
X2946666Y3485800D01*
X2946666Y3485800D02*
X2913333Y3523896D01*
X2913333Y3523896D02*
X2879999Y3600086D01*
X2879999Y3600086D02*
X2879999Y3676277D01*
X2879999Y3676277D02*
X2913333Y3752467D01*
X2913333Y3752467D02*
X2946666Y3790562D01*
X2946666Y3790562D02*
X3013333Y3828658D01*
X3013333Y3828658D02*
X3146666Y3866753D01*
X3146666Y3866753D02*
X3213333Y3904848D01*
X3213333Y3904848D02*
X3246666Y3942943D01*
X3246666Y3942943D02*
X3279999Y4019134D01*
X3279999Y4019134D02*
X3279999Y4095324D01*
X3279999Y4095324D02*
X3246666Y4171515D01*
X3246666Y4171515D02*
X3213333Y4209610D01*
X3213333Y4209610D02*
X3146666Y4247705D01*
X3146666Y4247705D02*
X2979999Y4247705D01*
X2979999Y4247705D02*
X2879999Y4209610D01*
X2179999Y3523896D02*
X2213332Y3485800D01*
X2213332Y3485800D02*
X2313332Y3447705D01*
X2313332Y3447705D02*
X2379999Y3447705D01*
X2379999Y3447705D02*
X2479999Y3485800D01*
X2479999Y3485800D02*
X2546666Y3561991D01*
X2546666Y3561991D02*
X2579999Y3638181D01*
X2579999Y3638181D02*
X2613332Y3790562D01*
X2613332Y3790562D02*
X2613332Y3904848D01*
X2613332Y3904848D02*
X2579999Y4057229D01*
X2579999Y4057229D02*
X2546666Y4133420D01*
X2546666Y4133420D02*
X2479999Y4209610D01*
X2479999Y4209610D02*
X2379999Y4247705D01*
X2379999Y4247705D02*
X2313332Y4247705D01*
X2313332Y4247705D02*
X2213332Y4209610D01*
X2213332Y4209610D02*
X2179999Y4171515D01*
X1879999Y3447705D02*
X1879999Y4247705D01*
X1479999Y3447705D02*
X1779999Y3904848D01*
X1479999Y4247705D02*
X1879999Y3790562D01*
X5753333Y4247705D02*
X5319999Y4247705D01*
X5319999Y4247705D02*
X5553333Y3942943D01*
X5553333Y3942943D02*
X5453333Y3942943D01*
X5453333Y3942943D02*
X5386666Y3904848D01*
X5386666Y3904848D02*
X5353333Y3866753D01*
X5353333Y3866753D02*
X5319999Y3790562D01*
X5319999Y3790562D02*
X5319999Y3600086D01*
X5319999Y3600086D02*
X5353333Y3523896D01*
X5353333Y3523896D02*
X5386666Y3485800D01*
X5386666Y3485800D02*
X5453333Y3447705D01*
X5453333Y3447705D02*
X5653333Y3447705D01*
X5653333Y3447705D02*
X5719999Y3485800D01*
X5719999Y3485800D02*
X5753333Y3523896D01*
X5086666Y3981039D02*
X4919999Y3447705D01*
X4919999Y3447705D02*
X4753332Y3981039D01*
X4553333Y4247705D02*
X4119999Y4247705D01*
X4119999Y4247705D02*
X4353333Y3942943D01*
X4353333Y3942943D02*
X4253333Y3942943D01*
X4253333Y3942943D02*
X4186666Y3904848D01*
X4186666Y3904848D02*
X4153333Y3866753D01*
X4153333Y3866753D02*
X4119999Y3790562D01*
X4119999Y3790562D02*
X4119999Y3600086D01*
X4119999Y3600086D02*
X4153333Y3523896D01*
X4153333Y3523896D02*
X4186666Y3485800D01*
X4186666Y3485800D02*
X4253333Y3447705D01*
X4253333Y3447705D02*
X4453333Y3447705D01*
X4453333Y3447705D02*
X4519999Y3485800D01*
X4519999Y3485800D02*
X4553333Y3523896D01*
X17753333Y3447705D02*
X18086666Y3447705D01*
X18086666Y3447705D02*
X18086666Y4247705D01*
X17119999Y3447705D02*
X17353332Y3828658D01*
X17519999Y3447705D02*
X17519999Y4247705D01*
X17519999Y4247705D02*
X17253332Y4247705D01*
X17253332Y4247705D02*
X17186666Y4209610D01*
X17186666Y4209610D02*
X17153332Y4171515D01*
X17153332Y4171515D02*
X17119999Y4095324D01*
X17119999Y4095324D02*
X17119999Y3981039D01*
X17119999Y3981039D02*
X17153332Y3904848D01*
X17153332Y3904848D02*
X17186666Y3866753D01*
X17186666Y3866753D02*
X17253332Y3828658D01*
X17253332Y3828658D02*
X17519999Y3828658D01*
X13089999Y3485800D02*
X12989999Y3447705D01*
X12989999Y3447705D02*
X12823333Y3447705D01*
X12823333Y3447705D02*
X12756666Y3485800D01*
X12756666Y3485800D02*
X12723333Y3523896D01*
X12723333Y3523896D02*
X12689999Y3600086D01*
X12689999Y3600086D02*
X12689999Y3676277D01*
X12689999Y3676277D02*
X12723333Y3752467D01*
X12723333Y3752467D02*
X12756666Y3790562D01*
X12756666Y3790562D02*
X12823333Y3828658D01*
X12823333Y3828658D02*
X12956666Y3866753D01*
X12956666Y3866753D02*
X13023333Y3904848D01*
X13023333Y3904848D02*
X13056666Y3942943D01*
X13056666Y3942943D02*
X13089999Y4019134D01*
X13089999Y4019134D02*
X13089999Y4095324D01*
X13089999Y4095324D02*
X13056666Y4171515D01*
X13056666Y4171515D02*
X13023333Y4209610D01*
X13023333Y4209610D02*
X12956666Y4247705D01*
X12956666Y4247705D02*
X12789999Y4247705D01*
X12789999Y4247705D02*
X12689999Y4209610D01*
X12389999Y3447705D02*
X12389999Y4247705D01*
X12389999Y4247705D02*
X12223332Y4247705D01*
X12223332Y4247705D02*
X12123332Y4209610D01*
X12123332Y4209610D02*
X12056666Y4133420D01*
X12056666Y4133420D02*
X12023332Y4057229D01*
X12023332Y4057229D02*
X11989999Y3904848D01*
X11989999Y3904848D02*
X11989999Y3790562D01*
X11989999Y3790562D02*
X12023332Y3638181D01*
X12023332Y3638181D02*
X12056666Y3561991D01*
X12056666Y3561991D02*
X12123332Y3485800D01*
X12123332Y3485800D02*
X12223332Y3447705D01*
X12223332Y3447705D02*
X12389999Y3447705D01*
X17857142Y14350181D02*
X17857142Y15350181D01*
X17857142Y15350181D02*
X17285714Y14350181D01*
X17285714Y14350181D02*
X17285714Y15350181D01*
X16476190Y14873991D02*
X16333333Y14826372D01*
X16333333Y14826372D02*
X16285714Y14778753D01*
X16285714Y14778753D02*
X16238095Y14683515D01*
X16238095Y14683515D02*
X16238095Y14540658D01*
X16238095Y14540658D02*
X16285714Y14445420D01*
X16285714Y14445420D02*
X16333333Y14397800D01*
X16333333Y14397800D02*
X16428571Y14350181D01*
X16428571Y14350181D02*
X16809523Y14350181D01*
X16809523Y14350181D02*
X16809523Y15350181D01*
X16809523Y15350181D02*
X16476190Y15350181D01*
X16476190Y15350181D02*
X16380952Y15302562D01*
X16380952Y15302562D02*
X16333333Y15254943D01*
X16333333Y15254943D02*
X16285714Y15159705D01*
X16285714Y15159705D02*
X16285714Y15064467D01*
X16285714Y15064467D02*
X16333333Y14969229D01*
X16333333Y14969229D02*
X16380952Y14921610D01*
X16380952Y14921610D02*
X16476190Y14873991D01*
X16476190Y14873991D02*
X16809523Y14873991D01*
X15904761Y15350181D02*
X15285714Y15350181D01*
X15285714Y15350181D02*
X15619047Y14969229D01*
X15619047Y14969229D02*
X15476190Y14969229D01*
X15476190Y14969229D02*
X15380952Y14921610D01*
X15380952Y14921610D02*
X15333333Y14873991D01*
X15333333Y14873991D02*
X15285714Y14778753D01*
X15285714Y14778753D02*
X15285714Y14540658D01*
X15285714Y14540658D02*
X15333333Y14445420D01*
X15333333Y14445420D02*
X15380952Y14397800D01*
X15380952Y14397800D02*
X15476190Y14350181D01*
X15476190Y14350181D02*
X15761904Y14350181D01*
X15761904Y14350181D02*
X15857142Y14397800D01*
X15857142Y14397800D02*
X15904761Y14445420D01*
X14095237Y14873991D02*
X13761904Y14873991D01*
X13619047Y14350181D02*
X14095237Y14350181D01*
X14095237Y14350181D02*
X14095237Y15350181D01*
X14095237Y15350181D02*
X13619047Y15350181D01*
X12761904Y14350181D02*
X12761904Y14873991D01*
X12761904Y14873991D02*
X12809523Y14969229D01*
X12809523Y14969229D02*
X12904761Y15016848D01*
X12904761Y15016848D02*
X13095237Y15016848D01*
X13095237Y15016848D02*
X13190475Y14969229D01*
X12761904Y14397800D02*
X12857142Y14350181D01*
X12857142Y14350181D02*
X13095237Y14350181D01*
X13095237Y14350181D02*
X13190475Y14397800D01*
X13190475Y14397800D02*
X13238094Y14493039D01*
X13238094Y14493039D02*
X13238094Y14588277D01*
X13238094Y14588277D02*
X13190475Y14683515D01*
X13190475Y14683515D02*
X13095237Y14731134D01*
X13095237Y14731134D02*
X12857142Y14731134D01*
X12857142Y14731134D02*
X12761904Y14778753D01*
X12285713Y14350181D02*
X12285713Y15016848D01*
X12285713Y14826372D02*
X12238094Y14921610D01*
X12238094Y14921610D02*
X12190475Y14969229D01*
X12190475Y14969229D02*
X12095237Y15016848D01*
X12095237Y15016848D02*
X11999999Y15016848D01*
X17785714Y12740181D02*
X18119047Y13216372D01*
X18357142Y12740181D02*
X18357142Y13740181D01*
X18357142Y13740181D02*
X17976190Y13740181D01*
X17976190Y13740181D02*
X17880952Y13692562D01*
X17880952Y13692562D02*
X17833333Y13644943D01*
X17833333Y13644943D02*
X17785714Y13549705D01*
X17785714Y13549705D02*
X17785714Y13406848D01*
X17785714Y13406848D02*
X17833333Y13311610D01*
X17833333Y13311610D02*
X17880952Y13263991D01*
X17880952Y13263991D02*
X17976190Y13216372D01*
X17976190Y13216372D02*
X18357142Y13216372D01*
X16976190Y12787800D02*
X17071428Y12740181D01*
X17071428Y12740181D02*
X17261904Y12740181D01*
X17261904Y12740181D02*
X17357142Y12787800D01*
X17357142Y12787800D02*
X17404761Y12883039D01*
X17404761Y12883039D02*
X17404761Y13263991D01*
X17404761Y13263991D02*
X17357142Y13359229D01*
X17357142Y13359229D02*
X17261904Y13406848D01*
X17261904Y13406848D02*
X17071428Y13406848D01*
X17071428Y13406848D02*
X16976190Y13359229D01*
X16976190Y13359229D02*
X16928571Y13263991D01*
X16928571Y13263991D02*
X16928571Y13168753D01*
X16928571Y13168753D02*
X17404761Y13073515D01*
X16595237Y13406848D02*
X16357142Y12740181D01*
X16357142Y12740181D02*
X16119047Y13406848D01*
X14785713Y13740181D02*
X14690475Y13740181D01*
X14690475Y13740181D02*
X14595237Y13692562D01*
X14595237Y13692562D02*
X14547618Y13644943D01*
X14547618Y13644943D02*
X14499999Y13549705D01*
X14499999Y13549705D02*
X14452380Y13359229D01*
X14452380Y13359229D02*
X14452380Y13121134D01*
X14452380Y13121134D02*
X14499999Y12930658D01*
X14499999Y12930658D02*
X14547618Y12835420D01*
X14547618Y12835420D02*
X14595237Y12787800D01*
X14595237Y12787800D02*
X14690475Y12740181D01*
X14690475Y12740181D02*
X14785713Y12740181D01*
X14785713Y12740181D02*
X14880951Y12787800D01*
X14880951Y12787800D02*
X14928570Y12835420D01*
X14928570Y12835420D02*
X14976189Y12930658D01*
X14976189Y12930658D02*
X15023808Y13121134D01*
X15023808Y13121134D02*
X15023808Y13359229D01*
X15023808Y13359229D02*
X14976189Y13549705D01*
X14976189Y13549705D02*
X14928570Y13644943D01*
X14928570Y13644943D02*
X14880951Y13692562D01*
X14880951Y13692562D02*
X14785713Y13740181D01*
X14023808Y12835420D02*
X13976189Y12787800D01*
X13976189Y12787800D02*
X14023808Y12740181D01*
X14023808Y12740181D02*
X14071427Y12787800D01*
X14071427Y12787800D02*
X14023808Y12835420D01*
X14023808Y12835420D02*
X14023808Y12740181D01*
X13357142Y13740181D02*
X13261904Y13740181D01*
X13261904Y13740181D02*
X13166666Y13692562D01*
X13166666Y13692562D02*
X13119047Y13644943D01*
X13119047Y13644943D02*
X13071428Y13549705D01*
X13071428Y13549705D02*
X13023809Y13359229D01*
X13023809Y13359229D02*
X13023809Y13121134D01*
X13023809Y13121134D02*
X13071428Y12930658D01*
X13071428Y12930658D02*
X13119047Y12835420D01*
X13119047Y12835420D02*
X13166666Y12787800D01*
X13166666Y12787800D02*
X13261904Y12740181D01*
X13261904Y12740181D02*
X13357142Y12740181D01*
X13357142Y12740181D02*
X13452380Y12787800D01*
X13452380Y12787800D02*
X13499999Y12835420D01*
X13499999Y12835420D02*
X13547618Y12930658D01*
X13547618Y12930658D02*
X13595237Y13121134D01*
X13595237Y13121134D02*
X13595237Y13359229D01*
X13595237Y13359229D02*
X13547618Y13549705D01*
X13547618Y13549705D02*
X13499999Y13644943D01*
X13499999Y13644943D02*
X13452380Y13692562D01*
X13452380Y13692562D02*
X13357142Y13740181D01*
X12595237Y12835420D02*
X12547618Y12787800D01*
X12547618Y12787800D02*
X12595237Y12740181D01*
X12595237Y12740181D02*
X12642856Y12787800D01*
X12642856Y12787800D02*
X12595237Y12835420D01*
X12595237Y12835420D02*
X12595237Y12740181D01*
X12166666Y13644943D02*
X12119047Y13692562D01*
X12119047Y13692562D02*
X12023809Y13740181D01*
X12023809Y13740181D02*
X11785714Y13740181D01*
X11785714Y13740181D02*
X11690476Y13692562D01*
X11690476Y13692562D02*
X11642857Y13644943D01*
X11642857Y13644943D02*
X11595238Y13549705D01*
X11595238Y13549705D02*
X11595238Y13454467D01*
X11595238Y13454467D02*
X11642857Y13311610D01*
X11642857Y13311610D02*
X12214285Y12740181D01*
X12214285Y12740181D02*
X11595238Y12740181D01*
X15713333Y4247705D02*
X15546666Y3447705D01*
X15546666Y3447705D02*
X15413333Y4019134D01*
X15413333Y4019134D02*
X15279999Y3447705D01*
X15279999Y3447705D02*
X15113333Y4247705D01*
X14879999Y3485800D02*
X14779999Y3447705D01*
X14779999Y3447705D02*
X14613333Y3447705D01*
X14613333Y3447705D02*
X14546666Y3485800D01*
X14546666Y3485800D02*
X14513333Y3523896D01*
X14513333Y3523896D02*
X14479999Y3600086D01*
X14479999Y3600086D02*
X14479999Y3676277D01*
X14479999Y3676277D02*
X14513333Y3752467D01*
X14513333Y3752467D02*
X14546666Y3790562D01*
X14546666Y3790562D02*
X14613333Y3828658D01*
X14613333Y3828658D02*
X14746666Y3866753D01*
X14746666Y3866753D02*
X14813333Y3904848D01*
X14813333Y3904848D02*
X14846666Y3942943D01*
X14846666Y3942943D02*
X14879999Y4019134D01*
X14879999Y4019134D02*
X14879999Y4095324D01*
X14879999Y4095324D02*
X14846666Y4171515D01*
X14846666Y4171515D02*
X14813333Y4209610D01*
X14813333Y4209610D02*
X14746666Y4247705D01*
X14746666Y4247705D02*
X14579999Y4247705D01*
X14579999Y4247705D02*
X14479999Y4209610D01*
X7993332Y4209610D02*
X8059999Y4247705D01*
X8059999Y4247705D02*
X8159999Y4247705D01*
X8159999Y4247705D02*
X8259999Y4209610D01*
X8259999Y4209610D02*
X8326666Y4133420D01*
X8326666Y4133420D02*
X8359999Y4057229D01*
X8359999Y4057229D02*
X8393332Y3904848D01*
X8393332Y3904848D02*
X8393332Y3790562D01*
X8393332Y3790562D02*
X8359999Y3638181D01*
X8359999Y3638181D02*
X8326666Y3561991D01*
X8326666Y3561991D02*
X8259999Y3485800D01*
X8259999Y3485800D02*
X8159999Y3447705D01*
X8159999Y3447705D02*
X8093332Y3447705D01*
X8093332Y3447705D02*
X7993332Y3485800D01*
X7993332Y3485800D02*
X7959999Y3523896D01*
X7959999Y3523896D02*
X7959999Y3790562D01*
X7959999Y3790562D02*
X8093332Y3790562D01*
X7659999Y3447705D02*
X7659999Y4247705D01*
X7659999Y4247705D02*
X7259999Y3447705D01*
X7259999Y3447705D02*
X7259999Y4247705D01*
X6926666Y3447705D02*
X6926666Y4247705D01*
X6926666Y4247705D02*
X6759999Y4247705D01*
X6759999Y4247705D02*
X6659999Y4209610D01*
X6659999Y4209610D02*
X6593333Y4133420D01*
X6593333Y4133420D02*
X6559999Y4057229D01*
X6559999Y4057229D02*
X6526666Y3904848D01*
X6526666Y3904848D02*
X6526666Y3790562D01*
X6526666Y3790562D02*
X6559999Y3638181D01*
X6559999Y3638181D02*
X6593333Y3561991D01*
X6593333Y3561991D02*
X6659999Y3485800D01*
X6659999Y3485800D02*
X6759999Y3447705D01*
X6759999Y3447705D02*
X6926666Y3447705D01*
G36*
X12542656Y8772063D02*
G01*
X12536209Y8733720D01*
X12528943Y8690704D01*
X12520989Y8643786D01*
X12512479Y8593735D01*
X12503546Y8541319D01*
X12494321Y8487309D01*
X12484935Y8432473D01*
X12475521Y8377581D01*
X12466211Y8323402D01*
X12457136Y8270705D01*
X12448428Y8220260D01*
X12440219Y8172836D01*
X12432640Y8129203D01*
X12425825Y8090129D01*
X12419903Y8056384D01*
X12415008Y8028738D01*
X12411271Y8007959D01*
X12408824Y7994816D01*
X12407798Y7990080D01*
X12407719Y7990089D01*
X12402139Y7991564D01*
X12388051Y7995460D01*
X12365864Y8001661D01*
X12335985Y8010052D01*
X12298821Y8020517D01*
X12254781Y8032941D01*
X12204271Y8047210D01*
X12147700Y8063206D01*
X12085476Y8080816D01*
X12018006Y8099923D01*
X11945697Y8120412D01*
X11868958Y8142169D01*
X11788196Y8165077D01*
X11703818Y8189021D01*
X11616234Y8213885D01*
X11525849Y8239556D01*
X11433072Y8265916D01*
X11421467Y8269214D01*
X11328966Y8295495D01*
X11238910Y8321072D01*
X11151705Y8345830D01*
X11067760Y8369653D01*
X10987481Y8392426D01*
X10911277Y8414034D01*
X10839555Y8434360D01*
X10772722Y8453291D01*
X10711186Y8470710D01*
X10655356Y8486502D01*
X10605637Y8500552D01*
X10562439Y8512744D01*
X10526168Y8522963D01*
X10497232Y8531093D01*
X10476039Y8537020D01*
X10462997Y8540627D01*
X10458512Y8541800D01*
X10458913Y8541017D01*
X10463095Y8533603D01*
X10471640Y8518675D01*
X10484327Y8496615D01*
X10500936Y8467805D01*
X10521245Y8432628D01*
X10545033Y8391464D01*
X10572079Y8344697D01*
X10602162Y8292708D01*
X10635061Y8235879D01*
X10670554Y8174593D01*
X10708421Y8109231D01*
X10748440Y8040175D01*
X10790391Y7967809D01*
X10834052Y7892513D01*
X10879202Y7814669D01*
X10925620Y7734661D01*
X10945636Y7700163D01*
X10991554Y7621004D01*
X11036117Y7544161D01*
X11079101Y7470015D01*
X11120286Y7398950D01*
X11159450Y7331350D01*
X11196371Y7267596D01*
X11230827Y7208074D01*
X11262598Y7153164D01*
X11291462Y7103251D01*
X11317196Y7058717D01*
X11339579Y7019946D01*
X11358390Y6987320D01*
X11373407Y6961223D01*
X11384409Y6942038D01*
X11391174Y6930147D01*
X11393479Y6925935D01*
X11392622Y6925315D01*
X11385064Y6921087D01*
X11370367Y6913254D01*
X11349343Y6902229D01*
X11322799Y6888426D01*
X11291546Y6872258D01*
X11256391Y6854137D01*
X11218146Y6834478D01*
X11177618Y6813693D01*
X11135617Y6792196D01*
X11092953Y6770400D01*
X11050434Y6748718D01*
X11008870Y6727563D01*
X10969071Y6707348D01*
X10931844Y6688488D01*
X10898001Y6671394D01*
X10868349Y6656481D01*
X10843698Y6644161D01*
X10824858Y6634848D01*
X10812637Y6628955D01*
X10807845Y6626894D01*
X10807839Y6626897D01*
X10805611Y6631232D01*
X10799667Y6643551D01*
X10790219Y6663397D01*
X10777483Y6690312D01*
X10761669Y6723840D01*
X10742993Y6763524D01*
X10721667Y6808908D01*
X10697905Y6859536D01*
X10671919Y6914949D01*
X10643923Y6974692D01*
X10614130Y7038309D01*
X10582753Y7105342D01*
X10550006Y7175334D01*
X10516102Y7247830D01*
X10481254Y7322372D01*
X10445675Y7398503D01*
X10409579Y7475768D01*
X10373179Y7553709D01*
X10336687Y7631870D01*
X10300318Y7709794D01*
X10264285Y7787025D01*
X10228800Y7863105D01*
X10194077Y7937578D01*
X10160330Y8009988D01*
X10127771Y8079878D01*
X10096613Y8146790D01*
X10067071Y8210270D01*
X10039356Y8269859D01*
X10013684Y8325101D01*
X9990265Y8375539D01*
X9969315Y8420717D01*
X9951046Y8460179D01*
X9935671Y8493467D01*
X9923404Y8520124D01*
X9914458Y8539695D01*
X9909046Y8551723D01*
X9908247Y8551876D01*
X9906646Y8549518D01*
X9904192Y8544209D01*
X9900783Y8535636D01*
X9896321Y8523485D01*
X9890703Y8507444D01*
X9883830Y8487200D01*
X9875602Y8462438D01*
X9865916Y8432845D01*
X9854674Y8398110D01*
X9841775Y8357917D01*
X9827117Y8311955D01*
X9810602Y8259909D01*
X9792127Y8201467D01*
X9771593Y8136316D01*
X9748899Y8064141D01*
X9723945Y7984631D01*
X9696630Y7897471D01*
X9666854Y7802348D01*
X9634515Y7698950D01*
X9599515Y7586963D01*
X9596768Y7578173D01*
X9567649Y7484980D01*
X9539137Y7393738D01*
X9511369Y7304880D01*
X9484480Y7218841D01*
X9458605Y7136054D01*
X9433882Y7056955D01*
X9410444Y6981977D01*
X9388429Y6911554D01*
X9367972Y6846120D01*
X9349208Y6786111D01*
X9332274Y6731959D01*
X9317304Y6684099D01*
X9304436Y6642966D01*
X9293804Y6608992D01*
X9285544Y6582614D01*
X9279792Y6564264D01*
X9276684Y6554377D01*
X9275546Y6550786D01*
X9268745Y6529878D01*
X9262927Y6512881D01*
X9258679Y6501462D01*
X9256587Y6497285D01*
X9256499Y6497303D01*
X9251143Y6499607D01*
X9238295Y6505501D01*
X9218793Y6514586D01*
X9193473Y6526463D01*
X9163172Y6540736D01*
X9128727Y6557005D01*
X9090975Y6574873D01*
X9050752Y6593941D01*
X9008896Y6613812D01*
X8966244Y6634087D01*
X8923633Y6654369D01*
X8881899Y6674259D01*
X8841879Y6693360D01*
X8804410Y6711272D01*
X8770330Y6727599D01*
X8740474Y6741942D01*
X8715681Y6753903D01*
X8696786Y6763084D01*
X8684628Y6769086D01*
X8680042Y6771513D01*
X8680304Y6772628D01*
X8683476Y6781113D01*
X8690066Y6797607D01*
X8699913Y6821726D01*
X8712856Y6853087D01*
X8728734Y6891306D01*
X8747386Y6936001D01*
X8768651Y6986789D01*
X8792367Y7043286D01*
X8818373Y7105110D01*
X8846510Y7171876D01*
X8876614Y7243203D01*
X8908526Y7318706D01*
X8942083Y7398003D01*
X8977126Y7480711D01*
X9013493Y7566446D01*
X9051023Y7654825D01*
X9089554Y7745466D01*
X9108070Y7789008D01*
X9146148Y7878608D01*
X9183153Y7965759D01*
X9218925Y8050078D01*
X9253302Y8131181D01*
X9286122Y8208687D01*
X9317224Y8282213D01*
X9346447Y8351374D01*
X9373629Y8415790D01*
X9398609Y8475076D01*
X9421226Y8528850D01*
X9441317Y8576729D01*
X9458723Y8618331D01*
X9473281Y8653272D01*
X9484830Y8681169D01*
X9493209Y8701640D01*
X9498256Y8714302D01*
X9499810Y8718772D01*
X9498732Y8719106D01*
X9489948Y8721306D01*
X9472671Y8725447D01*
X9447307Y8731435D01*
X9414262Y8739178D01*
X9373943Y8748580D01*
X9326754Y8759549D01*
X9273103Y8771990D01*
X9213395Y8785809D01*
X9148036Y8800913D01*
X9077432Y8817208D01*
X9001988Y8834600D01*
X8922112Y8852995D01*
X8838209Y8872299D01*
X8750685Y8892419D01*
X8659945Y8913260D01*
X8566397Y8934729D01*
X8470445Y8956731D01*
X8426069Y8966905D01*
X8331147Y8988686D01*
X8238805Y9009897D01*
X8149451Y9030444D01*
X8063490Y9050234D01*
X7981329Y9069172D01*
X7903375Y9087164D01*
X7897114Y9088611D01*
X9817982Y9088611D01*
X9898055Y8932086D01*
X9899660Y8928949D01*
X9917868Y8893535D01*
X9934958Y8860585D01*
X9950414Y8831074D01*
X9963720Y8805977D01*
X9974358Y8786269D01*
X9981813Y8772923D01*
X9985568Y8766916D01*
X9986176Y8766494D01*
X9991978Y8764123D01*
X10003865Y8760073D01*
X10022009Y8754295D01*
X10046580Y8746741D01*
X10077746Y8737360D01*
X10115678Y8726104D01*
X10160546Y8712924D01*
X10212520Y8697770D01*
X10271770Y8680592D01*
X10338466Y8661343D01*
X10412778Y8639973D01*
X10494875Y8616432D01*
X10584928Y8590671D01*
X10683107Y8562641D01*
X10789581Y8532294D01*
X10904521Y8499579D01*
X11028096Y8464447D01*
X11160477Y8426850D01*
X11235569Y8405533D01*
X11335689Y8377110D01*
X11433221Y8349421D01*
X11527789Y8322573D01*
X11619019Y8296671D01*
X11706535Y8271824D01*
X11789962Y8248136D01*
X11868925Y8225716D01*
X11943048Y8204669D01*
X12011956Y8185101D01*
X12075275Y8167120D01*
X12132628Y8150832D01*
X12183641Y8136344D01*
X12227939Y8123761D01*
X12265145Y8113191D01*
X12294886Y8104741D01*
X12316786Y8098516D01*
X12330469Y8094623D01*
X12335560Y8093169D01*
X12341095Y8093548D01*
X12345687Y8101537D01*
X12346710Y8106200D01*
X12349712Y8121467D01*
X12353872Y8143957D01*
X12359046Y8172808D01*
X12365090Y8207154D01*
X12371859Y8246133D01*
X12379209Y8288881D01*
X12386996Y8334534D01*
X12395075Y8382228D01*
X12403303Y8431101D01*
X12411534Y8480288D01*
X12419625Y8528925D01*
X12427431Y8576150D01*
X12434808Y8621098D01*
X12441611Y8662905D01*
X12447697Y8700709D01*
X12452921Y8733646D01*
X12457138Y8760851D01*
X12460205Y8781462D01*
X12461977Y8794615D01*
X12462309Y8799445D01*
X12462054Y8799578D01*
X12455374Y8801170D01*
X12440527Y8804006D01*
X12418407Y8807935D01*
X12389911Y8812807D01*
X12355934Y8818469D01*
X12317372Y8824770D01*
X12275120Y8831560D01*
X12230074Y8838686D01*
X12140994Y8852677D01*
X12038557Y8868783D01*
X11935460Y8885010D01*
X11832117Y8901292D01*
X11728936Y8917564D01*
X11626331Y8933761D01*
X11524711Y8949817D01*
X11424488Y8965666D01*
X11326072Y8981244D01*
X11229876Y8996486D01*
X11136310Y9011325D01*
X11045785Y9025696D01*
X10958713Y9039534D01*
X10875504Y9052774D01*
X10796569Y9065349D01*
X10722321Y9077196D01*
X10653169Y9088248D01*
X10589525Y9098440D01*
X10531800Y9107707D01*
X10480405Y9115983D01*
X10435751Y9123203D01*
X10398250Y9129301D01*
X10368312Y9134213D01*
X10346349Y9137872D01*
X10332771Y9140214D01*
X10327990Y9141172D01*
X10328752Y9143133D01*
X10333296Y9152762D01*
X10341759Y9170088D01*
X10353957Y9194745D01*
X10369704Y9226366D01*
X10388817Y9264582D01*
X10411108Y9309029D01*
X10436395Y9359337D01*
X10464492Y9415141D01*
X10495213Y9476074D01*
X10528374Y9541767D01*
X10563790Y9611856D01*
X10601276Y9685971D01*
X10640647Y9763747D01*
X10681718Y9844816D01*
X10724304Y9928812D01*
X10768220Y10015366D01*
X10813281Y10104114D01*
X10843047Y10162729D01*
X10887396Y10250121D01*
X10930484Y10335096D01*
X10972127Y10417287D01*
X11012139Y10496326D01*
X11050334Y10571844D01*
X11086527Y10643473D01*
X11120532Y10710844D01*
X11152165Y10773591D01*
X11181239Y10831344D01*
X11207569Y10883735D01*
X11230970Y10930396D01*
X11251256Y10970959D01*
X11268241Y11005056D01*
X11281742Y11032318D01*
X11291571Y11052378D01*
X11297543Y11064866D01*
X11299473Y11069416D01*
X11298713Y11070034D01*
X11291290Y11074250D01*
X11276604Y11081975D01*
X11255434Y11092825D01*
X11228562Y11106418D01*
X11196766Y11122370D01*
X11160828Y11140298D01*
X11121529Y11159819D01*
X11079647Y11180550D01*
X11035965Y11202107D01*
X10991261Y11224107D01*
X10946317Y11246167D01*
X10901913Y11267904D01*
X10858829Y11288934D01*
X10817846Y11308874D01*
X10779744Y11327342D01*
X10745303Y11343953D01*
X10715303Y11358324D01*
X10690526Y11370073D01*
X10671751Y11378816D01*
X10659758Y11384170D01*
X10655329Y11385751D01*
X10654189Y11382812D01*
X10650001Y11371541D01*
X10642864Y11352166D01*
X10632911Y11325051D01*
X10620275Y11290557D01*
X10605089Y11249048D01*
X10587483Y11200888D01*
X10567592Y11146438D01*
X10545548Y11086062D01*
X10521483Y11020124D01*
X10495529Y10948985D01*
X10467820Y10873010D01*
X10438487Y10792561D01*
X10407663Y10708001D01*
X10375480Y10619692D01*
X10342071Y10528000D01*
X10307569Y10433285D01*
X10272106Y10335911D01*
X10235815Y10236241D01*
X9817982Y9088611D01*
X7897114Y9088611D01*
X7830035Y9104115D01*
X7761715Y9119932D01*
X7698822Y9134519D01*
X7641763Y9147784D01*
X7590944Y9159630D01*
X7546771Y9169965D01*
X7509652Y9178694D01*
X7479993Y9185722D01*
X7458201Y9190955D01*
X7444682Y9194300D01*
X7439843Y9195661D01*
X7439807Y9195723D01*
X7440215Y9201294D01*
X7442179Y9215045D01*
X7445533Y9236067D01*
X7450110Y9263447D01*
X7455746Y9296275D01*
X7462273Y9333639D01*
X7469525Y9374629D01*
X7477336Y9418332D01*
X7485541Y9463838D01*
X7493972Y9510236D01*
X7502464Y9556615D01*
X7510851Y9602063D01*
X7518966Y9645669D01*
X7526643Y9686522D01*
X7533717Y9723712D01*
X7540020Y9756326D01*
X7545387Y9783454D01*
X7549652Y9804185D01*
X7552649Y9817607D01*
X7554210Y9822810D01*
X7556479Y9822267D01*
X7566967Y9819050D01*
X7585627Y9813076D01*
X7612072Y9804472D01*
X7645911Y9793371D01*
X7686754Y9779900D01*
X7734213Y9764190D01*
X7787898Y9746370D01*
X7847419Y9726571D01*
X7912386Y9704921D01*
X7982412Y9681551D01*
X8057105Y9656590D01*
X8136077Y9630168D01*
X8218937Y9602415D01*
X8305298Y9573460D01*
X8394768Y9543433D01*
X8486959Y9512464D01*
X8581482Y9480683D01*
X8647504Y9458475D01*
X8740409Y9427232D01*
X8830695Y9396877D01*
X8917973Y9367540D01*
X9001856Y9339352D01*
X9081955Y9312443D01*
X9157880Y9286943D01*
X9229245Y9262983D01*
X9295660Y9240693D01*
X9356737Y9220203D01*
X9412088Y9201644D01*
X9461323Y9185146D01*
X9504055Y9170839D01*
X9539896Y9158854D01*
X9568456Y9149320D01*
X9589347Y9142370D01*
X9602181Y9138132D01*
X9606569Y9136737D01*
X9605816Y9138161D01*
X9601038Y9146836D01*
X9592028Y9163074D01*
X9578987Y9186516D01*
X9562117Y9216801D01*
X9541617Y9253570D01*
X9517690Y9296461D01*
X9490536Y9345115D01*
X9460357Y9399172D01*
X9427353Y9458272D01*
X9391726Y9522054D01*
X9353677Y9590158D01*
X9313406Y9662225D01*
X9271116Y9737894D01*
X9227007Y9816805D01*
X9181280Y9898597D01*
X9134136Y9982912D01*
X9085777Y10069388D01*
X9057393Y10120154D01*
X9009744Y10205443D01*
X8963453Y10288382D01*
X8918720Y10368609D01*
X8875746Y10445762D01*
X8834730Y10519481D01*
X8795873Y10589405D01*
X8759373Y10655172D01*
X8725432Y10716420D01*
X8694249Y10772789D01*
X8666024Y10823918D01*
X8640957Y10869444D01*
X8619248Y10909008D01*
X8601096Y10942246D01*
X8586703Y10968799D01*
X8576268Y10988305D01*
X8569990Y11000403D01*
X8568070Y11004731D01*
X8568668Y11005135D01*
X8575740Y11009042D01*
X8590028Y11016602D01*
X8610717Y11027398D01*
X8636991Y11041013D01*
X8668033Y11057031D01*
X8703029Y11075035D01*
X8741161Y11094609D01*
X8781613Y11115335D01*
X8823570Y11136797D01*
X8866215Y11158579D01*
X8908732Y11180264D01*
X8950305Y11201435D01*
X8990118Y11221676D01*
X9027354Y11240569D01*
X9061199Y11257699D01*
X9090835Y11272649D01*
X9115447Y11285002D01*
X9134218Y11294341D01*
X9146332Y11300250D01*
X9150974Y11302312D01*
X9151421Y11301612D01*
X9155115Y11294076D01*
X9162353Y11278597D01*
X9172954Y11255577D01*
X9186734Y11225420D01*
X9203512Y11188530D01*
X9223105Y11145311D01*
X9245333Y11096165D01*
X9270012Y11041497D01*
X9296960Y10981709D01*
X9325996Y10917206D01*
X9356938Y10848390D01*
X9389603Y10775665D01*
X9423809Y10699436D01*
X9459375Y10620104D01*
X9496118Y10538074D01*
X9533856Y10453749D01*
X9549213Y10419421D01*
X9586574Y10335945D01*
X9622862Y10254911D01*
X9657895Y10176723D01*
X9691490Y10101787D01*
X9723467Y10030507D01*
X9753644Y9963287D01*
X9781837Y9900532D01*
X9807866Y9842646D01*
X9831548Y9790035D01*
X9852701Y9743101D01*
X9871144Y9702251D01*
X9886694Y9667889D01*
X9899170Y9640418D01*
X9908389Y9620245D01*
X9914170Y9607772D01*
X9916331Y9603405D01*
X9916356Y9603413D01*
X9918407Y9608123D01*
X9923484Y9621169D01*
X9931439Y9642153D01*
X9942127Y9670677D01*
X9955401Y9706342D01*
X9971115Y9748750D01*
X9989121Y9797503D01*
X10009275Y9852202D01*
X10031428Y9912449D01*
X10055435Y9977845D01*
X10081149Y10047993D01*
X10108424Y10122494D01*
X10137112Y10200948D01*
X10167069Y10282959D01*
X10198147Y10368128D01*
X10230199Y10456056D01*
X10263079Y10546345D01*
X10264960Y10551511D01*
X10297818Y10641756D01*
X10329842Y10729662D01*
X10360886Y10814827D01*
X10390802Y10896851D01*
X10419444Y10975332D01*
X10446664Y11049868D01*
X10472315Y11120059D01*
X10496251Y11185503D01*
X10518325Y11245799D01*
X10538390Y11300545D01*
X10556299Y11349340D01*
X10571905Y11391783D01*
X10585060Y11427472D01*
X10595619Y11456006D01*
X10603434Y11476985D01*
X10608358Y11490005D01*
X10610245Y11494667D01*
X10610743Y11494646D01*
X10617650Y11492009D01*
X10632168Y11485616D01*
X10653717Y11475745D01*
X10681714Y11462672D01*
X10715576Y11446674D01*
X10754723Y11428028D01*
X10798572Y11407011D01*
X10846541Y11383900D01*
X10898048Y11358971D01*
X10952511Y11332502D01*
X11009349Y11304770D01*
X11025725Y11296765D01*
X11082004Y11269261D01*
X11135757Y11243006D01*
X11186400Y11218282D01*
X11233347Y11195375D01*
X11276014Y11174571D01*
X11313816Y11156153D01*
X11346168Y11140407D01*
X11372487Y11127617D01*
X11392187Y11118070D01*
X11404683Y11112048D01*
X11409391Y11109838D01*
X11408900Y11108336D01*
X11404814Y11099398D01*
X11396793Y11082738D01*
X11385021Y11058724D01*
X11369684Y11027723D01*
X11350967Y10990105D01*
X11329054Y10946236D01*
X11304132Y10896486D01*
X11276385Y10841221D01*
X11245997Y10780810D01*
X11213154Y10715621D01*
X11178041Y10646022D01*
X11140844Y10572381D01*
X11101746Y10495065D01*
X11060933Y10414444D01*
X11018590Y10330885D01*
X10974902Y10244756D01*
X10930054Y10156424D01*
X10903662Y10104460D01*
X10859441Y10017359D01*
X10816467Y9932675D01*
X10774927Y9850775D01*
X10735007Y9772029D01*
X10696893Y9696804D01*
X10660771Y9625468D01*
X10626827Y9558390D01*
X10595247Y9495938D01*
X10566217Y9438480D01*
X10539924Y9386385D01*
X10516553Y9340021D01*
X10496291Y9299755D01*
X10479323Y9265957D01*
X10465837Y9238995D01*
X10456017Y9219236D01*
X10450050Y9207049D01*
X10448122Y9202802D01*
X10449702Y9202479D01*
X10459471Y9200809D01*
X10477805Y9197790D01*
X10504297Y9193486D01*
X10538538Y9187962D01*
X10580119Y9181284D01*
X10628633Y9173517D01*
X10683671Y9164725D01*
X10744824Y9154973D01*
X10811685Y9144328D01*
X10883845Y9132852D01*
X10960895Y9120613D01*
X11042428Y9107675D01*
X11128035Y9094102D01*
X11217308Y9079960D01*
X11309838Y9065314D01*
X11405217Y9050229D01*
X11503037Y9034770D01*
X11559213Y9025893D01*
X11655689Y9010641D01*
X11749492Y8995800D01*
X11840214Y8981437D01*
X11927444Y8967615D01*
X12010777Y8954401D01*
X12089802Y8941858D01*
X12164112Y8930053D01*
X12233298Y8919049D01*
X12296953Y8908913D01*
X12354667Y8899708D01*
X12406032Y8891501D01*
X12450640Y8884356D01*
X12488082Y8878338D01*
X12517951Y8873511D01*
X12539837Y8869942D01*
X12553333Y8867695D01*
X12558030Y8866835D01*
X12557616Y8863331D01*
X12555764Y8851369D01*
X12552565Y8831657D01*
X12548152Y8804965D01*
X12547230Y8799445D01*
X12542656Y8772063D01*
G37*
M02*
