G04 #@! TF.GenerationSoftware,KiCad,Pcbnew,(5.99.0-11065-g2a3d8e22b6)*
G04 #@! TF.CreationDate,2021-07-08T09:19:06+01:00*
G04 #@! TF.ProjectId,NB3_ear,4e42335f-6561-4722-9e6b-696361645f70,0.0.1*
G04 #@! TF.SameCoordinates,PX868b5c0PY6ee3738*
G04 #@! TF.FileFunction,Legend,Top*
G04 #@! TF.FilePolarity,Positive*
%FSLAX46Y46*%
G04 Gerber Fmt 4.6, Leading zero omitted, Abs format (unit mm)*
G04 Created by KiCad (PCBNEW (5.99.0-11065-g2a3d8e22b6)) date 2021-07-08 09:19:06*
%MOMM*%
%LPD*%
G01*
G04 APERTURE LIST*
%ADD10C,0.127000*%
%ADD11C,0.200000*%
%ADD12C,0.120000*%
G04 APERTURE END LIST*
D10*
X8675000Y17111000D02*
X8675000Y13611000D01*
X11325000Y17111000D02*
X8675000Y17111000D01*
X8675000Y13611000D02*
X11325000Y13611000D01*
X11325000Y13611000D02*
X11325000Y17111000D01*
D11*
X11837500Y14011000D02*
G75*
G03*
X11837500Y14011000I-100000J0D01*
G01*
D12*
X7820000Y13627836D02*
X7820000Y13412164D01*
X7100000Y13627836D02*
X7100000Y13412164D01*
X10380000Y8376359D02*
X10380000Y8683641D01*
X9620000Y8376359D02*
X9620000Y8683641D01*
X18950000Y3925000D02*
X18950000Y9125000D01*
X18380000Y9125000D02*
X18950000Y9125000D01*
X13300000Y3925000D02*
X14320000Y3925000D01*
X11210000Y3925000D02*
X11210000Y9125000D01*
X15840000Y9125000D02*
X16860000Y9125000D01*
X15840000Y3925000D02*
X16860000Y3925000D01*
X11210000Y3925000D02*
X11780000Y3925000D01*
X11780000Y2485000D02*
X11780000Y3925000D01*
X13300000Y9125000D02*
X14320000Y9125000D01*
X11210000Y9125000D02*
X11780000Y9125000D01*
X18380000Y3925000D02*
X18950000Y3925000D01*
X1050000Y3900000D02*
X1050000Y9100000D01*
X8220000Y9100000D02*
X8790000Y9100000D01*
X3140000Y9100000D02*
X4160000Y9100000D01*
X1050000Y9100000D02*
X1620000Y9100000D01*
X1620000Y2460000D02*
X1620000Y3900000D01*
X3140000Y3900000D02*
X4160000Y3900000D01*
X8790000Y3900000D02*
X8790000Y9100000D01*
X5680000Y9100000D02*
X6700000Y9100000D01*
X5680000Y3900000D02*
X6700000Y3900000D01*
X1050000Y3900000D02*
X1620000Y3900000D01*
X8220000Y3900000D02*
X8790000Y3900000D01*
M02*
