G04 #@! TF.GenerationSoftware,KiCad,Pcbnew,7.0.4*
G04 #@! TF.CreationDate,2023-08-12T11:29:38+02:00*
G04 #@! TF.ProjectId,NB3_ear,4e42335f-6561-4722-9e6b-696361645f70,0.0.1*
G04 #@! TF.SameCoordinates,PX868b5c0PY6ee3738*
G04 #@! TF.FileFunction,Copper,L1,Top*
G04 #@! TF.FilePolarity,Positive*
%FSLAX46Y46*%
G04 Gerber Fmt 4.6, Leading zero omitted, Abs format (unit mm)*
G04 Created by KiCad (PCBNEW 7.0.4) date 2023-08-12 11:29:38*
%MOMM*%
%LPD*%
G01*
G04 APERTURE LIST*
G04 Aperture macros list*
%AMRoundRect*
0 Rectangle with rounded corners*
0 $1 Rounding radius*
0 $2 $3 $4 $5 $6 $7 $8 $9 X,Y pos of 4 corners*
0 Add a 4 corners polygon primitive as box body*
4,1,4,$2,$3,$4,$5,$6,$7,$8,$9,$2,$3,0*
0 Add four circle primitives for the rounded corners*
1,1,$1+$1,$2,$3*
1,1,$1+$1,$4,$5*
1,1,$1+$1,$6,$7*
1,1,$1+$1,$8,$9*
0 Add four rect primitives between the rounded corners*
20,1,$1+$1,$2,$3,$4,$5,0*
20,1,$1+$1,$4,$5,$6,$7,0*
20,1,$1+$1,$6,$7,$8,$9,0*
20,1,$1+$1,$8,$9,$2,$3,0*%
G04 Aperture macros list end*
G04 #@! TA.AperFunction,EtchedComponent*
%ADD10C,0.001000*%
G04 #@! TD*
G04 #@! TA.AperFunction,SMDPad,CuDef*
%ADD11R,0.600000X0.522000*%
G04 #@! TD*
G04 #@! TA.AperFunction,SMDPad,CuDef*
%ADD12RoundRect,0.140000X-0.170000X0.140000X-0.170000X-0.140000X0.170000X-0.140000X0.170000X0.140000X0*%
G04 #@! TD*
G04 #@! TA.AperFunction,SMDPad,CuDef*
%ADD13RoundRect,0.135000X0.185000X-0.135000X0.185000X0.135000X-0.185000X0.135000X-0.185000X-0.135000X0*%
G04 #@! TD*
G04 #@! TA.AperFunction,SMDPad,CuDef*
%ADD14R,1.000000X3.150000*%
G04 #@! TD*
G04 #@! TA.AperFunction,ViaPad*
%ADD15C,0.800000*%
G04 #@! TD*
G04 #@! TA.AperFunction,Conductor*
%ADD16C,0.250000*%
G04 #@! TD*
G04 APERTURE END LIST*
D10*
X10051869Y16889904D02*
X10093623Y16886618D01*
X10135148Y16881151D01*
X10176329Y16873518D01*
X10217055Y16863741D01*
X10257214Y16851845D01*
X10296694Y16837864D01*
X10335389Y16821836D01*
X10373192Y16803805D01*
X10410000Y16783820D01*
X10445711Y16761936D01*
X10480228Y16738214D01*
X10513456Y16712717D01*
X10545304Y16685516D01*
X10575685Y16656685D01*
X10604516Y16626304D01*
X10631717Y16594456D01*
X10657214Y16561228D01*
X10680936Y16526711D01*
X10702820Y16491000D01*
X10722805Y16454192D01*
X10740836Y16416389D01*
X10756864Y16377694D01*
X10770845Y16338214D01*
X10782741Y16298055D01*
X10792518Y16257329D01*
X10800151Y16216148D01*
X10805618Y16174623D01*
X10808904Y16132869D01*
X10810000Y16091000D01*
X10810000Y16061000D01*
X10808904Y16019131D01*
X10805618Y15977377D01*
X10800151Y15935852D01*
X10792518Y15894671D01*
X10782741Y15853945D01*
X10770845Y15813786D01*
X10756864Y15774306D01*
X10740836Y15735611D01*
X10722805Y15697808D01*
X10702820Y15661000D01*
X10680936Y15625289D01*
X10657214Y15590772D01*
X10631717Y15557544D01*
X10604516Y15525696D01*
X10575685Y15495315D01*
X10545304Y15466484D01*
X10513456Y15439283D01*
X10480228Y15413786D01*
X10445711Y15390064D01*
X10410000Y15368180D01*
X10373192Y15348195D01*
X10335389Y15330164D01*
X10296694Y15314136D01*
X10257214Y15300155D01*
X10217055Y15288259D01*
X10176329Y15278482D01*
X10135148Y15270849D01*
X10093623Y15265382D01*
X10051869Y15262096D01*
X10010000Y15261000D01*
X10010000Y15561000D01*
X10036168Y15561685D01*
X10062264Y15563739D01*
X10088217Y15567156D01*
X10113956Y15571926D01*
X10139410Y15578037D01*
X10164508Y15585472D01*
X10189184Y15594210D01*
X10213368Y15604227D01*
X10236995Y15615497D01*
X10260000Y15627987D01*
X10282320Y15641665D01*
X10303893Y15656492D01*
X10324660Y15672427D01*
X10344565Y15689428D01*
X10363553Y15707447D01*
X10381572Y15726435D01*
X10398573Y15746340D01*
X10414508Y15767107D01*
X10429335Y15788680D01*
X10443013Y15811000D01*
X10455503Y15834005D01*
X10466773Y15857632D01*
X10476790Y15881816D01*
X10485528Y15906492D01*
X10492963Y15931590D01*
X10499074Y15957044D01*
X10503844Y15982783D01*
X10507261Y16008736D01*
X10509315Y16034832D01*
X10510000Y16061000D01*
X10510000Y16081000D01*
X10509301Y16107691D01*
X10507206Y16134310D01*
X10503721Y16160782D01*
X10498855Y16187035D01*
X10492622Y16212998D01*
X10485039Y16238599D01*
X10476126Y16263768D01*
X10465908Y16288436D01*
X10454413Y16312535D01*
X10441673Y16336000D01*
X10427722Y16358766D01*
X10412599Y16380770D01*
X10396344Y16401953D01*
X10379004Y16422257D01*
X10360624Y16441624D01*
X10341257Y16460004D01*
X10320953Y16477344D01*
X10299770Y16493599D01*
X10277766Y16508722D01*
X10255000Y16522673D01*
X10231535Y16535413D01*
X10207436Y16546908D01*
X10182768Y16557126D01*
X10157599Y16566039D01*
X10131998Y16573622D01*
X10106035Y16579855D01*
X10079782Y16584721D01*
X10053310Y16588206D01*
X10026691Y16590301D01*
X10000000Y16591000D01*
X9990000Y16591000D01*
X9963832Y16590315D01*
X9937736Y16588261D01*
X9911783Y16584844D01*
X9886044Y16580074D01*
X9860590Y16573963D01*
X9835492Y16566528D01*
X9810816Y16557790D01*
X9786632Y16547773D01*
X9763005Y16536503D01*
X9740000Y16524013D01*
X9717680Y16510335D01*
X9696107Y16495508D01*
X9675340Y16479573D01*
X9655435Y16462572D01*
X9636447Y16444553D01*
X9618428Y16425565D01*
X9601427Y16405660D01*
X9585492Y16384893D01*
X9570665Y16363320D01*
X9556987Y16341000D01*
X9544497Y16317995D01*
X9533227Y16294368D01*
X9523210Y16270184D01*
X9514472Y16245508D01*
X9507037Y16220410D01*
X9500926Y16194956D01*
X9496156Y16169217D01*
X9492739Y16143264D01*
X9490685Y16117168D01*
X9490000Y16091000D01*
X9490000Y16061000D01*
X9490685Y16034832D01*
X9492739Y16008736D01*
X9496156Y15982783D01*
X9500926Y15957044D01*
X9507037Y15931590D01*
X9514472Y15906492D01*
X9523210Y15881816D01*
X9533227Y15857632D01*
X9544497Y15834005D01*
X9556987Y15811000D01*
X9570665Y15788680D01*
X9585492Y15767107D01*
X9601427Y15746340D01*
X9618428Y15726435D01*
X9636447Y15707447D01*
X9655435Y15689428D01*
X9675340Y15672427D01*
X9696107Y15656492D01*
X9717680Y15641665D01*
X9740000Y15627987D01*
X9763005Y15615497D01*
X9786632Y15604227D01*
X9810816Y15594210D01*
X9835492Y15585472D01*
X9860590Y15578037D01*
X9886044Y15571926D01*
X9911783Y15567156D01*
X9937736Y15563739D01*
X9963832Y15561685D01*
X9990000Y15561000D01*
X9990000Y15261000D01*
X9980000Y15261000D01*
X9938655Y15262083D01*
X9897423Y15265328D01*
X9856417Y15270726D01*
X9815750Y15278263D01*
X9775533Y15287919D01*
X9735877Y15299665D01*
X9696889Y15313471D01*
X9658678Y15329299D01*
X9621348Y15347105D01*
X9585000Y15366840D01*
X9549735Y15388450D01*
X9515650Y15411877D01*
X9482837Y15437055D01*
X9451387Y15463916D01*
X9421386Y15492386D01*
X9392916Y15522387D01*
X9366055Y15553837D01*
X9340877Y15586650D01*
X9317450Y15620735D01*
X9295840Y15656000D01*
X9276105Y15692348D01*
X9258299Y15729678D01*
X9242471Y15767889D01*
X9228665Y15806877D01*
X9216919Y15846533D01*
X9207263Y15886750D01*
X9199726Y15927417D01*
X9194328Y15968423D01*
X9191083Y16009655D01*
X9190000Y16051000D01*
X9190000Y16081000D01*
X9191110Y16123392D01*
X9194437Y16165668D01*
X9199972Y16207712D01*
X9207700Y16249408D01*
X9217600Y16290643D01*
X9229644Y16331304D01*
X9243800Y16371278D01*
X9260028Y16410457D01*
X9278285Y16448732D01*
X9298519Y16486000D01*
X9320677Y16522158D01*
X9344696Y16557106D01*
X9370512Y16590750D01*
X9398053Y16622996D01*
X9427244Y16653756D01*
X9458004Y16682947D01*
X9490250Y16710488D01*
X9523894Y16736304D01*
X9558842Y16760323D01*
X9595000Y16782481D01*
X9632268Y16802715D01*
X9670543Y16820972D01*
X9709722Y16837200D01*
X9749696Y16851356D01*
X9790357Y16863400D01*
X9831592Y16873300D01*
X9873288Y16881028D01*
X9915332Y16886563D01*
X9957608Y16889890D01*
X10000000Y16891000D01*
X10010000Y16891000D01*
X10051869Y16889904D01*
G04 #@! TA.AperFunction,EtchedComponent*
G36*
X10051869Y16889904D02*
G01*
X10093623Y16886618D01*
X10135148Y16881151D01*
X10176329Y16873518D01*
X10217055Y16863741D01*
X10257214Y16851845D01*
X10296694Y16837864D01*
X10335389Y16821836D01*
X10373192Y16803805D01*
X10410000Y16783820D01*
X10445711Y16761936D01*
X10480228Y16738214D01*
X10513456Y16712717D01*
X10545304Y16685516D01*
X10575685Y16656685D01*
X10604516Y16626304D01*
X10631717Y16594456D01*
X10657214Y16561228D01*
X10680936Y16526711D01*
X10702820Y16491000D01*
X10722805Y16454192D01*
X10740836Y16416389D01*
X10756864Y16377694D01*
X10770845Y16338214D01*
X10782741Y16298055D01*
X10792518Y16257329D01*
X10800151Y16216148D01*
X10805618Y16174623D01*
X10808904Y16132869D01*
X10810000Y16091000D01*
X10810000Y16061000D01*
X10808904Y16019131D01*
X10805618Y15977377D01*
X10800151Y15935852D01*
X10792518Y15894671D01*
X10782741Y15853945D01*
X10770845Y15813786D01*
X10756864Y15774306D01*
X10740836Y15735611D01*
X10722805Y15697808D01*
X10702820Y15661000D01*
X10680936Y15625289D01*
X10657214Y15590772D01*
X10631717Y15557544D01*
X10604516Y15525696D01*
X10575685Y15495315D01*
X10545304Y15466484D01*
X10513456Y15439283D01*
X10480228Y15413786D01*
X10445711Y15390064D01*
X10410000Y15368180D01*
X10373192Y15348195D01*
X10335389Y15330164D01*
X10296694Y15314136D01*
X10257214Y15300155D01*
X10217055Y15288259D01*
X10176329Y15278482D01*
X10135148Y15270849D01*
X10093623Y15265382D01*
X10051869Y15262096D01*
X10010000Y15261000D01*
X10010000Y15561000D01*
X10036168Y15561685D01*
X10062264Y15563739D01*
X10088217Y15567156D01*
X10113956Y15571926D01*
X10139410Y15578037D01*
X10164508Y15585472D01*
X10189184Y15594210D01*
X10213368Y15604227D01*
X10236995Y15615497D01*
X10260000Y15627987D01*
X10282320Y15641665D01*
X10303893Y15656492D01*
X10324660Y15672427D01*
X10344565Y15689428D01*
X10363553Y15707447D01*
X10381572Y15726435D01*
X10398573Y15746340D01*
X10414508Y15767107D01*
X10429335Y15788680D01*
X10443013Y15811000D01*
X10455503Y15834005D01*
X10466773Y15857632D01*
X10476790Y15881816D01*
X10485528Y15906492D01*
X10492963Y15931590D01*
X10499074Y15957044D01*
X10503844Y15982783D01*
X10507261Y16008736D01*
X10509315Y16034832D01*
X10510000Y16061000D01*
X10510000Y16081000D01*
X10509301Y16107691D01*
X10507206Y16134310D01*
X10503721Y16160782D01*
X10498855Y16187035D01*
X10492622Y16212998D01*
X10485039Y16238599D01*
X10476126Y16263768D01*
X10465908Y16288436D01*
X10454413Y16312535D01*
X10441673Y16336000D01*
X10427722Y16358766D01*
X10412599Y16380770D01*
X10396344Y16401953D01*
X10379004Y16422257D01*
X10360624Y16441624D01*
X10341257Y16460004D01*
X10320953Y16477344D01*
X10299770Y16493599D01*
X10277766Y16508722D01*
X10255000Y16522673D01*
X10231535Y16535413D01*
X10207436Y16546908D01*
X10182768Y16557126D01*
X10157599Y16566039D01*
X10131998Y16573622D01*
X10106035Y16579855D01*
X10079782Y16584721D01*
X10053310Y16588206D01*
X10026691Y16590301D01*
X10000000Y16591000D01*
X9990000Y16591000D01*
X9963832Y16590315D01*
X9937736Y16588261D01*
X9911783Y16584844D01*
X9886044Y16580074D01*
X9860590Y16573963D01*
X9835492Y16566528D01*
X9810816Y16557790D01*
X9786632Y16547773D01*
X9763005Y16536503D01*
X9740000Y16524013D01*
X9717680Y16510335D01*
X9696107Y16495508D01*
X9675340Y16479573D01*
X9655435Y16462572D01*
X9636447Y16444553D01*
X9618428Y16425565D01*
X9601427Y16405660D01*
X9585492Y16384893D01*
X9570665Y16363320D01*
X9556987Y16341000D01*
X9544497Y16317995D01*
X9533227Y16294368D01*
X9523210Y16270184D01*
X9514472Y16245508D01*
X9507037Y16220410D01*
X9500926Y16194956D01*
X9496156Y16169217D01*
X9492739Y16143264D01*
X9490685Y16117168D01*
X9490000Y16091000D01*
X9490000Y16061000D01*
X9490685Y16034832D01*
X9492739Y16008736D01*
X9496156Y15982783D01*
X9500926Y15957044D01*
X9507037Y15931590D01*
X9514472Y15906492D01*
X9523210Y15881816D01*
X9533227Y15857632D01*
X9544497Y15834005D01*
X9556987Y15811000D01*
X9570665Y15788680D01*
X9585492Y15767107D01*
X9601427Y15746340D01*
X9618428Y15726435D01*
X9636447Y15707447D01*
X9655435Y15689428D01*
X9675340Y15672427D01*
X9696107Y15656492D01*
X9717680Y15641665D01*
X9740000Y15627987D01*
X9763005Y15615497D01*
X9786632Y15604227D01*
X9810816Y15594210D01*
X9835492Y15585472D01*
X9860590Y15578037D01*
X9886044Y15571926D01*
X9911783Y15567156D01*
X9937736Y15563739D01*
X9963832Y15561685D01*
X9990000Y15561000D01*
X9990000Y15261000D01*
X9980000Y15261000D01*
X9938655Y15262083D01*
X9897423Y15265328D01*
X9856417Y15270726D01*
X9815750Y15278263D01*
X9775533Y15287919D01*
X9735877Y15299665D01*
X9696889Y15313471D01*
X9658678Y15329299D01*
X9621348Y15347105D01*
X9585000Y15366840D01*
X9549735Y15388450D01*
X9515650Y15411877D01*
X9482837Y15437055D01*
X9451387Y15463916D01*
X9421386Y15492386D01*
X9392916Y15522387D01*
X9366055Y15553837D01*
X9340877Y15586650D01*
X9317450Y15620735D01*
X9295840Y15656000D01*
X9276105Y15692348D01*
X9258299Y15729678D01*
X9242471Y15767889D01*
X9228665Y15806877D01*
X9216919Y15846533D01*
X9207263Y15886750D01*
X9199726Y15927417D01*
X9194328Y15968423D01*
X9191083Y16009655D01*
X9190000Y16051000D01*
X9190000Y16081000D01*
X9191110Y16123392D01*
X9194437Y16165668D01*
X9199972Y16207712D01*
X9207700Y16249408D01*
X9217600Y16290643D01*
X9229644Y16331304D01*
X9243800Y16371278D01*
X9260028Y16410457D01*
X9278285Y16448732D01*
X9298519Y16486000D01*
X9320677Y16522158D01*
X9344696Y16557106D01*
X9370512Y16590750D01*
X9398053Y16622996D01*
X9427244Y16653756D01*
X9458004Y16682947D01*
X9490250Y16710488D01*
X9523894Y16736304D01*
X9558842Y16760323D01*
X9595000Y16782481D01*
X9632268Y16802715D01*
X9670543Y16820972D01*
X9709722Y16837200D01*
X9749696Y16851356D01*
X9790357Y16863400D01*
X9831592Y16873300D01*
X9873288Y16881028D01*
X9915332Y16886563D01*
X9957608Y16889890D01*
X10000000Y16891000D01*
X10010000Y16891000D01*
X10051869Y16889904D01*
G37*
G04 #@! TD.AperFunction*
D11*
X10900000Y14000000D03*
X10900000Y14822000D03*
X9100000Y14822000D03*
X9100000Y14000000D03*
X10000000Y14000000D03*
D12*
X7460000Y14000000D03*
X7460000Y13040000D03*
D13*
X10000000Y8020000D03*
X10000000Y9040000D03*
D14*
X12540000Y4000000D03*
X12540000Y9050000D03*
X15080000Y4000000D03*
X15080000Y9050000D03*
X17620000Y4000000D03*
X17620000Y9050000D03*
X2380000Y3975000D03*
X2380000Y9025000D03*
X4920000Y3975000D03*
X4920000Y9025000D03*
X7460000Y3975000D03*
X7460000Y9025000D03*
D15*
X16000000Y16500000D03*
X2000000Y1500000D03*
X10000000Y4500000D03*
X16000000Y1500000D03*
X7460000Y11580000D03*
X12540000Y11580000D03*
X10000000Y6500000D03*
X18000000Y16500000D03*
X2000000Y16500000D03*
X18000000Y1500000D03*
X4000000Y1500000D03*
X4000000Y16500000D03*
X3650000Y11580000D03*
X6190000Y11580000D03*
X7500000Y16750000D03*
X12494000Y16744000D03*
D16*
X4920000Y12850000D02*
X4920000Y9025000D01*
X7460000Y14000000D02*
X6070000Y14000000D01*
X7460000Y14000000D02*
X9100000Y14000000D01*
X6070000Y14000000D02*
X4920000Y12850000D01*
X4920000Y3975000D02*
X4920000Y9025000D01*
X9238000Y9802000D02*
X9238000Y12088000D01*
X7460000Y9025000D02*
X8237000Y9025000D01*
X8286000Y13040000D02*
X7460000Y13040000D01*
X8461000Y9025000D02*
X9238000Y9802000D01*
X10015500Y16744000D02*
X7506000Y16744000D01*
X10015500Y16744000D02*
X12494000Y16744000D01*
X7460000Y3975000D02*
X7460000Y9025000D01*
X7460000Y13040000D02*
X7460000Y11580000D01*
X12494000Y16744000D02*
X12500000Y16750000D01*
X7506000Y16744000D02*
X7500000Y16750000D01*
X9238000Y12088000D02*
X8286000Y13040000D01*
X7460000Y11580000D02*
X6190000Y11580000D01*
X7460000Y9025000D02*
X8461000Y9025000D01*
X4352000Y14822000D02*
X2380000Y12850000D01*
X2380000Y12850000D02*
X2380000Y9025000D01*
X9100000Y14822000D02*
X4352000Y14822000D01*
X2380000Y3975000D02*
X2380000Y9025000D01*
X12540000Y4000000D02*
X12540000Y9050000D01*
X10000000Y9040000D02*
X12530000Y9040000D01*
X12530000Y9040000D02*
X12540000Y9050000D01*
X10000000Y14000000D02*
X10000000Y9040000D01*
X15147000Y12850000D02*
X15147000Y9025000D01*
X15080000Y4000000D02*
X15080000Y9050000D01*
X13997000Y14000000D02*
X15147000Y12850000D01*
X10900000Y14000000D02*
X13997000Y14000000D01*
X17620000Y4000000D02*
X17620000Y9050000D01*
X15648000Y14822000D02*
X10900000Y14822000D01*
X17620000Y9050000D02*
X17620000Y12850000D01*
X17620000Y12850000D02*
X15648000Y14822000D01*
G04 #@! TA.AperFunction,Conductor*
G36*
X9542549Y17251998D02*
G01*
X9589042Y17198342D01*
X9599146Y17128068D01*
X9569652Y17063488D01*
X9534542Y17035265D01*
X9519728Y17027223D01*
X9516796Y17025729D01*
X9501884Y17018616D01*
X9496088Y17015116D01*
X9491028Y17012368D01*
X9484928Y17009409D01*
X9470873Y17000798D01*
X9468026Y16999154D01*
X9453513Y16991273D01*
X9447886Y16987460D01*
X9442979Y16984453D01*
X9437050Y16981183D01*
X9423445Y16971833D01*
X9420685Y16970041D01*
X9406615Y16961418D01*
X9401203Y16957322D01*
X9396458Y16954062D01*
X9390707Y16950485D01*
X9377598Y16940427D01*
X9374960Y16938511D01*
X9361355Y16929159D01*
X9361353Y16929158D01*
X9361344Y16929151D01*
X9356177Y16924796D01*
X9351605Y16921287D01*
X9346030Y16917401D01*
X9333489Y16906690D01*
X9330931Y16904618D01*
X9317832Y16894567D01*
X9312883Y16889932D01*
X9308506Y16886194D01*
X9303153Y16882029D01*
X9291181Y16870668D01*
X9288732Y16868463D01*
X9276195Y16857756D01*
X9271496Y16852868D01*
X9267316Y16848902D01*
X9262196Y16844471D01*
X9250833Y16832497D01*
X9248506Y16830170D01*
X9236531Y16818806D01*
X9232105Y16813691D01*
X9228134Y16809506D01*
X9223244Y16804805D01*
X9212535Y16792266D01*
X9210335Y16789823D01*
X9198965Y16777839D01*
X9194806Y16772493D01*
X9191067Y16768114D01*
X9186431Y16763164D01*
X9176384Y16750072D01*
X9174312Y16747513D01*
X9163599Y16734970D01*
X9159721Y16729406D01*
X9156212Y16724832D01*
X9151841Y16719646D01*
X9142502Y16706059D01*
X9140569Y16703398D01*
X9130515Y16690295D01*
X9126934Y16684535D01*
X9123669Y16679784D01*
X9119581Y16674383D01*
X9110957Y16660313D01*
X9109167Y16657557D01*
X9099820Y16643955D01*
X9096553Y16638031D01*
X9093541Y16633114D01*
X9089726Y16627486D01*
X9081848Y16612977D01*
X9080203Y16610128D01*
X9071587Y16596067D01*
X9068624Y16589958D01*
X9065876Y16584896D01*
X9062381Y16579108D01*
X9055271Y16564203D01*
X9053776Y16561270D01*
X9045904Y16546771D01*
X9043280Y16540550D01*
X9040799Y16535348D01*
X9037594Y16529351D01*
X9031276Y16514100D01*
X9029938Y16511095D01*
X9022840Y16496213D01*
X9020532Y16489826D01*
X9018324Y16484497D01*
X9015449Y16478367D01*
X9009942Y16462818D01*
X9008763Y16459747D01*
X9002445Y16444491D01*
X9000479Y16438011D01*
X8998554Y16432574D01*
X8996000Y16426293D01*
X8991315Y16410480D01*
X8990298Y16407350D01*
X8984789Y16391793D01*
X8983160Y16385198D01*
X8981523Y16379671D01*
X8979305Y16373275D01*
X8975453Y16357232D01*
X8974601Y16354051D01*
X8969913Y16338223D01*
X8968633Y16331564D01*
X8967288Y16325961D01*
X8965408Y16319460D01*
X8962399Y16303230D01*
X8961715Y16300010D01*
X8957862Y16283961D01*
X8956933Y16277244D01*
X8955883Y16271579D01*
X8954345Y16264982D01*
X8952192Y16248628D01*
X8951677Y16245374D01*
X8948669Y16229148D01*
X8948091Y16222373D01*
X8947338Y16216655D01*
X8946150Y16210005D01*
X8944855Y16193554D01*
X8944511Y16190280D01*
X8942357Y16173917D01*
X8942136Y16167155D01*
X8941684Y16161409D01*
X8940843Y16154676D01*
X8940411Y16138187D01*
X8940238Y16134898D01*
X8938944Y16118445D01*
X8939088Y16111096D01*
X8939000Y16108835D01*
X8939000Y16085126D01*
X8938978Y16083469D01*
X8938733Y16074150D01*
X8938594Y16071308D01*
X8938438Y16069141D01*
X8938478Y16067640D01*
X8938478Y16064357D01*
X8938438Y16062858D01*
X8938592Y16060737D01*
X8938734Y16057855D01*
X8938978Y16048541D01*
X8939000Y16046887D01*
X8939000Y16018862D01*
X8938916Y16014605D01*
X8940210Y15998161D01*
X8940382Y15994877D01*
X8940815Y15978375D01*
X8941592Y15972157D01*
X8942044Y15966413D01*
X8942248Y15960172D01*
X8944401Y15943824D01*
X8944745Y15940546D01*
X8946040Y15924091D01*
X8947136Y15917954D01*
X8947890Y15912233D01*
X8948423Y15905986D01*
X8951430Y15889753D01*
X8951945Y15886501D01*
X8954097Y15870156D01*
X8955518Y15864063D01*
X8956569Y15858392D01*
X8957427Y15852185D01*
X8961277Y15836152D01*
X8961963Y15832926D01*
X8964970Y15816701D01*
X8966712Y15810678D01*
X8968060Y15805063D01*
X8969234Y15798949D01*
X8973916Y15783139D01*
X8974768Y15779961D01*
X8978624Y15763902D01*
X8980669Y15758006D01*
X8982309Y15752471D01*
X8983809Y15746398D01*
X8989315Y15730846D01*
X8990331Y15727718D01*
X8995019Y15711893D01*
X8997371Y15706110D01*
X8999297Y15700671D01*
X9001118Y15694669D01*
X9007432Y15679427D01*
X9008607Y15676367D01*
X9011430Y15668394D01*
X9014116Y15660809D01*
X9016774Y15655141D01*
X9018980Y15649814D01*
X9021108Y15643930D01*
X9028216Y15629027D01*
X9029555Y15626019D01*
X9033406Y15616722D01*
X9035867Y15610783D01*
X9038809Y15605279D01*
X9041291Y15600075D01*
X9043722Y15594314D01*
X9051601Y15579801D01*
X9053095Y15576868D01*
X9060200Y15561974D01*
X9063430Y15556624D01*
X9066185Y15551550D01*
X9068909Y15545932D01*
X9077537Y15531854D01*
X9079185Y15528998D01*
X9084276Y15519622D01*
X9099202Y15450212D01*
X9074233Y15383751D01*
X9017296Y15341340D01*
X8973545Y15333500D01*
X8775322Y15333500D01*
X8702260Y15318967D01*
X8619398Y15263601D01*
X8612648Y15253498D01*
X8558171Y15207970D01*
X8507883Y15197500D01*
X4404011Y15197500D01*
X4378152Y15200182D01*
X4367729Y15202368D01*
X4343636Y15199364D01*
X4332563Y15197984D01*
X4324774Y15197500D01*
X4320877Y15197500D01*
X4299132Y15193872D01*
X4296559Y15193497D01*
X4243378Y15186867D01*
X4243375Y15186867D01*
X4243374Y15186866D01*
X4243373Y15186866D01*
X4235829Y15184620D01*
X4228390Y15182066D01*
X4181270Y15156567D01*
X4178959Y15155378D01*
X4130790Y15131828D01*
X4124388Y15127257D01*
X4118174Y15122420D01*
X4081860Y15082974D01*
X4080058Y15081096D01*
X2151255Y13152295D01*
X2131080Y13135910D01*
X2122166Y13130086D01*
X2122165Y13130085D01*
X2100403Y13102128D01*
X2095244Y13096284D01*
X2092480Y13093519D01*
X2092478Y13093518D01*
X2079661Y13075566D01*
X2078106Y13073481D01*
X2045191Y13031190D01*
X2041448Y13024274D01*
X2037988Y13017196D01*
X2022704Y12965859D01*
X2021911Y12963381D01*
X2004499Y12912661D01*
X2003209Y12904927D01*
X2002231Y12897085D01*
X2004446Y12843556D01*
X2004500Y12840952D01*
X2004500Y10976500D01*
X1984498Y10908379D01*
X1930842Y10861886D01*
X1878500Y10850500D01*
X1855322Y10850500D01*
X1782260Y10835967D01*
X1699399Y10780601D01*
X1644033Y10697740D01*
X1629500Y10624678D01*
X1629500Y7425323D01*
X1644033Y7352261D01*
X1644034Y7352260D01*
X1699399Y7269399D01*
X1782260Y7214034D01*
X1855326Y7199500D01*
X1878500Y7199500D01*
X1946621Y7179498D01*
X1993114Y7125842D01*
X2004500Y7073500D01*
X2004500Y5926500D01*
X1984498Y5858379D01*
X1930842Y5811886D01*
X1878500Y5800500D01*
X1855322Y5800500D01*
X1782260Y5785967D01*
X1699399Y5730601D01*
X1644033Y5647740D01*
X1629500Y5574678D01*
X1629500Y2375323D01*
X1644033Y2302261D01*
X1644034Y2302260D01*
X1699399Y2219399D01*
X1782260Y2164034D01*
X1855326Y2149500D01*
X2904674Y2149500D01*
X2977740Y2164034D01*
X3060601Y2219399D01*
X3115966Y2302260D01*
X3130500Y2375326D01*
X3130500Y5574674D01*
X3115966Y5647740D01*
X3060601Y5730601D01*
X2977740Y5785966D01*
X2977739Y5785967D01*
X2904677Y5800500D01*
X2904674Y5800500D01*
X2881500Y5800500D01*
X2813379Y5820502D01*
X2766886Y5874158D01*
X2755500Y5926500D01*
X2755500Y7073500D01*
X2775502Y7141621D01*
X2829158Y7188114D01*
X2881500Y7199500D01*
X2904674Y7199500D01*
X2977740Y7214034D01*
X3060601Y7269399D01*
X3115966Y7352260D01*
X3130500Y7425326D01*
X3130500Y10624674D01*
X3115966Y10697740D01*
X3060601Y10780601D01*
X2977740Y10835966D01*
X2977739Y10835967D01*
X2904677Y10850500D01*
X2904674Y10850500D01*
X2881500Y10850500D01*
X2813379Y10870502D01*
X2766886Y10924158D01*
X2755500Y10976500D01*
X2755500Y12642274D01*
X2775502Y12710395D01*
X2792405Y12731369D01*
X4470632Y14409595D01*
X4532944Y14443621D01*
X4559727Y14446500D01*
X5681272Y14446500D01*
X5749393Y14426498D01*
X5795886Y14372842D01*
X5805990Y14302568D01*
X5776496Y14237988D01*
X5770380Y14231419D01*
X4913678Y13374717D01*
X4691255Y13152294D01*
X4671080Y13135910D01*
X4662166Y13130086D01*
X4662165Y13130085D01*
X4640403Y13102128D01*
X4635244Y13096284D01*
X4632480Y13093519D01*
X4632478Y13093518D01*
X4619661Y13075566D01*
X4618106Y13073481D01*
X4585191Y13031190D01*
X4581448Y13024274D01*
X4577988Y13017196D01*
X4562704Y12965859D01*
X4561911Y12963381D01*
X4544499Y12912661D01*
X4543209Y12904927D01*
X4542231Y12897085D01*
X4544446Y12843556D01*
X4544500Y12840952D01*
X4544500Y10976500D01*
X4524498Y10908379D01*
X4470842Y10861886D01*
X4418500Y10850500D01*
X4395322Y10850500D01*
X4322260Y10835967D01*
X4239399Y10780601D01*
X4184033Y10697740D01*
X4169500Y10624678D01*
X4169500Y7425323D01*
X4184033Y7352261D01*
X4184034Y7352260D01*
X4239399Y7269399D01*
X4322260Y7214034D01*
X4395326Y7199500D01*
X4418500Y7199500D01*
X4486621Y7179498D01*
X4533114Y7125842D01*
X4544500Y7073500D01*
X4544500Y5926500D01*
X4524498Y5858379D01*
X4470842Y5811886D01*
X4418500Y5800500D01*
X4395322Y5800500D01*
X4322260Y5785967D01*
X4239399Y5730601D01*
X4184033Y5647740D01*
X4169500Y5574678D01*
X4169500Y2375323D01*
X4184033Y2302261D01*
X4184034Y2302260D01*
X4239399Y2219399D01*
X4322260Y2164034D01*
X4395326Y2149500D01*
X5444674Y2149500D01*
X5517740Y2164034D01*
X5600601Y2219399D01*
X5655966Y2302260D01*
X5670500Y2375326D01*
X5670500Y5574674D01*
X5655966Y5647740D01*
X5600601Y5730601D01*
X5517740Y5785966D01*
X5517739Y5785967D01*
X5444677Y5800500D01*
X5444674Y5800500D01*
X5421500Y5800500D01*
X5353379Y5820502D01*
X5306886Y5874158D01*
X5295500Y5926500D01*
X5295500Y7073500D01*
X5315502Y7141621D01*
X5369158Y7188114D01*
X5421500Y7199500D01*
X5444674Y7199500D01*
X5517740Y7214034D01*
X5600601Y7269399D01*
X5655966Y7352260D01*
X5670500Y7425326D01*
X5670500Y10624674D01*
X5655966Y10697740D01*
X5600601Y10780601D01*
X5600600Y10780602D01*
X5600598Y10780605D01*
X5596298Y10784905D01*
X5562272Y10847217D01*
X5567337Y10918032D01*
X5609884Y10974868D01*
X5676404Y10999679D01*
X5685393Y11000000D01*
X5874000Y11000000D01*
X5942121Y10979998D01*
X5988614Y10926342D01*
X6000000Y10874000D01*
X6000000Y2000000D01*
X6604713Y2000000D01*
X6672834Y1979998D01*
X6680223Y1974868D01*
X6714036Y1949555D01*
X6850906Y1898506D01*
X6911402Y1892001D01*
X6911415Y1892000D01*
X7206000Y1892000D01*
X7206000Y2000000D01*
X7714000Y2000000D01*
X7714000Y1892000D01*
X8008585Y1892000D01*
X8008597Y1892001D01*
X8069093Y1898506D01*
X8205963Y1949555D01*
X8239777Y1974868D01*
X8306298Y1999679D01*
X8315287Y2000000D01*
X8500000Y2000000D01*
X8500000Y7766000D01*
X9179985Y7766000D01*
X9220194Y7627601D01*
X9302889Y7487772D01*
X9302894Y7487765D01*
X9417764Y7372895D01*
X9417771Y7372890D01*
X9557600Y7290195D01*
X9713614Y7244868D01*
X9745999Y7242321D01*
X9746000Y7242321D01*
X9746000Y7766000D01*
X10254000Y7766000D01*
X10254000Y7242321D01*
X10286385Y7244868D01*
X10442399Y7290195D01*
X10582228Y7372890D01*
X10582235Y7372895D01*
X10697105Y7487765D01*
X10697110Y7487772D01*
X10779805Y7627601D01*
X10820015Y7766000D01*
X10254000Y7766000D01*
X9746000Y7766000D01*
X9179985Y7766000D01*
X8500000Y7766000D01*
X8500000Y8374000D01*
X8520002Y8442121D01*
X8573658Y8488614D01*
X8626000Y8500000D01*
X9077828Y8500000D01*
X9145949Y8479998D01*
X9192442Y8426342D01*
X9202546Y8356068D01*
X9198825Y8338847D01*
X9179985Y8274000D01*
X10820015Y8274000D01*
X10779806Y8412397D01*
X10743161Y8474361D01*
X10725702Y8543177D01*
X10748219Y8610508D01*
X10803563Y8654978D01*
X10851615Y8664500D01*
X11663500Y8664500D01*
X11731621Y8644498D01*
X11778114Y8590842D01*
X11789500Y8538500D01*
X11789500Y7450323D01*
X11804033Y7377261D01*
X11820738Y7352260D01*
X11859399Y7294399D01*
X11942260Y7239034D01*
X12015326Y7224500D01*
X12038500Y7224500D01*
X12106621Y7204498D01*
X12153114Y7150842D01*
X12164500Y7098500D01*
X12164500Y5951500D01*
X12144498Y5883379D01*
X12090842Y5836886D01*
X12038500Y5825500D01*
X12015322Y5825500D01*
X11942260Y5810967D01*
X11859399Y5755601D01*
X11804033Y5672740D01*
X11789500Y5599678D01*
X11789500Y2400323D01*
X11804033Y2327261D01*
X11820738Y2302260D01*
X11859399Y2244399D01*
X11942260Y2189034D01*
X12015326Y2174500D01*
X13064674Y2174500D01*
X13137740Y2189034D01*
X13220601Y2244399D01*
X13275966Y2327260D01*
X13290500Y2400326D01*
X13290500Y5599674D01*
X13275966Y5672740D01*
X13220601Y5755601D01*
X13137740Y5810966D01*
X13137739Y5810967D01*
X13064677Y5825500D01*
X13064674Y5825500D01*
X13041500Y5825500D01*
X12973379Y5845502D01*
X12926886Y5899158D01*
X12915500Y5951500D01*
X12915500Y7098500D01*
X12935502Y7166621D01*
X12989158Y7213114D01*
X13041500Y7224500D01*
X13064674Y7224500D01*
X13137740Y7239034D01*
X13220601Y7294399D01*
X13275966Y7377260D01*
X13290500Y7450326D01*
X13290500Y10649674D01*
X13275966Y10722740D01*
X13220601Y10805601D01*
X13137740Y10860966D01*
X13137739Y10860967D01*
X13064677Y10875500D01*
X13064674Y10875500D01*
X12015326Y10875500D01*
X12015322Y10875500D01*
X11942260Y10860967D01*
X11859399Y10805601D01*
X11804033Y10722740D01*
X11789500Y10649678D01*
X11789500Y9541500D01*
X11769498Y9473379D01*
X11715842Y9426886D01*
X11663500Y9415500D01*
X10541868Y9415500D01*
X10473747Y9435502D01*
X10452776Y9452402D01*
X10412403Y9492775D01*
X10378379Y9555087D01*
X10375500Y9581869D01*
X10375500Y13374717D01*
X10395502Y13442838D01*
X10449158Y13489331D01*
X10519432Y13499435D01*
X10526084Y13498295D01*
X10575317Y13488501D01*
X10575326Y13488500D01*
X11224674Y13488500D01*
X11297740Y13503034D01*
X11380601Y13558399D01*
X11387351Y13568502D01*
X11441829Y13614030D01*
X11492117Y13624500D01*
X13789273Y13624500D01*
X13857394Y13604498D01*
X13878368Y13587595D01*
X14734595Y12731368D01*
X14768621Y12669056D01*
X14771500Y12642273D01*
X14771500Y11001500D01*
X14751498Y10933379D01*
X14697842Y10886886D01*
X14645500Y10875500D01*
X14555322Y10875500D01*
X14482260Y10860967D01*
X14399399Y10805601D01*
X14344033Y10722740D01*
X14329500Y10649678D01*
X14329500Y7450323D01*
X14344033Y7377261D01*
X14360738Y7352260D01*
X14399399Y7294399D01*
X14482260Y7239034D01*
X14555326Y7224500D01*
X14578500Y7224500D01*
X14646621Y7204498D01*
X14693114Y7150842D01*
X14704500Y7098500D01*
X14704500Y5951500D01*
X14684498Y5883379D01*
X14630842Y5836886D01*
X14578500Y5825500D01*
X14555322Y5825500D01*
X14482260Y5810967D01*
X14399399Y5755601D01*
X14344033Y5672740D01*
X14329500Y5599678D01*
X14329500Y2400323D01*
X14344033Y2327261D01*
X14360738Y2302260D01*
X14399399Y2244399D01*
X14482260Y2189034D01*
X14555326Y2174500D01*
X15604674Y2174500D01*
X15677740Y2189034D01*
X15760601Y2244399D01*
X15815966Y2327260D01*
X15830500Y2400326D01*
X15830500Y5599674D01*
X15815966Y5672740D01*
X15760601Y5755601D01*
X15677740Y5810966D01*
X15677739Y5810967D01*
X15604677Y5825500D01*
X15604674Y5825500D01*
X15581500Y5825500D01*
X15513379Y5845502D01*
X15466886Y5899158D01*
X15455500Y5951500D01*
X15455500Y7098500D01*
X15475502Y7166621D01*
X15529158Y7213114D01*
X15581500Y7224500D01*
X15604674Y7224500D01*
X15677740Y7239034D01*
X15760601Y7294399D01*
X15815966Y7377260D01*
X15830500Y7450326D01*
X15830500Y10649674D01*
X15815966Y10722740D01*
X15760601Y10805601D01*
X15677740Y10860966D01*
X15677739Y10860967D01*
X15623917Y10871673D01*
X15561007Y10904582D01*
X15525877Y10966278D01*
X15522500Y10995252D01*
X15522500Y12797990D01*
X15525182Y12823849D01*
X15527367Y12834268D01*
X15522984Y12869426D01*
X15522499Y12877231D01*
X15522500Y12881114D01*
X15518869Y12902872D01*
X15518495Y12905439D01*
X15511866Y12958622D01*
X15511866Y12958625D01*
X15511865Y12958628D01*
X15509623Y12966158D01*
X15507066Y12973608D01*
X15481568Y13020723D01*
X15480376Y13023039D01*
X15456825Y13071213D01*
X15452252Y13077618D01*
X15447422Y13083823D01*
X15430894Y13099038D01*
X15407972Y13120140D01*
X15406117Y13121920D01*
X14299296Y14228742D01*
X14282911Y14248917D01*
X14281171Y14251580D01*
X14260655Y14319547D01*
X14280141Y14387817D01*
X14333444Y14434715D01*
X14386651Y14446500D01*
X15440273Y14446500D01*
X15508394Y14426498D01*
X15529368Y14409595D01*
X17207594Y12731368D01*
X17241620Y12669056D01*
X17244499Y12642273D01*
X17244500Y11001500D01*
X17224498Y10933379D01*
X17170842Y10886886D01*
X17118500Y10875500D01*
X17095322Y10875500D01*
X17022260Y10860967D01*
X16939399Y10805601D01*
X16884033Y10722740D01*
X16869500Y10649678D01*
X16869500Y7450323D01*
X16884033Y7377261D01*
X16900738Y7352260D01*
X16939399Y7294399D01*
X17022260Y7239034D01*
X17095326Y7224500D01*
X17118500Y7224500D01*
X17186621Y7204498D01*
X17233114Y7150842D01*
X17244500Y7098500D01*
X17244500Y5951500D01*
X17224498Y5883379D01*
X17170842Y5836886D01*
X17118500Y5825500D01*
X17095322Y5825500D01*
X17022260Y5810967D01*
X16939399Y5755601D01*
X16884033Y5672740D01*
X16869500Y5599678D01*
X16869500Y2400323D01*
X16884033Y2327261D01*
X16900738Y2302260D01*
X16939399Y2244399D01*
X17022260Y2189034D01*
X17095326Y2174500D01*
X18144674Y2174500D01*
X18217740Y2189034D01*
X18300601Y2244399D01*
X18355966Y2327260D01*
X18370500Y2400326D01*
X18370500Y5599674D01*
X18355966Y5672740D01*
X18300601Y5755601D01*
X18217740Y5810966D01*
X18217739Y5810967D01*
X18144677Y5825500D01*
X18144674Y5825500D01*
X18121500Y5825500D01*
X18053379Y5845502D01*
X18006886Y5899158D01*
X17995500Y5951500D01*
X17995500Y7098500D01*
X18015502Y7166621D01*
X18069158Y7213114D01*
X18121500Y7224500D01*
X18144674Y7224500D01*
X18217740Y7239034D01*
X18300601Y7294399D01*
X18355966Y7377260D01*
X18370500Y7450326D01*
X18370500Y10649674D01*
X18355966Y10722740D01*
X18300601Y10805601D01*
X18217740Y10860966D01*
X18217739Y10860967D01*
X18144677Y10875500D01*
X18144674Y10875500D01*
X18121500Y10875500D01*
X18053379Y10895502D01*
X18006886Y10949158D01*
X17995500Y11001500D01*
X17995500Y12797990D01*
X17998182Y12823849D01*
X18000367Y12834268D01*
X17995983Y12869437D01*
X17995500Y12877226D01*
X17995500Y12881113D01*
X17991874Y12902841D01*
X17991498Y12905420D01*
X17984866Y12958622D01*
X17984866Y12958626D01*
X17984862Y12958633D01*
X17982624Y12966155D01*
X17980065Y12973608D01*
X17980065Y12973610D01*
X17954549Y13020760D01*
X17953374Y13023043D01*
X17952772Y13024274D01*
X17929826Y13071211D01*
X17925248Y13077623D01*
X17920422Y13083823D01*
X17903894Y13099038D01*
X17880972Y13120140D01*
X17879117Y13121920D01*
X15950296Y15050742D01*
X15933909Y15070920D01*
X15928083Y15079837D01*
X15923946Y15083057D01*
X15900111Y15101608D01*
X15894268Y15106770D01*
X15891518Y15109520D01*
X15888766Y15111485D01*
X15873564Y15122339D01*
X15871477Y15123895D01*
X15829188Y15156810D01*
X15822277Y15160550D01*
X15815200Y15164010D01*
X15763827Y15179305D01*
X15761349Y15180099D01*
X15751809Y15183374D01*
X15710660Y15197500D01*
X15710659Y15197500D01*
X15710656Y15197501D01*
X15702914Y15198793D01*
X15695087Y15199769D01*
X15650703Y15197933D01*
X15641544Y15197554D01*
X15638951Y15197500D01*
X11492117Y15197500D01*
X11423996Y15217502D01*
X11387352Y15253498D01*
X11380601Y15263601D01*
X11297739Y15318967D01*
X11224677Y15333500D01*
X11224674Y15333500D01*
X11022401Y15333500D01*
X10954280Y15353502D01*
X10907787Y15407158D01*
X10897683Y15477432D01*
X10911663Y15519610D01*
X10911670Y15519622D01*
X10919482Y15534013D01*
X10921125Y15536858D01*
X10929748Y15550928D01*
X10929754Y15550946D01*
X10932587Y15556785D01*
X10935349Y15561872D01*
X10938711Y15567438D01*
X10938710Y15567438D01*
X10938712Y15567439D01*
X10945826Y15582357D01*
X10947298Y15585247D01*
X10955183Y15599766D01*
X10955187Y15599782D01*
X10957705Y15605749D01*
X10960200Y15610979D01*
X10963259Y15616705D01*
X10963270Y15616720D01*
X10969585Y15631969D01*
X10970919Y15634964D01*
X10978027Y15649864D01*
X10978031Y15649883D01*
X10980235Y15655977D01*
X10982449Y15661323D01*
X10985206Y15667204D01*
X10985215Y15667217D01*
X10990734Y15682806D01*
X10991900Y15685843D01*
X10998217Y15701090D01*
X10998218Y15701098D01*
X11000104Y15707313D01*
X11002035Y15712766D01*
X11004482Y15718787D01*
X11004487Y15718795D01*
X11009172Y15734614D01*
X11010181Y15737719D01*
X11015699Y15753299D01*
X11015700Y15753307D01*
X11017259Y15759620D01*
X11018903Y15765171D01*
X11021030Y15771305D01*
X11021036Y15771317D01*
X11024893Y15787387D01*
X11025729Y15790509D01*
X11030425Y15806356D01*
X11030425Y15806366D01*
X11031656Y15812767D01*
X11033006Y15818389D01*
X11034804Y15824612D01*
X11034809Y15824622D01*
X11037816Y15840853D01*
X11038501Y15844070D01*
X11042354Y15860115D01*
X11043244Y15866552D01*
X11044298Y15872239D01*
X11045778Y15878587D01*
X11047929Y15894930D01*
X11048445Y15898189D01*
X11049587Y15904350D01*
X11051452Y15914412D01*
X11051451Y15914415D01*
X11052007Y15920912D01*
X11052761Y15926638D01*
X11053903Y15933036D01*
X11053905Y15933042D01*
X11055200Y15949509D01*
X11055541Y15952759D01*
X11057697Y15969121D01*
X11057696Y15969132D01*
X11057910Y15975630D01*
X11058363Y15981391D01*
X11059170Y15987849D01*
X11059171Y15987852D01*
X11059602Y16004370D01*
X11059771Y16007590D01*
X11061070Y16024081D01*
X11061068Y16024091D01*
X11060930Y16031182D01*
X11061000Y16032920D01*
X11061000Y16056893D01*
X11061021Y16058536D01*
X11061172Y16064282D01*
X11061264Y16067838D01*
X11061407Y16070740D01*
X11061560Y16072855D01*
X11061561Y16072858D01*
X11061521Y16074373D01*
X11061521Y16077628D01*
X11061561Y16079142D01*
X11061559Y16079150D01*
X11061407Y16081259D01*
X11061264Y16084169D01*
X11061193Y16086887D01*
X11061020Y16093498D01*
X11061000Y16095109D01*
X11061000Y16119085D01*
X11060930Y16120832D01*
X11061068Y16127909D01*
X11061070Y16127919D01*
X11059771Y16144410D01*
X11059602Y16147633D01*
X11059171Y16164148D01*
X11059169Y16164157D01*
X11058363Y16170606D01*
X11057910Y16176368D01*
X11057696Y16182872D01*
X11057697Y16182879D01*
X11057246Y16186303D01*
X11055544Y16199230D01*
X11055198Y16202517D01*
X11054609Y16210005D01*
X11053905Y16218958D01*
X11053903Y16218965D01*
X11052760Y16225367D01*
X11052005Y16231098D01*
X11051451Y16237581D01*
X11051452Y16237588D01*
X11048445Y16253809D01*
X11047933Y16257042D01*
X11045777Y16273418D01*
X11045776Y16273420D01*
X11045776Y16273423D01*
X11044297Y16279766D01*
X11043244Y16285448D01*
X11042353Y16291890D01*
X11038498Y16307944D01*
X11037811Y16311176D01*
X11034809Y16327378D01*
X11034808Y16327381D01*
X11034807Y16327386D01*
X11033003Y16333628D01*
X11031656Y16339238D01*
X11030425Y16345640D01*
X11030425Y16345644D01*
X11025735Y16361475D01*
X11024883Y16364657D01*
X11022814Y16373275D01*
X11021036Y16380683D01*
X11021030Y16380695D01*
X11018902Y16386834D01*
X11017261Y16392373D01*
X11015700Y16398694D01*
X11015699Y16398701D01*
X11010176Y16414298D01*
X11009180Y16417362D01*
X11004487Y16433205D01*
X11004483Y16433213D01*
X11002032Y16439242D01*
X11000103Y16444690D01*
X10998215Y16450915D01*
X10994556Y16459747D01*
X10991899Y16466163D01*
X10990736Y16469192D01*
X10985215Y16484783D01*
X10985213Y16484787D01*
X10982450Y16490679D01*
X10980236Y16496024D01*
X10978027Y16502136D01*
X10970920Y16517036D01*
X10969589Y16520024D01*
X10963270Y16535280D01*
X10963265Y16535287D01*
X10960199Y16541025D01*
X10957710Y16546243D01*
X10955183Y16552233D01*
X10955183Y16552234D01*
X10947307Y16566740D01*
X10945814Y16569670D01*
X10938710Y16584565D01*
X10935343Y16590141D01*
X10932587Y16595218D01*
X10929750Y16601068D01*
X10921119Y16615153D01*
X10919468Y16618014D01*
X10911610Y16632488D01*
X10907948Y16637892D01*
X10904929Y16642818D01*
X10901798Y16648496D01*
X10901795Y16648503D01*
X10892445Y16662107D01*
X10890647Y16664876D01*
X10882032Y16678936D01*
X10878103Y16684126D01*
X10874830Y16688889D01*
X10871391Y16694420D01*
X10861341Y16707517D01*
X10859399Y16710190D01*
X10850071Y16723764D01*
X10850068Y16723767D01*
X10850066Y16723770D01*
X10845868Y16728752D01*
X10842353Y16733333D01*
X10838631Y16738674D01*
X10827912Y16751224D01*
X10825838Y16753786D01*
X10815793Y16766876D01*
X10811344Y16771626D01*
X10807599Y16776010D01*
X10803599Y16781152D01*
X10794248Y16791005D01*
X10792238Y16793123D01*
X10790040Y16795564D01*
X10779322Y16808114D01*
X10774623Y16812632D01*
X10770651Y16816818D01*
X10766395Y16821736D01*
X10754426Y16833094D01*
X10752093Y16835427D01*
X10740737Y16847394D01*
X10740736Y16847395D01*
X10740734Y16847397D01*
X10735812Y16851657D01*
X10731627Y16855628D01*
X10727116Y16860320D01*
X10727114Y16860322D01*
X10727113Y16860323D01*
X10714573Y16871033D01*
X10712119Y16873242D01*
X10700153Y16884598D01*
X10695009Y16888599D01*
X10690620Y16892348D01*
X10685867Y16896800D01*
X10672777Y16906845D01*
X10670229Y16908908D01*
X10663394Y16914745D01*
X10657675Y16919630D01*
X10652334Y16923352D01*
X10647753Y16926867D01*
X10642765Y16931071D01*
X10629173Y16940412D01*
X10626508Y16942349D01*
X10613418Y16952393D01*
X10607871Y16955843D01*
X10603119Y16959109D01*
X10597935Y16963033D01*
X10583868Y16971654D01*
X10581106Y16973448D01*
X10567503Y16982796D01*
X10561800Y16985941D01*
X10556883Y16988954D01*
X10551490Y16992608D01*
X10536996Y17000478D01*
X10534142Y17002126D01*
X10520072Y17010748D01*
X10520071Y17010749D01*
X10520070Y17010749D01*
X10514200Y17013597D01*
X10509139Y17016346D01*
X10503569Y17019708D01*
X10488661Y17026820D01*
X10485726Y17028316D01*
X10472921Y17035268D01*
X10422598Y17085349D01*
X10407340Y17154687D01*
X10431991Y17221266D01*
X10488724Y17263949D01*
X10533040Y17272000D01*
X19178000Y17272000D01*
X19246121Y17251998D01*
X19292614Y17198342D01*
X19304000Y17146000D01*
X19304000Y888000D01*
X19283998Y819879D01*
X19230342Y773386D01*
X19178000Y762000D01*
X888000Y762000D01*
X819879Y782002D01*
X773386Y835658D01*
X762000Y888000D01*
X762000Y17146000D01*
X782002Y17214121D01*
X835658Y17260614D01*
X888000Y17272000D01*
X9474428Y17272000D01*
X9542549Y17251998D01*
G37*
G04 #@! TD.AperFunction*
M02*
