  0
SECTION
  2
HEADER
  9
$ACADVER
  1
AC1014
  9
$HANDSEED
  5
FFFF
  9
$MEASUREMENT
 70
     1
  0
ENDSEC
  0
SECTION
  2
TABLES
  0
TABLE
  2
VPORT
  5
8
330
0
100
AcDbSymbolTable
 70
     4
  0
VPORT
  5
2E
330
8
100
AcDbSymbolTableRecord
100
AcDbViewportTableRecord
  2
*ACTIVE
 70
     0
 10
0.0
 20
0.0
 11
1.0
 21
1.0
 12
210.0
 22
148.5
 13
0.0
 23
0.0
 14
10.0
 24
10.0
 15
10.0
 25
10.0
 16
0.0
 26
0.0
 36
1.0
 17
0.0
 27
0.0
 37
0.0
 40
341.0
 41
1.24
 42
50.0
 43
0.0
 44
0.0
 50
0.0
 51
0.0
 71
     0
 72
   100
 73
     1
 74
     3
 75
     0
 76
     0
 77
     0
 78
     0
  0
ENDTAB
  0
TABLE
  2
LTYPE
  5
5
330
0
100
AcDbSymbolTable
 70
     1
  0
LTYPE
  5
14
330
5
100
AcDbSymbolTableRecord
100
AcDbLinetypeTableRecord
  2
BYBLOCK
 70
     0
  3

 72
    65
 73
     0
 40
0.0
  0
LTYPE
  5
15
330
5
100
AcDbSymbolTableRecord
100
AcDbLinetypeTableRecord
  2
BYLAYER
 70
     0
  3

 72
    65
 73
     0
 40
0.0
  0
LTYPE
  5
16
330
5
100
AcDbSymbolTableRecord
100
AcDbLinetypeTableRecord
  2
CONTINUOUS
 70
     0
  3
Solid line
 72
    65
 73
     0
 40
0.0
  0
ENDTAB
  0
TABLE
  2
LAYER
  5
2
100
AcDbSymbolTable
 70
2
  0
LAYER
  5
50
100
AcDbSymbolTableRecord
100
AcDbLayerTableRecord
  2
0
 70
0
  6
CONTINUOUS
  0
LAYER
  5
51
100
AcDbSymbolTableRecord
100
AcDbLayerTableRecord
  2
Layer_1
 70
0
  6
CONTINUOUS
  0
ENDTAB
  0
TABLE
  2
STYLE
  5
3
330
0
100
AcDbSymbolTable
 70
     1
  0
STYLE
  5
11
330
3
100
AcDbSymbolTableRecord
100
AcDbTextStyleTableRecord
  2
STANDARD
 70
     0
 40
0.0
 41
1.0
 50
0.0
 71
     0
 42
2.5
  3
txt
  4

  0
ENDTAB
  0
TABLE
  2
VIEW
  5
6
330
0
100
AcDbSymbolTable
 70
     0
  0
ENDTAB
  0
TABLE
  2
UCS
  5
7
330
0
100
AcDbSymbolTable
 70
     0
  0
ENDTAB
  0
TABLE
  2
APPID
  5
9
330
0
100
AcDbSymbolTable
 70
     2
  0
APPID
  5
12
330
9
100
AcDbSymbolTableRecord
100
AcDbRegAppTableRecord
  2
ACAD
 70
     0
  0
ENDTAB
  0
TABLE
  2
DIMSTYLE
  5
A
330
0
100
AcDbSymbolTable
 70
     1
  0
DIMSTYLE
105
27
330
A
100
AcDbSymbolTableRecord
100
AcDbDimStyleTableRecord
  2
ISO-25
 70
     0
  3

  4

  5

  6

  7

 40
1.0
 41
2.5
 42
0.625
 43
3.75
 44
1.25
 45
0.0
 46
0.0
 47
0.0
 48
0.0
140
2.5
141
2.5
142
0.0
143
0.03937007874016
144
1.0
145
0.0
146
1.0
147
0.625
 71
     0
 72
     0
 73
     0
 74
     0
 75
     0
 76
     0
 77
     1
 78
     8
170
     0
171
     3
172
     1
173
     0
174
     0
175
     0
176
     0
177
     0
178
     0
270
     2
271
     2
272
     2
273
     2
274
     3
340
11
275
     0
280
     0
281
     0
282
     0
283
     0
284
     8
285
     0
286
     0
287
     3
288
     0
  0
ENDTAB
  0
TABLE
  2
BLOCK_RECORD
  5
1
330
0
100
AcDbSymbolTable
 70
     1
  0
BLOCK_RECORD
  5
1F
330
1
100
AcDbSymbolTableRecord
100
AcDbBlockTableRecord
  2
*MODEL_SPACE
  0
BLOCK_RECORD
  5
1B
330
1
100
AcDbSymbolTableRecord
100
AcDbBlockTableRecord
  2
*PAPER_SPACE
  0
ENDTAB
  0
ENDSEC
  0
SECTION
  2
BLOCKS
  0
BLOCK
  5
20
330
1F
100
AcDbEntity
  8
0
100
AcDbBlockBegin
  2
*MODEL_SPACE
 70
     0
 10
0.0
 20
0.0
 30
0.0
  3
*MODEL_SPACE
  1

  0
ENDBLK
  5
21
330
1F
100
AcDbEntity
  8
0
100
AcDbBlockEnd
  0
BLOCK
  5
1C
330
1B
100
AcDbEntity
 67
     1
  8
0
100
AcDbBlockBegin
  2
*PAPER_SPACE
  1

  0
ENDBLK
  5
1D
330
1B
100
AcDbEntity
 67
     1
  8
0
100
AcDbBlockEnd
  0
ENDSEC
  0
SECTION
  2
ENTITIES
  0
LWPOLYLINE
  5
100
100
AcDbEntity
  8
Layer_1
 62
1
100
AcDbPolyline
 90
4
 70
1
 10
39.914855
 20
54.357936
 30
0.0
 10
46.478058
 20
54.357936
 30
0.0
 10
46.478058
 20
47.795360
 30
0.0
 10
39.914855
 20
47.795360
 30
0.0
  0
LWPOLYLINE
  5
101
100
AcDbEntity
  8
Layer_1
 62
1
100
AcDbPolyline
 90
4
 70
1
 10
46.984724
 20
52.969775
 30
0.0
 10
53.547928
 20
52.969775
 30
0.0
 10
53.547928
 20
46.407198
 30
0.0
 10
46.984724
 20
46.407198
 30
0.0
  0
LWPOLYLINE
  5
102
100
AcDbEntity
  8
Layer_1
 62
1
100
AcDbPolyline
 90
4
 70
1
 10
47.843160
 20
57.525171
 30
0.0
 10
54.406363
 20
57.525171
 30
0.0
 10
54.406363
 20
50.962595
 30
0.0
 10
47.843160
 20
50.962595
 30
0.0
  0
LWPOLYLINE
  5
103
100
AcDbEntity
  8
Layer_1
 62
1
100
AcDbPolyline
 90
4
 70
1
 10
53.470534
 20
54.830916
 30
0.0
 10
60.033738
 20
54.830916
 30
0.0
 10
60.033738
 20
48.268340
 30
0.0
 10
53.470534
 20
48.268340
 30
0.0
  0
LWPOLYLINE
  5
104
100
AcDbEntity
  8
Layer_1
 62
1
100
AcDbPolyline
 90
4
 70
1
 10
56.708954
 20
57.461898
 30
0.0
 10
63.272157
 20
57.461898
 30
0.0
 10
63.272157
 20
50.899322
 30
0.0
 10
56.708954
 20
50.899322
 30
0.0
  0
LWPOLYLINE
  5
105
100
AcDbEntity
  8
Layer_1
 62
1
100
AcDbPolyline
 90
4
 70
1
 10
59.367762
 20
53.144048
 30
0.0
 10
65.930966
 20
53.144048
 30
0.0
 10
65.930966
 20
46.581472
 30
0.0
 10
59.367762
 20
46.581472
 30
0.0
  0
LWPOLYLINE
  5
106
100
AcDbEntity
  8
Layer_1
 62
1
100
AcDbPolyline
 90
4
 70
1
 10
60.959379
 20
58.608729
 30
0.0
 10
67.522583
 20
58.608729
 30
0.0
 10
67.522583
 20
52.046153
 30
0.0
 10
60.959379
 20
52.046153
 30
0.0
  0
LWPOLYLINE
  5
107
100
AcDbEntity
  8
Layer_1
 62
1
100
AcDbPolyline
 90
4
 70
1
 10
59.137770
 20
62.453979
 30
0.0
 10
65.700974
 20
62.453979
 30
0.0
 10
65.700974
 20
55.891402
 30
0.0
 10
59.137770
 20
55.891402
 30
0.0
  0
LWPOLYLINE
  5
108
100
AcDbEntity
  8
Layer_1
 62
1
100
AcDbPolyline
 90
4
 70
1
 10
56.506553
 20
64.207951
 30
0.0
 10
63.069756
 20
64.207951
 30
0.0
 10
63.069756
 20
57.645375
 30
0.0
 10
56.506553
 20
57.645375
 30
0.0
  0
LWPOLYLINE
  5
109
100
AcDbEntity
  8
Layer_1
 62
1
100
AcDbPolyline
 90
4
 70
1
 10
53.268127
 20
66.703999
 30
0.0
 10
59.831331
 20
66.703999
 30
0.0
 10
59.831331
 20
60.141423
 30
0.0
 10
53.268127
 20
60.141423
 30
0.0
  0
LWPOLYLINE
  5
10a
100
AcDbEntity
  8
Layer_1
 62
1
100
AcDbPolyline
 90
4
 70
1
 10
49.692378
 20
67.648445
 30
0.0
 10
56.255582
 20
67.648445
 30
0.0
 10
56.255582
 20
61.085868
 30
0.0
 10
49.692378
 20
61.085868
 30
0.0
  0
LWPOLYLINE
  5
10b
100
AcDbEntity
  8
Layer_1
 62
1
100
AcDbPolyline
 90
4
 70
1
 10
52.053720
 20
61.374615
 30
0.0
 10
58.616923
 20
61.374615
 30
0.0
 10
58.616923
 20
54.812038
 30
0.0
 10
52.053720
 20
54.812038
 30
0.0
  0
LWPOLYLINE
  5
10c
100
AcDbEntity
  8
Layer_1
 62
1
100
AcDbPolyline
 90
4
 70
1
 10
47.331026
 20
63.196039
 30
0.0
 10
53.894230
 20
63.196039
 30
0.0
 10
53.894230
 20
56.633462
 30
0.0
 10
47.331026
 20
56.633462
 30
0.0
  0
LWPOLYLINE
  5
10d
100
AcDbEntity
  8
Layer_1
 62
1
100
AcDbPolyline
 90
4
 70
1
 10
44.902209
 20
61.558096
 30
0.0
 10
51.465413
 20
61.558096
 30
0.0
 10
51.465413
 20
68.120672
 30
0.0
 10
44.902209
 20
68.120672
 30
0.0
  0
LWPOLYLINE
  5
10e
100
AcDbEntity
  8
Layer_1
 62
1
100
AcDbPolyline
 90
4
 70
1
 10
39.842181
 20
67.108771
 30
0.0
 10
46.405385
 20
67.108771
 30
0.0
 10
46.405385
 20
60.546194
 30
0.0
 10
39.842181
 20
60.546194
 30
0.0
  0
LWPOLYLINE
  5
10f
100
AcDbEntity
  8
Layer_1
 62
1
100
AcDbPolyline
 90
4
 70
1
 10
42.675798
 20
62.319060
 30
0.0
 10
49.239002
 20
62.319060
 30
0.0
 10
49.239002
 20
55.756484
 30
0.0
 10
42.675798
 20
55.756484
 30
0.0
  0
LWPOLYLINE
  5
110
100
AcDbEntity
  8
Layer_1
 62
1
100
AcDbPolyline
 90
4
 70
1
 10
39.386779
 20
60.227768
 30
0.0
 10
45.949983
 20
60.227768
 30
0.0
 10
45.949983
 20
53.665191
 30
0.0
 10
39.386779
 20
53.665191
 30
0.0
  0
LWPOLYLINE
  5
111
100
AcDbEntity
  8
Layer_1
 62
1
100
AcDbPolyline
 90
4
 70
1
 10
35.591754
 20
65.759554
 30
0.0
 10
42.154958
 20
65.759554
 30
0.0
 10
42.154958
 20
59.196977
 30
0.0
 10
35.591754
 20
59.196977
 30
0.0
  0
LWPOLYLINE
  5
112
100
AcDbEntity
  8
Layer_1
 62
1
100
AcDbPolyline
 90
4
 70
1
 10
32.960536
 20
63.263506
 30
0.0
 10
39.523740
 20
63.263506
 30
0.0
 10
39.523740
 20
56.700929
 30
0.0
 10
32.960536
 20
56.700929
 30
0.0
  0
LWPOLYLINE
  5
113
100
AcDbEntity
  8
Layer_1
 62
1
100
AcDbPolyline
 90
4
 70
1
 10
31.408791
 20
60.497605
 30
0.0
 10
37.971995
 20
60.497605
 30
0.0
 10
37.971995
 20
53.935028
 30
0.0
 10
31.408791
 20
53.935028
 30
0.0
  0
LWPOLYLINE
  5
114
100
AcDbEntity
  8
Layer_1
 62
1
100
AcDbPolyline
 90
4
 70
1
 10
32.960536
 20
57.192061
 30
0.0
 10
39.523740
 20
57.192061
 30
0.0
 10
39.523740
 20
50.629485
 30
0.0
 10
32.960536
 20
50.629485
 30
0.0
  0
LWPOLYLINE
  5
115
100
AcDbEntity
  8
Layer_1
 62
1
100
AcDbPolyline
 90
4
 70
1
 10
50.501981
 20
49.431384
 30
0.0
 10
57.065184
 20
49.431384
 30
0.0
 10
57.065184
 20
42.868807
 30
0.0
 10
50.501981
 20
42.868807
 30
0.0
  0
LWPOLYLINE
  5
116
100
AcDbEntity
  8
Layer_1
 62
1
100
AcDbPolyline
 90
4
 70
1
 10
57.451096
 20
50.381237
 30
0.0
 10
64.014300
 20
50.381237
 30
0.0
 10
64.014300
 20
43.818661
 30
0.0
 10
57.451096
 20
43.818661
 30
0.0
  0
LWPOLYLINE
  5
117
100
AcDbEntity
  8
Layer_1
 62
1
100
AcDbPolyline
 90
4
 70
1
 10
53.436795
 20
47.916219
 30
0.0
 10
59.999999
 20
47.916219
 30
0.0
 10
59.999999
 20
41.353642
 30
0.0
 10
53.436795
 20
41.353642
 30
0.0
  0
LWPOLYLINE
  5
118
100
AcDbEntity
  8
Layer_1
 62
1
100
AcDbPolyline
 90
4
 70
1
 10
55.312255
 20
45.223950
 30
0.0
 10
61.875459
 20
45.223950
 30
0.0
 10
61.875459
 20
38.661374
 30
0.0
 10
55.312255
 20
38.661374
 30
0.0
  0
LWPOLYLINE
  5
119
100
AcDbEntity
  8
Layer_1
 62
1
100
AcDbPolyline
 90
4
 70
1
 10
41.279955
 20
57.525171
 30
0.0
 10
47.843158
 20
57.525171
 30
0.0
 10
47.843158
 20
50.962595
 30
0.0
 10
41.279955
 20
50.962595
 30
0.0
  0
LWPOLYLINE
  5
11a
100
AcDbEntity
  8
Layer_1
 62
1
100
AcDbPolyline
 90
4
 70
1
 10
36.112595
 20
55.756488
 30
0.0
 10
42.675798
 20
55.756488
 30
0.0
 10
42.675798
 20
49.193912
 30
0.0
 10
36.112595
 20
49.193912
 30
0.0
  0
ENDSEC
  0
SECTION
  2
OBJECTS
  0
DICTIONARY
  5
C
330
0
100
AcDbDictionary
  3
ACAD_GROUP
350
D
  3
ACAD_MLINESTYLE
350
17
  0
DICTIONARY
  5
D
330
C
100
AcDbDictionary
  0
DICTIONARY
  5
1A
330
C
100
AcDbDictionary
  0
DICTIONARY
  5
17
330
C
100
AcDbDictionary
  3
STANDARD
350
18
  0
DICTIONARY
  5
19
330
C
100
AcDbDictionary
  0
ENDSEC
  0
EOF
