  0
SECTION
  2
HEADER
  9
$ACADVER
  1
AC1014
  9
$HANDSEED
  5
FFFF
  9
$MEASUREMENT
 70
     1
  0
ENDSEC
  0
SECTION
  2
TABLES
  0
TABLE
  2
VPORT
  5
8
330
0
100
AcDbSymbolTable
 70
     4
  0
VPORT
  5
2E
330
8
100
AcDbSymbolTableRecord
100
AcDbViewportTableRecord
  2
*ACTIVE
 70
     0
 10
0.0
 20
0.0
 11
1.0
 21
1.0
 12
210.0
 22
148.5
 13
0.0
 23
0.0
 14
10.0
 24
10.0
 15
10.0
 25
10.0
 16
0.0
 26
0.0
 36
1.0
 17
0.0
 27
0.0
 37
0.0
 40
341.0
 41
1.24
 42
50.0
 43
0.0
 44
0.0
 50
0.0
 51
0.0
 71
     0
 72
   100
 73
     1
 74
     3
 75
     0
 76
     0
 77
     0
 78
     0
  0
ENDTAB
  0
TABLE
  2
LTYPE
  5
5
330
0
100
AcDbSymbolTable
 70
     1
  0
LTYPE
  5
14
330
5
100
AcDbSymbolTableRecord
100
AcDbLinetypeTableRecord
  2
BYBLOCK
 70
     0
  3

 72
    65
 73
     0
 40
0.0
  0
LTYPE
  5
15
330
5
100
AcDbSymbolTableRecord
100
AcDbLinetypeTableRecord
  2
BYLAYER
 70
     0
  3

 72
    65
 73
     0
 40
0.0
  0
LTYPE
  5
16
330
5
100
AcDbSymbolTableRecord
100
AcDbLinetypeTableRecord
  2
CONTINUOUS
 70
     0
  3
Solid line
 72
    65
 73
     0
 40
0.0
  0
ENDTAB
  0
TABLE
  2
LAYER
  5
2
100
AcDbSymbolTable
 70
2
  0
LAYER
  5
50
100
AcDbSymbolTableRecord
100
AcDbLayerTableRecord
  2
0
 70
0
  6
CONTINUOUS
  0
LAYER
  5
51
100
AcDbSymbolTableRecord
100
AcDbLayerTableRecord
  2
Layer_1
 70
0
  6
CONTINUOUS
  0
ENDTAB
  0
TABLE
  2
STYLE
  5
3
330
0
100
AcDbSymbolTable
 70
     1
  0
STYLE
  5
11
330
3
100
AcDbSymbolTableRecord
100
AcDbTextStyleTableRecord
  2
STANDARD
 70
     0
 40
0.0
 41
1.0
 50
0.0
 71
     0
 42
2.5
  3
txt
  4

  0
ENDTAB
  0
TABLE
  2
VIEW
  5
6
330
0
100
AcDbSymbolTable
 70
     0
  0
ENDTAB
  0
TABLE
  2
UCS
  5
7
330
0
100
AcDbSymbolTable
 70
     0
  0
ENDTAB
  0
TABLE
  2
APPID
  5
9
330
0
100
AcDbSymbolTable
 70
     2
  0
APPID
  5
12
330
9
100
AcDbSymbolTableRecord
100
AcDbRegAppTableRecord
  2
ACAD
 70
     0
  0
ENDTAB
  0
TABLE
  2
DIMSTYLE
  5
A
330
0
100
AcDbSymbolTable
 70
     1
  0
DIMSTYLE
105
27
330
A
100
AcDbSymbolTableRecord
100
AcDbDimStyleTableRecord
  2
ISO-25
 70
     0
  3

  4

  5

  6

  7

 40
1.0
 41
2.5
 42
0.625
 43
3.75
 44
1.25
 45
0.0
 46
0.0
 47
0.0
 48
0.0
140
2.5
141
2.5
142
0.0
143
0.03937007874016
144
1.0
145
0.0
146
1.0
147
0.625
 71
     0
 72
     0
 73
     0
 74
     0
 75
     0
 76
     0
 77
     1
 78
     8
170
     0
171
     3
172
     1
173
     0
174
     0
175
     0
176
     0
177
     0
178
     0
270
     2
271
     2
272
     2
273
     2
274
     3
340
11
275
     0
280
     0
281
     0
282
     0
283
     0
284
     8
285
     0
286
     0
287
     3
288
     0
  0
ENDTAB
  0
TABLE
  2
BLOCK_RECORD
  5
1
330
0
100
AcDbSymbolTable
 70
     1
  0
BLOCK_RECORD
  5
1F
330
1
100
AcDbSymbolTableRecord
100
AcDbBlockTableRecord
  2
*MODEL_SPACE
  0
BLOCK_RECORD
  5
1B
330
1
100
AcDbSymbolTableRecord
100
AcDbBlockTableRecord
  2
*PAPER_SPACE
  0
ENDTAB
  0
ENDSEC
  0
SECTION
  2
BLOCKS
  0
BLOCK
  5
20
330
1F
100
AcDbEntity
  8
0
100
AcDbBlockBegin
  2
*MODEL_SPACE
 70
     0
 10
0.0
 20
0.0
 30
0.0
  3
*MODEL_SPACE
  1

  0
ENDBLK
  5
21
330
1F
100
AcDbEntity
  8
0
100
AcDbBlockEnd
  0
BLOCK
  5
1C
330
1B
100
AcDbEntity
 67
     1
  8
0
100
AcDbBlockBegin
  2
*PAPER_SPACE
  1

  0
ENDBLK
  5
1D
330
1B
100
AcDbEntity
 67
     1
  8
0
100
AcDbBlockEnd
  0
ENDSEC
  0
SECTION
  2
ENTITIES
  0
SPLINE
  5
100
100
AcDbEntity
  8
Layer_1
 62
1
100
AcDbSpline
 70
8
 71
3
 72
8
 73
4
 74
0
 40
0
 40
0
 40
0
 40
0
 40
1
 40
1
 40
1
 40
1
 10
31.028356
 20
50.425064
 30
0.0
 10
31.028356
 20
50.746107
 30
0.0
 10
31.016297
 20
50.948079
 30
0.0
 10
30.992179
 20
51.030977
 30
0.0
  0
SPLINE
  5
101
100
AcDbEntity
  8
Layer_1
 62
1
100
AcDbSpline
 70
8
 71
3
 72
8
 73
4
 74
0
 40
0
 40
0
 40
0
 40
0
 40
1
 40
1
 40
1
 40
1
 10
30.992179
 20
51.030977
 30
0.0
 10
30.806770
 20
51.030977
 30
0.0
 10
30.634927
 20
51.022687
 30
0.0
 10
30.476651
 20
51.006107
 30
0.0
  0
SPLINE
  5
102
100
AcDbEntity
  8
Layer_1
 62
1
100
AcDbSpline
 70
8
 71
3
 72
8
 73
4
 74
0
 40
0
 40
0
 40
0
 40
0
 40
1
 40
1
 40
1
 40
1
 10
30.476651
 20
51.006107
 30
0.0
 10
30.319882
 20
50.989528
 30
0.0
 10
30.209089
 20
50.972195
 30
0.0
 10
30.144271
 20
50.954108
 30
0.0
  0
SPLINE
  5
103
100
AcDbEntity
  8
Layer_1
 62
1
100
AcDbSpline
 70
8
 71
3
 72
8
 73
4
 74
0
 40
0
 40
0
 40
0
 40
0
 40
1
 40
1
 40
1
 40
1
 10
30.038000
 20
50.947325
 30
0.0
 10
30.050059
 20
51.049818
 30
0.0
 10
30.050059
 20
51.198281
 30
0.0
 10
30.038000
 20
51.392716
 30
0.0
  0
LWPOLYLINE
  5
104
100
AcDbEntity
  8
Layer_1
 62
1
100
AcDbPolyline
 90
3
 70
0
 10
30.144271
 20
50.954108
 30
0.0
 10
30.047045
 20
50.929238
 30
0.0
 10
30.038000
 20
50.947325
 30
0.0
  0
SPLINE
  5
105
100
AcDbEntity
  8
Layer_1
 62
1
100
AcDbSpline
 70
8
 71
3
 72
8
 73
4
 74
0
 40
0
 40
0
 40
0
 40
0
 40
1
 40
1
 40
1
 40
1
 10
30.047045
 20
51.406282
 30
0.0
 10
30.120907
 20
51.397238
 30
0.0
 10
30.213611
 20
51.392716
 30
0.0
 10
30.325158
 20
51.392716
 30
0.0
  0
LWPOLYLINE
  5
106
100
AcDbEntity
  8
Layer_1
 62
1
100
AcDbPolyline
 90
2
 70
0
 10
30.038000
 20
51.392716
 30
0.0
 10
30.047045
 20
51.406282
 30
0.0
  0
SPLINE
  5
107
100
AcDbEntity
  8
Layer_1
 62
1
100
AcDbSpline
 70
8
 71
3
 72
8
 73
4
 74
0
 40
0
 40
0
 40
0
 40
0
 40
1
 40
1
 40
1
 40
1
 10
32.398574
 20
51.392716
 30
0.0
 10
32.510121
 20
51.392716
 30
0.0
 10
32.602826
 20
51.397238
 30
0.0
 10
32.676688
 20
51.406282
 30
0.0
  0
LWPOLYLINE
  5
108
100
AcDbEntity
  8
Layer_1
 62
1
100
AcDbPolyline
 90
2
 70
0
 10
30.325158
 20
51.392716
 30
0.0
 10
32.398574
 20
51.392716
 30
0.0
  0
SPLINE
  5
109
100
AcDbEntity
  8
Layer_1
 62
1
100
AcDbSpline
 70
8
 71
3
 72
8
 73
4
 74
0
 40
0
 40
0
 40
0
 40
0
 40
1
 40
1
 40
1
 40
1
 10
32.685732
 20
51.392716
 30
0.0
 10
32.673673
 20
51.198281
 30
0.0
 10
32.673673
 20
51.049818
 30
0.0
 10
32.685732
 20
50.947325
 30
0.0
  0
LWPOLYLINE
  5
10a
100
AcDbEntity
  8
Layer_1
 62
1
100
AcDbPolyline
 90
2
 70
0
 10
32.676688
 20
51.406282
 30
0.0
 10
32.685732
 20
51.392716
 30
0.0
  0
SPLINE
  5
10b
100
AcDbEntity
  8
Layer_1
 62
1
100
AcDbSpline
 70
8
 71
3
 72
8
 73
4
 74
0
 40
0
 40
0
 40
0
 40
0
 40
1
 40
1
 40
1
 40
1
 10
32.676688
 20
50.929238
 30
0.0
 10
32.461131
 20
50.997064
 30
0.0
 10
32.146086
 20
51.030977
 30
0.0
 10
31.731554
 20
51.030977
 30
0.0
  0
SPLINE
  5
10c
100
AcDbEntity
  8
Layer_1
 62
1
100
AcDbSpline
 70
8
 71
3
 72
8
 73
4
 74
0
 40
0
 40
0
 40
0
 40
0
 40
1
 40
1
 40
1
 40
1
 10
31.731554
 20
51.030977
 30
0.0
 10
31.707436
 20
50.948079
 30
0.0
 10
31.695377
 20
50.746107
 30
0.0
 10
31.695377
 20
50.425064
 30
0.0
  0
LWPOLYLINE
  5
10d
100
AcDbEntity
  8
Layer_1
 62
1
100
AcDbPolyline
 90
2
 70
0
 10
32.685732
 20
50.947325
 30
0.0
 10
32.676688
 20
50.929238
 30
0.0
  0
SPLINE
  5
10e
100
AcDbEntity
  8
Layer_1
 62
1
100
AcDbSpline
 70
8
 71
3
 72
8
 73
4
 74
0
 40
0
 40
0
 40
0
 40
0
 40
1
 40
1
 40
1
 40
1
 10
31.695377
 20
49.333064
 30
0.0
 10
31.695377
 20
48.935151
 30
0.0
 10
31.710450
 20
48.626165
 30
0.0
 10
31.740598
 20
48.406107
 30
0.0
  0
LWPOLYLINE
  5
10f
100
AcDbEntity
  8
Layer_1
 62
1
100
AcDbPolyline
 90
2
 70
0
 10
31.695377
 20
50.425064
 30
0.0
 10
31.695377
 20
49.333064
 30
0.0
  0
SPLINE
  5
110
100
AcDbEntity
  8
Layer_1
 62
1
100
AcDbSpline
 70
8
 71
3
 72
8
 73
4
 74
0
 40
0
 40
0
 40
0
 40
0
 40
1
 40
1
 40
1
 40
1
 10
31.731554
 20
48.392541
 30
0.0
 10
31.589859
 20
48.401585
 30
0.0
 10
31.466253
 20
48.406107
 30
0.0
 10
31.360735
 20
48.406107
 30
0.0
  0
LWPOLYLINE
  5
111
100
AcDbEntity
  8
Layer_1
 62
1
100
AcDbPolyline
 90
2
 70
0
 10
31.740598
 20
48.406107
 30
0.0
 10
31.731554
 20
48.392541
 30
0.0
  0
SPLINE
  5
112
100
AcDbEntity
  8
Layer_1
 62
1
100
AcDbSpline
 70
8
 71
3
 72
8
 73
4
 74
0
 40
0
 40
0
 40
0
 40
0
 40
1
 40
1
 40
1
 40
1
 10
30.983133
 20
48.406107
 30
0.0
 10
31.013281
 20
48.615614
 30
0.0
 10
31.028355
 20
48.924600
 30
0.0
 10
31.028355
 20
49.333064
 30
0.0
  0
LWPOLYLINE
  5
113
100
AcDbEntity
  8
Layer_1
 62
1
100
AcDbPolyline
 90
3
 70
0
 10
31.360735
 20
48.406107
 30
0.0
 10
30.987656
 20
48.392541
 30
0.0
 10
30.983133
 20
48.406107
 30
0.0
  0
SPLINE
  5
114
100
AcDbEntity
  8
Layer_1
 62
1
100
AcDbSpline
 70
8
 71
3
 72
8
 73
4
 74
0
 40
0
 40
0
 40
0
 40
0
 40
1
 40
1
 40
1
 40
1
 10
33.151516
 20
50.601413
 30
0.0
 10
33.151516
 20
50.975209
 30
0.0
 10
33.133427
 20
51.265354
 30
0.0
 10
33.097250
 20
51.471847
 30
0.0
  0
LWPOLYLINE
  5
115
100
AcDbEntity
  8
Layer_1
 62
1
100
AcDbPolyline
 90
2
 70
0
 10
31.028355
 20
49.333064
 30
0.0
 10
31.028356
 20
50.425064
 30
0.0
  0
SPLINE
  5
116
100
AcDbEntity
  8
Layer_1
 62
1
100
AcDbSpline
 70
8
 71
3
 72
8
 73
4
 74
0
 40
0
 40
0
 40
0
 40
0
 40
1
 40
1
 40
1
 40
1
 10
33.106295
 20
51.485412
 30
0.0
 10
33.192216
 20
51.491440
 30
0.0
 10
33.307531
 20
51.511788
 30
0.0
 10
33.452241
 20
51.546456
 30
0.0
  0
SPLINE
  5
117
100
AcDbEntity
  8
Layer_1
 62
1
100
AcDbSpline
 70
8
 71
3
 72
8
 73
4
 74
0
 40
0
 40
0
 40
0
 40
0
 40
1
 40
1
 40
1
 40
1
 10
33.452241
 20
51.546456
 30
0.0
 10
33.598458
 20
51.582630
 30
0.0
 10
33.703975
 20
51.613529
 30
0.0
 10
33.768793
 20
51.639152
 30
0.0
  0
SPLINE
  5
118
100
AcDbEntity
  8
Layer_1
 62
1
100
AcDbSpline
 70
8
 71
3
 72
8
 73
4
 74
0
 40
0
 40
0
 40
0
 40
0
 40
1
 40
1
 40
1
 40
1
 10
33.768793
 20
51.639152
 30
0.0
 10
33.795926
 20
51.639152
 30
0.0
 10
33.809492
 20
51.623326
 30
0.0
 10
33.809492
 20
51.591673
 30
0.0
  0
SPLINE
  5
119
100
AcDbEntity
  8
Layer_1
 62
1
100
AcDbSpline
 70
8
 71
3
 72
8
 73
4
 74
0
 40
0
 40
0
 40
0
 40
0
 40
1
 40
1
 40
1
 40
1
 10
33.809492
 20
51.591673
 30
0.0
 10
33.779345
 20
51.344485
 30
0.0
 10
33.763517
 20
51.054340
 30
0.0
 10
33.762010
 20
50.721238
 30
0.0
  0
LWPOLYLINE
  5
11a
100
AcDbEntity
  8
Layer_1
 62
1
100
AcDbPolyline
 90
2
 70
0
 10
33.097250
 20
51.471847
 30
0.0
 10
33.106295
 20
51.485412
 30
0.0
  0
SPLINE
  5
11b
100
AcDbEntity
  8
Layer_1
 62
1
100
AcDbSpline
 70
8
 71
3
 72
8
 73
4
 74
0
 40
0
 40
0
 40
0
 40
0
 40
1
 40
1
 40
1
 40
1
 10
33.762010
 20
50.022630
 30
0.0
 10
33.864512
 20
50.152254
 30
0.0
 10
33.990379
 20
50.253993
 30
0.0
 10
34.139611
 20
50.327848
 30
0.0
  0
SPLINE
  5
11c
100
AcDbEntity
  8
Layer_1
 62
1
100
AcDbSpline
 70
8
 71
3
 72
8
 73
4
 74
0
 40
0
 40
0
 40
0
 40
0
 40
1
 40
1
 40
1
 40
1
 10
34.139611
 20
50.327848
 30
0.0
 10
34.290350
 20
50.401704
 30
0.0
 10
34.429030
 20
50.438631
 30
0.0
 10
34.555651
 20
50.438631
 30
0.0
  0
SPLINE
  5
11d
100
AcDbEntity
  8
Layer_1
 62
1
100
AcDbSpline
 70
8
 71
3
 72
8
 73
4
 74
0
 40
0
 40
0
 40
0
 40
0
 40
1
 40
1
 40
1
 40
1
 10
34.555651
 20
50.438631
 30
0.0
 10
34.953602
 20
50.438631
 30
0.0
 10
35.152578
 20
50.210283
 30
0.0
 10
35.152578
 20
49.753587
 30
0.0
  0
LWPOLYLINE
  5
11e
100
AcDbEntity
  8
Layer_1
 62
1
100
AcDbPolyline
 90
4
 70
0
 10
33.762010
 20
50.721238
 30
0.0
 10
33.762010
 20
50.434107
 30
0.0
 10
33.743921
 20
50.031673
 30
0.0
 10
33.762010
 20
50.022630
 30
0.0
  0
SPLINE
  5
11f
100
AcDbEntity
  8
Layer_1
 62
1
100
AcDbSpline
 70
8
 71
3
 72
8
 73
4
 74
0
 40
0
 40
0
 40
0
 40
0
 40
1
 40
1
 40
1
 40
1
 10
35.152578
 20
49.240369
 30
0.0
 10
35.152578
 20
48.878630
 30
0.0
 10
35.167652
 20
48.600543
 30
0.0
 10
35.197799
 20
48.406109
 30
0.0
  0
LWPOLYLINE
  5
120
100
AcDbEntity
  8
Layer_1
 62
1
100
AcDbPolyline
 90
2
 70
0
 10
35.152578
 20
49.753587
 30
0.0
 10
35.152578
 20
49.240369
 30
0.0
  0
SPLINE
  5
121
100
AcDbEntity
  8
Layer_1
 62
1
100
AcDbSpline
 70
8
 71
3
 72
8
 73
4
 74
0
 40
0
 40
0
 40
0
 40
0
 40
1
 40
1
 40
1
 40
1
 10
35.188755
 20
48.392543
 30
0.0
 10
35.105848
 20
48.401587
 30
0.0
 10
35.011636
 20
48.406109
 30
0.0
 10
34.906119
 20
48.406109
 30
0.0
  0
LWPOLYLINE
  5
122
100
AcDbEntity
  8
Layer_1
 62
1
100
AcDbPolyline
 90
2
 70
0
 10
35.197799
 20
48.406109
 30
0.0
 10
35.188755
 20
48.392543
 30
0.0
  0
SPLINE
  5
123
100
AcDbEntity
  8
Layer_1
 62
1
100
AcDbSpline
 70
8
 71
3
 72
8
 73
4
 74
0
 40
0
 40
0
 40
0
 40
0
 40
1
 40
1
 40
1
 40
1
 10
34.512691
 20
48.406109
 30
0.0
 10
34.530779
 20
48.570399
 30
0.0
 10
34.540577
 20
48.848485
 30
0.0
 10
34.542085
 20
49.240369
 30
0.0
  0
LWPOLYLINE
  5
124
100
AcDbEntity
  8
Layer_1
 62
1
100
AcDbPolyline
 90
3
 70
0
 10
34.906119
 20
48.406109
 30
0.0
 10
34.517212
 20
48.392543
 30
0.0
 10
34.512691
 20
48.406109
 30
0.0
  0
SPLINE
  5
125
100
AcDbEntity
  8
Layer_1
 62
1
100
AcDbSpline
 70
8
 71
3
 72
8
 73
4
 74
0
 40
0
 40
0
 40
0
 40
0
 40
1
 40
1
 40
1
 40
1
 10
34.542085
 20
49.651848
 30
0.0
 10
34.542085
 20
49.938225
 30
0.0
 10
34.461439
 20
50.081414
 30
0.0
 10
34.300148
 20
50.081414
 30
0.0
  0
SPLINE
  5
126
100
AcDbEntity
  8
Layer_1
 62
1
100
AcDbSpline
 70
8
 71
3
 72
8
 73
4
 74
0
 40
0
 40
0
 40
0
 40
0
 40
1
 40
1
 40
1
 40
1
 10
34.300148
 20
50.081414
 30
0.0
 10
34.129813
 20
50.081414
 30
0.0
 10
33.950434
 20
49.958573
 30
0.0
 10
33.762010
 20
49.712891
 30
0.0
  0
LWPOLYLINE
  5
127
100
AcDbEntity
  8
Layer_1
 62
1
100
AcDbPolyline
 90
2
 70
0
 10
34.542085
 20
49.240369
 30
0.0
 10
34.542085
 20
49.651848
 30
0.0
  0
SPLINE
  5
128
100
AcDbEntity
  8
Layer_1
 62
1
100
AcDbSpline
 70
8
 71
3
 72
8
 73
4
 74
0
 40
0
 40
0
 40
0
 40
0
 40
1
 40
1
 40
1
 40
1
 10
33.762010
 20
49.240369
 30
0.0
 10
33.762010
 20
48.895210
 30
0.0
 10
33.771808
 20
48.617123
 30
0.0
 10
33.791404
 20
48.406109
 30
0.0
  0
LWPOLYLINE
  5
129
100
AcDbEntity
  8
Layer_1
 62
1
100
AcDbPolyline
 90
2
 70
0
 10
33.762010
 20
49.712891
 30
0.0
 10
33.762010
 20
49.240369
 30
0.0
  0
SPLINE
  5
12a
100
AcDbEntity
  8
Layer_1
 62
1
100
AcDbSpline
 70
8
 71
3
 72
8
 73
4
 74
0
 40
0
 40
0
 40
0
 40
0
 40
1
 40
1
 40
1
 40
1
 10
33.782359
 20
48.392543
 30
0.0
 10
33.679857
 20
48.401587
 30
0.0
 10
33.575847
 20
48.406109
 30
0.0
 10
33.470329
 20
48.406109
 30
0.0
  0
LWPOLYLINE
  5
12b
100
AcDbEntity
  8
Layer_1
 62
1
100
AcDbPolyline
 90
2
 70
0
 10
33.791404
 20
48.406109
 30
0.0
 10
33.782359
 20
48.392543
 30
0.0
  0
SPLINE
  5
12c
100
AcDbEntity
  8
Layer_1
 62
1
100
AcDbSpline
 70
8
 71
3
 72
8
 73
4
 74
0
 40
0
 40
0
 40
0
 40
0
 40
1
 40
1
 40
1
 40
1
 10
33.097250
 20
48.406109
 30
0.0
 10
33.134934
 20
48.641239
 30
0.0
 10
33.153023
 20
48.919326
 30
0.0
 10
33.151516
 20
49.240369
 30
0.0
  0
LWPOLYLINE
  5
12d
100
AcDbEntity
  8
Layer_1
 62
1
100
AcDbPolyline
 90
3
 70
0
 10
33.470329
 20
48.406109
 30
0.0
 10
33.101772
 20
48.392543
 30
0.0
 10
33.097250
 20
48.406109
 30
0.0
  0
LWPOLYLINE
  5
12e
100
AcDbEntity
  8
Layer_1
 62
1
100
AcDbPolyline
 90
2
 70
0
 10
33.151516
 20
49.240369
 30
0.0
 10
33.151516
 20
50.601413
 30
0.0
  0
SPLINE
  5
12f
100
AcDbEntity
  8
Layer_1
 62
1
100
AcDbSpline
 70
8
 71
3
 72
8
 73
4
 74
0
 40
0
 40
0
 40
0
 40
0
 40
1
 40
1
 40
1
 40
1
 10
37.083545
 20
49.586281
 30
0.0
 10
37.083545
 20
49.999267
 30
0.0
 10
36.983303
 20
50.206514
 30
0.0
 10
36.782821
 20
50.208020
 30
0.0
  0
SPLINE
  5
130
100
AcDbEntity
  8
Layer_1
 62
1
100
AcDbSpline
 70
8
 71
3
 72
8
 73
4
 74
0
 40
0
 40
0
 40
0
 40
0
 40
1
 40
1
 40
1
 40
1
 10
36.782821
 20
50.208020
 30
0.0
 10
36.663737
 20
50.208020
 30
0.0
 10
36.570279
 20
50.161296
 30
0.0
 10
36.502446
 20
50.067846
 30
0.0
  0
SPLINE
  5
131
100
AcDbEntity
  8
Layer_1
 62
1
100
AcDbSpline
 70
8
 71
3
 72
8
 73
4
 74
0
 40
0
 40
0
 40
0
 40
0
 40
1
 40
1
 40
1
 40
1
 10
36.502446
 20
50.067846
 30
0.0
 10
36.422554
 20
49.960832
 30
0.0
 10
36.375072
 20
49.800310
 30
0.0
 10
36.359998
 20
49.586281
 30
0.0
  0
LWPOLYLINE
  5
132
100
AcDbEntity
  8
Layer_1
 62
1
100
AcDbPolyline
 90
2
 70
0
 10
36.359998
 20
49.586281
 30
0.0
 10
37.083545
 20
49.586281
 30
0.0
  0
SPLINE
  5
133
100
AcDbEntity
  8
Layer_1
 62
1
100
AcDbSpline
 70
8
 71
3
 72
8
 73
4
 74
0
 40
0
 40
0
 40
0
 40
0
 40
1
 40
1
 40
1
 40
1
 10
37.635250
 20
48.901238
 30
0.0
 10
37.656354
 20
48.901238
 30
0.0
 10
37.673689
 20
48.885412
 30
0.0
 10
37.687256
 20
48.853759
 30
0.0
  0
SPLINE
  5
134
100
AcDbEntity
  8
Layer_1
 62
1
100
AcDbSpline
 70
8
 71
3
 72
8
 73
4
 74
0
 40
0
 40
0
 40
0
 40
0
 40
1
 40
1
 40
1
 40
1
 10
37.687256
 20
48.853759
 30
0.0
 10
37.700822
 20
48.823615
 30
0.0
 10
37.707605
 20
48.791962
 30
0.0
 10
37.707605
 20
48.758803
 30
0.0
  0
SPLINE
  5
135
100
AcDbEntity
  8
Layer_1
 62
1
100
AcDbSpline
 70
8
 71
3
 72
8
 73
4
 74
0
 40
0
 40
0
 40
0
 40
0
 40
1
 40
1
 40
1
 40
1
 10
37.707605
 20
48.758803
 30
0.0
 10
37.478482
 20
48.493527
 30
0.0
 10
37.173235
 20
48.360889
 30
0.0
 10
36.791865
 20
48.360889
 30
0.0
  0
SPLINE
  5
136
100
AcDbEntity
  8
Layer_1
 62
1
100
AcDbSpline
 70
8
 71
3
 72
8
 73
4
 74
0
 40
0
 40
0
 40
0
 40
0
 40
1
 40
1
 40
1
 40
1
 10
36.791865
 20
48.360889
 30
0.0
 10
36.427077
 20
48.360889
 30
0.0
 10
36.167805
 20
48.440773
 30
0.0
 10
36.014052
 20
48.600542
 30
0.0
  0
SPLINE
  5
137
100
AcDbEntity
  8
Layer_1
 62
1
100
AcDbSpline
 70
8
 71
3
 72
8
 73
4
 74
0
 40
0
 40
0
 40
0
 40
0
 40
1
 40
1
 40
1
 40
1
 10
36.014052
 20
48.600542
 30
0.0
 10
35.819598
 20
48.801006
 30
0.0
 10
35.722371
 20
49.054223
 30
0.0
 10
35.722371
 20
49.360195
 30
0.0
  0
SPLINE
  5
138
100
AcDbEntity
  8
Layer_1
 62
1
100
AcDbSpline
 70
8
 71
3
 72
8
 73
4
 74
0
 40
0
 40
0
 40
0
 40
0
 40
1
 40
1
 40
1
 40
1
 10
35.722371
 20
49.360195
 30
0.0
 10
35.722371
 20
49.717411
 30
0.0
 10
35.848239
 20
50.000020
 30
0.0
 10
36.099973
 20
50.208020
 30
0.0
  0
SPLINE
  5
139
100
AcDbEntity
  8
Layer_1
 62
1
100
AcDbSpline
 70
8
 71
3
 72
8
 73
4
 74
0
 40
0
 40
0
 40
0
 40
0
 40
1
 40
1
 40
1
 40
1
 10
36.099973
 20
50.208020
 30
0.0
 10
36.188909
 20
50.281876
 30
0.0
 10
36.297441
 20
50.338397
 30
0.0
 10
36.425569
 20
50.377585
 30
0.0
  0
SPLINE
  5
13a
100
AcDbEntity
  8
Layer_1
 62
1
100
AcDbSpline
 70
8
 71
3
 72
8
 73
4
 74
0
 40
0
 40
0
 40
0
 40
0
 40
1
 40
1
 40
1
 40
1
 10
36.425569
 20
50.377585
 30
0.0
 10
36.553698
 20
50.418282
 30
0.0
 10
36.683333
 20
50.438630
 30
0.0
 10
36.814476
 20
50.438630
 30
0.0
  0
SPLINE
  5
13b
100
AcDbEntity
  8
Layer_1
 62
1
100
AcDbSpline
 70
8
 71
3
 72
8
 73
4
 74
0
 40
0
 40
0
 40
0
 40
0
 40
1
 40
1
 40
1
 40
1
 10
36.814476
 20
50.438630
 30
0.0
 10
37.144594
 20
50.438630
 30
0.0
 10
37.372964
 20
50.346688
 30
0.0
 10
37.499586
 20
50.162803
 30
0.0
  0
SPLINE
  5
13c
100
AcDbEntity
  8
Layer_1
 62
1
100
AcDbSpline
 70
8
 71
3
 72
8
 73
4
 74
0
 40
0
 40
0
 40
0
 40
0
 40
1
 40
1
 40
1
 40
1
 10
37.499586
 20
50.162803
 30
0.0
 10
37.626206
 20
49.978919
 30
0.0
 10
37.689516
 20
49.723441
 30
0.0
 10
37.689516
 20
49.396368
 30
0.0
  0
LWPOLYLINE
  5
13d
100
AcDbEntity
  8
Layer_1
 62
1
100
AcDbPolyline
 90
1
 70
1
 10
36.359998
 20
49.586281
 30
0.0
  0
SPLINE
  5
13e
100
AcDbEntity
  8
Layer_1
 62
1
100
AcDbSpline
 70
8
 71
3
 72
8
 73
4
 74
0
 40
0
 40
0
 40
0
 40
0
 40
1
 40
1
 40
1
 40
1
 10
37.662384
 20
49.369237
 30
0.0
 10
37.397083
 20
49.375265
 30
0.0
 10
37.110678
 20
49.378279
 30
0.0
 10
36.803171
 20
49.378279
 30
0.0
  0
LWPOLYLINE
  5
13f
100
AcDbEntity
  8
Layer_1
 62
1
100
AcDbPolyline
 90
2
 70
0
 10
37.689516
 20
49.396368
 30
0.0
 10
37.662384
 20
49.369237
 30
0.0
  0
SPLINE
  5
140
100
AcDbEntity
  8
Layer_1
 62
1
100
AcDbSpline
 70
8
 71
3
 72
8
 73
4
 74
0
 40
0
 40
0
 40
0
 40
0
 40
1
 40
1
 40
1
 40
1
 10
36.341909
 20
49.378279
 30
0.0
 10
36.341909
 20
49.165758
 30
0.0
 10
36.393160
 20
49.003729
 30
0.0
 10
36.495663
 20
48.892193
 30
0.0
  0
SPLINE
  5
141
100
AcDbEntity
  8
Layer_1
 62
1
100
AcDbSpline
 70
8
 71
3
 72
8
 73
4
 74
0
 40
0
 40
0
 40
0
 40
0
 40
1
 40
1
 40
1
 40
1
 10
36.495663
 20
48.892193
 30
0.0
 10
36.605702
 20
48.771613
 30
0.0
 10
36.773777
 20
48.711323
 30
0.0
 10
36.999885
 20
48.711323
 30
0.0
  0
SPLINE
  5
142
100
AcDbEntity
  8
Layer_1
 62
1
100
AcDbSpline
 70
8
 71
3
 72
8
 73
4
 74
0
 40
0
 40
0
 40
0
 40
0
 40
1
 40
1
 40
1
 40
1
 10
36.999885
 20
48.711323
 30
0.0
 10
37.266694
 20
48.711323
 30
0.0
 10
37.478482
 20
48.774627
 30
0.0
 10
37.635250
 20
48.901237
 30
0.0
  0
LWPOLYLINE
  5
143
100
AcDbEntity
  8
Layer_1
 62
1
100
AcDbPolyline
 90
2
 70
0
 10
36.803171
 20
49.378279
 30
0.0
 10
36.341909
 20
49.378279
 30
0.0
  0
SPLINE
  5
144
100
AcDbEntity
  8
Layer_1
 62
1
100
AcDbSpline
 70
8
 71
3
 72
8
 73
4
 74
0
 40
0
 40
0
 40
0
 40
0
 40
1
 40
1
 40
1
 40
1
 10
40.212889
 20
49.378281
 30
0.0
 10
40.212889
 20
49.063266
 30
0.0
 10
40.224948
 20
48.864310
 30
0.0
 10
40.249066
 20
48.781411
 30
0.0
  0
SPLINE
  5
145
100
AcDbEntity
  8
Layer_1
 62
1
100
AcDbSpline
 70
8
 71
3
 72
8
 73
4
 74
0
 40
0
 40
0
 40
0
 40
0
 40
1
 40
1
 40
1
 40
1
 10
40.249066
 20
48.781411
 30
0.0
 10
40.434476
 20
48.781411
 30
0.0
 10
40.637220
 20
48.789701
 30
0.0
 10
40.857299
 20
48.806281
 30
0.0
  0
SPLINE
  5
146
100
AcDbEntity
  8
Layer_1
 62
1
100
AcDbSpline
 70
8
 71
3
 72
8
 73
4
 74
0
 40
0
 40
0
 40
0
 40
0
 40
1
 40
1
 40
1
 40
1
 10
40.857299
 20
48.806281
 30
0.0
 10
41.078885
 20
48.822861
 30
0.0
 10
41.253742
 20
48.840194
 30
0.0
 10
41.381870
 20
48.858281
 30
0.0
  0
LWPOLYLINE
  5
147
100
AcDbEntity
  8
Layer_1
 62
1
100
AcDbPolyline
 90
1
 70
1
 10
37.635250
 20
48.901237
 30
0.0
  0
SPLINE
  5
148
100
AcDbEntity
  8
Layer_1
 62
1
100
AcDbSpline
 70
8
 71
3
 72
8
 73
4
 74
0
 40
0
 40
0
 40
0
 40
0
 40
1
 40
1
 40
1
 40
1
 10
41.583107
 20
48.865063
 30
0.0
 10
41.577078
 20
48.815324
 30
0.0
 10
41.574064
 20
48.727151
 30
0.0
 10
41.574064
 20
48.600542
 30
0.0
  0
SPLINE
  5
149
100
AcDbEntity
  8
Layer_1
 62
1
100
AcDbSpline
 70
8
 71
3
 72
8
 73
4
 74
0
 40
0
 40
0
 40
0
 40
0
 40
1
 40
1
 40
1
 40
1
 10
41.574064
 20
48.600542
 30
0.0
 10
41.574064
 20
48.556832
 30
0.0
 10
41.577078
 20
48.492020
 30
0.0
 10
41.583107
 20
48.406107
 30
0.0
  0
LWPOLYLINE
  5
14a
100
AcDbEntity
  8
Layer_1
 62
1
100
AcDbPolyline
 90
3
 70
0
 10
41.381870
 20
48.858281
 30
0.0
 10
41.574064
 20
48.883150
 30
0.0
 10
41.583107
 20
48.865063
 30
0.0
  0
SPLINE
  5
14b
100
AcDbEntity
  8
Layer_1
 62
1
100
AcDbSpline
 70
8
 71
3
 72
8
 73
4
 74
0
 40
0
 40
0
 40
0
 40
0
 40
1
 40
1
 40
1
 40
1
 10
41.574064
 20
48.392541
 30
0.0
 10
41.500201
 20
48.401585
 30
0.0
 10
41.407496
 20
48.406107
 30
0.0
 10
41.295949
 20
48.406107
 30
0.0
  0
LWPOLYLINE
  5
14c
100
AcDbEntity
  8
Layer_1
 62
1
100
AcDbPolyline
 90
2
 70
0
 10
41.583107
 20
48.406107
 30
0.0
 10
41.574064
 20
48.392541
 30
0.0
  0
SPLINE
  5
14d
100
AcDbEntity
  8
Layer_1
 62
1
100
AcDbSpline
 70
8
 71
3
 72
8
 73
4
 74
0
 40
0
 40
0
 40
0
 40
0
 40
1
 40
1
 40
1
 40
1
 10
39.498383
 20
48.406107
 30
0.0
 10
39.528531
 20
48.615614
 30
0.0
 10
39.544358
 20
48.924600
 30
0.0
 10
39.545866
 20
49.333064
 30
0.0
  0
LWPOLYLINE
  5
14e
100
AcDbEntity
  8
Layer_1
 62
1
100
AcDbPolyline
 90
4
 70
0
 10
41.295949
 20
48.406107
 30
0.0
 10
39.887293
 20
48.406107
 30
0.0
 10
39.505169
 20
48.392541
 30
0.0
 10
39.498383
 20
48.406107
 30
0.0
  0
SPLINE
  5
14f
100
AcDbEntity
  8
Layer_1
 62
1
100
AcDbSpline
 70
8
 71
3
 72
8
 73
4
 74
0
 40
0
 40
0
 40
0
 40
0
 40
1
 40
1
 40
1
 40
1
 10
39.545866
 20
50.465760
 30
0.0
 10
39.545866
 20
50.842571
 30
0.0
 10
39.528531
 20
51.151557
 30
0.0
 10
39.493861
 20
51.392716
 30
0.0
  0
LWPOLYLINE
  5
150
100
AcDbEntity
  8
Layer_1
 62
1
100
AcDbPolyline
 90
2
 70
0
 10
39.545866
 20
49.333064
 30
0.0
 10
39.545866
 20
50.465760
 30
0.0
  0
SPLINE
  5
151
100
AcDbEntity
  8
Layer_1
 62
1
100
AcDbSpline
 70
8
 71
3
 72
8
 73
4
 74
0
 40
0
 40
0
 40
0
 40
0
 40
1
 40
1
 40
1
 40
1
 10
39.505162
 20
51.406282
 30
0.0
 10
39.643843
 20
51.397238
 30
0.0
 10
39.765188
 20
51.392716
 30
0.0
 10
39.869197
 20
51.392716
 30
0.0
  0
LWPOLYLINE
  5
152
100
AcDbEntity
  8
Layer_1
 62
1
100
AcDbPolyline
 90
2
 70
0
 10
39.493861
 20
51.392716
 30
0.0
 10
39.505162
 20
51.406282
 30
0.0
  0
SPLINE
  5
153
100
AcDbEntity
  8
Layer_1
 62
1
100
AcDbSpline
 70
8
 71
3
 72
8
 73
4
 74
0
 40
0
 40
0
 40
0
 40
0
 40
1
 40
1
 40
1
 40
1
 10
40.258111
 20
51.392716
 30
0.0
 10
40.227963
 20
51.189238
 30
0.0
 10
40.212889
 20
50.880253
 30
0.0
 10
40.212889
 20
50.465760
 30
0.0
  0
LWPOLYLINE
  5
154
100
AcDbEntity
  8
Layer_1
 62
1
100
AcDbPolyline
 90
3
 70
0
 10
39.869197
 20
51.392716
 30
0.0
 10
40.253582
 20
51.406282
 30
0.0
 10
40.258111
 20
51.392716
 30
0.0
  0
LWPOLYLINE
  5
155
100
AcDbEntity
  8
Layer_1
 62
1
100
AcDbPolyline
 90
2
 70
0
 10
40.212889
 20
50.465760
 30
0.0
 10
40.212889
 20
49.378281
 30
0.0
  0
SPLINE
  5
156
100
AcDbEntity
  8
Layer_1
 62
1
100
AcDbSpline
 70
8
 71
3
 72
8
 73
4
 74
0
 40
0
 40
0
 40
0
 40
0
 40
1
 40
1
 40
1
 40
1
 10
42.860622
 20
49.337586
 30
0.0
 10
42.666168
 20
49.284832
 30
0.0
 10
42.568941
 20
49.139383
 30
0.0
 10
42.568941
 20
48.901238
 30
0.0
  0
SPLINE
  5
157
100
AcDbEntity
  8
Layer_1
 62
1
100
AcDbSpline
 70
8
 71
3
 72
8
 73
4
 74
0
 40
0
 40
0
 40
0
 40
0
 40
1
 40
1
 40
1
 40
1
 10
42.568941
 20
48.901238
 30
0.0
 10
42.568941
 20
48.836426
 30
0.0
 10
42.592305
 20
48.776136
 30
0.0
 10
42.639035
 20
48.720368
 30
0.0
  0
SPLINE
  5
158
100
AcDbEntity
  8
Layer_1
 62
1
100
AcDbSpline
 70
8
 71
3
 72
8
 73
4
 74
0
 40
0
 40
0
 40
0
 40
0
 40
1
 40
1
 40
1
 40
1
 10
42.639035
 20
48.720368
 30
0.0
 10
42.685764
 20
48.664600
 30
0.0
 10
42.743045
 20
48.636716
 30
0.0
 10
42.810877
 20
48.636716
 30
0.0
  0
SPLINE
  5
159
100
AcDbEntity
  8
Layer_1
 62
1
100
AcDbSpline
 70
8
 71
3
 72
8
 73
4
 74
0
 40
0
 40
0
 40
0
 40
0
 40
1
 40
1
 40
1
 40
1
 10
42.810877
 20
48.636716
 30
0.0
 10
42.934483
 20
48.636716
 30
0.0
 10
43.048291
 20
48.689470
 30
0.0
 10
43.152301
 20
48.794977
 30
0.0
  0
SPLINE
  5
15a
100
AcDbEntity
  8
Layer_1
 62
1
100
AcDbSpline
 70
8
 71
3
 72
8
 73
4
 74
0
 40
0
 40
0
 40
0
 40
0
 40
1
 40
1
 40
1
 40
1
 10
43.152301
 20
48.794977
 30
0.0
 10
43.167375
 20
48.810050
 30
0.0
 10
43.182449
 20
48.840948
 30
0.0
 10
43.197523
 20
48.887673
 30
0.0
  0
SPLINE
  5
15b
100
AcDbEntity
  8
Layer_1
 62
1
100
AcDbSpline
 70
8
 71
3
 72
8
 73
4
 74
0
 40
0
 40
0
 40
0
 40
0
 40
1
 40
1
 40
1
 40
1
 10
43.197523
 20
48.887673
 30
0.0
 10
43.214104
 20
48.934398
 30
0.0
 10
43.222395
 20
48.972832
 30
0.0
 10
43.222395
 20
49.002977
 30
0.0
  0
LWPOLYLINE
  5
15c
100
AcDbEntity
  8
Layer_1
 62
1
100
AcDbPolyline
 90
2
 70
0
 10
43.231440
 20
49.434803
 30
0.0
 10
42.860622
 20
49.337586
 30
0.0
  0
SPLINE
  5
15d
100
AcDbEntity
  8
Layer_1
 62
1
100
AcDbSpline
 70
8
 71
3
 72
8
 73
4
 74
0
 40
0
 40
0
 40
0
 40
0
 40
1
 40
1
 40
1
 40
1
 10
43.814800
 20
48.776890
 30
0.0
 10
43.814800
 20
48.706050
 30
0.0
 10
43.835150
 20
48.660079
 30
0.0
 10
43.875849
 20
48.638977
 30
0.0
  0
SPLINE
  5
15e
100
AcDbEntity
  8
Layer_1
 62
1
100
AcDbSpline
 70
8
 71
3
 72
8
 73
4
 74
0
 40
0
 40
0
 40
0
 40
0
 40
1
 40
1
 40
1
 40
1
 10
43.875849
 20
48.638977
 30
0.0
 10
43.918057
 20
48.619382
 30
0.0
 10
43.991919
 20
48.609585
 30
0.0
 10
44.097435
 20
48.609585
 30
0.0
  0
SPLINE
  5
15f
100
AcDbEntity
  8
Layer_1
 62
1
100
AcDbSpline
 70
8
 71
3
 72
8
 73
4
 74
0
 40
0
 40
0
 40
0
 40
0
 40
1
 40
1
 40
1
 40
1
 10
44.097435
 20
48.609585
 30
0.0
 10
44.121554
 20
48.588483
 30
0.0
 10
44.136628
 20
48.556078
 30
0.0
 10
44.142657
 20
48.512368
 30
0.0
  0
SPLINE
  5
160
100
AcDbEntity
  8
Layer_1
 62
1
100
AcDbSpline
 70
8
 71
3
 72
8
 73
4
 74
0
 40
0
 40
0
 40
0
 40
0
 40
1
 40
1
 40
1
 40
1
 10
44.142657
 20
48.512368
 30
0.0
 10
44.010007
 20
48.409875
 30
0.0
 10
43.826859
 20
48.359382
 30
0.0
 10
43.593213
 20
48.360889
 30
0.0
  0
SPLINE
  5
161
100
AcDbEntity
  8
Layer_1
 62
1
100
AcDbSpline
 70
8
 71
3
 72
8
 73
4
 74
0
 40
0
 40
0
 40
0
 40
0
 40
1
 40
1
 40
1
 40
1
 10
43.593213
 20
48.360889
 30
0.0
 10
43.493726
 20
48.360889
 30
0.0
 10
43.416095
 20
48.381237
 30
0.0
 10
43.360321
 20
48.421934
 30
0.0
  0
SPLINE
  5
162
100
AcDbEntity
  8
Layer_1
 62
1
100
AcDbSpline
 70
8
 71
3
 72
8
 73
4
 74
0
 40
0
 40
0
 40
0
 40
0
 40
1
 40
1
 40
1
 40
1
 10
43.360321
 20
48.421934
 30
0.0
 10
43.304548
 20
48.464136
 30
0.0
 10
43.260080
 20
48.532715
 30
0.0
 10
43.226918
 20
48.627672
 30
0.0
  0
LWPOLYLINE
  5
163
100
AcDbEntity
  8
Layer_1
 62
1
100
AcDbPolyline
 90
2
 70
0
 10
43.222395
 20
49.002977
 30
0.0
 10
43.231440
 20
49.434803
 30
0.0
  0
SPLINE
  5
164
100
AcDbEntity
  8
Layer_1
 62
1
100
AcDbSpline
 70
8
 71
3
 72
8
 73
4
 74
0
 40
0
 40
0
 40
0
 40
0
 40
1
 40
1
 40
1
 40
1
 10
43.217875
 20
48.627672
 30
0.0
 10
43.038495
 20
48.448310
 30
0.0
 10
42.826706
 20
48.359382
 30
0.0
 10
42.582510
 20
48.360889
 30
0.0
  0
SPLINE
  5
165
100
AcDbEntity
  8
Layer_1
 62
1
100
AcDbSpline
 70
8
 71
3
 72
8
 73
4
 74
0
 40
0
 40
0
 40
0
 40
0
 40
1
 40
1
 40
1
 40
1
 10
42.582510
 20
48.360889
 30
0.0
 10
42.409159
 20
48.360889
 30
0.0
 10
42.259927
 20
48.406107
 30
0.0
 10
42.134814
 20
48.496542
 30
0.0
  0
SPLINE
  5
166
100
AcDbEntity
  8
Layer_1
 62
1
100
AcDbSpline
 70
8
 71
3
 72
8
 73
4
 74
0
 40
0
 40
0
 40
0
 40
0
 40
1
 40
1
 40
1
 40
1
 10
42.134814
 20
48.496542
 30
0.0
 10
42.011208
 20
48.586976
 30
0.0
 10
41.949405
 20
48.708310
 30
0.0
 10
41.949405
 20
48.860542
 30
0.0
  0
SPLINE
  5
167
100
AcDbEntity
  8
Layer_1
 62
1
100
AcDbSpline
 70
8
 71
3
 72
8
 73
4
 74
0
 40
0
 40
0
 40
0
 40
0
 40
1
 40
1
 40
1
 40
1
 10
41.949405
 20
48.860542
 30
0.0
 10
41.949405
 20
49.017296
 30
0.0
 10
42.011961
 20
49.152948
 30
0.0
 10
42.137075
 20
49.267499
 30
0.0
  0
SPLINE
  5
168
100
AcDbEntity
  8
Layer_1
 62
1
100
AcDbSpline
 70
8
 71
3
 72
8
 73
4
 74
0
 40
0
 40
0
 40
0
 40
0
 40
1
 40
1
 40
1
 40
1
 10
42.137075
 20
49.267499
 30
0.0
 10
42.262189
 20
49.382049
 30
0.0
 10
42.437046
 20
49.465701
 30
0.0
 10
42.661647
 20
49.518455
 30
0.0
  0
LWPOLYLINE
  5
169
100
AcDbEntity
  8
Layer_1
 62
1
100
AcDbPolyline
 90
2
 70
0
 10
43.226918
 20
48.627672
 30
0.0
 10
43.217875
 20
48.627672
 30
0.0
  0
SPLINE
  5
16a
100
AcDbEntity
  8
Layer_1
 62
1
100
AcDbSpline
 70
8
 71
3
 72
8
 73
4
 74
0
 40
0
 40
0
 40
0
 40
0
 40
1
 40
1
 40
1
 40
1
 10
43.204307
 20
49.660890
 30
0.0
 10
43.222397
 20
49.666918
 30
0.0
 10
43.231441
 20
49.685759
 30
0.0
 10
43.231441
 20
49.717412
 30
0.0
  0
SPLINE
  5
16b
100
AcDbEntity
  8
Layer_1
 62
1
100
AcDbSpline
 70
8
 71
3
 72
8
 73
4
 74
0
 40
0
 40
0
 40
0
 40
0
 40
1
 40
1
 40
1
 40
1
 10
43.231441
 20
49.717412
 30
0.0
 10
43.231441
 20
49.890745
 30
0.0
 10
43.205062
 20
50.012079
 30
0.0
 10
43.152303
 20
50.081412
 30
0.0
  0
SPLINE
  5
16c
100
AcDbEntity
  8
Layer_1
 62
1
100
AcDbSpline
 70
8
 71
3
 72
8
 73
4
 74
0
 40
0
 40
0
 40
0
 40
0
 40
1
 40
1
 40
1
 40
1
 10
43.152303
 20
50.081412
 30
0.0
 10
43.099544
 20
50.152253
 30
0.0
 10
43.019652
 20
50.187673
 30
0.0
 10
42.912628
 20
50.187673
 30
0.0
  0
SPLINE
  5
16d
100
AcDbEntity
  8
Layer_1
 62
1
100
AcDbSpline
 70
8
 71
3
 72
8
 73
4
 74
0
 40
0
 40
0
 40
0
 40
0
 40
1
 40
1
 40
1
 40
1
 10
42.912628
 20
50.187673
 30
0.0
 10
42.700086
 20
50.187673
 30
0.0
 10
42.510154
 20
50.066340
 30
0.0
 10
42.342835
 20
49.823673
 30
0.0
  0
LWPOLYLINE
  5
16e
100
AcDbEntity
  8
Layer_1
 62
1
100
AcDbPolyline
 90
2
 70
0
 10
42.661647
 20
49.518455
 30
0.0
 10
43.204307
 20
49.660890
 30
0.0
  0
SPLINE
  5
16f
100
AcDbEntity
  8
Layer_1
 62
1
100
AcDbSpline
 70
8
 71
3
 72
8
 73
4
 74
0
 40
0
 40
0
 40
0
 40
0
 40
1
 40
1
 40
1
 40
1
 10
42.109943
 20
50.194462
 30
0.0
 10
42.171746
 20
50.247216
 30
0.0
 10
42.296105
 20
50.300723
 30
0.0
 10
42.483021
 20
50.354983
 30
0.0
  0
SPLINE
  5
170
100
AcDbEntity
  8
Layer_1
 62
1
100
AcDbSpline
 70
8
 71
3
 72
8
 73
4
 74
0
 40
0
 40
0
 40
0
 40
0
 40
1
 40
1
 40
1
 40
1
 10
42.483021
 20
50.354983
 30
0.0
 10
42.669937
 20
50.410752
 30
0.0
 10
42.842534
 20
50.438637
 30
0.0
 10
43.000811
 20
50.438637
 30
0.0
  0
SPLINE
  5
171
100
AcDbEntity
  8
Layer_1
 62
1
100
AcDbSpline
 70
8
 71
3
 72
8
 73
4
 74
0
 40
0
 40
0
 40
0
 40
0
 40
1
 40
1
 40
1
 40
1
 10
43.000811
 20
50.438637
 30
0.0
 10
43.124417
 20
50.438637
 30
0.0
 10
43.245762
 20
50.422811
 30
0.0
 10
43.364845
 20
50.391158
 30
0.0
  0
SPLINE
  5
172
100
AcDbEntity
  8
Layer_1
 62
1
100
AcDbSpline
 70
8
 71
3
 72
8
 73
4
 74
0
 40
0
 40
0
 40
0
 40
0
 40
1
 40
1
 40
1
 40
1
 10
43.364845
 20
50.391158
 30
0.0
 10
43.485436
 20
50.361013
 30
0.0
 10
43.579648
 20
50.315041
 30
0.0
 10
43.647480
 20
50.253244
 30
0.0
  0
SPLINE
  5
173
100
AcDbEntity
  8
Layer_1
 62
1
100
AcDbSpline
 70
8
 71
3
 72
8
 73
4
 74
0
 40
0
 40
0
 40
0
 40
0
 40
1
 40
1
 40
1
 40
1
 10
43.647480
 20
50.253244
 30
0.0
 10
43.771086
 20
50.141708
 30
0.0
 10
43.832889
 20
49.953302
 30
0.0
 10
43.832889
 20
49.688027
 30
0.0
  0
SPLINE
  5
174
100
AcDbEntity
  8
Layer_1
 62
1
100
AcDbSpline
 70
8
 71
3
 72
8
 73
4
 74
0
 40
0
 40
0
 40
0
 40
0
 40
1
 40
1
 40
1
 40
1
 10
43.832889
 20
49.688027
 30
0.0
 10
43.832889
 20
49.678983
 30
0.0
 10
43.829875
 20
49.538056
 30
0.0
 10
43.823846
 20
49.265245
 30
0.0
  0
SPLINE
  5
175
100
AcDbEntity
  8
Layer_1
 62
1
100
AcDbSpline
 70
8
 71
3
 72
8
 73
4
 74
0
 40
0
 40
0
 40
0
 40
0
 40
1
 40
1
 40
1
 40
1
 10
43.823846
 20
49.265245
 30
0.0
 10
43.817817
 20
48.992433
 30
0.0
 10
43.814803
 20
48.829650
 30
0.0
 10
43.814803
 20
48.776897
 30
0.0
  0
LWPOLYLINE
  5
176
100
AcDbEntity
  8
Layer_1
 62
1
100
AcDbPolyline
 90
4
 70
0
 10
42.342835
 20
49.823673
 30
0.0
 10
42.189080
 20
49.828201
 30
0.0
 10
42.096375
 20
50.174115
 30
0.0
 10
42.109943
 20
50.194462
 30
0.0
  0
LWPOLYLINE
  5
177
100
AcDbEntity
  8
Layer_1
 62
1
100
AcDbPolyline
 90
1
 70
1
 10
43.814803
 20
48.776897
 30
0.0
  0
SPLINE
  5
178
100
AcDbEntity
  8
Layer_1
 62
1
100
AcDbSpline
 70
8
 71
3
 72
8
 73
4
 74
0
 40
0
 40
0
 40
0
 40
0
 40
1
 40
1
 40
1
 40
1
 10
44.567742
 20
48.932895
 30
0.0
 10
44.694363
 20
48.685707
 30
0.0
 10
44.859422
 20
48.562866
 30
0.0
 10
45.062920
 20
48.564373
 30
0.0
  0
SPLINE
  5
179
100
AcDbEntity
  8
Layer_1
 62
1
100
AcDbSpline
 70
8
 71
3
 72
8
 73
4
 74
0
 40
0
 40
0
 40
0
 40
0
 40
1
 40
1
 40
1
 40
1
 10
45.062920
 20
48.564373
 30
0.0
 10
45.133767
 20
48.564373
 30
0.0
 10
45.188033
 20
48.567387
 30
0.0
 10
45.225718
 20
48.573415
 30
0.0
  0
SPLINE
  5
17a
100
AcDbEntity
  8
Layer_1
 62
1
100
AcDbSpline
 70
8
 71
3
 72
8
 73
4
 74
0
 40
0
 40
0
 40
0
 40
0
 40
1
 40
1
 40
1
 40
1
 10
45.225718
 20
48.573415
 30
0.0
 10
45.264910
 20
48.579444
 30
0.0
 10
45.300334
 20
48.599791
 30
0.0
 10
45.331989
 20
48.634459
 30
0.0
  0
SPLINE
  5
17b
100
AcDbEntity
  8
Layer_1
 62
1
100
AcDbSpline
 70
8
 71
3
 72
8
 73
4
 74
0
 40
0
 40
0
 40
0
 40
0
 40
1
 40
1
 40
1
 40
1
 10
45.331989
 20
48.634459
 30
0.0
 10
45.365152
 20
48.670633
 30
0.0
 10
45.381733
 20
48.722633
 30
0.0
 10
45.381733
 20
48.790459
 30
0.0
  0
SPLINE
  5
17c
100
AcDbEntity
  8
Layer_1
 62
1
100
AcDbSpline
 70
8
 71
3
 72
8
 73
4
 74
0
 40
0
 40
0
 40
0
 40
0
 40
1
 40
1
 40
1
 40
1
 10
45.381733
 20
48.790459
 30
0.0
 10
45.381733
 20
48.879387
 30
0.0
 10
45.352339
 20
48.953242
 30
0.0
 10
45.293550
 20
49.012025
 30
0.0
  0
SPLINE
  5
17d
100
AcDbEntity
  8
Layer_1
 62
1
100
AcDbSpline
 70
8
 71
3
 72
8
 73
4
 74
0
 40
0
 40
0
 40
0
 40
0
 40
1
 40
1
 40
1
 40
1
 10
45.293550
 20
49.012025
 30
0.0
 10
45.236269
 20
49.070807
 30
0.0
 10
45.119447
 20
49.148430
 30
0.0
 10
44.943082
 20
49.244893
 30
0.0
  0
SPLINE
  5
17e
100
AcDbEntity
  8
Layer_1
 62
1
100
AcDbSpline
 70
8
 71
3
 72
8
 73
4
 74
0
 40
0
 40
0
 40
0
 40
0
 40
1
 40
1
 40
1
 40
1
 10
44.943082
 20
49.244893
 30
0.0
 10
44.786313
 20
49.330807
 30
0.0
 10
44.664968
 20
49.420488
 30
0.0
 10
44.579047
 20
49.513938
 30
0.0
  0
SPLINE
  5
17f
100
AcDbEntity
  8
Layer_1
 62
1
100
AcDbSpline
 70
8
 71
3
 72
8
 73
4
 74
0
 40
0
 40
0
 40
0
 40
0
 40
1
 40
1
 40
1
 40
1
 10
44.579047
 20
49.513938
 30
0.0
 10
44.494633
 20
49.608894
 30
0.0
 10
44.452426
 20
49.730227
 30
0.0
 10
44.452426
 20
49.877938
 30
0.0
  0
SPLINE
  5
180
100
AcDbEntity
  8
Layer_1
 62
1
100
AcDbSpline
 70
8
 71
3
 72
8
 73
4
 74
0
 40
0
 40
0
 40
0
 40
0
 40
1
 40
1
 40
1
 40
1
 10
44.452426
 20
49.877938
 30
0.0
 10
44.452426
 20
50.051271
 30
0.0
 10
44.527795
 20
50.187676
 30
0.0
 10
44.678535
 20
50.287155
 30
0.0
  0
SPLINE
  5
181
100
AcDbEntity
  8
Layer_1
 62
1
100
AcDbSpline
 70
8
 71
3
 72
8
 73
4
 74
0
 40
0
 40
0
 40
0
 40
0
 40
1
 40
1
 40
1
 40
1
 10
44.678535
 20
50.287155
 30
0.0
 10
44.830781
 20
50.388141
 30
0.0
 10
45.016191
 20
50.438634
 30
0.0
 10
45.234763
 20
50.438634
 30
0.0
  0
SPLINE
  5
182
100
AcDbEntity
  8
Layer_1
 62
1
100
AcDbSpline
 70
8
 71
3
 72
8
 73
4
 74
0
 40
0
 40
0
 40
0
 40
0
 40
1
 40
1
 40
1
 40
1
 10
45.234763
 20
50.438634
 30
0.0
 10
45.500063
 20
50.438634
 30
0.0
 10
45.705068
 20
50.398692
 30
0.0
 10
45.849777
 20
50.318807
 30
0.0
  0
LWPOLYLINE
  5
183
100
AcDbEntity
  8
Layer_1
 62
1
100
AcDbPolyline
 90
2
 70
0
 10
44.429815
 20
48.928368
 30
0.0
 10
44.567742
 20
48.932895
 30
0.0
  0
SPLINE
  5
184
100
AcDbEntity
  8
Layer_1
 62
1
100
AcDbSpline
 70
8
 71
3
 72
8
 73
4
 74
0
 40
0
 40
0
 40
0
 40
0
 40
1
 40
1
 40
1
 40
1
 10
45.646278
 20
49.882454
 30
0.0
 10
45.537746
 20
50.114570
 30
0.0
 10
45.397559
 20
50.230627
 30
0.0
 10
45.225717
 20
50.230627
 30
0.0
  0
SPLINE
  5
185
100
AcDbEntity
  8
Layer_1
 62
1
100
AcDbSpline
 70
8
 71
3
 72
8
 73
4
 74
0
 40
0
 40
0
 40
0
 40
0
 40
1
 40
1
 40
1
 40
1
 10
45.225717
 20
50.230627
 30
0.0
 10
45.074978
 20
50.230627
 30
0.0
 10
44.998854
 20
50.155265
 30
0.0
 10
44.997347
 20
50.004540
 30
0.0
  0
SPLINE
  5
186
100
AcDbEntity
  8
Layer_1
 62
1
100
AcDbSpline
 70
8
 71
3
 72
8
 73
4
 74
0
 40
0
 40
0
 40
0
 40
0
 40
1
 40
1
 40
1
 40
1
 10
44.997347
 20
50.004540
 30
0.0
 10
44.997347
 20
49.936715
 30
0.0
 10
45.020711
 20
49.880193
 30
0.0
 10
45.067440
 20
49.834975
 30
0.0
  0
SPLINE
  5
187
100
AcDbEntity
  8
Layer_1
 62
1
100
AcDbSpline
 70
8
 71
3
 72
8
 73
4
 74
0
 40
0
 40
0
 40
0
 40
0
 40
1
 40
1
 40
1
 40
1
 10
45.067440
 20
49.834975
 30
0.0
 10
45.114169
 20
49.789758
 30
0.0
 10
45.183509
 20
49.742280
 30
0.0
 10
45.275460
 20
49.692541
 30
0.0
  0
SPLINE
  5
188
100
AcDbEntity
  8
Layer_1
 62
1
100
AcDbSpline
 70
8
 71
3
 72
8
 73
4
 74
0
 40
0
 40
0
 40
0
 40
0
 40
1
 40
1
 40
1
 40
1
 10
45.275460
 20
49.692541
 30
0.0
 10
45.287519
 20
49.686513
 30
0.0
 10
45.327465
 20
49.665411
 30
0.0
 10
45.395298
 20
49.629237
 30
0.0
  0
SPLINE
  5
189
100
AcDbEntity
  8
Layer_1
 62
1
100
AcDbSpline
 70
8
 71
3
 72
8
 73
4
 74
0
 40
0
 40
0
 40
0
 40
0
 40
1
 40
1
 40
1
 40
1
 10
45.395298
 20
49.629237
 30
0.0
 10
45.464638
 20
49.594570
 30
0.0
 10
45.506844
 20
49.572715
 30
0.0
 10
45.521918
 20
49.563671
 30
0.0
  0
SPLINE
  5
18a
100
AcDbEntity
  8
Layer_1
 62
1
100
AcDbSpline
 70
8
 71
3
 72
8
 73
4
 74
0
 40
0
 40
0
 40
0
 40
0
 40
1
 40
1
 40
1
 40
1
 10
45.521918
 20
49.563671
 30
0.0
 10
45.536993
 20
49.554627
 30
0.0
 10
45.571663
 20
49.532773
 30
0.0
 10
45.625929
 20
49.498106
 30
0.0
  0
SPLINE
  5
18b
100
AcDbEntity
  8
Layer_1
 62
1
100
AcDbSpline
 70
8
 71
3
 72
8
 73
4
 74
0
 40
0
 40
0
 40
0
 40
0
 40
1
 40
1
 40
1
 40
1
 10
45.625929
 20
49.498106
 30
0.0
 10
45.680195
 20
49.464946
 30
0.0
 10
45.715619
 20
49.438570
 30
0.0
 10
45.732199
 20
49.418975
 30
0.0
  0
SPLINE
  5
18c
100
AcDbEntity
  8
Layer_1
 62
1
100
AcDbSpline
 70
8
 71
3
 72
8
 73
4
 74
0
 40
0
 40
0
 40
0
 40
0
 40
1
 40
1
 40
1
 40
1
 10
45.732199
 20
49.418975
 30
0.0
 10
45.748781
 20
49.400889
 30
0.0
 10
45.774406
 20
49.373005
 30
0.0
 10
45.809076
 20
49.335324
 30
0.0
  0
SPLINE
  5
18d
100
AcDbEntity
  8
Layer_1
 62
1
100
AcDbSpline
 70
8
 71
3
 72
8
 73
4
 74
0
 40
0
 40
0
 40
0
 40
0
 40
1
 40
1
 40
1
 40
1
 10
45.809076
 20
49.335324
 30
0.0
 10
45.845253
 20
49.299150
 30
0.0
 10
45.868618
 20
49.264483
 30
0.0
 10
45.879170
 20
49.231323
 30
0.0
  0
SPLINE
  5
18e
100
AcDbEntity
  8
Layer_1
 62
1
100
AcDbSpline
 70
8
 71
3
 72
8
 73
4
 74
0
 40
0
 40
0
 40
0
 40
0
 40
1
 40
1
 40
1
 40
1
 10
45.879170
 20
49.231323
 30
0.0
 10
45.891229
 20
49.199671
 30
0.0
 10
45.903289
 20
49.161236
 30
0.0
 10
45.915348
 20
49.116019
 30
0.0
  0
SPLINE
  5
18f
100
AcDbEntity
  8
Layer_1
 62
1
100
AcDbSpline
 70
8
 71
3
 72
8
 73
4
 74
0
 40
0
 40
0
 40
0
 40
0
 40
1
 40
1
 40
1
 40
1
 10
45.915348
 20
49.116019
 30
0.0
 10
45.927407
 20
49.072309
 30
0.0
 10
45.933436
 20
49.024077
 30
0.0
 10
45.933436
 20
48.971324
 30
0.0
  0
SPLINE
  5
190
100
AcDbEntity
  8
Layer_1
 62
1
100
AcDbSpline
 70
8
 71
3
 72
8
 73
4
 74
0
 40
0
 40
0
 40
0
 40
0
 40
1
 40
1
 40
1
 40
1
 10
45.933436
 20
48.971324
 30
0.0
 10
45.933436
 20
48.797990
 30
0.0
 10
45.861835
 20
48.652540
 30
0.0
 10
45.718633
 20
48.534975
 30
0.0
  0
SPLINE
  5
191
100
AcDbEntity
  8
Layer_1
 62
1
100
AcDbSpline
 70
8
 71
3
 72
8
 73
4
 74
0
 40
0
 40
0
 40
0
 40
0
 40
1
 40
1
 40
1
 40
1
 10
45.718633
 20
48.534975
 30
0.0
 10
45.575431
 20
48.418917
 30
0.0
 10
45.361382
 20
48.360888
 30
0.0
 10
45.076485
 20
48.360888
 30
0.0
  0
SPLINE
  5
192
100
AcDbEntity
  8
Layer_1
 62
1
100
AcDbSpline
 70
8
 71
3
 72
8
 73
4
 74
0
 40
0
 40
0
 40
0
 40
0
 40
1
 40
1
 40
1
 40
1
 10
45.076485
 20
48.360888
 30
0.0
 10
44.820229
 20
48.360888
 30
0.0
 10
44.579800
 20
48.402337
 30
0.0
 10
44.355198
 20
48.485236
 30
0.0
  0
LWPOLYLINE
  5
193
100
AcDbEntity
  8
Layer_1
 62
1
100
AcDbPolyline
 90
4
 70
0
 10
45.849777
 20
50.318807
 30
0.0
 10
45.858821
 20
50.305242
 30
0.0
 10
45.772899
 20
49.886981
 30
0.0
 10
45.646278
 20
49.882454
 30
0.0
  0
SPLINE
  5
194
100
AcDbEntity
  8
Layer_1
 62
1
100
AcDbSpline
 70
8
 71
3
 72
8
 73
4
 74
0
 40
0
 40
0
 40
0
 40
0
 40
1
 40
1
 40
1
 40
1
 10
46.534887
 20
50.393411
 30
0.0
 10
46.534887
 20
50.605933
 30
0.0
 10
46.541670
 20
50.761180
 30
0.0
 10
46.555236
 20
50.859151
 30
0.0
  0
LWPOLYLINE
  5
195
100
AcDbEntity
  8
Layer_1
 62
1
100
AcDbPolyline
 90
2
 70
0
 10
44.355198
 20
48.485236
 30
0.0
 10
44.429815
 20
48.928368
 30
0.0
  0
SPLINE
  5
196
100
AcDbEntity
  8
Layer_1
 62
1
100
AcDbSpline
 70
8
 71
3
 72
8
 73
4
 74
0
 40
0
 40
0
 40
0
 40
0
 40
1
 40
1
 40
1
 40
1
 10
46.564279
 20
50.874977
 30
0.0
 10
46.620053
 20
50.887035
 30
0.0
 10
46.681856
 20
50.905876
 30
0.0
 10
46.749688
 20
50.931499
 30
0.0
  0
SPLINE
  5
197
100
AcDbEntity
  8
Layer_1
 62
1
100
AcDbSpline
 70
8
 71
3
 72
8
 73
4
 74
0
 40
0
 40
0
 40
0
 40
0
 40
1
 40
1
 40
1
 40
1
 10
46.749688
 20
50.931499
 30
0.0
 10
46.817521
 20
50.958630
 30
0.0
 10
46.892891
 20
50.989528
 30
0.0
 10
46.975797
 20
51.024195
 30
0.0
  0
SPLINE
  5
198
100
AcDbEntity
  8
Layer_1
 62
1
100
AcDbSpline
 70
8
 71
3
 72
8
 73
4
 74
0
 40
0
 40
0
 40
0
 40
0
 40
1
 40
1
 40
1
 40
1
 10
46.975797
 20
51.024195
 30
0.0
 10
47.058704
 20
51.060369
 30
0.0
 10
47.104679
 20
51.079963
 30
0.0
 10
47.113723
 20
51.082977
 30
0.0
  0
SPLINE
  5
199
100
AcDbEntity
  8
Layer_1
 62
1
100
AcDbSpline
 70
8
 71
3
 72
8
 73
4
 74
0
 40
0
 40
0
 40
0
 40
0
 40
1
 40
1
 40
1
 40
1
 10
47.113723
 20
51.082977
 30
0.0
 10
47.140857
 20
51.082977
 30
0.0
 10
47.155177
 20
51.067151
 30
0.0
 10
47.156685
 20
51.035500
 30
0.0
  0
SPLINE
  5
19a
100
AcDbEntity
  8
Layer_1
 62
1
100
AcDbSpline
 70
8
 71
3
 72
8
 73
4
 74
0
 40
0
 40
0
 40
0
 40
0
 40
1
 40
1
 40
1
 40
1
 10
47.156685
 20
51.035500
 30
0.0
 10
47.141611
 20
50.853123
 30
0.0
 10
47.134074
 20
50.639093
 30
0.0
 10
47.134074
 20
50.393411
 30
0.0
  0
LWPOLYLINE
  5
19b
100
AcDbEntity
  8
Layer_1
 62
1
100
AcDbPolyline
 90
2
 70
0
 10
46.555236
 20
50.859151
 30
0.0
 10
46.564279
 20
50.874977
 30
0.0
  0
SPLINE
  5
19c
100
AcDbEntity
  8
Layer_1
 62
1
100
AcDbSpline
 70
8
 71
3
 72
8
 73
4
 74
0
 40
0
 40
0
 40
0
 40
0
 40
1
 40
1
 40
1
 40
1
 10
47.351138
 20
50.393411
 30
0.0
 10
47.459670
 20
50.393411
 30
0.0
 10
47.567449
 20
50.397934
 30
0.0
 10
47.674473
 20
50.406978
 30
0.0
  0
LWPOLYLINE
  5
19d
100
AcDbEntity
  8
Layer_1
 62
1
100
AcDbPolyline
 90
2
 70
0
 10
47.134074
 20
50.393411
 30
0.0
 10
47.351138
 20
50.393411
 30
0.0
  0
SPLINE
  5
19e
100
AcDbEntity
  8
Layer_1
 62
1
100
AcDbSpline
 70
8
 71
3
 72
8
 73
4
 74
0
 40
0
 40
0
 40
0
 40
0
 40
1
 40
1
 40
1
 40
1
 10
47.697084
 20
50.368543
 30
0.0
 10
47.666936
 20
50.294688
 30
0.0
 10
47.648847
 20
50.222340
 30
0.0
 10
47.642818
 20
50.151499
 30
0.0
  0
SPLINE
  5
19f
100
AcDbEntity
  8
Layer_1
 62
1
100
AcDbSpline
 70
8
 71
3
 72
8
 73
4
 74
0
 40
0
 40
0
 40
0
 40
0
 40
1
 40
1
 40
1
 40
1
 10
47.642818
 20
50.151499
 30
0.0
 10
47.581015
 20
50.157528
 30
0.0
 10
47.469468
 20
50.160542
 30
0.0
 10
47.308177
 20
50.160542
 30
0.0
  0
LWPOLYLINE
  5
1a0
100
AcDbEntity
  8
Layer_1
 62
1
100
AcDbPolyline
 90
2
 70
0
 10
47.674473
 20
50.406978
 30
0.0
 10
47.697084
 20
50.368543
 30
0.0
  0
SPLINE
  5
1a1
100
AcDbEntity
  8
Layer_1
 62
1
100
AcDbSpline
 70
8
 71
3
 72
8
 73
4
 74
0
 40
0
 40
0
 40
0
 40
0
 40
1
 40
1
 40
1
 40
1
 10
47.122773
 20
49.665411
 30
0.0
 10
47.119754
 20
49.496600
 30
0.0
 10
47.118245
 20
49.278803
 30
0.0
 10
47.118245
 20
49.012021
 30
0.0
  0
SPLINE
  5
1a2
100
AcDbEntity
  8
Layer_1
 62
1
100
AcDbSpline
 70
8
 71
3
 72
8
 73
4
 74
0
 40
0
 40
0
 40
0
 40
0
 40
1
 40
1
 40
1
 40
1
 10
47.118245
 20
49.012021
 30
0.0
 10
47.118245
 20
48.906513
 30
0.0
 10
47.131811
 20
48.818339
 30
0.0
 10
47.158943
 20
48.747499
 30
0.0
  0
SPLINE
  5
1a3
100
AcDbEntity
  8
Layer_1
 62
1
100
AcDbSpline
 70
8
 71
3
 72
8
 73
4
 74
0
 40
0
 40
0
 40
0
 40
0
 40
1
 40
1
 40
1
 40
1
 10
47.158943
 20
48.747499
 30
0.0
 10
47.187584
 20
48.678165
 30
0.0
 10
47.231299
 20
48.643498
 30
0.0
 10
47.290086
 20
48.643498
 30
0.0
  0
SPLINE
  5
1a4
100
AcDbEntity
  8
Layer_1
 62
1
100
AcDbSpline
 70
8
 71
3
 72
8
 73
4
 74
0
 40
0
 40
0
 40
0
 40
0
 40
1
 40
1
 40
1
 40
1
 10
47.290086
 20
48.643498
 30
0.0
 10
47.395604
 20
48.643498
 30
0.0
 10
47.485294
 20
48.661585
 30
0.0
 10
47.559157
 20
48.697759
 30
0.0
  0
SPLINE
  5
1a5
100
AcDbEntity
  8
Layer_1
 62
1
100
AcDbSpline
 70
8
 71
3
 72
8
 73
4
 74
0
 40
0
 40
0
 40
0
 40
0
 40
1
 40
1
 40
1
 40
1
 10
47.559157
 20
48.697759
 30
0.0
 10
47.611915
 20
48.664599
 30
0.0
 10
47.638293
 20
48.605817
 30
0.0
 10
47.638293
 20
48.521412
 30
0.0
  0
SPLINE
  5
1a6
100
AcDbEntity
  8
Layer_1
 62
1
100
AcDbSpline
 70
8
 71
3
 72
8
 73
4
 74
0
 40
0
 40
0
 40
0
 40
0
 40
1
 40
1
 40
1
 40
1
 10
47.638293
 20
48.521412
 30
0.0
 10
47.458914
 20
48.412890
 30
0.0
 10
47.232052
 20
48.359382
 30
0.0
 10
46.957707
 20
48.360889
 30
0.0
  0
SPLINE
  5
1a7
100
AcDbEntity
  8
Layer_1
 62
1
100
AcDbSpline
 70
8
 71
3
 72
8
 73
4
 74
0
 40
0
 40
0
 40
0
 40
0
 40
1
 40
1
 40
1
 40
1
 10
46.957707
 20
48.360889
 30
0.0
 10
46.819027
 20
48.360889
 30
0.0
 10
46.708988
 20
48.406107
 30
0.0
 10
46.627589
 20
48.496542
 30
0.0
  0
SPLINE
  5
1a8
100
AcDbEntity
  8
Layer_1
 62
1
100
AcDbSpline
 70
8
 71
3
 72
8
 73
4
 74
0
 40
0
 40
0
 40
0
 40
0
 40
1
 40
1
 40
1
 40
1
 10
46.627589
 20
48.496542
 30
0.0
 10
46.547697
 20
48.588484
 30
0.0
 10
46.507751
 20
48.693991
 30
0.0
 10
46.507751
 20
48.813063
 30
0.0
  0
SPLINE
  5
1a9
100
AcDbEntity
  8
Layer_1
 62
1
100
AcDbSpline
 70
8
 71
3
 72
8
 73
4
 74
0
 40
0
 40
0
 40
0
 40
0
 40
1
 40
1
 40
1
 40
1
 10
46.507751
 20
48.813063
 30
0.0
 10
46.507751
 20
48.977353
 30
0.0
 10
46.512273
 20
49.244890
 30
0.0
 10
46.521318
 20
49.615673
 30
0.0
  0
LWPOLYLINE
  5
1aa
100
AcDbEntity
  8
Layer_1
 62
1
100
AcDbPolyline
 90
3
 70
0
 10
47.308177
 20
50.160542
 30
0.0
 10
47.134074
 20
50.160542
 30
0.0
 10
47.122773
 20
49.665411
 30
0.0
  0
SPLINE
  5
1ab
100
AcDbEntity
  8
Layer_1
 62
1
100
AcDbSpline
 70
8
 71
3
 72
8
 73
4
 74
0
 40
0
 40
0
 40
0
 40
0
 40
1
 40
1
 40
1
 40
1
 10
46.534884
 20
50.160542
 30
0.0
 10
46.390175
 20
50.160542
 30
0.0
 10
46.280889
 20
50.157528
 30
0.0
 10
46.207026
 20
50.151499
 30
0.0
  0
LWPOLYLINE
  5
1ac
100
AcDbEntity
  8
Layer_1
 62
1
100
AcDbPolyline
 90
2
 70
0
 10
46.521318
 20
49.615673
 30
0.0
 10
46.534884
 20
50.160542
 30
0.0
  0
SPLINE
  5
1ad
100
AcDbEntity
  8
Layer_1
 62
1
100
AcDbSpline
 70
8
 71
3
 72
8
 73
4
 74
0
 40
0
 40
0
 40
0
 40
0
 40
1
 40
1
 40
1
 40
1
 10
46.184416
 20
50.183150
 30
0.0
 10
46.225115
 20
50.244948
 30
0.0
 10
46.259031
 20
50.319557
 30
0.0
 10
46.286165
 20
50.406978
 30
0.0
  0
SPLINE
  5
1ae
100
AcDbEntity
  8
Layer_1
 62
1
100
AcDbSpline
 70
8
 71
3
 72
8
 73
4
 74
0
 40
0
 40
0
 40
0
 40
0
 40
1
 40
1
 40
1
 40
1
 10
46.286165
 20
50.406978
 30
0.0
 10
46.352490
 20
50.397934
 30
0.0
 10
46.435396
 20
50.393411
 30
0.0
 10
46.534884
 20
50.393411
 30
0.0
  0
LWPOLYLINE
  5
1af
100
AcDbEntity
  8
Layer_1
 62
1
100
AcDbPolyline
 90
2
 70
0
 10
46.207026
 20
50.151499
 30
0.0
 10
46.184416
 20
50.183150
 30
0.0
  0
LWPOLYLINE
  5
1b0
100
AcDbEntity
  8
Layer_1
 62
1
100
AcDbPolyline
 90
1
 70
1
 10
46.534884
 20
50.393411
 30
0.0
  0
SPLINE
  5
1b1
100
AcDbEntity
  8
Layer_1
 62
1
100
AcDbSpline
 70
8
 71
3
 72
8
 73
4
 74
0
 40
0
 40
0
 40
0
 40
0
 40
1
 40
1
 40
1
 40
1
 10
50.410387
 20
50.142456
 30
0.0
 10
50.595796
 20
50.142456
 30
0.0
 10
50.720910
 20
50.180137
 30
0.0
 10
50.785728
 20
50.255499
 30
0.0
  0
SPLINE
  5
1b2
100
AcDbEntity
  8
Layer_1
 62
1
100
AcDbSpline
 70
8
 71
3
 72
8
 73
4
 74
0
 40
0
 40
0
 40
0
 40
0
 40
1
 40
1
 40
1
 40
1
 10
50.785728
 20
50.255499
 30
0.0
 10
50.852053
 20
50.330862
 30
0.0
 10
50.885216
 20
50.456716
 30
0.0
 10
50.885216
 20
50.633064
 30
0.0
  0
SPLINE
  5
1b3
100
AcDbEntity
  8
Layer_1
 62
1
100
AcDbSpline
 70
8
 71
3
 72
8
 73
4
 74
0
 40
0
 40
0
 40
0
 40
0
 40
1
 40
1
 40
1
 40
1
 10
50.885216
 20
50.633064
 30
0.0
 10
50.885216
 20
50.827499
 30
0.0
 10
50.850546
 20
50.963905
 30
0.0
 10
50.781205
 20
51.042282
 30
0.0
  0
SPLINE
  5
1b4
100
AcDbEntity
  8
Layer_1
 62
1
100
AcDbSpline
 70
8
 71
3
 72
8
 73
4
 74
0
 40
0
 40
0
 40
0
 40
0
 40
1
 40
1
 40
1
 40
1
 10
50.781205
 20
51.042282
 30
0.0
 10
50.711866
 20
51.122166
 30
0.0
 10
50.607856
 20
51.162108
 30
0.0
 10
50.469176
 20
51.162108
 30
0.0
  0
SPLINE
  5
1b5
100
AcDbEntity
  8
Layer_1
 62
1
100
AcDbSpline
 70
8
 71
3
 72
8
 73
4
 74
0
 40
0
 40
0
 40
0
 40
0
 40
1
 40
1
 40
1
 40
1
 10
50.469176
 20
51.162108
 30
0.0
 10
50.289796
 20
51.162108
 30
0.0
 10
50.174481
 20
51.147035
 30
0.0
 10
50.123229
 20
51.116890
 30
0.0
  0
SPLINE
  5
1b6
100
AcDbEntity
  8
Layer_1
 62
1
100
AcDbSpline
 70
8
 71
3
 72
8
 73
4
 74
0
 40
0
 40
0
 40
0
 40
0
 40
1
 40
1
 40
1
 40
1
 10
50.123229
 20
51.116890
 30
0.0
 10
50.073486
 20
51.086746
 30
0.0
 10
50.048614
 20
51.031731
 30
0.0
 10
50.048614
 20
50.951846
 30
0.0
  0
LWPOLYLINE
  5
1b7
100
AcDbEntity
  8
Layer_1
 62
1
100
AcDbPolyline
 90
3
 70
0
 10
50.048614
 20
50.951846
 30
0.0
 10
50.048614
 20
50.142456
 30
0.0
 10
50.410387
 20
50.142456
 30
0.0
  0
LWPOLYLINE
  5
1b8
100
AcDbEntity
  8
Layer_1
 62
1
100
AcDbPolyline
 90
1
 70
1
 10
50.048614
 20
50.951846
 30
0.0
  0
SPLINE
  5
1b9
100
AcDbEntity
  8
Layer_1
 62
1
100
AcDbSpline
 70
8
 71
3
 72
8
 73
4
 74
0
 40
0
 40
0
 40
0
 40
0
 40
1
 40
1
 40
1
 40
1
 10
50.048614
 20
48.856021
 30
0.0
 10
50.048614
 20
48.776136
 30
0.0
 10
50.075747
 20
48.719614
 30
0.0
 10
50.130012
 20
48.686456
 30
0.0
  0
SPLINE
  5
1ba
100
AcDbEntity
  8
Layer_1
 62
1
100
AcDbSpline
 70
8
 71
3
 72
8
 73
4
 74
0
 40
0
 40
0
 40
0
 40
0
 40
1
 40
1
 40
1
 40
1
 10
50.130012
 20
48.686456
 30
0.0
 10
50.185787
 20
48.653296
 30
0.0
 10
50.292812
 20
48.636716
 30
0.0
 10
50.451087
 20
48.636716
 30
0.0
  0
SPLINE
  5
1bb
100
AcDbEntity
  8
Layer_1
 62
1
100
AcDbSpline
 70
8
 71
3
 72
8
 73
4
 74
0
 40
0
 40
0
 40
0
 40
0
 40
1
 40
1
 40
1
 40
1
 10
50.451087
 20
48.636716
 30
0.0
 10
50.601827
 20
48.636716
 30
0.0
 10
50.722418
 20
48.648020
 30
0.0
 10
50.812861
 20
48.670629
 30
0.0
  0
SPLINE
  5
1bc
100
AcDbEntity
  8
Layer_1
 62
1
100
AcDbSpline
 70
8
 71
3
 72
8
 73
4
 74
0
 40
0
 40
0
 40
0
 40
0
 40
1
 40
1
 40
1
 40
1
 10
50.812861
 20
48.670629
 30
0.0
 10
50.904811
 20
48.694745
 30
0.0
 10
50.970383
 20
48.733933
 30
0.0
 10
51.009576
 20
48.788194
 30
0.0
  0
SPLINE
  5
1bd
100
AcDbEntity
  8
Layer_1
 62
1
100
AcDbSpline
 70
8
 71
3
 72
8
 73
4
 74
0
 40
0
 40
0
 40
0
 40
0
 40
1
 40
1
 40
1
 40
1
 10
51.009576
 20
48.788194
 30
0.0
 10
51.050275
 20
48.842455
 30
0.0
 10
51.075901
 20
48.895209
 30
0.0
 10
51.086452
 20
48.946455
 30
0.0
  0
SPLINE
  5
1be
100
AcDbEntity
  8
Layer_1
 62
1
100
AcDbSpline
 70
8
 71
3
 72
8
 73
4
 74
0
 40
0
 40
0
 40
0
 40
0
 40
1
 40
1
 40
1
 40
1
 10
51.086452
 20
48.946455
 30
0.0
 10
51.098512
 20
48.999209
 30
0.0
 10
51.104542
 20
49.073818
 30
0.0
 10
51.104542
 20
49.170281
 30
0.0
  0
SPLINE
  5
1bf
100
AcDbEntity
  8
Layer_1
 62
1
100
AcDbSpline
 70
8
 71
3
 72
8
 73
4
 74
0
 40
0
 40
0
 40
0
 40
0
 40
1
 40
1
 40
1
 40
1
 10
51.104542
 20
49.170281
 30
0.0
 10
51.104542
 20
49.655614
 30
0.0
 10
50.895768
 20
49.897527
 30
0.0
 10
50.478220
 20
49.896020
 30
0.0
  0
LWPOLYLINE
  5
1c0
100
AcDbEntity
  8
Layer_1
 62
1
100
AcDbPolyline
 90
2
 70
0
 10
50.048614
 20
49.896020
 30
0.0
 10
50.048614
 20
48.856021
 30
0.0
  0
SPLINE
  5
1c1
100
AcDbEntity
  8
Layer_1
 62
1
100
AcDbSpline
 70
8
 71
3
 72
8
 73
4
 74
0
 40
0
 40
0
 40
0
 40
0
 40
1
 40
1
 40
1
 40
1
 10
49.732062
 20
51.392716
 30
0.0
 10
49.840594
 20
51.392716
 30
0.0
 10
49.982289
 20
51.394978
 30
0.0
 10
50.157146
 20
51.399501
 30
0.0
  0
SPLINE
  5
1c2
100
AcDbEntity
  8
Layer_1
 62
1
100
AcDbSpline
 70
8
 71
3
 72
8
 73
4
 74
0
 40
0
 40
0
 40
0
 40
0
 40
1
 40
1
 40
1
 40
1
 10
50.157146
 20
51.399501
 30
0.0
 10
50.332003
 20
51.404024
 30
0.0
 10
50.440535
 20
51.406286
 30
0.0
 10
50.482743
 20
51.406286
 30
0.0
  0
SPLINE
  5
1c3
100
AcDbEntity
  8
Layer_1
 62
1
100
AcDbSpline
 70
8
 71
3
 72
8
 73
4
 74
0
 40
0
 40
0
 40
0
 40
0
 40
1
 40
1
 40
1
 40
1
 10
50.482743
 20
51.406286
 30
0.0
 10
50.686240
 20
51.406286
 30
0.0
 10
50.862605
 20
51.383677
 30
0.0
 10
51.011837
 20
51.338459
 30
0.0
  0
SPLINE
  5
1c4
100
AcDbEntity
  8
Layer_1
 62
1
100
AcDbSpline
 70
8
 71
3
 72
8
 73
4
 74
0
 40
0
 40
0
 40
0
 40
0
 40
1
 40
1
 40
1
 40
1
 10
51.011837
 20
51.338459
 30
0.0
 10
51.162575
 20
51.294749
 30
0.0
 10
51.276383
 20
51.235213
 30
0.0
 10
51.353261
 20
51.159850
 30
0.0
  0
SPLINE
  5
1c5
100
AcDbEntity
  8
Layer_1
 62
1
100
AcDbSpline
 70
8
 71
3
 72
8
 73
4
 74
0
 40
0
 40
0
 40
0
 40
0
 40
1
 40
1
 40
1
 40
1
 10
51.353261
 20
51.159850
 30
0.0
 10
51.430138
 20
51.085996
 30
0.0
 10
51.486665
 20
51.010634
 30
0.0
 10
51.522842
 20
50.933764
 30
0.0
  0
SPLINE
  5
1c6
100
AcDbEntity
  8
Layer_1
 62
1
100
AcDbSpline
 70
8
 71
3
 72
8
 73
4
 74
0
 40
0
 40
0
 40
0
 40
0
 40
1
 40
1
 40
1
 40
1
 10
51.522842
 20
50.933764
 30
0.0
 10
51.559020
 20
50.856895
 30
0.0
 10
51.577109
 20
50.775503
 30
0.0
 10
51.577109
 20
50.689590
 30
0.0
  0
SPLINE
  5
1c7
100
AcDbEntity
  8
Layer_1
 62
1
100
AcDbSpline
 70
8
 71
3
 72
8
 73
4
 74
0
 40
0
 40
0
 40
0
 40
0
 40
1
 40
1
 40
1
 40
1
 10
51.577109
 20
50.689590
 30
0.0
 10
51.577109
 20
50.569010
 30
0.0
 10
51.529626
 20
50.451445
 30
0.0
 10
51.434660
 20
50.336895
 30
0.0
  0
SPLINE
  5
1c8
100
AcDbEntity
  8
Layer_1
 62
1
100
AcDbSpline
 70
8
 71
3
 72
8
 73
4
 74
0
 40
0
 40
0
 40
0
 40
0
 40
1
 40
1
 40
1
 40
1
 10
51.434660
 20
50.336895
 30
0.0
 10
51.341201
 20
50.222344
 30
0.0
 10
51.229654
 20
50.134170
 30
0.0
 10
51.100019
 20
50.072373
 30
0.0
  0
SPLINE
  5
1c9
100
AcDbEntity
  8
Layer_1
 62
1
100
AcDbSpline
 70
8
 71
3
 72
8
 73
4
 74
0
 40
0
 40
0
 40
0
 40
0
 40
1
 40
1
 40
1
 40
1
 10
51.100019
 20
50.072373
 30
0.0
 10
51.321605
 20
50.007561
 30
0.0
 10
51.501739
 20
49.907329
 30
0.0
 10
51.640419
 20
49.771677
 30
0.0
  0
SPLINE
  5
1ca
100
AcDbEntity
  8
Layer_1
 62
1
100
AcDbSpline
 70
8
 71
3
 72
8
 73
4
 74
0
 40
0
 40
0
 40
0
 40
0
 40
1
 40
1
 40
1
 40
1
 10
51.640419
 20
49.771677
 30
0.0
 10
51.779099
 20
49.636025
 30
0.0
 10
51.848439
 20
49.464952
 30
0.0
 10
51.848439
 20
49.258459
 30
0.0
  0
SPLINE
  5
1cb
100
AcDbEntity
  8
Layer_1
 62
1
100
AcDbSpline
 70
8
 71
3
 72
8
 73
4
 74
0
 40
0
 40
0
 40
0
 40
0
 40
1
 40
1
 40
1
 40
1
 10
51.848439
 20
49.258459
 30
0.0
 10
51.848439
 20
49.029358
 30
0.0
 10
51.743675
 20
48.827387
 30
0.0
 10
51.534147
 20
48.652546
 30
0.0
  0
SPLINE
  5
1cc
100
AcDbEntity
  8
Layer_1
 62
1
100
AcDbSpline
 70
8
 71
3
 72
8
 73
4
 74
0
 40
0
 40
0
 40
0
 40
0
 40
1
 40
1
 40
1
 40
1
 10
51.534147
 20
48.652546
 30
0.0
 10
51.324620
 20
48.479212
 30
0.0
 10
51.008068
 20
48.392545
 30
0.0
 10
50.584492
 20
48.392545
 30
0.0
  0
SPLINE
  5
1cd
100
AcDbEntity
  8
Layer_1
 62
1
100
AcDbSpline
 70
8
 71
3
 72
8
 73
4
 74
0
 40
0
 40
0
 40
0
 40
0
 40
1
 40
1
 40
1
 40
1
 10
50.584492
 20
48.392545
 30
0.0
 10
50.439782
 20
48.392545
 30
0.0
 10
50.287536
 20
48.394807
 30
0.0
 10
50.127752
 20
48.399330
 30
0.0
  0
SPLINE
  5
1ce
100
AcDbEntity
  8
Layer_1
 62
1
100
AcDbSpline
 70
8
 71
3
 72
8
 73
4
 74
0
 40
0
 40
0
 40
0
 40
0
 40
1
 40
1
 40
1
 40
1
 10
50.127752
 20
48.399330
 30
0.0
 10
49.969476
 20
48.403854
 30
0.0
 10
49.837579
 20
48.406115
 30
0.0
 10
49.732062
 20
48.406115
 30
0.0
  0
LWPOLYLINE
  5
1cf
100
AcDbEntity
  8
Layer_1
 62
1
100
AcDbPolyline
 90
2
 70
0
 10
50.478220
 20
49.896020
 30
0.0
 10
50.048614
 20
49.896020
 30
0.0
  0
SPLINE
  5
1d0
100
AcDbEntity
  8
Layer_1
 62
1
100
AcDbSpline
 70
8
 71
3
 72
8
 73
4
 74
0
 40
0
 40
0
 40
0
 40
0
 40
1
 40
1
 40
1
 40
1
 10
49.334104
 20
48.406115
 30
0.0
 10
49.371789
 20
48.656318
 30
0.0
 10
49.390631
 20
48.965303
 30
0.0
 10
49.390631
 20
49.333072
 30
0.0
  0
LWPOLYLINE
  5
1d1
100
AcDbEntity
  8
Layer_1
 62
1
100
AcDbPolyline
 90
3
 70
0
 10
49.732062
 20
48.406115
 30
0.0
 10
49.338632
 20
48.392549
 30
0.0
 10
49.334104
 20
48.406115
 30
0.0
  0
SPLINE
  5
1d2
100
AcDbEntity
  8
Layer_1
 62
1
100
AcDbSpline
 70
8
 71
3
 72
8
 73
4
 74
0
 40
0
 40
0
 40
0
 40
0
 40
1
 40
1
 40
1
 40
1
 10
49.390631
 20
50.465768
 30
0.0
 10
49.390631
 20
50.821478
 30
0.0
 10
49.371789
 20
51.130463
 30
0.0
 10
49.334104
 20
51.392724
 30
0.0
  0
LWPOLYLINE
  5
1d3
100
AcDbEntity
  8
Layer_1
 62
1
100
AcDbPolyline
 90
2
 70
0
 10
49.390631
 20
49.333072
 30
0.0
 10
49.390631
 20
50.465768
 30
0.0
  0
SPLINE
  5
1d4
100
AcDbEntity
  8
Layer_1
 62
1
100
AcDbSpline
 70
8
 71
3
 72
8
 73
4
 74
0
 40
0
 40
0
 40
0
 40
0
 40
1
 40
1
 40
1
 40
1
 10
49.343147
 20
51.406290
 30
0.0
 10
49.496901
 20
51.397246
 30
0.0
 10
49.626536
 20
51.392724
 30
0.0
 10
49.732054
 20
51.392724
 30
0.0
  0
LWPOLYLINE
  5
1d5
100
AcDbEntity
  8
Layer_1
 62
1
100
AcDbPolyline
 90
2
 70
0
 10
49.334104
 20
51.392724
 30
0.0
 10
49.343147
 20
51.406290
 30
0.0
  0
LWPOLYLINE
  5
1d6
100
AcDbEntity
  8
Layer_1
 62
1
100
AcDbPolyline
 90
1
 70
1
 10
49.732054
 20
51.392724
 30
0.0
  0
SPLINE
  5
1d7
100
AcDbEntity
  8
Layer_1
 62
1
100
AcDbSpline
 70
8
 71
3
 72
8
 73
4
 74
0
 40
0
 40
0
 40
0
 40
0
 40
1
 40
1
 40
1
 40
1
 10
52.436321
 20
50.601413
 30
0.0
 10
52.436321
 20
50.975209
 30
0.0
 10
52.418232
 20
51.265354
 30
0.0
 10
52.382055
 20
51.471847
 30
0.0
  0
LWPOLYLINE
  5
1d8
100
AcDbEntity
  8
Layer_1
 62
1
100
AcDbPolyline
 90
2
 70
0
 10
52.436321
 20
49.333064
 30
0.0
 10
52.436321
 20
50.601413
 30
0.0
  0
SPLINE
  5
1d9
100
AcDbEntity
  8
Layer_1
 62
1
100
AcDbSpline
 70
8
 71
3
 72
8
 73
4
 74
0
 40
0
 40
0
 40
0
 40
0
 40
1
 40
1
 40
1
 40
1
 10
52.391098
 20
51.485412
 30
0.0
 10
52.477020
 20
51.491440
 30
0.0
 10
52.592336
 20
51.511788
 30
0.0
 10
52.737045
 20
51.546456
 30
0.0
  0
SPLINE
  5
1da
100
AcDbEntity
  8
Layer_1
 62
1
100
AcDbSpline
 70
8
 71
3
 72
8
 73
4
 74
0
 40
0
 40
0
 40
0
 40
0
 40
1
 40
1
 40
1
 40
1
 10
52.737045
 20
51.546456
 30
0.0
 10
52.883262
 20
51.582630
 30
0.0
 10
52.988779
 20
51.613529
 30
0.0
 10
53.053597
 20
51.639152
 30
0.0
  0
SPLINE
  5
1db
100
AcDbEntity
  8
Layer_1
 62
1
100
AcDbSpline
 70
8
 71
3
 72
8
 73
4
 74
0
 40
0
 40
0
 40
0
 40
0
 40
1
 40
1
 40
1
 40
1
 10
53.053597
 20
51.639152
 30
0.0
 10
53.088267
 20
51.639152
 30
0.0
 10
53.104848
 20
51.623326
 30
0.0
 10
53.103340
 20
51.591673
 30
0.0
  0
SPLINE
  5
1dc
100
AcDbEntity
  8
Layer_1
 62
1
100
AcDbSpline
 70
8
 71
3
 72
8
 73
4
 74
0
 40
0
 40
0
 40
0
 40
0
 40
1
 40
1
 40
1
 40
1
 10
53.103340
 20
51.591673
 30
0.0
 10
53.065656
 20
51.294745
 30
0.0
 10
53.046814
 20
51.004600
 30
0.0
 10
53.046814
 20
50.721238
 30
0.0
  0
LWPOLYLINE
  5
1dd
100
AcDbEntity
  8
Layer_1
 62
1
100
AcDbPolyline
 90
2
 70
0
 10
52.382055
 20
51.471847
 30
0.0
 10
52.391098
 20
51.485412
 30
0.0
  0
SPLINE
  5
1de
100
AcDbEntity
  8
Layer_1
 62
1
100
AcDbSpline
 70
8
 71
3
 72
8
 73
4
 74
0
 40
0
 40
0
 40
0
 40
0
 40
1
 40
1
 40
1
 40
1
 10
53.046814
 20
49.333064
 30
0.0
 10
53.046814
 20
48.962281
 30
0.0
 10
53.065656
 20
48.653296
 30
0.0
 10
53.103340
 20
48.406107
 30
0.0
  0
LWPOLYLINE
  5
1df
100
AcDbEntity
  8
Layer_1
 62
1
100
AcDbPolyline
 90
2
 70
0
 10
53.046814
 20
50.721238
 30
0.0
 10
53.046814
 20
49.333064
 30
0.0
  0
SPLINE
  5
1e0
100
AcDbEntity
  8
Layer_1
 62
1
100
AcDbSpline
 70
8
 71
3
 72
8
 73
4
 74
0
 40
0
 40
0
 40
0
 40
0
 40
1
 40
1
 40
1
 40
1
 10
53.094297
 20
48.392541
 30
0.0
 10
52.964662
 20
48.401585
 30
0.0
 10
52.847086
 20
48.406107
 30
0.0
 10
52.741568
 20
48.406107
 30
0.0
  0
LWPOLYLINE
  5
1e1
100
AcDbEntity
  8
Layer_1
 62
1
100
AcDbPolyline
 90
2
 70
0
 10
53.103340
 20
48.406107
 30
0.0
 10
53.094297
 20
48.392541
 30
0.0
  0
SPLINE
  5
1e2
100
AcDbEntity
  8
Layer_1
 62
1
100
AcDbSpline
 70
8
 71
3
 72
8
 73
4
 74
0
 40
0
 40
0
 40
0
 40
0
 40
1
 40
1
 40
1
 40
1
 10
52.382050
 20
48.406107
 30
0.0
 10
52.418227
 20
48.641238
 30
0.0
 10
52.436316
 20
48.950223
 30
0.0
 10
52.436316
 20
49.333064
 30
0.0
  0
LWPOLYLINE
  5
1e3
100
AcDbEntity
  8
Layer_1
 62
1
100
AcDbPolyline
 90
3
 70
0
 10
52.741568
 20
48.406107
 30
0.0
 10
52.386578
 20
48.392541
 30
0.0
 10
52.382050
 20
48.406107
 30
0.0
  0
LWPOLYLINE
  5
1e4
100
AcDbEntity
  8
Layer_1
 62
1
100
AcDbPolyline
 90
1
 70
1
 10
52.436316
 20
49.333064
 30
0.0
  0
SPLINE
  5
1e5
100
AcDbEntity
  8
Layer_1
 62
1
100
AcDbSpline
 70
8
 71
3
 72
8
 73
4
 74
0
 40
0
 40
0
 40
0
 40
0
 40
1
 40
1
 40
1
 40
1
 10
54.514261
 20
49.337586
 30
0.0
 10
54.319808
 20
49.284832
 30
0.0
 10
54.222581
 20
49.139383
 30
0.0
 10
54.222581
 20
48.901238
 30
0.0
  0
SPLINE
  5
1e6
100
AcDbEntity
  8
Layer_1
 62
1
100
AcDbSpline
 70
8
 71
3
 72
8
 73
4
 74
0
 40
0
 40
0
 40
0
 40
0
 40
1
 40
1
 40
1
 40
1
 10
54.222581
 20
48.901238
 30
0.0
 10
54.222581
 20
48.836426
 30
0.0
 10
54.245946
 20
48.776136
 30
0.0
 10
54.292675
 20
48.720368
 30
0.0
  0
SPLINE
  5
1e7
100
AcDbEntity
  8
Layer_1
 62
1
100
AcDbSpline
 70
8
 71
3
 72
8
 73
4
 74
0
 40
0
 40
0
 40
0
 40
0
 40
1
 40
1
 40
1
 40
1
 10
54.292675
 20
48.720368
 30
0.0
 10
54.339404
 20
48.664600
 30
0.0
 10
54.396685
 20
48.636716
 30
0.0
 10
54.464518
 20
48.636716
 30
0.0
  0
SPLINE
  5
1e8
100
AcDbEntity
  8
Layer_1
 62
1
100
AcDbSpline
 70
8
 71
3
 72
8
 73
4
 74
0
 40
0
 40
0
 40
0
 40
0
 40
1
 40
1
 40
1
 40
1
 10
54.464518
 20
48.636716
 30
0.0
 10
54.588124
 20
48.636716
 30
0.0
 10
54.701932
 20
48.689470
 30
0.0
 10
54.805942
 20
48.794977
 30
0.0
  0
SPLINE
  5
1e9
100
AcDbEntity
  8
Layer_1
 62
1
100
AcDbSpline
 70
8
 71
3
 72
8
 73
4
 74
0
 40
0
 40
0
 40
0
 40
0
 40
1
 40
1
 40
1
 40
1
 10
54.805942
 20
48.794977
 30
0.0
 10
54.821016
 20
48.810050
 30
0.0
 10
54.836089
 20
48.840948
 30
0.0
 10
54.851163
 20
48.887673
 30
0.0
  0
SPLINE
  5
1ea
100
AcDbEntity
  8
Layer_1
 62
1
100
AcDbSpline
 70
8
 71
3
 72
8
 73
4
 74
0
 40
0
 40
0
 40
0
 40
0
 40
1
 40
1
 40
1
 40
1
 10
54.851163
 20
48.887673
 30
0.0
 10
54.867745
 20
48.934398
 30
0.0
 10
54.876036
 20
48.972832
 30
0.0
 10
54.876036
 20
49.002977
 30
0.0
  0
LWPOLYLINE
  5
1eb
100
AcDbEntity
  8
Layer_1
 62
1
100
AcDbPolyline
 90
2
 70
0
 10
54.885079
 20
49.434803
 30
0.0
 10
54.514261
 20
49.337586
 30
0.0
  0
SPLINE
  5
1ec
100
AcDbEntity
  8
Layer_1
 62
1
100
AcDbSpline
 70
8
 71
3
 72
8
 73
4
 74
0
 40
0
 40
0
 40
0
 40
0
 40
1
 40
1
 40
1
 40
1
 10
55.468439
 20
48.776890
 30
0.0
 10
55.468439
 20
48.706050
 30
0.0
 10
55.488789
 20
48.660079
 30
0.0
 10
55.529488
 20
48.638977
 30
0.0
  0
SPLINE
  5
1ed
100
AcDbEntity
  8
Layer_1
 62
1
100
AcDbSpline
 70
8
 71
3
 72
8
 73
4
 74
0
 40
0
 40
0
 40
0
 40
0
 40
1
 40
1
 40
1
 40
1
 10
55.529488
 20
48.638977
 30
0.0
 10
55.571696
 20
48.619382
 30
0.0
 10
55.645558
 20
48.609585
 30
0.0
 10
55.751076
 20
48.609585
 30
0.0
  0
SPLINE
  5
1ee
100
AcDbEntity
  8
Layer_1
 62
1
100
AcDbSpline
 70
8
 71
3
 72
8
 73
4
 74
0
 40
0
 40
0
 40
0
 40
0
 40
1
 40
1
 40
1
 40
1
 10
55.751076
 20
48.609585
 30
0.0
 10
55.775194
 20
48.588483
 30
0.0
 10
55.790268
 20
48.556078
 30
0.0
 10
55.796297
 20
48.512368
 30
0.0
  0
SPLINE
  5
1ef
100
AcDbEntity
  8
Layer_1
 62
1
100
AcDbSpline
 70
8
 71
3
 72
8
 73
4
 74
0
 40
0
 40
0
 40
0
 40
0
 40
1
 40
1
 40
1
 40
1
 10
55.796297
 20
48.512368
 30
0.0
 10
55.663647
 20
48.409875
 30
0.0
 10
55.480499
 20
48.359382
 30
0.0
 10
55.246853
 20
48.360889
 30
0.0
  0
SPLINE
  5
1f0
100
AcDbEntity
  8
Layer_1
 62
1
100
AcDbSpline
 70
8
 71
3
 72
8
 73
4
 74
0
 40
0
 40
0
 40
0
 40
0
 40
1
 40
1
 40
1
 40
1
 10
55.246853
 20
48.360889
 30
0.0
 10
55.147365
 20
48.360889
 30
0.0
 10
55.069735
 20
48.381237
 30
0.0
 10
55.013961
 20
48.421934
 30
0.0
  0
SPLINE
  5
1f1
100
AcDbEntity
  8
Layer_1
 62
1
100
AcDbSpline
 70
8
 71
3
 72
8
 73
4
 74
0
 40
0
 40
0
 40
0
 40
0
 40
1
 40
1
 40
1
 40
1
 10
55.013961
 20
48.421934
 30
0.0
 10
54.958188
 20
48.464136
 30
0.0
 10
54.913720
 20
48.532715
 30
0.0
 10
54.880557
 20
48.627672
 30
0.0
  0
LWPOLYLINE
  5
1f2
100
AcDbEntity
  8
Layer_1
 62
1
100
AcDbPolyline
 90
2
 70
0
 10
54.876036
 20
49.002977
 30
0.0
 10
54.885079
 20
49.434803
 30
0.0
  0
SPLINE
  5
1f3
100
AcDbEntity
  8
Layer_1
 62
1
100
AcDbSpline
 70
8
 71
3
 72
8
 73
4
 74
0
 40
0
 40
0
 40
0
 40
0
 40
1
 40
1
 40
1
 40
1
 10
54.871514
 20
48.627672
 30
0.0
 10
54.692135
 20
48.448310
 30
0.0
 10
54.480346
 20
48.359382
 30
0.0
 10
54.236149
 20
48.360889
 30
0.0
  0
SPLINE
  5
1f4
100
AcDbEntity
  8
Layer_1
 62
1
100
AcDbSpline
 70
8
 71
3
 72
8
 73
4
 74
0
 40
0
 40
0
 40
0
 40
0
 40
1
 40
1
 40
1
 40
1
 10
54.236149
 20
48.360889
 30
0.0
 10
54.062799
 20
48.360889
 30
0.0
 10
53.913568
 20
48.406107
 30
0.0
 10
53.788454
 20
48.496542
 30
0.0
  0
SPLINE
  5
1f5
100
AcDbEntity
  8
Layer_1
 62
1
100
AcDbSpline
 70
8
 71
3
 72
8
 73
4
 74
0
 40
0
 40
0
 40
0
 40
0
 40
1
 40
1
 40
1
 40
1
 10
53.788454
 20
48.496542
 30
0.0
 10
53.664848
 20
48.586976
 30
0.0
 10
53.603045
 20
48.708310
 30
0.0
 10
53.603045
 20
48.860542
 30
0.0
  0
SPLINE
  5
1f6
100
AcDbEntity
  8
Layer_1
 62
1
100
AcDbSpline
 70
8
 71
3
 72
8
 73
4
 74
0
 40
0
 40
0
 40
0
 40
0
 40
1
 40
1
 40
1
 40
1
 10
53.603045
 20
48.860542
 30
0.0
 10
53.603045
 20
49.017296
 30
0.0
 10
53.665602
 20
49.152948
 30
0.0
 10
53.790715
 20
49.267499
 30
0.0
  0
SPLINE
  5
1f7
100
AcDbEntity
  8
Layer_1
 62
1
100
AcDbSpline
 70
8
 71
3
 72
8
 73
4
 74
0
 40
0
 40
0
 40
0
 40
0
 40
1
 40
1
 40
1
 40
1
 10
53.790715
 20
49.267499
 30
0.0
 10
53.915828
 20
49.382049
 30
0.0
 10
54.090685
 20
49.465701
 30
0.0
 10
54.315287
 20
49.518455
 30
0.0
  0
LWPOLYLINE
  5
1f8
100
AcDbEntity
  8
Layer_1
 62
1
100
AcDbPolyline
 90
2
 70
0
 10
54.880557
 20
48.627672
 30
0.0
 10
54.871514
 20
48.627672
 30
0.0
  0
SPLINE
  5
1f9
100
AcDbEntity
  8
Layer_1
 62
1
100
AcDbSpline
 70
8
 71
3
 72
8
 73
4
 74
0
 40
0
 40
0
 40
0
 40
0
 40
1
 40
1
 40
1
 40
1
 10
54.857948
 20
49.660890
 30
0.0
 10
54.876036
 20
49.666918
 30
0.0
 10
54.885080
 20
49.685759
 30
0.0
 10
54.885080
 20
49.717412
 30
0.0
  0
SPLINE
  5
1fa
100
AcDbEntity
  8
Layer_1
 62
1
100
AcDbSpline
 70
8
 71
3
 72
8
 73
4
 74
0
 40
0
 40
0
 40
0
 40
0
 40
1
 40
1
 40
1
 40
1
 10
54.885080
 20
49.717412
 30
0.0
 10
54.885080
 20
49.890745
 30
0.0
 10
54.858701
 20
50.012079
 30
0.0
 10
54.805943
 20
50.081412
 30
0.0
  0
SPLINE
  5
1fb
100
AcDbEntity
  8
Layer_1
 62
1
100
AcDbSpline
 70
8
 71
3
 72
8
 73
4
 74
0
 40
0
 40
0
 40
0
 40
0
 40
1
 40
1
 40
1
 40
1
 10
54.805943
 20
50.081412
 30
0.0
 10
54.753184
 20
50.152253
 30
0.0
 10
54.673293
 20
50.187673
 30
0.0
 10
54.566268
 20
50.187673
 30
0.0
  0
SPLINE
  5
1fc
100
AcDbEntity
  8
Layer_1
 62
1
100
AcDbSpline
 70
8
 71
3
 72
8
 73
4
 74
0
 40
0
 40
0
 40
0
 40
0
 40
1
 40
1
 40
1
 40
1
 10
54.566268
 20
50.187673
 30
0.0
 10
54.353726
 20
50.187673
 30
0.0
 10
54.163794
 20
50.066340
 30
0.0
 10
53.996474
 20
49.823673
 30
0.0
  0
LWPOLYLINE
  5
1fd
100
AcDbEntity
  8
Layer_1
 62
1
100
AcDbPolyline
 90
2
 70
0
 10
54.315287
 20
49.518455
 30
0.0
 10
54.857948
 20
49.660890
 30
0.0
  0
SPLINE
  5
1fe
100
AcDbEntity
  8
Layer_1
 62
1
100
AcDbSpline
 70
8
 71
3
 72
8
 73
4
 74
0
 40
0
 40
0
 40
0
 40
0
 40
1
 40
1
 40
1
 40
1
 10
53.763582
 20
50.194462
 30
0.0
 10
53.825385
 20
50.247216
 30
0.0
 10
53.949745
 20
50.300723
 30
0.0
 10
54.136661
 20
50.354983
 30
0.0
  0
SPLINE
  5
1ff
100
AcDbEntity
  8
Layer_1
 62
1
100
AcDbSpline
 70
8
 71
3
 72
8
 73
4
 74
0
 40
0
 40
0
 40
0
 40
0
 40
1
 40
1
 40
1
 40
1
 10
54.136661
 20
50.354983
 30
0.0
 10
54.323578
 20
50.410752
 30
0.0
 10
54.496174
 20
50.438637
 30
0.0
 10
54.654450
 20
50.438637
 30
0.0
  0
SPLINE
  5
200
100
AcDbEntity
  8
Layer_1
 62
1
100
AcDbSpline
 70
8
 71
3
 72
8
 73
4
 74
0
 40
0
 40
0
 40
0
 40
0
 40
1
 40
1
 40
1
 40
1
 10
54.654450
 20
50.438637
 30
0.0
 10
54.778056
 20
50.438637
 30
0.0
 10
54.899401
 20
50.422811
 30
0.0
 10
55.018484
 20
50.391158
 30
0.0
  0
SPLINE
  5
201
100
AcDbEntity
  8
Layer_1
 62
1
100
AcDbSpline
 70
8
 71
3
 72
8
 73
4
 74
0
 40
0
 40
0
 40
0
 40
0
 40
1
 40
1
 40
1
 40
1
 10
55.018484
 20
50.391158
 30
0.0
 10
55.139076
 20
50.361013
 30
0.0
 10
55.233288
 20
50.315041
 30
0.0
 10
55.301121
 20
50.253244
 30
0.0
  0
SPLINE
  5
202
100
AcDbEntity
  8
Layer_1
 62
1
100
AcDbSpline
 70
8
 71
3
 72
8
 73
4
 74
0
 40
0
 40
0
 40
0
 40
0
 40
1
 40
1
 40
1
 40
1
 10
55.301121
 20
50.253244
 30
0.0
 10
55.424727
 20
50.141708
 30
0.0
 10
55.486530
 20
49.953302
 30
0.0
 10
55.486530
 20
49.688027
 30
0.0
  0
SPLINE
  5
203
100
AcDbEntity
  8
Layer_1
 62
1
100
AcDbSpline
 70
8
 71
3
 72
8
 73
4
 74
0
 40
0
 40
0
 40
0
 40
0
 40
1
 40
1
 40
1
 40
1
 10
55.486530
 20
49.688027
 30
0.0
 10
55.486530
 20
49.678983
 30
0.0
 10
55.483515
 20
49.538056
 30
0.0
 10
55.477487
 20
49.265245
 30
0.0
  0
SPLINE
  5
204
100
AcDbEntity
  8
Layer_1
 62
1
100
AcDbSpline
 70
8
 71
3
 72
8
 73
4
 74
0
 40
0
 40
0
 40
0
 40
0
 40
1
 40
1
 40
1
 40
1
 10
55.477487
 20
49.265245
 30
0.0
 10
55.471458
 20
48.992433
 30
0.0
 10
55.468443
 20
48.829650
 30
0.0
 10
55.468443
 20
48.776897
 30
0.0
  0
LWPOLYLINE
  5
205
100
AcDbEntity
  8
Layer_1
 62
1
100
AcDbPolyline
 90
4
 70
0
 10
53.996474
 20
49.823673
 30
0.0
 10
53.842720
 20
49.828201
 30
0.0
 10
53.750016
 20
50.174115
 30
0.0
 10
53.763582
 20
50.194462
 30
0.0
  0
SPLINE
  5
206
100
AcDbEntity
  8
Layer_1
 62
1
100
AcDbSpline
 70
8
 71
3
 72
8
 73
4
 74
0
 40
0
 40
0
 40
0
 40
0
 40
1
 40
1
 40
1
 40
1
 10
57.207215
 20
50.208020
 30
0.0
 10
57.124309
 20
50.208020
 30
0.0
 10
57.045924
 20
50.188426
 30
0.0
 10
56.972062
 20
50.149238
 30
0.0
  0
SPLINE
  5
207
100
AcDbEntity
  8
Layer_1
 62
1
100
AcDbSpline
 70
8
 71
3
 72
8
 73
4
 74
0
 40
0
 40
0
 40
0
 40
0
 40
1
 40
1
 40
1
 40
1
 10
56.972062
 20
50.149238
 30
0.0
 10
56.899707
 20
50.110049
 30
0.0
 10
56.841673
 20
50.055035
 30
0.0
 10
56.797959
 20
49.984194
 30
0.0
  0
SPLINE
  5
208
100
AcDbEntity
  8
Layer_1
 62
1
100
AcDbSpline
 70
8
 71
3
 72
8
 73
4
 74
0
 40
0
 40
0
 40
0
 40
0
 40
1
 40
1
 40
1
 40
1
 10
56.797959
 20
49.984194
 30
0.0
 10
56.722589
 20
49.863614
 30
0.0
 10
56.684904
 20
49.689527
 30
0.0
 10
56.684904
 20
49.461933
 30
0.0
  0
SPLINE
  5
209
100
AcDbEntity
  8
Layer_1
 62
1
100
AcDbSpline
 70
8
 71
3
 72
8
 73
4
 74
0
 40
0
 40
0
 40
0
 40
0
 40
1
 40
1
 40
1
 40
1
 10
56.684904
 20
49.461933
 30
0.0
 10
56.684904
 20
49.196658
 30
0.0
 10
56.730879
 20
48.990165
 30
0.0
 10
56.822830
 20
48.842454
 30
0.0
  0
SPLINE
  5
20a
100
AcDbEntity
  8
Layer_1
 62
1
100
AcDbSpline
 70
8
 71
3
 72
8
 73
4
 74
0
 40
0
 40
0
 40
0
 40
0
 40
1
 40
1
 40
1
 40
1
 10
56.822830
 20
48.842454
 30
0.0
 10
56.866544
 20
48.774629
 30
0.0
 10
56.927594
 20
48.715847
 30
0.0
 10
57.005978
 20
48.666107
 30
0.0
  0
SPLINE
  5
20b
100
AcDbEntity
  8
Layer_1
 62
1
100
AcDbSpline
 70
8
 71
3
 72
8
 73
4
 74
0
 40
0
 40
0
 40
0
 40
0
 40
1
 40
1
 40
1
 40
1
 10
57.005978
 20
48.666107
 30
0.0
 10
57.084363
 20
48.616368
 30
0.0
 10
57.157471
 20
48.591499
 30
0.0
 10
57.225304
 20
48.591499
 30
0.0
  0
SPLINE
  5
20c
100
AcDbEntity
  8
Layer_1
 62
1
100
AcDbSpline
 70
8
 71
3
 72
8
 73
4
 74
0
 40
0
 40
0
 40
0
 40
0
 40
1
 40
1
 40
1
 40
1
 10
57.225304
 20
48.591499
 30
0.0
 10
57.463472
 20
48.591499
 30
0.0
 10
57.644359
 20
48.665354
 30
0.0
 10
57.767965
 20
48.813063
 30
0.0
  0
LWPOLYLINE
  5
20d
100
AcDbEntity
  8
Layer_1
 62
1
100
AcDbPolyline
 90
1
 70
1
 10
55.468443
 20
48.776897
 30
0.0
  0
SPLINE
  5
20e
100
AcDbEntity
  8
Layer_1
 62
1
100
AcDbSpline
 70
8
 71
3
 72
8
 73
4
 74
0
 40
0
 40
0
 40
0
 40
0
 40
1
 40
1
 40
1
 40
1
 10
57.842580
 20
48.790455
 30
0.0
 10
57.842580
 20
48.737701
 30
0.0
 10
57.850117
 20
48.677411
 30
0.0
 10
57.865191
 20
48.609585
 30
0.0
  0
SPLINE
  5
20f
100
AcDbEntity
  8
Layer_1
 62
1
100
AcDbSpline
 70
8
 71
3
 72
8
 73
4
 74
0
 40
0
 40
0
 40
0
 40
0
 40
1
 40
1
 40
1
 40
1
 10
57.865191
 20
48.609585
 30
0.0
 10
57.759673
 20
48.520658
 30
0.0
 10
57.648880
 20
48.456600
 30
0.0
 10
57.532811
 20
48.417411
 30
0.0
  0
SPLINE
  5
210
100
AcDbEntity
  8
Layer_1
 62
1
100
AcDbSpline
 70
8
 71
3
 72
8
 73
4
 74
0
 40
0
 40
0
 40
0
 40
0
 40
1
 40
1
 40
1
 40
1
 10
57.532811
 20
48.417411
 30
0.0
 10
57.418250
 20
48.379730
 30
0.0
 10
57.274294
 20
48.360889
 30
0.0
 10
57.100944
 20
48.360889
 30
0.0
  0
SPLINE
  5
211
100
AcDbEntity
  8
Layer_1
 62
1
100
AcDbSpline
 70
8
 71
3
 72
8
 73
4
 74
0
 40
0
 40
0
 40
0
 40
0
 40
1
 40
1
 40
1
 40
1
 10
57.100944
 20
48.360889
 30
0.0
 10
56.733141
 20
48.360889
 30
0.0
 10
56.458796
 20
48.459614
 30
0.0
 10
56.277909
 20
48.657063
 30
0.0
  0
SPLINE
  5
212
100
AcDbEntity
  8
Layer_1
 62
1
100
AcDbSpline
 70
8
 71
3
 72
8
 73
4
 74
0
 40
0
 40
0
 40
0
 40
0
 40
1
 40
1
 40
1
 40
1
 10
56.277909
 20
48.657063
 30
0.0
 10
56.110588
 20
48.839440
 30
0.0
 10
56.026928
 20
49.067788
 30
0.0
 10
56.026928
 20
49.342107
 30
0.0
  0
SPLINE
  5
213
100
AcDbEntity
  8
Layer_1
 62
1
100
AcDbSpline
 70
8
 71
3
 72
8
 73
4
 74
0
 40
0
 40
0
 40
0
 40
0
 40
1
 40
1
 40
1
 40
1
 10
56.026928
 20
49.342107
 30
0.0
 10
56.026928
 20
49.690282
 30
0.0
 10
56.134706
 20
49.960079
 30
0.0
 10
56.350263
 20
50.151499
 30
0.0
  0
SPLINE
  5
214
100
AcDbEntity
  8
Layer_1
 62
1
100
AcDbSpline
 70
8
 71
3
 72
8
 73
4
 74
0
 40
0
 40
0
 40
0
 40
0
 40
1
 40
1
 40
1
 40
1
 10
56.350263
 20
50.151499
 30
0.0
 10
56.567327
 20
50.342920
 30
0.0
 10
56.839411
 20
50.438630
 30
0.0
 10
57.166515
 20
50.438630
 30
0.0
  0
SPLINE
  5
215
100
AcDbEntity
  8
Layer_1
 62
1
100
AcDbSpline
 70
8
 71
3
 72
8
 73
4
 74
0
 40
0
 40
0
 40
0
 40
0
 40
1
 40
1
 40
1
 40
1
 10
57.166515
 20
50.438630
 30
0.0
 10
57.278063
 20
50.438630
 30
0.0
 10
57.402422
 20
50.422804
 30
0.0
 10
57.539595
 20
50.391152
 30
0.0
  0
SPLINE
  5
216
100
AcDbEntity
  8
Layer_1
 62
1
100
AcDbSpline
 70
8
 71
3
 72
8
 73
4
 74
0
 40
0
 40
0
 40
0
 40
0
 40
1
 40
1
 40
1
 40
1
 10
57.539595
 20
50.391152
 30
0.0
 10
57.676768
 20
50.361006
 30
0.0
 10
57.782285
 20
50.325585
 30
0.0
 10
57.856146
 20
50.284890
 30
0.0
  0
LWPOLYLINE
  5
217
100
AcDbEntity
  8
Layer_1
 62
1
100
AcDbPolyline
 90
2
 70
0
 10
57.767965
 20
48.813063
 30
0.0
 10
57.842580
 20
48.790455
 30
0.0
  0
SPLINE
  5
218
100
AcDbEntity
  8
Layer_1
 62
1
100
AcDbSpline
 70
8
 71
3
 72
8
 73
4
 74
0
 40
0
 40
0
 40
0
 40
0
 40
1
 40
1
 40
1
 40
1
 10
57.625515
 20
49.819145
 30
0.0
 10
57.519997
 20
50.078392
 30
0.0
 10
57.380563
 20
50.208015
 30
0.0
 10
57.207214
 20
50.208015
 30
0.0
  0
LWPOLYLINE
  5
219
100
AcDbEntity
  8
Layer_1
 62
1
100
AcDbPolyline
 90
4
 70
0
 10
57.856146
 20
50.284890
 30
0.0
 10
57.865190
 20
50.271325
 30
0.0
 10
57.754396
 20
49.823673
 30
0.0
 10
57.625515
 20
49.819145
 30
0.0
  0
LWPOLYLINE
  5
21a
100
AcDbEntity
  8
Layer_1
 62
1
100
AcDbPolyline
 90
1
 70
1
 10
57.207214
 20
50.208015
 30
0.0
  0
SPLINE
  5
21b
100
AcDbEntity
  8
Layer_1
 62
1
100
AcDbSpline
 70
8
 71
3
 72
8
 73
4
 74
0
 40
0
 40
0
 40
0
 40
0
 40
1
 40
1
 40
1
 40
1
 10
58.414635
 20
50.601413
 30
0.0
 10
58.414635
 20
50.975209
 30
0.0
 10
58.396546
 20
51.265354
 30
0.0
 10
58.360369
 20
51.471847
 30
0.0
  0
LWPOLYLINE
  5
21c
100
AcDbEntity
  8
Layer_1
 62
1
100
AcDbPolyline
 90
2
 70
0
 10
58.414635
 20
49.333064
 30
0.0
 10
58.414635
 20
50.601413
 30
0.0
  0
SPLINE
  5
21d
100
AcDbEntity
  8
Layer_1
 62
1
100
AcDbSpline
 70
8
 71
3
 72
8
 73
4
 74
0
 40
0
 40
0
 40
0
 40
0
 40
1
 40
1
 40
1
 40
1
 10
58.369412
 20
51.485412
 30
0.0
 10
58.455333
 20
51.491440
 30
0.0
 10
58.570648
 20
51.511788
 30
0.0
 10
58.715358
 20
51.546456
 30
0.0
  0
SPLINE
  5
21e
100
AcDbEntity
  8
Layer_1
 62
1
100
AcDbSpline
 70
8
 71
3
 72
8
 73
4
 74
0
 40
0
 40
0
 40
0
 40
0
 40
1
 40
1
 40
1
 40
1
 10
58.715358
 20
51.546456
 30
0.0
 10
58.861575
 20
51.582630
 30
0.0
 10
58.967093
 20
51.613529
 30
0.0
 10
59.031911
 20
51.639152
 30
0.0
  0
SPLINE
  5
21f
100
AcDbEntity
  8
Layer_1
 62
1
100
AcDbSpline
 70
8
 71
3
 72
8
 73
4
 74
0
 40
0
 40
0
 40
0
 40
0
 40
1
 40
1
 40
1
 40
1
 10
59.031911
 20
51.639152
 30
0.0
 10
59.066581
 20
51.639152
 30
0.0
 10
59.083162
 20
51.623326
 30
0.0
 10
59.081654
 20
51.591673
 30
0.0
  0
SPLINE
  5
220
100
AcDbEntity
  8
Layer_1
 62
1
100
AcDbSpline
 70
8
 71
3
 72
8
 73
4
 74
0
 40
0
 40
0
 40
0
 40
0
 40
1
 40
1
 40
1
 40
1
 10
59.081654
 20
51.591673
 30
0.0
 10
59.043969
 20
51.294745
 30
0.0
 10
59.025126
 20
51.004600
 30
0.0
 10
59.025126
 20
50.721238
 30
0.0
  0
LWPOLYLINE
  5
221
100
AcDbEntity
  8
Layer_1
 62
1
100
AcDbPolyline
 90
2
 70
0
 10
58.360369
 20
51.471847
 30
0.0
 10
58.369412
 20
51.485412
 30
0.0
  0
SPLINE
  5
222
100
AcDbEntity
  8
Layer_1
 62
1
100
AcDbSpline
 70
8
 71
3
 72
8
 73
4
 74
0
 40
0
 40
0
 40
0
 40
0
 40
1
 40
1
 40
1
 40
1
 10
59.025126
 20
49.561412
 30
0.0
 10
59.120092
 20
49.571963
 30
0.0
 10
59.190186
 20
49.594571
 30
0.0
 10
59.235408
 20
49.629238
 30
0.0
  0
SPLINE
  5
223
100
AcDbEntity
  8
Layer_1
 62
1
100
AcDbSpline
 70
8
 71
3
 72
8
 73
4
 74
0
 40
0
 40
0
 40
0
 40
0
 40
1
 40
1
 40
1
 40
1
 10
59.235408
 20
49.629238
 30
0.0
 10
59.423832
 20
49.773934
 30
0.0
 10
59.627330
 20
50.028658
 30
0.0
 10
59.845902
 20
50.393411
 30
0.0
  0
SPLINE
  5
224
100
AcDbEntity
  8
Layer_1
 62
1
100
AcDbSpline
 70
8
 71
3
 72
8
 73
4
 74
0
 40
0
 40
0
 40
0
 40
0
 40
1
 40
1
 40
1
 40
1
 10
59.845902
 20
50.393411
 30
0.0
 10
60.272493
 20
50.393411
 30
0.0
 10
60.514429
 20
50.397934
 30
0.0
 10
60.571710
 20
50.406978
 30
0.0
  0
LWPOLYLINE
  5
225
100
AcDbEntity
  8
Layer_1
 62
1
100
AcDbPolyline
 90
2
 70
0
 10
59.025126
 20
50.721238
 30
0.0
 10
59.025126
 20
49.561412
 30
0.0
  0
SPLINE
  5
226
100
AcDbEntity
  8
Layer_1
 62
1
100
AcDbSpline
 70
8
 71
3
 72
8
 73
4
 74
0
 40
0
 40
0
 40
0
 40
0
 40
1
 40
1
 40
1
 40
1
 10
60.583011
 20
50.393411
 30
0.0
 10
60.166971
 20
50.078397
 30
0.0
 10
59.854942
 20
49.804832
 30
0.0
 10
59.646921
 20
49.572716
 30
0.0
  0
SPLINE
  5
227
100
AcDbEntity
  8
Layer_1
 62
1
100
AcDbSpline
 70
8
 71
3
 72
8
 73
4
 74
0
 40
0
 40
0
 40
0
 40
0
 40
1
 40
1
 40
1
 40
1
 10
59.646921
 20
49.572716
 30
0.0
 10
59.964981
 20
49.186861
 30
0.0
 10
60.309420
 20
48.797991
 30
0.0
 10
60.680238
 20
48.406107
 30
0.0
  0
LWPOLYLINE
  5
228
100
AcDbEntity
  8
Layer_1
 62
1
100
AcDbPolyline
 90
2
 70
0
 10
60.571710
 20
50.406978
 30
0.0
 10
60.583011
 20
50.393411
 30
0.0
  0
SPLINE
  5
229
100
AcDbEntity
  8
Layer_1
 62
1
100
AcDbSpline
 70
8
 71
3
 72
8
 73
4
 74
0
 40
0
 40
0
 40
0
 40
0
 40
1
 40
1
 40
1
 40
1
 10
60.671195
 20
48.392541
 30
0.0
 10
60.624466
 20
48.401585
 30
0.0
 10
60.463929
 20
48.406107
 30
0.0
 10
60.189583
 20
48.406107
 30
0.0
  0
SPLINE
  5
22a
100
AcDbEntity
  8
Layer_1
 62
1
100
AcDbSpline
 70
8
 71
3
 72
8
 73
4
 74
0
 40
0
 40
0
 40
0
 40
0
 40
1
 40
1
 40
1
 40
1
 10
60.189583
 20
48.406107
 30
0.0
 10
60.019248
 20
48.406107
 30
0.0
 10
59.895642
 20
48.401585
 30
0.0
 10
59.818766
 20
48.392541
 30
0.0
  0
SPLINE
  5
22b
100
AcDbEntity
  8
Layer_1
 62
1
100
AcDbSpline
 70
8
 71
3
 72
8
 73
4
 74
0
 40
0
 40
0
 40
0
 40
0
 40
1
 40
1
 40
1
 40
1
 10
59.818766
 20
48.392541
 30
0.0
 10
59.695160
 20
48.618629
 30
0.0
 10
59.587381
 20
48.796484
 30
0.0
 10
59.495431
 20
48.926108
 30
0.0
  0
SPLINE
  5
22c
100
AcDbEntity
  8
Layer_1
 62
1
100
AcDbSpline
 70
8
 71
3
 72
8
 73
4
 74
0
 40
0
 40
0
 40
0
 40
0
 40
1
 40
1
 40
1
 40
1
 10
59.495431
 20
48.926108
 30
0.0
 10
59.404987
 20
49.057238
 30
0.0
 10
59.288918
 20
49.201933
 30
0.0
 10
59.147223
 20
49.360195
 30
0.0
  0
SPLINE
  5
22d
100
AcDbEntity
  8
Layer_1
 62
1
100
AcDbSpline
 70
8
 71
3
 72
8
 73
4
 74
0
 40
0
 40
0
 40
0
 40
0
 40
1
 40
1
 40
1
 40
1
 10
59.147223
 20
49.360195
 30
0.0
 10
59.123105
 20
49.381296
 30
0.0
 10
59.082405
 20
49.394861
 30
0.0
 10
59.025124
 20
49.400889
 30
0.0
  0
LWPOLYLINE
  5
22e
100
AcDbEntity
  8
Layer_1
 62
1
100
AcDbPolyline
 90
2
 70
0
 10
60.680238
 20
48.406107
 30
0.0
 10
60.671195
 20
48.392541
 30
0.0
  0
SPLINE
  5
22f
100
AcDbEntity
  8
Layer_1
 62
1
100
AcDbSpline
 70
8
 71
3
 72
8
 73
4
 74
0
 40
0
 40
0
 40
0
 40
0
 40
1
 40
1
 40
1
 40
1
 10
59.025124
 20
49.333064
 30
0.0
 10
59.025124
 20
48.962281
 30
0.0
 10
59.043966
 20
48.653296
 30
0.0
 10
59.081651
 20
48.406107
 30
0.0
  0
LWPOLYLINE
  5
230
100
AcDbEntity
  8
Layer_1
 62
1
100
AcDbPolyline
 90
2
 70
0
 10
59.025124
 20
49.400889
 30
0.0
 10
59.025124
 20
49.333064
 30
0.0
  0
SPLINE
  5
231
100
AcDbEntity
  8
Layer_1
 62
1
100
AcDbSpline
 70
8
 71
3
 72
8
 73
4
 74
0
 40
0
 40
0
 40
0
 40
0
 40
1
 40
1
 40
1
 40
1
 10
59.072608
 20
48.392541
 30
0.0
 10
58.942972
 20
48.401585
 30
0.0
 10
58.825396
 20
48.406107
 30
0.0
 10
58.719879
 20
48.406107
 30
0.0
  0
LWPOLYLINE
  5
232
100
AcDbEntity
  8
Layer_1
 62
1
100
AcDbPolyline
 90
2
 70
0
 10
59.081651
 20
48.406107
 30
0.0
 10
59.072608
 20
48.392541
 30
0.0
  0
SPLINE
  5
233
100
AcDbEntity
  8
Layer_1
 62
1
100
AcDbSpline
 70
8
 71
3
 72
8
 73
4
 74
0
 40
0
 40
0
 40
0
 40
0
 40
1
 40
1
 40
1
 40
1
 10
58.360361
 20
48.406107
 30
0.0
 10
58.396538
 20
48.641238
 30
0.0
 10
58.414627
 20
48.950223
 30
0.0
 10
58.414627
 20
49.333064
 30
0.0
  0
LWPOLYLINE
  5
234
100
AcDbEntity
  8
Layer_1
 62
1
100
AcDbPolyline
 90
3
 70
0
 10
58.719879
 20
48.406107
 30
0.0
 10
58.364889
 20
48.392541
 30
0.0
 10
58.360361
 20
48.406107
 30
0.0
  0
LWPOLYLINE
  5
235
100
AcDbEntity
  8
Layer_1
 62
1
100
AcDbPolyline
 90
1
 70
1
 10
58.414627
 20
49.333064
 30
0.0
  0
SPLINE
  5
236
100
AcDbEntity
  8
Layer_1
 62
1
100
AcDbSpline
 70
8
 71
3
 72
8
 73
4
 74
0
 40
0
 40
0
 40
0
 40
0
 40
1
 40
1
 40
1
 40
1
 10
63.364152
 20
50.142456
 30
0.0
 10
63.549561
 20
50.142456
 30
0.0
 10
63.674674
 20
50.180137
 30
0.0
 10
63.739491
 20
50.255499
 30
0.0
  0
SPLINE
  5
237
100
AcDbEntity
  8
Layer_1
 62
1
100
AcDbSpline
 70
8
 71
3
 72
8
 73
4
 74
0
 40
0
 40
0
 40
0
 40
0
 40
1
 40
1
 40
1
 40
1
 10
63.739491
 20
50.255499
 30
0.0
 10
63.805817
 20
50.330862
 30
0.0
 10
63.838979
 20
50.456716
 30
0.0
 10
63.838979
 20
50.633064
 30
0.0
  0
SPLINE
  5
238
100
AcDbEntity
  8
Layer_1
 62
1
100
AcDbSpline
 70
8
 71
3
 72
8
 73
4
 74
0
 40
0
 40
0
 40
0
 40
0
 40
1
 40
1
 40
1
 40
1
 10
63.838979
 20
50.633064
 30
0.0
 10
63.838979
 20
50.827499
 30
0.0
 10
63.804309
 20
50.963905
 30
0.0
 10
63.734970
 20
51.042282
 30
0.0
  0
SPLINE
  5
239
100
AcDbEntity
  8
Layer_1
 62
1
100
AcDbSpline
 70
8
 71
3
 72
8
 73
4
 74
0
 40
0
 40
0
 40
0
 40
0
 40
1
 40
1
 40
1
 40
1
 10
63.734970
 20
51.042282
 30
0.0
 10
63.665630
 20
51.122166
 30
0.0
 10
63.561619
 20
51.162108
 30
0.0
 10
63.422940
 20
51.162108
 30
0.0
  0
SPLINE
  5
23a
100
AcDbEntity
  8
Layer_1
 62
1
100
AcDbSpline
 70
8
 71
3
 72
8
 73
4
 74
0
 40
0
 40
0
 40
0
 40
0
 40
1
 40
1
 40
1
 40
1
 10
63.422940
 20
51.162108
 30
0.0
 10
63.243560
 20
51.162108
 30
0.0
 10
63.128245
 20
51.147035
 30
0.0
 10
63.076994
 20
51.116890
 30
0.0
  0
SPLINE
  5
23b
100
AcDbEntity
  8
Layer_1
 62
1
100
AcDbSpline
 70
8
 71
3
 72
8
 73
4
 74
0
 40
0
 40
0
 40
0
 40
0
 40
1
 40
1
 40
1
 40
1
 10
63.076994
 20
51.116890
 30
0.0
 10
63.027249
 20
51.086746
 30
0.0
 10
63.002377
 20
51.031731
 30
0.0
 10
63.002377
 20
50.951846
 30
0.0
  0
LWPOLYLINE
  5
23c
100
AcDbEntity
  8
Layer_1
 62
1
100
AcDbPolyline
 90
3
 70
0
 10
63.002377
 20
50.951846
 30
0.0
 10
63.002377
 20
50.142456
 30
0.0
 10
63.364152
 20
50.142456
 30
0.0
  0
LWPOLYLINE
  5
23d
100
AcDbEntity
  8
Layer_1
 62
1
100
AcDbPolyline
 90
1
 70
1
 10
63.002377
 20
50.951846
 30
0.0
  0
SPLINE
  5
23e
100
AcDbEntity
  8
Layer_1
 62
1
100
AcDbSpline
 70
8
 71
3
 72
8
 73
4
 74
0
 40
0
 40
0
 40
0
 40
0
 40
1
 40
1
 40
1
 40
1
 10
63.002377
 20
48.856021
 30
0.0
 10
63.002377
 20
48.776136
 30
0.0
 10
63.029510
 20
48.719614
 30
0.0
 10
63.083777
 20
48.686456
 30
0.0
  0
SPLINE
  5
23f
100
AcDbEntity
  8
Layer_1
 62
1
100
AcDbSpline
 70
8
 71
3
 72
8
 73
4
 74
0
 40
0
 40
0
 40
0
 40
0
 40
1
 40
1
 40
1
 40
1
 10
63.083777
 20
48.686456
 30
0.0
 10
63.139550
 20
48.653296
 30
0.0
 10
63.246575
 20
48.636716
 30
0.0
 10
63.404850
 20
48.636716
 30
0.0
  0
SPLINE
  5
240
100
AcDbEntity
  8
Layer_1
 62
1
100
AcDbSpline
 70
8
 71
3
 72
8
 73
4
 74
0
 40
0
 40
0
 40
0
 40
0
 40
1
 40
1
 40
1
 40
1
 10
63.404850
 20
48.636716
 30
0.0
 10
63.555590
 20
48.636716
 30
0.0
 10
63.676181
 20
48.648020
 30
0.0
 10
63.766625
 20
48.670629
 30
0.0
  0
SPLINE
  5
241
100
AcDbEntity
  8
Layer_1
 62
1
100
AcDbSpline
 70
8
 71
3
 72
8
 73
4
 74
0
 40
0
 40
0
 40
0
 40
0
 40
1
 40
1
 40
1
 40
1
 10
63.766625
 20
48.670629
 30
0.0
 10
63.858576
 20
48.694745
 30
0.0
 10
63.924147
 20
48.733933
 30
0.0
 10
63.963339
 20
48.788194
 30
0.0
  0
SPLINE
  5
242
100
AcDbEntity
  8
Layer_1
 62
1
100
AcDbSpline
 70
8
 71
3
 72
8
 73
4
 74
0
 40
0
 40
0
 40
0
 40
0
 40
1
 40
1
 40
1
 40
1
 10
63.963339
 20
48.788194
 30
0.0
 10
64.004039
 20
48.842455
 30
0.0
 10
64.029665
 20
48.895209
 30
0.0
 10
64.040217
 20
48.946455
 30
0.0
  0
SPLINE
  5
243
100
AcDbEntity
  8
Layer_1
 62
1
100
AcDbSpline
 70
8
 71
3
 72
8
 73
4
 74
0
 40
0
 40
0
 40
0
 40
0
 40
1
 40
1
 40
1
 40
1
 10
64.040217
 20
48.946455
 30
0.0
 10
64.052276
 20
48.999209
 30
0.0
 10
64.058305
 20
49.073818
 30
0.0
 10
64.058305
 20
49.170281
 30
0.0
  0
SPLINE
  5
244
100
AcDbEntity
  8
Layer_1
 62
1
100
AcDbSpline
 70
8
 71
3
 72
8
 73
4
 74
0
 40
0
 40
0
 40
0
 40
0
 40
1
 40
1
 40
1
 40
1
 10
64.058305
 20
49.170281
 30
0.0
 10
64.058305
 20
49.655614
 30
0.0
 10
63.849531
 20
49.897527
 30
0.0
 10
63.431984
 20
49.896020
 30
0.0
  0
LWPOLYLINE
  5
245
100
AcDbEntity
  8
Layer_1
 62
1
100
AcDbPolyline
 90
2
 70
0
 10
63.002377
 20
49.896020
 30
0.0
 10
63.002377
 20
48.856021
 30
0.0
  0
SPLINE
  5
246
100
AcDbEntity
  8
Layer_1
 62
1
100
AcDbSpline
 70
8
 71
3
 72
8
 73
4
 74
0
 40
0
 40
0
 40
0
 40
0
 40
1
 40
1
 40
1
 40
1
 10
62.685825
 20
51.392716
 30
0.0
 10
62.794358
 20
51.392716
 30
0.0
 10
62.936052
 20
51.394978
 30
0.0
 10
63.110909
 20
51.399501
 30
0.0
  0
SPLINE
  5
247
100
AcDbEntity
  8
Layer_1
 62
1
100
AcDbSpline
 70
8
 71
3
 72
8
 73
4
 74
0
 40
0
 40
0
 40
0
 40
0
 40
1
 40
1
 40
1
 40
1
 10
63.110909
 20
51.399501
 30
0.0
 10
63.285767
 20
51.404024
 30
0.0
 10
63.394300
 20
51.406286
 30
0.0
 10
63.436506
 20
51.406286
 30
0.0
  0
SPLINE
  5
248
100
AcDbEntity
  8
Layer_1
 62
1
100
AcDbSpline
 70
8
 71
3
 72
8
 73
4
 74
0
 40
0
 40
0
 40
0
 40
0
 40
1
 40
1
 40
1
 40
1
 10
63.436506
 20
51.406286
 30
0.0
 10
63.640004
 20
51.406286
 30
0.0
 10
63.816369
 20
51.383677
 30
0.0
 10
63.965600
 20
51.338459
 30
0.0
  0
SPLINE
  5
249
100
AcDbEntity
  8
Layer_1
 62
1
100
AcDbSpline
 70
8
 71
3
 72
8
 73
4
 74
0
 40
0
 40
0
 40
0
 40
0
 40
1
 40
1
 40
1
 40
1
 10
63.965600
 20
51.338459
 30
0.0
 10
64.116340
 20
51.294749
 30
0.0
 10
64.230148
 20
51.235213
 30
0.0
 10
64.307024
 20
51.159850
 30
0.0
  0
SPLINE
  5
24a
100
AcDbEntity
  8
Layer_1
 62
1
100
AcDbSpline
 70
8
 71
3
 72
8
 73
4
 74
0
 40
0
 40
0
 40
0
 40
0
 40
1
 40
1
 40
1
 40
1
 10
64.307024
 20
51.159850
 30
0.0
 10
64.383901
 20
51.085996
 30
0.0
 10
64.440428
 20
51.010634
 30
0.0
 10
64.476606
 20
50.933764
 30
0.0
  0
SPLINE
  5
24b
100
AcDbEntity
  8
Layer_1
 62
1
100
AcDbSpline
 70
8
 71
3
 72
8
 73
4
 74
0
 40
0
 40
0
 40
0
 40
0
 40
1
 40
1
 40
1
 40
1
 10
64.476606
 20
50.933764
 30
0.0
 10
64.512783
 20
50.856895
 30
0.0
 10
64.530872
 20
50.775503
 30
0.0
 10
64.530872
 20
50.689590
 30
0.0
  0
SPLINE
  5
24c
100
AcDbEntity
  8
Layer_1
 62
1
100
AcDbSpline
 70
8
 71
3
 72
8
 73
4
 74
0
 40
0
 40
0
 40
0
 40
0
 40
1
 40
1
 40
1
 40
1
 10
64.530872
 20
50.689590
 30
0.0
 10
64.530872
 20
50.569010
 30
0.0
 10
64.483389
 20
50.451445
 30
0.0
 10
64.388424
 20
50.336895
 30
0.0
  0
SPLINE
  5
24d
100
AcDbEntity
  8
Layer_1
 62
1
100
AcDbSpline
 70
8
 71
3
 72
8
 73
4
 74
0
 40
0
 40
0
 40
0
 40
0
 40
1
 40
1
 40
1
 40
1
 10
64.388424
 20
50.336895
 30
0.0
 10
64.294966
 20
50.222344
 30
0.0
 10
64.183419
 20
50.134170
 30
0.0
 10
64.053783
 20
50.072373
 30
0.0
  0
SPLINE
  5
24e
100
AcDbEntity
  8
Layer_1
 62
1
100
AcDbSpline
 70
8
 71
3
 72
8
 73
4
 74
0
 40
0
 40
0
 40
0
 40
0
 40
1
 40
1
 40
1
 40
1
 10
64.053783
 20
50.072373
 30
0.0
 10
64.275370
 20
50.007561
 30
0.0
 10
64.455503
 20
49.907329
 30
0.0
 10
64.594182
 20
49.771677
 30
0.0
  0
SPLINE
  5
24f
100
AcDbEntity
  8
Layer_1
 62
1
100
AcDbSpline
 70
8
 71
3
 72
8
 73
4
 74
0
 40
0
 40
0
 40
0
 40
0
 40
1
 40
1
 40
1
 40
1
 10
64.594182
 20
49.771677
 30
0.0
 10
64.732862
 20
49.636025
 30
0.0
 10
64.802202
 20
49.464952
 30
0.0
 10
64.802202
 20
49.258459
 30
0.0
  0
SPLINE
  5
250
100
AcDbEntity
  8
Layer_1
 62
1
100
AcDbSpline
 70
8
 71
3
 72
8
 73
4
 74
0
 40
0
 40
0
 40
0
 40
0
 40
1
 40
1
 40
1
 40
1
 10
64.802202
 20
49.258459
 30
0.0
 10
64.802202
 20
49.029358
 30
0.0
 10
64.697439
 20
48.827387
 30
0.0
 10
64.487912
 20
48.652546
 30
0.0
  0
SPLINE
  5
251
100
AcDbEntity
  8
Layer_1
 62
1
100
AcDbSpline
 70
8
 71
3
 72
8
 73
4
 74
0
 40
0
 40
0
 40
0
 40
0
 40
1
 40
1
 40
1
 40
1
 10
64.487912
 20
48.652546
 30
0.0
 10
64.278384
 20
48.479212
 30
0.0
 10
63.961832
 20
48.392545
 30
0.0
 10
63.538255
 20
48.392545
 30
0.0
  0
SPLINE
  5
252
100
AcDbEntity
  8
Layer_1
 62
1
100
AcDbSpline
 70
8
 71
3
 72
8
 73
4
 74
0
 40
0
 40
0
 40
0
 40
0
 40
1
 40
1
 40
1
 40
1
 10
63.538255
 20
48.392545
 30
0.0
 10
63.393545
 20
48.392545
 30
0.0
 10
63.241299
 20
48.394807
 30
0.0
 10
63.081516
 20
48.399330
 30
0.0
  0
SPLINE
  5
253
100
AcDbEntity
  8
Layer_1
 62
1
100
AcDbSpline
 70
8
 71
3
 72
8
 73
4
 74
0
 40
0
 40
0
 40
0
 40
0
 40
1
 40
1
 40
1
 40
1
 10
63.081516
 20
48.399330
 30
0.0
 10
62.923240
 20
48.403854
 30
0.0
 10
62.791343
 20
48.406115
 30
0.0
 10
62.685825
 20
48.406115
 30
0.0
  0
LWPOLYLINE
  5
254
100
AcDbEntity
  8
Layer_1
 62
1
100
AcDbPolyline
 90
2
 70
0
 10
63.431984
 20
49.896020
 30
0.0
 10
63.002377
 20
49.896020
 30
0.0
  0
SPLINE
  5
255
100
AcDbEntity
  8
Layer_1
 62
1
100
AcDbSpline
 70
8
 71
3
 72
8
 73
4
 74
0
 40
0
 40
0
 40
0
 40
0
 40
1
 40
1
 40
1
 40
1
 10
62.287868
 20
48.406115
 30
0.0
 10
62.325553
 20
48.656318
 30
0.0
 10
62.344395
 20
48.965303
 30
0.0
 10
62.344395
 20
49.333072
 30
0.0
  0
LWPOLYLINE
  5
256
100
AcDbEntity
  8
Layer_1
 62
1
100
AcDbPolyline
 90
3
 70
0
 10
62.685825
 20
48.406115
 30
0.0
 10
62.292397
 20
48.392549
 30
0.0
 10
62.287868
 20
48.406115
 30
0.0
  0
SPLINE
  5
257
100
AcDbEntity
  8
Layer_1
 62
1
100
AcDbSpline
 70
8
 71
3
 72
8
 73
4
 74
0
 40
0
 40
0
 40
0
 40
0
 40
1
 40
1
 40
1
 40
1
 10
62.344395
 20
50.465768
 30
0.0
 10
62.344395
 20
50.821478
 30
0.0
 10
62.325553
 20
51.130463
 30
0.0
 10
62.287868
 20
51.392724
 30
0.0
  0
LWPOLYLINE
  5
258
100
AcDbEntity
  8
Layer_1
 62
1
100
AcDbPolyline
 90
2
 70
0
 10
62.344395
 20
49.333072
 30
0.0
 10
62.344395
 20
50.465768
 30
0.0
  0
SPLINE
  5
259
100
AcDbEntity
  8
Layer_1
 62
1
100
AcDbSpline
 70
8
 71
3
 72
8
 73
4
 74
0
 40
0
 40
0
 40
0
 40
0
 40
1
 40
1
 40
1
 40
1
 10
62.296912
 20
51.406290
 30
0.0
 10
62.450666
 20
51.397246
 30
0.0
 10
62.580302
 20
51.392724
 30
0.0
 10
62.685819
 20
51.392724
 30
0.0
  0
LWPOLYLINE
  5
25a
100
AcDbEntity
  8
Layer_1
 62
1
100
AcDbPolyline
 90
2
 70
0
 10
62.287868
 20
51.392724
 30
0.0
 10
62.296912
 20
51.406290
 30
0.0
  0
SPLINE
  5
25b
100
AcDbEntity
  8
Layer_1
 62
1
100
AcDbSpline
 70
8
 71
3
 72
8
 73
4
 74
0
 40
0
 40
0
 40
0
 40
0
 40
1
 40
1
 40
1
 40
1
 10
65.182066
 20
49.355672
 30
0.0
 10
65.182066
 20
49.703847
 30
0.0
 10
65.284568
 20
49.971383
 30
0.0
 10
65.489573
 20
50.158282
 30
0.0
  0
SPLINE
  5
25c
100
AcDbEntity
  8
Layer_1
 62
1
100
AcDbSpline
 70
8
 71
3
 72
8
 73
4
 74
0
 40
0
 40
0
 40
0
 40
0
 40
1
 40
1
 40
1
 40
1
 10
65.489573
 20
50.158282
 30
0.0
 10
65.694578
 20
50.345181
 30
0.0
 10
65.968923
 20
50.438630
 30
0.0
 10
66.312609
 20
50.438630
 30
0.0
  0
SPLINE
  5
25d
100
AcDbEntity
  8
Layer_1
 62
1
100
AcDbSpline
 70
8
 71
3
 72
8
 73
4
 74
0
 40
0
 40
0
 40
0
 40
0
 40
1
 40
1
 40
1
 40
1
 10
66.312609
 20
50.438630
 30
0.0
 10
66.686442
 20
50.438630
 30
0.0
 10
66.964556
 20
50.342920
 30
0.0
 10
67.146949
 20
50.151499
 30
0.0
  0
SPLINE
  5
25e
100
AcDbEntity
  8
Layer_1
 62
1
100
AcDbSpline
 70
8
 71
3
 72
8
 73
4
 74
0
 40
0
 40
0
 40
0
 40
0
 40
1
 40
1
 40
1
 40
1
 10
67.146949
 20
50.151499
 30
0.0
 10
67.330851
 20
49.960079
 30
0.0
 10
67.422803
 20
49.708369
 30
0.0
 10
67.422803
 20
49.396368
 30
0.0
  0
SPLINE
  5
25f
100
AcDbEntity
  8
Layer_1
 62
1
100
AcDbSpline
 70
8
 71
3
 72
8
 73
4
 74
0
 40
0
 40
0
 40
0
 40
0
 40
1
 40
1
 40
1
 40
1
 10
67.422803
 20
49.396368
 30
0.0
 10
67.422803
 20
49.075325
 30
0.0
 10
67.324068
 20
48.822107
 30
0.0
 10
67.126600
 20
48.636716
 30
0.0
  0
SPLINE
  5
260
100
AcDbEntity
  8
Layer_1
 62
1
100
AcDbSpline
 70
8
 71
3
 72
8
 73
4
 74
0
 40
0
 40
0
 40
0
 40
0
 40
1
 40
1
 40
1
 40
1
 10
67.126600
 20
48.636716
 30
0.0
 10
66.929132
 20
48.452831
 30
0.0
 10
66.654786
 20
48.360889
 30
0.0
 10
66.303564
 20
48.360889
 30
0.0
  0
SPLINE
  5
261
100
AcDbEntity
  8
Layer_1
 62
1
100
AcDbSpline
 70
8
 71
3
 72
8
 73
4
 74
0
 40
0
 40
0
 40
0
 40
0
 40
1
 40
1
 40
1
 40
1
 10
66.303564
 20
48.360889
 30
0.0
 10
65.958372
 20
48.360889
 30
0.0
 10
65.684781
 20
48.449063
 30
0.0
 10
65.482790
 20
48.625411
 30
0.0
  0
SPLINE
  5
262
100
AcDbEntity
  8
Layer_1
 62
1
100
AcDbSpline
 70
8
 71
3
 72
8
 73
4
 74
0
 40
0
 40
0
 40
0
 40
0
 40
1
 40
1
 40
1
 40
1
 10
65.482790
 20
48.625411
 30
0.0
 10
65.282307
 20
48.803266
 30
0.0
 10
65.182066
 20
49.046687
 30
0.0
 10
65.182066
 20
49.355672
 30
0.0
  0
LWPOLYLINE
  5
263
100
AcDbEntity
  8
Layer_1
 62
1
100
AcDbPolyline
 90
1
 70
1
 10
62.685819
 20
51.392724
 30
0.0
  0
SPLINE
  5
264
100
AcDbEntity
  8
Layer_1
 62
1
100
AcDbSpline
 70
8
 71
3
 72
8
 73
4
 74
0
 40
0
 40
0
 40
0
 40
0
 40
1
 40
1
 40
1
 40
1
 10
66.278692
 20
50.208020
 30
0.0
 10
66.152072
 20
50.208020
 30
0.0
 10
66.054845
 20
50.170339
 30
0.0
 10
65.987012
 20
50.094977
 30
0.0
  0
SPLINE
  5
265
100
AcDbEntity
  8
Layer_1
 62
1
100
AcDbSpline
 70
8
 71
3
 72
8
 73
4
 74
0
 40
0
 40
0
 40
0
 40
0
 40
1
 40
1
 40
1
 40
1
 10
65.987012
 20
50.094977
 30
0.0
 10
65.919180
 20
50.021122
 30
0.0
 10
65.877726
 20
49.935962
 30
0.0
 10
65.862653
 20
49.839499
 30
0.0
  0
SPLINE
  5
266
100
AcDbEntity
  8
Layer_1
 62
1
100
AcDbSpline
 70
8
 71
3
 72
8
 73
4
 74
0
 40
0
 40
0
 40
0
 40
0
 40
1
 40
1
 40
1
 40
1
 10
65.862653
 20
49.839499
 30
0.0
 10
65.847579
 20
49.744542
 30
0.0
 10
65.840042
 20
49.618687
 30
0.0
 10
65.840042
 20
49.461933
 30
0.0
  0
SPLINE
  5
267
100
AcDbEntity
  8
Layer_1
 62
1
100
AcDbSpline
 70
8
 71
3
 72
8
 73
4
 74
0
 40
0
 40
0
 40
0
 40
0
 40
1
 40
1
 40
1
 40
1
 10
65.840042
 20
49.461933
 30
0.0
 10
65.840042
 20
48.881643
 30
0.0
 10
66.015653
 20
48.591499
 30
0.0
 10
66.366875
 20
48.591499
 30
0.0
  0
SPLINE
  5
268
100
AcDbEntity
  8
Layer_1
 62
1
100
AcDbSpline
 70
8
 71
3
 72
8
 73
4
 74
0
 40
0
 40
0
 40
0
 40
0
 40
1
 40
1
 40
1
 40
1
 10
66.366875
 20
48.591499
 30
0.0
 10
66.632176
 20
48.591499
 30
0.0
 10
66.764827
 20
48.818339
 30
0.0
 10
66.764827
 20
49.272020
 30
0.0
  0
SPLINE
  5
269
100
AcDbEntity
  8
Layer_1
 62
1
100
AcDbSpline
 70
8
 71
3
 72
8
 73
4
 74
0
 40
0
 40
0
 40
0
 40
0
 40
1
 40
1
 40
1
 40
1
 10
66.764827
 20
49.272020
 30
0.0
 10
66.764827
 20
49.608136
 30
0.0
 10
66.730910
 20
49.847789
 30
0.0
 10
66.663078
 20
49.990977
 30
0.0
  0
SPLINE
  5
26a
100
AcDbEntity
  8
Layer_1
 62
1
100
AcDbSpline
 70
8
 71
3
 72
8
 73
4
 74
0
 40
0
 40
0
 40
0
 40
0
 40
1
 40
1
 40
1
 40
1
 10
66.663078
 20
49.990977
 30
0.0
 10
66.595245
 20
50.135672
 30
0.0
 10
66.467116
 20
50.208020
 30
0.0
 10
66.278692
 20
50.208020
 30
0.0
  0
LWPOLYLINE
  5
26b
100
AcDbEntity
  8
Layer_1
 62
1
100
AcDbPolyline
 90
1
 70
1
 10
65.182066
 20
49.355672
 30
0.0
  0
LWPOLYLINE
  5
26c
100
AcDbEntity
  8
Layer_1
 62
1
100
AcDbPolyline
 90
1
 70
1
 10
66.278692
 20
50.208020
 30
0.0
  0
SPLINE
  5
26d
100
AcDbEntity
  8
Layer_1
 62
1
100
AcDbSpline
 70
8
 71
3
 72
8
 73
4
 74
0
 40
0
 40
0
 40
0
 40
0
 40
1
 40
1
 40
1
 40
1
 10
67.673781
 20
50.406978
 30
0.0
 10
67.723525
 20
50.397934
 30
0.0
 10
67.873511
 20
50.393411
 30
0.0
 10
68.123737
 20
50.393411
 30
0.0
  0
SPLINE
  5
26e
100
AcDbEntity
  8
Layer_1
 62
1
100
AcDbSpline
 70
8
 71
3
 72
8
 73
4
 74
0
 40
0
 40
0
 40
0
 40
0
 40
1
 40
1
 40
1
 40
1
 10
68.123737
 20
50.393411
 30
0.0
 10
68.297088
 20
50.393411
 30
0.0
 10
68.409388
 20
50.397934
 30
0.0
 10
68.460640
 20
50.406978
 30
0.0
  0
SPLINE
  5
26f
100
AcDbEntity
  8
Layer_1
 62
1
100
AcDbSpline
 70
8
 71
3
 72
8
 73
4
 74
0
 40
0
 40
0
 40
0
 40
0
 40
1
 40
1
 40
1
 40
1
 10
68.460640
 20
50.406978
 30
0.0
 10
68.573694
 20
50.220079
 30
0.0
 10
68.716896
 20
50.006803
 30
0.0
 10
68.890245
 20
49.767151
 30
0.0
  0
SPLINE
  5
270
100
AcDbEntity
  8
Layer_1
 62
1
100
AcDbSpline
 70
8
 71
3
 72
8
 73
4
 74
0
 40
0
 40
0
 40
0
 40
0
 40
1
 40
1
 40
1
 40
1
 10
68.890245
 20
49.767151
 30
0.0
 10
69.092236
 20
50.027905
 30
0.0
 10
69.249758
 20
50.241180
 30
0.0
 10
69.362812
 20
50.406978
 30
0.0
  0
SPLINE
  5
271
100
AcDbEntity
  8
Layer_1
 62
1
100
AcDbSpline
 70
8
 71
3
 72
8
 73
4
 74
0
 40
0
 40
0
 40
0
 40
0
 40
1
 40
1
 40
1
 40
1
 10
69.362812
 20
50.406978
 30
0.0
 10
69.397483
 20
50.397934
 30
0.0
 10
69.499986
 20
50.393411
 30
0.0
 10
69.670321
 20
50.393411
 30
0.0
  0
SPLINE
  5
272
100
AcDbEntity
  8
Layer_1
 62
1
100
AcDbSpline
 70
8
 71
3
 72
8
 73
4
 74
0
 40
0
 40
0
 40
0
 40
0
 40
1
 40
1
 40
1
 40
1
 10
69.670321
 20
50.393411
 30
0.0
 10
69.775838
 20
50.393411
 30
0.0
 10
69.845178
 20
50.397934
 30
0.0
 10
69.878341
 20
50.406978
 30
0.0
  0
LWPOLYLINE
  5
273
100
AcDbEntity
  8
Layer_1
 62
1
100
AcDbPolyline
 90
3
 70
0
 10
68.462900
 20
49.364716
 30
0.0
 10
68.442550
 20
49.391847
 30
0.0
 10
67.673781
 20
50.406978
 30
0.0
  0
SPLINE
  5
274
100
AcDbEntity
  8
Layer_1
 62
1
100
AcDbSpline
 70
8
 71
3
 72
8
 73
4
 74
0
 40
0
 40
0
 40
0
 40
0
 40
1
 40
1
 40
1
 40
1
 10
69.184186
 20
49.439324
 30
0.0
 10
69.372611
 20
49.171034
 30
0.0
 10
69.631882
 20
48.822107
 30
0.0
 10
69.962000
 20
48.392541
 30
0.0
  0
SPLINE
  5
275
100
AcDbEntity
  8
Layer_1
 62
1
100
AcDbSpline
 70
8
 71
3
 72
8
 73
4
 74
0
 40
0
 40
0
 40
0
 40
0
 40
1
 40
1
 40
1
 40
1
 10
69.962000
 20
48.392541
 30
0.0
 10
69.915271
 20
48.401585
 30
0.0
 10
69.806739
 20
48.406107
 30
0.0
 10
69.636404
 20
48.406107
 30
0.0
  0
SPLINE
  5
276
100
AcDbEntity
  8
Layer_1
 62
1
100
AcDbSpline
 70
8
 71
3
 72
8
 73
4
 74
0
 40
0
 40
0
 40
0
 40
0
 40
1
 40
1
 40
1
 40
1
 10
69.636404
 20
48.406107
 30
0.0
 10
69.386178
 20
48.406107
 30
0.0
 10
69.238453
 20
48.401585
 30
0.0
 10
69.193231
 20
48.392541
 30
0.0
  0
SPLINE
  5
277
100
AcDbEntity
  8
Layer_1
 62
1
100
AcDbSpline
 70
8
 71
3
 72
8
 73
4
 74
0
 40
0
 40
0
 40
0
 40
0
 40
1
 40
1
 40
1
 40
1
 10
69.193231
 20
48.392541
 30
0.0
 10
69.095251
 20
48.546281
 30
0.0
 10
68.930945
 20
48.785180
 30
0.0
 10
68.700315
 20
49.109238
 30
0.0
  0
SPLINE
  5
278
100
AcDbEntity
  8
Layer_1
 62
1
100
AcDbSpline
 70
8
 71
3
 72
8
 73
4
 74
0
 40
0
 40
0
 40
0
 40
0
 40
1
 40
1
 40
1
 40
1
 10
68.700315
 20
49.109238
 30
0.0
 10
68.459132
 20
48.771614
 30
0.0
 10
68.291058
 20
48.532715
 30
0.0
 10
68.196092
 20
48.392541
 30
0.0
  0
SPLINE
  5
279
100
AcDbEntity
  8
Layer_1
 62
1
100
AcDbSpline
 70
8
 71
3
 72
8
 73
4
 74
0
 40
0
 40
0
 40
0
 40
0
 40
1
 40
1
 40
1
 40
1
 10
68.196092
 20
48.392541
 30
0.0
 10
68.165945
 20
48.401585
 30
0.0
 10
68.083038
 20
48.406107
 30
0.0
 10
67.947373
 20
48.406107
 30
0.0
  0
SPLINE
  5
27a
100
AcDbEntity
  8
Layer_1
 62
1
100
AcDbSpline
 70
8
 71
3
 72
8
 73
4
 74
0
 40
0
 40
0
 40
0
 40
0
 40
1
 40
1
 40
1
 40
1
 10
67.947373
 20
48.406107
 30
0.0
 10
67.808693
 20
48.406107
 30
0.0
 10
67.723525
 20
48.401585
 30
0.0
 10
67.691870
 20
48.392541
 30
0.0
  0
LWPOLYLINE
  5
27b
100
AcDbEntity
  8
Layer_1
 62
1
100
AcDbPolyline
 90
3
 70
0
 10
69.878341
 20
50.406978
 30
0.0
 10
69.116354
 20
49.525237
 30
0.0
 10
69.184186
 20
49.439324
 30
0.0
  0
LWPOLYLINE
  5
27c
100
AcDbEntity
  8
Layer_1
 62
1
100
AcDbPolyline
 90
3
 70
0
 10
67.691870
 20
48.392541
 30
0.0
 10
68.449334
 20
49.346629
 30
0.0
 10
68.462900
 20
49.364716
 30
0.0
  0
ENDSEC
  0
SECTION
  2
OBJECTS
  0
DICTIONARY
  5
C
330
0
100
AcDbDictionary
  3
ACAD_GROUP
350
D
  3
ACAD_MLINESTYLE
350
17
  0
DICTIONARY
  5
D
330
C
100
AcDbDictionary
  0
DICTIONARY
  5
1A
330
C
100
AcDbDictionary
  0
DICTIONARY
  5
17
330
C
100
AcDbDictionary
  3
STANDARD
350
18
  0
DICTIONARY
  5
19
330
C
100
AcDbDictionary
  0
ENDSEC
  0
EOF
