<?xml version="1.0" encoding="UTF-8" standalone="no"?>
<!-- Created with Inkscape (http://www.inkscape.org/) -->

<svg
   xmlns:dc="http://purl.org/dc/elements/1.1/"
   xmlns:cc="http://creativecommons.org/ns#"
   xmlns:rdf="http://www.w3.org/1999/02/22-rdf-syntax-ns#"
   xmlns:svg="http://www.w3.org/2000/svg"
   xmlns="http://www.w3.org/2000/svg"
   xmlns:sodipodi="http://sodipodi.sourceforge.net/DTD/sodipodi-0.dtd"
   xmlns:inkscape="http://www.inkscape.org/namespaces/inkscape"
   width="100mm"
   height="100mm"
   viewBox="0 0 100 100"
   version="1.1"
   id="svg8"
   inkscape:version="0.92.5 (2060ec1f9f, 2020-04-08)"
   sodipodi:docname="cut_text.svg"
   inkscape:export-filename="/home/kampff/LastBlackBox/repo/design/logo/logo.png"
   inkscape:export-xdpi="299.83127"
   inkscape:export-ydpi="299.83127">
  <defs
     id="defs2" />
  <sodipodi:namedview
     id="base"
     pagecolor="#ffffff"
     bordercolor="#666666"
     borderopacity="1.0"
     inkscape:pageopacity="0.0"
     inkscape:pageshadow="2"
     inkscape:zoom="3.959798"
     inkscape:cx="225.7888"
     inkscape:cy="192.17249"
     inkscape:document-units="mm"
     inkscape:current-layer="layer1"
     showgrid="false"
     inkscape:showpageshadow="true"
     inkscape:snap-global="true"
     inkscape:window-width="1866"
     inkscape:window-height="1016"
     inkscape:window-x="54"
     inkscape:window-y="27"
     inkscape:window-maximized="1" />
  <metadata
     id="metadata5">
    <rdf:RDF>
      <cc:Work
         rdf:about="">
        <dc:format>image/svg+xml</dc:format>
        <dc:type
           rdf:resource="http://purl.org/dc/dcmitype/StillImage" />
        <dc:title></dc:title>
      </cc:Work>
    </rdf:RDF>
  </metadata>
  <g
     inkscape:label="Layer 1"
     inkscape:groupmode="layer"
     id="layer1"
     transform="translate(0,-197)"
     style="display:inline">
    <g
       aria-label="The Last Black Box"
       transform="matrix(0.13357802,0,0,0.13356525,23.723874,205.44687)"
       style="font-style:normal;font-variant:normal;font-weight:normal;font-stretch:normal;font-size:14.66666698px;line-height:1.25;font-family:'Linux Biolinum';-inkscape-font-specification:'Linux Biolinum';letter-spacing:0px;word-spacing:0px;fill:none;fill-opacity:1;stroke:#ff0000;stroke-width:0.56898308;stroke-miterlimit:4;stroke-dasharray:none;stroke-opacity:1"
       id="flowRoot958">
      <path
         d="m 54.683263,307.9249 q 0,-3.60547 -0.270833,-4.53646 -2.082032,0 -3.859375,0.1862 -1.760417,0.18619 -2.488282,0.38932 l -0.727864,0.1862 -0.06771,-0.13542 q 0.135417,-1.15104 0,-3.33463 l 0.06771,-0.10157 q 0.829427,0.10157 2.082031,0.10157 h 15.522136 q 1.252604,0 2.082031,-0.10157 l 0.06771,0.10157 q -0.135417,2.18359 0,3.33463 l -0.06771,0.13542 q -2.420573,-0.76172 -7.075521,-0.76172 -0.270833,0.93099 -0.270833,4.53646 v 8.17578 q 0,4.46875 0.338541,6.9401 l -0.06771,0.10157 q -1.591146,-0.10157 -2.776042,-0.10157 l -2.792968,0.10157 -0.03386,-0.10157 q 0.338542,-2.35286 0.338542,-6.9401 z"
         style="font-style:normal;font-variant:normal;font-weight:bold;font-stretch:normal;font-size:34.66666794px;font-family:'Linux Biolinum';-inkscape-font-specification:'Linux Biolinum, Bold';font-variant-ligatures:normal;font-variant-caps:normal;font-variant-numeric:normal;font-feature-settings:normal;text-align:center;writing-mode:lr-tb;text-anchor:middle;fill:none;fill-opacity:1;stroke:#ff0000;stroke-width:0.56898308;stroke-miterlimit:4;stroke-dasharray:none;stroke-opacity:1"
         id="path1428" />
      <path
         d="m 70.577795,306.60458 q 0,-4.19791 -0.40625,-6.51692 l 0.06771,-0.10156 q 0.964843,-0.0677 2.589844,-0.45704 1.641927,-0.40625 2.369791,-0.69401 0.304688,0 0.304688,0.35547 -0.338542,2.77604 -0.355469,6.51693 v 2.14974 l -0.135417,3.01302 0.135417,0.0677 q 1.151042,-1.45573 2.826823,-2.28516 1.692708,-0.82943 3.114583,-0.82943 4.468751,0 4.468751,5.12891 v 3.84245 q 0,4.0625 0.338541,6.24609 l -0.06771,0.10157 q -0.93099,-0.10157 -2.115885,-0.10157 l -2.911459,0.10157 -0.03385,-0.10157 q 0.203125,-1.84505 0.220052,-6.24609 v -3.08073 q 0,-3.21615 -1.811198,-3.21615 -1.91276,0 -4.028646,2.75912 v 3.53776 q 0,3.8763 0.220052,6.24609 l -0.06771,0.10157 q -1.151042,-0.10157 -2.335938,-0.10157 l -2.759114,0.10157 -0.03386,-0.10157 q 0.423177,-2.64062 0.40625,-6.24609 z"
         style="font-style:normal;font-variant:normal;font-weight:bold;font-stretch:normal;font-size:34.66666794px;font-family:'Linux Biolinum';-inkscape-font-specification:'Linux Biolinum, Bold';font-variant-ligatures:normal;font-variant-caps:normal;font-variant-numeric:normal;font-feature-settings:normal;text-align:center;writing-mode:lr-tb;text-anchor:middle;fill:none;fill-opacity:1;stroke:#ff0000;stroke-width:0.56898308;stroke-miterlimit:4;stroke-dasharray:none;stroke-opacity:1"
         id="path1430" />
      <path
         d="m 94.597328,314.20485 h 5.416662 q 0,-4.63803 -2.251297,-4.65495 -1.33724,0 -2.098959,1.04948 -0.897135,1.20182 -1.066406,3.60547 z m 9.546872,5.1289 q 0.23698,0 0.38933,0.35547 0.15234,0.33854 0.15234,0.71094 -2.57292,2.97917 -6.855469,2.97917 -4.096354,0 -5.822917,-1.79428 -2.183594,-2.2513 -2.183594,-5.6875 0,-4.01171 2.826823,-6.34765 0.998698,-0.82943 2.4375,-1.26953 1.438803,-0.45704 2.911459,-0.45704 3.707028,0 5.128908,2.06511 1.42187,2.0651 1.42187,5.73828 l -0.20312,0.20313 q -2.97917,-0.0677 -6.432294,-0.0677 h -3.453125 q 0,2.38672 1.151042,3.63932 1.235677,1.35417 3.77474,1.35417 2.996097,0 4.756507,-1.42188 z"
         style="font-style:normal;font-variant:normal;font-weight:bold;font-stretch:normal;font-size:34.66666794px;font-family:'Linux Biolinum';-inkscape-font-specification:'Linux Biolinum, Bold';font-variant-ligatures:normal;font-variant-caps:normal;font-variant-numeric:normal;font-feature-settings:normal;text-align:center;writing-mode:lr-tb;text-anchor:middle;fill:none;fill-opacity:1;stroke:#ff0000;stroke-width:0.56898308;stroke-miterlimit:4;stroke-dasharray:none;stroke-opacity:1"
         id="path1432" />
      <path
         d="m 123.44108,315.76214 q 0,3.53776 0.27083,4.46875 2.08204,0 4.55339,-0.1862 2.48828,-0.1862 3.92708,-0.38932 l 1.43881,-0.1862 0.0677,0.13542 q -0.0677,0.55859 -0.0677,1.98046 0,0.49089 0.0677,1.45573 l -0.0677,0.10157 q -0.82943,-0.10157 -2.08204,-0.10157 h -10.54557 l -2.86068,0.10157 -0.0508,-0.10157 q 0.33854,-2.35286 0.35547,-6.9401 v -8.48047 q 0,-4.23177 -0.38932,-6.9401 l 0.0846,-0.10157 q 1.5573,0.10157 2.72526,0.10157 l 2.87761,-0.10157 0.0339,0.10157 q -0.33854,2.28515 -0.33854,6.9401 z"
         style="font-style:normal;font-variant:normal;font-weight:bold;font-stretch:normal;font-size:34.66666794px;font-family:'Linux Biolinum';-inkscape-font-specification:'Linux Biolinum, Bold';font-variant-ligatures:normal;font-variant-caps:normal;font-variant-numeric:normal;font-feature-settings:normal;text-align:center;writing-mode:lr-tb;text-anchor:middle;fill:none;fill-opacity:1;stroke:#ff0000;stroke-width:0.56898308;stroke-miterlimit:4;stroke-dasharray:none;stroke-opacity:1"
         id="path1434" />
      <path
         d="m 146.03874,315.33896 -2.77604,0.72786 q -2.1836,0.59245 -2.1836,3.26693 0,0.72787 0.52474,1.35417 0.52474,0.6263 1.28646,0.6263 1.38802,0 2.55599,-1.1849 0.16927,-0.16927 0.33854,-0.69401 0.1862,-0.52474 0.1862,-0.86328 z m 4.36719,4.92578 q 0,0.79557 0.45703,1.03255 0.47396,0.22006 1.65885,0.22006 0.27084,0.23698 0.33854,0.72786 -1.48958,1.15104 -4.11328,1.13412 -1.11718,0 -1.74349,-0.45704 -0.6263,-0.47395 -0.99869,-1.54036 h -0.0677 q -2.01433,2.01432 -4.75651,1.9974 -1.94662,0 -3.35157,-1.01563 -1.38802,-1.01562 -1.38802,-2.72526 0,-1.76042 1.40495,-3.04688 1.40495,-1.28645 3.92708,-1.8789 l 4.0625,-1.06641 q 0.20313,-0.0677 0.20313,-0.42318 0,-1.94661 -0.59245,-2.72526 -0.59245,-0.79557 -1.79427,-0.79557 -2.38672,0 -4.26562,2.72526 l -1.15105,-0.0339 -0.69401,-2.58985 0.10157,-0.15234 q 0.69401,-0.59245 2.79296,-1.20182 2.09896,-0.62631 3.87631,-0.62631 1.38802,0 2.72526,0.35547 1.35416,0.33855 2.11588,1.03256 1.38802,1.2526 1.38802,4.23177 0,0.10156 -0.0677,3.16536 -0.0677,3.0638 -0.0677,3.65625 z"
         style="font-style:normal;font-variant:normal;font-weight:bold;font-stretch:normal;font-size:34.66666794px;font-family:'Linux Biolinum';-inkscape-font-specification:'Linux Biolinum, Bold';font-variant-ligatures:normal;font-variant-caps:normal;font-variant-numeric:normal;font-feature-settings:normal;text-align:center;writing-mode:lr-tb;text-anchor:middle;fill:none;fill-opacity:1;stroke:#ff0000;stroke-width:0.56898308;stroke-miterlimit:4;stroke-dasharray:none;stroke-opacity:1"
         id="path1436" />
      <path
         d="m 155.01009,319.13063 1.03256,-0.0339 q 1.42187,2.77604 3.70703,2.75912 0.79557,0 1.21875,-0.0677 0.4401,-0.0677 0.79557,-0.45703 0.3724,-0.40625 0.3724,-1.16797 0,-0.9987 -0.66016,-1.65886 -0.64323,-0.66015 -2.6237,-1.74348 -1.76042,-0.96485 -2.72526,-2.01433 -0.94792,-1.0664 -0.94792,-2.72526 0,-1.94661 1.69271,-3.0638 1.70964,-1.13412 4.16407,-1.13412 2.97916,0 4.60416,0.89714 l 0.0677,0.10156 -0.64323,3.13151 -0.94792,0.0339 q -1.21875,-2.60677 -3.14843,-2.60677 -1.69271,0 -1.70964,1.69271 0,0.76171 0.52474,1.26953 0.52474,0.50781 1.55729,1.0664 0.13542,0.0677 0.89714,0.47396 0.77864,0.38932 0.94791,0.49089 0.16928,0.10156 0.77865,0.49088 0.60938,0.3724 0.79557,0.59245 0.1862,0.20312 0.57552,0.6263 0.40625,0.40625 0.52474,0.77865 0.13542,0.35547 0.27084,0.86328 0.13541,0.49088 0.13541,1.08333 0,1.94662 -1.60807,3.26693 -1.60807,1.30339 -4.80729,1.30339 -2.8776,0 -5.39974,-0.93099 z"
         style="font-style:normal;font-variant:normal;font-weight:bold;font-stretch:normal;font-size:34.66666794px;font-family:'Linux Biolinum';-inkscape-font-specification:'Linux Biolinum, Bold';font-variant-ligatures:normal;font-variant-caps:normal;font-variant-numeric:normal;font-feature-settings:normal;text-align:center;writing-mode:lr-tb;text-anchor:middle;fill:none;fill-opacity:1;stroke:#ff0000;stroke-width:0.56898308;stroke-miterlimit:4;stroke-dasharray:none;stroke-opacity:1"
         id="path1438" />
      <path
         d="m 170.76921,308.16188 q 0,-2.38672 0.15234,-3.48698 l 0.0677,-0.11849 q 0.6263,-0.13542 1.38802,-0.42318 0.76172,-0.30469 1.69271,-0.69401 0.93099,-0.40625 1.03255,-0.4401 0.30469,0 0.32162,0.35546 -0.16927,2.04818 -0.16927,4.8073 h 1.625 q 1.21875,0 2.42057,-0.10157 l 0.16927,0.28776 q -0.33854,0.82943 -0.40625,1.625 -0.69401,-0.0677 -2.50521,-0.0677 h -1.30338 l -0.0846,3.70703 q -0.0339,1.89583 -0.0339,4.89192 0,1.1849 0.30468,1.98047 0.32162,0.77865 0.98177,0.77865 1.1849,0 2.01433,-0.40625 0.59244,0.3724 0.59244,1.32031 -2.01432,1.21875 -5.09505,1.20183 -1.55729,0 -2.47135,-1.01563 -0.89714,-1.03255 -0.89714,-2.36979 0,-1.84505 0.10157,-6.00912 l 0.10156,-4.07942 q -1.625,0 -2.45443,0.0677 l -0.16927,-0.23697 q 0.45703,-0.69402 0.76172,-1.67579 0.74479,0.10157 1.86198,0.10157 z"
         style="font-style:normal;font-variant:normal;font-weight:bold;font-stretch:normal;font-size:34.66666794px;font-family:'Linux Biolinum';-inkscape-font-specification:'Linux Biolinum, Bold';font-variant-ligatures:normal;font-variant-caps:normal;font-variant-numeric:normal;font-feature-settings:normal;text-align:center;writing-mode:lr-tb;text-anchor:middle;fill:none;fill-opacity:1;stroke:#ff0000;stroke-width:0.56898308;stroke-miterlimit:4;stroke-dasharray:none;stroke-opacity:1"
         id="path1440" />
      <path
         d="m 197.07389,303.98089 v 6.05989 h 2.70833 q 2.08203,0 2.8099,-0.84635 0.74479,-0.84636 0.74479,-2.82682 0,-2.1836 -0.77865,-3.06381 -0.77864,-0.89713 -2.33593,-0.89713 -2.01433,0 -2.58985,0.33854 -0.55859,0.33854 -0.55859,1.23568 z m 0,7.90495 v 7.78645 q 0,0.89714 0.60937,1.26953 0.62631,0.3724 2.40365,0.3724 1.69271,0 2.70833,-0.25391 1.03255,-0.27083 1.47266,-0.8802 0.45703,-0.60938 0.57552,-1.1849 0.13542,-0.59245 0.13542,-1.67578 0,-5.45052 -4.68881,-5.43359 z m -2.36979,-11.20573 q 1.21875,0 3.18229,-0.0508 1.96354,-0.0508 2.4375,-0.0508 2.28515,0 3.96094,0.50782 1.6927,0.49088 2.55599,1.33724 0.86328,0.82942 1.26953,1.6927 0.40625,0.86328 0.40625,1.82813 0,1.35417 -1.06641,2.64062 -1.04948,1.28646 -2.50521,1.98047 2.48828,0.72787 4.04558,2.2513 1.55729,1.52344 1.55729,3.84245 0,2.57292 -2.35287,4.53646 -2.35286,1.94662 -7.10937,1.94662 -1.625,0 -3.41927,-0.0508 -1.77735,-0.0508 -2.96224,-0.0508 l -2.94532,0.10157 -0.0339,-0.10157 q 0.42318,-2.80989 0.42318,-6.9401 v -8.48047 q 0,-3.99479 -0.42318,-6.9401 l 0.0677,-0.10157 q 1.72656,0.10157 2.91146,0.10157 z"
         style="font-style:normal;font-variant:normal;font-weight:bold;font-stretch:normal;font-size:34.66666794px;font-family:'Linux Biolinum';-inkscape-font-specification:'Linux Biolinum, Bold';font-variant-ligatures:normal;font-variant-caps:normal;font-variant-numeric:normal;font-feature-settings:normal;text-align:center;writing-mode:lr-tb;text-anchor:middle;fill:none;fill-opacity:1;stroke:#ff0000;stroke-width:0.56898308;stroke-miterlimit:4;stroke-dasharray:none;stroke-opacity:1"
         id="path1442" />
      <path
         d="m 214.94889,316.10068 v -9.4961 q 0,-4.19791 -0.40625,-6.51692 l 0.0677,-0.10156 q 0.96485,-0.0677 2.58985,-0.45704 1.64192,-0.40625 2.36979,-0.69401 0.38932,0 0.37239,0.35547 -0.42317,3.33464 -0.42317,6.51693 v 10.39323 q 0,4.16406 0.42317,6.9401 l -0.0677,0.10157 q -1.45572,-0.10157 -2.64062,-0.10157 l -2.65755,0.10157 -0.0339,-0.10157 q 0.40625,-2.64062 0.40625,-6.9401 z"
         style="font-style:normal;font-variant:normal;font-weight:bold;font-stretch:normal;font-size:34.66666794px;font-family:'Linux Biolinum';-inkscape-font-specification:'Linux Biolinum, Bold';font-variant-ligatures:normal;font-variant-caps:normal;font-variant-numeric:normal;font-feature-settings:normal;text-align:center;writing-mode:lr-tb;text-anchor:middle;fill:none;fill-opacity:1;stroke:#ff0000;stroke-width:0.56898308;stroke-miterlimit:4;stroke-dasharray:none;stroke-opacity:1"
         id="path1444" />
      <path
         d="m 233.28093,315.33896 -2.77604,0.72786 q -2.18359,0.59245 -2.18359,3.26693 0,0.72787 0.52474,1.35417 0.52474,0.6263 1.28646,0.6263 1.38802,0 2.55599,-1.1849 0.16927,-0.16927 0.33854,-0.69401 0.1862,-0.52474 0.1862,-0.86328 z m 4.36719,4.92578 q 0,0.79557 0.45703,1.03255 0.47396,0.22006 1.65886,0.22006 0.27083,0.23698 0.33854,0.72786 -1.48958,1.15104 -4.11328,1.13412 -1.11719,0 -1.74349,-0.45704 -0.6263,-0.47395 -0.9987,-1.54036 h -0.0677 q -2.01432,2.01432 -4.75651,1.9974 -1.94661,0 -3.35156,-1.01563 -1.38802,-1.01562 -1.38802,-2.72526 0,-1.76042 1.40495,-3.04688 1.40494,-1.28645 3.92708,-1.8789 l 4.0625,-1.06641 q 0.20312,-0.0677 0.20312,-0.42318 0,-1.94661 -0.59244,-2.72526 -0.59245,-0.79557 -1.79427,-0.79557 -2.38672,0 -4.26563,2.72526 l -1.15104,-0.0339 -0.69401,-2.58985 0.10156,-0.15234 q 0.69401,-0.59245 2.79297,-1.20182 2.09896,-0.62631 3.8763,-0.62631 1.38802,0 2.72526,0.35547 1.35417,0.33855 2.11589,1.03256 1.38802,1.2526 1.38802,4.23177 0,0.10156 -0.0677,3.16536 -0.0677,3.0638 -0.0677,3.65625 z"
         style="font-style:normal;font-variant:normal;font-weight:bold;font-stretch:normal;font-size:34.66666794px;font-family:'Linux Biolinum';-inkscape-font-specification:'Linux Biolinum, Bold';font-variant-ligatures:normal;font-variant-caps:normal;font-variant-numeric:normal;font-feature-settings:normal;text-align:center;writing-mode:lr-tb;text-anchor:middle;fill:none;fill-opacity:1;stroke:#ff0000;stroke-width:0.56898308;stroke-miterlimit:4;stroke-dasharray:none;stroke-opacity:1"
         id="path1446" />
      <path
         d="m 250.66505,309.5499 q -0.93099,0 -1.76042,0.4401 -0.8125,0.44011 -1.30338,1.23568 -0.84636,1.35417 -0.84636,3.91016 0,2.97916 1.03255,4.63802 0.49089,0.76171 1.3711,1.32031 0.88021,0.55859 1.64193,0.55859 2.67448,0 4.0625,-1.65885 l 0.55859,0.16927 q 0,0.59245 0.16927,1.35417 -1.1849,0.99869 -2.48828,1.4388 -1.28646,0.42318 -3.23307,0.42318 -4.13021,0 -6.16146,-2.21745 -1.87891,-2.04818 -1.87891,-5.12891 0,-3.91016 2.42057,-6.0599 2.4375,-2.14974 6.11068,-2.14974 1.25261,0 2.79297,0.35547 1.54037,0.33855 2.36979,0.79558 l 0.0677,0.10156 -0.82943,3.35156 -0.96484,0.0339 q -1.1849,-2.91146 -3.13151,-2.91146 z"
         style="font-style:normal;font-variant:normal;font-weight:bold;font-stretch:normal;font-size:34.66666794px;font-family:'Linux Biolinum';-inkscape-font-specification:'Linux Biolinum, Bold';font-variant-ligatures:normal;font-variant-caps:normal;font-variant-numeric:normal;font-feature-settings:normal;text-align:center;writing-mode:lr-tb;text-anchor:middle;fill:none;fill-opacity:1;stroke:#ff0000;stroke-width:0.56898308;stroke-miterlimit:4;stroke-dasharray:none;stroke-opacity:1"
         id="path1448" />
      <path
         d="m 259.70411,316.10068 v -9.4961 q 0,-4.19791 -0.40625,-6.51692 l 0.0677,-0.10156 q 0.96484,-0.0677 2.58984,-0.45704 1.64193,-0.40625 2.3698,-0.69401 0.38932,0 0.37239,0.35547 -0.42318,3.33464 -0.42318,6.51693 v 8.68359 q 1.06641,-0.11849 1.57422,-0.50781 2.11589,-1.625 4.57032,-5.72135 4.79036,0 5.43359,-0.10157 l 0.0846,0.10157 q -4.67187,3.53776 -7.00781,6.14453 3.57162,4.33333 7.73568,8.73437 l -0.0677,0.10157 q -0.52474,-0.10157 -3.60547,-0.10157 -1.91276,0 -2.77604,0.10157 -1.38802,-2.53907 -2.42057,-3.9948 -1.01563,-1.47265 -2.60677,-3.25 -0.27084,-0.23698 -0.91407,-0.30468 v 0.50781 q 0,4.16406 0.42318,6.9401 l -0.0677,0.10157 q -1.45573,-0.10157 -2.64062,-0.10157 l -2.65755,0.10157 -0.0339,-0.10157 q 0.40625,-2.64062 0.40625,-6.9401 z"
         style="font-style:normal;font-variant:normal;font-weight:bold;font-stretch:normal;font-size:34.66666794px;font-family:'Linux Biolinum';-inkscape-font-specification:'Linux Biolinum, Bold';font-variant-ligatures:normal;font-variant-caps:normal;font-variant-numeric:normal;font-feature-settings:normal;text-align:center;writing-mode:lr-tb;text-anchor:middle;fill:none;fill-opacity:1;stroke:#ff0000;stroke-width:0.56898308;stroke-miterlimit:4;stroke-dasharray:none;stroke-opacity:1"
         id="path1450" />
      <path
         d="m 294.04915,303.98089 v 6.05989 h 2.70834 q 2.08203,0 2.80989,-0.84635 0.74479,-0.84636 0.74479,-2.82682 0,-2.1836 -0.77864,-3.06381 -0.77865,-0.89713 -2.33594,-0.89713 -2.01432,0 -2.58984,0.33854 -0.5586,0.33854 -0.5586,1.23568 z m 0,7.90495 v 7.78645 q 0,0.89714 0.60938,1.26953 0.6263,0.3724 2.40364,0.3724 1.69271,0 2.70834,-0.25391 1.03255,-0.27083 1.47265,-0.8802 0.45704,-0.60938 0.57553,-1.1849 0.13541,-0.59245 0.13541,-1.67578 0,-5.45052 -4.6888,-5.43359 z m -2.36979,-11.20573 q 1.21875,0 3.18229,-0.0508 1.96355,-0.0508 2.4375,-0.0508 2.28516,0 3.96094,0.50782 1.69271,0.49088 2.55599,1.33724 0.86328,0.82942 1.26953,1.6927 0.40625,0.86328 0.40625,1.82813 0,1.35417 -1.0664,2.64062 -1.04948,1.28646 -2.50521,1.98047 2.48828,0.72787 4.04557,2.2513 1.55729,1.52344 1.55729,3.84245 0,2.57292 -2.35286,4.53646 -2.35287,1.94662 -7.10938,1.94662 -1.625,0 -3.41927,-0.0508 -1.77734,-0.0508 -2.96224,-0.0508 l -2.94531,0.10157 -0.0339,-0.10157 q 0.42317,-2.80989 0.42317,-6.9401 v -8.48047 q 0,-3.99479 -0.42317,-6.9401 l 0.0677,-0.10157 q 1.72657,0.10157 2.91146,0.10157 z"
         style="font-style:normal;font-variant:normal;font-weight:bold;font-stretch:normal;font-size:34.66666794px;font-family:'Linux Biolinum';-inkscape-font-specification:'Linux Biolinum, Bold';font-variant-ligatures:normal;font-variant-caps:normal;font-variant-numeric:normal;font-feature-settings:normal;text-align:center;writing-mode:lr-tb;text-anchor:middle;fill:none;fill-opacity:1;stroke:#ff0000;stroke-width:0.56898308;stroke-miterlimit:4;stroke-dasharray:none;stroke-opacity:1"
         id="path1452" />
      <path
         d="m 310.36687,315.93141 q 0,-3.91016 2.30208,-6.00912 2.30208,-2.09896 6.16146,-2.09896 4.19792,0 6.24609,2.14974 2.06511,2.14974 2.06511,5.65365 0,3.60547 -2.21745,5.6875 -2.21745,2.06511 -6.16146,2.06511 -3.8763,0 -6.14453,-1.98047 -2.2513,-1.9974 -2.2513,-5.46745 z m 8.20963,-6.38151 q -1.42187,0 -2.18359,0.84635 -0.76172,0.82943 -0.93099,1.91276 -0.16927,1.06641 -0.16927,2.82683 0,6.51692 3.94401,6.51692 2.97917,0 2.97917,-5.09505 0,-3.77474 -0.76172,-5.38281 -0.76172,-1.625 -2.87761,-1.625 z"
         style="font-style:normal;font-variant:normal;font-weight:bold;font-stretch:normal;font-size:34.66666794px;font-family:'Linux Biolinum';-inkscape-font-specification:'Linux Biolinum, Bold';font-variant-ligatures:normal;font-variant-caps:normal;font-variant-numeric:normal;font-feature-settings:normal;text-align:center;writing-mode:lr-tb;text-anchor:middle;fill:none;fill-opacity:1;stroke:#ff0000;stroke-width:0.56898308;stroke-miterlimit:4;stroke-dasharray:none;stroke-opacity:1"
         id="path1454" />
      <path
         d="m 334.92805,315.8637 -0.15234,-0.20313 -5.75521,-7.60026 q 0.5586,0.10157 3.36849,0.10157 1.94662,0 2.52214,-0.10157 1.26953,2.09896 3.21614,4.79037 2.26823,-2.92839 3.53776,-4.79037 0.38933,0.10157 2.30209,0.10157 1.18489,0 1.55729,-0.10157 l -5.70443,6.60157 0.50781,0.64323 q 2.11589,3.01302 5.82292,7.83724 -0.52474,-0.10157 -2.4375,-0.10157 -2.80989,0 -3.31771,0.10157 -1.10026,-1.72657 -3.6901,-5.36589 -2.70833,3.79167 -3.77474,5.36589 -0.33854,-0.10157 -1.86198,-0.10157 -1.55729,0 -1.91276,0.10157 l 5.67057,-7.14323 z"
         style="font-style:normal;font-variant:normal;font-weight:bold;font-stretch:normal;font-size:34.66666794px;font-family:'Linux Biolinum';-inkscape-font-specification:'Linux Biolinum, Bold';font-variant-ligatures:normal;font-variant-caps:normal;font-variant-numeric:normal;font-feature-settings:normal;text-align:center;writing-mode:lr-tb;text-anchor:middle;fill:none;fill-opacity:1;stroke:#ff0000;stroke-width:0.56898308;stroke-miterlimit:4;stroke-dasharray:none;stroke-opacity:1"
         id="path1456" />
    </g>
    <flowRoot
       xml:space="preserve"
       id="flowRoot1412"
       style="fill:black;fill-opacity:1;stroke:none;font-family:'Linux Biolinum';font-style:normal;font-weight:normal;font-size:14.66666667px;line-height:1.25;letter-spacing:0px;word-spacing:0px;-inkscape-font-specification:'Linux Biolinum';font-stretch:normal;font-variant:normal"><flowRegion
         id="flowRegion1414"><rect
           id="rect1416"
           width="146.97719"
           height="79.296974"
           x="93.186569"
           y="139.30421" /></flowRegion><flowPara
         id="flowPara1418"></flowPara></flowRoot>    <flowRoot
       xml:space="preserve"
       id="flowRoot1420"
       style="fill:black;fill-opacity:1;stroke:none;font-family:'Linux Biolinum';font-style:normal;font-weight:normal;font-size:14.66666667px;line-height:1.25;letter-spacing:0px;word-spacing:0px;-inkscape-font-specification:'Linux Biolinum';font-stretch:normal;font-variant:normal"><flowRegion
         id="flowRegion1422"><rect
           id="rect1424"
           width="118.94547"
           height="97.479721"
           x="176.01907"
           y="140.31438" /></flowRegion><flowPara
         id="flowPara1426"></flowPara></flowRoot>  </g>
</svg>
