<?xml version="1.0" encoding="UTF-8" standalone="no"?>
<svg id="logo" width="100mm" height="100mm" viewBox="0 0 100 100" version="1.1" xmlns="http://www.w3.org/2000/svg" xmlns:svg="http://www.w3.org/2000/svg">
	<rect class="box" id="box_Atoms" transform="scale(1,1) translate(1, 1)" x="30.111000" y="41.584000" height="13.0" width="13.0" style="fill:#ffffff;fill-opacity:1;stroke:#000000;stroke-width:0.5;stroke-linecap:round;stroke-linejoin:miter;stroke-miterlimit:4;stroke-opacity:1"/>
	<rect class="box" id="box_Electrons" transform="scale(1,1) translate(1, 1)" x="43.056000" y="44.334000" height="13.0" width="13.0" style="fill:#ffffff;fill-opacity:1;stroke:#000000;stroke-width:0.5;stroke-linecap:round;stroke-linejoin:miter;stroke-miterlimit:4;stroke-opacity:1"/>
	<rect class="box" id="box_Magnets" transform="scale(1,1) translate(1, 1)" x="44.787000" y="35.310000" height="13.0" width="13.0" style="fill:#ffffff;fill-opacity:1;stroke:#000000;stroke-width:0.5;stroke-linecap:round;stroke-linejoin:miter;stroke-miterlimit:4;stroke-opacity:1"/>
	<rect class="box" id="box_Light" transform="scale(1,1) translate(1, 1)" x="56.432000" y="40.647000" height="13.0" width="13.0" style="fill:#ffffff;fill-opacity:1;stroke:#000000;stroke-width:0.5;stroke-linecap:round;stroke-linejoin:miter;stroke-miterlimit:4;stroke-opacity:1"/>
	<rect class="box" id="box_Sensors" transform="scale(1,1) translate(1, 1)" x="51.633000" y="32.732000" height="13.0" width="13.0" style="fill:#ffffff;fill-opacity:1;stroke:#000000;stroke-width:0.5;stroke-linecap:round;stroke-linejoin:miter;stroke-miterlimit:4;stroke-opacity:1"/>
	<rect class="box" id="box_Motors" transform="scale(1,1) translate(1, 1)" x="60.730000" y="35.965000" height="13.0" width="13.0" style="fill:#000000;fill-opacity:1;stroke:#000000;stroke-width:0.5;stroke-linecap:round;stroke-linejoin:miter;stroke-miterlimit:4;stroke-opacity:1"/>
	<rect class="box" id="box_Transistors" transform="scale(1,1) translate(1, 1)" x="68.113000" y="43.989000" height="13.0" width="13.0" style="fill:#ffffff;fill-opacity:1;stroke:#000000;stroke-width:0.5;stroke-linecap:round;stroke-linejoin:miter;stroke-miterlimit:4;stroke-opacity:1"/>
	<rect class="box" id="box_Amplifiers" transform="scale(1,1) translate(1, 1)" x="71.266000" y="33.164000" height="13.0" width="13.0" style="fill:#ffffff;fill-opacity:1;stroke:#000000;stroke-width:0.5;stroke-linecap:round;stroke-linejoin:miter;stroke-miterlimit:4;stroke-opacity:1"/>
	<rect class="box" id="box_Circuits" transform="scale(1,1) translate(1, 1)" x="67.657000" y="25.546000" height="13.0" width="13.0" style="fill:#ffffff;fill-opacity:1;stroke:#000000;stroke-width:0.5;stroke-linecap:round;stroke-linejoin:miter;stroke-miterlimit:4;stroke-opacity:1"/>
	<rect class="box" id="box_Power" transform="scale(1,1) translate(1, 1)" x="62.446000" y="21.072000" height="13.0" width="13.0" style="fill:#ffffff;fill-opacity:1;stroke:#000000;stroke-width:0.5;stroke-linecap:round;stroke-linejoin:miter;stroke-miterlimit:4;stroke-opacity:1"/>
	<rect class="box" id="box_Data" transform="scale(1,1) translate(1, 1)" x="57.531000" y="17.127000" height="13.0" width="13.0" style="fill:#ffffff;fill-opacity:1;stroke:#000000;stroke-width:0.5;stroke-linecap:round;stroke-linejoin:miter;stroke-miterlimit:4;stroke-opacity:1"/>
	<rect class="box" id="box_Logic" transform="scale(1,1) translate(1, 1)" x="48.949000" y="15.257000" height="13.0" width="13.0" style="fill:#ffffff;fill-opacity:1;stroke:#000000;stroke-width:0.5;stroke-linecap:round;stroke-linejoin:miter;stroke-miterlimit:4;stroke-opacity:1"/>
	<rect class="box" id="box_Memory" transform="scale(1,1) translate(1, 1)" x="54.655000" y="27.685000" height="13.0" width="13.0" style="fill:#ffffff;fill-opacity:1;stroke:#000000;stroke-width:0.5;stroke-linecap:round;stroke-linejoin:miter;stroke-miterlimit:4;stroke-opacity:1"/>
	<rect class="box" id="box_FPGAs" transform="scale(1,1) translate(1, 1)" x="44.271000" y="24.076000" height="13.0" width="13.0" style="fill:#000000;fill-opacity:1;stroke:#000000;stroke-width:0.5;stroke-linecap:round;stroke-linejoin:miter;stroke-miterlimit:4;stroke-opacity:1"/>
	<rect class="box" id="box_Computers" transform="scale(1,1) translate(1, 1)" x="39.460000" y="14.321000" height="13.0" width="13.0" style="fill:#ffffff;fill-opacity:1;stroke:#000000;stroke-width:0.5;stroke-linecap:round;stroke-linejoin:miter;stroke-miterlimit:4;stroke-opacity:1"/>
	<rect class="box" id="box_Control" transform="scale(1,1) translate(1, 1)" x="29.438000" y="16.326000" height="13.0" width="13.0" style="fill:#ffffff;fill-opacity:1;stroke:#000000;stroke-width:0.5;stroke-linecap:round;stroke-linejoin:miter;stroke-miterlimit:4;stroke-opacity:1"/>
	<rect class="box" id="box_Robotics" transform="scale(1,1) translate(1, 1)" x="34.347000" y="25.727000" height="13.0" width="13.0" style="fill:#ffffff;fill-opacity:1;stroke:#000000;stroke-width:0.5;stroke-linecap:round;stroke-linejoin:miter;stroke-miterlimit:4;stroke-opacity:1"/>
	<rect class="box" id="box_Systems" transform="scale(1,1) translate(1, 1)" x="28.536000" y="29.956000" height="13.0" width="13.0" style="fill:#ffffff;fill-opacity:1;stroke:#000000;stroke-width:0.5;stroke-linecap:round;stroke-linejoin:miter;stroke-miterlimit:4;stroke-opacity:1"/>
	<rect class="box" id="box_Linux" transform="scale(1,1) translate(1, 1)" x="21.519000" y="18.998000" height="13.0" width="13.0" style="fill:#ffffff;fill-opacity:1;stroke:#000000;stroke-width:0.5;stroke-linecap:round;stroke-linejoin:miter;stroke-miterlimit:4;stroke-opacity:1"/>
	<rect class="box" id="box_Python" transform="scale(1,1) translate(1, 1)" x="15.807000" y="23.943000" height="13.0" width="13.0" style="fill:#000000;fill-opacity:1;stroke:#000000;stroke-width:0.5;stroke-linecap:round;stroke-linejoin:miter;stroke-miterlimit:4;stroke-opacity:1"/>
	<rect class="box" id="box_Networks" transform="scale(1,1) translate(1, 1)" x="12.733000" y="29.422000" height="13.0" width="13.0" style="fill:#ffffff;fill-opacity:1;stroke:#000000;stroke-width:0.5;stroke-linecap:round;stroke-linejoin:miter;stroke-miterlimit:4;stroke-opacity:1"/>
	<rect class="box" id="box_Websites" transform="scale(1,1) translate(1, 1)" x="15.807000" y="35.970000" height="13.0" width="13.0" style="fill:#ffffff;fill-opacity:1;stroke:#000000;stroke-width:0.5;stroke-linecap:round;stroke-linejoin:miter;stroke-miterlimit:4;stroke-opacity:1"/>
	<rect class="box" id="box_Servers" transform="scale(1,1) translate(1, 1)" x="48.552000" y="51.343000" height="13.0" width="13.0" style="fill:#ffffff;fill-opacity:1;stroke:#000000;stroke-width:0.5;stroke-linecap:round;stroke-linejoin:miter;stroke-miterlimit:4;stroke-opacity:1"/>
	<rect class="box" id="box_Security" transform="scale(1,1) translate(1, 1)" x="64.787000" y="48.932000" height="13.0" width="13.0" style="fill:#ffffff;fill-opacity:1;stroke:#000000;stroke-width:0.5;stroke-linecap:round;stroke-linejoin:miter;stroke-miterlimit:4;stroke-opacity:1"/>
	<rect class="box" id="box_Audio" transform="scale(1,1) translate(1, 1)" x="55.365000" y="53.845000" height="13.0" width="13.0" style="fill:#000000;fill-opacity:1;stroke:#000000;stroke-width:0.5;stroke-linecap:round;stroke-linejoin:miter;stroke-miterlimit:4;stroke-opacity:1"/>
	<rect class="box" id="box_Vision" transform="scale(1,1) translate(1, 1)" x="60.080000" y="59.678000" height="13.0" width="13.0" style="fill:#ffffff;fill-opacity:1;stroke:#000000;stroke-width:0.5;stroke-linecap:round;stroke-linejoin:miter;stroke-miterlimit:4;stroke-opacity:1"/>
	<rect class="box" id="box_Learning" transform="scale(1,1) translate(1, 1)" x="22.050000" y="38.814000" height="13.0" width="13.0" style="fill:#ffffff;fill-opacity:1;stroke:#000000;stroke-width:0.5;stroke-linecap:round;stroke-linejoin:miter;stroke-miterlimit:4;stroke-opacity:1"/>
	<rect class="box" id="box_Intelligence" transform="scale(1,1) translate(1, 1)" x="31.787000" y="35.310000" height="13.0" width="13.0" style="fill:#000000;fill-opacity:1;stroke:#000000;stroke-width:0.5;stroke-linecap:round;stroke-linejoin:miter;stroke-miterlimit:4;stroke-opacity:1"/>
	<text class= "text" id="nbb" x="14.0" y="86.5" style="font-style:normal;font-weight:bold;font-size:9.5px;line-height:1.25;font-family:'Arial';white-space:pre;display:inline;fill:#FFFFFF;fill-opacity:1;stroke:none">No Black Boxes</text>
</svg>