999
dxfrw 0.6.3
  0
SECTION
  2
HEADER
  9
$ACADVER
  1
AC1021
  9
$DWGCODEPAGE
  3
ANSI_1252
  9
$INSBASE
 10
0
 20
0
 30
0
  9
$EXTMIN
 10
-432
 20
-2.000000000000927
 30
0
  9
$EXTMAX
 10
419
 20
844
 30
0
  9
$LIMMIN
 10
0
 20
0
  9
$LIMMAX
 10
420
 20
297
  9
$ORTHOMODE
 70
    0
  9
$REGENMODE
 70
    1
  9
$FILLMODE
 70
    1
  9
$QTEXTMODE
 70
    0
  9
$MIRRTEXT
 70
    0
  9
$LTSCALE
 40
1
  9
$ATTMODE
 70
    0
  9
$TEXTSIZE
 40
2.5
  9
$TRACEWID
 40
15.68
  9
$TEXTSTYLE
  7
STANDARD
  9
$CLAYER
  8
0
  9
$CELTYPE
  6
BYLAYER
  9
$CECOLOR
 62
  256
  9
$CELTSCALE
 40
1
  9
$DISPSILH
 70
    0
  9
$DIMSCALE
 40
2.5
  9
$DIMASZ
 40
2.5
  9
$DIMEXO
 40
0.625
  9
$DIMDLI
 40
3.75
  9
$DIMRND
 40
0
  9
$DIMDLE
 40
0
  9
$DIMEXE
 40
1.25
  9
$DIMTP
 40
0
  9
$DIMTM
 40
0
  9
$DIMTXT
 40
2.5
  9
$DIMCEN
 40
2.5
  9
$DIMTSZ
 40
0
  9
$DIMTOL
 70
    0
  9
$DIMLIM
 70
    0
  9
$DIMTIH
 70
    0
  9
$DIMTOH
 70
    0
  9
$DIMSE1
 70
    0
  9
$DIMSE2
 70
    0
  9
$DIMTAD
 70
    1
  9
$DIMZIN
 70
    8
  9
$DIMBLK
  1

  9
$DIMASO
 70
    1
  9
$DIMSHO
 70
    1
  9
$DIMPOST
  1

  9
$DIMAPOST
  1

  9
$DIMALT
 70
    0
  9
$DIMALTD
 70
    3
  9
$DIMALTF
 40
0.03937
  9
$DIMLFAC
 40
1
  9
$DIMTOFL
 70
    1
  9
$DIMTVP
 40
0
  9
$DIMTIX
 70
    0
  9
$DIMSOXD
 70
    0
  9
$DIMSAH
 70
    0
  9
$DIMBLK1
  1

  9
$DIMBLK2
  1

  9
$DIMSTYLE
  2
Standard
  9
$DIMCLRD
 70
    0
  9
$DIMCLRE
 70
    0
  9
$DIMCLRT
 70
    0
  9
$DIMTFAC
 40
1
  9
$DIMGAP
 40
0.625
  9
$DIMJUST
 70
    0
  9
$DIMSD1
 70
    0
  9
$DIMSD2
 70
    0
  9
$DIMTOLJ
 70
    0
  9
$DIMTZIN
 70
    8
  9
$DIMALTZ
 70
    0
  9
$DIMALTTZ
 70
    0
  9
$DIMUPT
 70
    0
  9
$DIMDEC
 70
    2
  9
$DIMTDEC
 70
    2
  9
$DIMALTU
 70
    2
  9
$DIMALTTD
 70
    3
  9
$DIMTXSTY
  7
STANDARD
  9
$DIMAUNIT
 70
    0
  9
$DIMADEC
 70
    0
  9
$DIMALTRND
 40
0
  9
$DIMAZIN
 70
    0
  9
$DIMDSEP
 70
   44
  9
$DIMATFIT
 70
    3
  9
$DIMFRAC
 70
    0
  9
$DIMLDRBLK
  1
STANDARD
  9
$DIMLUNIT
 70
    2
  9
$DIMLWD
 70
   -2
  9
$DIMLWE
 70
   -2
  9
$DIMTMOVE
 70
    0
  9
$DIMFXL
 40
1
  9
$DIMFXLON
 70
    0
  9
$DIMJOGANG
 40
0.7854
  9
$DIMTFILL
 70
    0
  9
$DIMTFILLCLR
 70
    0
  9
$DIMARCSYM
 70
    0
  9
$DIMLTYPE
  6

  9
$DIMLTEX1
  6

  9
$DIMLTEX2
  6

  9
$LUNITS
 70
    2
  9
$LUPREC
 70
    4
  9
$SKETCHINC
 40
1
  9
$FILLETRAD
 40
0
  9
$AUNITS
 70
    0
  9
$AUPREC
 70
    2
  9
$MENU
  1
.
  9
$ELEVATION
 40
0
  9
$PELEVATION
 40
0
  9
$THICKNESS
 40
0
  9
$LIMCHECK
 70
    0
  9
$CHAMFERA
 40
0
  9
$CHAMFERB
 40
0
  9
$CHAMFERC
 40
0
  9
$CHAMFERD
 40
0
  9
$SKPOLY
 70
    0
  9
$USRTIMER
 70
    1
  9
$ANGBASE
 50
0
  9
$ANGDIR
 70
    0
  9
$PDMODE
 70
   96
  9
$PDSIZE
 40
-2
  9
$PLINEWID
 40
0
  9
$SPLFRAME
 70
    0
  9
$SPLINETYPE
 70
    2
  9
$SPLINESEGS
 70
    8
  9
$HANDSEED
  5
20000
  9
$SURFTAB1
 70
    6
  9
$SURFTAB2
 70
    6
  9
$SURFTYPE
 70
    6
  9
$SURFU
 70
    6
  9
$SURFV
 70
    6
  9
$UCSBASE
  2

  9
$UCSNAME
  2

  9
$UCSORG
 10
0
 20
0
 30
0
  9
$UCSXDIR
 10
1
 20
0
 30
0
  9
$UCSYDIR
 10
0
 20
1
 30
0
  9
$UCSORTHOREF
  2

  9
$UCSORTHOVIEW
 70
    0
  9
$UCSORGTOP
 10
0
 20
0
 30
0
  9
$UCSORGBOTTOM
 10
0
 20
0
 30
0
  9
$UCSORGLEFT
 10
0
 20
0
 30
0
  9
$UCSORGRIGHT
 10
0
 20
0
 30
0
  9
$UCSORGFRONT
 10
0
 20
0
 30
0
  9
$UCSORGBACK
 10
0
 20
0
 30
0
  9
$PUCSBASE
  2

  9
$PUCSNAME
  2

  9
$PUCSORG
 10
0
 20
0
 30
0
  9
$PUCSXDIR
 10
1
 20
0
 30
0
  9
$PUCSYDIR
 10
0
 20
1
 30
0
  9
$PUCSORTHOREF
  2

  9
$PUCSORTHOVIEW
 70
    0
  9
$PUCSORGTOP
 10
0
 20
0
 30
0
  9
$PUCSORGBOTTOM
 10
0
 20
0
 30
0
  9
$PUCSORGLEFT
 10
0
 20
0
 30
0
  9
$PUCSORGRIGHT
 10
0
 20
0
 30
0
  9
$PUCSORGFRONT
 10
0
 20
0
 30
0
  9
$PUCSORGBACK
 10
0
 20
0
 30
0
  9
$USERI1
 70
    0
  9
$USERI2
 70
    0
  9
$USERI3
 70
    0
  9
$USERI4
 70
    0
  9
$USERI5
 70
    0
  9
$USERR1
 40
0
  9
$USERR2
 40
0
  9
$USERR3
 40
0
  9
$USERR4
 40
0
  9
$USERR5
 40
0
  9
$WORLDVIEW
 70
    1
  9
$SHADEDGE
 70
    3
  9
$SHADEDIF
 70
   70
  9
$TILEMODE
 70
    1
  9
$MAXACTVP
 70
   64
  9
$PINSBASE
 10
0
 20
0
 30
0
  9
$PLIMCHECK
 70
    0
  9
$PEXTMIN
 10
0
 20
0
 30
0
  9
$PEXTMAX
 10
0
 20
0
 30
0
  9
$GRIDMODE
 70
    1
  9
$SNAPSTYLE
 70
    0
  9
$PLIMMIN
 10
0
 20
0
  9
$PLIMMAX
 10
210
 20
297
  9
$UNITMODE
 70
    0
  9
$VISRETAIN
 70
    1
  9
$PLINEGEN
 70
    0
  9
$PSLTSCALE
 70
    1
  9
$TREEDEPTH
 70
 3020
  9
$CMLSTYLE
  2
Standard
  9
$CMLJUST
 70
    0
  9
$CMLSCALE
 40
20
  9
$PROXYGRAPHICS
 70
    1
  9
$MEASUREMENT
 70
    1
  9
$CELWEIGHT
370
   -1
  9
$ENDCAPS
280
    0
  9
$JOINSTYLE
280
    0
  9
$LWDISPLAY
290
    0
  9
$INSUNITS
 70
    4
  9
$HYPERLINKBASE
  1

  9
$STYLESHEET
  1

  9
$XEDIT
290
    1
  9
$CEPSNTYPE
380
    0
  9
$PSTYLEMODE
290
    1
  9
$EXTNAMES
290
    1
  9
$PSVPSCALE
 40
1
  9
$OLESTARTUP
290
    0
  9
$SORTENTS
280
  127
  9
$INDEXCTL
280
    0
  9
$HIDETEXT
280
    1
  9
$XCLIPFRAME
290
    0
  9
$HALOGAP
280
    0
  9
$OBSCOLOR
 70
  257
  9
$OBSLTYPE
280
    0
  9
$INTERSECTIONDISPLAY
280
    0
  9
$INTERSECTIONCOLOR
 70
  257
  9
$DIMASSOC
280
    1
  9
$PROJECTNAME
  1

  9
$CAMERADISPLAY
290
    0
  9
$LENSLENGTH
 40
50
  9
$CAMERAHEIGHT
 40
0
  9
$STEPSPERSEC
 40
2
  9
$STEPSIZE
 40
50
  9
$3DDWFPREC
 40
2
  9
$PSOLWIDTH
 40
5
  9
$PSOLHEIGHT
 40
80
  9
$LOFTANG1
 40
1.570796326794897
  9
$LOFTANG2
 40
1.570796326794897
  9
$LOFTMAG1
 40
0
  9
$LOFTMAG2
 40
0
  9
$LOFTPARAM
 70
    7
  9
$LOFTNORMALS
280
    1
  9
$LATITUDE
 40
1
  9
$LONGITUDE
 40
1
  9
$NORTHDIRECTION
 40
0
  9
$TIMEZONE
 70
-8000
  9
$LIGHTGLYPHDISPLAY
280
    1
  9
$TILEMODELIGHTSYNCH
280
    1
  9
$SOLIDHIST
280
    1
  9
$SHOWHIST
280
    1
  9
$DWFFRAME
280
    2
  9
$DGNFRAME
280
    0
  9
$REALWORLDSCALE
290
    1
  9
$INTERFERECOLOR
 62
    1
  9
$CSHADOW
280
    0
  9
$SHADOWPLANELOCATION
 40
0
  0
ENDSEC
  0
SECTION
  2
CLASSES
  0
ENDSEC
  0
SECTION
  2
TABLES
  0
TABLE
  2
VPORT
  5
8
330
0
100
AcDbSymbolTable
 70
    1
  0
VPORT
  5
31
330
2
100
AcDbSymbolTableRecord
100
AcDbViewportTableRecord
  2
*ACTIVE
 70
    0
 10
0
 20
0
 11
1
 21
1
 12
675.1155695189664
 22
1325.456255752833
 13
0
 23
0
 14
10
 24
10
 15
10
 25
10
 16
0
 26
0
 36
1
 17
0
 27
0
 37
0
 40
4409.929224747744
 41
0.5337078651685393
 42
50
 43
0
 44
0
 50
0
 51
0
 71
    0
 72
  100
 73
    1
 74
    3
 75
    0
 76
    1
 77
    0
 78
    0
281
    0
 65
    1
110
0
120
0
130
0
111
1
121
0
131
0
112
0
122
1
132
0
 79
    0
146
0
348
10020
 60
    7
 61
    5
292
1
282
    1
141
0
142
0
 63
  250
421
3358443
  0
ENDTAB
  0
TABLE
  2
LTYPE
  5
5
330
0
100
AcDbSymbolTable
 70
    4
  0
LTYPE
  5
14
330
5
100
AcDbSymbolTableRecord
100
AcDbLinetypeTableRecord
  2
ByBlock
 70
    0
  3

 72
   65
 73
    0
 40
0
  0
LTYPE
  5
15
330
5
100
AcDbSymbolTableRecord
100
AcDbLinetypeTableRecord
  2
ByLayer
 70
    0
  3

 72
   65
 73
    0
 40
0
  0
LTYPE
  5
16
330
5
100
AcDbSymbolTableRecord
100
AcDbLinetypeTableRecord
  2
Continuous
 70
    0
  3
Solid line
 72
   65
 73
    0
 40
0
  0
LTYPE
  5
32
330
5
100
AcDbSymbolTableRecord
100
AcDbLinetypeTableRecord
  2
DOT
 70
    0
  3
Dot . . . . . . . . . . . . . . . . . . . . . .
 72
   65
 73
    2
 40
6.35
 49
0
 74
    0
 49
-6.35
 74
    0
  0
LTYPE
  5
33
330
5
100
AcDbSymbolTableRecord
100
AcDbLinetypeTableRecord
  2
DOTTINY
 70
    0
  3
Dot (.15x) .....................................
 72
   65
 73
    2
 40
0.9525
 49
0
 74
    0
 49
-0.9525
 74
    0
  0
LTYPE
  5
34
330
5
100
AcDbSymbolTableRecord
100
AcDbLinetypeTableRecord
  2
DOT2
 70
    0
  3
Dot (.5x) .....................................
 72
   65
 73
    2
 40
3.175
 49
0
 74
    0
 49
-3.175
 74
    0
  0
LTYPE
  5
35
330
5
100
AcDbSymbolTableRecord
100
AcDbLinetypeTableRecord
  2
DOTX2
 70
    0
  3
Dot (2x) .  .  .  .  .  .  .  .  .  .  .  .  .
 72
   65
 73
    2
 40
12.7
 49
0
 74
    0
 49
-12.7
 74
    0
  0
LTYPE
  5
36
330
5
100
AcDbSymbolTableRecord
100
AcDbLinetypeTableRecord
  2
DASHED
 70
    0
  3
Dashed _ _ _ _ _ _ _ _ _ _ _ _ _ _ _ _ _
 72
   65
 73
    2
 40
19.05
 49
12.7
 74
    0
 49
-6.35
 74
    0
  0
LTYPE
  5
37
330
5
100
AcDbSymbolTableRecord
100
AcDbLinetypeTableRecord
  2
DASHEDTINY
 70
    0
  3
Dashed (.15x) _ _ _ _ _ _ _ _ _ _ _ _ _ _ _ _ _
 72
   65
 73
    2
 40
2.8575
 49
1.905
 74
    0
 49
-0.9525
 74
    0
  0
LTYPE
  5
38
330
5
100
AcDbSymbolTableRecord
100
AcDbLinetypeTableRecord
  2
DASHED2
 70
    0
  3
Dashed (.5x) _ _ _ _ _ _ _ _ _ _ _ _ _ _ _ _ _
 72
   65
 73
    2
 40
9.524999999999999
 49
6.35
 74
    0
 49
-3.175
 74
    0
  0
LTYPE
  5
39
330
5
100
AcDbSymbolTableRecord
100
AcDbLinetypeTableRecord
  2
DASHEDX2
 70
    0
  3
Dashed (2x) ____  ____  ____  ____  ____  ___
 72
   65
 73
    2
 40
38.09999999999999
 49
25.4
 74
    0
 49
-12.7
 74
    0
  0
LTYPE
  5
3A
330
5
100
AcDbSymbolTableRecord
100
AcDbLinetypeTableRecord
  2
DASHDOT
 70
    0
  3
Dash dot __ . __ . __ . __ . __ . __ . __ . __
 72
   65
 73
    4
 40
25.4
 49
12.7
 74
    0
 49
-6.35
 74
    0
 49
0
 74
    0
 49
-6.35
 74
    0
  0
LTYPE
  5
3B
330
5
100
AcDbSymbolTableRecord
100
AcDbLinetypeTableRecord
  2
DASHDOTTINY
 70
    0
  3
Dash dot (.15x) _._._._._._._._._._._._._._._.
 72
   65
 73
    4
 40
3.81
 49
1.905
 74
    0
 49
-0.9525
 74
    0
 49
0
 74
    0
 49
-0.9525
 74
    0
  0
LTYPE
  5
3C
330
5
100
AcDbSymbolTableRecord
100
AcDbLinetypeTableRecord
  2
DASHDOT2
 70
    0
  3
Dash dot (.5x) _._._._._._._._._._._._._._._.
 72
   65
 73
    4
 40
12.7
 49
6.35
 74
    0
 49
-3.175
 74
    0
 49
0
 74
    0
 49
-3.175
 74
    0
  0
LTYPE
  5
3D
330
5
100
AcDbSymbolTableRecord
100
AcDbLinetypeTableRecord
  2
DASHDOTX2
 70
    0
  3
Dash dot (2x) ____  .  ____  .  ____  .  ___
 72
   65
 73
    4
 40
50.8
 49
25.4
 74
    0
 49
-12.7
 74
    0
 49
0
 74
    0
 49
-12.7
 74
    0
  0
LTYPE
  5
3E
330
5
100
AcDbSymbolTableRecord
100
AcDbLinetypeTableRecord
  2
DIVIDE
 70
    0
  3
Divide ____ . . ____ . . ____ . . ____ . . ____
 72
   65
 73
    6
 40
31.75
 49
12.7
 74
    0
 49
-6.35
 74
    0
 49
0
 74
    0
 49
-6.35
 74
    0
 49
0
 74
    0
 49
-6.35
 74
    0
  0
LTYPE
  5
3F
330
5
100
AcDbSymbolTableRecord
100
AcDbLinetypeTableRecord
  2
DIVIDETINY
 70
    0
  3
Divide (.15x) __..__..__..__..__..__..__..__.._
 72
   65
 73
    6
 40
4.7625
 49
1.905
 74
    0
 49
-0.9525
 74
    0
 49
0
 74
    0
 49
-0.9525
 74
    0
 49
0
 74
    0
 49
-0.9525
 74
    0
  0
LTYPE
  5
40
330
5
100
AcDbSymbolTableRecord
100
AcDbLinetypeTableRecord
  2
DIVIDE2
 70
    0
  3
Divide (.5x) __..__..__..__..__..__..__..__.._
 72
   65
 73
    6
 40
15.875
 49
6.35
 74
    0
 49
-3.175
 74
    0
 49
0
 74
    0
 49
-3.175
 74
    0
 49
0
 74
    0
 49
-3.175
 74
    0
  0
LTYPE
  5
41
330
5
100
AcDbSymbolTableRecord
100
AcDbLinetypeTableRecord
  2
DIVIDEX2
 70
    0
  3
Divide (2x) ________  .  .  ________  .  .  _
 72
   65
 73
    6
 40
63.5
 49
25.4
 74
    0
 49
-12.7
 74
    0
 49
0
 74
    0
 49
-12.7
 74
    0
 49
0
 74
    0
 49
-12.7
 74
    0
  0
LTYPE
  5
42
330
5
100
AcDbSymbolTableRecord
100
AcDbLinetypeTableRecord
  2
BORDER
 70
    0
  3
Border __ __ . __ __ . __ __ . __ __ . __ __ .
 72
   65
 73
    6
 40
44.45
 49
12.7
 74
    0
 49
-6.35
 74
    0
 49
12.7
 74
    0
 49
-6.35
 74
    0
 49
0
 74
    0
 49
-6.35
 74
    0
  0
LTYPE
  5
43
330
5
100
AcDbSymbolTableRecord
100
AcDbLinetypeTableRecord
  2
BORDERTINY
 70
    0
  3
Border (.15x) __.__.__.__.__.__.__.__.__.__.__.
 72
   65
 73
    6
 40
6.6675
 49
1.905
 74
    0
 49
-0.9525
 74
    0
 49
1.905
 74
    0
 49
-0.9525
 74
    0
 49
0
 74
    0
 49
-0.9525
 74
    0
  0
LTYPE
  5
44
330
5
100
AcDbSymbolTableRecord
100
AcDbLinetypeTableRecord
  2
BORDER2
 70
    0
  3
Border (.5x) __.__.__.__.__.__.__.__.__.__.__.
 72
   65
 73
    6
 40
22.225
 49
6.35
 74
    0
 49
-3.175
 74
    0
 49
6.35
 74
    0
 49
-3.175
 74
    0
 49
0
 74
    0
 49
-3.175
 74
    0
  0
LTYPE
  5
45
330
5
100
AcDbSymbolTableRecord
100
AcDbLinetypeTableRecord
  2
BORDERX2
 70
    0
  3
Border (2x) ____  ____  .  ____  ____  .  ___
 72
   65
 73
    6
 40
88.89999999999999
 49
25.4
 74
    0
 49
-12.7
 74
    0
 49
25.4
 74
    0
 49
-12.7
 74
    0
 49
0
 74
    0
 49
-12.7
 74
    0
  0
LTYPE
  5
46
330
5
100
AcDbSymbolTableRecord
100
AcDbLinetypeTableRecord
  2
CENTER
 70
    0
  3
Center ____ _ ____ _ ____ _ ____ _ ____ _ ____
 72
   65
 73
    4
 40
50.8
 49
31.75
 74
    0
 49
-6.35
 74
    0
 49
6.35
 74
    0
 49
-6.35
 74
    0
  0
LTYPE
  5
47
330
5
100
AcDbSymbolTableRecord
100
AcDbLinetypeTableRecord
  2
CENTERTINY
 70
    0
  3
Center (.15x) ___ _ ___ _ ___ _ ___ _ ___ _ ___
 72
   65
 73
    4
 40
7.619999999999999
 49
4.7625
 74
    0
 49
-0.9525
 74
    0
 49
0.9525
 74
    0
 49
-0.9525
 74
    0
  0
LTYPE
  5
48
330
5
100
AcDbSymbolTableRecord
100
AcDbLinetypeTableRecord
  2
CENTER2
 70
    0
  3
Center (.5x) ___ _ ___ _ ___ _ ___ _ ___ _ ___
 72
   65
 73
    4
 40
28.575
 49
19.05
 74
    0
 49
-3.175
 74
    0
 49
3.175
 74
    0
 49
-3.175
 74
    0
  0
LTYPE
  5
49
330
5
100
AcDbSymbolTableRecord
100
AcDbLinetypeTableRecord
  2
CENTERX2
 70
    0
  3
Center (2x) ________  __  ________  __  _____
 72
   65
 73
    4
 40
101.6
 49
63.5
 74
    0
 49
-12.7
 74
    0
 49
12.7
 74
    0
 49
-12.7
 74
    0
  0
ENDTAB
  0
TABLE
  2
LAYER
  5
2
330
0
100
AcDbSymbolTable
 70
    1
  0
LAYER
  5
10
330
2
100
AcDbSymbolTableRecord
100
AcDbLayerTableRecord
  2
0
 70
    0
 62
    7
  6
CONTINUOUS
370
   25
390
F
  0
ENDTAB
  0
TABLE
  2
STYLE
  5
3
330
0
100
AcDbSymbolTable
 70
    3
  0
STYLE
  5
4A
330
2
100
AcDbSymbolTableRecord
100
AcDbTextStyleTableRecord
  2
Standard
 70
    0
 40
0
 41
1
 50
0
 71
    0
 42
1
  3
txt
  4

  0
ENDTAB
  0
TABLE
  2
VIEW
  5
6
330
0
100
AcDbSymbolTable
 70
    0
  0
ENDTAB
  0
TABLE
  2
UCS
  5
7
330
0
100
AcDbSymbolTable
 70
    0
  0
ENDTAB
  0
TABLE
  2
APPID
  5
9
330
0
100
AcDbSymbolTable
 70
    1
  0
APPID
  5
12
330
9
100
AcDbSymbolTableRecord
100
AcDbRegAppTableRecord
  2
ACAD
 70
    0
  0
APPID
  5
4B
330
9
100
AcDbSymbolTableRecord
100
AcDbRegAppTableRecord
  2
LibreCad
 70
    0
  0
ENDTAB
  0
TABLE
  2
DIMSTYLE
  5
A
330
0
100
AcDbSymbolTable
 70
    1
100
AcDbDimStyleTable
 71
    1
  0
DIMSTYLE
105
4C
330
A
100
AcDbSymbolTableRecord
100
AcDbDimStyleTableRecord
  2
Standard
 70
    0
 40
2.5
 41
2.5
 42
0.625
 43
0.38
 44
1.25
 45
0
 46
0
 47
0
 48
0
 49
1
140
2.5
141
0.09
142
0
143
25.4
144
1
145
0
146
1
147
0.625
148
0
 71
    0
 72
    0
 73
    0
 74
    1
 75
    0
 76
    0
 77
    0
 78
    8
 79
    0
170
    0
171
    2
172
    0
173
    0
174
    0
175
    0
176
    0
177
    0
178
    0
179
    0
271
    2
272
    4
273
    2
274
    2
275
    0
276
    0
277
    2
278
   44
279
    0
280
    0
281
    0
282
    0
283
    1
284
    0
285
    0
286
    0
288
    0
289
    3
340
4A
  0
ENDTAB
  0
TABLE
  2
BLOCK_RECORD
  5
1
330
0
100
AcDbSymbolTable
 70
    2
  0
BLOCK_RECORD
  5
1F
330
1
100
AcDbSymbolTableRecord
100
AcDbBlockTableRecord
  2
*Model_Space
 70
    0
280
    1
281
    0
  0
BLOCK_RECORD
  5
1E
330
1
100
AcDbSymbolTableRecord
100
AcDbBlockTableRecord
  2
*Paper_Space
 70
    0
280
    1
281
    0
  0
ENDTAB
  0
ENDSEC
  0
SECTION
  2
BLOCKS
  0
BLOCK
  5
20
330
1F
100
AcDbEntity
  8
0
100
AcDbBlockBegin
  2
*Model_Space
 70
    0
 10
0
 20
0
 30
0
  3
*Model_Space
  1

  0
ENDBLK
  5
21
330
1F
100
AcDbEntity
  8
0
100
AcDbBlockEnd
  0
BLOCK
  5
1C
330
1B
100
AcDbEntity
  8
0
100
AcDbBlockBegin
  2
*Paper_Space
 70
    0
 10
0
 20
0
 30
0
  3
*Paper_Space
  1

  0
ENDBLK
  5
1D
330
1F
100
AcDbEntity
  8
0
100
AcDbBlockEnd
  0
ENDSEC
  0
SECTION
  2
ENTITIES
  0
LWPOLYLINE
  5
4D
100
AcDbEntity
  8
0
  6
ByLayer
 62
  256
370
   -1
100
AcDbPolyline
 90
   84
 70
    1
 43
0
 10
-116
 20
832
 10
-116
 20
820
 10
-175
 20
820
 10
-234
 20
820
 10
-234
 20
804.5
 10
-234
 20
789
 10
-281
 20
789
 10
-328
 20
789
 10
-328
 20
759.5
 10
-328
 20
730
 10
-361.5
 20
730
 10
-395
 20
730
 10
-395
 20
698
 10
-395
 20
666
 10
-413.5
 20
666
 10
-432
 20
666
 10
-432
 20
586
 10
-432
 20
506
 10
-413.5
 20
506
 10
-395
 20
506
 10
-395
 20
467.5
 10
-395
 20
429
 10
-358.524179
 20
429
 10
-322.048358
 20
429
 10
-321.774179
 20
412.25
 10
-321.5
 20
395.5
 10
-274.25
 20
395.2402080000001
 10
-227
 20
394.980417
 10
-227
 20
378.9902080000001
 10
-227
 20
363
 10
-150.5
 20
363
 10
-74
 20
363
 10
-74
 20
346.5
 10
-74
 20
330
 10
-41.51109299999996
 20
330
 10
-9.022186000000033
 20
330
 10
-8.76109299999996
 20
288.75
 10
-8.5
 20
247.5
 10
31.75
 20
247.238656
 10
72
 20
246.977311
 10
72
 20
232.488656
 10
72
 20
218
 10
99.5
 20
218
 10
127
 20
218
 10
127
 20
183.5
 10
127
 20
149
 10
207
 20
149
 10
287
 20
149
 10
287
 20
212.5
 10
287
 20
276
 10
314.5
 20
276
 10
342
 20
276
 10
342
 20
305
 10
342
 20
334
 10
362
 20
334
 10
382
 20
334
 10
382
 20
398
 10
382
 20
462
 10
400.5
 20
462
 10
419
 20
462
 10
419
 20
541.480112
 10
419
 20
620.960225
 10
397.75
 20
621.230112
 10
376.5
 20
621.5
 10
376.239705
 20
666.25
 10
375.97941
 20
711
 10
345.489705
 20
711
 10
315
 20
711
 10
315
 20
737.5
 10
315
 20
764
 10
286
 20
764
 10
257
 20
764
 10
257
 20
787.5
 10
257
 20
811
 10
206
 20
811
 10
155
 20
811
 10
155
 20
822
 10
155
 20
833
 10
99
 20
833
 10
43
 20
833
 10
43
 20
838.5
 10
43
 20
844
 10
-36.5
 20
844
 10
-116
 20
844
  0
LWPOLYLINE
  5
4E
100
AcDbEntity
  8
0
  6
ByLayer
 62
  256
370
   -1
100
AcDbPolyline
 90
   16
 70
    1
 43
0
 10
37
 20
764
 10
37
 20
690
 10
10
 20
690
 10
-17
 20
690
 10
-17
 20
699.5
 10
-17
 20
709
 10
-46
 20
709
 10
-75
 20
709
 10
-75
 20
764.5
 10
-75
 20
820
 10
-92.5
 20
820
 10
-110
 20
820
 10
-110
 20
829
 10
-110
 20
838
 10
-36.5
 20
838
 10
37
 20
838
  0
LWPOLYLINE
  5
4F
100
AcDbEntity
  8
0
  6
ByLayer
 62
  256
370
   -1
100
AcDbPolyline
 90
   12
 70
    1
 43
0
 10
149
 20
756.5
 10
149
 20
686
 10
124.5
 20
686
 10
100
 20
686
 10
100
 20
707.5
 10
100
 20
729
 10
71.5
 20
729
 10
43
 20
729
 10
43
 20
778
 10
43
 20
827
 10
96
 20
827
 10
149
 20
827
  0
LWPOLYLINE
  5
50
100
AcDbEntity
  8
0
  6
ByLayer
 62
  256
370
   -1
100
AcDbPolyline
 90
   12
 70
    1
 43
0
 10
-81
 20
761.489489
 10
-81
 20
708.978978
 10
-124.75
 20
709.239489
 10
-168.5
 20
709.5
 10
-168.761474
 20
749.25
 10
-169.022949
 20
789
 10
-199.011474
 20
789
 10
-229
 20
789
 10
-229
 20
801.5
 10
-229
 20
814
 10
-155
 20
814
 10
-81
 20
814
  0
LWPOLYLINE
  5
51
100
AcDbEntity
  8
0
  6
ByLayer
 62
  256
370
   -1
100
AcDbPolyline
 90
   12
 70
    1
 43
0
 10
251
 20
731
 10
251
 20
657
 10
237
 20
657
 10
223
 20
657
 10
223
 20
671.486698
 10
223
 20
685.973396
 10
189.25
 20
686.236698
 10
155.5
 20
686.5
 10
155.24207
 20
745.75
 10
154.98414
 20
805
 10
202.99207
 20
805
 10
251
 20
805
  0
LWPOLYLINE
  5
52
100
AcDbEntity
  8
0
  6
ByLayer
 62
  256
370
   -1
100
AcDbPolyline
 90
   12
 70
    1
 43
0
 10
-174.5
 20
709
 10
-174.5
 20
635.5
 10
-205.25
 20
635.235548
 10
-236
 20
634.971096
 10
-236
 20
682.485548
 10
-236
 20
730
 10
-279
 20
730
 10
-322
 20
730
 10
-322
 20
756.506448
 10
-322
 20
783.012896
 10
-248.25
 20
782.756448
 10
-174.5
 20
782.5
  0
LWPOLYLINE
  5
53
100
AcDbEntity
  8
0
  6
ByLayer
 62
  256
370
   -1
100
AcDbPolyline
 90
   12
 70
    1
 43
0
 10
309
 20
684.5
 10
309
 20
611
 10
266
 20
611
 10
223
 20
611
 10
223
 20
630.975821
 10
223
 20
650.951642
 10
239.75
 20
651.225821
 10
256.5
 20
651.5
 10
256.758763
 20
704.75
 10
257.017527
 20
758
 10
283.008763
 20
758
 10
309
 20
758
  0
LWPOLYLINE
  5
54
100
AcDbEntity
  8
0
  6
ByLayer
 62
  256
370
   -1
100
AcDbPolyline
 90
   12
 70
    1
 43
0
 10
370
 20
632
 10
370
 20
558
 10
296.5
 20
558
 10
223
 20
558
 10
223
 20
581.5
 10
223
 20
605
 10
269
 20
605
 10
315
 20
605
 10
315
 20
655.5
 10
315
 20
706
 10
342.5
 20
706
 10
370
 20
706
  0
LWPOLYLINE
  5
55
100
AcDbEntity
  8
0
  6
ByLayer
 62
  256
370
   -1
100
AcDbPolyline
 90
   16
 70
    1
 43
0
 10
-23
 20
629.5
 10
-23
 20
556
 10
-35
 20
556
 10
-47
 20
556
 10
-47
 20
576
 10
-47
 20
596
 10
-66.5
 20
596
 10
-86
 20
596
 10
-86
 20
627.488907
 10
-86
 20
658.977814
 10
-127.25
 20
659.238907
 10
-168.5
 20
659.5
 10
-168.769502
 20
681.25
 10
-169.039005
 20
703
 10
-96.01950199999999
 20
703
 10
-23
 20
703
  0
LWPOLYLINE
  5
56
100
AcDbEntity
  8
0
  6
ByLayer
 62
  256
370
   -1
100
AcDbPolyline
 90
   12
 70
    1
 43
0
 10
217
 20
606.5
 10
217
 20
533
 10
143
 20
533
 10
69
 20
533
 10
69
 20
551
 10
69
 20
569
 10
84.5
 20
569
 10
100
 20
569
 10
100
 20
624.5
 10
100
 20
680
 10
158.5
 20
680
 10
217
 20
680
  0
LWPOLYLINE
  5
57
100
AcDbEntity
  8
0
  6
ByLayer
 62
  256
370
   -1
100
AcDbPolyline
 90
   12
 70
    1
 43
0
 10
-278
 20
624
 10
-278
 20
588
 10
-336.487975
 20
588
 10
-394.97595
 20
588
 10
-395.237975
 20
550.25
 10
-395.5
 20
512.5
 10
-410.75
 20
512.223954
 10
-426
 20
511.947908
 10
-426
 20
585.973954
 10
-426
 20
660
 10
-352
 20
660
 10
-278
 20
660
  0
LWPOLYLINE
  5
58
100
AcDbEntity
  8
0
  6
ByLayer
 62
  256
370
   -1
100
AcDbPolyline
 90
   16
 70
    1
 43
0
 10
-92
 20
624.5
 10
-92
 20
596
 10
-149.5
 20
596
 10
-207
 20
596
 10
-207
 20
575.5
 10
-207
 20
555
 10
-221.5
 20
555
 10
-236
 20
555
 10
-236
 20
592
 10
-236
 20
629
 10
-202.5
 20
629
 10
-169
 20
629
 10
-169
 20
641
 10
-169
 20
653
 10
-130.5
 20
653
 10
-92
 20
653
  0
LWPOLYLINE
  5
59
100
AcDbEntity
  8
0
  6
ByLayer
 62
  256
370
   -1
100
AcDbPolyline
 90
   18
 70
    1
 43
0
 10
413
 20
542
 10
413
 20
468
 10
339
 20
468
 10
265
 20
468
 10
265
 20
510
 10
265
 20
552
 10
320.5
 20
552
 10
376
 20
552
 10
375.9999999999998
 20
583.3333329999999
 42
-0.001991000000000016
 10
376.0480339999999
 20
595.393722
 42
-0.003216000000000092
 10
376.1958329999998
 20
605.6583329999999
 42
-0.0005880000000000499
 10
376.3947940000007
 20
614.6979080000003
 42
-0.1928940000000096
 10
376.666667
 20
615.333333
 42
-0.187801000000011
 10
377.2804929999999
 20
615.603134
 42
-0.00170600000000006
 10
382.3760419999999
 20
615.8041670000002
 42
-0.005509999999999961
 10
388.28273
 20
615.951873
 42
-0.003495999999999949
 10
395.166667
 20
616
 10
413
 20
616
  0
LWPOLYLINE
  5
5A
100
AcDbEntity
  8
0
  6
ByLayer
 62
  256
370
   -1
100
AcDbPolyline
 90
   12
 70
    1
 43
0
 10
-242
 20
568.5
 10
-242
 20
555
 10
-282
 20
555
 10
-322
 20
555
 10
-322
 20
495
 10
-322
 20
435
 10
-356
 20
435
 10
-390
 20
435
 10
-390
 20
508.5
 10
-390
 20
582
 10
-316
 20
582
 10
-242
 20
582
  0
LWPOLYLINE
  5
5B
100
AcDbEntity
  8
0
  6
ByLayer
 62
  256
370
   -1
100
AcDbPolyline
 90
   16
 70
    1
 43
0
 10
28
 20
518
 10
28
 20
467
 10
56
 20
467
 10
84
 20
467
 10
84
 20
455
 10
84
 20
443
 10
18.5
 20
443
 10
-47
 20
443
 10
-47
 20
496.5
 10
-47
 20
550
 10
-32
 20
550
 10
-17
 20
550
 10
-17
 20
559.5
 10
-17
 20
569
 10
5.5
 20
569
 10
28
 20
569
  0
LWPOLYLINE
  5
5C
100
AcDbEntity
  8
0
  6
ByLayer
 62
  256
370
   -1
100
AcDbPolyline
 90
   12
 70
    1
 43
0
 10
63
 20
548
 10
63
 20
527
 10
99
 20
527
 10
135
 20
527
 10
135
 20
500
 10
135
 20
473
 10
84.5
 20
473
 10
34
 20
473
 10
34
 20
521
 10
34
 20
569
 10
48.5
 20
569
 10
63
 20
569
  0
LWPOLYLINE
  5
5D
100
AcDbEntity
  8
0
  6
ByLayer
 62
  256
370
   -1
100
AcDbPolyline
 90
   12
 70
    1
 43
0
 10
-207
 20
493
 10
-207
 20
437
 10
-187.5
 20
437
 10
-168
 20
437
 10
-168
 20
419
 10
-168
 20
401
 10
-242
 20
401
 10
-316
 20
401
 10
-316
 20
475
 10
-316
 20
549
 10
-261.5
 20
549
 10
-207
 20
549
  0
LWPOLYLINE
  5
5E
100
AcDbEntity
  8
0
  6
ByLayer
 62
  256
370
   -1
100
AcDbPolyline
 90
   16
 70
    1
 43
0
 10
259.7798770000001
 20
474.75
 10
260.059754
 20
462
 10
318.0298770000001
 20
462
 10
376
 20
462
 10
376
 20
400.975821
 10
376
 20
339.951642
 10
359.25
 20
340.225821
 10
342.5
 20
340.5
 10
342.2402080000001
 20
387.75
 10
341.980417
 20
435
 10
284.9902080000001
 20
435
 10
228
 20
435
 10
228
 20
461.525393
 10
228
 20
488.050786
 10
243.75
 20
487.775393
 10
259.5
 20
487.5
  0
LWPOLYLINE
  5
5F
100
AcDbEntity
  8
0
  6
ByLayer
 62
  256
370
   -1
100
AcDbPolyline
 90
   16
 70
    1
 43
0
 10
135
 20
448
 10
135
 20
429
 10
159
 20
429
 10
183
 20
429
 10
183
 20
404.5
 10
183
 20
380
 10
167
 20
380
 10
151
 20
380
 10
151
 20
393.5
 10
151
 20
407
 10
120.5
 20
407
 10
90
 20
407
 10
90
 20
437
 10
90
 20
467
 10
112.5
 20
467
 10
135
 20
467
  0
LWPOLYLINE
  5
60
100
AcDbEntity
  8
0
  6
ByLayer
 62
  256
370
   -1
100
AcDbPolyline
 90
   12
 70
    1
 43
0
 10
-74
 20
403
 10
-74
 20
369
 10
-147.5
 20
369
 10
-221
 20
369
 10
-221
 20
381.9848950000001
 10
-221
 20
394.969791
 10
-191.75
 20
395.2348950000001
 10
-162.5
 20
395.5
 10
-162.229712
 20
416.25
 10
-161.959423
 20
437
 10
-117.979712
 20
437
 10
-74
 20
437
  0
LWPOLYLINE
  5
61
100
AcDbEntity
  8
0
  6
ByLayer
 62
  256
370
   -1
100
AcDbPolyline
 90
   18
 70
    1
 43
0
 10
80
 20
422.025304
 10
80
 20
407
 10
35.5
 20
407
 10
-9
 20
407
 10
-9
 20
371.5
 10
-9
 20
336
 10
-38.5
 20
336
 10
-68
 20
336
 10
-68.00000000000091
 20
385.8333330000023
 42
-0.001131999999999863
 10
-67.95664500000112
 20
404.9830989999994
 42
-0.001854000000000048
 10
-67.82304100000329
 20
421.2050840000026
 42
-0.0001960000000000491
 10
-67.64442700000291
 20
435.6837170000064
 42
-0.1956070000000159
 10
-67.39758500000006
 20
436.269081
 42
-0.196387999999989
 10
-66.80752299999972
 20
436.5168579999954
 42
-9.099999999989909e-05
 10
-45.41158900001086
 20
436.7208439999959
 42
-0.001265000000000052
 10
-21.58305200000229
 20
436.8833810000015
 42
-0.0007679999999999982
 10
6.602414999998013
 20
436.9610520000006
 10
80
 20
437.050609
  0
LWPOLYLINE
  5
62
100
AcDbEntity
  8
0
  6
ByLayer
 62
  256
370
   -1
100
AcDbPolyline
 90
   16
 70
    1
 43
0
 10
337
 20
355.5
 10
337
 20
282
 10
312
 20
282
 10
287
 20
282
 10
287
 20
295
 10
287
 20
308
 10
259
 20
308
 10
231
 20
308
 10
231
 20
342.5
 10
231
 20
377
 10
210
 20
377
 10
189
 20
377
 10
189
 20
403
 10
189
 20
429
 10
263
 20
429
 10
337
 20
429
  0
LWPOLYLINE
  5
63
100
AcDbEntity
  8
0
  6
ByLayer
 62
  256
370
   -1
100
AcDbPolyline
 90
   12
 70
    1
 43
0
 10
145
 20
389
 10
145
 20
377
 10
108.5
 20
377
 10
72
 20
377
 10
72
 20
315
 10
72
 20
253
 10
34.5
 20
253
 10
-3
 20
253
 10
-3
 20
327
 10
-3
 20
401
 10
71
 20
401
 10
145
 20
401
  0
LWPOLYLINE
  5
64
100
AcDbEntity
  8
0
  6
ByLayer
 62
  256
370
   -1
100
AcDbPolyline
 90
    8
 70
    1
 43
0
 10
281
 20
228.5
 10
281
 20
155
 10
207
 20
155
 10
133
 20
155
 10
133
 20
228.5
 10
133
 20
302
 10
207
 20
302
 10
281
 20
302
  0
LWPOLYLINE
  5
65
100
AcDbEntity
  8
0
  6
ByLayer
 62
  256
370
   -1
100
AcDbPolyline
 90
   20
 70
    1
 43
0
 10
-418
 20
40.95955799999999
 10
-418
 20
-0.08088499999999499
 10
-409.75
 20
0.209557999999987
 10
-401.5
 20
0.5
 10
-401
 20
28.158852
 10
-400.5
 20
55.81770399999999
 10
-384.446932
 20
28.158852
 10
-368.393864
 20
0.5
 10
-359.946932
 20
0.5
 10
-351.5
 20
0.5
 10
-351.238783
 20
41.25
 10
-350.977565
 20
82
 10
-359.472964
 20
82
 10
-367.968363
 20
82
 10
-368.234181
 20
54.41217800000001
 10
-368.5
 20
26.82435699999999
 10
-384.5
 20
54.388597
 10
-400.5
 20
81.95283800000001
 10
-409.25
 20
81.97641899999999
 10
-418
 20
82
  0
LWPOLYLINE
  5
66
100
AcDbEntity
  8
0
  6
ByLayer
 62
  256
370
   -1
100
AcDbPolyline
 90
   26
 70
    1
 43
0
 10
-234.761273
 20
41.31551899999999
 10
-234.5
 20
0.5
 10
-211.5
 20
0.5063399999999945
 10
-188.5
 20
0.5126809999999864
 10
-182.677189
 20
3.365512000000006
 42
0.04924299999999994
 10
-177.984181
 20
6.268545999999994
 42
0.0614219999999998
 10
-174.325268
 20
9.852659999999961
 42
0.06196000000000024
 10
-171.669745
 20
14.19101599999999
 42
0.05138199999999964
 10
-169.95079
 20
19.32928799999994
 42
0.05375700000000001
 10
-169.325601
 20
24.85061599999999
 42
0.08372299999999999
 10
-170.094855
 20
29.56592100000001
 42
0.07754500000000003
 10
-172.432075
 20
34.016651
 42
0.04005899999999999
 10
-176.580055
 20
38.76127500000003
 10
-181.980801
 20
44.02255
 10
-178.107249
 20
47.52207200000001
 42
0.04122799999999995
 10
-174.953051
 20
50.883021
 42
0.07377400000000021
 10
-173.0619350000001
 20
54.155613
 42
0.07377899999999976
 10
-172.2024469999999
 20
57.83613299999997
 42
0.04123800000000006
 10
-172.20387
 20
62.44485700000001
 42
0.05849000000000015
 10
-173.20305
 20
67.38449
 42
0.06465700000000019
 10
-175.302699
 20
71.78075499999998
 42
0.06338199999999979
 10
-178.497633
 20
75.56396199999999
 42
0.05292300000000023
 10
-182.727608
 20
78.69472400000001
 10
-187.5
 20
81.5
 10
-211.261273
 20
81.81551899999999
 10
-235.022545
 20
82.13103799999999
  0
LWPOLYLINE
  5
67
100
AcDbEntity
  8
0
  6
ByLayer
 62
  256
370
   -1
100
AcDbPolyline
 90
   16
 70
    1
 43
0
 10
-192.071521
 20
66.53698500000002
 42
-0.0529870000000001
 10
-190.084417
 20
65.226207
 42
-0.09692799999999975
 10
-188.85543
 20
63.73271299999999
 42
-0.0873030000000002
 10
-188.2043
 20
61.77526399999999
 42
-0.03675800000000016
 10
-187.9999999999999
 20
58.99999999999997
 42
-0.09980400000000053
 10
-188.920506
 20
54.43435199999995
 42
-0.1817269999999998
 10
-191.499407
 20
51.70699600000002
 42
-0.09638600000000021
 10
-196.5945190000002
 20
50.34253299999997
 42
-0.01737199999999996
 10
-206.4503400000001
 20
49.99999999999997
 10
-218
 20
50
 10
-218
 20
59
 10
-218
 20
68
 10
-206.45034
 20
68.00000000000001
 42
-0.007304999999999985
 10
-200.961518
 20
67.91980600000004
 42
-0.01804700000000008
 10
-196.944624
 20
67.65709300000005
 42
-0.02399000000000005
 10
-194.003282
 20
67.214448
 42
-0.07009200000000003
  0
LWPOLYLINE
  5
68
100
AcDbEntity
  8
0
  6
ByLayer
 62
  256
370
   -1
100
AcDbPolyline
 90
   16
 70
    1
 43
0
 10
-189.753824
 20
33.759456
 42
-0.101797
 10
-187.613285
 20
31.62810799999998
 42
-0.07438599999999987
 10
-186.192083
 20
28.578932
 42
-0.06972899999999996
 10
-185.663602
 20
25.044532
 42
-0.06976100000000021
 10
-186.1271689999999
 20
21.50160199999999
 42
-0.1148690000000001
 10
-187.96512
 20
18.12231
 42
-0.1224409999999995
 10
-191.069387
 20
15.99741299999999
 42
-0.06620299999999987
 10
-196.3511690000001
 20
14.79204100000001
 42
-0.01419900000000014
 10
-205.7500000000002
 20
14.19194999999999
 10
-218
 20
13.75855999999999
 10
-218
 20
24.979704
 10
-218
 20
36.20084800000001
 10
-205.204209
 20
35.85042399999998
 42
-0.005638000000000084
 10
-198.614001
 20
35.595553
 42
-0.02114999999999996
 10
-194.492282
 20
35.21435100000001
 42
-0.03391600000000004
 10
-191.702984
 20
34.64218100000004
 42
-0.0777110000000001
  0
LWPOLYLINE
  5
69
100
AcDbEntity
  8
0
  6
ByLayer
 62
  256
370
   -1
100
AcDbPolyline
 90
    8
 70
    1
 43
0
 10
-155
 20
41
 10
-155
 20
0
 10
-147.5
 20
0
 10
-140
 20
0
 10
-140
 20
41
 10
-140
 20
82
 10
-147.5
 20
82
 10
-155
 20
82
  0
LWPOLYLINE
  5
6A
100
AcDbEntity
  8
0
  6
ByLayer
 62
  256
370
   -1
100
AcDbPolyline
 90
   38
 70
    1
 43
0
 10
0
 20
41
 10
0
 20
0
 10
7.5
 20
0
 10
15
 20
0
 10
14.99999999999994
 20
9.833390000000001
 42
-0.005849000000000042
 10
15.07404799999984
 20
16.16312500000004
 42
-0.0536790000000005
 10
15.43174099999989
 20
18.88529900000003
 42
-0.089557
 10
16.32645700000003
 20
20.90755599999999
 42
-0.02941599999999997
 10
18.31436599999995
 20
23.50093599999997
 10
21.62873100000002
 20
27.33509100000001
 10
29.019453
 20
13.66754599999999
 10
36.41017499999998
 20
0
 10
45.31207599999986
 20
-1.13686837721616e-13
 42
0.004587999999999955
 10
50.42753999999974
 20
0.04694399999988441
 42
0.04413400000000017
 10
52.58994099999995
 20
0.278255000000011
 42
0.1744879999999978
 10
53.45309999999998
 20
0.795976999999997
 42
0.2690840000000144
 10
53.58751099999989
 20
1.632545000000003
 42
0.03706499999999965
 10
53.04781600000001
 20
2.777434000000085
 42
0.0009360000000000625
 10
50.2132909999998
 20
7.76881100000071
 42
0.002000000000000043
 10
46.85024800000019
 20
13.61071500000003
 42
0.001362000000000028
 10
42.98052299999995
 20
20.22945200000015
 42
-0.001769999999999926
 10
39.15462200000002
 20
26.78551400000032
 42
-0.002813999999999991
 10
35.93177799999921
 20
32.42634100000055
 42
-0.0006259999999999764
 10
33.14038199999959
 20
37.39099400000032
 42
-0.1284369999999947
 10
33
 20
37.928481
 42
-0.1759269999999981
 10
33.18098299999986
 20
38.42693200000014
 42
-0.001388000000000053
 10
35.95784600000016
 20
41.72806500000013
 42
-0.004831000000000025
 10
39.20950400000004
 20
45.49745399999983
 42
-0.003059000000000077
 10
43.06926399999992
 20
49.83157399999993
 10
53.13852799999995
 20
61
 10
44.17050800000004
 20
61
 10
35.20248800000002
 20
61
 10
25.35124399999995
 20
49.25
 10
15.5
 20
37.5
 10
15.23086799999999
 20
59.75
 10
14.96173699999997
 20
82
 10
7.480867999999987
 20
82
 10
0
 20
82
  0
LWPOLYLINE
  5
6B
100
AcDbEntity
  8
0
  6
ByLayer
 62
  256
370
   -1
100
AcDbPolyline
 90
   26
 70
    1
 43
0
 10
96
 20
40.882214
 10
96
 20
-0.235572999999988
 10
118.75
 20
0.2708649999999579
 42
0.004134999999999853
 10
128.0114949999996
 20
0.5536739999998304
 42
0.006128000000000113
 10
136.1218709999997
 20
0.9680749999998852
 42
0.004935000000000115
 10
142.7162809999997
 20
1.451483999999827
 42
0.05405200000000014
 10
145.320779
 20
1.955197999999989
 42
0.04305799999999989
 10
147.075366
 20
2.666408999999994
 42
0.02003099999999988
 10
149.2193250000001
 20
3.869100999999969
 42
0.01967299999999995
 10
151.383181
 20
5.319875999999951
 42
0.02593799999999991
 10
153.227079
 20
6.816546999999982
 42
0.1003830000000003
 10
159.1660610000001
 20
14.84320799999997
 42
0.1165139999999996
 10
161.095583
 20
24.12640999999999
 42
0.1182829999999996
 10
158.661296
 20
33.18511000000002
 42
0.1056920000000003
 10
152.313268
 20
40.59157300000004
 10
148.1379910000001
 20
43.776163
 10
151.9209650000001
 20
46.81624399999995
 42
0.1054570000000004
 10
157.0748740000001
 20
53.14145399999994
 42
0.1194109999999998
 10
158.9009150000001
 20
60.738832
 42
0.1137450000000002
 10
157.0702440000001
 20
68.61643200000007
 42
0.08926500000000025
 10
151.868386
 20
75.70746800000009
 42
0.06853600000000011
 10
147.132756
 20
79.109567
 42
0.07591499999999984
 10
141.812942
 20
80.95896999999999
 42
0.03949899999999993
 10
133.7567830000002
 20
81.80048499999998
 42
0.006281000000000031
 10
117.874273
 20
82
 10
96
 20
82
  0
LWPOLYLINE
  5
6C
100
AcDbEntity
  8
0
  6
ByLayer
 62
  256
370
   -1
100
AcDbPolyline
 90
   16
 70
    1
 43
0
 10
140.588941
 20
64.69423599999999
 42
-0.07785399999999998
 10
142.414712
 20
61.74610200000002
 42
-0.1110950000000008
 10
142.9572779999999
 20
58.72697700000001
 42
-0.1102530000000001
 10
142.1553629999999
 20
55.74956900000001
 42
-0.07581699999999975
 10
140.0769229999999
 20
52.92307700000004
 42
-0.04864799999999998
 10
137.963778
 20
51.185483
 42
-0.09995599999999935
 10
135.991971
 20
50.371019
 42
-0.04448099999999977
 10
132.979055
 20
50.05789300000004
 42
-0.003663000000000206
 10
125.0769229999995
 20
50
 10
113
 20
50
 10
113
 20
59.081557
 10
113
 20
68.16311300000001
 10
125.5889409999999
 20
67.83155699999998
 42
-0.00346600000000007
 10
133.725073
 20
67.56083100000001
 42
-0.04152100000000009
 10
136.841065
 20
67.17502400000001
 42
-0.10108
 10
138.762703
 20
66.34516599999998
 42
-0.06302899999999971
  0
LWPOLYLINE
  5
6D
100
AcDbEntity
  8
0
  6
ByLayer
 62
  256
370
   -1
100
AcDbPolyline
 90
   16
 70
    1
 43
0
 10
138.843963
 20
34.44575699999999
 42
-0.1218250000000002
 10
142.667322
 20
31.698491
 42
-0.1173640000000001
 10
144.8344029999999
 20
27.44931099999998
 42
-0.1171459999999996
 10
144.856975
 20
22.67299099999999
 42
-0.1210510000000001
 10
142.720868
 20
18.461878
 42
-0.102964
 10
140.0256490000001
 20
16.39064099999995
 42
-0.05943200000000002
 10
136.142049
 20
15.05477400000002
 42
-0.03905600000000011
 10
130.5433059999999
 20
14.29715400000001
 42
-0.0129309999999999
 10
122.25
 20
14.04355100000001
 10
113
 20
14
 10
113
 20
25
 10
113
 20
36
 10
123.9797640000001
 20
36.00000000000001
 42
-0.008656999999999963
 10
129.1676200000001
 20
35.91016799999998
 42
-0.017391
 10
133.252924
 20
35.62616599999998
 42
-0.02190800000000004
 10
136.455018
 20
35.14878899999999
 42
-0.04723700000000006
  0
LWPOLYLINE
  5
6E
100
AcDbEntity
  8
0
  6
ByLayer
 62
  256
370
   -1
100
AcDbPolyline
 90
   32
 70
    1
 43
0
 10
-320.667545
 20
60.148934
 42
0.03902599999999994
 10
-325.892644
 20
57.87334500000001
 42
0.06019999999999994
 10
-329.929577
 20
55.05781699999999
 42
0.0593580000000001
 10
-333.218251
 20
51.330491
 42
0.03674500000000013
 10
-336.178909
 20
46.28814800000002
 42
0.01641400000000002
 10
-338.053263
 20
42.14274499999999
 42
0.04808400000000009
 10
-338.966008
 20
39.146771
 42
0.04086300000000002
 10
-339.365509
 20
35.77543700000007
 42
0.009396000000000097
 10
-339.465694
 20
30.04310700000007
 42
0.009705000000000023
 10
-339.349335
 20
24.4300040000001
 42
0.03769400000000022
 10
-338.948889
 20
20.978059
 42
0.04461699999999989
 10
-338.069601
 20
17.92043300000003
 42
0.01760099999999999
 10
-336.345297
 20
13.89145400000001
 42
0.06009799999999987
 10
-332.246081
 20
7.347815000000008
 42
0.0779449999999997
 10
-327.004501
 20
2.604539000000027
 42
0.07576899999999989
 10
-320.439608
 20
-0.3960070000000044
 42
0.0532180000000002
 10
-312.420616
 20
-1.781806000000024
 42
0.06133899999999994
 10
-302.743761
 20
-1.222484000000016
 42
0.07919300000000004
 10
-294.360145
 20
1.727235000000007
 42
0.08380100000000008
 10
-287.659818
 20
6.965963000000023
 42
0.07906199999999958
 10
-282.889352
 20
14.21232499999999
 42
0.02782800000000007
 10
-281.632825
 20
17.46380899999998
 42
0.04127000000000002
 10
-280.9349619999999
 20
20.43581699999992
 42
0.02985700000000032
 10
-280.6085380000002
 20
24.11694199999999
 42
0.007979999999999881
 10
-280.5333039999999
 20
29.99999999999996
 42
0.008236999999999998
 10
-280.6472450000001
 20
35.79930499999998
 42
0.02852899999999997
 10
-280.9963359999999
 20
39.53567500000001
 42
0.03894099999999995
 10
-281.697933
 20
42.55870599999999
 42
0.0283270000000001
 10
-282.922656
 20
45.78767499999999
 42
0.1033350000000002
 10
-289.064538
 20
54.29862700000004
 42
0.09432400000000001
 10
-298.288707
 20
59.97510599999999
 42
0.09011999999999992
 10
-309.333414
 20
62.02845999999995
 42
0.08439600000000005
  0
LWPOLYLINE
  5
6F
100
AcDbEntity
  8
0
  6
ByLayer
 62
  256
370
   -1
100
AcDbPolyline
 90
   20
 70
    1
 43
0
 10
-302.509228
 20
46.82859899999998
 42
-0.07565399999999996
 10
-299.757455
 20
43.89400399999999
 42
-0.05892799999999998
 10
-297.717918
 20
40.019263
 42
-0.0525580000000001
 10
-296.462974
 20
35.33538999999998
 42
-0.03920999999999999
 10
-296.043924
 20
29.99999999999998
 42
-0.05771899999999981
 10
-296.968253
 20
22.019573
 42
-0.1015699999999998
 10
-299.743832
 20
16.01621200000001
 42
-0.1230379999999999
 10
-304.213135
 20
12.32423099999997
 42
-0.1118620000000001
 10
-310.058133
 20
11.00000000000001
 42
-0.02621200000000015
 10
-312.543
 20
11.13035900000001
 42
-0.05229099999999991
 10
-314.46677
 20
11.53901399999998
 42
-0.0575100000000003
 10
-316.143677
 20
12.30542899999995
 42
-0.03900000000000001
 10
-317.852713
 20
13.52952000000003
 42
-0.1466579999999995
 10
-322.500718
 20
20.62311000000002
 42
-0.08185399999999987
 10
-323.8037519999999
 20
30.95402999999999
 42
-0.08339599999999976
 10
-321.730473
 20
40.96148099999998
 42
-0.1645910000000004
 10
-316.580035
 20
47.11432199999994
 42
-0.07707499999999982
 10
-313.160034
 20
48.53513399999999
 42
-0.06514300000000008
 10
-309.262711
 20
48.96478200000001
 42
-0.06714700000000015
 10
-305.508348
 20
48.38046900000003
 42
-0.09478900000000037
  0
LWPOLYLINE
  5
70
100
AcDbEntity
  8
0
  6
ByLayer
 62
  256
370
   -1
100
AcDbPolyline
 90
   66
 70
    1
 43
0
 10
-113
 20
60.52468499999998
 42
0.02914899999999989
 10
-114.932378
 20
59.76899199999997
 42
0.02029299999999991
 10
-117.019594
 20
58.704436
 42
0.02053400000000006
 10
-118.94508
 20
57.515184
 42
0.03932899999999988
 10
-120.364576
 20
56.38370800000003
 42
0.05555400000000004
 10
-122.689685
 20
53.66882800000005
 42
0.03269600000000007
 10
-124.85906
 20
49.98197000000002
 42
0.03270200000000001
 10
-126.4635769999999
 20
46.19855199999999
 42
0.08167099999999972
 10
-126.978038
 20
43.25
 42
0.1148990000000008
 10
-126.698339
 20
41.99352400000001
 42
0.2107129999999985
 10
-125.915942
 20
41.32426799999999
 42
0.06782999999999988
 10
-124.1812820000003
 20
41.04999899999996
 42
0.005340000000000135
 10
-119.5000000000002
 20
40.99999999999994
 42
0.007444000000000065
 10
-115.5353530000001
 20
41.059026
 42
0.04338799999999976
 10
-113.463235
 20
41.30151500000001
 42
0.1068729999999992
 10
-112.392269
 20
41.77484700000002
 42
0.2398740000000016
 10
-112
 20
42.545455
 42
-0.1063020000000034
 10
-111.836745
 20
43.30465600000001
 42
-0.03170199999999974
 10
-111.2789769999999
 20
44.35795499999995
 42
-0.03022399999999983
 10
-110.484853
 20
45.49219999999996
 42
-0.02854599999999986
 10
-109.545455
 20
46.54545500000002
 42
-0.0473860000000001
 10
-108.044716
 20
47.78582900000003
 42
-0.07270100000000022
 10
-106.52932
 20
48.51943700000002
 42
-0.05723400000000015
 10
-104.614943
 20
48.89031099999999
 42
-0.01925700000000002
 10
-101.767961
 20
49.00000000000001
 42
-0.04239499999999995
 10
-97.63367099999999
 20
48.64881900000002
 42
-0.08573500000000012
 10
-94.563281
 20
47.56087100000001
 42
-0.1201040000000003
 10
-92.68582700000002
 20
45.809573
 42
-0.1463020000000001
 10
-91.99999999999997
 20
43.51587599999999
 42
-0.1454480000000009
 10
-92.614582
 20
41.44785300000002
 42
-0.06406299999999997
 10
-94.48337299999997
 20
39.25460699999999
 42
-0.06319500000000004
 10
-96.89851700000003
 20
37.56327400000001
 42
-0.1217730000000001
 10
-99.17701699999998
 20
36.99999999999997
 42
0.04903399999999999
 10
-103.581508
 20
36.567018
 42
0.01421699999999998
 10
-110.245292
 20
35.0459690000001
 42
0.0139380000000001
 10
-116.781042
 20
33.161514
 42
0.05439299999999987
 10
-120.619875
 20
31.45975199999996
 42
0.1571239999999996
 10
-126.7475009999999
 20
24.65582299999996
 42
0.1238039999999999
 10
-128.484245
 20
14.83842300000001
 42
0.1231440000000003
 10
-125.371118
 20
5.327070999999989
 42
0.1546259999999998
 10
-118.32881
 20
-0.6359740000000151
 42
0.09564899999999996
 10
-112.457836
 20
-1.857042
 42
0.05478899999999994
 10
-105.230142
 20
-1.167407000000011
 42
0.05539999999999989
 10
-98.47639800000003
 20
1.035416999999985
 42
0.1139050000000001
 10
-94.08250399999997
 20
4.395148000000006
 42
-0.03667200000000001
 10
-93.21678400000002
 20
5.297879999999989
 42
-0.3076100000000072
 10
-92.68563399999998
 20
5.370655000000048
 42
-0.167903000000004
 10
-92.19602099999992
 20
4.873158000000025
 42
-0.01167100000000007
 10
-91.38077799999995
 20
3.054284000000003
 10
-90.09654799999998
 20
0
 10
-81.54827400000013
 20
-5.684341886080801e-14
 42
0.01033900000000012
 10
-75.63433200000004
 20
0.1222979999999723
 42
0.1307119999999992
 10
-73.52461700000003
 20
0.7779220000000078
 42
0.3906250000000054
 10
-73.18595000000005
 20
2.027105000000004
 42
0.06410799999999998
 10
-74.75
 20
4.274045000000015
 42
-0.1310959999999993
 10
-75.7287410000001
 20
6.175217999999997
 42
-0.03056900000000033
 10
-76.28261400000005
 20
9.752756999999992
 42
-0.01535599999999995
 10
-76.66185200000018
 20
15.88431400000034
 42
-0.002167999999999758
 10
-77.00000000000023
 20
28.53389599999884
 42
0.005139999999999984
 10
-77.54244900000003
 20
45.1319509999998
 42
0.06113599999999987
 10
-78.59732100000001
 20
51.46426499999999
 42
0.1364479999999993
 10
-81.00003299999997
 20
55.31021999999994
 42
0.05802500000000001
 10
-85.96760199999999
 20
58.89609500000003
 42
0.08173800000000006
 10
-91.17144000000002
 20
60.77333700000003
 42
0.03074099999999997
 10
-98.88489399999997
 20
61.71622400000003
 42
0.03100100000000004
 10
-106.850999
 20
61.701818
 42
0.0627609999999999
  0
LWPOLYLINE
  5
71
100
AcDbEntity
  8
0
  6
ByLayer
 62
  256
370
   -1
100
AcDbPolyline
 90
   18
 70
    1
 43
0
 10
-92.941401
 20
18.80364800000001
 42
-0.07126899999999987
 10
-94.52725700000002
 20
15.37490099999999
 42
-0.09691800000000006
 10
-96.89124500000003
 20
12.93083399999999
 42
-0.09261900000000034
 10
-100.090242
 20
11.48645999999997
 42
-0.05992099999999984
 10
-104.134859
 20
11
 42
-0.05766200000000019
 10
-107.92207
 20
11.43821600000002
 42
-0.1065399999999998
 10
-110.709192
 20
12.75945500000002
 42
-0.1269300000000002
 10
-112.398291
 20
14.92091600000002
 42
-0.1030689999999995
 10
-113
 20
17.80887000000001
 42
-0.09317300000000042
 10
-112.417024
 20
20.91015500000001
 42
-0.1399390000000004
 10
-110.761875
 20
23.08878699999999
 42
-0.08289399999999977
 10
-107.495616
 20
24.77938199999998
 42
-0.01818000000000001
 10
-101.3903
 20
26.507642
 10
-92.5
 20
28.67854399999999
 10
-92.16733299999999
 20
25.58927199999999
 42
-0.0366600000000001
 10
-92.11811
 20
24.14141900000002
 42
-0.01857200000000014
 10
-92.25748999999996
 20
22.32166999999999
 42
-0.01834299999999997
 10
-92.54169399999995
 20
20.44457599999996
 42
-0.02599899999999982
  0
LWPOLYLINE
  5
72
100
AcDbEntity
  8
0
  6
ByLayer
 62
  256
370
   -1
100
AcDbPolyline
 90
   62
 70
    1
 43
0
 10
-46.99999999999999
 20
60.46341799999998
 42
0.08152799999999995
 10
-53.657009
 20
57.13394099999994
 42
0.07728399999999985
 10
-59.04184799999997
 20
51.79922599999999
 42
0.07172400000000009
 10
-62.85131699999998
 20
44.70187499999999
 42
0.056717
 10
-64.89134999999996
 20
36.22226000000001
 42
0.05075899999999993
 10
-65.14355200000008
 20
24.41180000000002
 42
0.07628400000000007
 10
-62.77500800000003
 20
14.40222800000006
 42
0.08626299999999988
 10
-57.82610399999998
 20
6.450900000000022
 42
0.08716099999999985
 10
-50.5
 20
0.6695420000000478
 42
0.08750299999999986
 10
-45.14146800000002
 20
-1.104093999999968
 42
0.03624799999999997
 10
-37.502748
 20
-1.659770000000009
 42
0.03624999999999994
 10
-29.86289299999999
 20
-1.106324000000029
 42
0.08738500000000009
 10
-24.50000000000001
 20
0.6655879999999996
 42
0.03895499999999988
 10
-20.85730200000002
 20
3.007175999999916
 42
0.04371100000000021
 10
-17.77094599999995
 20
5.805813999999916
 42
0.04333999999999999
 10
-15.19699500000004
 20
9.12054699999991
 42
0.03715799999999997
 10
-13.08091300000002
 20
12.99999999999995
 42
0.01765899999999989
 10
-11.04108200000002
 20
17.96591499999995
 42
0.2397929999999938
 10
-11.26143100000005
 20
19.85269199999994
 42
0.2333029999999972
 10
-12.92343300000003
 20
20.816319
 42
0.01675800000000004
 10
-18.40217500000001
 20
20.99999999999997
 42
0.006276000000000068
 10
-23.16217800000002
 20
20.94025199999999
 42
0.07616700000000003
 10
-24.95525899999994
 20
20.61925399999998
 42
0.1684329999999973
 10
-25.97809099999994
 20
19.82063399999997
 42
0.05974899999999978
 10
-26.80502300000002
 20
18.12946500000001
 42
-0.06496699999999994
 10
-28.40614899999999
 20
14.93944399999997
 42
-0.09493200000000053
 10
-30.62021100000002
 20
12.72019099999994
 42
-0.09198500000000036
 10
-33.55340100000001
 20
11.43199599999996
 42
-0.05765500000000042
 10
-37.2873520000001
 20
10.99999999999999
 42
-0.02270100000000002
 10
-40.025313
 20
11.12437499999998
 42
-0.07055500000000033
 10
-41.81939499999999
 20
11.54760399999997
 42
-0.07873900000000018
 10
-43.31561000000001
 20
12.42365600000003
 42
-0.03315799999999969
 10
-45.02067200000006
 20
14.022129
 42
-0.1262000000000008
 10
-48.65918100000016
 20
20.67784099999999
 42
-0.06293199999999996
 10
-49.85038099999997
 20
30.272885
 42
-0.06319999999999996
 10
-48.62111400000003
 20
39.79278299999999
 42
-0.1334719999999999
 10
-44.95043499999998
 20
46.203411
 42
-0.03685200000000005
 10
-43.28220199999996
 20
47.64232399999996
 42
-0.07293399999999955
 10
-41.74521000000003
 20
48.46697599999992
 42
-0.0639349999999997
 10
-39.90488900000003
 20
48.87684899999995
 42
-0.022865
 10
-37.21328700000004
 20
49.00000000000001
 42
-0.02253500000000002
 10
-34.57954800000005
 20
48.88123600000003
 42
-0.06002200000000023
 10
-32.74239199999999
 20
48.48961200000005
 42
-0.07116900000000045
 10
-31.23665000000003
 20
47.72091100000009
 42
-0.04284600000000019
 10
-29.69980199999996
 20
46.42707500000004
 42
-0.03734200000000011
 10
-28.66749300000008
 20
45.22787500000001
 42
-0.02675900000000004
 10
-27.69382299999988
 20
43.75011799999999
 42
-0.02718400000000012
 10
-26.91455899999997
 20
42.23385300000001
 42
-0.0510879999999997
 10
-26.4839829999999
 20
40.92707500000003
 42
0.05982999999999956
 10
-25.87156999999994
 20
39.17195400000001
 42
0.1955260000000023
 10
-24.97235699999998
 20
38.36823700000002
 42
0.08056999999999956
 10
-23.26751400000011
 20
38.05376499999997
 42
0.005404000000000023
 10
-18.29273700000006
 20
37.99999999999994
 10
-10.74438399999997
 20
38
 10
-11.42385300000005
 20
42.24999999999999
 42
0.05314099999999989
 10
-12.54268000000006
 20
46.37732699999997
 42
0.03952299999999995
 10
-14.59733400000002
 20
50.63182499999996
 42
0.04022400000000007
 10
-17.228056
 20
54.40131199999999
 42
0.06566900000000023
 10
-20.07628099999998
 20
57.05431700000005
 42
0.07197300000000005
 10
-25.73789799999998
 20
59.966481
 42
0.05140200000000001
 10
-32.68827699999997
 20
61.58407699999999
 42
0.04990299999999997
 10
-40.06517699999995
 20
61.777591
 42
0.05695400000000004
  0
LWPOLYLINE
  5
73
100
AcDbEntity
  8
0
  6
ByLayer
 62
  256
370
   -1
100
AcDbPolyline
 90
   28
 70
    1
 43
0
 10
190.969379
 20
60.523171
 42
0.05945600000000014
 10
186.467147
 20
58.46016400000002
 42
0.044012
 10
182.058841
 20
55.202539
 42
0.04308399999999991
 10
178.186183
 20
51.13049799999998
 42
0.04980500000000009
 10
175.276877
 20
46.63785199999997
 42
0.06788299999999979
 10
173.1155259999999
 20
40.51965300000003
 42
0.03670300000000008
 10
172.0730979999998
 20
32.58631600000001
 42
0.03626200000000009
 10
172.198171
 20
24.36705200000001
 42
0.05431200000000023
 10
173.596537
 20
17.33239299999997
 42
0.06262500000000004
 10
176.3113839999999
 20
11.41009899999998
 42
0.05713400000000021
 10
180.4793029999999
 20
6.139065999999971
 42
0.05797600000000019
 10
185.663131
 20
2.017179999999982
 42
0.06894000000000002
 10
191.3706409999999
 20
-0.5199369999999917
 42
0.06827700000000006
 10
201.360903
 20
-1.971477999999983
 42
0.07213100000000003
 10
211.1783259999999
 20
-0.6273209999999381
 42
0.07710900000000002
 10
219.6494169999999
 20
3.298737000000049
 42
0.09821299999999958
 10
225.7364079999999
 20
9.365156999999982
 42
0.03583099999999997
 10
228.424405
 20
14.06352899999989
 42
0.04824900000000033
 10
230.111099
 20
18.66130199999998
 42
0.04326000000000019
 10
230.9988070000001
 20
23.87279899999992
 42
0.02219600000000043
 10
231.249868
 20
30.50000000000002
 42
0.07090799999999992
 10
229.3321779999999
 20
43.353787
 42
0.1115349999999999
 10
223.888077
 20
53.044816
 42
0.1167440000000002
 10
215.01939
 20
59.169344
 42
0.08278300000000005
 10
203.138674
 20
61.66128
 42
0.01553000000000005
 10
199.63885
 20
61.698035
 42
0.01817600000000005
 10
196.323305
 20
61.509162
 42
0.01979699999999993
 10
193.36684
 20
61.11409599999996
 42
0.03462999999999996
  0
LWPOLYLINE
  5
74
100
AcDbEntity
  8
0
  6
ByLayer
 62
  256
370
   -1
100
AcDbPolyline
 90
   20
 70
    1
 43
0
 10
208.039849
 20
47.47939299999998
 42
-0.099895
 10
211.196484
 20
44.94559399999996
 42
-0.07366799999999958
 10
213.5382829999998
 20
41.11069699999993
 42
-0.06131899999999991
 10
214.9780040000002
 20
36.07858700000002
 42
-0.03906499999999993
 10
215.4536440000002
 20
29.99999999999998
 42
-0.05500500000000034
 10
214.5570199999999
 20
21.87431399999995
 42
-0.1041789999999995
 10
211.838623
 20
15.90620800000001
 42
-0.127407
 10
207.392053
 20
12.29325900000003
 42
-0.1076330000000001
 10
201.453952
 20
11.00000000000001
 42
-0.117447
 10
195.912008
 20
12.31997500000001
 42
-0.1153489999999999
 10
191.517382
 20
16.00148999999999
 42
-0.09711500000000051
 10
188.6953140000001
 20
21.84120500000006
 42
-0.06232599999999981
 10
187.7011609999999
 20
29.32620700000007
 42
-0.03100099999999971
 10
188.0026619999999
 20
34.860207
 42
-0.05614699999999995
 10
189.0291250000001
 20
39.27221999999999
 42
-0.06538599999999992
 10
190.865087
 20
42.87453499999998
 42
-0.06216200000000014
 10
193.595852
 20
45.95001500000004
 42
-0.07575200000000033
 10
196.812496
 20
48.00869199999998
 42
-0.0783129999999998
 10
200.459917
 20
48.98600599999997
 42
-0.07683699999999988
 10
204.2907259999999
 20
48.80243999999999
 42
-0.06910899999999998
  0
LWPOLYLINE
  5
75
100
AcDbEntity
  8
0
  6
ByLayer
 62
  256
370
   -1
100
AcDbPolyline
 90
   42
 70
    1
 43
0
 10
314.462801
 20
60.469134
 42
0.07233299999999997
 10
308.137703
 20
57.02330300000003
 42
0.07233000000000001
 10
303.0559610000001
 20
51.91857100000004
 42
0.06654600000000004
 10
299.3258839999999
 20
45.18444900000003
 42
0.04842
 10
296.9883800000001
 20
36.93699700000001
 42
0.03674199999999998
 10
296.289739
 20
30.36847700000002
 42
0.03939899999999975
 10
296.5880450000001
 20
23.92251500000005
 42
0.04053600000000005
 10
297.8727479999999
 20
17.775468
 42
0.04411700000000006
 10
300.109816
 20
12.09615299999999
 42
0.06464500000000024
 10
304.200123
 20
6.020375999999974
 42
0.07658400000000035
 10
309.5055149999999
 20
1.585219000000016
 42
0.07549799999999988
 10
315.9652
 20
-1.090580999999972
 42
0.06057499999999996
 10
323.444225
 20
-2.000000000000014
 42
0.05750500000000004
 10
331.597582
 20
-1.059167000000059
 42
0.06603599999999993
 10
338.923673
 20
1.712181999999981
 42
0.06951000000000003
 10
344.9698759999999
 20
6.142106000000076
 42
0.07545399999999938
 10
349.3759249999998
 20
11.94936600000003
 10
352.124824
 20
17
 10
344.097596
 20
17.00000000000003
 42
0.007233000000000016
 10
339.5533359999999
 20
16.93426300000002
 42
0.04666099999999995
 10
337.27808
 20
16.65487100000001
 42
0.1005889999999996
 10
335.931603
 20
16.06011399999999
 42
0.1162580000000004
 10
335.005539
 20
15.01034999999998
 42
-0.1415730000000005
 10
332.191405
 20
12.12367199999996
 42
-0.07993000000000007
 10
327.575737
 20
10.40040500000001
 42
-0.07655899999999999
 10
322.430421
 20
10.16879500000002
 42
-0.1068359999999999
 10
318.072093
 20
11.61648500000005
 42
-0.05195699999999964
 10
315.7284519999999
 20
13.35191700000005
 42
-0.0764339999999996
 10
314.126038
 20
15.34559300000003
 42
-0.06669200000000004
 10
313.0589419999999
 20
17.932275
 42
-0.03047500000000016
 10
312.341949
 20
21.521862
 10
311.728152
 20
26
 10
332.462263
 20
26
 10
353.196374
 20
26
 10
352.5188059999999
 20
32.24999999999999
 42
0.03437199999999996
 10
350.860962
 20
41.53405900000001
 42
0.06470900000000018
 10
348.0789360000001
 20
48.60877100000002
 42
0.07504699999999985
 10
343.92074
 20
54.03668300000004
 42
0.0645990000000001
 10
338.142839
 20
58.32292600000002
 42
0.06103999999999993
 10
332.7516409999999
 20
60.52205199999999
 42
0.04377599999999998
 10
326.340135
 20
61.67473100000002
 42
0.04416100000000005
 10
319.9079840000001
 20
61.68838099999999
 42
0.06716900000000001
  0
LWPOLYLINE
  5
76
100
AcDbEntity
  8
0
  6
ByLayer
 62
  256
370
   -1
100
AcDbPolyline
 90
   20
 70
    1
 43
0
 10
330.385121
 20
47.91170399999999
 42
-0.05344000000000002
 10
332.52086
 20
45.82704999999999
 42
-0.04331499999999994
 10
334.3403919999999
 20
43.19097899999997
 42
-0.04500799999999989
 10
335.5916299999999
 20
40.44546099999992
 42
-0.08461599999999871
 10
335.9999999999998
 20
38.04965999999999
 42
-0.2045399999999948
 10
335.515478
 20
36.91479300000001
 42
-0.1499900000000013
 10
334.2781230000001
 20
36.292463
 42
-0.03918999999999991
 10
331.5206769999992
 20
36.04388199999994
 42
-0.002892
 10
323.9326119999993
 20
35.99999999999955
 42
-0.003027000000000196
 10
316.6911319999995
 20
36.04384599999992
 42
-0.03458700000000015
 10
313.846708
 20
36.27548399999999
 42
-0.1403990000000012
 10
312.659749
 20
36.81895700000002
 42
-0.2960249999999747
 10
312.3851250000001
 20
37.74999999999994
 42
0.005915999999999907
 10
312.6302220000002
 20
38.61224899999993
 42
0.00238699999999994
 10
312.945191
 20
39.79461599999989
 42
0.002361999999999815
 10
313.2721979999998
 20
41.07078699999981
 42
0.00299399999999986
 10
313.5616599999998
 20
42.25294799999993
 42
-0.1411360000000007
 10
315.973893
 20
46.51960900000002
 42
-0.113316
 10
320.488383
 20
49.28835000000002
 42
-0.1123140000000001
 10
325.792787
 20
49.82475500000001
 42
-0.1367450000000002
  0
LWPOLYLINE
  5
77
100
AcDbEntity
  8
0
  6
ByLayer
 62
  256
370
   -1
100
AcDbPolyline
 90
   80
 70
    1
 43
0
 10
377.826373
 20
61.02095600000003
 42
0.04006600000000011
 10
374.162632
 20
59.58609
 42
0.033449
 10
370.5355029999999
 20
57.50817699999998
 42
0.03461099999999999
 10
367.399146
 20
55.09254300000001
 42
0.06121699999999991
 10
365.241142
 20
52.64697299999997
 42
0.09108899999999982
 10
362.818638
 20
47.208505
 42
0.07619800000000014
 10
362.279673
 20
40.90352799999999
 42
0.08076599999999996
 10
363.6312109999999
 20
35.07905400000001
 42
0.1294880000000011
 10
366.687825
 20
31.0309169999999
 42
0.06365300000000061
 10
368.3544919999999
 20
30.03326499999996
 42
0.00822700000000005
 10
372.1952519999999
 20
28.42841799999999
 42
0.009490000000000061
 10
376.8414559999998
 20
26.67764899999997
 42
0.00779199999999996
 10
381.8654329999999
 20
24.98035700000003
 42
-0.003502000000000006
 10
392.1937980000001
 20
21.58949000000007
 42
-0.03555899999999991
 10
396.359734
 20
19.85114200000002
 42
-0.104173000000001
 10
398.30154
 20
18.30006800000001
 42
-0.1740259999999947
 10
398.9999999999998
 20
16.354073
 42
-0.2910089999999967
 10
396.3180149999999
 20
12.13624300000003
 42
-0.09771900000000006
 10
388.908385
 20
10.29764099999999
 42
-0.08756800000000003
 10
380.7421450000001
 20
11.33443499999995
 42
-0.2086730000000033
 10
376.2088909999998
 20
15.24999999999996
 42
0.06195400000000004
 10
375.191359
 20
16.835098
 42
0.1440560000000005
 10
374.029478
 20
17.61340500000004
 42
0.0691850000000002
 10
372.107527
 20
17.93525800000003
 42
0.006943000000000029
 10
367.445434
 20
17.99999999999997
 42
0.005897999999999972
 10
362.984683
 20
17.94737799999996
 42
0.06078800000000003
 10
361.165969
 20
17.68176600000003
 42
0.1848380000000059
 10
360.323302
 20
17.06478500000002
 42
0.1443019999999968
 10
360.0000000000001
 20
15.96788100000001
 42
0.1118139999999992
 10
361.036289
 20
11.39181900000004
 42
0.06458199999999986
 10
364.117881
 20
6.630254000000054
 42
0.06097699999999998
 10
368.568526
 20
2.520345999999964
 42
0.07113000000000025
 10
373.66423
 20
-0.1441410000000189
 42
0.04778099999999994
 10
375.93251
 20
-0.7095260000000394
 42
0.01476899999999988
 10
379.4313119999999
 20
-1.128757000000022
 42
0.01344500000000002
 10
383.695596
 20
-1.397027999999992
 42
0.009468999999999658
 10
388.4999999999996
 20
-1.47872799999999
 42
0.006824999999999933
 10
394.5674249999997
 20
-1.384163000000029
 42
0.0283339999999999
 10
398.215041
 20
-1.070108000000006
 42
0.04441599999999995
 10
400.912613
 20
-0.4347529999999669
 42
0.04239900000000002
 10
403.5
 20
0.6739540000000126
 42
0.082645
 10
409.701471
 20
5.432508000000013
 42
0.09359800000000008
 10
413.710426
 20
11.76018899999997
 42
0.09943100000000052
 10
414.9888790000001
 20
18.79114799999999
 42
0.1065810000000003
 10
413.393538
 20
25.583108
 42
0.0881499999999997
 10
411.1428140000002
 20
28.74305300000002
 42
0.07097100000000049
 10
407.778199
 20
31.21865000000007
 42
0.04163499999999999
 10
402.3713289999998
 20
33.56484400000005
 42
0.009886000000000077
 10
393
 20
36.52976000000012
 42
-0.004422000000000215
 10
388.1202989999998
 20
38.01515600000025
 42
-0.006255000000000121
 10
383.8046879999999
 20
39.43021700000003
 42
-0.003766000000000025
 10
380.2064529999999
 20
40.69046599999996
 42
-0.08463400000000024
 10
379.25
 20
41.229602
 42
-0.09185299999999963
 10
378.770489
 20
41.79264000000001
 42
-0.04354799999999998
 10
378.3671879999999
 20
42.66004499999996
 42
-0.04119000000000066
 10
378.0924059999999
 20
43.669203
 42
-0.04590999999999984
 10
377.9999999999999
 20
44.67347100000001
 42
-0.08039200000000123
 10
378.202319
 20
45.92365799999997
 42
-0.1071079999999982
 10
378.78657
 20
46.91109699999996
 42
-0.07926199999999936
 10
379.877502
 20
47.76640799999999
 42
-0.02774400000000002
 10
381.676341
 20
48.63812699999999
 42
-0.08971299999999996
 10
386.726321
 20
49.75061600000001
 42
-0.09476399999999997
 10
391.743322
 20
48.98683599999999
 42
-0.1018909999999996
 10
395.845443
 20
46.510456
 42
-0.1219260000000003
 10
398.319603
 20
42.75
 42
0.1536570000000043
 10
398.9846250000001
 20
41.86461399999992
 42
0.09951100000000095
 10
400.162004
 20
41.33418099999997
 42
0.04736900000000002
 10
402.2014229999999
 20
41.067033
 42
0.008896000000000008
 10
405.9686149999999
 20
40.99999999999994
 42
0.005510999999999967
 10
410.495486
 20
41.04989199999995
 42
0.08108099999999965
 10
412.05578
 20
41.34002899999997
 42
0.2296870000000052
 10
412.7612619999999
 20
42.06236300000003
 42
0.08068799999999902
 10
413.0000000000001
 20
43.53211899999999
 42
0.1065050000000006
 10
411.8841400000001
 20
48.71121000000005
 42
0.07671600000000028
 10
408.645912
 20
53.68026399999999
 42
0.07074699999999985
 10
403.7555159999999
 20
57.78978000000001
 42
0.06733100000000006
 10
397.832592
 20
60.45707399999999
 42
0.04164099999999994
 10
393.187773
 20
61.42495400000002
 42
0.02351100000000001
 10
387.446875
 20
61.85743300000002
 42
0.02340499999999998
 10
381.867989
 20
61.75351700000004
 42
0.05700200000000004
  0
LWPOLYLINE
  5
78
100
AcDbEntity
  8
0
  6
ByLayer
 62
  256
370
   -1
100
AcDbPolyline
 90
   64
 70
    1
 43
0
 10
236.6469769999999
 20
59.74999999999995
 42
0.006953999999999916
 10
237.212853
 20
58.85362099999702
 42
0.0001849999999998873
 10
239.7705049999995
 20
54.92749200000139
 42
0.0003870000000000134
 10
242.7809229999957
 20
50.31788600000618
 42
0.0002650000000001297
 10
246.2059939999982
 20
45.08827000000201
 42
-0.002763000000000095
 10
249.5766810000003
 20
39.88516799999985
 42
-0.004306999999999932
 10
252.416761
 20
35.36223600000005
 42
-0.00134300000000008
 10
254.828625
 20
31.42309199999978
 42
-0.137536000000001
 10
255
 20
30.81186
 42
-0.1399530000000042
 10
254.8257670000002
 20
30.20158200000014
 42
-0.001328000000000388
 10
252.3416189999993
 20
26.22920999999874
 42
-0.004312999999999918
 10
249.4189529999999
 20
21.67082799999969
 42
-0.002761999999999948
 10
245.950193
 20
16.42558099999968
 42
0.001970999999999967
 10
242.4422339999997
 20
11.13926999999984
 42
0.00287099999999993
 10
239.3950939999996
 20
6.449430000000177
 42
0.001423999999999973
 10
236.8427169999999
 20
2.446215000000209
 42
0.04962599999999979
 10
236.3432040000001
 20
1.451991999999956
 42
0.3355819999999636
 10
236.5523970000001
 20
0.727603000000052
 42
0.1188579999999989
 10
237.607475
 20
0.274659000000069
 42
0.03706199999999996
 10
239.9622749999998
 20
0.05072600000002581
 42
0.005179999999999913
 10
244.8580089999998
 20
-2.842170943040401e-14
 10
253.929995
 20
0
 10
259.0794500000001
 20
9.552213999999992
 42
-0.004337000000000023
 10
261.0808230000001
 20
13.18887300000006
 42
-0.007378000000000019
 10
262.825067
 20
16.18965099999994
 42
-0.002273999999999962
 10
264.35279
 20
18.70489399999989
 42
-0.484848999999977
 10
264.599334
 20
18.73399900000004
 42
-0.068095000000003
 10
264.8396140000001
 20
18.4175449999999
 42
-0.0006300000000000052
 10
266.2838830000001
 20
15.84867199999982
 42
-0.002123999999999994
 10
267.930388
 20
12.88195399999984
 42
-0.001369999999999862
 10
269.8137919999999
 20
9.431785000000161
 10
274.657821
 20
0.5
 10
283.8289109999999
 20
0.2124739999999576
 42
0.006281000000000031
 10
287.345496
 20
0.1464310000000069
 42
0.0104779999999999
 10
290.3059919999998
 20
0.1900690000000509
 42
0.004344999999999958
 10
292.7720629999999
 20
0.2995940000000705
 42
0.3987529999999724
 10
293
 20
0.5399620000000025
 42
0.140777
 10
292.8721270000003
 20
0.9851299999995717
 42
0.0006180000000000457
 10
290.2093750000001
 20
5.225986999999492
 42
0.002909000000000069
 10
287.141776
 20
10.03594999999973
 42
0.001823000000000103
 10
283.4999999999999
 20
15.62875300000047
 42
-0.002672999999999841
 10
279.8586629999999
 20
21.24171500000043
 42
-0.004176999999999991
 10
276.790625
 20
26.11593300000061
 42
-0.001263999999999897
 10
274.1798140000001
 20
30.36562900000001
 42
-0.1379599999999959
 10
274.0000000000001
 20
31.00491400000001
 42
-0.1372769999999982
 10
274.1790680000001
 20
31.64483600000028
 42
-0.001250999999999947
 10
276.7866980000001
 20
35.91521300000011
 42
-0.004145999999999926
 10
279.8504160000001
 20
40.81286599999981
 42
-0.002652999999999993
 10
283.4866299999999
 20
46.45364899999987
 10
292.97326
 20
61
 10
283.501025
 20
61
 10
274.02879
 20
61
 10
271.001481
 20
55.00293499999982
 42
-0.00367899999999999
 10
269.704899
 20
52.48072499999982
 42
-0.003215000000000126
 10
268.3124019999999
 20
49.86138999999999
 42
-0.003233000000000235
 10
267.0233329999999
 20
47.51026699999986
 42
-0.009599000000000052
 10
266.098282
 20
45.92121499999995
 10
264.222392
 20
42.83656199999999
 10
259.433997
 20
51.91828100000001
 10
254.6456020000001
 20
61
 10
245.263784
 20
60.99999999999997
 42
0.005527999999999987
 10
240.5472140000001
 20
60.94785100000004
 42
0.03049599999999995
 10
238.016239
 20
60.73707599999999
 42
0.08405599999999962
 10
236.813562
 20
60.34946699999995
 42
0.4347809999999084
  0
ENDSEC
  0
SECTION
  2
OBJECTS
  0
DICTIONARY
  5
C
330
0
100
AcDbDictionary
281
    1
  3
ACAD_GROUP
350
D
  0
DICTIONARY
  5
D
330
C
100
AcDbDictionary
281
    1
  0
PLOTSETTINGS
  5
79
100
AcDbPlotSettings
  6
1x1
 40
0
 41
0
 42
0
 43
0
  0
ENDSEC
  0
EOF
