G04 #@! TF.GenerationSoftware,KiCad,Pcbnew,8.0.8*
G04 #@! TF.CreationDate,2025-02-18T17:40:16+00:00*
G04 #@! TF.ProjectId,NB3_charger,4e42335f-6368-4617-9267-65722e6b6963,0.0.0*
G04 #@! TF.SameCoordinates,PX67794f8PYa78cb34*
G04 #@! TF.FileFunction,Paste,Top*
G04 #@! TF.FilePolarity,Positive*
%FSLAX46Y46*%
G04 Gerber Fmt 4.6, Leading zero omitted, Abs format (unit mm)*
G04 Created by KiCad (PCBNEW 8.0.8) date 2025-02-18 17:40:16*
%MOMM*%
%LPD*%
G01*
G04 APERTURE LIST*
G04 Aperture macros list*
%AMRoundRect*
0 Rectangle with rounded corners*
0 $1 Rounding radius*
0 $2 $3 $4 $5 $6 $7 $8 $9 X,Y pos of 4 corners*
0 Add a 4 corners polygon primitive as box body*
4,1,4,$2,$3,$4,$5,$6,$7,$8,$9,$2,$3,0*
0 Add four circle primitives for the rounded corners*
1,1,$1+$1,$2,$3*
1,1,$1+$1,$4,$5*
1,1,$1+$1,$6,$7*
1,1,$1+$1,$8,$9*
0 Add four rect primitives between the rounded corners*
20,1,$1+$1,$2,$3,$4,$5,0*
20,1,$1+$1,$4,$5,$6,$7,0*
20,1,$1+$1,$6,$7,$8,$9,0*
20,1,$1+$1,$8,$9,$2,$3,0*%
G04 Aperture macros list end*
%ADD10C,0.010000*%
%ADD11RoundRect,0.243750X0.456250X-0.243750X0.456250X0.243750X-0.456250X0.243750X-0.456250X-0.243750X0*%
%ADD12R,0.806477X0.864008*%
%ADD13RoundRect,0.147500X0.147500X0.172500X-0.147500X0.172500X-0.147500X-0.172500X0.147500X-0.172500X0*%
%ADD14RoundRect,0.135000X0.135000X0.185000X-0.135000X0.185000X-0.135000X-0.185000X0.135000X-0.185000X0*%
%ADD15RoundRect,0.243750X-0.456250X0.243750X-0.456250X-0.243750X0.456250X-0.243750X0.456250X0.243750X0*%
%ADD16RoundRect,0.218750X0.256250X-0.218750X0.256250X0.218750X-0.256250X0.218750X-0.256250X-0.218750X0*%
%ADD17RoundRect,0.250000X-1.025000X0.787500X-1.025000X-0.787500X1.025000X-0.787500X1.025000X0.787500X0*%
%ADD18R,1.600000X1.000000*%
%ADD19RoundRect,0.135000X-0.135000X-0.185000X0.135000X-0.185000X0.135000X0.185000X-0.135000X0.185000X0*%
%ADD20RoundRect,0.147500X-0.147500X-0.172500X0.147500X-0.172500X0.147500X0.172500X-0.147500X0.172500X0*%
%ADD21RoundRect,0.250000X0.250000X0.475000X-0.250000X0.475000X-0.250000X-0.475000X0.250000X-0.475000X0*%
%ADD22RoundRect,0.250000X-0.250000X-0.475000X0.250000X-0.475000X0.250000X0.475000X-0.250000X0.475000X0*%
%ADD23RoundRect,0.147500X-0.172500X0.147500X-0.172500X-0.147500X0.172500X-0.147500X0.172500X0.147500X0*%
%ADD24RoundRect,0.135000X0.185000X-0.135000X0.185000X0.135000X-0.185000X0.135000X-0.185000X-0.135000X0*%
%ADD25R,1.905000X0.812800*%
%ADD26RoundRect,0.050000X0.200000X0.075000X-0.200000X0.075000X-0.200000X-0.075000X0.200000X-0.075000X0*%
%ADD27R,1.400000X0.600000*%
%ADD28R,5.100000X2.350000*%
%ADD29RoundRect,0.250000X0.315000X0.460000X-0.315000X0.460000X-0.315000X-0.460000X0.315000X-0.460000X0*%
%ADD30RoundRect,0.150000X0.737500X0.150000X-0.737500X0.150000X-0.737500X-0.150000X0.737500X-0.150000X0*%
G04 APERTURE END LIST*
D10*
X-11592000Y132549000D02*
X-11590000Y132549000D01*
X-11587000Y132548000D01*
X-11585000Y132548000D01*
X-11582000Y132547000D01*
X-11580000Y132546000D01*
X-11577000Y132545000D01*
X-11575000Y132543000D01*
X-11573000Y132542000D01*
X-11571000Y132540000D01*
X-11569000Y132539000D01*
X-11567000Y132537000D01*
X-11565000Y132535000D01*
X-11563000Y132533000D01*
X-11561000Y132531000D01*
X-11560000Y132529000D01*
X-11558000Y132527000D01*
X-11557000Y132525000D01*
X-11555000Y132523000D01*
X-11554000Y132520000D01*
X-11553000Y132518000D01*
X-11552000Y132515000D01*
X-11552000Y132513000D01*
X-11551000Y132510000D01*
X-11551000Y132508000D01*
X-11550000Y132505000D01*
X-11550000Y132503000D01*
X-11550000Y132500000D01*
X-11550000Y131900000D01*
X-11550000Y131897000D01*
X-11550000Y131895000D01*
X-11551000Y131892000D01*
X-11551000Y131890000D01*
X-11552000Y131887000D01*
X-11552000Y131885000D01*
X-11553000Y131882000D01*
X-11554000Y131880000D01*
X-11555000Y131877000D01*
X-11557000Y131875000D01*
X-11558000Y131873000D01*
X-11560000Y131871000D01*
X-11561000Y131869000D01*
X-11563000Y131867000D01*
X-11565000Y131865000D01*
X-11567000Y131863000D01*
X-11569000Y131861000D01*
X-11571000Y131860000D01*
X-11573000Y131858000D01*
X-11575000Y131857000D01*
X-11577000Y131855000D01*
X-11580000Y131854000D01*
X-11582000Y131853000D01*
X-11585000Y131852000D01*
X-11587000Y131852000D01*
X-11590000Y131851000D01*
X-11592000Y131851000D01*
X-11595000Y131850000D01*
X-11597000Y131850000D01*
X-11600000Y131850000D01*
X-12400000Y131850000D01*
X-12403000Y131850000D01*
X-12405000Y131850000D01*
X-12408000Y131851000D01*
X-12410000Y131851000D01*
X-12413000Y131852000D01*
X-12415000Y131852000D01*
X-12418000Y131853000D01*
X-12420000Y131854000D01*
X-12423000Y131855000D01*
X-12425000Y131857000D01*
X-12427000Y131858000D01*
X-12429000Y131860000D01*
X-12431000Y131861000D01*
X-12433000Y131863000D01*
X-12435000Y131865000D01*
X-12437000Y131867000D01*
X-12439000Y131869000D01*
X-12440000Y131871000D01*
X-12442000Y131873000D01*
X-12443000Y131875000D01*
X-12445000Y131877000D01*
X-12446000Y131880000D01*
X-12447000Y131882000D01*
X-12448000Y131885000D01*
X-12448000Y131887000D01*
X-12449000Y131890000D01*
X-12449000Y131892000D01*
X-12450000Y131895000D01*
X-12450000Y131897000D01*
X-12450000Y131900000D01*
X-12450000Y132500000D01*
X-12450000Y132503000D01*
X-12450000Y132505000D01*
X-12449000Y132508000D01*
X-12449000Y132510000D01*
X-12448000Y132513000D01*
X-12448000Y132515000D01*
X-12447000Y132518000D01*
X-12446000Y132520000D01*
X-12445000Y132523000D01*
X-12443000Y132525000D01*
X-12442000Y132527000D01*
X-12440000Y132529000D01*
X-12439000Y132531000D01*
X-12437000Y132533000D01*
X-12435000Y132535000D01*
X-12433000Y132537000D01*
X-12431000Y132539000D01*
X-12429000Y132540000D01*
X-12427000Y132542000D01*
X-12425000Y132543000D01*
X-12423000Y132545000D01*
X-12420000Y132546000D01*
X-12418000Y132547000D01*
X-12415000Y132548000D01*
X-12413000Y132548000D01*
X-12410000Y132549000D01*
X-12408000Y132549000D01*
X-12405000Y132550000D01*
X-12403000Y132550000D01*
X-12400000Y132550000D01*
X-11600000Y132550000D01*
X-11597000Y132550000D01*
X-11595000Y132550000D01*
X-11592000Y132549000D01*
G36*
X-11592000Y132549000D02*
G01*
X-11590000Y132549000D01*
X-11587000Y132548000D01*
X-11585000Y132548000D01*
X-11582000Y132547000D01*
X-11580000Y132546000D01*
X-11577000Y132545000D01*
X-11575000Y132543000D01*
X-11573000Y132542000D01*
X-11571000Y132540000D01*
X-11569000Y132539000D01*
X-11567000Y132537000D01*
X-11565000Y132535000D01*
X-11563000Y132533000D01*
X-11561000Y132531000D01*
X-11560000Y132529000D01*
X-11558000Y132527000D01*
X-11557000Y132525000D01*
X-11555000Y132523000D01*
X-11554000Y132520000D01*
X-11553000Y132518000D01*
X-11552000Y132515000D01*
X-11552000Y132513000D01*
X-11551000Y132510000D01*
X-11551000Y132508000D01*
X-11550000Y132505000D01*
X-11550000Y132503000D01*
X-11550000Y132500000D01*
X-11550000Y131900000D01*
X-11550000Y131897000D01*
X-11550000Y131895000D01*
X-11551000Y131892000D01*
X-11551000Y131890000D01*
X-11552000Y131887000D01*
X-11552000Y131885000D01*
X-11553000Y131882000D01*
X-11554000Y131880000D01*
X-11555000Y131877000D01*
X-11557000Y131875000D01*
X-11558000Y131873000D01*
X-11560000Y131871000D01*
X-11561000Y131869000D01*
X-11563000Y131867000D01*
X-11565000Y131865000D01*
X-11567000Y131863000D01*
X-11569000Y131861000D01*
X-11571000Y131860000D01*
X-11573000Y131858000D01*
X-11575000Y131857000D01*
X-11577000Y131855000D01*
X-11580000Y131854000D01*
X-11582000Y131853000D01*
X-11585000Y131852000D01*
X-11587000Y131852000D01*
X-11590000Y131851000D01*
X-11592000Y131851000D01*
X-11595000Y131850000D01*
X-11597000Y131850000D01*
X-11600000Y131850000D01*
X-12400000Y131850000D01*
X-12403000Y131850000D01*
X-12405000Y131850000D01*
X-12408000Y131851000D01*
X-12410000Y131851000D01*
X-12413000Y131852000D01*
X-12415000Y131852000D01*
X-12418000Y131853000D01*
X-12420000Y131854000D01*
X-12423000Y131855000D01*
X-12425000Y131857000D01*
X-12427000Y131858000D01*
X-12429000Y131860000D01*
X-12431000Y131861000D01*
X-12433000Y131863000D01*
X-12435000Y131865000D01*
X-12437000Y131867000D01*
X-12439000Y131869000D01*
X-12440000Y131871000D01*
X-12442000Y131873000D01*
X-12443000Y131875000D01*
X-12445000Y131877000D01*
X-12446000Y131880000D01*
X-12447000Y131882000D01*
X-12448000Y131885000D01*
X-12448000Y131887000D01*
X-12449000Y131890000D01*
X-12449000Y131892000D01*
X-12450000Y131895000D01*
X-12450000Y131897000D01*
X-12450000Y131900000D01*
X-12450000Y132500000D01*
X-12450000Y132503000D01*
X-12450000Y132505000D01*
X-12449000Y132508000D01*
X-12449000Y132510000D01*
X-12448000Y132513000D01*
X-12448000Y132515000D01*
X-12447000Y132518000D01*
X-12446000Y132520000D01*
X-12445000Y132523000D01*
X-12443000Y132525000D01*
X-12442000Y132527000D01*
X-12440000Y132529000D01*
X-12439000Y132531000D01*
X-12437000Y132533000D01*
X-12435000Y132535000D01*
X-12433000Y132537000D01*
X-12431000Y132539000D01*
X-12429000Y132540000D01*
X-12427000Y132542000D01*
X-12425000Y132543000D01*
X-12423000Y132545000D01*
X-12420000Y132546000D01*
X-12418000Y132547000D01*
X-12415000Y132548000D01*
X-12413000Y132548000D01*
X-12410000Y132549000D01*
X-12408000Y132549000D01*
X-12405000Y132550000D01*
X-12403000Y132550000D01*
X-12400000Y132550000D01*
X-11600000Y132550000D01*
X-11597000Y132550000D01*
X-11595000Y132550000D01*
X-11592000Y132549000D01*
G37*
X-11592000Y131649000D02*
X-11590000Y131649000D01*
X-11587000Y131648000D01*
X-11585000Y131648000D01*
X-11582000Y131647000D01*
X-11580000Y131646000D01*
X-11577000Y131645000D01*
X-11575000Y131643000D01*
X-11573000Y131642000D01*
X-11571000Y131640000D01*
X-11569000Y131639000D01*
X-11567000Y131637000D01*
X-11565000Y131635000D01*
X-11563000Y131633000D01*
X-11561000Y131631000D01*
X-11560000Y131629000D01*
X-11558000Y131627000D01*
X-11557000Y131625000D01*
X-11555000Y131623000D01*
X-11554000Y131620000D01*
X-11553000Y131618000D01*
X-11552000Y131615000D01*
X-11552000Y131613000D01*
X-11551000Y131610000D01*
X-11551000Y131608000D01*
X-11550000Y131605000D01*
X-11550000Y131603000D01*
X-11550000Y131600000D01*
X-11550000Y131000000D01*
X-11550000Y130997000D01*
X-11550000Y130995000D01*
X-11551000Y130992000D01*
X-11551000Y130990000D01*
X-11552000Y130987000D01*
X-11552000Y130985000D01*
X-11553000Y130982000D01*
X-11554000Y130980000D01*
X-11555000Y130977000D01*
X-11557000Y130975000D01*
X-11558000Y130973000D01*
X-11560000Y130971000D01*
X-11561000Y130969000D01*
X-11563000Y130967000D01*
X-11565000Y130965000D01*
X-11567000Y130963000D01*
X-11569000Y130961000D01*
X-11571000Y130960000D01*
X-11573000Y130958000D01*
X-11575000Y130957000D01*
X-11577000Y130955000D01*
X-11580000Y130954000D01*
X-11582000Y130953000D01*
X-11585000Y130952000D01*
X-11587000Y130952000D01*
X-11590000Y130951000D01*
X-11592000Y130951000D01*
X-11595000Y130950000D01*
X-11597000Y130950000D01*
X-11600000Y130950000D01*
X-12400000Y130950000D01*
X-12403000Y130950000D01*
X-12405000Y130950000D01*
X-12408000Y130951000D01*
X-12410000Y130951000D01*
X-12413000Y130952000D01*
X-12415000Y130952000D01*
X-12418000Y130953000D01*
X-12420000Y130954000D01*
X-12423000Y130955000D01*
X-12425000Y130957000D01*
X-12427000Y130958000D01*
X-12429000Y130960000D01*
X-12431000Y130961000D01*
X-12433000Y130963000D01*
X-12435000Y130965000D01*
X-12437000Y130967000D01*
X-12439000Y130969000D01*
X-12440000Y130971000D01*
X-12442000Y130973000D01*
X-12443000Y130975000D01*
X-12445000Y130977000D01*
X-12446000Y130980000D01*
X-12447000Y130982000D01*
X-12448000Y130985000D01*
X-12448000Y130987000D01*
X-12449000Y130990000D01*
X-12449000Y130992000D01*
X-12450000Y130995000D01*
X-12450000Y130997000D01*
X-12450000Y131000000D01*
X-12450000Y131600000D01*
X-12450000Y131603000D01*
X-12450000Y131605000D01*
X-12449000Y131608000D01*
X-12449000Y131610000D01*
X-12448000Y131613000D01*
X-12448000Y131615000D01*
X-12447000Y131618000D01*
X-12446000Y131620000D01*
X-12445000Y131623000D01*
X-12443000Y131625000D01*
X-12442000Y131627000D01*
X-12440000Y131629000D01*
X-12439000Y131631000D01*
X-12437000Y131633000D01*
X-12435000Y131635000D01*
X-12433000Y131637000D01*
X-12431000Y131639000D01*
X-12429000Y131640000D01*
X-12427000Y131642000D01*
X-12425000Y131643000D01*
X-12423000Y131645000D01*
X-12420000Y131646000D01*
X-12418000Y131647000D01*
X-12415000Y131648000D01*
X-12413000Y131648000D01*
X-12410000Y131649000D01*
X-12408000Y131649000D01*
X-12405000Y131650000D01*
X-12403000Y131650000D01*
X-12400000Y131650000D01*
X-11600000Y131650000D01*
X-11597000Y131650000D01*
X-11595000Y131650000D01*
X-11592000Y131649000D01*
G36*
X-11592000Y131649000D02*
G01*
X-11590000Y131649000D01*
X-11587000Y131648000D01*
X-11585000Y131648000D01*
X-11582000Y131647000D01*
X-11580000Y131646000D01*
X-11577000Y131645000D01*
X-11575000Y131643000D01*
X-11573000Y131642000D01*
X-11571000Y131640000D01*
X-11569000Y131639000D01*
X-11567000Y131637000D01*
X-11565000Y131635000D01*
X-11563000Y131633000D01*
X-11561000Y131631000D01*
X-11560000Y131629000D01*
X-11558000Y131627000D01*
X-11557000Y131625000D01*
X-11555000Y131623000D01*
X-11554000Y131620000D01*
X-11553000Y131618000D01*
X-11552000Y131615000D01*
X-11552000Y131613000D01*
X-11551000Y131610000D01*
X-11551000Y131608000D01*
X-11550000Y131605000D01*
X-11550000Y131603000D01*
X-11550000Y131600000D01*
X-11550000Y131000000D01*
X-11550000Y130997000D01*
X-11550000Y130995000D01*
X-11551000Y130992000D01*
X-11551000Y130990000D01*
X-11552000Y130987000D01*
X-11552000Y130985000D01*
X-11553000Y130982000D01*
X-11554000Y130980000D01*
X-11555000Y130977000D01*
X-11557000Y130975000D01*
X-11558000Y130973000D01*
X-11560000Y130971000D01*
X-11561000Y130969000D01*
X-11563000Y130967000D01*
X-11565000Y130965000D01*
X-11567000Y130963000D01*
X-11569000Y130961000D01*
X-11571000Y130960000D01*
X-11573000Y130958000D01*
X-11575000Y130957000D01*
X-11577000Y130955000D01*
X-11580000Y130954000D01*
X-11582000Y130953000D01*
X-11585000Y130952000D01*
X-11587000Y130952000D01*
X-11590000Y130951000D01*
X-11592000Y130951000D01*
X-11595000Y130950000D01*
X-11597000Y130950000D01*
X-11600000Y130950000D01*
X-12400000Y130950000D01*
X-12403000Y130950000D01*
X-12405000Y130950000D01*
X-12408000Y130951000D01*
X-12410000Y130951000D01*
X-12413000Y130952000D01*
X-12415000Y130952000D01*
X-12418000Y130953000D01*
X-12420000Y130954000D01*
X-12423000Y130955000D01*
X-12425000Y130957000D01*
X-12427000Y130958000D01*
X-12429000Y130960000D01*
X-12431000Y130961000D01*
X-12433000Y130963000D01*
X-12435000Y130965000D01*
X-12437000Y130967000D01*
X-12439000Y130969000D01*
X-12440000Y130971000D01*
X-12442000Y130973000D01*
X-12443000Y130975000D01*
X-12445000Y130977000D01*
X-12446000Y130980000D01*
X-12447000Y130982000D01*
X-12448000Y130985000D01*
X-12448000Y130987000D01*
X-12449000Y130990000D01*
X-12449000Y130992000D01*
X-12450000Y130995000D01*
X-12450000Y130997000D01*
X-12450000Y131000000D01*
X-12450000Y131600000D01*
X-12450000Y131603000D01*
X-12450000Y131605000D01*
X-12449000Y131608000D01*
X-12449000Y131610000D01*
X-12448000Y131613000D01*
X-12448000Y131615000D01*
X-12447000Y131618000D01*
X-12446000Y131620000D01*
X-12445000Y131623000D01*
X-12443000Y131625000D01*
X-12442000Y131627000D01*
X-12440000Y131629000D01*
X-12439000Y131631000D01*
X-12437000Y131633000D01*
X-12435000Y131635000D01*
X-12433000Y131637000D01*
X-12431000Y131639000D01*
X-12429000Y131640000D01*
X-12427000Y131642000D01*
X-12425000Y131643000D01*
X-12423000Y131645000D01*
X-12420000Y131646000D01*
X-12418000Y131647000D01*
X-12415000Y131648000D01*
X-12413000Y131648000D01*
X-12410000Y131649000D01*
X-12408000Y131649000D01*
X-12405000Y131650000D01*
X-12403000Y131650000D01*
X-12400000Y131650000D01*
X-11600000Y131650000D01*
X-11597000Y131650000D01*
X-11595000Y131650000D01*
X-11592000Y131649000D01*
G37*
D11*
X4000000Y133875000D03*
X4000000Y135750000D03*
D12*
X21253366Y74600000D03*
X19746634Y74600000D03*
D13*
X485000Y139150000D03*
X-485000Y139150000D03*
D14*
X-19977500Y2500000D03*
X-20997500Y2500000D03*
D15*
X11500000Y140937500D03*
X11500000Y139062500D03*
D16*
X-18487500Y2500000D03*
X-18487500Y4075000D03*
D17*
X10000000Y132762500D03*
X10000000Y126537500D03*
D15*
X16500000Y140937500D03*
X16500000Y139062500D03*
X6500000Y131750000D03*
X6500000Y129875000D03*
D13*
X-1265000Y142550000D03*
X-2235000Y142550000D03*
D18*
X11200000Y2500000D03*
X8800000Y5000000D03*
X11200000Y7500000D03*
D19*
X-15010000Y2500000D03*
X-13990000Y2500000D03*
D18*
X-11200000Y7500000D03*
X-8800000Y5000000D03*
X-11200000Y2500000D03*
D20*
X-2235000Y141450000D03*
X-1265000Y141450000D03*
D11*
X16500000Y142562500D03*
X16500000Y144437500D03*
D21*
X-21050000Y128000000D03*
X-22950000Y128000000D03*
D22*
X-9650000Y127000000D03*
X-7750000Y127000000D03*
D19*
X-17020000Y133000000D03*
X-16000000Y133000000D03*
D11*
X14000000Y142562500D03*
X14000000Y144437500D03*
D15*
X4000000Y131750000D03*
X4000000Y129875000D03*
D16*
X-16500000Y2500000D03*
X-16500000Y4075000D03*
D15*
X14000000Y140937500D03*
X14000000Y139062500D03*
D23*
X500000Y141985000D03*
X500000Y141015000D03*
D24*
X-14000000Y132000000D03*
X-14000000Y133020000D03*
D13*
X-1765000Y139150000D03*
X-2735000Y139150000D03*
D14*
X15010000Y2500000D03*
X13990000Y2500000D03*
D24*
X-15000000Y132000000D03*
X-15000000Y133020000D03*
D25*
X-12000000Y123597400D03*
X-12000000Y119000000D03*
D26*
X-11050000Y131000000D03*
X-11050000Y131500000D03*
X-11050000Y132000000D03*
X-11050000Y132500000D03*
X-12950000Y132500000D03*
X-12950000Y132000000D03*
X-12950000Y131500000D03*
X-12950000Y131000000D03*
D27*
X-18835000Y131000000D03*
X-18835000Y131950000D03*
X-18835000Y132900000D03*
X-21165000Y132900000D03*
X-21165000Y131950000D03*
X-21165000Y131000000D03*
D20*
X-485000Y143650000D03*
X485000Y143650000D03*
D11*
X6500000Y133875000D03*
X6500000Y135750000D03*
D22*
X-9650000Y129000000D03*
X-7750000Y129000000D03*
D11*
X11500000Y142562500D03*
X11500000Y144437500D03*
D16*
X16500000Y2500000D03*
X16500000Y4075000D03*
D20*
X-485000Y144750000D03*
X485000Y144750000D03*
D28*
X-1000000Y137075000D03*
X-1000000Y132925000D03*
D13*
X7485000Y144950000D03*
X6515000Y144950000D03*
D20*
X3015000Y144950000D03*
X3985000Y144950000D03*
D29*
X5930000Y140650000D03*
X5930000Y142350000D03*
X4570000Y140650000D03*
X4570000Y142350000D03*
D30*
X7812500Y139595000D03*
X7812500Y140865000D03*
X7812500Y142135000D03*
X7812500Y143405000D03*
X2687500Y143405000D03*
X2687500Y142135000D03*
X2687500Y140865000D03*
X2687500Y139595000D03*
D24*
X-9000000Y131980000D03*
X-9000000Y133000000D03*
D25*
X12000000Y123597400D03*
X12000000Y119000000D03*
D21*
X-21050000Y126000000D03*
X-22950000Y126000000D03*
M02*
