M48
INCH,TZ
T1C0.0118
T2C0.0118
T3C0.0315
T4C0.0354
T5C0.0394
T6C0.0591
%
G90
G05
T1
X-10799Y9902
X-10799Y8661
X-10236Y40157
X-10039Y40551
X-9665Y50394
X-9665Y50000
X-9665Y49606
X-9449Y52854
X-9449Y52362
X-9055Y52854
X-9055Y52362
X-8366Y52854
X-8268Y1575
X-6701Y51969
X-6299Y52756
X-5906Y52756
X-5512Y52756
X-4724Y52756
X-4724Y52461
X-4724Y49606
X-4429Y52461
X-3543Y52756
X-2756Y40157
X-2559Y50787
X-2559Y50000
X-2559Y40551
X-2559Y3740
X-2559Y1969
X-2236Y50780
X-2236Y49992
X-1969Y54528
X-1969Y984
X-1772Y8268
X-1378Y7677
X-1378Y7087
X-787Y984
X0Y1772
X787Y984
X1181Y54134
X1378Y8268
X1378Y7677
X1575Y50591
X1772Y53937
X1772Y47259
X1969Y984
X2067Y57087
X2067Y50591
X2165Y47259
X2559Y53937
X2559Y50591
X2756Y49862
X3346Y53543
X3445Y7087
X3445Y6201
X3445Y4528
X3543Y48819
X3543Y48524
X3937Y53543
X3937Y48819
X3937Y48524
X4528Y57382
X4528Y54232
X4528Y53543
X5118Y2953
X5512Y57382
X5512Y54232
X5512Y48819
X5512Y48524
X5512Y5906
X5512Y4921
X5856Y46211
X5906Y48819
X5906Y48524
X6496Y57382
X6496Y54232
X7244Y29370
X7776Y48130
X8327Y2953
T2
X-4724Y52087
X-4724Y51654
X1811Y56476
X1811Y55965
X1811Y55453
X1811Y54941
X2323Y56476
X2323Y55965
X2323Y55453
X2323Y54941
T3
X-1181Y47642
X-394Y47642
X394Y47642
X1181Y47642
T5
X-11024Y57480
X-10024Y57480
X-2854Y48259
X-2854Y47259
X2854Y48259
X2854Y47259
X10024Y57480
X11024Y57480
T6
X-10886Y42741
X-10886Y36048
X-10886Y29355
X-10886Y22662
X-10886Y15969
X-10886Y9276
X10886Y42741
X10886Y36048
X10886Y29355
X10886Y22662
X10886Y15969
X10886Y9276
T4
G00X-433Y5315
M15
G01X433Y5315
M16
G05
G00X433Y2953
M15
G01X-433Y2953
M16
G05
G00X1831Y4665
M15
G01X1831Y3996
M16
G05
M30
