G04 #@! TF.GenerationSoftware,KiCad,Pcbnew,8.0.8*
G04 #@! TF.CreationDate,2025-02-18T17:40:16+00:00*
G04 #@! TF.ProjectId,NB3_charger,4e42335f-6368-4617-9267-65722e6b6963,0.0.0*
G04 #@! TF.SameCoordinates,PX67794f8PYa78cb34*
G04 #@! TF.FileFunction,Copper,L2,Bot*
G04 #@! TF.FilePolarity,Positive*
%FSLAX46Y46*%
G04 Gerber Fmt 4.6, Leading zero omitted, Abs format (unit mm)*
G04 Created by KiCad (PCBNEW 8.0.8) date 2025-02-18 17:40:16*
%MOMM*%
%LPD*%
G01*
G04 APERTURE LIST*
G04 #@! TA.AperFunction,ComponentPad*
%ADD10C,2.300000*%
G04 #@! TD*
G04 #@! TA.AperFunction,ComponentPad*
%ADD11R,1.700000X1.700000*%
G04 #@! TD*
G04 #@! TA.AperFunction,ComponentPad*
%ADD12O,1.700000X1.700000*%
G04 #@! TD*
G04 #@! TA.AperFunction,WasherPad*
%ADD13C,4.500000*%
G04 #@! TD*
G04 #@! TA.AperFunction,ComponentPad*
%ADD14O,3.800000X1.500000*%
G04 #@! TD*
G04 #@! TA.AperFunction,ComponentPad*
%ADD15O,1.500000X3.400000*%
G04 #@! TD*
G04 #@! TA.AperFunction,ComponentPad*
%ADD16C,0.500000*%
G04 #@! TD*
G04 #@! TA.AperFunction,SMDPad,CuDef*
%ADD17R,1.800000X4.400000*%
G04 #@! TD*
G04 #@! TA.AperFunction,ComponentPad*
%ADD18R,1.308000X1.308000*%
G04 #@! TD*
G04 #@! TA.AperFunction,ComponentPad*
%ADD19C,1.308000*%
G04 #@! TD*
G04 #@! TA.AperFunction,ViaPad*
%ADD20C,0.600000*%
G04 #@! TD*
G04 #@! TA.AperFunction,Conductor*
%ADD21C,0.150000*%
G04 #@! TD*
G04 #@! TA.AperFunction,Conductor*
%ADD22C,3.000000*%
G04 #@! TD*
G04 #@! TA.AperFunction,Conductor*
%ADD23C,1.000000*%
G04 #@! TD*
G04 #@! TA.AperFunction,Conductor*
%ADD24C,0.250000*%
G04 #@! TD*
G04 APERTURE END LIST*
D10*
X-27649987Y108561754D03*
X27649987Y108561754D03*
D11*
X-25460000Y146000000D03*
D12*
X-28000000Y146000000D03*
D11*
X7250000Y120036754D03*
D12*
X7250000Y122576754D03*
D10*
X-27649987Y40561754D03*
X27649987Y40561754D03*
D13*
X24500000Y121061754D03*
X-24500000Y4561754D03*
D11*
X-7250000Y120036754D03*
D12*
X-7250000Y122576754D03*
D10*
X-27649987Y74561754D03*
X27649987Y74561754D03*
D14*
X0Y13500254D03*
X0Y7500000D03*
D15*
X4650750Y11000127D03*
D10*
X27649987Y91561754D03*
X-27649987Y91561754D03*
D11*
X25460000Y146000000D03*
D12*
X28000000Y146000000D03*
D10*
X27649987Y23561754D03*
X-27649987Y23561754D03*
D13*
X-24500000Y121061754D03*
D16*
X-12000000Y131200000D03*
X-12000000Y132300000D03*
D13*
X24500000Y4561754D03*
D16*
X5900000Y139550000D03*
X5900000Y140850000D03*
X5900000Y142150000D03*
X5900000Y143450000D03*
D17*
X5250000Y141500000D03*
D16*
X4600000Y139550000D03*
X4600000Y140850000D03*
X4600000Y142150000D03*
X4600000Y143450000D03*
D10*
X27649987Y57561754D03*
X-27649987Y57561754D03*
D18*
X3000000Y121011754D03*
D19*
X1000000Y121011754D03*
X-1000000Y121011754D03*
X-3000000Y121011754D03*
D20*
X-6500000Y129000000D03*
X-6500000Y127000000D03*
X-14000000Y134000000D03*
X-12000000Y134000000D03*
X11500000Y136000000D03*
X5500000Y120036754D03*
X2000000Y2500000D03*
X-12000000Y133250000D03*
X16500000Y137750000D03*
X6500000Y128500000D03*
X7000000Y126650000D03*
X-24550000Y127000000D03*
X-5000000Y2500000D03*
X-24550000Y128000000D03*
X-24550000Y126000000D03*
X4500000Y120036754D03*
X11500000Y145750000D03*
X5250000Y145000000D03*
X4500000Y137000000D03*
X16500000Y145750000D03*
X-5680000Y128980000D03*
X-21000000Y4000000D03*
X5250000Y128500000D03*
X-27430000Y25150000D03*
X-2000000Y2500000D03*
X4000000Y128500000D03*
X0Y4500000D03*
X-27430000Y22000000D03*
X-11250000Y133250000D03*
X5000000Y2500000D03*
X11500000Y137750000D03*
X-15000000Y134000000D03*
X8500000Y136000000D03*
X18400000Y74600000D03*
X-5680000Y126980000D03*
X6500000Y137000000D03*
X-16000000Y134000000D03*
X14000000Y137750000D03*
X-9000000Y134000000D03*
X10000000Y136000000D03*
X14000000Y145750000D03*
X3000000Y137500000D03*
X-5000000Y138500000D03*
X8750000Y18000000D03*
X-6500000Y9500000D03*
X-3500000Y18000000D03*
X19750000Y122250000D03*
X14875000Y117375000D03*
X-6500000Y5000000D03*
X-24000000Y134250000D03*
X14000000Y124000000D03*
X9000000Y123250000D03*
X10000000Y123250000D03*
X15000000Y123250000D03*
X14000000Y123250000D03*
X9000000Y124000000D03*
X-24000000Y133000000D03*
X-21250000Y134250000D03*
X15000000Y124000000D03*
X10000000Y124000000D03*
X-23000000Y133000000D03*
X-23000000Y134250000D03*
X-12000000Y126000000D03*
X-17020000Y132000000D03*
X14000000Y12500000D03*
X14000000Y15000000D03*
X3500000Y19500000D03*
X-3500000Y19500000D03*
X-6500000Y103000000D03*
X-25500000Y103000000D03*
X-26000000Y102000000D03*
X-4500000Y21000000D03*
X8750000Y15750000D03*
X3500000Y21000000D03*
X-7000000Y102000000D03*
X8750000Y11500000D03*
X13000000Y7500000D03*
X21150000Y7500000D03*
D21*
X-5000000Y138000000D02*
X-4500000Y137500000D01*
X-4500000Y137500000D02*
X3000000Y137500000D01*
X-5000000Y138500000D02*
X-5000000Y138000000D01*
X-3500000Y18000000D02*
X8750000Y18000000D01*
X-6500000Y5000000D02*
X-6500000Y9500000D01*
X14875000Y117375000D02*
X19750000Y122250000D01*
D22*
X7250000Y122576754D02*
X4576754Y125250000D01*
X-13326754Y122576754D02*
X-7250000Y122576754D01*
D23*
X-23000000Y132900000D02*
X-23000000Y132250000D01*
X-23000000Y133700000D02*
X-23000000Y134250000D01*
X-23000000Y133500000D02*
X-23000000Y133700000D01*
X-23000000Y132900000D02*
X-23000000Y133500000D01*
D22*
X-4576754Y125250000D02*
X-7250000Y122576754D01*
X4576754Y125250000D02*
X-4576754Y125250000D01*
X-23000000Y132250000D02*
X-13326754Y122576754D01*
D21*
X-12000000Y126500000D02*
X-17020000Y131520000D01*
X-17020000Y131520000D02*
X-17020000Y132000000D01*
X-12000000Y126000000D02*
X-12000000Y126500000D01*
X3500000Y19500000D02*
X-3500000Y19500000D01*
X14000000Y12500000D02*
X14000000Y15000000D01*
X-6500000Y103000000D02*
X-25500000Y103000000D01*
X-7000000Y102000000D02*
X-26000000Y102000000D01*
X3500000Y21000000D02*
X-4500000Y21000000D01*
D24*
X8750000Y11500000D02*
X8750000Y15750000D01*
X13000000Y7500000D02*
X21150000Y7500000D01*
G04 #@! TA.AperFunction,Conductor*
G36*
X-20984323Y134980315D02*
G01*
X-20963681Y134963681D01*
X-20536319Y134536319D01*
X-20502834Y134474996D01*
X-20500000Y134448638D01*
X-20500000Y132624000D01*
X-20519685Y132556961D01*
X-20572489Y132511206D01*
X-20624000Y132500000D01*
X-24376000Y132500000D01*
X-24443039Y132519685D01*
X-24488794Y132572489D01*
X-24500000Y132624000D01*
X-24500000Y134448638D01*
X-24480315Y134515677D01*
X-24463681Y134536319D01*
X-24036319Y134963681D01*
X-23974996Y134997166D01*
X-23948638Y135000000D01*
X-21051362Y135000000D01*
X-20984323Y134980315D01*
G37*
G04 #@! TD.AperFunction*
G04 #@! TA.AperFunction,Conductor*
G36*
X15543039Y124730315D02*
G01*
X15588794Y124677511D01*
X15600000Y124626000D01*
X15600000Y122624000D01*
X15580315Y122556961D01*
X15527511Y122511206D01*
X15476000Y122500000D01*
X7747072Y122500000D01*
X7750000Y122510928D01*
X7750000Y122642580D01*
X7715925Y122769747D01*
X7683012Y122826754D01*
X8580636Y122826754D01*
X8580635Y122826755D01*
X8523432Y123040241D01*
X8523429Y123040247D01*
X8423600Y123254332D01*
X8423599Y123254334D01*
X8288113Y123447828D01*
X8288108Y123447834D01*
X8121082Y123614860D01*
X7927578Y123750355D01*
X7713492Y123850184D01*
X7713486Y123850187D01*
X7500000Y123907390D01*
X7500000Y123009766D01*
X7442993Y123042679D01*
X7315826Y123076754D01*
X7184174Y123076754D01*
X7057007Y123042679D01*
X7000000Y123009766D01*
X7000000Y123907390D01*
X6999999Y123907390D01*
X6786513Y123850187D01*
X6786502Y123850183D01*
X6676404Y123798843D01*
X6607327Y123788351D01*
X6543543Y123816871D01*
X6505304Y123875348D01*
X6500000Y123911225D01*
X6500000Y124626000D01*
X6519685Y124693039D01*
X6572489Y124738794D01*
X6624000Y124750000D01*
X15476000Y124750000D01*
X15543039Y124730315D01*
G37*
G04 #@! TD.AperFunction*
G04 #@! TA.AperFunction,Conductor*
G36*
X31515677Y149480315D02*
G01*
X31536319Y149463681D01*
X31963681Y149036319D01*
X31997166Y148974996D01*
X32000000Y148948638D01*
X32000000Y1051362D01*
X31980315Y984323D01*
X31963681Y963681D01*
X31536319Y536319D01*
X31474996Y502834D01*
X31448638Y500000D01*
X-31448638Y500000D01*
X-31515677Y519685D01*
X-31536319Y536319D01*
X-31963681Y963681D01*
X-31997166Y1025004D01*
X-32000000Y1051362D01*
X-32000000Y4561760D01*
X-27055543Y4561760D01*
X-27055543Y4561749D01*
X-27035394Y4241471D01*
X-27035393Y4241464D01*
X-26975255Y3926212D01*
X-26876084Y3620995D01*
X-26876082Y3620990D01*
X-26739442Y3330616D01*
X-26739438Y3330610D01*
X-26567480Y3059646D01*
X-26567478Y3059643D01*
X-26362913Y2812366D01*
X-26128966Y2592676D01*
X-26128956Y2592668D01*
X-25869340Y2404046D01*
X-25869334Y2404043D01*
X-25869328Y2404038D01*
X-25588097Y2249430D01*
X-25289706Y2131288D01*
X-25289707Y2131288D01*
X-24978865Y2051478D01*
X-24978861Y2051477D01*
X-24912065Y2043039D01*
X-24660476Y2011255D01*
X-24660467Y2011255D01*
X-24660464Y2011254D01*
X-24660462Y2011254D01*
X-24339538Y2011254D01*
X-24339536Y2011254D01*
X-24339533Y2011255D01*
X-24339525Y2011255D01*
X-24149537Y2035257D01*
X-24021139Y2051477D01*
X-23710294Y2131288D01*
X-23411903Y2249430D01*
X-23130672Y2404038D01*
X-22871036Y2592674D01*
X-22637089Y2812364D01*
X-22432522Y3059644D01*
X-22260561Y3330612D01*
X-22123916Y3620996D01*
X-22024744Y3926216D01*
X-21964608Y4241460D01*
X-21954991Y4394318D01*
X-21944457Y4561749D01*
X-21944457Y4561760D01*
X-21964607Y4882038D01*
X-21964608Y4882045D01*
X-21964608Y4882048D01*
X-22024744Y5197292D01*
X-22123916Y5502512D01*
X-22136819Y5529933D01*
X-22260559Y5792893D01*
X-22260563Y5792899D01*
X-22432521Y6063863D01*
X-22432523Y6063866D01*
X-22637088Y6311143D01*
X-22871035Y6530833D01*
X-22871045Y6530841D01*
X-23130661Y6719463D01*
X-23130679Y6719474D01*
X-23411904Y6874079D01*
X-23411907Y6874080D01*
X-23617535Y6955494D01*
X-23710294Y6992220D01*
X-23710296Y6992221D01*
X-23710294Y6992221D01*
X-24021136Y7072031D01*
X-24021149Y7072033D01*
X-24339525Y7112254D01*
X-24339536Y7112254D01*
X-24660464Y7112254D01*
X-24660476Y7112254D01*
X-24978852Y7072033D01*
X-24978865Y7072031D01*
X-25289706Y6992221D01*
X-25588094Y6874080D01*
X-25588097Y6874079D01*
X-25869322Y6719474D01*
X-25869340Y6719463D01*
X-26128956Y6530841D01*
X-26128966Y6530833D01*
X-26362913Y6311143D01*
X-26567478Y6063866D01*
X-26567480Y6063863D01*
X-26739438Y5792899D01*
X-26739442Y5792893D01*
X-26876082Y5502519D01*
X-26876084Y5502514D01*
X-26975255Y5197297D01*
X-27035393Y4882045D01*
X-27035394Y4882038D01*
X-27055543Y4561760D01*
X-32000000Y4561760D01*
X-32000000Y9500002D01*
X-7105682Y9500002D01*
X-7105682Y9499999D01*
X-7085045Y9343240D01*
X-7085044Y9343238D01*
X-7024536Y9197158D01*
X-6928285Y9071721D01*
X-6928284Y9071720D01*
X-6928282Y9071718D01*
X-6924018Y9068446D01*
X-6882813Y9012022D01*
X-6875500Y8970068D01*
X-6875500Y5529933D01*
X-6895185Y5462894D01*
X-6924012Y5431559D01*
X-6928279Y5428285D01*
X-6928281Y5428284D01*
X-6928282Y5428282D01*
X-7000473Y5334202D01*
X-7024537Y5302840D01*
X-7085044Y5156763D01*
X-7085045Y5156761D01*
X-7105682Y5000002D01*
X-7105682Y4999999D01*
X-7085045Y4843240D01*
X-7085044Y4843238D01*
X-7024536Y4697159D01*
X-6928282Y4571718D01*
X-6802841Y4475464D01*
X-6656762Y4414956D01*
X-6578381Y4404637D01*
X-6500001Y4394318D01*
X-6500000Y4394318D01*
X-6499999Y4394318D01*
X-6447746Y4401198D01*
X-6343238Y4414956D01*
X-6197159Y4475464D01*
X-6084696Y4561760D01*
X21944457Y4561760D01*
X21944457Y4561749D01*
X21964606Y4241471D01*
X21964607Y4241464D01*
X22024745Y3926212D01*
X22123916Y3620995D01*
X22123918Y3620990D01*
X22260558Y3330616D01*
X22260562Y3330610D01*
X22432520Y3059646D01*
X22432522Y3059643D01*
X22637087Y2812366D01*
X22871034Y2592676D01*
X22871044Y2592668D01*
X23130660Y2404046D01*
X23130666Y2404043D01*
X23130672Y2404038D01*
X23411903Y2249430D01*
X23710294Y2131288D01*
X23710293Y2131288D01*
X24021135Y2051478D01*
X24021139Y2051477D01*
X24087935Y2043039D01*
X24339524Y2011255D01*
X24339533Y2011255D01*
X24339536Y2011254D01*
X24339538Y2011254D01*
X24660462Y2011254D01*
X24660464Y2011254D01*
X24660467Y2011255D01*
X24660475Y2011255D01*
X24850463Y2035257D01*
X24978861Y2051477D01*
X25289706Y2131288D01*
X25588097Y2249430D01*
X25869328Y2404038D01*
X26128964Y2592674D01*
X26362911Y2812364D01*
X26567478Y3059644D01*
X26739439Y3330612D01*
X26876084Y3620996D01*
X26975256Y3926216D01*
X27035392Y4241460D01*
X27045009Y4394318D01*
X27055543Y4561749D01*
X27055543Y4561760D01*
X27035393Y4882038D01*
X27035392Y4882045D01*
X27035392Y4882048D01*
X26975256Y5197292D01*
X26876084Y5502512D01*
X26863181Y5529933D01*
X26739441Y5792893D01*
X26739437Y5792899D01*
X26567479Y6063863D01*
X26567477Y6063866D01*
X26362912Y6311143D01*
X26128965Y6530833D01*
X26128955Y6530841D01*
X25869339Y6719463D01*
X25869321Y6719474D01*
X25588096Y6874079D01*
X25588093Y6874080D01*
X25382465Y6955494D01*
X25289706Y6992220D01*
X25289704Y6992221D01*
X25289706Y6992221D01*
X24978864Y7072031D01*
X24978851Y7072033D01*
X24660475Y7112254D01*
X24660464Y7112254D01*
X24339536Y7112254D01*
X24339524Y7112254D01*
X24021148Y7072033D01*
X24021135Y7072031D01*
X23710294Y6992221D01*
X23411906Y6874080D01*
X23411903Y6874079D01*
X23130678Y6719474D01*
X23130660Y6719463D01*
X22871044Y6530841D01*
X22871034Y6530833D01*
X22637087Y6311143D01*
X22432522Y6063866D01*
X22432520Y6063863D01*
X22260562Y5792899D01*
X22260558Y5792893D01*
X22123918Y5502519D01*
X22123916Y5502514D01*
X22024745Y5197297D01*
X21964607Y4882045D01*
X21964606Y4882038D01*
X21944457Y4561760D01*
X-6084696Y4561760D01*
X-6071718Y4571718D01*
X-5975464Y4697159D01*
X-5914956Y4843238D01*
X-5894318Y5000000D01*
X-5914956Y5156762D01*
X-5975464Y5302841D01*
X-6071718Y5428282D01*
X-6072226Y5428672D01*
X-6075988Y5431559D01*
X-6117190Y5487987D01*
X-6124500Y5529933D01*
X-6124500Y7750000D01*
X-2375984Y7750000D01*
X-1475368Y7750000D01*
X-1519421Y7673698D01*
X-1550089Y7559245D01*
X-1550089Y7440755D01*
X-1519421Y7326302D01*
X-1475368Y7250000D01*
X-2375984Y7250000D01*
X-2369219Y7207284D01*
X-2308419Y7020163D01*
X-2219096Y6844857D01*
X-2103445Y6685679D01*
X-1964322Y6546556D01*
X-1805144Y6430905D01*
X-1629836Y6341582D01*
X-1442706Y6280779D01*
X-1248382Y6250000D01*
X-250000Y6250000D01*
X-250000Y7049987D01*
X250000Y7049987D01*
X250000Y6250000D01*
X1248382Y6250000D01*
X1442705Y6280779D01*
X1629835Y6341582D01*
X1805143Y6430905D01*
X1964321Y6546556D01*
X2103444Y6685679D01*
X2219095Y6844857D01*
X2308418Y7020163D01*
X2369218Y7207284D01*
X2375984Y7250000D01*
X1475368Y7250000D01*
X1519421Y7326302D01*
X1550089Y7440755D01*
X1550089Y7500002D01*
X12394318Y7500002D01*
X12394318Y7499999D01*
X12414955Y7343240D01*
X12414956Y7343238D01*
X12453576Y7250000D01*
X12475464Y7197159D01*
X12571718Y7071718D01*
X12697159Y6975464D01*
X12843238Y6914956D01*
X12921619Y6904637D01*
X12999999Y6894318D01*
X13000000Y6894318D01*
X13000001Y6894318D01*
X13052254Y6901198D01*
X13156762Y6914956D01*
X13302841Y6975464D01*
X13324679Y6992221D01*
X13398515Y7048876D01*
X13463685Y7074070D01*
X13474001Y7074500D01*
X20675999Y7074500D01*
X20743038Y7054815D01*
X20751485Y7048876D01*
X20847157Y6975465D01*
X20847158Y6975465D01*
X20847159Y6975464D01*
X20993238Y6914956D01*
X21071619Y6904637D01*
X21149999Y6894318D01*
X21150000Y6894318D01*
X21150001Y6894318D01*
X21202254Y6901198D01*
X21306762Y6914956D01*
X21452841Y6975464D01*
X21578282Y7071718D01*
X21674536Y7197159D01*
X21735044Y7343238D01*
X21755682Y7500000D01*
X21735044Y7656762D01*
X21674536Y7802841D01*
X21578282Y7928282D01*
X21452841Y8024536D01*
X21306762Y8085044D01*
X21306760Y8085045D01*
X21150001Y8105682D01*
X21149999Y8105682D01*
X20993239Y8085045D01*
X20993237Y8085044D01*
X20847157Y8024536D01*
X20751485Y7951124D01*
X20686315Y7925930D01*
X20675999Y7925500D01*
X13474001Y7925500D01*
X13406962Y7945185D01*
X13398515Y7951124D01*
X13302842Y8024536D01*
X13156762Y8085044D01*
X13156760Y8085045D01*
X13000001Y8105682D01*
X12999999Y8105682D01*
X12843239Y8085045D01*
X12843237Y8085044D01*
X12697160Y8024537D01*
X12571718Y7928282D01*
X12475463Y7802840D01*
X12414956Y7656763D01*
X12414955Y7656761D01*
X12394318Y7500002D01*
X1550089Y7500002D01*
X1550089Y7559245D01*
X1519421Y7673698D01*
X1475368Y7750000D01*
X2375984Y7750000D01*
X2369218Y7792717D01*
X2308418Y7979838D01*
X2219095Y8155144D01*
X2103444Y8314322D01*
X1964321Y8453445D01*
X1805143Y8569096D01*
X1629835Y8658419D01*
X1442705Y8719222D01*
X1248382Y8750000D01*
X250000Y8750000D01*
X250000Y7950013D01*
X-250000Y7950013D01*
X-250000Y8750000D01*
X-1248382Y8750000D01*
X-1442706Y8719222D01*
X-1629836Y8658419D01*
X-1805144Y8569096D01*
X-1964322Y8453445D01*
X-2103445Y8314322D01*
X-2219096Y8155144D01*
X-2308419Y7979838D01*
X-2369219Y7792717D01*
X-2375984Y7750000D01*
X-6124500Y7750000D01*
X-6124500Y8970068D01*
X-6104815Y9037107D01*
X-6075985Y9068445D01*
X-6071718Y9071718D01*
X-5975464Y9197159D01*
X-5914956Y9343238D01*
X-5894318Y9500000D01*
X-5914956Y9656762D01*
X-5975464Y9802841D01*
X-6071718Y9928282D01*
X-6197159Y10024536D01*
X-6343238Y10085044D01*
X-6343240Y10085045D01*
X-6499999Y10105682D01*
X-6500001Y10105682D01*
X-6656761Y10085045D01*
X-6656763Y10085044D01*
X-6802840Y10024537D01*
X-6928282Y9928282D01*
X-7024537Y9802840D01*
X-7085044Y9656763D01*
X-7085045Y9656761D01*
X-7105682Y9500002D01*
X-32000000Y9500002D01*
X-32000000Y12048510D01*
X3400750Y12048510D01*
X3400750Y11250127D01*
X4200737Y11250127D01*
X4200737Y10750127D01*
X3400750Y10750127D01*
X3400750Y9951745D01*
X3431528Y9757422D01*
X3492331Y9570292D01*
X3581654Y9394984D01*
X3697305Y9235806D01*
X3836428Y9096683D01*
X3995606Y8981032D01*
X4170912Y8891709D01*
X4358033Y8830909D01*
X4400750Y8824143D01*
X4400750Y9774949D01*
X4477052Y9730896D01*
X4591505Y9700228D01*
X4709995Y9700228D01*
X4824448Y9730896D01*
X4900750Y9774949D01*
X4900750Y8824144D01*
X4943466Y8830909D01*
X5130587Y8891709D01*
X5305893Y8981032D01*
X5465071Y9096683D01*
X5604194Y9235806D01*
X5719845Y9394984D01*
X5809168Y9570292D01*
X5869971Y9757422D01*
X5900750Y9951745D01*
X5900750Y10750127D01*
X5100763Y10750127D01*
X5100763Y11250127D01*
X5900750Y11250127D01*
X5900750Y12048510D01*
X5869971Y12242833D01*
X5809168Y12429963D01*
X5719845Y12605271D01*
X5604194Y12764449D01*
X5465071Y12903572D01*
X5305893Y13019223D01*
X5130585Y13108546D01*
X4943455Y13169349D01*
X4900750Y13176113D01*
X4900750Y12225306D01*
X4824448Y12269358D01*
X4709995Y12300026D01*
X4591505Y12300026D01*
X4477052Y12269358D01*
X4400750Y12225306D01*
X4400750Y13176113D01*
X4400749Y13176113D01*
X4358044Y13169349D01*
X4170914Y13108546D01*
X3995606Y13019223D01*
X3836428Y12903572D01*
X3697305Y12764449D01*
X3581654Y12605271D01*
X3492331Y12429963D01*
X3431528Y12242833D01*
X3400750Y12048510D01*
X-32000000Y12048510D01*
X-32000000Y13603724D01*
X-2200500Y13603724D01*
X-2200500Y13396785D01*
X-2160132Y13193842D01*
X-2160130Y13193834D01*
X-2080941Y13002656D01*
X-2058308Y12968783D01*
X-1965976Y12830597D01*
X-1819658Y12684279D01*
X-1819655Y12684277D01*
X-1647598Y12569313D01*
X-1456420Y12490124D01*
X-1253470Y12449755D01*
X-1253466Y12449754D01*
X-1253465Y12449754D01*
X1253466Y12449754D01*
X1253467Y12449755D01*
X1456420Y12490124D01*
X1647598Y12569313D01*
X1819655Y12684277D01*
X1965977Y12830599D01*
X2080941Y13002656D01*
X2160130Y13193834D01*
X2200500Y13396789D01*
X2200500Y13603719D01*
X2160130Y13806674D01*
X2080941Y13997852D01*
X1965977Y14169909D01*
X1965975Y14169912D01*
X1819657Y14316230D01*
X1733626Y14373713D01*
X1647598Y14431195D01*
X1456420Y14510384D01*
X1456412Y14510386D01*
X1253469Y14550754D01*
X1253465Y14550754D01*
X-1253465Y14550754D01*
X-1253470Y14550754D01*
X-1456413Y14510386D01*
X-1456421Y14510384D01*
X-1647597Y14431196D01*
X-1819658Y14316230D01*
X-1965976Y14169912D01*
X-2080942Y13997851D01*
X-2160130Y13806675D01*
X-2160132Y13806667D01*
X-2200500Y13603724D01*
X-32000000Y13603724D01*
X-32000000Y15750002D01*
X8144318Y15750002D01*
X8144318Y15749999D01*
X8164955Y15593240D01*
X8164956Y15593238D01*
X8225464Y15447159D01*
X8298877Y15351485D01*
X8324070Y15286319D01*
X8324500Y15276001D01*
X8324500Y11974001D01*
X8304815Y11906962D01*
X8298876Y11898515D01*
X8225464Y11802843D01*
X8164956Y11656763D01*
X8164955Y11656761D01*
X8144318Y11500002D01*
X8144318Y11499999D01*
X8164955Y11343240D01*
X8164956Y11343238D01*
X8225464Y11197159D01*
X8321718Y11071718D01*
X8447159Y10975464D01*
X8593238Y10914956D01*
X8671619Y10904637D01*
X8749999Y10894318D01*
X8750000Y10894318D01*
X8750001Y10894318D01*
X8802254Y10901198D01*
X8906762Y10914956D01*
X9052841Y10975464D01*
X9178282Y11071718D01*
X9274536Y11197159D01*
X9335044Y11343238D01*
X9355682Y11500000D01*
X9335044Y11656762D01*
X9274536Y11802841D01*
X9274535Y11802842D01*
X9274535Y11802843D01*
X9201124Y11898515D01*
X9175930Y11963685D01*
X9175500Y11974001D01*
X9175500Y15000002D01*
X13394318Y15000002D01*
X13394318Y14999999D01*
X13414955Y14843240D01*
X13414956Y14843238D01*
X13475464Y14697158D01*
X13571715Y14571721D01*
X13571716Y14571720D01*
X13571718Y14571718D01*
X13575982Y14568446D01*
X13617187Y14512022D01*
X13624500Y14470068D01*
X13624500Y13029933D01*
X13604815Y12962894D01*
X13575988Y12931559D01*
X13571721Y12928285D01*
X13571719Y12928284D01*
X13571718Y12928282D01*
X13499527Y12834202D01*
X13475463Y12802840D01*
X13414956Y12656763D01*
X13414955Y12656761D01*
X13394318Y12500002D01*
X13394318Y12499999D01*
X13414955Y12343240D01*
X13414956Y12343238D01*
X13475464Y12197159D01*
X13571718Y12071718D01*
X13697159Y11975464D01*
X13843238Y11914956D01*
X13886519Y11909258D01*
X13999999Y11894318D01*
X14000000Y11894318D01*
X14000001Y11894318D01*
X14052254Y11901198D01*
X14156762Y11914956D01*
X14302841Y11975464D01*
X14428282Y12071718D01*
X14524536Y12197159D01*
X14585044Y12343238D01*
X14605682Y12500000D01*
X14585044Y12656762D01*
X14524536Y12802841D01*
X14428282Y12928282D01*
X14427774Y12928672D01*
X14424012Y12931559D01*
X14382810Y12987987D01*
X14375500Y13029933D01*
X14375500Y14470068D01*
X14395185Y14537107D01*
X14424015Y14568445D01*
X14428282Y14571718D01*
X14524536Y14697159D01*
X14585044Y14843238D01*
X14605682Y15000000D01*
X14585044Y15156762D01*
X14524536Y15302841D01*
X14428282Y15428282D01*
X14302841Y15524536D01*
X14156762Y15585044D01*
X14156760Y15585045D01*
X14000001Y15605682D01*
X13999999Y15605682D01*
X13843239Y15585045D01*
X13843237Y15585044D01*
X13697160Y15524537D01*
X13571718Y15428282D01*
X13475463Y15302840D01*
X13414956Y15156763D01*
X13414955Y15156761D01*
X13394318Y15000002D01*
X9175500Y15000002D01*
X9175500Y15276001D01*
X9195185Y15343040D01*
X9201110Y15351469D01*
X9274536Y15447159D01*
X9335044Y15593238D01*
X9355682Y15750000D01*
X9335044Y15906762D01*
X9274536Y16052841D01*
X9178282Y16178282D01*
X9052841Y16274536D01*
X8906762Y16335044D01*
X8906760Y16335045D01*
X8750001Y16355682D01*
X8749999Y16355682D01*
X8593239Y16335045D01*
X8593237Y16335044D01*
X8447160Y16274537D01*
X8321718Y16178282D01*
X8225463Y16052840D01*
X8164956Y15906763D01*
X8164955Y15906761D01*
X8144318Y15750002D01*
X-32000000Y15750002D01*
X-32000000Y18000002D01*
X-4105682Y18000002D01*
X-4105682Y17999999D01*
X-4085045Y17843240D01*
X-4085044Y17843238D01*
X-4024536Y17697159D01*
X-3928282Y17571718D01*
X-3802841Y17475464D01*
X-3656762Y17414956D01*
X-3578381Y17404637D01*
X-3500001Y17394318D01*
X-3500000Y17394318D01*
X-3499999Y17394318D01*
X-3447746Y17401198D01*
X-3343238Y17414956D01*
X-3197159Y17475464D01*
X-3071718Y17571718D01*
X-3069510Y17574596D01*
X-3068441Y17575988D01*
X-3012013Y17617190D01*
X-2970067Y17624500D01*
X8220067Y17624500D01*
X8287106Y17604815D01*
X8318441Y17575988D01*
X8321328Y17572226D01*
X8321718Y17571718D01*
X8447159Y17475464D01*
X8593238Y17414956D01*
X8671619Y17404637D01*
X8749999Y17394318D01*
X8750000Y17394318D01*
X8750001Y17394318D01*
X8802254Y17401198D01*
X8906762Y17414956D01*
X9052841Y17475464D01*
X9178282Y17571718D01*
X9274536Y17697159D01*
X9335044Y17843238D01*
X9355682Y18000000D01*
X9335044Y18156762D01*
X9274536Y18302841D01*
X9178282Y18428282D01*
X9052841Y18524536D01*
X8906762Y18585044D01*
X8906760Y18585045D01*
X8750001Y18605682D01*
X8749999Y18605682D01*
X8593239Y18585045D01*
X8593237Y18585044D01*
X8447160Y18524537D01*
X8447159Y18524536D01*
X8321718Y18428282D01*
X8321716Y18428281D01*
X8321715Y18428279D01*
X8318441Y18424012D01*
X8262013Y18382810D01*
X8220067Y18375500D01*
X-2970067Y18375500D01*
X-3037106Y18395185D01*
X-3068441Y18424012D01*
X-3071716Y18428279D01*
X-3071718Y18428282D01*
X-3197159Y18524536D01*
X-3343238Y18585044D01*
X-3343240Y18585045D01*
X-3499999Y18605682D01*
X-3500001Y18605682D01*
X-3656761Y18585045D01*
X-3656763Y18585044D01*
X-3802840Y18524537D01*
X-3928282Y18428282D01*
X-4024537Y18302840D01*
X-4085044Y18156763D01*
X-4085045Y18156761D01*
X-4105682Y18000002D01*
X-32000000Y18000002D01*
X-32000000Y19500002D01*
X-4105682Y19500002D01*
X-4105682Y19499999D01*
X-4085045Y19343240D01*
X-4085044Y19343238D01*
X-4024536Y19197159D01*
X-3928282Y19071718D01*
X-3802841Y18975464D01*
X-3656762Y18914956D01*
X-3578381Y18904637D01*
X-3500001Y18894318D01*
X-3500000Y18894318D01*
X-3499999Y18894318D01*
X-3447746Y18901198D01*
X-3343238Y18914956D01*
X-3197159Y18975464D01*
X-3071718Y19071718D01*
X-3069510Y19074596D01*
X-3068441Y19075988D01*
X-3012013Y19117190D01*
X-2970067Y19124500D01*
X2970067Y19124500D01*
X3037106Y19104815D01*
X3068441Y19075988D01*
X3071328Y19072226D01*
X3071718Y19071718D01*
X3197159Y18975464D01*
X3343238Y18914956D01*
X3421619Y18904637D01*
X3499999Y18894318D01*
X3500000Y18894318D01*
X3500001Y18894318D01*
X3552254Y18901198D01*
X3656762Y18914956D01*
X3802841Y18975464D01*
X3928282Y19071718D01*
X4024536Y19197159D01*
X4085044Y19343238D01*
X4105682Y19500000D01*
X4085044Y19656762D01*
X4024536Y19802841D01*
X3928282Y19928282D01*
X3802841Y20024536D01*
X3656762Y20085044D01*
X3656760Y20085045D01*
X3500001Y20105682D01*
X3499999Y20105682D01*
X3343239Y20085045D01*
X3343237Y20085044D01*
X3197160Y20024537D01*
X3197159Y20024536D01*
X3071718Y19928282D01*
X3071716Y19928281D01*
X3071715Y19928279D01*
X3068441Y19924012D01*
X3012013Y19882810D01*
X2970067Y19875500D01*
X-2970067Y19875500D01*
X-3037106Y19895185D01*
X-3068441Y19924012D01*
X-3071716Y19928279D01*
X-3071718Y19928282D01*
X-3197159Y20024536D01*
X-3343238Y20085044D01*
X-3343240Y20085045D01*
X-3499999Y20105682D01*
X-3500001Y20105682D01*
X-3656761Y20085045D01*
X-3656763Y20085044D01*
X-3802840Y20024537D01*
X-3928282Y19928282D01*
X-4024537Y19802840D01*
X-4085044Y19656763D01*
X-4085045Y19656761D01*
X-4105682Y19500002D01*
X-32000000Y19500002D01*
X-32000000Y21000002D01*
X-5105682Y21000002D01*
X-5105682Y20999999D01*
X-5085045Y20843240D01*
X-5085044Y20843238D01*
X-5024536Y20697159D01*
X-4928282Y20571718D01*
X-4802841Y20475464D01*
X-4656762Y20414956D01*
X-4578381Y20404637D01*
X-4500001Y20394318D01*
X-4500000Y20394318D01*
X-4499999Y20394318D01*
X-4447746Y20401198D01*
X-4343238Y20414956D01*
X-4197159Y20475464D01*
X-4071718Y20571718D01*
X-4069510Y20574596D01*
X-4068441Y20575988D01*
X-4012013Y20617190D01*
X-3970067Y20624500D01*
X2970067Y20624500D01*
X3037106Y20604815D01*
X3068441Y20575988D01*
X3071328Y20572226D01*
X3071718Y20571718D01*
X3197159Y20475464D01*
X3343238Y20414956D01*
X3421619Y20404637D01*
X3499999Y20394318D01*
X3500000Y20394318D01*
X3500001Y20394318D01*
X3552254Y20401198D01*
X3656762Y20414956D01*
X3802841Y20475464D01*
X3928282Y20571718D01*
X4024536Y20697159D01*
X4085044Y20843238D01*
X4105682Y21000000D01*
X4085044Y21156762D01*
X4024536Y21302841D01*
X3928282Y21428282D01*
X3802841Y21524536D01*
X3656762Y21585044D01*
X3656760Y21585045D01*
X3500001Y21605682D01*
X3499999Y21605682D01*
X3343239Y21585045D01*
X3343237Y21585044D01*
X3197160Y21524537D01*
X3197159Y21524536D01*
X3071718Y21428282D01*
X3071716Y21428281D01*
X3071715Y21428279D01*
X3068441Y21424012D01*
X3012013Y21382810D01*
X2970067Y21375500D01*
X-3970067Y21375500D01*
X-4037106Y21395185D01*
X-4068441Y21424012D01*
X-4071716Y21428279D01*
X-4071718Y21428282D01*
X-4197159Y21524536D01*
X-4343238Y21585044D01*
X-4343240Y21585045D01*
X-4499999Y21605682D01*
X-4500001Y21605682D01*
X-4656761Y21585045D01*
X-4656763Y21585044D01*
X-4802840Y21524537D01*
X-4928282Y21428282D01*
X-5024537Y21302840D01*
X-5085044Y21156763D01*
X-5085045Y21156761D01*
X-5105682Y21000002D01*
X-32000000Y21000002D01*
X-32000000Y23561754D01*
X-29305089Y23561754D01*
X-29284713Y23302842D01*
X-29224086Y23050309D01*
X-29224081Y23050292D01*
X-29124697Y22810357D01*
X-29124695Y22810354D01*
X-28988994Y22588910D01*
X-28983186Y22582110D01*
X-28327576Y23237720D01*
X-28314640Y23206490D01*
X-28232560Y23083649D01*
X-28128092Y22979181D01*
X-28005251Y22897101D01*
X-27974023Y22884166D01*
X-28629632Y22228557D01*
X-28622832Y22222749D01*
X-28401388Y22087047D01*
X-28401385Y22087045D01*
X-28161450Y21987661D01*
X-28161433Y21987656D01*
X-27908899Y21927029D01*
X-27908900Y21927029D01*
X-27649987Y21906653D01*
X-27391075Y21927029D01*
X-27138542Y21987656D01*
X-27138525Y21987661D01*
X-26898590Y22087045D01*
X-26898587Y22087047D01*
X-26677146Y22222747D01*
X-26677136Y22222754D01*
X-26670344Y22228556D01*
X-26670344Y22228557D01*
X-27325953Y22884166D01*
X-27294723Y22897101D01*
X-27171882Y22979181D01*
X-27067414Y23083649D01*
X-26985334Y23206490D01*
X-26972399Y23237720D01*
X-26316790Y22582111D01*
X-26316789Y22582111D01*
X-26310987Y22588903D01*
X-26310980Y22588913D01*
X-26175280Y22810354D01*
X-26175278Y22810357D01*
X-26075894Y23050292D01*
X-26075889Y23050309D01*
X-26015262Y23302842D01*
X-25994886Y23561754D01*
X-25994886Y23561760D01*
X26194516Y23561760D01*
X26194516Y23561749D01*
X26214366Y23322195D01*
X26273376Y23089165D01*
X26369938Y22869025D01*
X26501414Y22667788D01*
X26501416Y22667785D01*
X26664223Y22490929D01*
X26664226Y22490927D01*
X26664229Y22490924D01*
X26853911Y22343288D01*
X26853917Y22343284D01*
X26853920Y22343282D01*
X27065331Y22228872D01*
X27082195Y22223083D01*
X27292686Y22150821D01*
X27292688Y22150821D01*
X27292690Y22150820D01*
X27529795Y22111254D01*
X27529796Y22111254D01*
X27770178Y22111254D01*
X27770179Y22111254D01*
X28007284Y22150820D01*
X28234643Y22228872D01*
X28446054Y22343282D01*
X28635751Y22490929D01*
X28798558Y22667785D01*
X28930036Y22869026D01*
X29026597Y23089163D01*
X29085607Y23322191D01*
X29105458Y23561754D01*
X29085607Y23801317D01*
X29026597Y24034345D01*
X28930036Y24254482D01*
X28798558Y24455723D01*
X28635751Y24632579D01*
X28635746Y24632583D01*
X28635744Y24632585D01*
X28446062Y24780221D01*
X28446056Y24780225D01*
X28234644Y24894636D01*
X28234639Y24894638D01*
X28007287Y24972688D01*
X27829455Y25002363D01*
X27770179Y25012254D01*
X27529795Y25012254D01*
X27482374Y25004341D01*
X27292686Y24972688D01*
X27065334Y24894638D01*
X27065329Y24894636D01*
X26853917Y24780225D01*
X26853911Y24780221D01*
X26664229Y24632585D01*
X26664226Y24632582D01*
X26501417Y24455725D01*
X26501414Y24455721D01*
X26369938Y24254484D01*
X26273376Y24034344D01*
X26214366Y23801314D01*
X26194516Y23561760D01*
X-25994886Y23561760D01*
X-26015262Y23820667D01*
X-26075889Y24073200D01*
X-26075894Y24073217D01*
X-26175278Y24313152D01*
X-26175280Y24313155D01*
X-26310982Y24534599D01*
X-26316790Y24541399D01*
X-26972399Y23885790D01*
X-26985334Y23917018D01*
X-27067414Y24039859D01*
X-27171882Y24144327D01*
X-27294723Y24226407D01*
X-27325953Y24239343D01*
X-26670343Y24894953D01*
X-26677143Y24900761D01*
X-26898587Y25036462D01*
X-26898590Y25036464D01*
X-27138525Y25135848D01*
X-27138542Y25135853D01*
X-27391076Y25196480D01*
X-27391075Y25196480D01*
X-27649987Y25216856D01*
X-27908900Y25196480D01*
X-28161433Y25135853D01*
X-28161450Y25135848D01*
X-28401385Y25036464D01*
X-28401388Y25036462D01*
X-28622830Y24900762D01*
X-28622831Y24900761D01*
X-28629632Y24894953D01*
X-27974022Y24239343D01*
X-28005251Y24226407D01*
X-28128092Y24144327D01*
X-28232560Y24039859D01*
X-28314640Y23917018D01*
X-28327576Y23885789D01*
X-28983186Y24541399D01*
X-28988994Y24534598D01*
X-28988995Y24534597D01*
X-29124695Y24313155D01*
X-29124697Y24313152D01*
X-29224081Y24073217D01*
X-29224086Y24073200D01*
X-29284713Y23820667D01*
X-29305089Y23561754D01*
X-32000000Y23561754D01*
X-32000000Y40561760D01*
X-29105458Y40561760D01*
X-29105458Y40561749D01*
X-29085608Y40322195D01*
X-29026598Y40089165D01*
X-28930036Y39869025D01*
X-28798560Y39667788D01*
X-28798558Y39667785D01*
X-28635751Y39490929D01*
X-28635748Y39490927D01*
X-28635745Y39490924D01*
X-28446063Y39343288D01*
X-28446057Y39343284D01*
X-28446054Y39343282D01*
X-28234643Y39228872D01*
X-28234640Y39228871D01*
X-28007288Y39150821D01*
X-28007286Y39150821D01*
X-28007284Y39150820D01*
X-27770179Y39111254D01*
X-27770178Y39111254D01*
X-27529796Y39111254D01*
X-27529795Y39111254D01*
X-27292690Y39150820D01*
X-27065331Y39228872D01*
X-26853920Y39343282D01*
X-26664223Y39490929D01*
X-26501416Y39667785D01*
X-26369938Y39869026D01*
X-26273377Y40089163D01*
X-26214367Y40322191D01*
X-26194516Y40561754D01*
X-26194516Y40561760D01*
X26194516Y40561760D01*
X26194516Y40561749D01*
X26214366Y40322195D01*
X26273376Y40089165D01*
X26369938Y39869025D01*
X26501414Y39667788D01*
X26501416Y39667785D01*
X26664223Y39490929D01*
X26664226Y39490927D01*
X26664229Y39490924D01*
X26853911Y39343288D01*
X26853917Y39343284D01*
X26853920Y39343282D01*
X27065331Y39228872D01*
X27065334Y39228871D01*
X27292686Y39150821D01*
X27292688Y39150821D01*
X27292690Y39150820D01*
X27529795Y39111254D01*
X27529796Y39111254D01*
X27770178Y39111254D01*
X27770179Y39111254D01*
X28007284Y39150820D01*
X28234643Y39228872D01*
X28446054Y39343282D01*
X28635751Y39490929D01*
X28798558Y39667785D01*
X28930036Y39869026D01*
X29026597Y40089163D01*
X29085607Y40322191D01*
X29105458Y40561754D01*
X29085607Y40801317D01*
X29026597Y41034345D01*
X28930036Y41254482D01*
X28798558Y41455723D01*
X28635751Y41632579D01*
X28635746Y41632583D01*
X28635744Y41632585D01*
X28446062Y41780221D01*
X28446056Y41780225D01*
X28234644Y41894636D01*
X28234639Y41894638D01*
X28007287Y41972688D01*
X27829455Y42002363D01*
X27770179Y42012254D01*
X27529795Y42012254D01*
X27482374Y42004341D01*
X27292686Y41972688D01*
X27065334Y41894638D01*
X27065329Y41894636D01*
X26853917Y41780225D01*
X26853911Y41780221D01*
X26664229Y41632585D01*
X26664226Y41632582D01*
X26501417Y41455725D01*
X26501414Y41455721D01*
X26369938Y41254484D01*
X26273376Y41034344D01*
X26214366Y40801314D01*
X26194516Y40561760D01*
X-26194516Y40561760D01*
X-26214367Y40801317D01*
X-26273377Y41034345D01*
X-26369938Y41254482D01*
X-26501416Y41455723D01*
X-26664223Y41632579D01*
X-26664228Y41632583D01*
X-26664230Y41632585D01*
X-26853912Y41780221D01*
X-26853918Y41780225D01*
X-27065330Y41894636D01*
X-27065335Y41894638D01*
X-27292687Y41972688D01*
X-27470519Y42002363D01*
X-27529795Y42012254D01*
X-27770179Y42012254D01*
X-27817600Y42004341D01*
X-28007288Y41972688D01*
X-28234640Y41894638D01*
X-28234645Y41894636D01*
X-28446057Y41780225D01*
X-28446063Y41780221D01*
X-28635745Y41632585D01*
X-28635748Y41632582D01*
X-28798557Y41455725D01*
X-28798560Y41455721D01*
X-28930036Y41254484D01*
X-29026598Y41034344D01*
X-29085608Y40801314D01*
X-29105458Y40561760D01*
X-32000000Y40561760D01*
X-32000000Y57561760D01*
X-29105458Y57561760D01*
X-29105458Y57561749D01*
X-29085608Y57322195D01*
X-29026598Y57089165D01*
X-28930036Y56869025D01*
X-28798560Y56667788D01*
X-28798558Y56667785D01*
X-28635751Y56490929D01*
X-28635748Y56490927D01*
X-28635745Y56490924D01*
X-28446063Y56343288D01*
X-28446057Y56343284D01*
X-28446054Y56343282D01*
X-28234643Y56228872D01*
X-28234640Y56228871D01*
X-28007288Y56150821D01*
X-28007286Y56150821D01*
X-28007284Y56150820D01*
X-27770179Y56111254D01*
X-27770178Y56111254D01*
X-27529796Y56111254D01*
X-27529795Y56111254D01*
X-27292690Y56150820D01*
X-27065331Y56228872D01*
X-26853920Y56343282D01*
X-26664223Y56490929D01*
X-26501416Y56667785D01*
X-26369938Y56869026D01*
X-26273377Y57089163D01*
X-26214367Y57322191D01*
X-26194516Y57561754D01*
X-26194516Y57561760D01*
X26194516Y57561760D01*
X26194516Y57561749D01*
X26214366Y57322195D01*
X26273376Y57089165D01*
X26369938Y56869025D01*
X26501414Y56667788D01*
X26501416Y56667785D01*
X26664223Y56490929D01*
X26664226Y56490927D01*
X26664229Y56490924D01*
X26853911Y56343288D01*
X26853917Y56343284D01*
X26853920Y56343282D01*
X27065331Y56228872D01*
X27065334Y56228871D01*
X27292686Y56150821D01*
X27292688Y56150821D01*
X27292690Y56150820D01*
X27529795Y56111254D01*
X27529796Y56111254D01*
X27770178Y56111254D01*
X27770179Y56111254D01*
X28007284Y56150820D01*
X28234643Y56228872D01*
X28446054Y56343282D01*
X28635751Y56490929D01*
X28798558Y56667785D01*
X28930036Y56869026D01*
X29026597Y57089163D01*
X29085607Y57322191D01*
X29105458Y57561754D01*
X29085607Y57801317D01*
X29026597Y58034345D01*
X28930036Y58254482D01*
X28798558Y58455723D01*
X28635751Y58632579D01*
X28635746Y58632583D01*
X28635744Y58632585D01*
X28446062Y58780221D01*
X28446056Y58780225D01*
X28234644Y58894636D01*
X28234639Y58894638D01*
X28007287Y58972688D01*
X27829455Y59002363D01*
X27770179Y59012254D01*
X27529795Y59012254D01*
X27482374Y59004341D01*
X27292686Y58972688D01*
X27065334Y58894638D01*
X27065329Y58894636D01*
X26853917Y58780225D01*
X26853911Y58780221D01*
X26664229Y58632585D01*
X26664226Y58632582D01*
X26501417Y58455725D01*
X26501414Y58455721D01*
X26369938Y58254484D01*
X26273376Y58034344D01*
X26214366Y57801314D01*
X26194516Y57561760D01*
X-26194516Y57561760D01*
X-26214367Y57801317D01*
X-26273377Y58034345D01*
X-26369938Y58254482D01*
X-26501416Y58455723D01*
X-26664223Y58632579D01*
X-26664228Y58632583D01*
X-26664230Y58632585D01*
X-26853912Y58780221D01*
X-26853918Y58780225D01*
X-27065330Y58894636D01*
X-27065335Y58894638D01*
X-27292687Y58972688D01*
X-27470519Y59002363D01*
X-27529795Y59012254D01*
X-27770179Y59012254D01*
X-27817600Y59004341D01*
X-28007288Y58972688D01*
X-28234640Y58894638D01*
X-28234645Y58894636D01*
X-28446057Y58780225D01*
X-28446063Y58780221D01*
X-28635745Y58632585D01*
X-28635748Y58632582D01*
X-28798557Y58455725D01*
X-28798560Y58455721D01*
X-28930036Y58254484D01*
X-29026598Y58034344D01*
X-29085608Y57801314D01*
X-29105458Y57561760D01*
X-32000000Y57561760D01*
X-32000000Y74561760D01*
X-29105458Y74561760D01*
X-29105458Y74561749D01*
X-29085608Y74322195D01*
X-29026598Y74089165D01*
X-28930036Y73869025D01*
X-28798560Y73667788D01*
X-28798558Y73667785D01*
X-28635751Y73490929D01*
X-28635748Y73490927D01*
X-28635745Y73490924D01*
X-28446063Y73343288D01*
X-28446057Y73343284D01*
X-28446054Y73343282D01*
X-28234643Y73228872D01*
X-28234640Y73228871D01*
X-28007288Y73150821D01*
X-28007286Y73150821D01*
X-28007284Y73150820D01*
X-27770179Y73111254D01*
X-27770178Y73111254D01*
X-27529796Y73111254D01*
X-27529795Y73111254D01*
X-27292690Y73150820D01*
X-27065331Y73228872D01*
X-26853920Y73343282D01*
X-26664223Y73490929D01*
X-26501416Y73667785D01*
X-26369938Y73869026D01*
X-26273377Y74089163D01*
X-26214367Y74322191D01*
X-26194516Y74561754D01*
X-26194516Y74561760D01*
X26194516Y74561760D01*
X26194516Y74561749D01*
X26214366Y74322195D01*
X26273376Y74089165D01*
X26369938Y73869025D01*
X26501414Y73667788D01*
X26501416Y73667785D01*
X26664223Y73490929D01*
X26664226Y73490927D01*
X26664229Y73490924D01*
X26853911Y73343288D01*
X26853917Y73343284D01*
X26853920Y73343282D01*
X27065331Y73228872D01*
X27065334Y73228871D01*
X27292686Y73150821D01*
X27292688Y73150821D01*
X27292690Y73150820D01*
X27529795Y73111254D01*
X27529796Y73111254D01*
X27770178Y73111254D01*
X27770179Y73111254D01*
X28007284Y73150820D01*
X28234643Y73228872D01*
X28446054Y73343282D01*
X28635751Y73490929D01*
X28798558Y73667785D01*
X28930036Y73869026D01*
X29026597Y74089163D01*
X29085607Y74322191D01*
X29105458Y74561754D01*
X29085607Y74801317D01*
X29026597Y75034345D01*
X28930036Y75254482D01*
X28798558Y75455723D01*
X28635751Y75632579D01*
X28635746Y75632583D01*
X28635744Y75632585D01*
X28446062Y75780221D01*
X28446056Y75780225D01*
X28234644Y75894636D01*
X28234639Y75894638D01*
X28007287Y75972688D01*
X27829455Y76002363D01*
X27770179Y76012254D01*
X27529795Y76012254D01*
X27482374Y76004341D01*
X27292686Y75972688D01*
X27065334Y75894638D01*
X27065329Y75894636D01*
X26853917Y75780225D01*
X26853911Y75780221D01*
X26664229Y75632585D01*
X26664226Y75632582D01*
X26501417Y75455725D01*
X26501414Y75455721D01*
X26369938Y75254484D01*
X26273376Y75034344D01*
X26214366Y74801314D01*
X26194516Y74561760D01*
X-26194516Y74561760D01*
X-26214367Y74801317D01*
X-26273377Y75034345D01*
X-26369938Y75254482D01*
X-26501416Y75455723D01*
X-26664223Y75632579D01*
X-26664228Y75632583D01*
X-26664230Y75632585D01*
X-26853912Y75780221D01*
X-26853918Y75780225D01*
X-27065330Y75894636D01*
X-27065335Y75894638D01*
X-27292687Y75972688D01*
X-27470519Y76002363D01*
X-27529795Y76012254D01*
X-27770179Y76012254D01*
X-27817600Y76004341D01*
X-28007288Y75972688D01*
X-28234640Y75894638D01*
X-28234645Y75894636D01*
X-28446057Y75780225D01*
X-28446063Y75780221D01*
X-28635745Y75632585D01*
X-28635748Y75632582D01*
X-28798557Y75455725D01*
X-28798560Y75455721D01*
X-28930036Y75254484D01*
X-29026598Y75034344D01*
X-29085608Y74801314D01*
X-29105458Y74561760D01*
X-32000000Y74561760D01*
X-32000000Y91561760D01*
X-29105458Y91561760D01*
X-29105458Y91561749D01*
X-29085608Y91322195D01*
X-29026598Y91089165D01*
X-28930036Y90869025D01*
X-28798560Y90667788D01*
X-28798558Y90667785D01*
X-28635751Y90490929D01*
X-28635748Y90490927D01*
X-28635745Y90490924D01*
X-28446063Y90343288D01*
X-28446057Y90343284D01*
X-28446054Y90343282D01*
X-28234643Y90228872D01*
X-28234640Y90228871D01*
X-28007288Y90150821D01*
X-28007286Y90150821D01*
X-28007284Y90150820D01*
X-27770179Y90111254D01*
X-27770178Y90111254D01*
X-27529796Y90111254D01*
X-27529795Y90111254D01*
X-27292690Y90150820D01*
X-27065331Y90228872D01*
X-26853920Y90343282D01*
X-26664223Y90490929D01*
X-26501416Y90667785D01*
X-26369938Y90869026D01*
X-26273377Y91089163D01*
X-26214367Y91322191D01*
X-26194516Y91561754D01*
X-26194516Y91561760D01*
X26194516Y91561760D01*
X26194516Y91561749D01*
X26214366Y91322195D01*
X26273376Y91089165D01*
X26369938Y90869025D01*
X26501414Y90667788D01*
X26501416Y90667785D01*
X26664223Y90490929D01*
X26664226Y90490927D01*
X26664229Y90490924D01*
X26853911Y90343288D01*
X26853917Y90343284D01*
X26853920Y90343282D01*
X27065331Y90228872D01*
X27065334Y90228871D01*
X27292686Y90150821D01*
X27292688Y90150821D01*
X27292690Y90150820D01*
X27529795Y90111254D01*
X27529796Y90111254D01*
X27770178Y90111254D01*
X27770179Y90111254D01*
X28007284Y90150820D01*
X28234643Y90228872D01*
X28446054Y90343282D01*
X28635751Y90490929D01*
X28798558Y90667785D01*
X28930036Y90869026D01*
X29026597Y91089163D01*
X29085607Y91322191D01*
X29105458Y91561754D01*
X29085607Y91801317D01*
X29026597Y92034345D01*
X28930036Y92254482D01*
X28798558Y92455723D01*
X28635751Y92632579D01*
X28635746Y92632583D01*
X28635744Y92632585D01*
X28446062Y92780221D01*
X28446056Y92780225D01*
X28234644Y92894636D01*
X28234639Y92894638D01*
X28007287Y92972688D01*
X27829455Y93002363D01*
X27770179Y93012254D01*
X27529795Y93012254D01*
X27482374Y93004341D01*
X27292686Y92972688D01*
X27065334Y92894638D01*
X27065329Y92894636D01*
X26853917Y92780225D01*
X26853911Y92780221D01*
X26664229Y92632585D01*
X26664226Y92632582D01*
X26501417Y92455725D01*
X26501414Y92455721D01*
X26369938Y92254484D01*
X26273376Y92034344D01*
X26214366Y91801314D01*
X26194516Y91561760D01*
X-26194516Y91561760D01*
X-26214367Y91801317D01*
X-26273377Y92034345D01*
X-26369938Y92254482D01*
X-26501416Y92455723D01*
X-26664223Y92632579D01*
X-26664228Y92632583D01*
X-26664230Y92632585D01*
X-26853912Y92780221D01*
X-26853918Y92780225D01*
X-27065330Y92894636D01*
X-27065335Y92894638D01*
X-27292687Y92972688D01*
X-27470519Y93002363D01*
X-27529795Y93012254D01*
X-27770179Y93012254D01*
X-27817600Y93004341D01*
X-28007288Y92972688D01*
X-28234640Y92894638D01*
X-28234645Y92894636D01*
X-28446057Y92780225D01*
X-28446063Y92780221D01*
X-28635745Y92632585D01*
X-28635748Y92632582D01*
X-28798557Y92455725D01*
X-28798560Y92455721D01*
X-28930036Y92254484D01*
X-29026598Y92034344D01*
X-29085608Y91801314D01*
X-29105458Y91561760D01*
X-32000000Y91561760D01*
X-32000000Y102000002D01*
X-26605682Y102000002D01*
X-26605682Y101999999D01*
X-26585045Y101843240D01*
X-26585044Y101843238D01*
X-26524536Y101697159D01*
X-26428282Y101571718D01*
X-26302841Y101475464D01*
X-26156762Y101414956D01*
X-26078381Y101404637D01*
X-26000001Y101394318D01*
X-26000000Y101394318D01*
X-25999999Y101394318D01*
X-25947746Y101401198D01*
X-25843238Y101414956D01*
X-25697159Y101475464D01*
X-25571718Y101571718D01*
X-25569510Y101574596D01*
X-25568441Y101575988D01*
X-25512013Y101617190D01*
X-25470067Y101624500D01*
X-7529933Y101624500D01*
X-7462894Y101604815D01*
X-7431559Y101575988D01*
X-7428672Y101572226D01*
X-7428282Y101571718D01*
X-7302841Y101475464D01*
X-7156762Y101414956D01*
X-7078381Y101404637D01*
X-7000001Y101394318D01*
X-7000000Y101394318D01*
X-6999999Y101394318D01*
X-6947746Y101401198D01*
X-6843238Y101414956D01*
X-6697159Y101475464D01*
X-6571718Y101571718D01*
X-6475464Y101697159D01*
X-6414956Y101843238D01*
X-6394318Y102000000D01*
X-6414956Y102156762D01*
X-6450824Y102243353D01*
X-6458292Y102312822D01*
X-6427017Y102375301D01*
X-6366928Y102410953D01*
X-6352451Y102413744D01*
X-6343238Y102414956D01*
X-6197159Y102475464D01*
X-6071718Y102571718D01*
X-5975464Y102697159D01*
X-5914956Y102843238D01*
X-5894318Y103000000D01*
X-5914956Y103156762D01*
X-5975464Y103302841D01*
X-6071718Y103428282D01*
X-6197159Y103524536D01*
X-6343238Y103585044D01*
X-6343240Y103585045D01*
X-6499999Y103605682D01*
X-6500001Y103605682D01*
X-6656761Y103585045D01*
X-6656763Y103585044D01*
X-6802840Y103524537D01*
X-6802841Y103524536D01*
X-6928282Y103428282D01*
X-6928284Y103428281D01*
X-6928285Y103428279D01*
X-6931559Y103424012D01*
X-6987987Y103382810D01*
X-7029933Y103375500D01*
X-24970067Y103375500D01*
X-25037106Y103395185D01*
X-25068441Y103424012D01*
X-25071716Y103428279D01*
X-25071718Y103428282D01*
X-25197159Y103524536D01*
X-25343238Y103585044D01*
X-25343240Y103585045D01*
X-25499999Y103605682D01*
X-25500001Y103605682D01*
X-25656761Y103585045D01*
X-25656763Y103585044D01*
X-25802840Y103524537D01*
X-25928282Y103428282D01*
X-26024537Y103302840D01*
X-26085044Y103156763D01*
X-26085045Y103156761D01*
X-26105682Y103000002D01*
X-26105682Y102999999D01*
X-26085045Y102843240D01*
X-26085043Y102843235D01*
X-26049178Y102756648D01*
X-26041709Y102687179D01*
X-26072985Y102624700D01*
X-26133074Y102589048D01*
X-26147548Y102586258D01*
X-26156756Y102585046D01*
X-26156763Y102585044D01*
X-26302840Y102524537D01*
X-26428282Y102428282D01*
X-26524537Y102302840D01*
X-26585044Y102156763D01*
X-26585045Y102156761D01*
X-26605682Y102000002D01*
X-32000000Y102000002D01*
X-32000000Y108561760D01*
X-29105458Y108561760D01*
X-29105458Y108561749D01*
X-29085608Y108322195D01*
X-29026598Y108089165D01*
X-28930036Y107869025D01*
X-28798560Y107667788D01*
X-28798558Y107667785D01*
X-28635751Y107490929D01*
X-28635748Y107490927D01*
X-28635745Y107490924D01*
X-28446063Y107343288D01*
X-28446057Y107343284D01*
X-28446054Y107343282D01*
X-28234643Y107228872D01*
X-28234640Y107228871D01*
X-28007288Y107150821D01*
X-28007286Y107150821D01*
X-28007284Y107150820D01*
X-27770179Y107111254D01*
X-27770178Y107111254D01*
X-27529796Y107111254D01*
X-27529795Y107111254D01*
X-27292690Y107150820D01*
X-27065331Y107228872D01*
X-26853920Y107343282D01*
X-26664223Y107490929D01*
X-26501416Y107667785D01*
X-26369938Y107869026D01*
X-26273377Y108089163D01*
X-26214367Y108322191D01*
X-26194516Y108561754D01*
X-26194516Y108561760D01*
X26194516Y108561760D01*
X26194516Y108561749D01*
X26214366Y108322195D01*
X26273376Y108089165D01*
X26369938Y107869025D01*
X26501414Y107667788D01*
X26501416Y107667785D01*
X26664223Y107490929D01*
X26664226Y107490927D01*
X26664229Y107490924D01*
X26853911Y107343288D01*
X26853917Y107343284D01*
X26853920Y107343282D01*
X27065331Y107228872D01*
X27065334Y107228871D01*
X27292686Y107150821D01*
X27292688Y107150821D01*
X27292690Y107150820D01*
X27529795Y107111254D01*
X27529796Y107111254D01*
X27770178Y107111254D01*
X27770179Y107111254D01*
X28007284Y107150820D01*
X28234643Y107228872D01*
X28446054Y107343282D01*
X28635751Y107490929D01*
X28798558Y107667785D01*
X28930036Y107869026D01*
X29026597Y108089163D01*
X29085607Y108322191D01*
X29105458Y108561754D01*
X29085607Y108801317D01*
X29026597Y109034345D01*
X28930036Y109254482D01*
X28798558Y109455723D01*
X28635751Y109632579D01*
X28635746Y109632583D01*
X28635744Y109632585D01*
X28446062Y109780221D01*
X28446056Y109780225D01*
X28234644Y109894636D01*
X28234639Y109894638D01*
X28007287Y109972688D01*
X27829455Y110002363D01*
X27770179Y110012254D01*
X27529795Y110012254D01*
X27482374Y110004341D01*
X27292686Y109972688D01*
X27065334Y109894638D01*
X27065329Y109894636D01*
X26853917Y109780225D01*
X26853911Y109780221D01*
X26664229Y109632585D01*
X26664226Y109632582D01*
X26501417Y109455725D01*
X26501414Y109455721D01*
X26369938Y109254484D01*
X26273376Y109034344D01*
X26214366Y108801314D01*
X26194516Y108561760D01*
X-26194516Y108561760D01*
X-26214367Y108801317D01*
X-26273377Y109034345D01*
X-26369938Y109254482D01*
X-26501416Y109455723D01*
X-26664223Y109632579D01*
X-26664228Y109632583D01*
X-26664230Y109632585D01*
X-26853912Y109780221D01*
X-26853918Y109780225D01*
X-27065330Y109894636D01*
X-27065335Y109894638D01*
X-27292687Y109972688D01*
X-27470519Y110002363D01*
X-27529795Y110012254D01*
X-27770179Y110012254D01*
X-27817600Y110004341D01*
X-28007288Y109972688D01*
X-28234640Y109894638D01*
X-28234645Y109894636D01*
X-28446057Y109780225D01*
X-28446063Y109780221D01*
X-28635745Y109632585D01*
X-28635748Y109632582D01*
X-28798557Y109455725D01*
X-28798560Y109455721D01*
X-28930036Y109254484D01*
X-29026598Y109034344D01*
X-29085608Y108801314D01*
X-29105458Y108561760D01*
X-32000000Y108561760D01*
X-32000000Y117375002D01*
X14269318Y117375002D01*
X14269318Y117374999D01*
X14289955Y117218240D01*
X14289956Y117218238D01*
X14350464Y117072159D01*
X14446718Y116946718D01*
X14572159Y116850464D01*
X14718238Y116789956D01*
X14796619Y116779637D01*
X14874999Y116769318D01*
X14875000Y116769318D01*
X14875001Y116769318D01*
X14927254Y116776198D01*
X15031762Y116789956D01*
X15177841Y116850464D01*
X15303282Y116946718D01*
X15399536Y117072159D01*
X15460044Y117218238D01*
X15480682Y117375000D01*
X15479980Y117380332D01*
X15490742Y117449366D01*
X15515234Y117484199D01*
X19092795Y121061760D01*
X21944457Y121061760D01*
X21944457Y121061749D01*
X21964606Y120741471D01*
X21964607Y120741464D01*
X21982895Y120645595D01*
X22014693Y120478903D01*
X22024745Y120426212D01*
X22123916Y120120995D01*
X22123918Y120120990D01*
X22260558Y119830616D01*
X22260562Y119830610D01*
X22432520Y119559646D01*
X22432522Y119559643D01*
X22637087Y119312366D01*
X22637089Y119312364D01*
X22821800Y119138910D01*
X22871034Y119092676D01*
X22871044Y119092668D01*
X23130660Y118904046D01*
X23130666Y118904043D01*
X23130672Y118904038D01*
X23411903Y118749430D01*
X23710294Y118631288D01*
X23710293Y118631288D01*
X24021135Y118551478D01*
X24021139Y118551477D01*
X24087935Y118543039D01*
X24339524Y118511255D01*
X24339533Y118511255D01*
X24339536Y118511254D01*
X24339538Y118511254D01*
X24660462Y118511254D01*
X24660464Y118511254D01*
X24660467Y118511255D01*
X24660475Y118511255D01*
X24850463Y118535257D01*
X24978861Y118551477D01*
X25289706Y118631288D01*
X25588097Y118749430D01*
X25869328Y118904038D01*
X26128964Y119092674D01*
X26362911Y119312364D01*
X26567478Y119559644D01*
X26739439Y119830612D01*
X26745627Y119843761D01*
X26843916Y120052636D01*
X26876084Y120120996D01*
X26975256Y120426216D01*
X27035392Y120741460D01*
X27036669Y120761754D01*
X27055543Y121061749D01*
X27055543Y121061760D01*
X27035393Y121382038D01*
X27035392Y121382045D01*
X27035392Y121382048D01*
X26975256Y121697292D01*
X26876084Y122002512D01*
X26876081Y122002519D01*
X26739441Y122292893D01*
X26739437Y122292899D01*
X26567479Y122563863D01*
X26567477Y122563866D01*
X26362912Y122811143D01*
X26128965Y123030833D01*
X26128955Y123030841D01*
X25869339Y123219463D01*
X25869321Y123219474D01*
X25588096Y123374079D01*
X25588093Y123374080D01*
X25289703Y123492221D01*
X25289706Y123492221D01*
X24978864Y123572031D01*
X24978851Y123572033D01*
X24660475Y123612254D01*
X24660464Y123612254D01*
X24339536Y123612254D01*
X24339524Y123612254D01*
X24021148Y123572033D01*
X24021135Y123572031D01*
X23710294Y123492221D01*
X23411906Y123374080D01*
X23411903Y123374079D01*
X23130678Y123219474D01*
X23130660Y123219463D01*
X22871044Y123030841D01*
X22871034Y123030833D01*
X22637087Y122811143D01*
X22432522Y122563866D01*
X22432520Y122563863D01*
X22260562Y122292899D01*
X22260558Y122292893D01*
X22123918Y122002519D01*
X22123916Y122002514D01*
X22024745Y121697297D01*
X21964607Y121382045D01*
X21964606Y121382038D01*
X21944457Y121061760D01*
X19092795Y121061760D01*
X19640800Y121609765D01*
X19702121Y121643248D01*
X19744668Y121645020D01*
X19750000Y121644318D01*
X19750001Y121644318D01*
X19815962Y121653002D01*
X19906762Y121664956D01*
X20052841Y121725464D01*
X20178282Y121821718D01*
X20274536Y121947159D01*
X20335044Y122093238D01*
X20352212Y122223645D01*
X20355682Y122249999D01*
X20355682Y122250002D01*
X20335044Y122406761D01*
X20335044Y122406762D01*
X20274536Y122552841D01*
X20178282Y122678282D01*
X20052841Y122774536D01*
X19906762Y122835044D01*
X19906760Y122835045D01*
X19750001Y122855682D01*
X19749999Y122855682D01*
X19593239Y122835045D01*
X19593237Y122835044D01*
X19447160Y122774537D01*
X19321718Y122678282D01*
X19225463Y122552840D01*
X19164956Y122406763D01*
X19164955Y122406761D01*
X19144318Y122250002D01*
X19144318Y122249999D01*
X19145020Y122244666D01*
X19134254Y122175631D01*
X19109762Y122140801D01*
X14984199Y118015238D01*
X14922876Y117981753D01*
X14880334Y117979980D01*
X14875002Y117980682D01*
X14874998Y117980682D01*
X14718239Y117960045D01*
X14718237Y117960044D01*
X14572160Y117899537D01*
X14446718Y117803282D01*
X14350463Y117677840D01*
X14289956Y117531763D01*
X14289955Y117531761D01*
X14269318Y117375002D01*
X-32000000Y117375002D01*
X-32000000Y121061760D01*
X-27055543Y121061760D01*
X-27055543Y121061749D01*
X-27035394Y120741471D01*
X-27035393Y120741464D01*
X-27017105Y120645595D01*
X-26985307Y120478903D01*
X-26975255Y120426212D01*
X-26876084Y120120995D01*
X-26876082Y120120990D01*
X-26739442Y119830616D01*
X-26739438Y119830610D01*
X-26567480Y119559646D01*
X-26567478Y119559643D01*
X-26362913Y119312366D01*
X-26362911Y119312364D01*
X-26178200Y119138910D01*
X-26128966Y119092676D01*
X-26128956Y119092668D01*
X-25869340Y118904046D01*
X-25869334Y118904043D01*
X-25869328Y118904038D01*
X-25588097Y118749430D01*
X-25289706Y118631288D01*
X-25289707Y118631288D01*
X-24978865Y118551478D01*
X-24978861Y118551477D01*
X-24912065Y118543039D01*
X-24660476Y118511255D01*
X-24660467Y118511255D01*
X-24660464Y118511254D01*
X-24660462Y118511254D01*
X-24339538Y118511254D01*
X-24339536Y118511254D01*
X-24339533Y118511255D01*
X-24339525Y118511255D01*
X-24149537Y118535257D01*
X-24021139Y118551477D01*
X-23710294Y118631288D01*
X-23411903Y118749430D01*
X-23130672Y118904038D01*
X-22871036Y119092674D01*
X-22637089Y119312364D01*
X-22432522Y119559644D01*
X-22260561Y119830612D01*
X-22254373Y119843761D01*
X-22156084Y120052636D01*
X-22123916Y120120996D01*
X-22024744Y120426216D01*
X-21964608Y120741460D01*
X-21963331Y120761754D01*
X-21944457Y121061749D01*
X-21944457Y121061760D01*
X-21964607Y121382038D01*
X-21964608Y121382045D01*
X-21964608Y121382048D01*
X-22024744Y121697292D01*
X-22123916Y122002512D01*
X-22123919Y122002519D01*
X-22260559Y122292893D01*
X-22260563Y122292899D01*
X-22432521Y122563863D01*
X-22432523Y122563866D01*
X-22637088Y122811143D01*
X-22871035Y123030833D01*
X-22871045Y123030841D01*
X-23130661Y123219463D01*
X-23130679Y123219474D01*
X-23411904Y123374079D01*
X-23411907Y123374080D01*
X-23710297Y123492221D01*
X-23710294Y123492221D01*
X-24021136Y123572031D01*
X-24021149Y123572033D01*
X-24339525Y123612254D01*
X-24339536Y123612254D01*
X-24660464Y123612254D01*
X-24660476Y123612254D01*
X-24978852Y123572033D01*
X-24978865Y123572031D01*
X-25289706Y123492221D01*
X-25588094Y123374080D01*
X-25588097Y123374079D01*
X-25869322Y123219474D01*
X-25869340Y123219463D01*
X-26128956Y123030841D01*
X-26128966Y123030833D01*
X-26362913Y122811143D01*
X-26567478Y122563866D01*
X-26567480Y122563863D01*
X-26739438Y122292899D01*
X-26739442Y122292893D01*
X-26876082Y122002519D01*
X-26876084Y122002514D01*
X-26975255Y121697297D01*
X-27035393Y121382045D01*
X-27035394Y121382038D01*
X-27055543Y121061760D01*
X-32000000Y121061760D01*
X-32000000Y134448638D01*
X-24805500Y134448638D01*
X-24805500Y132624000D01*
X-24805499Y132623991D01*
X-24798519Y132559065D01*
X-24798516Y132559048D01*
X-24788678Y132513823D01*
X-24786905Y132471280D01*
X-24800499Y132368022D01*
X-24800500Y132368005D01*
X-24800500Y132131982D01*
X-24769693Y131897990D01*
X-24769692Y131897986D01*
X-24713126Y131686878D01*
X-24708604Y131670004D01*
X-24708600Y131669991D01*
X-24618289Y131451959D01*
X-24618281Y131451943D01*
X-24500278Y131247558D01*
X-24500267Y131247542D01*
X-24356594Y131060303D01*
X-24356588Y131060296D01*
X-14516462Y121220170D01*
X-14516454Y121220163D01*
X-14516453Y121220162D01*
X-14472887Y121186733D01*
X-14329205Y121076480D01*
X-14124808Y120958472D01*
X-14124793Y120958465D01*
X-14034484Y120921058D01*
X-13906748Y120868148D01*
X-13678768Y120807061D01*
X-13444765Y120776254D01*
X-13444758Y120776254D01*
X-8724000Y120776254D01*
X-8656961Y120756569D01*
X-8611206Y120703765D01*
X-8600000Y120652254D01*
X-8600000Y120286754D01*
X-7683012Y120286754D01*
X-7715925Y120229747D01*
X-7750000Y120102580D01*
X-7750000Y119970928D01*
X-7715925Y119843761D01*
X-7683012Y119786754D01*
X-8600000Y119786754D01*
X-8600000Y119138910D01*
X-8593599Y119079382D01*
X-8593597Y119079375D01*
X-8543355Y118944668D01*
X-8543351Y118944661D01*
X-8457191Y118829567D01*
X-8457188Y118829564D01*
X-8342094Y118743404D01*
X-8342087Y118743400D01*
X-8207380Y118693158D01*
X-8207373Y118693156D01*
X-8147845Y118686755D01*
X-8147828Y118686754D01*
X-7500000Y118686754D01*
X-7500000Y119603742D01*
X-7442993Y119570829D01*
X-7315826Y119536754D01*
X-7184174Y119536754D01*
X-7057007Y119570829D01*
X-7000000Y119603742D01*
X-7000000Y118686754D01*
X-6352172Y118686754D01*
X-6352156Y118686755D01*
X-6292628Y118693156D01*
X-6292621Y118693158D01*
X-6157914Y118743400D01*
X-6157907Y118743404D01*
X-6042813Y118829564D01*
X-6042810Y118829567D01*
X-5956650Y118944661D01*
X-5956646Y118944668D01*
X-5906404Y119079375D01*
X-5906402Y119079382D01*
X-5900001Y119138910D01*
X-5900000Y119138927D01*
X-5900000Y119786754D01*
X-6816988Y119786754D01*
X-6784075Y119843761D01*
X-6750000Y119970928D01*
X-6750000Y120102580D01*
X-6784075Y120229747D01*
X-6816988Y120286754D01*
X-5900000Y120286754D01*
X-5900000Y120934582D01*
X-5900001Y120934599D01*
X-5906402Y120994127D01*
X-5906404Y120994134D01*
X-5912976Y121011754D01*
X-3959118Y121011754D01*
X-3940690Y120824639D01*
X-3940689Y120824637D01*
X-3886109Y120644714D01*
X-3797482Y120478903D01*
X-3797477Y120478897D01*
X-3678200Y120333555D01*
X-3532858Y120214278D01*
X-3532852Y120214273D01*
X-3367041Y120125646D01*
X-3367039Y120125645D01*
X-3187118Y120071066D01*
X-3187116Y120071065D01*
X-3170340Y120069413D01*
X-3000000Y120052636D01*
X-2812885Y120071065D01*
X-2632961Y120125645D01*
X-2571627Y120158430D01*
X-2467149Y120214273D01*
X-2467147Y120214276D01*
X-2467143Y120214277D01*
X-2321801Y120333555D01*
X-2202523Y120478897D01*
X-2202522Y120478901D01*
X-2202519Y120478903D01*
X-2111019Y120650087D01*
X-2109556Y120649305D01*
X-2070729Y120697495D01*
X-2004437Y120719566D01*
X-1936736Y120702292D01*
X-1889121Y120651159D01*
X-1886580Y120645595D01*
X-1797482Y120478903D01*
X-1797477Y120478897D01*
X-1678200Y120333555D01*
X-1532858Y120214278D01*
X-1532852Y120214273D01*
X-1367041Y120125646D01*
X-1367039Y120125645D01*
X-1187118Y120071066D01*
X-1187116Y120071065D01*
X-1170340Y120069413D01*
X-1000000Y120052636D01*
X-812885Y120071065D01*
X-632961Y120125645D01*
X-571627Y120158430D01*
X-467149Y120214273D01*
X-467147Y120214276D01*
X-467143Y120214277D01*
X-321801Y120333555D01*
X-212794Y120466383D01*
X-155048Y120505717D01*
X-85204Y120507588D01*
X-25435Y120471401D01*
X-5940Y120442990D01*
X14642Y120401655D01*
X14647Y120401647D01*
X23980Y120389289D01*
X600000Y120965309D01*
X600000Y120959093D01*
X627259Y120857360D01*
X679920Y120766148D01*
X754394Y120691674D01*
X845606Y120639013D01*
X947339Y120611754D01*
X953554Y120611754D01*
X380086Y120038289D01*
X483413Y119974311D01*
X483414Y119974310D01*
X682837Y119897054D01*
X893068Y119857754D01*
X1106932Y119857754D01*
X1317162Y119897054D01*
X1516585Y119974310D01*
X1516589Y119974312D01*
X1619911Y120038288D01*
X1619911Y120038289D01*
X1046447Y120611754D01*
X1052661Y120611754D01*
X1154394Y120639013D01*
X1245606Y120691674D01*
X1320080Y120766148D01*
X1372741Y120857360D01*
X1400000Y120959093D01*
X1400000Y120965308D01*
X1997020Y120368288D01*
X2030505Y120306965D01*
X2025521Y120237273D01*
X1997020Y120192926D01*
X1909973Y120105880D01*
X1909972Y120105879D01*
X1988809Y120000568D01*
X1988814Y120000563D01*
X2103906Y119914404D01*
X2103913Y119914400D01*
X2238620Y119864158D01*
X2238627Y119864156D01*
X2298155Y119857755D01*
X2298172Y119857754D01*
X2750000Y119857754D01*
X2750000Y120696068D01*
X2754394Y120691674D01*
X2845606Y120639013D01*
X2947339Y120611754D01*
X3052661Y120611754D01*
X3154394Y120639013D01*
X3245606Y120691674D01*
X3250000Y120696068D01*
X3250000Y119857754D01*
X3701828Y119857754D01*
X3701844Y119857755D01*
X3761372Y119864156D01*
X3761379Y119864158D01*
X3896086Y119914400D01*
X3896093Y119914404D01*
X4011187Y120000564D01*
X4011190Y120000567D01*
X4097350Y120115661D01*
X4097354Y120115668D01*
X4147596Y120250375D01*
X4147598Y120250382D01*
X4153999Y120309910D01*
X4154000Y120309927D01*
X4154000Y120761754D01*
X3315686Y120761754D01*
X3320080Y120766148D01*
X3372741Y120857360D01*
X3400000Y120959093D01*
X3400000Y121064415D01*
X3372741Y121166148D01*
X3320080Y121257360D01*
X3315686Y121261754D01*
X4154000Y121261754D01*
X4154000Y121713582D01*
X4153999Y121713599D01*
X4147598Y121773127D01*
X4147596Y121773134D01*
X4097354Y121907841D01*
X4097350Y121907848D01*
X4011190Y122022942D01*
X4011187Y122022945D01*
X3896093Y122109105D01*
X3896086Y122109109D01*
X3761379Y122159351D01*
X3761372Y122159353D01*
X3701844Y122165754D01*
X3250000Y122165754D01*
X3250000Y121327440D01*
X3245606Y121331834D01*
X3154394Y121384495D01*
X3052661Y121411754D01*
X2947339Y121411754D01*
X2845606Y121384495D01*
X2754394Y121331834D01*
X2750000Y121327440D01*
X2750000Y122165754D01*
X2298155Y122165754D01*
X2238627Y122159353D01*
X2238620Y122159351D01*
X2103913Y122109109D01*
X2103906Y122109105D01*
X1988814Y122022946D01*
X1988808Y122022940D01*
X1909973Y121917631D01*
X1997021Y121830583D01*
X2030506Y121769260D01*
X2025522Y121699568D01*
X1997021Y121655221D01*
X1400000Y121058200D01*
X1400000Y121064415D01*
X1372741Y121166148D01*
X1320080Y121257360D01*
X1245606Y121331834D01*
X1154394Y121384495D01*
X1052661Y121411754D01*
X1046447Y121411754D01*
X1619912Y121985221D01*
X1516586Y122049198D01*
X1516585Y122049199D01*
X1317162Y122126455D01*
X1106932Y122165754D01*
X893068Y122165754D01*
X682837Y122126455D01*
X483416Y122049200D01*
X483410Y122049197D01*
X380087Y121985222D01*
X380086Y121985221D01*
X953554Y121411754D01*
X947339Y121411754D01*
X845606Y121384495D01*
X754394Y121331834D01*
X679920Y121257360D01*
X627259Y121166148D01*
X600000Y121064415D01*
X600000Y121058201D01*
X23980Y121634221D01*
X14648Y121621863D01*
X-5940Y121580517D01*
X-53444Y121529281D01*
X-121107Y121511860D01*
X-187447Y121533786D01*
X-212794Y121557126D01*
X-226891Y121574303D01*
X-276063Y121634221D01*
X-321801Y121689954D01*
X-467143Y121809231D01*
X-467149Y121809236D01*
X-632960Y121897863D01*
X-812883Y121952443D01*
X-812885Y121952444D01*
X-1000000Y121970872D01*
X-1187116Y121952444D01*
X-1187118Y121952443D01*
X-1367041Y121897863D01*
X-1532852Y121809236D01*
X-1532858Y121809231D01*
X-1678200Y121689954D01*
X-1797477Y121544612D01*
X-1797482Y121544606D01*
X-1888981Y121373421D01*
X-1890443Y121374203D01*
X-1929280Y121326008D01*
X-1995574Y121303943D01*
X-2063274Y121321222D01*
X-2110884Y121372360D01*
X-2113421Y121377915D01*
X-2202519Y121544606D01*
X-2202524Y121544612D01*
X-2321801Y121689954D01*
X-2467143Y121809231D01*
X-2467149Y121809236D01*
X-2632960Y121897863D01*
X-2812883Y121952443D01*
X-2812885Y121952444D01*
X-3000000Y121970872D01*
X-3187116Y121952444D01*
X-3187118Y121952443D01*
X-3367041Y121897863D01*
X-3532852Y121809236D01*
X-3532858Y121809231D01*
X-3678200Y121689954D01*
X-3797477Y121544612D01*
X-3797482Y121544606D01*
X-3886109Y121378795D01*
X-3940689Y121198872D01*
X-3940690Y121198870D01*
X-3959118Y121011754D01*
X-5912976Y121011754D01*
X-5956646Y121128841D01*
X-5956648Y121128844D01*
X-5975727Y121154330D01*
X-6000145Y121219794D01*
X-5985294Y121288067D01*
X-5964148Y121316316D01*
X-3867282Y123413181D01*
X-3805959Y123446666D01*
X-3779601Y123449500D01*
X3779601Y123449500D01*
X3846640Y123429815D01*
X3867282Y123413181D01*
X5964140Y121316323D01*
X5997625Y121255000D01*
X5992641Y121185308D01*
X5975728Y121154334D01*
X5956648Y121128846D01*
X5956645Y121128841D01*
X5906403Y120994134D01*
X5906401Y120994127D01*
X5900000Y120934599D01*
X5900000Y120286754D01*
X6816988Y120286754D01*
X6784075Y120229747D01*
X6750000Y120102580D01*
X6750000Y119970928D01*
X6784075Y119843761D01*
X6816988Y119786754D01*
X5900000Y119786754D01*
X5900000Y119138910D01*
X5906401Y119079382D01*
X5906403Y119079375D01*
X5956645Y118944668D01*
X5956649Y118944661D01*
X6042809Y118829567D01*
X6042812Y118829564D01*
X6157906Y118743404D01*
X6157913Y118743400D01*
X6292620Y118693158D01*
X6292627Y118693156D01*
X6352155Y118686755D01*
X6352172Y118686754D01*
X7000000Y118686754D01*
X7000000Y119603742D01*
X7057007Y119570829D01*
X7184174Y119536754D01*
X7315826Y119536754D01*
X7442993Y119570829D01*
X7500000Y119603742D01*
X7500000Y118686754D01*
X8147828Y118686754D01*
X8147844Y118686755D01*
X8207372Y118693156D01*
X8207379Y118693158D01*
X8342086Y118743400D01*
X8342093Y118743404D01*
X8457187Y118829564D01*
X8457190Y118829567D01*
X8543350Y118944661D01*
X8543354Y118944668D01*
X8593596Y119079375D01*
X8593598Y119079382D01*
X8599999Y119138910D01*
X8600000Y119138927D01*
X8600000Y119786754D01*
X7683012Y119786754D01*
X7715925Y119843761D01*
X7750000Y119970928D01*
X7750000Y120102580D01*
X7715925Y120229747D01*
X7683012Y120286754D01*
X8600000Y120286754D01*
X8600000Y120934582D01*
X8599999Y120934599D01*
X8593598Y120994127D01*
X8593597Y120994131D01*
X8543352Y121128843D01*
X8543351Y121128845D01*
X8524274Y121154327D01*
X8499855Y121219790D01*
X8514705Y121288064D01*
X8535852Y121316315D01*
X8606592Y121387054D01*
X8750274Y121574303D01*
X8868284Y121778704D01*
X8958606Y121996760D01*
X8986964Y122102594D01*
X9023330Y122162254D01*
X9086177Y122192783D01*
X9106739Y122194500D01*
X15475990Y122194500D01*
X15476000Y122194500D01*
X15540941Y122201482D01*
X15592452Y122212688D01*
X15630658Y122223646D01*
X15727571Y122280325D01*
X15780375Y122326080D01*
X15780382Y122326088D01*
X15780387Y122326092D01*
X15822548Y122370808D01*
X15822553Y122370813D01*
X15873439Y122470889D01*
X15893124Y122537928D01*
X15905500Y122624000D01*
X15905500Y124626000D01*
X15898518Y124690941D01*
X15887312Y124742452D01*
X15876354Y124780658D01*
X15819675Y124877571D01*
X15773920Y124930375D01*
X15773918Y124930377D01*
X15773908Y124930388D01*
X15729192Y124972549D01*
X15729189Y124972551D01*
X15729187Y124972553D01*
X15629111Y125023439D01*
X15629110Y125023440D01*
X15629109Y125023440D01*
X15562078Y125043123D01*
X15562072Y125043124D01*
X15476000Y125055500D01*
X15475997Y125055500D01*
X7368907Y125055500D01*
X7301868Y125075185D01*
X7281226Y125091819D01*
X5766458Y126606588D01*
X5766451Y126606594D01*
X5579212Y126750267D01*
X5579210Y126750269D01*
X5579204Y126750273D01*
X5579199Y126750276D01*
X5579196Y126750278D01*
X5374814Y126868279D01*
X5374809Y126868281D01*
X5374804Y126868284D01*
X5284482Y126905697D01*
X5284481Y126905698D01*
X5156751Y126958605D01*
X4928764Y127019694D01*
X4694774Y127050499D01*
X4694771Y127050500D01*
X4694765Y127050500D01*
X-4458743Y127050500D01*
X-4694765Y127050500D01*
X-4694771Y127050500D01*
X-4694775Y127050499D01*
X-4928767Y127019694D01*
X-5156747Y126958607D01*
X-5374793Y126868290D01*
X-5374808Y126868283D01*
X-5579205Y126750275D01*
X-5766454Y126606592D01*
X-5766462Y126606585D01*
X-7959472Y124413573D01*
X-8020795Y124380088D01*
X-8047153Y124377254D01*
X-12529601Y124377254D01*
X-12596640Y124396939D01*
X-12617282Y124413573D01*
X-20203711Y132000002D01*
X-17625682Y132000002D01*
X-17625682Y131999999D01*
X-17605045Y131843240D01*
X-17605044Y131843238D01*
X-17544536Y131697158D01*
X-17448285Y131571721D01*
X-17448284Y131571720D01*
X-17448282Y131571718D01*
X-17444018Y131568446D01*
X-17402813Y131512022D01*
X-17396982Y131478570D01*
X-17396561Y131478625D01*
X-17395501Y131470568D01*
X-17395500Y131470565D01*
X-17369910Y131375062D01*
X-17369909Y131375061D01*
X-17369909Y131375060D01*
X-17320474Y131289437D01*
X-12518652Y126487615D01*
X-12485167Y126426292D01*
X-12490151Y126356600D01*
X-12507957Y126324448D01*
X-12524536Y126302843D01*
X-12585044Y126156763D01*
X-12585045Y126156761D01*
X-12605682Y126000002D01*
X-12605682Y125999999D01*
X-12585045Y125843240D01*
X-12585044Y125843238D01*
X-12524536Y125697159D01*
X-12428282Y125571718D01*
X-12302841Y125475464D01*
X-12156762Y125414956D01*
X-12078381Y125404637D01*
X-12000001Y125394318D01*
X-12000000Y125394318D01*
X-11999999Y125394318D01*
X-11947746Y125401198D01*
X-11843238Y125414956D01*
X-11697159Y125475464D01*
X-11571718Y125571718D01*
X-11475464Y125697159D01*
X-11414956Y125843238D01*
X-11394318Y126000000D01*
X-11414956Y126156762D01*
X-11475464Y126302841D01*
X-11571718Y126428282D01*
X-11572226Y126428672D01*
X-11575988Y126431559D01*
X-11617190Y126487987D01*
X-11624500Y126529933D01*
X-11624500Y126549433D01*
X-11624500Y126549435D01*
X-11650090Y126644938D01*
X-11699525Y126730562D01*
X-11769438Y126800475D01*
X-15488696Y130519733D01*
X-12326716Y130519733D01*
X-12167947Y130464177D01*
X-12167942Y130464176D01*
X-12000004Y130445254D01*
X-11999996Y130445254D01*
X-11832062Y130464176D01*
X-11832057Y130464177D01*
X-11673287Y130519733D01*
X-11673286Y130519733D01*
X-11999999Y130846446D01*
X-12000000Y130846446D01*
X-12326716Y130519733D01*
X-15488696Y130519733D01*
X-16168967Y131200004D01*
X-12754746Y131200004D01*
X-12754746Y131199997D01*
X-12735824Y131032056D01*
X-12680269Y130873287D01*
X-12353554Y131200000D01*
X-12383391Y131229837D01*
X-12150000Y131229837D01*
X-12150000Y131170163D01*
X-12127164Y131115032D01*
X-12084968Y131072836D01*
X-12029837Y131050000D01*
X-11970163Y131050000D01*
X-11915032Y131072836D01*
X-11872836Y131115032D01*
X-11850000Y131170163D01*
X-11850000Y131200001D01*
X-11646446Y131200001D01*
X-11646446Y131199999D01*
X-11319733Y130873286D01*
X-11319733Y130873287D01*
X-11264177Y131032057D01*
X-11264176Y131032062D01*
X-11245254Y131199997D01*
X-11245254Y131200004D01*
X-11264176Y131367942D01*
X-11264177Y131367947D01*
X-11319733Y131526715D01*
X-11319733Y131526716D01*
X-11646446Y131200001D01*
X-11850000Y131200001D01*
X-11850000Y131229837D01*
X-11872836Y131284968D01*
X-11915032Y131327164D01*
X-11970163Y131350000D01*
X-12029837Y131350000D01*
X-12084968Y131327164D01*
X-12127164Y131284968D01*
X-12150000Y131229837D01*
X-12383391Y131229837D01*
X-12680269Y131526715D01*
X-12735824Y131367945D01*
X-12754746Y131200004D01*
X-16168967Y131200004D01*
X-16492666Y131523703D01*
X-16526151Y131585026D01*
X-16521167Y131654718D01*
X-16503361Y131686869D01*
X-16495464Y131697159D01*
X-16473577Y131750000D01*
X-12196446Y131750000D01*
X-12000000Y131553554D01*
X-11803554Y131750000D01*
X-12000000Y131946446D01*
X-12196446Y131750000D01*
X-16473577Y131750000D01*
X-16434956Y131843238D01*
X-16414318Y132000000D01*
X-16434956Y132156762D01*
X-16494289Y132300004D01*
X-12754746Y132300004D01*
X-12754746Y132299997D01*
X-12735824Y132132056D01*
X-12680269Y131973287D01*
X-12353554Y132300000D01*
X-12383391Y132329837D01*
X-12150000Y132329837D01*
X-12150000Y132270163D01*
X-12127164Y132215032D01*
X-12084968Y132172836D01*
X-12029837Y132150000D01*
X-11970163Y132150000D01*
X-11915032Y132172836D01*
X-11872836Y132215032D01*
X-11850000Y132270163D01*
X-11850000Y132300001D01*
X-11646446Y132300001D01*
X-11646446Y132299999D01*
X-11319733Y131973286D01*
X-11319733Y131973287D01*
X-11264177Y132132057D01*
X-11264176Y132132062D01*
X-11245254Y132299997D01*
X-11245254Y132300004D01*
X-11264176Y132467942D01*
X-11264177Y132467947D01*
X-11319733Y132626715D01*
X-11319733Y132626716D01*
X-11646446Y132300001D01*
X-11850000Y132300001D01*
X-11850000Y132329837D01*
X-11872836Y132384968D01*
X-11915032Y132427164D01*
X-11970163Y132450000D01*
X-12029837Y132450000D01*
X-12084968Y132427164D01*
X-12127164Y132384968D01*
X-12150000Y132329837D01*
X-12383391Y132329837D01*
X-12680269Y132626715D01*
X-12735824Y132467945D01*
X-12754746Y132300004D01*
X-16494289Y132300004D01*
X-16495464Y132302841D01*
X-16591718Y132428282D01*
X-16717159Y132524536D01*
X-16749476Y132537922D01*
X-16863238Y132585044D01*
X-16863240Y132585045D01*
X-17019999Y132605682D01*
X-17020001Y132605682D01*
X-17176761Y132585045D01*
X-17176763Y132585044D01*
X-17322840Y132524537D01*
X-17448282Y132428282D01*
X-17544537Y132302840D01*
X-17605044Y132156763D01*
X-17605045Y132156761D01*
X-17625682Y132000002D01*
X-20203711Y132000002D01*
X-20338047Y132134338D01*
X-20371532Y132195661D01*
X-20366548Y132265353D01*
X-20331567Y132315733D01*
X-20319625Y132326080D01*
X-20319619Y132326088D01*
X-20319613Y132326092D01*
X-20277452Y132370808D01*
X-20277447Y132370813D01*
X-20226561Y132470889D01*
X-20206876Y132537928D01*
X-20194500Y132624000D01*
X-20194500Y132980269D01*
X-12326715Y132980269D01*
X-12000000Y132653554D01*
X-11999999Y132653554D01*
X-11673286Y132980269D01*
X-11832056Y133035824D01*
X-11999996Y133054746D01*
X-12000004Y133054746D01*
X-12167945Y133035824D01*
X-12326715Y132980269D01*
X-20194500Y132980269D01*
X-20194500Y134448638D01*
X-20196251Y134481297D01*
X-20199085Y134507655D01*
X-20199920Y134514660D01*
X-20228297Y134601748D01*
X-20234701Y134621402D01*
X-20234705Y134621412D01*
X-20268190Y134682734D01*
X-20320290Y134752330D01*
X-20320296Y134752337D01*
X-20320298Y134752340D01*
X-20320302Y134752344D01*
X-20320308Y134752351D01*
X-20747647Y135179689D01*
X-20747651Y135179693D01*
X-20747660Y135179702D01*
X-20771992Y135201558D01*
X-20792634Y135218192D01*
X-20792637Y135218194D01*
X-20792675Y135218225D01*
X-20798173Y135222552D01*
X-20798175Y135222553D01*
X-20898253Y135273440D01*
X-20965284Y135293123D01*
X-20965290Y135293124D01*
X-21051362Y135305500D01*
X-23948638Y135305500D01*
X-23948639Y135305500D01*
X-23981282Y135303750D01*
X-23981291Y135303750D01*
X-23981297Y135303749D01*
X-23981302Y135303749D01*
X-23981335Y135303746D01*
X-24007626Y135300919D01*
X-24014661Y135300080D01*
X-24014663Y135300080D01*
X-24121402Y135265300D01*
X-24121412Y135265296D01*
X-24182734Y135231811D01*
X-24252330Y135179711D01*
X-24252351Y135179693D01*
X-24679689Y134752354D01*
X-24679705Y134752337D01*
X-24701560Y134728007D01*
X-24718225Y134707326D01*
X-24722552Y134701828D01*
X-24722553Y134701826D01*
X-24773440Y134601748D01*
X-24793123Y134534717D01*
X-24793124Y134534710D01*
X-24805500Y134448638D01*
X-32000000Y134448638D01*
X-32000000Y138500002D01*
X-5605682Y138500002D01*
X-5605682Y138499999D01*
X-5585045Y138343240D01*
X-5585044Y138343238D01*
X-5524536Y138197158D01*
X-5428285Y138071721D01*
X-5428284Y138071720D01*
X-5428282Y138071718D01*
X-5424018Y138068446D01*
X-5382813Y138012022D01*
X-5375500Y137970068D01*
X-5375500Y137950564D01*
X-5362711Y137902834D01*
X-5362705Y137902813D01*
X-5349911Y137855064D01*
X-5349910Y137855062D01*
X-5346933Y137849905D01*
X-5346931Y137849903D01*
X-5300477Y137769441D01*
X-5300475Y137769438D01*
X-5300474Y137769437D01*
X-4730563Y137199525D01*
X-4730562Y137199524D01*
X-4730560Y137199523D01*
X-4726465Y137197159D01*
X-4644937Y137150089D01*
X-4549436Y137124500D01*
X-4549435Y137124500D01*
X2470067Y137124500D01*
X2537106Y137104815D01*
X2568441Y137075988D01*
X2571328Y137072226D01*
X2571718Y137071718D01*
X2697159Y136975464D01*
X2843238Y136914956D01*
X2921619Y136904637D01*
X2999999Y136894318D01*
X3000000Y136894318D01*
X3000001Y136894318D01*
X3052254Y136901198D01*
X3156762Y136914956D01*
X3302841Y136975464D01*
X3428282Y137071718D01*
X3524536Y137197159D01*
X3585044Y137343238D01*
X3605682Y137500000D01*
X3585044Y137656762D01*
X3524536Y137802841D01*
X3428282Y137928282D01*
X3302841Y138024536D01*
X3286709Y138031218D01*
X3156762Y138085044D01*
X3156760Y138085045D01*
X3000001Y138105682D01*
X2999999Y138105682D01*
X2843239Y138085045D01*
X2843237Y138085044D01*
X2697160Y138024537D01*
X2697159Y138024536D01*
X2571718Y137928282D01*
X2571716Y137928281D01*
X2571715Y137928279D01*
X2568441Y137924012D01*
X2512013Y137882810D01*
X2470067Y137875500D01*
X-4293100Y137875500D01*
X-4360139Y137895185D01*
X-4380777Y137911815D01*
X-4481351Y138012388D01*
X-4514834Y138073708D01*
X-4509850Y138143400D01*
X-4492046Y138175550D01*
X-4475464Y138197159D01*
X-4414956Y138343238D01*
X-4394318Y138500000D01*
X-4414956Y138656762D01*
X-4475464Y138802841D01*
X-4571718Y138928282D01*
X-4697159Y139024536D01*
X-4843238Y139085044D01*
X-4843240Y139085045D01*
X-4999999Y139105682D01*
X-5000001Y139105682D01*
X-5156761Y139085045D01*
X-5156763Y139085044D01*
X-5302840Y139024537D01*
X-5428282Y138928282D01*
X-5524537Y138802840D01*
X-5585044Y138656763D01*
X-5585045Y138656761D01*
X-5605682Y138500002D01*
X-32000000Y138500002D01*
X-32000000Y140850002D01*
X3845254Y140850002D01*
X3845254Y140849999D01*
X3849220Y140814802D01*
X3850000Y140800917D01*
X3850000Y139599084D01*
X3849220Y139585200D01*
X3845254Y139550002D01*
X3845254Y139549999D01*
X3849220Y139514802D01*
X3850000Y139500917D01*
X3850000Y139252156D01*
X3856401Y139192628D01*
X3856403Y139192618D01*
X3865275Y139168832D01*
X4335541Y139639097D01*
X4396864Y139672582D01*
X4466555Y139667598D01*
X4490242Y139652375D01*
X4472836Y139634968D01*
X4450000Y139579837D01*
X4450000Y139520163D01*
X4472836Y139465032D01*
X4515032Y139422836D01*
X4570163Y139400000D01*
X4629837Y139400000D01*
X4684968Y139422836D01*
X4701082Y139438951D01*
X4722580Y139399582D01*
X4717596Y139329890D01*
X4689095Y139285543D01*
X4218829Y138815277D01*
X4242624Y138806402D01*
X4302155Y138800001D01*
X4302172Y138800000D01*
X4550916Y138800000D01*
X4564800Y138799220D01*
X4599998Y138795254D01*
X4600002Y138795254D01*
X4635200Y138799220D01*
X4649084Y138800000D01*
X5000000Y138800000D01*
X5500000Y138800000D01*
X5850916Y138800000D01*
X5864800Y138799220D01*
X5899998Y138795254D01*
X5900002Y138795254D01*
X5935200Y138799220D01*
X5949084Y138800000D01*
X6197828Y138800000D01*
X6197844Y138800001D01*
X6257372Y138806402D01*
X6257378Y138806403D01*
X6281168Y138815277D01*
X6281168Y138815278D01*
X5810904Y139285542D01*
X5777419Y139346865D01*
X5782403Y139416557D01*
X5797625Y139440243D01*
X5815032Y139422836D01*
X5870163Y139400000D01*
X5929837Y139400000D01*
X5984968Y139422836D01*
X6027164Y139465032D01*
X6050000Y139520163D01*
X6050000Y139579837D01*
X6027164Y139634968D01*
X6011048Y139651084D01*
X6050419Y139672581D01*
X6120111Y139667597D01*
X6164458Y139639096D01*
X6634722Y139168832D01*
X6634723Y139168832D01*
X6643597Y139192622D01*
X6643598Y139192628D01*
X6649999Y139252156D01*
X6650000Y139252173D01*
X6650000Y139500917D01*
X6650780Y139514802D01*
X6654746Y139549999D01*
X6654746Y139550002D01*
X6650780Y139585200D01*
X6650000Y139599084D01*
X6650000Y140800917D01*
X6650780Y140814802D01*
X6654746Y140849999D01*
X6654746Y140850002D01*
X6650780Y140885200D01*
X6650000Y140899084D01*
X6650000Y141250000D01*
X5500000Y141250000D01*
X5500000Y138800000D01*
X5000000Y138800000D01*
X5000000Y141250000D01*
X3850000Y141250000D01*
X3850000Y140899084D01*
X3849220Y140885200D01*
X3845254Y140850002D01*
X-32000000Y140850002D01*
X-32000000Y143450002D01*
X3845254Y143450002D01*
X3845254Y143449999D01*
X3849220Y143414802D01*
X3850000Y143400917D01*
X3850000Y142199084D01*
X3849220Y142185200D01*
X3845254Y142150002D01*
X3845254Y142149999D01*
X3849220Y142114802D01*
X3850000Y142100917D01*
X3850000Y141750000D01*
X5000000Y141750000D01*
X5000000Y144200000D01*
X5500000Y144200000D01*
X5500000Y141750000D01*
X6650000Y141750000D01*
X6650000Y142100917D01*
X6650780Y142114802D01*
X6654746Y142149999D01*
X6654746Y142150002D01*
X6650780Y142185200D01*
X6650000Y142199084D01*
X6650000Y143400917D01*
X6650780Y143414802D01*
X6654746Y143449999D01*
X6654746Y143450002D01*
X6650780Y143485200D01*
X6650000Y143499084D01*
X6650000Y143747828D01*
X6649999Y143747845D01*
X6643598Y143807376D01*
X6634723Y143831171D01*
X6164457Y143360905D01*
X6103134Y143327420D01*
X6033442Y143332404D01*
X6009757Y143347626D01*
X6027164Y143365032D01*
X6050000Y143420163D01*
X6050000Y143479837D01*
X6027164Y143534968D01*
X5984968Y143577164D01*
X5929837Y143600000D01*
X5870163Y143600000D01*
X5815032Y143577164D01*
X5798916Y143561049D01*
X5777418Y143600420D01*
X5782402Y143670112D01*
X5810903Y143714459D01*
X6281168Y144184725D01*
X6257382Y144193597D01*
X6257372Y144193599D01*
X6197844Y144200000D01*
X5949084Y144200000D01*
X5935200Y144200780D01*
X5900002Y144204746D01*
X5899998Y144204746D01*
X5864800Y144200780D01*
X5850916Y144200000D01*
X5500000Y144200000D01*
X5000000Y144200000D01*
X4649084Y144200000D01*
X4635200Y144200780D01*
X4600002Y144204746D01*
X4599998Y144204746D01*
X4564800Y144200780D01*
X4550916Y144200000D01*
X4302155Y144200000D01*
X4242626Y144193599D01*
X4218829Y144184724D01*
X4689095Y143714458D01*
X4722580Y143653135D01*
X4717596Y143583443D01*
X4702374Y143559758D01*
X4684968Y143577164D01*
X4629837Y143600000D01*
X4570163Y143600000D01*
X4515032Y143577164D01*
X4472836Y143534968D01*
X4450000Y143479837D01*
X4450000Y143420163D01*
X4472836Y143365032D01*
X4488950Y143348918D01*
X4449581Y143327420D01*
X4379889Y143332404D01*
X4335542Y143360905D01*
X3865276Y143831171D01*
X3856401Y143807374D01*
X3850000Y143747845D01*
X3850000Y143499084D01*
X3849220Y143485200D01*
X3845254Y143450002D01*
X-32000000Y143450002D01*
X-32000000Y146000000D01*
X-29155429Y146000000D01*
X-29135756Y145787690D01*
X-29082325Y145599901D01*
X-29077404Y145582608D01*
X-29077404Y145582606D01*
X-28982368Y145391747D01*
X-28910615Y145296732D01*
X-28853872Y145221593D01*
X-28696302Y145077948D01*
X-28515019Y144965702D01*
X-28316198Y144888679D01*
X-28106610Y144849500D01*
X-28106608Y144849500D01*
X-27893392Y144849500D01*
X-27893390Y144849500D01*
X-27683802Y144888679D01*
X-27484981Y144965702D01*
X-27303698Y145077948D01*
X-27146128Y145221593D01*
X-27032953Y145371460D01*
X-26976845Y145413095D01*
X-26907133Y145417786D01*
X-26845951Y145384044D01*
X-26812724Y145322581D01*
X-26810000Y145296732D01*
X-26810000Y145102156D01*
X-26803599Y145042628D01*
X-26803597Y145042621D01*
X-26753355Y144907914D01*
X-26753351Y144907907D01*
X-26667191Y144792813D01*
X-26667188Y144792810D01*
X-26552094Y144706650D01*
X-26552087Y144706646D01*
X-26417380Y144656404D01*
X-26417373Y144656402D01*
X-26357845Y144650001D01*
X-26357828Y144650000D01*
X-25710000Y144650000D01*
X-25710000Y145566988D01*
X-25652993Y145534075D01*
X-25525826Y145500000D01*
X-25394174Y145500000D01*
X-25267007Y145534075D01*
X-25210000Y145566988D01*
X-25210000Y144650000D01*
X-24562172Y144650000D01*
X-24562156Y144650001D01*
X-24502628Y144656402D01*
X-24502621Y144656404D01*
X-24367914Y144706646D01*
X-24367907Y144706650D01*
X-24252813Y144792810D01*
X-24252810Y144792813D01*
X-24166650Y144907907D01*
X-24166646Y144907914D01*
X-24116404Y145042621D01*
X-24116402Y145042628D01*
X-24110001Y145102156D01*
X-24110000Y145102173D01*
X-24110000Y145750000D01*
X-25026988Y145750000D01*
X-24994075Y145807007D01*
X-24960000Y145934174D01*
X-24960000Y146065826D01*
X-24994075Y146192993D01*
X-25026988Y146250000D01*
X-24110000Y146250000D01*
X-24110000Y146897828D01*
X-24110001Y146897845D01*
X24110000Y146897845D01*
X24110000Y146250000D01*
X25026988Y146250000D01*
X24994075Y146192993D01*
X24960000Y146065826D01*
X24960000Y145934174D01*
X24994075Y145807007D01*
X25026988Y145750000D01*
X24110000Y145750000D01*
X24110000Y145102156D01*
X24116401Y145042628D01*
X24116403Y145042621D01*
X24166645Y144907914D01*
X24166649Y144907907D01*
X24252809Y144792813D01*
X24252812Y144792810D01*
X24367906Y144706650D01*
X24367913Y144706646D01*
X24502620Y144656404D01*
X24502627Y144656402D01*
X24562155Y144650001D01*
X24562172Y144650000D01*
X25210000Y144650000D01*
X25210000Y145566988D01*
X25267007Y145534075D01*
X25394174Y145500000D01*
X25525826Y145500000D01*
X25652993Y145534075D01*
X25710000Y145566988D01*
X25710000Y144650000D01*
X26357828Y144650000D01*
X26357844Y144650001D01*
X26417372Y144656402D01*
X26417379Y144656404D01*
X26552086Y144706646D01*
X26552093Y144706650D01*
X26667187Y144792810D01*
X26667190Y144792813D01*
X26753350Y144907907D01*
X26753354Y144907914D01*
X26803596Y145042621D01*
X26803598Y145042628D01*
X26809999Y145102156D01*
X26810000Y145102173D01*
X26810000Y145296732D01*
X26829685Y145363771D01*
X26882489Y145409526D01*
X26951647Y145419470D01*
X27015203Y145390445D01*
X27032950Y145371463D01*
X27146128Y145221593D01*
X27303698Y145077948D01*
X27484981Y144965702D01*
X27683802Y144888679D01*
X27893390Y144849500D01*
X27893392Y144849500D01*
X28106608Y144849500D01*
X28106610Y144849500D01*
X28316198Y144888679D01*
X28515019Y144965702D01*
X28696302Y145077948D01*
X28853872Y145221593D01*
X28982366Y145391745D01*
X29036270Y145500000D01*
X29077403Y145582606D01*
X29077403Y145582607D01*
X29077405Y145582611D01*
X29135756Y145787690D01*
X29155429Y146000000D01*
X29135756Y146212310D01*
X29077405Y146417389D01*
X29077403Y146417394D01*
X29077403Y146417395D01*
X28982367Y146608254D01*
X28853872Y146778407D01*
X28722874Y146897828D01*
X28696302Y146922052D01*
X28515019Y147034298D01*
X28515017Y147034299D01*
X28365829Y147092094D01*
X28316198Y147111321D01*
X28106610Y147150500D01*
X27893390Y147150500D01*
X27683802Y147111321D01*
X27683799Y147111321D01*
X27683799Y147111320D01*
X27484982Y147034299D01*
X27484980Y147034298D01*
X27303699Y146922053D01*
X27146127Y146778407D01*
X27032954Y146628542D01*
X26976845Y146586906D01*
X26907133Y146582215D01*
X26845951Y146615957D01*
X26812724Y146677421D01*
X26810000Y146703269D01*
X26810000Y146897828D01*
X26809999Y146897845D01*
X26803598Y146957373D01*
X26803596Y146957380D01*
X26753354Y147092087D01*
X26753350Y147092094D01*
X26667190Y147207188D01*
X26667187Y147207191D01*
X26552093Y147293351D01*
X26552086Y147293355D01*
X26417379Y147343597D01*
X26417372Y147343599D01*
X26357844Y147350000D01*
X25710000Y147350000D01*
X25710000Y146433012D01*
X25652993Y146465925D01*
X25525826Y146500000D01*
X25394174Y146500000D01*
X25267007Y146465925D01*
X25210000Y146433012D01*
X25210000Y147350000D01*
X24562155Y147350000D01*
X24502627Y147343599D01*
X24502620Y147343597D01*
X24367913Y147293355D01*
X24367906Y147293351D01*
X24252812Y147207191D01*
X24252809Y147207188D01*
X24166649Y147092094D01*
X24166645Y147092087D01*
X24116403Y146957380D01*
X24116401Y146957373D01*
X24110000Y146897845D01*
X-24110001Y146897845D01*
X-24116402Y146957373D01*
X-24116404Y146957380D01*
X-24166646Y147092087D01*
X-24166650Y147092094D01*
X-24252810Y147207188D01*
X-24252813Y147207191D01*
X-24367907Y147293351D01*
X-24367914Y147293355D01*
X-24502621Y147343597D01*
X-24502628Y147343599D01*
X-24562156Y147350000D01*
X-25210000Y147350000D01*
X-25210000Y146433012D01*
X-25267007Y146465925D01*
X-25394174Y146500000D01*
X-25525826Y146500000D01*
X-25652993Y146465925D01*
X-25710000Y146433012D01*
X-25710000Y147350000D01*
X-26357845Y147350000D01*
X-26417373Y147343599D01*
X-26417380Y147343597D01*
X-26552087Y147293355D01*
X-26552094Y147293351D01*
X-26667188Y147207191D01*
X-26667191Y147207188D01*
X-26753351Y147092094D01*
X-26753355Y147092087D01*
X-26803597Y146957380D01*
X-26803599Y146957373D01*
X-26810000Y146897845D01*
X-26810000Y146703269D01*
X-26829685Y146636230D01*
X-26882489Y146590475D01*
X-26951647Y146580531D01*
X-27015203Y146609556D01*
X-27032954Y146628542D01*
X-27146128Y146778407D01*
X-27277126Y146897828D01*
X-27303698Y146922052D01*
X-27484981Y147034298D01*
X-27484983Y147034299D01*
X-27634171Y147092094D01*
X-27683802Y147111321D01*
X-27893390Y147150500D01*
X-28106610Y147150500D01*
X-28316198Y147111321D01*
X-28316201Y147111321D01*
X-28316201Y147111320D01*
X-28515018Y147034299D01*
X-28515020Y147034298D01*
X-28696301Y146922053D01*
X-28853873Y146778407D01*
X-28982368Y146608254D01*
X-29077404Y146417395D01*
X-29077404Y146417393D01*
X-29135756Y146212311D01*
X-29149329Y146065826D01*
X-29155429Y146000000D01*
X-32000000Y146000000D01*
X-32000000Y148948638D01*
X-31980315Y149015677D01*
X-31963681Y149036319D01*
X-31536319Y149463681D01*
X-31474996Y149497166D01*
X-31448638Y149500000D01*
X31448638Y149500000D01*
X31515677Y149480315D01*
G37*
G04 #@! TD.AperFunction*
M02*
