<?xml version="1.0" encoding="UTF-8" standalone="no"?>
<svg id="logo_NBB_profile" width="100mm" height="125mm" viewBox="0 0 100 125" version="1.1" xmlns="http://www.w3.org/2000/svg" xmlns:svg="http://www.w3.org/2000/svg">
	<path class="profile" id="head" d="M 36.766274,124.56293 C 36.43594,122.21923 35.11219,102.19327 33.858365,100.59719 30.967333,98.039539 26.56689,98.31006 23.080291,99.23721 20.097634,99.082276 16.885914,99.642988 14.238413,97.877226 10.985701,94.274373 11.371495,89.316454 12.058688,84.783991 L 11.453474,83.424006 9.7584006,82.92969 C 8.9096572,81.766448 8.8734894,79.949036 9.2737493,78.606266 L 9.8789605,78.111949 8.6685371,77.617633 7.5786737,76.506036 C 7.95241,74.270546 9.1797114,71.811261 9.6378407,69.588067 6.9951628,68.481388 2.3994114,68.695347 1.1600537,65.75896 0.51626267,63.425099 12.574685,47.188897 13.150962,45.253439 9.6981207,21.388535 22.583584,4.1120555 46.213365,1.7757344 63.856132,0.65184101 84.621403,4.6358832 94.538679,21.169658 c 6.604281,12.325939 5.299826,27.300526 -0.605212,39.653516 -3.214133,6.049842 -8.007602,12.175921 -10.416393,18.65368 -3.460075,14.708985 3.373272,29.813916 6.662151,43.976936" style="fill-opacity:0;stroke:#FFFFFF;stroke-width:0.5"/>
<g id="Atoms">
	<rect class="box" id="box_Atoms" transform="scale(1,1) translate(0, 0)" x="36.111000" y="39.084000" width="13.0" height="13.0" style="fill:#FFFFFF;fill-opacity:1;stroke:#000000;stroke-width:0.5;stroke-linecap:round;stroke-linejoin:miter;stroke-miterlimit:4;stroke-opacity:1"/>
</g>
<g id="Electrons">
	<rect class="box" id="box_Electrons" transform="scale(1,1) translate(0, 0)" x="49.056000" y="41.834000" width="13.0" height="13.0" style="fill:#FFFFFF;fill-opacity:1;stroke:#000000;stroke-width:0.5;stroke-linecap:round;stroke-linejoin:miter;stroke-miterlimit:4;stroke-opacity:1"/>
</g>
<g id="Magnets">
	<rect class="box" id="box_Magnets" transform="scale(1,1) translate(0, 0)" x="50.787000" y="32.810000" width="13.0" height="13.0" style="fill:#FFFFFF;fill-opacity:1;stroke:#000000;stroke-width:0.5;stroke-linecap:round;stroke-linejoin:miter;stroke-miterlimit:4;stroke-opacity:1"/>
</g>
<g id="Light">
	<rect class="box" id="box_Light" transform="scale(1,1) translate(0, 0)" x="62.432000" y="38.147000" width="13.0" height="13.0" style="fill:#FFFFFF;fill-opacity:1;stroke:#000000;stroke-width:0.5;stroke-linecap:round;stroke-linejoin:miter;stroke-miterlimit:4;stroke-opacity:1"/>
</g>
<g id="Sensors">
	<rect class="box" id="box_Sensors" transform="scale(1,1) translate(0, 0)" x="57.633000" y="30.232000" width="13.0" height="13.0" style="fill:#FFFFFF;fill-opacity:1;stroke:#000000;stroke-width:0.5;stroke-linecap:round;stroke-linejoin:miter;stroke-miterlimit:4;stroke-opacity:1"/>
</g>
<g id="Motors">
	<rect class="box" id="box_Motors" transform="scale(1,1) translate(0, 0)" x="66.730000" y="33.465000" width="13.0" height="13.0" style="fill:#000000;fill-opacity:1;stroke:#000000;stroke-width:0.5;stroke-linecap:round;stroke-linejoin:miter;stroke-miterlimit:4;stroke-opacity:1"/>
</g>
<g id="Transistors">
	<rect class="box" id="box_Transistors" transform="scale(1,1) translate(0, 0)" x="74.113000" y="41.489000" width="13.0" height="13.0" style="fill:#FFFFFF;fill-opacity:1;stroke:#000000;stroke-width:0.5;stroke-linecap:round;stroke-linejoin:miter;stroke-miterlimit:4;stroke-opacity:1"/>
</g>
<g id="Amplifiers">
	<rect class="box" id="box_Amplifiers" transform="scale(1,1) translate(0, 0)" x="77.266000" y="30.664000" width="13.0" height="13.0" style="fill:#FFFFFF;fill-opacity:1;stroke:#000000;stroke-width:0.5;stroke-linecap:round;stroke-linejoin:miter;stroke-miterlimit:4;stroke-opacity:1"/>
</g>
<g id="Circuits">
	<rect class="box" id="box_Circuits" transform="scale(1,1) translate(0, 0)" x="73.657000" y="23.046000" width="13.0" height="13.0" style="fill:#FFFFFF;fill-opacity:1;stroke:#000000;stroke-width:0.5;stroke-linecap:round;stroke-linejoin:miter;stroke-miterlimit:4;stroke-opacity:1"/>
</g>
<g id="Power">
	<rect class="box" id="box_Power" transform="scale(1,1) translate(0, 0)" x="68.446000" y="18.572000" width="13.0" height="13.0" style="fill:#FFFFFF;fill-opacity:1;stroke:#000000;stroke-width:0.5;stroke-linecap:round;stroke-linejoin:miter;stroke-miterlimit:4;stroke-opacity:1"/>
</g>
<g id="Data">
	<rect class="box" id="box_Data" transform="scale(1,1) translate(0, 0)" x="63.531000" y="14.627000" width="13.0" height="13.0" style="fill:#FFFFFF;fill-opacity:1;stroke:#000000;stroke-width:0.5;stroke-linecap:round;stroke-linejoin:miter;stroke-miterlimit:4;stroke-opacity:1"/>
</g>
<g id="Logic">
	<rect class="box" id="box_Logic" transform="scale(1,1) translate(0, 0)" x="54.949000" y="12.757000" width="13.0" height="13.0" style="fill:#FFFFFF;fill-opacity:1;stroke:#000000;stroke-width:0.5;stroke-linecap:round;stroke-linejoin:miter;stroke-miterlimit:4;stroke-opacity:1"/>
</g>
<g id="Memory">
	<rect class="box" id="box_Memory" transform="scale(1,1) translate(0, 0)" x="60.655000" y="25.185000" width="13.0" height="13.0" style="fill:#FFFFFF;fill-opacity:1;stroke:#000000;stroke-width:0.5;stroke-linecap:round;stroke-linejoin:miter;stroke-miterlimit:4;stroke-opacity:1"/>
</g>
<g id="FPGAs">
	<rect class="box" id="box_FPGAs" transform="scale(1,1) translate(0, 0)" x="50.271000" y="21.576000" width="13.0" height="13.0" style="fill:#000000;fill-opacity:1;stroke:#000000;stroke-width:0.5;stroke-linecap:round;stroke-linejoin:miter;stroke-miterlimit:4;stroke-opacity:1"/>
</g>
<g id="Computers">
	<rect class="box" id="box_Computers" transform="scale(1,1) translate(0, 0)" x="45.460000" y="11.821000" width="13.0" height="13.0" style="fill:#FFFFFF;fill-opacity:1;stroke:#000000;stroke-width:0.5;stroke-linecap:round;stroke-linejoin:miter;stroke-miterlimit:4;stroke-opacity:1"/>
</g>
<g id="Control">
	<rect class="box" id="box_Control" transform="scale(1,1) translate(0, 0)" x="35.438000" y="13.826000" width="13.0" height="13.0" style="fill:#FFFFFF;fill-opacity:1;stroke:#000000;stroke-width:0.5;stroke-linecap:round;stroke-linejoin:miter;stroke-miterlimit:4;stroke-opacity:1"/>
</g>
<g id="Robotics">
	<rect class="box" id="box_Robotics" transform="scale(1,1) translate(0, 0)" x="40.347000" y="23.227000" width="13.0" height="13.0" style="fill:#FFFFFF;fill-opacity:1;stroke:#000000;stroke-width:0.5;stroke-linecap:round;stroke-linejoin:miter;stroke-miterlimit:4;stroke-opacity:1"/>
</g>
<g id="Systems">
	<rect class="box" id="box_Systems" transform="scale(1,1) translate(0, 0)" x="34.536000" y="27.456000" width="13.0" height="13.0" style="fill:#FFFFFF;fill-opacity:1;stroke:#000000;stroke-width:0.5;stroke-linecap:round;stroke-linejoin:miter;stroke-miterlimit:4;stroke-opacity:1"/>
</g>
<g id="Linux">
	<rect class="box" id="box_Linux" transform="scale(1,1) translate(0, 0)" x="27.519000" y="16.498000" width="13.0" height="13.0" style="fill:#FFFFFF;fill-opacity:1;stroke:#000000;stroke-width:0.5;stroke-linecap:round;stroke-linejoin:miter;stroke-miterlimit:4;stroke-opacity:1"/>
</g>
<g id="Python">
	<rect class="box" id="box_Python" transform="scale(1,1) translate(0, 0)" x="21.807000" y="21.443000" width="13.0" height="13.0" style="fill:#000000;fill-opacity:1;stroke:#000000;stroke-width:0.5;stroke-linecap:round;stroke-linejoin:miter;stroke-miterlimit:4;stroke-opacity:1"/>
</g>
<g id="Networks">
	<rect class="box" id="box_Networks" transform="scale(1,1) translate(0, 0)" x="18.733000" y="26.922000" width="13.0" height="13.0" style="fill:#FFFFFF;fill-opacity:1;stroke:#000000;stroke-width:0.5;stroke-linecap:round;stroke-linejoin:miter;stroke-miterlimit:4;stroke-opacity:1"/>
</g>
<g id="Websites">
	<rect class="box" id="box_Websites" transform="scale(1,1) translate(0, 0)" x="21.807000" y="33.470000" width="13.0" height="13.0" style="fill:#FFFFFF;fill-opacity:1;stroke:#000000;stroke-width:0.5;stroke-linecap:round;stroke-linejoin:miter;stroke-miterlimit:4;stroke-opacity:1"/>
</g>
<g id="Servers">
	<rect class="box" id="box_Servers" transform="scale(1,1) translate(0, 0)" x="54.552000" y="48.843000" width="13.0" height="13.0" style="fill:#FFFFFF;fill-opacity:1;stroke:#000000;stroke-width:0.5;stroke-linecap:round;stroke-linejoin:miter;stroke-miterlimit:4;stroke-opacity:1"/>
</g>
<g id="Security">
	<rect class="box" id="box_Security" transform="scale(1,1) translate(0, 0)" x="70.787000" y="46.432000" width="13.0" height="13.0" style="fill:#FFFFFF;fill-opacity:1;stroke:#000000;stroke-width:0.5;stroke-linecap:round;stroke-linejoin:miter;stroke-miterlimit:4;stroke-opacity:1"/>
</g>
<g id="Audio">
	<rect class="box" id="box_Audio" transform="scale(1,1) translate(0, 0)" x="61.365000" y="51.345000" width="13.0" height="13.0" style="fill:#000000;fill-opacity:1;stroke:#000000;stroke-width:0.5;stroke-linecap:round;stroke-linejoin:miter;stroke-miterlimit:4;stroke-opacity:1"/>
</g>
<g id="Vision">
	<rect class="box" id="box_Vision" transform="scale(1,1) translate(0, 0)" x="66.080000" y="57.178000" width="13.0" height="13.0" style="fill:#FFFFFF;fill-opacity:1;stroke:#000000;stroke-width:0.5;stroke-linecap:round;stroke-linejoin:miter;stroke-miterlimit:4;stroke-opacity:1"/>
</g>
<g id="Learning">
	<rect class="box" id="box_Learning" transform="scale(1,1) translate(0, 0)" x="28.050000" y="36.314000" width="13.0" height="13.0" style="fill:#FFFFFF;fill-opacity:1;stroke:#000000;stroke-width:0.5;stroke-linecap:round;stroke-linejoin:miter;stroke-miterlimit:4;stroke-opacity:1"/>
</g>
<g id="Intelligence">
	<rect class="box" id="box_Intelligence" transform="scale(1,1) translate(0, 0)" x="37.787000" y="32.810000" width="13.0" height="13.0" style="fill:#000000;fill-opacity:1;stroke:#000000;stroke-width:0.5;stroke-linecap:round;stroke-linejoin:miter;stroke-miterlimit:4;stroke-opacity:1"/>
</g>
</svg>