<?xml version="1.0" encoding="UTF-8" standalone="no"?>
<svg id="logo_NBB_profile" width="100mm" height="125mm" viewBox="0 0 100 125" version="1.1" xmlns="http://www.w3.org/2000/svg" xmlns:svg="http://www.w3.org/2000/svg">
	<path class="profile" id="head" d="M 36.766274,124.56293 C 36.43594,122.21923 35.11219,102.19327 33.858365,100.59719 30.967333,98.039539 26.56689,98.31006 23.080291,99.23721 20.097634,99.082276 16.885914,99.642988 14.238413,97.877226 10.985701,94.274373 11.371495,89.316454 12.058688,84.783991 L 11.453474,83.424006 9.7584006,82.92969 C 8.9096572,81.766448 8.8734894,79.949036 9.2737493,78.606266 L 9.8789605,78.111949 8.6685371,77.617633 7.5786737,76.506036 C 7.95241,74.270546 9.1797114,71.811261 9.6378407,69.588067 6.9951628,68.481388 2.3994114,68.695347 1.1600537,65.75896 0.51626267,63.425099 12.574685,47.188897 13.150962,45.253439 9.6981207,21.388535 22.583584,4.1120555 46.213365,1.7757344 63.856132,0.65184101 84.621403,4.6358832 94.538679,21.169658 c 6.604281,12.325939 5.299826,27.300526 -0.605212,39.653516 -3.214133,6.049842 -8.007602,12.175921 -10.416393,18.65368 -3.460075,14.708985 3.373272,29.813916 6.662151,43.976936" style="fill-opacity:0;stroke:#FFFFFF;stroke-width:0.5"/>
<g id="Atoms" transform="scale(1,1) translate(0, 0)" style="fill:#FFFFFF;stroke:#000000;font-size:0.0px;">
	<rect class="box" id="box_Atoms" x="36.111" y="39.084" width="13.0" height="13.0" style="fill-opacity:1;stroke-width:0.5;stroke-linecap:round;stroke-linejoin:miter;stroke-miterlimit:4;stroke-opacity:1"/>
</g>
<g id="Electrons" transform="scale(1,1) translate(0, 0)" style="fill:#FFFFFF;stroke:#000000;font-size:0.0px;">
	<rect class="box" id="box_Electrons" x="49.056" y="41.834" width="13.0" height="13.0" style="fill-opacity:1;stroke-width:0.5;stroke-linecap:round;stroke-linejoin:miter;stroke-miterlimit:4;stroke-opacity:1"/>
</g>
<g id="Magnets" transform="scale(1,1) translate(0, 0)" style="fill:#FFFFFF;stroke:#000000;font-size:0.0px;">
	<rect class="box" id="box_Magnets" x="50.787" y="32.810" width="13.0" height="13.0" style="fill-opacity:1;stroke-width:0.5;stroke-linecap:round;stroke-linejoin:miter;stroke-miterlimit:4;stroke-opacity:1"/>
</g>
<g id="Light" transform="scale(1,1) translate(0, 0)" style="fill:#FFFFFF;stroke:#000000;font-size:0.0px;">
	<rect class="box" id="box_Light" x="62.432" y="38.147" width="13.0" height="13.0" style="fill-opacity:1;stroke-width:0.5;stroke-linecap:round;stroke-linejoin:miter;stroke-miterlimit:4;stroke-opacity:1"/>
</g>
<g id="Sensors" transform="scale(1,1) translate(0, 0)" style="fill:#FFFFFF;stroke:#000000;font-size:0.0px;">
	<rect class="box" id="box_Sensors" x="57.633" y="30.232" width="13.0" height="13.0" style="fill-opacity:1;stroke-width:0.5;stroke-linecap:round;stroke-linejoin:miter;stroke-miterlimit:4;stroke-opacity:1"/>
</g>
<g id="Motors" transform="scale(1,1) translate(0, 0)" style="fill:#000000;stroke:#000000;font-size:0.0px;">
	<rect class="box" id="box_Motors" x="66.730" y="33.465" width="13.0" height="13.0" style="fill-opacity:1;stroke-width:0.5;stroke-linecap:round;stroke-linejoin:miter;stroke-miterlimit:4;stroke-opacity:1"/>
</g>
<g id="Transistors" transform="scale(1,1) translate(0, 0)" style="fill:#FFFFFF;stroke:#000000;font-size:0.0px;">
	<rect class="box" id="box_Transistors" x="74.113" y="41.489" width="13.0" height="13.0" style="fill-opacity:1;stroke-width:0.5;stroke-linecap:round;stroke-linejoin:miter;stroke-miterlimit:4;stroke-opacity:1"/>
</g>
<g id="Amplifiers" transform="scale(1,1) translate(0, 0)" style="fill:#FFFFFF;stroke:#000000;font-size:0.0px;">
	<rect class="box" id="box_Amplifiers" x="77.266" y="30.664" width="13.0" height="13.0" style="fill-opacity:1;stroke-width:0.5;stroke-linecap:round;stroke-linejoin:miter;stroke-miterlimit:4;stroke-opacity:1"/>
</g>
<g id="Circuits" transform="scale(1,1) translate(0, 0)" style="fill:#FFFFFF;stroke:#000000;font-size:0.0px;">
	<rect class="box" id="box_Circuits" x="73.657" y="23.046" width="13.0" height="13.0" style="fill-opacity:1;stroke-width:0.5;stroke-linecap:round;stroke-linejoin:miter;stroke-miterlimit:4;stroke-opacity:1"/>
</g>
<g id="Power" transform="scale(1,1) translate(0, 0)" style="fill:#FFFFFF;stroke:#000000;font-size:0.0px;">
	<rect class="box" id="box_Power" x="68.446" y="18.572" width="13.0" height="13.0" style="fill-opacity:1;stroke-width:0.5;stroke-linecap:round;stroke-linejoin:miter;stroke-miterlimit:4;stroke-opacity:1"/>
</g>
<g id="Data" transform="scale(1,1) translate(0, 0)" style="fill:#FFFFFF;stroke:#000000;font-size:0.0px;">
	<rect class="box" id="box_Data" x="63.531" y="14.627" width="13.0" height="13.0" style="fill-opacity:1;stroke-width:0.5;stroke-linecap:round;stroke-linejoin:miter;stroke-miterlimit:4;stroke-opacity:1"/>
</g>
<g id="Logic" transform="scale(1,1) translate(0, 0)" style="fill:#FFFFFF;stroke:#000000;font-size:0.0px;">
	<rect class="box" id="box_Logic" x="54.949" y="12.757" width="13.0" height="13.0" style="fill-opacity:1;stroke-width:0.5;stroke-linecap:round;stroke-linejoin:miter;stroke-miterlimit:4;stroke-opacity:1"/>
</g>
<g id="Memory" transform="scale(1,1) translate(0, 0)" style="fill:#FFFFFF;stroke:#000000;font-size:0.0px;">
	<rect class="box" id="box_Memory" x="60.655" y="25.185" width="13.0" height="13.0" style="fill-opacity:1;stroke-width:0.5;stroke-linecap:round;stroke-linejoin:miter;stroke-miterlimit:4;stroke-opacity:1"/>
</g>
<g id="FPGAs" transform="scale(1,1) translate(0, 0)" style="fill:#000000;stroke:#000000;font-size:0.0px;">
	<rect class="box" id="box_FPGAs" x="50.271" y="21.576" width="13.0" height="13.0" style="fill-opacity:1;stroke-width:0.5;stroke-linecap:round;stroke-linejoin:miter;stroke-miterlimit:4;stroke-opacity:1"/>
</g>
<g id="Computers" transform="scale(1,1) translate(0, 0)" style="fill:#FFFFFF;stroke:#000000;font-size:0.0px;">
	<rect class="box" id="box_Computers" x="45.460" y="11.821" width="13.0" height="13.0" style="fill-opacity:1;stroke-width:0.5;stroke-linecap:round;stroke-linejoin:miter;stroke-miterlimit:4;stroke-opacity:1"/>
</g>
<g id="Control" transform="scale(1,1) translate(0, 0)" style="fill:#FFFFFF;stroke:#000000;font-size:0.0px;">
	<rect class="box" id="box_Control" x="35.438" y="13.826" width="13.0" height="13.0" style="fill-opacity:1;stroke-width:0.5;stroke-linecap:round;stroke-linejoin:miter;stroke-miterlimit:4;stroke-opacity:1"/>
</g>
<g id="Robotics" transform="scale(1,1) translate(0, 0)" style="fill:#FFFFFF;stroke:#000000;font-size:0.0px;">
	<rect class="box" id="box_Robotics" x="40.347" y="23.227" width="13.0" height="13.0" style="fill-opacity:1;stroke-width:0.5;stroke-linecap:round;stroke-linejoin:miter;stroke-miterlimit:4;stroke-opacity:1"/>
</g>
<g id="Systems" transform="scale(1,1) translate(0, 0)" style="fill:#FFFFFF;stroke:#000000;font-size:0.0px;">
	<rect class="box" id="box_Systems" x="34.536" y="27.456" width="13.0" height="13.0" style="fill-opacity:1;stroke-width:0.5;stroke-linecap:round;stroke-linejoin:miter;stroke-miterlimit:4;stroke-opacity:1"/>
</g>
<g id="Linux" transform="scale(1,1) translate(0, 0)" style="fill:#FFFFFF;stroke:#000000;font-size:0.0px;">
	<rect class="box" id="box_Linux" x="27.519" y="16.498" width="13.0" height="13.0" style="fill-opacity:1;stroke-width:0.5;stroke-linecap:round;stroke-linejoin:miter;stroke-miterlimit:4;stroke-opacity:1"/>
</g>
<g id="Python" transform="scale(1,1) translate(0, 0)" style="fill:#000000;stroke:#000000;font-size:0.0px;">
	<rect class="box" id="box_Python" x="21.807" y="21.443" width="13.0" height="13.0" style="fill-opacity:1;stroke-width:0.5;stroke-linecap:round;stroke-linejoin:miter;stroke-miterlimit:4;stroke-opacity:1"/>
</g>
<g id="Networks" transform="scale(1,1) translate(0, 0)" style="fill:#FFFFFF;stroke:#000000;font-size:0.0px;">
	<rect class="box" id="box_Networks" x="18.733" y="26.922" width="13.0" height="13.0" style="fill-opacity:1;stroke-width:0.5;stroke-linecap:round;stroke-linejoin:miter;stroke-miterlimit:4;stroke-opacity:1"/>
</g>
<g id="Websites" transform="scale(1,1) translate(0, 0)" style="fill:#FFFFFF;stroke:#000000;font-size:0.0px;">
	<rect class="box" id="box_Websites" x="21.807" y="33.470" width="13.0" height="13.0" style="fill-opacity:1;stroke-width:0.5;stroke-linecap:round;stroke-linejoin:miter;stroke-miterlimit:4;stroke-opacity:1"/>
</g>
<g id="Servers" transform="scale(1,1) translate(0, 0)" style="fill:#FFFFFF;stroke:#000000;font-size:0.0px;">
	<rect class="box" id="box_Servers" x="54.552" y="48.843" width="13.0" height="13.0" style="fill-opacity:1;stroke-width:0.5;stroke-linecap:round;stroke-linejoin:miter;stroke-miterlimit:4;stroke-opacity:1"/>
</g>
<g id="Security" transform="scale(1,1) translate(0, 0)" style="fill:#FFFFFF;stroke:#000000;font-size:0.0px;">
	<rect class="box" id="box_Security" x="70.787" y="46.432" width="13.0" height="13.0" style="fill-opacity:1;stroke-width:0.5;stroke-linecap:round;stroke-linejoin:miter;stroke-miterlimit:4;stroke-opacity:1"/>
</g>
<g id="Audio" transform="scale(1,1) translate(0, 0)" style="fill:#000000;stroke:#000000;font-size:0.0px;">
	<rect class="box" id="box_Audio" x="61.365" y="51.345" width="13.0" height="13.0" style="fill-opacity:1;stroke-width:0.5;stroke-linecap:round;stroke-linejoin:miter;stroke-miterlimit:4;stroke-opacity:1"/>
</g>
<g id="Vision" transform="scale(1,1) translate(0, 0)" style="fill:#FFFFFF;stroke:#000000;font-size:0.0px;">
	<rect class="box" id="box_Vision" x="66.080" y="57.178" width="13.0" height="13.0" style="fill-opacity:1;stroke-width:0.5;stroke-linecap:round;stroke-linejoin:miter;stroke-miterlimit:4;stroke-opacity:1"/>
</g>
<g id="Learning" transform="scale(1,1) translate(0, 0)" style="fill:#FFFFFF;stroke:#000000;font-size:0.0px;">
	<rect class="box" id="box_Learning" x="28.050" y="36.314" width="13.0" height="13.0" style="fill-opacity:1;stroke-width:0.5;stroke-linecap:round;stroke-linejoin:miter;stroke-miterlimit:4;stroke-opacity:1"/>
</g>
<g id="Intelligence" transform="scale(1,1) translate(0, 0)" style="fill:#000000;stroke:#000000;font-size:0.0px;">
	<rect class="box" id="box_Intelligence" x="37.787" y="32.810" width="13.0" height="13.0" style="fill-opacity:1;stroke-width:0.5;stroke-linecap:round;stroke-linejoin:miter;stroke-miterlimit:4;stroke-opacity:1"/>
</g>
</svg>