<?xml version="1.0" encoding="UTF-8" standalone="no"?>
<svg id="logo_NBB" width="100mm" height="100mm" viewBox="0 0 100 100" version="1.1" xmlns="http://www.w3.org/2000/svg" xmlns:svg="http://www.w3.org/2000/svg">
<g id="Atoms">
	<rect class="box" id="box_Atoms" transform="scale(1,1) translate(0, 0)" x="31.111000" y="50.084000" width="13.0" height="13.0" style="fill:#FFFFFF;fill-opacity:1;stroke:#000000;stroke-width:0.5;stroke-linecap:round;stroke-linejoin:miter;stroke-miterlimit:4;stroke-opacity:1"/>
</g>
<g id="Electrons">
	<rect class="box" id="box_Electrons" transform="scale(1,1) translate(0, 0)" x="44.056000" y="52.834000" width="13.0" height="13.0" style="fill:#FFFFFF;fill-opacity:1;stroke:#000000;stroke-width:0.5;stroke-linecap:round;stroke-linejoin:miter;stroke-miterlimit:4;stroke-opacity:1"/>
</g>
<g id="Magnets">
	<rect class="box" id="box_Magnets" transform="scale(1,1) translate(0, 0)" x="45.787000" y="43.810000" width="13.0" height="13.0" style="fill:#FFFFFF;fill-opacity:1;stroke:#000000;stroke-width:0.5;stroke-linecap:round;stroke-linejoin:miter;stroke-miterlimit:4;stroke-opacity:1"/>
</g>
<g id="Light">
	<rect class="box" id="box_Light" transform="scale(1,1) translate(0, 0)" x="57.432000" y="49.147000" width="13.0" height="13.0" style="fill:#FFFFFF;fill-opacity:1;stroke:#000000;stroke-width:0.5;stroke-linecap:round;stroke-linejoin:miter;stroke-miterlimit:4;stroke-opacity:1"/>
</g>
<g id="Sensors">
	<rect class="box" id="box_Sensors" transform="scale(1,1) translate(0, 0)" x="52.633000" y="41.232000" width="13.0" height="13.0" style="fill:#FFFFFF;fill-opacity:1;stroke:#000000;stroke-width:0.5;stroke-linecap:round;stroke-linejoin:miter;stroke-miterlimit:4;stroke-opacity:1"/>
</g>
<g id="Motors">
	<rect class="box" id="box_Motors" transform="scale(1,1) translate(0, 0)" x="61.730000" y="44.465000" width="13.0" height="13.0" style="fill:#000000;fill-opacity:1;stroke:#000000;stroke-width:0.5;stroke-linecap:round;stroke-linejoin:miter;stroke-miterlimit:4;stroke-opacity:1"/>
</g>
<g id="Transistors">
	<rect class="box" id="box_Transistors" transform="scale(1,1) translate(0, 0)" x="69.113000" y="52.489000" width="13.0" height="13.0" style="fill:#FFFFFF;fill-opacity:1;stroke:#000000;stroke-width:0.5;stroke-linecap:round;stroke-linejoin:miter;stroke-miterlimit:4;stroke-opacity:1"/>
</g>
<g id="Amplifiers">
	<rect class="box" id="box_Amplifiers" transform="scale(1,1) translate(0, 0)" x="72.266000" y="41.664000" width="13.0" height="13.0" style="fill:#FFFFFF;fill-opacity:1;stroke:#000000;stroke-width:0.5;stroke-linecap:round;stroke-linejoin:miter;stroke-miterlimit:4;stroke-opacity:1"/>
</g>
<g id="Circuits">
	<rect class="box" id="box_Circuits" transform="scale(1,1) translate(0, 0)" x="68.657000" y="34.046000" width="13.0" height="13.0" style="fill:#FFFFFF;fill-opacity:1;stroke:#000000;stroke-width:0.5;stroke-linecap:round;stroke-linejoin:miter;stroke-miterlimit:4;stroke-opacity:1"/>
</g>
<g id="Power">
	<rect class="box" id="box_Power" transform="scale(1,1) translate(0, 0)" x="63.446000" y="29.572000" width="13.0" height="13.0" style="fill:#FFFFFF;fill-opacity:1;stroke:#000000;stroke-width:0.5;stroke-linecap:round;stroke-linejoin:miter;stroke-miterlimit:4;stroke-opacity:1"/>
</g>
<g id="Data">
	<rect class="box" id="box_Data" transform="scale(1,1) translate(0, 0)" x="58.531000" y="25.627000" width="13.0" height="13.0" style="fill:#FFFFFF;fill-opacity:1;stroke:#000000;stroke-width:0.5;stroke-linecap:round;stroke-linejoin:miter;stroke-miterlimit:4;stroke-opacity:1"/>
</g>
<g id="Logic">
	<rect class="box" id="box_Logic" transform="scale(1,1) translate(0, 0)" x="49.949000" y="23.757000" width="13.0" height="13.0" style="fill:#FFFFFF;fill-opacity:1;stroke:#000000;stroke-width:0.5;stroke-linecap:round;stroke-linejoin:miter;stroke-miterlimit:4;stroke-opacity:1"/>
</g>
<g id="Memory">
	<rect class="box" id="box_Memory" transform="scale(1,1) translate(0, 0)" x="55.655000" y="36.185000" width="13.0" height="13.0" style="fill:#FFFFFF;fill-opacity:1;stroke:#000000;stroke-width:0.5;stroke-linecap:round;stroke-linejoin:miter;stroke-miterlimit:4;stroke-opacity:1"/>
</g>
<g id="FPGAs">
	<rect class="box" id="box_FPGAs" transform="scale(1,1) translate(0, 0)" x="45.271000" y="32.576000" width="13.0" height="13.0" style="fill:#000000;fill-opacity:1;stroke:#000000;stroke-width:0.5;stroke-linecap:round;stroke-linejoin:miter;stroke-miterlimit:4;stroke-opacity:1"/>
</g>
<g id="Computers">
	<rect class="box" id="box_Computers" transform="scale(1,1) translate(0, 0)" x="40.460000" y="22.821000" width="13.0" height="13.0" style="fill:#FFFFFF;fill-opacity:1;stroke:#000000;stroke-width:0.5;stroke-linecap:round;stroke-linejoin:miter;stroke-miterlimit:4;stroke-opacity:1"/>
</g>
<g id="Control">
	<rect class="box" id="box_Control" transform="scale(1,1) translate(0, 0)" x="30.438000" y="24.826000" width="13.0" height="13.0" style="fill:#FFFFFF;fill-opacity:1;stroke:#000000;stroke-width:0.5;stroke-linecap:round;stroke-linejoin:miter;stroke-miterlimit:4;stroke-opacity:1"/>
</g>
<g id="Robotics">
	<rect class="box" id="box_Robotics" transform="scale(1,1) translate(0, 0)" x="35.347000" y="34.227000" width="13.0" height="13.0" style="fill:#FFFFFF;fill-opacity:1;stroke:#000000;stroke-width:0.5;stroke-linecap:round;stroke-linejoin:miter;stroke-miterlimit:4;stroke-opacity:1"/>
</g>
<g id="Systems">
	<rect class="box" id="box_Systems" transform="scale(1,1) translate(0, 0)" x="29.536000" y="38.456000" width="13.0" height="13.0" style="fill:#FFFFFF;fill-opacity:1;stroke:#000000;stroke-width:0.5;stroke-linecap:round;stroke-linejoin:miter;stroke-miterlimit:4;stroke-opacity:1"/>
</g>
<g id="Linux">
	<rect class="box" id="box_Linux" transform="scale(1,1) translate(0, 0)" x="22.519000" y="27.498000" width="13.0" height="13.0" style="fill:#FFFFFF;fill-opacity:1;stroke:#000000;stroke-width:0.5;stroke-linecap:round;stroke-linejoin:miter;stroke-miterlimit:4;stroke-opacity:1"/>
</g>
<g id="Python">
	<rect class="box" id="box_Python" transform="scale(1,1) translate(0, 0)" x="16.807000" y="32.443000" width="13.0" height="13.0" style="fill:#000000;fill-opacity:1;stroke:#000000;stroke-width:0.5;stroke-linecap:round;stroke-linejoin:miter;stroke-miterlimit:4;stroke-opacity:1"/>
</g>
<g id="Networks">
	<rect class="box" id="box_Networks" transform="scale(1,1) translate(0, 0)" x="13.733000" y="37.922000" width="13.0" height="13.0" style="fill:#FFFFFF;fill-opacity:1;stroke:#000000;stroke-width:0.5;stroke-linecap:round;stroke-linejoin:miter;stroke-miterlimit:4;stroke-opacity:1"/>
</g>
<g id="Websites">
	<rect class="box" id="box_Websites" transform="scale(1,1) translate(0, 0)" x="16.807000" y="44.470000" width="13.0" height="13.0" style="fill:#FFFFFF;fill-opacity:1;stroke:#000000;stroke-width:0.5;stroke-linecap:round;stroke-linejoin:miter;stroke-miterlimit:4;stroke-opacity:1"/>
</g>
<g id="Servers">
	<rect class="box" id="box_Servers" transform="scale(1,1) translate(0, 0)" x="49.552000" y="59.843000" width="13.0" height="13.0" style="fill:#FFFFFF;fill-opacity:1;stroke:#000000;stroke-width:0.5;stroke-linecap:round;stroke-linejoin:miter;stroke-miterlimit:4;stroke-opacity:1"/>
</g>
<g id="Security">
	<rect class="box" id="box_Security" transform="scale(1,1) translate(0, 0)" x="65.787000" y="57.432000" width="13.0" height="13.0" style="fill:#FFFFFF;fill-opacity:1;stroke:#000000;stroke-width:0.5;stroke-linecap:round;stroke-linejoin:miter;stroke-miterlimit:4;stroke-opacity:1"/>
</g>
<g id="Audio">
	<rect class="box" id="box_Audio" transform="scale(1,1) translate(0, 0)" x="56.365000" y="62.345000" width="13.0" height="13.0" style="fill:#000000;fill-opacity:1;stroke:#000000;stroke-width:0.5;stroke-linecap:round;stroke-linejoin:miter;stroke-miterlimit:4;stroke-opacity:1"/>
</g>
<g id="Vision">
	<rect class="box" id="box_Vision" transform="scale(1,1) translate(0, 0)" x="61.080000" y="68.178000" width="13.0" height="13.0" style="fill:#FFFFFF;fill-opacity:1;stroke:#000000;stroke-width:0.5;stroke-linecap:round;stroke-linejoin:miter;stroke-miterlimit:4;stroke-opacity:1"/>
</g>
<g id="Learning">
	<rect class="box" id="box_Learning" transform="scale(1,1) translate(0, 0)" x="23.050000" y="47.314000" width="13.0" height="13.0" style="fill:#FFFFFF;fill-opacity:1;stroke:#000000;stroke-width:0.5;stroke-linecap:round;stroke-linejoin:miter;stroke-miterlimit:4;stroke-opacity:1"/>
</g>
<g id="Intelligence">
	<rect class="box" id="box_Intelligence" transform="scale(1,1) translate(0, 0)" x="32.787000" y="43.810000" width="13.0" height="13.0" style="fill:#000000;fill-opacity:1;stroke:#000000;stroke-width:0.5;stroke-linecap:round;stroke-linejoin:miter;stroke-miterlimit:4;stroke-opacity:1"/>
</g>
</svg>