<?xml version="1.0" encoding="UTF-8" standalone="no"?>
<svg id="logo_LBB_black_text" width="100mm" height="100mm" viewBox="0 0 100 100" version="1.1" xmlns="http://www.w3.org/2000/svg" xmlns:svg="http://www.w3.org/2000/svg">
<g id="Atoms">
	<rect class="box" id="box_Atoms" transform="scale(1,1) translate(0, 0)" x="31.111000" y="42.584000" width="13.0" height="13.0" style="fill:#000000;fill-opacity:1;stroke:#FFFFFF;stroke-width:0.5;stroke-linecap:round;stroke-linejoin:miter;stroke-miterlimit:4;stroke-opacity:1"/>
</g>
<g id="Electrons">
	<rect class="box" id="box_Electrons" transform="scale(1,1) translate(0, 0)" x="44.056000" y="45.334000" width="13.0" height="13.0" style="fill:#000000;fill-opacity:1;stroke:#FFFFFF;stroke-width:0.5;stroke-linecap:round;stroke-linejoin:miter;stroke-miterlimit:4;stroke-opacity:1"/>
</g>
<g id="Magnets">
	<rect class="box" id="box_Magnets" transform="scale(1,1) translate(0, 0)" x="45.787000" y="36.310000" width="13.0" height="13.0" style="fill:#000000;fill-opacity:1;stroke:#FFFFFF;stroke-width:0.5;stroke-linecap:round;stroke-linejoin:miter;stroke-miterlimit:4;stroke-opacity:1"/>
</g>
<g id="Light">
	<rect class="box" id="box_Light" transform="scale(1,1) translate(0, 0)" x="57.432000" y="41.647000" width="13.0" height="13.0" style="fill:#000000;fill-opacity:1;stroke:#FFFFFF;stroke-width:0.5;stroke-linecap:round;stroke-linejoin:miter;stroke-miterlimit:4;stroke-opacity:1"/>
</g>
<g id="Sensors">
	<rect class="box" id="box_Sensors" transform="scale(1,1) translate(0, 0)" x="52.633000" y="33.732000" width="13.0" height="13.0" style="fill:#000000;fill-opacity:1;stroke:#FFFFFF;stroke-width:0.5;stroke-linecap:round;stroke-linejoin:miter;stroke-miterlimit:4;stroke-opacity:1"/>
</g>
<g id="Motors">
	<rect class="box" id="box_Motors" transform="scale(1,1) translate(0, 0)" x="61.730000" y="36.965000" width="13.0" height="13.0" style="fill:#000000;fill-opacity:1;stroke:#FFFFFF;stroke-width:0.5;stroke-linecap:round;stroke-linejoin:miter;stroke-miterlimit:4;stroke-opacity:1"/>
</g>
<g id="Transistors">
	<rect class="box" id="box_Transistors" transform="scale(1,1) translate(0, 0)" x="69.113000" y="44.989000" width="13.0" height="13.0" style="fill:#000000;fill-opacity:1;stroke:#FFFFFF;stroke-width:0.5;stroke-linecap:round;stroke-linejoin:miter;stroke-miterlimit:4;stroke-opacity:1"/>
</g>
<g id="Amplifiers">
	<rect class="box" id="box_Amplifiers" transform="scale(1,1) translate(0, 0)" x="72.266000" y="34.164000" width="13.0" height="13.0" style="fill:#000000;fill-opacity:1;stroke:#FFFFFF;stroke-width:0.5;stroke-linecap:round;stroke-linejoin:miter;stroke-miterlimit:4;stroke-opacity:1"/>
</g>
<g id="Circuits">
	<rect class="box" id="box_Circuits" transform="scale(1,1) translate(0, 0)" x="68.657000" y="26.546000" width="13.0" height="13.0" style="fill:#000000;fill-opacity:1;stroke:#FFFFFF;stroke-width:0.5;stroke-linecap:round;stroke-linejoin:miter;stroke-miterlimit:4;stroke-opacity:1"/>
</g>
<g id="Power">
	<rect class="box" id="box_Power" transform="scale(1,1) translate(0, 0)" x="63.446000" y="22.072000" width="13.0" height="13.0" style="fill:#000000;fill-opacity:1;stroke:#FFFFFF;stroke-width:0.5;stroke-linecap:round;stroke-linejoin:miter;stroke-miterlimit:4;stroke-opacity:1"/>
</g>
<g id="Data">
	<rect class="box" id="box_Data" transform="scale(1,1) translate(0, 0)" x="58.531000" y="18.127000" width="13.0" height="13.0" style="fill:#000000;fill-opacity:1;stroke:#FFFFFF;stroke-width:0.5;stroke-linecap:round;stroke-linejoin:miter;stroke-miterlimit:4;stroke-opacity:1"/>
</g>
<g id="Logic">
	<rect class="box" id="box_Logic" transform="scale(1,1) translate(0, 0)" x="49.949000" y="16.257000" width="13.0" height="13.0" style="fill:#000000;fill-opacity:1;stroke:#FFFFFF;stroke-width:0.5;stroke-linecap:round;stroke-linejoin:miter;stroke-miterlimit:4;stroke-opacity:1"/>
</g>
<g id="Memory">
	<rect class="box" id="box_Memory" transform="scale(1,1) translate(0, 0)" x="55.655000" y="28.685000" width="13.0" height="13.0" style="fill:#000000;fill-opacity:1;stroke:#FFFFFF;stroke-width:0.5;stroke-linecap:round;stroke-linejoin:miter;stroke-miterlimit:4;stroke-opacity:1"/>
</g>
<g id="FPGAs">
	<rect class="box" id="box_FPGAs" transform="scale(1,1) translate(0, 0)" x="45.271000" y="25.076000" width="13.0" height="13.0" style="fill:#000000;fill-opacity:1;stroke:#FFFFFF;stroke-width:0.5;stroke-linecap:round;stroke-linejoin:miter;stroke-miterlimit:4;stroke-opacity:1"/>
</g>
<g id="Computers">
	<rect class="box" id="box_Computers" transform="scale(1,1) translate(0, 0)" x="40.460000" y="15.321000" width="13.0" height="13.0" style="fill:#000000;fill-opacity:1;stroke:#FFFFFF;stroke-width:0.5;stroke-linecap:round;stroke-linejoin:miter;stroke-miterlimit:4;stroke-opacity:1"/>
</g>
<g id="Control">
	<rect class="box" id="box_Control" transform="scale(1,1) translate(0, 0)" x="30.438000" y="17.326000" width="13.0" height="13.0" style="fill:#000000;fill-opacity:1;stroke:#FFFFFF;stroke-width:0.5;stroke-linecap:round;stroke-linejoin:miter;stroke-miterlimit:4;stroke-opacity:1"/>
</g>
<g id="Robotics">
	<rect class="box" id="box_Robotics" transform="scale(1,1) translate(0, 0)" x="35.347000" y="26.727000" width="13.0" height="13.0" style="fill:#000000;fill-opacity:1;stroke:#FFFFFF;stroke-width:0.5;stroke-linecap:round;stroke-linejoin:miter;stroke-miterlimit:4;stroke-opacity:1"/>
</g>
<g id="Systems">
	<rect class="box" id="box_Systems" transform="scale(1,1) translate(0, 0)" x="29.536000" y="30.956000" width="13.0" height="13.0" style="fill:#000000;fill-opacity:1;stroke:#FFFFFF;stroke-width:0.5;stroke-linecap:round;stroke-linejoin:miter;stroke-miterlimit:4;stroke-opacity:1"/>
</g>
<g id="Linux">
	<rect class="box" id="box_Linux" transform="scale(1,1) translate(0, 0)" x="22.519000" y="19.998000" width="13.0" height="13.0" style="fill:#000000;fill-opacity:1;stroke:#FFFFFF;stroke-width:0.5;stroke-linecap:round;stroke-linejoin:miter;stroke-miterlimit:4;stroke-opacity:1"/>
</g>
<g id="Python">
	<rect class="box" id="box_Python" transform="scale(1,1) translate(0, 0)" x="16.807000" y="24.943000" width="13.0" height="13.0" style="fill:#000000;fill-opacity:1;stroke:#FFFFFF;stroke-width:0.5;stroke-linecap:round;stroke-linejoin:miter;stroke-miterlimit:4;stroke-opacity:1"/>
</g>
<g id="Networks">
	<rect class="box" id="box_Networks" transform="scale(1,1) translate(0, 0)" x="13.733000" y="30.422000" width="13.0" height="13.0" style="fill:#000000;fill-opacity:1;stroke:#FFFFFF;stroke-width:0.5;stroke-linecap:round;stroke-linejoin:miter;stroke-miterlimit:4;stroke-opacity:1"/>
</g>
<g id="Websites">
	<rect class="box" id="box_Websites" transform="scale(1,1) translate(0, 0)" x="16.807000" y="36.970000" width="13.0" height="13.0" style="fill:#000000;fill-opacity:1;stroke:#FFFFFF;stroke-width:0.5;stroke-linecap:round;stroke-linejoin:miter;stroke-miterlimit:4;stroke-opacity:1"/>
</g>
<g id="Servers">
	<rect class="box" id="box_Servers" transform="scale(1,1) translate(0, 0)" x="49.552000" y="52.343000" width="13.0" height="13.0" style="fill:#000000;fill-opacity:1;stroke:#FFFFFF;stroke-width:0.5;stroke-linecap:round;stroke-linejoin:miter;stroke-miterlimit:4;stroke-opacity:1"/>
</g>
<g id="Security">
	<rect class="box" id="box_Security" transform="scale(1,1) translate(0, 0)" x="65.787000" y="49.932000" width="13.0" height="13.0" style="fill:#000000;fill-opacity:1;stroke:#FFFFFF;stroke-width:0.5;stroke-linecap:round;stroke-linejoin:miter;stroke-miterlimit:4;stroke-opacity:1"/>
</g>
<g id="Audio">
	<rect class="box" id="box_Audio" transform="scale(1,1) translate(0, 0)" x="56.365000" y="54.845000" width="13.0" height="13.0" style="fill:#000000;fill-opacity:1;stroke:#FFFFFF;stroke-width:0.5;stroke-linecap:round;stroke-linejoin:miter;stroke-miterlimit:4;stroke-opacity:1"/>
</g>
<g id="Vision">
	<rect class="box" id="box_Vision" transform="scale(1,1) translate(0, 0)" x="61.080000" y="60.678000" width="13.0" height="13.0" style="fill:#000000;fill-opacity:1;stroke:#FFFFFF;stroke-width:0.5;stroke-linecap:round;stroke-linejoin:miter;stroke-miterlimit:4;stroke-opacity:1"/>
</g>
<g id="Learning">
	<rect class="box" id="box_Learning" transform="scale(1,1) translate(0, 0)" x="23.050000" y="39.814000" width="13.0" height="13.0" style="fill:#000000;fill-opacity:1;stroke:#FFFFFF;stroke-width:0.5;stroke-linecap:round;stroke-linejoin:miter;stroke-miterlimit:4;stroke-opacity:1"/>
</g>
<g id="Intelligence">
	<rect class="box" id="box_Intelligence" transform="scale(1,1) translate(0, 0)" x="32.787000" y="36.310000" width="13.0" height="13.0" style="fill:#000000;fill-opacity:1;stroke:#FFFFFF;stroke-width:0.5;stroke-linecap:round;stroke-linejoin:miter;stroke-miterlimit:4;stroke-opacity:1"/>
</g>
	<text class= "text" id="text_LBB" x="8.5" y="87.5" style="font-style:normal;font-weight:bold;font-size:9.0px;line-height:1.25;font-family:'Arial';white-space:pre;display:inline;fill:#000000;fill-opacity:1;stroke:none" >The Last Black Box</text>
</svg>