  0
SECTION
  2
HEADER
  9
$ANGBASE
  50
0.0
  9
$ANGDIR
  70
1
  9
$MEASUREMENT
  70
0
  0
ENDSEC
  0
SECTION
  2
TABLES
  0
TABLE
  2
LTYPE
  70
4
  0
LTYPE
  5
40F
  2
CONTINUOUS
  70
0
  3
Solid line
  72
65
  73
0
  40
0.0
  0
LTYPE
  5
410
  2
DASHDOT
 70
0
  3
Dash Dot ____ _ ____ _
 72
65
 73
4
 40
2.0
 49
1.25
 49
-0.25
 49
0.25
 49
-0.25
  0
LTYPE
  5
411
  2
DASHED
 70
0
  3
Dashed __ __ __ __ __
 72
65
 73
2
 40
0.75
 49
0.5
 49
-0.25
  0
LTYPE
  5
43B
  2
DOTTED
 70
0
  3
Dotted .  .  .  .
 72
65
 73
2
 40
0.2
 49
0.0
 49
-0.2
  0
ENDTAB
  0
TABLE
  2
STYLE
  70
4
  0
STYLE
  2
KICAD
  70
0
  40
0
  41
1
  42
1
  50
0
  71
0
  3
isocp.shx
  0
STYLE
  2
KICADB
  70
0
  40
0
  41
1
  42
1
  50
0
  71
0
  3
isocp.shx
  0
STYLE
  2
KICADI
  70
0
  40
0
  41
1
  42
1
  50
15
  71
0
  3
isocp.shx
  0
STYLE
  2
KICADBI
  70
0
  40
0
  41
1
  42
1
  50
15
  71
0
  3
isocp.shx
  0
ENDTAB
  0
TABLE
  2
LAYER
  70
1
  0
LAYER
  2
BLACK
  70
0
  62
7
  6
CONTINUOUS
  0
ENDTAB
  0
ENDSEC
  0
SECTION
  2
ENTITIES
0
LINE
8
BLACK
6
CONTINUOUS
10
-1.10417
20
-0.00180953
11
-1.14274
21
0.036758
0
LINE
8
BLACK
6
CONTINUOUS
10
-1.14274
20
0.036758
11
-1.46869
21
0.0206276
0
LINE
8
BLACK
6
CONTINUOUS
10
-1.46869
20
0.0206276
11
-1.46871
21
0.0206337
0
LINE
8
BLACK
6
CONTINUOUS
10
-1.46871
20
0.0206337
11
-1.46872
21
0.0206261
0
LINE
8
BLACK
6
CONTINUOUS
10
-1.46872
20
0.0206261
11
-1.7753
21
0.00948736
0
LINE
8
BLACK
6
CONTINUOUS
10
-1.7753
20
0.00948736
11
-1.77532
21
0.00949461
0
LINE
8
BLACK
6
CONTINUOUS
10
-1.77532
20
0.00949461
11
-1.77534
21
0.00948626
0
LINE
8
BLACK
6
CONTINUOUS
10
-1.77534
20
0.00948626
11
-2.0614
21
0.00339516
0
LINE
8
BLACK
6
CONTINUOUS
10
-2.0614
20
0.00339516
11
-2.06143
21
0.00340386
0
LINE
8
BLACK
6
CONTINUOUS
10
-2.06143
20
0.00340386
11
-2.06145
21
0.00339461
0
LINE
8
BLACK
6
CONTINUOUS
10
-2.06145
20
0.00339461
11
-2.32701
21
0.00235126
0
LINE
8
BLACK
6
CONTINUOUS
10
-2.32701
20
0.00235126
11
-2.32704
21
0.00236185
0
LINE
8
BLACK
6
CONTINUOUS
10
-2.32704
20
0.00236185
11
-2.32706
21
0.00235157
0
LINE
8
BLACK
6
CONTINUOUS
10
-2.32706
20
0.00235157
11
-2.57212
21
0.00635598
0
LINE
8
BLACK
6
CONTINUOUS
10
-2.57212
20
0.00635598
11
-2.57215
21
0.00636913
0
LINE
8
BLACK
6
CONTINUOUS
10
-2.57215
20
0.00636913
11
-2.57218
21
0.00635772
0
LINE
8
BLACK
6
CONTINUOUS
10
-2.57218
20
0.00635772
11
-2.79673
21
0.0154098
0
LINE
8
BLACK
6
CONTINUOUS
10
-2.79673
20
0.0154098
11
-2.79676
21
0.0154264
0
LINE
8
BLACK
6
CONTINUOUS
10
-2.79676
20
0.0154264
11
-2.7968
21
0.0154138
0
LINE
8
BLACK
6
CONTINUOUS
10
-2.7968
20
0.0154138
11
-3.00084
21
0.0295137
0
LINE
8
BLACK
6
CONTINUOUS
10
-3.00084
20
0.0295137
11
-3.00089
21
0.0295351
0
LINE
8
BLACK
6
CONTINUOUS
10
-3.00089
20
0.0295351
11
-3.00093
21
0.0295214
0
LINE
8
BLACK
6
CONTINUOUS
10
-3.00093
20
0.0295214
11
-3.18447
21
0.048669
0
LINE
8
BLACK
6
CONTINUOUS
10
-3.18447
20
0.048669
11
-3.18456
21
0.0487189
0
LINE
8
BLACK
6
CONTINUOUS
10
-3.18456
20
0.0487189
11
-3.18466
21
0.0486968
0
LINE
8
BLACK
6
CONTINUOUS
10
-3.18466
20
0.0486968
11
-3.34805
21
0.0785471
0
LINE
8
BLACK
6
CONTINUOUS
10
-3.34805
20
0.0785471
11
-3.3482
21
0.0786428
0
LINE
8
BLACK
6
CONTINUOUS
10
-3.3482
20
0.0786428
11
-3.34837
21
0.0786285
0
LINE
8
BLACK
6
CONTINUOUS
10
-3.34837
20
0.0786285
11
-3.49196
21
0.124836
0
LINE
8
BLACK
6
CONTINUOUS
10
-3.49196
20
0.124836
11
-3.49212
21
0.124973
0
LINE
8
BLACK
6
CONTINUOUS
10
-3.49212
20
0.124973
11
-3.49233
21
0.124989
0
LINE
8
BLACK
6
CONTINUOUS
10
-3.49233
20
0.124989
11
-3.61612
21
0.187554
0
LINE
8
BLACK
6
CONTINUOUS
10
-3.61612
20
0.187554
11
-3.61628
21
0.187738
0
LINE
8
BLACK
6
CONTINUOUS
10
-3.61628
20
0.187738
11
-3.61652
21
0.1878
0
LINE
8
BLACK
6
CONTINUOUS
10
-3.61652
20
0.1878
11
-3.72051
21
0.266723
0
LINE
8
BLACK
6
CONTINUOUS
10
-3.72051
20
0.266723
11
-3.72065
21
0.266951
0
LINE
8
BLACK
6
CONTINUOUS
10
-3.72065
20
0.266951
11
-3.72089
21
0.267067
0
LINE
8
BLACK
6
CONTINUOUS
10
-3.72089
20
0.267067
11
-3.80509
21
0.362348
0
LINE
8
BLACK
6
CONTINUOUS
10
-3.80509
20
0.362348
11
-3.80518
21
0.362601
0
LINE
8
BLACK
6
CONTINUOUS
10
-3.80518
20
0.362601
11
-3.80539
21
0.362764
0
LINE
8
BLACK
6
CONTINUOUS
10
-3.80539
20
0.362764
11
-3.8698
21
0.474402
0
LINE
8
BLACK
6
CONTINUOUS
10
-3.8698
20
0.474402
11
-3.86983
21
0.474651
0
LINE
8
BLACK
6
CONTINUOUS
10
-3.86983
20
0.474651
11
-3.86999
21
0.474839
0
LINE
8
BLACK
6
CONTINUOUS
10
-3.86999
20
0.474839
11
-3.91461
21
0.602835
0
LINE
8
BLACK
6
CONTINUOUS
10
-3.91461
20
0.602835
11
-3.91459
21
0.603056
0
LINE
8
BLACK
6
CONTINUOUS
10
-3.91459
20
0.603056
11
-3.91471
21
0.603244
0
LINE
8
BLACK
6
CONTINUOUS
10
-3.91471
20
0.603244
11
-3.93953
21
0.747598
0
LINE
8
BLACK
6
CONTINUOUS
10
-3.93953
20
0.747598
11
-3.93948
21
0.747821
0
LINE
8
BLACK
6
CONTINUOUS
10
-3.93948
20
0.747821
11
-3.93957
21
0.748031
0
LINE
8
BLACK
6
CONTINUOUS
10
-3.93957
20
0.748031
11
-3.93957
21
1.41732
0
LINE
8
BLACK
6
CONTINUOUS
10
-3.93957
20
1.41732
11
-3.93954
21
1.41739
0
LINE
8
BLACK
6
CONTINUOUS
10
-3.93954
20
1.41739
11
-3.93956
21
1.41745
0
LINE
8
BLACK
6
CONTINUOUS
10
-3.93956
20
1.41745
11
-3.93435
21
1.5206
0
LINE
8
BLACK
6
CONTINUOUS
10
-3.93435
20
1.5206
11
-3.93429
21
1.52071
0
LINE
8
BLACK
6
CONTINUOUS
10
-3.93429
20
1.52071
11
-3.93432
21
1.52082
0
LINE
8
BLACK
6
CONTINUOUS
10
-3.93432
20
1.52082
11
-3.92031
21
1.62218
0
LINE
8
BLACK
6
CONTINUOUS
10
-3.92031
20
1.62218
11
-3.92025
21
1.62228
0
LINE
8
BLACK
6
CONTINUOUS
10
-3.92025
20
1.62228
11
-3.92027
21
1.6224
0
LINE
8
BLACK
6
CONTINUOUS
10
-3.92027
20
1.6224
11
-3.89747
21
1.72195
0
LINE
8
BLACK
6
CONTINUOUS
10
-3.89747
20
1.72195
11
-3.8974
21
1.72205
0
LINE
8
BLACK
6
CONTINUOUS
10
-3.8974
20
1.72205
11
-3.89741
21
1.72217
0
LINE
8
BLACK
6
CONTINUOUS
10
-3.89741
20
1.72217
11
-3.86582
21
1.81992
0
LINE
8
BLACK
6
CONTINUOUS
10
-3.86582
20
1.81992
11
-3.86574
21
1.82001
0
LINE
8
BLACK
6
CONTINUOUS
10
-3.86574
20
1.82001
11
-3.86574
21
1.82012
0
LINE
8
BLACK
6
CONTINUOUS
10
-3.86574
20
1.82012
11
-3.82536
21
1.91608
0
LINE
8
BLACK
6
CONTINUOUS
10
-3.82536
20
1.91608
11
-3.82528
21
1.91616
0
LINE
8
BLACK
6
CONTINUOUS
10
-3.82528
20
1.91616
11
-3.82527
21
1.91627
0
LINE
8
BLACK
6
CONTINUOUS
10
-3.82527
20
1.91627
11
-3.77609
21
2.01042
0
LINE
8
BLACK
6
CONTINUOUS
10
-3.77609
20
2.01042
11
-3.776
21
2.01049
0
LINE
8
BLACK
6
CONTINUOUS
10
-3.776
20
2.01049
11
-3.77599
21
2.0106
0
LINE
8
BLACK
6
CONTINUOUS
10
-3.77599
20
2.0106
11
-3.71802
21
2.10296
0
LINE
8
BLACK
6
CONTINUOUS
10
-3.71802
20
2.10296
11
-3.71793
21
2.10301
0
LINE
8
BLACK
6
CONTINUOUS
10
-3.71793
20
2.10301
11
-3.71791
21
2.10311
0
LINE
8
BLACK
6
CONTINUOUS
10
-3.71791
20
2.10311
11
-3.65115
21
2.19367
0
LINE
8
BLACK
6
CONTINUOUS
10
-3.65115
20
2.19367
11
-3.65105
21
2.19373
0
LINE
8
BLACK
6
CONTINUOUS
10
-3.65105
20
2.19373
11
-3.65101
21
2.19384
0
LINE
8
BLACK
6
CONTINUOUS
10
-3.65101
20
2.19384
11
-3.57713
21
2.27791
0
LINE
8
BLACK
6
CONTINUOUS
10
-3.57713
20
2.27791
11
-3.577
21
2.27798
0
LINE
8
BLACK
6
CONTINUOUS
10
-3.577
20
2.27798
11
-3.57693
21
2.27811
0
LINE
8
BLACK
6
CONTINUOUS
10
-3.57693
20
2.27811
11
-3.49759
21
2.35101
0
LINE
8
BLACK
6
CONTINUOUS
10
-3.49759
20
2.35101
11
-3.49745
21
2.35106
0
LINE
8
BLACK
6
CONTINUOUS
10
-3.49745
20
2.35106
11
-3.49737
21
2.3512
0
LINE
8
BLACK
6
CONTINUOUS
10
-3.49737
20
2.3512
11
-3.41257
21
2.41293
0
LINE
8
BLACK
6
CONTINUOUS
10
-3.41257
20
2.41293
11
-3.41241
21
2.41297
0
LINE
8
BLACK
6
CONTINUOUS
10
-3.41241
20
2.41297
11
-3.41231
21
2.4131
0
LINE
8
BLACK
6
CONTINUOUS
10
-3.41231
20
2.4131
11
-3.32206
21
2.46366
0
LINE
8
BLACK
6
CONTINUOUS
10
-3.32206
20
2.46366
11
-3.3219
21
2.46368
0
LINE
8
BLACK
6
CONTINUOUS
10
-3.3219
20
2.46368
11
-3.32178
21
2.4638
0
LINE
8
BLACK
6
CONTINUOUS
10
-3.32178
20
2.4638
11
-3.22607
21
2.5032
0
LINE
8
BLACK
6
CONTINUOUS
10
-3.22607
20
2.5032
11
-3.22591
21
2.5032
0
LINE
8
BLACK
6
CONTINUOUS
10
-3.22591
20
2.5032
11
-3.22579
21
2.5033
0
LINE
8
BLACK
6
CONTINUOUS
10
-3.22579
20
2.5033
11
-3.12462
21
2.53153
0
LINE
8
BLACK
6
CONTINUOUS
10
-3.12462
20
2.53153
11
-3.12447
21
2.53151
0
LINE
8
BLACK
6
CONTINUOUS
10
-3.12447
20
2.53151
11
-3.12434
21
2.53159
0
LINE
8
BLACK
6
CONTINUOUS
10
-3.12434
20
2.53159
11
-3.01772
21
2.54866
0
LINE
8
BLACK
6
CONTINUOUS
10
-3.01772
20
2.54866
11
-3.01758
21
2.54863
0
LINE
8
BLACK
6
CONTINUOUS
10
-3.01758
20
2.54863
11
-3.01745
21
2.54869
0
LINE
8
BLACK
6
CONTINUOUS
10
-3.01745
20
2.54869
11
-2.90537
21
2.55458
0
LINE
8
BLACK
6
CONTINUOUS
10
-2.90537
20
2.55458
11
-2.90534
21
2.55458
0
LINE
8
BLACK
6
CONTINUOUS
10
-2.90534
20
2.55458
11
-2.90532
21
2.55459
0
LINE
8
BLACK
6
CONTINUOUS
10
-2.90532
20
2.55459
11
-2.79149
21
2.55833
0
LINE
8
BLACK
6
CONTINUOUS
10
-2.79149
20
2.55833
11
-2.67953
21
2.56893
0
LINE
8
BLACK
6
CONTINUOUS
10
-2.67953
20
2.56893
11
-2.56938
21
2.58639
0
LINE
8
BLACK
6
CONTINUOUS
10
-2.56938
20
2.58639
11
-2.46101
21
2.61071
0
LINE
8
BLACK
6
CONTINUOUS
10
-2.46101
20
2.61071
11
-2.35444
21
2.64189
0
LINE
8
BLACK
6
CONTINUOUS
10
-2.35444
20
2.64189
11
-2.24967
21
2.67992
0
LINE
8
BLACK
6
CONTINUOUS
10
-2.24967
20
2.67992
11
-2.14668
21
2.72482
0
LINE
8
BLACK
6
CONTINUOUS
10
-2.14668
20
2.72482
11
-2.05776
21
2.77029
0
LINE
8
BLACK
6
CONTINUOUS
10
-2.05776
20
2.77029
11
-2.25116
21
2.74933
0
LINE
8
BLACK
6
CONTINUOUS
10
-2.25116
20
2.74933
11
-2.2513
21
2.74937
0
LINE
8
BLACK
6
CONTINUOUS
10
-2.2513
20
2.74937
11
-2.25143
21
2.74931
0
LINE
8
BLACK
6
CONTINUOUS
10
-2.25143
20
2.74931
11
-2.44218
21
2.74838
0
LINE
8
BLACK
6
CONTINUOUS
10
-2.44218
20
2.74838
11
-2.44233
21
2.74844
0
LINE
8
BLACK
6
CONTINUOUS
10
-2.44233
20
2.74844
11
-2.44249
21
2.74839
0
LINE
8
BLACK
6
CONTINUOUS
10
-2.44249
20
2.74839
11
-2.6168
21
2.76897
0
LINE
8
BLACK
6
CONTINUOUS
10
-2.6168
20
2.76897
11
-2.61697
21
2.76907
0
LINE
8
BLACK
6
CONTINUOUS
10
-2.61697
20
2.76907
11
-2.61716
21
2.76904
0
LINE
8
BLACK
6
CONTINUOUS
10
-2.61716
20
2.76904
11
-2.77502
21
2.81114
0
LINE
8
BLACK
6
CONTINUOUS
10
-2.77502
20
2.81114
11
-2.77519
21
2.81127
0
LINE
8
BLACK
6
CONTINUOUS
10
-2.77519
20
2.81127
11
-2.77541
21
2.81128
0
LINE
8
BLACK
6
CONTINUOUS
10
-2.77541
20
2.81128
11
-2.91683
21
2.87489
0
LINE
8
BLACK
6
CONTINUOUS
10
-2.91683
20
2.87489
11
-2.91699
21
2.87506
0
LINE
8
BLACK
6
CONTINUOUS
10
-2.91699
20
2.87506
11
-2.91722
21
2.87511
0
LINE
8
BLACK
6
CONTINUOUS
10
-2.91722
20
2.87511
11
-3.04219
21
2.96024
0
LINE
8
BLACK
6
CONTINUOUS
10
-3.04219
20
2.96024
11
-3.04232
21
2.96044
0
LINE
8
BLACK
6
CONTINUOUS
10
-3.04232
20
2.96044
11
-3.04254
21
2.96053
0
LINE
8
BLACK
6
CONTINUOUS
10
-3.04254
20
2.96053
11
-3.15107
21
3.06718
0
LINE
8
BLACK
6
CONTINUOUS
10
-3.15107
20
3.06718
11
-3.15116
21
3.06739
0
LINE
8
BLACK
6
CONTINUOUS
10
-3.15116
20
3.06739
11
-3.15135
21
3.06751
0
LINE
8
BLACK
6
CONTINUOUS
10
-3.15135
20
3.06751
11
-3.24343
21
3.19568
0
LINE
8
BLACK
6
CONTINUOUS
10
-3.24343
20
3.19568
11
-3.24347
21
3.19583
0
LINE
8
BLACK
6
CONTINUOUS
10
-3.24347
20
3.19583
11
-3.24359
21
3.19593
0
LINE
8
BLACK
6
CONTINUOUS
10
-3.24359
20
3.19593
11
-3.32107
21
3.3354
0
LINE
8
BLACK
6
CONTINUOUS
10
-3.32107
20
3.3354
11
-3.32108
21
3.33551
0
LINE
8
BLACK
6
CONTINUOUS
10
-3.32108
20
3.33551
11
-3.32116
21
3.33558
0
LINE
8
BLACK
6
CONTINUOUS
10
-3.32116
20
3.33558
11
-3.38588
21
3.47614
0
LINE
8
BLACK
6
CONTINUOUS
10
-3.38588
20
3.47614
11
-3.38588
21
3.47625
0
LINE
8
BLACK
6
CONTINUOUS
10
-3.38588
20
3.47625
11
-3.38596
21
3.47633
0
LINE
8
BLACK
6
CONTINUOUS
10
-3.38596
20
3.47633
11
-3.43793
21
3.61798
0
LINE
8
BLACK
6
CONTINUOUS
10
-3.43793
20
3.61798
11
-3.43792
21
3.61809
0
LINE
8
BLACK
6
CONTINUOUS
10
-3.43792
20
3.61809
11
-3.43799
21
3.61818
0
LINE
8
BLACK
6
CONTINUOUS
10
-3.43799
20
3.61818
11
-3.47721
21
3.76093
0
LINE
8
BLACK
6
CONTINUOUS
10
-3.47721
20
3.76093
11
-3.47719
21
3.76104
0
LINE
8
BLACK
6
CONTINUOUS
10
-3.47719
20
3.76104
11
-3.47726
21
3.76114
0
LINE
8
BLACK
6
CONTINUOUS
10
-3.47726
20
3.76114
11
-3.50372
21
3.90497
0
LINE
8
BLACK
6
CONTINUOUS
10
-3.50372
20
3.90497
11
-3.50369
21
3.90509
0
LINE
8
BLACK
6
CONTINUOUS
10
-3.50369
20
3.90509
11
-3.50375
21
3.9052
0
LINE
8
BLACK
6
CONTINUOUS
10
-3.50375
20
3.9052
11
-3.51745
21
4.05012
0
LINE
8
BLACK
6
CONTINUOUS
10
-3.51745
20
4.05012
11
-3.51742
21
4.05024
0
LINE
8
BLACK
6
CONTINUOUS
10
-3.51742
20
4.05024
11
-3.51746
21
4.05035
0
LINE
8
BLACK
6
CONTINUOUS
10
-3.51746
20
4.05035
11
-3.51841
21
4.19636
0
LINE
8
BLACK
6
CONTINUOUS
10
-3.51841
20
4.19636
11
-3.51837
21
4.19647
0
LINE
8
BLACK
6
CONTINUOUS
10
-3.51837
20
4.19647
11
-3.5184
21
4.19658
0
LINE
8
BLACK
6
CONTINUOUS
10
-3.5184
20
4.19658
11
-3.5066
21
4.34369
0
LINE
8
BLACK
6
CONTINUOUS
10
-3.5066
20
4.34369
11
-3.50655
21
4.34379
0
LINE
8
BLACK
6
CONTINUOUS
10
-3.50655
20
4.34379
11
-3.50657
21
4.3439
0
LINE
8
BLACK
6
CONTINUOUS
10
-3.50657
20
4.3439
11
-3.48277
21
4.48933
0
LINE
8
BLACK
6
CONTINUOUS
10
-3.48277
20
4.48933
11
-3.48271
21
4.48943
0
LINE
8
BLACK
6
CONTINUOUS
10
-3.48271
20
4.48943
11
-3.48273
21
4.48954
0
LINE
8
BLACK
6
CONTINUOUS
10
-3.48273
20
4.48954
11
-3.44768
21
4.63054
0
LINE
8
BLACK
6
CONTINUOUS
10
-3.44768
20
4.63054
11
-3.44761
21
4.63063
0
LINE
8
BLACK
6
CONTINUOUS
10
-3.44761
20
4.63063
11
-3.44762
21
4.63074
0
LINE
8
BLACK
6
CONTINUOUS
10
-3.44762
20
4.63074
11
-3.40133
21
4.76732
0
LINE
8
BLACK
6
CONTINUOUS
10
-3.40133
20
4.76732
11
-3.40126
21
4.76741
0
LINE
8
BLACK
6
CONTINUOUS
10
-3.40126
20
4.76741
11
-3.40126
21
4.76752
0
LINE
8
BLACK
6
CONTINUOUS
10
-3.40126
20
4.76752
11
-3.34373
21
4.89966
0
LINE
8
BLACK
6
CONTINUOUS
10
-3.34373
20
4.89966
11
-3.34364
21
4.89974
0
LINE
8
BLACK
6
CONTINUOUS
10
-3.34364
20
4.89974
11
-3.34363
21
4.89986
0
LINE
8
BLACK
6
CONTINUOUS
10
-3.34363
20
4.89986
11
-3.27486
21
5.02757
0
LINE
8
BLACK
6
CONTINUOUS
10
-3.27486
20
5.02757
11
-3.27477
21
5.02764
0
LINE
8
BLACK
6
CONTINUOUS
10
-3.27477
20
5.02764
11
-3.27475
21
5.02775
0
LINE
8
BLACK
6
CONTINUOUS
10
-3.27475
20
5.02775
11
-3.19474
21
5.15103
0
LINE
8
BLACK
6
CONTINUOUS
10
-3.19474
20
5.15103
11
-3.19465
21
5.1511
0
LINE
8
BLACK
6
CONTINUOUS
10
-3.19465
20
5.1511
11
-3.19462
21
5.1512
0
LINE
8
BLACK
6
CONTINUOUS
10
-3.19462
20
5.1512
11
-3.10336
21
5.27005
0
LINE
8
BLACK
6
CONTINUOUS
10
-3.10336
20
5.27005
11
-3.10327
21
5.2701
0
LINE
8
BLACK
6
CONTINUOUS
10
-3.10327
20
5.2701
11
-3.10324
21
5.2702
0
LINE
8
BLACK
6
CONTINUOUS
10
-3.10324
20
5.2702
11
-3.00074
21
5.38463
0
LINE
8
BLACK
6
CONTINUOUS
10
-3.00074
20
5.38463
11
-3.00064
21
5.38468
0
LINE
8
BLACK
6
CONTINUOUS
10
-3.00064
20
5.38468
11
-3.00059
21
5.38478
0
LINE
8
BLACK
6
CONTINUOUS
10
-3.00059
20
5.38478
11
-2.88823
21
5.49069
0
LINE
8
BLACK
6
CONTINUOUS
10
-2.88823
20
5.49069
11
-2.88811
21
5.49074
0
LINE
8
BLACK
6
CONTINUOUS
10
-2.88811
20
5.49074
11
-2.88804
21
5.49085
0
LINE
8
BLACK
6
CONTINUOUS
10
-2.88804
20
5.49085
11
-2.7672
21
5.58417
0
LINE
8
BLACK
6
CONTINUOUS
10
-2.7672
20
5.58417
11
-2.76707
21
5.58421
0
LINE
8
BLACK
6
CONTINUOUS
10
-2.76707
20
5.58421
11
-2.76699
21
5.58432
0
LINE
8
BLACK
6
CONTINUOUS
10
-2.76699
20
5.58432
11
-2.63768
21
5.66504
0
LINE
8
BLACK
6
CONTINUOUS
10
-2.63768
20
5.66504
11
-2.63755
21
5.66507
0
LINE
8
BLACK
6
CONTINUOUS
10
-2.63755
20
5.66507
11
-2.63746
21
5.66517
0
LINE
8
BLACK
6
CONTINUOUS
10
-2.63746
20
5.66517
11
-2.49967
21
5.7333
0
LINE
8
BLACK
6
CONTINUOUS
10
-2.49967
20
5.7333
11
-2.49954
21
5.73331
0
LINE
8
BLACK
6
CONTINUOUS
10
-2.49954
20
5.73331
11
-2.49945
21
5.7334
0
LINE
8
BLACK
6
CONTINUOUS
10
-2.49945
20
5.7334
11
-2.35318
21
5.78894
0
LINE
8
BLACK
6
CONTINUOUS
10
-2.35318
20
5.78894
11
-2.35306
21
5.78893
0
LINE
8
BLACK
6
CONTINUOUS
10
-2.35306
20
5.78893
11
-2.35296
21
5.78901
0
LINE
8
BLACK
6
CONTINUOUS
10
-2.35296
20
5.78901
11
-2.19822
21
5.83195
0
LINE
8
BLACK
6
CONTINUOUS
10
-2.19822
20
5.83195
11
-2.1981
21
5.83194
0
LINE
8
BLACK
6
CONTINUOUS
10
-2.1981
20
5.83194
11
-2.198
21
5.832
0
LINE
8
BLACK
6
CONTINUOUS
10
-2.198
20
5.832
11
-2.03478
21
5.86236
0
LINE
8
BLACK
6
CONTINUOUS
10
-2.03478
20
5.86236
11
-2.03467
21
5.86233
0
LINE
8
BLACK
6
CONTINUOUS
10
-2.03467
20
5.86233
11
-2.03458
21
5.86239
0
LINE
8
BLACK
6
CONTINUOUS
10
-2.03458
20
5.86239
11
-1.87158
21
5.87925
0
LINE
8
BLACK
6
CONTINUOUS
10
-1.87158
20
5.87925
11
-1.99096
21
5.93932
0
LINE
8
BLACK
6
CONTINUOUS
10
-1.99096
20
5.93932
11
-1.99104
21
5.93941
0
LINE
8
BLACK
6
CONTINUOUS
10
-1.99104
20
5.93941
11
-1.99116
21
5.93943
0
LINE
8
BLACK
6
CONTINUOUS
10
-1.99116
20
5.93943
11
-2.10217
21
6.00901
0
LINE
8
BLACK
6
CONTINUOUS
10
-2.10217
20
6.00901
11
-2.10225
21
6.00913
0
LINE
8
BLACK
6
CONTINUOUS
10
-2.10225
20
6.00913
11
-2.1024
21
6.00917
0
LINE
8
BLACK
6
CONTINUOUS
10
-2.1024
20
6.00917
11
-2.19722
21
6.08432
0
LINE
8
BLACK
6
CONTINUOUS
10
-2.19722
20
6.08432
11
-2.1973
21
6.08447
0
LINE
8
BLACK
6
CONTINUOUS
10
-2.1973
20
6.08447
11
-2.19746
21
6.08454
0
LINE
8
BLACK
6
CONTINUOUS
10
-2.19746
20
6.08454
11
-2.2761
21
6.16526
0
LINE
8
BLACK
6
CONTINUOUS
10
-2.2761
20
6.16526
11
-2.27617
21
6.16544
0
LINE
8
BLACK
6
CONTINUOUS
10
-2.27617
20
6.16544
11
-2.27634
21
6.16554
0
LINE
8
BLACK
6
CONTINUOUS
10
-2.27634
20
6.16554
11
-2.33879
21
6.25183
0
LINE
8
BLACK
6
CONTINUOUS
10
-2.33879
20
6.25183
11
-2.33884
21
6.25204
0
LINE
8
BLACK
6
CONTINUOUS
10
-2.33884
20
6.25204
11
-2.33901
21
6.25218
0
LINE
8
BLACK
6
CONTINUOUS
10
-2.33901
20
6.25218
11
-2.38528
21
6.34404
0
LINE
8
BLACK
6
CONTINUOUS
10
-2.38528
20
6.34404
11
-2.3853
21
6.34427
0
LINE
8
BLACK
6
CONTINUOUS
10
-2.3853
20
6.34427
11
-2.38544
21
6.34444
0
LINE
8
BLACK
6
CONTINUOUS
10
-2.38544
20
6.34444
11
-2.41553
21
6.44188
0
LINE
8
BLACK
6
CONTINUOUS
10
-2.41553
20
6.44188
11
-2.41551
21
6.4421
0
LINE
8
BLACK
6
CONTINUOUS
10
-2.41551
20
6.4421
11
-2.41562
21
6.44229
0
LINE
8
BLACK
6
CONTINUOUS
10
-2.41562
20
6.44229
11
-2.42953
21
6.5453
0
LINE
8
BLACK
6
CONTINUOUS
10
-2.42953
20
6.5453
11
-2.42949
21
6.54544
0
LINE
8
BLACK
6
CONTINUOUS
10
-2.42949
20
6.54544
11
-2.42955
21
6.54558
0
LINE
8
BLACK
6
CONTINUOUS
10
-2.42955
20
6.54558
11
-2.43175
21
6.6487
0
LINE
8
BLACK
6
CONTINUOUS
10
-2.43175
20
6.6487
11
-2.43172
21
6.6488
0
LINE
8
BLACK
6
CONTINUOUS
10
-2.43172
20
6.6488
11
-2.43175
21
6.64889
0
LINE
8
BLACK
6
CONTINUOUS
10
-2.43175
20
6.64889
11
-2.42672
21
6.74667
0
LINE
8
BLACK
6
CONTINUOUS
10
-2.42672
20
6.74667
11
-2.42668
21
6.74677
0
LINE
8
BLACK
6
CONTINUOUS
10
-2.42668
20
6.74677
11
-2.4267
21
6.74687
0
LINE
8
BLACK
6
CONTINUOUS
10
-2.4267
20
6.74687
11
-2.41445
21
6.83931
0
LINE
8
BLACK
6
CONTINUOUS
10
-2.41445
20
6.83931
11
-2.41439
21
6.83941
0
LINE
8
BLACK
6
CONTINUOUS
10
-2.41439
20
6.83941
11
-2.41441
21
6.83953
0
LINE
8
BLACK
6
CONTINUOUS
10
-2.41441
20
6.83953
11
-2.39492
21
6.92662
0
LINE
8
BLACK
6
CONTINUOUS
10
-2.39492
20
6.92662
11
-2.39485
21
6.92673
0
LINE
8
BLACK
6
CONTINUOUS
10
-2.39485
20
6.92673
11
-2.39486
21
6.92686
0
LINE
8
BLACK
6
CONTINUOUS
10
-2.39486
20
6.92686
11
-2.36814
21
7.00861
0
LINE
8
BLACK
6
CONTINUOUS
10
-2.36814
20
7.00861
11
-2.36805
21
7.00871
0
LINE
8
BLACK
6
CONTINUOUS
10
-2.36805
20
7.00871
11
-2.36805
21
7.00885
0
LINE
8
BLACK
6
CONTINUOUS
10
-2.36805
20
7.00885
11
-2.3341
21
7.08526
0
LINE
8
BLACK
6
CONTINUOUS
10
-2.3341
20
7.08526
11
-2.334
21
7.08536
0
LINE
8
BLACK
6
CONTINUOUS
10
-2.334
20
7.08536
11
-2.33398
21
7.0855
0
LINE
8
BLACK
6
CONTINUOUS
10
-2.33398
20
7.0855
11
-2.2928
21
7.15656
0
LINE
8
BLACK
6
CONTINUOUS
10
-2.2928
20
7.15656
11
-2.29268
21
7.15665
0
LINE
8
BLACK
6
CONTINUOUS
10
-2.29268
20
7.15665
11
-2.29265
21
7.1568
0
LINE
8
BLACK
6
CONTINUOUS
10
-2.29265
20
7.1568
11
-2.24424
21
7.22251
0
LINE
8
BLACK
6
CONTINUOUS
10
-2.24424
20
7.22251
11
-2.24415
21
7.22257
0
LINE
8
BLACK
6
CONTINUOUS
10
-2.24415
20
7.22257
11
-2.24411
21
7.22268
0
LINE
8
BLACK
6
CONTINUOUS
10
-2.24411
20
7.22268
11
-2.19063
21
7.28415
0
LINE
8
BLACK
6
CONTINUOUS
10
-2.19063
20
7.28415
11
-2.19057
21
7.28418
0
LINE
8
BLACK
6
CONTINUOUS
10
-2.19057
20
7.28418
11
-2.19054
21
7.28425
0
LINE
8
BLACK
6
CONTINUOUS
10
-2.19054
20
7.28425
11
-2.13413
21
7.34258
0
LINE
8
BLACK
6
CONTINUOUS
10
-2.13413
20
7.34258
11
-2.13407
21
7.34261
0
LINE
8
BLACK
6
CONTINUOUS
10
-2.13407
20
7.34261
11
-2.13404
21
7.34268
0
LINE
8
BLACK
6
CONTINUOUS
10
-2.13404
20
7.34268
11
-2.07471
21
7.39787
0
LINE
8
BLACK
6
CONTINUOUS
10
-2.07471
20
7.39787
11
-2.07464
21
7.3979
0
LINE
8
BLACK
6
CONTINUOUS
10
-2.07464
20
7.3979
11
-2.0746
21
7.39796
0
LINE
8
BLACK
6
CONTINUOUS
10
-2.0746
20
7.39796
11
-2.01235
21
7.45001
0
LINE
8
BLACK
6
CONTINUOUS
10
-2.01235
20
7.45001
11
-2.01228
21
7.45003
0
LINE
8
BLACK
6
CONTINUOUS
10
-2.01228
20
7.45003
11
-2.01224
21
7.45009
0
LINE
8
BLACK
6
CONTINUOUS
10
-2.01224
20
7.45009
11
-1.94706
21
7.499
0
LINE
8
BLACK
6
CONTINUOUS
10
-1.94706
20
7.499
11
-1.94699
21
7.49902
0
LINE
8
BLACK
6
CONTINUOUS
10
-1.94699
20
7.49902
11
-1.94695
21
7.49908
0
LINE
8
BLACK
6
CONTINUOUS
10
-1.94695
20
7.49908
11
-1.87885
21
7.54484
0
LINE
8
BLACK
6
CONTINUOUS
10
-1.87885
20
7.54484
11
-1.87878
21
7.54485
0
LINE
8
BLACK
6
CONTINUOUS
10
-1.87878
20
7.54485
11
-1.87873
21
7.54491
0
LINE
8
BLACK
6
CONTINUOUS
10
-1.87873
20
7.54491
11
-1.8077
21
7.58753
0
LINE
8
BLACK
6
CONTINUOUS
10
-1.8077
20
7.58753
11
-1.80764
21
7.58754
0
LINE
8
BLACK
6
CONTINUOUS
10
-1.80764
20
7.58754
11
-1.80759
21
7.5876
0
LINE
8
BLACK
6
CONTINUOUS
10
-1.80759
20
7.5876
11
-1.73364
21
7.62708
0
LINE
8
BLACK
6
CONTINUOUS
10
-1.73364
20
7.62708
11
-1.73357
21
7.62708
0
LINE
8
BLACK
6
CONTINUOUS
10
-1.73357
20
7.62708
11
-1.73352
21
7.62714
0
LINE
8
BLACK
6
CONTINUOUS
10
-1.73352
20
7.62714
11
-1.65582
21
7.6636
0
LINE
8
BLACK
6
CONTINUOUS
10
-1.65582
20
7.6636
11
-1.65575
21
7.6636
0
LINE
8
BLACK
6
CONTINUOUS
10
-1.65575
20
7.6636
11
-1.6557
21
7.66365
0
LINE
8
BLACK
6
CONTINUOUS
10
-1.6557
20
7.66365
11
-1.57343
21
7.69722
0
LINE
8
BLACK
6
CONTINUOUS
10
-1.57343
20
7.69722
11
-1.57336
21
7.69722
0
LINE
8
BLACK
6
CONTINUOUS
10
-1.57336
20
7.69722
11
-1.57332
21
7.69727
0
LINE
8
BLACK
6
CONTINUOUS
10
-1.57332
20
7.69727
11
-1.48649
21
7.72795
0
LINE
8
BLACK
6
CONTINUOUS
10
-1.48649
20
7.72795
11
-1.48642
21
7.72794
0
LINE
8
BLACK
6
CONTINUOUS
10
-1.48642
20
7.72794
11
-1.48638
21
7.72798
0
LINE
8
BLACK
6
CONTINUOUS
10
-1.48638
20
7.72798
11
-1.39498
21
7.75577
0
LINE
8
BLACK
6
CONTINUOUS
10
-1.39498
20
7.75577
11
-1.39493
21
7.75576
0
LINE
8
BLACK
6
CONTINUOUS
10
-1.39493
20
7.75576
11
-1.39488
21
7.7558
0
LINE
8
BLACK
6
CONTINUOUS
10
-1.39488
20
7.7558
11
-1.29892
21
7.78069
0
LINE
8
BLACK
6
CONTINUOUS
10
-1.29892
20
7.78069
11
-1.29887
21
7.78069
0
LINE
8
BLACK
6
CONTINUOUS
10
-1.29887
20
7.78069
11
-1.29882
21
7.78072
0
LINE
8
BLACK
6
CONTINUOUS
10
-1.29882
20
7.78072
11
-1.1983
21
7.80272
0
LINE
8
BLACK
6
CONTINUOUS
10
-1.1983
20
7.80272
11
-1.19825
21
7.80271
0
LINE
8
BLACK
6
CONTINUOUS
10
-1.19825
20
7.80271
11
-1.19821
21
7.80274
0
LINE
8
BLACK
6
CONTINUOUS
10
-1.19821
20
7.80274
11
-1.09312
21
7.82185
0
LINE
8
BLACK
6
CONTINUOUS
10
-1.09312
20
7.82185
11
-1.09308
21
7.82184
0
LINE
8
BLACK
6
CONTINUOUS
10
-1.09308
20
7.82184
11
-1.09304
21
7.82186
0
LINE
8
BLACK
6
CONTINUOUS
10
-1.09304
20
7.82186
11
-0.983384
21
7.83808
0
LINE
8
BLACK
6
CONTINUOUS
10
-0.983384
20
7.83808
11
-0.983325
21
7.83806
0
LINE
8
BLACK
6
CONTINUOUS
10
-0.983325
20
7.83806
11
-0.983272
21
7.83809
0
LINE
8
BLACK
6
CONTINUOUS
10
-0.983272
20
7.83809
11
-0.869968
21
7.84977
0
LINE
8
BLACK
6
CONTINUOUS
10
-0.869968
20
7.84977
11
-0.869895
21
7.84975
0
LINE
8
BLACK
6
CONTINUOUS
10
-0.869895
20
7.84975
11
-0.869826
21
7.84978
0
LINE
8
BLACK
6
CONTINUOUS
10
-0.869826
20
7.84978
11
-0.753787
21
7.85528
0
LINE
8
BLACK
6
CONTINUOUS
10
-0.753787
20
7.85528
11
-0.753719
21
7.85526
0
LINE
8
BLACK
6
CONTINUOUS
10
-0.753719
20
7.85526
11
-0.753651
21
7.85529
0
LINE
8
BLACK
6
CONTINUOUS
10
-0.753651
20
7.85529
11
-0.634878
21
7.8546
0
LINE
8
BLACK
6
CONTINUOUS
10
-0.634878
20
7.8546
11
-0.634814
21
7.85458
0
LINE
8
BLACK
6
CONTINUOUS
10
-0.634814
20
7.85458
11
-0.634748
21
7.8546
0
LINE
8
BLACK
6
CONTINUOUS
10
-0.634748
20
7.8546
11
-0.513239
21
7.84773
0
LINE
8
BLACK
6
CONTINUOUS
10
-0.513239
20
7.84773
11
-0.51318
21
7.84771
0
LINE
8
BLACK
6
CONTINUOUS
10
-0.51318
20
7.84771
11
-0.513116
21
7.84772
0
LINE
8
BLACK
6
CONTINUOUS
10
-0.513116
20
7.84772
11
-0.388873
21
7.83468
0
LINE
8
BLACK
6
CONTINUOUS
10
-0.388873
20
7.83468
11
-0.388818
21
7.83465
0
LINE
8
BLACK
6
CONTINUOUS
10
-0.388818
20
7.83465
11
-0.388757
21
7.83466
0
LINE
8
BLACK
6
CONTINUOUS
10
-0.388757
20
7.83466
11
-0.261778
21
7.81544
0
LINE
8
BLACK
6
CONTINUOUS
10
-0.261778
20
7.81544
11
-0.261728
21
7.81541
0
LINE
8
BLACK
6
CONTINUOUS
10
-0.261728
20
7.81541
11
-0.26167
21
7.81542
0
LINE
8
BLACK
6
CONTINUOUS
10
-0.26167
20
7.81542
11
-0.131956
21
7.79001
0
LINE
8
BLACK
6
CONTINUOUS
10
-0.131956
20
7.79001
11
-0.13191
21
7.78998
0
LINE
8
BLACK
6
CONTINUOUS
10
-0.13191
20
7.78998
11
-0.131854
21
7.78999
0
LINE
8
BLACK
6
CONTINUOUS
10
-0.131854
20
7.78999
11
0
21
7.75854
0
LINE
8
BLACK
6
CONTINUOUS
10
0
20
7.75854
11
0.131854
21
7.78999
0
LINE
8
BLACK
6
CONTINUOUS
10
0.131854
20
7.78999
11
0.13191
21
7.78998
0
LINE
8
BLACK
6
CONTINUOUS
10
0.13191
20
7.78998
11
0.131956
21
7.79001
0
LINE
8
BLACK
6
CONTINUOUS
10
0.131956
20
7.79001
11
0.26167
21
7.81542
0
LINE
8
BLACK
6
CONTINUOUS
10
0.26167
20
7.81542
11
0.261728
21
7.81541
0
LINE
8
BLACK
6
CONTINUOUS
10
0.261728
20
7.81541
11
0.261778
21
7.81544
0
LINE
8
BLACK
6
CONTINUOUS
10
0.261778
20
7.81544
11
0.388757
21
7.83466
0
LINE
8
BLACK
6
CONTINUOUS
10
0.388757
20
7.83466
11
0.388818
21
7.83465
0
LINE
8
BLACK
6
CONTINUOUS
10
0.388818
20
7.83465
11
0.388873
21
7.83468
0
LINE
8
BLACK
6
CONTINUOUS
10
0.388873
20
7.83468
11
0.513116
21
7.84772
0
LINE
8
BLACK
6
CONTINUOUS
10
0.513116
20
7.84772
11
0.51318
21
7.84771
0
LINE
8
BLACK
6
CONTINUOUS
10
0.51318
20
7.84771
11
0.513239
21
7.84773
0
LINE
8
BLACK
6
CONTINUOUS
10
0.513239
20
7.84773
11
0.634748
21
7.8546
0
LINE
8
BLACK
6
CONTINUOUS
10
0.634748
20
7.8546
11
0.634814
21
7.85458
0
LINE
8
BLACK
6
CONTINUOUS
10
0.634814
20
7.85458
11
0.634878
21
7.8546
0
LINE
8
BLACK
6
CONTINUOUS
10
0.634878
20
7.8546
11
0.753651
21
7.85529
0
LINE
8
BLACK
6
CONTINUOUS
10
0.753651
20
7.85529
11
0.753719
21
7.85526
0
LINE
8
BLACK
6
CONTINUOUS
10
0.753719
20
7.85526
11
0.753787
21
7.85528
0
LINE
8
BLACK
6
CONTINUOUS
10
0.753787
20
7.85528
11
0.869826
21
7.84978
0
LINE
8
BLACK
6
CONTINUOUS
10
0.869826
20
7.84978
11
0.869895
21
7.84975
0
LINE
8
BLACK
6
CONTINUOUS
10
0.869895
20
7.84975
11
0.869968
21
7.84977
0
LINE
8
BLACK
6
CONTINUOUS
10
0.869968
20
7.84977
11
0.983272
21
7.83809
0
LINE
8
BLACK
6
CONTINUOUS
10
0.983272
20
7.83809
11
0.983325
21
7.83806
0
LINE
8
BLACK
6
CONTINUOUS
10
0.983325
20
7.83806
11
0.983384
21
7.83808
0
LINE
8
BLACK
6
CONTINUOUS
10
0.983384
20
7.83808
11
1.09304
21
7.82186
0
LINE
8
BLACK
6
CONTINUOUS
10
1.09304
20
7.82186
11
1.09308
21
7.82184
0
LINE
8
BLACK
6
CONTINUOUS
10
1.09308
20
7.82184
11
1.09312
21
7.82185
0
LINE
8
BLACK
6
CONTINUOUS
10
1.09312
20
7.82185
11
1.19821
21
7.80274
0
LINE
8
BLACK
6
CONTINUOUS
10
1.19821
20
7.80274
11
1.19825
21
7.80271
0
LINE
8
BLACK
6
CONTINUOUS
10
1.19825
20
7.80271
11
1.1983
21
7.80272
0
LINE
8
BLACK
6
CONTINUOUS
10
1.1983
20
7.80272
11
1.29882
21
7.78072
0
LINE
8
BLACK
6
CONTINUOUS
10
1.29882
20
7.78072
11
1.29887
21
7.78069
0
LINE
8
BLACK
6
CONTINUOUS
10
1.29887
20
7.78069
11
1.29892
21
7.78069
0
LINE
8
BLACK
6
CONTINUOUS
10
1.29892
20
7.78069
11
1.39488
21
7.7558
0
LINE
8
BLACK
6
CONTINUOUS
10
1.39488
20
7.7558
11
1.39493
21
7.75576
0
LINE
8
BLACK
6
CONTINUOUS
10
1.39493
20
7.75576
11
1.39498
21
7.75577
0
LINE
8
BLACK
6
CONTINUOUS
10
1.39498
20
7.75577
11
1.48638
21
7.72798
0
LINE
8
BLACK
6
CONTINUOUS
10
1.48638
20
7.72798
11
1.48642
21
7.72794
0
LINE
8
BLACK
6
CONTINUOUS
10
1.48642
20
7.72794
11
1.48649
21
7.72795
0
LINE
8
BLACK
6
CONTINUOUS
10
1.48649
20
7.72795
11
1.57332
21
7.69727
0
LINE
8
BLACK
6
CONTINUOUS
10
1.57332
20
7.69727
11
1.57336
21
7.69722
0
LINE
8
BLACK
6
CONTINUOUS
10
1.57336
20
7.69722
11
1.57343
21
7.69722
0
LINE
8
BLACK
6
CONTINUOUS
10
1.57343
20
7.69722
11
1.6557
21
7.66365
0
LINE
8
BLACK
6
CONTINUOUS
10
1.6557
20
7.66365
11
1.65575
21
7.6636
0
LINE
8
BLACK
6
CONTINUOUS
10
1.65575
20
7.6636
11
1.65582
21
7.6636
0
LINE
8
BLACK
6
CONTINUOUS
10
1.65582
20
7.6636
11
1.73352
21
7.62714
0
LINE
8
BLACK
6
CONTINUOUS
10
1.73352
20
7.62714
11
1.73357
21
7.62708
0
LINE
8
BLACK
6
CONTINUOUS
10
1.73357
20
7.62708
11
1.73364
21
7.62708
0
LINE
8
BLACK
6
CONTINUOUS
10
1.73364
20
7.62708
11
1.80759
21
7.5876
0
LINE
8
BLACK
6
CONTINUOUS
10
1.80759
20
7.5876
11
1.80764
21
7.58754
0
LINE
8
BLACK
6
CONTINUOUS
10
1.80764
20
7.58754
11
1.8077
21
7.58753
0
LINE
8
BLACK
6
CONTINUOUS
10
1.8077
20
7.58753
11
1.87873
21
7.54491
0
LINE
8
BLACK
6
CONTINUOUS
10
1.87873
20
7.54491
11
1.87878
21
7.54485
0
LINE
8
BLACK
6
CONTINUOUS
10
1.87878
20
7.54485
11
1.87885
21
7.54484
0
LINE
8
BLACK
6
CONTINUOUS
10
1.87885
20
7.54484
11
1.94695
21
7.49908
0
LINE
8
BLACK
6
CONTINUOUS
10
1.94695
20
7.49908
11
1.94699
21
7.49902
0
LINE
8
BLACK
6
CONTINUOUS
10
1.94699
20
7.49902
11
1.94706
21
7.499
0
LINE
8
BLACK
6
CONTINUOUS
10
1.94706
20
7.499
11
2.01224
21
7.45009
0
LINE
8
BLACK
6
CONTINUOUS
10
2.01224
20
7.45009
11
2.01228
21
7.45003
0
LINE
8
BLACK
6
CONTINUOUS
10
2.01228
20
7.45003
11
2.01235
21
7.45001
0
LINE
8
BLACK
6
CONTINUOUS
10
2.01235
20
7.45001
11
2.0746
21
7.39796
0
LINE
8
BLACK
6
CONTINUOUS
10
2.0746
20
7.39796
11
2.07464
21
7.3979
0
LINE
8
BLACK
6
CONTINUOUS
10
2.07464
20
7.3979
11
2.07471
21
7.39787
0
LINE
8
BLACK
6
CONTINUOUS
10
2.07471
20
7.39787
11
2.13404
21
7.34268
0
LINE
8
BLACK
6
CONTINUOUS
10
2.13404
20
7.34268
11
2.13407
21
7.34261
0
LINE
8
BLACK
6
CONTINUOUS
10
2.13407
20
7.34261
11
2.13413
21
7.34258
0
LINE
8
BLACK
6
CONTINUOUS
10
2.13413
20
7.34258
11
2.19054
21
7.28425
0
LINE
8
BLACK
6
CONTINUOUS
10
2.19054
20
7.28425
11
2.19057
21
7.28418
0
LINE
8
BLACK
6
CONTINUOUS
10
2.19057
20
7.28418
11
2.19063
21
7.28415
0
LINE
8
BLACK
6
CONTINUOUS
10
2.19063
20
7.28415
11
2.24411
21
7.22268
0
LINE
8
BLACK
6
CONTINUOUS
10
2.24411
20
7.22268
11
2.24415
21
7.22257
0
LINE
8
BLACK
6
CONTINUOUS
10
2.24415
20
7.22257
11
2.24424
21
7.22251
0
LINE
8
BLACK
6
CONTINUOUS
10
2.24424
20
7.22251
11
2.29265
21
7.1568
0
LINE
8
BLACK
6
CONTINUOUS
10
2.29265
20
7.1568
11
2.29268
21
7.15665
0
LINE
8
BLACK
6
CONTINUOUS
10
2.29268
20
7.15665
11
2.2928
21
7.15656
0
LINE
8
BLACK
6
CONTINUOUS
10
2.2928
20
7.15656
11
2.33398
21
7.0855
0
LINE
8
BLACK
6
CONTINUOUS
10
2.33398
20
7.0855
11
2.334
21
7.08536
0
LINE
8
BLACK
6
CONTINUOUS
10
2.334
20
7.08536
11
2.3341
21
7.08526
0
LINE
8
BLACK
6
CONTINUOUS
10
2.3341
20
7.08526
11
2.36805
21
7.00885
0
LINE
8
BLACK
6
CONTINUOUS
10
2.36805
20
7.00885
11
2.36805
21
7.00871
0
LINE
8
BLACK
6
CONTINUOUS
10
2.36805
20
7.00871
11
2.36814
21
7.00861
0
LINE
8
BLACK
6
CONTINUOUS
10
2.36814
20
7.00861
11
2.39486
21
6.92686
0
LINE
8
BLACK
6
CONTINUOUS
10
2.39486
20
6.92686
11
2.39485
21
6.92673
0
LINE
8
BLACK
6
CONTINUOUS
10
2.39485
20
6.92673
11
2.39492
21
6.92662
0
LINE
8
BLACK
6
CONTINUOUS
10
2.39492
20
6.92662
11
2.41441
21
6.83953
0
LINE
8
BLACK
6
CONTINUOUS
10
2.41441
20
6.83953
11
2.41439
21
6.83941
0
LINE
8
BLACK
6
CONTINUOUS
10
2.41439
20
6.83941
11
2.41445
21
6.83931
0
LINE
8
BLACK
6
CONTINUOUS
10
2.41445
20
6.83931
11
2.4267
21
6.74687
0
LINE
8
BLACK
6
CONTINUOUS
10
2.4267
20
6.74687
11
2.42668
21
6.74677
0
LINE
8
BLACK
6
CONTINUOUS
10
2.42668
20
6.74677
11
2.42672
21
6.74667
0
LINE
8
BLACK
6
CONTINUOUS
10
2.42672
20
6.74667
11
2.43175
21
6.64889
0
LINE
8
BLACK
6
CONTINUOUS
10
2.43175
20
6.64889
11
2.43172
21
6.6488
0
LINE
8
BLACK
6
CONTINUOUS
10
2.43172
20
6.6488
11
2.43175
21
6.6487
0
LINE
8
BLACK
6
CONTINUOUS
10
2.43175
20
6.6487
11
2.42955
21
6.54558
0
LINE
8
BLACK
6
CONTINUOUS
10
2.42955
20
6.54558
11
2.42949
21
6.54544
0
LINE
8
BLACK
6
CONTINUOUS
10
2.42949
20
6.54544
11
2.42953
21
6.5453
0
LINE
8
BLACK
6
CONTINUOUS
10
2.42953
20
6.5453
11
2.41562
21
6.44229
0
LINE
8
BLACK
6
CONTINUOUS
10
2.41562
20
6.44229
11
2.41551
21
6.4421
0
LINE
8
BLACK
6
CONTINUOUS
10
2.41551
20
6.4421
11
2.41553
21
6.44188
0
LINE
8
BLACK
6
CONTINUOUS
10
2.41553
20
6.44188
11
2.38544
21
6.34444
0
LINE
8
BLACK
6
CONTINUOUS
10
2.38544
20
6.34444
11
2.3853
21
6.34427
0
LINE
8
BLACK
6
CONTINUOUS
10
2.3853
20
6.34427
11
2.38528
21
6.34404
0
LINE
8
BLACK
6
CONTINUOUS
10
2.38528
20
6.34404
11
2.33901
21
6.25218
0
LINE
8
BLACK
6
CONTINUOUS
10
2.33901
20
6.25218
11
2.33884
21
6.25204
0
LINE
8
BLACK
6
CONTINUOUS
10
2.33884
20
6.25204
11
2.33879
21
6.25183
0
LINE
8
BLACK
6
CONTINUOUS
10
2.33879
20
6.25183
11
2.27634
21
6.16554
0
LINE
8
BLACK
6
CONTINUOUS
10
2.27634
20
6.16554
11
2.27617
21
6.16544
0
LINE
8
BLACK
6
CONTINUOUS
10
2.27617
20
6.16544
11
2.2761
21
6.16526
0
LINE
8
BLACK
6
CONTINUOUS
10
2.2761
20
6.16526
11
2.19746
21
6.08454
0
LINE
8
BLACK
6
CONTINUOUS
10
2.19746
20
6.08454
11
2.1973
21
6.08447
0
LINE
8
BLACK
6
CONTINUOUS
10
2.1973
20
6.08447
11
2.19722
21
6.08432
0
LINE
8
BLACK
6
CONTINUOUS
10
2.19722
20
6.08432
11
2.1024
21
6.00917
0
LINE
8
BLACK
6
CONTINUOUS
10
2.1024
20
6.00917
11
2.10225
21
6.00913
0
LINE
8
BLACK
6
CONTINUOUS
10
2.10225
20
6.00913
11
2.10217
21
6.00901
0
LINE
8
BLACK
6
CONTINUOUS
10
2.10217
20
6.00901
11
1.99116
21
5.93943
0
LINE
8
BLACK
6
CONTINUOUS
10
1.99116
20
5.93943
11
1.99104
21
5.93941
0
LINE
8
BLACK
6
CONTINUOUS
10
1.99104
20
5.93941
11
1.99096
21
5.93932
0
LINE
8
BLACK
6
CONTINUOUS
10
1.99096
20
5.93932
11
1.87158
21
5.87925
0
LINE
8
BLACK
6
CONTINUOUS
10
1.87158
20
5.87925
11
2.03458
21
5.86239
0
LINE
8
BLACK
6
CONTINUOUS
10
2.03458
20
5.86239
11
2.03467
21
5.86233
0
LINE
8
BLACK
6
CONTINUOUS
10
2.03467
20
5.86233
11
2.03478
21
5.86236
0
LINE
8
BLACK
6
CONTINUOUS
10
2.03478
20
5.86236
11
2.198
21
5.832
0
LINE
8
BLACK
6
CONTINUOUS
10
2.198
20
5.832
11
2.1981
21
5.83194
0
LINE
8
BLACK
6
CONTINUOUS
10
2.1981
20
5.83194
11
2.19822
21
5.83195
0
LINE
8
BLACK
6
CONTINUOUS
10
2.19822
20
5.83195
11
2.35296
21
5.78901
0
LINE
8
BLACK
6
CONTINUOUS
10
2.35296
20
5.78901
11
2.35306
21
5.78893
0
LINE
8
BLACK
6
CONTINUOUS
10
2.35306
20
5.78893
11
2.35318
21
5.78894
0
LINE
8
BLACK
6
CONTINUOUS
10
2.35318
20
5.78894
11
2.49945
21
5.7334
0
LINE
8
BLACK
6
CONTINUOUS
10
2.49945
20
5.7334
11
2.49954
21
5.73331
0
LINE
8
BLACK
6
CONTINUOUS
10
2.49954
20
5.73331
11
2.49967
21
5.7333
0
LINE
8
BLACK
6
CONTINUOUS
10
2.49967
20
5.7333
11
2.63746
21
5.66517
0
LINE
8
BLACK
6
CONTINUOUS
10
2.63746
20
5.66517
11
2.63755
21
5.66507
0
LINE
8
BLACK
6
CONTINUOUS
10
2.63755
20
5.66507
11
2.63768
21
5.66504
0
LINE
8
BLACK
6
CONTINUOUS
10
2.63768
20
5.66504
11
2.76699
21
5.58432
0
LINE
8
BLACK
6
CONTINUOUS
10
2.76699
20
5.58432
11
2.76707
21
5.58421
0
LINE
8
BLACK
6
CONTINUOUS
10
2.76707
20
5.58421
11
2.7672
21
5.58417
0
LINE
8
BLACK
6
CONTINUOUS
10
2.7672
20
5.58417
11
2.88804
21
5.49085
0
LINE
8
BLACK
6
CONTINUOUS
10
2.88804
20
5.49085
11
2.88811
21
5.49074
0
LINE
8
BLACK
6
CONTINUOUS
10
2.88811
20
5.49074
11
2.88823
21
5.49069
0
LINE
8
BLACK
6
CONTINUOUS
10
2.88823
20
5.49069
11
3.00059
21
5.38478
0
LINE
8
BLACK
6
CONTINUOUS
10
3.00059
20
5.38478
11
3.00064
21
5.38468
0
LINE
8
BLACK
6
CONTINUOUS
10
3.00064
20
5.38468
11
3.00074
21
5.38463
0
LINE
8
BLACK
6
CONTINUOUS
10
3.00074
20
5.38463
11
3.10324
21
5.2702
0
LINE
8
BLACK
6
CONTINUOUS
10
3.10324
20
5.2702
11
3.10327
21
5.2701
0
LINE
8
BLACK
6
CONTINUOUS
10
3.10327
20
5.2701
11
3.10336
21
5.27005
0
LINE
8
BLACK
6
CONTINUOUS
10
3.10336
20
5.27005
11
3.19462
21
5.1512
0
LINE
8
BLACK
6
CONTINUOUS
10
3.19462
20
5.1512
11
3.19465
21
5.1511
0
LINE
8
BLACK
6
CONTINUOUS
10
3.19465
20
5.1511
11
3.19474
21
5.15103
0
LINE
8
BLACK
6
CONTINUOUS
10
3.19474
20
5.15103
11
3.27475
21
5.02775
0
LINE
8
BLACK
6
CONTINUOUS
10
3.27475
20
5.02775
11
3.27477
21
5.02764
0
LINE
8
BLACK
6
CONTINUOUS
10
3.27477
20
5.02764
11
3.27486
21
5.02757
0
LINE
8
BLACK
6
CONTINUOUS
10
3.27486
20
5.02757
11
3.34363
21
4.89986
0
LINE
8
BLACK
6
CONTINUOUS
10
3.34363
20
4.89986
11
3.34364
21
4.89974
0
LINE
8
BLACK
6
CONTINUOUS
10
3.34364
20
4.89974
11
3.34373
21
4.89966
0
LINE
8
BLACK
6
CONTINUOUS
10
3.34373
20
4.89966
11
3.40126
21
4.76752
0
LINE
8
BLACK
6
CONTINUOUS
10
3.40126
20
4.76752
11
3.40126
21
4.76741
0
LINE
8
BLACK
6
CONTINUOUS
10
3.40126
20
4.76741
11
3.40133
21
4.76732
0
LINE
8
BLACK
6
CONTINUOUS
10
3.40133
20
4.76732
11
3.44762
21
4.63074
0
LINE
8
BLACK
6
CONTINUOUS
10
3.44762
20
4.63074
11
3.44761
21
4.63063
0
LINE
8
BLACK
6
CONTINUOUS
10
3.44761
20
4.63063
11
3.44768
21
4.63054
0
LINE
8
BLACK
6
CONTINUOUS
10
3.44768
20
4.63054
11
3.48273
21
4.48954
0
LINE
8
BLACK
6
CONTINUOUS
10
3.48273
20
4.48954
11
3.48271
21
4.48943
0
LINE
8
BLACK
6
CONTINUOUS
10
3.48271
20
4.48943
11
3.48277
21
4.48933
0
LINE
8
BLACK
6
CONTINUOUS
10
3.48277
20
4.48933
11
3.50657
21
4.3439
0
LINE
8
BLACK
6
CONTINUOUS
10
3.50657
20
4.3439
11
3.50655
21
4.34379
0
LINE
8
BLACK
6
CONTINUOUS
10
3.50655
20
4.34379
11
3.5066
21
4.34369
0
LINE
8
BLACK
6
CONTINUOUS
10
3.5066
20
4.34369
11
3.5184
21
4.19658
0
LINE
8
BLACK
6
CONTINUOUS
10
3.5184
20
4.19658
11
3.51837
21
4.19647
0
LINE
8
BLACK
6
CONTINUOUS
10
3.51837
20
4.19647
11
3.51841
21
4.19636
0
LINE
8
BLACK
6
CONTINUOUS
10
3.51841
20
4.19636
11
3.51746
21
4.05035
0
LINE
8
BLACK
6
CONTINUOUS
10
3.51746
20
4.05035
11
3.51742
21
4.05024
0
LINE
8
BLACK
6
CONTINUOUS
10
3.51742
20
4.05024
11
3.51745
21
4.05012
0
LINE
8
BLACK
6
CONTINUOUS
10
3.51745
20
4.05012
11
3.50375
21
3.9052
0
LINE
8
BLACK
6
CONTINUOUS
10
3.50375
20
3.9052
11
3.50369
21
3.90509
0
LINE
8
BLACK
6
CONTINUOUS
10
3.50369
20
3.90509
11
3.50372
21
3.90497
0
LINE
8
BLACK
6
CONTINUOUS
10
3.50372
20
3.90497
11
3.47726
21
3.76114
0
LINE
8
BLACK
6
CONTINUOUS
10
3.47726
20
3.76114
11
3.47719
21
3.76104
0
LINE
8
BLACK
6
CONTINUOUS
10
3.47719
20
3.76104
11
3.47721
21
3.76093
0
LINE
8
BLACK
6
CONTINUOUS
10
3.47721
20
3.76093
11
3.43799
21
3.61818
0
LINE
8
BLACK
6
CONTINUOUS
10
3.43799
20
3.61818
11
3.43792
21
3.61809
0
LINE
8
BLACK
6
CONTINUOUS
10
3.43792
20
3.61809
11
3.43793
21
3.61798
0
LINE
8
BLACK
6
CONTINUOUS
10
3.43793
20
3.61798
11
3.38596
21
3.47633
0
LINE
8
BLACK
6
CONTINUOUS
10
3.38596
20
3.47633
11
3.38588
21
3.47625
0
LINE
8
BLACK
6
CONTINUOUS
10
3.38588
20
3.47625
11
3.38588
21
3.47614
0
LINE
8
BLACK
6
CONTINUOUS
10
3.38588
20
3.47614
11
3.32116
21
3.33558
0
LINE
8
BLACK
6
CONTINUOUS
10
3.32116
20
3.33558
11
3.32108
21
3.33551
0
LINE
8
BLACK
6
CONTINUOUS
10
3.32108
20
3.33551
11
3.32107
21
3.3354
0
LINE
8
BLACK
6
CONTINUOUS
10
3.32107
20
3.3354
11
3.24359
21
3.19593
0
LINE
8
BLACK
6
CONTINUOUS
10
3.24359
20
3.19593
11
3.24347
21
3.19583
0
LINE
8
BLACK
6
CONTINUOUS
10
3.24347
20
3.19583
11
3.24343
21
3.19568
0
LINE
8
BLACK
6
CONTINUOUS
10
3.24343
20
3.19568
11
3.15135
21
3.06751
0
LINE
8
BLACK
6
CONTINUOUS
10
3.15135
20
3.06751
11
3.15116
21
3.06739
0
LINE
8
BLACK
6
CONTINUOUS
10
3.15116
20
3.06739
11
3.15107
21
3.06718
0
LINE
8
BLACK
6
CONTINUOUS
10
3.15107
20
3.06718
11
3.04254
21
2.96053
0
LINE
8
BLACK
6
CONTINUOUS
10
3.04254
20
2.96053
11
3.04232
21
2.96044
0
LINE
8
BLACK
6
CONTINUOUS
10
3.04232
20
2.96044
11
3.04219
21
2.96024
0
LINE
8
BLACK
6
CONTINUOUS
10
3.04219
20
2.96024
11
2.91722
21
2.87511
0
LINE
8
BLACK
6
CONTINUOUS
10
2.91722
20
2.87511
11
2.91699
21
2.87506
0
LINE
8
BLACK
6
CONTINUOUS
10
2.91699
20
2.87506
11
2.91683
21
2.87489
0
LINE
8
BLACK
6
CONTINUOUS
10
2.91683
20
2.87489
11
2.77541
21
2.81128
0
LINE
8
BLACK
6
CONTINUOUS
10
2.77541
20
2.81128
11
2.77519
21
2.81127
0
LINE
8
BLACK
6
CONTINUOUS
10
2.77519
20
2.81127
11
2.77502
21
2.81114
0
LINE
8
BLACK
6
CONTINUOUS
10
2.77502
20
2.81114
11
2.61716
21
2.76904
0
LINE
8
BLACK
6
CONTINUOUS
10
2.61716
20
2.76904
11
2.61697
21
2.76907
0
LINE
8
BLACK
6
CONTINUOUS
10
2.61697
20
2.76907
11
2.6168
21
2.76897
0
LINE
8
BLACK
6
CONTINUOUS
10
2.6168
20
2.76897
11
2.44249
21
2.74839
0
LINE
8
BLACK
6
CONTINUOUS
10
2.44249
20
2.74839
11
2.44233
21
2.74844
0
LINE
8
BLACK
6
CONTINUOUS
10
2.44233
20
2.74844
11
2.44218
21
2.74838
0
LINE
8
BLACK
6
CONTINUOUS
10
2.44218
20
2.74838
11
2.25143
21
2.74931
0
LINE
8
BLACK
6
CONTINUOUS
10
2.25143
20
2.74931
11
2.2513
21
2.74937
0
LINE
8
BLACK
6
CONTINUOUS
10
2.2513
20
2.74937
11
2.25116
21
2.74933
0
LINE
8
BLACK
6
CONTINUOUS
10
2.25116
20
2.74933
11
2.05776
21
2.77029
0
LINE
8
BLACK
6
CONTINUOUS
10
2.05776
20
2.77029
11
2.14668
21
2.72482
0
LINE
8
BLACK
6
CONTINUOUS
10
2.14668
20
2.72482
11
2.24967
21
2.67992
0
LINE
8
BLACK
6
CONTINUOUS
10
2.24967
20
2.67992
11
2.35444
21
2.64189
0
LINE
8
BLACK
6
CONTINUOUS
10
2.35444
20
2.64189
11
2.46101
21
2.61071
0
LINE
8
BLACK
6
CONTINUOUS
10
2.46101
20
2.61071
11
2.56938
21
2.58639
0
LINE
8
BLACK
6
CONTINUOUS
10
2.56938
20
2.58639
11
2.67953
21
2.56893
0
LINE
8
BLACK
6
CONTINUOUS
10
2.67953
20
2.56893
11
2.79149
21
2.55833
0
LINE
8
BLACK
6
CONTINUOUS
10
2.79149
20
2.55833
11
2.90532
21
2.55459
0
LINE
8
BLACK
6
CONTINUOUS
10
2.90532
20
2.55459
11
2.90534
21
2.55458
0
LINE
8
BLACK
6
CONTINUOUS
10
2.90534
20
2.55458
11
2.90537
21
2.55458
0
LINE
8
BLACK
6
CONTINUOUS
10
2.90537
20
2.55458
11
3.01745
21
2.54869
0
LINE
8
BLACK
6
CONTINUOUS
10
3.01745
20
2.54869
11
3.01758
21
2.54863
0
LINE
8
BLACK
6
CONTINUOUS
10
3.01758
20
2.54863
11
3.01772
21
2.54866
0
LINE
8
BLACK
6
CONTINUOUS
10
3.01772
20
2.54866
11
3.12434
21
2.53159
0
LINE
8
BLACK
6
CONTINUOUS
10
3.12434
20
2.53159
11
3.12447
21
2.53151
0
LINE
8
BLACK
6
CONTINUOUS
10
3.12447
20
2.53151
11
3.12462
21
2.53153
0
LINE
8
BLACK
6
CONTINUOUS
10
3.12462
20
2.53153
11
3.22579
21
2.5033
0
LINE
8
BLACK
6
CONTINUOUS
10
3.22579
20
2.5033
11
3.22591
21
2.5032
0
LINE
8
BLACK
6
CONTINUOUS
10
3.22591
20
2.5032
11
3.22607
21
2.5032
0
LINE
8
BLACK
6
CONTINUOUS
10
3.22607
20
2.5032
11
3.32178
21
2.4638
0
LINE
8
BLACK
6
CONTINUOUS
10
3.32178
20
2.4638
11
3.3219
21
2.46368
0
LINE
8
BLACK
6
CONTINUOUS
10
3.3219
20
2.46368
11
3.32206
21
2.46366
0
LINE
8
BLACK
6
CONTINUOUS
10
3.32206
20
2.46366
11
3.41231
21
2.4131
0
LINE
8
BLACK
6
CONTINUOUS
10
3.41231
20
2.4131
11
3.41241
21
2.41297
0
LINE
8
BLACK
6
CONTINUOUS
10
3.41241
20
2.41297
11
3.41257
21
2.41293
0
LINE
8
BLACK
6
CONTINUOUS
10
3.41257
20
2.41293
11
3.49737
21
2.3512
0
LINE
8
BLACK
6
CONTINUOUS
10
3.49737
20
2.3512
11
3.49745
21
2.35106
0
LINE
8
BLACK
6
CONTINUOUS
10
3.49745
20
2.35106
11
3.49759
21
2.35101
0
LINE
8
BLACK
6
CONTINUOUS
10
3.49759
20
2.35101
11
3.57693
21
2.27811
0
LINE
8
BLACK
6
CONTINUOUS
10
3.57693
20
2.27811
11
3.577
21
2.27798
0
LINE
8
BLACK
6
CONTINUOUS
10
3.577
20
2.27798
11
3.57713
21
2.27791
0
LINE
8
BLACK
6
CONTINUOUS
10
3.57713
20
2.27791
11
3.65101
21
2.19384
0
LINE
8
BLACK
6
CONTINUOUS
10
3.65101
20
2.19384
11
3.65105
21
2.19373
0
LINE
8
BLACK
6
CONTINUOUS
10
3.65105
20
2.19373
11
3.65115
21
2.19367
0
LINE
8
BLACK
6
CONTINUOUS
10
3.65115
20
2.19367
11
3.71791
21
2.10311
0
LINE
8
BLACK
6
CONTINUOUS
10
3.71791
20
2.10311
11
3.71793
21
2.10301
0
LINE
8
BLACK
6
CONTINUOUS
10
3.71793
20
2.10301
11
3.71802
21
2.10296
0
LINE
8
BLACK
6
CONTINUOUS
10
3.71802
20
2.10296
11
3.77599
21
2.0106
0
LINE
8
BLACK
6
CONTINUOUS
10
3.77599
20
2.0106
11
3.776
21
2.01049
0
LINE
8
BLACK
6
CONTINUOUS
10
3.776
20
2.01049
11
3.77609
21
2.01043
0
LINE
8
BLACK
6
CONTINUOUS
10
3.77609
20
2.01043
11
3.82527
21
1.91627
0
LINE
8
BLACK
6
CONTINUOUS
10
3.82527
20
1.91627
11
3.82528
21
1.91616
0
LINE
8
BLACK
6
CONTINUOUS
10
3.82528
20
1.91616
11
3.82536
21
1.91608
0
LINE
8
BLACK
6
CONTINUOUS
10
3.82536
20
1.91608
11
3.86574
21
1.82012
0
LINE
8
BLACK
6
CONTINUOUS
10
3.86574
20
1.82012
11
3.86574
21
1.82001
0
LINE
8
BLACK
6
CONTINUOUS
10
3.86574
20
1.82001
11
3.86582
21
1.81992
0
LINE
8
BLACK
6
CONTINUOUS
10
3.86582
20
1.81992
11
3.89741
21
1.72217
0
LINE
8
BLACK
6
CONTINUOUS
10
3.89741
20
1.72217
11
3.8974
21
1.72205
0
LINE
8
BLACK
6
CONTINUOUS
10
3.8974
20
1.72205
11
3.89747
21
1.72195
0
LINE
8
BLACK
6
CONTINUOUS
10
3.89747
20
1.72195
11
3.92027
21
1.6224
0
LINE
8
BLACK
6
CONTINUOUS
10
3.92027
20
1.6224
11
3.92025
21
1.62228
0
LINE
8
BLACK
6
CONTINUOUS
10
3.92025
20
1.62228
11
3.92031
21
1.62218
0
LINE
8
BLACK
6
CONTINUOUS
10
3.92031
20
1.62218
11
3.93432
21
1.52082
0
LINE
8
BLACK
6
CONTINUOUS
10
3.93432
20
1.52082
11
3.93429
21
1.52071
0
LINE
8
BLACK
6
CONTINUOUS
10
3.93429
20
1.52071
11
3.93435
21
1.5206
0
LINE
8
BLACK
6
CONTINUOUS
10
3.93435
20
1.5206
11
3.93956
21
1.41745
0
LINE
8
BLACK
6
CONTINUOUS
10
3.93956
20
1.41745
11
3.93954
21
1.41739
0
LINE
8
BLACK
6
CONTINUOUS
10
3.93954
20
1.41739
11
3.93957
21
1.41732
0
LINE
8
BLACK
6
CONTINUOUS
10
3.93957
20
1.41732
11
3.93957
21
0.748031
0
LINE
8
BLACK
6
CONTINUOUS
10
3.93957
20
0.748031
11
3.93948
21
0.747821
0
LINE
8
BLACK
6
CONTINUOUS
10
3.93948
20
0.747821
11
3.93953
21
0.747598
0
LINE
8
BLACK
6
CONTINUOUS
10
3.93953
20
0.747598
11
3.91471
21
0.603244
0
LINE
8
BLACK
6
CONTINUOUS
10
3.91471
20
0.603244
11
3.91459
21
0.603056
0
LINE
8
BLACK
6
CONTINUOUS
10
3.91459
20
0.603056
11
3.91461
21
0.602835
0
LINE
8
BLACK
6
CONTINUOUS
10
3.91461
20
0.602835
11
3.86999
21
0.474839
0
LINE
8
BLACK
6
CONTINUOUS
10
3.86999
20
0.474839
11
3.86983
21
0.474651
0
LINE
8
BLACK
6
CONTINUOUS
10
3.86983
20
0.474651
11
3.8698
21
0.474402
0
LINE
8
BLACK
6
CONTINUOUS
10
3.8698
20
0.474402
11
3.80539
21
0.362764
0
LINE
8
BLACK
6
CONTINUOUS
10
3.80539
20
0.362764
11
3.80518
21
0.362601
0
LINE
8
BLACK
6
CONTINUOUS
10
3.80518
20
0.362601
11
3.80509
21
0.362348
0
LINE
8
BLACK
6
CONTINUOUS
10
3.80509
20
0.362348
11
3.72089
21
0.267067
0
LINE
8
BLACK
6
CONTINUOUS
10
3.72089
20
0.267067
11
3.72065
21
0.266951
0
LINE
8
BLACK
6
CONTINUOUS
10
3.72065
20
0.266951
11
3.72051
21
0.266723
0
LINE
8
BLACK
6
CONTINUOUS
10
3.72051
20
0.266723
11
3.61652
21
0.1878
0
LINE
8
BLACK
6
CONTINUOUS
10
3.61652
20
0.1878
11
3.61628
21
0.187738
0
LINE
8
BLACK
6
CONTINUOUS
10
3.61628
20
0.187738
11
3.61612
21
0.187554
0
LINE
8
BLACK
6
CONTINUOUS
10
3.61612
20
0.187554
11
3.49233
21
0.124989
0
LINE
8
BLACK
6
CONTINUOUS
10
3.49233
20
0.124989
11
3.49212
21
0.124973
0
LINE
8
BLACK
6
CONTINUOUS
10
3.49212
20
0.124973
11
3.49196
21
0.124836
0
LINE
8
BLACK
6
CONTINUOUS
10
3.49196
20
0.124836
11
3.34837
21
0.0786285
0
LINE
8
BLACK
6
CONTINUOUS
10
3.34837
20
0.0786285
11
3.3482
21
0.0786428
0
LINE
8
BLACK
6
CONTINUOUS
10
3.3482
20
0.0786428
11
3.34805
21
0.0785471
0
LINE
8
BLACK
6
CONTINUOUS
10
3.34805
20
0.0785471
11
3.18466
21
0.0486968
0
LINE
8
BLACK
6
CONTINUOUS
10
3.18466
20
0.0486968
11
3.18456
21
0.0487189
0
LINE
8
BLACK
6
CONTINUOUS
10
3.18456
20
0.0487189
11
3.18447
21
0.048669
0
LINE
8
BLACK
6
CONTINUOUS
10
3.18447
20
0.048669
11
3.00093
21
0.0295214
0
LINE
8
BLACK
6
CONTINUOUS
10
3.00093
20
0.0295214
11
3.00089
21
0.0295351
0
LINE
8
BLACK
6
CONTINUOUS
10
3.00089
20
0.0295351
11
3.00084
21
0.0295137
0
LINE
8
BLACK
6
CONTINUOUS
10
3.00084
20
0.0295137
11
2.7968
21
0.0154138
0
LINE
8
BLACK
6
CONTINUOUS
10
2.7968
20
0.0154138
11
2.79676
21
0.0154264
0
LINE
8
BLACK
6
CONTINUOUS
10
2.79676
20
0.0154264
11
2.79673
21
0.0154098
0
LINE
8
BLACK
6
CONTINUOUS
10
2.79673
20
0.0154098
11
2.57218
21
0.00635772
0
LINE
8
BLACK
6
CONTINUOUS
10
2.57218
20
0.00635772
11
2.57215
21
0.00636909
0
LINE
8
BLACK
6
CONTINUOUS
10
2.57215
20
0.00636909
11
2.57212
21
0.00635598
0
LINE
8
BLACK
6
CONTINUOUS
10
2.57212
20
0.00635598
11
2.32706
21
0.00235157
0
LINE
8
BLACK
6
CONTINUOUS
10
2.32706
20
0.00235157
11
2.32704
21
0.00236185
0
LINE
8
BLACK
6
CONTINUOUS
10
2.32704
20
0.00236185
11
2.32701
21
0.00235126
0
LINE
8
BLACK
6
CONTINUOUS
10
2.32701
20
0.00235126
11
2.06145
21
0.00339461
0
LINE
8
BLACK
6
CONTINUOUS
10
2.06145
20
0.00339461
11
2.06143
21
0.00340386
0
LINE
8
BLACK
6
CONTINUOUS
10
2.06143
20
0.00340386
11
2.0614
21
0.00339516
0
LINE
8
BLACK
6
CONTINUOUS
10
2.0614
20
0.00339516
11
1.77534
21
0.00948626
0
LINE
8
BLACK
6
CONTINUOUS
10
1.77534
20
0.00948626
11
1.77532
21
0.00949461
0
LINE
8
BLACK
6
CONTINUOUS
10
1.77532
20
0.00949461
11
1.7753
21
0.00948736
0
LINE
8
BLACK
6
CONTINUOUS
10
1.7753
20
0.00948736
11
1.46872
21
0.0206261
0
LINE
8
BLACK
6
CONTINUOUS
10
1.46872
20
0.0206261
11
1.46871
21
0.0206337
0
LINE
8
BLACK
6
CONTINUOUS
10
1.46871
20
0.0206337
11
1.46869
21
0.0206276
0
LINE
8
BLACK
6
CONTINUOUS
10
1.46869
20
0.0206276
11
1.14274
21
0.036758
0
LINE
8
BLACK
6
CONTINUOUS
10
1.14274
20
0.036758
11
1.10417
21
-0.00180953
0
LINE
8
BLACK
6
CONTINUOUS
10
1.10417
20
-0.00180953
11
1.10236
21
-0.00255906
0
LINE
8
BLACK
6
CONTINUOUS
10
1.10236
20
-0.00255906
11
-1.10236
21
-0.00255906
0
LINE
8
BLACK
6
CONTINUOUS
10
-1.10236
20
-0.00255906
11
-1.10417
21
-0.00180953
0
LINE
8
BLACK
6
CONTINUOUS
10
0.634972
20
7.84949
11
0.513589
21
7.84263
0
LINE
8
BLACK
6
CONTINUOUS
10
0.513589
20
7.84263
11
0.389465
21
7.82959
0
LINE
8
BLACK
6
CONTINUOUS
10
0.389465
20
7.82959
11
0.2626
21
7.81038
0
LINE
8
BLACK
6
CONTINUOUS
10
0.2626
20
7.81038
11
0.132991
21
7.785
0
LINE
8
BLACK
6
CONTINUOUS
10
0.132991
20
7.785
11
0.00059374
21
7.75342
0
LINE
8
BLACK
6
CONTINUOUS
10
0.00059374
20
7.75342
11
0
21
7.75351
0
LINE
8
BLACK
6
CONTINUOUS
10
0
20
7.75351
11
-0.00059374
21
7.75342
0
LINE
8
BLACK
6
CONTINUOUS
10
-0.00059374
20
7.75342
11
-0.132991
21
7.785
0
LINE
8
BLACK
6
CONTINUOUS
10
-0.132991
20
7.785
11
-0.2626
21
7.81038
0
LINE
8
BLACK
6
CONTINUOUS
10
-0.2626
20
7.81038
11
-0.389465
21
7.82959
0
LINE
8
BLACK
6
CONTINUOUS
10
-0.389465
20
7.82959
11
-0.51359
21
7.84263
0
LINE
8
BLACK
6
CONTINUOUS
10
-0.51359
20
7.84263
11
-0.634972
21
7.84949
0
LINE
8
BLACK
6
CONTINUOUS
10
-0.634972
20
7.84949
11
-0.753613
21
7.85017
0
LINE
8
BLACK
6
CONTINUOUS
10
-0.753613
20
7.85017
11
-0.869513
21
7.84467
0
LINE
8
BLACK
6
CONTINUOUS
10
-0.869513
20
7.84467
11
-0.98269
21
7.83301
0
LINE
8
BLACK
6
CONTINUOUS
10
-0.98269
20
7.83301
11
-1.09225
21
7.8168
0
LINE
8
BLACK
6
CONTINUOUS
10
-1.09225
20
7.8168
11
-1.19725
21
7.79771
0
LINE
8
BLACK
6
CONTINUOUS
10
-1.19725
20
7.79771
11
-1.29768
21
7.77573
0
LINE
8
BLACK
6
CONTINUOUS
10
-1.29768
20
7.77573
11
-1.39354
21
7.75086
0
LINE
8
BLACK
6
CONTINUOUS
10
-1.39354
20
7.75086
11
-1.48483
21
7.7231
0
LINE
8
BLACK
6
CONTINUOUS
10
-1.48483
20
7.7231
11
-1.57155
21
7.69246
0
LINE
8
BLACK
6
CONTINUOUS
10
-1.57155
20
7.69246
11
-1.6537
21
7.65894
0
LINE
8
BLACK
6
CONTINUOUS
10
-1.6537
20
7.65894
11
-1.73128
21
7.62253
0
LINE
8
BLACK
6
CONTINUOUS
10
-1.73128
20
7.62253
11
-1.80512
21
7.58311
0
LINE
8
BLACK
6
CONTINUOUS
10
-1.80512
20
7.58311
11
-1.87605
21
7.54056
0
LINE
8
BLACK
6
CONTINUOUS
10
-1.87605
20
7.54056
11
-1.94404
21
7.49486
0
LINE
8
BLACK
6
CONTINUOUS
10
-1.94404
20
7.49486
11
-2.00912
21
7.44604
0
LINE
8
BLACK
6
CONTINUOUS
10
-2.00912
20
7.44604
11
-2.07127
21
7.39408
0
LINE
8
BLACK
6
CONTINUOUS
10
-2.07127
20
7.39408
11
-2.1305
21
7.33898
0
LINE
8
BLACK
6
CONTINUOUS
10
-2.1305
20
7.33898
11
-2.18681
21
7.28074
0
LINE
8
BLACK
6
CONTINUOUS
10
-2.18681
20
7.28074
11
-2.24018
21
7.2194
0
LINE
8
BLACK
6
CONTINUOUS
10
-2.24018
20
7.2194
11
-2.28844
21
7.15387
0
LINE
8
BLACK
6
CONTINUOUS
10
-2.28844
20
7.15387
11
-2.32948
21
7.08305
0
LINE
8
BLACK
6
CONTINUOUS
10
-2.32948
20
7.08305
11
-2.36332
21
7.00689
0
LINE
8
BLACK
6
CONTINUOUS
10
-2.36332
20
7.00689
11
-2.38995
21
6.92539
0
LINE
8
BLACK
6
CONTINUOUS
10
-2.38995
20
6.92539
11
-2.40939
21
6.83852
0
LINE
8
BLACK
6
CONTINUOUS
10
-2.40939
20
6.83852
11
-2.42162
21
6.7463
0
LINE
8
BLACK
6
CONTINUOUS
10
-2.42162
20
6.7463
11
-2.42663
21
6.64872
0
LINE
8
BLACK
6
CONTINUOUS
10
-2.42663
20
6.64872
11
-2.42444
21
6.54584
0
LINE
8
BLACK
6
CONTINUOUS
10
-2.42444
20
6.54584
11
-2.41058
21
6.44318
0
LINE
8
BLACK
6
CONTINUOUS
10
-2.41058
20
6.44318
11
-2.38061
21
6.34616
0
LINE
8
BLACK
6
CONTINUOUS
10
-2.38061
20
6.34616
11
-2.33453
21
6.25467
0
LINE
8
BLACK
6
CONTINUOUS
10
-2.33453
20
6.25467
11
-2.2723
21
6.16869
0
LINE
8
BLACK
6
CONTINUOUS
10
-2.2723
20
6.16869
11
-2.19391
21
6.08823
0
LINE
8
BLACK
6
CONTINUOUS
10
-2.19391
20
6.08823
11
-2.09933
21
6.01327
0
LINE
8
BLACK
6
CONTINUOUS
10
-2.09933
20
6.01327
11
-1.98855
21
5.94383
0
LINE
8
BLACK
6
CONTINUOUS
10
-1.98855
20
5.94383
11
-1.86147
21
5.87989
0
LINE
8
BLACK
6
CONTINUOUS
10
-1.86147
20
5.87989
11
-1.86128
21
5.87967
0
LINE
8
BLACK
6
CONTINUOUS
10
-1.86128
20
5.87967
11
-1.86101
21
5.87959
0
LINE
8
BLACK
6
CONTINUOUS
10
-1.86101
20
5.87959
11
-1.86066
21
5.87895
0
LINE
8
BLACK
6
CONTINUOUS
10
-1.86066
20
5.87895
11
-1.86019
21
5.8784
0
LINE
8
BLACK
6
CONTINUOUS
10
-1.86019
20
5.8784
11
-1.86021
21
5.87812
0
LINE
8
BLACK
6
CONTINUOUS
10
-1.86021
20
5.87812
11
-1.86007
21
5.87786
0
LINE
8
BLACK
6
CONTINUOUS
10
-1.86007
20
5.87786
11
-1.86028
21
5.87717
0
LINE
8
BLACK
6
CONTINUOUS
10
-1.86028
20
5.87717
11
-1.86033
21
5.87645
0
LINE
8
BLACK
6
CONTINUOUS
10
-1.86033
20
5.87645
11
-1.86055
21
5.87626
0
LINE
8
BLACK
6
CONTINUOUS
10
-1.86055
20
5.87626
11
-1.86063
21
5.87599
0
LINE
8
BLACK
6
CONTINUOUS
10
-1.86063
20
5.87599
11
-1.86127
21
5.87564
0
LINE
8
BLACK
6
CONTINUOUS
10
-1.86127
20
5.87564
11
-1.86182
21
5.87517
0
LINE
8
BLACK
6
CONTINUOUS
10
-1.86182
20
5.87517
11
-1.8621
21
5.87519
0
LINE
8
BLACK
6
CONTINUOUS
10
-1.8621
20
5.87519
11
-1.86236
21
5.87505
0
LINE
8
BLACK
6
CONTINUOUS
10
-1.86236
20
5.87505
11
-2.03395
21
5.85731
0
LINE
8
BLACK
6
CONTINUOUS
10
-2.03395
20
5.85731
11
-2.19695
21
5.82699
0
LINE
8
BLACK
6
CONTINUOUS
10
-2.19695
20
5.82699
11
-2.35148
21
5.78411
0
LINE
8
BLACK
6
CONTINUOUS
10
-2.35148
20
5.78411
11
-2.49751
21
5.72866
0
LINE
8
BLACK
6
CONTINUOUS
10
-2.49751
20
5.72866
11
-2.63508
21
5.66063
0
LINE
8
BLACK
6
CONTINUOUS
10
-2.63508
20
5.66063
11
-2.76418
21
5.58004
0
LINE
8
BLACK
6
CONTINUOUS
10
-2.76418
20
5.58004
11
-2.88481
21
5.48688
0
LINE
8
BLACK
6
CONTINUOUS
10
-2.88481
20
5.48688
11
-2.997
21
5.38113
0
LINE
8
BLACK
6
CONTINUOUS
10
-2.997
20
5.38113
11
-3.09936
21
5.26686
0
LINE
8
BLACK
6
CONTINUOUS
10
-3.09936
20
5.26686
11
-3.1905
21
5.14816
0
LINE
8
BLACK
6
CONTINUOUS
10
-3.1905
20
5.14816
11
-3.2704
21
5.02505
0
LINE
8
BLACK
6
CONTINUOUS
10
-3.2704
20
5.02505
11
-3.33908
21
4.89752
0
LINE
8
BLACK
6
CONTINUOUS
10
-3.33908
20
4.89752
11
-3.39652
21
4.76558
0
LINE
8
BLACK
6
CONTINUOUS
10
-3.39652
20
4.76558
11
-3.44274
21
4.6292
0
LINE
8
BLACK
6
CONTINUOUS
10
-3.44274
20
4.6292
11
-3.47774
21
4.4884
0
LINE
8
BLACK
6
CONTINUOUS
10
-3.47774
20
4.4884
11
-3.50151
21
4.34317
0
LINE
8
BLACK
6
CONTINUOUS
10
-3.50151
20
4.34317
11
-3.51329
21
4.19628
0
LINE
8
BLACK
6
CONTINUOUS
10
-3.51329
20
4.19628
11
-3.51235
21
4.05049
0
LINE
8
BLACK
6
CONTINUOUS
10
-3.51235
20
4.05049
11
-3.49866
21
3.90579
0
LINE
8
BLACK
6
CONTINUOUS
10
-3.49866
20
3.90579
11
-3.47224
21
3.76218
0
LINE
8
BLACK
6
CONTINUOUS
10
-3.47224
20
3.76218
11
-3.43309
21
3.61964
0
LINE
8
BLACK
6
CONTINUOUS
10
-3.43309
20
3.61964
11
-3.38119
21
3.47819
0
LINE
8
BLACK
6
CONTINUOUS
10
-3.38119
20
3.47819
11
-3.31655
21
3.3378
0
LINE
8
BLACK
6
CONTINUOUS
10
-3.31655
20
3.3378
11
-3.23919
21
3.19855
0
LINE
8
BLACK
6
CONTINUOUS
10
-3.23919
20
3.19855
11
-3.14732
21
3.07068
0
LINE
8
BLACK
6
CONTINUOUS
10
-3.14732
20
3.07068
11
-3.03912
21
2.96434
0
LINE
8
BLACK
6
CONTINUOUS
10
-3.03912
20
2.96434
11
-2.91452
21
2.87947
0
LINE
8
BLACK
6
CONTINUOUS
10
-2.91452
20
2.87947
11
-2.7735
21
2.81603
0
LINE
8
BLACK
6
CONTINUOUS
10
-2.7735
20
2.81603
11
-2.61602
21
2.77403
0
LINE
8
BLACK
6
CONTINUOUS
10
-2.61602
20
2.77403
11
-2.44205
21
2.75349
0
LINE
8
BLACK
6
CONTINUOUS
10
-2.44205
20
2.75349
11
-2.25158
21
2.75443
0
LINE
8
BLACK
6
CONTINUOUS
10
-2.25158
20
2.75443
11
-2.04452
21
2.77687
0
LINE
8
BLACK
6
CONTINUOUS
10
-2.04452
20
2.77687
11
-2.044
21
2.77672
0
LINE
8
BLACK
6
CONTINUOUS
10
-2.044
20
2.77672
11
-2.04345
21
2.77676
0
LINE
8
BLACK
6
CONTINUOUS
10
-2.04345
20
2.77676
11
-2.04309
21
2.77646
0
LINE
8
BLACK
6
CONTINUOUS
10
-2.04309
20
2.77646
11
-2.04264
21
2.77632
0
LINE
8
BLACK
6
CONTINUOUS
10
-2.04264
20
2.77632
11
-2.04238
21
2.77585
0
LINE
8
BLACK
6
CONTINUOUS
10
-2.04238
20
2.77585
11
-2.04196
21
2.77549
0
LINE
8
BLACK
6
CONTINUOUS
10
-2.04196
20
2.77549
11
-2.04193
21
2.77502
0
LINE
8
BLACK
6
CONTINUOUS
10
-2.04193
20
2.77502
11
-2.0417
21
2.7746
0
LINE
8
BLACK
6
CONTINUOUS
10
-2.0417
20
2.7746
11
-2.04185
21
2.77408
0
LINE
8
BLACK
6
CONTINUOUS
10
-2.04185
20
2.77408
11
-2.04181
21
2.77354
0
LINE
8
BLACK
6
CONTINUOUS
10
-2.04181
20
2.77354
11
-2.04211
21
2.77318
0
LINE
8
BLACK
6
CONTINUOUS
10
-2.04211
20
2.77318
11
-2.04225
21
2.77272
0
LINE
8
BLACK
6
CONTINUOUS
10
-2.04225
20
2.77272
11
-2.04272
21
2.77246
0
LINE
8
BLACK
6
CONTINUOUS
10
-2.04272
20
2.77246
11
-2.04308
21
2.77205
0
LINE
8
BLACK
6
CONTINUOUS
10
-2.04308
20
2.77205
11
-2.14442
21
2.72022
0
LINE
8
BLACK
6
CONTINUOUS
10
-2.14442
20
2.72022
11
-2.1445
21
2.72022
0
LINE
8
BLACK
6
CONTINUOUS
10
-2.1445
20
2.72022
11
-2.14456
21
2.72016
0
LINE
8
BLACK
6
CONTINUOUS
10
-2.14456
20
2.72016
11
-2.24769
21
2.6752
0
LINE
8
BLACK
6
CONTINUOUS
10
-2.24769
20
2.6752
11
-2.24778
21
2.6752
0
LINE
8
BLACK
6
CONTINUOUS
10
-2.24778
20
2.6752
11
-2.24784
21
2.67514
0
LINE
8
BLACK
6
CONTINUOUS
10
-2.24784
20
2.67514
11
-2.35277
21
2.63705
0
LINE
8
BLACK
6
CONTINUOUS
10
-2.35277
20
2.63705
11
-2.35286
21
2.63705
0
LINE
8
BLACK
6
CONTINUOUS
10
-2.35286
20
2.63705
11
-2.35293
21
2.637
0
LINE
8
BLACK
6
CONTINUOUS
10
-2.35293
20
2.637
11
-2.45966
21
2.60578
0
LINE
8
BLACK
6
CONTINUOUS
10
-2.45966
20
2.60578
11
-2.45974
21
2.60579
0
LINE
8
BLACK
6
CONTINUOUS
10
-2.45974
20
2.60579
11
-2.45981
21
2.60574
0
LINE
8
BLACK
6
CONTINUOUS
10
-2.45981
20
2.60574
11
-2.56834
21
2.58138
0
LINE
8
BLACK
6
CONTINUOUS
10
-2.56834
20
2.58138
11
-2.56842
21
2.5814
0
LINE
8
BLACK
6
CONTINUOUS
10
-2.56842
20
2.5814
11
-2.5685
21
2.58135
0
LINE
8
BLACK
6
CONTINUOUS
10
-2.5685
20
2.58135
11
-2.67881
21
2.56387
0
LINE
8
BLACK
6
CONTINUOUS
10
-2.67881
20
2.56387
11
-2.6789
21
2.56389
0
LINE
8
BLACK
6
CONTINUOUS
10
-2.6789
20
2.56389
11
-2.67897
21
2.56385
0
LINE
8
BLACK
6
CONTINUOUS
10
-2.67897
20
2.56385
11
-2.79108
21
2.55323
0
LINE
8
BLACK
6
CONTINUOUS
10
-2.79108
20
2.55323
11
-2.79117
21
2.55325
0
LINE
8
BLACK
6
CONTINUOUS
10
-2.79117
20
2.55325
11
-2.79124
21
2.55322
0
LINE
8
BLACK
6
CONTINUOUS
10
-2.79124
20
2.55322
11
-2.90513
21
2.54947
0
LINE
8
BLACK
6
CONTINUOUS
10
-2.90513
20
2.54947
11
-3.01704
21
2.54358
0
LINE
8
BLACK
6
CONTINUOUS
10
-3.01704
20
2.54358
11
-3.12339
21
2.52656
0
LINE
8
BLACK
6
CONTINUOUS
10
-3.12339
20
2.52656
11
-3.22427
21
2.49841
0
LINE
8
BLACK
6
CONTINUOUS
10
-3.22427
20
2.49841
11
-3.31969
21
2.45912
0
LINE
8
BLACK
6
CONTINUOUS
10
-3.31969
20
2.45912
11
-3.40968
21
2.4087
0
LINE
8
BLACK
6
CONTINUOUS
10
-3.40968
20
2.4087
11
-3.49424
21
2.34714
0
LINE
8
BLACK
6
CONTINUOUS
10
-3.49424
20
2.34714
11
-3.57337
21
2.27443
0
LINE
8
BLACK
6
CONTINUOUS
10
-3.57337
20
2.27443
11
-3.64709
21
2.19054
0
LINE
8
BLACK
6
CONTINUOUS
10
-3.64709
20
2.19054
11
-3.71373
21
2.10015
0
LINE
8
BLACK
6
CONTINUOUS
10
-3.71373
20
2.10015
11
-3.7716
21
2.00797
0
LINE
8
BLACK
6
CONTINUOUS
10
-3.7716
20
2.00797
11
-3.82068
21
1.91399
0
LINE
8
BLACK
6
CONTINUOUS
10
-3.82068
20
1.91399
11
-3.86098
21
1.81824
0
LINE
8
BLACK
6
CONTINUOUS
10
-3.86098
20
1.81824
11
-3.89251
21
1.7207
0
LINE
8
BLACK
6
CONTINUOUS
10
-3.89251
20
1.7207
11
-3.91526
21
1.62136
0
LINE
8
BLACK
6
CONTINUOUS
10
-3.91526
20
1.62136
11
-3.92924
21
1.52023
0
LINE
8
BLACK
6
CONTINUOUS
10
-3.92924
20
1.52023
11
-3.93445
21
1.41726
0
LINE
8
BLACK
6
CONTINUOUS
10
-3.93445
20
1.41726
11
-3.93445
21
0.74825
0
LINE
8
BLACK
6
CONTINUOUS
10
-3.93445
20
0.74825
11
-3.9097
21
0.60432
0
LINE
8
BLACK
6
CONTINUOUS
10
-3.9097
20
0.60432
11
-3.86524
21
0.476751
0
LINE
8
BLACK
6
CONTINUOUS
10
-3.86524
20
0.476751
11
-3.80108
21
0.365544
0
LINE
8
BLACK
6
CONTINUOUS
10
-3.80108
20
0.365544
11
-3.71722
21
0.270646
0
LINE
8
BLACK
6
CONTINUOUS
10
-3.71722
20
0.270646
11
-3.61361
21
0.192017
0
LINE
8
BLACK
6
CONTINUOUS
10
-3.61361
20
0.192017
11
-3.4902
21
0.129647
0
LINE
8
BLACK
6
CONTINUOUS
10
-3.4902
20
0.129647
11
-3.34696
21
0.0835518
0
LINE
8
BLACK
6
CONTINUOUS
10
-3.34696
20
0.0835518
11
-3.18384
21
0.0537492
0
LINE
8
BLACK
6
CONTINUOUS
10
-3.18384
20
0.0537492
11
-3.00045
21
0.0346165
0
LINE
8
BLACK
6
CONTINUOUS
10
-3.00045
20
0.0346165
11
-2.79649
21
0.0205223
0
LINE
8
BLACK
6
CONTINUOUS
10
-2.79649
20
0.0205223
11
-2.572
21
0.0114729
0
LINE
8
BLACK
6
CONTINUOUS
10
-2.572
20
0.0114729
11
-2.32701
21
0.00746941
0
LINE
8
BLACK
6
CONTINUOUS
10
-2.32701
20
0.00746941
11
-2.06149
21
0.00851256
0
LINE
8
BLACK
6
CONTINUOUS
10
-2.06149
20
0.00851256
11
-1.77546
21
0.0146028
0
LINE
8
BLACK
6
CONTINUOUS
10
-1.77546
20
0.0146028
11
-1.46893
21
0.0257402
0
LINE
8
BLACK
6
CONTINUOUS
10
-1.46893
20
0.0257402
11
-1.14186
21
0.041926
0
LINE
8
BLACK
6
CONTINUOUS
10
-1.14186
20
0.041926
11
-1.14179
21
0.0419032
0
LINE
8
BLACK
6
CONTINUOUS
10
-1.14179
20
0.0419032
11
-1.14173
21
0.0419291
0
LINE
8
BLACK
6
CONTINUOUS
10
-1.14173
20
0.0419291
11
-1.14088
21
0.0415769
0
LINE
8
BLACK
6
CONTINUOUS
10
-1.14088
20
0.0415769
11
-1.14001
21
0.0412669
0
LINE
8
BLACK
6
CONTINUOUS
10
-1.14001
20
0.0412669
11
-1.13999
21
0.0412056
0
LINE
8
BLACK
6
CONTINUOUS
10
-1.13999
20
0.0412056
11
-1.13992
21
0.0411796
0
LINE
8
BLACK
6
CONTINUOUS
10
-1.13992
20
0.0411796
11
-1.1013
21
0.00255906
0
LINE
8
BLACK
6
CONTINUOUS
10
-1.1013
20
0.00255906
11
1.1013
21
0.00255906
0
LINE
8
BLACK
6
CONTINUOUS
10
1.1013
20
0.00255906
11
1.13992
21
0.0411796
0
LINE
8
BLACK
6
CONTINUOUS
10
1.13992
20
0.0411796
11
1.13999
21
0.0412056
0
LINE
8
BLACK
6
CONTINUOUS
10
1.13999
20
0.0412056
11
1.14001
21
0.0412669
0
LINE
8
BLACK
6
CONTINUOUS
10
1.14001
20
0.0412669
11
1.14088
21
0.0415769
0
LINE
8
BLACK
6
CONTINUOUS
10
1.14088
20
0.0415769
11
1.14173
21
0.0419291
0
LINE
8
BLACK
6
CONTINUOUS
10
1.14173
20
0.0419291
11
1.14179
21
0.0419032
0
LINE
8
BLACK
6
CONTINUOUS
10
1.14179
20
0.0419032
11
1.14186
21
0.041926
0
LINE
8
BLACK
6
CONTINUOUS
10
1.14186
20
0.041926
11
1.46893
21
0.0257402
0
LINE
8
BLACK
6
CONTINUOUS
10
1.46893
20
0.0257402
11
1.77546
21
0.0146028
0
LINE
8
BLACK
6
CONTINUOUS
10
1.77546
20
0.0146028
11
2.06149
21
0.00851256
0
LINE
8
BLACK
6
CONTINUOUS
10
2.06149
20
0.00851256
11
2.32701
21
0.00746941
0
LINE
8
BLACK
6
CONTINUOUS
10
2.32701
20
0.00746941
11
2.572
21
0.0114729
0
LINE
8
BLACK
6
CONTINUOUS
10
2.572
20
0.0114729
11
2.79649
21
0.0205223
0
LINE
8
BLACK
6
CONTINUOUS
10
2.79649
20
0.0205223
11
3.00045
21
0.0346165
0
LINE
8
BLACK
6
CONTINUOUS
10
3.00045
20
0.0346165
11
3.18384
21
0.0537492
0
LINE
8
BLACK
6
CONTINUOUS
10
3.18384
20
0.0537492
11
3.34696
21
0.0835518
0
LINE
8
BLACK
6
CONTINUOUS
10
3.34696
20
0.0835518
11
3.4902
21
0.129647
0
LINE
8
BLACK
6
CONTINUOUS
10
3.4902
20
0.129647
11
3.61361
21
0.192017
0
LINE
8
BLACK
6
CONTINUOUS
10
3.61361
20
0.192017
11
3.71722
21
0.270646
0
LINE
8
BLACK
6
CONTINUOUS
10
3.71722
20
0.270646
11
3.80108
21
0.365544
0
LINE
8
BLACK
6
CONTINUOUS
10
3.80108
20
0.365544
11
3.86524
21
0.476751
0
LINE
8
BLACK
6
CONTINUOUS
10
3.86524
20
0.476751
11
3.9097
21
0.60432
0
LINE
8
BLACK
6
CONTINUOUS
10
3.9097
20
0.60432
11
3.93445
21
0.74825
0
LINE
8
BLACK
6
CONTINUOUS
10
3.93445
20
0.74825
11
3.93445
21
1.41726
0
LINE
8
BLACK
6
CONTINUOUS
10
3.93445
20
1.41726
11
3.92924
21
1.52023
0
LINE
8
BLACK
6
CONTINUOUS
10
3.92924
20
1.52023
11
3.91526
21
1.62136
0
LINE
8
BLACK
6
CONTINUOUS
10
3.91526
20
1.62136
11
3.89251
21
1.7207
0
LINE
8
BLACK
6
CONTINUOUS
10
3.89251
20
1.7207
11
3.86098
21
1.81824
0
LINE
8
BLACK
6
CONTINUOUS
10
3.86098
20
1.81824
11
3.82068
21
1.914
0
LINE
8
BLACK
6
CONTINUOUS
10
3.82068
20
1.914
11
3.7716
21
2.00797
0
LINE
8
BLACK
6
CONTINUOUS
10
3.7716
20
2.00797
11
3.71373
21
2.10015
0
LINE
8
BLACK
6
CONTINUOUS
10
3.71373
20
2.10015
11
3.64709
21
2.19054
0
LINE
8
BLACK
6
CONTINUOUS
10
3.64709
20
2.19054
11
3.57337
21
2.27443
0
LINE
8
BLACK
6
CONTINUOUS
10
3.57337
20
2.27443
11
3.49424
21
2.34714
0
LINE
8
BLACK
6
CONTINUOUS
10
3.49424
20
2.34714
11
3.40968
21
2.40871
0
LINE
8
BLACK
6
CONTINUOUS
10
3.40968
20
2.40871
11
3.31969
21
2.45912
0
LINE
8
BLACK
6
CONTINUOUS
10
3.31969
20
2.45912
11
3.22427
21
2.49841
0
LINE
8
BLACK
6
CONTINUOUS
10
3.22427
20
2.49841
11
3.12339
21
2.52656
0
LINE
8
BLACK
6
CONTINUOUS
10
3.12339
20
2.52656
11
3.01704
21
2.54358
0
LINE
8
BLACK
6
CONTINUOUS
10
3.01704
20
2.54358
11
2.90513
21
2.54947
0
LINE
8
BLACK
6
CONTINUOUS
10
2.90513
20
2.54947
11
2.79124
21
2.55322
0
LINE
8
BLACK
6
CONTINUOUS
10
2.79124
20
2.55322
11
2.79117
21
2.55325
0
LINE
8
BLACK
6
CONTINUOUS
10
2.79117
20
2.55325
11
2.79108
21
2.55323
0
LINE
8
BLACK
6
CONTINUOUS
10
2.79108
20
2.55323
11
2.67897
21
2.56385
0
LINE
8
BLACK
6
CONTINUOUS
10
2.67897
20
2.56385
11
2.6789
21
2.56389
0
LINE
8
BLACK
6
CONTINUOUS
10
2.6789
20
2.56389
11
2.67881
21
2.56387
0
LINE
8
BLACK
6
CONTINUOUS
10
2.67881
20
2.56387
11
2.5685
21
2.58135
0
LINE
8
BLACK
6
CONTINUOUS
10
2.5685
20
2.58135
11
2.56842
21
2.5814
0
LINE
8
BLACK
6
CONTINUOUS
10
2.56842
20
2.5814
11
2.56834
21
2.58138
0
LINE
8
BLACK
6
CONTINUOUS
10
2.56834
20
2.58138
11
2.45981
21
2.60574
0
LINE
8
BLACK
6
CONTINUOUS
10
2.45981
20
2.60574
11
2.45974
21
2.60579
0
LINE
8
BLACK
6
CONTINUOUS
10
2.45974
20
2.60579
11
2.45966
21
2.60578
0
LINE
8
BLACK
6
CONTINUOUS
10
2.45966
20
2.60578
11
2.35293
21
2.637
0
LINE
8
BLACK
6
CONTINUOUS
10
2.35293
20
2.637
11
2.35286
21
2.63705
0
LINE
8
BLACK
6
CONTINUOUS
10
2.35286
20
2.63705
11
2.35277
21
2.63705
0
LINE
8
BLACK
6
CONTINUOUS
10
2.35277
20
2.63705
11
2.24784
21
2.67514
0
LINE
8
BLACK
6
CONTINUOUS
10
2.24784
20
2.67514
11
2.24778
21
2.6752
0
LINE
8
BLACK
6
CONTINUOUS
10
2.24778
20
2.6752
11
2.24769
21
2.6752
0
LINE
8
BLACK
6
CONTINUOUS
10
2.24769
20
2.6752
11
2.14456
21
2.72016
0
LINE
8
BLACK
6
CONTINUOUS
10
2.14456
20
2.72016
11
2.1445
21
2.72022
0
LINE
8
BLACK
6
CONTINUOUS
10
2.1445
20
2.72022
11
2.14442
21
2.72022
0
LINE
8
BLACK
6
CONTINUOUS
10
2.14442
20
2.72022
11
2.04308
21
2.77205
0
LINE
8
BLACK
6
CONTINUOUS
10
2.04308
20
2.77205
11
2.04272
21
2.77246
0
LINE
8
BLACK
6
CONTINUOUS
10
2.04272
20
2.77246
11
2.04225
21
2.77272
0
LINE
8
BLACK
6
CONTINUOUS
10
2.04225
20
2.77272
11
2.04211
21
2.77318
0
LINE
8
BLACK
6
CONTINUOUS
10
2.04211
20
2.77318
11
2.04181
21
2.77354
0
LINE
8
BLACK
6
CONTINUOUS
10
2.04181
20
2.77354
11
2.04185
21
2.77408
0
LINE
8
BLACK
6
CONTINUOUS
10
2.04185
20
2.77408
11
2.0417
21
2.7746
0
LINE
8
BLACK
6
CONTINUOUS
10
2.0417
20
2.7746
11
2.04193
21
2.77502
0
LINE
8
BLACK
6
CONTINUOUS
10
2.04193
20
2.77502
11
2.04196
21
2.77549
0
LINE
8
BLACK
6
CONTINUOUS
10
2.04196
20
2.77549
11
2.04238
21
2.77585
0
LINE
8
BLACK
6
CONTINUOUS
10
2.04238
20
2.77585
11
2.04264
21
2.77632
0
LINE
8
BLACK
6
CONTINUOUS
10
2.04264
20
2.77632
11
2.04309
21
2.77646
0
LINE
8
BLACK
6
CONTINUOUS
10
2.04309
20
2.77646
11
2.04345
21
2.77676
0
LINE
8
BLACK
6
CONTINUOUS
10
2.04345
20
2.77676
11
2.044
21
2.77672
0
LINE
8
BLACK
6
CONTINUOUS
10
2.044
20
2.77672
11
2.04452
21
2.77687
0
LINE
8
BLACK
6
CONTINUOUS
10
2.04452
20
2.77687
11
2.25158
21
2.75443
0
LINE
8
BLACK
6
CONTINUOUS
10
2.25158
20
2.75443
11
2.44205
21
2.75349
0
LINE
8
BLACK
6
CONTINUOUS
10
2.44205
20
2.75349
11
2.61602
21
2.77403
0
LINE
8
BLACK
6
CONTINUOUS
10
2.61602
20
2.77403
11
2.7735
21
2.81603
0
LINE
8
BLACK
6
CONTINUOUS
10
2.7735
20
2.81603
11
2.91452
21
2.87947
0
LINE
8
BLACK
6
CONTINUOUS
10
2.91452
20
2.87947
11
3.03912
21
2.96434
0
LINE
8
BLACK
6
CONTINUOUS
10
3.03912
20
2.96434
11
3.14732
21
3.07068
0
LINE
8
BLACK
6
CONTINUOUS
10
3.14732
20
3.07068
11
3.23919
21
3.19855
0
LINE
8
BLACK
6
CONTINUOUS
10
3.23919
20
3.19855
11
3.31655
21
3.3378
0
LINE
8
BLACK
6
CONTINUOUS
10
3.31655
20
3.3378
11
3.38119
21
3.47819
0
LINE
8
BLACK
6
CONTINUOUS
10
3.38119
20
3.47819
11
3.43309
21
3.61964
0
LINE
8
BLACK
6
CONTINUOUS
10
3.43309
20
3.61964
11
3.47224
21
3.76218
0
LINE
8
BLACK
6
CONTINUOUS
10
3.47224
20
3.76218
11
3.49866
21
3.90579
0
LINE
8
BLACK
6
CONTINUOUS
10
3.49866
20
3.90579
11
3.51235
21
4.05049
0
LINE
8
BLACK
6
CONTINUOUS
10
3.51235
20
4.05049
11
3.51329
21
4.19628
0
LINE
8
BLACK
6
CONTINUOUS
10
3.51329
20
4.19628
11
3.50151
21
4.34317
0
LINE
8
BLACK
6
CONTINUOUS
10
3.50151
20
4.34317
11
3.47774
21
4.4884
0
LINE
8
BLACK
6
CONTINUOUS
10
3.47774
20
4.4884
11
3.44274
21
4.6292
0
LINE
8
BLACK
6
CONTINUOUS
10
3.44274
20
4.6292
11
3.39652
21
4.76558
0
LINE
8
BLACK
6
CONTINUOUS
10
3.39652
20
4.76558
11
3.33908
21
4.89752
0
LINE
8
BLACK
6
CONTINUOUS
10
3.33908
20
4.89752
11
3.2704
21
5.02505
0
LINE
8
BLACK
6
CONTINUOUS
10
3.2704
20
5.02505
11
3.1905
21
5.14816
0
LINE
8
BLACK
6
CONTINUOUS
10
3.1905
20
5.14816
11
3.09936
21
5.26686
0
LINE
8
BLACK
6
CONTINUOUS
10
3.09936
20
5.26686
11
2.997
21
5.38113
0
LINE
8
BLACK
6
CONTINUOUS
10
2.997
20
5.38113
11
2.88481
21
5.48688
0
LINE
8
BLACK
6
CONTINUOUS
10
2.88481
20
5.48688
11
2.76418
21
5.58004
0
LINE
8
BLACK
6
CONTINUOUS
10
2.76418
20
5.58004
11
2.63508
21
5.66063
0
LINE
8
BLACK
6
CONTINUOUS
10
2.63508
20
5.66063
11
2.49751
21
5.72866
0
LINE
8
BLACK
6
CONTINUOUS
10
2.49751
20
5.72866
11
2.35148
21
5.78411
0
LINE
8
BLACK
6
CONTINUOUS
10
2.35148
20
5.78411
11
2.19695
21
5.82699
0
LINE
8
BLACK
6
CONTINUOUS
10
2.19695
20
5.82699
11
2.03395
21
5.85731
0
LINE
8
BLACK
6
CONTINUOUS
10
2.03395
20
5.85731
11
1.86236
21
5.87505
0
LINE
8
BLACK
6
CONTINUOUS
10
1.86236
20
5.87505
11
1.8621
21
5.87519
0
LINE
8
BLACK
6
CONTINUOUS
10
1.8621
20
5.87519
11
1.86182
21
5.87517
0
LINE
8
BLACK
6
CONTINUOUS
10
1.86182
20
5.87517
11
1.86127
21
5.87564
0
LINE
8
BLACK
6
CONTINUOUS
10
1.86127
20
5.87564
11
1.86063
21
5.87599
0
LINE
8
BLACK
6
CONTINUOUS
10
1.86063
20
5.87599
11
1.86055
21
5.87626
0
LINE
8
BLACK
6
CONTINUOUS
10
1.86055
20
5.87626
11
1.86033
21
5.87645
0
LINE
8
BLACK
6
CONTINUOUS
10
1.86033
20
5.87645
11
1.86028
21
5.87717
0
LINE
8
BLACK
6
CONTINUOUS
10
1.86028
20
5.87717
11
1.86007
21
5.87786
0
LINE
8
BLACK
6
CONTINUOUS
10
1.86007
20
5.87786
11
1.86021
21
5.87812
0
LINE
8
BLACK
6
CONTINUOUS
10
1.86021
20
5.87812
11
1.86019
21
5.8784
0
LINE
8
BLACK
6
CONTINUOUS
10
1.86019
20
5.8784
11
1.86066
21
5.87895
0
LINE
8
BLACK
6
CONTINUOUS
10
1.86066
20
5.87895
11
1.86101
21
5.87959
0
LINE
8
BLACK
6
CONTINUOUS
10
1.86101
20
5.87959
11
1.86128
21
5.87967
0
LINE
8
BLACK
6
CONTINUOUS
10
1.86128
20
5.87967
11
1.86147
21
5.87989
0
LINE
8
BLACK
6
CONTINUOUS
10
1.86147
20
5.87989
11
1.98855
21
5.94383
0
LINE
8
BLACK
6
CONTINUOUS
10
1.98855
20
5.94383
11
2.09933
21
6.01327
0
LINE
8
BLACK
6
CONTINUOUS
10
2.09933
20
6.01327
11
2.19391
21
6.08823
0
LINE
8
BLACK
6
CONTINUOUS
10
2.19391
20
6.08823
11
2.2723
21
6.16869
0
LINE
8
BLACK
6
CONTINUOUS
10
2.2723
20
6.16869
11
2.33453
21
6.25467
0
LINE
8
BLACK
6
CONTINUOUS
10
2.33453
20
6.25467
11
2.38061
21
6.34616
0
LINE
8
BLACK
6
CONTINUOUS
10
2.38061
20
6.34616
11
2.41058
21
6.44318
0
LINE
8
BLACK
6
CONTINUOUS
10
2.41058
20
6.44318
11
2.42444
21
6.54584
0
LINE
8
BLACK
6
CONTINUOUS
10
2.42444
20
6.54584
11
2.42663
21
6.64872
0
LINE
8
BLACK
6
CONTINUOUS
10
2.42663
20
6.64872
11
2.42162
21
6.7463
0
LINE
8
BLACK
6
CONTINUOUS
10
2.42162
20
6.7463
11
2.40939
21
6.83852
0
LINE
8
BLACK
6
CONTINUOUS
10
2.40939
20
6.83852
11
2.38995
21
6.92539
0
LINE
8
BLACK
6
CONTINUOUS
10
2.38995
20
6.92539
11
2.36332
21
7.00689
0
LINE
8
BLACK
6
CONTINUOUS
10
2.36332
20
7.00689
11
2.32948
21
7.08305
0
LINE
8
BLACK
6
CONTINUOUS
10
2.32948
20
7.08305
11
2.28844
21
7.15387
0
LINE
8
BLACK
6
CONTINUOUS
10
2.28844
20
7.15387
11
2.24018
21
7.2194
0
LINE
8
BLACK
6
CONTINUOUS
10
2.24018
20
7.2194
11
2.18681
21
7.28074
0
LINE
8
BLACK
6
CONTINUOUS
10
2.18681
20
7.28074
11
2.1305
21
7.33898
0
LINE
8
BLACK
6
CONTINUOUS
10
2.1305
20
7.33898
11
2.07127
21
7.39408
0
LINE
8
BLACK
6
CONTINUOUS
10
2.07127
20
7.39408
11
2.00912
21
7.44604
0
LINE
8
BLACK
6
CONTINUOUS
10
2.00912
20
7.44604
11
1.94404
21
7.49487
0
LINE
8
BLACK
6
CONTINUOUS
10
1.94404
20
7.49487
11
1.87605
21
7.54056
0
LINE
8
BLACK
6
CONTINUOUS
10
1.87605
20
7.54056
11
1.80512
21
7.58311
0
LINE
8
BLACK
6
CONTINUOUS
10
1.80512
20
7.58311
11
1.73128
21
7.62253
0
LINE
8
BLACK
6
CONTINUOUS
10
1.73128
20
7.62253
11
1.6537
21
7.65894
0
LINE
8
BLACK
6
CONTINUOUS
10
1.6537
20
7.65894
11
1.57155
21
7.69246
0
LINE
8
BLACK
6
CONTINUOUS
10
1.57155
20
7.69246
11
1.48483
21
7.7231
0
LINE
8
BLACK
6
CONTINUOUS
10
1.48483
20
7.7231
11
1.39354
21
7.75086
0
LINE
8
BLACK
6
CONTINUOUS
10
1.39354
20
7.75086
11
1.29768
21
7.77573
0
LINE
8
BLACK
6
CONTINUOUS
10
1.29768
20
7.77573
11
1.19725
21
7.79771
0
LINE
8
BLACK
6
CONTINUOUS
10
1.19725
20
7.79771
11
1.09225
21
7.8168
0
LINE
8
BLACK
6
CONTINUOUS
10
1.09225
20
7.8168
11
0.98269
21
7.83301
0
LINE
8
BLACK
6
CONTINUOUS
10
0.98269
20
7.83301
11
0.869513
21
7.84467
0
LINE
8
BLACK
6
CONTINUOUS
10
0.869513
20
7.84467
11
0.753613
21
7.85017
0
LINE
8
BLACK
6
CONTINUOUS
10
0.753613
20
7.85017
11
0.634972
21
7.84949
0
LINE
8
BLACK
6
CONTINUOUS
10
-2.99394
20
0.785592
11
-3.03331
21
0.824962
0
LINE
8
BLACK
6
CONTINUOUS
10
-3.03331
20
0.824962
11
-3.03406
21
0.826772
0
LINE
8
BLACK
6
CONTINUOUS
10
-3.03406
20
0.826772
11
-3.03406
21
1.37795
0
LINE
8
BLACK
6
CONTINUOUS
10
-3.03406
20
1.37795
11
-3.03331
21
1.37976
0
LINE
8
BLACK
6
CONTINUOUS
10
-3.03331
20
1.37976
11
-2.99394
21
1.41913
0
LINE
8
BLACK
6
CONTINUOUS
10
-2.99394
20
1.41913
11
-2.99213
21
1.41988
0
LINE
8
BLACK
6
CONTINUOUS
10
-2.99213
20
1.41988
11
-2.71654
21
1.41988
0
LINE
8
BLACK
6
CONTINUOUS
10
-2.71654
20
1.41988
11
-2.71473
21
1.41913
0
LINE
8
BLACK
6
CONTINUOUS
10
-2.71473
20
1.41913
11
-2.67536
21
1.37976
0
LINE
8
BLACK
6
CONTINUOUS
10
-2.67536
20
1.37976
11
-2.67461
21
1.37795
0
LINE
8
BLACK
6
CONTINUOUS
10
-2.67461
20
1.37795
11
-2.67461
21
0.826772
0
LINE
8
BLACK
6
CONTINUOUS
10
-2.67461
20
0.826772
11
-2.67536
21
0.824962
0
LINE
8
BLACK
6
CONTINUOUS
10
-2.67536
20
0.824962
11
-2.71473
21
0.785592
0
LINE
8
BLACK
6
CONTINUOUS
10
-2.71473
20
0.785592
11
-2.71654
21
0.784843
0
LINE
8
BLACK
6
CONTINUOUS
10
-2.71654
20
0.784843
11
-2.99213
21
0.784843
0
LINE
8
BLACK
6
CONTINUOUS
10
-2.99213
20
0.784843
11
-2.99394
21
0.785592
0
LINE
8
BLACK
6
CONTINUOUS
10
-2.99107
20
1.41476
11
-3.02894
21
1.37689
0
LINE
8
BLACK
6
CONTINUOUS
10
-3.02894
20
1.37689
11
-3.02894
21
0.827832
0
LINE
8
BLACK
6
CONTINUOUS
10
-3.02894
20
0.827832
11
-2.99107
21
0.789961
0
LINE
8
BLACK
6
CONTINUOUS
10
-2.99107
20
0.789961
11
-2.7176
21
0.789961
0
LINE
8
BLACK
6
CONTINUOUS
10
-2.7176
20
0.789961
11
-2.67972
21
0.827832
0
LINE
8
BLACK
6
CONTINUOUS
10
-2.67972
20
0.827832
11
-2.67972
21
1.37689
0
LINE
8
BLACK
6
CONTINUOUS
10
-2.67972
20
1.37689
11
-2.7176
21
1.41476
0
LINE
8
BLACK
6
CONTINUOUS
10
-2.7176
20
1.41476
11
-2.99107
21
1.41476
0
LINE
8
BLACK
6
CONTINUOUS
10
2.71473
20
0.785592
11
2.67536
21
0.824962
0
LINE
8
BLACK
6
CONTINUOUS
10
2.67536
20
0.824962
11
2.67461
21
0.826772
0
LINE
8
BLACK
6
CONTINUOUS
10
2.67461
20
0.826772
11
2.67461
21
1.37795
0
LINE
8
BLACK
6
CONTINUOUS
10
2.67461
20
1.37795
11
2.67536
21
1.37976
0
LINE
8
BLACK
6
CONTINUOUS
10
2.67536
20
1.37976
11
2.71473
21
1.41913
0
LINE
8
BLACK
6
CONTINUOUS
10
2.71473
20
1.41913
11
2.71654
21
1.41988
0
LINE
8
BLACK
6
CONTINUOUS
10
2.71654
20
1.41988
11
2.99213
21
1.41988
0
LINE
8
BLACK
6
CONTINUOUS
10
2.99213
20
1.41988
11
2.99394
21
1.41913
0
LINE
8
BLACK
6
CONTINUOUS
10
2.99394
20
1.41913
11
3.03331
21
1.37976
0
LINE
8
BLACK
6
CONTINUOUS
10
3.03331
20
1.37976
11
3.03406
21
1.37795
0
LINE
8
BLACK
6
CONTINUOUS
10
3.03406
20
1.37795
11
3.03406
21
0.826772
0
LINE
8
BLACK
6
CONTINUOUS
10
3.03406
20
0.826772
11
3.03331
21
0.824962
0
LINE
8
BLACK
6
CONTINUOUS
10
3.03331
20
0.824962
11
2.99394
21
0.785592
0
LINE
8
BLACK
6
CONTINUOUS
10
2.99394
20
0.785592
11
2.99213
21
0.784843
0
LINE
8
BLACK
6
CONTINUOUS
10
2.99213
20
0.784843
11
2.71654
21
0.784843
0
LINE
8
BLACK
6
CONTINUOUS
10
2.71654
20
0.784843
11
2.71473
21
0.785592
0
LINE
8
BLACK
6
CONTINUOUS
10
2.7176
20
1.41476
11
2.67972
21
1.37689
0
LINE
8
BLACK
6
CONTINUOUS
10
2.67972
20
1.37689
11
2.67972
21
0.827832
0
LINE
8
BLACK
6
CONTINUOUS
10
2.67972
20
0.827832
11
2.7176
21
0.789961
0
LINE
8
BLACK
6
CONTINUOUS
10
2.7176
20
0.789961
11
2.99107
21
0.789961
0
LINE
8
BLACK
6
CONTINUOUS
10
2.99107
20
0.789961
11
3.02894
21
0.827832
0
LINE
8
BLACK
6
CONTINUOUS
10
3.02894
20
0.827832
11
3.02894
21
1.37689
0
LINE
8
BLACK
6
CONTINUOUS
10
3.02894
20
1.37689
11
2.99107
21
1.41476
0
LINE
8
BLACK
6
CONTINUOUS
10
2.99107
20
1.41476
11
2.7176
21
1.41476
0
LINE
8
BLACK
6
CONTINUOUS
10
-0.217231
20
5.51112
11
-0.295972
21
5.58986
0
LINE
8
BLACK
6
CONTINUOUS
10
-0.295972
20
5.58986
11
-0.29626
21
5.59055
0
LINE
8
BLACK
6
CONTINUOUS
10
-0.29626
20
5.59055
11
-0.29626
21
5.90551
0
LINE
8
BLACK
6
CONTINUOUS
10
-0.29626
20
5.90551
11
-0.295972
21
5.90621
0
LINE
8
BLACK
6
CONTINUOUS
10
-0.295972
20
5.90621
11
-0.217231
21
5.98495
0
LINE
8
BLACK
6
CONTINUOUS
10
-0.217231
20
5.98495
11
-0.216535
21
5.98524
0
LINE
8
BLACK
6
CONTINUOUS
10
-0.216535
20
5.98524
11
0.216535
21
5.98524
0
LINE
8
BLACK
6
CONTINUOUS
10
0.216535
20
5.98524
11
0.217231
21
5.98495
0
LINE
8
BLACK
6
CONTINUOUS
10
0.217231
20
5.98495
11
0.295972
21
5.90621
0
LINE
8
BLACK
6
CONTINUOUS
10
0.295972
20
5.90621
11
0.29626
21
5.90551
0
LINE
8
BLACK
6
CONTINUOUS
10
0.29626
20
5.90551
11
0.29626
21
5.59055
0
LINE
8
BLACK
6
CONTINUOUS
10
0.29626
20
5.59055
11
0.295972
21
5.58986
0
LINE
8
BLACK
6
CONTINUOUS
10
0.295972
20
5.58986
11
0.217231
21
5.51112
0
LINE
8
BLACK
6
CONTINUOUS
10
0.217231
20
5.51112
11
0.216535
21
5.51083
0
LINE
8
BLACK
6
CONTINUOUS
10
0.216535
20
5.51083
11
-0.216535
21
5.51083
0
LINE
8
BLACK
6
CONTINUOUS
10
-0.216535
20
5.51083
11
-0.217231
21
5.51112
0
LINE
8
BLACK
6
CONTINUOUS
10
-0.216128
20
5.98327
11
-0.294291
21
5.9051
0
LINE
8
BLACK
6
CONTINUOUS
10
-0.294291
20
5.9051
11
-0.294291
21
5.59096
0
LINE
8
BLACK
6
CONTINUOUS
10
-0.294291
20
5.59096
11
-0.216128
21
5.5128
0
LINE
8
BLACK
6
CONTINUOUS
10
-0.216128
20
5.5128
11
0.216128
21
5.5128
0
LINE
8
BLACK
6
CONTINUOUS
10
0.216128
20
5.5128
11
0.294291
21
5.59096
0
LINE
8
BLACK
6
CONTINUOUS
10
0.294291
20
5.59096
11
0.294291
21
5.9051
0
LINE
8
BLACK
6
CONTINUOUS
10
0.294291
20
5.9051
11
0.216128
21
5.98327
0
LINE
8
BLACK
6
CONTINUOUS
10
0.216128
20
5.98327
11
-0.216128
21
5.98327
  0
ENDSEC
  0
EOF
