  0
SECTION
  2
HEADER
  9
$ANGBASE
  50
0.0
  9
$ANGDIR
  70
1
  9
$MEASUREMENT
  70
0
  0
ENDSEC
  0
SECTION
  2
TABLES
  0
TABLE
  2
LTYPE
  70
4
  0
LTYPE
  5
40F
  2
CONTINUOUS
  70
0
  3
Solid line
  72
65
  73
0
  40
0.0
  0
LTYPE
  5
410
  2
DASHDOT
 70
0
  3
Dash Dot ____ _ ____ _
 72
65
 73
4
 40
2.0
 49
1.25
 49
-0.25
 49
0.25
 49
-0.25
  0
LTYPE
  5
411
  2
DASHED
 70
0
  3
Dashed __ __ __ __ __
 72
65
 73
2
 40
0.75
 49
0.5
 49
-0.25
  0
LTYPE
  5
43B
  2
DOTTED
 70
0
  3
Dotted .  .  .  .
 72
65
 73
2
 40
0.2
 49
0.0
 49
-0.2
  0
ENDTAB
  0
TABLE
  2
STYLE
  70
4
  0
STYLE
  2
KICAD
  70
0
  40
0
  41
1
  42
1
  50
0
  71
0
  3
isocp.shx
  0
STYLE
  2
KICADB
  70
0
  40
0
  41
1
  42
1
  50
0
  71
0
  3
isocp.shx
  0
STYLE
  2
KICADI
  70
0
  40
0
  41
1
  42
1
  50
15
  71
0
  3
isocp.shx
  0
STYLE
  2
KICADBI
  70
0
  40
0
  41
1
  42
1
  50
15
  71
0
  3
isocp.shx
  0
ENDTAB
  0
TABLE
  2
LAYER
  70
1
  0
LAYER
  2
BLACK
  70
0
  62
7
  6
CONTINUOUS
  0
ENDTAB
  0
ENDSEC
  0
SECTION
  2
ENTITIES
0
LINE
8
BLACK
6
CONTINUOUS
10
2.91535
20
0.274016
11
2.79134
21
0.274016
0
LINE
8
BLACK
6
CONTINUOUS
10
2.79134
20
0.274016
11
2.79134
21
0.313386
0
LINE
8
BLACK
6
CONTINUOUS
10
2.79134
20
0.313386
11
2.91535
21
0.313386
0
LINE
8
BLACK
6
CONTINUOUS
10
2.91535
20
0.313386
11
2.91535
21
0.274016
0
LINE
8
BLACK
6
CONTINUOUS
10
3.11417
20
0.274016
11
2.99016
21
0.274016
0
LINE
8
BLACK
6
CONTINUOUS
10
2.99016
20
0.274016
11
2.99016
21
0.313386
0
LINE
8
BLACK
6
CONTINUOUS
10
2.99016
20
0.313386
11
3.11417
21
0.313386
0
LINE
8
BLACK
6
CONTINUOUS
10
3.11417
20
0.313386
11
3.11417
21
0.274016
0
LINE
8
BLACK
6
CONTINUOUS
10
-2.99016
20
0.274016
11
-3.11417
21
0.274016
0
LINE
8
BLACK
6
CONTINUOUS
10
-3.11417
20
0.274016
11
-3.11417
21
0.313386
0
LINE
8
BLACK
6
CONTINUOUS
10
-3.11417
20
0.313386
11
-2.99016
21
0.313386
0
LINE
8
BLACK
6
CONTINUOUS
10
-2.99016
20
0.313386
11
-2.99016
21
0.274016
0
LINE
8
BLACK
6
CONTINUOUS
10
-2.79134
20
0.274016
11
-2.91535
21
0.274016
0
LINE
8
BLACK
6
CONTINUOUS
10
-2.91535
20
0.274016
11
-2.91535
21
0.313386
0
LINE
8
BLACK
6
CONTINUOUS
10
-2.91535
20
0.313386
11
-2.79134
21
0.313386
0
LINE
8
BLACK
6
CONTINUOUS
10
-2.79134
20
0.313386
11
-2.79134
21
0.274016
0
LINE
8
BLACK
6
CONTINUOUS
10
2.91535
20
0.374016
11
2.79134
21
0.374016
0
LINE
8
BLACK
6
CONTINUOUS
10
2.79134
20
0.374016
11
2.79134
21
0.413386
0
LINE
8
BLACK
6
CONTINUOUS
10
2.79134
20
0.413386
11
2.91535
21
0.413386
0
LINE
8
BLACK
6
CONTINUOUS
10
2.91535
20
0.413386
11
2.91535
21
0.374016
0
LINE
8
BLACK
6
CONTINUOUS
10
3.11417
20
0.374016
11
2.99016
21
0.374016
0
LINE
8
BLACK
6
CONTINUOUS
10
2.99016
20
0.374016
11
2.99016
21
0.413386
0
LINE
8
BLACK
6
CONTINUOUS
10
2.99016
20
0.413386
11
3.11417
21
0.413386
0
LINE
8
BLACK
6
CONTINUOUS
10
3.11417
20
0.413386
11
3.11417
21
0.374016
0
LINE
8
BLACK
6
CONTINUOUS
10
-2.99016
20
0.374016
11
-3.11417
21
0.374016
0
LINE
8
BLACK
6
CONTINUOUS
10
-3.11417
20
0.374016
11
-3.11417
21
0.413386
0
LINE
8
BLACK
6
CONTINUOUS
10
-3.11417
20
0.413386
11
-2.99016
21
0.413386
0
LINE
8
BLACK
6
CONTINUOUS
10
-2.99016
20
0.413386
11
-2.99016
21
0.374016
0
LINE
8
BLACK
6
CONTINUOUS
10
-2.79134
20
0.374016
11
-2.91535
21
0.374016
0
LINE
8
BLACK
6
CONTINUOUS
10
-2.91535
20
0.374016
11
-2.91535
21
0.413386
0
LINE
8
BLACK
6
CONTINUOUS
10
-2.91535
20
0.413386
11
-2.79134
21
0.413386
0
LINE
8
BLACK
6
CONTINUOUS
10
-2.79134
20
0.413386
11
-2.79134
21
0.374016
0
LINE
8
BLACK
6
CONTINUOUS
10
3.11417
20
0.474016
11
2.99016
21
0.474016
0
LINE
8
BLACK
6
CONTINUOUS
10
2.99016
20
0.474016
11
2.99016
21
0.513386
0
LINE
8
BLACK
6
CONTINUOUS
10
2.99016
20
0.513386
11
3.11417
21
0.513386
0
LINE
8
BLACK
6
CONTINUOUS
10
3.11417
20
0.513386
11
3.11417
21
0.474016
0
LINE
8
BLACK
6
CONTINUOUS
10
-2.99016
20
0.474016
11
-3.11417
21
0.474016
0
LINE
8
BLACK
6
CONTINUOUS
10
-3.11417
20
0.474016
11
-3.11417
21
0.513386
0
LINE
8
BLACK
6
CONTINUOUS
10
-3.11417
20
0.513386
11
-2.99016
21
0.513386
0
LINE
8
BLACK
6
CONTINUOUS
10
-2.99016
20
0.513386
11
-2.99016
21
0.474016
0
LINE
8
BLACK
6
CONTINUOUS
10
-2.79134
20
0.474016
11
-2.91535
21
0.474016
0
LINE
8
BLACK
6
CONTINUOUS
10
-2.91535
20
0.474016
11
-2.91535
21
0.513386
0
LINE
8
BLACK
6
CONTINUOUS
10
-2.91535
20
0.513386
11
-2.79134
21
0.513386
0
LINE
8
BLACK
6
CONTINUOUS
10
-2.79134
20
0.513386
11
-2.79134
21
0.474016
0
LINE
8
BLACK
6
CONTINUOUS
10
2.91535
20
0.474016
11
2.79134
21
0.474016
0
LINE
8
BLACK
6
CONTINUOUS
10
2.79134
20
0.474016
11
2.79134
21
0.513386
0
LINE
8
BLACK
6
CONTINUOUS
10
2.79134
20
0.513386
11
2.91535
21
0.513386
0
LINE
8
BLACK
6
CONTINUOUS
10
2.91535
20
0.513386
11
2.91535
21
0.474016
0
LINE
8
BLACK
6
CONTINUOUS
10
3.74202
20
0.842516
11
3.64802
21
0.842516
0
LINE
8
BLACK
6
CONTINUOUS
10
3.64802
20
0.842516
11
3.64802
21
0.905516
0
LINE
8
BLACK
6
CONTINUOUS
10
3.64802
20
0.905516
11
3.74202
21
0.905516
0
LINE
8
BLACK
6
CONTINUOUS
10
3.74202
20
0.905516
11
3.74202
21
0.842516
0
LINE
8
BLACK
6
CONTINUOUS
10
-3.64802
20
0.842516
11
-3.74202
21
0.842516
0
LINE
8
BLACK
6
CONTINUOUS
10
-3.74202
20
0.842516
11
-3.74202
21
0.905516
0
LINE
8
BLACK
6
CONTINUOUS
10
-3.74202
20
0.905516
11
-3.64802
21
0.905516
0
LINE
8
BLACK
6
CONTINUOUS
10
-3.64802
20
0.905516
11
-3.64802
21
0.842516
0
LINE
8
BLACK
6
CONTINUOUS
10
3.68525
20
0.940724
11
3.55125
21
0.940724
0
LINE
8
BLACK
6
CONTINUOUS
10
3.55125
20
0.940724
11
3.55125
21
0.968724
0
LINE
8
BLACK
6
CONTINUOUS
10
3.55125
20
0.968724
11
3.68525
21
0.968724
0
LINE
8
BLACK
6
CONTINUOUS
10
3.68525
20
0.968724
11
3.68525
21
0.940724
0
LINE
8
BLACK
6
CONTINUOUS
10
-3.55125
20
0.940724
11
-3.68525
21
0.940724
0
LINE
8
BLACK
6
CONTINUOUS
10
-3.68525
20
0.940724
11
-3.68525
21
0.968724
0
LINE
8
BLACK
6
CONTINUOUS
10
-3.68525
20
0.968724
11
-3.55125
21
0.968724
0
LINE
8
BLACK
6
CONTINUOUS
10
-3.55125
20
0.968724
11
-3.55125
21
0.940724
0
LINE
8
BLACK
6
CONTINUOUS
10
-3.55125
20
0.999779
11
-3.68525
21
0.999779
0
LINE
8
BLACK
6
CONTINUOUS
10
-3.68525
20
0.999779
11
-3.68525
21
1.02778
0
LINE
8
BLACK
6
CONTINUOUS
10
-3.68525
20
1.02778
11
-3.55125
21
1.02778
0
LINE
8
BLACK
6
CONTINUOUS
10
-3.55125
20
1.02778
11
-3.55125
21
0.999779
0
LINE
8
BLACK
6
CONTINUOUS
10
3.68525
20
0.999779
11
3.55125
21
0.999779
0
LINE
8
BLACK
6
CONTINUOUS
10
3.55125
20
0.999779
11
3.55125
21
1.02778
0
LINE
8
BLACK
6
CONTINUOUS
10
3.55125
20
1.02778
11
3.68525
21
1.02778
0
LINE
8
BLACK
6
CONTINUOUS
10
3.68525
20
1.02778
11
3.68525
21
0.999779
0
LINE
8
BLACK
6
CONTINUOUS
10
-3.55125
20
1.05883
11
-3.68525
21
1.05883
0
LINE
8
BLACK
6
CONTINUOUS
10
-3.68525
20
1.05883
11
-3.68525
21
1.08683
0
LINE
8
BLACK
6
CONTINUOUS
10
-3.68525
20
1.08683
11
-3.55125
21
1.08683
0
LINE
8
BLACK
6
CONTINUOUS
10
-3.55125
20
1.08683
11
-3.55125
21
1.05883
0
LINE
8
BLACK
6
CONTINUOUS
10
3.68525
20
1.05883
11
3.55125
21
1.05883
0
LINE
8
BLACK
6
CONTINUOUS
10
3.55125
20
1.05883
11
3.55125
21
1.08683
0
LINE
8
BLACK
6
CONTINUOUS
10
3.55125
20
1.08683
11
3.68525
21
1.08683
0
LINE
8
BLACK
6
CONTINUOUS
10
3.68525
20
1.08683
11
3.68525
21
1.05883
0
LINE
8
BLACK
6
CONTINUOUS
10
-3.55125
20
1.11789
11
-3.68525
21
1.11789
0
LINE
8
BLACK
6
CONTINUOUS
10
-3.68525
20
1.11789
11
-3.68525
21
1.14589
0
LINE
8
BLACK
6
CONTINUOUS
10
-3.68525
20
1.14589
11
-3.55125
21
1.14589
0
LINE
8
BLACK
6
CONTINUOUS
10
-3.55125
20
1.14589
11
-3.55125
21
1.11789
0
LINE
8
BLACK
6
CONTINUOUS
10
3.68525
20
1.11789
11
3.55125
21
1.11789
0
LINE
8
BLACK
6
CONTINUOUS
10
3.55125
20
1.11789
11
3.55125
21
1.14589
0
LINE
8
BLACK
6
CONTINUOUS
10
3.55125
20
1.14589
11
3.68525
21
1.14589
0
LINE
8
BLACK
6
CONTINUOUS
10
3.68525
20
1.14589
11
3.68525
21
1.11789
0
LINE
8
BLACK
6
CONTINUOUS
10
-3.55125
20
1.17694
11
-3.68525
21
1.17694
0
LINE
8
BLACK
6
CONTINUOUS
10
-3.68525
20
1.17694
11
-3.68525
21
1.20494
0
LINE
8
BLACK
6
CONTINUOUS
10
-3.68525
20
1.20494
11
-3.55125
21
1.20494
0
LINE
8
BLACK
6
CONTINUOUS
10
-3.55125
20
1.20494
11
-3.55125
21
1.17694
0
LINE
8
BLACK
6
CONTINUOUS
10
3.68525
20
1.17694
11
3.55125
21
1.17694
0
LINE
8
BLACK
6
CONTINUOUS
10
3.55125
20
1.17694
11
3.55125
21
1.20494
0
LINE
8
BLACK
6
CONTINUOUS
10
3.55125
20
1.20494
11
3.68525
21
1.20494
0
LINE
8
BLACK
6
CONTINUOUS
10
3.68525
20
1.20494
11
3.68525
21
1.17694
0
LINE
8
BLACK
6
CONTINUOUS
10
3.68525
20
1.236
11
3.55125
21
1.236
0
LINE
8
BLACK
6
CONTINUOUS
10
3.55125
20
1.236
11
3.55125
21
1.264
0
LINE
8
BLACK
6
CONTINUOUS
10
3.55125
20
1.264
11
3.68525
21
1.264
0
LINE
8
BLACK
6
CONTINUOUS
10
3.68525
20
1.264
11
3.68525
21
1.236
0
LINE
8
BLACK
6
CONTINUOUS
10
-3.55125
20
1.236
11
-3.68525
21
1.236
0
LINE
8
BLACK
6
CONTINUOUS
10
-3.68525
20
1.236
11
-3.68525
21
1.264
0
LINE
8
BLACK
6
CONTINUOUS
10
-3.68525
20
1.264
11
-3.55125
21
1.264
0
LINE
8
BLACK
6
CONTINUOUS
10
-3.55125
20
1.264
11
-3.55125
21
1.236
0
LINE
8
BLACK
6
CONTINUOUS
10
-3.64802
20
1.29921
11
-3.74202
21
1.29921
0
LINE
8
BLACK
6
CONTINUOUS
10
-3.74202
20
1.29921
11
-3.74202
21
1.36221
0
LINE
8
BLACK
6
CONTINUOUS
10
-3.74202
20
1.36221
11
-3.64802
21
1.36221
0
LINE
8
BLACK
6
CONTINUOUS
10
-3.64802
20
1.36221
11
-3.64802
21
1.29921
0
LINE
8
BLACK
6
CONTINUOUS
10
3.74202
20
1.29921
11
3.64802
21
1.29921
0
LINE
8
BLACK
6
CONTINUOUS
10
3.64802
20
1.29921
11
3.64802
21
1.36221
0
LINE
8
BLACK
6
CONTINUOUS
10
3.64802
20
1.36221
11
3.74202
21
1.36221
0
LINE
8
BLACK
6
CONTINUOUS
10
3.74202
20
1.36221
11
3.74202
21
1.29921
0
LINE
8
BLACK
6
CONTINUOUS
10
-2.94882
20
2.04567
11
-3.07283
21
2.04567
0
LINE
8
BLACK
6
CONTINUOUS
10
-3.07283
20
2.04567
11
-3.07283
21
2.08504
0
LINE
8
BLACK
6
CONTINUOUS
10
-3.07283
20
2.08504
11
-2.94882
21
2.08504
0
LINE
8
BLACK
6
CONTINUOUS
10
-2.94882
20
2.08504
11
-2.94882
21
2.04567
0
LINE
8
BLACK
6
CONTINUOUS
10
-3.14764
20
2.04567
11
-3.27165
21
2.04567
0
LINE
8
BLACK
6
CONTINUOUS
10
-3.27165
20
2.04567
11
-3.27165
21
2.08504
0
LINE
8
BLACK
6
CONTINUOUS
10
-3.27165
20
2.08504
11
-3.14764
21
2.08504
0
LINE
8
BLACK
6
CONTINUOUS
10
-3.14764
20
2.08504
11
-3.14764
21
2.04567
0
LINE
8
BLACK
6
CONTINUOUS
10
3.27165
20
2.04567
11
3.14764
21
2.04567
0
LINE
8
BLACK
6
CONTINUOUS
10
3.14764
20
2.04567
11
3.14764
21
2.08504
0
LINE
8
BLACK
6
CONTINUOUS
10
3.14764
20
2.08504
11
3.27165
21
2.08504
0
LINE
8
BLACK
6
CONTINUOUS
10
3.27165
20
2.08504
11
3.27165
21
2.04567
0
LINE
8
BLACK
6
CONTINUOUS
10
3.07283
20
2.04567
11
2.94882
21
2.04567
0
LINE
8
BLACK
6
CONTINUOUS
10
2.94882
20
2.04567
11
2.94882
21
2.08504
0
LINE
8
BLACK
6
CONTINUOUS
10
2.94882
20
2.08504
11
3.07283
21
2.08504
0
LINE
8
BLACK
6
CONTINUOUS
10
3.07283
20
2.08504
11
3.07283
21
2.04567
0
LINE
8
BLACK
6
CONTINUOUS
10
3.07283
20
2.14567
11
2.94882
21
2.14567
0
LINE
8
BLACK
6
CONTINUOUS
10
2.94882
20
2.14567
11
2.94882
21
2.18504
0
LINE
8
BLACK
6
CONTINUOUS
10
2.94882
20
2.18504
11
3.07283
21
2.18504
0
LINE
8
BLACK
6
CONTINUOUS
10
3.07283
20
2.18504
11
3.07283
21
2.14567
0
LINE
8
BLACK
6
CONTINUOUS
10
3.27165
20
2.14567
11
3.14764
21
2.14567
0
LINE
8
BLACK
6
CONTINUOUS
10
3.14764
20
2.14567
11
3.14764
21
2.18504
0
LINE
8
BLACK
6
CONTINUOUS
10
3.14764
20
2.18504
11
3.27165
21
2.18504
0
LINE
8
BLACK
6
CONTINUOUS
10
3.27165
20
2.18504
11
3.27165
21
2.14567
0
LINE
8
BLACK
6
CONTINUOUS
10
-3.14764
20
2.14567
11
-3.27165
21
2.14567
0
LINE
8
BLACK
6
CONTINUOUS
10
-3.27165
20
2.14567
11
-3.27165
21
2.18504
0
LINE
8
BLACK
6
CONTINUOUS
10
-3.27165
20
2.18504
11
-3.14764
21
2.18504
0
LINE
8
BLACK
6
CONTINUOUS
10
-3.14764
20
2.18504
11
-3.14764
21
2.14567
0
LINE
8
BLACK
6
CONTINUOUS
10
-2.94882
20
2.14567
11
-3.07283
21
2.14567
0
LINE
8
BLACK
6
CONTINUOUS
10
-3.07283
20
2.14567
11
-3.07283
21
2.18504
0
LINE
8
BLACK
6
CONTINUOUS
10
-3.07283
20
2.18504
11
-2.94882
21
2.18504
0
LINE
8
BLACK
6
CONTINUOUS
10
-2.94882
20
2.18504
11
-2.94882
21
2.14567
0
LINE
8
BLACK
6
CONTINUOUS
10
-3.14764
20
2.24567
11
-3.27165
21
2.24567
0
LINE
8
BLACK
6
CONTINUOUS
10
-3.27165
20
2.24567
11
-3.27165
21
2.28504
0
LINE
8
BLACK
6
CONTINUOUS
10
-3.27165
20
2.28504
11
-3.14764
21
2.28504
0
LINE
8
BLACK
6
CONTINUOUS
10
-3.14764
20
2.28504
11
-3.14764
21
2.24567
0
LINE
8
BLACK
6
CONTINUOUS
10
3.07283
20
2.24567
11
2.94882
21
2.24567
0
LINE
8
BLACK
6
CONTINUOUS
10
2.94882
20
2.24567
11
2.94882
21
2.28504
0
LINE
8
BLACK
6
CONTINUOUS
10
2.94882
20
2.28504
11
3.07283
21
2.28504
0
LINE
8
BLACK
6
CONTINUOUS
10
3.07283
20
2.28504
11
3.07283
21
2.24567
0
LINE
8
BLACK
6
CONTINUOUS
10
3.27165
20
2.24567
11
3.14764
21
2.24567
0
LINE
8
BLACK
6
CONTINUOUS
10
3.14764
20
2.24567
11
3.14764
21
2.28504
0
LINE
8
BLACK
6
CONTINUOUS
10
3.14764
20
2.28504
11
3.27165
21
2.28504
0
LINE
8
BLACK
6
CONTINUOUS
10
3.27165
20
2.28504
11
3.27165
21
2.24567
0
LINE
8
BLACK
6
CONTINUOUS
10
-2.94882
20
2.24567
11
-3.07283
21
2.24567
0
LINE
8
BLACK
6
CONTINUOUS
10
-3.07283
20
2.24567
11
-3.07283
21
2.28504
0
LINE
8
BLACK
6
CONTINUOUS
10
-3.07283
20
2.28504
11
-2.94882
21
2.28504
0
LINE
8
BLACK
6
CONTINUOUS
10
-2.94882
20
2.28504
11
-2.94882
21
2.24567
0
LINE
8
BLACK
6
CONTINUOUS
10
-1.35512
20
2.28268
11
-1.39449
21
2.28268
0
LINE
8
BLACK
6
CONTINUOUS
10
-1.39449
20
2.28268
11
-1.39449
21
2.40079
0
LINE
8
BLACK
6
CONTINUOUS
10
-1.39449
20
2.40079
11
-1.35512
21
2.40079
0
LINE
8
BLACK
6
CONTINUOUS
10
-1.35512
20
2.40079
11
-1.35512
21
2.28268
0
LINE
8
BLACK
6
CONTINUOUS
10
-1.45512
20
2.28268
11
-1.49449
21
2.28268
0
LINE
8
BLACK
6
CONTINUOUS
10
-1.49449
20
2.28268
11
-1.49449
21
2.40079
0
LINE
8
BLACK
6
CONTINUOUS
10
-1.49449
20
2.40079
11
-1.45512
21
2.40079
0
LINE
8
BLACK
6
CONTINUOUS
10
-1.45512
20
2.40079
11
-1.45512
21
2.28268
0
LINE
8
BLACK
6
CONTINUOUS
10
-1.55512
20
2.28268
11
-1.59449
21
2.28268
0
LINE
8
BLACK
6
CONTINUOUS
10
-1.59449
20
2.28268
11
-1.59449
21
2.40079
0
LINE
8
BLACK
6
CONTINUOUS
10
-1.59449
20
2.40079
11
-1.55512
21
2.40079
0
LINE
8
BLACK
6
CONTINUOUS
10
-1.55512
20
2.40079
11
-1.55512
21
2.28268
0
LINE
8
BLACK
6
CONTINUOUS
10
-1.65512
20
2.28268
11
-1.69449
21
2.28268
0
LINE
8
BLACK
6
CONTINUOUS
10
-1.69449
20
2.28268
11
-1.69449
21
2.40079
0
LINE
8
BLACK
6
CONTINUOUS
10
-1.69449
20
2.40079
11
-1.65512
21
2.40079
0
LINE
8
BLACK
6
CONTINUOUS
10
-1.65512
20
2.40079
11
-1.65512
21
2.28268
0
LINE
8
BLACK
6
CONTINUOUS
10
-1.75512
20
2.28268
11
-1.79449
21
2.28268
0
LINE
8
BLACK
6
CONTINUOUS
10
-1.79449
20
2.28268
11
-1.79449
21
2.40079
0
LINE
8
BLACK
6
CONTINUOUS
10
-1.79449
20
2.40079
11
-1.75512
21
2.40079
0
LINE
8
BLACK
6
CONTINUOUS
10
-1.75512
20
2.40079
11
-1.75512
21
2.28268
0
LINE
8
BLACK
6
CONTINUOUS
10
1.39449
20
2.28268
11
1.35512
21
2.28268
0
LINE
8
BLACK
6
CONTINUOUS
10
1.35512
20
2.28268
11
1.35512
21
2.40079
0
LINE
8
BLACK
6
CONTINUOUS
10
1.35512
20
2.40079
11
1.39449
21
2.40079
0
LINE
8
BLACK
6
CONTINUOUS
10
1.39449
20
2.40079
11
1.39449
21
2.28268
0
LINE
8
BLACK
6
CONTINUOUS
10
1.49449
20
2.28268
11
1.45512
21
2.28268
0
LINE
8
BLACK
6
CONTINUOUS
10
1.45512
20
2.28268
11
1.45512
21
2.40079
0
LINE
8
BLACK
6
CONTINUOUS
10
1.45512
20
2.40079
11
1.49449
21
2.40079
0
LINE
8
BLACK
6
CONTINUOUS
10
1.49449
20
2.40079
11
1.49449
21
2.28268
0
LINE
8
BLACK
6
CONTINUOUS
10
1.59449
20
2.28268
11
1.55512
21
2.28268
0
LINE
8
BLACK
6
CONTINUOUS
10
1.55512
20
2.28268
11
1.55512
21
2.40079
0
LINE
8
BLACK
6
CONTINUOUS
10
1.55512
20
2.40079
11
1.59449
21
2.40079
0
LINE
8
BLACK
6
CONTINUOUS
10
1.59449
20
2.40079
11
1.59449
21
2.28268
0
LINE
8
BLACK
6
CONTINUOUS
10
1.69449
20
2.28268
11
1.65512
21
2.28268
0
LINE
8
BLACK
6
CONTINUOUS
10
1.65512
20
2.28268
11
1.65512
21
2.40079
0
LINE
8
BLACK
6
CONTINUOUS
10
1.65512
20
2.40079
11
1.69449
21
2.40079
0
LINE
8
BLACK
6
CONTINUOUS
10
1.69449
20
2.40079
11
1.69449
21
2.28268
0
LINE
8
BLACK
6
CONTINUOUS
10
1.79449
20
2.28268
11
1.75512
21
2.28268
0
LINE
8
BLACK
6
CONTINUOUS
10
1.75512
20
2.28268
11
1.75512
21
2.40079
0
LINE
8
BLACK
6
CONTINUOUS
10
1.75512
20
2.40079
11
1.79449
21
2.40079
0
LINE
8
BLACK
6
CONTINUOUS
10
1.79449
20
2.40079
11
1.79449
21
2.28268
0
LINE
8
BLACK
6
CONTINUOUS
10
1.79449
20
2.4811
11
1.75512
21
2.4811
0
LINE
8
BLACK
6
CONTINUOUS
10
1.75512
20
2.4811
11
1.75512
21
2.59921
0
LINE
8
BLACK
6
CONTINUOUS
10
1.75512
20
2.59921
11
1.79449
21
2.59921
0
LINE
8
BLACK
6
CONTINUOUS
10
1.79449
20
2.59921
11
1.79449
21
2.4811
0
LINE
8
BLACK
6
CONTINUOUS
10
1.69449
20
2.4811
11
1.65512
21
2.4811
0
LINE
8
BLACK
6
CONTINUOUS
10
1.65512
20
2.4811
11
1.65512
21
2.59921
0
LINE
8
BLACK
6
CONTINUOUS
10
1.65512
20
2.59921
11
1.69449
21
2.59921
0
LINE
8
BLACK
6
CONTINUOUS
10
1.69449
20
2.59921
11
1.69449
21
2.4811
0
LINE
8
BLACK
6
CONTINUOUS
10
1.59449
20
2.4811
11
1.55512
21
2.4811
0
LINE
8
BLACK
6
CONTINUOUS
10
1.55512
20
2.4811
11
1.55512
21
2.59921
0
LINE
8
BLACK
6
CONTINUOUS
10
1.55512
20
2.59921
11
1.59449
21
2.59921
0
LINE
8
BLACK
6
CONTINUOUS
10
1.59449
20
2.59921
11
1.59449
21
2.4811
0
LINE
8
BLACK
6
CONTINUOUS
10
1.49449
20
2.4811
11
1.45512
21
2.4811
0
LINE
8
BLACK
6
CONTINUOUS
10
1.45512
20
2.4811
11
1.45512
21
2.59921
0
LINE
8
BLACK
6
CONTINUOUS
10
1.45512
20
2.59921
11
1.49449
21
2.59921
0
LINE
8
BLACK
6
CONTINUOUS
10
1.49449
20
2.59921
11
1.49449
21
2.4811
0
LINE
8
BLACK
6
CONTINUOUS
10
1.39449
20
2.4811
11
1.35512
21
2.4811
0
LINE
8
BLACK
6
CONTINUOUS
10
1.35512
20
2.4811
11
1.35512
21
2.59921
0
LINE
8
BLACK
6
CONTINUOUS
10
1.35512
20
2.59921
11
1.39449
21
2.59921
0
LINE
8
BLACK
6
CONTINUOUS
10
1.39449
20
2.59921
11
1.39449
21
2.4811
0
LINE
8
BLACK
6
CONTINUOUS
10
-1.35512
20
2.4811
11
-1.39449
21
2.4811
0
LINE
8
BLACK
6
CONTINUOUS
10
-1.39449
20
2.4811
11
-1.39449
21
2.59921
0
LINE
8
BLACK
6
CONTINUOUS
10
-1.39449
20
2.59921
11
-1.35512
21
2.59921
0
LINE
8
BLACK
6
CONTINUOUS
10
-1.35512
20
2.59921
11
-1.35512
21
2.4811
0
LINE
8
BLACK
6
CONTINUOUS
10
-1.45512
20
2.4811
11
-1.49449
21
2.4811
0
LINE
8
BLACK
6
CONTINUOUS
10
-1.49449
20
2.4811
11
-1.49449
21
2.59921
0
LINE
8
BLACK
6
CONTINUOUS
10
-1.49449
20
2.59921
11
-1.45512
21
2.59921
0
LINE
8
BLACK
6
CONTINUOUS
10
-1.45512
20
2.59921
11
-1.45512
21
2.4811
0
LINE
8
BLACK
6
CONTINUOUS
10
-1.55512
20
2.4811
11
-1.59449
21
2.4811
0
LINE
8
BLACK
6
CONTINUOUS
10
-1.59449
20
2.4811
11
-1.59449
21
2.59921
0
LINE
8
BLACK
6
CONTINUOUS
10
-1.59449
20
2.59921
11
-1.55512
21
2.59921
0
LINE
8
BLACK
6
CONTINUOUS
10
-1.55512
20
2.59921
11
-1.55512
21
2.4811
0
LINE
8
BLACK
6
CONTINUOUS
10
-1.65512
20
2.4811
11
-1.69449
21
2.4811
0
LINE
8
BLACK
6
CONTINUOUS
10
-1.69449
20
2.4811
11
-1.69449
21
2.59921
0
LINE
8
BLACK
6
CONTINUOUS
10
-1.69449
20
2.59921
11
-1.65512
21
2.59921
0
LINE
8
BLACK
6
CONTINUOUS
10
-1.65512
20
2.59921
11
-1.65512
21
2.4811
0
LINE
8
BLACK
6
CONTINUOUS
10
-1.75512
20
2.4811
11
-1.79449
21
2.4811
0
LINE
8
BLACK
6
CONTINUOUS
10
-1.79449
20
2.4811
11
-1.79449
21
2.59921
0
LINE
8
BLACK
6
CONTINUOUS
10
-1.79449
20
2.59921
11
-1.75512
21
2.59921
0
LINE
8
BLACK
6
CONTINUOUS
10
-1.75512
20
2.59921
11
-1.75512
21
2.4811
0
LINE
8
BLACK
6
CONTINUOUS
10
1.29843
20
4.74094
11
1.18031
21
4.74094
0
LINE
8
BLACK
6
CONTINUOUS
10
1.18031
20
4.74094
11
1.18031
21
4.78031
0
LINE
8
BLACK
6
CONTINUOUS
10
1.18031
20
4.78031
11
1.29843
21
4.78031
0
LINE
8
BLACK
6
CONTINUOUS
10
1.29843
20
4.78031
11
1.29843
21
4.74094
0
LINE
8
BLACK
6
CONTINUOUS
10
1.49685
20
4.74094
11
1.37874
21
4.74094
0
LINE
8
BLACK
6
CONTINUOUS
10
1.37874
20
4.74094
11
1.37874
21
4.78031
0
LINE
8
BLACK
6
CONTINUOUS
10
1.37874
20
4.78031
11
1.49685
21
4.78031
0
LINE
8
BLACK
6
CONTINUOUS
10
1.49685
20
4.78031
11
1.49685
21
4.74094
0
LINE
8
BLACK
6
CONTINUOUS
10
1.29843
20
4.84094
11
1.18031
21
4.84094
0
LINE
8
BLACK
6
CONTINUOUS
10
1.18031
20
4.84094
11
1.18031
21
4.88031
0
LINE
8
BLACK
6
CONTINUOUS
10
1.18031
20
4.88031
11
1.29843
21
4.88031
0
LINE
8
BLACK
6
CONTINUOUS
10
1.29843
20
4.88031
11
1.29843
21
4.84094
0
LINE
8
BLACK
6
CONTINUOUS
10
1.49685
20
4.84094
11
1.37874
21
4.84094
0
LINE
8
BLACK
6
CONTINUOUS
10
1.37874
20
4.84094
11
1.37874
21
4.88031
0
LINE
8
BLACK
6
CONTINUOUS
10
1.37874
20
4.88031
11
1.49685
21
4.88031
0
LINE
8
BLACK
6
CONTINUOUS
10
1.49685
20
4.88031
11
1.49685
21
4.84094
0
LINE
8
BLACK
6
CONTINUOUS
10
1.49685
20
4.94094
11
1.37874
21
4.94094
0
LINE
8
BLACK
6
CONTINUOUS
10
1.37874
20
4.94094
11
1.37874
21
4.98031
0
LINE
8
BLACK
6
CONTINUOUS
10
1.37874
20
4.98031
11
1.49685
21
4.98031
0
LINE
8
BLACK
6
CONTINUOUS
10
1.49685
20
4.98031
11
1.49685
21
4.94094
0
LINE
8
BLACK
6
CONTINUOUS
10
1.29843
20
4.94094
11
1.18031
21
4.94094
0
LINE
8
BLACK
6
CONTINUOUS
10
1.18031
20
4.94094
11
1.18031
21
4.98031
0
LINE
8
BLACK
6
CONTINUOUS
10
1.18031
20
4.98031
11
1.29843
21
4.98031
0
LINE
8
BLACK
6
CONTINUOUS
10
1.29843
20
4.98031
11
1.29843
21
4.94094
0
LINE
8
BLACK
6
CONTINUOUS
10
1.49685
20
5.04094
11
1.37874
21
5.04094
0
LINE
8
BLACK
6
CONTINUOUS
10
1.37874
20
5.04094
11
1.37874
21
5.08031
0
LINE
8
BLACK
6
CONTINUOUS
10
1.37874
20
5.08031
11
1.49685
21
5.08031
0
LINE
8
BLACK
6
CONTINUOUS
10
1.49685
20
5.08031
11
1.49685
21
5.04094
0
LINE
8
BLACK
6
CONTINUOUS
10
1.29843
20
5.04094
11
1.18031
21
5.04094
0
LINE
8
BLACK
6
CONTINUOUS
10
1.18031
20
5.04094
11
1.18031
21
5.08031
0
LINE
8
BLACK
6
CONTINUOUS
10
1.18031
20
5.08031
11
1.29843
21
5.08031
0
LINE
8
BLACK
6
CONTINUOUS
10
1.29843
20
5.08031
11
1.29843
21
5.04094
0
LINE
8
BLACK
6
CONTINUOUS
10
1.49685
20
5.14094
11
1.37874
21
5.14094
0
LINE
8
BLACK
6
CONTINUOUS
10
1.37874
20
5.14094
11
1.37874
21
5.18031
0
LINE
8
BLACK
6
CONTINUOUS
10
1.37874
20
5.18031
11
1.49685
21
5.18031
0
LINE
8
BLACK
6
CONTINUOUS
10
1.49685
20
5.18031
11
1.49685
21
5.14094
0
LINE
8
BLACK
6
CONTINUOUS
10
1.29843
20
5.14094
11
1.18031
21
5.14094
0
LINE
8
BLACK
6
CONTINUOUS
10
1.18031
20
5.14094
11
1.18031
21
5.18031
0
LINE
8
BLACK
6
CONTINUOUS
10
1.18031
20
5.18031
11
1.29843
21
5.18031
0
LINE
8
BLACK
6
CONTINUOUS
10
1.29843
20
5.18031
11
1.29843
21
5.14094
0
LINE
8
BLACK
6
CONTINUOUS
10
1.84882
20
5.23543
11
1.80945
21
5.23543
0
LINE
8
BLACK
6
CONTINUOUS
10
1.80945
20
5.23543
11
1.80945
21
5.35354
0
LINE
8
BLACK
6
CONTINUOUS
10
1.80945
20
5.35354
11
1.84882
21
5.35354
0
LINE
8
BLACK
6
CONTINUOUS
10
1.84882
20
5.35354
11
1.84882
21
5.23543
0
LINE
8
BLACK
6
CONTINUOUS
10
-1.70945
20
5.23543
11
-1.74882
21
5.23543
0
LINE
8
BLACK
6
CONTINUOUS
10
-1.74882
20
5.23543
11
-1.74882
21
5.35354
0
LINE
8
BLACK
6
CONTINUOUS
10
-1.74882
20
5.35354
11
-1.70945
21
5.35354
0
LINE
8
BLACK
6
CONTINUOUS
10
-1.70945
20
5.35354
11
-1.70945
21
5.23543
0
LINE
8
BLACK
6
CONTINUOUS
10
-1.80945
20
5.23543
11
-1.84882
21
5.23543
0
LINE
8
BLACK
6
CONTINUOUS
10
-1.84882
20
5.23543
11
-1.84882
21
5.35354
0
LINE
8
BLACK
6
CONTINUOUS
10
-1.84882
20
5.35354
11
-1.80945
21
5.35354
0
LINE
8
BLACK
6
CONTINUOUS
10
-1.80945
20
5.35354
11
-1.80945
21
5.23543
0
LINE
8
BLACK
6
CONTINUOUS
10
-1.90945
20
5.23543
11
-1.94882
21
5.23543
0
LINE
8
BLACK
6
CONTINUOUS
10
-1.94882
20
5.23543
11
-1.94882
21
5.35354
0
LINE
8
BLACK
6
CONTINUOUS
10
-1.94882
20
5.35354
11
-1.90945
21
5.35354
0
LINE
8
BLACK
6
CONTINUOUS
10
-1.90945
20
5.35354
11
-1.90945
21
5.23543
0
LINE
8
BLACK
6
CONTINUOUS
10
-2.00945
20
5.23543
11
-2.04882
21
5.23543
0
LINE
8
BLACK
6
CONTINUOUS
10
-2.04882
20
5.23543
11
-2.04882
21
5.35354
0
LINE
8
BLACK
6
CONTINUOUS
10
-2.04882
20
5.35354
11
-2.00945
21
5.35354
0
LINE
8
BLACK
6
CONTINUOUS
10
-2.00945
20
5.35354
11
-2.00945
21
5.23543
0
LINE
8
BLACK
6
CONTINUOUS
10
-2.10945
20
5.23543
11
-2.14882
21
5.23543
0
LINE
8
BLACK
6
CONTINUOUS
10
-2.14882
20
5.23543
11
-2.14882
21
5.35354
0
LINE
8
BLACK
6
CONTINUOUS
10
-2.14882
20
5.35354
11
-2.10945
21
5.35354
0
LINE
8
BLACK
6
CONTINUOUS
10
-2.10945
20
5.35354
11
-2.10945
21
5.23543
0
LINE
8
BLACK
6
CONTINUOUS
10
1.74882
20
5.23543
11
1.70945
21
5.23543
0
LINE
8
BLACK
6
CONTINUOUS
10
1.70945
20
5.23543
11
1.70945
21
5.35354
0
LINE
8
BLACK
6
CONTINUOUS
10
1.70945
20
5.35354
11
1.74882
21
5.35354
0
LINE
8
BLACK
6
CONTINUOUS
10
1.74882
20
5.35354
11
1.74882
21
5.23543
0
LINE
8
BLACK
6
CONTINUOUS
10
2.14882
20
5.23543
11
2.10945
21
5.23543
0
LINE
8
BLACK
6
CONTINUOUS
10
2.10945
20
5.23543
11
2.10945
21
5.35354
0
LINE
8
BLACK
6
CONTINUOUS
10
2.10945
20
5.35354
11
2.14882
21
5.35354
0
LINE
8
BLACK
6
CONTINUOUS
10
2.14882
20
5.35354
11
2.14882
21
5.23543
0
LINE
8
BLACK
6
CONTINUOUS
10
2.04882
20
5.23543
11
2.00945
21
5.23543
0
LINE
8
BLACK
6
CONTINUOUS
10
2.00945
20
5.23543
11
2.00945
21
5.35354
0
LINE
8
BLACK
6
CONTINUOUS
10
2.00945
20
5.35354
11
2.04882
21
5.35354
0
LINE
8
BLACK
6
CONTINUOUS
10
2.04882
20
5.35354
11
2.04882
21
5.23543
0
LINE
8
BLACK
6
CONTINUOUS
10
1.94882
20
5.23543
11
1.90945
21
5.23543
0
LINE
8
BLACK
6
CONTINUOUS
10
1.90945
20
5.23543
11
1.90945
21
5.35354
0
LINE
8
BLACK
6
CONTINUOUS
10
1.90945
20
5.35354
11
1.94882
21
5.35354
0
LINE
8
BLACK
6
CONTINUOUS
10
1.94882
20
5.35354
11
1.94882
21
5.23543
0
LINE
8
BLACK
6
CONTINUOUS
10
2.14882
20
5.43386
11
2.10945
21
5.43386
0
LINE
8
BLACK
6
CONTINUOUS
10
2.10945
20
5.43386
11
2.10945
21
5.55197
0
LINE
8
BLACK
6
CONTINUOUS
10
2.10945
20
5.55197
11
2.14882
21
5.55197
0
LINE
8
BLACK
6
CONTINUOUS
10
2.14882
20
5.55197
11
2.14882
21
5.43386
0
LINE
8
BLACK
6
CONTINUOUS
10
1.74882
20
5.43386
11
1.70945
21
5.43386
0
LINE
8
BLACK
6
CONTINUOUS
10
1.70945
20
5.43386
11
1.70945
21
5.55197
0
LINE
8
BLACK
6
CONTINUOUS
10
1.70945
20
5.55197
11
1.74882
21
5.55197
0
LINE
8
BLACK
6
CONTINUOUS
10
1.74882
20
5.55197
11
1.74882
21
5.43386
0
LINE
8
BLACK
6
CONTINUOUS
10
1.84882
20
5.43386
11
1.80945
21
5.43386
0
LINE
8
BLACK
6
CONTINUOUS
10
1.80945
20
5.43386
11
1.80945
21
5.55197
0
LINE
8
BLACK
6
CONTINUOUS
10
1.80945
20
5.55197
11
1.84882
21
5.55197
0
LINE
8
BLACK
6
CONTINUOUS
10
1.84882
20
5.55197
11
1.84882
21
5.43386
0
LINE
8
BLACK
6
CONTINUOUS
10
-1.70945
20
5.43386
11
-1.74882
21
5.43386
0
LINE
8
BLACK
6
CONTINUOUS
10
-1.74882
20
5.43386
11
-1.74882
21
5.55197
0
LINE
8
BLACK
6
CONTINUOUS
10
-1.74882
20
5.55197
11
-1.70945
21
5.55197
0
LINE
8
BLACK
6
CONTINUOUS
10
-1.70945
20
5.55197
11
-1.70945
21
5.43386
0
LINE
8
BLACK
6
CONTINUOUS
10
1.94882
20
5.43386
11
1.90945
21
5.43386
0
LINE
8
BLACK
6
CONTINUOUS
10
1.90945
20
5.43386
11
1.90945
21
5.55197
0
LINE
8
BLACK
6
CONTINUOUS
10
1.90945
20
5.55197
11
1.94882
21
5.55197
0
LINE
8
BLACK
6
CONTINUOUS
10
1.94882
20
5.55197
11
1.94882
21
5.43386
0
LINE
8
BLACK
6
CONTINUOUS
10
-1.80945
20
5.43386
11
-1.84882
21
5.43386
0
LINE
8
BLACK
6
CONTINUOUS
10
-1.84882
20
5.43386
11
-1.84882
21
5.55197
0
LINE
8
BLACK
6
CONTINUOUS
10
-1.84882
20
5.55197
11
-1.80945
21
5.55197
0
LINE
8
BLACK
6
CONTINUOUS
10
-1.80945
20
5.55197
11
-1.80945
21
5.43386
0
LINE
8
BLACK
6
CONTINUOUS
10
-1.90945
20
5.43386
11
-1.94882
21
5.43386
0
LINE
8
BLACK
6
CONTINUOUS
10
-1.94882
20
5.43386
11
-1.94882
21
5.55197
0
LINE
8
BLACK
6
CONTINUOUS
10
-1.94882
20
5.55197
11
-1.90945
21
5.55197
0
LINE
8
BLACK
6
CONTINUOUS
10
-1.90945
20
5.55197
11
-1.90945
21
5.43386
0
LINE
8
BLACK
6
CONTINUOUS
10
2.04882
20
5.43386
11
2.00945
21
5.43386
0
LINE
8
BLACK
6
CONTINUOUS
10
2.00945
20
5.43386
11
2.00945
21
5.55197
0
LINE
8
BLACK
6
CONTINUOUS
10
2.00945
20
5.55197
11
2.04882
21
5.55197
0
LINE
8
BLACK
6
CONTINUOUS
10
2.04882
20
5.55197
11
2.04882
21
5.43386
0
LINE
8
BLACK
6
CONTINUOUS
10
-2.00945
20
5.43386
11
-2.04882
21
5.43386
0
LINE
8
BLACK
6
CONTINUOUS
10
-2.04882
20
5.43386
11
-2.04882
21
5.55197
0
LINE
8
BLACK
6
CONTINUOUS
10
-2.04882
20
5.55197
11
-2.00945
21
5.55197
0
LINE
8
BLACK
6
CONTINUOUS
10
-2.00945
20
5.55197
11
-2.00945
21
5.43386
0
LINE
8
BLACK
6
CONTINUOUS
10
-2.10945
20
5.43386
11
-2.14882
21
5.43386
0
LINE
8
BLACK
6
CONTINUOUS
10
-2.14882
20
5.43386
11
-2.14882
21
5.55197
0
LINE
8
BLACK
6
CONTINUOUS
10
-2.14882
20
5.55197
11
-2.10945
21
5.55197
0
LINE
8
BLACK
6
CONTINUOUS
10
-2.10945
20
5.55197
11
-2.10945
21
5.43386
0
LINE
8
BLACK
6
CONTINUOUS
10
1.29714
20
5.5059
11
1.15914
21
5.5059
0
LINE
8
BLACK
6
CONTINUOUS
10
1.15914
20
5.5059
11
1.15914
21
5.5689
0
LINE
8
BLACK
6
CONTINUOUS
10
1.15914
20
5.5689
11
1.29714
21
5.5689
0
LINE
8
BLACK
6
CONTINUOUS
10
1.29714
20
5.5689
11
1.29714
21
5.5059
0
LINE
8
BLACK
6
CONTINUOUS
10
1.52352
20
5.61042
11
1.38552
21
5.61042
0
LINE
8
BLACK
6
CONTINUOUS
10
1.38552
20
5.61042
11
1.38552
21
5.64942
0
LINE
8
BLACK
6
CONTINUOUS
10
1.38552
20
5.64942
11
1.52352
21
5.64942
0
LINE
8
BLACK
6
CONTINUOUS
10
1.52352
20
5.64942
11
1.52352
21
5.61042
0
LINE
8
BLACK
6
CONTINUOUS
10
1.52352
20
5.68916
11
1.38552
21
5.68916
0
LINE
8
BLACK
6
CONTINUOUS
10
1.38552
20
5.68916
11
1.38552
21
5.72816
0
LINE
8
BLACK
6
CONTINUOUS
10
1.38552
20
5.72816
11
1.52352
21
5.72816
0
LINE
8
BLACK
6
CONTINUOUS
10
1.52352
20
5.72816
11
1.52352
21
5.68916
0
LINE
8
BLACK
6
CONTINUOUS
10
1.52352
20
5.7679
11
1.38552
21
5.7679
0
LINE
8
BLACK
6
CONTINUOUS
10
1.38552
20
5.7679
11
1.38552
21
5.8069
0
LINE
8
BLACK
6
CONTINUOUS
10
1.38552
20
5.8069
11
1.52352
21
5.8069
0
LINE
8
BLACK
6
CONTINUOUS
10
1.52352
20
5.8069
11
1.52352
21
5.7679
0
LINE
8
BLACK
6
CONTINUOUS
10
1.52352
20
5.84664
11
1.38552
21
5.84664
0
LINE
8
BLACK
6
CONTINUOUS
10
1.38552
20
5.84664
11
1.38552
21
5.88564
0
LINE
8
BLACK
6
CONTINUOUS
10
1.38552
20
5.88564
11
1.52352
21
5.88564
0
LINE
8
BLACK
6
CONTINUOUS
10
1.52352
20
5.88564
11
1.52352
21
5.84664
0
LINE
8
BLACK
6
CONTINUOUS
10
1.29714
20
5.92716
11
1.15914
21
5.92716
0
LINE
8
BLACK
6
CONTINUOUS
10
1.15914
20
5.92716
11
1.15914
21
5.99016
0
LINE
8
BLACK
6
CONTINUOUS
10
1.15914
20
5.99016
11
1.29714
21
5.99016
0
LINE
8
BLACK
6
CONTINUOUS
10
1.29714
20
5.99016
11
1.29714
21
5.92716
0
LINE
8
BLACK
6
CONTINUOUS
10
1.49685
20
6.31575
11
1.37874
21
6.31575
0
LINE
8
BLACK
6
CONTINUOUS
10
1.37874
20
6.31575
11
1.37874
21
6.35512
0
LINE
8
BLACK
6
CONTINUOUS
10
1.37874
20
6.35512
11
1.49685
21
6.35512
0
LINE
8
BLACK
6
CONTINUOUS
10
1.49685
20
6.35512
11
1.49685
21
6.31575
0
LINE
8
BLACK
6
CONTINUOUS
10
1.29843
20
6.31575
11
1.18031
21
6.31575
0
LINE
8
BLACK
6
CONTINUOUS
10
1.18031
20
6.31575
11
1.18031
21
6.35512
0
LINE
8
BLACK
6
CONTINUOUS
10
1.18031
20
6.35512
11
1.29843
21
6.35512
0
LINE
8
BLACK
6
CONTINUOUS
10
1.29843
20
6.35512
11
1.29843
21
6.31575
0
LINE
8
BLACK
6
CONTINUOUS
10
1.49685
20
6.41575
11
1.37874
21
6.41575
0
LINE
8
BLACK
6
CONTINUOUS
10
1.37874
20
6.41575
11
1.37874
21
6.45512
0
LINE
8
BLACK
6
CONTINUOUS
10
1.37874
20
6.45512
11
1.49685
21
6.45512
0
LINE
8
BLACK
6
CONTINUOUS
10
1.49685
20
6.45512
11
1.49685
21
6.41575
0
LINE
8
BLACK
6
CONTINUOUS
10
1.29843
20
6.41575
11
1.18031
21
6.41575
0
LINE
8
BLACK
6
CONTINUOUS
10
1.18031
20
6.41575
11
1.18031
21
6.45512
0
LINE
8
BLACK
6
CONTINUOUS
10
1.18031
20
6.45512
11
1.29843
21
6.45512
0
LINE
8
BLACK
6
CONTINUOUS
10
1.29843
20
6.45512
11
1.29843
21
6.41575
0
LINE
8
BLACK
6
CONTINUOUS
10
1.49685
20
6.51575
11
1.37874
21
6.51575
0
LINE
8
BLACK
6
CONTINUOUS
10
1.37874
20
6.51575
11
1.37874
21
6.55512
0
LINE
8
BLACK
6
CONTINUOUS
10
1.37874
20
6.55512
11
1.49685
21
6.55512
0
LINE
8
BLACK
6
CONTINUOUS
10
1.49685
20
6.55512
11
1.49685
21
6.51575
0
LINE
8
BLACK
6
CONTINUOUS
10
1.29843
20
6.51575
11
1.18031
21
6.51575
0
LINE
8
BLACK
6
CONTINUOUS
10
1.18031
20
6.51575
11
1.18031
21
6.55512
0
LINE
8
BLACK
6
CONTINUOUS
10
1.18031
20
6.55512
11
1.29843
21
6.55512
0
LINE
8
BLACK
6
CONTINUOUS
10
1.29843
20
6.55512
11
1.29843
21
6.51575
0
LINE
8
BLACK
6
CONTINUOUS
10
1.29843
20
6.61575
11
1.18031
21
6.61575
0
LINE
8
BLACK
6
CONTINUOUS
10
1.18031
20
6.61575
11
1.18031
21
6.65512
0
LINE
8
BLACK
6
CONTINUOUS
10
1.18031
20
6.65512
11
1.29843
21
6.65512
0
LINE
8
BLACK
6
CONTINUOUS
10
1.29843
20
6.65512
11
1.29843
21
6.61575
0
LINE
8
BLACK
6
CONTINUOUS
10
1.49685
20
6.61575
11
1.37874
21
6.61575
0
LINE
8
BLACK
6
CONTINUOUS
10
1.37874
20
6.61575
11
1.37874
21
6.65512
0
LINE
8
BLACK
6
CONTINUOUS
10
1.37874
20
6.65512
11
1.49685
21
6.65512
0
LINE
8
BLACK
6
CONTINUOUS
10
1.49685
20
6.65512
11
1.49685
21
6.61575
0
LINE
8
BLACK
6
CONTINUOUS
10
1.49685
20
6.71575
11
1.37874
21
6.71575
0
LINE
8
BLACK
6
CONTINUOUS
10
1.37874
20
6.71575
11
1.37874
21
6.75512
0
LINE
8
BLACK
6
CONTINUOUS
10
1.37874
20
6.75512
11
1.49685
21
6.75512
0
LINE
8
BLACK
6
CONTINUOUS
10
1.49685
20
6.75512
11
1.49685
21
6.71575
0
LINE
8
BLACK
6
CONTINUOUS
10
1.29843
20
6.71575
11
1.18031
21
6.71575
0
LINE
8
BLACK
6
CONTINUOUS
10
1.18031
20
6.71575
11
1.18031
21
6.75512
0
LINE
8
BLACK
6
CONTINUOUS
10
1.18031
20
6.75512
11
1.29843
21
6.75512
0
LINE
8
BLACK
6
CONTINUOUS
10
1.29843
20
6.75512
11
1.29843
21
6.71575
0
LINE
8
BLACK
6
CONTINUOUS
10
-1.75512
20
7.1252
11
-1.79449
21
7.1252
0
LINE
8
BLACK
6
CONTINUOUS
10
-1.79449
20
7.1252
11
-1.79449
21
7.24331
0
LINE
8
BLACK
6
CONTINUOUS
10
-1.79449
20
7.24331
11
-1.75512
21
7.24331
0
LINE
8
BLACK
6
CONTINUOUS
10
-1.75512
20
7.24331
11
-1.75512
21
7.1252
0
LINE
8
BLACK
6
CONTINUOUS
10
-1.65512
20
7.1252
11
-1.69449
21
7.1252
0
LINE
8
BLACK
6
CONTINUOUS
10
-1.69449
20
7.1252
11
-1.69449
21
7.24331
0
LINE
8
BLACK
6
CONTINUOUS
10
-1.69449
20
7.24331
11
-1.65512
21
7.24331
0
LINE
8
BLACK
6
CONTINUOUS
10
-1.65512
20
7.24331
11
-1.65512
21
7.1252
0
LINE
8
BLACK
6
CONTINUOUS
10
1.39449
20
7.1252
11
1.35512
21
7.1252
0
LINE
8
BLACK
6
CONTINUOUS
10
1.35512
20
7.1252
11
1.35512
21
7.24331
0
LINE
8
BLACK
6
CONTINUOUS
10
1.35512
20
7.24331
11
1.39449
21
7.24331
0
LINE
8
BLACK
6
CONTINUOUS
10
1.39449
20
7.24331
11
1.39449
21
7.1252
0
LINE
8
BLACK
6
CONTINUOUS
10
-1.55512
20
7.1252
11
-1.59449
21
7.1252
0
LINE
8
BLACK
6
CONTINUOUS
10
-1.59449
20
7.1252
11
-1.59449
21
7.24331
0
LINE
8
BLACK
6
CONTINUOUS
10
-1.59449
20
7.24331
11
-1.55512
21
7.24331
0
LINE
8
BLACK
6
CONTINUOUS
10
-1.55512
20
7.24331
11
-1.55512
21
7.1252
0
LINE
8
BLACK
6
CONTINUOUS
10
-1.45512
20
7.1252
11
-1.49449
21
7.1252
0
LINE
8
BLACK
6
CONTINUOUS
10
-1.49449
20
7.1252
11
-1.49449
21
7.24331
0
LINE
8
BLACK
6
CONTINUOUS
10
-1.49449
20
7.24331
11
-1.45512
21
7.24331
0
LINE
8
BLACK
6
CONTINUOUS
10
-1.45512
20
7.24331
11
-1.45512
21
7.1252
0
LINE
8
BLACK
6
CONTINUOUS
10
-1.35512
20
7.1252
11
-1.39449
21
7.1252
0
LINE
8
BLACK
6
CONTINUOUS
10
-1.39449
20
7.1252
11
-1.39449
21
7.24331
0
LINE
8
BLACK
6
CONTINUOUS
10
-1.39449
20
7.24331
11
-1.35512
21
7.24331
0
LINE
8
BLACK
6
CONTINUOUS
10
-1.35512
20
7.24331
11
-1.35512
21
7.1252
0
LINE
8
BLACK
6
CONTINUOUS
10
1.79449
20
7.1252
11
1.75512
21
7.1252
0
LINE
8
BLACK
6
CONTINUOUS
10
1.75512
20
7.1252
11
1.75512
21
7.24331
0
LINE
8
BLACK
6
CONTINUOUS
10
1.75512
20
7.24331
11
1.79449
21
7.24331
0
LINE
8
BLACK
6
CONTINUOUS
10
1.79449
20
7.24331
11
1.79449
21
7.1252
0
LINE
8
BLACK
6
CONTINUOUS
10
1.49449
20
7.1252
11
1.45512
21
7.1252
0
LINE
8
BLACK
6
CONTINUOUS
10
1.45512
20
7.1252
11
1.45512
21
7.24331
0
LINE
8
BLACK
6
CONTINUOUS
10
1.45512
20
7.24331
11
1.49449
21
7.24331
0
LINE
8
BLACK
6
CONTINUOUS
10
1.49449
20
7.24331
11
1.49449
21
7.1252
0
LINE
8
BLACK
6
CONTINUOUS
10
1.69449
20
7.1252
11
1.65512
21
7.1252
0
LINE
8
BLACK
6
CONTINUOUS
10
1.65512
20
7.1252
11
1.65512
21
7.24331
0
LINE
8
BLACK
6
CONTINUOUS
10
1.65512
20
7.24331
11
1.69449
21
7.24331
0
LINE
8
BLACK
6
CONTINUOUS
10
1.69449
20
7.24331
11
1.69449
21
7.1252
0
LINE
8
BLACK
6
CONTINUOUS
10
1.59449
20
7.1252
11
1.55512
21
7.1252
0
LINE
8
BLACK
6
CONTINUOUS
10
1.55512
20
7.1252
11
1.55512
21
7.24331
0
LINE
8
BLACK
6
CONTINUOUS
10
1.55512
20
7.24331
11
1.59449
21
7.24331
0
LINE
8
BLACK
6
CONTINUOUS
10
1.59449
20
7.24331
11
1.59449
21
7.1252
0
LINE
8
BLACK
6
CONTINUOUS
10
-1.45512
20
7.32362
11
-1.49449
21
7.32362
0
LINE
8
BLACK
6
CONTINUOUS
10
-1.49449
20
7.32362
11
-1.49449
21
7.44173
0
LINE
8
BLACK
6
CONTINUOUS
10
-1.49449
20
7.44173
11
-1.45512
21
7.44173
0
LINE
8
BLACK
6
CONTINUOUS
10
-1.45512
20
7.44173
11
-1.45512
21
7.32362
0
LINE
8
BLACK
6
CONTINUOUS
10
1.39449
20
7.32362
11
1.35512
21
7.32362
0
LINE
8
BLACK
6
CONTINUOUS
10
1.35512
20
7.32362
11
1.35512
21
7.44173
0
LINE
8
BLACK
6
CONTINUOUS
10
1.35512
20
7.44173
11
1.39449
21
7.44173
0
LINE
8
BLACK
6
CONTINUOUS
10
1.39449
20
7.44173
11
1.39449
21
7.32362
0
LINE
8
BLACK
6
CONTINUOUS
10
1.49449
20
7.32362
11
1.45512
21
7.32362
0
LINE
8
BLACK
6
CONTINUOUS
10
1.45512
20
7.32362
11
1.45512
21
7.44173
0
LINE
8
BLACK
6
CONTINUOUS
10
1.45512
20
7.44173
11
1.49449
21
7.44173
0
LINE
8
BLACK
6
CONTINUOUS
10
1.49449
20
7.44173
11
1.49449
21
7.32362
0
LINE
8
BLACK
6
CONTINUOUS
10
1.59449
20
7.32362
11
1.55512
21
7.32362
0
LINE
8
BLACK
6
CONTINUOUS
10
1.55512
20
7.32362
11
1.55512
21
7.44173
0
LINE
8
BLACK
6
CONTINUOUS
10
1.55512
20
7.44173
11
1.59449
21
7.44173
0
LINE
8
BLACK
6
CONTINUOUS
10
1.59449
20
7.44173
11
1.59449
21
7.32362
0
LINE
8
BLACK
6
CONTINUOUS
10
-1.75512
20
7.32362
11
-1.79449
21
7.32362
0
LINE
8
BLACK
6
CONTINUOUS
10
-1.79449
20
7.32362
11
-1.79449
21
7.44173
0
LINE
8
BLACK
6
CONTINUOUS
10
-1.79449
20
7.44173
11
-1.75512
21
7.44173
0
LINE
8
BLACK
6
CONTINUOUS
10
-1.75512
20
7.44173
11
-1.75512
21
7.32362
0
LINE
8
BLACK
6
CONTINUOUS
10
1.69449
20
7.32362
11
1.65512
21
7.32362
0
LINE
8
BLACK
6
CONTINUOUS
10
1.65512
20
7.32362
11
1.65512
21
7.44173
0
LINE
8
BLACK
6
CONTINUOUS
10
1.65512
20
7.44173
11
1.69449
21
7.44173
0
LINE
8
BLACK
6
CONTINUOUS
10
1.69449
20
7.44173
11
1.69449
21
7.32362
0
LINE
8
BLACK
6
CONTINUOUS
10
-1.65512
20
7.32362
11
-1.69449
21
7.32362
0
LINE
8
BLACK
6
CONTINUOUS
10
-1.69449
20
7.32362
11
-1.69449
21
7.44173
0
LINE
8
BLACK
6
CONTINUOUS
10
-1.69449
20
7.44173
11
-1.65512
21
7.44173
0
LINE
8
BLACK
6
CONTINUOUS
10
-1.65512
20
7.44173
11
-1.65512
21
7.32362
0
LINE
8
BLACK
6
CONTINUOUS
10
-1.55512
20
7.32362
11
-1.59449
21
7.32362
0
LINE
8
BLACK
6
CONTINUOUS
10
-1.59449
20
7.32362
11
-1.59449
21
7.44173
0
LINE
8
BLACK
6
CONTINUOUS
10
-1.59449
20
7.44173
11
-1.55512
21
7.44173
0
LINE
8
BLACK
6
CONTINUOUS
10
-1.55512
20
7.44173
11
-1.55512
21
7.32362
0
LINE
8
BLACK
6
CONTINUOUS
10
1.79449
20
7.32362
11
1.75512
21
7.32362
0
LINE
8
BLACK
6
CONTINUOUS
10
1.75512
20
7.32362
11
1.75512
21
7.44173
0
LINE
8
BLACK
6
CONTINUOUS
10
1.75512
20
7.44173
11
1.79449
21
7.44173
0
LINE
8
BLACK
6
CONTINUOUS
10
1.79449
20
7.44173
11
1.79449
21
7.32362
0
LINE
8
BLACK
6
CONTINUOUS
10
-1.35512
20
7.32362
11
-1.39449
21
7.32362
0
LINE
8
BLACK
6
CONTINUOUS
10
-1.39449
20
7.32362
11
-1.39449
21
7.44173
0
LINE
8
BLACK
6
CONTINUOUS
10
-1.39449
20
7.44173
11
-1.35512
21
7.44173
0
LINE
8
BLACK
6
CONTINUOUS
10
-1.35512
20
7.44173
11
-1.35512
21
7.32362
0
LINE
8
BLACK
6
CONTINUOUS
10
0.161417
20
7.43937
11
0.0374016
21
7.43937
0
LINE
8
BLACK
6
CONTINUOUS
10
0.0374016
20
7.43937
11
0.0374016
21
7.47874
0
LINE
8
BLACK
6
CONTINUOUS
10
0.0374016
20
7.47874
11
0.161417
21
7.47874
0
LINE
8
BLACK
6
CONTINUOUS
10
0.161417
20
7.47874
11
0.161417
21
7.43937
0
LINE
8
BLACK
6
CONTINUOUS
10
-0.0374016
20
7.43937
11
-0.161417
21
7.43937
0
LINE
8
BLACK
6
CONTINUOUS
10
-0.161417
20
7.43937
11
-0.161417
21
7.47874
0
LINE
8
BLACK
6
CONTINUOUS
10
-0.161417
20
7.47874
11
-0.0374016
21
7.47874
0
LINE
8
BLACK
6
CONTINUOUS
10
-0.0374016
20
7.47874
11
-0.0374016
21
7.43937
0
LINE
8
BLACK
6
CONTINUOUS
10
0.161417
20
7.53937
11
0.0374016
21
7.53937
0
LINE
8
BLACK
6
CONTINUOUS
10
0.0374016
20
7.53937
11
0.0374016
21
7.57874
0
LINE
8
BLACK
6
CONTINUOUS
10
0.0374016
20
7.57874
11
0.161417
21
7.57874
0
LINE
8
BLACK
6
CONTINUOUS
10
0.161417
20
7.57874
11
0.161417
21
7.53937
0
LINE
8
BLACK
6
CONTINUOUS
10
-0.0374016
20
7.53937
11
-0.161417
21
7.53937
0
LINE
8
BLACK
6
CONTINUOUS
10
-0.161417
20
7.53937
11
-0.161417
21
7.57874
0
LINE
8
BLACK
6
CONTINUOUS
10
-0.161417
20
7.57874
11
-0.0374016
21
7.57874
0
LINE
8
BLACK
6
CONTINUOUS
10
-0.0374016
20
7.57874
11
-0.0374016
21
7.53937
0
LINE
8
BLACK
6
CONTINUOUS
10
0.161417
20
7.63937
11
0.0374016
21
7.63937
0
LINE
8
BLACK
6
CONTINUOUS
10
0.0374016
20
7.63937
11
0.0374016
21
7.67874
0
LINE
8
BLACK
6
CONTINUOUS
10
0.0374016
20
7.67874
11
0.161417
21
7.67874
0
LINE
8
BLACK
6
CONTINUOUS
10
0.161417
20
7.67874
11
0.161417
21
7.63937
0
LINE
8
BLACK
6
CONTINUOUS
10
-0.0374016
20
7.63937
11
-0.161417
21
7.63937
0
LINE
8
BLACK
6
CONTINUOUS
10
-0.161417
20
7.63937
11
-0.161417
21
7.67874
0
LINE
8
BLACK
6
CONTINUOUS
10
-0.161417
20
7.67874
11
-0.0374016
21
7.67874
0
LINE
8
BLACK
6
CONTINUOUS
10
-0.0374016
20
7.67874
11
-0.0374016
21
7.63937
  0
ENDSEC
  0
EOF
