  0
SECTION
  2
HEADER
  9
$ANGBASE
  50
0.0
  9
$ANGDIR
  70
1
  9
$MEASUREMENT
  70
0
  0
ENDSEC
  0
SECTION
  2
TABLES
  0
TABLE
  2
LTYPE
  70
4
  0
LTYPE
  5
40F
  2
CONTINUOUS
  70
0
  3
Solid line
  72
65
  73
0
  40
0.0
  0
LTYPE
  5
410
  2
DASHDOT
 70
0
  3
Dash Dot ____ _ ____ _
 72
65
 73
4
 40
2.0
 49
1.25
 49
-0.25
 49
0.25
 49
-0.25
  0
LTYPE
  5
411
  2
DASHED
 70
0
  3
Dashed __ __ __ __ __
 72
65
 73
2
 40
0.75
 49
0.5
 49
-0.25
  0
LTYPE
  5
43B
  2
DOTTED
 70
0
  3
Dotted .  .  .  .
 72
65
 73
2
 40
0.2
 49
0.0
 49
-0.2
  0
ENDTAB
  0
TABLE
  2
STYLE
  70
4
  0
STYLE
  2
KICAD
  70
0
  40
0
  41
1
  42
1
  50
0
  71
0
  3
isocp.shx
  0
STYLE
  2
KICADB
  70
0
  40
0
  41
1
  42
1
  50
0
  71
0
  3
isocp.shx
  0
STYLE
  2
KICADI
  70
0
  40
0
  41
1
  42
1
  50
15
  71
0
  3
isocp.shx
  0
STYLE
  2
KICADBI
  70
0
  40
0
  41
1
  42
1
  50
15
  71
0
  3
isocp.shx
  0
ENDTAB
  0
TABLE
  2
LAYER
  70
1
  0
LAYER
  2
BLACK
  70
0
  62
7
  6
CONTINUOUS
  0
ENDTAB
  0
ENDSEC
  0
SECTION
  2
ENTITIES
0
LINE
8
BLACK
6
CONTINUOUS
10
-1.8782
20
0.30436
11
-1.86684
21
0.3021
0
LINE
8
BLACK
6
CONTINUOUS
10
-1.86684
20
0.3021
11
-1.85586
21
0.298375
0
LINE
8
BLACK
6
CONTINUOUS
10
-1.85586
20
0.298375
11
-1.84547
21
0.29325
0
LINE
8
BLACK
6
CONTINUOUS
10
-1.84547
20
0.29325
11
-1.83584
21
0.286813
0
LINE
8
BLACK
6
CONTINUOUS
10
-1.83584
20
0.286813
11
-1.82713
21
0.279173
0
LINE
8
BLACK
6
CONTINUOUS
10
-1.82713
20
0.279173
11
-1.81949
21
0.270461
0
LINE
8
BLACK
6
CONTINUOUS
10
-1.81949
20
0.270461
11
-1.81305
21
0.260827
0
LINE
8
BLACK
6
CONTINUOUS
10
-1.81305
20
0.260827
11
-1.80792
21
0.250435
0
LINE
8
BLACK
6
CONTINUOUS
10
-1.80792
20
0.250435
11
-1.8042
21
0.239462
0
LINE
8
BLACK
6
CONTINUOUS
10
-1.8042
20
0.239462
11
-1.80194
21
0.228098
0
LINE
8
BLACK
6
CONTINUOUS
10
-1.80194
20
0.228098
11
-1.80118
21
0.216535
0
LINE
8
BLACK
6
CONTINUOUS
10
-1.80118
20
0.216535
11
-1.80194
21
0.204973
0
LINE
8
BLACK
6
CONTINUOUS
10
-1.80194
20
0.204973
11
-1.8042
21
0.193609
0
LINE
8
BLACK
6
CONTINUOUS
10
-1.8042
20
0.193609
11
-1.80792
21
0.182636
0
LINE
8
BLACK
6
CONTINUOUS
10
-1.80792
20
0.182636
11
-1.81305
21
0.172244
0
LINE
8
BLACK
6
CONTINUOUS
10
-1.81305
20
0.172244
11
-1.81949
21
0.16261
0
LINE
8
BLACK
6
CONTINUOUS
10
-1.81949
20
0.16261
11
-1.82713
21
0.153898
0
LINE
8
BLACK
6
CONTINUOUS
10
-1.82713
20
0.153898
11
-1.83584
21
0.146258
0
LINE
8
BLACK
6
CONTINUOUS
10
-1.83584
20
0.146258
11
-1.84547
21
0.139821
0
LINE
8
BLACK
6
CONTINUOUS
10
-1.84547
20
0.139821
11
-1.85586
21
0.134696
0
LINE
8
BLACK
6
CONTINUOUS
10
-1.85586
20
0.134696
11
-1.86684
21
0.130971
0
LINE
8
BLACK
6
CONTINUOUS
10
-1.86684
20
0.130971
11
-1.8782
21
0.128711
0
LINE
8
BLACK
6
CONTINUOUS
10
-1.8782
20
0.128711
11
-1.88976
21
0.127953
0
LINE
8
BLACK
6
CONTINUOUS
10
-1.88976
20
0.127953
11
-1.90133
21
0.128711
0
LINE
8
BLACK
6
CONTINUOUS
10
-1.90133
20
0.128711
11
-1.91269
21
0.130971
0
LINE
8
BLACK
6
CONTINUOUS
10
-1.91269
20
0.130971
11
-1.92366
21
0.134696
0
LINE
8
BLACK
6
CONTINUOUS
10
-1.92366
20
0.134696
11
-1.93406
21
0.139821
0
LINE
8
BLACK
6
CONTINUOUS
10
-1.93406
20
0.139821
11
-1.94369
21
0.146258
0
LINE
8
BLACK
6
CONTINUOUS
10
-1.94369
20
0.146258
11
-1.9524
21
0.153898
0
LINE
8
BLACK
6
CONTINUOUS
10
-1.9524
20
0.153898
11
-1.96004
21
0.16261
0
LINE
8
BLACK
6
CONTINUOUS
10
-1.96004
20
0.16261
11
-1.96648
21
0.172244
0
LINE
8
BLACK
6
CONTINUOUS
10
-1.96648
20
0.172244
11
-1.9716
21
0.182636
0
LINE
8
BLACK
6
CONTINUOUS
10
-1.9716
20
0.182636
11
-1.97533
21
0.193609
0
LINE
8
BLACK
6
CONTINUOUS
10
-1.97533
20
0.193609
11
-1.97759
21
0.204973
0
LINE
8
BLACK
6
CONTINUOUS
10
-1.97759
20
0.204973
11
-1.97835
21
0.216535
0
LINE
8
BLACK
6
CONTINUOUS
10
-1.97835
20
0.216535
11
-1.97759
21
0.228098
0
LINE
8
BLACK
6
CONTINUOUS
10
-1.97759
20
0.228098
11
-1.97533
21
0.239462
0
LINE
8
BLACK
6
CONTINUOUS
10
-1.97533
20
0.239462
11
-1.9716
21
0.250435
0
LINE
8
BLACK
6
CONTINUOUS
10
-1.9716
20
0.250435
11
-1.96648
21
0.260827
0
LINE
8
BLACK
6
CONTINUOUS
10
-1.96648
20
0.260827
11
-1.96004
21
0.270461
0
LINE
8
BLACK
6
CONTINUOUS
10
-1.96004
20
0.270461
11
-1.9524
21
0.279173
0
LINE
8
BLACK
6
CONTINUOUS
10
-1.9524
20
0.279173
11
-1.94369
21
0.286813
0
LINE
8
BLACK
6
CONTINUOUS
10
-1.94369
20
0.286813
11
-1.93406
21
0.29325
0
LINE
8
BLACK
6
CONTINUOUS
10
-1.93406
20
0.29325
11
-1.92366
21
0.298375
0
LINE
8
BLACK
6
CONTINUOUS
10
-1.92366
20
0.298375
11
-1.91269
21
0.3021
0
LINE
8
BLACK
6
CONTINUOUS
10
-1.91269
20
0.3021
11
-1.90133
21
0.30436
0
LINE
8
BLACK
6
CONTINUOUS
10
-1.90133
20
0.30436
11
-1.88976
21
0.305118
0
LINE
8
BLACK
6
CONTINUOUS
10
-1.88976
20
0.305118
11
-1.8782
21
0.30436
0
LINE
8
BLACK
6
CONTINUOUS
10
1.90133
20
0.30436
11
1.91269
21
0.3021
0
LINE
8
BLACK
6
CONTINUOUS
10
1.91269
20
0.3021
11
1.92366
21
0.298375
0
LINE
8
BLACK
6
CONTINUOUS
10
1.92366
20
0.298375
11
1.93406
21
0.29325
0
LINE
8
BLACK
6
CONTINUOUS
10
1.93406
20
0.29325
11
1.94369
21
0.286813
0
LINE
8
BLACK
6
CONTINUOUS
10
1.94369
20
0.286813
11
1.9524
21
0.279173
0
LINE
8
BLACK
6
CONTINUOUS
10
1.9524
20
0.279173
11
1.96004
21
0.270461
0
LINE
8
BLACK
6
CONTINUOUS
10
1.96004
20
0.270461
11
1.96648
21
0.260827
0
LINE
8
BLACK
6
CONTINUOUS
10
1.96648
20
0.260827
11
1.9716
21
0.250435
0
LINE
8
BLACK
6
CONTINUOUS
10
1.9716
20
0.250435
11
1.97533
21
0.239462
0
LINE
8
BLACK
6
CONTINUOUS
10
1.97533
20
0.239462
11
1.97759
21
0.228098
0
LINE
8
BLACK
6
CONTINUOUS
10
1.97759
20
0.228098
11
1.97835
21
0.216535
0
LINE
8
BLACK
6
CONTINUOUS
10
1.97835
20
0.216535
11
1.97759
21
0.204973
0
LINE
8
BLACK
6
CONTINUOUS
10
1.97759
20
0.204973
11
1.97533
21
0.193609
0
LINE
8
BLACK
6
CONTINUOUS
10
1.97533
20
0.193609
11
1.9716
21
0.182636
0
LINE
8
BLACK
6
CONTINUOUS
10
1.9716
20
0.182636
11
1.96648
21
0.172244
0
LINE
8
BLACK
6
CONTINUOUS
10
1.96648
20
0.172244
11
1.96004
21
0.16261
0
LINE
8
BLACK
6
CONTINUOUS
10
1.96004
20
0.16261
11
1.9524
21
0.153898
0
LINE
8
BLACK
6
CONTINUOUS
10
1.9524
20
0.153898
11
1.94369
21
0.146258
0
LINE
8
BLACK
6
CONTINUOUS
10
1.94369
20
0.146258
11
1.93406
21
0.139821
0
LINE
8
BLACK
6
CONTINUOUS
10
1.93406
20
0.139821
11
1.92366
21
0.134696
0
LINE
8
BLACK
6
CONTINUOUS
10
1.92366
20
0.134696
11
1.91269
21
0.130971
0
LINE
8
BLACK
6
CONTINUOUS
10
1.91269
20
0.130971
11
1.90133
21
0.128711
0
LINE
8
BLACK
6
CONTINUOUS
10
1.90133
20
0.128711
11
1.88976
21
0.127953
0
LINE
8
BLACK
6
CONTINUOUS
10
1.88976
20
0.127953
11
1.8782
21
0.128711
0
LINE
8
BLACK
6
CONTINUOUS
10
1.8782
20
0.128711
11
1.86684
21
0.130971
0
LINE
8
BLACK
6
CONTINUOUS
10
1.86684
20
0.130971
11
1.85586
21
0.134696
0
LINE
8
BLACK
6
CONTINUOUS
10
1.85586
20
0.134696
11
1.84547
21
0.139821
0
LINE
8
BLACK
6
CONTINUOUS
10
1.84547
20
0.139821
11
1.83584
21
0.146258
0
LINE
8
BLACK
6
CONTINUOUS
10
1.83584
20
0.146258
11
1.82713
21
0.153898
0
LINE
8
BLACK
6
CONTINUOUS
10
1.82713
20
0.153898
11
1.81949
21
0.16261
0
LINE
8
BLACK
6
CONTINUOUS
10
1.81949
20
0.16261
11
1.81305
21
0.172244
0
LINE
8
BLACK
6
CONTINUOUS
10
1.81305
20
0.172244
11
1.80792
21
0.182636
0
LINE
8
BLACK
6
CONTINUOUS
10
1.80792
20
0.182636
11
1.8042
21
0.193609
0
LINE
8
BLACK
6
CONTINUOUS
10
1.8042
20
0.193609
11
1.80194
21
0.204973
0
LINE
8
BLACK
6
CONTINUOUS
10
1.80194
20
0.204973
11
1.80118
21
0.216535
0
LINE
8
BLACK
6
CONTINUOUS
10
1.80118
20
0.216535
11
1.80194
21
0.228098
0
LINE
8
BLACK
6
CONTINUOUS
10
1.80194
20
0.228098
11
1.8042
21
0.239462
0
LINE
8
BLACK
6
CONTINUOUS
10
1.8042
20
0.239462
11
1.80792
21
0.250435
0
LINE
8
BLACK
6
CONTINUOUS
10
1.80792
20
0.250435
11
1.81305
21
0.260827
0
LINE
8
BLACK
6
CONTINUOUS
10
1.81305
20
0.260827
11
1.81949
21
0.270461
0
LINE
8
BLACK
6
CONTINUOUS
10
1.81949
20
0.270461
11
1.82713
21
0.279173
0
LINE
8
BLACK
6
CONTINUOUS
10
1.82713
20
0.279173
11
1.83584
21
0.286813
0
LINE
8
BLACK
6
CONTINUOUS
10
1.83584
20
0.286813
11
1.84547
21
0.29325
0
LINE
8
BLACK
6
CONTINUOUS
10
1.84547
20
0.29325
11
1.85586
21
0.298375
0
LINE
8
BLACK
6
CONTINUOUS
10
1.85586
20
0.298375
11
1.86684
21
0.3021
0
LINE
8
BLACK
6
CONTINUOUS
10
1.86684
20
0.3021
11
1.8782
21
0.30436
0
LINE
8
BLACK
6
CONTINUOUS
10
1.8782
20
0.30436
11
1.88976
21
0.305118
0
LINE
8
BLACK
6
CONTINUOUS
10
1.88976
20
0.305118
11
1.90133
21
0.30436
0
LINE
8
BLACK
6
CONTINUOUS
10
-3.39494
20
0.451013
11
-3.38297
21
0.447939
0
LINE
8
BLACK
6
CONTINUOUS
10
-3.38297
20
0.447939
11
-3.37148
21
0.443389
0
LINE
8
BLACK
6
CONTINUOUS
10
-3.37148
20
0.443389
11
-3.36065
21
0.437434
0
LINE
8
BLACK
6
CONTINUOUS
10
-3.36065
20
0.437434
11
-3.35065
21
0.430169
0
LINE
8
BLACK
6
CONTINUOUS
10
-3.35065
20
0.430169
11
-3.34164
21
0.421707
0
LINE
8
BLACK
6
CONTINUOUS
10
-3.34164
20
0.421707
11
-3.33376
21
0.412184
0
LINE
8
BLACK
6
CONTINUOUS
10
-3.33376
20
0.412184
11
-3.32714
21
0.401747
0
LINE
8
BLACK
6
CONTINUOUS
10
-3.32714
20
0.401747
11
-3.32187
21
0.390563
0
LINE
8
BLACK
6
CONTINUOUS
10
-3.32187
20
0.390563
11
-3.31805
21
0.378808
0
LINE
8
BLACK
6
CONTINUOUS
10
-3.31805
20
0.378808
11
-3.31574
21
0.366667
0
LINE
8
BLACK
6
CONTINUOUS
10
-3.31574
20
0.366667
11
-3.31496
21
0.354331
0
LINE
8
BLACK
6
CONTINUOUS
10
-3.31496
20
0.354331
11
-3.31574
21
0.341995
0
LINE
8
BLACK
6
CONTINUOUS
10
-3.31574
20
0.341995
11
-3.31805
21
0.329853
0
LINE
8
BLACK
6
CONTINUOUS
10
-3.31805
20
0.329853
11
-3.32187
21
0.318098
0
LINE
8
BLACK
6
CONTINUOUS
10
-3.32187
20
0.318098
11
-3.32714
21
0.306914
0
LINE
8
BLACK
6
CONTINUOUS
10
-3.32714
20
0.306914
11
-3.33376
21
0.296478
0
LINE
8
BLACK
6
CONTINUOUS
10
-3.33376
20
0.296478
11
-3.34164
21
0.286954
0
LINE
8
BLACK
6
CONTINUOUS
10
-3.34164
20
0.286954
11
-3.35065
21
0.278493
0
LINE
8
BLACK
6
CONTINUOUS
10
-3.35065
20
0.278493
11
-3.36065
21
0.271228
0
LINE
8
BLACK
6
CONTINUOUS
10
-3.36065
20
0.271228
11
-3.37148
21
0.265273
0
LINE
8
BLACK
6
CONTINUOUS
10
-3.37148
20
0.265273
11
-3.38297
21
0.260723
0
LINE
8
BLACK
6
CONTINUOUS
10
-3.38297
20
0.260723
11
-3.39494
21
0.257649
0
LINE
8
BLACK
6
CONTINUOUS
10
-3.39494
20
0.257649
11
-3.40721
21
0.2561
0
LINE
8
BLACK
6
CONTINUOUS
10
-3.40721
20
0.2561
11
-3.41957
21
0.2561
0
LINE
8
BLACK
6
CONTINUOUS
10
-3.41957
20
0.2561
11
-3.43183
21
0.257649
0
LINE
8
BLACK
6
CONTINUOUS
10
-3.43183
20
0.257649
11
-3.4438
21
0.260723
0
LINE
8
BLACK
6
CONTINUOUS
10
-3.4438
20
0.260723
11
-3.45529
21
0.265273
0
LINE
8
BLACK
6
CONTINUOUS
10
-3.45529
20
0.265273
11
-3.46612
21
0.271228
0
LINE
8
BLACK
6
CONTINUOUS
10
-3.46612
20
0.271228
11
-3.47612
21
0.278493
0
LINE
8
BLACK
6
CONTINUOUS
10
-3.47612
20
0.278493
11
-3.48513
21
0.286954
0
LINE
8
BLACK
6
CONTINUOUS
10
-3.48513
20
0.286954
11
-3.49301
21
0.296478
0
LINE
8
BLACK
6
CONTINUOUS
10
-3.49301
20
0.296478
11
-3.49964
21
0.306914
0
LINE
8
BLACK
6
CONTINUOUS
10
-3.49964
20
0.306914
11
-3.5049
21
0.318098
0
LINE
8
BLACK
6
CONTINUOUS
10
-3.5049
20
0.318098
11
-3.50872
21
0.329853
0
LINE
8
BLACK
6
CONTINUOUS
10
-3.50872
20
0.329853
11
-3.51103
21
0.341995
0
LINE
8
BLACK
6
CONTINUOUS
10
-3.51103
20
0.341995
11
-3.51181
21
0.354331
0
LINE
8
BLACK
6
CONTINUOUS
10
-3.51181
20
0.354331
11
-3.51103
21
0.366667
0
LINE
8
BLACK
6
CONTINUOUS
10
-3.51103
20
0.366667
11
-3.50872
21
0.378808
0
LINE
8
BLACK
6
CONTINUOUS
10
-3.50872
20
0.378808
11
-3.5049
21
0.390563
0
LINE
8
BLACK
6
CONTINUOUS
10
-3.5049
20
0.390563
11
-3.49964
21
0.401747
0
LINE
8
BLACK
6
CONTINUOUS
10
-3.49964
20
0.401747
11
-3.49301
21
0.412184
0
LINE
8
BLACK
6
CONTINUOUS
10
-3.49301
20
0.412184
11
-3.48513
21
0.421707
0
LINE
8
BLACK
6
CONTINUOUS
10
-3.48513
20
0.421707
11
-3.47612
21
0.430169
0
LINE
8
BLACK
6
CONTINUOUS
10
-3.47612
20
0.430169
11
-3.46612
21
0.437434
0
LINE
8
BLACK
6
CONTINUOUS
10
-3.46612
20
0.437434
11
-3.45529
21
0.443389
0
LINE
8
BLACK
6
CONTINUOUS
10
-3.45529
20
0.443389
11
-3.4438
21
0.447939
0
LINE
8
BLACK
6
CONTINUOUS
10
-3.4438
20
0.447939
11
-3.43183
21
0.451013
0
LINE
8
BLACK
6
CONTINUOUS
10
-3.43183
20
0.451013
11
-3.41957
21
0.452562
0
LINE
8
BLACK
6
CONTINUOUS
10
-3.41957
20
0.452562
11
-3.40721
21
0.452562
0
LINE
8
BLACK
6
CONTINUOUS
10
-3.40721
20
0.452562
11
-3.39494
21
0.451013
0
LINE
8
BLACK
6
CONTINUOUS
10
3.43183
20
0.451013
11
3.4438
21
0.447939
0
LINE
8
BLACK
6
CONTINUOUS
10
3.4438
20
0.447939
11
3.45529
21
0.443389
0
LINE
8
BLACK
6
CONTINUOUS
10
3.45529
20
0.443389
11
3.46612
21
0.437434
0
LINE
8
BLACK
6
CONTINUOUS
10
3.46612
20
0.437434
11
3.47612
21
0.430169
0
LINE
8
BLACK
6
CONTINUOUS
10
3.47612
20
0.430169
11
3.48513
21
0.421707
0
LINE
8
BLACK
6
CONTINUOUS
10
3.48513
20
0.421707
11
3.49301
21
0.412184
0
LINE
8
BLACK
6
CONTINUOUS
10
3.49301
20
0.412184
11
3.49964
21
0.401747
0
LINE
8
BLACK
6
CONTINUOUS
10
3.49964
20
0.401747
11
3.5049
21
0.390563
0
LINE
8
BLACK
6
CONTINUOUS
10
3.5049
20
0.390563
11
3.50872
21
0.378808
0
LINE
8
BLACK
6
CONTINUOUS
10
3.50872
20
0.378808
11
3.51103
21
0.366667
0
LINE
8
BLACK
6
CONTINUOUS
10
3.51103
20
0.366667
11
3.51181
21
0.354331
0
LINE
8
BLACK
6
CONTINUOUS
10
3.51181
20
0.354331
11
3.51103
21
0.341995
0
LINE
8
BLACK
6
CONTINUOUS
10
3.51103
20
0.341995
11
3.50872
21
0.329853
0
LINE
8
BLACK
6
CONTINUOUS
10
3.50872
20
0.329853
11
3.5049
21
0.318098
0
LINE
8
BLACK
6
CONTINUOUS
10
3.5049
20
0.318098
11
3.49964
21
0.306914
0
LINE
8
BLACK
6
CONTINUOUS
10
3.49964
20
0.306914
11
3.49301
21
0.296478
0
LINE
8
BLACK
6
CONTINUOUS
10
3.49301
20
0.296478
11
3.48513
21
0.286954
0
LINE
8
BLACK
6
CONTINUOUS
10
3.48513
20
0.286954
11
3.47612
21
0.278493
0
LINE
8
BLACK
6
CONTINUOUS
10
3.47612
20
0.278493
11
3.46612
21
0.271228
0
LINE
8
BLACK
6
CONTINUOUS
10
3.46612
20
0.271228
11
3.45529
21
0.265273
0
LINE
8
BLACK
6
CONTINUOUS
10
3.45529
20
0.265273
11
3.4438
21
0.260723
0
LINE
8
BLACK
6
CONTINUOUS
10
3.4438
20
0.260723
11
3.43183
21
0.257649
0
LINE
8
BLACK
6
CONTINUOUS
10
3.43183
20
0.257649
11
3.41957
21
0.2561
0
LINE
8
BLACK
6
CONTINUOUS
10
3.41957
20
0.2561
11
3.40721
21
0.2561
0
LINE
8
BLACK
6
CONTINUOUS
10
3.40721
20
0.2561
11
3.39494
21
0.257649
0
LINE
8
BLACK
6
CONTINUOUS
10
3.39494
20
0.257649
11
3.38297
21
0.260723
0
LINE
8
BLACK
6
CONTINUOUS
10
3.38297
20
0.260723
11
3.37148
21
0.265273
0
LINE
8
BLACK
6
CONTINUOUS
10
3.37148
20
0.265273
11
3.36065
21
0.271228
0
LINE
8
BLACK
6
CONTINUOUS
10
3.36065
20
0.271228
11
3.35065
21
0.278493
0
LINE
8
BLACK
6
CONTINUOUS
10
3.35065
20
0.278493
11
3.34164
21
0.286954
0
LINE
8
BLACK
6
CONTINUOUS
10
3.34164
20
0.286954
11
3.33376
21
0.296478
0
LINE
8
BLACK
6
CONTINUOUS
10
3.33376
20
0.296478
11
3.32714
21
0.306914
0
LINE
8
BLACK
6
CONTINUOUS
10
3.32714
20
0.306914
11
3.32187
21
0.318098
0
LINE
8
BLACK
6
CONTINUOUS
10
3.32187
20
0.318098
11
3.31805
21
0.329853
0
LINE
8
BLACK
6
CONTINUOUS
10
3.31805
20
0.329853
11
3.31574
21
0.341995
0
LINE
8
BLACK
6
CONTINUOUS
10
3.31574
20
0.341995
11
3.31496
21
0.354331
0
LINE
8
BLACK
6
CONTINUOUS
10
3.31496
20
0.354331
11
3.31574
21
0.366667
0
LINE
8
BLACK
6
CONTINUOUS
10
3.31574
20
0.366667
11
3.31805
21
0.378808
0
LINE
8
BLACK
6
CONTINUOUS
10
3.31805
20
0.378808
11
3.32187
21
0.390563
0
LINE
8
BLACK
6
CONTINUOUS
10
3.32187
20
0.390563
11
3.32714
21
0.401747
0
LINE
8
BLACK
6
CONTINUOUS
10
3.32714
20
0.401747
11
3.33376
21
0.412184
0
LINE
8
BLACK
6
CONTINUOUS
10
3.33376
20
0.412184
11
3.34164
21
0.421707
0
LINE
8
BLACK
6
CONTINUOUS
10
3.34164
20
0.421707
11
3.35065
21
0.430169
0
LINE
8
BLACK
6
CONTINUOUS
10
3.35065
20
0.430169
11
3.36065
21
0.437434
0
LINE
8
BLACK
6
CONTINUOUS
10
3.36065
20
0.437434
11
3.37148
21
0.443389
0
LINE
8
BLACK
6
CONTINUOUS
10
3.37148
20
0.443389
11
3.38297
21
0.447939
0
LINE
8
BLACK
6
CONTINUOUS
10
3.38297
20
0.447939
11
3.39494
21
0.451013
0
LINE
8
BLACK
6
CONTINUOUS
10
3.39494
20
0.451013
11
3.40721
21
0.452562
0
LINE
8
BLACK
6
CONTINUOUS
10
3.40721
20
0.452562
11
3.41957
21
0.452562
0
LINE
8
BLACK
6
CONTINUOUS
10
3.41957
20
0.452562
11
3.43183
21
0.451013
0
LINE
8
BLACK
6
CONTINUOUS
10
2.91535
20
0.274016
11
2.79134
21
0.274016
0
LINE
8
BLACK
6
CONTINUOUS
10
2.79134
20
0.274016
11
2.79134
21
0.313386
0
LINE
8
BLACK
6
CONTINUOUS
10
2.79134
20
0.313386
11
2.91535
21
0.313386
0
LINE
8
BLACK
6
CONTINUOUS
10
2.91535
20
0.313386
11
2.91535
21
0.274016
0
LINE
8
BLACK
6
CONTINUOUS
10
3.11417
20
0.274016
11
2.99016
21
0.274016
0
LINE
8
BLACK
6
CONTINUOUS
10
2.99016
20
0.274016
11
2.99016
21
0.313386
0
LINE
8
BLACK
6
CONTINUOUS
10
2.99016
20
0.313386
11
3.11417
21
0.313386
0
LINE
8
BLACK
6
CONTINUOUS
10
3.11417
20
0.313386
11
3.11417
21
0.274016
0
LINE
8
BLACK
6
CONTINUOUS
10
-2.79134
20
0.274016
11
-2.91535
21
0.274016
0
LINE
8
BLACK
6
CONTINUOUS
10
-2.91535
20
0.274016
11
-2.91535
21
0.313386
0
LINE
8
BLACK
6
CONTINUOUS
10
-2.91535
20
0.313386
11
-2.79134
21
0.313386
0
LINE
8
BLACK
6
CONTINUOUS
10
-2.79134
20
0.313386
11
-2.79134
21
0.274016
0
LINE
8
BLACK
6
CONTINUOUS
10
-2.99016
20
0.274016
11
-3.11417
21
0.274016
0
LINE
8
BLACK
6
CONTINUOUS
10
-3.11417
20
0.274016
11
-3.11417
21
0.313386
0
LINE
8
BLACK
6
CONTINUOUS
10
-3.11417
20
0.313386
11
-2.99016
21
0.313386
0
LINE
8
BLACK
6
CONTINUOUS
10
-2.99016
20
0.313386
11
-2.99016
21
0.274016
0
LINE
8
BLACK
6
CONTINUOUS
10
-2.79134
20
0.374016
11
-2.91535
21
0.374016
0
LINE
8
BLACK
6
CONTINUOUS
10
-2.91535
20
0.374016
11
-2.91535
21
0.413386
0
LINE
8
BLACK
6
CONTINUOUS
10
-2.91535
20
0.413386
11
-2.79134
21
0.413386
0
LINE
8
BLACK
6
CONTINUOUS
10
-2.79134
20
0.413386
11
-2.79134
21
0.374016
0
LINE
8
BLACK
6
CONTINUOUS
10
-2.99016
20
0.374016
11
-3.11417
21
0.374016
0
LINE
8
BLACK
6
CONTINUOUS
10
-3.11417
20
0.374016
11
-3.11417
21
0.413386
0
LINE
8
BLACK
6
CONTINUOUS
10
-3.11417
20
0.413386
11
-2.99016
21
0.413386
0
LINE
8
BLACK
6
CONTINUOUS
10
-2.99016
20
0.413386
11
-2.99016
21
0.374016
0
LINE
8
BLACK
6
CONTINUOUS
10
3.11417
20
0.374016
11
2.99016
21
0.374016
0
LINE
8
BLACK
6
CONTINUOUS
10
2.99016
20
0.374016
11
2.99016
21
0.413386
0
LINE
8
BLACK
6
CONTINUOUS
10
2.99016
20
0.413386
11
3.11417
21
0.413386
0
LINE
8
BLACK
6
CONTINUOUS
10
3.11417
20
0.413386
11
3.11417
21
0.374016
0
LINE
8
BLACK
6
CONTINUOUS
10
2.91535
20
0.374016
11
2.79134
21
0.374016
0
LINE
8
BLACK
6
CONTINUOUS
10
2.79134
20
0.374016
11
2.79134
21
0.413386
0
LINE
8
BLACK
6
CONTINUOUS
10
2.79134
20
0.413386
11
2.91535
21
0.413386
0
LINE
8
BLACK
6
CONTINUOUS
10
2.91535
20
0.413386
11
2.91535
21
0.374016
0
LINE
8
BLACK
6
CONTINUOUS
10
-2.79134
20
0.474016
11
-2.91535
21
0.474016
0
LINE
8
BLACK
6
CONTINUOUS
10
-2.91535
20
0.474016
11
-2.91535
21
0.513386
0
LINE
8
BLACK
6
CONTINUOUS
10
-2.91535
20
0.513386
11
-2.79134
21
0.513386
0
LINE
8
BLACK
6
CONTINUOUS
10
-2.79134
20
0.513386
11
-2.79134
21
0.474016
0
LINE
8
BLACK
6
CONTINUOUS
10
2.91535
20
0.474016
11
2.79134
21
0.474016
0
LINE
8
BLACK
6
CONTINUOUS
10
2.79134
20
0.474016
11
2.79134
21
0.513386
0
LINE
8
BLACK
6
CONTINUOUS
10
2.79134
20
0.513386
11
2.91535
21
0.513386
0
LINE
8
BLACK
6
CONTINUOUS
10
2.91535
20
0.513386
11
2.91535
21
0.474016
0
LINE
8
BLACK
6
CONTINUOUS
10
-2.99016
20
0.474016
11
-3.11417
21
0.474016
0
LINE
8
BLACK
6
CONTINUOUS
10
-3.11417
20
0.474016
11
-3.11417
21
0.513386
0
LINE
8
BLACK
6
CONTINUOUS
10
-3.11417
20
0.513386
11
-2.99016
21
0.513386
0
LINE
8
BLACK
6
CONTINUOUS
10
-2.99016
20
0.513386
11
-2.99016
21
0.474016
0
LINE
8
BLACK
6
CONTINUOUS
10
3.11417
20
0.474016
11
2.99016
21
0.474016
0
LINE
8
BLACK
6
CONTINUOUS
10
2.99016
20
0.474016
11
2.99016
21
0.513386
0
LINE
8
BLACK
6
CONTINUOUS
10
2.99016
20
0.513386
11
3.11417
21
0.513386
0
LINE
8
BLACK
6
CONTINUOUS
10
3.11417
20
0.513386
11
3.11417
21
0.474016
0
LINE
8
BLACK
6
CONTINUOUS
10
-3.39494
20
0.844713
11
-3.38297
21
0.841639
0
LINE
8
BLACK
6
CONTINUOUS
10
-3.38297
20
0.841639
11
-3.37148
21
0.837089
0
LINE
8
BLACK
6
CONTINUOUS
10
-3.37148
20
0.837089
11
-3.36065
21
0.831135
0
LINE
8
BLACK
6
CONTINUOUS
10
-3.36065
20
0.831135
11
-3.35065
21
0.823869
0
LINE
8
BLACK
6
CONTINUOUS
10
-3.35065
20
0.823869
11
-3.34164
21
0.815408
0
LINE
8
BLACK
6
CONTINUOUS
10
-3.34164
20
0.815408
11
-3.33376
21
0.805884
0
LINE
8
BLACK
6
CONTINUOUS
10
-3.33376
20
0.805884
11
-3.32714
21
0.795448
0
LINE
8
BLACK
6
CONTINUOUS
10
-3.32714
20
0.795448
11
-3.32187
21
0.784264
0
LINE
8
BLACK
6
CONTINUOUS
10
-3.32187
20
0.784264
11
-3.31805
21
0.772509
0
LINE
8
BLACK
6
CONTINUOUS
10
-3.31805
20
0.772509
11
-3.31574
21
0.760367
0
LINE
8
BLACK
6
CONTINUOUS
10
-3.31574
20
0.760367
11
-3.31496
21
0.748031
0
LINE
8
BLACK
6
CONTINUOUS
10
-3.31496
20
0.748031
11
-3.31574
21
0.735696
0
LINE
8
BLACK
6
CONTINUOUS
10
-3.31574
20
0.735696
11
-3.31805
21
0.723554
0
LINE
8
BLACK
6
CONTINUOUS
10
-3.31805
20
0.723554
11
-3.32187
21
0.711799
0
LINE
8
BLACK
6
CONTINUOUS
10
-3.32187
20
0.711799
11
-3.32714
21
0.700615
0
LINE
8
BLACK
6
CONTINUOUS
10
-3.32714
20
0.700615
11
-3.33376
21
0.690179
0
LINE
8
BLACK
6
CONTINUOUS
10
-3.33376
20
0.690179
11
-3.34164
21
0.680655
0
LINE
8
BLACK
6
CONTINUOUS
10
-3.34164
20
0.680655
11
-3.35065
21
0.672194
0
LINE
8
BLACK
6
CONTINUOUS
10
-3.35065
20
0.672194
11
-3.36065
21
0.664928
0
LINE
8
BLACK
6
CONTINUOUS
10
-3.36065
20
0.664928
11
-3.37148
21
0.658974
0
LINE
8
BLACK
6
CONTINUOUS
10
-3.37148
20
0.658974
11
-3.38297
21
0.654424
0
LINE
8
BLACK
6
CONTINUOUS
10
-3.38297
20
0.654424
11
-3.39494
21
0.65135
0
LINE
8
BLACK
6
CONTINUOUS
10
-3.39494
20
0.65135
11
-3.40721
21
0.649801
0
LINE
8
BLACK
6
CONTINUOUS
10
-3.40721
20
0.649801
11
-3.41957
21
0.649801
0
LINE
8
BLACK
6
CONTINUOUS
10
-3.41957
20
0.649801
11
-3.43183
21
0.65135
0
LINE
8
BLACK
6
CONTINUOUS
10
-3.43183
20
0.65135
11
-3.4438
21
0.654424
0
LINE
8
BLACK
6
CONTINUOUS
10
-3.4438
20
0.654424
11
-3.45529
21
0.658974
0
LINE
8
BLACK
6
CONTINUOUS
10
-3.45529
20
0.658974
11
-3.46612
21
0.664928
0
LINE
8
BLACK
6
CONTINUOUS
10
-3.46612
20
0.664928
11
-3.47612
21
0.672194
0
LINE
8
BLACK
6
CONTINUOUS
10
-3.47612
20
0.672194
11
-3.48513
21
0.680655
0
LINE
8
BLACK
6
CONTINUOUS
10
-3.48513
20
0.680655
11
-3.49301
21
0.690179
0
LINE
8
BLACK
6
CONTINUOUS
10
-3.49301
20
0.690179
11
-3.49964
21
0.700615
0
LINE
8
BLACK
6
CONTINUOUS
10
-3.49964
20
0.700615
11
-3.5049
21
0.711799
0
LINE
8
BLACK
6
CONTINUOUS
10
-3.5049
20
0.711799
11
-3.50872
21
0.723554
0
LINE
8
BLACK
6
CONTINUOUS
10
-3.50872
20
0.723554
11
-3.51103
21
0.735696
0
LINE
8
BLACK
6
CONTINUOUS
10
-3.51103
20
0.735696
11
-3.51181
21
0.748031
0
LINE
8
BLACK
6
CONTINUOUS
10
-3.51181
20
0.748031
11
-3.51103
21
0.760367
0
LINE
8
BLACK
6
CONTINUOUS
10
-3.51103
20
0.760367
11
-3.50872
21
0.772509
0
LINE
8
BLACK
6
CONTINUOUS
10
-3.50872
20
0.772509
11
-3.5049
21
0.784264
0
LINE
8
BLACK
6
CONTINUOUS
10
-3.5049
20
0.784264
11
-3.49964
21
0.795448
0
LINE
8
BLACK
6
CONTINUOUS
10
-3.49964
20
0.795448
11
-3.49301
21
0.805884
0
LINE
8
BLACK
6
CONTINUOUS
10
-3.49301
20
0.805884
11
-3.48513
21
0.815408
0
LINE
8
BLACK
6
CONTINUOUS
10
-3.48513
20
0.815408
11
-3.47612
21
0.823869
0
LINE
8
BLACK
6
CONTINUOUS
10
-3.47612
20
0.823869
11
-3.46612
21
0.831135
0
LINE
8
BLACK
6
CONTINUOUS
10
-3.46612
20
0.831135
11
-3.45529
21
0.837089
0
LINE
8
BLACK
6
CONTINUOUS
10
-3.45529
20
0.837089
11
-3.4438
21
0.841639
0
LINE
8
BLACK
6
CONTINUOUS
10
-3.4438
20
0.841639
11
-3.43183
21
0.844713
0
LINE
8
BLACK
6
CONTINUOUS
10
-3.43183
20
0.844713
11
-3.41957
21
0.846262
0
LINE
8
BLACK
6
CONTINUOUS
10
-3.41957
20
0.846262
11
-3.40721
21
0.846262
0
LINE
8
BLACK
6
CONTINUOUS
10
-3.40721
20
0.846262
11
-3.39494
21
0.844713
0
LINE
8
BLACK
6
CONTINUOUS
10
3.43183
20
0.844713
11
3.4438
21
0.841639
0
LINE
8
BLACK
6
CONTINUOUS
10
3.4438
20
0.841639
11
3.45529
21
0.837089
0
LINE
8
BLACK
6
CONTINUOUS
10
3.45529
20
0.837089
11
3.46612
21
0.831135
0
LINE
8
BLACK
6
CONTINUOUS
10
3.46612
20
0.831135
11
3.47612
21
0.823869
0
LINE
8
BLACK
6
CONTINUOUS
10
3.47612
20
0.823869
11
3.48513
21
0.815408
0
LINE
8
BLACK
6
CONTINUOUS
10
3.48513
20
0.815408
11
3.49301
21
0.805884
0
LINE
8
BLACK
6
CONTINUOUS
10
3.49301
20
0.805884
11
3.49964
21
0.795448
0
LINE
8
BLACK
6
CONTINUOUS
10
3.49964
20
0.795448
11
3.5049
21
0.784264
0
LINE
8
BLACK
6
CONTINUOUS
10
3.5049
20
0.784264
11
3.50872
21
0.772509
0
LINE
8
BLACK
6
CONTINUOUS
10
3.50872
20
0.772509
11
3.51103
21
0.760367
0
LINE
8
BLACK
6
CONTINUOUS
10
3.51103
20
0.760367
11
3.51181
21
0.748031
0
LINE
8
BLACK
6
CONTINUOUS
10
3.51181
20
0.748031
11
3.51103
21
0.735696
0
LINE
8
BLACK
6
CONTINUOUS
10
3.51103
20
0.735696
11
3.50872
21
0.723554
0
LINE
8
BLACK
6
CONTINUOUS
10
3.50872
20
0.723554
11
3.5049
21
0.711799
0
LINE
8
BLACK
6
CONTINUOUS
10
3.5049
20
0.711799
11
3.49964
21
0.700615
0
LINE
8
BLACK
6
CONTINUOUS
10
3.49964
20
0.700615
11
3.49301
21
0.690179
0
LINE
8
BLACK
6
CONTINUOUS
10
3.49301
20
0.690179
11
3.48513
21
0.680655
0
LINE
8
BLACK
6
CONTINUOUS
10
3.48513
20
0.680655
11
3.47612
21
0.672194
0
LINE
8
BLACK
6
CONTINUOUS
10
3.47612
20
0.672194
11
3.46612
21
0.664928
0
LINE
8
BLACK
6
CONTINUOUS
10
3.46612
20
0.664928
11
3.45529
21
0.658974
0
LINE
8
BLACK
6
CONTINUOUS
10
3.45529
20
0.658974
11
3.4438
21
0.654424
0
LINE
8
BLACK
6
CONTINUOUS
10
3.4438
20
0.654424
11
3.43183
21
0.65135
0
LINE
8
BLACK
6
CONTINUOUS
10
3.43183
20
0.65135
11
3.41957
21
0.649801
0
LINE
8
BLACK
6
CONTINUOUS
10
3.41957
20
0.649801
11
3.40721
21
0.649801
0
LINE
8
BLACK
6
CONTINUOUS
10
3.40721
20
0.649801
11
3.39494
21
0.65135
0
LINE
8
BLACK
6
CONTINUOUS
10
3.39494
20
0.65135
11
3.38297
21
0.654424
0
LINE
8
BLACK
6
CONTINUOUS
10
3.38297
20
0.654424
11
3.37148
21
0.658974
0
LINE
8
BLACK
6
CONTINUOUS
10
3.37148
20
0.658974
11
3.36065
21
0.664928
0
LINE
8
BLACK
6
CONTINUOUS
10
3.36065
20
0.664928
11
3.35065
21
0.672194
0
LINE
8
BLACK
6
CONTINUOUS
10
3.35065
20
0.672194
11
3.34164
21
0.680655
0
LINE
8
BLACK
6
CONTINUOUS
10
3.34164
20
0.680655
11
3.33376
21
0.690179
0
LINE
8
BLACK
6
CONTINUOUS
10
3.33376
20
0.690179
11
3.32714
21
0.700615
0
LINE
8
BLACK
6
CONTINUOUS
10
3.32714
20
0.700615
11
3.32187
21
0.711799
0
LINE
8
BLACK
6
CONTINUOUS
10
3.32187
20
0.711799
11
3.31805
21
0.723554
0
LINE
8
BLACK
6
CONTINUOUS
10
3.31805
20
0.723554
11
3.31574
21
0.735696
0
LINE
8
BLACK
6
CONTINUOUS
10
3.31574
20
0.735696
11
3.31496
21
0.748031
0
LINE
8
BLACK
6
CONTINUOUS
10
3.31496
20
0.748031
11
3.31574
21
0.760367
0
LINE
8
BLACK
6
CONTINUOUS
10
3.31574
20
0.760367
11
3.31805
21
0.772509
0
LINE
8
BLACK
6
CONTINUOUS
10
3.31805
20
0.772509
11
3.32187
21
0.784264
0
LINE
8
BLACK
6
CONTINUOUS
10
3.32187
20
0.784264
11
3.32714
21
0.795448
0
LINE
8
BLACK
6
CONTINUOUS
10
3.32714
20
0.795448
11
3.33376
21
0.805884
0
LINE
8
BLACK
6
CONTINUOUS
10
3.33376
20
0.805884
11
3.34164
21
0.815408
0
LINE
8
BLACK
6
CONTINUOUS
10
3.34164
20
0.815408
11
3.35065
21
0.823869
0
LINE
8
BLACK
6
CONTINUOUS
10
3.35065
20
0.823869
11
3.36065
21
0.831135
0
LINE
8
BLACK
6
CONTINUOUS
10
3.36065
20
0.831135
11
3.37148
21
0.837089
0
LINE
8
BLACK
6
CONTINUOUS
10
3.37148
20
0.837089
11
3.38297
21
0.841639
0
LINE
8
BLACK
6
CONTINUOUS
10
3.38297
20
0.841639
11
3.39494
21
0.844713
0
LINE
8
BLACK
6
CONTINUOUS
10
3.39494
20
0.844713
11
3.40721
21
0.846262
0
LINE
8
BLACK
6
CONTINUOUS
10
3.40721
20
0.846262
11
3.41957
21
0.846262
0
LINE
8
BLACK
6
CONTINUOUS
10
3.41957
20
0.846262
11
3.43183
21
0.844713
0
LINE
8
BLACK
6
CONTINUOUS
10
3.74202
20
0.842516
11
3.64802
21
0.842516
0
LINE
8
BLACK
6
CONTINUOUS
10
3.64802
20
0.842516
11
3.64802
21
0.905516
0
LINE
8
BLACK
6
CONTINUOUS
10
3.64802
20
0.905516
11
3.74202
21
0.905516
0
LINE
8
BLACK
6
CONTINUOUS
10
3.74202
20
0.905516
11
3.74202
21
0.842516
0
LINE
8
BLACK
6
CONTINUOUS
10
-3.64802
20
0.842516
11
-3.74202
21
0.842516
0
LINE
8
BLACK
6
CONTINUOUS
10
-3.74202
20
0.842516
11
-3.74202
21
0.905516
0
LINE
8
BLACK
6
CONTINUOUS
10
-3.74202
20
0.905516
11
-3.64802
21
0.905516
0
LINE
8
BLACK
6
CONTINUOUS
10
-3.64802
20
0.905516
11
-3.64802
21
0.842516
0
LINE
8
BLACK
6
CONTINUOUS
10
3.68525
20
0.940724
11
3.55125
21
0.940724
0
LINE
8
BLACK
6
CONTINUOUS
10
3.55125
20
0.940724
11
3.55125
21
0.968724
0
LINE
8
BLACK
6
CONTINUOUS
10
3.55125
20
0.968724
11
3.68525
21
0.968724
0
LINE
8
BLACK
6
CONTINUOUS
10
3.68525
20
0.968724
11
3.68525
21
0.940724
0
LINE
8
BLACK
6
CONTINUOUS
10
-3.55125
20
0.940724
11
-3.68525
21
0.940724
0
LINE
8
BLACK
6
CONTINUOUS
10
-3.68525
20
0.940724
11
-3.68525
21
0.968724
0
LINE
8
BLACK
6
CONTINUOUS
10
-3.68525
20
0.968724
11
-3.55125
21
0.968724
0
LINE
8
BLACK
6
CONTINUOUS
10
-3.55125
20
0.968724
11
-3.55125
21
0.940724
0
LINE
8
BLACK
6
CONTINUOUS
10
3.68525
20
0.999779
11
3.55125
21
0.999779
0
LINE
8
BLACK
6
CONTINUOUS
10
3.55125
20
0.999779
11
3.55125
21
1.02778
0
LINE
8
BLACK
6
CONTINUOUS
10
3.55125
20
1.02778
11
3.68525
21
1.02778
0
LINE
8
BLACK
6
CONTINUOUS
10
3.68525
20
1.02778
11
3.68525
21
0.999779
0
LINE
8
BLACK
6
CONTINUOUS
10
-3.55125
20
0.999779
11
-3.68525
21
0.999779
0
LINE
8
BLACK
6
CONTINUOUS
10
-3.68525
20
0.999779
11
-3.68525
21
1.02778
0
LINE
8
BLACK
6
CONTINUOUS
10
-3.68525
20
1.02778
11
-3.55125
21
1.02778
0
LINE
8
BLACK
6
CONTINUOUS
10
-3.55125
20
1.02778
11
-3.55125
21
0.999779
0
LINE
8
BLACK
6
CONTINUOUS
10
-3.55125
20
1.05883
11
-3.68525
21
1.05883
0
LINE
8
BLACK
6
CONTINUOUS
10
-3.68525
20
1.05883
11
-3.68525
21
1.08683
0
LINE
8
BLACK
6
CONTINUOUS
10
-3.68525
20
1.08683
11
-3.55125
21
1.08683
0
LINE
8
BLACK
6
CONTINUOUS
10
-3.55125
20
1.08683
11
-3.55125
21
1.05883
0
LINE
8
BLACK
6
CONTINUOUS
10
3.68525
20
1.05883
11
3.55125
21
1.05883
0
LINE
8
BLACK
6
CONTINUOUS
10
3.55125
20
1.05883
11
3.55125
21
1.08683
0
LINE
8
BLACK
6
CONTINUOUS
10
3.55125
20
1.08683
11
3.68525
21
1.08683
0
LINE
8
BLACK
6
CONTINUOUS
10
3.68525
20
1.08683
11
3.68525
21
1.05883
0
LINE
8
BLACK
6
CONTINUOUS
10
-3.55125
20
1.11789
11
-3.68525
21
1.11789
0
LINE
8
BLACK
6
CONTINUOUS
10
-3.68525
20
1.11789
11
-3.68525
21
1.14589
0
LINE
8
BLACK
6
CONTINUOUS
10
-3.68525
20
1.14589
11
-3.55125
21
1.14589
0
LINE
8
BLACK
6
CONTINUOUS
10
-3.55125
20
1.14589
11
-3.55125
21
1.11789
0
LINE
8
BLACK
6
CONTINUOUS
10
3.68525
20
1.11789
11
3.55125
21
1.11789
0
LINE
8
BLACK
6
CONTINUOUS
10
3.55125
20
1.11789
11
3.55125
21
1.14589
0
LINE
8
BLACK
6
CONTINUOUS
10
3.55125
20
1.14589
11
3.68525
21
1.14589
0
LINE
8
BLACK
6
CONTINUOUS
10
3.68525
20
1.14589
11
3.68525
21
1.11789
0
LINE
8
BLACK
6
CONTINUOUS
10
-3.55125
20
1.17694
11
-3.68525
21
1.17694
0
LINE
8
BLACK
6
CONTINUOUS
10
-3.68525
20
1.17694
11
-3.68525
21
1.20494
0
LINE
8
BLACK
6
CONTINUOUS
10
-3.68525
20
1.20494
11
-3.55125
21
1.20494
0
LINE
8
BLACK
6
CONTINUOUS
10
-3.55125
20
1.20494
11
-3.55125
21
1.17694
0
LINE
8
BLACK
6
CONTINUOUS
10
3.68525
20
1.17694
11
3.55125
21
1.17694
0
LINE
8
BLACK
6
CONTINUOUS
10
3.55125
20
1.17694
11
3.55125
21
1.20494
0
LINE
8
BLACK
6
CONTINUOUS
10
3.55125
20
1.20494
11
3.68525
21
1.20494
0
LINE
8
BLACK
6
CONTINUOUS
10
3.68525
20
1.20494
11
3.68525
21
1.17694
0
LINE
8
BLACK
6
CONTINUOUS
10
-3.55125
20
1.236
11
-3.68525
21
1.236
0
LINE
8
BLACK
6
CONTINUOUS
10
-3.68525
20
1.236
11
-3.68525
21
1.264
0
LINE
8
BLACK
6
CONTINUOUS
10
-3.68525
20
1.264
11
-3.55125
21
1.264
0
LINE
8
BLACK
6
CONTINUOUS
10
-3.55125
20
1.264
11
-3.55125
21
1.236
0
LINE
8
BLACK
6
CONTINUOUS
10
3.68525
20
1.236
11
3.55125
21
1.236
0
LINE
8
BLACK
6
CONTINUOUS
10
3.55125
20
1.236
11
3.55125
21
1.264
0
LINE
8
BLACK
6
CONTINUOUS
10
3.55125
20
1.264
11
3.68525
21
1.264
0
LINE
8
BLACK
6
CONTINUOUS
10
3.68525
20
1.264
11
3.68525
21
1.236
0
LINE
8
BLACK
6
CONTINUOUS
10
3.74202
20
1.29921
11
3.64802
21
1.29921
0
LINE
8
BLACK
6
CONTINUOUS
10
3.64802
20
1.29921
11
3.64802
21
1.36221
0
LINE
8
BLACK
6
CONTINUOUS
10
3.64802
20
1.36221
11
3.74202
21
1.36221
0
LINE
8
BLACK
6
CONTINUOUS
10
3.74202
20
1.36221
11
3.74202
21
1.29921
0
LINE
8
BLACK
6
CONTINUOUS
10
-3.64802
20
1.29921
11
-3.74202
21
1.29921
0
LINE
8
BLACK
6
CONTINUOUS
10
-3.74202
20
1.29921
11
-3.74202
21
1.36221
0
LINE
8
BLACK
6
CONTINUOUS
10
-3.74202
20
1.36221
11
-3.64802
21
1.36221
0
LINE
8
BLACK
6
CONTINUOUS
10
-3.64802
20
1.36221
11
-3.64802
21
1.29921
0
LINE
8
BLACK
6
CONTINUOUS
10
3.43183
20
1.55337
11
3.4438
21
1.5503
0
LINE
8
BLACK
6
CONTINUOUS
10
3.4438
20
1.5503
11
3.45529
21
1.54575
0
LINE
8
BLACK
6
CONTINUOUS
10
3.45529
20
1.54575
11
3.46612
21
1.5398
0
LINE
8
BLACK
6
CONTINUOUS
10
3.46612
20
1.5398
11
3.47612
21
1.53253
0
LINE
8
BLACK
6
CONTINUOUS
10
3.47612
20
1.53253
11
3.48513
21
1.52407
0
LINE
8
BLACK
6
CONTINUOUS
10
3.48513
20
1.52407
11
3.49301
21
1.51455
0
LINE
8
BLACK
6
CONTINUOUS
10
3.49301
20
1.51455
11
3.49964
21
1.50411
0
LINE
8
BLACK
6
CONTINUOUS
10
3.49964
20
1.50411
11
3.5049
21
1.49293
0
LINE
8
BLACK
6
CONTINUOUS
10
3.5049
20
1.49293
11
3.50872
21
1.48117
0
LINE
8
BLACK
6
CONTINUOUS
10
3.50872
20
1.48117
11
3.51103
21
1.46903
0
LINE
8
BLACK
6
CONTINUOUS
10
3.51103
20
1.46903
11
3.51181
21
1.45669
0
LINE
8
BLACK
6
CONTINUOUS
10
3.51181
20
1.45669
11
3.51103
21
1.44436
0
LINE
8
BLACK
6
CONTINUOUS
10
3.51103
20
1.44436
11
3.50872
21
1.43222
0
LINE
8
BLACK
6
CONTINUOUS
10
3.50872
20
1.43222
11
3.5049
21
1.42046
0
LINE
8
BLACK
6
CONTINUOUS
10
3.5049
20
1.42046
11
3.49964
21
1.40928
0
LINE
8
BLACK
6
CONTINUOUS
10
3.49964
20
1.40928
11
3.49301
21
1.39884
0
LINE
8
BLACK
6
CONTINUOUS
10
3.49301
20
1.39884
11
3.48513
21
1.38932
0
LINE
8
BLACK
6
CONTINUOUS
10
3.48513
20
1.38932
11
3.47612
21
1.38085
0
LINE
8
BLACK
6
CONTINUOUS
10
3.47612
20
1.38085
11
3.46612
21
1.37359
0
LINE
8
BLACK
6
CONTINUOUS
10
3.46612
20
1.37359
11
3.45529
21
1.36764
0
LINE
8
BLACK
6
CONTINUOUS
10
3.45529
20
1.36764
11
3.4438
21
1.36308
0
LINE
8
BLACK
6
CONTINUOUS
10
3.4438
20
1.36308
11
3.43183
21
1.36001
0
LINE
8
BLACK
6
CONTINUOUS
10
3.43183
20
1.36001
11
3.41957
21
1.35846
0
LINE
8
BLACK
6
CONTINUOUS
10
3.41957
20
1.35846
11
3.40721
21
1.35846
0
LINE
8
BLACK
6
CONTINUOUS
10
3.40721
20
1.35846
11
3.39494
21
1.36001
0
LINE
8
BLACK
6
CONTINUOUS
10
3.39494
20
1.36001
11
3.38297
21
1.36308
0
LINE
8
BLACK
6
CONTINUOUS
10
3.38297
20
1.36308
11
3.37148
21
1.36764
0
LINE
8
BLACK
6
CONTINUOUS
10
3.37148
20
1.36764
11
3.36065
21
1.37359
0
LINE
8
BLACK
6
CONTINUOUS
10
3.36065
20
1.37359
11
3.35065
21
1.38085
0
LINE
8
BLACK
6
CONTINUOUS
10
3.35065
20
1.38085
11
3.34164
21
1.38932
0
LINE
8
BLACK
6
CONTINUOUS
10
3.34164
20
1.38932
11
3.33376
21
1.39884
0
LINE
8
BLACK
6
CONTINUOUS
10
3.33376
20
1.39884
11
3.32714
21
1.40928
0
LINE
8
BLACK
6
CONTINUOUS
10
3.32714
20
1.40928
11
3.32187
21
1.42046
0
LINE
8
BLACK
6
CONTINUOUS
10
3.32187
20
1.42046
11
3.31805
21
1.43222
0
LINE
8
BLACK
6
CONTINUOUS
10
3.31805
20
1.43222
11
3.31574
21
1.44436
0
LINE
8
BLACK
6
CONTINUOUS
10
3.31574
20
1.44436
11
3.31496
21
1.45669
0
LINE
8
BLACK
6
CONTINUOUS
10
3.31496
20
1.45669
11
3.31574
21
1.46903
0
LINE
8
BLACK
6
CONTINUOUS
10
3.31574
20
1.46903
11
3.31805
21
1.48117
0
LINE
8
BLACK
6
CONTINUOUS
10
3.31805
20
1.48117
11
3.32187
21
1.49293
0
LINE
8
BLACK
6
CONTINUOUS
10
3.32187
20
1.49293
11
3.32714
21
1.50411
0
LINE
8
BLACK
6
CONTINUOUS
10
3.32714
20
1.50411
11
3.33376
21
1.51455
0
LINE
8
BLACK
6
CONTINUOUS
10
3.33376
20
1.51455
11
3.34164
21
1.52407
0
LINE
8
BLACK
6
CONTINUOUS
10
3.34164
20
1.52407
11
3.35065
21
1.53253
0
LINE
8
BLACK
6
CONTINUOUS
10
3.35065
20
1.53253
11
3.36065
21
1.5398
0
LINE
8
BLACK
6
CONTINUOUS
10
3.36065
20
1.5398
11
3.37148
21
1.54575
0
LINE
8
BLACK
6
CONTINUOUS
10
3.37148
20
1.54575
11
3.38297
21
1.5503
0
LINE
8
BLACK
6
CONTINUOUS
10
3.38297
20
1.5503
11
3.39494
21
1.55337
0
LINE
8
BLACK
6
CONTINUOUS
10
3.39494
20
1.55337
11
3.40721
21
1.55492
0
LINE
8
BLACK
6
CONTINUOUS
10
3.40721
20
1.55492
11
3.41957
21
1.55492
0
LINE
8
BLACK
6
CONTINUOUS
10
3.41957
20
1.55492
11
3.43183
21
1.55337
0
LINE
8
BLACK
6
CONTINUOUS
10
-3.39494
20
1.55337
11
-3.38297
21
1.5503
0
LINE
8
BLACK
6
CONTINUOUS
10
-3.38297
20
1.5503
11
-3.37148
21
1.54575
0
LINE
8
BLACK
6
CONTINUOUS
10
-3.37148
20
1.54575
11
-3.36065
21
1.5398
0
LINE
8
BLACK
6
CONTINUOUS
10
-3.36065
20
1.5398
11
-3.35065
21
1.53253
0
LINE
8
BLACK
6
CONTINUOUS
10
-3.35065
20
1.53253
11
-3.34164
21
1.52407
0
LINE
8
BLACK
6
CONTINUOUS
10
-3.34164
20
1.52407
11
-3.33376
21
1.51455
0
LINE
8
BLACK
6
CONTINUOUS
10
-3.33376
20
1.51455
11
-3.32714
21
1.50411
0
LINE
8
BLACK
6
CONTINUOUS
10
-3.32714
20
1.50411
11
-3.32187
21
1.49293
0
LINE
8
BLACK
6
CONTINUOUS
10
-3.32187
20
1.49293
11
-3.31805
21
1.48117
0
LINE
8
BLACK
6
CONTINUOUS
10
-3.31805
20
1.48117
11
-3.31574
21
1.46903
0
LINE
8
BLACK
6
CONTINUOUS
10
-3.31574
20
1.46903
11
-3.31496
21
1.45669
0
LINE
8
BLACK
6
CONTINUOUS
10
-3.31496
20
1.45669
11
-3.31574
21
1.44436
0
LINE
8
BLACK
6
CONTINUOUS
10
-3.31574
20
1.44436
11
-3.31805
21
1.43222
0
LINE
8
BLACK
6
CONTINUOUS
10
-3.31805
20
1.43222
11
-3.32187
21
1.42046
0
LINE
8
BLACK
6
CONTINUOUS
10
-3.32187
20
1.42046
11
-3.32714
21
1.40928
0
LINE
8
BLACK
6
CONTINUOUS
10
-3.32714
20
1.40928
11
-3.33376
21
1.39884
0
LINE
8
BLACK
6
CONTINUOUS
10
-3.33376
20
1.39884
11
-3.34164
21
1.38932
0
LINE
8
BLACK
6
CONTINUOUS
10
-3.34164
20
1.38932
11
-3.35065
21
1.38085
0
LINE
8
BLACK
6
CONTINUOUS
10
-3.35065
20
1.38085
11
-3.36065
21
1.37359
0
LINE
8
BLACK
6
CONTINUOUS
10
-3.36065
20
1.37359
11
-3.37148
21
1.36764
0
LINE
8
BLACK
6
CONTINUOUS
10
-3.37148
20
1.36764
11
-3.38297
21
1.36308
0
LINE
8
BLACK
6
CONTINUOUS
10
-3.38297
20
1.36308
11
-3.39494
21
1.36001
0
LINE
8
BLACK
6
CONTINUOUS
10
-3.39494
20
1.36001
11
-3.40721
21
1.35846
0
LINE
8
BLACK
6
CONTINUOUS
10
-3.40721
20
1.35846
11
-3.41957
21
1.35846
0
LINE
8
BLACK
6
CONTINUOUS
10
-3.41957
20
1.35846
11
-3.43183
21
1.36001
0
LINE
8
BLACK
6
CONTINUOUS
10
-3.43183
20
1.36001
11
-3.4438
21
1.36308
0
LINE
8
BLACK
6
CONTINUOUS
10
-3.4438
20
1.36308
11
-3.45529
21
1.36764
0
LINE
8
BLACK
6
CONTINUOUS
10
-3.45529
20
1.36764
11
-3.46612
21
1.37359
0
LINE
8
BLACK
6
CONTINUOUS
10
-3.46612
20
1.37359
11
-3.47612
21
1.38085
0
LINE
8
BLACK
6
CONTINUOUS
10
-3.47612
20
1.38085
11
-3.48513
21
1.38932
0
LINE
8
BLACK
6
CONTINUOUS
10
-3.48513
20
1.38932
11
-3.49301
21
1.39884
0
LINE
8
BLACK
6
CONTINUOUS
10
-3.49301
20
1.39884
11
-3.49964
21
1.40928
0
LINE
8
BLACK
6
CONTINUOUS
10
-3.49964
20
1.40928
11
-3.5049
21
1.42046
0
LINE
8
BLACK
6
CONTINUOUS
10
-3.5049
20
1.42046
11
-3.50872
21
1.43222
0
LINE
8
BLACK
6
CONTINUOUS
10
-3.50872
20
1.43222
11
-3.51103
21
1.44436
0
LINE
8
BLACK
6
CONTINUOUS
10
-3.51103
20
1.44436
11
-3.51181
21
1.45669
0
LINE
8
BLACK
6
CONTINUOUS
10
-3.51181
20
1.45669
11
-3.51103
21
1.46903
0
LINE
8
BLACK
6
CONTINUOUS
10
-3.51103
20
1.46903
11
-3.50872
21
1.48117
0
LINE
8
BLACK
6
CONTINUOUS
10
-3.50872
20
1.48117
11
-3.5049
21
1.49293
0
LINE
8
BLACK
6
CONTINUOUS
10
-3.5049
20
1.49293
11
-3.49964
21
1.50411
0
LINE
8
BLACK
6
CONTINUOUS
10
-3.49964
20
1.50411
11
-3.49301
21
1.51455
0
LINE
8
BLACK
6
CONTINUOUS
10
-3.49301
20
1.51455
11
-3.48513
21
1.52407
0
LINE
8
BLACK
6
CONTINUOUS
10
-3.48513
20
1.52407
11
-3.47612
21
1.53253
0
LINE
8
BLACK
6
CONTINUOUS
10
-3.47612
20
1.53253
11
-3.46612
21
1.5398
0
LINE
8
BLACK
6
CONTINUOUS
10
-3.46612
20
1.5398
11
-3.45529
21
1.54575
0
LINE
8
BLACK
6
CONTINUOUS
10
-3.45529
20
1.54575
11
-3.4438
21
1.5503
0
LINE
8
BLACK
6
CONTINUOUS
10
-3.4438
20
1.5503
11
-3.43183
21
1.55337
0
LINE
8
BLACK
6
CONTINUOUS
10
-3.43183
20
1.55337
11
-3.41957
21
1.55492
0
LINE
8
BLACK
6
CONTINUOUS
10
-3.41957
20
1.55492
11
-3.40721
21
1.55492
0
LINE
8
BLACK
6
CONTINUOUS
10
-3.40721
20
1.55492
11
-3.39494
21
1.55337
0
LINE
8
BLACK
6
CONTINUOUS
10
3.27165
20
2.04567
11
3.14764
21
2.04567
0
LINE
8
BLACK
6
CONTINUOUS
10
3.14764
20
2.04567
11
3.14764
21
2.08504
0
LINE
8
BLACK
6
CONTINUOUS
10
3.14764
20
2.08504
11
3.27165
21
2.08504
0
LINE
8
BLACK
6
CONTINUOUS
10
3.27165
20
2.08504
11
3.27165
21
2.04567
0
LINE
8
BLACK
6
CONTINUOUS
10
-3.14764
20
2.04567
11
-3.27165
21
2.04567
0
LINE
8
BLACK
6
CONTINUOUS
10
-3.27165
20
2.04567
11
-3.27165
21
2.08504
0
LINE
8
BLACK
6
CONTINUOUS
10
-3.27165
20
2.08504
11
-3.14764
21
2.08504
0
LINE
8
BLACK
6
CONTINUOUS
10
-3.14764
20
2.08504
11
-3.14764
21
2.04567
0
LINE
8
BLACK
6
CONTINUOUS
10
-2.94882
20
2.04567
11
-3.07283
21
2.04567
0
LINE
8
BLACK
6
CONTINUOUS
10
-3.07283
20
2.04567
11
-3.07283
21
2.08504
0
LINE
8
BLACK
6
CONTINUOUS
10
-3.07283
20
2.08504
11
-2.94882
21
2.08504
0
LINE
8
BLACK
6
CONTINUOUS
10
-2.94882
20
2.08504
11
-2.94882
21
2.04567
0
LINE
8
BLACK
6
CONTINUOUS
10
3.07283
20
2.04567
11
2.94882
21
2.04567
0
LINE
8
BLACK
6
CONTINUOUS
10
2.94882
20
2.04567
11
2.94882
21
2.08504
0
LINE
8
BLACK
6
CONTINUOUS
10
2.94882
20
2.08504
11
3.07283
21
2.08504
0
LINE
8
BLACK
6
CONTINUOUS
10
3.07283
20
2.08504
11
3.07283
21
2.04567
0
LINE
8
BLACK
6
CONTINUOUS
10
-3.14764
20
2.14567
11
-3.27165
21
2.14567
0
LINE
8
BLACK
6
CONTINUOUS
10
-3.27165
20
2.14567
11
-3.27165
21
2.18504
0
LINE
8
BLACK
6
CONTINUOUS
10
-3.27165
20
2.18504
11
-3.14764
21
2.18504
0
LINE
8
BLACK
6
CONTINUOUS
10
-3.14764
20
2.18504
11
-3.14764
21
2.14567
0
LINE
8
BLACK
6
CONTINUOUS
10
-2.94882
20
2.14567
11
-3.07283
21
2.14567
0
LINE
8
BLACK
6
CONTINUOUS
10
-3.07283
20
2.14567
11
-3.07283
21
2.18504
0
LINE
8
BLACK
6
CONTINUOUS
10
-3.07283
20
2.18504
11
-2.94882
21
2.18504
0
LINE
8
BLACK
6
CONTINUOUS
10
-2.94882
20
2.18504
11
-2.94882
21
2.14567
0
LINE
8
BLACK
6
CONTINUOUS
10
3.27165
20
2.14567
11
3.14764
21
2.14567
0
LINE
8
BLACK
6
CONTINUOUS
10
3.14764
20
2.14567
11
3.14764
21
2.18504
0
LINE
8
BLACK
6
CONTINUOUS
10
3.14764
20
2.18504
11
3.27165
21
2.18504
0
LINE
8
BLACK
6
CONTINUOUS
10
3.27165
20
2.18504
11
3.27165
21
2.14567
0
LINE
8
BLACK
6
CONTINUOUS
10
3.07283
20
2.14567
11
2.94882
21
2.14567
0
LINE
8
BLACK
6
CONTINUOUS
10
2.94882
20
2.14567
11
2.94882
21
2.18504
0
LINE
8
BLACK
6
CONTINUOUS
10
2.94882
20
2.18504
11
3.07283
21
2.18504
0
LINE
8
BLACK
6
CONTINUOUS
10
3.07283
20
2.18504
11
3.07283
21
2.14567
0
LINE
8
BLACK
6
CONTINUOUS
10
-2.94882
20
2.24567
11
-3.07283
21
2.24567
0
LINE
8
BLACK
6
CONTINUOUS
10
-3.07283
20
2.24567
11
-3.07283
21
2.28504
0
LINE
8
BLACK
6
CONTINUOUS
10
-3.07283
20
2.28504
11
-2.94882
21
2.28504
0
LINE
8
BLACK
6
CONTINUOUS
10
-2.94882
20
2.28504
11
-2.94882
21
2.24567
0
LINE
8
BLACK
6
CONTINUOUS
10
3.27165
20
2.24567
11
3.14764
21
2.24567
0
LINE
8
BLACK
6
CONTINUOUS
10
3.14764
20
2.24567
11
3.14764
21
2.28504
0
LINE
8
BLACK
6
CONTINUOUS
10
3.14764
20
2.28504
11
3.27165
21
2.28504
0
LINE
8
BLACK
6
CONTINUOUS
10
3.27165
20
2.28504
11
3.27165
21
2.24567
0
LINE
8
BLACK
6
CONTINUOUS
10
3.07283
20
2.24567
11
2.94882
21
2.24567
0
LINE
8
BLACK
6
CONTINUOUS
10
2.94882
20
2.24567
11
2.94882
21
2.28504
0
LINE
8
BLACK
6
CONTINUOUS
10
2.94882
20
2.28504
11
3.07283
21
2.28504
0
LINE
8
BLACK
6
CONTINUOUS
10
3.07283
20
2.28504
11
3.07283
21
2.24567
0
LINE
8
BLACK
6
CONTINUOUS
10
-3.14764
20
2.24567
11
-3.27165
21
2.24567
0
LINE
8
BLACK
6
CONTINUOUS
10
-3.27165
20
2.24567
11
-3.27165
21
2.28504
0
LINE
8
BLACK
6
CONTINUOUS
10
-3.27165
20
2.28504
11
-3.14764
21
2.28504
0
LINE
8
BLACK
6
CONTINUOUS
10
-3.14764
20
2.28504
11
-3.14764
21
2.24567
0
LINE
8
BLACK
6
CONTINUOUS
10
-1.35512
20
2.28268
11
-1.39449
21
2.28268
0
LINE
8
BLACK
6
CONTINUOUS
10
-1.39449
20
2.28268
11
-1.39449
21
2.40079
0
LINE
8
BLACK
6
CONTINUOUS
10
-1.39449
20
2.40079
11
-1.35512
21
2.40079
0
LINE
8
BLACK
6
CONTINUOUS
10
-1.35512
20
2.40079
11
-1.35512
21
2.28268
0
LINE
8
BLACK
6
CONTINUOUS
10
1.59449
20
2.28268
11
1.55512
21
2.28268
0
LINE
8
BLACK
6
CONTINUOUS
10
1.55512
20
2.28268
11
1.55512
21
2.40079
0
LINE
8
BLACK
6
CONTINUOUS
10
1.55512
20
2.40079
11
1.59449
21
2.40079
0
LINE
8
BLACK
6
CONTINUOUS
10
1.59449
20
2.40079
11
1.59449
21
2.28268
0
LINE
8
BLACK
6
CONTINUOUS
10
1.49449
20
2.28268
11
1.45512
21
2.28268
0
LINE
8
BLACK
6
CONTINUOUS
10
1.45512
20
2.28268
11
1.45512
21
2.40079
0
LINE
8
BLACK
6
CONTINUOUS
10
1.45512
20
2.40079
11
1.49449
21
2.40079
0
LINE
8
BLACK
6
CONTINUOUS
10
1.49449
20
2.40079
11
1.49449
21
2.28268
0
LINE
8
BLACK
6
CONTINUOUS
10
-1.45512
20
2.28268
11
-1.49449
21
2.28268
0
LINE
8
BLACK
6
CONTINUOUS
10
-1.49449
20
2.28268
11
-1.49449
21
2.40079
0
LINE
8
BLACK
6
CONTINUOUS
10
-1.49449
20
2.40079
11
-1.45512
21
2.40079
0
LINE
8
BLACK
6
CONTINUOUS
10
-1.45512
20
2.40079
11
-1.45512
21
2.28268
0
LINE
8
BLACK
6
CONTINUOUS
10
-1.55512
20
2.28268
11
-1.59449
21
2.28268
0
LINE
8
BLACK
6
CONTINUOUS
10
-1.59449
20
2.28268
11
-1.59449
21
2.40079
0
LINE
8
BLACK
6
CONTINUOUS
10
-1.59449
20
2.40079
11
-1.55512
21
2.40079
0
LINE
8
BLACK
6
CONTINUOUS
10
-1.55512
20
2.40079
11
-1.55512
21
2.28268
0
LINE
8
BLACK
6
CONTINUOUS
10
-1.65512
20
2.28268
11
-1.69449
21
2.28268
0
LINE
8
BLACK
6
CONTINUOUS
10
-1.69449
20
2.28268
11
-1.69449
21
2.40079
0
LINE
8
BLACK
6
CONTINUOUS
10
-1.69449
20
2.40079
11
-1.65512
21
2.40079
0
LINE
8
BLACK
6
CONTINUOUS
10
-1.65512
20
2.40079
11
-1.65512
21
2.28268
0
LINE
8
BLACK
6
CONTINUOUS
10
-1.75512
20
2.28268
11
-1.79449
21
2.28268
0
LINE
8
BLACK
6
CONTINUOUS
10
-1.79449
20
2.28268
11
-1.79449
21
2.40079
0
LINE
8
BLACK
6
CONTINUOUS
10
-1.79449
20
2.40079
11
-1.75512
21
2.40079
0
LINE
8
BLACK
6
CONTINUOUS
10
-1.75512
20
2.40079
11
-1.75512
21
2.28268
0
LINE
8
BLACK
6
CONTINUOUS
10
1.69449
20
2.28268
11
1.65512
21
2.28268
0
LINE
8
BLACK
6
CONTINUOUS
10
1.65512
20
2.28268
11
1.65512
21
2.40079
0
LINE
8
BLACK
6
CONTINUOUS
10
1.65512
20
2.40079
11
1.69449
21
2.40079
0
LINE
8
BLACK
6
CONTINUOUS
10
1.69449
20
2.40079
11
1.69449
21
2.28268
0
LINE
8
BLACK
6
CONTINUOUS
10
1.39449
20
2.28268
11
1.35512
21
2.28268
0
LINE
8
BLACK
6
CONTINUOUS
10
1.35512
20
2.28268
11
1.35512
21
2.40079
0
LINE
8
BLACK
6
CONTINUOUS
10
1.35512
20
2.40079
11
1.39449
21
2.40079
0
LINE
8
BLACK
6
CONTINUOUS
10
1.39449
20
2.40079
11
1.39449
21
2.28268
0
LINE
8
BLACK
6
CONTINUOUS
10
1.79449
20
2.28268
11
1.75512
21
2.28268
0
LINE
8
BLACK
6
CONTINUOUS
10
1.75512
20
2.28268
11
1.75512
21
2.40079
0
LINE
8
BLACK
6
CONTINUOUS
10
1.75512
20
2.40079
11
1.79449
21
2.40079
0
LINE
8
BLACK
6
CONTINUOUS
10
1.79449
20
2.40079
11
1.79449
21
2.28268
0
LINE
8
BLACK
6
CONTINUOUS
10
1.79449
20
2.4811
11
1.75512
21
2.4811
0
LINE
8
BLACK
6
CONTINUOUS
10
1.75512
20
2.4811
11
1.75512
21
2.59921
0
LINE
8
BLACK
6
CONTINUOUS
10
1.75512
20
2.59921
11
1.79449
21
2.59921
0
LINE
8
BLACK
6
CONTINUOUS
10
1.79449
20
2.59921
11
1.79449
21
2.4811
0
LINE
8
BLACK
6
CONTINUOUS
10
-1.65512
20
2.4811
11
-1.69449
21
2.4811
0
LINE
8
BLACK
6
CONTINUOUS
10
-1.69449
20
2.4811
11
-1.69449
21
2.59921
0
LINE
8
BLACK
6
CONTINUOUS
10
-1.69449
20
2.59921
11
-1.65512
21
2.59921
0
LINE
8
BLACK
6
CONTINUOUS
10
-1.65512
20
2.59921
11
-1.65512
21
2.4811
0
LINE
8
BLACK
6
CONTINUOUS
10
-1.55512
20
2.4811
11
-1.59449
21
2.4811
0
LINE
8
BLACK
6
CONTINUOUS
10
-1.59449
20
2.4811
11
-1.59449
21
2.59921
0
LINE
8
BLACK
6
CONTINUOUS
10
-1.59449
20
2.59921
11
-1.55512
21
2.59921
0
LINE
8
BLACK
6
CONTINUOUS
10
-1.55512
20
2.59921
11
-1.55512
21
2.4811
0
LINE
8
BLACK
6
CONTINUOUS
10
-1.45512
20
2.4811
11
-1.49449
21
2.4811
0
LINE
8
BLACK
6
CONTINUOUS
10
-1.49449
20
2.4811
11
-1.49449
21
2.59921
0
LINE
8
BLACK
6
CONTINUOUS
10
-1.49449
20
2.59921
11
-1.45512
21
2.59921
0
LINE
8
BLACK
6
CONTINUOUS
10
-1.45512
20
2.59921
11
-1.45512
21
2.4811
0
LINE
8
BLACK
6
CONTINUOUS
10
-1.35512
20
2.4811
11
-1.39449
21
2.4811
0
LINE
8
BLACK
6
CONTINUOUS
10
-1.39449
20
2.4811
11
-1.39449
21
2.59921
0
LINE
8
BLACK
6
CONTINUOUS
10
-1.39449
20
2.59921
11
-1.35512
21
2.59921
0
LINE
8
BLACK
6
CONTINUOUS
10
-1.35512
20
2.59921
11
-1.35512
21
2.4811
0
LINE
8
BLACK
6
CONTINUOUS
10
-1.75512
20
2.4811
11
-1.79449
21
2.4811
0
LINE
8
BLACK
6
CONTINUOUS
10
-1.79449
20
2.4811
11
-1.79449
21
2.59921
0
LINE
8
BLACK
6
CONTINUOUS
10
-1.79449
20
2.59921
11
-1.75512
21
2.59921
0
LINE
8
BLACK
6
CONTINUOUS
10
-1.75512
20
2.59921
11
-1.75512
21
2.4811
0
LINE
8
BLACK
6
CONTINUOUS
10
1.39449
20
2.4811
11
1.35512
21
2.4811
0
LINE
8
BLACK
6
CONTINUOUS
10
1.35512
20
2.4811
11
1.35512
21
2.59921
0
LINE
8
BLACK
6
CONTINUOUS
10
1.35512
20
2.59921
11
1.39449
21
2.59921
0
LINE
8
BLACK
6
CONTINUOUS
10
1.39449
20
2.59921
11
1.39449
21
2.4811
0
LINE
8
BLACK
6
CONTINUOUS
10
1.49449
20
2.4811
11
1.45512
21
2.4811
0
LINE
8
BLACK
6
CONTINUOUS
10
1.45512
20
2.4811
11
1.45512
21
2.59921
0
LINE
8
BLACK
6
CONTINUOUS
10
1.45512
20
2.59921
11
1.49449
21
2.59921
0
LINE
8
BLACK
6
CONTINUOUS
10
1.49449
20
2.59921
11
1.49449
21
2.4811
0
LINE
8
BLACK
6
CONTINUOUS
10
1.59449
20
2.4811
11
1.55512
21
2.4811
0
LINE
8
BLACK
6
CONTINUOUS
10
1.55512
20
2.4811
11
1.55512
21
2.59921
0
LINE
8
BLACK
6
CONTINUOUS
10
1.55512
20
2.59921
11
1.59449
21
2.59921
0
LINE
8
BLACK
6
CONTINUOUS
10
1.59449
20
2.59921
11
1.59449
21
2.4811
0
LINE
8
BLACK
6
CONTINUOUS
10
1.69449
20
2.4811
11
1.65512
21
2.4811
0
LINE
8
BLACK
6
CONTINUOUS
10
1.65512
20
2.4811
11
1.65512
21
2.59921
0
LINE
8
BLACK
6
CONTINUOUS
10
1.65512
20
2.59921
11
1.69449
21
2.59921
0
LINE
8
BLACK
6
CONTINUOUS
10
1.69449
20
2.59921
11
1.69449
21
2.4811
0
LINE
8
BLACK
6
CONTINUOUS
10
-3.33489
20
4.22168
11
-3.32353
21
4.21942
0
LINE
8
BLACK
6
CONTINUOUS
10
-3.32353
20
4.21942
11
-3.31256
21
4.2157
0
LINE
8
BLACK
6
CONTINUOUS
10
-3.31256
20
4.2157
11
-3.30217
21
4.21057
0
LINE
8
BLACK
6
CONTINUOUS
10
-3.30217
20
4.21057
11
-3.29253
21
4.20414
0
LINE
8
BLACK
6
CONTINUOUS
10
-3.29253
20
4.20414
11
-3.28382
21
4.1965
0
LINE
8
BLACK
6
CONTINUOUS
10
-3.28382
20
4.1965
11
-3.27618
21
4.18778
0
LINE
8
BLACK
6
CONTINUOUS
10
-3.27618
20
4.18778
11
-3.26974
21
4.17815
0
LINE
8
BLACK
6
CONTINUOUS
10
-3.26974
20
4.17815
11
-3.26462
21
4.16776
0
LINE
8
BLACK
6
CONTINUOUS
10
-3.26462
20
4.16776
11
-3.26089
21
4.15679
0
LINE
8
BLACK
6
CONTINUOUS
10
-3.26089
20
4.15679
11
-3.25863
21
4.14542
0
LINE
8
BLACK
6
CONTINUOUS
10
-3.25863
20
4.14542
11
-3.25787
21
4.13386
0
LINE
8
BLACK
6
CONTINUOUS
10
-3.25787
20
4.13386
11
-3.25863
21
4.1223
0
LINE
8
BLACK
6
CONTINUOUS
10
-3.25863
20
4.1223
11
-3.26089
21
4.11093
0
LINE
8
BLACK
6
CONTINUOUS
10
-3.26089
20
4.11093
11
-3.26462
21
4.09996
0
LINE
8
BLACK
6
CONTINUOUS
10
-3.26462
20
4.09996
11
-3.26974
21
4.08957
0
LINE
8
BLACK
6
CONTINUOUS
10
-3.26974
20
4.08957
11
-3.27618
21
4.07993
0
LINE
8
BLACK
6
CONTINUOUS
10
-3.27618
20
4.07993
11
-3.28382
21
4.07122
0
LINE
8
BLACK
6
CONTINUOUS
10
-3.28382
20
4.07122
11
-3.29253
21
4.06358
0
LINE
8
BLACK
6
CONTINUOUS
10
-3.29253
20
4.06358
11
-3.30217
21
4.05714
0
LINE
8
BLACK
6
CONTINUOUS
10
-3.30217
20
4.05714
11
-3.31256
21
4.05202
0
LINE
8
BLACK
6
CONTINUOUS
10
-3.31256
20
4.05202
11
-3.32353
21
4.04829
0
LINE
8
BLACK
6
CONTINUOUS
10
-3.32353
20
4.04829
11
-3.33489
21
4.04603
0
LINE
8
BLACK
6
CONTINUOUS
10
-3.33489
20
4.04603
11
-3.34646
21
4.04528
0
LINE
8
BLACK
6
CONTINUOUS
10
-3.34646
20
4.04528
11
-3.35802
21
4.04603
0
LINE
8
BLACK
6
CONTINUOUS
10
-3.35802
20
4.04603
11
-3.36938
21
4.04829
0
LINE
8
BLACK
6
CONTINUOUS
10
-3.36938
20
4.04829
11
-3.38036
21
4.05202
0
LINE
8
BLACK
6
CONTINUOUS
10
-3.38036
20
4.05202
11
-3.39075
21
4.05714
0
LINE
8
BLACK
6
CONTINUOUS
10
-3.39075
20
4.05714
11
-3.40038
21
4.06358
0
LINE
8
BLACK
6
CONTINUOUS
10
-3.40038
20
4.06358
11
-3.40909
21
4.07122
0
LINE
8
BLACK
6
CONTINUOUS
10
-3.40909
20
4.07122
11
-3.41673
21
4.07993
0
LINE
8
BLACK
6
CONTINUOUS
10
-3.41673
20
4.07993
11
-3.42317
21
4.08957
0
LINE
8
BLACK
6
CONTINUOUS
10
-3.42317
20
4.08957
11
-3.4283
21
4.09996
0
LINE
8
BLACK
6
CONTINUOUS
10
-3.4283
20
4.09996
11
-3.43202
21
4.11093
0
LINE
8
BLACK
6
CONTINUOUS
10
-3.43202
20
4.11093
11
-3.43428
21
4.1223
0
LINE
8
BLACK
6
CONTINUOUS
10
-3.43428
20
4.1223
11
-3.43504
21
4.13386
0
LINE
8
BLACK
6
CONTINUOUS
10
-3.43504
20
4.13386
11
-3.43428
21
4.14542
0
LINE
8
BLACK
6
CONTINUOUS
10
-3.43428
20
4.14542
11
-3.43202
21
4.15679
0
LINE
8
BLACK
6
CONTINUOUS
10
-3.43202
20
4.15679
11
-3.4283
21
4.16776
0
LINE
8
BLACK
6
CONTINUOUS
10
-3.4283
20
4.16776
11
-3.42317
21
4.17815
0
LINE
8
BLACK
6
CONTINUOUS
10
-3.42317
20
4.17815
11
-3.41673
21
4.18778
0
LINE
8
BLACK
6
CONTINUOUS
10
-3.41673
20
4.18778
11
-3.40909
21
4.1965
0
LINE
8
BLACK
6
CONTINUOUS
10
-3.40909
20
4.1965
11
-3.40038
21
4.20414
0
LINE
8
BLACK
6
CONTINUOUS
10
-3.40038
20
4.20414
11
-3.39075
21
4.21057
0
LINE
8
BLACK
6
CONTINUOUS
10
-3.39075
20
4.21057
11
-3.38036
21
4.2157
0
LINE
8
BLACK
6
CONTINUOUS
10
-3.38036
20
4.2157
11
-3.36938
21
4.21942
0
LINE
8
BLACK
6
CONTINUOUS
10
-3.36938
20
4.21942
11
-3.35802
21
4.22168
0
LINE
8
BLACK
6
CONTINUOUS
10
-3.35802
20
4.22168
11
-3.34646
21
4.22244
0
LINE
8
BLACK
6
CONTINUOUS
10
-3.34646
20
4.22244
11
-3.33489
21
4.22168
0
LINE
8
BLACK
6
CONTINUOUS
10
3.35802
20
4.22168
11
3.36938
21
4.21942
0
LINE
8
BLACK
6
CONTINUOUS
10
3.36938
20
4.21942
11
3.38036
21
4.2157
0
LINE
8
BLACK
6
CONTINUOUS
10
3.38036
20
4.2157
11
3.39075
21
4.21057
0
LINE
8
BLACK
6
CONTINUOUS
10
3.39075
20
4.21057
11
3.40038
21
4.20414
0
LINE
8
BLACK
6
CONTINUOUS
10
3.40038
20
4.20414
11
3.40909
21
4.1965
0
LINE
8
BLACK
6
CONTINUOUS
10
3.40909
20
4.1965
11
3.41673
21
4.18778
0
LINE
8
BLACK
6
CONTINUOUS
10
3.41673
20
4.18778
11
3.42317
21
4.17815
0
LINE
8
BLACK
6
CONTINUOUS
10
3.42317
20
4.17815
11
3.4283
21
4.16776
0
LINE
8
BLACK
6
CONTINUOUS
10
3.4283
20
4.16776
11
3.43202
21
4.15679
0
LINE
8
BLACK
6
CONTINUOUS
10
3.43202
20
4.15679
11
3.43428
21
4.14542
0
LINE
8
BLACK
6
CONTINUOUS
10
3.43428
20
4.14542
11
3.43504
21
4.13386
0
LINE
8
BLACK
6
CONTINUOUS
10
3.43504
20
4.13386
11
3.43428
21
4.1223
0
LINE
8
BLACK
6
CONTINUOUS
10
3.43428
20
4.1223
11
3.43202
21
4.11093
0
LINE
8
BLACK
6
CONTINUOUS
10
3.43202
20
4.11093
11
3.4283
21
4.09996
0
LINE
8
BLACK
6
CONTINUOUS
10
3.4283
20
4.09996
11
3.42317
21
4.08957
0
LINE
8
BLACK
6
CONTINUOUS
10
3.42317
20
4.08957
11
3.41673
21
4.07993
0
LINE
8
BLACK
6
CONTINUOUS
10
3.41673
20
4.07993
11
3.40909
21
4.07122
0
LINE
8
BLACK
6
CONTINUOUS
10
3.40909
20
4.07122
11
3.40038
21
4.06358
0
LINE
8
BLACK
6
CONTINUOUS
10
3.40038
20
4.06358
11
3.39075
21
4.05714
0
LINE
8
BLACK
6
CONTINUOUS
10
3.39075
20
4.05714
11
3.38036
21
4.05202
0
LINE
8
BLACK
6
CONTINUOUS
10
3.38036
20
4.05202
11
3.36938
21
4.04829
0
LINE
8
BLACK
6
CONTINUOUS
10
3.36938
20
4.04829
11
3.35802
21
4.04603
0
LINE
8
BLACK
6
CONTINUOUS
10
3.35802
20
4.04603
11
3.34646
21
4.04528
0
LINE
8
BLACK
6
CONTINUOUS
10
3.34646
20
4.04528
11
3.33489
21
4.04603
0
LINE
8
BLACK
6
CONTINUOUS
10
3.33489
20
4.04603
11
3.32353
21
4.04829
0
LINE
8
BLACK
6
CONTINUOUS
10
3.32353
20
4.04829
11
3.31256
21
4.05202
0
LINE
8
BLACK
6
CONTINUOUS
10
3.31256
20
4.05202
11
3.30217
21
4.05714
0
LINE
8
BLACK
6
CONTINUOUS
10
3.30217
20
4.05714
11
3.29253
21
4.06358
0
LINE
8
BLACK
6
CONTINUOUS
10
3.29253
20
4.06358
11
3.28382
21
4.07122
0
LINE
8
BLACK
6
CONTINUOUS
10
3.28382
20
4.07122
11
3.27618
21
4.07993
0
LINE
8
BLACK
6
CONTINUOUS
10
3.27618
20
4.07993
11
3.26974
21
4.08957
0
LINE
8
BLACK
6
CONTINUOUS
10
3.26974
20
4.08957
11
3.26462
21
4.09996
0
LINE
8
BLACK
6
CONTINUOUS
10
3.26462
20
4.09996
11
3.26089
21
4.11093
0
LINE
8
BLACK
6
CONTINUOUS
10
3.26089
20
4.11093
11
3.25863
21
4.1223
0
LINE
8
BLACK
6
CONTINUOUS
10
3.25863
20
4.1223
11
3.25787
21
4.13386
0
LINE
8
BLACK
6
CONTINUOUS
10
3.25787
20
4.13386
11
3.25863
21
4.14542
0
LINE
8
BLACK
6
CONTINUOUS
10
3.25863
20
4.14542
11
3.26089
21
4.15679
0
LINE
8
BLACK
6
CONTINUOUS
10
3.26089
20
4.15679
11
3.26462
21
4.16776
0
LINE
8
BLACK
6
CONTINUOUS
10
3.26462
20
4.16776
11
3.26974
21
4.17815
0
LINE
8
BLACK
6
CONTINUOUS
10
3.26974
20
4.17815
11
3.27618
21
4.18778
0
LINE
8
BLACK
6
CONTINUOUS
10
3.27618
20
4.18778
11
3.28382
21
4.1965
0
LINE
8
BLACK
6
CONTINUOUS
10
3.28382
20
4.1965
11
3.29253
21
4.20414
0
LINE
8
BLACK
6
CONTINUOUS
10
3.29253
20
4.20414
11
3.30217
21
4.21057
0
LINE
8
BLACK
6
CONTINUOUS
10
3.30217
20
4.21057
11
3.31256
21
4.2157
0
LINE
8
BLACK
6
CONTINUOUS
10
3.31256
20
4.2157
11
3.32353
21
4.21942
0
LINE
8
BLACK
6
CONTINUOUS
10
3.32353
20
4.21942
11
3.33489
21
4.22168
0
LINE
8
BLACK
6
CONTINUOUS
10
3.33489
20
4.22168
11
3.34646
21
4.22244
0
LINE
8
BLACK
6
CONTINUOUS
10
3.34646
20
4.22244
11
3.35802
21
4.22168
0
LINE
8
BLACK
6
CONTINUOUS
10
-0.953005
20
4.81223
11
-0.94164
21
4.80997
0
LINE
8
BLACK
6
CONTINUOUS
10
-0.94164
20
4.80997
11
-0.930668
21
4.80625
0
LINE
8
BLACK
6
CONTINUOUS
10
-0.930668
20
4.80625
11
-0.920276
21
4.80112
0
LINE
8
BLACK
6
CONTINUOUS
10
-0.920276
20
4.80112
11
-0.910641
21
4.79469
0
LINE
8
BLACK
6
CONTINUOUS
10
-0.910641
20
4.79469
11
-0.90193
21
4.78705
0
LINE
8
BLACK
6
CONTINUOUS
10
-0.90193
20
4.78705
11
-0.89429
21
4.77834
0
LINE
8
BLACK
6
CONTINUOUS
10
-0.89429
20
4.77834
11
-0.887852
21
4.7687
0
LINE
8
BLACK
6
CONTINUOUS
10
-0.887852
20
4.7687
11
-0.882727
21
4.75831
0
LINE
8
BLACK
6
CONTINUOUS
10
-0.882727
20
4.75831
11
-0.879003
21
4.74734
0
LINE
8
BLACK
6
CONTINUOUS
10
-0.879003
20
4.74734
11
-0.876742
21
4.73597
0
LINE
8
BLACK
6
CONTINUOUS
10
-0.876742
20
4.73597
11
-0.875984
21
4.72441
0
LINE
8
BLACK
6
CONTINUOUS
10
-0.875984
20
4.72441
11
-0.876742
21
4.71285
0
LINE
8
BLACK
6
CONTINUOUS
10
-0.876742
20
4.71285
11
-0.879003
21
4.70148
0
LINE
8
BLACK
6
CONTINUOUS
10
-0.879003
20
4.70148
11
-0.882727
21
4.69051
0
LINE
8
BLACK
6
CONTINUOUS
10
-0.882727
20
4.69051
11
-0.887852
21
4.68012
0
LINE
8
BLACK
6
CONTINUOUS
10
-0.887852
20
4.68012
11
-0.89429
21
4.67048
0
LINE
8
BLACK
6
CONTINUOUS
10
-0.89429
20
4.67048
11
-0.90193
21
4.66177
0
LINE
8
BLACK
6
CONTINUOUS
10
-0.90193
20
4.66177
11
-0.910641
21
4.65413
0
LINE
8
BLACK
6
CONTINUOUS
10
-0.910641
20
4.65413
11
-0.920276
21
4.64769
0
LINE
8
BLACK
6
CONTINUOUS
10
-0.920276
20
4.64769
11
-0.930668
21
4.64257
0
LINE
8
BLACK
6
CONTINUOUS
10
-0.930668
20
4.64257
11
-0.94164
21
4.63885
0
LINE
8
BLACK
6
CONTINUOUS
10
-0.94164
20
4.63885
11
-0.953005
21
4.63658
0
LINE
8
BLACK
6
CONTINUOUS
10
-0.953005
20
4.63658
11
-0.964567
21
4.63583
0
LINE
8
BLACK
6
CONTINUOUS
10
-0.964567
20
4.63583
11
-0.976129
21
4.63658
0
LINE
8
BLACK
6
CONTINUOUS
10
-0.976129
20
4.63658
11
-0.987494
21
4.63885
0
LINE
8
BLACK
6
CONTINUOUS
10
-0.987494
20
4.63885
11
-0.998466
21
4.64257
0
LINE
8
BLACK
6
CONTINUOUS
10
-0.998466
20
4.64257
11
-1.00886
21
4.64769
0
LINE
8
BLACK
6
CONTINUOUS
10
-1.00886
20
4.64769
11
-1.01849
21
4.65413
0
LINE
8
BLACK
6
CONTINUOUS
10
-1.01849
20
4.65413
11
-1.0272
21
4.66177
0
LINE
8
BLACK
6
CONTINUOUS
10
-1.0272
20
4.66177
11
-1.03484
21
4.67048
0
LINE
8
BLACK
6
CONTINUOUS
10
-1.03484
20
4.67048
11
-1.04128
21
4.68012
0
LINE
8
BLACK
6
CONTINUOUS
10
-1.04128
20
4.68012
11
-1.04641
21
4.69051
0
LINE
8
BLACK
6
CONTINUOUS
10
-1.04641
20
4.69051
11
-1.05013
21
4.70148
0
LINE
8
BLACK
6
CONTINUOUS
10
-1.05013
20
4.70148
11
-1.05239
21
4.71285
0
LINE
8
BLACK
6
CONTINUOUS
10
-1.05239
20
4.71285
11
-1.05315
21
4.72441
0
LINE
8
BLACK
6
CONTINUOUS
10
-1.05315
20
4.72441
11
-1.05239
21
4.73597
0
LINE
8
BLACK
6
CONTINUOUS
10
-1.05239
20
4.73597
11
-1.05013
21
4.74734
0
LINE
8
BLACK
6
CONTINUOUS
10
-1.05013
20
4.74734
11
-1.04641
21
4.75831
0
LINE
8
BLACK
6
CONTINUOUS
10
-1.04641
20
4.75831
11
-1.04128
21
4.7687
0
LINE
8
BLACK
6
CONTINUOUS
10
-1.04128
20
4.7687
11
-1.03484
21
4.77834
0
LINE
8
BLACK
6
CONTINUOUS
10
-1.03484
20
4.77834
11
-1.0272
21
4.78705
0
LINE
8
BLACK
6
CONTINUOUS
10
-1.0272
20
4.78705
11
-1.01849
21
4.79469
0
LINE
8
BLACK
6
CONTINUOUS
10
-1.01849
20
4.79469
11
-1.00886
21
4.80112
0
LINE
8
BLACK
6
CONTINUOUS
10
-1.00886
20
4.80112
11
-0.998466
21
4.80625
0
LINE
8
BLACK
6
CONTINUOUS
10
-0.998466
20
4.80625
11
-0.987494
21
4.80997
0
LINE
8
BLACK
6
CONTINUOUS
10
-0.987494
20
4.80997
11
-0.976129
21
4.81223
0
LINE
8
BLACK
6
CONTINUOUS
10
-0.976129
20
4.81223
11
-0.964567
21
4.81299
0
LINE
8
BLACK
6
CONTINUOUS
10
-0.964567
20
4.81299
11
-0.953005
21
4.81223
0
LINE
8
BLACK
6
CONTINUOUS
10
0.976129
20
4.81223
11
0.987494
21
4.80997
0
LINE
8
BLACK
6
CONTINUOUS
10
0.987494
20
4.80997
11
0.998466
21
4.80625
0
LINE
8
BLACK
6
CONTINUOUS
10
0.998466
20
4.80625
11
1.00886
21
4.80112
0
LINE
8
BLACK
6
CONTINUOUS
10
1.00886
20
4.80112
11
1.01849
21
4.79469
0
LINE
8
BLACK
6
CONTINUOUS
10
1.01849
20
4.79469
11
1.0272
21
4.78705
0
LINE
8
BLACK
6
CONTINUOUS
10
1.0272
20
4.78705
11
1.03484
21
4.77834
0
LINE
8
BLACK
6
CONTINUOUS
10
1.03484
20
4.77834
11
1.04128
21
4.7687
0
LINE
8
BLACK
6
CONTINUOUS
10
1.04128
20
4.7687
11
1.04641
21
4.75831
0
LINE
8
BLACK
6
CONTINUOUS
10
1.04641
20
4.75831
11
1.05013
21
4.74734
0
LINE
8
BLACK
6
CONTINUOUS
10
1.05013
20
4.74734
11
1.05239
21
4.73597
0
LINE
8
BLACK
6
CONTINUOUS
10
1.05239
20
4.73597
11
1.05315
21
4.72441
0
LINE
8
BLACK
6
CONTINUOUS
10
1.05315
20
4.72441
11
1.05239
21
4.71285
0
LINE
8
BLACK
6
CONTINUOUS
10
1.05239
20
4.71285
11
1.05013
21
4.70148
0
LINE
8
BLACK
6
CONTINUOUS
10
1.05013
20
4.70148
11
1.04641
21
4.69051
0
LINE
8
BLACK
6
CONTINUOUS
10
1.04641
20
4.69051
11
1.04128
21
4.68012
0
LINE
8
BLACK
6
CONTINUOUS
10
1.04128
20
4.68012
11
1.03484
21
4.67048
0
LINE
8
BLACK
6
CONTINUOUS
10
1.03484
20
4.67048
11
1.0272
21
4.66177
0
LINE
8
BLACK
6
CONTINUOUS
10
1.0272
20
4.66177
11
1.01849
21
4.65413
0
LINE
8
BLACK
6
CONTINUOUS
10
1.01849
20
4.65413
11
1.00886
21
4.64769
0
LINE
8
BLACK
6
CONTINUOUS
10
1.00886
20
4.64769
11
0.998466
21
4.64257
0
LINE
8
BLACK
6
CONTINUOUS
10
0.998466
20
4.64257
11
0.987494
21
4.63885
0
LINE
8
BLACK
6
CONTINUOUS
10
0.987494
20
4.63885
11
0.976129
21
4.63658
0
LINE
8
BLACK
6
CONTINUOUS
10
0.976129
20
4.63658
11
0.964567
21
4.63583
0
LINE
8
BLACK
6
CONTINUOUS
10
0.964567
20
4.63583
11
0.953005
21
4.63658
0
LINE
8
BLACK
6
CONTINUOUS
10
0.953005
20
4.63658
11
0.94164
21
4.63885
0
LINE
8
BLACK
6
CONTINUOUS
10
0.94164
20
4.63885
11
0.930668
21
4.64257
0
LINE
8
BLACK
6
CONTINUOUS
10
0.930668
20
4.64257
11
0.920276
21
4.64769
0
LINE
8
BLACK
6
CONTINUOUS
10
0.920276
20
4.64769
11
0.910641
21
4.65413
0
LINE
8
BLACK
6
CONTINUOUS
10
0.910641
20
4.65413
11
0.90193
21
4.66177
0
LINE
8
BLACK
6
CONTINUOUS
10
0.90193
20
4.66177
11
0.89429
21
4.67048
0
LINE
8
BLACK
6
CONTINUOUS
10
0.89429
20
4.67048
11
0.887852
21
4.68012
0
LINE
8
BLACK
6
CONTINUOUS
10
0.887852
20
4.68012
11
0.882727
21
4.69051
0
LINE
8
BLACK
6
CONTINUOUS
10
0.882727
20
4.69051
11
0.879003
21
4.70148
0
LINE
8
BLACK
6
CONTINUOUS
10
0.879003
20
4.70148
11
0.876742
21
4.71285
0
LINE
8
BLACK
6
CONTINUOUS
10
0.876742
20
4.71285
11
0.875984
21
4.72441
0
LINE
8
BLACK
6
CONTINUOUS
10
0.875984
20
4.72441
11
0.876742
21
4.73597
0
LINE
8
BLACK
6
CONTINUOUS
10
0.876742
20
4.73597
11
0.879003
21
4.74734
0
LINE
8
BLACK
6
CONTINUOUS
10
0.879003
20
4.74734
11
0.882727
21
4.75831
0
LINE
8
BLACK
6
CONTINUOUS
10
0.882727
20
4.75831
11
0.887852
21
4.7687
0
LINE
8
BLACK
6
CONTINUOUS
10
0.887852
20
4.7687
11
0.89429
21
4.77834
0
LINE
8
BLACK
6
CONTINUOUS
10
0.89429
20
4.77834
11
0.90193
21
4.78705
0
LINE
8
BLACK
6
CONTINUOUS
10
0.90193
20
4.78705
11
0.910641
21
4.79469
0
LINE
8
BLACK
6
CONTINUOUS
10
0.910641
20
4.79469
11
0.920276
21
4.80112
0
LINE
8
BLACK
6
CONTINUOUS
10
0.920276
20
4.80112
11
0.930668
21
4.80625
0
LINE
8
BLACK
6
CONTINUOUS
10
0.930668
20
4.80625
11
0.94164
21
4.80997
0
LINE
8
BLACK
6
CONTINUOUS
10
0.94164
20
4.80997
11
0.953005
21
4.81223
0
LINE
8
BLACK
6
CONTINUOUS
10
0.953005
20
4.81223
11
0.964567
21
4.81299
0
LINE
8
BLACK
6
CONTINUOUS
10
0.964567
20
4.81299
11
0.976129
21
4.81223
0
LINE
8
BLACK
6
CONTINUOUS
10
1.49685
20
4.74094
11
1.37874
21
4.74094
0
LINE
8
BLACK
6
CONTINUOUS
10
1.37874
20
4.74094
11
1.37874
21
4.78031
0
LINE
8
BLACK
6
CONTINUOUS
10
1.37874
20
4.78031
11
1.49685
21
4.78031
0
LINE
8
BLACK
6
CONTINUOUS
10
1.49685
20
4.78031
11
1.49685
21
4.74094
0
LINE
8
BLACK
6
CONTINUOUS
10
1.29843
20
4.74094
11
1.18031
21
4.74094
0
LINE
8
BLACK
6
CONTINUOUS
10
1.18031
20
4.74094
11
1.18031
21
4.78031
0
LINE
8
BLACK
6
CONTINUOUS
10
1.18031
20
4.78031
11
1.29843
21
4.78031
0
LINE
8
BLACK
6
CONTINUOUS
10
1.29843
20
4.78031
11
1.29843
21
4.74094
0
LINE
8
BLACK
6
CONTINUOUS
10
1.49685
20
4.84094
11
1.37874
21
4.84094
0
LINE
8
BLACK
6
CONTINUOUS
10
1.37874
20
4.84094
11
1.37874
21
4.88031
0
LINE
8
BLACK
6
CONTINUOUS
10
1.37874
20
4.88031
11
1.49685
21
4.88031
0
LINE
8
BLACK
6
CONTINUOUS
10
1.49685
20
4.88031
11
1.49685
21
4.84094
0
LINE
8
BLACK
6
CONTINUOUS
10
1.29843
20
4.84094
11
1.18031
21
4.84094
0
LINE
8
BLACK
6
CONTINUOUS
10
1.18031
20
4.84094
11
1.18031
21
4.88031
0
LINE
8
BLACK
6
CONTINUOUS
10
1.18031
20
4.88031
11
1.29843
21
4.88031
0
LINE
8
BLACK
6
CONTINUOUS
10
1.29843
20
4.88031
11
1.29843
21
4.84094
0
LINE
8
BLACK
6
CONTINUOUS
10
0.444633
20
5.08782
11
0.455998
21
5.08556
0
LINE
8
BLACK
6
CONTINUOUS
10
0.455998
20
5.08556
11
0.46697
21
5.08184
0
LINE
8
BLACK
6
CONTINUOUS
10
0.46697
20
5.08184
11
0.477362
21
5.07671
0
LINE
8
BLACK
6
CONTINUOUS
10
0.477362
20
5.07671
11
0.486997
21
5.07028
0
LINE
8
BLACK
6
CONTINUOUS
10
0.486997
20
5.07028
11
0.495708
21
5.06264
0
LINE
8
BLACK
6
CONTINUOUS
10
0.495708
20
5.06264
11
0.503348
21
5.05393
0
LINE
8
BLACK
6
CONTINUOUS
10
0.503348
20
5.05393
11
0.509786
21
5.04429
0
LINE
8
BLACK
6
CONTINUOUS
10
0.509786
20
5.04429
11
0.514911
21
5.0339
0
LINE
8
BLACK
6
CONTINUOUS
10
0.514911
20
5.0339
11
0.518635
21
5.02293
0
LINE
8
BLACK
6
CONTINUOUS
10
0.518635
20
5.02293
11
0.520896
21
5.01156
0
LINE
8
BLACK
6
CONTINUOUS
10
0.520896
20
5.01156
11
0.521654
21
5
0
LINE
8
BLACK
6
CONTINUOUS
10
0.521654
20
5
11
0.520896
21
4.98844
0
LINE
8
BLACK
6
CONTINUOUS
10
0.520896
20
4.98844
11
0.518635
21
4.97707
0
LINE
8
BLACK
6
CONTINUOUS
10
0.518635
20
4.97707
11
0.514911
21
4.9661
0
LINE
8
BLACK
6
CONTINUOUS
10
0.514911
20
4.9661
11
0.509786
21
4.95571
0
LINE
8
BLACK
6
CONTINUOUS
10
0.509786
20
4.95571
11
0.503348
21
4.94607
0
LINE
8
BLACK
6
CONTINUOUS
10
0.503348
20
4.94607
11
0.495708
21
4.93736
0
LINE
8
BLACK
6
CONTINUOUS
10
0.495708
20
4.93736
11
0.486997
21
4.92972
0
LINE
8
BLACK
6
CONTINUOUS
10
0.486997
20
4.92972
11
0.477362
21
4.92329
0
LINE
8
BLACK
6
CONTINUOUS
10
0.477362
20
4.92329
11
0.46697
21
4.91816
0
LINE
8
BLACK
6
CONTINUOUS
10
0.46697
20
4.91816
11
0.455998
21
4.91444
0
LINE
8
BLACK
6
CONTINUOUS
10
0.455998
20
4.91444
11
0.444633
21
4.91218
0
LINE
8
BLACK
6
CONTINUOUS
10
0.444633
20
4.91218
11
0.433071
21
4.91142
0
LINE
8
BLACK
6
CONTINUOUS
10
0.433071
20
4.91142
11
0.421509
21
4.91218
0
LINE
8
BLACK
6
CONTINUOUS
10
0.421509
20
4.91218
11
0.410144
21
4.91444
0
LINE
8
BLACK
6
CONTINUOUS
10
0.410144
20
4.91444
11
0.399172
21
4.91816
0
LINE
8
BLACK
6
CONTINUOUS
10
0.399172
20
4.91816
11
0.38878
21
4.92329
0
LINE
8
BLACK
6
CONTINUOUS
10
0.38878
20
4.92329
11
0.379145
21
4.92972
0
LINE
8
BLACK
6
CONTINUOUS
10
0.379145
20
4.92972
11
0.370433
21
4.93736
0
LINE
8
BLACK
6
CONTINUOUS
10
0.370433
20
4.93736
11
0.362794
21
4.94607
0
LINE
8
BLACK
6
CONTINUOUS
10
0.362794
20
4.94607
11
0.356356
21
4.95571
0
LINE
8
BLACK
6
CONTINUOUS
10
0.356356
20
4.95571
11
0.351231
21
4.9661
0
LINE
8
BLACK
6
CONTINUOUS
10
0.351231
20
4.9661
11
0.347507
21
4.97707
0
LINE
8
BLACK
6
CONTINUOUS
10
0.347507
20
4.97707
11
0.345246
21
4.98844
0
LINE
8
BLACK
6
CONTINUOUS
10
0.345246
20
4.98844
11
0.344488
21
5
0
LINE
8
BLACK
6
CONTINUOUS
10
0.344488
20
5
11
0.345246
21
5.01156
0
LINE
8
BLACK
6
CONTINUOUS
10
0.345246
20
5.01156
11
0.347507
21
5.02293
0
LINE
8
BLACK
6
CONTINUOUS
10
0.347507
20
5.02293
11
0.351231
21
5.0339
0
LINE
8
BLACK
6
CONTINUOUS
10
0.351231
20
5.0339
11
0.356356
21
5.04429
0
LINE
8
BLACK
6
CONTINUOUS
10
0.356356
20
5.04429
11
0.362794
21
5.05393
0
LINE
8
BLACK
6
CONTINUOUS
10
0.362794
20
5.05393
11
0.370433
21
5.06264
0
LINE
8
BLACK
6
CONTINUOUS
10
0.370433
20
5.06264
11
0.379145
21
5.07028
0
LINE
8
BLACK
6
CONTINUOUS
10
0.379145
20
5.07028
11
0.38878
21
5.07671
0
LINE
8
BLACK
6
CONTINUOUS
10
0.38878
20
5.07671
11
0.399172
21
5.08184
0
LINE
8
BLACK
6
CONTINUOUS
10
0.399172
20
5.08184
11
0.410144
21
5.08556
0
LINE
8
BLACK
6
CONTINUOUS
10
0.410144
20
5.08556
11
0.421509
21
5.08782
0
LINE
8
BLACK
6
CONTINUOUS
10
0.421509
20
5.08782
11
0.433071
21
5.08858
0
LINE
8
BLACK
6
CONTINUOUS
10
0.433071
20
5.08858
11
0.444633
21
5.08782
0
LINE
8
BLACK
6
CONTINUOUS
10
-1.30734
20
5.08782
11
-1.29597
21
5.08556
0
LINE
8
BLACK
6
CONTINUOUS
10
-1.29597
20
5.08556
11
-1.285
21
5.08184
0
LINE
8
BLACK
6
CONTINUOUS
10
-1.285
20
5.08184
11
-1.27461
21
5.07671
0
LINE
8
BLACK
6
CONTINUOUS
10
-1.27461
20
5.07671
11
-1.26497
21
5.07028
0
LINE
8
BLACK
6
CONTINUOUS
10
-1.26497
20
5.07028
11
-1.25626
21
5.06264
0
LINE
8
BLACK
6
CONTINUOUS
10
-1.25626
20
5.06264
11
-1.24862
21
5.05393
0
LINE
8
BLACK
6
CONTINUOUS
10
-1.24862
20
5.05393
11
-1.24218
21
5.04429
0
LINE
8
BLACK
6
CONTINUOUS
10
-1.24218
20
5.04429
11
-1.23706
21
5.0339
0
LINE
8
BLACK
6
CONTINUOUS
10
-1.23706
20
5.0339
11
-1.23333
21
5.02293
0
LINE
8
BLACK
6
CONTINUOUS
10
-1.23333
20
5.02293
11
-1.23107
21
5.01156
0
LINE
8
BLACK
6
CONTINUOUS
10
-1.23107
20
5.01156
11
-1.23031
21
5
0
LINE
8
BLACK
6
CONTINUOUS
10
-1.23031
20
5
11
-1.23107
21
4.98844
0
LINE
8
BLACK
6
CONTINUOUS
10
-1.23107
20
4.98844
11
-1.23333
21
4.97707
0
LINE
8
BLACK
6
CONTINUOUS
10
-1.23333
20
4.97707
11
-1.23706
21
4.9661
0
LINE
8
BLACK
6
CONTINUOUS
10
-1.23706
20
4.9661
11
-1.24218
21
4.95571
0
LINE
8
BLACK
6
CONTINUOUS
10
-1.24218
20
4.95571
11
-1.24862
21
4.94607
0
LINE
8
BLACK
6
CONTINUOUS
10
-1.24862
20
4.94607
11
-1.25626
21
4.93736
0
LINE
8
BLACK
6
CONTINUOUS
10
-1.25626
20
4.93736
11
-1.26497
21
4.92972
0
LINE
8
BLACK
6
CONTINUOUS
10
-1.26497
20
4.92972
11
-1.27461
21
4.92329
0
LINE
8
BLACK
6
CONTINUOUS
10
-1.27461
20
4.92329
11
-1.285
21
4.91816
0
LINE
8
BLACK
6
CONTINUOUS
10
-1.285
20
4.91816
11
-1.29597
21
4.91444
0
LINE
8
BLACK
6
CONTINUOUS
10
-1.29597
20
4.91444
11
-1.30734
21
4.91218
0
LINE
8
BLACK
6
CONTINUOUS
10
-1.30734
20
4.91218
11
-1.3189
21
4.91142
0
LINE
8
BLACK
6
CONTINUOUS
10
-1.3189
20
4.91142
11
-1.33046
21
4.91218
0
LINE
8
BLACK
6
CONTINUOUS
10
-1.33046
20
4.91218
11
-1.34182
21
4.91444
0
LINE
8
BLACK
6
CONTINUOUS
10
-1.34182
20
4.91444
11
-1.3528
21
4.91816
0
LINE
8
BLACK
6
CONTINUOUS
10
-1.3528
20
4.91816
11
-1.36319
21
4.92329
0
LINE
8
BLACK
6
CONTINUOUS
10
-1.36319
20
4.92329
11
-1.37282
21
4.92972
0
LINE
8
BLACK
6
CONTINUOUS
10
-1.37282
20
4.92972
11
-1.38154
21
4.93736
0
LINE
8
BLACK
6
CONTINUOUS
10
-1.38154
20
4.93736
11
-1.38918
21
4.94607
0
LINE
8
BLACK
6
CONTINUOUS
10
-1.38918
20
4.94607
11
-1.39561
21
4.95571
0
LINE
8
BLACK
6
CONTINUOUS
10
-1.39561
20
4.95571
11
-1.40074
21
4.9661
0
LINE
8
BLACK
6
CONTINUOUS
10
-1.40074
20
4.9661
11
-1.40446
21
4.97707
0
LINE
8
BLACK
6
CONTINUOUS
10
-1.40446
20
4.97707
11
-1.40672
21
4.98844
0
LINE
8
BLACK
6
CONTINUOUS
10
-1.40672
20
4.98844
11
-1.40748
21
5
0
LINE
8
BLACK
6
CONTINUOUS
10
-1.40748
20
5
11
-1.40672
21
5.01156
0
LINE
8
BLACK
6
CONTINUOUS
10
-1.40672
20
5.01156
11
-1.40446
21
5.02293
0
LINE
8
BLACK
6
CONTINUOUS
10
-1.40446
20
5.02293
11
-1.40074
21
5.0339
0
LINE
8
BLACK
6
CONTINUOUS
10
-1.40074
20
5.0339
11
-1.39561
21
5.04429
0
LINE
8
BLACK
6
CONTINUOUS
10
-1.39561
20
5.04429
11
-1.38918
21
5.05393
0
LINE
8
BLACK
6
CONTINUOUS
10
-1.38918
20
5.05393
11
-1.38154
21
5.06264
0
LINE
8
BLACK
6
CONTINUOUS
10
-1.38154
20
5.06264
11
-1.37282
21
5.07028
0
LINE
8
BLACK
6
CONTINUOUS
10
-1.37282
20
5.07028
11
-1.36319
21
5.07671
0
LINE
8
BLACK
6
CONTINUOUS
10
-1.36319
20
5.07671
11
-1.3528
21
5.08184
0
LINE
8
BLACK
6
CONTINUOUS
10
-1.3528
20
5.08184
11
-1.34182
21
5.08556
0
LINE
8
BLACK
6
CONTINUOUS
10
-1.34182
20
5.08556
11
-1.33046
21
5.08782
0
LINE
8
BLACK
6
CONTINUOUS
10
-1.33046
20
5.08782
11
-1.3189
21
5.08858
0
LINE
8
BLACK
6
CONTINUOUS
10
-1.3189
20
5.08858
11
-1.30734
21
5.08782
0
LINE
8
BLACK
6
CONTINUOUS
10
1.49685
20
4.94094
11
1.37874
21
4.94094
0
LINE
8
BLACK
6
CONTINUOUS
10
1.37874
20
4.94094
11
1.37874
21
4.98031
0
LINE
8
BLACK
6
CONTINUOUS
10
1.37874
20
4.98031
11
1.49685
21
4.98031
0
LINE
8
BLACK
6
CONTINUOUS
10
1.49685
20
4.98031
11
1.49685
21
4.94094
0
LINE
8
BLACK
6
CONTINUOUS
10
1.29843
20
4.94094
11
1.18031
21
4.94094
0
LINE
8
BLACK
6
CONTINUOUS
10
1.18031
20
4.94094
11
1.18031
21
4.98031
0
LINE
8
BLACK
6
CONTINUOUS
10
1.18031
20
4.98031
11
1.29843
21
4.98031
0
LINE
8
BLACK
6
CONTINUOUS
10
1.29843
20
4.98031
11
1.29843
21
4.94094
0
LINE
8
BLACK
6
CONTINUOUS
10
1.49685
20
5.04094
11
1.37874
21
5.04094
0
LINE
8
BLACK
6
CONTINUOUS
10
1.37874
20
5.04094
11
1.37874
21
5.08031
0
LINE
8
BLACK
6
CONTINUOUS
10
1.37874
20
5.08031
11
1.49685
21
5.08031
0
LINE
8
BLACK
6
CONTINUOUS
10
1.49685
20
5.08031
11
1.49685
21
5.04094
0
LINE
8
BLACK
6
CONTINUOUS
10
1.29843
20
5.04094
11
1.18031
21
5.04094
0
LINE
8
BLACK
6
CONTINUOUS
10
1.18031
20
5.04094
11
1.18031
21
5.08031
0
LINE
8
BLACK
6
CONTINUOUS
10
1.18031
20
5.08031
11
1.29843
21
5.08031
0
LINE
8
BLACK
6
CONTINUOUS
10
1.29843
20
5.08031
11
1.29843
21
5.04094
0
LINE
8
BLACK
6
CONTINUOUS
10
1.49685
20
5.14094
11
1.37874
21
5.14094
0
LINE
8
BLACK
6
CONTINUOUS
10
1.37874
20
5.14094
11
1.37874
21
5.18031
0
LINE
8
BLACK
6
CONTINUOUS
10
1.37874
20
5.18031
11
1.49685
21
5.18031
0
LINE
8
BLACK
6
CONTINUOUS
10
1.49685
20
5.18031
11
1.49685
21
5.14094
0
LINE
8
BLACK
6
CONTINUOUS
10
1.29843
20
5.14094
11
1.18031
21
5.14094
0
LINE
8
BLACK
6
CONTINUOUS
10
1.18031
20
5.14094
11
1.18031
21
5.18031
0
LINE
8
BLACK
6
CONTINUOUS
10
1.18031
20
5.18031
11
1.29843
21
5.18031
0
LINE
8
BLACK
6
CONTINUOUS
10
1.29843
20
5.18031
11
1.29843
21
5.14094
0
LINE
8
BLACK
6
CONTINUOUS
10
2.04882
20
5.23543
11
2.00945
21
5.23543
0
LINE
8
BLACK
6
CONTINUOUS
10
2.00945
20
5.23543
11
2.00945
21
5.35354
0
LINE
8
BLACK
6
CONTINUOUS
10
2.00945
20
5.35354
11
2.04882
21
5.35354
0
LINE
8
BLACK
6
CONTINUOUS
10
2.04882
20
5.35354
11
2.04882
21
5.23543
0
LINE
8
BLACK
6
CONTINUOUS
10
-1.80945
20
5.23543
11
-1.84882
21
5.23543
0
LINE
8
BLACK
6
CONTINUOUS
10
-1.84882
20
5.23543
11
-1.84882
21
5.35354
0
LINE
8
BLACK
6
CONTINUOUS
10
-1.84882
20
5.35354
11
-1.80945
21
5.35354
0
LINE
8
BLACK
6
CONTINUOUS
10
-1.80945
20
5.35354
11
-1.80945
21
5.23543
0
LINE
8
BLACK
6
CONTINUOUS
10
2.14882
20
5.23543
11
2.10945
21
5.23543
0
LINE
8
BLACK
6
CONTINUOUS
10
2.10945
20
5.23543
11
2.10945
21
5.35354
0
LINE
8
BLACK
6
CONTINUOUS
10
2.10945
20
5.35354
11
2.14882
21
5.35354
0
LINE
8
BLACK
6
CONTINUOUS
10
2.14882
20
5.35354
11
2.14882
21
5.23543
0
LINE
8
BLACK
6
CONTINUOUS
10
-2.00945
20
5.23543
11
-2.04882
21
5.23543
0
LINE
8
BLACK
6
CONTINUOUS
10
-2.04882
20
5.23543
11
-2.04882
21
5.35354
0
LINE
8
BLACK
6
CONTINUOUS
10
-2.04882
20
5.35354
11
-2.00945
21
5.35354
0
LINE
8
BLACK
6
CONTINUOUS
10
-2.00945
20
5.35354
11
-2.00945
21
5.23543
0
LINE
8
BLACK
6
CONTINUOUS
10
1.74882
20
5.23543
11
1.70945
21
5.23543
0
LINE
8
BLACK
6
CONTINUOUS
10
1.70945
20
5.23543
11
1.70945
21
5.35354
0
LINE
8
BLACK
6
CONTINUOUS
10
1.70945
20
5.35354
11
1.74882
21
5.35354
0
LINE
8
BLACK
6
CONTINUOUS
10
1.74882
20
5.35354
11
1.74882
21
5.23543
0
LINE
8
BLACK
6
CONTINUOUS
10
-2.10945
20
5.23543
11
-2.14882
21
5.23543
0
LINE
8
BLACK
6
CONTINUOUS
10
-2.14882
20
5.23543
11
-2.14882
21
5.35354
0
LINE
8
BLACK
6
CONTINUOUS
10
-2.14882
20
5.35354
11
-2.10945
21
5.35354
0
LINE
8
BLACK
6
CONTINUOUS
10
-2.10945
20
5.35354
11
-2.10945
21
5.23543
0
LINE
8
BLACK
6
CONTINUOUS
10
1.94882
20
5.23543
11
1.90945
21
5.23543
0
LINE
8
BLACK
6
CONTINUOUS
10
1.90945
20
5.23543
11
1.90945
21
5.35354
0
LINE
8
BLACK
6
CONTINUOUS
10
1.90945
20
5.35354
11
1.94882
21
5.35354
0
LINE
8
BLACK
6
CONTINUOUS
10
1.94882
20
5.35354
11
1.94882
21
5.23543
0
LINE
8
BLACK
6
CONTINUOUS
10
1.84882
20
5.23543
11
1.80945
21
5.23543
0
LINE
8
BLACK
6
CONTINUOUS
10
1.80945
20
5.23543
11
1.80945
21
5.35354
0
LINE
8
BLACK
6
CONTINUOUS
10
1.80945
20
5.35354
11
1.84882
21
5.35354
0
LINE
8
BLACK
6
CONTINUOUS
10
1.84882
20
5.35354
11
1.84882
21
5.23543
0
LINE
8
BLACK
6
CONTINUOUS
10
-1.90945
20
5.23543
11
-1.94882
21
5.23543
0
LINE
8
BLACK
6
CONTINUOUS
10
-1.94882
20
5.23543
11
-1.94882
21
5.35354
0
LINE
8
BLACK
6
CONTINUOUS
10
-1.94882
20
5.35354
11
-1.90945
21
5.35354
0
LINE
8
BLACK
6
CONTINUOUS
10
-1.90945
20
5.35354
11
-1.90945
21
5.23543
0
LINE
8
BLACK
6
CONTINUOUS
10
-1.70945
20
5.23543
11
-1.74882
21
5.23543
0
LINE
8
BLACK
6
CONTINUOUS
10
-1.74882
20
5.23543
11
-1.74882
21
5.35354
0
LINE
8
BLACK
6
CONTINUOUS
10
-1.74882
20
5.35354
11
-1.70945
21
5.35354
0
LINE
8
BLACK
6
CONTINUOUS
10
-1.70945
20
5.35354
11
-1.70945
21
5.23543
0
LINE
8
BLACK
6
CONTINUOUS
10
-1.70945
20
5.43386
11
-1.74882
21
5.43386
0
LINE
8
BLACK
6
CONTINUOUS
10
-1.74882
20
5.43386
11
-1.74882
21
5.55197
0
LINE
8
BLACK
6
CONTINUOUS
10
-1.74882
20
5.55197
11
-1.70945
21
5.55197
0
LINE
8
BLACK
6
CONTINUOUS
10
-1.70945
20
5.55197
11
-1.70945
21
5.43386
0
LINE
8
BLACK
6
CONTINUOUS
10
-1.90945
20
5.43386
11
-1.94882
21
5.43386
0
LINE
8
BLACK
6
CONTINUOUS
10
-1.94882
20
5.43386
11
-1.94882
21
5.55197
0
LINE
8
BLACK
6
CONTINUOUS
10
-1.94882
20
5.55197
11
-1.90945
21
5.55197
0
LINE
8
BLACK
6
CONTINUOUS
10
-1.90945
20
5.55197
11
-1.90945
21
5.43386
0
LINE
8
BLACK
6
CONTINUOUS
10
-1.80945
20
5.43386
11
-1.84882
21
5.43386
0
LINE
8
BLACK
6
CONTINUOUS
10
-1.84882
20
5.43386
11
-1.84882
21
5.55197
0
LINE
8
BLACK
6
CONTINUOUS
10
-1.84882
20
5.55197
11
-1.80945
21
5.55197
0
LINE
8
BLACK
6
CONTINUOUS
10
-1.80945
20
5.55197
11
-1.80945
21
5.43386
0
LINE
8
BLACK
6
CONTINUOUS
10
-2.10945
20
5.43386
11
-2.14882
21
5.43386
0
LINE
8
BLACK
6
CONTINUOUS
10
-2.14882
20
5.43386
11
-2.14882
21
5.55197
0
LINE
8
BLACK
6
CONTINUOUS
10
-2.14882
20
5.55197
11
-2.10945
21
5.55197
0
LINE
8
BLACK
6
CONTINUOUS
10
-2.10945
20
5.55197
11
-2.10945
21
5.43386
0
LINE
8
BLACK
6
CONTINUOUS
10
-2.00945
20
5.43386
11
-2.04882
21
5.43386
0
LINE
8
BLACK
6
CONTINUOUS
10
-2.04882
20
5.43386
11
-2.04882
21
5.55197
0
LINE
8
BLACK
6
CONTINUOUS
10
-2.04882
20
5.55197
11
-2.00945
21
5.55197
0
LINE
8
BLACK
6
CONTINUOUS
10
-2.00945
20
5.55197
11
-2.00945
21
5.43386
0
LINE
8
BLACK
6
CONTINUOUS
10
2.14882
20
5.43386
11
2.10945
21
5.43386
0
LINE
8
BLACK
6
CONTINUOUS
10
2.10945
20
5.43386
11
2.10945
21
5.55197
0
LINE
8
BLACK
6
CONTINUOUS
10
2.10945
20
5.55197
11
2.14882
21
5.55197
0
LINE
8
BLACK
6
CONTINUOUS
10
2.14882
20
5.55197
11
2.14882
21
5.43386
0
LINE
8
BLACK
6
CONTINUOUS
10
2.04882
20
5.43386
11
2.00945
21
5.43386
0
LINE
8
BLACK
6
CONTINUOUS
10
2.00945
20
5.43386
11
2.00945
21
5.55197
0
LINE
8
BLACK
6
CONTINUOUS
10
2.00945
20
5.55197
11
2.04882
21
5.55197
0
LINE
8
BLACK
6
CONTINUOUS
10
2.04882
20
5.55197
11
2.04882
21
5.43386
0
LINE
8
BLACK
6
CONTINUOUS
10
1.94882
20
5.43386
11
1.90945
21
5.43386
0
LINE
8
BLACK
6
CONTINUOUS
10
1.90945
20
5.43386
11
1.90945
21
5.55197
0
LINE
8
BLACK
6
CONTINUOUS
10
1.90945
20
5.55197
11
1.94882
21
5.55197
0
LINE
8
BLACK
6
CONTINUOUS
10
1.94882
20
5.55197
11
1.94882
21
5.43386
0
LINE
8
BLACK
6
CONTINUOUS
10
1.84882
20
5.43386
11
1.80945
21
5.43386
0
LINE
8
BLACK
6
CONTINUOUS
10
1.80945
20
5.43386
11
1.80945
21
5.55197
0
LINE
8
BLACK
6
CONTINUOUS
10
1.80945
20
5.55197
11
1.84882
21
5.55197
0
LINE
8
BLACK
6
CONTINUOUS
10
1.84882
20
5.55197
11
1.84882
21
5.43386
0
LINE
8
BLACK
6
CONTINUOUS
10
1.74882
20
5.43386
11
1.70945
21
5.43386
0
LINE
8
BLACK
6
CONTINUOUS
10
1.70945
20
5.43386
11
1.70945
21
5.55197
0
LINE
8
BLACK
6
CONTINUOUS
10
1.70945
20
5.55197
11
1.74882
21
5.55197
0
LINE
8
BLACK
6
CONTINUOUS
10
1.74882
20
5.55197
11
1.74882
21
5.43386
0
LINE
8
BLACK
6
CONTINUOUS
10
1.29714
20
5.5059
11
1.15914
21
5.5059
0
LINE
8
BLACK
6
CONTINUOUS
10
1.15914
20
5.5059
11
1.15914
21
5.5689
0
LINE
8
BLACK
6
CONTINUOUS
10
1.15914
20
5.5689
11
1.29714
21
5.5689
0
LINE
8
BLACK
6
CONTINUOUS
10
1.29714
20
5.5689
11
1.29714
21
5.5059
0
LINE
8
BLACK
6
CONTINUOUS
10
1.52352
20
5.61042
11
1.38552
21
5.61042
0
LINE
8
BLACK
6
CONTINUOUS
10
1.38552
20
5.61042
11
1.38552
21
5.64942
0
LINE
8
BLACK
6
CONTINUOUS
10
1.38552
20
5.64942
11
1.52352
21
5.64942
0
LINE
8
BLACK
6
CONTINUOUS
10
1.52352
20
5.64942
11
1.52352
21
5.61042
0
LINE
8
BLACK
6
CONTINUOUS
10
1.52352
20
5.68916
11
1.38552
21
5.68916
0
LINE
8
BLACK
6
CONTINUOUS
10
1.38552
20
5.68916
11
1.38552
21
5.72816
0
LINE
8
BLACK
6
CONTINUOUS
10
1.38552
20
5.72816
11
1.52352
21
5.72816
0
LINE
8
BLACK
6
CONTINUOUS
10
1.52352
20
5.72816
11
1.52352
21
5.68916
0
LINE
8
BLACK
6
CONTINUOUS
10
1.52352
20
5.7679
11
1.38552
21
5.7679
0
LINE
8
BLACK
6
CONTINUOUS
10
1.38552
20
5.7679
11
1.38552
21
5.8069
0
LINE
8
BLACK
6
CONTINUOUS
10
1.38552
20
5.8069
11
1.52352
21
5.8069
0
LINE
8
BLACK
6
CONTINUOUS
10
1.52352
20
5.8069
11
1.52352
21
5.7679
0
LINE
8
BLACK
6
CONTINUOUS
10
1.52352
20
5.84664
11
1.38552
21
5.84664
0
LINE
8
BLACK
6
CONTINUOUS
10
1.38552
20
5.84664
11
1.38552
21
5.88564
0
LINE
8
BLACK
6
CONTINUOUS
10
1.38552
20
5.88564
11
1.52352
21
5.88564
0
LINE
8
BLACK
6
CONTINUOUS
10
1.52352
20
5.88564
11
1.52352
21
5.84664
0
LINE
8
BLACK
6
CONTINUOUS
10
1.29714
20
5.92716
11
1.15914
21
5.92716
0
LINE
8
BLACK
6
CONTINUOUS
10
1.15914
20
5.92716
11
1.15914
21
5.99016
0
LINE
8
BLACK
6
CONTINUOUS
10
1.15914
20
5.99016
11
1.29714
21
5.99016
0
LINE
8
BLACK
6
CONTINUOUS
10
1.29714
20
5.99016
11
1.29714
21
5.92716
0
LINE
8
BLACK
6
CONTINUOUS
10
1.49685
20
6.31575
11
1.37874
21
6.31575
0
LINE
8
BLACK
6
CONTINUOUS
10
1.37874
20
6.31575
11
1.37874
21
6.35512
0
LINE
8
BLACK
6
CONTINUOUS
10
1.37874
20
6.35512
11
1.49685
21
6.35512
0
LINE
8
BLACK
6
CONTINUOUS
10
1.49685
20
6.35512
11
1.49685
21
6.31575
0
LINE
8
BLACK
6
CONTINUOUS
10
1.29843
20
6.31575
11
1.18031
21
6.31575
0
LINE
8
BLACK
6
CONTINUOUS
10
1.18031
20
6.31575
11
1.18031
21
6.35512
0
LINE
8
BLACK
6
CONTINUOUS
10
1.18031
20
6.35512
11
1.29843
21
6.35512
0
LINE
8
BLACK
6
CONTINUOUS
10
1.29843
20
6.35512
11
1.29843
21
6.31575
0
LINE
8
BLACK
6
CONTINUOUS
10
1.49685
20
6.41575
11
1.37874
21
6.41575
0
LINE
8
BLACK
6
CONTINUOUS
10
1.37874
20
6.41575
11
1.37874
21
6.45512
0
LINE
8
BLACK
6
CONTINUOUS
10
1.37874
20
6.45512
11
1.49685
21
6.45512
0
LINE
8
BLACK
6
CONTINUOUS
10
1.49685
20
6.45512
11
1.49685
21
6.41575
0
LINE
8
BLACK
6
CONTINUOUS
10
1.29843
20
6.41575
11
1.18031
21
6.41575
0
LINE
8
BLACK
6
CONTINUOUS
10
1.18031
20
6.41575
11
1.18031
21
6.45512
0
LINE
8
BLACK
6
CONTINUOUS
10
1.18031
20
6.45512
11
1.29843
21
6.45512
0
LINE
8
BLACK
6
CONTINUOUS
10
1.29843
20
6.45512
11
1.29843
21
6.41575
0
LINE
8
BLACK
6
CONTINUOUS
10
-1.30734
20
6.64294
11
-1.29597
21
6.64068
0
LINE
8
BLACK
6
CONTINUOUS
10
-1.29597
20
6.64068
11
-1.285
21
6.63696
0
LINE
8
BLACK
6
CONTINUOUS
10
-1.285
20
6.63696
11
-1.27461
21
6.63183
0
LINE
8
BLACK
6
CONTINUOUS
10
-1.27461
20
6.63183
11
-1.26497
21
6.6254
0
LINE
8
BLACK
6
CONTINUOUS
10
-1.26497
20
6.6254
11
-1.25626
21
6.61776
0
LINE
8
BLACK
6
CONTINUOUS
10
-1.25626
20
6.61776
11
-1.24862
21
6.60904
0
LINE
8
BLACK
6
CONTINUOUS
10
-1.24862
20
6.60904
11
-1.24218
21
6.59941
0
LINE
8
BLACK
6
CONTINUOUS
10
-1.24218
20
6.59941
11
-1.23706
21
6.58902
0
LINE
8
BLACK
6
CONTINUOUS
10
-1.23706
20
6.58902
11
-1.23333
21
6.57804
0
LINE
8
BLACK
6
CONTINUOUS
10
-1.23333
20
6.57804
11
-1.23107
21
6.56668
0
LINE
8
BLACK
6
CONTINUOUS
10
-1.23107
20
6.56668
11
-1.23031
21
6.55512
0
LINE
8
BLACK
6
CONTINUOUS
10
-1.23031
20
6.55512
11
-1.23107
21
6.54356
0
LINE
8
BLACK
6
CONTINUOUS
10
-1.23107
20
6.54356
11
-1.23333
21
6.53219
0
LINE
8
BLACK
6
CONTINUOUS
10
-1.23333
20
6.53219
11
-1.23706
21
6.52122
0
LINE
8
BLACK
6
CONTINUOUS
10
-1.23706
20
6.52122
11
-1.24218
21
6.51083
0
LINE
8
BLACK
6
CONTINUOUS
10
-1.24218
20
6.51083
11
-1.24862
21
6.50119
0
LINE
8
BLACK
6
CONTINUOUS
10
-1.24862
20
6.50119
11
-1.25626
21
6.49248
0
LINE
8
BLACK
6
CONTINUOUS
10
-1.25626
20
6.49248
11
-1.26497
21
6.48484
0
LINE
8
BLACK
6
CONTINUOUS
10
-1.26497
20
6.48484
11
-1.27461
21
6.4784
0
LINE
8
BLACK
6
CONTINUOUS
10
-1.27461
20
6.4784
11
-1.285
21
6.47328
0
LINE
8
BLACK
6
CONTINUOUS
10
-1.285
20
6.47328
11
-1.29597
21
6.46955
0
LINE
8
BLACK
6
CONTINUOUS
10
-1.29597
20
6.46955
11
-1.30734
21
6.46729
0
LINE
8
BLACK
6
CONTINUOUS
10
-1.30734
20
6.46729
11
-1.3189
21
6.46654
0
LINE
8
BLACK
6
CONTINUOUS
10
-1.3189
20
6.46654
11
-1.33046
21
6.46729
0
LINE
8
BLACK
6
CONTINUOUS
10
-1.33046
20
6.46729
11
-1.34182
21
6.46955
0
LINE
8
BLACK
6
CONTINUOUS
10
-1.34182
20
6.46955
11
-1.3528
21
6.47328
0
LINE
8
BLACK
6
CONTINUOUS
10
-1.3528
20
6.47328
11
-1.36319
21
6.4784
0
LINE
8
BLACK
6
CONTINUOUS
10
-1.36319
20
6.4784
11
-1.37282
21
6.48484
0
LINE
8
BLACK
6
CONTINUOUS
10
-1.37282
20
6.48484
11
-1.38154
21
6.49248
0
LINE
8
BLACK
6
CONTINUOUS
10
-1.38154
20
6.49248
11
-1.38918
21
6.50119
0
LINE
8
BLACK
6
CONTINUOUS
10
-1.38918
20
6.50119
11
-1.39561
21
6.51083
0
LINE
8
BLACK
6
CONTINUOUS
10
-1.39561
20
6.51083
11
-1.40074
21
6.52122
0
LINE
8
BLACK
6
CONTINUOUS
10
-1.40074
20
6.52122
11
-1.40446
21
6.53219
0
LINE
8
BLACK
6
CONTINUOUS
10
-1.40446
20
6.53219
11
-1.40672
21
6.54356
0
LINE
8
BLACK
6
CONTINUOUS
10
-1.40672
20
6.54356
11
-1.40748
21
6.55512
0
LINE
8
BLACK
6
CONTINUOUS
10
-1.40748
20
6.55512
11
-1.40672
21
6.56668
0
LINE
8
BLACK
6
CONTINUOUS
10
-1.40672
20
6.56668
11
-1.40446
21
6.57804
0
LINE
8
BLACK
6
CONTINUOUS
10
-1.40446
20
6.57804
11
-1.40074
21
6.58902
0
LINE
8
BLACK
6
CONTINUOUS
10
-1.40074
20
6.58902
11
-1.39561
21
6.59941
0
LINE
8
BLACK
6
CONTINUOUS
10
-1.39561
20
6.59941
11
-1.38918
21
6.60904
0
LINE
8
BLACK
6
CONTINUOUS
10
-1.38918
20
6.60904
11
-1.38154
21
6.61776
0
LINE
8
BLACK
6
CONTINUOUS
10
-1.38154
20
6.61776
11
-1.37282
21
6.6254
0
LINE
8
BLACK
6
CONTINUOUS
10
-1.37282
20
6.6254
11
-1.36319
21
6.63183
0
LINE
8
BLACK
6
CONTINUOUS
10
-1.36319
20
6.63183
11
-1.3528
21
6.63696
0
LINE
8
BLACK
6
CONTINUOUS
10
-1.3528
20
6.63696
11
-1.34182
21
6.64068
0
LINE
8
BLACK
6
CONTINUOUS
10
-1.34182
20
6.64068
11
-1.33046
21
6.64294
0
LINE
8
BLACK
6
CONTINUOUS
10
-1.33046
20
6.64294
11
-1.3189
21
6.6437
0
LINE
8
BLACK
6
CONTINUOUS
10
-1.3189
20
6.6437
11
-1.30734
21
6.64294
0
LINE
8
BLACK
6
CONTINUOUS
10
0.444633
20
6.64294
11
0.455998
21
6.64068
0
LINE
8
BLACK
6
CONTINUOUS
10
0.455998
20
6.64068
11
0.46697
21
6.63696
0
LINE
8
BLACK
6
CONTINUOUS
10
0.46697
20
6.63696
11
0.477362
21
6.63183
0
LINE
8
BLACK
6
CONTINUOUS
10
0.477362
20
6.63183
11
0.486997
21
6.6254
0
LINE
8
BLACK
6
CONTINUOUS
10
0.486997
20
6.6254
11
0.495708
21
6.61776
0
LINE
8
BLACK
6
CONTINUOUS
10
0.495708
20
6.61776
11
0.503348
21
6.60904
0
LINE
8
BLACK
6
CONTINUOUS
10
0.503348
20
6.60904
11
0.509786
21
6.59941
0
LINE
8
BLACK
6
CONTINUOUS
10
0.509786
20
6.59941
11
0.514911
21
6.58902
0
LINE
8
BLACK
6
CONTINUOUS
10
0.514911
20
6.58902
11
0.518635
21
6.57804
0
LINE
8
BLACK
6
CONTINUOUS
10
0.518635
20
6.57804
11
0.520896
21
6.56668
0
LINE
8
BLACK
6
CONTINUOUS
10
0.520896
20
6.56668
11
0.521654
21
6.55512
0
LINE
8
BLACK
6
CONTINUOUS
10
0.521654
20
6.55512
11
0.520896
21
6.54356
0
LINE
8
BLACK
6
CONTINUOUS
10
0.520896
20
6.54356
11
0.518635
21
6.53219
0
LINE
8
BLACK
6
CONTINUOUS
10
0.518635
20
6.53219
11
0.514911
21
6.52122
0
LINE
8
BLACK
6
CONTINUOUS
10
0.514911
20
6.52122
11
0.509786
21
6.51083
0
LINE
8
BLACK
6
CONTINUOUS
10
0.509786
20
6.51083
11
0.503348
21
6.50119
0
LINE
8
BLACK
6
CONTINUOUS
10
0.503348
20
6.50119
11
0.495708
21
6.49248
0
LINE
8
BLACK
6
CONTINUOUS
10
0.495708
20
6.49248
11
0.486997
21
6.48484
0
LINE
8
BLACK
6
CONTINUOUS
10
0.486997
20
6.48484
11
0.477362
21
6.4784
0
LINE
8
BLACK
6
CONTINUOUS
10
0.477362
20
6.4784
11
0.46697
21
6.47328
0
LINE
8
BLACK
6
CONTINUOUS
10
0.46697
20
6.47328
11
0.455998
21
6.46955
0
LINE
8
BLACK
6
CONTINUOUS
10
0.455998
20
6.46955
11
0.444633
21
6.46729
0
LINE
8
BLACK
6
CONTINUOUS
10
0.444633
20
6.46729
11
0.433071
21
6.46654
0
LINE
8
BLACK
6
CONTINUOUS
10
0.433071
20
6.46654
11
0.421509
21
6.46729
0
LINE
8
BLACK
6
CONTINUOUS
10
0.421509
20
6.46729
11
0.410144
21
6.46955
0
LINE
8
BLACK
6
CONTINUOUS
10
0.410144
20
6.46955
11
0.399172
21
6.47328
0
LINE
8
BLACK
6
CONTINUOUS
10
0.399172
20
6.47328
11
0.38878
21
6.4784
0
LINE
8
BLACK
6
CONTINUOUS
10
0.38878
20
6.4784
11
0.379145
21
6.48484
0
LINE
8
BLACK
6
CONTINUOUS
10
0.379145
20
6.48484
11
0.370433
21
6.49248
0
LINE
8
BLACK
6
CONTINUOUS
10
0.370433
20
6.49248
11
0.362794
21
6.50119
0
LINE
8
BLACK
6
CONTINUOUS
10
0.362794
20
6.50119
11
0.356356
21
6.51083
0
LINE
8
BLACK
6
CONTINUOUS
10
0.356356
20
6.51083
11
0.351231
21
6.52122
0
LINE
8
BLACK
6
CONTINUOUS
10
0.351231
20
6.52122
11
0.347507
21
6.53219
0
LINE
8
BLACK
6
CONTINUOUS
10
0.347507
20
6.53219
11
0.345246
21
6.54356
0
LINE
8
BLACK
6
CONTINUOUS
10
0.345246
20
6.54356
11
0.344488
21
6.55512
0
LINE
8
BLACK
6
CONTINUOUS
10
0.344488
20
6.55512
11
0.345246
21
6.56668
0
LINE
8
BLACK
6
CONTINUOUS
10
0.345246
20
6.56668
11
0.347507
21
6.57804
0
LINE
8
BLACK
6
CONTINUOUS
10
0.347507
20
6.57804
11
0.351231
21
6.58902
0
LINE
8
BLACK
6
CONTINUOUS
10
0.351231
20
6.58902
11
0.356356
21
6.59941
0
LINE
8
BLACK
6
CONTINUOUS
10
0.356356
20
6.59941
11
0.362794
21
6.60904
0
LINE
8
BLACK
6
CONTINUOUS
10
0.362794
20
6.60904
11
0.370433
21
6.61776
0
LINE
8
BLACK
6
CONTINUOUS
10
0.370433
20
6.61776
11
0.379145
21
6.6254
0
LINE
8
BLACK
6
CONTINUOUS
10
0.379145
20
6.6254
11
0.38878
21
6.63183
0
LINE
8
BLACK
6
CONTINUOUS
10
0.38878
20
6.63183
11
0.399172
21
6.63696
0
LINE
8
BLACK
6
CONTINUOUS
10
0.399172
20
6.63696
11
0.410144
21
6.64068
0
LINE
8
BLACK
6
CONTINUOUS
10
0.410144
20
6.64068
11
0.421509
21
6.64294
0
LINE
8
BLACK
6
CONTINUOUS
10
0.421509
20
6.64294
11
0.433071
21
6.6437
0
LINE
8
BLACK
6
CONTINUOUS
10
0.433071
20
6.6437
11
0.444633
21
6.64294
0
LINE
8
BLACK
6
CONTINUOUS
10
1.49685
20
6.51575
11
1.37874
21
6.51575
0
LINE
8
BLACK
6
CONTINUOUS
10
1.37874
20
6.51575
11
1.37874
21
6.55512
0
LINE
8
BLACK
6
CONTINUOUS
10
1.37874
20
6.55512
11
1.49685
21
6.55512
0
LINE
8
BLACK
6
CONTINUOUS
10
1.49685
20
6.55512
11
1.49685
21
6.51575
0
LINE
8
BLACK
6
CONTINUOUS
10
1.29843
20
6.51575
11
1.18031
21
6.51575
0
LINE
8
BLACK
6
CONTINUOUS
10
1.18031
20
6.51575
11
1.18031
21
6.55512
0
LINE
8
BLACK
6
CONTINUOUS
10
1.18031
20
6.55512
11
1.29843
21
6.55512
0
LINE
8
BLACK
6
CONTINUOUS
10
1.29843
20
6.55512
11
1.29843
21
6.51575
0
LINE
8
BLACK
6
CONTINUOUS
10
1.49685
20
6.61575
11
1.37874
21
6.61575
0
LINE
8
BLACK
6
CONTINUOUS
10
1.37874
20
6.61575
11
1.37874
21
6.65512
0
LINE
8
BLACK
6
CONTINUOUS
10
1.37874
20
6.65512
11
1.49685
21
6.65512
0
LINE
8
BLACK
6
CONTINUOUS
10
1.49685
20
6.65512
11
1.49685
21
6.61575
0
LINE
8
BLACK
6
CONTINUOUS
10
1.29843
20
6.61575
11
1.18031
21
6.61575
0
LINE
8
BLACK
6
CONTINUOUS
10
1.18031
20
6.61575
11
1.18031
21
6.65512
0
LINE
8
BLACK
6
CONTINUOUS
10
1.18031
20
6.65512
11
1.29843
21
6.65512
0
LINE
8
BLACK
6
CONTINUOUS
10
1.29843
20
6.65512
11
1.29843
21
6.61575
0
LINE
8
BLACK
6
CONTINUOUS
10
1.49685
20
6.71575
11
1.37874
21
6.71575
0
LINE
8
BLACK
6
CONTINUOUS
10
1.37874
20
6.71575
11
1.37874
21
6.75512
0
LINE
8
BLACK
6
CONTINUOUS
10
1.37874
20
6.75512
11
1.49685
21
6.75512
0
LINE
8
BLACK
6
CONTINUOUS
10
1.49685
20
6.75512
11
1.49685
21
6.71575
0
LINE
8
BLACK
6
CONTINUOUS
10
1.29843
20
6.71575
11
1.18031
21
6.71575
0
LINE
8
BLACK
6
CONTINUOUS
10
1.18031
20
6.71575
11
1.18031
21
6.75512
0
LINE
8
BLACK
6
CONTINUOUS
10
1.18031
20
6.75512
11
1.29843
21
6.75512
0
LINE
8
BLACK
6
CONTINUOUS
10
1.29843
20
6.75512
11
1.29843
21
6.71575
0
LINE
8
BLACK
6
CONTINUOUS
10
-0.953005
20
7.0957
11
-0.94164
21
7.09344
0
LINE
8
BLACK
6
CONTINUOUS
10
-0.94164
20
7.09344
11
-0.930668
21
7.08971
0
LINE
8
BLACK
6
CONTINUOUS
10
-0.930668
20
7.08971
11
-0.920276
21
7.08459
0
LINE
8
BLACK
6
CONTINUOUS
10
-0.920276
20
7.08459
11
-0.910641
21
7.07815
0
LINE
8
BLACK
6
CONTINUOUS
10
-0.910641
20
7.07815
11
-0.90193
21
7.07051
0
LINE
8
BLACK
6
CONTINUOUS
10
-0.90193
20
7.07051
11
-0.89429
21
7.0618
0
LINE
8
BLACK
6
CONTINUOUS
10
-0.89429
20
7.0618
11
-0.887852
21
7.05217
0
LINE
8
BLACK
6
CONTINUOUS
10
-0.887852
20
7.05217
11
-0.882727
21
7.04177
0
LINE
8
BLACK
6
CONTINUOUS
10
-0.882727
20
7.04177
11
-0.879003
21
7.0308
0
LINE
8
BLACK
6
CONTINUOUS
10
-0.879003
20
7.0308
11
-0.876742
21
7.01944
0
LINE
8
BLACK
6
CONTINUOUS
10
-0.876742
20
7.01944
11
-0.875984
21
7.00787
0
LINE
8
BLACK
6
CONTINUOUS
10
-0.875984
20
7.00787
11
-0.876742
21
6.99631
0
LINE
8
BLACK
6
CONTINUOUS
10
-0.876742
20
6.99631
11
-0.879003
21
6.98495
0
LINE
8
BLACK
6
CONTINUOUS
10
-0.879003
20
6.98495
11
-0.882727
21
6.97397
0
LINE
8
BLACK
6
CONTINUOUS
10
-0.882727
20
6.97397
11
-0.887852
21
6.96358
0
LINE
8
BLACK
6
CONTINUOUS
10
-0.887852
20
6.96358
11
-0.89429
21
6.95395
0
LINE
8
BLACK
6
CONTINUOUS
10
-0.89429
20
6.95395
11
-0.90193
21
6.94524
0
LINE
8
BLACK
6
CONTINUOUS
10
-0.90193
20
6.94524
11
-0.910641
21
6.9376
0
LINE
8
BLACK
6
CONTINUOUS
10
-0.910641
20
6.9376
11
-0.920276
21
6.93116
0
LINE
8
BLACK
6
CONTINUOUS
10
-0.920276
20
6.93116
11
-0.930668
21
6.92603
0
LINE
8
BLACK
6
CONTINUOUS
10
-0.930668
20
6.92603
11
-0.94164
21
6.92231
0
LINE
8
BLACK
6
CONTINUOUS
10
-0.94164
20
6.92231
11
-0.953005
21
6.92005
0
LINE
8
BLACK
6
CONTINUOUS
10
-0.953005
20
6.92005
11
-0.964567
21
6.91929
0
LINE
8
BLACK
6
CONTINUOUS
10
-0.964567
20
6.91929
11
-0.976129
21
6.92005
0
LINE
8
BLACK
6
CONTINUOUS
10
-0.976129
20
6.92005
11
-0.987494
21
6.92231
0
LINE
8
BLACK
6
CONTINUOUS
10
-0.987494
20
6.92231
11
-0.998466
21
6.92603
0
LINE
8
BLACK
6
CONTINUOUS
10
-0.998466
20
6.92603
11
-1.00886
21
6.93116
0
LINE
8
BLACK
6
CONTINUOUS
10
-1.00886
20
6.93116
11
-1.01849
21
6.9376
0
LINE
8
BLACK
6
CONTINUOUS
10
-1.01849
20
6.9376
11
-1.0272
21
6.94524
0
LINE
8
BLACK
6
CONTINUOUS
10
-1.0272
20
6.94524
11
-1.03484
21
6.95395
0
LINE
8
BLACK
6
CONTINUOUS
10
-1.03484
20
6.95395
11
-1.04128
21
6.96358
0
LINE
8
BLACK
6
CONTINUOUS
10
-1.04128
20
6.96358
11
-1.04641
21
6.97397
0
LINE
8
BLACK
6
CONTINUOUS
10
-1.04641
20
6.97397
11
-1.05013
21
6.98495
0
LINE
8
BLACK
6
CONTINUOUS
10
-1.05013
20
6.98495
11
-1.05239
21
6.99631
0
LINE
8
BLACK
6
CONTINUOUS
10
-1.05239
20
6.99631
11
-1.05315
21
7.00787
0
LINE
8
BLACK
6
CONTINUOUS
10
-1.05315
20
7.00787
11
-1.05239
21
7.01944
0
LINE
8
BLACK
6
CONTINUOUS
10
-1.05239
20
7.01944
11
-1.05013
21
7.0308
0
LINE
8
BLACK
6
CONTINUOUS
10
-1.05013
20
7.0308
11
-1.04641
21
7.04177
0
LINE
8
BLACK
6
CONTINUOUS
10
-1.04641
20
7.04177
11
-1.04128
21
7.05217
0
LINE
8
BLACK
6
CONTINUOUS
10
-1.04128
20
7.05217
11
-1.03484
21
7.0618
0
LINE
8
BLACK
6
CONTINUOUS
10
-1.03484
20
7.0618
11
-1.0272
21
7.07051
0
LINE
8
BLACK
6
CONTINUOUS
10
-1.0272
20
7.07051
11
-1.01849
21
7.07815
0
LINE
8
BLACK
6
CONTINUOUS
10
-1.01849
20
7.07815
11
-1.00886
21
7.08459
0
LINE
8
BLACK
6
CONTINUOUS
10
-1.00886
20
7.08459
11
-0.998466
21
7.08971
0
LINE
8
BLACK
6
CONTINUOUS
10
-0.998466
20
7.08971
11
-0.987494
21
7.09344
0
LINE
8
BLACK
6
CONTINUOUS
10
-0.987494
20
7.09344
11
-0.976129
21
7.0957
0
LINE
8
BLACK
6
CONTINUOUS
10
-0.976129
20
7.0957
11
-0.964567
21
7.09646
0
LINE
8
BLACK
6
CONTINUOUS
10
-0.964567
20
7.09646
11
-0.953005
21
7.0957
0
LINE
8
BLACK
6
CONTINUOUS
10
0.976129
20
7.0957
11
0.987494
21
7.09344
0
LINE
8
BLACK
6
CONTINUOUS
10
0.987494
20
7.09344
11
0.998466
21
7.08971
0
LINE
8
BLACK
6
CONTINUOUS
10
0.998466
20
7.08971
11
1.00886
21
7.08459
0
LINE
8
BLACK
6
CONTINUOUS
10
1.00886
20
7.08459
11
1.01849
21
7.07815
0
LINE
8
BLACK
6
CONTINUOUS
10
1.01849
20
7.07815
11
1.0272
21
7.07051
0
LINE
8
BLACK
6
CONTINUOUS
10
1.0272
20
7.07051
11
1.03484
21
7.0618
0
LINE
8
BLACK
6
CONTINUOUS
10
1.03484
20
7.0618
11
1.04128
21
7.05217
0
LINE
8
BLACK
6
CONTINUOUS
10
1.04128
20
7.05217
11
1.04641
21
7.04177
0
LINE
8
BLACK
6
CONTINUOUS
10
1.04641
20
7.04177
11
1.05013
21
7.0308
0
LINE
8
BLACK
6
CONTINUOUS
10
1.05013
20
7.0308
11
1.05239
21
7.01944
0
LINE
8
BLACK
6
CONTINUOUS
10
1.05239
20
7.01944
11
1.05315
21
7.00787
0
LINE
8
BLACK
6
CONTINUOUS
10
1.05315
20
7.00787
11
1.05239
21
6.99631
0
LINE
8
BLACK
6
CONTINUOUS
10
1.05239
20
6.99631
11
1.05013
21
6.98495
0
LINE
8
BLACK
6
CONTINUOUS
10
1.05013
20
6.98495
11
1.04641
21
6.97397
0
LINE
8
BLACK
6
CONTINUOUS
10
1.04641
20
6.97397
11
1.04128
21
6.96358
0
LINE
8
BLACK
6
CONTINUOUS
10
1.04128
20
6.96358
11
1.03484
21
6.95395
0
LINE
8
BLACK
6
CONTINUOUS
10
1.03484
20
6.95395
11
1.0272
21
6.94524
0
LINE
8
BLACK
6
CONTINUOUS
10
1.0272
20
6.94524
11
1.01849
21
6.9376
0
LINE
8
BLACK
6
CONTINUOUS
10
1.01849
20
6.9376
11
1.00886
21
6.93116
0
LINE
8
BLACK
6
CONTINUOUS
10
1.00886
20
6.93116
11
0.998466
21
6.92603
0
LINE
8
BLACK
6
CONTINUOUS
10
0.998466
20
6.92603
11
0.987494
21
6.92231
0
LINE
8
BLACK
6
CONTINUOUS
10
0.987494
20
6.92231
11
0.976129
21
6.92005
0
LINE
8
BLACK
6
CONTINUOUS
10
0.976129
20
6.92005
11
0.964567
21
6.91929
0
LINE
8
BLACK
6
CONTINUOUS
10
0.964567
20
6.91929
11
0.953005
21
6.92005
0
LINE
8
BLACK
6
CONTINUOUS
10
0.953005
20
6.92005
11
0.94164
21
6.92231
0
LINE
8
BLACK
6
CONTINUOUS
10
0.94164
20
6.92231
11
0.930668
21
6.92603
0
LINE
8
BLACK
6
CONTINUOUS
10
0.930668
20
6.92603
11
0.920276
21
6.93116
0
LINE
8
BLACK
6
CONTINUOUS
10
0.920276
20
6.93116
11
0.910641
21
6.9376
0
LINE
8
BLACK
6
CONTINUOUS
10
0.910641
20
6.9376
11
0.90193
21
6.94524
0
LINE
8
BLACK
6
CONTINUOUS
10
0.90193
20
6.94524
11
0.89429
21
6.95395
0
LINE
8
BLACK
6
CONTINUOUS
10
0.89429
20
6.95395
11
0.887852
21
6.96358
0
LINE
8
BLACK
6
CONTINUOUS
10
0.887852
20
6.96358
11
0.882727
21
6.97397
0
LINE
8
BLACK
6
CONTINUOUS
10
0.882727
20
6.97397
11
0.879003
21
6.98495
0
LINE
8
BLACK
6
CONTINUOUS
10
0.879003
20
6.98495
11
0.876742
21
6.99631
0
LINE
8
BLACK
6
CONTINUOUS
10
0.876742
20
6.99631
11
0.875984
21
7.00787
0
LINE
8
BLACK
6
CONTINUOUS
10
0.875984
20
7.00787
11
0.876742
21
7.01944
0
LINE
8
BLACK
6
CONTINUOUS
10
0.876742
20
7.01944
11
0.879003
21
7.0308
0
LINE
8
BLACK
6
CONTINUOUS
10
0.879003
20
7.0308
11
0.882727
21
7.04177
0
LINE
8
BLACK
6
CONTINUOUS
10
0.882727
20
7.04177
11
0.887852
21
7.05217
0
LINE
8
BLACK
6
CONTINUOUS
10
0.887852
20
7.05217
11
0.89429
21
7.0618
0
LINE
8
BLACK
6
CONTINUOUS
10
0.89429
20
7.0618
11
0.90193
21
7.07051
0
LINE
8
BLACK
6
CONTINUOUS
10
0.90193
20
7.07051
11
0.910641
21
7.07815
0
LINE
8
BLACK
6
CONTINUOUS
10
0.910641
20
7.07815
11
0.920276
21
7.08459
0
LINE
8
BLACK
6
CONTINUOUS
10
0.920276
20
7.08459
11
0.930668
21
7.08971
0
LINE
8
BLACK
6
CONTINUOUS
10
0.930668
20
7.08971
11
0.94164
21
7.09344
0
LINE
8
BLACK
6
CONTINUOUS
10
0.94164
20
7.09344
11
0.953005
21
7.0957
0
LINE
8
BLACK
6
CONTINUOUS
10
0.953005
20
7.0957
11
0.964567
21
7.09646
0
LINE
8
BLACK
6
CONTINUOUS
10
0.964567
20
7.09646
11
0.976129
21
7.0957
0
LINE
8
BLACK
6
CONTINUOUS
10
-1.45512
20
7.1252
11
-1.49449
21
7.1252
0
LINE
8
BLACK
6
CONTINUOUS
10
-1.49449
20
7.1252
11
-1.49449
21
7.24331
0
LINE
8
BLACK
6
CONTINUOUS
10
-1.49449
20
7.24331
11
-1.45512
21
7.24331
0
LINE
8
BLACK
6
CONTINUOUS
10
-1.45512
20
7.24331
11
-1.45512
21
7.1252
0
LINE
8
BLACK
6
CONTINUOUS
10
-1.75512
20
7.1252
11
-1.79449
21
7.1252
0
LINE
8
BLACK
6
CONTINUOUS
10
-1.79449
20
7.1252
11
-1.79449
21
7.24331
0
LINE
8
BLACK
6
CONTINUOUS
10
-1.79449
20
7.24331
11
-1.75512
21
7.24331
0
LINE
8
BLACK
6
CONTINUOUS
10
-1.75512
20
7.24331
11
-1.75512
21
7.1252
0
LINE
8
BLACK
6
CONTINUOUS
10
1.39449
20
7.1252
11
1.35512
21
7.1252
0
LINE
8
BLACK
6
CONTINUOUS
10
1.35512
20
7.1252
11
1.35512
21
7.24331
0
LINE
8
BLACK
6
CONTINUOUS
10
1.35512
20
7.24331
11
1.39449
21
7.24331
0
LINE
8
BLACK
6
CONTINUOUS
10
1.39449
20
7.24331
11
1.39449
21
7.1252
0
LINE
8
BLACK
6
CONTINUOUS
10
-1.65512
20
7.1252
11
-1.69449
21
7.1252
0
LINE
8
BLACK
6
CONTINUOUS
10
-1.69449
20
7.1252
11
-1.69449
21
7.24331
0
LINE
8
BLACK
6
CONTINUOUS
10
-1.69449
20
7.24331
11
-1.65512
21
7.24331
0
LINE
8
BLACK
6
CONTINUOUS
10
-1.65512
20
7.24331
11
-1.65512
21
7.1252
0
LINE
8
BLACK
6
CONTINUOUS
10
-1.55512
20
7.1252
11
-1.59449
21
7.1252
0
LINE
8
BLACK
6
CONTINUOUS
10
-1.59449
20
7.1252
11
-1.59449
21
7.24331
0
LINE
8
BLACK
6
CONTINUOUS
10
-1.59449
20
7.24331
11
-1.55512
21
7.24331
0
LINE
8
BLACK
6
CONTINUOUS
10
-1.55512
20
7.24331
11
-1.55512
21
7.1252
0
LINE
8
BLACK
6
CONTINUOUS
10
1.79449
20
7.1252
11
1.75512
21
7.1252
0
LINE
8
BLACK
6
CONTINUOUS
10
1.75512
20
7.1252
11
1.75512
21
7.24331
0
LINE
8
BLACK
6
CONTINUOUS
10
1.75512
20
7.24331
11
1.79449
21
7.24331
0
LINE
8
BLACK
6
CONTINUOUS
10
1.79449
20
7.24331
11
1.79449
21
7.1252
0
LINE
8
BLACK
6
CONTINUOUS
10
1.49449
20
7.1252
11
1.45512
21
7.1252
0
LINE
8
BLACK
6
CONTINUOUS
10
1.45512
20
7.1252
11
1.45512
21
7.24331
0
LINE
8
BLACK
6
CONTINUOUS
10
1.45512
20
7.24331
11
1.49449
21
7.24331
0
LINE
8
BLACK
6
CONTINUOUS
10
1.49449
20
7.24331
11
1.49449
21
7.1252
0
LINE
8
BLACK
6
CONTINUOUS
10
1.69449
20
7.1252
11
1.65512
21
7.1252
0
LINE
8
BLACK
6
CONTINUOUS
10
1.65512
20
7.1252
11
1.65512
21
7.24331
0
LINE
8
BLACK
6
CONTINUOUS
10
1.65512
20
7.24331
11
1.69449
21
7.24331
0
LINE
8
BLACK
6
CONTINUOUS
10
1.69449
20
7.24331
11
1.69449
21
7.1252
0
LINE
8
BLACK
6
CONTINUOUS
10
1.59449
20
7.1252
11
1.55512
21
7.1252
0
LINE
8
BLACK
6
CONTINUOUS
10
1.55512
20
7.1252
11
1.55512
21
7.24331
0
LINE
8
BLACK
6
CONTINUOUS
10
1.55512
20
7.24331
11
1.59449
21
7.24331
0
LINE
8
BLACK
6
CONTINUOUS
10
1.59449
20
7.24331
11
1.59449
21
7.1252
0
LINE
8
BLACK
6
CONTINUOUS
10
-1.35512
20
7.1252
11
-1.39449
21
7.1252
0
LINE
8
BLACK
6
CONTINUOUS
10
-1.39449
20
7.1252
11
-1.39449
21
7.24331
0
LINE
8
BLACK
6
CONTINUOUS
10
-1.39449
20
7.24331
11
-1.35512
21
7.24331
0
LINE
8
BLACK
6
CONTINUOUS
10
-1.35512
20
7.24331
11
-1.35512
21
7.1252
0
LINE
8
BLACK
6
CONTINUOUS
10
0.311123
20
7.3521
11
0.321202
21
7.35046
0
LINE
8
BLACK
6
CONTINUOUS
10
0.321202
20
7.35046
11
0.330928
21
7.34735
0
LINE
8
BLACK
6
CONTINUOUS
10
0.330928
20
7.34735
11
0.340086
21
7.34283
0
LINE
8
BLACK
6
CONTINUOUS
10
0.340086
20
7.34283
11
0.348477
21
7.33701
0
LINE
8
BLACK
6
CONTINUOUS
10
0.348477
20
7.33701
11
0.355915
21
7.33001
0
LINE
8
BLACK
6
CONTINUOUS
10
0.355915
20
7.33001
11
0.362237
21
7.32199
0
LINE
8
BLACK
6
CONTINUOUS
10
0.362237
20
7.32199
11
0.367304
21
7.31313
0
LINE
8
BLACK
6
CONTINUOUS
10
0.367304
20
7.31313
11
0.371005
21
7.30361
0
LINE
8
BLACK
6
CONTINUOUS
10
0.371005
20
7.30361
11
0.373259
21
7.29365
0
LINE
8
BLACK
6
CONTINUOUS
10
0.373259
20
7.29365
11
0.374016
21
7.28346
0
LINE
8
BLACK
6
CONTINUOUS
10
0.374016
20
7.28346
11
0.373921
21
7.27986
0
LINE
8
BLACK
6
CONTINUOUS
10
0.373921
20
7.27986
11
0.372633
21
7.26973
0
LINE
8
BLACK
6
CONTINUOUS
10
0.372633
20
7.26973
11
0.369861
21
7.2599
0
LINE
8
BLACK
6
CONTINUOUS
10
0.369861
20
7.2599
11
0.365667
21
7.25059
0
LINE
8
BLACK
6
CONTINUOUS
10
0.365667
20
7.25059
11
0.360142
21
7.242
0
LINE
8
BLACK
6
CONTINUOUS
10
0.360142
20
7.242
11
0.353409
21
7.23432
0
LINE
8
BLACK
6
CONTINUOUS
10
0.353409
20
7.23432
11
0.345615
21
7.22773
0
LINE
8
BLACK
6
CONTINUOUS
10
0.345615
20
7.22773
11
0.336931
21
7.22235
0
LINE
8
BLACK
6
CONTINUOUS
10
0.336931
20
7.22235
11
0.327549
21
7.21832
0
LINE
8
BLACK
6
CONTINUOUS
10
0.327549
20
7.21832
11
0.317674
21
7.21572
0
LINE
8
BLACK
6
CONTINUOUS
10
0.317674
20
7.21572
11
0.307523
21
7.21461
0
LINE
8
BLACK
6
CONTINUOUS
10
0.307523
20
7.21461
11
0.297319
21
7.21501
0
LINE
8
BLACK
6
CONTINUOUS
10
0.297319
20
7.21501
11
0.287286
21
7.21691
0
LINE
8
BLACK
6
CONTINUOUS
10
0.287286
20
7.21691
11
0.277645
21
7.22028
0
LINE
8
BLACK
6
CONTINUOUS
10
0.277645
20
7.22028
11
0.268608
21
7.22504
0
LINE
8
BLACK
6
CONTINUOUS
10
0.268608
20
7.22504
11
0.260373
21
7.23107
0
LINE
8
BLACK
6
CONTINUOUS
10
0.260373
20
7.23107
11
0.25312
21
7.23826
0
LINE
8
BLACK
6
CONTINUOUS
10
0.25312
20
7.23826
11
0.24701
21
7.24645
0
LINE
8
BLACK
6
CONTINUOUS
10
0.24701
20
7.24645
11
0.242177
21
7.25544
0
LINE
8
BLACK
6
CONTINUOUS
10
0.242177
20
7.25544
11
0.238726
21
7.26505
0
LINE
8
BLACK
6
CONTINUOUS
10
0.238726
20
7.26505
11
0.236734
21
7.27507
0
LINE
8
BLACK
6
CONTINUOUS
10
0.236734
20
7.27507
11
0.236244
21
7.28527
0
LINE
8
BLACK
6
CONTINUOUS
10
0.236244
20
7.28527
11
0.237267
21
7.29543
0
LINE
8
BLACK
6
CONTINUOUS
10
0.237267
20
7.29543
11
0.239781
21
7.30533
0
LINE
8
BLACK
6
CONTINUOUS
10
0.239781
20
7.30533
11
0.24373
21
7.31474
0
LINE
8
BLACK
6
CONTINUOUS
10
0.24373
20
7.31474
11
0.249027
21
7.32347
0
LINE
8
BLACK
6
CONTINUOUS
10
0.249027
20
7.32347
11
0.255557
21
7.33132
0
LINE
8
BLACK
6
CONTINUOUS
10
0.255557
20
7.33132
11
0.263176
21
7.33812
0
LINE
8
BLACK
6
CONTINUOUS
10
0.263176
20
7.33812
11
0.271716
21
7.34372
0
LINE
8
BLACK
6
CONTINUOUS
10
0.271716
20
7.34372
11
0.28099
21
7.348
0
LINE
8
BLACK
6
CONTINUOUS
10
0.28099
20
7.348
11
0.290794
21
7.35086
0
LINE
8
BLACK
6
CONTINUOUS
10
0.290794
20
7.35086
11
0.300912
21
7.35223
0
LINE
8
BLACK
6
CONTINUOUS
10
0.300912
20
7.35223
11
0.311123
21
7.3521
0
LINE
8
BLACK
6
CONTINUOUS
10
-0.299113
20
7.3521
11
-0.289034
21
7.35046
0
LINE
8
BLACK
6
CONTINUOUS
10
-0.289034
20
7.35046
11
-0.279309
21
7.34735
0
LINE
8
BLACK
6
CONTINUOUS
10
-0.279309
20
7.34735
11
-0.27015
21
7.34283
0
LINE
8
BLACK
6
CONTINUOUS
10
-0.27015
20
7.34283
11
-0.261759
21
7.33701
0
LINE
8
BLACK
6
CONTINUOUS
10
-0.261759
20
7.33701
11
-0.254321
21
7.33001
0
LINE
8
BLACK
6
CONTINUOUS
10
-0.254321
20
7.33001
11
-0.247999
21
7.32199
0
LINE
8
BLACK
6
CONTINUOUS
10
-0.247999
20
7.32199
11
-0.242932
21
7.31313
0
LINE
8
BLACK
6
CONTINUOUS
10
-0.242932
20
7.31313
11
-0.239231
21
7.30361
0
LINE
8
BLACK
6
CONTINUOUS
10
-0.239231
20
7.30361
11
-0.236977
21
7.29365
0
LINE
8
BLACK
6
CONTINUOUS
10
-0.236977
20
7.29365
11
-0.23622
21
7.28346
0
LINE
8
BLACK
6
CONTINUOUS
10
-0.23622
20
7.28346
11
-0.236315
21
7.27986
0
LINE
8
BLACK
6
CONTINUOUS
10
-0.236315
20
7.27986
11
-0.237604
21
7.26973
0
LINE
8
BLACK
6
CONTINUOUS
10
-0.237604
20
7.26973
11
-0.240376
21
7.2599
0
LINE
8
BLACK
6
CONTINUOUS
10
-0.240376
20
7.2599
11
-0.24457
21
7.25059
0
LINE
8
BLACK
6
CONTINUOUS
10
-0.24457
20
7.25059
11
-0.250094
21
7.242
0
LINE
8
BLACK
6
CONTINUOUS
10
-0.250094
20
7.242
11
-0.256827
21
7.23432
0
LINE
8
BLACK
6
CONTINUOUS
10
-0.256827
20
7.23432
11
-0.264621
21
7.22773
0
LINE
8
BLACK
6
CONTINUOUS
10
-0.264621
20
7.22773
11
-0.273305
21
7.22235
0
LINE
8
BLACK
6
CONTINUOUS
10
-0.273305
20
7.22235
11
-0.282687
21
7.21832
0
LINE
8
BLACK
6
CONTINUOUS
10
-0.282687
20
7.21832
11
-0.292563
21
7.21572
0
LINE
8
BLACK
6
CONTINUOUS
10
-0.292563
20
7.21572
11
-0.302714
21
7.21461
0
LINE
8
BLACK
6
CONTINUOUS
10
-0.302714
20
7.21461
11
-0.312918
21
7.21501
0
LINE
8
BLACK
6
CONTINUOUS
10
-0.312918
20
7.21501
11
-0.32295
21
7.21691
0
LINE
8
BLACK
6
CONTINUOUS
10
-0.32295
20
7.21691
11
-0.332591
21
7.22028
0
LINE
8
BLACK
6
CONTINUOUS
10
-0.332591
20
7.22028
11
-0.341628
21
7.22504
0
LINE
8
BLACK
6
CONTINUOUS
10
-0.341628
20
7.22504
11
-0.349864
21
7.23107
0
LINE
8
BLACK
6
CONTINUOUS
10
-0.349864
20
7.23107
11
-0.357116
21
7.23826
0
LINE
8
BLACK
6
CONTINUOUS
10
-0.357116
20
7.23826
11
-0.363226
21
7.24645
0
LINE
8
BLACK
6
CONTINUOUS
10
-0.363226
20
7.24645
11
-0.368059
21
7.25544
0
LINE
8
BLACK
6
CONTINUOUS
10
-0.368059
20
7.25544
11
-0.37151
21
7.26505
0
LINE
8
BLACK
6
CONTINUOUS
10
-0.37151
20
7.26505
11
-0.373502
21
7.27507
0
LINE
8
BLACK
6
CONTINUOUS
10
-0.373502
20
7.27507
11
-0.373992
21
7.28527
0
LINE
8
BLACK
6
CONTINUOUS
10
-0.373992
20
7.28527
11
-0.372969
21
7.29543
0
LINE
8
BLACK
6
CONTINUOUS
10
-0.372969
20
7.29543
11
-0.370455
21
7.30533
0
LINE
8
BLACK
6
CONTINUOUS
10
-0.370455
20
7.30533
11
-0.366506
21
7.31474
0
LINE
8
BLACK
6
CONTINUOUS
10
-0.366506
20
7.31474
11
-0.361209
21
7.32347
0
LINE
8
BLACK
6
CONTINUOUS
10
-0.361209
20
7.32347
11
-0.354679
21
7.33132
0
LINE
8
BLACK
6
CONTINUOUS
10
-0.354679
20
7.33132
11
-0.34706
21
7.33812
0
LINE
8
BLACK
6
CONTINUOUS
10
-0.34706
20
7.33812
11
-0.33852
21
7.34372
0
LINE
8
BLACK
6
CONTINUOUS
10
-0.33852
20
7.34372
11
-0.329247
21
7.348
0
LINE
8
BLACK
6
CONTINUOUS
10
-0.329247
20
7.348
11
-0.319443
21
7.35086
0
LINE
8
BLACK
6
CONTINUOUS
10
-0.319443
20
7.35086
11
-0.309324
21
7.35223
0
LINE
8
BLACK
6
CONTINUOUS
10
-0.309324
20
7.35223
11
-0.299113
21
7.3521
0
LINE
8
BLACK
6
CONTINUOUS
10
1.39449
20
7.32362
11
1.35512
21
7.32362
0
LINE
8
BLACK
6
CONTINUOUS
10
1.35512
20
7.32362
11
1.35512
21
7.44173
0
LINE
8
BLACK
6
CONTINUOUS
10
1.35512
20
7.44173
11
1.39449
21
7.44173
0
LINE
8
BLACK
6
CONTINUOUS
10
1.39449
20
7.44173
11
1.39449
21
7.32362
0
LINE
8
BLACK
6
CONTINUOUS
10
1.49449
20
7.32362
11
1.45512
21
7.32362
0
LINE
8
BLACK
6
CONTINUOUS
10
1.45512
20
7.32362
11
1.45512
21
7.44173
0
LINE
8
BLACK
6
CONTINUOUS
10
1.45512
20
7.44173
11
1.49449
21
7.44173
0
LINE
8
BLACK
6
CONTINUOUS
10
1.49449
20
7.44173
11
1.49449
21
7.32362
0
LINE
8
BLACK
6
CONTINUOUS
10
-1.45512
20
7.32362
11
-1.49449
21
7.32362
0
LINE
8
BLACK
6
CONTINUOUS
10
-1.49449
20
7.32362
11
-1.49449
21
7.44173
0
LINE
8
BLACK
6
CONTINUOUS
10
-1.49449
20
7.44173
11
-1.45512
21
7.44173
0
LINE
8
BLACK
6
CONTINUOUS
10
-1.45512
20
7.44173
11
-1.45512
21
7.32362
0
LINE
8
BLACK
6
CONTINUOUS
10
-1.35512
20
7.32362
11
-1.39449
21
7.32362
0
LINE
8
BLACK
6
CONTINUOUS
10
-1.39449
20
7.32362
11
-1.39449
21
7.44173
0
LINE
8
BLACK
6
CONTINUOUS
10
-1.39449
20
7.44173
11
-1.35512
21
7.44173
0
LINE
8
BLACK
6
CONTINUOUS
10
-1.35512
20
7.44173
11
-1.35512
21
7.32362
0
LINE
8
BLACK
6
CONTINUOUS
10
1.59449
20
7.32362
11
1.55512
21
7.32362
0
LINE
8
BLACK
6
CONTINUOUS
10
1.55512
20
7.32362
11
1.55512
21
7.44173
0
LINE
8
BLACK
6
CONTINUOUS
10
1.55512
20
7.44173
11
1.59449
21
7.44173
0
LINE
8
BLACK
6
CONTINUOUS
10
1.59449
20
7.44173
11
1.59449
21
7.32362
0
LINE
8
BLACK
6
CONTINUOUS
10
1.69449
20
7.32362
11
1.65512
21
7.32362
0
LINE
8
BLACK
6
CONTINUOUS
10
1.65512
20
7.32362
11
1.65512
21
7.44173
0
LINE
8
BLACK
6
CONTINUOUS
10
1.65512
20
7.44173
11
1.69449
21
7.44173
0
LINE
8
BLACK
6
CONTINUOUS
10
1.69449
20
7.44173
11
1.69449
21
7.32362
0
LINE
8
BLACK
6
CONTINUOUS
10
1.79449
20
7.32362
11
1.75512
21
7.32362
0
LINE
8
BLACK
6
CONTINUOUS
10
1.75512
20
7.32362
11
1.75512
21
7.44173
0
LINE
8
BLACK
6
CONTINUOUS
10
1.75512
20
7.44173
11
1.79449
21
7.44173
0
LINE
8
BLACK
6
CONTINUOUS
10
1.79449
20
7.44173
11
1.79449
21
7.32362
0
LINE
8
BLACK
6
CONTINUOUS
10
-1.55512
20
7.32362
11
-1.59449
21
7.32362
0
LINE
8
BLACK
6
CONTINUOUS
10
-1.59449
20
7.32362
11
-1.59449
21
7.44173
0
LINE
8
BLACK
6
CONTINUOUS
10
-1.59449
20
7.44173
11
-1.55512
21
7.44173
0
LINE
8
BLACK
6
CONTINUOUS
10
-1.55512
20
7.44173
11
-1.55512
21
7.32362
0
LINE
8
BLACK
6
CONTINUOUS
10
-1.65512
20
7.32362
11
-1.69449
21
7.32362
0
LINE
8
BLACK
6
CONTINUOUS
10
-1.69449
20
7.32362
11
-1.69449
21
7.44173
0
LINE
8
BLACK
6
CONTINUOUS
10
-1.69449
20
7.44173
11
-1.65512
21
7.44173
0
LINE
8
BLACK
6
CONTINUOUS
10
-1.65512
20
7.44173
11
-1.65512
21
7.32362
0
LINE
8
BLACK
6
CONTINUOUS
10
-1.75512
20
7.32362
11
-1.79449
21
7.32362
0
LINE
8
BLACK
6
CONTINUOUS
10
-1.79449
20
7.32362
11
-1.79449
21
7.44173
0
LINE
8
BLACK
6
CONTINUOUS
10
-1.79449
20
7.44173
11
-1.75512
21
7.44173
0
LINE
8
BLACK
6
CONTINUOUS
10
-1.75512
20
7.44173
11
-1.75512
21
7.32362
0
LINE
8
BLACK
6
CONTINUOUS
10
0.161417
20
7.43937
11
0.0374016
21
7.43937
0
LINE
8
BLACK
6
CONTINUOUS
10
0.0374016
20
7.43937
11
0.0374016
21
7.47874
0
LINE
8
BLACK
6
CONTINUOUS
10
0.0374016
20
7.47874
11
0.161417
21
7.47874
0
LINE
8
BLACK
6
CONTINUOUS
10
0.161417
20
7.47874
11
0.161417
21
7.43937
0
LINE
8
BLACK
6
CONTINUOUS
10
-0.0374016
20
7.43937
11
-0.161417
21
7.43937
0
LINE
8
BLACK
6
CONTINUOUS
10
-0.161417
20
7.43937
11
-0.161417
21
7.47874
0
LINE
8
BLACK
6
CONTINUOUS
10
-0.161417
20
7.47874
11
-0.0374016
21
7.47874
0
LINE
8
BLACK
6
CONTINUOUS
10
-0.0374016
20
7.47874
11
-0.0374016
21
7.43937
0
LINE
8
BLACK
6
CONTINUOUS
10
-0.0374016
20
7.53937
11
-0.161417
21
7.53937
0
LINE
8
BLACK
6
CONTINUOUS
10
-0.161417
20
7.53937
11
-0.161417
21
7.57874
0
LINE
8
BLACK
6
CONTINUOUS
10
-0.161417
20
7.57874
11
-0.0374016
21
7.57874
0
LINE
8
BLACK
6
CONTINUOUS
10
-0.0374016
20
7.57874
11
-0.0374016
21
7.53937
0
LINE
8
BLACK
6
CONTINUOUS
10
0.161417
20
7.53937
11
0.0374016
21
7.53937
0
LINE
8
BLACK
6
CONTINUOUS
10
0.0374016
20
7.53937
11
0.0374016
21
7.57874
0
LINE
8
BLACK
6
CONTINUOUS
10
0.0374016
20
7.57874
11
0.161417
21
7.57874
0
LINE
8
BLACK
6
CONTINUOUS
10
0.161417
20
7.57874
11
0.161417
21
7.53937
0
LINE
8
BLACK
6
CONTINUOUS
10
1.19266
20
7.72562
11
1.20403
21
7.72336
0
LINE
8
BLACK
6
CONTINUOUS
10
1.20403
20
7.72336
11
1.215
21
7.71964
0
LINE
8
BLACK
6
CONTINUOUS
10
1.215
20
7.71964
11
1.22539
21
7.71451
0
LINE
8
BLACK
6
CONTINUOUS
10
1.22539
20
7.71451
11
1.23503
21
7.70807
0
LINE
8
BLACK
6
CONTINUOUS
10
1.23503
20
7.70807
11
1.24374
21
7.70043
0
LINE
8
BLACK
6
CONTINUOUS
10
1.24374
20
7.70043
11
1.25138
21
7.69172
0
LINE
8
BLACK
6
CONTINUOUS
10
1.25138
20
7.69172
11
1.25782
21
7.68209
0
LINE
8
BLACK
6
CONTINUOUS
10
1.25782
20
7.68209
11
1.26294
21
7.67169
0
LINE
8
BLACK
6
CONTINUOUS
10
1.26294
20
7.67169
11
1.26667
21
7.66072
0
LINE
8
BLACK
6
CONTINUOUS
10
1.26667
20
7.66072
11
1.26893
21
7.64936
0
LINE
8
BLACK
6
CONTINUOUS
10
1.26893
20
7.64936
11
1.26969
21
7.6378
0
LINE
8
BLACK
6
CONTINUOUS
10
1.26969
20
7.6378
11
1.26893
21
7.62623
0
LINE
8
BLACK
6
CONTINUOUS
10
1.26893
20
7.62623
11
1.26667
21
7.61487
0
LINE
8
BLACK
6
CONTINUOUS
10
1.26667
20
7.61487
11
1.26294
21
7.6039
0
LINE
8
BLACK
6
CONTINUOUS
10
1.26294
20
7.6039
11
1.25782
21
7.5935
0
LINE
8
BLACK
6
CONTINUOUS
10
1.25782
20
7.5935
11
1.25138
21
7.58387
0
LINE
8
BLACK
6
CONTINUOUS
10
1.25138
20
7.58387
11
1.24374
21
7.57516
0
LINE
8
BLACK
6
CONTINUOUS
10
1.24374
20
7.57516
11
1.23503
21
7.56752
0
LINE
8
BLACK
6
CONTINUOUS
10
1.23503
20
7.56752
11
1.22539
21
7.56108
0
LINE
8
BLACK
6
CONTINUOUS
10
1.22539
20
7.56108
11
1.215
21
7.55596
0
LINE
8
BLACK
6
CONTINUOUS
10
1.215
20
7.55596
11
1.20403
21
7.55223
0
LINE
8
BLACK
6
CONTINUOUS
10
1.20403
20
7.55223
11
1.19266
21
7.54997
0
LINE
8
BLACK
6
CONTINUOUS
10
1.19266
20
7.54997
11
1.1811
21
7.54921
0
LINE
8
BLACK
6
CONTINUOUS
10
1.1811
20
7.54921
11
1.16954
21
7.54997
0
LINE
8
BLACK
6
CONTINUOUS
10
1.16954
20
7.54997
11
1.15818
21
7.55223
0
LINE
8
BLACK
6
CONTINUOUS
10
1.15818
20
7.55223
11
1.1472
21
7.55596
0
LINE
8
BLACK
6
CONTINUOUS
10
1.1472
20
7.55596
11
1.13681
21
7.56108
0
LINE
8
BLACK
6
CONTINUOUS
10
1.13681
20
7.56108
11
1.12718
21
7.56752
0
LINE
8
BLACK
6
CONTINUOUS
10
1.12718
20
7.56752
11
1.11846
21
7.57516
0
LINE
8
BLACK
6
CONTINUOUS
10
1.11846
20
7.57516
11
1.11082
21
7.58387
0
LINE
8
BLACK
6
CONTINUOUS
10
1.11082
20
7.58387
11
1.10439
21
7.5935
0
LINE
8
BLACK
6
CONTINUOUS
10
1.10439
20
7.5935
11
1.09926
21
7.6039
0
LINE
8
BLACK
6
CONTINUOUS
10
1.09926
20
7.6039
11
1.09554
21
7.61487
0
LINE
8
BLACK
6
CONTINUOUS
10
1.09554
20
7.61487
11
1.09328
21
7.62623
0
LINE
8
BLACK
6
CONTINUOUS
10
1.09328
20
7.62623
11
1.09252
21
7.6378
0
LINE
8
BLACK
6
CONTINUOUS
10
1.09252
20
7.6378
11
1.09328
21
7.64936
0
LINE
8
BLACK
6
CONTINUOUS
10
1.09328
20
7.64936
11
1.09554
21
7.66072
0
LINE
8
BLACK
6
CONTINUOUS
10
1.09554
20
7.66072
11
1.09926
21
7.67169
0
LINE
8
BLACK
6
CONTINUOUS
10
1.09926
20
7.67169
11
1.10439
21
7.68209
0
LINE
8
BLACK
6
CONTINUOUS
10
1.10439
20
7.68209
11
1.11082
21
7.69172
0
LINE
8
BLACK
6
CONTINUOUS
10
1.11082
20
7.69172
11
1.11846
21
7.70043
0
LINE
8
BLACK
6
CONTINUOUS
10
1.11846
20
7.70043
11
1.12718
21
7.70807
0
LINE
8
BLACK
6
CONTINUOUS
10
1.12718
20
7.70807
11
1.13681
21
7.71451
0
LINE
8
BLACK
6
CONTINUOUS
10
1.13681
20
7.71451
11
1.1472
21
7.71964
0
LINE
8
BLACK
6
CONTINUOUS
10
1.1472
20
7.71964
11
1.15818
21
7.72336
0
LINE
8
BLACK
6
CONTINUOUS
10
1.15818
20
7.72336
11
1.16954
21
7.72562
0
LINE
8
BLACK
6
CONTINUOUS
10
1.16954
20
7.72562
11
1.1811
21
7.72638
0
LINE
8
BLACK
6
CONTINUOUS
10
1.1811
20
7.72638
11
1.19266
21
7.72562
0
LINE
8
BLACK
6
CONTINUOUS
10
-1.16954
20
7.72562
11
-1.15818
21
7.72336
0
LINE
8
BLACK
6
CONTINUOUS
10
-1.15818
20
7.72336
11
-1.1472
21
7.71964
0
LINE
8
BLACK
6
CONTINUOUS
10
-1.1472
20
7.71964
11
-1.13681
21
7.71451
0
LINE
8
BLACK
6
CONTINUOUS
10
-1.13681
20
7.71451
11
-1.12718
21
7.70807
0
LINE
8
BLACK
6
CONTINUOUS
10
-1.12718
20
7.70807
11
-1.11846
21
7.70043
0
LINE
8
BLACK
6
CONTINUOUS
10
-1.11846
20
7.70043
11
-1.11082
21
7.69172
0
LINE
8
BLACK
6
CONTINUOUS
10
-1.11082
20
7.69172
11
-1.10439
21
7.68209
0
LINE
8
BLACK
6
CONTINUOUS
10
-1.10439
20
7.68209
11
-1.09926
21
7.67169
0
LINE
8
BLACK
6
CONTINUOUS
10
-1.09926
20
7.67169
11
-1.09554
21
7.66072
0
LINE
8
BLACK
6
CONTINUOUS
10
-1.09554
20
7.66072
11
-1.09328
21
7.64936
0
LINE
8
BLACK
6
CONTINUOUS
10
-1.09328
20
7.64936
11
-1.09252
21
7.6378
0
LINE
8
BLACK
6
CONTINUOUS
10
-1.09252
20
7.6378
11
-1.09328
21
7.62623
0
LINE
8
BLACK
6
CONTINUOUS
10
-1.09328
20
7.62623
11
-1.09554
21
7.61487
0
LINE
8
BLACK
6
CONTINUOUS
10
-1.09554
20
7.61487
11
-1.09926
21
7.6039
0
LINE
8
BLACK
6
CONTINUOUS
10
-1.09926
20
7.6039
11
-1.10439
21
7.5935
0
LINE
8
BLACK
6
CONTINUOUS
10
-1.10439
20
7.5935
11
-1.11082
21
7.58387
0
LINE
8
BLACK
6
CONTINUOUS
10
-1.11082
20
7.58387
11
-1.11846
21
7.57516
0
LINE
8
BLACK
6
CONTINUOUS
10
-1.11846
20
7.57516
11
-1.12718
21
7.56752
0
LINE
8
BLACK
6
CONTINUOUS
10
-1.12718
20
7.56752
11
-1.13681
21
7.56108
0
LINE
8
BLACK
6
CONTINUOUS
10
-1.13681
20
7.56108
11
-1.1472
21
7.55596
0
LINE
8
BLACK
6
CONTINUOUS
10
-1.1472
20
7.55596
11
-1.15818
21
7.55223
0
LINE
8
BLACK
6
CONTINUOUS
10
-1.15818
20
7.55223
11
-1.16954
21
7.54997
0
LINE
8
BLACK
6
CONTINUOUS
10
-1.16954
20
7.54997
11
-1.1811
21
7.54921
0
LINE
8
BLACK
6
CONTINUOUS
10
-1.1811
20
7.54921
11
-1.19266
21
7.54997
0
LINE
8
BLACK
6
CONTINUOUS
10
-1.19266
20
7.54997
11
-1.20403
21
7.55223
0
LINE
8
BLACK
6
CONTINUOUS
10
-1.20403
20
7.55223
11
-1.215
21
7.55596
0
LINE
8
BLACK
6
CONTINUOUS
10
-1.215
20
7.55596
11
-1.22539
21
7.56108
0
LINE
8
BLACK
6
CONTINUOUS
10
-1.22539
20
7.56108
11
-1.23503
21
7.56752
0
LINE
8
BLACK
6
CONTINUOUS
10
-1.23503
20
7.56752
11
-1.24374
21
7.57516
0
LINE
8
BLACK
6
CONTINUOUS
10
-1.24374
20
7.57516
11
-1.25138
21
7.58387
0
LINE
8
BLACK
6
CONTINUOUS
10
-1.25138
20
7.58387
11
-1.25782
21
7.5935
0
LINE
8
BLACK
6
CONTINUOUS
10
-1.25782
20
7.5935
11
-1.26294
21
7.6039
0
LINE
8
BLACK
6
CONTINUOUS
10
-1.26294
20
7.6039
11
-1.26667
21
7.61487
0
LINE
8
BLACK
6
CONTINUOUS
10
-1.26667
20
7.61487
11
-1.26893
21
7.62623
0
LINE
8
BLACK
6
CONTINUOUS
10
-1.26893
20
7.62623
11
-1.26969
21
7.6378
0
LINE
8
BLACK
6
CONTINUOUS
10
-1.26969
20
7.6378
11
-1.26893
21
7.64936
0
LINE
8
BLACK
6
CONTINUOUS
10
-1.26893
20
7.64936
11
-1.26667
21
7.66072
0
LINE
8
BLACK
6
CONTINUOUS
10
-1.26667
20
7.66072
11
-1.26294
21
7.67169
0
LINE
8
BLACK
6
CONTINUOUS
10
-1.26294
20
7.67169
11
-1.25782
21
7.68209
0
LINE
8
BLACK
6
CONTINUOUS
10
-1.25782
20
7.68209
11
-1.25138
21
7.69172
0
LINE
8
BLACK
6
CONTINUOUS
10
-1.25138
20
7.69172
11
-1.24374
21
7.70043
0
LINE
8
BLACK
6
CONTINUOUS
10
-1.24374
20
7.70043
11
-1.23503
21
7.70807
0
LINE
8
BLACK
6
CONTINUOUS
10
-1.23503
20
7.70807
11
-1.22539
21
7.71451
0
LINE
8
BLACK
6
CONTINUOUS
10
-1.22539
20
7.71451
11
-1.215
21
7.71964
0
LINE
8
BLACK
6
CONTINUOUS
10
-1.215
20
7.71964
11
-1.20403
21
7.72336
0
LINE
8
BLACK
6
CONTINUOUS
10
-1.20403
20
7.72336
11
-1.19266
21
7.72562
0
LINE
8
BLACK
6
CONTINUOUS
10
-1.19266
20
7.72562
11
-1.1811
21
7.72638
0
LINE
8
BLACK
6
CONTINUOUS
10
-1.1811
20
7.72638
11
-1.16954
21
7.72562
0
LINE
8
BLACK
6
CONTINUOUS
10
-0.0374016
20
7.63937
11
-0.161417
21
7.63937
0
LINE
8
BLACK
6
CONTINUOUS
10
-0.161417
20
7.63937
11
-0.161417
21
7.67874
0
LINE
8
BLACK
6
CONTINUOUS
10
-0.161417
20
7.67874
11
-0.0374016
21
7.67874
0
LINE
8
BLACK
6
CONTINUOUS
10
-0.0374016
20
7.67874
11
-0.0374016
21
7.63937
0
LINE
8
BLACK
6
CONTINUOUS
10
0.161417
20
7.63937
11
0.0374016
21
7.63937
0
LINE
8
BLACK
6
CONTINUOUS
10
0.0374016
20
7.63937
11
0.0374016
21
7.67874
0
LINE
8
BLACK
6
CONTINUOUS
10
0.0374016
20
7.67874
11
0.161417
21
7.67874
0
LINE
8
BLACK
6
CONTINUOUS
10
0.161417
20
7.67874
11
0.161417
21
7.63937
  0
ENDSEC
  0
EOF
