G04 #@! TF.GenerationSoftware,KiCad,Pcbnew,8.0.7*
G04 #@! TF.CreationDate,2025-01-25T19:39:47+00:00*
G04 #@! TF.ProjectId,NB3_eyes,4e42335f-6579-4657-932e-6b696361645f,0.0.1*
G04 #@! TF.SameCoordinates,PX9d6ebcaPY67ee71d*
G04 #@! TF.FileFunction,Legend,Bot*
G04 #@! TF.FilePolarity,Positive*
%FSLAX46Y46*%
G04 Gerber Fmt 4.6, Leading zero omitted, Abs format (unit mm)*
G04 Created by KiCad (PCBNEW 8.0.7) date 2025-01-25 19:39:47*
%MOMM*%
%LPD*%
G01*
G04 APERTURE LIST*
%ADD10C,0.200000*%
%ADD11C,0.100000*%
%ADD12C,0.125000*%
%ADD13C,0.000000*%
G04 APERTURE END LIST*
D10*
X34988095Y18132781D02*
X34988095Y19132781D01*
X34988095Y19132781D02*
X34416667Y18132781D01*
X34416667Y18132781D02*
X34416667Y19132781D01*
X33797619Y18132781D02*
X33892857Y18180400D01*
X33892857Y18180400D02*
X33940476Y18228020D01*
X33940476Y18228020D02*
X33988095Y18323258D01*
X33988095Y18323258D02*
X33988095Y18608972D01*
X33988095Y18608972D02*
X33940476Y18704210D01*
X33940476Y18704210D02*
X33892857Y18751829D01*
X33892857Y18751829D02*
X33797619Y18799448D01*
X33797619Y18799448D02*
X33654762Y18799448D01*
X33654762Y18799448D02*
X33559524Y18751829D01*
X33559524Y18751829D02*
X33511905Y18704210D01*
X33511905Y18704210D02*
X33464286Y18608972D01*
X33464286Y18608972D02*
X33464286Y18323258D01*
X33464286Y18323258D02*
X33511905Y18228020D01*
X33511905Y18228020D02*
X33559524Y18180400D01*
X33559524Y18180400D02*
X33654762Y18132781D01*
X33654762Y18132781D02*
X33797619Y18132781D01*
X31940476Y18656591D02*
X31797619Y18608972D01*
X31797619Y18608972D02*
X31750000Y18561353D01*
X31750000Y18561353D02*
X31702381Y18466115D01*
X31702381Y18466115D02*
X31702381Y18323258D01*
X31702381Y18323258D02*
X31750000Y18228020D01*
X31750000Y18228020D02*
X31797619Y18180400D01*
X31797619Y18180400D02*
X31892857Y18132781D01*
X31892857Y18132781D02*
X32273809Y18132781D01*
X32273809Y18132781D02*
X32273809Y19132781D01*
X32273809Y19132781D02*
X31940476Y19132781D01*
X31940476Y19132781D02*
X31845238Y19085162D01*
X31845238Y19085162D02*
X31797619Y19037543D01*
X31797619Y19037543D02*
X31750000Y18942305D01*
X31750000Y18942305D02*
X31750000Y18847067D01*
X31750000Y18847067D02*
X31797619Y18751829D01*
X31797619Y18751829D02*
X31845238Y18704210D01*
X31845238Y18704210D02*
X31940476Y18656591D01*
X31940476Y18656591D02*
X32273809Y18656591D01*
X31130952Y18132781D02*
X31226190Y18180400D01*
X31226190Y18180400D02*
X31273809Y18275639D01*
X31273809Y18275639D02*
X31273809Y19132781D01*
X30321428Y18132781D02*
X30321428Y18656591D01*
X30321428Y18656591D02*
X30369047Y18751829D01*
X30369047Y18751829D02*
X30464285Y18799448D01*
X30464285Y18799448D02*
X30654761Y18799448D01*
X30654761Y18799448D02*
X30749999Y18751829D01*
X30321428Y18180400D02*
X30416666Y18132781D01*
X30416666Y18132781D02*
X30654761Y18132781D01*
X30654761Y18132781D02*
X30749999Y18180400D01*
X30749999Y18180400D02*
X30797618Y18275639D01*
X30797618Y18275639D02*
X30797618Y18370877D01*
X30797618Y18370877D02*
X30749999Y18466115D01*
X30749999Y18466115D02*
X30654761Y18513734D01*
X30654761Y18513734D02*
X30416666Y18513734D01*
X30416666Y18513734D02*
X30321428Y18561353D01*
X29416666Y18180400D02*
X29511904Y18132781D01*
X29511904Y18132781D02*
X29702380Y18132781D01*
X29702380Y18132781D02*
X29797618Y18180400D01*
X29797618Y18180400D02*
X29845237Y18228020D01*
X29845237Y18228020D02*
X29892856Y18323258D01*
X29892856Y18323258D02*
X29892856Y18608972D01*
X29892856Y18608972D02*
X29845237Y18704210D01*
X29845237Y18704210D02*
X29797618Y18751829D01*
X29797618Y18751829D02*
X29702380Y18799448D01*
X29702380Y18799448D02*
X29511904Y18799448D01*
X29511904Y18799448D02*
X29416666Y18751829D01*
X28988094Y18132781D02*
X28988094Y19132781D01*
X28892856Y18513734D02*
X28607142Y18132781D01*
X28607142Y18799448D02*
X28988094Y18418496D01*
X27083332Y18656591D02*
X26940475Y18608972D01*
X26940475Y18608972D02*
X26892856Y18561353D01*
X26892856Y18561353D02*
X26845237Y18466115D01*
X26845237Y18466115D02*
X26845237Y18323258D01*
X26845237Y18323258D02*
X26892856Y18228020D01*
X26892856Y18228020D02*
X26940475Y18180400D01*
X26940475Y18180400D02*
X27035713Y18132781D01*
X27035713Y18132781D02*
X27416665Y18132781D01*
X27416665Y18132781D02*
X27416665Y19132781D01*
X27416665Y19132781D02*
X27083332Y19132781D01*
X27083332Y19132781D02*
X26988094Y19085162D01*
X26988094Y19085162D02*
X26940475Y19037543D01*
X26940475Y19037543D02*
X26892856Y18942305D01*
X26892856Y18942305D02*
X26892856Y18847067D01*
X26892856Y18847067D02*
X26940475Y18751829D01*
X26940475Y18751829D02*
X26988094Y18704210D01*
X26988094Y18704210D02*
X27083332Y18656591D01*
X27083332Y18656591D02*
X27416665Y18656591D01*
X26273808Y18132781D02*
X26369046Y18180400D01*
X26369046Y18180400D02*
X26416665Y18228020D01*
X26416665Y18228020D02*
X26464284Y18323258D01*
X26464284Y18323258D02*
X26464284Y18608972D01*
X26464284Y18608972D02*
X26416665Y18704210D01*
X26416665Y18704210D02*
X26369046Y18751829D01*
X26369046Y18751829D02*
X26273808Y18799448D01*
X26273808Y18799448D02*
X26130951Y18799448D01*
X26130951Y18799448D02*
X26035713Y18751829D01*
X26035713Y18751829D02*
X25988094Y18704210D01*
X25988094Y18704210D02*
X25940475Y18608972D01*
X25940475Y18608972D02*
X25940475Y18323258D01*
X25940475Y18323258D02*
X25988094Y18228020D01*
X25988094Y18228020D02*
X26035713Y18180400D01*
X26035713Y18180400D02*
X26130951Y18132781D01*
X26130951Y18132781D02*
X26273808Y18132781D01*
X25607141Y18132781D02*
X25083332Y18799448D01*
X25607141Y18799448D02*
X25083332Y18132781D01*
X24321427Y18180400D02*
X24416665Y18132781D01*
X24416665Y18132781D02*
X24607141Y18132781D01*
X24607141Y18132781D02*
X24702379Y18180400D01*
X24702379Y18180400D02*
X24749998Y18275639D01*
X24749998Y18275639D02*
X24749998Y18656591D01*
X24749998Y18656591D02*
X24702379Y18751829D01*
X24702379Y18751829D02*
X24607141Y18799448D01*
X24607141Y18799448D02*
X24416665Y18799448D01*
X24416665Y18799448D02*
X24321427Y18751829D01*
X24321427Y18751829D02*
X24273808Y18656591D01*
X24273808Y18656591D02*
X24273808Y18561353D01*
X24273808Y18561353D02*
X24749998Y18466115D01*
X23892855Y18180400D02*
X23797617Y18132781D01*
X23797617Y18132781D02*
X23607141Y18132781D01*
X23607141Y18132781D02*
X23511903Y18180400D01*
X23511903Y18180400D02*
X23464284Y18275639D01*
X23464284Y18275639D02*
X23464284Y18323258D01*
X23464284Y18323258D02*
X23511903Y18418496D01*
X23511903Y18418496D02*
X23607141Y18466115D01*
X23607141Y18466115D02*
X23749998Y18466115D01*
X23749998Y18466115D02*
X23845236Y18513734D01*
X23845236Y18513734D02*
X23892855Y18608972D01*
X23892855Y18608972D02*
X23892855Y18656591D01*
X23892855Y18656591D02*
X23845236Y18751829D01*
X23845236Y18751829D02*
X23749998Y18799448D01*
X23749998Y18799448D02*
X23607141Y18799448D01*
X23607141Y18799448D02*
X23511903Y18751829D01*
X-23511905Y18132781D02*
X-23511905Y19132781D01*
X-23511905Y19132781D02*
X-24083333Y18132781D01*
X-24083333Y18132781D02*
X-24083333Y19132781D01*
X-24702381Y18132781D02*
X-24607143Y18180400D01*
X-24607143Y18180400D02*
X-24559524Y18228020D01*
X-24559524Y18228020D02*
X-24511905Y18323258D01*
X-24511905Y18323258D02*
X-24511905Y18608972D01*
X-24511905Y18608972D02*
X-24559524Y18704210D01*
X-24559524Y18704210D02*
X-24607143Y18751829D01*
X-24607143Y18751829D02*
X-24702381Y18799448D01*
X-24702381Y18799448D02*
X-24845238Y18799448D01*
X-24845238Y18799448D02*
X-24940476Y18751829D01*
X-24940476Y18751829D02*
X-24988095Y18704210D01*
X-24988095Y18704210D02*
X-25035714Y18608972D01*
X-25035714Y18608972D02*
X-25035714Y18323258D01*
X-25035714Y18323258D02*
X-24988095Y18228020D01*
X-24988095Y18228020D02*
X-24940476Y18180400D01*
X-24940476Y18180400D02*
X-24845238Y18132781D01*
X-24845238Y18132781D02*
X-24702381Y18132781D01*
X-26559524Y18656591D02*
X-26702381Y18608972D01*
X-26702381Y18608972D02*
X-26750000Y18561353D01*
X-26750000Y18561353D02*
X-26797619Y18466115D01*
X-26797619Y18466115D02*
X-26797619Y18323258D01*
X-26797619Y18323258D02*
X-26750000Y18228020D01*
X-26750000Y18228020D02*
X-26702381Y18180400D01*
X-26702381Y18180400D02*
X-26607143Y18132781D01*
X-26607143Y18132781D02*
X-26226191Y18132781D01*
X-26226191Y18132781D02*
X-26226191Y19132781D01*
X-26226191Y19132781D02*
X-26559524Y19132781D01*
X-26559524Y19132781D02*
X-26654762Y19085162D01*
X-26654762Y19085162D02*
X-26702381Y19037543D01*
X-26702381Y19037543D02*
X-26750000Y18942305D01*
X-26750000Y18942305D02*
X-26750000Y18847067D01*
X-26750000Y18847067D02*
X-26702381Y18751829D01*
X-26702381Y18751829D02*
X-26654762Y18704210D01*
X-26654762Y18704210D02*
X-26559524Y18656591D01*
X-26559524Y18656591D02*
X-26226191Y18656591D01*
X-27369048Y18132781D02*
X-27273810Y18180400D01*
X-27273810Y18180400D02*
X-27226191Y18275639D01*
X-27226191Y18275639D02*
X-27226191Y19132781D01*
X-28178572Y18132781D02*
X-28178572Y18656591D01*
X-28178572Y18656591D02*
X-28130953Y18751829D01*
X-28130953Y18751829D02*
X-28035715Y18799448D01*
X-28035715Y18799448D02*
X-27845239Y18799448D01*
X-27845239Y18799448D02*
X-27750001Y18751829D01*
X-28178572Y18180400D02*
X-28083334Y18132781D01*
X-28083334Y18132781D02*
X-27845239Y18132781D01*
X-27845239Y18132781D02*
X-27750001Y18180400D01*
X-27750001Y18180400D02*
X-27702382Y18275639D01*
X-27702382Y18275639D02*
X-27702382Y18370877D01*
X-27702382Y18370877D02*
X-27750001Y18466115D01*
X-27750001Y18466115D02*
X-27845239Y18513734D01*
X-27845239Y18513734D02*
X-28083334Y18513734D01*
X-28083334Y18513734D02*
X-28178572Y18561353D01*
X-29083334Y18180400D02*
X-28988096Y18132781D01*
X-28988096Y18132781D02*
X-28797620Y18132781D01*
X-28797620Y18132781D02*
X-28702382Y18180400D01*
X-28702382Y18180400D02*
X-28654763Y18228020D01*
X-28654763Y18228020D02*
X-28607144Y18323258D01*
X-28607144Y18323258D02*
X-28607144Y18608972D01*
X-28607144Y18608972D02*
X-28654763Y18704210D01*
X-28654763Y18704210D02*
X-28702382Y18751829D01*
X-28702382Y18751829D02*
X-28797620Y18799448D01*
X-28797620Y18799448D02*
X-28988096Y18799448D01*
X-28988096Y18799448D02*
X-29083334Y18751829D01*
X-29511906Y18132781D02*
X-29511906Y19132781D01*
X-29607144Y18513734D02*
X-29892858Y18132781D01*
X-29892858Y18799448D02*
X-29511906Y18418496D01*
X-31416668Y18656591D02*
X-31559525Y18608972D01*
X-31559525Y18608972D02*
X-31607144Y18561353D01*
X-31607144Y18561353D02*
X-31654763Y18466115D01*
X-31654763Y18466115D02*
X-31654763Y18323258D01*
X-31654763Y18323258D02*
X-31607144Y18228020D01*
X-31607144Y18228020D02*
X-31559525Y18180400D01*
X-31559525Y18180400D02*
X-31464287Y18132781D01*
X-31464287Y18132781D02*
X-31083335Y18132781D01*
X-31083335Y18132781D02*
X-31083335Y19132781D01*
X-31083335Y19132781D02*
X-31416668Y19132781D01*
X-31416668Y19132781D02*
X-31511906Y19085162D01*
X-31511906Y19085162D02*
X-31559525Y19037543D01*
X-31559525Y19037543D02*
X-31607144Y18942305D01*
X-31607144Y18942305D02*
X-31607144Y18847067D01*
X-31607144Y18847067D02*
X-31559525Y18751829D01*
X-31559525Y18751829D02*
X-31511906Y18704210D01*
X-31511906Y18704210D02*
X-31416668Y18656591D01*
X-31416668Y18656591D02*
X-31083335Y18656591D01*
X-32226192Y18132781D02*
X-32130954Y18180400D01*
X-32130954Y18180400D02*
X-32083335Y18228020D01*
X-32083335Y18228020D02*
X-32035716Y18323258D01*
X-32035716Y18323258D02*
X-32035716Y18608972D01*
X-32035716Y18608972D02*
X-32083335Y18704210D01*
X-32083335Y18704210D02*
X-32130954Y18751829D01*
X-32130954Y18751829D02*
X-32226192Y18799448D01*
X-32226192Y18799448D02*
X-32369049Y18799448D01*
X-32369049Y18799448D02*
X-32464287Y18751829D01*
X-32464287Y18751829D02*
X-32511906Y18704210D01*
X-32511906Y18704210D02*
X-32559525Y18608972D01*
X-32559525Y18608972D02*
X-32559525Y18323258D01*
X-32559525Y18323258D02*
X-32511906Y18228020D01*
X-32511906Y18228020D02*
X-32464287Y18180400D01*
X-32464287Y18180400D02*
X-32369049Y18132781D01*
X-32369049Y18132781D02*
X-32226192Y18132781D01*
X-32892859Y18132781D02*
X-33416668Y18799448D01*
X-32892859Y18799448D02*
X-33416668Y18132781D01*
X-34178573Y18180400D02*
X-34083335Y18132781D01*
X-34083335Y18132781D02*
X-33892859Y18132781D01*
X-33892859Y18132781D02*
X-33797621Y18180400D01*
X-33797621Y18180400D02*
X-33750002Y18275639D01*
X-33750002Y18275639D02*
X-33750002Y18656591D01*
X-33750002Y18656591D02*
X-33797621Y18751829D01*
X-33797621Y18751829D02*
X-33892859Y18799448D01*
X-33892859Y18799448D02*
X-34083335Y18799448D01*
X-34083335Y18799448D02*
X-34178573Y18751829D01*
X-34178573Y18751829D02*
X-34226192Y18656591D01*
X-34226192Y18656591D02*
X-34226192Y18561353D01*
X-34226192Y18561353D02*
X-33750002Y18466115D01*
X-34607145Y18180400D02*
X-34702383Y18132781D01*
X-34702383Y18132781D02*
X-34892859Y18132781D01*
X-34892859Y18132781D02*
X-34988097Y18180400D01*
X-34988097Y18180400D02*
X-35035716Y18275639D01*
X-35035716Y18275639D02*
X-35035716Y18323258D01*
X-35035716Y18323258D02*
X-34988097Y18418496D01*
X-34988097Y18418496D02*
X-34892859Y18466115D01*
X-34892859Y18466115D02*
X-34750002Y18466115D01*
X-34750002Y18466115D02*
X-34654764Y18513734D01*
X-34654764Y18513734D02*
X-34607145Y18608972D01*
X-34607145Y18608972D02*
X-34607145Y18656591D01*
X-34607145Y18656591D02*
X-34654764Y18751829D01*
X-34654764Y18751829D02*
X-34750002Y18799448D01*
X-34750002Y18799448D02*
X-34892859Y18799448D01*
X-34892859Y18799448D02*
X-34988097Y18751829D01*
D11*
X-49750000Y19250000D02*
X-49750000Y21250000D01*
X-31000000Y8000000D02*
X-23000000Y8000000D01*
X-23000000Y3500000D01*
X-31000000Y3500000D01*
X-31000000Y8000000D01*
X23000000Y8000000D02*
X31000000Y8000000D01*
X31000000Y3500000D01*
X23000000Y3500000D01*
X23000000Y8000000D01*
X44650000Y19250000D02*
X44650000Y21250000D01*
X-47350000Y19250000D02*
X-47350000Y21250000D01*
X49750000Y19250000D02*
X49750000Y21250000D01*
X42200000Y19250000D02*
X42200000Y21250000D01*
X-44700000Y19250000D02*
X-44700000Y21250000D01*
X-42250000Y19250000D02*
X-42250000Y21250000D01*
X47350000Y19250000D02*
X47350000Y21250000D01*
X39750000Y21250000D02*
X52250000Y21250000D01*
X52250000Y19250000D01*
X39750000Y19250000D01*
X39750000Y21250000D01*
X-52250000Y21250000D02*
X-39750000Y21250000D01*
X-39750000Y19250000D01*
X-52250000Y19250000D01*
X-52250000Y21250000D01*
X43674687Y19872820D02*
X43722306Y19825200D01*
X43722306Y19825200D02*
X43865163Y19777581D01*
X43865163Y19777581D02*
X43960401Y19777581D01*
X43960401Y19777581D02*
X44103258Y19825200D01*
X44103258Y19825200D02*
X44198496Y19920439D01*
X44198496Y19920439D02*
X44246115Y20015677D01*
X44246115Y20015677D02*
X44293734Y20206153D01*
X44293734Y20206153D02*
X44293734Y20349010D01*
X44293734Y20349010D02*
X44246115Y20539486D01*
X44246115Y20539486D02*
X44198496Y20634724D01*
X44198496Y20634724D02*
X44103258Y20729962D01*
X44103258Y20729962D02*
X43960401Y20777581D01*
X43960401Y20777581D02*
X43865163Y20777581D01*
X43865163Y20777581D02*
X43722306Y20729962D01*
X43722306Y20729962D02*
X43674687Y20682343D01*
X43293734Y19825200D02*
X43150877Y19777581D01*
X43150877Y19777581D02*
X42912782Y19777581D01*
X42912782Y19777581D02*
X42817544Y19825200D01*
X42817544Y19825200D02*
X42769925Y19872820D01*
X42769925Y19872820D02*
X42722306Y19968058D01*
X42722306Y19968058D02*
X42722306Y20063296D01*
X42722306Y20063296D02*
X42769925Y20158534D01*
X42769925Y20158534D02*
X42817544Y20206153D01*
X42817544Y20206153D02*
X42912782Y20253772D01*
X42912782Y20253772D02*
X43103258Y20301391D01*
X43103258Y20301391D02*
X43198496Y20349010D01*
X43198496Y20349010D02*
X43246115Y20396629D01*
X43246115Y20396629D02*
X43293734Y20491867D01*
X43293734Y20491867D02*
X43293734Y20587105D01*
X43293734Y20587105D02*
X43246115Y20682343D01*
X43246115Y20682343D02*
X43198496Y20729962D01*
X43198496Y20729962D02*
X43103258Y20777581D01*
X43103258Y20777581D02*
X42865163Y20777581D01*
X42865163Y20777581D02*
X42722306Y20729962D01*
X49005639Y20777581D02*
X48910401Y20777581D01*
X48910401Y20777581D02*
X48815163Y20729962D01*
X48815163Y20729962D02*
X48767544Y20682343D01*
X48767544Y20682343D02*
X48719925Y20587105D01*
X48719925Y20587105D02*
X48672306Y20396629D01*
X48672306Y20396629D02*
X48672306Y20158534D01*
X48672306Y20158534D02*
X48719925Y19968058D01*
X48719925Y19968058D02*
X48767544Y19872820D01*
X48767544Y19872820D02*
X48815163Y19825200D01*
X48815163Y19825200D02*
X48910401Y19777581D01*
X48910401Y19777581D02*
X49005639Y19777581D01*
X49005639Y19777581D02*
X49100877Y19825200D01*
X49100877Y19825200D02*
X49148496Y19872820D01*
X49148496Y19872820D02*
X49196115Y19968058D01*
X49196115Y19968058D02*
X49243734Y20158534D01*
X49243734Y20158534D02*
X49243734Y20396629D01*
X49243734Y20396629D02*
X49196115Y20587105D01*
X49196115Y20587105D02*
X49148496Y20682343D01*
X49148496Y20682343D02*
X49100877Y20729962D01*
X49100877Y20729962D02*
X49005639Y20777581D01*
X48386591Y20777581D02*
X48053258Y19777581D01*
X48053258Y19777581D02*
X47719925Y20777581D01*
X51219925Y20777581D02*
X51696115Y20777581D01*
X51696115Y20777581D02*
X51743734Y20301391D01*
X51743734Y20301391D02*
X51696115Y20349010D01*
X51696115Y20349010D02*
X51600877Y20396629D01*
X51600877Y20396629D02*
X51362782Y20396629D01*
X51362782Y20396629D02*
X51267544Y20349010D01*
X51267544Y20349010D02*
X51219925Y20301391D01*
X51219925Y20301391D02*
X51172306Y20206153D01*
X51172306Y20206153D02*
X51172306Y19968058D01*
X51172306Y19968058D02*
X51219925Y19872820D01*
X51219925Y19872820D02*
X51267544Y19825200D01*
X51267544Y19825200D02*
X51362782Y19777581D01*
X51362782Y19777581D02*
X51600877Y19777581D01*
X51600877Y19777581D02*
X51696115Y19825200D01*
X51696115Y19825200D02*
X51743734Y19872820D01*
X50886591Y20777581D02*
X50553258Y19777581D01*
X50553258Y19777581D02*
X50219925Y20777581D01*
X-42994361Y20777581D02*
X-43089599Y20777581D01*
X-43089599Y20777581D02*
X-43184837Y20729962D01*
X-43184837Y20729962D02*
X-43232456Y20682343D01*
X-43232456Y20682343D02*
X-43280075Y20587105D01*
X-43280075Y20587105D02*
X-43327694Y20396629D01*
X-43327694Y20396629D02*
X-43327694Y20158534D01*
X-43327694Y20158534D02*
X-43280075Y19968058D01*
X-43280075Y19968058D02*
X-43232456Y19872820D01*
X-43232456Y19872820D02*
X-43184837Y19825200D01*
X-43184837Y19825200D02*
X-43089599Y19777581D01*
X-43089599Y19777581D02*
X-42994361Y19777581D01*
X-42994361Y19777581D02*
X-42899123Y19825200D01*
X-42899123Y19825200D02*
X-42851504Y19872820D01*
X-42851504Y19872820D02*
X-42803885Y19968058D01*
X-42803885Y19968058D02*
X-42756266Y20158534D01*
X-42756266Y20158534D02*
X-42756266Y20396629D01*
X-42756266Y20396629D02*
X-42803885Y20587105D01*
X-42803885Y20587105D02*
X-42851504Y20682343D01*
X-42851504Y20682343D02*
X-42899123Y20729962D01*
X-42899123Y20729962D02*
X-42994361Y20777581D01*
X-43613409Y20777581D02*
X-43946742Y19777581D01*
X-43946742Y19777581D02*
X-44280075Y20777581D01*
X-45003885Y19777581D02*
X-45003885Y20777581D01*
X-45003885Y20777581D02*
X-45241980Y20777581D01*
X-45241980Y20777581D02*
X-45384837Y20729962D01*
X-45384837Y20729962D02*
X-45480075Y20634724D01*
X-45480075Y20634724D02*
X-45527694Y20539486D01*
X-45527694Y20539486D02*
X-45575313Y20349010D01*
X-45575313Y20349010D02*
X-45575313Y20206153D01*
X-45575313Y20206153D02*
X-45527694Y20015677D01*
X-45527694Y20015677D02*
X-45480075Y19920439D01*
X-45480075Y19920439D02*
X-45384837Y19825200D01*
X-45384837Y19825200D02*
X-45241980Y19777581D01*
X-45241980Y19777581D02*
X-45003885Y19777581D01*
X-46003885Y19777581D02*
X-46003885Y20777581D01*
X-46480075Y19777581D02*
X-46480075Y20777581D01*
X-46480075Y20777581D02*
X-47051503Y19777581D01*
X-47051503Y19777581D02*
X-47051503Y20777581D01*
X-50825313Y19872820D02*
X-50777694Y19825200D01*
X-50777694Y19825200D02*
X-50634837Y19777581D01*
X-50634837Y19777581D02*
X-50539599Y19777581D01*
X-50539599Y19777581D02*
X-50396742Y19825200D01*
X-50396742Y19825200D02*
X-50301504Y19920439D01*
X-50301504Y19920439D02*
X-50253885Y20015677D01*
X-50253885Y20015677D02*
X-50206266Y20206153D01*
X-50206266Y20206153D02*
X-50206266Y20349010D01*
X-50206266Y20349010D02*
X-50253885Y20539486D01*
X-50253885Y20539486D02*
X-50301504Y20634724D01*
X-50301504Y20634724D02*
X-50396742Y20729962D01*
X-50396742Y20729962D02*
X-50539599Y20777581D01*
X-50539599Y20777581D02*
X-50634837Y20777581D01*
X-50634837Y20777581D02*
X-50777694Y20729962D01*
X-50777694Y20729962D02*
X-50825313Y20682343D01*
X-51253885Y19777581D02*
X-51253885Y20777581D01*
X-51825313Y19777581D02*
X-51396742Y20349010D01*
X-51825313Y20777581D02*
X-51253885Y20206153D01*
D12*
X-26041667Y4128881D02*
X-25565476Y4128881D01*
X-25565476Y4128881D02*
X-25690476Y5128881D01*
X-26440477Y4652691D02*
X-26773810Y4652691D01*
X-26851191Y4128881D02*
X-26375000Y4128881D01*
X-26375000Y4128881D02*
X-26500000Y5128881D01*
X-26500000Y5128881D02*
X-26976191Y5128881D01*
X-27678572Y4652691D02*
X-27345239Y4652691D01*
X-27279762Y4128881D02*
X-27404762Y5128881D01*
X-27404762Y5128881D02*
X-27880953Y5128881D01*
X-28119048Y5128881D02*
X-28690477Y5128881D01*
X-28279762Y4128881D02*
X-28404762Y5128881D01*
D11*
X-48325313Y19872820D02*
X-48277694Y19825200D01*
X-48277694Y19825200D02*
X-48134837Y19777581D01*
X-48134837Y19777581D02*
X-48039599Y19777581D01*
X-48039599Y19777581D02*
X-47896742Y19825200D01*
X-47896742Y19825200D02*
X-47801504Y19920439D01*
X-47801504Y19920439D02*
X-47753885Y20015677D01*
X-47753885Y20015677D02*
X-47706266Y20206153D01*
X-47706266Y20206153D02*
X-47706266Y20349010D01*
X-47706266Y20349010D02*
X-47753885Y20539486D01*
X-47753885Y20539486D02*
X-47801504Y20634724D01*
X-47801504Y20634724D02*
X-47896742Y20729962D01*
X-47896742Y20729962D02*
X-48039599Y20777581D01*
X-48039599Y20777581D02*
X-48134837Y20777581D01*
X-48134837Y20777581D02*
X-48277694Y20729962D01*
X-48277694Y20729962D02*
X-48325313Y20682343D01*
X-48706266Y19825200D02*
X-48849123Y19777581D01*
X-48849123Y19777581D02*
X-49087218Y19777581D01*
X-49087218Y19777581D02*
X-49182456Y19825200D01*
X-49182456Y19825200D02*
X-49230075Y19872820D01*
X-49230075Y19872820D02*
X-49277694Y19968058D01*
X-49277694Y19968058D02*
X-49277694Y20063296D01*
X-49277694Y20063296D02*
X-49230075Y20158534D01*
X-49230075Y20158534D02*
X-49182456Y20206153D01*
X-49182456Y20206153D02*
X-49087218Y20253772D01*
X-49087218Y20253772D02*
X-48896742Y20301391D01*
X-48896742Y20301391D02*
X-48801504Y20349010D01*
X-48801504Y20349010D02*
X-48753885Y20396629D01*
X-48753885Y20396629D02*
X-48706266Y20491867D01*
X-48706266Y20491867D02*
X-48706266Y20587105D01*
X-48706266Y20587105D02*
X-48753885Y20682343D01*
X-48753885Y20682343D02*
X-48801504Y20729962D01*
X-48801504Y20729962D02*
X-48896742Y20777581D01*
X-48896742Y20777581D02*
X-49134837Y20777581D01*
X-49134837Y20777581D02*
X-49277694Y20729962D01*
D10*
X29976190Y6132781D02*
X29976190Y7132781D01*
X29976190Y7132781D02*
X29404762Y6132781D01*
X29404762Y6132781D02*
X29404762Y7132781D01*
X28595238Y6656591D02*
X28452381Y6608972D01*
X28452381Y6608972D02*
X28404762Y6561353D01*
X28404762Y6561353D02*
X28357143Y6466115D01*
X28357143Y6466115D02*
X28357143Y6323258D01*
X28357143Y6323258D02*
X28404762Y6228020D01*
X28404762Y6228020D02*
X28452381Y6180400D01*
X28452381Y6180400D02*
X28547619Y6132781D01*
X28547619Y6132781D02*
X28928571Y6132781D01*
X28928571Y6132781D02*
X28928571Y7132781D01*
X28928571Y7132781D02*
X28595238Y7132781D01*
X28595238Y7132781D02*
X28500000Y7085162D01*
X28500000Y7085162D02*
X28452381Y7037543D01*
X28452381Y7037543D02*
X28404762Y6942305D01*
X28404762Y6942305D02*
X28404762Y6847067D01*
X28404762Y6847067D02*
X28452381Y6751829D01*
X28452381Y6751829D02*
X28500000Y6704210D01*
X28500000Y6704210D02*
X28595238Y6656591D01*
X28595238Y6656591D02*
X28928571Y6656591D01*
X28023809Y7132781D02*
X27404762Y7132781D01*
X27404762Y7132781D02*
X27738095Y6751829D01*
X27738095Y6751829D02*
X27595238Y6751829D01*
X27595238Y6751829D02*
X27500000Y6704210D01*
X27500000Y6704210D02*
X27452381Y6656591D01*
X27452381Y6656591D02*
X27404762Y6561353D01*
X27404762Y6561353D02*
X27404762Y6323258D01*
X27404762Y6323258D02*
X27452381Y6228020D01*
X27452381Y6228020D02*
X27500000Y6180400D01*
X27500000Y6180400D02*
X27595238Y6132781D01*
X27595238Y6132781D02*
X27880952Y6132781D01*
X27880952Y6132781D02*
X27976190Y6180400D01*
X27976190Y6180400D02*
X28023809Y6228020D01*
X26214285Y6656591D02*
X25880952Y6656591D01*
X25738095Y6132781D02*
X26214285Y6132781D01*
X26214285Y6132781D02*
X26214285Y7132781D01*
X26214285Y7132781D02*
X25738095Y7132781D01*
X25119047Y6608972D02*
X25119047Y6132781D01*
X25452380Y7132781D02*
X25119047Y6608972D01*
X25119047Y6608972D02*
X24785714Y7132781D01*
X24452380Y6656591D02*
X24119047Y6656591D01*
X23976190Y6132781D02*
X24452380Y6132781D01*
X24452380Y6132781D02*
X24452380Y7132781D01*
X24452380Y7132781D02*
X23976190Y7132781D01*
D11*
X41124687Y19872820D02*
X41172306Y19825200D01*
X41172306Y19825200D02*
X41315163Y19777581D01*
X41315163Y19777581D02*
X41410401Y19777581D01*
X41410401Y19777581D02*
X41553258Y19825200D01*
X41553258Y19825200D02*
X41648496Y19920439D01*
X41648496Y19920439D02*
X41696115Y20015677D01*
X41696115Y20015677D02*
X41743734Y20206153D01*
X41743734Y20206153D02*
X41743734Y20349010D01*
X41743734Y20349010D02*
X41696115Y20539486D01*
X41696115Y20539486D02*
X41648496Y20634724D01*
X41648496Y20634724D02*
X41553258Y20729962D01*
X41553258Y20729962D02*
X41410401Y20777581D01*
X41410401Y20777581D02*
X41315163Y20777581D01*
X41315163Y20777581D02*
X41172306Y20729962D01*
X41172306Y20729962D02*
X41124687Y20682343D01*
X40696115Y19777581D02*
X40696115Y20777581D01*
X40124687Y19777581D02*
X40553258Y20349010D01*
X40124687Y20777581D02*
X40696115Y20206153D01*
X46996115Y19777581D02*
X46996115Y20777581D01*
X46996115Y20777581D02*
X46758020Y20777581D01*
X46758020Y20777581D02*
X46615163Y20729962D01*
X46615163Y20729962D02*
X46519925Y20634724D01*
X46519925Y20634724D02*
X46472306Y20539486D01*
X46472306Y20539486D02*
X46424687Y20349010D01*
X46424687Y20349010D02*
X46424687Y20206153D01*
X46424687Y20206153D02*
X46472306Y20015677D01*
X46472306Y20015677D02*
X46519925Y19920439D01*
X46519925Y19920439D02*
X46615163Y19825200D01*
X46615163Y19825200D02*
X46758020Y19777581D01*
X46758020Y19777581D02*
X46996115Y19777581D01*
X45996115Y19777581D02*
X45996115Y20777581D01*
X45519925Y19777581D02*
X45519925Y20777581D01*
X45519925Y20777581D02*
X44948497Y19777581D01*
X44948497Y19777581D02*
X44948497Y20777581D01*
D10*
X-24023810Y6132781D02*
X-24023810Y7132781D01*
X-24023810Y7132781D02*
X-24595238Y6132781D01*
X-24595238Y6132781D02*
X-24595238Y7132781D01*
X-25404762Y6656591D02*
X-25547619Y6608972D01*
X-25547619Y6608972D02*
X-25595238Y6561353D01*
X-25595238Y6561353D02*
X-25642857Y6466115D01*
X-25642857Y6466115D02*
X-25642857Y6323258D01*
X-25642857Y6323258D02*
X-25595238Y6228020D01*
X-25595238Y6228020D02*
X-25547619Y6180400D01*
X-25547619Y6180400D02*
X-25452381Y6132781D01*
X-25452381Y6132781D02*
X-25071429Y6132781D01*
X-25071429Y6132781D02*
X-25071429Y7132781D01*
X-25071429Y7132781D02*
X-25404762Y7132781D01*
X-25404762Y7132781D02*
X-25500000Y7085162D01*
X-25500000Y7085162D02*
X-25547619Y7037543D01*
X-25547619Y7037543D02*
X-25595238Y6942305D01*
X-25595238Y6942305D02*
X-25595238Y6847067D01*
X-25595238Y6847067D02*
X-25547619Y6751829D01*
X-25547619Y6751829D02*
X-25500000Y6704210D01*
X-25500000Y6704210D02*
X-25404762Y6656591D01*
X-25404762Y6656591D02*
X-25071429Y6656591D01*
X-25976191Y7132781D02*
X-26595238Y7132781D01*
X-26595238Y7132781D02*
X-26261905Y6751829D01*
X-26261905Y6751829D02*
X-26404762Y6751829D01*
X-26404762Y6751829D02*
X-26500000Y6704210D01*
X-26500000Y6704210D02*
X-26547619Y6656591D01*
X-26547619Y6656591D02*
X-26595238Y6561353D01*
X-26595238Y6561353D02*
X-26595238Y6323258D01*
X-26595238Y6323258D02*
X-26547619Y6228020D01*
X-26547619Y6228020D02*
X-26500000Y6180400D01*
X-26500000Y6180400D02*
X-26404762Y6132781D01*
X-26404762Y6132781D02*
X-26119048Y6132781D01*
X-26119048Y6132781D02*
X-26023810Y6180400D01*
X-26023810Y6180400D02*
X-25976191Y6228020D01*
X-27785715Y6656591D02*
X-28119048Y6656591D01*
X-28261905Y6132781D02*
X-27785715Y6132781D01*
X-27785715Y6132781D02*
X-27785715Y7132781D01*
X-27785715Y7132781D02*
X-28261905Y7132781D01*
X-28880953Y6608972D02*
X-28880953Y6132781D01*
X-28547620Y7132781D02*
X-28880953Y6608972D01*
X-28880953Y6608972D02*
X-29214286Y7132781D01*
X-29547620Y6656591D02*
X-29880953Y6656591D01*
X-30023810Y6132781D02*
X-29547620Y6132781D01*
X-29547620Y6132781D02*
X-29547620Y7132781D01*
X-29547620Y7132781D02*
X-30023810Y7132781D01*
D12*
X28339285Y4128881D02*
X28613095Y4605072D01*
X28910714Y4128881D02*
X28785714Y5128881D01*
X28785714Y5128881D02*
X28404761Y5128881D01*
X28404761Y5128881D02*
X28315476Y5081262D01*
X28315476Y5081262D02*
X28273809Y5033643D01*
X28273809Y5033643D02*
X28238095Y4938405D01*
X28238095Y4938405D02*
X28255952Y4795548D01*
X28255952Y4795548D02*
X28315476Y4700310D01*
X28315476Y4700310D02*
X28369047Y4652691D01*
X28369047Y4652691D02*
X28470237Y4605072D01*
X28470237Y4605072D02*
X28851190Y4605072D01*
X27910714Y4128881D02*
X27785714Y5128881D01*
X26791667Y5081262D02*
X26880952Y5128881D01*
X26880952Y5128881D02*
X27023809Y5128881D01*
X27023809Y5128881D02*
X27172619Y5081262D01*
X27172619Y5081262D02*
X27279762Y4986024D01*
X27279762Y4986024D02*
X27339286Y4890786D01*
X27339286Y4890786D02*
X27410714Y4700310D01*
X27410714Y4700310D02*
X27428571Y4557453D01*
X27428571Y4557453D02*
X27404762Y4366977D01*
X27404762Y4366977D02*
X27369047Y4271739D01*
X27369047Y4271739D02*
X27285714Y4176500D01*
X27285714Y4176500D02*
X27148809Y4128881D01*
X27148809Y4128881D02*
X27053571Y4128881D01*
X27053571Y4128881D02*
X26904762Y4176500D01*
X26904762Y4176500D02*
X26851190Y4224120D01*
X26851190Y4224120D02*
X26809524Y4557453D01*
X26809524Y4557453D02*
X27000000Y4557453D01*
X26434524Y4128881D02*
X26309524Y5128881D01*
X26369047Y4652691D02*
X25797619Y4652691D01*
X25863095Y4128881D02*
X25738095Y5128881D01*
X25404762Y5128881D02*
X24833333Y5128881D01*
X25244048Y4128881D02*
X25119048Y5128881D01*
D11*
X-40780075Y20777581D02*
X-40303885Y20777581D01*
X-40303885Y20777581D02*
X-40256266Y20301391D01*
X-40256266Y20301391D02*
X-40303885Y20349010D01*
X-40303885Y20349010D02*
X-40399123Y20396629D01*
X-40399123Y20396629D02*
X-40637218Y20396629D01*
X-40637218Y20396629D02*
X-40732456Y20349010D01*
X-40732456Y20349010D02*
X-40780075Y20301391D01*
X-40780075Y20301391D02*
X-40827694Y20206153D01*
X-40827694Y20206153D02*
X-40827694Y19968058D01*
X-40827694Y19968058D02*
X-40780075Y19872820D01*
X-40780075Y19872820D02*
X-40732456Y19825200D01*
X-40732456Y19825200D02*
X-40637218Y19777581D01*
X-40637218Y19777581D02*
X-40399123Y19777581D01*
X-40399123Y19777581D02*
X-40303885Y19825200D01*
X-40303885Y19825200D02*
X-40256266Y19872820D01*
X-41113409Y20777581D02*
X-41446742Y19777581D01*
X-41446742Y19777581D02*
X-41780075Y20777581D01*
D13*
G36*
X30499350Y28850227D02*
G01*
X31252201Y28846949D01*
X32005053Y28843672D01*
X32007608Y28697549D01*
X32008552Y28643547D01*
X32012051Y28443422D01*
X32602574Y28443422D01*
X33193097Y28443422D01*
X33193097Y28290946D01*
X33193097Y28075107D01*
X33193097Y27706791D01*
X33621936Y27703446D01*
X34050776Y27700100D01*
X34054128Y27290320D01*
X34057481Y26880540D01*
X34286019Y26880540D01*
X34514557Y26880540D01*
X34514557Y26728064D01*
X34514557Y25832266D01*
X34514557Y24783992D01*
X34285992Y24783992D01*
X34057427Y24783992D01*
X34054101Y24291621D01*
X34050776Y23799250D01*
X33583817Y23795917D01*
X33116859Y23792583D01*
X33116859Y23583085D01*
X33116859Y23373587D01*
X32513307Y23373587D01*
X31909755Y23373587D01*
X31909755Y23163932D01*
X31909755Y23106754D01*
X31909755Y22954277D01*
X30938034Y22954277D01*
X29966312Y22954277D01*
X29962821Y22747799D01*
X29959330Y22541321D01*
X29549550Y22537968D01*
X29139770Y22534616D01*
X29139770Y22013975D01*
X29139770Y21493335D01*
X28628339Y21490014D01*
X28116909Y21486693D01*
X28113392Y21299275D01*
X28109876Y21111856D01*
X27760791Y21111856D01*
X27411706Y21111856D01*
X27411706Y20681958D01*
X27411571Y20605381D01*
X27410993Y20509068D01*
X27410013Y20423159D01*
X27408689Y20350654D01*
X27407079Y20294556D01*
X27405242Y20257867D01*
X27403235Y20243589D01*
X27398962Y20242888D01*
X27372467Y20241617D01*
X27323465Y20240415D01*
X27253851Y20239298D01*
X27165520Y20238280D01*
X27060368Y20237377D01*
X26940289Y20236604D01*
X26807178Y20235977D01*
X26662931Y20235510D01*
X26509443Y20235218D01*
X26348608Y20235118D01*
X25302451Y20235118D01*
X25302451Y21041770D01*
X25302451Y21848423D01*
X24949850Y21851800D01*
X24597249Y21855178D01*
X24593880Y22226839D01*
X24590512Y22598499D01*
X24342930Y22598499D01*
X24095348Y22598499D01*
X24095348Y23405353D01*
X24095348Y24212206D01*
X23860280Y24212206D01*
X23625213Y24212206D01*
X23625213Y24218559D01*
X24254177Y24218559D01*
X24254177Y23481591D01*
X24254177Y22744622D01*
X24420067Y22741094D01*
X24431439Y22740873D01*
X24492720Y22740442D01*
X24543733Y22741319D01*
X24579434Y22743352D01*
X24594779Y22746389D01*
X24596523Y22760002D01*
X24598182Y22796587D01*
X24599686Y22853590D01*
X24600999Y22928490D01*
X24602083Y23018767D01*
X24602903Y23121900D01*
X24603421Y23235366D01*
X24603602Y23356645D01*
X24603602Y23799250D01*
X24749725Y23799250D01*
X24749725Y22903452D01*
X24749725Y22007654D01*
X25026088Y22004230D01*
X25302451Y22000805D01*
X25302451Y22172589D01*
X25302451Y22191896D01*
X25454928Y22191896D01*
X25454928Y21289745D01*
X25454928Y20387594D01*
X26357079Y20387594D01*
X27259230Y20387594D01*
X27259230Y21289745D01*
X27259230Y22191896D01*
X26357079Y22191896D01*
X25454928Y22191896D01*
X25302451Y22191896D01*
X25302451Y22344372D01*
X25658229Y22344372D01*
X26014007Y22344372D01*
X26014007Y22782741D01*
X26014007Y23221111D01*
X26280841Y23221111D01*
X26547674Y23221111D01*
X26547674Y23513442D01*
X26547674Y23792437D01*
X26700150Y23792437D01*
X26700150Y23519480D01*
X26700150Y23246523D01*
X26865333Y23246523D01*
X27030515Y23246523D01*
X27030515Y23418059D01*
X27030515Y23437119D01*
X27182992Y23437119D01*
X27182992Y23329115D01*
X27182992Y23221111D01*
X27646774Y23221111D01*
X28110555Y23221111D01*
X28110555Y22433317D01*
X28110555Y22191896D01*
X28110555Y21645523D01*
X28548925Y21645523D01*
X28987294Y21645523D01*
X28987294Y22541321D01*
X28987294Y23437119D01*
X28085143Y23437119D01*
X27182992Y23437119D01*
X27030515Y23437119D01*
X27030515Y23589595D01*
X27418059Y23589595D01*
X27805603Y23589595D01*
X27805603Y23894547D01*
X28008905Y23894547D01*
X28008905Y23742071D01*
X28008905Y23589595D01*
X28574337Y23589595D01*
X29139770Y23589595D01*
X29139770Y23437119D01*
X29139770Y23138519D01*
X29139770Y22687444D01*
X29468017Y22687444D01*
X29547360Y22687694D01*
X29628882Y22688522D01*
X29698843Y22689846D01*
X29753781Y22691577D01*
X29790233Y22693629D01*
X29804736Y22695915D01*
X29806348Y22708418D01*
X29807955Y22744016D01*
X29809411Y22800115D01*
X29810683Y22874182D01*
X29811734Y22963683D01*
X29812528Y23066087D01*
X29813031Y23178859D01*
X29813207Y23299467D01*
X29813207Y23894547D01*
X29965683Y23894547D01*
X29965683Y23500650D01*
X29965683Y23106754D01*
X30861481Y23106754D01*
X31757279Y23106754D01*
X31757279Y23240170D01*
X31757279Y23373587D01*
X31382441Y23373587D01*
X31007604Y23373587D01*
X31007604Y23526063D01*
X31160080Y23526063D01*
X32062231Y23526063D01*
X32964382Y23526063D01*
X32964382Y24421861D01*
X32964382Y25317659D01*
X32062231Y25317659D01*
X31160080Y25317659D01*
X31160080Y24421861D01*
X31160080Y24047024D01*
X31160080Y23526063D01*
X31007604Y23526063D01*
X31007604Y23634067D01*
X31007604Y23894547D01*
X30486643Y23894547D01*
X29965683Y23894547D01*
X29813207Y23894547D01*
X28911056Y23894547D01*
X28008905Y23894547D01*
X27805603Y23894547D01*
X27805603Y24313857D01*
X27805603Y25037230D01*
X27958079Y25037230D01*
X27958079Y24542127D01*
X27958079Y24047024D01*
X28714107Y24047024D01*
X29470135Y24047024D01*
X29470135Y24688694D01*
X29470135Y25330365D01*
X29317659Y25330365D01*
X29165183Y25330365D01*
X29165183Y25457429D01*
X29165183Y25584492D01*
X28695300Y25584492D01*
X28225418Y25584492D01*
X28221989Y25314482D01*
X28220415Y25190595D01*
X28218559Y25044472D01*
X28088319Y25040851D01*
X27990055Y25038119D01*
X27958079Y25037230D01*
X27805603Y25037230D01*
X27805603Y25038119D01*
X27557950Y25038119D01*
X27310297Y25038119D01*
X27309395Y24868701D01*
X27307659Y24542571D01*
X27306999Y24418684D01*
X27303737Y23805773D01*
X27303702Y23799250D01*
X27001926Y23795843D01*
X26700150Y23792437D01*
X26547674Y23792437D01*
X26547674Y23805773D01*
X25648699Y23802512D01*
X24749725Y23799250D01*
X24603602Y23799250D01*
X24603602Y23958079D01*
X25327864Y23958079D01*
X26052126Y23958079D01*
X26052126Y24250325D01*
X26052126Y24542571D01*
X25886944Y24542571D01*
X25721761Y24542571D01*
X25721761Y24383845D01*
X25721761Y24225119D01*
X24987969Y24221839D01*
X24254177Y24218559D01*
X23625213Y24218559D01*
X23625213Y25266834D01*
X23625213Y26168985D01*
X23777689Y26168985D01*
X23777689Y25266834D01*
X23777689Y24364682D01*
X24671369Y24364682D01*
X24780962Y24364746D01*
X24924114Y24365029D01*
X25058287Y24365519D01*
X25181426Y24366198D01*
X25291477Y24367046D01*
X25386386Y24368045D01*
X25464099Y24369174D01*
X25522562Y24370415D01*
X25559720Y24371748D01*
X25573520Y24373153D01*
X25573869Y24373912D01*
X25575735Y24392369D01*
X25577447Y24432920D01*
X25578954Y24492756D01*
X25580211Y24569063D01*
X25581168Y24659031D01*
X25581777Y24759848D01*
X25581991Y24868701D01*
X25581991Y25355778D01*
X24876789Y25355778D01*
X24171586Y25355778D01*
X24171586Y25762381D01*
X24171586Y26168985D01*
X23974637Y26168985D01*
X23777689Y26168985D01*
X23625213Y26168985D01*
X23625213Y26321461D01*
X23898399Y26321461D01*
X24171586Y26321461D01*
X24171586Y26893247D01*
X24171586Y27312556D01*
X24324062Y27312556D01*
X24324062Y26410405D01*
X24324062Y25508254D01*
X25219860Y25508254D01*
X26115658Y25508254D01*
X26115658Y25768606D01*
X26115658Y26028958D01*
X25534342Y26032263D01*
X24953027Y26035568D01*
X24952732Y26092746D01*
X26268134Y26092746D01*
X26268134Y25508254D01*
X26268134Y25190595D01*
X27170285Y25190595D01*
X28072436Y25190595D01*
X28072436Y25387544D01*
X28072436Y25584492D01*
X27875488Y25584492D01*
X27678539Y25584492D01*
X27678539Y26289695D01*
X27678539Y26994898D01*
X26973337Y26994898D01*
X26268134Y26994898D01*
X26268134Y26181691D01*
X26268134Y26092746D01*
X24952732Y26092746D01*
X24949733Y26674062D01*
X24946438Y27312556D01*
X24635250Y27312556D01*
X24324062Y27312556D01*
X24171586Y27312556D01*
X24171586Y27465033D01*
X24559130Y27465033D01*
X24946673Y27465033D01*
X24946673Y27801751D01*
X24946673Y27985993D01*
X25099150Y27985993D01*
X25099150Y27083842D01*
X25099150Y26181691D01*
X25607404Y26181691D01*
X26115658Y26181691D01*
X26115658Y26404052D01*
X26115658Y26626413D01*
X25899650Y26626413D01*
X25683642Y26626413D01*
X25683642Y27306203D01*
X25683642Y27985993D01*
X25391396Y27985993D01*
X25099150Y27985993D01*
X24946673Y27985993D01*
X24946673Y28138469D01*
X25315158Y28138469D01*
X25683642Y28138469D01*
X25683642Y28430599D01*
X25683642Y28570485D01*
X25836118Y28570485D01*
X25836118Y27674687D01*
X25836118Y26778890D01*
X25975539Y26778890D01*
X26114960Y26778890D01*
X26118486Y26959955D01*
X26122011Y27141021D01*
X26550851Y27144366D01*
X26936370Y27147374D01*
X27119281Y27147374D01*
X27398910Y27147374D01*
X27678539Y27147374D01*
X27678539Y27414207D01*
X27678539Y27681041D01*
X28040797Y27681041D01*
X28403055Y27681041D01*
X28399752Y28268709D01*
X28396448Y28856378D01*
X27761131Y28856378D01*
X27125813Y28856378D01*
X27124720Y28570485D01*
X27122547Y28001876D01*
X27119281Y27147374D01*
X26936370Y27147374D01*
X26979690Y27147712D01*
X26979690Y27859099D01*
X26979690Y28570485D01*
X26407904Y28570485D01*
X25836118Y28570485D01*
X25683642Y28570485D01*
X25683642Y28722729D01*
X26328489Y28726022D01*
X26973337Y28729315D01*
X26976942Y28865802D01*
X26980548Y29002288D01*
X27026480Y29002501D01*
X28555278Y29002501D01*
X28555278Y28100350D01*
X28555278Y27681041D01*
X28555278Y27198199D01*
X28860230Y27198199D01*
X29165183Y27198199D01*
X29165183Y27287144D01*
X29317659Y27287144D01*
X29317659Y26384993D01*
X29317659Y25482842D01*
X29393634Y25482842D01*
X29469609Y25482842D01*
X29473049Y25740145D01*
X29476488Y25997449D01*
X29759205Y26000869D01*
X30041921Y26004288D01*
X30041921Y26404295D01*
X30041921Y26651826D01*
X30194397Y26651826D01*
X30194397Y26327923D01*
X30194397Y26004021D01*
X30883717Y26000735D01*
X31573037Y25997449D01*
X31576471Y25733792D01*
X31579905Y25470135D01*
X31763890Y25470135D01*
X31947874Y25470135D01*
X31947874Y25749675D01*
X32100350Y25749675D01*
X32100350Y25609905D01*
X32100350Y25470135D01*
X32608604Y25470135D01*
X33116859Y25470135D01*
X33116859Y25317659D01*
X33116859Y24707754D01*
X33116859Y23945373D01*
X33502285Y23945373D01*
X33540095Y23945413D01*
X33633825Y23945880D01*
X33718042Y23946813D01*
X33789566Y23948144D01*
X33845217Y23949805D01*
X33881816Y23951728D01*
X33896182Y23953844D01*
X33897220Y23961607D01*
X33898574Y23992752D01*
X33899841Y24045748D01*
X33901002Y24118540D01*
X33902037Y24209076D01*
X33902927Y24315299D01*
X33903653Y24435157D01*
X33904195Y24566595D01*
X33904535Y24707559D01*
X33904652Y24855995D01*
X33904652Y25749675D01*
X33002501Y25749675D01*
X32100350Y25749675D01*
X31947874Y25749675D01*
X31947874Y25908504D01*
X31947874Y26346874D01*
X31522211Y26346874D01*
X31096548Y26346874D01*
X31096548Y26499350D01*
X31096548Y26651826D01*
X30645473Y26651826D01*
X30194397Y26651826D01*
X30041921Y26651826D01*
X30041921Y26804302D01*
X30569235Y26804302D01*
X31096548Y26804302D01*
X31096548Y27045723D01*
X31096548Y27287144D01*
X30207104Y27287144D01*
X29317659Y27287144D01*
X29165183Y27287144D01*
X29165183Y27318910D01*
X29165183Y27439620D01*
X29533667Y27439620D01*
X29902151Y27439620D01*
X29902151Y28144823D01*
X29902151Y28697549D01*
X30054627Y28697549D01*
X30054627Y28068584D01*
X30054627Y27439620D01*
X30575588Y27439620D01*
X31096548Y27439620D01*
X31096548Y27941521D01*
X31096548Y28290946D01*
X31236318Y28290946D01*
X31236318Y27395148D01*
X31236318Y27287144D01*
X31236318Y26499350D01*
X31592096Y26499350D01*
X31947874Y26499350D01*
X31947874Y26728064D01*
X32557779Y26728064D01*
X32557779Y26315108D01*
X32557779Y25902151D01*
X33301101Y25902151D01*
X34044422Y25902151D01*
X34044422Y25749675D01*
X34044422Y25419310D01*
X34044422Y24936468D01*
X34203252Y24936468D01*
X34362081Y24936468D01*
X34362081Y25832266D01*
X34362081Y26728064D01*
X33459930Y26728064D01*
X32557779Y26728064D01*
X31947874Y26728064D01*
X31947874Y27102902D01*
X31947874Y27706453D01*
X32494247Y27706453D01*
X33040620Y27706453D01*
X33040620Y27998699D01*
X33040620Y28290946D01*
X32138469Y28290946D01*
X31236318Y28290946D01*
X31096548Y28290946D01*
X31096548Y28443422D01*
X31477739Y28443422D01*
X31858930Y28443422D01*
X31858930Y28570485D01*
X31858930Y28697549D01*
X30956779Y28697549D01*
X30054627Y28697549D01*
X29902151Y28697549D01*
X29902151Y28850025D01*
X30124512Y28850025D01*
X30346874Y28850025D01*
X30346874Y28926263D01*
X30346874Y29002501D01*
X29451076Y29002501D01*
X28555278Y29002501D01*
X27026480Y29002501D01*
X27688498Y29005571D01*
X28396448Y29008855D01*
X28400259Y29081916D01*
X28404070Y29154978D01*
X29451710Y29154978D01*
X30499350Y29154978D01*
X30499350Y29002602D01*
X30499350Y29002501D01*
X30499350Y28850227D01*
G37*
G36*
X-27500650Y28850227D02*
G01*
X-26747799Y28846949D01*
X-25994947Y28843672D01*
X-25992392Y28697549D01*
X-25991448Y28643547D01*
X-25987949Y28443422D01*
X-25397426Y28443422D01*
X-24806903Y28443422D01*
X-24806903Y28290946D01*
X-24806903Y28075107D01*
X-24806903Y27706791D01*
X-24378064Y27703446D01*
X-23949224Y27700100D01*
X-23945872Y27290320D01*
X-23942519Y26880540D01*
X-23713981Y26880540D01*
X-23485443Y26880540D01*
X-23485443Y26728064D01*
X-23485443Y25832266D01*
X-23485443Y24783992D01*
X-23714008Y24783992D01*
X-23942573Y24783992D01*
X-23945899Y24291621D01*
X-23949224Y23799250D01*
X-24416183Y23795917D01*
X-24883141Y23792583D01*
X-24883141Y23583085D01*
X-24883141Y23373587D01*
X-25486693Y23373587D01*
X-26090245Y23373587D01*
X-26090245Y23163932D01*
X-26090245Y23106754D01*
X-26090245Y22954277D01*
X-27061966Y22954277D01*
X-28033688Y22954277D01*
X-28037179Y22747799D01*
X-28040670Y22541321D01*
X-28450450Y22537968D01*
X-28860230Y22534616D01*
X-28860230Y22013975D01*
X-28860230Y21493335D01*
X-29371661Y21490014D01*
X-29883091Y21486693D01*
X-29886608Y21299275D01*
X-29890124Y21111856D01*
X-30239209Y21111856D01*
X-30588294Y21111856D01*
X-30588294Y20681958D01*
X-30588429Y20605381D01*
X-30589007Y20509068D01*
X-30589987Y20423159D01*
X-30591311Y20350654D01*
X-30592921Y20294556D01*
X-30594758Y20257867D01*
X-30596765Y20243589D01*
X-30601038Y20242888D01*
X-30627533Y20241617D01*
X-30676535Y20240415D01*
X-30746149Y20239298D01*
X-30834480Y20238280D01*
X-30939632Y20237377D01*
X-31059711Y20236604D01*
X-31192822Y20235977D01*
X-31337069Y20235510D01*
X-31490557Y20235218D01*
X-31651392Y20235118D01*
X-32697549Y20235118D01*
X-32697549Y21041770D01*
X-32697549Y21848423D01*
X-33050150Y21851800D01*
X-33402751Y21855178D01*
X-33406120Y22226839D01*
X-33409488Y22598499D01*
X-33657070Y22598499D01*
X-33904652Y22598499D01*
X-33904652Y23405353D01*
X-33904652Y24212206D01*
X-34139720Y24212206D01*
X-34374787Y24212206D01*
X-34374787Y24218559D01*
X-33745823Y24218559D01*
X-33745823Y23481591D01*
X-33745823Y22744622D01*
X-33579933Y22741094D01*
X-33568561Y22740873D01*
X-33507280Y22740442D01*
X-33456267Y22741319D01*
X-33420566Y22743352D01*
X-33405221Y22746389D01*
X-33403477Y22760002D01*
X-33401818Y22796587D01*
X-33400314Y22853590D01*
X-33399001Y22928490D01*
X-33397917Y23018767D01*
X-33397097Y23121900D01*
X-33396579Y23235366D01*
X-33396398Y23356645D01*
X-33396398Y23799250D01*
X-33250275Y23799250D01*
X-33250275Y22903452D01*
X-33250275Y22007654D01*
X-32973912Y22004230D01*
X-32697549Y22000805D01*
X-32697549Y22172589D01*
X-32697549Y22191896D01*
X-32545072Y22191896D01*
X-32545072Y21289745D01*
X-32545072Y20387594D01*
X-31642921Y20387594D01*
X-30740770Y20387594D01*
X-30740770Y21289745D01*
X-30740770Y22191896D01*
X-31642921Y22191896D01*
X-32545072Y22191896D01*
X-32697549Y22191896D01*
X-32697549Y22344372D01*
X-32341771Y22344372D01*
X-31985993Y22344372D01*
X-31985993Y22782741D01*
X-31985993Y23221111D01*
X-31719159Y23221111D01*
X-31452326Y23221111D01*
X-31452326Y23513442D01*
X-31452326Y23792437D01*
X-31299850Y23792437D01*
X-31299850Y23519480D01*
X-31299850Y23246523D01*
X-31134667Y23246523D01*
X-30969485Y23246523D01*
X-30969485Y23418059D01*
X-30969485Y23437119D01*
X-30817008Y23437119D01*
X-30817008Y23329115D01*
X-30817008Y23221111D01*
X-30353226Y23221111D01*
X-29889445Y23221111D01*
X-29889445Y22433317D01*
X-29889445Y22191896D01*
X-29889445Y21645523D01*
X-29451075Y21645523D01*
X-29012706Y21645523D01*
X-29012706Y22541321D01*
X-29012706Y23437119D01*
X-29914857Y23437119D01*
X-30817008Y23437119D01*
X-30969485Y23437119D01*
X-30969485Y23589595D01*
X-30581941Y23589595D01*
X-30194397Y23589595D01*
X-30194397Y23894547D01*
X-29991095Y23894547D01*
X-29991095Y23742071D01*
X-29991095Y23589595D01*
X-29425663Y23589595D01*
X-28860230Y23589595D01*
X-28860230Y23437119D01*
X-28860230Y23138519D01*
X-28860230Y22687444D01*
X-28531983Y22687444D01*
X-28452640Y22687694D01*
X-28371118Y22688522D01*
X-28301157Y22689846D01*
X-28246219Y22691577D01*
X-28209767Y22693629D01*
X-28195264Y22695915D01*
X-28193652Y22708418D01*
X-28192045Y22744016D01*
X-28190589Y22800115D01*
X-28189317Y22874182D01*
X-28188266Y22963683D01*
X-28187472Y23066087D01*
X-28186969Y23178859D01*
X-28186793Y23299467D01*
X-28186793Y23894547D01*
X-28034317Y23894547D01*
X-28034317Y23500650D01*
X-28034317Y23106754D01*
X-27138519Y23106754D01*
X-26242721Y23106754D01*
X-26242721Y23240170D01*
X-26242721Y23373587D01*
X-26617559Y23373587D01*
X-26992396Y23373587D01*
X-26992396Y23526063D01*
X-26839920Y23526063D01*
X-25937769Y23526063D01*
X-25035618Y23526063D01*
X-25035618Y24421861D01*
X-25035618Y25317659D01*
X-25937769Y25317659D01*
X-26839920Y25317659D01*
X-26839920Y24421861D01*
X-26839920Y24047024D01*
X-26839920Y23526063D01*
X-26992396Y23526063D01*
X-26992396Y23634067D01*
X-26992396Y23894547D01*
X-27513357Y23894547D01*
X-28034317Y23894547D01*
X-28186793Y23894547D01*
X-29088944Y23894547D01*
X-29991095Y23894547D01*
X-30194397Y23894547D01*
X-30194397Y24313857D01*
X-30194397Y25037230D01*
X-30041921Y25037230D01*
X-30041921Y24542127D01*
X-30041921Y24047024D01*
X-29285893Y24047024D01*
X-28529865Y24047024D01*
X-28529865Y24688694D01*
X-28529865Y25330365D01*
X-28682341Y25330365D01*
X-28834817Y25330365D01*
X-28834817Y25457429D01*
X-28834817Y25584492D01*
X-29304700Y25584492D01*
X-29774582Y25584492D01*
X-29778011Y25314482D01*
X-29779585Y25190595D01*
X-29781441Y25044472D01*
X-29911681Y25040851D01*
X-30009945Y25038119D01*
X-30041921Y25037230D01*
X-30194397Y25037230D01*
X-30194397Y25038119D01*
X-30442050Y25038119D01*
X-30689703Y25038119D01*
X-30690605Y24868701D01*
X-30692341Y24542571D01*
X-30693001Y24418684D01*
X-30696263Y23805773D01*
X-30696298Y23799250D01*
X-30998074Y23795843D01*
X-31299850Y23792437D01*
X-31452326Y23792437D01*
X-31452326Y23805773D01*
X-32351301Y23802512D01*
X-33250275Y23799250D01*
X-33396398Y23799250D01*
X-33396398Y23958079D01*
X-32672136Y23958079D01*
X-31947874Y23958079D01*
X-31947874Y24250325D01*
X-31947874Y24542571D01*
X-32113056Y24542571D01*
X-32278239Y24542571D01*
X-32278239Y24383845D01*
X-32278239Y24225119D01*
X-33012031Y24221839D01*
X-33745823Y24218559D01*
X-34374787Y24218559D01*
X-34374787Y25266834D01*
X-34374787Y26168985D01*
X-34222311Y26168985D01*
X-34222311Y25266834D01*
X-34222311Y24364682D01*
X-33328631Y24364682D01*
X-33219038Y24364746D01*
X-33075886Y24365029D01*
X-32941713Y24365519D01*
X-32818574Y24366198D01*
X-32708523Y24367046D01*
X-32613614Y24368045D01*
X-32535901Y24369174D01*
X-32477438Y24370415D01*
X-32440280Y24371748D01*
X-32426480Y24373153D01*
X-32426131Y24373912D01*
X-32424265Y24392369D01*
X-32422553Y24432920D01*
X-32421046Y24492756D01*
X-32419789Y24569063D01*
X-32418832Y24659031D01*
X-32418223Y24759848D01*
X-32418009Y24868701D01*
X-32418009Y25355778D01*
X-33123211Y25355778D01*
X-33828414Y25355778D01*
X-33828414Y25762381D01*
X-33828414Y26168985D01*
X-34025363Y26168985D01*
X-34222311Y26168985D01*
X-34374787Y26168985D01*
X-34374787Y26321461D01*
X-34101601Y26321461D01*
X-33828414Y26321461D01*
X-33828414Y26893247D01*
X-33828414Y27312556D01*
X-33675938Y27312556D01*
X-33675938Y26410405D01*
X-33675938Y25508254D01*
X-32780140Y25508254D01*
X-31884342Y25508254D01*
X-31884342Y25768606D01*
X-31884342Y26028958D01*
X-32465658Y26032263D01*
X-33046973Y26035568D01*
X-33047268Y26092746D01*
X-31731866Y26092746D01*
X-31731866Y25508254D01*
X-31731866Y25190595D01*
X-30829715Y25190595D01*
X-29927564Y25190595D01*
X-29927564Y25387544D01*
X-29927564Y25584492D01*
X-30124512Y25584492D01*
X-30321461Y25584492D01*
X-30321461Y26289695D01*
X-30321461Y26994898D01*
X-31026663Y26994898D01*
X-31731866Y26994898D01*
X-31731866Y26181691D01*
X-31731866Y26092746D01*
X-33047268Y26092746D01*
X-33050267Y26674062D01*
X-33053562Y27312556D01*
X-33364750Y27312556D01*
X-33675938Y27312556D01*
X-33828414Y27312556D01*
X-33828414Y27465033D01*
X-33440870Y27465033D01*
X-33053327Y27465033D01*
X-33053327Y27801751D01*
X-33053327Y27985993D01*
X-32900850Y27985993D01*
X-32900850Y27083842D01*
X-32900850Y26181691D01*
X-32392596Y26181691D01*
X-31884342Y26181691D01*
X-31884342Y26404052D01*
X-31884342Y26626413D01*
X-32100350Y26626413D01*
X-32316358Y26626413D01*
X-32316358Y27306203D01*
X-32316358Y27985993D01*
X-32608604Y27985993D01*
X-32900850Y27985993D01*
X-33053327Y27985993D01*
X-33053327Y28138469D01*
X-32684842Y28138469D01*
X-32316358Y28138469D01*
X-32316358Y28430599D01*
X-32316358Y28570485D01*
X-32163882Y28570485D01*
X-32163882Y27674687D01*
X-32163882Y26778890D01*
X-32024461Y26778890D01*
X-31885040Y26778890D01*
X-31881514Y26959955D01*
X-31877989Y27141021D01*
X-31449149Y27144366D01*
X-31063630Y27147374D01*
X-30880719Y27147374D01*
X-30601090Y27147374D01*
X-30321461Y27147374D01*
X-30321461Y27414207D01*
X-30321461Y27681041D01*
X-29959203Y27681041D01*
X-29596945Y27681041D01*
X-29600248Y28268709D01*
X-29603552Y28856378D01*
X-30238869Y28856378D01*
X-30874187Y28856378D01*
X-30875280Y28570485D01*
X-30877453Y28001876D01*
X-30880719Y27147374D01*
X-31063630Y27147374D01*
X-31020310Y27147712D01*
X-31020310Y27859099D01*
X-31020310Y28570485D01*
X-31592096Y28570485D01*
X-32163882Y28570485D01*
X-32316358Y28570485D01*
X-32316358Y28722729D01*
X-31671511Y28726022D01*
X-31026663Y28729315D01*
X-31023058Y28865802D01*
X-31019452Y29002288D01*
X-30973520Y29002501D01*
X-29444722Y29002501D01*
X-29444722Y28100350D01*
X-29444722Y27681041D01*
X-29444722Y27198199D01*
X-29139770Y27198199D01*
X-28834817Y27198199D01*
X-28834817Y27287144D01*
X-28682341Y27287144D01*
X-28682341Y26384993D01*
X-28682341Y25482842D01*
X-28606366Y25482842D01*
X-28530391Y25482842D01*
X-28526951Y25740145D01*
X-28523512Y25997449D01*
X-28240795Y26000869D01*
X-27958079Y26004288D01*
X-27958079Y26404295D01*
X-27958079Y26651826D01*
X-27805603Y26651826D01*
X-27805603Y26327923D01*
X-27805603Y26004021D01*
X-27116283Y26000735D01*
X-26426963Y25997449D01*
X-26423529Y25733792D01*
X-26420095Y25470135D01*
X-26236110Y25470135D01*
X-26052126Y25470135D01*
X-26052126Y25749675D01*
X-25899650Y25749675D01*
X-25899650Y25609905D01*
X-25899650Y25470135D01*
X-25391396Y25470135D01*
X-24883141Y25470135D01*
X-24883141Y25317659D01*
X-24883141Y24707754D01*
X-24883141Y23945373D01*
X-24497715Y23945373D01*
X-24459905Y23945413D01*
X-24366175Y23945880D01*
X-24281958Y23946813D01*
X-24210434Y23948144D01*
X-24154783Y23949805D01*
X-24118184Y23951728D01*
X-24103818Y23953844D01*
X-24102780Y23961607D01*
X-24101426Y23992752D01*
X-24100159Y24045748D01*
X-24098998Y24118540D01*
X-24097963Y24209076D01*
X-24097073Y24315299D01*
X-24096347Y24435157D01*
X-24095805Y24566595D01*
X-24095465Y24707559D01*
X-24095348Y24855995D01*
X-24095348Y25749675D01*
X-24997499Y25749675D01*
X-25899650Y25749675D01*
X-26052126Y25749675D01*
X-26052126Y25908504D01*
X-26052126Y26346874D01*
X-26477789Y26346874D01*
X-26903452Y26346874D01*
X-26903452Y26499350D01*
X-26903452Y26651826D01*
X-27354527Y26651826D01*
X-27805603Y26651826D01*
X-27958079Y26651826D01*
X-27958079Y26804302D01*
X-27430765Y26804302D01*
X-26903452Y26804302D01*
X-26903452Y27045723D01*
X-26903452Y27287144D01*
X-27792896Y27287144D01*
X-28682341Y27287144D01*
X-28834817Y27287144D01*
X-28834817Y27318910D01*
X-28834817Y27439620D01*
X-28466333Y27439620D01*
X-28097849Y27439620D01*
X-28097849Y28144823D01*
X-28097849Y28697549D01*
X-27945373Y28697549D01*
X-27945373Y28068584D01*
X-27945373Y27439620D01*
X-27424412Y27439620D01*
X-26903452Y27439620D01*
X-26903452Y27941521D01*
X-26903452Y28290946D01*
X-26763682Y28290946D01*
X-26763682Y27395148D01*
X-26763682Y27287144D01*
X-26763682Y26499350D01*
X-26407904Y26499350D01*
X-26052126Y26499350D01*
X-26052126Y26728064D01*
X-25442221Y26728064D01*
X-25442221Y26315108D01*
X-25442221Y25902151D01*
X-24698899Y25902151D01*
X-23955578Y25902151D01*
X-23955578Y25749675D01*
X-23955578Y25419310D01*
X-23955578Y24936468D01*
X-23796748Y24936468D01*
X-23637919Y24936468D01*
X-23637919Y25832266D01*
X-23637919Y26728064D01*
X-24540070Y26728064D01*
X-25442221Y26728064D01*
X-26052126Y26728064D01*
X-26052126Y27102902D01*
X-26052126Y27706453D01*
X-25505753Y27706453D01*
X-24959380Y27706453D01*
X-24959380Y27998699D01*
X-24959380Y28290946D01*
X-25861531Y28290946D01*
X-26763682Y28290946D01*
X-26903452Y28290946D01*
X-26903452Y28443422D01*
X-26522261Y28443422D01*
X-26141070Y28443422D01*
X-26141070Y28570485D01*
X-26141070Y28697549D01*
X-27043221Y28697549D01*
X-27945373Y28697549D01*
X-28097849Y28697549D01*
X-28097849Y28850025D01*
X-27875488Y28850025D01*
X-27653126Y28850025D01*
X-27653126Y28926263D01*
X-27653126Y29002501D01*
X-28548924Y29002501D01*
X-29444722Y29002501D01*
X-30973520Y29002501D01*
X-30311502Y29005571D01*
X-29603552Y29008855D01*
X-29599741Y29081916D01*
X-29595930Y29154978D01*
X-28548290Y29154978D01*
X-27500650Y29154978D01*
X-27500650Y29002602D01*
X-27500650Y29002501D01*
X-27500650Y28850227D01*
G37*
M02*
