M48
INCH,TZ
T1C0.0118
T2C0.0433
T3C0.0512
%
G90
G05
T1
X-9252Y6299
X-5598Y9929
X5610Y9941
X10630Y4921
T2
X-20110Y9055
X-19110Y9055
X-18110Y9055
X-17748Y5421
X-17748Y4421
X-17110Y9055
X-16748Y5421
X-16748Y4421
X-16110Y9055
X-15748Y5421
X-15748Y4421
X-14748Y5421
X-14748Y4421
X-13748Y5421
X-13748Y4421
X13748Y5421
X13748Y4421
X14748Y5421
X14748Y4421
X15748Y5421
X15748Y4421
X16110Y9055
X16748Y5421
X16748Y4421
X17110Y9055
X17748Y5421
X17748Y4421
X18110Y9055
X19110Y9055
X20110Y9055
T3
X-1500Y9158
X-500Y9158
X500Y9158
X1500Y9158
M30
