G04 #@! TF.GenerationSoftware,KiCad,Pcbnew,(5.99.0-11065-g2a3d8e22b6)*
G04 #@! TF.CreationDate,2021-07-02T10:55:01+01:00*
G04 #@! TF.ProjectId,NB3_power,4e42335f-706f-4776-9572-2e6b69636164,0.0.2*
G04 #@! TF.SameCoordinates,PX7bfa480PY7bfa480*
G04 #@! TF.FileFunction,Legend,Bot*
G04 #@! TF.FilePolarity,Positive*
%FSLAX46Y46*%
G04 Gerber Fmt 4.6, Leading zero omitted, Abs format (unit mm)*
G04 Created by KiCad (PCBNEW (5.99.0-11065-g2a3d8e22b6)) date 2021-07-02 10:55:01*
%MOMM*%
%LPD*%
G01*
G04 APERTURE LIST*
%ADD10C,0.150000*%
%ADD11C,0.010000*%
G04 APERTURE END LIST*
D10*
X15309523Y2852620D02*
X15309523Y3852620D01*
X14738095Y2852620D01*
X14738095Y3852620D01*
X13928571Y3376429D02*
X13785714Y3328810D01*
X13738095Y3281191D01*
X13690476Y3185953D01*
X13690476Y3043096D01*
X13738095Y2947858D01*
X13785714Y2900239D01*
X13880952Y2852620D01*
X14261904Y2852620D01*
X14261904Y3852620D01*
X13928571Y3852620D01*
X13833333Y3805000D01*
X13785714Y3757381D01*
X13738095Y3662143D01*
X13738095Y3566905D01*
X13785714Y3471667D01*
X13833333Y3424048D01*
X13928571Y3376429D01*
X14261904Y3376429D01*
X13357142Y3852620D02*
X12738095Y3852620D01*
X13071428Y3471667D01*
X12928571Y3471667D01*
X12833333Y3424048D01*
X12785714Y3376429D01*
X12738095Y3281191D01*
X12738095Y3043096D01*
X12785714Y2947858D01*
X12833333Y2900239D01*
X12928571Y2852620D01*
X13214285Y2852620D01*
X13309523Y2900239D01*
X13357142Y2947858D01*
X12547619Y2757381D02*
X11785714Y2757381D01*
X11547619Y3519286D02*
X11547619Y2519286D01*
X11547619Y3471667D02*
X11452380Y3519286D01*
X11261904Y3519286D01*
X11166666Y3471667D01*
X11119047Y3424048D01*
X11071428Y3328810D01*
X11071428Y3043096D01*
X11119047Y2947858D01*
X11166666Y2900239D01*
X11261904Y2852620D01*
X11452380Y2852620D01*
X11547619Y2900239D01*
X10500000Y2852620D02*
X10595238Y2900239D01*
X10642857Y2947858D01*
X10690476Y3043096D01*
X10690476Y3328810D01*
X10642857Y3424048D01*
X10595238Y3471667D01*
X10500000Y3519286D01*
X10357142Y3519286D01*
X10261904Y3471667D01*
X10214285Y3424048D01*
X10166666Y3328810D01*
X10166666Y3043096D01*
X10214285Y2947858D01*
X10261904Y2900239D01*
X10357142Y2852620D01*
X10500000Y2852620D01*
X9833333Y3519286D02*
X9642857Y2852620D01*
X9452380Y3328810D01*
X9261904Y2852620D01*
X9071428Y3519286D01*
X8309523Y2900239D02*
X8404761Y2852620D01*
X8595238Y2852620D01*
X8690476Y2900239D01*
X8738095Y2995477D01*
X8738095Y3376429D01*
X8690476Y3471667D01*
X8595238Y3519286D01*
X8404761Y3519286D01*
X8309523Y3471667D01*
X8261904Y3376429D01*
X8261904Y3281191D01*
X8738095Y3185953D01*
X7833333Y2852620D02*
X7833333Y3519286D01*
X7833333Y3328810D02*
X7785714Y3424048D01*
X7738095Y3471667D01*
X7642857Y3519286D01*
X7547619Y3519286D01*
X14285714Y1242620D02*
X14619047Y1718810D01*
X14857142Y1242620D02*
X14857142Y2242620D01*
X14476190Y2242620D01*
X14380952Y2195000D01*
X14333333Y2147381D01*
X14285714Y2052143D01*
X14285714Y1909286D01*
X14333333Y1814048D01*
X14380952Y1766429D01*
X14476190Y1718810D01*
X14857142Y1718810D01*
X13476190Y1290239D02*
X13571428Y1242620D01*
X13761904Y1242620D01*
X13857142Y1290239D01*
X13904761Y1385477D01*
X13904761Y1766429D01*
X13857142Y1861667D01*
X13761904Y1909286D01*
X13571428Y1909286D01*
X13476190Y1861667D01*
X13428571Y1766429D01*
X13428571Y1671191D01*
X13904761Y1575953D01*
X13095238Y1909286D02*
X12857142Y1242620D01*
X12619047Y1909286D01*
X11285714Y2242620D02*
X11190476Y2242620D01*
X11095238Y2195000D01*
X11047619Y2147381D01*
X11000000Y2052143D01*
X10952380Y1861667D01*
X10952380Y1623572D01*
X11000000Y1433096D01*
X11047619Y1337858D01*
X11095238Y1290239D01*
X11190476Y1242620D01*
X11285714Y1242620D01*
X11380952Y1290239D01*
X11428571Y1337858D01*
X11476190Y1433096D01*
X11523809Y1623572D01*
X11523809Y1861667D01*
X11476190Y2052143D01*
X11428571Y2147381D01*
X11380952Y2195000D01*
X11285714Y2242620D01*
X10523809Y1337858D02*
X10476190Y1290239D01*
X10523809Y1242620D01*
X10571428Y1290239D01*
X10523809Y1337858D01*
X10523809Y1242620D01*
X9857142Y2242620D02*
X9761904Y2242620D01*
X9666666Y2195000D01*
X9619047Y2147381D01*
X9571428Y2052143D01*
X9523809Y1861667D01*
X9523809Y1623572D01*
X9571428Y1433096D01*
X9619047Y1337858D01*
X9666666Y1290239D01*
X9761904Y1242620D01*
X9857142Y1242620D01*
X9952380Y1290239D01*
X10000000Y1337858D01*
X10047619Y1433096D01*
X10095238Y1623572D01*
X10095238Y1861667D01*
X10047619Y2052143D01*
X10000000Y2147381D01*
X9952380Y2195000D01*
X9857142Y2242620D01*
X9095238Y1337858D02*
X9047619Y1290239D01*
X9095238Y1242620D01*
X9142857Y1290239D01*
X9095238Y1337858D01*
X9095238Y1242620D01*
X8666666Y2147381D02*
X8619047Y2195000D01*
X8523809Y2242620D01*
X8285714Y2242620D01*
X8190476Y2195000D01*
X8142857Y2147381D01*
X8095238Y2052143D01*
X8095238Y1956905D01*
X8142857Y1814048D01*
X8714285Y1242620D01*
X8095238Y1242620D01*
D11*
X35488875Y17116000D02*
X35477898Y17088795D01*
X35477898Y17088795D02*
X35451213Y17018159D01*
X35451213Y17018159D02*
X35409996Y16907309D01*
X35409996Y16907309D02*
X35355427Y16759462D01*
X35355427Y16759462D02*
X35288682Y16577834D01*
X35288682Y16577834D02*
X35210940Y16365642D01*
X35210940Y16365642D02*
X35123379Y16126101D01*
X35123379Y16126101D02*
X35027175Y15862430D01*
X35027175Y15862430D02*
X34923507Y15577843D01*
X34923507Y15577843D02*
X34813553Y15275558D01*
X34813553Y15275558D02*
X34698491Y14958791D01*
X34698491Y14958791D02*
X34643466Y14807158D01*
X34643466Y14807158D02*
X34526671Y14485707D01*
X34526671Y14485707D02*
X34414495Y14177948D01*
X34414495Y14177948D02*
X34308104Y13887026D01*
X34308104Y13887026D02*
X34208663Y13616084D01*
X34208663Y13616084D02*
X34117339Y13368267D01*
X34117339Y13368267D02*
X34035297Y13146719D01*
X34035297Y13146719D02*
X33963703Y12954584D01*
X33963703Y12954584D02*
X33903723Y12795006D01*
X33903723Y12795006D02*
X33856523Y12671128D01*
X33856523Y12671128D02*
X33823268Y12586095D01*
X33823268Y12586095D02*
X33805125Y12543051D01*
X33805125Y12543051D02*
X33802113Y12538234D01*
X33802113Y12538234D02*
X33790033Y12561736D01*
X33790033Y12561736D02*
X33759219Y12627345D01*
X33759219Y12627345D02*
X33711122Y12731852D01*
X33711122Y12731852D02*
X33647191Y12872046D01*
X33647191Y12872046D02*
X33568877Y13044719D01*
X33568877Y13044719D02*
X33477630Y13246659D01*
X33477630Y13246659D02*
X33374900Y13474657D01*
X33374900Y13474657D02*
X33262138Y13725504D01*
X33262138Y13725504D02*
X33140794Y13995988D01*
X33140794Y13995988D02*
X33012319Y14282901D01*
X33012319Y14282901D02*
X32878163Y14583032D01*
X32878163Y14583032D02*
X32872549Y14595602D01*
X32872549Y14595602D02*
X32738086Y14896046D01*
X32738086Y14896046D02*
X32608994Y15183211D01*
X32608994Y15183211D02*
X32486742Y15453904D01*
X32486742Y15453904D02*
X32372798Y15704932D01*
X32372798Y15704932D02*
X32268630Y15933102D01*
X32268630Y15933102D02*
X32175707Y16135220D01*
X32175707Y16135220D02*
X32095496Y16308095D01*
X32095496Y16308095D02*
X32029467Y16448532D01*
X32029467Y16448532D02*
X31979086Y16553339D01*
X31979086Y16553339D02*
X31945823Y16619323D01*
X31945823Y16619323D02*
X31931146Y16643291D01*
X31931146Y16643291D02*
X31930953Y16643331D01*
X31930953Y16643331D02*
X31900053Y16632217D01*
X31900053Y16632217D02*
X31833244Y16601511D01*
X31833244Y16601511D02*
X31737136Y16554666D01*
X31737136Y16554666D02*
X31618338Y16495137D01*
X31618338Y16495137D02*
X31483458Y16426375D01*
X31483458Y16426375D02*
X31339107Y16351836D01*
X31339107Y16351836D02*
X31191892Y16274971D01*
X31191892Y16274971D02*
X31048424Y16199235D01*
X31048424Y16199235D02*
X30915312Y16128080D01*
X30915312Y16128080D02*
X30799164Y16064960D01*
X30799164Y16064960D02*
X30706589Y16013329D01*
X30706589Y16013329D02*
X30644198Y15976640D01*
X30644198Y15976640D02*
X30618598Y15958345D01*
X30618598Y15958345D02*
X30618323Y15957465D01*
X30618323Y15957465D02*
X30630732Y15933410D01*
X30630732Y15933410D02*
X30665733Y15868920D01*
X30665733Y15868920D02*
X30721732Y15766872D01*
X30721732Y15766872D02*
X30797133Y15630143D01*
X30797133Y15630143D02*
X30890341Y15461610D01*
X30890341Y15461610D02*
X30999760Y15264152D01*
X30999760Y15264152D02*
X31123795Y15040644D01*
X31123795Y15040644D02*
X31260849Y14793965D01*
X31260849Y14793965D02*
X31409329Y14526992D01*
X31409329Y14526992D02*
X31567637Y14242603D01*
X31567637Y14242603D02*
X31734179Y13943674D01*
X31734179Y13943674D02*
X31879154Y13683650D01*
X31879154Y13683650D02*
X32051134Y13375084D01*
X32051134Y13375084D02*
X32216009Y13078852D01*
X32216009Y13078852D02*
X32372202Y12797809D01*
X32372202Y12797809D02*
X32518137Y12534810D01*
X32518137Y12534810D02*
X32652238Y12292709D01*
X32652238Y12292709D02*
X32772929Y12074362D01*
X32772929Y12074362D02*
X32878632Y11882623D01*
X32878632Y11882623D02*
X32967773Y11720347D01*
X32967773Y11720347D02*
X33038774Y11590389D01*
X33038774Y11590389D02*
X33090058Y11495603D01*
X33090058Y11495603D02*
X33120051Y11438845D01*
X33120051Y11438845D02*
X33127629Y11422633D01*
X33127629Y11422633D02*
X33103513Y11429331D01*
X33103513Y11429331D02*
X33035483Y11450911D01*
X33035483Y11450911D02*
X32926612Y11486348D01*
X32926612Y11486348D02*
X32779976Y11534618D01*
X32779976Y11534618D02*
X32598650Y11594696D01*
X32598650Y11594696D02*
X32385708Y11665557D01*
X32385708Y11665557D02*
X32144225Y11746177D01*
X32144225Y11746177D02*
X31877276Y11835529D01*
X31877276Y11835529D02*
X31587937Y11932590D01*
X31587937Y11932590D02*
X31279281Y12036334D01*
X31279281Y12036334D02*
X30954383Y12145736D01*
X30954383Y12145736D02*
X30638965Y12252128D01*
X30638965Y12252128D02*
X30301639Y12365892D01*
X30301639Y12365892D02*
X29977654Y12474946D01*
X29977654Y12474946D02*
X29670088Y12578265D01*
X29670088Y12578265D02*
X29382018Y12674823D01*
X29382018Y12674823D02*
X29116522Y12763598D01*
X29116522Y12763598D02*
X28876677Y12843563D01*
X28876677Y12843563D02*
X28665560Y12913696D01*
X28665560Y12913696D02*
X28486250Y12972971D01*
X28486250Y12972971D02*
X28341824Y13020365D01*
X28341824Y13020365D02*
X28235358Y13054852D01*
X28235358Y13054852D02*
X28169932Y13075408D01*
X28169932Y13075408D02*
X28148608Y13081121D01*
X28148608Y13081121D02*
X28139855Y13053881D01*
X28139855Y13053881D02*
X28124398Y12985513D01*
X28124398Y12985513D02*
X28103572Y12883484D01*
X28103572Y12883484D02*
X28078711Y12755263D01*
X28078711Y12755263D02*
X28051151Y12608317D01*
X28051151Y12608317D02*
X28022224Y12450115D01*
X28022224Y12450115D02*
X27993267Y12288125D01*
X27993267Y12288125D02*
X27965612Y12129813D01*
X27965612Y12129813D02*
X27940596Y11982650D01*
X27940596Y11982650D02*
X27919552Y11854102D01*
X27919552Y11854102D02*
X27903815Y11751637D01*
X27903815Y11751637D02*
X27894720Y11682724D01*
X27894720Y11682724D02*
X27893600Y11654830D01*
X27893600Y11654830D02*
X27893708Y11654701D01*
X27893708Y11654701D02*
X27919708Y11647104D01*
X27919708Y11647104D02*
X27990843Y11629235D01*
X27990843Y11629235D02*
X28103877Y11601852D01*
X28103877Y11601852D02*
X28255578Y11565710D01*
X28255578Y11565710D02*
X28442710Y11521566D01*
X28442710Y11521566D02*
X28662040Y11470175D01*
X28662040Y11470175D02*
X28910334Y11412296D01*
X28910334Y11412296D02*
X29184357Y11348682D01*
X29184357Y11348682D02*
X29480875Y11280091D01*
X29480875Y11280091D02*
X29796655Y11207280D01*
X29796655Y11207280D02*
X30128462Y11131003D01*
X30128462Y11131003D02*
X30378516Y11073666D01*
X30378516Y11073666D02*
X30719774Y10995447D01*
X30719774Y10995447D02*
X31047247Y10920289D01*
X31047247Y10920289D02*
X31357713Y10848935D01*
X31357713Y10848935D02*
X31647952Y10782131D01*
X31647952Y10782131D02*
X31914740Y10720621D01*
X31914740Y10720621D02*
X32154858Y10665151D01*
X32154858Y10665151D02*
X32365083Y10616465D01*
X32365083Y10616465D02*
X32542194Y10575307D01*
X32542194Y10575307D02*
X32682969Y10542424D01*
X32682969Y10542424D02*
X32784187Y10518559D01*
X32784187Y10518559D02*
X32842626Y10504458D01*
X32842626Y10504458D02*
X32856428Y10500753D01*
X32856428Y10500753D02*
X32848312Y10477369D01*
X32848312Y10477369D02*
X32822041Y10411377D01*
X32822041Y10411377D02*
X32778889Y10305819D01*
X32778889Y10305819D02*
X32720129Y10163733D01*
X32720129Y10163733D02*
X32647033Y9988161D01*
X32647033Y9988161D02*
X32560875Y9782142D01*
X32560875Y9782142D02*
X32462927Y9548716D01*
X32462927Y9548716D02*
X32354463Y9290923D01*
X32354463Y9290923D02*
X32236756Y9011804D01*
X32236756Y9011804D02*
X32111079Y8714398D01*
X32111079Y8714398D02*
X31978704Y8401745D01*
X31978704Y8401745D02*
X31879257Y8167238D01*
X31879257Y8167238D02*
X31742547Y7844838D01*
X31742547Y7844838D02*
X31611397Y7535083D01*
X31611397Y7535083D02*
X31487101Y7241055D01*
X31487101Y7241055D02*
X31370952Y6965835D01*
X31370952Y6965835D02*
X31264245Y6712504D01*
X31264245Y6712504D02*
X31168273Y6484144D01*
X31168273Y6484144D02*
X31084330Y6283836D01*
X31084330Y6283836D02*
X31013710Y6114662D01*
X31013710Y6114662D02*
X30957707Y5979702D01*
X30957707Y5979702D02*
X30917613Y5882039D01*
X30917613Y5882039D02*
X30894724Y5824752D01*
X30894724Y5824752D02*
X30889626Y5810274D01*
X30889626Y5810274D02*
X30910527Y5792011D01*
X30910527Y5792011D02*
X30971015Y5755734D01*
X30971015Y5755734D02*
X31065668Y5704290D01*
X31065668Y5704290D02*
X31189065Y5640530D01*
X31189065Y5640530D02*
X31335783Y5567302D01*
X31335783Y5567302D02*
X31500401Y5487456D01*
X31500401Y5487456D02*
X31538639Y5469209D01*
X31538639Y5469209D02*
X31704611Y5390344D01*
X31704611Y5390344D02*
X31855383Y5318893D01*
X31855383Y5318893D02*
X31985334Y5257504D01*
X31985334Y5257504D02*
X32088843Y5208827D01*
X32088843Y5208827D02*
X32160288Y5175510D01*
X32160288Y5175510D02*
X32194049Y5160202D01*
X32194049Y5160202D02*
X32195963Y5159498D01*
X32195963Y5159498D02*
X32203951Y5182716D01*
X32203951Y5182716D02*
X32225694Y5250223D01*
X32225694Y5250223D02*
X32260227Y5358935D01*
X32260227Y5358935D02*
X32306581Y5505769D01*
X32306581Y5505769D02*
X32363791Y5687640D01*
X32363791Y5687640D02*
X32430890Y5901463D01*
X32430890Y5901463D02*
X32506909Y6144155D01*
X32506909Y6144155D02*
X32590883Y6412630D01*
X32590883Y6412630D02*
X32681844Y6703805D01*
X32681844Y6703805D02*
X32778826Y7014596D01*
X32778826Y7014596D02*
X32880860Y7341917D01*
X32880860Y7341917D02*
X32981406Y7664772D01*
X32981406Y7664772D02*
X33087423Y8004935D01*
X33087423Y8004935D02*
X33189451Y8331476D01*
X33189451Y8331476D02*
X33286510Y8641309D01*
X33286510Y8641309D02*
X33377625Y8931351D01*
X33377625Y8931351D02*
X33461818Y9198518D01*
X33461818Y9198518D02*
X33538111Y9439726D01*
X33538111Y9439726D02*
X33605527Y9651891D01*
X33605527Y9651891D02*
X33663088Y9831930D01*
X33663088Y9831930D02*
X33709817Y9976757D01*
X33709817Y9976757D02*
X33744736Y10083290D01*
X33744736Y10083290D02*
X33766869Y10148444D01*
X33766869Y10148444D02*
X33775156Y10169204D01*
X33775156Y10169204D02*
X33787266Y10147101D01*
X33787266Y10147101D02*
X33818763Y10082911D01*
X33818763Y10082911D02*
X33868258Y9979599D01*
X33868258Y9979599D02*
X33934364Y9840130D01*
X33934364Y9840130D02*
X34015692Y9667466D01*
X34015692Y9667466D02*
X34110854Y9464572D01*
X34110854Y9464572D02*
X34218462Y9234412D01*
X34218462Y9234412D02*
X34337127Y8979950D01*
X34337127Y8979950D02*
X34465461Y8704149D01*
X34465461Y8704149D02*
X34602077Y8409975D01*
X34602077Y8409975D02*
X34745585Y8100389D01*
X34745585Y8100389D02*
X34868164Y7835525D01*
X34868164Y7835525D02*
X35016541Y7515139D01*
X35016541Y7515139D02*
X35159406Y7207536D01*
X35159406Y7207536D02*
X35295350Y6915702D01*
X35295350Y6915702D02*
X35422966Y6642619D01*
X35422966Y6642619D02*
X35540845Y6391272D01*
X35540845Y6391272D02*
X35647578Y6164646D01*
X35647578Y6164646D02*
X35741758Y5965725D01*
X35741758Y5965725D02*
X35821976Y5797493D01*
X35821976Y5797493D02*
X35886824Y5662934D01*
X35886824Y5662934D02*
X35934894Y5565033D01*
X35934894Y5565033D02*
X35964777Y5506774D01*
X35964777Y5506774D02*
X35974710Y5490680D01*
X35974710Y5490680D02*
X36002946Y5498638D01*
X36002946Y5498638D02*
X36069494Y5526809D01*
X36069494Y5526809D02*
X36168663Y5572495D01*
X36168663Y5572495D02*
X36294764Y5632998D01*
X36294764Y5632998D02*
X36442106Y5705617D01*
X36442106Y5705617D02*
X36605000Y5787655D01*
X36605000Y5787655D02*
X36660381Y5815916D01*
X36660381Y5815916D02*
X37318511Y6152839D01*
X37318511Y6152839D02*
X36204779Y8076433D01*
X36204779Y8076433D02*
X36007104Y8417813D01*
X36007104Y8417813D02*
X35832828Y8718751D01*
X35832828Y8718751D02*
X35680531Y8981761D01*
X35680531Y8981761D02*
X35548796Y9209355D01*
X35548796Y9209355D02*
X35436203Y9404049D01*
X35436203Y9404049D02*
X35341335Y9568355D01*
X35341335Y9568355D02*
X35262773Y9704787D01*
X35262773Y9704787D02*
X35199099Y9815860D01*
X35199099Y9815860D02*
X35148893Y9904086D01*
X35148893Y9904086D02*
X35110738Y9971980D01*
X35110738Y9971980D02*
X35083215Y10022055D01*
X35083215Y10022055D02*
X35064906Y10056825D01*
X35064906Y10056825D02*
X35054392Y10078803D01*
X35054392Y10078803D02*
X35050255Y10090504D01*
X35050255Y10090504D02*
X35051076Y10094442D01*
X35051076Y10094442D02*
X35055436Y10093129D01*
X35055436Y10093129D02*
X35061918Y10089079D01*
X35061918Y10089079D02*
X35069103Y10084807D01*
X35069103Y10084807D02*
X35072229Y10083468D01*
X35072229Y10083468D02*
X35112143Y10071240D01*
X35112143Y10071240D02*
X35194652Y10047053D01*
X35194652Y10047053D02*
X35315793Y10012028D01*
X35315793Y10012028D02*
X35471607Y9967285D01*
X35471607Y9967285D02*
X35658131Y9913942D01*
X35658131Y9913942D02*
X35871404Y9853121D01*
X35871404Y9853121D02*
X36107464Y9785941D01*
X36107464Y9785941D02*
X36362350Y9713522D01*
X36362350Y9713522D02*
X36632100Y9636983D01*
X36632100Y9636983D02*
X36912752Y9557446D01*
X36912752Y9557446D02*
X37200346Y9476029D01*
X37200346Y9476029D02*
X37490920Y9393853D01*
X37490920Y9393853D02*
X37780511Y9312037D01*
X37780511Y9312037D02*
X38065160Y9231701D01*
X38065160Y9231701D02*
X38340903Y9153966D01*
X38340903Y9153966D02*
X38603781Y9079950D01*
X38603781Y9079950D02*
X38849830Y9010775D01*
X38849830Y9010775D02*
X39075090Y8947560D01*
X39075090Y8947560D02*
X39275599Y8891424D01*
X39275599Y8891424D02*
X39447396Y8843488D01*
X39447396Y8843488D02*
X39586518Y8804872D01*
X39586518Y8804872D02*
X39689006Y8776695D01*
X39689006Y8776695D02*
X39750896Y8760078D01*
X39750896Y8760078D02*
X39768507Y8755859D01*
X39768507Y8755859D02*
X39800812Y8773117D01*
X39800812Y8773117D02*
X39804745Y8786865D01*
X39804745Y8786865D02*
X39808964Y8817345D01*
X39808964Y8817345D02*
X39820820Y8891341D01*
X39820820Y8891341D02*
X39839408Y9003501D01*
X39839408Y9003501D02*
X39863825Y9148471D01*
X39863825Y9148471D02*
X39893168Y9320901D01*
X39893168Y9320901D02*
X39926533Y9515436D01*
X39926533Y9515436D02*
X39963017Y9726725D01*
X39963017Y9726725D02*
X39977298Y9809071D01*
X39977298Y9809071D02*
X40014477Y10024008D01*
X40014477Y10024008D02*
X40048649Y10223140D01*
X40048649Y10223140D02*
X40078947Y10401297D01*
X40078947Y10401297D02*
X40104505Y10553312D01*
X40104505Y10553312D02*
X40124456Y10674015D01*
X40124456Y10674015D02*
X40125480Y10680415D01*
X40125480Y10680415D02*
X39971604Y10680415D01*
X39971604Y10680415D02*
X39969331Y10655034D01*
X39969331Y10655034D02*
X39959356Y10586377D01*
X39959356Y10586377D02*
X39942589Y10480021D01*
X39942589Y10480021D02*
X39919941Y10341546D01*
X39919941Y10341546D02*
X39892324Y10176529D01*
X39892324Y10176529D02*
X39860648Y9990551D01*
X39860648Y9990551D02*
X39829867Y9812416D01*
X39829867Y9812416D02*
X39795116Y9612289D01*
X39795116Y9612289D02*
X39763222Y9428017D01*
X39763222Y9428017D02*
X39735150Y9265213D01*
X39735150Y9265213D02*
X39711861Y9129486D01*
X39711861Y9129486D02*
X39694320Y9026451D01*
X39694320Y9026451D02*
X39683489Y8961718D01*
X39683489Y8961718D02*
X39680274Y8940883D01*
X39680274Y8940883D02*
X39662140Y8930551D01*
X39662140Y8930551D02*
X39661670Y8930574D01*
X39661670Y8930574D02*
X39635891Y8937396D01*
X39635891Y8937396D02*
X39565366Y8957019D01*
X39565366Y8957019D02*
X39453046Y8988605D01*
X39453046Y8988605D02*
X39301883Y9031315D01*
X39301883Y9031315D02*
X39114829Y9084310D01*
X39114829Y9084310D02*
X38894834Y9146753D01*
X38894834Y9146753D02*
X38644850Y9217804D01*
X38644850Y9217804D02*
X38367829Y9296624D01*
X38367829Y9296624D02*
X38066722Y9382375D01*
X38066722Y9382375D02*
X37744480Y9474219D01*
X37744480Y9474219D02*
X37404055Y9571315D01*
X37404055Y9571315D02*
X37048398Y9672827D01*
X37048398Y9672827D02*
X36802930Y9742928D01*
X36802930Y9742928D02*
X33962793Y10554199D01*
X33962793Y10554199D02*
X33756044Y10960272D01*
X33756044Y10960272D02*
X33549295Y11366346D01*
X33549295Y11366346D02*
X34559378Y14147675D01*
X34559378Y14147675D02*
X34688759Y14503844D01*
X34688759Y14503844D02*
X34813444Y14846913D01*
X34813444Y14846913D02*
X34932388Y15174012D01*
X34932388Y15174012D02*
X35044544Y15482270D01*
X35044544Y15482270D02*
X35148866Y15768818D01*
X35148866Y15768818D02*
X35244307Y16030787D01*
X35244307Y16030787D02*
X35329822Y16265307D01*
X35329822Y16265307D02*
X35404363Y16469508D01*
X35404363Y16469508D02*
X35466886Y16640521D01*
X35466886Y16640521D02*
X35516344Y16775476D01*
X35516344Y16775476D02*
X35551690Y16871504D01*
X35551690Y16871504D02*
X35571878Y16925734D01*
X35571878Y16925734D02*
X35576419Y16937278D01*
X35576419Y16937278D02*
X35598964Y16928366D01*
X35598964Y16928366D02*
X35659888Y16900473D01*
X35659888Y16900473D02*
X35753080Y16856573D01*
X35753080Y16856573D02*
X35872434Y16799638D01*
X35872434Y16799638D02*
X36011838Y16732641D01*
X36011838Y16732641D02*
X36165185Y16658555D01*
X36165185Y16658555D02*
X36326364Y16580353D01*
X36326364Y16580353D02*
X36489267Y16501006D01*
X36489267Y16501006D02*
X36647785Y16423489D01*
X36647785Y16423489D02*
X36795808Y16350774D01*
X36795808Y16350774D02*
X36927228Y16285833D01*
X36927228Y16285833D02*
X37035935Y16231639D01*
X37035935Y16231639D02*
X37115820Y16191165D01*
X37115820Y16191165D02*
X37160774Y16167384D01*
X37160774Y16167384D02*
X37168229Y16162696D01*
X37168229Y16162696D02*
X37158508Y16139799D01*
X37158508Y16139799D02*
X37127790Y16075578D01*
X37127790Y16075578D02*
X37077531Y15972944D01*
X37077531Y15972944D02*
X37009188Y15834809D01*
X37009188Y15834809D02*
X36924219Y15664085D01*
X36924219Y15664085D02*
X36824080Y15463684D01*
X36824080Y15463684D02*
X36710229Y15236517D01*
X36710229Y15236517D02*
X36584123Y14985498D01*
X36584123Y14985498D02*
X36447219Y14713537D01*
X36447219Y14713537D02*
X36300974Y14423546D01*
X36300974Y14423546D02*
X36146844Y14118438D01*
X36146844Y14118438D02*
X36007048Y13842125D01*
X36007048Y13842125D02*
X35845521Y13522491D01*
X35845521Y13522491D02*
X35691279Y13216115D01*
X35691279Y13216115D02*
X35545733Y12925859D01*
X35545733Y12925859D02*
X35410291Y12654584D01*
X35410291Y12654584D02*
X35286362Y12405150D01*
X35286362Y12405150D02*
X35175357Y12180420D01*
X35175357Y12180420D02*
X35078684Y11983254D01*
X35078684Y11983254D02*
X34997753Y11816514D01*
X34997753Y11816514D02*
X34933973Y11683060D01*
X34933973Y11683060D02*
X34888753Y11585754D01*
X34888753Y11585754D02*
X34863504Y11527457D01*
X34863504Y11527457D02*
X34858671Y11510783D01*
X34858671Y11510783D02*
X34888867Y11501085D01*
X34888867Y11501085D02*
X34960394Y11485565D01*
X34960394Y11485565D02*
X35065512Y11465674D01*
X35065512Y11465674D02*
X35196477Y11442864D01*
X35196477Y11442864D02*
X35345549Y11418585D01*
X35345549Y11418585D02*
X35376661Y11413711D01*
X35376661Y11413711D02*
X35610324Y11377251D01*
X35610324Y11377251D02*
X35866688Y11337079D01*
X35866688Y11337079D02*
X36141895Y11293810D01*
X36141895Y11293810D02*
X36432093Y11248060D01*
X36432093Y11248060D02*
X36733425Y11200444D01*
X36733425Y11200444D02*
X37042036Y11151577D01*
X37042036Y11151577D02*
X37354071Y11102075D01*
X37354071Y11102075D02*
X37665675Y11052552D01*
X37665675Y11052552D02*
X37972993Y11003623D01*
X37972993Y11003623D02*
X38272170Y10955905D01*
X38272170Y10955905D02*
X38559351Y10910012D01*
X38559351Y10910012D02*
X38830680Y10866560D01*
X38830680Y10866560D02*
X39082302Y10826163D01*
X39082302Y10826163D02*
X39310363Y10789437D01*
X39310363Y10789437D02*
X39511008Y10756997D01*
X39511008Y10756997D02*
X39680380Y10729459D01*
X39680380Y10729459D02*
X39814625Y10707438D01*
X39814625Y10707438D02*
X39909888Y10691548D01*
X39909888Y10691548D02*
X39962314Y10682405D01*
X39962314Y10682405D02*
X39971604Y10680415D01*
X39971604Y10680415D02*
X40125480Y10680415D01*
X40125480Y10680415D02*
X40137934Y10758238D01*
X40137934Y10758238D02*
X40144072Y10800812D01*
X40144072Y10800812D02*
X40144282Y10805018D01*
X40144282Y10805018D02*
X40119523Y10809711D01*
X40119523Y10809711D02*
X40050490Y10821344D01*
X40050490Y10821344D02*
X39941917Y10839155D01*
X39941917Y10839155D02*
X39798535Y10862381D01*
X39798535Y10862381D02*
X39625080Y10890259D01*
X39625080Y10890259D02*
X39426284Y10922025D01*
X39426284Y10922025D02*
X39206880Y10956916D01*
X39206880Y10956916D02*
X38971602Y10994169D01*
X38971602Y10994169D02*
X38948536Y10997812D01*
X38948536Y10997812D02*
X38375192Y11088386D01*
X38375192Y11088386D02*
X37850165Y11171367D01*
X37850165Y11171367D02*
X37372765Y11246866D01*
X37372765Y11246866D02*
X36942299Y11314992D01*
X36942299Y11314992D02*
X36558079Y11375856D01*
X36558079Y11375856D02*
X36219412Y11429567D01*
X36219412Y11429567D02*
X35925608Y11476235D01*
X35925608Y11476235D02*
X35675977Y11515969D01*
X35675977Y11515969D02*
X35469826Y11548880D01*
X35469826Y11548880D02*
X35306466Y11575077D01*
X35306466Y11575077D02*
X35185205Y11594670D01*
X35185205Y11594670D02*
X35105354Y11607768D01*
X35105354Y11607768D02*
X35066220Y11614482D01*
X35066220Y11614482D02*
X35061862Y11615388D01*
X35061862Y11615388D02*
X35070484Y11637762D01*
X35070484Y11637762D02*
X35100162Y11701431D01*
X35100162Y11701431D02*
X35149443Y11803482D01*
X35149443Y11803482D02*
X35216874Y11941000D01*
X35216874Y11941000D02*
X35301002Y12111072D01*
X35301002Y12111072D02*
X35400375Y12310784D01*
X35400375Y12310784D02*
X35513540Y12537222D01*
X35513540Y12537222D02*
X35639044Y12787472D01*
X35639044Y12787472D02*
X35775435Y13058621D01*
X35775435Y13058621D02*
X35921259Y13347754D01*
X35921259Y13347754D02*
X36075064Y13651957D01*
X36075064Y13651957D02*
X36208469Y13915234D01*
X36208469Y13915234D02*
X36368102Y14230095D01*
X36368102Y14230095D02*
X36521275Y14532468D01*
X36521275Y14532468D02*
X36666511Y14819422D01*
X36666511Y14819422D02*
X36802331Y15088025D01*
X36802331Y15088025D02*
X36927256Y15335345D01*
X36927256Y15335345D02*
X37039808Y15558448D01*
X37039808Y15558448D02*
X37138509Y15754403D01*
X37138509Y15754403D02*
X37221881Y15920278D01*
X37221881Y15920278D02*
X37288444Y16053140D01*
X37288444Y16053140D02*
X37336721Y16150057D01*
X37336721Y16150057D02*
X37365232Y16208097D01*
X37365232Y16208097D02*
X37372828Y16224635D01*
X37372828Y16224635D02*
X37351990Y16240380D01*
X37351990Y16240380D02*
X37294806Y16272172D01*
X37294806Y16272172D02*
X37210030Y16315386D01*
X37210030Y16315386D02*
X37106787Y16365221D01*
X37106787Y16365221D02*
X37013529Y16409650D01*
X37013529Y16409650D02*
X36884556Y16471804D01*
X36884556Y16471804D02*
X36728629Y16547427D01*
X36728629Y16547427D02*
X36554504Y16632259D01*
X36554504Y16632259D02*
X36370942Y16722041D01*
X36370942Y16722041D02*
X36186699Y16812514D01*
X36186699Y16812514D02*
X36173993Y16818769D01*
X36173993Y16818769D02*
X35967109Y16919762D01*
X35967109Y16919762D02*
X35801271Y16998738D01*
X35801271Y16998738D02*
X35673691Y17056906D01*
X35673691Y17056906D02*
X35581578Y17095477D01*
X35581578Y17095477D02*
X35522144Y17115660D01*
X35522144Y17115660D02*
X35492600Y17118665D01*
X35492600Y17118665D02*
X35488875Y17116000D01*
X35488875Y17116000D02*
X35488875Y17116000D01*
G36*
X40104505Y10553312D02*
G01*
X40078947Y10401297D01*
X40048649Y10223140D01*
X40014477Y10024008D01*
X39977298Y9809071D01*
X39963017Y9726725D01*
X39926533Y9515436D01*
X39893168Y9320901D01*
X39863825Y9148471D01*
X39839408Y9003501D01*
X39820820Y8891341D01*
X39808964Y8817345D01*
X39804745Y8786865D01*
X39800812Y8773117D01*
X39768507Y8755859D01*
X39750896Y8760078D01*
X39689006Y8776695D01*
X39586518Y8804872D01*
X39447396Y8843488D01*
X39275599Y8891424D01*
X39075090Y8947560D01*
X38849830Y9010775D01*
X38603781Y9079950D01*
X38340903Y9153966D01*
X38065160Y9231701D01*
X37780511Y9312037D01*
X37490920Y9393853D01*
X37200346Y9476029D01*
X36912752Y9557446D01*
X36632100Y9636983D01*
X36362350Y9713522D01*
X36107464Y9785941D01*
X35871404Y9853121D01*
X35658131Y9913942D01*
X35471607Y9967285D01*
X35315793Y10012028D01*
X35194652Y10047053D01*
X35112143Y10071240D01*
X35072229Y10083468D01*
X35069103Y10084807D01*
X35061918Y10089079D01*
X35055436Y10093129D01*
X35051076Y10094442D01*
X35050255Y10090504D01*
X35054392Y10078803D01*
X35064906Y10056825D01*
X35083215Y10022055D01*
X35110738Y9971980D01*
X35148893Y9904086D01*
X35199099Y9815860D01*
X35262773Y9704787D01*
X35341335Y9568355D01*
X35436203Y9404049D01*
X35548796Y9209355D01*
X35680531Y8981761D01*
X35832828Y8718751D01*
X36007104Y8417813D01*
X36204779Y8076433D01*
X37318511Y6152839D01*
X36660381Y5815916D01*
X36605000Y5787655D01*
X36442106Y5705617D01*
X36294764Y5632998D01*
X36168663Y5572495D01*
X36069494Y5526809D01*
X36002946Y5498638D01*
X35974710Y5490680D01*
X35964777Y5506774D01*
X35934894Y5565033D01*
X35886824Y5662934D01*
X35821976Y5797493D01*
X35741758Y5965725D01*
X35647578Y6164646D01*
X35540845Y6391272D01*
X35422966Y6642619D01*
X35295350Y6915702D01*
X35159406Y7207536D01*
X35016541Y7515139D01*
X34868164Y7835525D01*
X34745585Y8100389D01*
X34602077Y8409975D01*
X34465461Y8704149D01*
X34337127Y8979950D01*
X34218462Y9234412D01*
X34110854Y9464572D01*
X34015692Y9667466D01*
X33934364Y9840130D01*
X33868258Y9979599D01*
X33818763Y10082911D01*
X33787266Y10147101D01*
X33775156Y10169204D01*
X33766869Y10148444D01*
X33744736Y10083290D01*
X33709817Y9976757D01*
X33663088Y9831930D01*
X33605527Y9651891D01*
X33538111Y9439726D01*
X33461818Y9198518D01*
X33377625Y8931351D01*
X33286510Y8641309D01*
X33189451Y8331476D01*
X33087423Y8004935D01*
X32981406Y7664772D01*
X32880860Y7341917D01*
X32778826Y7014596D01*
X32681844Y6703805D01*
X32590883Y6412630D01*
X32506909Y6144155D01*
X32430890Y5901463D01*
X32363791Y5687640D01*
X32306581Y5505769D01*
X32260227Y5358935D01*
X32225694Y5250223D01*
X32203951Y5182716D01*
X32195963Y5159498D01*
X32194049Y5160202D01*
X32160288Y5175510D01*
X32088843Y5208827D01*
X31985334Y5257504D01*
X31855383Y5318893D01*
X31704611Y5390344D01*
X31538639Y5469209D01*
X31500401Y5487456D01*
X31335783Y5567302D01*
X31189065Y5640530D01*
X31065668Y5704290D01*
X30971015Y5755734D01*
X30910527Y5792011D01*
X30889626Y5810274D01*
X30894724Y5824752D01*
X30917613Y5882039D01*
X30957707Y5979702D01*
X31013710Y6114662D01*
X31084330Y6283836D01*
X31168273Y6484144D01*
X31264245Y6712504D01*
X31370952Y6965835D01*
X31487101Y7241055D01*
X31611397Y7535083D01*
X31742547Y7844838D01*
X31879257Y8167238D01*
X31978704Y8401745D01*
X32111079Y8714398D01*
X32236756Y9011804D01*
X32354463Y9290923D01*
X32462927Y9548716D01*
X32560875Y9782142D01*
X32647033Y9988161D01*
X32720129Y10163733D01*
X32778889Y10305819D01*
X32822041Y10411377D01*
X32848312Y10477369D01*
X32856428Y10500753D01*
X32842626Y10504458D01*
X32784187Y10518559D01*
X32682969Y10542424D01*
X32542194Y10575307D01*
X32365083Y10616465D01*
X32154858Y10665151D01*
X31914740Y10720621D01*
X31647952Y10782131D01*
X31357713Y10848935D01*
X31047247Y10920289D01*
X30719774Y10995447D01*
X30378516Y11073666D01*
X30128462Y11131003D01*
X29796655Y11207280D01*
X29480875Y11280091D01*
X29184357Y11348682D01*
X29108268Y11366346D01*
X33549295Y11366346D01*
X33756044Y10960272D01*
X33962793Y10554199D01*
X36802930Y9742928D01*
X37048398Y9672827D01*
X37404055Y9571315D01*
X37744480Y9474219D01*
X38066722Y9382375D01*
X38367829Y9296624D01*
X38644850Y9217804D01*
X38894834Y9146753D01*
X39114829Y9084310D01*
X39301883Y9031315D01*
X39453046Y8988605D01*
X39565366Y8957019D01*
X39635891Y8937396D01*
X39661670Y8930574D01*
X39662140Y8930551D01*
X39680274Y8940883D01*
X39683489Y8961718D01*
X39694320Y9026451D01*
X39711861Y9129486D01*
X39735150Y9265213D01*
X39763222Y9428017D01*
X39795116Y9612289D01*
X39829867Y9812416D01*
X39860648Y9990551D01*
X39892324Y10176529D01*
X39919941Y10341546D01*
X39942589Y10480021D01*
X39959356Y10586377D01*
X39969331Y10655034D01*
X39971604Y10680415D01*
X39962314Y10682405D01*
X39909888Y10691548D01*
X39814625Y10707438D01*
X39680380Y10729459D01*
X39511008Y10756997D01*
X39310363Y10789437D01*
X39082302Y10826163D01*
X38830680Y10866560D01*
X38559351Y10910012D01*
X38272170Y10955905D01*
X37972993Y11003623D01*
X37665675Y11052552D01*
X37354071Y11102075D01*
X37042036Y11151577D01*
X36733425Y11200444D01*
X36432093Y11248060D01*
X36141895Y11293810D01*
X35866688Y11337079D01*
X35610324Y11377251D01*
X35376661Y11413711D01*
X35345549Y11418585D01*
X35196477Y11442864D01*
X35065512Y11465674D01*
X34960394Y11485565D01*
X34888867Y11501085D01*
X34858671Y11510783D01*
X34863504Y11527457D01*
X34888753Y11585754D01*
X34933973Y11683060D01*
X34997753Y11816514D01*
X35078684Y11983254D01*
X35175357Y12180420D01*
X35286362Y12405150D01*
X35410291Y12654584D01*
X35545733Y12925859D01*
X35691279Y13216115D01*
X35845521Y13522491D01*
X36007048Y13842125D01*
X36146844Y14118438D01*
X36300974Y14423546D01*
X36447219Y14713537D01*
X36584123Y14985498D01*
X36710229Y15236517D01*
X36824080Y15463684D01*
X36924219Y15664085D01*
X37009188Y15834809D01*
X37077531Y15972944D01*
X37127790Y16075578D01*
X37158508Y16139799D01*
X37168229Y16162696D01*
X37160774Y16167384D01*
X37115820Y16191165D01*
X37035935Y16231639D01*
X36927228Y16285833D01*
X36795808Y16350774D01*
X36647785Y16423489D01*
X36489267Y16501006D01*
X36326364Y16580353D01*
X36165185Y16658555D01*
X36011838Y16732641D01*
X35872434Y16799638D01*
X35753080Y16856573D01*
X35659888Y16900473D01*
X35598964Y16928366D01*
X35576419Y16937278D01*
X35571878Y16925734D01*
X35551690Y16871504D01*
X35516344Y16775476D01*
X35466886Y16640521D01*
X35404363Y16469508D01*
X35329822Y16265307D01*
X35244307Y16030787D01*
X35148866Y15768818D01*
X35044544Y15482270D01*
X34932388Y15174012D01*
X34813444Y14846913D01*
X34688759Y14503844D01*
X34559378Y14147675D01*
X33549295Y11366346D01*
X29108268Y11366346D01*
X28910334Y11412296D01*
X28662040Y11470175D01*
X28442710Y11521566D01*
X28255578Y11565710D01*
X28103877Y11601852D01*
X27990843Y11629235D01*
X27919708Y11647104D01*
X27893708Y11654701D01*
X27893600Y11654830D01*
X27894720Y11682724D01*
X27903815Y11751637D01*
X27919552Y11854102D01*
X27940596Y11982650D01*
X27965612Y12129813D01*
X27993267Y12288125D01*
X28022224Y12450115D01*
X28051151Y12608317D01*
X28078711Y12755263D01*
X28103572Y12883484D01*
X28124398Y12985513D01*
X28139855Y13053881D01*
X28148608Y13081121D01*
X28169932Y13075408D01*
X28235358Y13054852D01*
X28341824Y13020365D01*
X28486250Y12972971D01*
X28665560Y12913696D01*
X28876677Y12843563D01*
X29116522Y12763598D01*
X29382018Y12674823D01*
X29670088Y12578265D01*
X29977654Y12474946D01*
X30301639Y12365892D01*
X30638965Y12252128D01*
X30954383Y12145736D01*
X31279281Y12036334D01*
X31587937Y11932590D01*
X31877276Y11835529D01*
X32144225Y11746177D01*
X32385708Y11665557D01*
X32598650Y11594696D01*
X32779976Y11534618D01*
X32926612Y11486348D01*
X33035483Y11450911D01*
X33103513Y11429331D01*
X33127629Y11422633D01*
X33120051Y11438845D01*
X33090058Y11495603D01*
X33038774Y11590389D01*
X32967773Y11720347D01*
X32878632Y11882623D01*
X32772929Y12074362D01*
X32652238Y12292709D01*
X32518137Y12534810D01*
X32372202Y12797809D01*
X32216009Y13078852D01*
X32051134Y13375084D01*
X31879154Y13683650D01*
X31734179Y13943674D01*
X31567637Y14242603D01*
X31409329Y14526992D01*
X31260849Y14793965D01*
X31123795Y15040644D01*
X30999760Y15264152D01*
X30890341Y15461610D01*
X30797133Y15630143D01*
X30721732Y15766872D01*
X30665733Y15868920D01*
X30630732Y15933410D01*
X30618323Y15957465D01*
X30618598Y15958345D01*
X30644198Y15976640D01*
X30706589Y16013329D01*
X30799164Y16064960D01*
X30915312Y16128080D01*
X31048424Y16199235D01*
X31191892Y16274971D01*
X31339107Y16351836D01*
X31483458Y16426375D01*
X31618338Y16495137D01*
X31737136Y16554666D01*
X31833244Y16601511D01*
X31900053Y16632217D01*
X31930953Y16643331D01*
X31931146Y16643291D01*
X31945823Y16619323D01*
X31979086Y16553339D01*
X32029467Y16448532D01*
X32095496Y16308095D01*
X32175707Y16135220D01*
X32268630Y15933102D01*
X32372798Y15704932D01*
X32486742Y15453904D01*
X32608994Y15183211D01*
X32738086Y14896046D01*
X32872549Y14595602D01*
X32878163Y14583032D01*
X33012319Y14282901D01*
X33140794Y13995988D01*
X33262138Y13725504D01*
X33374900Y13474657D01*
X33477630Y13246659D01*
X33568877Y13044719D01*
X33647191Y12872046D01*
X33711122Y12731852D01*
X33759219Y12627345D01*
X33790033Y12561736D01*
X33802113Y12538234D01*
X33805125Y12543051D01*
X33823268Y12586095D01*
X33856523Y12671128D01*
X33903723Y12795006D01*
X33963703Y12954584D01*
X34035297Y13146719D01*
X34117339Y13368267D01*
X34208663Y13616084D01*
X34308104Y13887026D01*
X34414495Y14177948D01*
X34526671Y14485707D01*
X34643466Y14807158D01*
X34698491Y14958791D01*
X34813553Y15275558D01*
X34923507Y15577843D01*
X35027175Y15862430D01*
X35123379Y16126101D01*
X35210940Y16365642D01*
X35288682Y16577834D01*
X35355427Y16759462D01*
X35409996Y16907309D01*
X35451213Y17018159D01*
X35477898Y17088795D01*
X35488875Y17116000D01*
X35492600Y17118665D01*
X35522144Y17115660D01*
X35581578Y17095477D01*
X35673691Y17056906D01*
X35801271Y16998738D01*
X35967109Y16919762D01*
X36173993Y16818769D01*
X36186699Y16812514D01*
X36370942Y16722041D01*
X36554504Y16632259D01*
X36728629Y16547427D01*
X36884556Y16471804D01*
X37013529Y16409650D01*
X37106787Y16365221D01*
X37210030Y16315386D01*
X37294806Y16272172D01*
X37351990Y16240380D01*
X37372828Y16224635D01*
X37365232Y16208097D01*
X37336721Y16150057D01*
X37288444Y16053140D01*
X37221881Y15920278D01*
X37138509Y15754403D01*
X37039808Y15558448D01*
X36927256Y15335345D01*
X36802331Y15088025D01*
X36666511Y14819422D01*
X36521275Y14532468D01*
X36368102Y14230095D01*
X36208469Y13915234D01*
X36075064Y13651957D01*
X35921259Y13347754D01*
X35775435Y13058621D01*
X35639044Y12787472D01*
X35513540Y12537222D01*
X35400375Y12310784D01*
X35301002Y12111072D01*
X35216874Y11941000D01*
X35149443Y11803482D01*
X35100162Y11701431D01*
X35070484Y11637762D01*
X35061862Y11615388D01*
X35066220Y11614482D01*
X35105354Y11607768D01*
X35185205Y11594670D01*
X35306466Y11575077D01*
X35469826Y11548880D01*
X35675977Y11515969D01*
X35925608Y11476235D01*
X36219412Y11429567D01*
X36558079Y11375856D01*
X36942299Y11314992D01*
X37372765Y11246866D01*
X37850165Y11171367D01*
X38375192Y11088386D01*
X38948536Y10997812D01*
X38971602Y10994169D01*
X39206880Y10956916D01*
X39426284Y10922025D01*
X39625080Y10890259D01*
X39798535Y10862381D01*
X39941917Y10839155D01*
X40050490Y10821344D01*
X40119523Y10809711D01*
X40144282Y10805018D01*
X40144072Y10800812D01*
X40137934Y10758238D01*
X40125480Y10680415D01*
X40124456Y10674015D01*
X40104505Y10553312D01*
G37*
X40104505Y10553312D02*
X40078947Y10401297D01*
X40048649Y10223140D01*
X40014477Y10024008D01*
X39977298Y9809071D01*
X39963017Y9726725D01*
X39926533Y9515436D01*
X39893168Y9320901D01*
X39863825Y9148471D01*
X39839408Y9003501D01*
X39820820Y8891341D01*
X39808964Y8817345D01*
X39804745Y8786865D01*
X39800812Y8773117D01*
X39768507Y8755859D01*
X39750896Y8760078D01*
X39689006Y8776695D01*
X39586518Y8804872D01*
X39447396Y8843488D01*
X39275599Y8891424D01*
X39075090Y8947560D01*
X38849830Y9010775D01*
X38603781Y9079950D01*
X38340903Y9153966D01*
X38065160Y9231701D01*
X37780511Y9312037D01*
X37490920Y9393853D01*
X37200346Y9476029D01*
X36912752Y9557446D01*
X36632100Y9636983D01*
X36362350Y9713522D01*
X36107464Y9785941D01*
X35871404Y9853121D01*
X35658131Y9913942D01*
X35471607Y9967285D01*
X35315793Y10012028D01*
X35194652Y10047053D01*
X35112143Y10071240D01*
X35072229Y10083468D01*
X35069103Y10084807D01*
X35061918Y10089079D01*
X35055436Y10093129D01*
X35051076Y10094442D01*
X35050255Y10090504D01*
X35054392Y10078803D01*
X35064906Y10056825D01*
X35083215Y10022055D01*
X35110738Y9971980D01*
X35148893Y9904086D01*
X35199099Y9815860D01*
X35262773Y9704787D01*
X35341335Y9568355D01*
X35436203Y9404049D01*
X35548796Y9209355D01*
X35680531Y8981761D01*
X35832828Y8718751D01*
X36007104Y8417813D01*
X36204779Y8076433D01*
X37318511Y6152839D01*
X36660381Y5815916D01*
X36605000Y5787655D01*
X36442106Y5705617D01*
X36294764Y5632998D01*
X36168663Y5572495D01*
X36069494Y5526809D01*
X36002946Y5498638D01*
X35974710Y5490680D01*
X35964777Y5506774D01*
X35934894Y5565033D01*
X35886824Y5662934D01*
X35821976Y5797493D01*
X35741758Y5965725D01*
X35647578Y6164646D01*
X35540845Y6391272D01*
X35422966Y6642619D01*
X35295350Y6915702D01*
X35159406Y7207536D01*
X35016541Y7515139D01*
X34868164Y7835525D01*
X34745585Y8100389D01*
X34602077Y8409975D01*
X34465461Y8704149D01*
X34337127Y8979950D01*
X34218462Y9234412D01*
X34110854Y9464572D01*
X34015692Y9667466D01*
X33934364Y9840130D01*
X33868258Y9979599D01*
X33818763Y10082911D01*
X33787266Y10147101D01*
X33775156Y10169204D01*
X33766869Y10148444D01*
X33744736Y10083290D01*
X33709817Y9976757D01*
X33663088Y9831930D01*
X33605527Y9651891D01*
X33538111Y9439726D01*
X33461818Y9198518D01*
X33377625Y8931351D01*
X33286510Y8641309D01*
X33189451Y8331476D01*
X33087423Y8004935D01*
X32981406Y7664772D01*
X32880860Y7341917D01*
X32778826Y7014596D01*
X32681844Y6703805D01*
X32590883Y6412630D01*
X32506909Y6144155D01*
X32430890Y5901463D01*
X32363791Y5687640D01*
X32306581Y5505769D01*
X32260227Y5358935D01*
X32225694Y5250223D01*
X32203951Y5182716D01*
X32195963Y5159498D01*
X32194049Y5160202D01*
X32160288Y5175510D01*
X32088843Y5208827D01*
X31985334Y5257504D01*
X31855383Y5318893D01*
X31704611Y5390344D01*
X31538639Y5469209D01*
X31500401Y5487456D01*
X31335783Y5567302D01*
X31189065Y5640530D01*
X31065668Y5704290D01*
X30971015Y5755734D01*
X30910527Y5792011D01*
X30889626Y5810274D01*
X30894724Y5824752D01*
X30917613Y5882039D01*
X30957707Y5979702D01*
X31013710Y6114662D01*
X31084330Y6283836D01*
X31168273Y6484144D01*
X31264245Y6712504D01*
X31370952Y6965835D01*
X31487101Y7241055D01*
X31611397Y7535083D01*
X31742547Y7844838D01*
X31879257Y8167238D01*
X31978704Y8401745D01*
X32111079Y8714398D01*
X32236756Y9011804D01*
X32354463Y9290923D01*
X32462927Y9548716D01*
X32560875Y9782142D01*
X32647033Y9988161D01*
X32720129Y10163733D01*
X32778889Y10305819D01*
X32822041Y10411377D01*
X32848312Y10477369D01*
X32856428Y10500753D01*
X32842626Y10504458D01*
X32784187Y10518559D01*
X32682969Y10542424D01*
X32542194Y10575307D01*
X32365083Y10616465D01*
X32154858Y10665151D01*
X31914740Y10720621D01*
X31647952Y10782131D01*
X31357713Y10848935D01*
X31047247Y10920289D01*
X30719774Y10995447D01*
X30378516Y11073666D01*
X30128462Y11131003D01*
X29796655Y11207280D01*
X29480875Y11280091D01*
X29184357Y11348682D01*
X29108268Y11366346D01*
X33549295Y11366346D01*
X33756044Y10960272D01*
X33962793Y10554199D01*
X36802930Y9742928D01*
X37048398Y9672827D01*
X37404055Y9571315D01*
X37744480Y9474219D01*
X38066722Y9382375D01*
X38367829Y9296624D01*
X38644850Y9217804D01*
X38894834Y9146753D01*
X39114829Y9084310D01*
X39301883Y9031315D01*
X39453046Y8988605D01*
X39565366Y8957019D01*
X39635891Y8937396D01*
X39661670Y8930574D01*
X39662140Y8930551D01*
X39680274Y8940883D01*
X39683489Y8961718D01*
X39694320Y9026451D01*
X39711861Y9129486D01*
X39735150Y9265213D01*
X39763222Y9428017D01*
X39795116Y9612289D01*
X39829867Y9812416D01*
X39860648Y9990551D01*
X39892324Y10176529D01*
X39919941Y10341546D01*
X39942589Y10480021D01*
X39959356Y10586377D01*
X39969331Y10655034D01*
X39971604Y10680415D01*
X39962314Y10682405D01*
X39909888Y10691548D01*
X39814625Y10707438D01*
X39680380Y10729459D01*
X39511008Y10756997D01*
X39310363Y10789437D01*
X39082302Y10826163D01*
X38830680Y10866560D01*
X38559351Y10910012D01*
X38272170Y10955905D01*
X37972993Y11003623D01*
X37665675Y11052552D01*
X37354071Y11102075D01*
X37042036Y11151577D01*
X36733425Y11200444D01*
X36432093Y11248060D01*
X36141895Y11293810D01*
X35866688Y11337079D01*
X35610324Y11377251D01*
X35376661Y11413711D01*
X35345549Y11418585D01*
X35196477Y11442864D01*
X35065512Y11465674D01*
X34960394Y11485565D01*
X34888867Y11501085D01*
X34858671Y11510783D01*
X34863504Y11527457D01*
X34888753Y11585754D01*
X34933973Y11683060D01*
X34997753Y11816514D01*
X35078684Y11983254D01*
X35175357Y12180420D01*
X35286362Y12405150D01*
X35410291Y12654584D01*
X35545733Y12925859D01*
X35691279Y13216115D01*
X35845521Y13522491D01*
X36007048Y13842125D01*
X36146844Y14118438D01*
X36300974Y14423546D01*
X36447219Y14713537D01*
X36584123Y14985498D01*
X36710229Y15236517D01*
X36824080Y15463684D01*
X36924219Y15664085D01*
X37009188Y15834809D01*
X37077531Y15972944D01*
X37127790Y16075578D01*
X37158508Y16139799D01*
X37168229Y16162696D01*
X37160774Y16167384D01*
X37115820Y16191165D01*
X37035935Y16231639D01*
X36927228Y16285833D01*
X36795808Y16350774D01*
X36647785Y16423489D01*
X36489267Y16501006D01*
X36326364Y16580353D01*
X36165185Y16658555D01*
X36011838Y16732641D01*
X35872434Y16799638D01*
X35753080Y16856573D01*
X35659888Y16900473D01*
X35598964Y16928366D01*
X35576419Y16937278D01*
X35571878Y16925734D01*
X35551690Y16871504D01*
X35516344Y16775476D01*
X35466886Y16640521D01*
X35404363Y16469508D01*
X35329822Y16265307D01*
X35244307Y16030787D01*
X35148866Y15768818D01*
X35044544Y15482270D01*
X34932388Y15174012D01*
X34813444Y14846913D01*
X34688759Y14503844D01*
X34559378Y14147675D01*
X33549295Y11366346D01*
X29108268Y11366346D01*
X28910334Y11412296D01*
X28662040Y11470175D01*
X28442710Y11521566D01*
X28255578Y11565710D01*
X28103877Y11601852D01*
X27990843Y11629235D01*
X27919708Y11647104D01*
X27893708Y11654701D01*
X27893600Y11654830D01*
X27894720Y11682724D01*
X27903815Y11751637D01*
X27919552Y11854102D01*
X27940596Y11982650D01*
X27965612Y12129813D01*
X27993267Y12288125D01*
X28022224Y12450115D01*
X28051151Y12608317D01*
X28078711Y12755263D01*
X28103572Y12883484D01*
X28124398Y12985513D01*
X28139855Y13053881D01*
X28148608Y13081121D01*
X28169932Y13075408D01*
X28235358Y13054852D01*
X28341824Y13020365D01*
X28486250Y12972971D01*
X28665560Y12913696D01*
X28876677Y12843563D01*
X29116522Y12763598D01*
X29382018Y12674823D01*
X29670088Y12578265D01*
X29977654Y12474946D01*
X30301639Y12365892D01*
X30638965Y12252128D01*
X30954383Y12145736D01*
X31279281Y12036334D01*
X31587937Y11932590D01*
X31877276Y11835529D01*
X32144225Y11746177D01*
X32385708Y11665557D01*
X32598650Y11594696D01*
X32779976Y11534618D01*
X32926612Y11486348D01*
X33035483Y11450911D01*
X33103513Y11429331D01*
X33127629Y11422633D01*
X33120051Y11438845D01*
X33090058Y11495603D01*
X33038774Y11590389D01*
X32967773Y11720347D01*
X32878632Y11882623D01*
X32772929Y12074362D01*
X32652238Y12292709D01*
X32518137Y12534810D01*
X32372202Y12797809D01*
X32216009Y13078852D01*
X32051134Y13375084D01*
X31879154Y13683650D01*
X31734179Y13943674D01*
X31567637Y14242603D01*
X31409329Y14526992D01*
X31260849Y14793965D01*
X31123795Y15040644D01*
X30999760Y15264152D01*
X30890341Y15461610D01*
X30797133Y15630143D01*
X30721732Y15766872D01*
X30665733Y15868920D01*
X30630732Y15933410D01*
X30618323Y15957465D01*
X30618598Y15958345D01*
X30644198Y15976640D01*
X30706589Y16013329D01*
X30799164Y16064960D01*
X30915312Y16128080D01*
X31048424Y16199235D01*
X31191892Y16274971D01*
X31339107Y16351836D01*
X31483458Y16426375D01*
X31618338Y16495137D01*
X31737136Y16554666D01*
X31833244Y16601511D01*
X31900053Y16632217D01*
X31930953Y16643331D01*
X31931146Y16643291D01*
X31945823Y16619323D01*
X31979086Y16553339D01*
X32029467Y16448532D01*
X32095496Y16308095D01*
X32175707Y16135220D01*
X32268630Y15933102D01*
X32372798Y15704932D01*
X32486742Y15453904D01*
X32608994Y15183211D01*
X32738086Y14896046D01*
X32872549Y14595602D01*
X32878163Y14583032D01*
X33012319Y14282901D01*
X33140794Y13995988D01*
X33262138Y13725504D01*
X33374900Y13474657D01*
X33477630Y13246659D01*
X33568877Y13044719D01*
X33647191Y12872046D01*
X33711122Y12731852D01*
X33759219Y12627345D01*
X33790033Y12561736D01*
X33802113Y12538234D01*
X33805125Y12543051D01*
X33823268Y12586095D01*
X33856523Y12671128D01*
X33903723Y12795006D01*
X33963703Y12954584D01*
X34035297Y13146719D01*
X34117339Y13368267D01*
X34208663Y13616084D01*
X34308104Y13887026D01*
X34414495Y14177948D01*
X34526671Y14485707D01*
X34643466Y14807158D01*
X34698491Y14958791D01*
X34813553Y15275558D01*
X34923507Y15577843D01*
X35027175Y15862430D01*
X35123379Y16126101D01*
X35210940Y16365642D01*
X35288682Y16577834D01*
X35355427Y16759462D01*
X35409996Y16907309D01*
X35451213Y17018159D01*
X35477898Y17088795D01*
X35488875Y17116000D01*
X35492600Y17118665D01*
X35522144Y17115660D01*
X35581578Y17095477D01*
X35673691Y17056906D01*
X35801271Y16998738D01*
X35967109Y16919762D01*
X36173993Y16818769D01*
X36186699Y16812514D01*
X36370942Y16722041D01*
X36554504Y16632259D01*
X36728629Y16547427D01*
X36884556Y16471804D01*
X37013529Y16409650D01*
X37106787Y16365221D01*
X37210030Y16315386D01*
X37294806Y16272172D01*
X37351990Y16240380D01*
X37372828Y16224635D01*
X37365232Y16208097D01*
X37336721Y16150057D01*
X37288444Y16053140D01*
X37221881Y15920278D01*
X37138509Y15754403D01*
X37039808Y15558448D01*
X36927256Y15335345D01*
X36802331Y15088025D01*
X36666511Y14819422D01*
X36521275Y14532468D01*
X36368102Y14230095D01*
X36208469Y13915234D01*
X36075064Y13651957D01*
X35921259Y13347754D01*
X35775435Y13058621D01*
X35639044Y12787472D01*
X35513540Y12537222D01*
X35400375Y12310784D01*
X35301002Y12111072D01*
X35216874Y11941000D01*
X35149443Y11803482D01*
X35100162Y11701431D01*
X35070484Y11637762D01*
X35061862Y11615388D01*
X35066220Y11614482D01*
X35105354Y11607768D01*
X35185205Y11594670D01*
X35306466Y11575077D01*
X35469826Y11548880D01*
X35675977Y11515969D01*
X35925608Y11476235D01*
X36219412Y11429567D01*
X36558079Y11375856D01*
X36942299Y11314992D01*
X37372765Y11246866D01*
X37850165Y11171367D01*
X38375192Y11088386D01*
X38948536Y10997812D01*
X38971602Y10994169D01*
X39206880Y10956916D01*
X39426284Y10922025D01*
X39625080Y10890259D01*
X39798535Y10862381D01*
X39941917Y10839155D01*
X40050490Y10821344D01*
X40119523Y10809711D01*
X40144282Y10805018D01*
X40144072Y10800812D01*
X40137934Y10758238D01*
X40125480Y10680415D01*
X40124456Y10674015D01*
X40104505Y10553312D01*
X35091407Y3447656D02*
X34892969Y3447656D01*
X34892969Y3447656D02*
X34892969Y3199609D01*
X34892969Y3199609D02*
X35091407Y3199609D01*
X35091407Y3199609D02*
X35091407Y2892588D01*
X35091407Y2892588D02*
X35089854Y2749218D01*
X35089854Y2749218D02*
X35083390Y2648515D01*
X35083390Y2648515D02*
X35069307Y2583582D01*
X35069307Y2583582D02*
X35044898Y2547526D01*
X35044898Y2547526D02*
X35007456Y2533451D01*
X35007456Y2533451D02*
X34954272Y2534463D01*
X34954272Y2534463D02*
X34950906Y2534812D01*
X34950906Y2534812D02*
X34907872Y2535986D01*
X34907872Y2535986D02*
X34886058Y2519245D01*
X34886058Y2519245D02*
X34876503Y2472242D01*
X34876503Y2472242D02*
X34873138Y2427677D01*
X34873138Y2427677D02*
X34871463Y2356191D01*
X34871463Y2356191D02*
X34882359Y2318955D01*
X34882359Y2318955D02*
X34911508Y2301091D01*
X34911508Y2301091D02*
X34922747Y2297791D01*
X34922747Y2297791D02*
X35012147Y2284650D01*
X35012147Y2284650D02*
X35114356Y2285006D01*
X35114356Y2285006D02*
X35207629Y2297664D01*
X35207629Y2297664D02*
X35262309Y2316451D01*
X35262309Y2316451D02*
X35307611Y2347006D01*
X35307611Y2347006D02*
X35340650Y2386135D01*
X35340650Y2386135D02*
X35363315Y2441602D01*
X35363315Y2441602D02*
X35377496Y2521172D01*
X35377496Y2521172D02*
X35385083Y2632612D01*
X35385083Y2632612D02*
X35387964Y2783685D01*
X35387964Y2783685D02*
X35388184Y2833740D01*
X35388184Y2833740D02*
X35389063Y3199609D01*
X35389063Y3199609D02*
X35463477Y3199609D01*
X35463477Y3199609D02*
X35507528Y3202319D01*
X35507528Y3202319D02*
X35529495Y3218979D01*
X35529495Y3218979D02*
X35537055Y3262387D01*
X35537055Y3262387D02*
X35537891Y3323633D01*
X35537891Y3323633D02*
X35536265Y3397052D01*
X35536265Y3397052D02*
X35526269Y3433663D01*
X35526269Y3433663D02*
X35500224Y3446264D01*
X35500224Y3446264D02*
X35463477Y3447656D01*
X35463477Y3447656D02*
X35418665Y3450593D01*
X35418665Y3450593D02*
X35396817Y3468133D01*
X35396817Y3468133D02*
X35389696Y3513369D01*
X35389696Y3513369D02*
X35389063Y3565954D01*
X35389063Y3565954D02*
X35389063Y3684252D01*
X35389063Y3684252D02*
X35240235Y3766071D01*
X35240235Y3766071D02*
X35091407Y3847889D01*
X35091407Y3847889D02*
X35091407Y3447656D01*
X35091407Y3447656D02*
X35091407Y3447656D01*
G36*
X35240235Y3766071D02*
G01*
X35389063Y3684252D01*
X35389063Y3565954D01*
X35389696Y3513369D01*
X35396817Y3468133D01*
X35418665Y3450593D01*
X35463477Y3447656D01*
X35500224Y3446264D01*
X35526269Y3433663D01*
X35536265Y3397052D01*
X35537891Y3323633D01*
X35537055Y3262387D01*
X35529495Y3218979D01*
X35507528Y3202319D01*
X35463477Y3199609D01*
X35389063Y3199609D01*
X35388184Y2833740D01*
X35387964Y2783685D01*
X35385083Y2632612D01*
X35377496Y2521172D01*
X35363315Y2441602D01*
X35340650Y2386135D01*
X35307611Y2347006D01*
X35262309Y2316451D01*
X35207629Y2297664D01*
X35114356Y2285006D01*
X35012147Y2284650D01*
X34922747Y2297791D01*
X34911508Y2301091D01*
X34882359Y2318955D01*
X34871463Y2356191D01*
X34873138Y2427677D01*
X34876503Y2472242D01*
X34886058Y2519245D01*
X34907872Y2535986D01*
X34950906Y2534812D01*
X34954272Y2534463D01*
X35007456Y2533451D01*
X35044898Y2547526D01*
X35069307Y2583582D01*
X35083390Y2648515D01*
X35089854Y2749218D01*
X35091407Y2892588D01*
X35091407Y3199609D01*
X34892969Y3199609D01*
X34892969Y3447656D01*
X35091407Y3447656D01*
X35091407Y3847889D01*
X35240235Y3766071D01*
G37*
X35240235Y3766071D02*
X35389063Y3684252D01*
X35389063Y3565954D01*
X35389696Y3513369D01*
X35396817Y3468133D01*
X35418665Y3450593D01*
X35463477Y3447656D01*
X35500224Y3446264D01*
X35526269Y3433663D01*
X35536265Y3397052D01*
X35537891Y3323633D01*
X35537055Y3262387D01*
X35529495Y3218979D01*
X35507528Y3202319D01*
X35463477Y3199609D01*
X35389063Y3199609D01*
X35388184Y2833740D01*
X35387964Y2783685D01*
X35385083Y2632612D01*
X35377496Y2521172D01*
X35363315Y2441602D01*
X35340650Y2386135D01*
X35307611Y2347006D01*
X35262309Y2316451D01*
X35207629Y2297664D01*
X35114356Y2285006D01*
X35012147Y2284650D01*
X34922747Y2297791D01*
X34911508Y2301091D01*
X34882359Y2318955D01*
X34871463Y2356191D01*
X34873138Y2427677D01*
X34876503Y2472242D01*
X34886058Y2519245D01*
X34907872Y2535986D01*
X34950906Y2534812D01*
X34954272Y2534463D01*
X35007456Y2533451D01*
X35044898Y2547526D01*
X35069307Y2583582D01*
X35083390Y2648515D01*
X35089854Y2749218D01*
X35091407Y2892588D01*
X35091407Y3199609D01*
X34892969Y3199609D01*
X34892969Y3447656D01*
X35091407Y3447656D01*
X35091407Y3847889D01*
X35240235Y3766071D01*
X41156846Y3776318D02*
X41135429Y3714377D01*
X41135429Y3714377D02*
X41101569Y3615666D01*
X41101569Y3615666D02*
X41058758Y3490397D01*
X41058758Y3490397D02*
X41010487Y3348781D01*
X41010487Y3348781D02*
X40968188Y3224414D01*
X40968188Y3224414D02*
X40920486Y3084256D01*
X40920486Y3084256D02*
X40877637Y2958812D01*
X40877637Y2958812D02*
X40842445Y2856259D01*
X40842445Y2856259D02*
X40817716Y2784773D01*
X40817716Y2784773D02*
X40806486Y2753125D01*
X40806486Y2753125D02*
X40795302Y2765225D01*
X40795302Y2765225D02*
X40771290Y2818763D01*
X40771290Y2818763D02*
X40736648Y2907896D01*
X40736648Y2907896D02*
X40693574Y3026783D01*
X40693574Y3026783D02*
X40644264Y3169581D01*
X40644264Y3169581D02*
X40601240Y3298828D01*
X40601240Y3298828D02*
X40410215Y3881738D01*
X40410215Y3881738D02*
X40243682Y3889073D01*
X40243682Y3889073D02*
X40160139Y3890071D01*
X40160139Y3890071D02*
X40100352Y3885671D01*
X40100352Y3885671D02*
X40077095Y3876823D01*
X40077095Y3876823D02*
X40077090Y3876670D01*
X40077090Y3876670D02*
X40085145Y3849387D01*
X40085145Y3849387D02*
X40108034Y3781030D01*
X40108034Y3781030D02*
X40143803Y3677207D01*
X40143803Y3677207D02*
X40190497Y3543527D01*
X40190497Y3543527D02*
X40246159Y3385598D01*
X40246159Y3385598D02*
X40308834Y3209028D01*
X40308834Y3209028D02*
X40354243Y3081787D01*
X40354243Y3081787D02*
X40631455Y2306641D01*
X40631455Y2306641D02*
X40801400Y2306641D01*
X40801400Y2306641D02*
X40892592Y2308236D01*
X40892592Y2308236D02*
X40946530Y2315421D01*
X40946530Y2315421D02*
X40975530Y2331792D01*
X40975530Y2331792D02*
X40991908Y2360946D01*
X40991908Y2360946D02*
X40992483Y2362451D01*
X40992483Y2362451D02*
X41006024Y2399404D01*
X41006024Y2399404D02*
X41034013Y2476695D01*
X41034013Y2476695D02*
X41074156Y2587962D01*
X41074156Y2587962D02*
X41124162Y2726842D01*
X41124162Y2726842D02*
X41181739Y2886973D01*
X41181739Y2886973D02*
X41244593Y3061993D01*
X41244593Y3061993D02*
X41262824Y3112793D01*
X41262824Y3112793D02*
X41326485Y3290091D01*
X41326485Y3290091D02*
X41385282Y3453604D01*
X41385282Y3453604D02*
X41436973Y3597115D01*
X41436973Y3597115D02*
X41479314Y3714402D01*
X41479314Y3714402D02*
X41510061Y3799247D01*
X41510061Y3799247D02*
X41526973Y3845430D01*
X41526973Y3845430D02*
X41528980Y3850732D01*
X41528980Y3850732D02*
X41532857Y3873454D01*
X41532857Y3873454D02*
X41516086Y3886542D01*
X41516086Y3886542D02*
X41469338Y3892574D01*
X41469338Y3892574D02*
X41383285Y3894132D01*
X41383285Y3894132D02*
X41371978Y3894141D01*
X41371978Y3894141D02*
X41198023Y3894141D01*
X41198023Y3894141D02*
X41156846Y3776318D01*
X41156846Y3776318D02*
X41156846Y3776318D01*
G36*
X41383285Y3894132D02*
G01*
X41469338Y3892574D01*
X41516086Y3886542D01*
X41532857Y3873454D01*
X41528980Y3850732D01*
X41526973Y3845430D01*
X41510061Y3799247D01*
X41479314Y3714402D01*
X41436973Y3597115D01*
X41385282Y3453604D01*
X41326485Y3290091D01*
X41262824Y3112793D01*
X41244593Y3061993D01*
X41181739Y2886973D01*
X41124162Y2726842D01*
X41074156Y2587962D01*
X41034013Y2476695D01*
X41006024Y2399404D01*
X40992483Y2362451D01*
X40991908Y2360946D01*
X40975530Y2331792D01*
X40946530Y2315421D01*
X40892592Y2308236D01*
X40801400Y2306641D01*
X40631455Y2306641D01*
X40354243Y3081787D01*
X40308834Y3209028D01*
X40246159Y3385598D01*
X40190497Y3543527D01*
X40143803Y3677207D01*
X40108034Y3781030D01*
X40085145Y3849387D01*
X40077090Y3876670D01*
X40077095Y3876823D01*
X40100352Y3885671D01*
X40160139Y3890071D01*
X40243682Y3889073D01*
X40410215Y3881738D01*
X40601240Y3298828D01*
X40644264Y3169581D01*
X40693574Y3026783D01*
X40736648Y2907896D01*
X40771290Y2818763D01*
X40795302Y2765225D01*
X40806486Y2753125D01*
X40817716Y2784773D01*
X40842445Y2856259D01*
X40877637Y2958812D01*
X40920486Y3084256D01*
X40968188Y3224414D01*
X41010487Y3348781D01*
X41058758Y3490397D01*
X41101569Y3615666D01*
X41135429Y3714377D01*
X41156846Y3776318D01*
X41198023Y3894141D01*
X41371978Y3894141D01*
X41383285Y3894132D01*
G37*
X41383285Y3894132D02*
X41469338Y3892574D01*
X41516086Y3886542D01*
X41532857Y3873454D01*
X41528980Y3850732D01*
X41526973Y3845430D01*
X41510061Y3799247D01*
X41479314Y3714402D01*
X41436973Y3597115D01*
X41385282Y3453604D01*
X41326485Y3290091D01*
X41262824Y3112793D01*
X41244593Y3061993D01*
X41181739Y2886973D01*
X41124162Y2726842D01*
X41074156Y2587962D01*
X41034013Y2476695D01*
X41006024Y2399404D01*
X40992483Y2362451D01*
X40991908Y2360946D01*
X40975530Y2331792D01*
X40946530Y2315421D01*
X40892592Y2308236D01*
X40801400Y2306641D01*
X40631455Y2306641D01*
X40354243Y3081787D01*
X40308834Y3209028D01*
X40246159Y3385598D01*
X40190497Y3543527D01*
X40143803Y3677207D01*
X40108034Y3781030D01*
X40085145Y3849387D01*
X40077090Y3876670D01*
X40077095Y3876823D01*
X40100352Y3885671D01*
X40160139Y3890071D01*
X40243682Y3889073D01*
X40410215Y3881738D01*
X40601240Y3298828D01*
X40644264Y3169581D01*
X40693574Y3026783D01*
X40736648Y2907896D01*
X40771290Y2818763D01*
X40795302Y2765225D01*
X40806486Y2753125D01*
X40817716Y2784773D01*
X40842445Y2856259D01*
X40877637Y2958812D01*
X40920486Y3084256D01*
X40968188Y3224414D01*
X41010487Y3348781D01*
X41058758Y3490397D01*
X41101569Y3615666D01*
X41135429Y3714377D01*
X41156846Y3776318D01*
X41198023Y3894141D01*
X41371978Y3894141D01*
X41383285Y3894132D01*
X31727583Y3459098D02*
X31603731Y3421989D01*
X31603731Y3421989D02*
X31507519Y3365601D01*
X31507519Y3365601D02*
X31451769Y3298828D01*
X31451769Y3298828D02*
X31437025Y3240582D01*
X31437025Y3240582D02*
X31426826Y3136608D01*
X31426826Y3136608D02*
X31421460Y2990608D01*
X31421460Y2990608D02*
X31420679Y2901158D01*
X31420679Y2901158D02*
X31417609Y2740985D01*
X31417609Y2740985D02*
X31409340Y2598908D01*
X31409340Y2598908D02*
X31396738Y2486816D01*
X31396738Y2486816D02*
X31386739Y2436070D01*
X31386739Y2436070D02*
X31353166Y2306641D01*
X31353166Y2306641D02*
X31500683Y2306641D01*
X31500683Y2306641D02*
X31585035Y2308949D01*
X31585035Y2308949D02*
X31632283Y2318429D01*
X31632283Y2318429D02*
X31654820Y2338910D01*
X31654820Y2338910D02*
X31661173Y2356250D01*
X31661173Y2356250D02*
X31669923Y2387900D01*
X31669923Y2387900D02*
X31682565Y2400719D01*
X31682565Y2400719D02*
X31710648Y2393727D01*
X31710648Y2393727D02*
X31765718Y2365942D01*
X31765718Y2365942D02*
X31807167Y2343848D01*
X31807167Y2343848D02*
X31947186Y2293851D01*
X31947186Y2293851D02*
X32093128Y2284766D01*
X32093128Y2284766D02*
X32229609Y2317505D01*
X32229609Y2317505D02*
X32232178Y2318611D01*
X32232178Y2318611D02*
X32322136Y2381721D01*
X32322136Y2381721D02*
X32381116Y2471740D01*
X32381116Y2471740D02*
X32408614Y2577006D01*
X32408614Y2577006D02*
X32405955Y2641504D01*
X32405955Y2641504D02*
X32114844Y2641504D01*
X32114844Y2641504D02*
X32092932Y2577405D01*
X32092932Y2577405D02*
X32037341Y2522318D01*
X32037341Y2522318D02*
X31990821Y2499730D01*
X31990821Y2499730D02*
X31922664Y2498521D01*
X31922664Y2498521D02*
X31842915Y2523914D01*
X31842915Y2523914D02*
X31775108Y2567480D01*
X31775108Y2567480D02*
X31761377Y2581898D01*
X31761377Y2581898D02*
X31728815Y2652911D01*
X31728815Y2652911D02*
X31717969Y2745142D01*
X31717969Y2745142D02*
X31720867Y2813145D01*
X31720867Y2813145D02*
X31732741Y2842484D01*
X31732741Y2842484D02*
X31758362Y2843923D01*
X31758362Y2843923D02*
X31761377Y2843089D01*
X31761377Y2843089D02*
X31811398Y2829373D01*
X31811398Y2829373D02*
X31885746Y2809808D01*
X31885746Y2809808D02*
X31916407Y2801903D01*
X31916407Y2801903D02*
X32029284Y2760386D01*
X32029284Y2760386D02*
X32095100Y2705386D01*
X32095100Y2705386D02*
X32114844Y2641504D01*
X32114844Y2641504D02*
X32405955Y2641504D01*
X32405955Y2641504D02*
X32404126Y2685857D01*
X32404126Y2685857D02*
X32367146Y2786630D01*
X32367146Y2786630D02*
X32297170Y2867661D01*
X32297170Y2867661D02*
X32257051Y2893405D01*
X32257051Y2893405D02*
X32196366Y2918075D01*
X32196366Y2918075D02*
X32103627Y2947758D01*
X32103627Y2947758D02*
X31995344Y2977336D01*
X31995344Y2977336D02*
X31953614Y2987470D01*
X31953614Y2987470D02*
X31848964Y3012588D01*
X31848964Y3012588D02*
X31783505Y3031886D01*
X31783505Y3031886D02*
X31748049Y3050517D01*
X31748049Y3050517D02*
X31733407Y3073635D01*
X31733407Y3073635D02*
X31730389Y3106395D01*
X31730389Y3106395D02*
X31730371Y3112687D01*
X31730371Y3112687D02*
X31750715Y3182131D01*
X31750715Y3182131D02*
X31803655Y3227883D01*
X31803655Y3227883D02*
X31877055Y3247701D01*
X31877055Y3247701D02*
X31958779Y3239344D01*
X31958779Y3239344D02*
X32036691Y3200568D01*
X32036691Y3200568D02*
X32065440Y3174585D01*
X32065440Y3174585D02*
X32108912Y3131461D01*
X32108912Y3131461D02*
X32145817Y3112847D01*
X32145817Y3112847D02*
X32195467Y3114060D01*
X32195467Y3114060D02*
X32261427Y3127031D01*
X32261427Y3127031D02*
X32332374Y3144261D01*
X32332374Y3144261D02*
X32378182Y3159252D01*
X32378182Y3159252D02*
X32387696Y3165690D01*
X32387696Y3165690D02*
X32373140Y3207610D01*
X32373140Y3207610D02*
X32337364Y3268206D01*
X32337364Y3268206D02*
X32292200Y3329159D01*
X32292200Y3329159D02*
X32259828Y3363605D01*
X32259828Y3363605D02*
X32163751Y3424979D01*
X32163751Y3424979D02*
X32037224Y3460617D01*
X32037224Y3460617D02*
X31873285Y3472453D01*
X31873285Y3472453D02*
X31868352Y3472461D01*
X31868352Y3472461D02*
X31727583Y3459098D01*
X31727583Y3459098D02*
X31727583Y3459098D01*
G36*
X32381116Y2471740D02*
G01*
X32322136Y2381721D01*
X32232178Y2318611D01*
X32229609Y2317505D01*
X32093128Y2284766D01*
X31947186Y2293851D01*
X31807167Y2343848D01*
X31765718Y2365942D01*
X31710648Y2393727D01*
X31682565Y2400719D01*
X31669923Y2387900D01*
X31661173Y2356250D01*
X31654820Y2338910D01*
X31632283Y2318429D01*
X31585035Y2308949D01*
X31500683Y2306641D01*
X31353166Y2306641D01*
X31386739Y2436070D01*
X31396738Y2486816D01*
X31409340Y2598908D01*
X31417609Y2740985D01*
X31417689Y2745142D01*
X31717969Y2745142D01*
X31728815Y2652911D01*
X31761377Y2581898D01*
X31775108Y2567480D01*
X31842915Y2523914D01*
X31922664Y2498521D01*
X31990821Y2499730D01*
X32037341Y2522318D01*
X32092932Y2577405D01*
X32114844Y2641504D01*
X32095100Y2705386D01*
X32029284Y2760386D01*
X31916407Y2801903D01*
X31885746Y2809808D01*
X31811398Y2829373D01*
X31761377Y2843089D01*
X31758362Y2843923D01*
X31732741Y2842484D01*
X31720867Y2813145D01*
X31717969Y2745142D01*
X31417689Y2745142D01*
X31420679Y2901158D01*
X31421460Y2990608D01*
X31426826Y3136608D01*
X31437025Y3240582D01*
X31451769Y3298828D01*
X31507519Y3365601D01*
X31603731Y3421989D01*
X31727583Y3459098D01*
X31868352Y3472461D01*
X31873285Y3472453D01*
X32037224Y3460617D01*
X32163751Y3424979D01*
X32259828Y3363605D01*
X32292200Y3329159D01*
X32337364Y3268206D01*
X32373140Y3207610D01*
X32387696Y3165690D01*
X32378182Y3159252D01*
X32332374Y3144261D01*
X32261427Y3127031D01*
X32195467Y3114060D01*
X32145817Y3112847D01*
X32108912Y3131461D01*
X32065440Y3174585D01*
X32036691Y3200568D01*
X31958779Y3239344D01*
X31877055Y3247701D01*
X31803655Y3227883D01*
X31750715Y3182131D01*
X31730371Y3112687D01*
X31730389Y3106395D01*
X31733407Y3073635D01*
X31748049Y3050517D01*
X31783505Y3031886D01*
X31848964Y3012588D01*
X31953614Y2987470D01*
X31995344Y2977336D01*
X32103627Y2947758D01*
X32196366Y2918075D01*
X32257051Y2893405D01*
X32297170Y2867661D01*
X32367146Y2786630D01*
X32404126Y2685857D01*
X32405955Y2641504D01*
X32408614Y2577006D01*
X32381116Y2471740D01*
G37*
X32381116Y2471740D02*
X32322136Y2381721D01*
X32232178Y2318611D01*
X32229609Y2317505D01*
X32093128Y2284766D01*
X31947186Y2293851D01*
X31807167Y2343848D01*
X31765718Y2365942D01*
X31710648Y2393727D01*
X31682565Y2400719D01*
X31669923Y2387900D01*
X31661173Y2356250D01*
X31654820Y2338910D01*
X31632283Y2318429D01*
X31585035Y2308949D01*
X31500683Y2306641D01*
X31353166Y2306641D01*
X31386739Y2436070D01*
X31396738Y2486816D01*
X31409340Y2598908D01*
X31417609Y2740985D01*
X31417689Y2745142D01*
X31717969Y2745142D01*
X31728815Y2652911D01*
X31761377Y2581898D01*
X31775108Y2567480D01*
X31842915Y2523914D01*
X31922664Y2498521D01*
X31990821Y2499730D01*
X32037341Y2522318D01*
X32092932Y2577405D01*
X32114844Y2641504D01*
X32095100Y2705386D01*
X32029284Y2760386D01*
X31916407Y2801903D01*
X31885746Y2809808D01*
X31811398Y2829373D01*
X31761377Y2843089D01*
X31758362Y2843923D01*
X31732741Y2842484D01*
X31720867Y2813145D01*
X31717969Y2745142D01*
X31417689Y2745142D01*
X31420679Y2901158D01*
X31421460Y2990608D01*
X31426826Y3136608D01*
X31437025Y3240582D01*
X31451769Y3298828D01*
X31507519Y3365601D01*
X31603731Y3421989D01*
X31727583Y3459098D01*
X31868352Y3472461D01*
X31873285Y3472453D01*
X32037224Y3460617D01*
X32163751Y3424979D01*
X32259828Y3363605D01*
X32292200Y3329159D01*
X32337364Y3268206D01*
X32373140Y3207610D01*
X32387696Y3165690D01*
X32378182Y3159252D01*
X32332374Y3144261D01*
X32261427Y3127031D01*
X32195467Y3114060D01*
X32145817Y3112847D01*
X32108912Y3131461D01*
X32065440Y3174585D01*
X32036691Y3200568D01*
X31958779Y3239344D01*
X31877055Y3247701D01*
X31803655Y3227883D01*
X31750715Y3182131D01*
X31730371Y3112687D01*
X31730389Y3106395D01*
X31733407Y3073635D01*
X31748049Y3050517D01*
X31783505Y3031886D01*
X31848964Y3012588D01*
X31953614Y2987470D01*
X31995344Y2977336D01*
X32103627Y2947758D01*
X32196366Y2918075D01*
X32257051Y2893405D01*
X32297170Y2867661D01*
X32367146Y2786630D01*
X32404126Y2685857D01*
X32405955Y2641504D01*
X32408614Y2577006D01*
X32381116Y2471740D01*
X27325212Y3906273D02*
X27245363Y3894586D01*
X27245363Y3894586D02*
X27188002Y3881654D01*
X27188002Y3881654D02*
X27168254Y3872484D01*
X27168254Y3872484D02*
X27165832Y3839116D01*
X27165832Y3839116D02*
X27173484Y3779313D01*
X27173484Y3779313D02*
X27175388Y3769504D01*
X27175388Y3769504D02*
X27189258Y3717834D01*
X27189258Y3717834D02*
X27213378Y3690482D01*
X27213378Y3690482D02*
X27262490Y3677111D01*
X27262490Y3677111D02*
X27316025Y3670898D01*
X27316025Y3670898D02*
X27439161Y3658496D01*
X27439161Y3658496D02*
X27454415Y3447656D01*
X27454415Y3447656D02*
X27225603Y3447656D01*
X27225603Y3447656D02*
X27240723Y3212012D01*
X27240723Y3212012D02*
X27346143Y3204384D01*
X27346143Y3204384D02*
X27451563Y3196757D01*
X27451563Y3196757D02*
X27451563Y2306641D01*
X27451563Y2306641D02*
X27774024Y2306641D01*
X27774024Y2306641D02*
X27774024Y3199609D01*
X27774024Y3199609D02*
X27848438Y3199609D01*
X27848438Y3199609D02*
X27892489Y3202319D01*
X27892489Y3202319D02*
X27914456Y3218979D01*
X27914456Y3218979D02*
X27922016Y3262387D01*
X27922016Y3262387D02*
X27922852Y3323633D01*
X27922852Y3323633D02*
X27921148Y3397072D01*
X27921148Y3397072D02*
X27911119Y3433696D01*
X27911119Y3433696D02*
X27885388Y3446290D01*
X27885388Y3446290D02*
X27851296Y3447656D01*
X27851296Y3447656D02*
X27810696Y3450772D01*
X27810696Y3450772D02*
X27787172Y3467996D01*
X27787172Y3467996D02*
X27773324Y3511145D01*
X27773324Y3511145D02*
X27761970Y3590283D01*
X27761970Y3590283D02*
X27744321Y3699490D01*
X27744321Y3699490D02*
X27718673Y3772309D01*
X27718673Y3772309D02*
X27676710Y3821962D01*
X27676710Y3821962D02*
X27610113Y3861668D01*
X27610113Y3861668D02*
X27583584Y3873840D01*
X27583584Y3873840D02*
X27501311Y3903421D01*
X27501311Y3903421D02*
X27421436Y3912879D01*
X27421436Y3912879D02*
X27325212Y3906273D01*
X27325212Y3906273D02*
X27325212Y3906273D01*
G36*
X27501311Y3903421D02*
G01*
X27583584Y3873840D01*
X27610113Y3861668D01*
X27676710Y3821962D01*
X27718673Y3772309D01*
X27744321Y3699490D01*
X27761970Y3590283D01*
X27773324Y3511145D01*
X27787172Y3467996D01*
X27810696Y3450772D01*
X27851296Y3447656D01*
X27885388Y3446290D01*
X27911119Y3433696D01*
X27921148Y3397072D01*
X27922852Y3323633D01*
X27922016Y3262387D01*
X27914456Y3218979D01*
X27892489Y3202319D01*
X27848438Y3199609D01*
X27774024Y3199609D01*
X27774024Y2306641D01*
X27451563Y2306641D01*
X27451563Y3196757D01*
X27346143Y3204384D01*
X27240723Y3212012D01*
X27225603Y3447656D01*
X27454415Y3447656D01*
X27439161Y3658496D01*
X27316025Y3670898D01*
X27262490Y3677111D01*
X27213378Y3690482D01*
X27189258Y3717834D01*
X27175388Y3769504D01*
X27173484Y3779313D01*
X27165832Y3839116D01*
X27168254Y3872484D01*
X27188002Y3881654D01*
X27245363Y3894586D01*
X27325212Y3906273D01*
X27421436Y3912879D01*
X27501311Y3903421D01*
G37*
X27501311Y3903421D02*
X27583584Y3873840D01*
X27610113Y3861668D01*
X27676710Y3821962D01*
X27718673Y3772309D01*
X27744321Y3699490D01*
X27761970Y3590283D01*
X27773324Y3511145D01*
X27787172Y3467996D01*
X27810696Y3450772D01*
X27851296Y3447656D01*
X27885388Y3446290D01*
X27911119Y3433696D01*
X27921148Y3397072D01*
X27922852Y3323633D01*
X27922016Y3262387D01*
X27914456Y3218979D01*
X27892489Y3202319D01*
X27848438Y3199609D01*
X27774024Y3199609D01*
X27774024Y2306641D01*
X27451563Y2306641D01*
X27451563Y3196757D01*
X27346143Y3204384D01*
X27240723Y3212012D01*
X27225603Y3447656D01*
X27454415Y3447656D01*
X27439161Y3658496D01*
X27316025Y3670898D01*
X27262490Y3677111D01*
X27213378Y3690482D01*
X27189258Y3717834D01*
X27175388Y3769504D01*
X27173484Y3779313D01*
X27165832Y3839116D01*
X27168254Y3872484D01*
X27188002Y3881654D01*
X27245363Y3894586D01*
X27325212Y3906273D01*
X27421436Y3912879D01*
X27501311Y3903421D01*
X36455664Y3325128D02*
X36366353Y3385736D01*
X36366353Y3385736D02*
X36238622Y3448657D01*
X36238622Y3448657D02*
X36106999Y3472029D01*
X36106999Y3472029D02*
X35981065Y3457347D01*
X35981065Y3457347D02*
X35870400Y3406105D01*
X35870400Y3406105D02*
X35784585Y3319797D01*
X35784585Y3319797D02*
X35767851Y3292393D01*
X35767851Y3292393D02*
X35751501Y3254944D01*
X35751501Y3254944D02*
X35739198Y3205603D01*
X35739198Y3205603D02*
X35730184Y3136629D01*
X35730184Y3136629D02*
X35723704Y3040283D01*
X35723704Y3040283D02*
X35719000Y2908825D01*
X35719000Y2908825D02*
X35715755Y2759326D01*
X35715755Y2759326D02*
X35707584Y2306641D01*
X35707584Y2306641D02*
X36009180Y2306641D01*
X36009180Y2306641D02*
X36009772Y2647705D01*
X36009772Y2647705D02*
X36013144Y2845566D01*
X36013144Y2845566D02*
X36022809Y2997832D01*
X36022809Y2997832D02*
X36039240Y3108174D01*
X36039240Y3108174D02*
X36062914Y3180264D01*
X36062914Y3180264D02*
X36082342Y3208280D01*
X36082342Y3208280D02*
X36123340Y3225942D01*
X36123340Y3225942D02*
X36190482Y3235259D01*
X36190482Y3235259D02*
X36208294Y3235689D01*
X36208294Y3235689D02*
X36295511Y3222762D01*
X36295511Y3222762D02*
X36365800Y3176494D01*
X36365800Y3176494D02*
X36375049Y3167522D01*
X36375049Y3167522D02*
X36400577Y3140724D01*
X36400577Y3140724D02*
X36418953Y3113819D01*
X36418953Y3113819D02*
X36431562Y3078402D01*
X36431562Y3078402D02*
X36439791Y3026069D01*
X36439791Y3026069D02*
X36445026Y2948413D01*
X36445026Y2948413D02*
X36448652Y2837030D01*
X36448652Y2837030D02*
X36451643Y2702998D01*
X36451643Y2702998D02*
X36460023Y2306641D01*
X36460023Y2306641D02*
X36753321Y2306641D01*
X36753321Y2306641D02*
X36753321Y3894141D01*
X36753321Y3894141D02*
X36455664Y3894141D01*
X36455664Y3894141D02*
X36455664Y3325128D01*
X36455664Y3325128D02*
X36455664Y3325128D01*
G36*
X36753321Y2306641D02*
G01*
X36460023Y2306641D01*
X36451643Y2702998D01*
X36448652Y2837030D01*
X36445026Y2948413D01*
X36439791Y3026069D01*
X36431562Y3078402D01*
X36418953Y3113819D01*
X36400577Y3140724D01*
X36375049Y3167522D01*
X36365800Y3176494D01*
X36295511Y3222762D01*
X36208294Y3235689D01*
X36190482Y3235259D01*
X36123340Y3225942D01*
X36082342Y3208280D01*
X36062914Y3180264D01*
X36039240Y3108174D01*
X36022809Y2997832D01*
X36013144Y2845566D01*
X36009772Y2647705D01*
X36009180Y2306641D01*
X35707584Y2306641D01*
X35715755Y2759326D01*
X35719000Y2908825D01*
X35723704Y3040283D01*
X35730184Y3136629D01*
X35739198Y3205603D01*
X35751501Y3254944D01*
X35767851Y3292393D01*
X35784585Y3319797D01*
X35870400Y3406105D01*
X35981065Y3457347D01*
X36106999Y3472029D01*
X36238622Y3448657D01*
X36366353Y3385736D01*
X36455664Y3325128D01*
X36455664Y3894141D01*
X36753321Y3894141D01*
X36753321Y2306641D01*
G37*
X36753321Y2306641D02*
X36460023Y2306641D01*
X36451643Y2702998D01*
X36448652Y2837030D01*
X36445026Y2948413D01*
X36439791Y3026069D01*
X36431562Y3078402D01*
X36418953Y3113819D01*
X36400577Y3140724D01*
X36375049Y3167522D01*
X36365800Y3176494D01*
X36295511Y3222762D01*
X36208294Y3235689D01*
X36190482Y3235259D01*
X36123340Y3225942D01*
X36082342Y3208280D01*
X36062914Y3180264D01*
X36039240Y3108174D01*
X36022809Y2997832D01*
X36013144Y2845566D01*
X36009772Y2647705D01*
X36009180Y2306641D01*
X35707584Y2306641D01*
X35715755Y2759326D01*
X35719000Y2908825D01*
X35723704Y3040283D01*
X35730184Y3136629D01*
X35739198Y3205603D01*
X35751501Y3254944D01*
X35767851Y3292393D01*
X35784585Y3319797D01*
X35870400Y3406105D01*
X35981065Y3457347D01*
X36106999Y3472029D01*
X36238622Y3448657D01*
X36366353Y3385736D01*
X36455664Y3325128D01*
X36455664Y3894141D01*
X36753321Y3894141D01*
X36753321Y2306641D01*
X26546125Y3901054D02*
X26477632Y3885508D01*
X26477632Y3885508D02*
X26444542Y3865403D01*
X26444542Y3865403D02*
X26438709Y3826540D01*
X26438709Y3826540D02*
X26444283Y3763733D01*
X26444283Y3763733D02*
X26445638Y3756105D01*
X26445638Y3756105D02*
X26458919Y3703256D01*
X26458919Y3703256D02*
X26482789Y3678536D01*
X26482789Y3678536D02*
X26532954Y3671294D01*
X26532954Y3671294D02*
X26571248Y3670898D01*
X26571248Y3670898D02*
X26660100Y3658407D01*
X26660100Y3658407D02*
X26711331Y3616700D01*
X26711331Y3616700D02*
X26731345Y3539429D01*
X26731345Y3539429D02*
X26732227Y3511299D01*
X26732227Y3511299D02*
X26727832Y3472056D01*
X26727832Y3472056D02*
X26705759Y3453464D01*
X26705759Y3453464D02*
X26652680Y3447921D01*
X26652680Y3447921D02*
X26620606Y3447656D01*
X26620606Y3447656D02*
X26508985Y3447656D01*
X26508985Y3447656D02*
X26508985Y3199609D01*
X26508985Y3199609D02*
X26732227Y3199609D01*
X26732227Y3199609D02*
X26732227Y2306641D01*
X26732227Y2306641D02*
X27029883Y2306641D01*
X27029883Y2306641D02*
X27029883Y3196466D01*
X27029883Y3196466D02*
X27110498Y3204239D01*
X27110498Y3204239D02*
X27159400Y3212240D01*
X27159400Y3212240D02*
X27184262Y3233210D01*
X27184262Y3233210D02*
X27194926Y3281165D01*
X27194926Y3281165D02*
X27198674Y3329834D01*
X27198674Y3329834D02*
X27206234Y3447656D01*
X27206234Y3447656D02*
X27036773Y3447656D01*
X27036773Y3447656D02*
X27023067Y3598807D01*
X27023067Y3598807D02*
X26998848Y3725057D01*
X26998848Y3725057D02*
X26949120Y3813464D01*
X26949120Y3813464D02*
X26868091Y3871707D01*
X26868091Y3871707D02*
X26798684Y3896283D01*
X26798684Y3896283D02*
X26722635Y3907835D01*
X26722635Y3907835D02*
X26633121Y3908961D01*
X26633121Y3908961D02*
X26546125Y3901054D01*
X26546125Y3901054D02*
X26546125Y3901054D01*
G36*
X26722635Y3907835D02*
G01*
X26798684Y3896283D01*
X26868091Y3871707D01*
X26949120Y3813464D01*
X26998848Y3725057D01*
X27023067Y3598807D01*
X27036773Y3447656D01*
X27206234Y3447656D01*
X27198674Y3329834D01*
X27194926Y3281165D01*
X27184262Y3233210D01*
X27159400Y3212240D01*
X27110498Y3204239D01*
X27029883Y3196466D01*
X27029883Y2306641D01*
X26732227Y2306641D01*
X26732227Y3199609D01*
X26508985Y3199609D01*
X26508985Y3447656D01*
X26620606Y3447656D01*
X26652680Y3447921D01*
X26705759Y3453464D01*
X26727832Y3472056D01*
X26732227Y3511299D01*
X26731345Y3539429D01*
X26711331Y3616700D01*
X26660100Y3658407D01*
X26571248Y3670898D01*
X26532954Y3671294D01*
X26482789Y3678536D01*
X26458919Y3703256D01*
X26445638Y3756105D01*
X26444283Y3763733D01*
X26438709Y3826540D01*
X26444542Y3865403D01*
X26477632Y3885508D01*
X26546125Y3901054D01*
X26633121Y3908961D01*
X26722635Y3907835D01*
G37*
X26722635Y3907835D02*
X26798684Y3896283D01*
X26868091Y3871707D01*
X26949120Y3813464D01*
X26998848Y3725057D01*
X27023067Y3598807D01*
X27036773Y3447656D01*
X27206234Y3447656D01*
X27198674Y3329834D01*
X27194926Y3281165D01*
X27184262Y3233210D01*
X27159400Y3212240D01*
X27110498Y3204239D01*
X27029883Y3196466D01*
X27029883Y2306641D01*
X26732227Y2306641D01*
X26732227Y3199609D01*
X26508985Y3199609D01*
X26508985Y3447656D01*
X26620606Y3447656D01*
X26652680Y3447921D01*
X26705759Y3453464D01*
X26727832Y3472056D01*
X26732227Y3511299D01*
X26731345Y3539429D01*
X26711331Y3616700D01*
X26660100Y3658407D01*
X26571248Y3670898D01*
X26532954Y3671294D01*
X26482789Y3678536D01*
X26458919Y3703256D01*
X26445638Y3756105D01*
X26444283Y3763733D01*
X26438709Y3826540D01*
X26444542Y3865403D01*
X26477632Y3885508D01*
X26546125Y3901054D01*
X26633121Y3908961D01*
X26722635Y3907835D01*
X33615528Y3881738D02*
X33603125Y3542761D01*
X33603125Y3542761D02*
X33590723Y3203783D01*
X33590723Y3203783D02*
X33273295Y3548962D01*
X33273295Y3548962D02*
X32955866Y3894141D01*
X32955866Y3894141D02*
X32758597Y3894141D01*
X32758597Y3894141D02*
X32666741Y3892404D01*
X32666741Y3892404D02*
X32597680Y3887791D01*
X32597680Y3887791D02*
X32563188Y3881197D01*
X32563188Y3881197D02*
X32561328Y3879141D01*
X32561328Y3879141D02*
X32577641Y3857125D01*
X32577641Y3857125D02*
X32622789Y3805714D01*
X32622789Y3805714D02*
X32691087Y3731141D01*
X32691087Y3731141D02*
X32776850Y3639640D01*
X32776850Y3639640D02*
X32846464Y3566522D01*
X32846464Y3566522D02*
X32950146Y3455587D01*
X32950146Y3455587D02*
X33031821Y3362645D01*
X33031821Y3362645D02*
X33087582Y3292455D01*
X33087582Y3292455D02*
X33113523Y3249774D01*
X33113523Y3249774D02*
X33114237Y3240457D01*
X33114237Y3240457D02*
X33095885Y3211783D01*
X33095885Y3211783D02*
X33054776Y3148316D01*
X33054776Y3148316D02*
X32995289Y3056791D01*
X32995289Y3056791D02*
X32921802Y2943945D01*
X32921802Y2943945D02*
X32838696Y2816514D01*
X32838696Y2816514D02*
X32821607Y2790332D01*
X32821607Y2790332D02*
X32737004Y2660624D01*
X32737004Y2660624D02*
X32661056Y2543980D01*
X32661056Y2543980D02*
X32598169Y2447189D01*
X32598169Y2447189D02*
X32552754Y2377039D01*
X32552754Y2377039D02*
X32529219Y2340316D01*
X32529219Y2340316D02*
X32527566Y2337646D01*
X32527566Y2337646D02*
X32529498Y2321922D01*
X32529498Y2321922D02*
X32562883Y2312319D01*
X32562883Y2312319D02*
X32634322Y2307756D01*
X32634322Y2307756D02*
X32714894Y2306987D01*
X32714894Y2306987D02*
X32920996Y2307334D01*
X32920996Y2307334D02*
X33112946Y2635650D01*
X33112946Y2635650D02*
X33181407Y2752484D01*
X33181407Y2752484D02*
X33242379Y2856049D01*
X33242379Y2856049D02*
X33290850Y2937868D01*
X33290850Y2937868D02*
X33321807Y2989463D01*
X33321807Y2989463D02*
X33329066Y3001146D01*
X33329066Y3001146D02*
X33347791Y3015116D01*
X33347791Y3015116D02*
X33377370Y3004722D01*
X33377370Y3004722D02*
X33425885Y2965308D01*
X33425885Y2965308D02*
X33478181Y2915262D01*
X33478181Y2915262D02*
X33603125Y2792197D01*
X33603125Y2792197D02*
X33603125Y2306641D01*
X33603125Y2306641D02*
X33925586Y2306641D01*
X33925586Y2306641D02*
X33925586Y3896508D01*
X33925586Y3896508D02*
X33615528Y3881738D01*
X33615528Y3881738D02*
X33615528Y3881738D01*
G36*
X33925586Y2306641D02*
G01*
X33603125Y2306641D01*
X33603125Y2792197D01*
X33478181Y2915262D01*
X33425885Y2965308D01*
X33377370Y3004722D01*
X33347791Y3015116D01*
X33329066Y3001146D01*
X33321807Y2989463D01*
X33290850Y2937868D01*
X33242379Y2856049D01*
X33181407Y2752484D01*
X33112946Y2635650D01*
X32920996Y2307334D01*
X32714894Y2306987D01*
X32634322Y2307756D01*
X32562883Y2312319D01*
X32529498Y2321922D01*
X32527566Y2337646D01*
X32529219Y2340316D01*
X32552754Y2377039D01*
X32598169Y2447189D01*
X32661056Y2543980D01*
X32737004Y2660624D01*
X32821607Y2790332D01*
X32838696Y2816514D01*
X32921802Y2943945D01*
X32995289Y3056791D01*
X33054776Y3148316D01*
X33095885Y3211783D01*
X33114237Y3240457D01*
X33113523Y3249774D01*
X33087582Y3292455D01*
X33031821Y3362645D01*
X32950146Y3455587D01*
X32846464Y3566522D01*
X32776850Y3639640D01*
X32691087Y3731141D01*
X32622789Y3805714D01*
X32577641Y3857125D01*
X32561328Y3879141D01*
X32563188Y3881197D01*
X32597680Y3887791D01*
X32666741Y3892404D01*
X32758597Y3894141D01*
X32955866Y3894141D01*
X33273295Y3548962D01*
X33590723Y3203783D01*
X33603125Y3542761D01*
X33615528Y3881738D01*
X33925586Y3896508D01*
X33925586Y2306641D01*
G37*
X33925586Y2306641D02*
X33603125Y2306641D01*
X33603125Y2792197D01*
X33478181Y2915262D01*
X33425885Y2965308D01*
X33377370Y3004722D01*
X33347791Y3015116D01*
X33329066Y3001146D01*
X33321807Y2989463D01*
X33290850Y2937868D01*
X33242379Y2856049D01*
X33181407Y2752484D01*
X33112946Y2635650D01*
X32920996Y2307334D01*
X32714894Y2306987D01*
X32634322Y2307756D01*
X32562883Y2312319D01*
X32529498Y2321922D01*
X32527566Y2337646D01*
X32529219Y2340316D01*
X32552754Y2377039D01*
X32598169Y2447189D01*
X32661056Y2543980D01*
X32737004Y2660624D01*
X32821607Y2790332D01*
X32838696Y2816514D01*
X32921802Y2943945D01*
X32995289Y3056791D01*
X33054776Y3148316D01*
X33095885Y3211783D01*
X33114237Y3240457D01*
X33113523Y3249774D01*
X33087582Y3292455D01*
X33031821Y3362645D01*
X32950146Y3455587D01*
X32846464Y3566522D01*
X32776850Y3639640D01*
X32691087Y3731141D01*
X32622789Y3805714D01*
X32577641Y3857125D01*
X32561328Y3879141D01*
X32563188Y3881197D01*
X32597680Y3887791D01*
X32666741Y3892404D01*
X32758597Y3894141D01*
X32955866Y3894141D01*
X33273295Y3548962D01*
X33590723Y3203783D01*
X33603125Y3542761D01*
X33615528Y3881738D01*
X33925586Y3896508D01*
X33925586Y2306641D01*
X28366295Y3443001D02*
X28320176Y3423081D01*
X28320176Y3423081D02*
X28200579Y3337569D01*
X28200579Y3337569D02*
X28115867Y3219927D01*
X28115867Y3219927D02*
X28065128Y3068295D01*
X28065128Y3068295D02*
X28047447Y2880809D01*
X28047447Y2880809D02*
X28047420Y2867246D01*
X28047420Y2867246D02*
X28064723Y2694622D01*
X28064723Y2694622D02*
X28113160Y2543258D01*
X28113160Y2543258D02*
X28189194Y2424131D01*
X28189194Y2424131D02*
X28190866Y2422269D01*
X28190866Y2422269D02*
X28287070Y2346303D01*
X28287070Y2346303D02*
X28403091Y2300495D01*
X28403091Y2300495D02*
X28526474Y2285479D01*
X28526474Y2285479D02*
X28644759Y2301889D01*
X28644759Y2301889D02*
X28745492Y2350358D01*
X28745492Y2350358D02*
X28789659Y2391821D01*
X28789659Y2391821D02*
X28825807Y2423897D01*
X28825807Y2423897D02*
X28843663Y2430664D01*
X28843663Y2430664D02*
X28852232Y2407495D01*
X28852232Y2407495D02*
X28859214Y2344514D01*
X28859214Y2344514D02*
X28863860Y2251512D01*
X28863860Y2251512D02*
X28865430Y2145410D01*
X28865430Y2145410D02*
X28865430Y1860156D01*
X28865430Y1860156D02*
X29163086Y1860156D01*
X29163086Y1860156D02*
X29163086Y2925045D01*
X29163086Y2925045D02*
X28855739Y2925045D01*
X28855739Y2925045D02*
X28849633Y2796022D01*
X28849633Y2796022D02*
X28813323Y2676907D01*
X28813323Y2676907D02*
X28753213Y2589043D01*
X28753213Y2589043D02*
X28678384Y2543608D01*
X28678384Y2543608D02*
X28587334Y2528260D01*
X28587334Y2528260D02*
X28499481Y2543703D01*
X28499481Y2543703D02*
X28445361Y2577882D01*
X28445361Y2577882D02*
X28385842Y2669364D01*
X28385842Y2669364D02*
X28354349Y2786649D01*
X28354349Y2786649D02*
X28350829Y2914641D01*
X28350829Y2914641D02*
X28375226Y3038245D01*
X28375226Y3038245D02*
X28427486Y3142365D01*
X28427486Y3142365D02*
X28447482Y3166374D01*
X28447482Y3166374D02*
X28525338Y3216408D01*
X28525338Y3216408D02*
X28617794Y3228159D01*
X28617794Y3228159D02*
X28708901Y3202429D01*
X28708901Y3202429D02*
X28774907Y3149882D01*
X28774907Y3149882D02*
X28831033Y3048243D01*
X28831033Y3048243D02*
X28855739Y2925045D01*
X28855739Y2925045D02*
X29163086Y2925045D01*
X29163086Y2925045D02*
X29163086Y3447656D01*
X29163086Y3447656D02*
X28865430Y3447656D01*
X28865430Y3447656D02*
X28865430Y3368501D01*
X28865430Y3368501D02*
X28862841Y3318016D01*
X28862841Y3318016D02*
X28851638Y3310475D01*
X28851638Y3310475D02*
X28834424Y3329135D01*
X28834424Y3329135D02*
X28742924Y3408684D01*
X28742924Y3408684D02*
X28625388Y3455825D01*
X28625388Y3455825D02*
X28495338Y3468087D01*
X28495338Y3468087D02*
X28366295Y3443001D01*
X28366295Y3443001D02*
X28366295Y3443001D01*
G36*
X28865430Y1860156D02*
G01*
X28865430Y2145410D01*
X28863860Y2251512D01*
X28859214Y2344514D01*
X28852232Y2407495D01*
X28843663Y2430664D01*
X28825807Y2423897D01*
X28789659Y2391821D01*
X28745492Y2350358D01*
X28644759Y2301889D01*
X28526474Y2285479D01*
X28403091Y2300495D01*
X28287070Y2346303D01*
X28190866Y2422269D01*
X28189194Y2424131D01*
X28113160Y2543258D01*
X28064723Y2694622D01*
X28047420Y2867246D01*
X28047447Y2880809D01*
X28050638Y2914641D01*
X28350829Y2914641D01*
X28354349Y2786649D01*
X28385842Y2669364D01*
X28445361Y2577882D01*
X28499481Y2543703D01*
X28587334Y2528260D01*
X28678384Y2543608D01*
X28753213Y2589043D01*
X28813323Y2676907D01*
X28849633Y2796022D01*
X28855739Y2925045D01*
X28831033Y3048243D01*
X28774907Y3149882D01*
X28708901Y3202429D01*
X28617794Y3228159D01*
X28525338Y3216408D01*
X28447482Y3166374D01*
X28427486Y3142365D01*
X28375226Y3038245D01*
X28350829Y2914641D01*
X28050638Y2914641D01*
X28065128Y3068295D01*
X28115867Y3219927D01*
X28200579Y3337569D01*
X28320176Y3423081D01*
X28366295Y3443001D01*
X28495338Y3468087D01*
X28625388Y3455825D01*
X28742924Y3408684D01*
X28834424Y3329135D01*
X28851638Y3310475D01*
X28862841Y3318016D01*
X28865430Y3368501D01*
X28865430Y3447656D01*
X29163086Y3447656D01*
X29163086Y1860156D01*
X28865430Y1860156D01*
G37*
X28865430Y1860156D02*
X28865430Y2145410D01*
X28863860Y2251512D01*
X28859214Y2344514D01*
X28852232Y2407495D01*
X28843663Y2430664D01*
X28825807Y2423897D01*
X28789659Y2391821D01*
X28745492Y2350358D01*
X28644759Y2301889D01*
X28526474Y2285479D01*
X28403091Y2300495D01*
X28287070Y2346303D01*
X28190866Y2422269D01*
X28189194Y2424131D01*
X28113160Y2543258D01*
X28064723Y2694622D01*
X28047420Y2867246D01*
X28047447Y2880809D01*
X28050638Y2914641D01*
X28350829Y2914641D01*
X28354349Y2786649D01*
X28385842Y2669364D01*
X28445361Y2577882D01*
X28499481Y2543703D01*
X28587334Y2528260D01*
X28678384Y2543608D01*
X28753213Y2589043D01*
X28813323Y2676907D01*
X28849633Y2796022D01*
X28855739Y2925045D01*
X28831033Y3048243D01*
X28774907Y3149882D01*
X28708901Y3202429D01*
X28617794Y3228159D01*
X28525338Y3216408D01*
X28447482Y3166374D01*
X28427486Y3142365D01*
X28375226Y3038245D01*
X28350829Y2914641D01*
X28050638Y2914641D01*
X28065128Y3068295D01*
X28115867Y3219927D01*
X28200579Y3337569D01*
X28320176Y3423081D01*
X28366295Y3443001D01*
X28495338Y3468087D01*
X28625388Y3455825D01*
X28742924Y3408684D01*
X28834424Y3329135D01*
X28851638Y3310475D01*
X28862841Y3318016D01*
X28865430Y3368501D01*
X28865430Y3447656D01*
X29163086Y3447656D01*
X29163086Y1860156D01*
X28865430Y1860156D01*
X39319215Y3432037D02*
X39200564Y3360537D01*
X39200564Y3360537D02*
X39137161Y3303286D01*
X39137161Y3303286D02*
X39033797Y3167393D01*
X39033797Y3167393D02*
X38973671Y3016246D01*
X38973671Y3016246D02*
X38956817Y2858119D01*
X38956817Y2858119D02*
X38983265Y2701286D01*
X38983265Y2701286D02*
X39053047Y2554019D01*
X39053047Y2554019D02*
X39133884Y2454782D01*
X39133884Y2454782D02*
X39268846Y2353090D01*
X39268846Y2353090D02*
X39422786Y2294751D01*
X39422786Y2294751D02*
X39587623Y2281541D01*
X39587623Y2281541D02*
X39755278Y2315236D01*
X39755278Y2315236D02*
X39760664Y2317131D01*
X39760664Y2317131D02*
X39884188Y2372911D01*
X39884188Y2372911D02*
X39976559Y2445919D01*
X39976559Y2445919D02*
X40046190Y2534839D01*
X40046190Y2534839D02*
X40082537Y2597436D01*
X40082537Y2597436D02*
X40104594Y2660914D01*
X40104594Y2660914D02*
X40116647Y2742374D01*
X40116647Y2742374D02*
X40122213Y2838094D01*
X40122213Y2838094D02*
X40122998Y2877148D01*
X40122998Y2877148D02*
X39829102Y2877148D01*
X39829102Y2877148D02*
X39811407Y2751501D01*
X39811407Y2751501D02*
X39763295Y2649561D01*
X39763295Y2649561D02*
X39692226Y2575960D01*
X39692226Y2575960D02*
X39605659Y2535328D01*
X39605659Y2535328D02*
X39511055Y2532296D01*
X39511055Y2532296D02*
X39415872Y2571495D01*
X39415872Y2571495D02*
X39380684Y2598799D01*
X39380684Y2598799D02*
X39313506Y2689642D01*
X39313506Y2689642D02*
X39278349Y2803792D01*
X39278349Y2803792D02*
X39275213Y2926663D01*
X39275213Y2926663D02*
X39304097Y3043670D01*
X39304097Y3043670D02*
X39365001Y3140228D01*
X39365001Y3140228D02*
X39380684Y3155498D01*
X39380684Y3155498D02*
X39473942Y3211991D01*
X39473942Y3211991D02*
X39569594Y3224518D01*
X39569594Y3224518D02*
X39660151Y3197728D01*
X39660151Y3197728D02*
X39738123Y3136270D01*
X39738123Y3136270D02*
X39796022Y3044792D01*
X39796022Y3044792D02*
X39826359Y2927943D01*
X39826359Y2927943D02*
X39829102Y2877148D01*
X39829102Y2877148D02*
X40122998Y2877148D01*
X40122998Y2877148D02*
X40124364Y2945092D01*
X40124364Y2945092D02*
X40118412Y3021604D01*
X40118412Y3021604D02*
X40100873Y3086540D01*
X40100873Y3086540D02*
X40068262Y3158809D01*
X40068262Y3158809D02*
X40060201Y3174684D01*
X40060201Y3174684D02*
X39967308Y3307349D01*
X39967308Y3307349D02*
X39844830Y3400292D01*
X39844830Y3400292D02*
X39692392Y3453756D01*
X39692392Y3453756D02*
X39614369Y3464960D01*
X39614369Y3464960D02*
X39453072Y3465463D01*
X39453072Y3465463D02*
X39319215Y3432037D01*
X39319215Y3432037D02*
X39319215Y3432037D01*
G36*
X40116647Y2742374D02*
G01*
X40104594Y2660914D01*
X40082537Y2597436D01*
X40046190Y2534839D01*
X39976559Y2445919D01*
X39884188Y2372911D01*
X39760664Y2317131D01*
X39755278Y2315236D01*
X39587623Y2281541D01*
X39422786Y2294751D01*
X39268846Y2353090D01*
X39133884Y2454782D01*
X39053047Y2554019D01*
X38983265Y2701286D01*
X38956817Y2858119D01*
X38964123Y2926663D01*
X39275213Y2926663D01*
X39278349Y2803792D01*
X39313506Y2689642D01*
X39380684Y2598799D01*
X39415872Y2571495D01*
X39511055Y2532296D01*
X39605659Y2535328D01*
X39692226Y2575960D01*
X39763295Y2649561D01*
X39811407Y2751501D01*
X39829102Y2877148D01*
X39826359Y2927943D01*
X39796022Y3044792D01*
X39738123Y3136270D01*
X39660151Y3197728D01*
X39569594Y3224518D01*
X39473942Y3211991D01*
X39380684Y3155498D01*
X39365001Y3140228D01*
X39304097Y3043670D01*
X39275213Y2926663D01*
X38964123Y2926663D01*
X38973671Y3016246D01*
X39033797Y3167393D01*
X39137161Y3303286D01*
X39200564Y3360537D01*
X39319215Y3432037D01*
X39453072Y3465463D01*
X39614369Y3464960D01*
X39692392Y3453756D01*
X39844830Y3400292D01*
X39967308Y3307349D01*
X40060201Y3174684D01*
X40068262Y3158809D01*
X40100873Y3086540D01*
X40118412Y3021604D01*
X40124364Y2945092D01*
X40122998Y2877148D01*
X40122213Y2838094D01*
X40116647Y2742374D01*
G37*
X40116647Y2742374D02*
X40104594Y2660914D01*
X40082537Y2597436D01*
X40046190Y2534839D01*
X39976559Y2445919D01*
X39884188Y2372911D01*
X39760664Y2317131D01*
X39755278Y2315236D01*
X39587623Y2281541D01*
X39422786Y2294751D01*
X39268846Y2353090D01*
X39133884Y2454782D01*
X39053047Y2554019D01*
X38983265Y2701286D01*
X38956817Y2858119D01*
X38964123Y2926663D01*
X39275213Y2926663D01*
X39278349Y2803792D01*
X39313506Y2689642D01*
X39380684Y2598799D01*
X39415872Y2571495D01*
X39511055Y2532296D01*
X39605659Y2535328D01*
X39692226Y2575960D01*
X39763295Y2649561D01*
X39811407Y2751501D01*
X39829102Y2877148D01*
X39826359Y2927943D01*
X39796022Y3044792D01*
X39738123Y3136270D01*
X39660151Y3197728D01*
X39569594Y3224518D01*
X39473942Y3211991D01*
X39380684Y3155498D01*
X39365001Y3140228D01*
X39304097Y3043670D01*
X39275213Y2926663D01*
X38964123Y2926663D01*
X38973671Y3016246D01*
X39033797Y3167393D01*
X39137161Y3303286D01*
X39200564Y3360537D01*
X39319215Y3432037D01*
X39453072Y3465463D01*
X39614369Y3464960D01*
X39692392Y3453756D01*
X39844830Y3400292D01*
X39967308Y3307349D01*
X40060201Y3174684D01*
X40068262Y3158809D01*
X40100873Y3086540D01*
X40118412Y3021604D01*
X40124364Y2945092D01*
X40122998Y2877148D01*
X40122213Y2838094D01*
X40116647Y2742374D01*
X30397173Y3463804D02*
X30392871Y3462765D01*
X30392871Y3462765D02*
X30334644Y3436444D01*
X30334644Y3436444D02*
X30266093Y3390008D01*
X30266093Y3390008D02*
X30245983Y3373333D01*
X30245983Y3373333D02*
X30162150Y3299726D01*
X30162150Y3299726D02*
X30115304Y3352310D01*
X30115304Y3352310D02*
X30022069Y3424164D01*
X30022069Y3424164D02*
X29908577Y3462924D01*
X29908577Y3462924D02*
X29787273Y3469277D01*
X29787273Y3469277D02*
X29670598Y3443911D01*
X29670598Y3443911D02*
X29570994Y3387513D01*
X29570994Y3387513D02*
X29510988Y3318924D01*
X29510988Y3318924D02*
X29493265Y3285923D01*
X29493265Y3285923D02*
X29480265Y3248342D01*
X29480265Y3248342D02*
X29471267Y3198304D01*
X29471267Y3198304D02*
X29465548Y3127932D01*
X29465548Y3127932D02*
X29462386Y3029348D01*
X29462386Y3029348D02*
X29461059Y2894675D01*
X29461059Y2894675D02*
X29460835Y2771729D01*
X29460835Y2771729D02*
X29460743Y2306641D01*
X29460743Y2306641D02*
X29758399Y2306641D01*
X29758399Y2306641D02*
X29758399Y2728320D01*
X29758399Y2728320D02*
X29758762Y2883132D01*
X29758762Y2883132D02*
X29760428Y2996189D01*
X29760428Y2996189D02*
X29764261Y3075344D01*
X29764261Y3075344D02*
X29771128Y3128451D01*
X29771128Y3128451D02*
X29781891Y3163363D01*
X29781891Y3163363D02*
X29797418Y3187931D01*
X29797418Y3187931D02*
X29810592Y3202193D01*
X29810592Y3202193D02*
X29878544Y3238258D01*
X29878544Y3238258D02*
X29960712Y3235717D01*
X29960712Y3235717D02*
X30042306Y3196213D01*
X30042306Y3196213D02*
X30068371Y3173579D01*
X30068371Y3173579D02*
X30087011Y3150916D01*
X30087011Y3150916D02*
X30100641Y3120535D01*
X30100641Y3120535D02*
X30110257Y3074508D01*
X30110257Y3074508D02*
X30116856Y3004903D01*
X30116856Y3004903D02*
X30121432Y2903791D01*
X30121432Y2903791D02*
X30124983Y2763241D01*
X30124983Y2763241D02*
X30125937Y2715295D01*
X30125937Y2715295D02*
X30133808Y2306641D01*
X30133808Y2306641D02*
X30452930Y2306641D01*
X30452930Y2306641D02*
X30452930Y2728320D01*
X30452930Y2728320D02*
X30453293Y2883132D01*
X30453293Y2883132D02*
X30454959Y2996189D01*
X30454959Y2996189D02*
X30458793Y3075344D01*
X30458793Y3075344D02*
X30465659Y3128451D01*
X30465659Y3128451D02*
X30476423Y3163363D01*
X30476423Y3163363D02*
X30491949Y3187931D01*
X30491949Y3187931D02*
X30505123Y3202193D01*
X30505123Y3202193D02*
X30573075Y3238258D01*
X30573075Y3238258D02*
X30655243Y3235717D01*
X30655243Y3235717D02*
X30736837Y3196213D01*
X30736837Y3196213D02*
X30762903Y3173579D01*
X30762903Y3173579D02*
X30781543Y3150916D01*
X30781543Y3150916D02*
X30795173Y3120535D01*
X30795173Y3120535D02*
X30804789Y3074508D01*
X30804789Y3074508D02*
X30811387Y3004903D01*
X30811387Y3004903D02*
X30815963Y2903791D01*
X30815963Y2903791D02*
X30819514Y2763241D01*
X30819514Y2763241D02*
X30820469Y2715295D01*
X30820469Y2715295D02*
X30828339Y2306641D01*
X30828339Y2306641D02*
X31147461Y2306641D01*
X31147461Y2306641D02*
X31147461Y3447656D01*
X31147461Y3447656D02*
X30998633Y3447656D01*
X30998633Y3447656D02*
X30916158Y3446354D01*
X30916158Y3446354D02*
X30871630Y3439194D01*
X30871630Y3439194D02*
X30853398Y3421291D01*
X30853398Y3421291D02*
X30849809Y3387765D01*
X30849809Y3387765D02*
X30849805Y3385293D01*
X30849805Y3385293D02*
X30849805Y3322929D01*
X30849805Y3322929D02*
X30752360Y3387415D01*
X30752360Y3387415D02*
X30637291Y3442768D01*
X30637291Y3442768D02*
X30511893Y3469699D01*
X30511893Y3469699D02*
X30397173Y3463804D01*
X30397173Y3463804D02*
X30397173Y3463804D01*
G36*
X30637291Y3442768D02*
G01*
X30752360Y3387415D01*
X30849805Y3322929D01*
X30849805Y3385293D01*
X30849809Y3387765D01*
X30853398Y3421291D01*
X30871630Y3439194D01*
X30916158Y3446354D01*
X30998633Y3447656D01*
X31147461Y3447656D01*
X31147461Y2306641D01*
X30828339Y2306641D01*
X30820469Y2715295D01*
X30819514Y2763241D01*
X30815963Y2903791D01*
X30811387Y3004903D01*
X30804789Y3074508D01*
X30795173Y3120535D01*
X30781543Y3150916D01*
X30762903Y3173579D01*
X30736837Y3196213D01*
X30655243Y3235717D01*
X30573075Y3238258D01*
X30505123Y3202193D01*
X30491949Y3187931D01*
X30476423Y3163363D01*
X30465659Y3128451D01*
X30458793Y3075344D01*
X30454959Y2996189D01*
X30453293Y2883132D01*
X30452930Y2728320D01*
X30452930Y2306641D01*
X30133808Y2306641D01*
X30125937Y2715295D01*
X30124983Y2763241D01*
X30121432Y2903791D01*
X30116856Y3004903D01*
X30110257Y3074508D01*
X30100641Y3120535D01*
X30087011Y3150916D01*
X30068371Y3173579D01*
X30042306Y3196213D01*
X29960712Y3235717D01*
X29878544Y3238258D01*
X29810592Y3202193D01*
X29797418Y3187931D01*
X29781891Y3163363D01*
X29771128Y3128451D01*
X29764261Y3075344D01*
X29760428Y2996189D01*
X29758762Y2883132D01*
X29758399Y2728320D01*
X29758399Y2306641D01*
X29460743Y2306641D01*
X29460835Y2771729D01*
X29461059Y2894675D01*
X29462386Y3029348D01*
X29465548Y3127932D01*
X29471267Y3198304D01*
X29480265Y3248342D01*
X29493265Y3285923D01*
X29510988Y3318924D01*
X29570994Y3387513D01*
X29670598Y3443911D01*
X29787273Y3469277D01*
X29908577Y3462924D01*
X30022069Y3424164D01*
X30115304Y3352310D01*
X30162150Y3299726D01*
X30245983Y3373333D01*
X30266093Y3390008D01*
X30334644Y3436444D01*
X30392871Y3462765D01*
X30397173Y3463804D01*
X30511893Y3469699D01*
X30637291Y3442768D01*
G37*
X30637291Y3442768D02*
X30752360Y3387415D01*
X30849805Y3322929D01*
X30849805Y3385293D01*
X30849809Y3387765D01*
X30853398Y3421291D01*
X30871630Y3439194D01*
X30916158Y3446354D01*
X30998633Y3447656D01*
X31147461Y3447656D01*
X31147461Y2306641D01*
X30828339Y2306641D01*
X30820469Y2715295D01*
X30819514Y2763241D01*
X30815963Y2903791D01*
X30811387Y3004903D01*
X30804789Y3074508D01*
X30795173Y3120535D01*
X30781543Y3150916D01*
X30762903Y3173579D01*
X30736837Y3196213D01*
X30655243Y3235717D01*
X30573075Y3238258D01*
X30505123Y3202193D01*
X30491949Y3187931D01*
X30476423Y3163363D01*
X30465659Y3128451D01*
X30458793Y3075344D01*
X30454959Y2996189D01*
X30453293Y2883132D01*
X30452930Y2728320D01*
X30452930Y2306641D01*
X30133808Y2306641D01*
X30125937Y2715295D01*
X30124983Y2763241D01*
X30121432Y2903791D01*
X30116856Y3004903D01*
X30110257Y3074508D01*
X30100641Y3120535D01*
X30087011Y3150916D01*
X30068371Y3173579D01*
X30042306Y3196213D01*
X29960712Y3235717D01*
X29878544Y3238258D01*
X29810592Y3202193D01*
X29797418Y3187931D01*
X29781891Y3163363D01*
X29771128Y3128451D01*
X29764261Y3075344D01*
X29760428Y2996189D01*
X29758762Y2883132D01*
X29758399Y2728320D01*
X29758399Y2306641D01*
X29460743Y2306641D01*
X29460835Y2771729D01*
X29461059Y2894675D01*
X29462386Y3029348D01*
X29465548Y3127932D01*
X29471267Y3198304D01*
X29480265Y3248342D01*
X29493265Y3285923D01*
X29510988Y3318924D01*
X29570994Y3387513D01*
X29670598Y3443911D01*
X29787273Y3469277D01*
X29908577Y3462924D01*
X30022069Y3424164D01*
X30115304Y3352310D01*
X30162150Y3299726D01*
X30245983Y3373333D01*
X30266093Y3390008D01*
X30334644Y3436444D01*
X30392871Y3462765D01*
X30397173Y3463804D01*
X30511893Y3469699D01*
X30637291Y3442768D01*
X37550824Y3448842D02*
X37452843Y3395719D01*
X37452843Y3395719D02*
X37439837Y3387021D01*
X37439837Y3387021D02*
X37348633Y3325128D01*
X37348633Y3325128D02*
X37348633Y3386392D01*
X37348633Y3386392D02*
X37345385Y3420352D01*
X37345385Y3420352D02*
X37327880Y3438688D01*
X37327880Y3438688D02*
X37284477Y3446192D01*
X37284477Y3446192D02*
X37203533Y3447656D01*
X37203533Y3447656D02*
X37050977Y3447656D01*
X37050977Y3447656D02*
X37050977Y2892936D01*
X37050977Y2892936D02*
X37052300Y2656130D01*
X37052300Y2656130D02*
X37057124Y2463454D01*
X37057124Y2463454D02*
X37066736Y2309478D01*
X37066736Y2309478D02*
X37082420Y2188775D01*
X37082420Y2188775D02*
X37105461Y2095914D01*
X37105461Y2095914D02*
X37137144Y2025466D01*
X37137144Y2025466D02*
X37178755Y1972001D01*
X37178755Y1972001D02*
X37231578Y1930091D01*
X37231578Y1930091D02*
X37286089Y1899578D01*
X37286089Y1899578D02*
X37387219Y1866444D01*
X37387219Y1866444D02*
X37517557Y1847442D01*
X37517557Y1847442D02*
X37658470Y1843576D01*
X37658470Y1843576D02*
X37791326Y1855848D01*
X37791326Y1855848D02*
X37851642Y1869109D01*
X37851642Y1869109D02*
X37936479Y1901397D01*
X37936479Y1901397D02*
X38010737Y1943487D01*
X38010737Y1943487D02*
X38031893Y1960437D01*
X38031893Y1960437D02*
X38069719Y2009111D01*
X38069719Y2009111D02*
X38105461Y2075590D01*
X38105461Y2075590D02*
X38132463Y2143847D01*
X38132463Y2143847D02*
X38144068Y2197855D01*
X38144068Y2197855D02*
X38139228Y2218845D01*
X38139228Y2218845D02*
X38110854Y2221337D01*
X38110854Y2221337D02*
X38047516Y2217009D01*
X38047516Y2217009D02*
X37967822Y2207442D01*
X37967822Y2207442D02*
X37865819Y2188078D01*
X37865819Y2188078D02*
X37803005Y2162494D01*
X37803005Y2162494D02*
X37773489Y2134167D01*
X37773489Y2134167D02*
X37743309Y2103889D01*
X37743309Y2103889D02*
X37695438Y2088395D01*
X37695438Y2088395D02*
X37615315Y2083483D01*
X37615315Y2083483D02*
X37597499Y2083398D01*
X37597499Y2083398D02*
X37499321Y2089933D01*
X37499321Y2089933D02*
X37434079Y2115240D01*
X37434079Y2115240D02*
X37393489Y2167871D01*
X37393489Y2167871D02*
X37369264Y2256382D01*
X37369264Y2256382D02*
X37359240Y2329362D01*
X37359240Y2329362D02*
X37341294Y2488509D01*
X37341294Y2488509D02*
X37442584Y2407111D01*
X37442584Y2407111D02*
X37568318Y2335869D01*
X37568318Y2335869D02*
X37707272Y2308976D01*
X37707272Y2308976D02*
X37848182Y2328535D01*
X37848182Y2328535D02*
X37853789Y2330343D01*
X37853789Y2330343D02*
X37945411Y2381918D01*
X37945411Y2381918D02*
X38033108Y2467991D01*
X38033108Y2467991D02*
X38104543Y2574167D01*
X38104543Y2574167D02*
X38142705Y2667458D01*
X38142705Y2667458D02*
X38160856Y2775192D01*
X38160856Y2775192D02*
X38164505Y2902476D01*
X38164505Y2902476D02*
X38160917Y2950806D01*
X38160917Y2950806D02*
X37862293Y2950806D01*
X37862293Y2950806D02*
X37859037Y2815538D01*
X37859037Y2815538D02*
X37856298Y2797815D01*
X37856298Y2797815D02*
X37818835Y2689736D01*
X37818835Y2689736D02*
X37753552Y2610450D01*
X37753552Y2610450D02*
X37669809Y2564546D01*
X37669809Y2564546D02*
X37576966Y2556610D01*
X37576966Y2556610D02*
X37484382Y2591231D01*
X37484382Y2591231D02*
X37464197Y2605627D01*
X37464197Y2605627D02*
X37401039Y2682961D01*
X37401039Y2682961D02*
X37365192Y2785213D01*
X37365192Y2785213D02*
X37355521Y2899922D01*
X37355521Y2899922D02*
X37370887Y3014626D01*
X37370887Y3014626D02*
X37410153Y3116864D01*
X37410153Y3116864D02*
X37472182Y3194175D01*
X37472182Y3194175D02*
X37520615Y3223730D01*
X37520615Y3223730D02*
X37620688Y3243221D01*
X37620688Y3243221D02*
X37709689Y3219588D01*
X37709689Y3219588D02*
X37782822Y3158917D01*
X37782822Y3158917D02*
X37835289Y3067294D01*
X37835289Y3067294D02*
X37862293Y2950806D01*
X37862293Y2950806D02*
X38160917Y2950806D01*
X38160917Y2950806D02*
X38154888Y3032013D01*
X38154888Y3032013D02*
X38133240Y3146507D01*
X38133240Y3146507D02*
X38102878Y3225211D01*
X38102878Y3225211D02*
X38015847Y3335157D01*
X38015847Y3335157D02*
X37905198Y3417475D01*
X37905198Y3417475D02*
X37784823Y3462376D01*
X37784823Y3462376D02*
X37761239Y3465956D01*
X37761239Y3465956D02*
X37645482Y3470255D01*
X37645482Y3470255D02*
X37550824Y3448842D01*
X37550824Y3448842D02*
X37550824Y3448842D01*
G36*
X38160856Y2775192D02*
G01*
X38142705Y2667458D01*
X38104543Y2574167D01*
X38033108Y2467991D01*
X37945411Y2381918D01*
X37853789Y2330343D01*
X37848182Y2328535D01*
X37707272Y2308976D01*
X37568318Y2335869D01*
X37442584Y2407111D01*
X37341294Y2488509D01*
X37359240Y2329362D01*
X37369264Y2256382D01*
X37393489Y2167871D01*
X37434079Y2115240D01*
X37499321Y2089933D01*
X37597499Y2083398D01*
X37615315Y2083483D01*
X37695438Y2088395D01*
X37743309Y2103889D01*
X37773489Y2134167D01*
X37803005Y2162494D01*
X37865819Y2188078D01*
X37967822Y2207442D01*
X38047516Y2217009D01*
X38110854Y2221337D01*
X38139228Y2218845D01*
X38144068Y2197855D01*
X38132463Y2143847D01*
X38105461Y2075590D01*
X38069719Y2009111D01*
X38031893Y1960437D01*
X38010737Y1943487D01*
X37936479Y1901397D01*
X37851642Y1869109D01*
X37791326Y1855848D01*
X37658470Y1843576D01*
X37517557Y1847442D01*
X37387219Y1866444D01*
X37286089Y1899578D01*
X37231578Y1930091D01*
X37178755Y1972001D01*
X37137144Y2025466D01*
X37105461Y2095914D01*
X37082420Y2188775D01*
X37066736Y2309478D01*
X37057124Y2463454D01*
X37052300Y2656130D01*
X37050977Y2892936D01*
X37050977Y2899922D01*
X37355521Y2899922D01*
X37365192Y2785213D01*
X37401039Y2682961D01*
X37464197Y2605627D01*
X37484382Y2591231D01*
X37576966Y2556610D01*
X37669809Y2564546D01*
X37753552Y2610450D01*
X37818835Y2689736D01*
X37856298Y2797815D01*
X37859037Y2815538D01*
X37862293Y2950806D01*
X37835289Y3067294D01*
X37782822Y3158917D01*
X37709689Y3219588D01*
X37620688Y3243221D01*
X37520615Y3223730D01*
X37472182Y3194175D01*
X37410153Y3116864D01*
X37370887Y3014626D01*
X37355521Y2899922D01*
X37050977Y2899922D01*
X37050977Y3447656D01*
X37203533Y3447656D01*
X37284477Y3446192D01*
X37327880Y3438688D01*
X37345385Y3420352D01*
X37348633Y3386392D01*
X37348633Y3325128D01*
X37439837Y3387021D01*
X37452843Y3395719D01*
X37550824Y3448842D01*
X37645482Y3470255D01*
X37761239Y3465956D01*
X37784823Y3462376D01*
X37905198Y3417475D01*
X38015847Y3335157D01*
X38102878Y3225211D01*
X38133240Y3146507D01*
X38154888Y3032013D01*
X38160917Y2950806D01*
X38164505Y2902476D01*
X38160856Y2775192D01*
G37*
X38160856Y2775192D02*
X38142705Y2667458D01*
X38104543Y2574167D01*
X38033108Y2467991D01*
X37945411Y2381918D01*
X37853789Y2330343D01*
X37848182Y2328535D01*
X37707272Y2308976D01*
X37568318Y2335869D01*
X37442584Y2407111D01*
X37341294Y2488509D01*
X37359240Y2329362D01*
X37369264Y2256382D01*
X37393489Y2167871D01*
X37434079Y2115240D01*
X37499321Y2089933D01*
X37597499Y2083398D01*
X37615315Y2083483D01*
X37695438Y2088395D01*
X37743309Y2103889D01*
X37773489Y2134167D01*
X37803005Y2162494D01*
X37865819Y2188078D01*
X37967822Y2207442D01*
X38047516Y2217009D01*
X38110854Y2221337D01*
X38139228Y2218845D01*
X38144068Y2197855D01*
X38132463Y2143847D01*
X38105461Y2075590D01*
X38069719Y2009111D01*
X38031893Y1960437D01*
X38010737Y1943487D01*
X37936479Y1901397D01*
X37851642Y1869109D01*
X37791326Y1855848D01*
X37658470Y1843576D01*
X37517557Y1847442D01*
X37387219Y1866444D01*
X37286089Y1899578D01*
X37231578Y1930091D01*
X37178755Y1972001D01*
X37137144Y2025466D01*
X37105461Y2095914D01*
X37082420Y2188775D01*
X37066736Y2309478D01*
X37057124Y2463454D01*
X37052300Y2656130D01*
X37050977Y2892936D01*
X37050977Y2899922D01*
X37355521Y2899922D01*
X37365192Y2785213D01*
X37401039Y2682961D01*
X37464197Y2605627D01*
X37484382Y2591231D01*
X37576966Y2556610D01*
X37669809Y2564546D01*
X37753552Y2610450D01*
X37818835Y2689736D01*
X37856298Y2797815D01*
X37859037Y2815538D01*
X37862293Y2950806D01*
X37835289Y3067294D01*
X37782822Y3158917D01*
X37709689Y3219588D01*
X37620688Y3243221D01*
X37520615Y3223730D01*
X37472182Y3194175D01*
X37410153Y3116864D01*
X37370887Y3014626D01*
X37355521Y2899922D01*
X37050977Y2899922D01*
X37050977Y3447656D01*
X37203533Y3447656D01*
X37284477Y3446192D01*
X37327880Y3438688D01*
X37345385Y3420352D01*
X37348633Y3386392D01*
X37348633Y3325128D01*
X37439837Y3387021D01*
X37452843Y3395719D01*
X37550824Y3448842D01*
X37645482Y3470255D01*
X37761239Y3465956D01*
X37784823Y3462376D01*
X37905198Y3417475D01*
X38015847Y3335157D01*
X38102878Y3225211D01*
X38133240Y3146507D01*
X38154888Y3032013D01*
X38160917Y2950806D01*
X38164505Y2902476D01*
X38160856Y2775192D01*
X38415235Y2306641D02*
X38712891Y2306641D01*
X38712891Y2306641D02*
X38712891Y3447656D01*
X38712891Y3447656D02*
X38415235Y3447656D01*
X38415235Y3447656D02*
X38415235Y2306641D01*
X38415235Y2306641D02*
X38415235Y2306641D01*
G36*
X38712891Y2306641D02*
G01*
X38415235Y2306641D01*
X38415235Y3447656D01*
X38712891Y3447656D01*
X38712891Y2306641D01*
G37*
X38712891Y2306641D02*
X38415235Y2306641D01*
X38415235Y3447656D01*
X38712891Y3447656D01*
X38712891Y2306641D01*
X38415235Y3596484D02*
X38712891Y3596484D01*
X38712891Y3596484D02*
X38712891Y3894141D01*
X38712891Y3894141D02*
X38415235Y3894141D01*
X38415235Y3894141D02*
X38415235Y3596484D01*
X38415235Y3596484D02*
X38415235Y3596484D01*
G36*
X38712891Y3596484D02*
G01*
X38415235Y3596484D01*
X38415235Y3894141D01*
X38712891Y3894141D01*
X38712891Y3596484D01*
G37*
X38712891Y3596484D02*
X38415235Y3596484D01*
X38415235Y3894141D01*
X38712891Y3894141D01*
X38712891Y3596484D01*
X34099219Y2728320D02*
X34694532Y2728320D01*
X34694532Y2728320D02*
X34694532Y3025977D01*
X34694532Y3025977D02*
X34099219Y3025977D01*
X34099219Y3025977D02*
X34099219Y2728320D01*
X34099219Y2728320D02*
X34099219Y2728320D01*
G36*
X34694532Y2728320D02*
G01*
X34099219Y2728320D01*
X34099219Y3025977D01*
X34694532Y3025977D01*
X34694532Y2728320D01*
G37*
X34694532Y2728320D02*
X34099219Y2728320D01*
X34099219Y3025977D01*
X34694532Y3025977D01*
X34694532Y2728320D01*
M02*
