G04 #@! TF.GenerationSoftware,KiCad,Pcbnew,(5.99.0-11105-gfb4343bc8f)*
G04 #@! TF.CreationDate,2021-06-29T16:28:08+01:00*
G04 #@! TF.ProjectId,NB3_power,4e42335f-706f-4776-9572-2e6b69636164,0.0.1*
G04 #@! TF.SameCoordinates,PX7bfa480PY7bfa480*
G04 #@! TF.FileFunction,Copper,L1,Top*
G04 #@! TF.FilePolarity,Positive*
%FSLAX46Y46*%
G04 Gerber Fmt 4.6, Leading zero omitted, Abs format (unit mm)*
G04 Created by KiCad (PCBNEW (5.99.0-11105-gfb4343bc8f)) date 2021-06-29 16:28:08*
%MOMM*%
%LPD*%
G01*
G04 APERTURE LIST*
G04 Aperture macros list*
%AMRoundRect*
0 Rectangle with rounded corners*
0 $1 Rounding radius*
0 $2 $3 $4 $5 $6 $7 $8 $9 X,Y pos of 4 corners*
0 Add a 4 corners polygon primitive as box body*
4,1,4,$2,$3,$4,$5,$6,$7,$8,$9,$2,$3,0*
0 Add four circle primitives for the rounded corners*
1,1,$1+$1,$2,$3*
1,1,$1+$1,$4,$5*
1,1,$1+$1,$6,$7*
1,1,$1+$1,$8,$9*
0 Add four rect primitives between the rounded corners*
20,1,$1+$1,$2,$3,$4,$5,0*
20,1,$1+$1,$4,$5,$6,$7,0*
20,1,$1+$1,$6,$7,$8,$9,0*
20,1,$1+$1,$8,$9,$2,$3,0*%
G04 Aperture macros list end*
G04 #@! TA.AperFunction,ComponentPad*
%ADD10C,4.500000*%
G04 #@! TD*
G04 #@! TA.AperFunction,SMDPad,CuDef*
%ADD11RoundRect,0.243750X-0.456250X0.243750X-0.456250X-0.243750X0.456250X-0.243750X0.456250X0.243750X0*%
G04 #@! TD*
G04 #@! TA.AperFunction,SMDPad,CuDef*
%ADD12RoundRect,0.147500X-0.147500X-0.172500X0.147500X-0.172500X0.147500X0.172500X-0.147500X0.172500X0*%
G04 #@! TD*
G04 #@! TA.AperFunction,SMDPad,CuDef*
%ADD13RoundRect,0.135000X0.185000X-0.135000X0.185000X0.135000X-0.185000X0.135000X-0.185000X-0.135000X0*%
G04 #@! TD*
G04 #@! TA.AperFunction,SMDPad,CuDef*
%ADD14RoundRect,0.243750X0.456250X-0.243750X0.456250X0.243750X-0.456250X0.243750X-0.456250X-0.243750X0*%
G04 #@! TD*
G04 #@! TA.AperFunction,SMDPad,CuDef*
%ADD15RoundRect,0.218750X-0.218750X-0.256250X0.218750X-0.256250X0.218750X0.256250X-0.218750X0.256250X0*%
G04 #@! TD*
G04 #@! TA.AperFunction,SMDPad,CuDef*
%ADD16RoundRect,0.250000X1.025000X-0.787500X1.025000X0.787500X-1.025000X0.787500X-1.025000X-0.787500X0*%
G04 #@! TD*
G04 #@! TA.AperFunction,SMDPad,CuDef*
%ADD17RoundRect,0.135000X-0.185000X0.135000X-0.185000X-0.135000X0.185000X-0.135000X0.185000X0.135000X0*%
G04 #@! TD*
G04 #@! TA.AperFunction,SMDPad,CuDef*
%ADD18R,4.400000X3.300000*%
G04 #@! TD*
G04 #@! TA.AperFunction,SMDPad,CuDef*
%ADD19R,6.200000X3.900000*%
G04 #@! TD*
G04 #@! TA.AperFunction,SMDPad,CuDef*
%ADD20R,1.000000X1.600000*%
G04 #@! TD*
G04 #@! TA.AperFunction,SMDPad,CuDef*
%ADD21RoundRect,0.147500X0.147500X0.172500X-0.147500X0.172500X-0.147500X-0.172500X0.147500X-0.172500X0*%
G04 #@! TD*
G04 #@! TA.AperFunction,SMDPad,CuDef*
%ADD22RoundRect,0.147500X0.172500X-0.147500X0.172500X0.147500X-0.172500X0.147500X-0.172500X-0.147500X0*%
G04 #@! TD*
G04 #@! TA.AperFunction,SMDPad,CuDef*
%ADD23R,5.100000X2.350000*%
G04 #@! TD*
G04 #@! TA.AperFunction,SMDPad,CuDef*
%ADD24R,3.505200X0.990600*%
G04 #@! TD*
G04 #@! TA.AperFunction,SMDPad,CuDef*
%ADD25R,3.505200X1.600200*%
G04 #@! TD*
G04 #@! TA.AperFunction,SMDPad,CuDef*
%ADD26RoundRect,0.150000X-0.737500X-0.150000X0.737500X-0.150000X0.737500X0.150000X-0.737500X0.150000X0*%
G04 #@! TD*
G04 #@! TA.AperFunction,ComponentPad*
%ADD27C,0.500000*%
G04 #@! TD*
G04 #@! TA.AperFunction,SMDPad,CuDef*
%ADD28R,2.950000X4.900000*%
G04 #@! TD*
G04 #@! TA.AperFunction,ViaPad*
%ADD29C,0.600000*%
G04 #@! TD*
G04 #@! TA.AperFunction,Conductor*
%ADD30C,0.150000*%
G04 #@! TD*
G04 #@! TA.AperFunction,Conductor*
%ADD31C,0.500000*%
G04 #@! TD*
G04 #@! TA.AperFunction,Conductor*
%ADD32C,4.000000*%
G04 #@! TD*
G04 APERTURE END LIST*
D10*
X3500000Y3000000D03*
D11*
X32500000Y30275000D03*
X32500000Y28400000D03*
D12*
X36015000Y25000000D03*
X36985000Y25000000D03*
D13*
X1200000Y36490000D03*
X1200000Y37510000D03*
D14*
X25000000Y23212500D03*
X25000000Y25087500D03*
D15*
X1212500Y35000000D03*
X2787500Y35000000D03*
D16*
X26500000Y31387500D03*
X26500000Y37612500D03*
D10*
X46500000Y41000000D03*
D14*
X20000000Y23212500D03*
X20000000Y25087500D03*
X30000000Y32400000D03*
X30000000Y34275000D03*
D12*
X37765000Y21600000D03*
X38735000Y21600000D03*
D17*
X1200000Y31620000D03*
X1200000Y30600000D03*
D18*
X16000000Y22350000D03*
D19*
X7050000Y29450000D03*
X7050000Y16550000D03*
D20*
X7500000Y11200000D03*
X5000000Y8800000D03*
X2500000Y11200000D03*
D21*
X38735000Y22700000D03*
X37765000Y22700000D03*
D11*
X20000000Y21587500D03*
X20000000Y19712500D03*
D10*
X46500000Y3000000D03*
D11*
X22500000Y21587500D03*
X22500000Y19712500D03*
D14*
X32500000Y32400000D03*
X32500000Y34275000D03*
D15*
X1212500Y33000000D03*
X2787500Y33000000D03*
D14*
X22500000Y23212500D03*
X22500000Y25087500D03*
D22*
X36000000Y22165000D03*
X36000000Y23135000D03*
D10*
X3500000Y41000000D03*
D12*
X38265000Y25000000D03*
X39235000Y25000000D03*
D21*
X36985000Y20500000D03*
X36015000Y20500000D03*
D11*
X30000000Y30275000D03*
X30000000Y28400000D03*
X25000000Y21587500D03*
X25000000Y19712500D03*
D21*
X36985000Y19400000D03*
X36015000Y19400000D03*
D23*
X37500000Y27075000D03*
X37500000Y31225000D03*
D12*
X29015000Y19200000D03*
X29985000Y19200000D03*
D21*
X33485000Y19200000D03*
X32515000Y19200000D03*
D24*
X43110598Y20000000D03*
X43110598Y21999998D03*
X43110598Y23999999D03*
X43110598Y25999998D03*
D25*
X48860600Y28349998D03*
X48860600Y17649999D03*
D26*
X28687500Y24555000D03*
X28687500Y23285000D03*
X28687500Y22015000D03*
X28687500Y20745000D03*
X33812500Y20745000D03*
X33812500Y22015000D03*
X33812500Y23285000D03*
X33812500Y24555000D03*
D27*
X30600000Y23300000D03*
X31900000Y23300000D03*
X31900000Y24600000D03*
X31900000Y22000000D03*
X30600000Y22000000D03*
X30600000Y20700000D03*
X31900000Y20700000D03*
X30600000Y24600000D03*
D28*
X31250000Y22650000D03*
D29*
X31250000Y19150000D03*
X20000000Y26400000D03*
X30500000Y35587500D03*
X42500000Y16000000D03*
X29500000Y37500000D03*
X31250000Y15900000D03*
X25000000Y18400000D03*
X1250000Y38500000D03*
X31750000Y26650000D03*
X20000000Y18400000D03*
X43500000Y16000000D03*
X23500000Y37500000D03*
X30000000Y15900000D03*
X32000000Y35587500D03*
X25000000Y26400000D03*
X1250000Y29500000D03*
X30500000Y26650000D03*
X22500000Y26400000D03*
X32500000Y15900000D03*
X22500000Y18400000D03*
X40300000Y25400000D03*
X28700000Y25400000D03*
X25100000Y35000000D03*
X18000000Y35000000D03*
X16000000Y11800000D03*
X16000000Y32400000D03*
X16000000Y19600000D03*
X16000000Y25000000D03*
X27100000Y9400000D03*
X27100000Y21315000D03*
D30*
X32500000Y34275000D02*
X30000000Y34275000D01*
D31*
X33812500Y23285000D02*
X35215000Y23285000D01*
D30*
X30500000Y21900000D02*
X31250000Y22650000D01*
D31*
X35365000Y23135000D02*
X36000000Y23135000D01*
D30*
X31915000Y23285000D02*
X31900000Y23300000D01*
X4350000Y16550000D02*
X2500000Y14700000D01*
D31*
X36465000Y23135000D02*
X36900000Y22700000D01*
D30*
X7050000Y16550000D02*
X4350000Y16550000D01*
D31*
X36900000Y22700000D02*
X37765000Y22700000D01*
X33812500Y23285000D02*
X31915000Y23285000D01*
D32*
X7050000Y29450000D02*
X7050000Y16550000D01*
D30*
X2500000Y14700000D02*
X2500000Y11200000D01*
D31*
X36000000Y23135000D02*
X36465000Y23135000D01*
D30*
X5900000Y30600000D02*
X7050000Y29450000D01*
D31*
X35215000Y23285000D02*
X35365000Y23135000D01*
D30*
X1200000Y30600000D02*
X5900000Y30600000D01*
D31*
X36985000Y25000000D02*
X38265000Y25000000D01*
X33485000Y19785000D02*
X33812500Y20112500D01*
X35400000Y20500000D02*
X36015000Y20500000D01*
X36015000Y20500000D02*
X36015000Y19400000D01*
X35155000Y20745000D02*
X35400000Y20500000D01*
X33485000Y19200000D02*
X33485000Y19785000D01*
X33812500Y20112500D02*
X33812500Y20745000D01*
X33812500Y20745000D02*
X35155000Y20745000D01*
D30*
X28687500Y24555000D02*
X28687500Y25387500D01*
X28687500Y25387500D02*
X28700000Y25400000D01*
X39235000Y25000000D02*
X39900000Y25000000D01*
X39900000Y25000000D02*
X40300000Y25400000D01*
D31*
X29015000Y19685000D02*
X29015000Y19200000D01*
X28687500Y20012500D02*
X29015000Y19685000D01*
X28687500Y20745000D02*
X28687500Y20012500D01*
X36435000Y22165000D02*
X37000000Y21600000D01*
X36000000Y22165000D02*
X36435000Y22165000D01*
X37000000Y21600000D02*
X37765000Y21600000D01*
X35115000Y22015000D02*
X35265000Y22165000D01*
X33812500Y22015000D02*
X35115000Y22015000D01*
X35265000Y22165000D02*
X36000000Y22165000D01*
X36985000Y20500000D02*
X36985000Y19400000D01*
D30*
X37737500Y31462500D02*
X37500000Y31225000D01*
X32500000Y30275000D02*
X32500000Y32400000D01*
X26500000Y34600000D02*
X26500000Y31387500D01*
X29862500Y32537500D02*
X30000000Y32400000D01*
X36985000Y20500000D02*
X39200000Y20500000D01*
X25100000Y35000000D02*
X26100000Y35000000D01*
X39200000Y20500000D02*
X40000000Y21300000D01*
X40000000Y22757500D02*
X41242499Y23999999D01*
X41242499Y23999999D02*
X43110598Y23999999D01*
X30000000Y30275000D02*
X30000000Y32400000D01*
X2787500Y35000000D02*
X18000000Y35000000D01*
X40000000Y21300000D02*
X40000000Y22757500D01*
X32500000Y30275000D02*
X30000000Y30275000D01*
X32500000Y32400000D02*
X30000000Y32400000D01*
X26100000Y35000000D02*
X26500000Y34600000D01*
D31*
X38735000Y22700000D02*
X38735000Y21600000D01*
D30*
X16000000Y25000000D02*
X16000000Y22350000D01*
X16000000Y19600000D02*
X16000000Y22350000D01*
X2787500Y33000000D02*
X15400000Y33000000D01*
X15400000Y33000000D02*
X16000000Y32400000D01*
X28615000Y23212500D02*
X28687500Y23285000D01*
X15400000Y11200000D02*
X16000000Y11800000D01*
X7500000Y11200000D02*
X15400000Y11200000D01*
X1200000Y32987500D02*
X1212500Y33000000D01*
X1200000Y31620000D02*
X1200000Y32987500D01*
X26500000Y8800000D02*
X27100000Y9400000D01*
X27800000Y22015000D02*
X28687500Y22015000D01*
X27100000Y21315000D02*
X27800000Y22015000D01*
X26500000Y8800000D02*
X5000000Y8800000D01*
X1200000Y35012500D02*
X1212500Y35000000D01*
X1200000Y36490000D02*
X1200000Y35012500D01*
G04 #@! TA.AperFunction,Conductor*
G36*
X46443039Y32980315D02*
G01*
X46488794Y32927511D01*
X46500000Y32876000D01*
X46500000Y29924000D01*
X46480315Y29856961D01*
X46427511Y29811206D01*
X46376000Y29800000D01*
X24624000Y29800000D01*
X24556961Y29819685D01*
X24511206Y29872489D01*
X24500000Y29924000D01*
X24500000Y32876000D01*
X24519685Y32943039D01*
X24572489Y32988794D01*
X24624000Y33000000D01*
X46376000Y33000000D01*
X46443039Y32980315D01*
G37*
G04 #@! TD.AperFunction*
G04 #@! TA.AperFunction,Conductor*
G36*
X42500000Y14800000D02*
G01*
X29700000Y14800000D01*
X29700000Y17400000D01*
X42500000Y17400000D01*
X42500000Y14800000D01*
G37*
G04 #@! TD.AperFunction*
G04 #@! TA.AperFunction,Conductor*
G36*
X36240314Y28180315D02*
G01*
X36286069Y28127511D01*
X36297246Y28073306D01*
X36250000Y25900000D01*
X36250000Y24774000D01*
X36230315Y24706961D01*
X36177511Y24661206D01*
X36126000Y24650000D01*
X35000000Y24650000D01*
X34992525Y24635050D01*
X34992524Y24635049D01*
X34784273Y24218546D01*
X34736686Y24167387D01*
X34673364Y24150000D01*
X33374000Y24150000D01*
X33306961Y24169685D01*
X33261206Y24222489D01*
X33250000Y24274000D01*
X33250000Y27700160D01*
X33269685Y27767199D01*
X33293058Y27794098D01*
X33325774Y27822288D01*
X33332467Y27828055D01*
X33409458Y27946839D01*
X33450016Y28082456D01*
X33450500Y28088969D01*
X33450500Y28089079D01*
X33451732Y28095758D01*
X33454036Y28095333D01*
X33474815Y28150582D01*
X33530863Y28192300D01*
X33573878Y28200000D01*
X36173275Y28200000D01*
X36240314Y28180315D01*
G37*
G04 #@! TD.AperFunction*
G04 #@! TA.AperFunction,Conductor*
G36*
X46000000Y24124000D02*
G01*
X45980315Y24056961D01*
X45927511Y24011206D01*
X45876000Y24000000D01*
X41124000Y24000000D01*
X41056961Y24019685D01*
X41011206Y24072489D01*
X41000000Y24124000D01*
X41000000Y33000000D01*
X46000000Y33000000D01*
X46000000Y24124000D01*
G37*
G04 #@! TD.AperFunction*
G04 #@! TA.AperFunction,Conductor*
G36*
X33500000Y36400000D02*
G01*
X23100000Y36400000D01*
X23100000Y39000000D01*
X33500000Y39000000D01*
X33500000Y36400000D01*
G37*
G04 #@! TD.AperFunction*
G04 #@! TA.AperFunction,Conductor*
G36*
X46000000Y14800000D02*
G01*
X41000000Y14800000D01*
X41000000Y22000000D01*
X46000000Y22000000D01*
X46000000Y14800000D01*
G37*
G04 #@! TD.AperFunction*
G04 #@! TA.AperFunction,Conductor*
G36*
X23500000Y26800000D02*
G01*
X18700000Y26800000D01*
X18700000Y39000000D01*
X23500000Y39000000D01*
X23500000Y26800000D01*
G37*
G04 #@! TD.AperFunction*
G04 #@! TA.AperFunction,Conductor*
G36*
X33500000Y33800000D02*
G01*
X28900000Y33800000D01*
X28900000Y36800000D01*
X33500000Y36800000D01*
X33500000Y33800000D01*
G37*
G04 #@! TD.AperFunction*
G04 #@! TA.AperFunction,Conductor*
G36*
X26300000Y24400000D02*
G01*
X18700000Y24400000D01*
X18700000Y27000000D01*
X26300000Y27000000D01*
X26300000Y24400000D01*
G37*
G04 #@! TD.AperFunction*
G04 #@! TA.AperFunction,Conductor*
G36*
X26300000Y17800000D02*
G01*
X18700000Y17800000D01*
X18700000Y20400000D01*
X26300000Y20400000D01*
X26300000Y17800000D01*
G37*
G04 #@! TD.AperFunction*
G04 #@! TA.AperFunction,Conductor*
G36*
X23500000Y27800000D02*
G01*
X4000000Y27800000D01*
X4000000Y31400000D01*
X23500000Y31500000D01*
X23500000Y27800000D01*
G37*
G04 #@! TD.AperFunction*
G04 #@! TA.AperFunction,Conductor*
G36*
X29175500Y23730038D02*
G01*
X29230038Y23675500D01*
X29250000Y23601000D01*
X29250000Y23049000D01*
X29230038Y22974500D01*
X29175500Y22919962D01*
X29101000Y22900000D01*
X28200000Y22900000D01*
X27949971Y22649971D01*
X27883176Y22611407D01*
X27866763Y22607986D01*
X27827077Y22602020D01*
X27827074Y22602019D01*
X27816065Y22600364D01*
X27755018Y22571050D01*
X27704008Y22546555D01*
X27704007Y22546554D01*
X27693971Y22541735D01*
X27594514Y22449798D01*
X27526487Y22332681D01*
X27523973Y22321836D01*
X27523970Y22321828D01*
X27517966Y22295924D01*
X27478174Y22224211D01*
X27216829Y21962866D01*
X27150034Y21924302D01*
X27111470Y21919225D01*
X27109684Y21919225D01*
X27100000Y21920500D01*
X27090315Y21919225D01*
X26952968Y21901143D01*
X26952967Y21901143D01*
X26943285Y21899868D01*
X26797250Y21839378D01*
X26671847Y21743153D01*
X26575622Y21617750D01*
X26515132Y21471715D01*
X26494500Y21315000D01*
X26495775Y21305315D01*
X26495775Y21299000D01*
X26475813Y21224500D01*
X26421275Y21169962D01*
X26346775Y21150000D01*
X17599000Y21150000D01*
X17524500Y21169962D01*
X17469962Y21224500D01*
X17450000Y21299000D01*
X17450000Y23601000D01*
X17469962Y23675500D01*
X17524500Y23730038D01*
X17599000Y23750000D01*
X29101000Y23750000D01*
X29175500Y23730038D01*
G37*
G04 #@! TD.AperFunction*
G04 #@! TA.AperFunction,Conductor*
G36*
X2684590Y43680038D02*
G01*
X2739128Y43625500D01*
X2759090Y43551000D01*
X2739128Y43476500D01*
X2684590Y43421962D01*
X2664940Y43412463D01*
X2411921Y43312286D01*
X2130695Y43157680D01*
X2126916Y43154935D01*
X2126909Y43154930D01*
X1874848Y42971797D01*
X1871063Y42969047D01*
X1637121Y42749360D01*
X1634133Y42745749D01*
X1634130Y42745745D01*
X1435542Y42505694D01*
X1435537Y42505688D01*
X1432557Y42502085D01*
X1430054Y42498141D01*
X1430049Y42498134D01*
X1280560Y42262576D01*
X1260598Y42231122D01*
X1123956Y41940742D01*
X1024786Y41635527D01*
X964651Y41320289D01*
X964358Y41315628D01*
X964357Y41315622D01*
X951408Y41109799D01*
X944500Y41000000D01*
X964651Y40679711D01*
X1024786Y40364473D01*
X1123956Y40059258D01*
X1260598Y39768878D01*
X1263108Y39764923D01*
X1430049Y39501866D01*
X1430054Y39501859D01*
X1432557Y39497915D01*
X1435537Y39494312D01*
X1435542Y39494306D01*
X1634130Y39254255D01*
X1637121Y39250640D01*
X1871063Y39030953D01*
X1874848Y39028203D01*
X2126909Y38845070D01*
X2126916Y38845065D01*
X2130695Y38842320D01*
X2411921Y38687714D01*
X2710307Y38569575D01*
X2714834Y38568413D01*
X2714836Y38568412D01*
X2800921Y38546309D01*
X3021147Y38489765D01*
X3025783Y38489179D01*
X3025790Y38489178D01*
X3334892Y38450130D01*
X3339539Y38449543D01*
X3660461Y38449543D01*
X3665108Y38450130D01*
X3974210Y38489178D01*
X3974217Y38489179D01*
X3978853Y38489765D01*
X4199079Y38546309D01*
X4285164Y38568412D01*
X4285166Y38568413D01*
X4289693Y38569575D01*
X4588079Y38687714D01*
X4869305Y38842320D01*
X4873084Y38845065D01*
X4873091Y38845070D01*
X5125152Y39028203D01*
X5128937Y39030953D01*
X5362879Y39250640D01*
X5365870Y39254255D01*
X5564458Y39494306D01*
X5564463Y39494312D01*
X5567443Y39497915D01*
X5569946Y39501859D01*
X5569951Y39501866D01*
X5736892Y39764923D01*
X5739402Y39768878D01*
X5876044Y40059258D01*
X5975214Y40364473D01*
X6035349Y40679711D01*
X6055500Y41000000D01*
X6048592Y41109799D01*
X6035643Y41315622D01*
X6035642Y41315628D01*
X6035349Y41320289D01*
X5975214Y41635527D01*
X5876044Y41940742D01*
X5739402Y42231122D01*
X5719440Y42262576D01*
X5569951Y42498134D01*
X5569946Y42498141D01*
X5567443Y42502085D01*
X5564463Y42505688D01*
X5564458Y42505694D01*
X5365870Y42745745D01*
X5365867Y42745749D01*
X5362879Y42749360D01*
X5128937Y42969047D01*
X5125152Y42971797D01*
X4873091Y43154930D01*
X4873084Y43154935D01*
X4869305Y43157680D01*
X4588079Y43312286D01*
X4335060Y43412463D01*
X4273140Y43458449D01*
X4242508Y43529233D01*
X4251373Y43605850D01*
X4297359Y43667770D01*
X4368143Y43698402D01*
X4389910Y43700000D01*
X45610090Y43700000D01*
X45684590Y43680038D01*
X45739128Y43625500D01*
X45759090Y43551000D01*
X45739128Y43476500D01*
X45684590Y43421962D01*
X45664940Y43412463D01*
X45411921Y43312286D01*
X45130695Y43157680D01*
X45126916Y43154935D01*
X45126909Y43154930D01*
X44874848Y42971797D01*
X44871063Y42969047D01*
X44637121Y42749360D01*
X44634133Y42745749D01*
X44634130Y42745745D01*
X44435542Y42505694D01*
X44435537Y42505688D01*
X44432557Y42502085D01*
X44430054Y42498141D01*
X44430049Y42498134D01*
X44280560Y42262576D01*
X44260598Y42231122D01*
X44123956Y41940742D01*
X44024786Y41635527D01*
X43964651Y41320289D01*
X43964358Y41315628D01*
X43964357Y41315622D01*
X43951408Y41109799D01*
X43944500Y41000000D01*
X43964651Y40679711D01*
X44024786Y40364473D01*
X44123956Y40059258D01*
X44260598Y39768878D01*
X44263108Y39764923D01*
X44430049Y39501866D01*
X44430054Y39501859D01*
X44432557Y39497915D01*
X44435537Y39494312D01*
X44435542Y39494306D01*
X44634130Y39254255D01*
X44637121Y39250640D01*
X44871063Y39030953D01*
X44874848Y39028203D01*
X45126909Y38845070D01*
X45126916Y38845065D01*
X45130695Y38842320D01*
X45411921Y38687714D01*
X45710307Y38569575D01*
X45714834Y38568413D01*
X45714836Y38568412D01*
X45800921Y38546309D01*
X46021147Y38489765D01*
X46025783Y38489179D01*
X46025790Y38489178D01*
X46334892Y38450130D01*
X46339539Y38449543D01*
X46660461Y38449543D01*
X46665108Y38450130D01*
X46974210Y38489178D01*
X46974217Y38489179D01*
X46978853Y38489765D01*
X47199079Y38546309D01*
X47285164Y38568412D01*
X47285166Y38568413D01*
X47289693Y38569575D01*
X47588079Y38687714D01*
X47869305Y38842320D01*
X47873084Y38845065D01*
X47873091Y38845070D01*
X48125152Y39028203D01*
X48128937Y39030953D01*
X48362879Y39250640D01*
X48365870Y39254255D01*
X48564458Y39494306D01*
X48564463Y39494312D01*
X48567443Y39497915D01*
X48569946Y39501859D01*
X48569951Y39501866D01*
X48736892Y39764923D01*
X48739402Y39768878D01*
X48876044Y40059258D01*
X48975214Y40364473D01*
X49035349Y40679711D01*
X49055500Y41000000D01*
X49048592Y41109799D01*
X49035643Y41315622D01*
X49035642Y41315628D01*
X49035349Y41320289D01*
X48975214Y41635527D01*
X48876044Y41940742D01*
X48739402Y42231122D01*
X48719440Y42262576D01*
X48569951Y42498134D01*
X48569946Y42498141D01*
X48567443Y42502085D01*
X48564463Y42505688D01*
X48564458Y42505694D01*
X48365870Y42745745D01*
X48365867Y42745749D01*
X48362879Y42749360D01*
X48128937Y42969047D01*
X48125152Y42971797D01*
X47873091Y43154930D01*
X47873084Y43154935D01*
X47869305Y43157680D01*
X47588079Y43312286D01*
X47335060Y43412463D01*
X47273140Y43458449D01*
X47242508Y43529233D01*
X47251373Y43605850D01*
X47297359Y43667770D01*
X47368143Y43698402D01*
X47389910Y43700000D01*
X47814018Y43700000D01*
X47888518Y43680038D01*
X47919377Y43656359D01*
X50656359Y40919377D01*
X50694923Y40852582D01*
X50700000Y40814018D01*
X50700000Y29604598D01*
X50680038Y29530098D01*
X50625500Y29475560D01*
X50551000Y29455598D01*
X47108000Y29455598D01*
X47106294Y29455519D01*
X47106288Y29455519D01*
X47088450Y29454694D01*
X47079812Y29454295D01*
X47071526Y29451937D01*
X47071524Y29451937D01*
X47036743Y29442041D01*
X46971827Y29423570D01*
X46882233Y29355912D01*
X46823130Y29260457D01*
X46802500Y29150098D01*
X46802500Y27549898D01*
X46803803Y27521710D01*
X46834528Y27413725D01*
X46902186Y27324131D01*
X46913926Y27316862D01*
X46913927Y27316861D01*
X46985899Y27272298D01*
X46985900Y27272297D01*
X46997641Y27265028D01*
X47108000Y27244398D01*
X50551000Y27244398D01*
X50625500Y27224436D01*
X50680038Y27169898D01*
X50700000Y27095398D01*
X50700000Y18904599D01*
X50680038Y18830099D01*
X50625500Y18775561D01*
X50551000Y18755599D01*
X47108000Y18755599D01*
X47106294Y18755520D01*
X47106288Y18755520D01*
X47088450Y18754695D01*
X47079812Y18754296D01*
X47071526Y18751938D01*
X47071524Y18751938D01*
X47044557Y18744265D01*
X46971827Y18723571D01*
X46882233Y18655913D01*
X46874964Y18644173D01*
X46874963Y18644172D01*
X46835432Y18580326D01*
X46823130Y18560458D01*
X46802500Y18450099D01*
X46802500Y16849899D01*
X46803803Y16821711D01*
X46834528Y16713726D01*
X46902186Y16624132D01*
X46913926Y16616863D01*
X46913927Y16616862D01*
X46985899Y16572299D01*
X46985900Y16572298D01*
X46997641Y16565029D01*
X47108000Y16544399D01*
X50551000Y16544399D01*
X50625500Y16524437D01*
X50680038Y16469899D01*
X50700000Y16395399D01*
X50700000Y3185982D01*
X50680038Y3111482D01*
X50656359Y3080623D01*
X47919377Y343641D01*
X47852582Y305077D01*
X47814018Y300000D01*
X47389910Y300000D01*
X47315410Y319962D01*
X47260872Y374500D01*
X47240910Y449000D01*
X47260872Y523500D01*
X47315410Y578038D01*
X47335060Y587537D01*
X47583730Y685992D01*
X47583732Y685993D01*
X47588079Y687714D01*
X47869305Y842320D01*
X47873084Y845065D01*
X47873091Y845070D01*
X48125152Y1028203D01*
X48128937Y1030953D01*
X48362879Y1250640D01*
X48365870Y1254255D01*
X48564458Y1494306D01*
X48564463Y1494312D01*
X48567443Y1497915D01*
X48569946Y1501859D01*
X48569951Y1501866D01*
X48736892Y1764923D01*
X48739402Y1768878D01*
X48876044Y2059258D01*
X48975214Y2364473D01*
X49035349Y2679711D01*
X49042220Y2788911D01*
X49055206Y2995327D01*
X49055500Y3000000D01*
X49035349Y3320289D01*
X48975214Y3635527D01*
X48876044Y3940742D01*
X48739402Y4231122D01*
X48719440Y4262576D01*
X48569951Y4498134D01*
X48569946Y4498141D01*
X48567443Y4502085D01*
X48564463Y4505688D01*
X48564458Y4505694D01*
X48365870Y4745745D01*
X48365867Y4745749D01*
X48362879Y4749360D01*
X48128937Y4969047D01*
X48125152Y4971797D01*
X47873091Y5154930D01*
X47873084Y5154935D01*
X47869305Y5157680D01*
X47588079Y5312286D01*
X47289693Y5430425D01*
X47285166Y5431587D01*
X47285164Y5431588D01*
X47199079Y5453691D01*
X46978853Y5510235D01*
X46974217Y5510821D01*
X46974210Y5510822D01*
X46665108Y5549870D01*
X46665107Y5549870D01*
X46660461Y5550457D01*
X46339539Y5550457D01*
X46334893Y5549870D01*
X46334892Y5549870D01*
X46025790Y5510822D01*
X46025783Y5510821D01*
X46021147Y5510235D01*
X45800921Y5453691D01*
X45714836Y5431588D01*
X45714834Y5431587D01*
X45710307Y5430425D01*
X45411921Y5312286D01*
X45130695Y5157680D01*
X45126916Y5154935D01*
X45126909Y5154930D01*
X44874848Y4971797D01*
X44871063Y4969047D01*
X44637121Y4749360D01*
X44634133Y4745749D01*
X44634130Y4745745D01*
X44435542Y4505694D01*
X44435537Y4505688D01*
X44432557Y4502085D01*
X44430054Y4498141D01*
X44430049Y4498134D01*
X44280560Y4262576D01*
X44260598Y4231122D01*
X44123956Y3940742D01*
X44024786Y3635527D01*
X43964651Y3320289D01*
X43944500Y3000000D01*
X43944794Y2995327D01*
X43957781Y2788911D01*
X43964651Y2679711D01*
X44024786Y2364473D01*
X44123956Y2059258D01*
X44260598Y1768878D01*
X44263108Y1764923D01*
X44430049Y1501866D01*
X44430054Y1501859D01*
X44432557Y1497915D01*
X44435537Y1494312D01*
X44435542Y1494306D01*
X44634130Y1254255D01*
X44637121Y1250640D01*
X44871063Y1030953D01*
X44874848Y1028203D01*
X45126909Y845070D01*
X45126916Y845065D01*
X45130695Y842320D01*
X45411921Y687714D01*
X45416268Y685993D01*
X45416270Y685992D01*
X45664940Y587537D01*
X45726860Y541551D01*
X45757492Y470767D01*
X45748627Y394150D01*
X45702641Y332230D01*
X45631857Y301598D01*
X45610090Y300000D01*
X4389910Y300000D01*
X4315410Y319962D01*
X4260872Y374500D01*
X4240910Y449000D01*
X4260872Y523500D01*
X4315410Y578038D01*
X4335060Y587537D01*
X4583730Y685992D01*
X4583732Y685993D01*
X4588079Y687714D01*
X4869305Y842320D01*
X4873084Y845065D01*
X4873091Y845070D01*
X5125152Y1028203D01*
X5128937Y1030953D01*
X5362879Y1250640D01*
X5365870Y1254255D01*
X5564458Y1494306D01*
X5564463Y1494312D01*
X5567443Y1497915D01*
X5569946Y1501859D01*
X5569951Y1501866D01*
X5736892Y1764923D01*
X5739402Y1768878D01*
X5876044Y2059258D01*
X5975214Y2364473D01*
X6035349Y2679711D01*
X6042220Y2788911D01*
X6055206Y2995327D01*
X6055500Y3000000D01*
X6035349Y3320289D01*
X5975214Y3635527D01*
X5876044Y3940742D01*
X5739402Y4231122D01*
X5719440Y4262576D01*
X5569951Y4498134D01*
X5569946Y4498141D01*
X5567443Y4502085D01*
X5564463Y4505688D01*
X5564458Y4505694D01*
X5365870Y4745745D01*
X5365867Y4745749D01*
X5362879Y4749360D01*
X5128937Y4969047D01*
X5125152Y4971797D01*
X4873091Y5154930D01*
X4873084Y5154935D01*
X4869305Y5157680D01*
X4588079Y5312286D01*
X4289693Y5430425D01*
X4285166Y5431587D01*
X4285164Y5431588D01*
X4199079Y5453691D01*
X3978853Y5510235D01*
X3974217Y5510821D01*
X3974210Y5510822D01*
X3665108Y5549870D01*
X3665107Y5549870D01*
X3660461Y5550457D01*
X3339539Y5550457D01*
X3334893Y5549870D01*
X3334892Y5549870D01*
X3025790Y5510822D01*
X3025783Y5510821D01*
X3021147Y5510235D01*
X2800921Y5453691D01*
X2714836Y5431588D01*
X2714834Y5431587D01*
X2710307Y5430425D01*
X2411921Y5312286D01*
X2130695Y5157680D01*
X2126916Y5154935D01*
X2126909Y5154930D01*
X1874848Y4971797D01*
X1871063Y4969047D01*
X1637121Y4749360D01*
X1634133Y4745749D01*
X1634130Y4745745D01*
X1435542Y4505694D01*
X1435537Y4505688D01*
X1432557Y4502085D01*
X1430054Y4498141D01*
X1430049Y4498134D01*
X1280560Y4262576D01*
X1260598Y4231122D01*
X1123956Y3940742D01*
X1024786Y3635527D01*
X964651Y3320289D01*
X944500Y3000000D01*
X944794Y2995327D01*
X957781Y2788911D01*
X964651Y2679711D01*
X1024786Y2364473D01*
X1123956Y2059258D01*
X1260598Y1768878D01*
X1263108Y1764923D01*
X1430049Y1501866D01*
X1430054Y1501859D01*
X1432557Y1497915D01*
X1435537Y1494312D01*
X1435542Y1494306D01*
X1634130Y1254255D01*
X1637121Y1250640D01*
X1871063Y1030953D01*
X1874848Y1028203D01*
X2126909Y845070D01*
X2126916Y845065D01*
X2130695Y842320D01*
X2411921Y687714D01*
X2416268Y685993D01*
X2416270Y685992D01*
X2664940Y587537D01*
X2726860Y541551D01*
X2757492Y470767D01*
X2748627Y394150D01*
X2702641Y332230D01*
X2631857Y301598D01*
X2610090Y300000D01*
X2185982Y300000D01*
X2111482Y319962D01*
X2080623Y343641D01*
X343641Y2080623D01*
X305077Y2147418D01*
X300000Y2185982D01*
X300000Y9600000D01*
X4194500Y9600000D01*
X4194500Y8000000D01*
X4195803Y7971812D01*
X4226528Y7863827D01*
X4294186Y7774233D01*
X4305926Y7766964D01*
X4305927Y7766963D01*
X4377899Y7722400D01*
X4377900Y7722399D01*
X4389641Y7715130D01*
X4500000Y7694500D01*
X5500000Y7694500D01*
X5501706Y7694579D01*
X5501712Y7694579D01*
X5519578Y7695405D01*
X5528188Y7695803D01*
X5536474Y7698161D01*
X5536476Y7698161D01*
X5571257Y7708057D01*
X5636173Y7726528D01*
X5725767Y7794186D01*
X5784870Y7889641D01*
X5805500Y8000000D01*
X5805500Y8275500D01*
X5825462Y8350000D01*
X5880000Y8404538D01*
X5954500Y8424500D01*
X26444956Y8424500D01*
X26458496Y8423059D01*
X26470032Y8422515D01*
X26482076Y8419922D01*
X26494310Y8421370D01*
X26512027Y8423467D01*
X26517781Y8423806D01*
X26517765Y8423994D01*
X26523885Y8424500D01*
X26530039Y8424500D01*
X26549458Y8427732D01*
X26556370Y8428715D01*
X26568624Y8430166D01*
X26593926Y8433160D01*
X26593928Y8433161D01*
X26606157Y8434608D01*
X26614322Y8438529D01*
X26623251Y8440015D01*
X26667361Y8463815D01*
X26673604Y8466996D01*
X26718789Y8488694D01*
X26724698Y8493661D01*
X26726973Y8495936D01*
X26727090Y8496043D01*
X26733211Y8499346D01*
X26765794Y8534594D01*
X26769849Y8538812D01*
X26983171Y8752134D01*
X27049966Y8790698D01*
X27088530Y8795775D01*
X27090316Y8795775D01*
X27100000Y8794500D01*
X27109685Y8795775D01*
X27247032Y8813857D01*
X27247033Y8813857D01*
X27256715Y8815132D01*
X27402750Y8875622D01*
X27528153Y8971847D01*
X27624378Y9097250D01*
X27684868Y9243285D01*
X27705500Y9400000D01*
X27684868Y9556715D01*
X27624378Y9702750D01*
X27528153Y9828153D01*
X27402750Y9924378D01*
X27256715Y9984868D01*
X27247033Y9986143D01*
X27247032Y9986143D01*
X27109685Y10004225D01*
X27100000Y10005500D01*
X27090315Y10004225D01*
X26952968Y9986143D01*
X26952967Y9986143D01*
X26943285Y9984868D01*
X26797250Y9924378D01*
X26671847Y9828153D01*
X26575622Y9702750D01*
X26515132Y9556715D01*
X26494500Y9400000D01*
X26495775Y9390316D01*
X26495775Y9388530D01*
X26475813Y9314030D01*
X26452134Y9283171D01*
X26388104Y9219141D01*
X26321309Y9180577D01*
X26282745Y9175500D01*
X5954500Y9175500D01*
X5880000Y9195462D01*
X5825462Y9250000D01*
X5805500Y9324500D01*
X5805500Y9600000D01*
X5804197Y9628188D01*
X5773472Y9736173D01*
X5705814Y9825767D01*
X5694073Y9833037D01*
X5622101Y9877600D01*
X5622100Y9877601D01*
X5610359Y9884870D01*
X5500000Y9905500D01*
X4500000Y9905500D01*
X4498294Y9905421D01*
X4498288Y9905421D01*
X4480450Y9904596D01*
X4471812Y9904197D01*
X4463526Y9901839D01*
X4463524Y9901839D01*
X4428743Y9891943D01*
X4363827Y9873472D01*
X4352810Y9865153D01*
X4352809Y9865152D01*
X4310282Y9833037D01*
X4274233Y9805814D01*
X4215130Y9710359D01*
X4194500Y9600000D01*
X300000Y9600000D01*
X300000Y12000000D01*
X6694500Y12000000D01*
X6694500Y10400000D01*
X6695803Y10371812D01*
X6726528Y10263827D01*
X6794186Y10174233D01*
X6805926Y10166964D01*
X6805927Y10166963D01*
X6877899Y10122400D01*
X6877900Y10122399D01*
X6889641Y10115130D01*
X7000000Y10094500D01*
X8000000Y10094500D01*
X8001706Y10094579D01*
X8001712Y10094579D01*
X8019578Y10095405D01*
X8028188Y10095803D01*
X8036474Y10098161D01*
X8036476Y10098161D01*
X8071257Y10108057D01*
X8136173Y10126528D01*
X8225767Y10194186D01*
X8284870Y10289641D01*
X8305500Y10400000D01*
X8305500Y10675500D01*
X8325462Y10750000D01*
X8380000Y10804538D01*
X8454500Y10824500D01*
X15344956Y10824500D01*
X15358496Y10823059D01*
X15370032Y10822515D01*
X15382076Y10819922D01*
X15394310Y10821370D01*
X15412027Y10823467D01*
X15417781Y10823806D01*
X15417765Y10823994D01*
X15423885Y10824500D01*
X15430039Y10824500D01*
X15449458Y10827732D01*
X15456370Y10828715D01*
X15468624Y10830166D01*
X15493926Y10833160D01*
X15493928Y10833161D01*
X15506157Y10834608D01*
X15514322Y10838529D01*
X15523251Y10840015D01*
X15567361Y10863815D01*
X15573604Y10866996D01*
X15618789Y10888694D01*
X15624698Y10893661D01*
X15626973Y10895936D01*
X15627090Y10896043D01*
X15633211Y10899346D01*
X15665794Y10934594D01*
X15669849Y10938812D01*
X15883171Y11152134D01*
X15949966Y11190698D01*
X15988530Y11195775D01*
X15990316Y11195775D01*
X16000000Y11194500D01*
X16009685Y11195775D01*
X16147032Y11213857D01*
X16147033Y11213857D01*
X16156715Y11215132D01*
X16302750Y11275622D01*
X16428153Y11371847D01*
X16524378Y11497250D01*
X16584868Y11643285D01*
X16605500Y11800000D01*
X16584868Y11956715D01*
X16524378Y12102750D01*
X16428153Y12228153D01*
X16302750Y12324378D01*
X16156715Y12384868D01*
X16147033Y12386143D01*
X16147032Y12386143D01*
X16009685Y12404225D01*
X16000000Y12405500D01*
X15990315Y12404225D01*
X15852968Y12386143D01*
X15852967Y12386143D01*
X15843285Y12384868D01*
X15697250Y12324378D01*
X15571847Y12228153D01*
X15475622Y12102750D01*
X15415132Y11956715D01*
X15394500Y11800000D01*
X15395775Y11790316D01*
X15395775Y11788530D01*
X15375813Y11714030D01*
X15352134Y11683171D01*
X15288104Y11619141D01*
X15221309Y11580577D01*
X15182745Y11575500D01*
X8454500Y11575500D01*
X8380000Y11595462D01*
X8325462Y11650000D01*
X8305500Y11724500D01*
X8305500Y12000000D01*
X8304197Y12028188D01*
X8273472Y12136173D01*
X8205814Y12225767D01*
X8194073Y12233037D01*
X8122101Y12277600D01*
X8122100Y12277601D01*
X8110359Y12284870D01*
X8000000Y12305500D01*
X7000000Y12305500D01*
X6998294Y12305421D01*
X6998288Y12305421D01*
X6980450Y12304596D01*
X6971812Y12304197D01*
X6963526Y12301839D01*
X6963524Y12301839D01*
X6928743Y12291943D01*
X6863827Y12273472D01*
X6852810Y12265153D01*
X6852809Y12265152D01*
X6810282Y12233037D01*
X6774233Y12205814D01*
X6715130Y12110359D01*
X6694500Y12000000D01*
X300000Y12000000D01*
X300000Y23000000D01*
X1944500Y23000000D01*
X1945067Y22993519D01*
X1959218Y22831771D01*
X1964333Y22773302D01*
X1966015Y22767026D01*
X1966015Y22767024D01*
X2007130Y22613582D01*
X2023231Y22553493D01*
X2119404Y22347250D01*
X2123135Y22341922D01*
X2123137Y22341918D01*
X2158879Y22290874D01*
X2249929Y22160841D01*
X2410841Y21999929D01*
X2416167Y21996200D01*
X2591918Y21873137D01*
X2591922Y21873135D01*
X2597250Y21869404D01*
X2803493Y21773231D01*
X2809774Y21771548D01*
X3017024Y21716015D01*
X3017026Y21716015D01*
X3023302Y21714333D01*
X3029773Y21713767D01*
X3029778Y21713766D01*
X3243519Y21695067D01*
X3250000Y21694500D01*
X3256481Y21695067D01*
X3470222Y21713766D01*
X3470227Y21713767D01*
X3476698Y21714333D01*
X3482974Y21716015D01*
X3482976Y21716015D01*
X3690226Y21771548D01*
X3696507Y21773231D01*
X3902750Y21869404D01*
X3908078Y21873135D01*
X3908082Y21873137D01*
X4083833Y21996200D01*
X4089159Y21999929D01*
X4250071Y22160841D01*
X4341121Y22290874D01*
X4376863Y22341918D01*
X4376865Y22341922D01*
X4380596Y22347250D01*
X4476769Y22553493D01*
X4492870Y22613582D01*
X4533985Y22767024D01*
X4533985Y22767026D01*
X4535667Y22773302D01*
X4540783Y22831771D01*
X4554933Y22993519D01*
X4555500Y23000000D01*
X4545257Y23117086D01*
X4536234Y23220222D01*
X4536233Y23220227D01*
X4535667Y23226698D01*
X4528102Y23254933D01*
X4478452Y23440226D01*
X4476769Y23446507D01*
X4380596Y23652750D01*
X4376865Y23658078D01*
X4376863Y23658082D01*
X4290791Y23781005D01*
X4250071Y23839159D01*
X4089159Y24000071D01*
X3996879Y24064686D01*
X3908082Y24126863D01*
X3908078Y24126865D01*
X3902750Y24130596D01*
X3696507Y24226769D01*
X3608398Y24250378D01*
X3482976Y24283985D01*
X3482974Y24283985D01*
X3476698Y24285667D01*
X3470227Y24286233D01*
X3470222Y24286234D01*
X3256481Y24304933D01*
X3250000Y24305500D01*
X3243519Y24304933D01*
X3029778Y24286234D01*
X3029773Y24286233D01*
X3023302Y24285667D01*
X3017026Y24283985D01*
X3017024Y24283985D01*
X2891602Y24250378D01*
X2803493Y24226769D01*
X2597250Y24130596D01*
X2591922Y24126865D01*
X2591918Y24126863D01*
X2503121Y24064686D01*
X2410841Y24000071D01*
X2249929Y23839159D01*
X2209209Y23781005D01*
X2123137Y23658082D01*
X2123135Y23658078D01*
X2119404Y23652750D01*
X2023231Y23446507D01*
X2021548Y23440226D01*
X1971899Y23254933D01*
X1964333Y23226698D01*
X1963767Y23220227D01*
X1963766Y23220222D01*
X1954743Y23117086D01*
X1944500Y23000000D01*
X300000Y23000000D01*
X300000Y31325616D01*
X319962Y31400116D01*
X374500Y31454654D01*
X449000Y31474616D01*
X523500Y31454654D01*
X578038Y31400116D01*
X591414Y31369427D01*
X592316Y31366494D01*
X593973Y31355475D01*
X650671Y31237402D01*
X739581Y31141220D01*
X852841Y31075433D01*
X863691Y31072918D01*
X863694Y31072917D01*
X925626Y31058563D01*
X964726Y31049500D01*
X1418258Y31049500D01*
X1423750Y31050326D01*
X1423754Y31050326D01*
X1503513Y31062317D01*
X1503516Y31062318D01*
X1514525Y31063973D01*
X1573562Y31092322D01*
X1622561Y31115851D01*
X1622562Y31115852D01*
X1632598Y31120671D01*
X1728780Y31209581D01*
X1794567Y31322841D01*
X1799804Y31345432D01*
X1812451Y31400000D01*
X4000000Y31400000D01*
X4000000Y27800000D01*
X18700000Y27800000D01*
X18700000Y24400000D01*
X26300000Y24400000D01*
X26300000Y26800000D01*
X29700000Y26800000D01*
X29700000Y25066177D01*
X29592681Y25128513D01*
X29476252Y25155500D01*
X29443213Y25155500D01*
X29368713Y25175462D01*
X29314175Y25230000D01*
X29294213Y25304500D01*
X29295488Y25323948D01*
X29304225Y25390315D01*
X29305500Y25400000D01*
X29284868Y25556715D01*
X29273207Y25584868D01*
X29228116Y25693726D01*
X29228116Y25693727D01*
X29224378Y25702750D01*
X29128153Y25828153D01*
X29002750Y25924378D01*
X28921363Y25958090D01*
X28865737Y25981131D01*
X28856715Y25984868D01*
X28847033Y25986143D01*
X28847032Y25986143D01*
X28709685Y26004225D01*
X28700000Y26005500D01*
X28690315Y26004225D01*
X28552968Y25986143D01*
X28552967Y25986143D01*
X28543285Y25984868D01*
X28534263Y25981131D01*
X28478638Y25958090D01*
X28397250Y25924378D01*
X28271847Y25828153D01*
X28175622Y25702750D01*
X28171884Y25693727D01*
X28171884Y25693726D01*
X28126793Y25584868D01*
X28115132Y25556715D01*
X28094500Y25400000D01*
X28095775Y25390315D01*
X28104512Y25323948D01*
X28094445Y25247479D01*
X28047492Y25186290D01*
X27976235Y25156775D01*
X27956787Y25155500D01*
X27916742Y25155500D01*
X27911250Y25154674D01*
X27911246Y25154674D01*
X27827077Y25142020D01*
X27827074Y25142019D01*
X27816065Y25140364D01*
X27779736Y25122919D01*
X27704008Y25086555D01*
X27704007Y25086554D01*
X27693971Y25081735D01*
X27670984Y25060486D01*
X27616028Y25009685D01*
X27594514Y24989798D01*
X27526487Y24872681D01*
X27499500Y24756252D01*
X27499500Y24371742D01*
X27500326Y24366250D01*
X27500326Y24366246D01*
X27512694Y24283985D01*
X27514636Y24271065D01*
X27519455Y24261029D01*
X27522732Y24250378D01*
X27520845Y24249797D01*
X27532524Y24187705D01*
X27506972Y24114932D01*
X27448456Y24064686D01*
X27383953Y24050000D01*
X18605804Y24050000D01*
X18531304Y24069962D01*
X18476804Y24124462D01*
X18473472Y24136173D01*
X18405814Y24225767D01*
X18369637Y24248167D01*
X18322101Y24277600D01*
X18322100Y24277601D01*
X18310359Y24284870D01*
X18200000Y24305500D01*
X16524500Y24305500D01*
X16450000Y24325462D01*
X16395462Y24380000D01*
X16375500Y24454500D01*
X16375500Y24459279D01*
X16395462Y24533779D01*
X16419141Y24564638D01*
X16420404Y24565901D01*
X16428153Y24571847D01*
X16524378Y24697250D01*
X16539847Y24734594D01*
X16581131Y24834263D01*
X16584868Y24843285D01*
X16598950Y24950244D01*
X16604225Y24990315D01*
X16605500Y25000000D01*
X16604225Y25009685D01*
X16586143Y25147032D01*
X16586143Y25147033D01*
X16584868Y25156715D01*
X16524378Y25302750D01*
X16428153Y25428153D01*
X16302750Y25524378D01*
X16247731Y25547168D01*
X16165737Y25581131D01*
X16156715Y25584868D01*
X16147033Y25586143D01*
X16147032Y25586143D01*
X16009685Y25604225D01*
X16000000Y25605500D01*
X15990315Y25604225D01*
X15852968Y25586143D01*
X15852967Y25586143D01*
X15843285Y25584868D01*
X15834263Y25581131D01*
X15752270Y25547168D01*
X15697250Y25524378D01*
X15571847Y25428153D01*
X15475622Y25302750D01*
X15415132Y25156715D01*
X15413857Y25147033D01*
X15413857Y25147032D01*
X15395775Y25009685D01*
X15394500Y25000000D01*
X15395775Y24990315D01*
X15401051Y24950244D01*
X15415132Y24843285D01*
X15418869Y24834263D01*
X15460154Y24734594D01*
X15475622Y24697250D01*
X15571847Y24571847D01*
X15579596Y24565901D01*
X15580859Y24564638D01*
X15619423Y24497843D01*
X15624500Y24459279D01*
X15624500Y24454500D01*
X15604538Y24380000D01*
X15550000Y24325462D01*
X15475500Y24305500D01*
X13800000Y24305500D01*
X13798294Y24305421D01*
X13798288Y24305421D01*
X13780450Y24304596D01*
X13771812Y24304197D01*
X13763526Y24301839D01*
X13763524Y24301839D01*
X13728743Y24291943D01*
X13663827Y24273472D01*
X13652810Y24265153D01*
X13652809Y24265152D01*
X13610282Y24233037D01*
X13574233Y24205814D01*
X13566964Y24194074D01*
X13566963Y24194073D01*
X13523886Y24124500D01*
X13515130Y24110359D01*
X13494500Y24000000D01*
X13494500Y20700000D01*
X13495803Y20671812D01*
X13526528Y20563827D01*
X13534847Y20552810D01*
X13534848Y20552809D01*
X13541691Y20543748D01*
X13594186Y20474233D01*
X13605926Y20466964D01*
X13605927Y20466963D01*
X13677899Y20422400D01*
X13677900Y20422399D01*
X13689641Y20415130D01*
X13800000Y20394500D01*
X15475500Y20394500D01*
X15550000Y20374538D01*
X15604538Y20320000D01*
X15624500Y20245500D01*
X15624500Y20140721D01*
X15604538Y20066221D01*
X15580859Y20035362D01*
X15579596Y20034099D01*
X15571847Y20028153D01*
X15475622Y19902750D01*
X15471884Y19893727D01*
X15471884Y19893726D01*
X15451165Y19843707D01*
X15415132Y19756715D01*
X15413857Y19747033D01*
X15413857Y19747032D01*
X15406699Y19692661D01*
X15394500Y19600000D01*
X15395775Y19590315D01*
X15402723Y19537544D01*
X15415132Y19443285D01*
X15475622Y19297250D01*
X15571847Y19171847D01*
X15697250Y19075622D01*
X15843285Y19015132D01*
X15852967Y19013857D01*
X15852968Y19013857D01*
X15990315Y18995775D01*
X16000000Y18994500D01*
X16009685Y18995775D01*
X16147032Y19013857D01*
X16147033Y19013857D01*
X16156715Y19015132D01*
X16302750Y19075622D01*
X16428153Y19171847D01*
X16524378Y19297250D01*
X16584868Y19443285D01*
X16597278Y19537544D01*
X16604225Y19590315D01*
X16605500Y19600000D01*
X16593301Y19692661D01*
X16586143Y19747032D01*
X16586143Y19747033D01*
X16584868Y19756715D01*
X16548835Y19843707D01*
X16528116Y19893726D01*
X16528116Y19893727D01*
X16524378Y19902750D01*
X16428153Y20028153D01*
X16420404Y20034099D01*
X16419141Y20035362D01*
X16380577Y20102157D01*
X16375500Y20140721D01*
X16375500Y20245500D01*
X16395462Y20320000D01*
X16450000Y20374538D01*
X16524500Y20394500D01*
X18200000Y20394500D01*
X18201706Y20394579D01*
X18201712Y20394579D01*
X18219578Y20395405D01*
X18228188Y20395803D01*
X18236474Y20398161D01*
X18236476Y20398161D01*
X18271257Y20408057D01*
X18336173Y20426528D01*
X18368617Y20451028D01*
X18414748Y20485865D01*
X18425767Y20494186D01*
X18451332Y20535475D01*
X18477600Y20577899D01*
X18477601Y20577900D01*
X18484870Y20589641D01*
X18505500Y20700000D01*
X18505500Y20706884D01*
X18506136Y20713748D01*
X18508848Y20713497D01*
X18525462Y20775500D01*
X18580000Y20830038D01*
X18654500Y20850000D01*
X19282732Y20850000D01*
X19333202Y20841191D01*
X19429555Y20806502D01*
X19438483Y20805564D01*
X19438486Y20805563D01*
X19472029Y20802038D01*
X19496177Y20799500D01*
X20492751Y20799500D01*
X20566074Y20809544D01*
X20593889Y20813354D01*
X20593891Y20813355D01*
X20603954Y20814733D01*
X20657133Y20837746D01*
X20716306Y20850000D01*
X21782732Y20850000D01*
X21833202Y20841191D01*
X21929555Y20806502D01*
X21938483Y20805564D01*
X21938486Y20805563D01*
X21972029Y20802038D01*
X21996177Y20799500D01*
X22992751Y20799500D01*
X23066074Y20809544D01*
X23093889Y20813354D01*
X23093891Y20813355D01*
X23103954Y20814733D01*
X23157133Y20837746D01*
X23216306Y20850000D01*
X24282732Y20850000D01*
X24333202Y20841191D01*
X24429555Y20806502D01*
X24438483Y20805564D01*
X24438486Y20805563D01*
X24472029Y20802038D01*
X24496177Y20799500D01*
X25492751Y20799500D01*
X25566074Y20809544D01*
X25593889Y20813354D01*
X25593891Y20813355D01*
X25603954Y20814733D01*
X25657133Y20837746D01*
X25716306Y20850000D01*
X26346775Y20850000D01*
X26351610Y20850637D01*
X26351617Y20850637D01*
X26419576Y20859584D01*
X26419580Y20859585D01*
X26424420Y20860222D01*
X26498920Y20880184D01*
X26542451Y20895524D01*
X26543319Y20893061D01*
X26604175Y20905901D01*
X26677492Y20881958D01*
X26686860Y20875327D01*
X26797250Y20790622D01*
X26806273Y20786884D01*
X26806274Y20786884D01*
X26934261Y20733870D01*
X26943285Y20730132D01*
X26952967Y20728857D01*
X26952968Y20728857D01*
X27090315Y20710775D01*
X27100000Y20709500D01*
X27109685Y20710775D01*
X27247032Y20728857D01*
X27247033Y20728857D01*
X27256715Y20730132D01*
X27265738Y20733869D01*
X27265740Y20733870D01*
X27293479Y20745360D01*
X27369947Y20755428D01*
X27441204Y20725914D01*
X27488157Y20664724D01*
X27499500Y20607703D01*
X27499500Y20561742D01*
X27500326Y20556250D01*
X27500326Y20556246D01*
X27511000Y20485252D01*
X27514636Y20461065D01*
X27573265Y20338971D01*
X27665202Y20239514D01*
X27782319Y20171487D01*
X27898748Y20144500D01*
X27986813Y20144500D01*
X28061313Y20124538D01*
X28115851Y20070000D01*
X28135682Y19989261D01*
X28134465Y19960223D01*
X28144152Y19918922D01*
X28146705Y19905150D01*
X28152463Y19863115D01*
X28156497Y19853794D01*
X28156497Y19853793D01*
X28157614Y19851212D01*
X28165932Y19826060D01*
X28166339Y19824327D01*
X28168896Y19813426D01*
X28173786Y19804531D01*
X28173788Y19804526D01*
X28189329Y19776258D01*
X28195505Y19763651D01*
X28208310Y19734059D01*
X28208312Y19734056D01*
X28212345Y19724736D01*
X28220512Y19714651D01*
X28235287Y19692663D01*
X28241535Y19681297D01*
X28250092Y19671384D01*
X28273256Y19648220D01*
X28283692Y19636630D01*
X28289471Y19629494D01*
X28307234Y19607558D01*
X28315514Y19601674D01*
X28320136Y19598389D01*
X28339182Y19582294D01*
X28377570Y19543906D01*
X28416134Y19477111D01*
X28419953Y19425547D01*
X28419500Y19423591D01*
X28419500Y18994243D01*
X28434526Y18894300D01*
X28492832Y18772876D01*
X28584265Y18673965D01*
X28593893Y18668373D01*
X28593895Y18668371D01*
X28620648Y18652832D01*
X28700740Y18606311D01*
X28816409Y18579500D01*
X29195757Y18579500D01*
X29295700Y18594526D01*
X29417124Y18652832D01*
X29493649Y18723571D01*
X29507858Y18736706D01*
X29507859Y18736707D01*
X29516035Y18744265D01*
X29521862Y18754296D01*
X29565891Y18830099D01*
X29583689Y18860740D01*
X29610500Y18976409D01*
X29610500Y19405757D01*
X29595474Y19505700D01*
X29580183Y19537544D01*
X29565500Y19602041D01*
X29565500Y19673688D01*
X29565631Y19679928D01*
X29566165Y19692661D01*
X29568035Y19737277D01*
X29558348Y19778578D01*
X29555795Y19792350D01*
X29550037Y19834385D01*
X29544886Y19846288D01*
X29536568Y19871440D01*
X29535924Y19874184D01*
X29535923Y19874187D01*
X29533604Y19884074D01*
X29528714Y19892969D01*
X29528712Y19892974D01*
X29513171Y19921242D01*
X29507003Y19933830D01*
X29491929Y19968664D01*
X29480662Y20044960D01*
X29509054Y20116672D01*
X29564177Y20162153D01*
X29670992Y20213445D01*
X29670993Y20213446D01*
X29681029Y20218265D01*
X29700000Y20235802D01*
X29700000Y18400000D01*
X26300000Y18400000D01*
X26300000Y20400000D01*
X18700000Y20400000D01*
X18700000Y18400000D01*
X4000000Y18400000D01*
X4000000Y14800000D01*
X46000000Y14800000D01*
X46000000Y22000000D01*
X41000000Y22000000D01*
X41000000Y17400000D01*
X32700000Y17400000D01*
X32700000Y20337094D01*
X32790202Y20239514D01*
X32799831Y20233921D01*
X32906544Y20171937D01*
X32960938Y20117257D01*
X32980705Y20042705D01*
X32974790Y20001528D01*
X32965691Y19970209D01*
X32961145Y19956933D01*
X32945535Y19917505D01*
X32944473Y19907401D01*
X32944179Y19904604D01*
X32939079Y19878609D01*
X32935459Y19866149D01*
X32934500Y19853089D01*
X32934500Y19820326D01*
X32933684Y19804751D01*
X32930932Y19778567D01*
X32929774Y19767551D01*
X32931468Y19757538D01*
X32932413Y19751950D01*
X32934500Y19727100D01*
X32934500Y19609126D01*
X32924037Y19554275D01*
X32921906Y19548892D01*
X32916311Y19539260D01*
X32889500Y19423591D01*
X32889500Y18994243D01*
X32904526Y18894300D01*
X32962832Y18772876D01*
X33054265Y18673965D01*
X33063893Y18668373D01*
X33063895Y18668371D01*
X33090648Y18652832D01*
X33170740Y18606311D01*
X33286409Y18579500D01*
X33665757Y18579500D01*
X33765700Y18594526D01*
X33887124Y18652832D01*
X33963649Y18723571D01*
X33977858Y18736706D01*
X33977859Y18736707D01*
X33986035Y18744265D01*
X33991862Y18754296D01*
X34035891Y18830099D01*
X34053689Y18860740D01*
X34080500Y18976409D01*
X34080500Y19405757D01*
X34066033Y19501982D01*
X34074697Y19578622D01*
X34108018Y19629494D01*
X34193757Y19715233D01*
X34198262Y19719553D01*
X34233041Y19751534D01*
X34240520Y19758411D01*
X34262874Y19794465D01*
X34270812Y19806015D01*
X34296459Y19839803D01*
X34301233Y19851861D01*
X34313137Y19875528D01*
X34314621Y19877921D01*
X34314624Y19877928D01*
X34319975Y19886558D01*
X34331809Y19927289D01*
X34336355Y19940567D01*
X34343173Y19957789D01*
X34351965Y19979995D01*
X34353321Y19992896D01*
X34358421Y20018891D01*
X34362041Y20031351D01*
X34363732Y20030860D01*
X34392348Y20091673D01*
X34455682Y20135691D01*
X34506154Y20144500D01*
X34583258Y20144500D01*
X34588750Y20145326D01*
X34588754Y20145326D01*
X34672923Y20157980D01*
X34672926Y20157981D01*
X34683935Y20159636D01*
X34725962Y20179817D01*
X34790460Y20194500D01*
X34865258Y20194500D01*
X34939758Y20174538D01*
X34970617Y20150859D01*
X35002733Y20118743D01*
X35007053Y20114238D01*
X35045911Y20071980D01*
X35081965Y20049626D01*
X35093515Y20041688D01*
X35127303Y20016041D01*
X35136747Y20012302D01*
X35136749Y20012301D01*
X35139363Y20011266D01*
X35163031Y19999362D01*
X35165425Y19997878D01*
X35174058Y19992525D01*
X35183808Y19989692D01*
X35183811Y19989691D01*
X35214784Y19980693D01*
X35228067Y19976145D01*
X35258051Y19964273D01*
X35258056Y19964272D01*
X35267494Y19960535D01*
X35280398Y19959179D01*
X35306388Y19954080D01*
X35318851Y19950459D01*
X35326634Y19949888D01*
X35334323Y19948504D01*
X35333953Y19946449D01*
X35396235Y19924764D01*
X35446635Y19866380D01*
X35461090Y19790619D01*
X35451293Y19747837D01*
X35446311Y19739260D01*
X35419500Y19623591D01*
X35419500Y19194243D01*
X35434526Y19094300D01*
X35492832Y18972876D01*
X35584265Y18873965D01*
X35593893Y18868373D01*
X35593895Y18868371D01*
X35628946Y18848012D01*
X35700740Y18806311D01*
X35816409Y18779500D01*
X36195757Y18779500D01*
X36295700Y18794526D01*
X36417124Y18852832D01*
X36421086Y18856495D01*
X36490809Y18880774D01*
X36566571Y18866321D01*
X36576557Y18861016D01*
X36661106Y18811906D01*
X36661109Y18811905D01*
X36670740Y18806311D01*
X36786409Y18779500D01*
X37165757Y18779500D01*
X37265700Y18794526D01*
X37387124Y18852832D01*
X37443125Y18904599D01*
X37477858Y18936706D01*
X37477859Y18936707D01*
X37486035Y18944265D01*
X37497906Y18964701D01*
X37548095Y19051110D01*
X37553689Y19060740D01*
X37580500Y19176409D01*
X37580500Y19605757D01*
X37565474Y19705700D01*
X37550183Y19737544D01*
X37535500Y19802041D01*
X37535500Y19975500D01*
X37555462Y20050000D01*
X37610000Y20104538D01*
X37684500Y20124500D01*
X39144956Y20124500D01*
X39158496Y20123059D01*
X39170032Y20122515D01*
X39182076Y20119922D01*
X39194310Y20121370D01*
X39212027Y20123467D01*
X39217781Y20123806D01*
X39217765Y20123994D01*
X39223885Y20124500D01*
X39230039Y20124500D01*
X39249458Y20127732D01*
X39256370Y20128715D01*
X39268624Y20130166D01*
X39293926Y20133160D01*
X39293928Y20133161D01*
X39306157Y20134608D01*
X39314322Y20138529D01*
X39323251Y20140015D01*
X39349974Y20154434D01*
X39367361Y20163815D01*
X39373604Y20166996D01*
X39418789Y20188694D01*
X39424698Y20193661D01*
X39426973Y20195936D01*
X39427090Y20196043D01*
X39433211Y20199346D01*
X39465794Y20234594D01*
X39469849Y20238812D01*
X40226597Y20995560D01*
X40237192Y21004117D01*
X40245733Y21011888D01*
X40256081Y21018570D01*
X40264253Y21028935D01*
X40274752Y21042254D01*
X40278582Y21046565D01*
X40278439Y21046686D01*
X40282414Y21051377D01*
X40286759Y21055722D01*
X40290331Y21060720D01*
X40290335Y21060725D01*
X40298189Y21071716D01*
X40302404Y21077330D01*
X40325810Y21107020D01*
X40325811Y21107022D01*
X40333435Y21116693D01*
X40336435Y21125237D01*
X40341700Y21132604D01*
X40345227Y21144399D01*
X40345229Y21144402D01*
X40356062Y21180626D01*
X40358231Y21187303D01*
X40360713Y21194370D01*
X40374834Y21234581D01*
X40375500Y21242271D01*
X40375500Y21245494D01*
X40375507Y21245645D01*
X40377500Y21252311D01*
X40375615Y21300282D01*
X40375500Y21306131D01*
X40375500Y22540245D01*
X40395462Y22614745D01*
X40419141Y22645604D01*
X41007147Y23233610D01*
X41073942Y23272174D01*
X41151070Y23272174D01*
X41190944Y23254933D01*
X41235897Y23227099D01*
X41235898Y23227098D01*
X41247639Y23219829D01*
X41357998Y23199199D01*
X44863198Y23199199D01*
X44864904Y23199278D01*
X44864910Y23199278D01*
X44882776Y23200104D01*
X44891386Y23200502D01*
X44899672Y23202860D01*
X44899674Y23202860D01*
X44934455Y23212756D01*
X44999371Y23231227D01*
X45010474Y23239611D01*
X45077946Y23290564D01*
X45088965Y23298885D01*
X45101837Y23319674D01*
X45140798Y23382598D01*
X45140799Y23382599D01*
X45148068Y23394340D01*
X45168698Y23504699D01*
X45168698Y23551000D01*
X45188660Y23625500D01*
X45243198Y23680038D01*
X45317698Y23700000D01*
X45876000Y23700000D01*
X45879958Y23700426D01*
X45879967Y23700426D01*
X45907886Y23703428D01*
X45939772Y23706856D01*
X45991283Y23718062D01*
X46028801Y23728823D01*
X46094222Y23767084D01*
X46118026Y23781005D01*
X46118028Y23781007D01*
X46123969Y23784481D01*
X46130900Y23790486D01*
X46173939Y23827780D01*
X46173942Y23827783D01*
X46176773Y23830236D01*
X46218192Y23874164D01*
X46245238Y23927355D01*
X46265040Y23966298D01*
X46265042Y23966303D01*
X46268162Y23972439D01*
X46272462Y23987081D01*
X46286346Y24034366D01*
X46286346Y24034367D01*
X46287847Y24039478D01*
X46298039Y24110359D01*
X46299243Y24118732D01*
X46299243Y24118738D01*
X46300000Y24124000D01*
X46300000Y29357990D01*
X46319962Y29432490D01*
X46374500Y29487028D01*
X46431878Y29505746D01*
X46431870Y29505792D01*
X46432167Y29505840D01*
X46433073Y29506136D01*
X46439772Y29506856D01*
X46491283Y29518062D01*
X46528801Y29528823D01*
X46611140Y29576978D01*
X46618026Y29581005D01*
X46618028Y29581007D01*
X46623969Y29584481D01*
X46647186Y29604598D01*
X46673939Y29627780D01*
X46673942Y29627783D01*
X46676773Y29630236D01*
X46718192Y29674164D01*
X46723022Y29683663D01*
X46765040Y29766298D01*
X46765042Y29766303D01*
X46768162Y29772439D01*
X46778815Y29808717D01*
X46786346Y29834366D01*
X46786346Y29834367D01*
X46787847Y29839478D01*
X46800000Y29924000D01*
X46800000Y32876000D01*
X46793144Y32939772D01*
X46781938Y32991283D01*
X46771177Y33028801D01*
X46732916Y33094222D01*
X46718995Y33118026D01*
X46718993Y33118028D01*
X46715519Y33123969D01*
X46707182Y33133591D01*
X46672220Y33173939D01*
X46672217Y33173942D01*
X46669764Y33176773D01*
X46625836Y33218192D01*
X46587256Y33237809D01*
X46533702Y33265040D01*
X46533697Y33265042D01*
X46527561Y33268162D01*
X46520954Y33270102D01*
X46520949Y33270104D01*
X46465634Y33286346D01*
X46465633Y33286346D01*
X46460522Y33287847D01*
X46420720Y33293570D01*
X46381268Y33299243D01*
X46381262Y33299243D01*
X46376000Y33300000D01*
X27024500Y33300000D01*
X26950000Y33319962D01*
X26895462Y33374500D01*
X26875500Y33449000D01*
X26875500Y34544957D01*
X26876941Y34558499D01*
X26877485Y34570035D01*
X26880077Y34582076D01*
X26876533Y34612019D01*
X26876193Y34617782D01*
X26876006Y34617767D01*
X26875500Y34623889D01*
X26875500Y34630039D01*
X26872268Y34649457D01*
X26871278Y34656414D01*
X26866838Y34693927D01*
X26865391Y34706157D01*
X26861472Y34714319D01*
X26859985Y34723251D01*
X26836189Y34767352D01*
X26832999Y34773613D01*
X26815365Y34810338D01*
X26815363Y34810341D01*
X26811306Y34818790D01*
X26806339Y34824698D01*
X26804059Y34826978D01*
X26803957Y34827089D01*
X26800654Y34833211D01*
X26765406Y34865794D01*
X26761188Y34869849D01*
X26404440Y35226597D01*
X26395883Y35237192D01*
X26388112Y35245733D01*
X26381430Y35256081D01*
X26371758Y35263705D01*
X26371757Y35263707D01*
X26357746Y35274752D01*
X26353440Y35278578D01*
X26353319Y35278435D01*
X26348626Y35282411D01*
X26344278Y35286759D01*
X26328277Y35298193D01*
X26322681Y35302395D01*
X26292981Y35325809D01*
X26292979Y35325810D01*
X26283307Y35333435D01*
X26274761Y35336436D01*
X26267396Y35341699D01*
X26219390Y35356056D01*
X26212715Y35358225D01*
X26174264Y35371728D01*
X26174263Y35371728D01*
X26165419Y35374834D01*
X26157729Y35375500D01*
X26154507Y35375500D01*
X26154354Y35375507D01*
X26147689Y35377500D01*
X26099719Y35375615D01*
X26093869Y35375500D01*
X25640721Y35375500D01*
X25566221Y35395462D01*
X25535362Y35419141D01*
X25534099Y35420404D01*
X25528153Y35428153D01*
X25402750Y35524378D01*
X25375376Y35535717D01*
X25265737Y35581131D01*
X25256715Y35584868D01*
X25247033Y35586143D01*
X25247032Y35586143D01*
X25109685Y35604225D01*
X25100000Y35605500D01*
X25090315Y35604225D01*
X24952968Y35586143D01*
X24952967Y35586143D01*
X24943285Y35584868D01*
X24934263Y35581131D01*
X24824625Y35535717D01*
X24797250Y35524378D01*
X24671847Y35428153D01*
X24575622Y35302750D01*
X24571884Y35293727D01*
X24571884Y35293726D01*
X24565550Y35278435D01*
X24515132Y35156715D01*
X24494500Y35000000D01*
X24495775Y34990315D01*
X24512169Y34865794D01*
X24515132Y34843285D01*
X24518869Y34834263D01*
X24565678Y34721258D01*
X24575622Y34697250D01*
X24671847Y34571847D01*
X24679596Y34565901D01*
X24787114Y34483400D01*
X24797250Y34475622D01*
X24806273Y34471884D01*
X24806274Y34471884D01*
X24863619Y34448131D01*
X24943285Y34415132D01*
X24952967Y34413857D01*
X24952968Y34413857D01*
X25090315Y34395775D01*
X25100000Y34394500D01*
X25109685Y34395775D01*
X25247032Y34413857D01*
X25247033Y34413857D01*
X25256715Y34415132D01*
X25336381Y34448131D01*
X25393726Y34471884D01*
X25393727Y34471884D01*
X25402750Y34475622D01*
X25412887Y34483400D01*
X25520404Y34565901D01*
X25528153Y34571847D01*
X25534099Y34579596D01*
X25535362Y34580859D01*
X25602157Y34619423D01*
X25640721Y34624500D01*
X25882745Y34624500D01*
X25957245Y34604538D01*
X25988104Y34580859D01*
X26080859Y34488104D01*
X26119423Y34421309D01*
X26124500Y34382745D01*
X26124500Y33449000D01*
X26104538Y33374500D01*
X26050000Y33319962D01*
X25975500Y33300000D01*
X24624000Y33300000D01*
X24620042Y33299574D01*
X24620033Y33299574D01*
X24592114Y33296572D01*
X24560228Y33293144D01*
X24508717Y33281938D01*
X24471199Y33271177D01*
X24414144Y33237809D01*
X24381974Y33218995D01*
X24381972Y33218993D01*
X24376031Y33215519D01*
X24370831Y33211013D01*
X24370828Y33211011D01*
X24328045Y33173939D01*
X24323227Y33169764D01*
X24281808Y33125836D01*
X24276978Y33116337D01*
X24234960Y33033702D01*
X24234958Y33033697D01*
X24231838Y33027561D01*
X24229898Y33020954D01*
X24229896Y33020949D01*
X24213654Y32965634D01*
X24212153Y32960522D01*
X24200000Y32876000D01*
X24200000Y29924000D01*
X24206856Y29860228D01*
X24218062Y29808717D01*
X24228823Y29771199D01*
X24267084Y29705778D01*
X24280018Y29683663D01*
X24284481Y29676031D01*
X24288987Y29670831D01*
X24288989Y29670828D01*
X24327780Y29626061D01*
X24330236Y29623227D01*
X24374164Y29581808D01*
X24383663Y29576978D01*
X24466298Y29534960D01*
X24466303Y29534958D01*
X24472439Y29531838D01*
X24479046Y29529898D01*
X24479051Y29529896D01*
X24519354Y29518062D01*
X24539478Y29512153D01*
X24570427Y29507703D01*
X24618732Y29500757D01*
X24618738Y29500757D01*
X24624000Y29500000D01*
X29391356Y29500000D01*
X29422756Y29496450D01*
X29429555Y29494002D01*
X29438483Y29493064D01*
X29438486Y29493063D01*
X29472029Y29489538D01*
X29496177Y29487000D01*
X30492751Y29487000D01*
X30577586Y29498621D01*
X30597808Y29500000D01*
X31891356Y29500000D01*
X31922756Y29496450D01*
X31929555Y29494002D01*
X31938483Y29493064D01*
X31938486Y29493063D01*
X31972029Y29489538D01*
X31996177Y29487000D01*
X32992751Y29487000D01*
X33077586Y29498621D01*
X33097808Y29500000D01*
X40551000Y29500000D01*
X40625500Y29480038D01*
X40680038Y29425500D01*
X40700000Y29351000D01*
X40700000Y26107090D01*
X40680038Y26032590D01*
X40625500Y25978052D01*
X40551000Y25958090D01*
X40493982Y25969431D01*
X40456715Y25984868D01*
X40456714Y25984868D01*
X40457227Y25986107D01*
X40399147Y26019636D01*
X40360579Y26086429D01*
X40355500Y26125000D01*
X40355500Y28250000D01*
X40354197Y28278188D01*
X40323472Y28386173D01*
X40255814Y28475767D01*
X40243609Y28483324D01*
X40172101Y28527600D01*
X40172100Y28527601D01*
X40160359Y28534870D01*
X40050000Y28555500D01*
X34950000Y28555500D01*
X34948294Y28555421D01*
X34948288Y28555421D01*
X34930450Y28554596D01*
X34921812Y28554197D01*
X34913526Y28551839D01*
X34913524Y28551839D01*
X34827108Y28527251D01*
X34827107Y28527251D01*
X34813827Y28523472D01*
X34803285Y28515511D01*
X34737336Y28500000D01*
X33573878Y28500000D01*
X33570590Y28499708D01*
X33570589Y28499708D01*
X33563901Y28499114D01*
X33521016Y28495306D01*
X33478001Y28487606D01*
X33450768Y28481410D01*
X33351738Y28432954D01*
X33295690Y28391236D01*
X33251129Y28350493D01*
X33194018Y28256189D01*
X33173239Y28200940D01*
X33174431Y28200492D01*
X33171817Y28189456D01*
X33165668Y28173470D01*
X33165668Y28173468D01*
X33163607Y28168110D01*
X33162594Y28168413D01*
X33158649Y28155220D01*
X33156709Y28150178D01*
X33156187Y28147349D01*
X33155687Y28146509D01*
X33156014Y28146411D01*
X33140460Y28094403D01*
X33122744Y28056060D01*
X33114414Y28043207D01*
X33094516Y28018665D01*
X33068519Y27992776D01*
X33068506Y27992763D01*
X33066604Y27990868D01*
X33043231Y27963969D01*
X33031808Y27949996D01*
X33028176Y27942853D01*
X32984960Y27857862D01*
X32984958Y27857857D01*
X32981838Y27851721D01*
X32962153Y27784682D01*
X32950000Y27700160D01*
X32950000Y25238394D01*
X32930038Y25163894D01*
X32875500Y25109356D01*
X32865498Y25104077D01*
X32829008Y25086555D01*
X32829007Y25086554D01*
X32818971Y25081735D01*
X32795984Y25060486D01*
X32741028Y25009685D01*
X32719514Y24989798D01*
X32700000Y24956202D01*
X32700000Y29400000D01*
X23500000Y29400000D01*
X23500000Y36400000D01*
X28900000Y36400000D01*
X28900000Y33800000D01*
X33500000Y33800000D01*
X33500000Y39000000D01*
X18700000Y39000000D01*
X18700000Y31475385D01*
X4000000Y31400000D01*
X1812451Y31400000D01*
X1818582Y31426452D01*
X1820500Y31434726D01*
X1820500Y31788258D01*
X1817942Y31805274D01*
X1807683Y31873513D01*
X1807682Y31873516D01*
X1806027Y31884525D01*
X1766951Y31965901D01*
X1754149Y31992561D01*
X1754148Y31992562D01*
X1749329Y32002598D01*
X1682107Y32075318D01*
X1646196Y32143574D01*
X1649224Y32220642D01*
X1690380Y32285872D01*
X1702868Y32295273D01*
X1702826Y32295325D01*
X1805519Y32378484D01*
X1805520Y32378485D01*
X1813412Y32384876D01*
X1859717Y32450034D01*
X1877130Y32474536D01*
X1936558Y32523699D01*
X2012606Y32536562D01*
X2084897Y32509677D01*
X2119995Y32471907D01*
X2120325Y32472174D01*
X2126715Y32464283D01*
X2191018Y32384876D01*
X2209876Y32361588D01*
X2325867Y32279158D01*
X2388330Y32256670D01*
X2451301Y32233998D01*
X2451305Y32233997D01*
X2459752Y32230956D01*
X2468680Y32230018D01*
X2468683Y32230017D01*
X2493911Y32227366D01*
X2521178Y32224500D01*
X3042751Y32224500D01*
X3093839Y32231498D01*
X3137167Y32237433D01*
X3137170Y32237434D01*
X3147231Y32238812D01*
X3277826Y32295325D01*
X3388412Y32384876D01*
X3470842Y32500867D01*
X3479880Y32525972D01*
X3523896Y32589304D01*
X3593684Y32622145D01*
X3620071Y32624500D01*
X15182745Y32624500D01*
X15257245Y32604538D01*
X15288104Y32580859D01*
X15352134Y32516829D01*
X15390698Y32450034D01*
X15395775Y32411470D01*
X15395775Y32409685D01*
X15394500Y32400000D01*
X15395775Y32390315D01*
X15408812Y32291293D01*
X15415132Y32243285D01*
X15418869Y32234263D01*
X15466477Y32119329D01*
X15475622Y32097250D01*
X15571847Y31971847D01*
X15697250Y31875622D01*
X15843285Y31815132D01*
X15852967Y31813857D01*
X15852968Y31813857D01*
X15990315Y31795775D01*
X16000000Y31794500D01*
X16009685Y31795775D01*
X16147032Y31813857D01*
X16147033Y31813857D01*
X16156715Y31815132D01*
X16302750Y31875622D01*
X16428153Y31971847D01*
X16524378Y32097250D01*
X16533524Y32119329D01*
X16581131Y32234263D01*
X16584868Y32243285D01*
X16591189Y32291293D01*
X16604225Y32390315D01*
X16605500Y32400000D01*
X16601700Y32428862D01*
X16586143Y32547032D01*
X16586143Y32547033D01*
X16584868Y32556715D01*
X16524378Y32702750D01*
X16428153Y32828153D01*
X16302750Y32924378D01*
X16256188Y32943665D01*
X16165737Y32981131D01*
X16156715Y32984868D01*
X16147033Y32986143D01*
X16147032Y32986143D01*
X16009685Y33004225D01*
X16000000Y33005500D01*
X15990316Y33004225D01*
X15988530Y33004225D01*
X15914030Y33024187D01*
X15883171Y33047866D01*
X15704440Y33226597D01*
X15695883Y33237192D01*
X15688112Y33245733D01*
X15681430Y33256081D01*
X15671758Y33263705D01*
X15671757Y33263707D01*
X15657746Y33274752D01*
X15653440Y33278578D01*
X15653319Y33278435D01*
X15648626Y33282411D01*
X15644278Y33286759D01*
X15628277Y33298193D01*
X15622681Y33302395D01*
X15592981Y33325809D01*
X15592979Y33325810D01*
X15583307Y33333435D01*
X15574761Y33336436D01*
X15567396Y33341699D01*
X15519390Y33356056D01*
X15512715Y33358225D01*
X15474264Y33371728D01*
X15474263Y33371728D01*
X15465419Y33374834D01*
X15457729Y33375500D01*
X15454507Y33375500D01*
X15454354Y33375507D01*
X15447689Y33377500D01*
X15399719Y33375615D01*
X15393869Y33375500D01*
X3618467Y33375500D01*
X3543967Y33395462D01*
X3489429Y33450000D01*
X3481721Y33465326D01*
X3458708Y33518506D01*
X3454675Y33527826D01*
X3365124Y33638412D01*
X3249133Y33720842D01*
X3186670Y33743330D01*
X3123699Y33766002D01*
X3123695Y33766003D01*
X3115248Y33769044D01*
X3106320Y33769982D01*
X3106317Y33769983D01*
X3081089Y33772634D01*
X3053822Y33775500D01*
X2532249Y33775500D01*
X2485119Y33769044D01*
X2437833Y33762567D01*
X2437830Y33762566D01*
X2427769Y33761188D01*
X2297174Y33704675D01*
X2186588Y33615124D01*
X2180704Y33606844D01*
X2122870Y33525464D01*
X2063442Y33476301D01*
X1987394Y33463438D01*
X1915103Y33490323D01*
X1880005Y33528093D01*
X1879675Y33527826D01*
X1836188Y33581528D01*
X1796516Y33630519D01*
X1796515Y33630520D01*
X1790124Y33638412D01*
X1674133Y33720842D01*
X1611670Y33743330D01*
X1548699Y33766002D01*
X1548695Y33766003D01*
X1540248Y33769044D01*
X1531320Y33769982D01*
X1531317Y33769983D01*
X1506089Y33772634D01*
X1478822Y33775500D01*
X957249Y33775500D01*
X910119Y33769044D01*
X862833Y33762567D01*
X862830Y33762566D01*
X852769Y33761188D01*
X722174Y33704675D01*
X611588Y33615124D01*
X570453Y33557242D01*
X511027Y33508079D01*
X434979Y33495216D01*
X362688Y33522100D01*
X313524Y33581528D01*
X300000Y33643555D01*
X300000Y34354362D01*
X319962Y34428862D01*
X374500Y34483400D01*
X449000Y34503362D01*
X523500Y34483400D01*
X564794Y34448132D01*
X586515Y34421309D01*
X616018Y34384876D01*
X634876Y34361588D01*
X750867Y34279158D01*
X813330Y34256670D01*
X876301Y34233998D01*
X876305Y34233997D01*
X884752Y34230956D01*
X893680Y34230018D01*
X893683Y34230017D01*
X918911Y34227366D01*
X946178Y34224500D01*
X1467751Y34224500D01*
X1518839Y34231498D01*
X1562167Y34237433D01*
X1562170Y34237434D01*
X1572231Y34238812D01*
X1702826Y34295325D01*
X1813412Y34384876D01*
X1858365Y34448131D01*
X1877130Y34474536D01*
X1936558Y34523699D01*
X2012606Y34536562D01*
X2084897Y34509677D01*
X2119995Y34471907D01*
X2120325Y34472174D01*
X2126715Y34464283D01*
X2191018Y34384876D01*
X2209876Y34361588D01*
X2325867Y34279158D01*
X2388330Y34256670D01*
X2451301Y34233998D01*
X2451305Y34233997D01*
X2459752Y34230956D01*
X2468680Y34230018D01*
X2468683Y34230017D01*
X2493911Y34227366D01*
X2521178Y34224500D01*
X3042751Y34224500D01*
X3093839Y34231498D01*
X3137167Y34237433D01*
X3137170Y34237434D01*
X3147231Y34238812D01*
X3277826Y34295325D01*
X3388412Y34384876D01*
X3470842Y34500867D01*
X3479880Y34525972D01*
X3523896Y34589304D01*
X3593684Y34622145D01*
X3620071Y34624500D01*
X17459279Y34624500D01*
X17533779Y34604538D01*
X17564638Y34580859D01*
X17565901Y34579596D01*
X17571847Y34571847D01*
X17579596Y34565901D01*
X17687114Y34483400D01*
X17697250Y34475622D01*
X17706273Y34471884D01*
X17706274Y34471884D01*
X17763619Y34448131D01*
X17843285Y34415132D01*
X17852967Y34413857D01*
X17852968Y34413857D01*
X17990315Y34395775D01*
X18000000Y34394500D01*
X18009685Y34395775D01*
X18147032Y34413857D01*
X18147033Y34413857D01*
X18156715Y34415132D01*
X18236381Y34448131D01*
X18293726Y34471884D01*
X18293727Y34471884D01*
X18302750Y34475622D01*
X18312887Y34483400D01*
X18420404Y34565901D01*
X18428153Y34571847D01*
X18524378Y34697250D01*
X18534323Y34721258D01*
X18581131Y34834263D01*
X18584868Y34843285D01*
X18587832Y34865794D01*
X18604225Y34990315D01*
X18605500Y35000000D01*
X18584868Y35156715D01*
X18534450Y35278435D01*
X18528116Y35293726D01*
X18528116Y35293727D01*
X18524378Y35302750D01*
X18428153Y35428153D01*
X18302750Y35524378D01*
X18275376Y35535717D01*
X18165737Y35581131D01*
X18156715Y35584868D01*
X18147033Y35586143D01*
X18147032Y35586143D01*
X18009685Y35604225D01*
X18000000Y35605500D01*
X17990315Y35604225D01*
X17852968Y35586143D01*
X17852967Y35586143D01*
X17843285Y35584868D01*
X17834263Y35581131D01*
X17724625Y35535717D01*
X17697250Y35524378D01*
X17571847Y35428153D01*
X17565901Y35420404D01*
X17564638Y35419141D01*
X17497843Y35380577D01*
X17459279Y35375500D01*
X3618467Y35375500D01*
X3543967Y35395462D01*
X3489429Y35450000D01*
X3481721Y35465326D01*
X3458708Y35518506D01*
X3454675Y35527826D01*
X3365124Y35638412D01*
X3249133Y35720842D01*
X3171047Y35748955D01*
X3123699Y35766002D01*
X3123695Y35766003D01*
X3115248Y35769044D01*
X3106320Y35769982D01*
X3106317Y35769983D01*
X3081089Y35772634D01*
X3053822Y35775500D01*
X2532249Y35775500D01*
X2485119Y35769044D01*
X2437833Y35762567D01*
X2437830Y35762566D01*
X2427769Y35761188D01*
X2418450Y35757155D01*
X2418449Y35757155D01*
X2399500Y35748955D01*
X2297174Y35704675D01*
X2186588Y35615124D01*
X2165086Y35584868D01*
X2122870Y35525464D01*
X2063442Y35476301D01*
X1987394Y35463438D01*
X1915103Y35490323D01*
X1880005Y35528093D01*
X1879675Y35527826D01*
X1855854Y35557243D01*
X1796516Y35630519D01*
X1796515Y35630520D01*
X1790124Y35638412D01*
X1674133Y35720842D01*
X1664574Y35724283D01*
X1655575Y35728988D01*
X1657369Y35732420D01*
X1610534Y35765087D01*
X1577811Y35834930D01*
X1575500Y35861071D01*
X1575500Y35874978D01*
X1595462Y35949478D01*
X1633168Y35990055D01*
X1632598Y35990671D01*
X1640701Y35998161D01*
X1640703Y35998163D01*
X1728780Y36079581D01*
X1794567Y36192841D01*
X1799804Y36215432D01*
X1818582Y36296452D01*
X1820500Y36304726D01*
X1820500Y36658258D01*
X1806027Y36754525D01*
X1749329Y36872598D01*
X1660419Y36968780D01*
X1547159Y37034567D01*
X1536309Y37037082D01*
X1536306Y37037083D01*
X1474374Y37051437D01*
X1435274Y37060500D01*
X981742Y37060500D01*
X976250Y37059674D01*
X976246Y37059674D01*
X896487Y37047683D01*
X896484Y37047682D01*
X885475Y37046027D01*
X861610Y37034567D01*
X777439Y36994149D01*
X777438Y36994148D01*
X767402Y36989329D01*
X671220Y36900419D01*
X605433Y36787159D01*
X602918Y36776306D01*
X602917Y36776305D01*
X594152Y36738489D01*
X557884Y36670420D01*
X492440Y36629605D01*
X415357Y36626980D01*
X347288Y36663248D01*
X306473Y36728692D01*
X300000Y36772132D01*
X300000Y41814018D01*
X319962Y41888518D01*
X343641Y41919377D01*
X2080623Y43656359D01*
X2147418Y43694923D01*
X2185982Y43700000D01*
X2610090Y43700000D01*
X2684590Y43680038D01*
G37*
G04 #@! TD.AperFunction*
G04 #@! TA.AperFunction,Conductor*
G36*
X32732979Y21571418D02*
G01*
X32754619Y21548008D01*
X32790202Y21509514D01*
X32799831Y21503921D01*
X32808526Y21496955D01*
X32806151Y21493991D01*
X32845801Y21454126D01*
X32865561Y21379572D01*
X32845397Y21305127D01*
X32817709Y21270568D01*
X32719514Y21179798D01*
X32700000Y21146202D01*
X32700000Y21607094D01*
X32732979Y21571418D01*
G37*
G04 #@! TD.AperFunction*
G04 #@! TA.AperFunction,Conductor*
G36*
X29700000Y21256214D02*
G01*
X29691474Y21263045D01*
X29693849Y21266009D01*
X29654199Y21305874D01*
X29634439Y21380428D01*
X29654603Y21454873D01*
X29682291Y21489432D01*
X29700000Y21505802D01*
X29700000Y21256214D01*
G37*
G04 #@! TD.AperFunction*
G04 #@! TA.AperFunction,Conductor*
G36*
X40641705Y24811120D02*
G01*
X40688658Y24749931D01*
X40700000Y24692910D01*
X40700000Y24124000D01*
X40700426Y24120039D01*
X40700426Y24120036D01*
X40701600Y24109116D01*
X40705530Y24072565D01*
X40693646Y23996360D01*
X40662743Y23951280D01*
X39773403Y23061940D01*
X39762808Y23053383D01*
X39754267Y23045612D01*
X39743919Y23038930D01*
X39736295Y23029258D01*
X39736293Y23029257D01*
X39725248Y23015246D01*
X39721422Y23010940D01*
X39721565Y23010819D01*
X39717589Y23006126D01*
X39713241Y23001778D01*
X39701807Y22985777D01*
X39697605Y22980181D01*
X39679874Y22957689D01*
X39666565Y22940807D01*
X39663564Y22932261D01*
X39658301Y22924896D01*
X39652577Y22905757D01*
X39643944Y22876891D01*
X39641775Y22870216D01*
X39625166Y22822919D01*
X39624583Y22816187D01*
X39589968Y22748688D01*
X39525173Y22706851D01*
X39448140Y22703015D01*
X39379510Y22738210D01*
X39337673Y22803005D01*
X39330500Y22848678D01*
X39330500Y22905757D01*
X39315474Y23005700D01*
X39257168Y23127124D01*
X39165735Y23226035D01*
X39156107Y23231627D01*
X39156105Y23231629D01*
X39107498Y23259862D01*
X39049260Y23293689D01*
X38933591Y23320500D01*
X38554243Y23320500D01*
X38454300Y23305474D01*
X38332876Y23247168D01*
X38233965Y23155735D01*
X38228373Y23146107D01*
X38228371Y23146105D01*
X38217346Y23127124D01*
X38166311Y23039260D01*
X38139500Y22923591D01*
X38139500Y22494243D01*
X38140326Y22488749D01*
X38154526Y22394300D01*
X38152966Y22394065D01*
X38155336Y22329404D01*
X38119244Y22261242D01*
X38053906Y22220257D01*
X37980309Y22217655D01*
X37980305Y22217617D01*
X37980050Y22217646D01*
X37976453Y22217519D01*
X37971866Y22218582D01*
X37971865Y22218582D01*
X37963591Y22220500D01*
X37584243Y22220500D01*
X37484300Y22205474D01*
X37411387Y22170462D01*
X37400393Y22165183D01*
X37335896Y22150500D01*
X37289743Y22150500D01*
X37215243Y22170462D01*
X37184384Y22194141D01*
X36832267Y22546257D01*
X36827947Y22550762D01*
X36802147Y22578819D01*
X36789089Y22593020D01*
X36753035Y22615374D01*
X36741485Y22623312D01*
X36707697Y22648959D01*
X36695639Y22653733D01*
X36671972Y22665637D01*
X36669579Y22667121D01*
X36669572Y22667124D01*
X36660942Y22672475D01*
X36622637Y22683604D01*
X36620211Y22684309D01*
X36606933Y22688855D01*
X36588878Y22696003D01*
X36567505Y22704465D01*
X36554604Y22705821D01*
X36528609Y22710921D01*
X36516149Y22714541D01*
X36503089Y22715500D01*
X36470326Y22715500D01*
X36454751Y22716316D01*
X36417551Y22720226D01*
X36407535Y22718532D01*
X36406427Y22718497D01*
X36347801Y22728728D01*
X36339260Y22733689D01*
X36223591Y22760500D01*
X35794243Y22760500D01*
X35694300Y22745474D01*
X35684258Y22740652D01*
X35662456Y22730183D01*
X35597959Y22715500D01*
X35276312Y22715500D01*
X35270072Y22715631D01*
X35268068Y22715715D01*
X35212723Y22718035D01*
X35171422Y22708348D01*
X35157650Y22705795D01*
X35115615Y22700037D01*
X35106294Y22696003D01*
X35106293Y22696003D01*
X35103712Y22694886D01*
X35078560Y22686568D01*
X35075816Y22685924D01*
X35075813Y22685923D01*
X35065926Y22683604D01*
X35057031Y22678714D01*
X35057026Y22678712D01*
X35028758Y22663171D01*
X35016151Y22656995D01*
X34986559Y22644190D01*
X34986556Y22644188D01*
X34977236Y22640155D01*
X34967151Y22631988D01*
X34945163Y22617213D01*
X34933797Y22610965D01*
X34923884Y22602408D01*
X34923521Y22602829D01*
X34921472Y22601405D01*
X34921006Y22602076D01*
X34859049Y22569264D01*
X34825771Y22565500D01*
X34797433Y22565500D01*
X34738660Y22581331D01*
X34737665Y22578819D01*
X34727316Y22582917D01*
X34717681Y22588513D01*
X34601252Y22615500D01*
X33041742Y22615500D01*
X33036250Y22614674D01*
X33036246Y22614674D01*
X32952077Y22602020D01*
X32952074Y22602019D01*
X32941065Y22600364D01*
X32908312Y22584636D01*
X32829008Y22546555D01*
X32829007Y22546554D01*
X32818971Y22541735D01*
X32810794Y22534176D01*
X32748302Y22476409D01*
X32719514Y22449798D01*
X32700000Y22416202D01*
X32700000Y24147094D01*
X32733958Y24110359D01*
X32762003Y24080020D01*
X32790202Y24049514D01*
X32907319Y23981487D01*
X33023748Y23954500D01*
X33047381Y23954500D01*
X33121025Y23934767D01*
X33124164Y23931808D01*
X33146545Y23920428D01*
X33216298Y23884960D01*
X33216303Y23884958D01*
X33222439Y23881838D01*
X33229046Y23879898D01*
X33229051Y23879896D01*
X33284366Y23863654D01*
X33289478Y23862153D01*
X33314794Y23858513D01*
X33368732Y23850757D01*
X33368738Y23850757D01*
X33374000Y23850000D01*
X34673364Y23850000D01*
X34678302Y23850666D01*
X34678308Y23850666D01*
X34747857Y23860041D01*
X34752798Y23860707D01*
X34763531Y23863654D01*
X34812815Y23877186D01*
X34812825Y23877189D01*
X34816120Y23878094D01*
X34867704Y23897509D01*
X34956348Y23963062D01*
X35003935Y24014221D01*
X35052601Y24084382D01*
X35144228Y24267635D01*
X35195401Y24325342D01*
X35268571Y24349732D01*
X35277498Y24350000D01*
X36126000Y24350000D01*
X36129958Y24350426D01*
X36129967Y24350426D01*
X36157886Y24353428D01*
X36189772Y24356856D01*
X36219772Y24363382D01*
X36238916Y24367547D01*
X36238918Y24367548D01*
X36241283Y24368062D01*
X36278801Y24378823D01*
X36346072Y24418165D01*
X36356793Y24423862D01*
X36368206Y24429342D01*
X36417124Y24452832D01*
X36421086Y24456495D01*
X36490809Y24480774D01*
X36566571Y24466321D01*
X36576557Y24461016D01*
X36661106Y24411906D01*
X36661111Y24411904D01*
X36670740Y24406311D01*
X36786409Y24379500D01*
X37165757Y24379500D01*
X37265700Y24394526D01*
X37349607Y24434817D01*
X37414104Y24449500D01*
X37836251Y24449500D01*
X37911088Y24429342D01*
X37941106Y24411906D01*
X37941111Y24411904D01*
X37950740Y24406311D01*
X38066409Y24379500D01*
X38445757Y24379500D01*
X38545700Y24394526D01*
X38667124Y24452832D01*
X38671086Y24456495D01*
X38740809Y24480774D01*
X38816571Y24466321D01*
X38826557Y24461016D01*
X38911106Y24411906D01*
X38911111Y24411904D01*
X38920740Y24406311D01*
X39036409Y24379500D01*
X39415757Y24379500D01*
X39515700Y24394526D01*
X39637124Y24452832D01*
X39721608Y24530929D01*
X39727860Y24536708D01*
X39736035Y24544265D01*
X39741628Y24553895D01*
X39748591Y24562586D01*
X39750884Y24560749D01*
X39793065Y24602711D01*
X39872698Y24621941D01*
X39882076Y24619922D01*
X39894310Y24621370D01*
X39912027Y24623467D01*
X39917781Y24623806D01*
X39917765Y24623994D01*
X39923885Y24624500D01*
X39930039Y24624500D01*
X39949458Y24627732D01*
X39956370Y24628715D01*
X39968624Y24630166D01*
X39993926Y24633160D01*
X39993928Y24633161D01*
X40006157Y24634608D01*
X40014322Y24638529D01*
X40023251Y24640015D01*
X40067361Y24663815D01*
X40073604Y24666996D01*
X40118789Y24688694D01*
X40124698Y24693661D01*
X40126973Y24695936D01*
X40127090Y24696043D01*
X40133211Y24699346D01*
X40165794Y24734594D01*
X40169849Y24738812D01*
X40183171Y24752134D01*
X40249966Y24790698D01*
X40288530Y24795775D01*
X40290316Y24795775D01*
X40300000Y24794500D01*
X40309685Y24795775D01*
X40447032Y24813857D01*
X40447033Y24813857D01*
X40456715Y24815132D01*
X40493981Y24830568D01*
X40570447Y24840635D01*
X40641705Y24811120D01*
G37*
G04 #@! TD.AperFunction*
G04 #@! TA.AperFunction,Conductor*
G36*
X29700000Y22526214D02*
G01*
X29691474Y22533045D01*
X29693849Y22536009D01*
X29654199Y22575874D01*
X29634439Y22650428D01*
X29654603Y22724873D01*
X29682291Y22759432D01*
X29700000Y22775802D01*
X29700000Y22526214D01*
G37*
G04 #@! TD.AperFunction*
G04 #@! TA.AperFunction,Conductor*
G36*
X29700000Y23796214D02*
G01*
X29691474Y23803045D01*
X29693849Y23806009D01*
X29654199Y23845874D01*
X29634439Y23920428D01*
X29654603Y23994873D01*
X29682291Y24029432D01*
X29700000Y24045802D01*
X29700000Y23796214D01*
G37*
G04 #@! TD.AperFunction*
G04 #@! TA.AperFunction,Conductor*
G36*
X32700000Y26800000D02*
G01*
X23100000Y26800000D01*
X23100000Y29400000D01*
X32700000Y29400000D01*
X32700000Y26800000D01*
G37*
G04 #@! TD.AperFunction*
G04 #@! TA.AperFunction,Conductor*
G36*
X32700000Y24956202D02*
G01*
X32651487Y24872681D01*
X32624500Y24756252D01*
X32624500Y24371742D01*
X32639636Y24271065D01*
X32698265Y24148971D01*
X32700000Y24147094D01*
X32700000Y22416202D01*
X32651487Y22332681D01*
X32624500Y22216252D01*
X32624500Y21831742D01*
X32639636Y21731065D01*
X32698265Y21608971D01*
X32700000Y21607094D01*
X32700000Y21146202D01*
X32651487Y21062681D01*
X32624500Y20946252D01*
X32624500Y20561742D01*
X32639636Y20461065D01*
X32698265Y20338971D01*
X32700000Y20337094D01*
X32700000Y15400000D01*
X29700000Y15400000D01*
X29700000Y20235802D01*
X29772308Y20302642D01*
X29772309Y20302643D01*
X29780486Y20310202D01*
X29848513Y20427319D01*
X29875500Y20543748D01*
X29875500Y20928258D01*
X29860364Y21028935D01*
X29801735Y21151029D01*
X29709798Y21250486D01*
X29700167Y21256080D01*
X29700000Y21256214D01*
X29700000Y21505802D01*
X29780486Y21580202D01*
X29848513Y21697319D01*
X29875500Y21813748D01*
X29875500Y22198258D01*
X29860364Y22298935D01*
X29801735Y22421029D01*
X29709798Y22520486D01*
X29700167Y22526080D01*
X29700000Y22526214D01*
X29700000Y22775802D01*
X29780486Y22850202D01*
X29848513Y22967319D01*
X29875500Y23083748D01*
X29875500Y23468258D01*
X29860364Y23568935D01*
X29801735Y23691029D01*
X29709798Y23790486D01*
X29700167Y23796080D01*
X29700000Y23796214D01*
X29700000Y24045802D01*
X29780486Y24120202D01*
X29848513Y24237319D01*
X29875500Y24353748D01*
X29875500Y24738258D01*
X29860364Y24838935D01*
X29801735Y24961029D01*
X29709798Y25060486D01*
X29700000Y25066177D01*
X29700000Y29400000D01*
X32700000Y29400000D01*
X32700000Y24956202D01*
G37*
G04 #@! TD.AperFunction*
G04 #@! TA.AperFunction,Conductor*
G36*
X30800000Y14800000D02*
G01*
X4000000Y14800000D01*
X4000000Y18400000D01*
X30800000Y18400000D01*
X30800000Y14800000D01*
G37*
G04 #@! TD.AperFunction*
M02*
