G04 #@! TF.GenerationSoftware,KiCad,Pcbnew,(6.0.7)*
G04 #@! TF.CreationDate,2022-10-06T12:21:05+01:00*
G04 #@! TF.ProjectId,NB3_power,4e42335f-706f-4776-9572-2e6b69636164,0.0.3*
G04 #@! TF.SameCoordinates,PX7bfa480PY7c37510*
G04 #@! TF.FileFunction,Legend,Top*
G04 #@! TF.FilePolarity,Positive*
%FSLAX46Y46*%
G04 Gerber Fmt 4.6, Leading zero omitted, Abs format (unit mm)*
G04 Created by KiCad (PCBNEW (6.0.7)) date 2022-10-06 12:21:05*
%MOMM*%
%LPD*%
G01*
G04 APERTURE LIST*
%ADD10C,0.120000*%
%ADD11C,0.300000*%
%ADD12C,0.150000*%
%ADD13C,0.127000*%
%ADD14C,0.400000*%
%ADD15C,0.152400*%
%ADD16C,2.000000*%
G04 APERTURE END LIST*
D10*
X17500000Y4750000D02*
X33500000Y4750000D01*
D11*
X16619047Y40845239D02*
X16619047Y42845239D01*
X17761904Y40845239D01*
X17761904Y42845239D01*
X19380952Y41892858D02*
X19666666Y41797620D01*
X19761904Y41702381D01*
X19857142Y41511905D01*
X19857142Y41226191D01*
X19761904Y41035715D01*
X19666666Y40940477D01*
X19476190Y40845239D01*
X18714285Y40845239D01*
X18714285Y42845239D01*
X19380952Y42845239D01*
X19571428Y42750000D01*
X19666666Y42654762D01*
X19761904Y42464286D01*
X19761904Y42273810D01*
X19666666Y42083334D01*
X19571428Y41988096D01*
X19380952Y41892858D01*
X18714285Y41892858D01*
X20523809Y42845239D02*
X21761904Y42845239D01*
X21095238Y42083334D01*
X21380952Y42083334D01*
X21571428Y41988096D01*
X21666666Y41892858D01*
X21761904Y41702381D01*
X21761904Y41226191D01*
X21666666Y41035715D01*
X21571428Y40940477D01*
X21380952Y40845239D01*
X20809523Y40845239D01*
X20619047Y40940477D01*
X20523809Y41035715D01*
X24142857Y40845239D02*
X24142857Y42845239D01*
X24904761Y42845239D01*
X25095238Y42750000D01*
X25190476Y42654762D01*
X25285714Y42464286D01*
X25285714Y42178572D01*
X25190476Y41988096D01*
X25095238Y41892858D01*
X24904761Y41797620D01*
X24142857Y41797620D01*
X26523809Y42845239D02*
X26904761Y42845239D01*
X27095238Y42750000D01*
X27285714Y42559524D01*
X27380952Y42178572D01*
X27380952Y41511905D01*
X27285714Y41130953D01*
X27095238Y40940477D01*
X26904761Y40845239D01*
X26523809Y40845239D01*
X26333333Y40940477D01*
X26142857Y41130953D01*
X26047619Y41511905D01*
X26047619Y42178572D01*
X26142857Y42559524D01*
X26333333Y42750000D01*
X26523809Y42845239D01*
X28047619Y42845239D02*
X28523809Y40845239D01*
X28904761Y42273810D01*
X29285714Y40845239D01*
X29761904Y42845239D01*
X30523809Y41892858D02*
X31190476Y41892858D01*
X31476190Y40845239D02*
X30523809Y40845239D01*
X30523809Y42845239D01*
X31476190Y42845239D01*
X33476190Y40845239D02*
X32809523Y41797620D01*
X32333333Y40845239D02*
X32333333Y42845239D01*
X33095238Y42845239D01*
X33285714Y42750000D01*
X33380952Y42654762D01*
X33476190Y42464286D01*
X33476190Y42178572D01*
X33380952Y41988096D01*
X33285714Y41892858D01*
X33095238Y41797620D01*
X32333333Y41797620D01*
D12*
X8004761Y6688096D02*
X8157142Y6688096D01*
X8233333Y6650000D01*
X8309523Y6573810D01*
X8347619Y6421429D01*
X8347619Y6154762D01*
X8309523Y6002381D01*
X8233333Y5926191D01*
X8157142Y5888096D01*
X8004761Y5888096D01*
X7928571Y5926191D01*
X7852380Y6002381D01*
X7814285Y6154762D01*
X7814285Y6421429D01*
X7852380Y6573810D01*
X7928571Y6650000D01*
X8004761Y6688096D01*
X8690476Y5888096D02*
X8690476Y6688096D01*
X9147619Y5888096D01*
X9147619Y6688096D01*
X47238095Y13750000D02*
X47142857Y13797620D01*
X47000000Y13797620D01*
X46857142Y13750000D01*
X46761904Y13654762D01*
X46714285Y13559524D01*
X46666666Y13369048D01*
X46666666Y13226191D01*
X46714285Y13035715D01*
X46761904Y12940477D01*
X46857142Y12845239D01*
X47000000Y12797620D01*
X47095238Y12797620D01*
X47238095Y12845239D01*
X47285714Y12892858D01*
X47285714Y13226191D01*
X47095238Y13226191D01*
X47714285Y12797620D02*
X47714285Y13797620D01*
X48285714Y12797620D01*
X48285714Y13797620D01*
X48761904Y12797620D02*
X48761904Y13797620D01*
X49000000Y13797620D01*
X49142857Y13750000D01*
X49238095Y13654762D01*
X49285714Y13559524D01*
X49333333Y13369048D01*
X49333333Y13226191D01*
X49285714Y13035715D01*
X49238095Y12940477D01*
X49142857Y12845239D01*
X49000000Y12797620D01*
X48761904Y12797620D01*
X18380952Y2797620D02*
X18380952Y3797620D01*
X18857142Y3464286D02*
X18857142Y2797620D01*
X18857142Y3369048D02*
X18904761Y3416667D01*
X19000000Y3464286D01*
X19142857Y3464286D01*
X19238095Y3416667D01*
X19285714Y3321429D01*
X19285714Y2797620D01*
X19761904Y3464286D02*
X19761904Y2464286D01*
X19761904Y3416667D02*
X19857142Y3464286D01*
X20047619Y3464286D01*
X20142857Y3416667D01*
X20190476Y3369048D01*
X20238095Y3273810D01*
X20238095Y2988096D01*
X20190476Y2892858D01*
X20142857Y2845239D01*
X20047619Y2797620D01*
X19857142Y2797620D01*
X19761904Y2845239D01*
X21095238Y3464286D02*
X21095238Y2797620D01*
X20666666Y3464286D02*
X20666666Y2940477D01*
X20714285Y2845239D01*
X20809523Y2797620D01*
X20952380Y2797620D01*
X21047619Y2845239D01*
X21095238Y2892858D01*
X21428571Y3464286D02*
X21809523Y3464286D01*
X21571428Y3797620D02*
X21571428Y2940477D01*
X21619047Y2845239D01*
X21714285Y2797620D01*
X21809523Y2797620D01*
X22142857Y2892858D02*
X22190476Y2845239D01*
X22142857Y2797620D01*
X22095238Y2845239D01*
X22142857Y2892858D01*
X22142857Y2797620D01*
X22142857Y3416667D02*
X22190476Y3369048D01*
X22142857Y3321429D01*
X22095238Y3369048D01*
X22142857Y3416667D01*
X22142857Y3321429D01*
X24142857Y3178572D02*
X24904761Y3178572D01*
X24523809Y2797620D02*
X24523809Y3559524D01*
X25809523Y3797620D02*
X25619047Y3797620D01*
X25523809Y3750000D01*
X25476190Y3702381D01*
X25380952Y3559524D01*
X25333333Y3369048D01*
X25333333Y2988096D01*
X25380952Y2892858D01*
X25428571Y2845239D01*
X25523809Y2797620D01*
X25714285Y2797620D01*
X25809523Y2845239D01*
X25857142Y2892858D01*
X25904761Y2988096D01*
X25904761Y3226191D01*
X25857142Y3321429D01*
X25809523Y3369048D01*
X25714285Y3416667D01*
X25523809Y3416667D01*
X25428571Y3369048D01*
X25380952Y3321429D01*
X25333333Y3226191D01*
X26952380Y3464286D02*
X27333333Y3464286D01*
X27095238Y3797620D02*
X27095238Y2940477D01*
X27142857Y2845239D01*
X27238095Y2797620D01*
X27333333Y2797620D01*
X27809523Y2797620D02*
X27714285Y2845239D01*
X27666666Y2892858D01*
X27619047Y2988096D01*
X27619047Y3273810D01*
X27666666Y3369048D01*
X27714285Y3416667D01*
X27809523Y3464286D01*
X27952380Y3464286D01*
X28047619Y3416667D01*
X28095238Y3369048D01*
X28142857Y3273810D01*
X28142857Y2988096D01*
X28095238Y2892858D01*
X28047619Y2845239D01*
X27952380Y2797620D01*
X27809523Y2797620D01*
X29333333Y3178572D02*
X30095238Y3178572D01*
X29714285Y2797620D02*
X29714285Y3559524D01*
X30476190Y3797620D02*
X31095238Y3797620D01*
X30761904Y3416667D01*
X30904761Y3416667D01*
X31000000Y3369048D01*
X31047619Y3321429D01*
X31095238Y3226191D01*
X31095238Y2988096D01*
X31047619Y2892858D01*
X31000000Y2845239D01*
X30904761Y2797620D01*
X30619047Y2797620D01*
X30523809Y2845239D01*
X30476190Y2892858D01*
X31952380Y3797620D02*
X31761904Y3797620D01*
X31666666Y3750000D01*
X31619047Y3702381D01*
X31523809Y3559524D01*
X31476190Y3369048D01*
X31476190Y2988096D01*
X31523809Y2892858D01*
X31571428Y2845239D01*
X31666666Y2797620D01*
X31857142Y2797620D01*
X31952380Y2845239D01*
X32000000Y2892858D01*
X32047619Y2988096D01*
X32047619Y3226191D01*
X32000000Y3321429D01*
X31952380Y3369048D01*
X31857142Y3416667D01*
X31666666Y3416667D01*
X31571428Y3369048D01*
X31523809Y3321429D01*
X31476190Y3226191D01*
X33095238Y3797620D02*
X33428571Y2797620D01*
X33761904Y3797620D01*
X34238095Y2797620D02*
X34142857Y2845239D01*
X34095238Y2892858D01*
X34047619Y2988096D01*
X34047619Y3273810D01*
X34095238Y3369048D01*
X34142857Y3416667D01*
X34238095Y3464286D01*
X34380952Y3464286D01*
X34476190Y3416667D01*
X34523809Y3369048D01*
X34571428Y3273810D01*
X34571428Y2988096D01*
X34523809Y2892858D01*
X34476190Y2845239D01*
X34380952Y2797620D01*
X34238095Y2797620D01*
X35142857Y2797620D02*
X35047619Y2845239D01*
X35000000Y2940477D01*
X35000000Y3797620D01*
X35380952Y3464286D02*
X35761904Y3464286D01*
X35523809Y3797620D02*
X35523809Y2940477D01*
X35571428Y2845239D01*
X35666666Y2797620D01*
X35761904Y2797620D01*
X46714285Y30678572D02*
X47476190Y30678572D01*
X47095238Y30297620D02*
X47095238Y31059524D01*
X48428571Y31297620D02*
X47952380Y31297620D01*
X47904761Y30821429D01*
X47952380Y30869048D01*
X48047619Y30916667D01*
X48285714Y30916667D01*
X48380952Y30869048D01*
X48428571Y30821429D01*
X48476190Y30726191D01*
X48476190Y30488096D01*
X48428571Y30392858D01*
X48380952Y30345239D01*
X48285714Y30297620D01*
X48047619Y30297620D01*
X47952380Y30345239D01*
X47904761Y30392858D01*
X48761904Y31297620D02*
X49095238Y30297620D01*
X49428571Y31297620D01*
X46714285Y29178572D02*
X47476190Y29178572D01*
X47095238Y28797620D02*
X47095238Y29559524D01*
X48428571Y29797620D02*
X47952380Y29797620D01*
X47904761Y29321429D01*
X47952380Y29369048D01*
X48047619Y29416667D01*
X48285714Y29416667D01*
X48380952Y29369048D01*
X48428571Y29321429D01*
X48476190Y29226191D01*
X48476190Y28988096D01*
X48428571Y28892858D01*
X48380952Y28845239D01*
X48285714Y28797620D01*
X48047619Y28797620D01*
X47952380Y28845239D01*
X47904761Y28892858D01*
X48761904Y29797620D02*
X49095238Y28797620D01*
X49428571Y29797620D01*
X4014285Y34688096D02*
X4166666Y34688096D01*
X4242857Y34650000D01*
X4319047Y34573810D01*
X4357142Y34421429D01*
X4357142Y34154762D01*
X4319047Y34002381D01*
X4242857Y33926191D01*
X4166666Y33888096D01*
X4014285Y33888096D01*
X3938095Y33926191D01*
X3861904Y34002381D01*
X3823809Y34154762D01*
X3823809Y34421429D01*
X3861904Y34573810D01*
X3938095Y34650000D01*
X4014285Y34688096D01*
X4700000Y34688096D02*
X4700000Y34040477D01*
X4738095Y33964286D01*
X4776190Y33926191D01*
X4852380Y33888096D01*
X5004761Y33888096D01*
X5080952Y33926191D01*
X5119047Y33964286D01*
X5157142Y34040477D01*
X5157142Y34688096D01*
X5423809Y34688096D02*
X5880952Y34688096D01*
X5652380Y33888096D02*
X5652380Y34688096D01*
X6147619Y33888096D02*
X6147619Y34688096D01*
X6452380Y34688096D01*
X6528571Y34650000D01*
X6566666Y34611905D01*
X6604761Y34535715D01*
X6604761Y34421429D01*
X6566666Y34345239D01*
X6528571Y34307143D01*
X6452380Y34269048D01*
X6147619Y34269048D01*
X6947619Y34688096D02*
X6947619Y34040477D01*
X6985714Y33964286D01*
X7023809Y33926191D01*
X7100000Y33888096D01*
X7252380Y33888096D01*
X7328571Y33926191D01*
X7366666Y33964286D01*
X7404761Y34040477D01*
X7404761Y34688096D01*
X7671428Y34688096D02*
X8128571Y34688096D01*
X7900000Y33888096D02*
X7900000Y34688096D01*
X9004761Y33888096D02*
X9004761Y34688096D01*
X9309523Y34688096D01*
X9385714Y34650000D01*
X9423809Y34611905D01*
X9461904Y34535715D01*
X9461904Y34421429D01*
X9423809Y34345239D01*
X9385714Y34307143D01*
X9309523Y34269048D01*
X9004761Y34269048D01*
X9728571Y34688096D02*
X9919047Y33888096D01*
X10071428Y34459524D01*
X10223809Y33888096D01*
X10414285Y34688096D01*
X11176190Y33888096D02*
X10909523Y34269048D01*
X10719047Y33888096D02*
X10719047Y34688096D01*
X11023809Y34688096D01*
X11100000Y34650000D01*
X11138095Y34611905D01*
X11176190Y34535715D01*
X11176190Y34421429D01*
X11138095Y34345239D01*
X11100000Y34307143D01*
X11023809Y34269048D01*
X10719047Y34269048D01*
X3895238Y31888096D02*
X3895238Y32688096D01*
X4276190Y31888096D02*
X4276190Y32688096D01*
X4733333Y31888096D01*
X4733333Y32688096D01*
X5114285Y31888096D02*
X5114285Y32688096D01*
X5419047Y32688096D01*
X5495238Y32650000D01*
X5533333Y32611905D01*
X5571428Y32535715D01*
X5571428Y32421429D01*
X5533333Y32345239D01*
X5495238Y32307143D01*
X5419047Y32269048D01*
X5114285Y32269048D01*
X5914285Y32688096D02*
X5914285Y32040477D01*
X5952380Y31964286D01*
X5990476Y31926191D01*
X6066666Y31888096D01*
X6219047Y31888096D01*
X6295238Y31926191D01*
X6333333Y31964286D01*
X6371428Y32040477D01*
X6371428Y32688096D01*
X6638095Y32688096D02*
X7095238Y32688096D01*
X6866666Y31888096D02*
X6866666Y32688096D01*
X7971428Y31888096D02*
X7971428Y32688096D01*
X8276190Y32688096D01*
X8352380Y32650000D01*
X8390476Y32611905D01*
X8428571Y32535715D01*
X8428571Y32421429D01*
X8390476Y32345239D01*
X8352380Y32307143D01*
X8276190Y32269048D01*
X7971428Y32269048D01*
X8695238Y32688096D02*
X8885714Y31888096D01*
X9038095Y32459524D01*
X9190476Y31888096D01*
X9380952Y32688096D01*
X10142857Y31888096D02*
X9876190Y32269048D01*
X9685714Y31888096D02*
X9685714Y32688096D01*
X9990476Y32688096D01*
X10066666Y32650000D01*
X10104761Y32611905D01*
X10142857Y32535715D01*
X10142857Y32421429D01*
X10104761Y32345239D01*
X10066666Y32307143D01*
X9990476Y32269048D01*
X9685714Y32269048D01*
X18500000Y2297620D02*
X18690476Y2297620D01*
X18785714Y2250000D01*
X18880952Y2154762D01*
X18928571Y1964286D01*
X18928571Y1630953D01*
X18880952Y1440477D01*
X18785714Y1345239D01*
X18690476Y1297620D01*
X18500000Y1297620D01*
X18404761Y1345239D01*
X18309523Y1440477D01*
X18261904Y1630953D01*
X18261904Y1964286D01*
X18309523Y2154762D01*
X18404761Y2250000D01*
X18500000Y2297620D01*
X19785714Y1964286D02*
X19785714Y1297620D01*
X19357142Y1964286D02*
X19357142Y1440477D01*
X19404761Y1345239D01*
X19500000Y1297620D01*
X19642857Y1297620D01*
X19738095Y1345239D01*
X19785714Y1392858D01*
X20119047Y1964286D02*
X20500000Y1964286D01*
X20261904Y2297620D02*
X20261904Y1440477D01*
X20309523Y1345239D01*
X20404761Y1297620D01*
X20500000Y1297620D01*
X20833333Y1964286D02*
X20833333Y964286D01*
X20833333Y1916667D02*
X20928571Y1964286D01*
X21119047Y1964286D01*
X21214285Y1916667D01*
X21261904Y1869048D01*
X21309523Y1773810D01*
X21309523Y1488096D01*
X21261904Y1392858D01*
X21214285Y1345239D01*
X21119047Y1297620D01*
X20928571Y1297620D01*
X20833333Y1345239D01*
X22166666Y1964286D02*
X22166666Y1297620D01*
X21738095Y1964286D02*
X21738095Y1440477D01*
X21785714Y1345239D01*
X21880952Y1297620D01*
X22023809Y1297620D01*
X22119047Y1345239D01*
X22166666Y1392858D01*
X22500000Y1964286D02*
X22880952Y1964286D01*
X22642857Y2297620D02*
X22642857Y1440477D01*
X22690476Y1345239D01*
X22785714Y1297620D01*
X22880952Y1297620D01*
X23214285Y1392858D02*
X23261904Y1345239D01*
X23214285Y1297620D01*
X23166666Y1345239D01*
X23214285Y1392858D01*
X23214285Y1297620D01*
X23214285Y1916667D02*
X23261904Y1869048D01*
X23214285Y1821429D01*
X23166666Y1869048D01*
X23214285Y1916667D01*
X23214285Y1821429D01*
X24452380Y1678572D02*
X25214285Y1678572D01*
X24833333Y1297620D02*
X24833333Y2059524D01*
X26166666Y2297620D02*
X25690476Y2297620D01*
X25642857Y1821429D01*
X25690476Y1869048D01*
X25785714Y1916667D01*
X26023809Y1916667D01*
X26119047Y1869048D01*
X26166666Y1821429D01*
X26214285Y1726191D01*
X26214285Y1488096D01*
X26166666Y1392858D01*
X26119047Y1345239D01*
X26023809Y1297620D01*
X25785714Y1297620D01*
X25690476Y1345239D01*
X25642857Y1392858D01*
X27261904Y2297620D02*
X27595238Y1297620D01*
X27928571Y2297620D01*
X28404761Y1297620D02*
X28309523Y1345239D01*
X28261904Y1392858D01*
X28214285Y1488096D01*
X28214285Y1773810D01*
X28261904Y1869048D01*
X28309523Y1916667D01*
X28404761Y1964286D01*
X28547619Y1964286D01*
X28642857Y1916667D01*
X28690476Y1869048D01*
X28738095Y1773810D01*
X28738095Y1488096D01*
X28690476Y1392858D01*
X28642857Y1345239D01*
X28547619Y1297620D01*
X28404761Y1297620D01*
X29309523Y1297620D02*
X29214285Y1345239D01*
X29166666Y1440477D01*
X29166666Y2297620D01*
X29547619Y1964286D02*
X29928571Y1964286D01*
X29690476Y2297620D02*
X29690476Y1440477D01*
X29738095Y1345239D01*
X29833333Y1297620D01*
X29928571Y1297620D01*
X31309523Y916667D02*
X31261904Y964286D01*
X31166666Y1107143D01*
X31119047Y1202381D01*
X31071428Y1345239D01*
X31023809Y1583334D01*
X31023809Y1773810D01*
X31071428Y2011905D01*
X31119047Y2154762D01*
X31166666Y2250000D01*
X31261904Y2392858D01*
X31309523Y2440477D01*
X32166666Y2297620D02*
X31690476Y2297620D01*
X31642857Y1821429D01*
X31690476Y1869048D01*
X31785714Y1916667D01*
X32023809Y1916667D01*
X32119047Y1869048D01*
X32166666Y1821429D01*
X32214285Y1726191D01*
X32214285Y1488096D01*
X32166666Y1392858D01*
X32119047Y1345239D01*
X32023809Y1297620D01*
X31785714Y1297620D01*
X31690476Y1345239D01*
X31642857Y1392858D01*
X33357142Y1583334D02*
X33833333Y1583334D01*
X33261904Y1297620D02*
X33595238Y2297620D01*
X33928571Y1297620D01*
X34261904Y1297620D02*
X34261904Y1964286D01*
X34261904Y1869048D02*
X34309523Y1916667D01*
X34404761Y1964286D01*
X34547619Y1964286D01*
X34642857Y1916667D01*
X34690476Y1821429D01*
X34690476Y1297620D01*
X34690476Y1821429D02*
X34738095Y1916667D01*
X34833333Y1964286D01*
X34976190Y1964286D01*
X35071428Y1916667D01*
X35119047Y1821429D01*
X35119047Y1297620D01*
X35595238Y1964286D02*
X35595238Y964286D01*
X35595238Y1916667D02*
X35690476Y1964286D01*
X35880952Y1964286D01*
X35976190Y1916667D01*
X36023809Y1869048D01*
X36071428Y1773810D01*
X36071428Y1488096D01*
X36023809Y1392858D01*
X35976190Y1345239D01*
X35880952Y1297620D01*
X35690476Y1297620D01*
X35595238Y1345239D01*
X36404761Y916667D02*
X36452380Y964286D01*
X36547619Y1107143D01*
X36595238Y1202381D01*
X36642857Y1345239D01*
X36690476Y1583334D01*
X36690476Y1773810D01*
X36642857Y2011905D01*
X36595238Y2154762D01*
X36547619Y2250000D01*
X36452380Y2392858D01*
X36404761Y2440477D01*
X738095Y6688096D02*
X890476Y6688096D01*
X966666Y6650000D01*
X1042857Y6573810D01*
X1080952Y6421429D01*
X1080952Y6154762D01*
X1042857Y6002381D01*
X966666Y5926191D01*
X890476Y5888096D01*
X738095Y5888096D01*
X661904Y5926191D01*
X585714Y6002381D01*
X547619Y6154762D01*
X547619Y6421429D01*
X585714Y6573810D01*
X661904Y6650000D01*
X738095Y6688096D01*
X1690476Y6307143D02*
X1423809Y6307143D01*
X1423809Y5888096D02*
X1423809Y6688096D01*
X1804761Y6688096D01*
X2376190Y6307143D02*
X2109523Y6307143D01*
X2109523Y5888096D02*
X2109523Y6688096D01*
X2490476Y6688096D01*
X17666666Y5297620D02*
X17666666Y6297620D01*
X17904761Y6297620D01*
X18047619Y6250000D01*
X18142857Y6154762D01*
X18190476Y6059524D01*
X18238095Y5869048D01*
X18238095Y5726191D01*
X18190476Y5535715D01*
X18142857Y5440477D01*
X18047619Y5345239D01*
X17904761Y5297620D01*
X17666666Y5297620D01*
X19238095Y5392858D02*
X19190476Y5345239D01*
X19047619Y5297620D01*
X18952380Y5297620D01*
X18809523Y5345239D01*
X18714285Y5440477D01*
X18666666Y5535715D01*
X18619047Y5726191D01*
X18619047Y5869048D01*
X18666666Y6059524D01*
X18714285Y6154762D01*
X18809523Y6250000D01*
X18952380Y6297620D01*
X19047619Y6297620D01*
X19190476Y6250000D01*
X19238095Y6202381D01*
X19666666Y5678572D02*
X20428571Y5678572D01*
X20904761Y5297620D02*
X20904761Y6297620D01*
X21142857Y6297620D01*
X21285714Y6250000D01*
X21380952Y6154762D01*
X21428571Y6059524D01*
X21476190Y5869048D01*
X21476190Y5726191D01*
X21428571Y5535715D01*
X21380952Y5440477D01*
X21285714Y5345239D01*
X21142857Y5297620D01*
X20904761Y5297620D01*
X22476190Y5392858D02*
X22428571Y5345239D01*
X22285714Y5297620D01*
X22190476Y5297620D01*
X22047619Y5345239D01*
X21952380Y5440477D01*
X21904761Y5535715D01*
X21857142Y5726191D01*
X21857142Y5869048D01*
X21904761Y6059524D01*
X21952380Y6154762D01*
X22047619Y6250000D01*
X22190476Y6297620D01*
X22285714Y6297620D01*
X22428571Y6250000D01*
X22476190Y6202381D01*
X23666666Y5297620D02*
X23666666Y6297620D01*
X24047619Y6297620D01*
X24142857Y6250000D01*
X24190476Y6202381D01*
X24238095Y6107143D01*
X24238095Y5964286D01*
X24190476Y5869048D01*
X24142857Y5821429D01*
X24047619Y5773810D01*
X23666666Y5773810D01*
X24809523Y5297620D02*
X24714285Y5345239D01*
X24666666Y5392858D01*
X24619047Y5488096D01*
X24619047Y5773810D01*
X24666666Y5869048D01*
X24714285Y5916667D01*
X24809523Y5964286D01*
X24952380Y5964286D01*
X25047619Y5916667D01*
X25095238Y5869048D01*
X25142857Y5773810D01*
X25142857Y5488096D01*
X25095238Y5392858D01*
X25047619Y5345239D01*
X24952380Y5297620D01*
X24809523Y5297620D01*
X25476190Y5964286D02*
X25666666Y5297620D01*
X25857142Y5773810D01*
X26047619Y5297620D01*
X26238095Y5964286D01*
X27000000Y5345239D02*
X26904761Y5297620D01*
X26714285Y5297620D01*
X26619047Y5345239D01*
X26571428Y5440477D01*
X26571428Y5821429D01*
X26619047Y5916667D01*
X26714285Y5964286D01*
X26904761Y5964286D01*
X27000000Y5916667D01*
X27047619Y5821429D01*
X27047619Y5726191D01*
X26571428Y5630953D01*
X27476190Y5297620D02*
X27476190Y5964286D01*
X27476190Y5773810D02*
X27523809Y5869048D01*
X27571428Y5916667D01*
X27666666Y5964286D01*
X27761904Y5964286D01*
X28809523Y5345239D02*
X28952380Y5297620D01*
X29190476Y5297620D01*
X29285714Y5345239D01*
X29333333Y5392858D01*
X29380952Y5488096D01*
X29380952Y5583334D01*
X29333333Y5678572D01*
X29285714Y5726191D01*
X29190476Y5773810D01*
X29000000Y5821429D01*
X28904761Y5869048D01*
X28857142Y5916667D01*
X28809523Y6011905D01*
X28809523Y6107143D01*
X28857142Y6202381D01*
X28904761Y6250000D01*
X29000000Y6297620D01*
X29238095Y6297620D01*
X29380952Y6250000D01*
X30238095Y5964286D02*
X30238095Y5297620D01*
X29809523Y5964286D02*
X29809523Y5440477D01*
X29857142Y5345239D01*
X29952380Y5297620D01*
X30095238Y5297620D01*
X30190476Y5345239D01*
X30238095Y5392858D01*
X30714285Y5964286D02*
X30714285Y4964286D01*
X30714285Y5916667D02*
X30809523Y5964286D01*
X31000000Y5964286D01*
X31095238Y5916667D01*
X31142857Y5869048D01*
X31190476Y5773810D01*
X31190476Y5488096D01*
X31142857Y5392858D01*
X31095238Y5345239D01*
X31000000Y5297620D01*
X30809523Y5297620D01*
X30714285Y5345239D01*
X31619047Y5964286D02*
X31619047Y4964286D01*
X31619047Y5916667D02*
X31714285Y5964286D01*
X31904761Y5964286D01*
X32000000Y5916667D01*
X32047619Y5869048D01*
X32095238Y5773810D01*
X32095238Y5488096D01*
X32047619Y5392858D01*
X32000000Y5345239D01*
X31904761Y5297620D01*
X31714285Y5297620D01*
X31619047Y5345239D01*
X32666666Y5297620D02*
X32571428Y5345239D01*
X32523809Y5440477D01*
X32523809Y6297620D01*
X32952380Y5964286D02*
X33190476Y5297620D01*
X33428571Y5964286D02*
X33190476Y5297620D01*
X33095238Y5059524D01*
X33047619Y5011905D01*
X32952380Y4964286D01*
X47238095Y15250000D02*
X47142857Y15297620D01*
X47000000Y15297620D01*
X46857142Y15250000D01*
X46761904Y15154762D01*
X46714285Y15059524D01*
X46666666Y14869048D01*
X46666666Y14726191D01*
X46714285Y14535715D01*
X46761904Y14440477D01*
X46857142Y14345239D01*
X47000000Y14297620D01*
X47095238Y14297620D01*
X47238095Y14345239D01*
X47285714Y14392858D01*
X47285714Y14726191D01*
X47095238Y14726191D01*
X47714285Y14297620D02*
X47714285Y15297620D01*
X48285714Y14297620D01*
X48285714Y15297620D01*
X48761904Y14297620D02*
X48761904Y15297620D01*
X49000000Y15297620D01*
X49142857Y15250000D01*
X49238095Y15154762D01*
X49285714Y15059524D01*
X49333333Y14869048D01*
X49333333Y14726191D01*
X49285714Y14535715D01*
X49238095Y14440477D01*
X49142857Y14345239D01*
X49000000Y14297620D01*
X48761904Y14297620D01*
X37433333Y27797620D02*
X36957142Y27797620D01*
X36957142Y28797620D01*
X38290476Y27797620D02*
X37719047Y27797620D01*
X38004761Y27797620D02*
X38004761Y28797620D01*
X37909523Y28654762D01*
X37814285Y28559524D01*
X37719047Y28511905D01*
X48047679Y21916666D02*
X48761965Y21916666D01*
X48904822Y21869047D01*
X49000060Y21773809D01*
X49047679Y21630952D01*
X49047679Y21535714D01*
X48142918Y22345238D02*
X48095299Y22392857D01*
X48047679Y22488095D01*
X48047679Y22726190D01*
X48095299Y22821428D01*
X48142918Y22869047D01*
X48238156Y22916666D01*
X48333394Y22916666D01*
X48476251Y22869047D01*
X49047679Y22297619D01*
X49047679Y22916666D01*
D10*
X33210000Y28846078D02*
X33210000Y28328922D01*
X31790000Y28846078D02*
X31790000Y28328922D01*
X1580000Y36096359D02*
X1580000Y36403641D01*
X820000Y36096359D02*
X820000Y36403641D01*
X24290000Y23141422D02*
X24290000Y23658578D01*
X25710000Y23141422D02*
X25710000Y23658578D01*
X515000Y34985000D02*
X515000Y33515000D01*
X2800000Y34985000D02*
X515000Y34985000D01*
X515000Y33515000D02*
X2800000Y33515000D01*
X24240000Y37400000D02*
X24240000Y29340000D01*
X24240000Y29340000D02*
X28760000Y29340000D01*
X28760000Y29340000D02*
X28760000Y37400000D01*
X20710000Y23141422D02*
X20710000Y23658578D01*
X19290000Y23141422D02*
X19290000Y23658578D01*
X29290000Y32328922D02*
X29290000Y32846078D01*
X30710000Y32328922D02*
X30710000Y32846078D01*
X1580000Y30513641D02*
X1580000Y30206359D01*
X820000Y30513641D02*
X820000Y30206359D01*
D13*
X3600000Y26750000D02*
X250000Y26750000D01*
X250000Y26750000D02*
X250000Y17750000D01*
X14750000Y26750000D02*
X10500000Y26750000D01*
X10500000Y17750000D02*
X14750000Y17750000D01*
X250000Y17750000D02*
X3600000Y17750000D01*
X14750000Y23600000D02*
X14750000Y26750000D01*
X14750000Y17750000D02*
X14750000Y19600000D01*
D14*
X17470000Y19060000D02*
G75*
G03*
X17470000Y19060000I-200000J0D01*
G01*
D13*
X750000Y7450000D02*
X750000Y11050000D01*
X3340000Y11050000D02*
X6660000Y11050000D01*
X9250000Y7450000D02*
X5880000Y7450000D01*
X4120000Y7450000D02*
X750000Y7450000D01*
X9250000Y11050000D02*
X9250000Y7450000D01*
D15*
X7641419Y11750000D02*
G75*
G03*
X7641419Y11750000I-141419J0D01*
G01*
D10*
X19290000Y20158578D02*
X19290000Y19641422D01*
X20710000Y20158578D02*
X20710000Y19641422D01*
X21790000Y20158578D02*
X21790000Y19641422D01*
X23210000Y20158578D02*
X23210000Y19641422D01*
X33210000Y32328922D02*
X33210000Y32846078D01*
X31790000Y32328922D02*
X31790000Y32846078D01*
X515000Y32985000D02*
X515000Y31515000D01*
X515000Y31515000D02*
X2800000Y31515000D01*
X2800000Y32985000D02*
X515000Y32985000D01*
X23210000Y23141422D02*
X23210000Y23658578D01*
X21790000Y23141422D02*
X21790000Y23658578D01*
X29290000Y28846078D02*
X29290000Y28328922D01*
X30710000Y28846078D02*
X30710000Y28328922D01*
X25710000Y20158578D02*
X25710000Y19641422D01*
X24290000Y20158578D02*
X24290000Y19641422D01*
X34400000Y25300000D02*
X34400000Y31500000D01*
X34400000Y25300000D02*
X34850000Y25300000D01*
X40600000Y25300000D02*
X40150000Y25300000D01*
X34400000Y31500000D02*
X34850000Y31500000D01*
X40600000Y31500000D02*
X40150000Y31500000D01*
X40600000Y31500000D02*
X40600000Y25300000D01*
X46775260Y28327000D02*
X41622999Y28327000D01*
X41622999Y28327000D02*
X41622999Y26078038D01*
X41622999Y18421960D02*
X41622999Y16172998D01*
X41622999Y20421958D02*
X41622999Y20078040D01*
X41622999Y22421959D02*
X41622999Y22078038D01*
X50487599Y18032839D02*
X50487599Y26467158D01*
X41622999Y16172998D02*
X46775260Y16172998D01*
X41622999Y24421958D02*
X41622999Y24078039D01*
X29539416Y19340000D02*
X29300000Y19340000D01*
X29539416Y24460000D02*
X27800000Y24460000D01*
X32960584Y24460000D02*
X33200000Y24460000D01*
X32960584Y19340000D02*
X33200000Y19340000D01*
D16*
X3250000Y22250000D03*
M02*
