G04 #@! TF.GenerationSoftware,KiCad,Pcbnew,7.0.4*
G04 #@! TF.CreationDate,2023-08-12T12:22:54+02:00*
G04 #@! TF.ProjectId,NB3_power,4e42335f-706f-4776-9572-2e6b69636164,0.0.4*
G04 #@! TF.SameCoordinates,PX7bfa480PY7c37510*
G04 #@! TF.FileFunction,Legend,Top*
G04 #@! TF.FilePolarity,Positive*
%FSLAX46Y46*%
G04 Gerber Fmt 4.6, Leading zero omitted, Abs format (unit mm)*
G04 Created by KiCad (PCBNEW 7.0.4) date 2023-08-12 12:22:54*
%MOMM*%
%LPD*%
G01*
G04 APERTURE LIST*
%ADD10C,0.120000*%
%ADD11C,0.300000*%
%ADD12C,0.150000*%
%ADD13C,0.127000*%
%ADD14C,0.400000*%
%ADD15C,0.152400*%
%ADD16C,2.000000*%
G04 APERTURE END LIST*
D10*
X17500000Y4750000D02*
X33500000Y4750000D01*
D11*
X16619047Y40840362D02*
X16619047Y42840362D01*
X16619047Y42840362D02*
X17761904Y40840362D01*
X17761904Y40840362D02*
X17761904Y42840362D01*
X19380952Y41887981D02*
X19666666Y41792743D01*
X19666666Y41792743D02*
X19761904Y41697505D01*
X19761904Y41697505D02*
X19857142Y41507029D01*
X19857142Y41507029D02*
X19857142Y41221315D01*
X19857142Y41221315D02*
X19761904Y41030839D01*
X19761904Y41030839D02*
X19666666Y40935600D01*
X19666666Y40935600D02*
X19476190Y40840362D01*
X19476190Y40840362D02*
X18714285Y40840362D01*
X18714285Y40840362D02*
X18714285Y42840362D01*
X18714285Y42840362D02*
X19380952Y42840362D01*
X19380952Y42840362D02*
X19571428Y42745124D01*
X19571428Y42745124D02*
X19666666Y42649886D01*
X19666666Y42649886D02*
X19761904Y42459410D01*
X19761904Y42459410D02*
X19761904Y42268934D01*
X19761904Y42268934D02*
X19666666Y42078458D01*
X19666666Y42078458D02*
X19571428Y41983220D01*
X19571428Y41983220D02*
X19380952Y41887981D01*
X19380952Y41887981D02*
X18714285Y41887981D01*
X20523809Y42840362D02*
X21761904Y42840362D01*
X21761904Y42840362D02*
X21095237Y42078458D01*
X21095237Y42078458D02*
X21380952Y42078458D01*
X21380952Y42078458D02*
X21571428Y41983220D01*
X21571428Y41983220D02*
X21666666Y41887981D01*
X21666666Y41887981D02*
X21761904Y41697505D01*
X21761904Y41697505D02*
X21761904Y41221315D01*
X21761904Y41221315D02*
X21666666Y41030839D01*
X21666666Y41030839D02*
X21571428Y40935600D01*
X21571428Y40935600D02*
X21380952Y40840362D01*
X21380952Y40840362D02*
X20809523Y40840362D01*
X20809523Y40840362D02*
X20619047Y40935600D01*
X20619047Y40935600D02*
X20523809Y41030839D01*
X24142857Y40840362D02*
X24142857Y42840362D01*
X24142857Y42840362D02*
X24904762Y42840362D01*
X24904762Y42840362D02*
X25095238Y42745124D01*
X25095238Y42745124D02*
X25190476Y42649886D01*
X25190476Y42649886D02*
X25285714Y42459410D01*
X25285714Y42459410D02*
X25285714Y42173696D01*
X25285714Y42173696D02*
X25190476Y41983220D01*
X25190476Y41983220D02*
X25095238Y41887981D01*
X25095238Y41887981D02*
X24904762Y41792743D01*
X24904762Y41792743D02*
X24142857Y41792743D01*
X26523809Y42840362D02*
X26904762Y42840362D01*
X26904762Y42840362D02*
X27095238Y42745124D01*
X27095238Y42745124D02*
X27285714Y42554648D01*
X27285714Y42554648D02*
X27380952Y42173696D01*
X27380952Y42173696D02*
X27380952Y41507029D01*
X27380952Y41507029D02*
X27285714Y41126077D01*
X27285714Y41126077D02*
X27095238Y40935600D01*
X27095238Y40935600D02*
X26904762Y40840362D01*
X26904762Y40840362D02*
X26523809Y40840362D01*
X26523809Y40840362D02*
X26333333Y40935600D01*
X26333333Y40935600D02*
X26142857Y41126077D01*
X26142857Y41126077D02*
X26047619Y41507029D01*
X26047619Y41507029D02*
X26047619Y42173696D01*
X26047619Y42173696D02*
X26142857Y42554648D01*
X26142857Y42554648D02*
X26333333Y42745124D01*
X26333333Y42745124D02*
X26523809Y42840362D01*
X28047619Y42840362D02*
X28523809Y40840362D01*
X28523809Y40840362D02*
X28904762Y42268934D01*
X28904762Y42268934D02*
X29285714Y40840362D01*
X29285714Y40840362D02*
X29761905Y42840362D01*
X30523809Y41887981D02*
X31190476Y41887981D01*
X31476190Y40840362D02*
X30523809Y40840362D01*
X30523809Y40840362D02*
X30523809Y42840362D01*
X30523809Y42840362D02*
X31476190Y42840362D01*
X33476190Y40840362D02*
X32809523Y41792743D01*
X32333333Y40840362D02*
X32333333Y42840362D01*
X32333333Y42840362D02*
X33095238Y42840362D01*
X33095238Y42840362D02*
X33285714Y42745124D01*
X33285714Y42745124D02*
X33380952Y42649886D01*
X33380952Y42649886D02*
X33476190Y42459410D01*
X33476190Y42459410D02*
X33476190Y42173696D01*
X33476190Y42173696D02*
X33380952Y41983220D01*
X33380952Y41983220D02*
X33285714Y41887981D01*
X33285714Y41887981D02*
X33095238Y41792743D01*
X33095238Y41792743D02*
X32333333Y41792743D01*
D12*
X8004762Y6687705D02*
X8157143Y6687705D01*
X8157143Y6687705D02*
X8233333Y6649610D01*
X8233333Y6649610D02*
X8309524Y6573420D01*
X8309524Y6573420D02*
X8347619Y6421039D01*
X8347619Y6421039D02*
X8347619Y6154372D01*
X8347619Y6154372D02*
X8309524Y6001991D01*
X8309524Y6001991D02*
X8233333Y5925800D01*
X8233333Y5925800D02*
X8157143Y5887705D01*
X8157143Y5887705D02*
X8004762Y5887705D01*
X8004762Y5887705D02*
X7928571Y5925800D01*
X7928571Y5925800D02*
X7852381Y6001991D01*
X7852381Y6001991D02*
X7814285Y6154372D01*
X7814285Y6154372D02*
X7814285Y6421039D01*
X7814285Y6421039D02*
X7852381Y6573420D01*
X7852381Y6573420D02*
X7928571Y6649610D01*
X7928571Y6649610D02*
X8004762Y6687705D01*
X8690476Y5887705D02*
X8690476Y6687705D01*
X8690476Y6687705D02*
X9147619Y5887705D01*
X9147619Y5887705D02*
X9147619Y6687705D01*
X47238095Y13747562D02*
X47142857Y13795181D01*
X47142857Y13795181D02*
X47000000Y13795181D01*
X47000000Y13795181D02*
X46857143Y13747562D01*
X46857143Y13747562D02*
X46761905Y13652324D01*
X46761905Y13652324D02*
X46714286Y13557086D01*
X46714286Y13557086D02*
X46666667Y13366610D01*
X46666667Y13366610D02*
X46666667Y13223753D01*
X46666667Y13223753D02*
X46714286Y13033277D01*
X46714286Y13033277D02*
X46761905Y12938039D01*
X46761905Y12938039D02*
X46857143Y12842800D01*
X46857143Y12842800D02*
X47000000Y12795181D01*
X47000000Y12795181D02*
X47095238Y12795181D01*
X47095238Y12795181D02*
X47238095Y12842800D01*
X47238095Y12842800D02*
X47285714Y12890420D01*
X47285714Y12890420D02*
X47285714Y13223753D01*
X47285714Y13223753D02*
X47095238Y13223753D01*
X47714286Y12795181D02*
X47714286Y13795181D01*
X47714286Y13795181D02*
X48285714Y12795181D01*
X48285714Y12795181D02*
X48285714Y13795181D01*
X48761905Y12795181D02*
X48761905Y13795181D01*
X48761905Y13795181D02*
X49000000Y13795181D01*
X49000000Y13795181D02*
X49142857Y13747562D01*
X49142857Y13747562D02*
X49238095Y13652324D01*
X49238095Y13652324D02*
X49285714Y13557086D01*
X49285714Y13557086D02*
X49333333Y13366610D01*
X49333333Y13366610D02*
X49333333Y13223753D01*
X49333333Y13223753D02*
X49285714Y13033277D01*
X49285714Y13033277D02*
X49238095Y12938039D01*
X49238095Y12938039D02*
X49142857Y12842800D01*
X49142857Y12842800D02*
X49000000Y12795181D01*
X49000000Y12795181D02*
X48761905Y12795181D01*
X18380951Y2795181D02*
X18380951Y3795181D01*
X18857141Y3461848D02*
X18857141Y2795181D01*
X18857141Y3366610D02*
X18904760Y3414229D01*
X18904760Y3414229D02*
X18999998Y3461848D01*
X18999998Y3461848D02*
X19142855Y3461848D01*
X19142855Y3461848D02*
X19238093Y3414229D01*
X19238093Y3414229D02*
X19285712Y3318991D01*
X19285712Y3318991D02*
X19285712Y2795181D01*
X19761903Y3461848D02*
X19761903Y2461848D01*
X19761903Y3414229D02*
X19857141Y3461848D01*
X19857141Y3461848D02*
X20047617Y3461848D01*
X20047617Y3461848D02*
X20142855Y3414229D01*
X20142855Y3414229D02*
X20190474Y3366610D01*
X20190474Y3366610D02*
X20238093Y3271372D01*
X20238093Y3271372D02*
X20238093Y2985658D01*
X20238093Y2985658D02*
X20190474Y2890420D01*
X20190474Y2890420D02*
X20142855Y2842800D01*
X20142855Y2842800D02*
X20047617Y2795181D01*
X20047617Y2795181D02*
X19857141Y2795181D01*
X19857141Y2795181D02*
X19761903Y2842800D01*
X21095236Y3461848D02*
X21095236Y2795181D01*
X20666665Y3461848D02*
X20666665Y2938039D01*
X20666665Y2938039D02*
X20714284Y2842800D01*
X20714284Y2842800D02*
X20809522Y2795181D01*
X20809522Y2795181D02*
X20952379Y2795181D01*
X20952379Y2795181D02*
X21047617Y2842800D01*
X21047617Y2842800D02*
X21095236Y2890420D01*
X21428570Y3461848D02*
X21809522Y3461848D01*
X21571427Y3795181D02*
X21571427Y2938039D01*
X21571427Y2938039D02*
X21619046Y2842800D01*
X21619046Y2842800D02*
X21714284Y2795181D01*
X21714284Y2795181D02*
X21809522Y2795181D01*
X22142856Y2890420D02*
X22190475Y2842800D01*
X22190475Y2842800D02*
X22142856Y2795181D01*
X22142856Y2795181D02*
X22095237Y2842800D01*
X22095237Y2842800D02*
X22142856Y2890420D01*
X22142856Y2890420D02*
X22142856Y2795181D01*
X22142856Y3414229D02*
X22190475Y3366610D01*
X22190475Y3366610D02*
X22142856Y3318991D01*
X22142856Y3318991D02*
X22095237Y3366610D01*
X22095237Y3366610D02*
X22142856Y3414229D01*
X22142856Y3414229D02*
X22142856Y3318991D01*
X24142856Y3176134D02*
X24904761Y3176134D01*
X24523808Y2795181D02*
X24523808Y3557086D01*
X25809522Y3795181D02*
X25619046Y3795181D01*
X25619046Y3795181D02*
X25523808Y3747562D01*
X25523808Y3747562D02*
X25476189Y3699943D01*
X25476189Y3699943D02*
X25380951Y3557086D01*
X25380951Y3557086D02*
X25333332Y3366610D01*
X25333332Y3366610D02*
X25333332Y2985658D01*
X25333332Y2985658D02*
X25380951Y2890420D01*
X25380951Y2890420D02*
X25428570Y2842800D01*
X25428570Y2842800D02*
X25523808Y2795181D01*
X25523808Y2795181D02*
X25714284Y2795181D01*
X25714284Y2795181D02*
X25809522Y2842800D01*
X25809522Y2842800D02*
X25857141Y2890420D01*
X25857141Y2890420D02*
X25904760Y2985658D01*
X25904760Y2985658D02*
X25904760Y3223753D01*
X25904760Y3223753D02*
X25857141Y3318991D01*
X25857141Y3318991D02*
X25809522Y3366610D01*
X25809522Y3366610D02*
X25714284Y3414229D01*
X25714284Y3414229D02*
X25523808Y3414229D01*
X25523808Y3414229D02*
X25428570Y3366610D01*
X25428570Y3366610D02*
X25380951Y3318991D01*
X25380951Y3318991D02*
X25333332Y3223753D01*
X26952380Y3461848D02*
X27333332Y3461848D01*
X27095237Y3795181D02*
X27095237Y2938039D01*
X27095237Y2938039D02*
X27142856Y2842800D01*
X27142856Y2842800D02*
X27238094Y2795181D01*
X27238094Y2795181D02*
X27333332Y2795181D01*
X27809523Y2795181D02*
X27714285Y2842800D01*
X27714285Y2842800D02*
X27666666Y2890420D01*
X27666666Y2890420D02*
X27619047Y2985658D01*
X27619047Y2985658D02*
X27619047Y3271372D01*
X27619047Y3271372D02*
X27666666Y3366610D01*
X27666666Y3366610D02*
X27714285Y3414229D01*
X27714285Y3414229D02*
X27809523Y3461848D01*
X27809523Y3461848D02*
X27952380Y3461848D01*
X27952380Y3461848D02*
X28047618Y3414229D01*
X28047618Y3414229D02*
X28095237Y3366610D01*
X28095237Y3366610D02*
X28142856Y3271372D01*
X28142856Y3271372D02*
X28142856Y2985658D01*
X28142856Y2985658D02*
X28095237Y2890420D01*
X28095237Y2890420D02*
X28047618Y2842800D01*
X28047618Y2842800D02*
X27952380Y2795181D01*
X27952380Y2795181D02*
X27809523Y2795181D01*
X29333333Y3176134D02*
X30095238Y3176134D01*
X29714285Y2795181D02*
X29714285Y3557086D01*
X30476190Y3795181D02*
X31095237Y3795181D01*
X31095237Y3795181D02*
X30761904Y3414229D01*
X30761904Y3414229D02*
X30904761Y3414229D01*
X30904761Y3414229D02*
X30999999Y3366610D01*
X30999999Y3366610D02*
X31047618Y3318991D01*
X31047618Y3318991D02*
X31095237Y3223753D01*
X31095237Y3223753D02*
X31095237Y2985658D01*
X31095237Y2985658D02*
X31047618Y2890420D01*
X31047618Y2890420D02*
X30999999Y2842800D01*
X30999999Y2842800D02*
X30904761Y2795181D01*
X30904761Y2795181D02*
X30619047Y2795181D01*
X30619047Y2795181D02*
X30523809Y2842800D01*
X30523809Y2842800D02*
X30476190Y2890420D01*
X31952380Y3795181D02*
X31761904Y3795181D01*
X31761904Y3795181D02*
X31666666Y3747562D01*
X31666666Y3747562D02*
X31619047Y3699943D01*
X31619047Y3699943D02*
X31523809Y3557086D01*
X31523809Y3557086D02*
X31476190Y3366610D01*
X31476190Y3366610D02*
X31476190Y2985658D01*
X31476190Y2985658D02*
X31523809Y2890420D01*
X31523809Y2890420D02*
X31571428Y2842800D01*
X31571428Y2842800D02*
X31666666Y2795181D01*
X31666666Y2795181D02*
X31857142Y2795181D01*
X31857142Y2795181D02*
X31952380Y2842800D01*
X31952380Y2842800D02*
X31999999Y2890420D01*
X31999999Y2890420D02*
X32047618Y2985658D01*
X32047618Y2985658D02*
X32047618Y3223753D01*
X32047618Y3223753D02*
X31999999Y3318991D01*
X31999999Y3318991D02*
X31952380Y3366610D01*
X31952380Y3366610D02*
X31857142Y3414229D01*
X31857142Y3414229D02*
X31666666Y3414229D01*
X31666666Y3414229D02*
X31571428Y3366610D01*
X31571428Y3366610D02*
X31523809Y3318991D01*
X31523809Y3318991D02*
X31476190Y3223753D01*
X33095238Y3795181D02*
X33428571Y2795181D01*
X33428571Y2795181D02*
X33761904Y3795181D01*
X34238095Y2795181D02*
X34142857Y2842800D01*
X34142857Y2842800D02*
X34095238Y2890420D01*
X34095238Y2890420D02*
X34047619Y2985658D01*
X34047619Y2985658D02*
X34047619Y3271372D01*
X34047619Y3271372D02*
X34095238Y3366610D01*
X34095238Y3366610D02*
X34142857Y3414229D01*
X34142857Y3414229D02*
X34238095Y3461848D01*
X34238095Y3461848D02*
X34380952Y3461848D01*
X34380952Y3461848D02*
X34476190Y3414229D01*
X34476190Y3414229D02*
X34523809Y3366610D01*
X34523809Y3366610D02*
X34571428Y3271372D01*
X34571428Y3271372D02*
X34571428Y2985658D01*
X34571428Y2985658D02*
X34523809Y2890420D01*
X34523809Y2890420D02*
X34476190Y2842800D01*
X34476190Y2842800D02*
X34380952Y2795181D01*
X34380952Y2795181D02*
X34238095Y2795181D01*
X35142857Y2795181D02*
X35047619Y2842800D01*
X35047619Y2842800D02*
X35000000Y2938039D01*
X35000000Y2938039D02*
X35000000Y3795181D01*
X35380953Y3461848D02*
X35761905Y3461848D01*
X35523810Y3795181D02*
X35523810Y2938039D01*
X35523810Y2938039D02*
X35571429Y2842800D01*
X35571429Y2842800D02*
X35666667Y2795181D01*
X35666667Y2795181D02*
X35761905Y2795181D01*
X46714286Y30676134D02*
X47476191Y30676134D01*
X47095238Y30295181D02*
X47095238Y31057086D01*
X48428571Y31295181D02*
X47952381Y31295181D01*
X47952381Y31295181D02*
X47904762Y30818991D01*
X47904762Y30818991D02*
X47952381Y30866610D01*
X47952381Y30866610D02*
X48047619Y30914229D01*
X48047619Y30914229D02*
X48285714Y30914229D01*
X48285714Y30914229D02*
X48380952Y30866610D01*
X48380952Y30866610D02*
X48428571Y30818991D01*
X48428571Y30818991D02*
X48476190Y30723753D01*
X48476190Y30723753D02*
X48476190Y30485658D01*
X48476190Y30485658D02*
X48428571Y30390420D01*
X48428571Y30390420D02*
X48380952Y30342800D01*
X48380952Y30342800D02*
X48285714Y30295181D01*
X48285714Y30295181D02*
X48047619Y30295181D01*
X48047619Y30295181D02*
X47952381Y30342800D01*
X47952381Y30342800D02*
X47904762Y30390420D01*
X48761905Y31295181D02*
X49095238Y30295181D01*
X49095238Y30295181D02*
X49428571Y31295181D01*
X46714286Y29176134D02*
X47476191Y29176134D01*
X47095238Y28795181D02*
X47095238Y29557086D01*
X48428571Y29795181D02*
X47952381Y29795181D01*
X47952381Y29795181D02*
X47904762Y29318991D01*
X47904762Y29318991D02*
X47952381Y29366610D01*
X47952381Y29366610D02*
X48047619Y29414229D01*
X48047619Y29414229D02*
X48285714Y29414229D01*
X48285714Y29414229D02*
X48380952Y29366610D01*
X48380952Y29366610D02*
X48428571Y29318991D01*
X48428571Y29318991D02*
X48476190Y29223753D01*
X48476190Y29223753D02*
X48476190Y28985658D01*
X48476190Y28985658D02*
X48428571Y28890420D01*
X48428571Y28890420D02*
X48380952Y28842800D01*
X48380952Y28842800D02*
X48285714Y28795181D01*
X48285714Y28795181D02*
X48047619Y28795181D01*
X48047619Y28795181D02*
X47952381Y28842800D01*
X47952381Y28842800D02*
X47904762Y28890420D01*
X48761905Y29795181D02*
X49095238Y28795181D01*
X49095238Y28795181D02*
X49428571Y29795181D01*
X4014286Y34687705D02*
X4166667Y34687705D01*
X4166667Y34687705D02*
X4242857Y34649610D01*
X4242857Y34649610D02*
X4319048Y34573420D01*
X4319048Y34573420D02*
X4357143Y34421039D01*
X4357143Y34421039D02*
X4357143Y34154372D01*
X4357143Y34154372D02*
X4319048Y34001991D01*
X4319048Y34001991D02*
X4242857Y33925800D01*
X4242857Y33925800D02*
X4166667Y33887705D01*
X4166667Y33887705D02*
X4014286Y33887705D01*
X4014286Y33887705D02*
X3938095Y33925800D01*
X3938095Y33925800D02*
X3861905Y34001991D01*
X3861905Y34001991D02*
X3823809Y34154372D01*
X3823809Y34154372D02*
X3823809Y34421039D01*
X3823809Y34421039D02*
X3861905Y34573420D01*
X3861905Y34573420D02*
X3938095Y34649610D01*
X3938095Y34649610D02*
X4014286Y34687705D01*
X4700000Y34687705D02*
X4700000Y34040086D01*
X4700000Y34040086D02*
X4738095Y33963896D01*
X4738095Y33963896D02*
X4776190Y33925800D01*
X4776190Y33925800D02*
X4852381Y33887705D01*
X4852381Y33887705D02*
X5004762Y33887705D01*
X5004762Y33887705D02*
X5080952Y33925800D01*
X5080952Y33925800D02*
X5119047Y33963896D01*
X5119047Y33963896D02*
X5157143Y34040086D01*
X5157143Y34040086D02*
X5157143Y34687705D01*
X5423809Y34687705D02*
X5880952Y34687705D01*
X5652380Y33887705D02*
X5652380Y34687705D01*
X6147619Y33887705D02*
X6147619Y34687705D01*
X6147619Y34687705D02*
X6452381Y34687705D01*
X6452381Y34687705D02*
X6528571Y34649610D01*
X6528571Y34649610D02*
X6566666Y34611515D01*
X6566666Y34611515D02*
X6604762Y34535324D01*
X6604762Y34535324D02*
X6604762Y34421039D01*
X6604762Y34421039D02*
X6566666Y34344848D01*
X6566666Y34344848D02*
X6528571Y34306753D01*
X6528571Y34306753D02*
X6452381Y34268658D01*
X6452381Y34268658D02*
X6147619Y34268658D01*
X6947619Y34687705D02*
X6947619Y34040086D01*
X6947619Y34040086D02*
X6985714Y33963896D01*
X6985714Y33963896D02*
X7023809Y33925800D01*
X7023809Y33925800D02*
X7100000Y33887705D01*
X7100000Y33887705D02*
X7252381Y33887705D01*
X7252381Y33887705D02*
X7328571Y33925800D01*
X7328571Y33925800D02*
X7366666Y33963896D01*
X7366666Y33963896D02*
X7404762Y34040086D01*
X7404762Y34040086D02*
X7404762Y34687705D01*
X7671428Y34687705D02*
X8128571Y34687705D01*
X7899999Y33887705D02*
X7899999Y34687705D01*
X9004762Y33887705D02*
X9004762Y34687705D01*
X9004762Y34687705D02*
X9309524Y34687705D01*
X9309524Y34687705D02*
X9385714Y34649610D01*
X9385714Y34649610D02*
X9423809Y34611515D01*
X9423809Y34611515D02*
X9461905Y34535324D01*
X9461905Y34535324D02*
X9461905Y34421039D01*
X9461905Y34421039D02*
X9423809Y34344848D01*
X9423809Y34344848D02*
X9385714Y34306753D01*
X9385714Y34306753D02*
X9309524Y34268658D01*
X9309524Y34268658D02*
X9004762Y34268658D01*
X9728571Y34687705D02*
X9919047Y33887705D01*
X9919047Y33887705D02*
X10071428Y34459134D01*
X10071428Y34459134D02*
X10223809Y33887705D01*
X10223809Y33887705D02*
X10414286Y34687705D01*
X11176191Y33887705D02*
X10909524Y34268658D01*
X10719048Y33887705D02*
X10719048Y34687705D01*
X10719048Y34687705D02*
X11023810Y34687705D01*
X11023810Y34687705D02*
X11100000Y34649610D01*
X11100000Y34649610D02*
X11138095Y34611515D01*
X11138095Y34611515D02*
X11176191Y34535324D01*
X11176191Y34535324D02*
X11176191Y34421039D01*
X11176191Y34421039D02*
X11138095Y34344848D01*
X11138095Y34344848D02*
X11100000Y34306753D01*
X11100000Y34306753D02*
X11023810Y34268658D01*
X11023810Y34268658D02*
X10719048Y34268658D01*
X3895238Y31887705D02*
X3895238Y32687705D01*
X4276190Y31887705D02*
X4276190Y32687705D01*
X4276190Y32687705D02*
X4733333Y31887705D01*
X4733333Y31887705D02*
X4733333Y32687705D01*
X5114285Y31887705D02*
X5114285Y32687705D01*
X5114285Y32687705D02*
X5419047Y32687705D01*
X5419047Y32687705D02*
X5495237Y32649610D01*
X5495237Y32649610D02*
X5533332Y32611515D01*
X5533332Y32611515D02*
X5571428Y32535324D01*
X5571428Y32535324D02*
X5571428Y32421039D01*
X5571428Y32421039D02*
X5533332Y32344848D01*
X5533332Y32344848D02*
X5495237Y32306753D01*
X5495237Y32306753D02*
X5419047Y32268658D01*
X5419047Y32268658D02*
X5114285Y32268658D01*
X5914285Y32687705D02*
X5914285Y32040086D01*
X5914285Y32040086D02*
X5952380Y31963896D01*
X5952380Y31963896D02*
X5990475Y31925800D01*
X5990475Y31925800D02*
X6066666Y31887705D01*
X6066666Y31887705D02*
X6219047Y31887705D01*
X6219047Y31887705D02*
X6295237Y31925800D01*
X6295237Y31925800D02*
X6333332Y31963896D01*
X6333332Y31963896D02*
X6371428Y32040086D01*
X6371428Y32040086D02*
X6371428Y32687705D01*
X6638094Y32687705D02*
X7095237Y32687705D01*
X6866665Y31887705D02*
X6866665Y32687705D01*
X7971428Y31887705D02*
X7971428Y32687705D01*
X7971428Y32687705D02*
X8276190Y32687705D01*
X8276190Y32687705D02*
X8352380Y32649610D01*
X8352380Y32649610D02*
X8390475Y32611515D01*
X8390475Y32611515D02*
X8428571Y32535324D01*
X8428571Y32535324D02*
X8428571Y32421039D01*
X8428571Y32421039D02*
X8390475Y32344848D01*
X8390475Y32344848D02*
X8352380Y32306753D01*
X8352380Y32306753D02*
X8276190Y32268658D01*
X8276190Y32268658D02*
X7971428Y32268658D01*
X8695237Y32687705D02*
X8885713Y31887705D01*
X8885713Y31887705D02*
X9038094Y32459134D01*
X9038094Y32459134D02*
X9190475Y31887705D01*
X9190475Y31887705D02*
X9380952Y32687705D01*
X10142857Y31887705D02*
X9876190Y32268658D01*
X9685714Y31887705D02*
X9685714Y32687705D01*
X9685714Y32687705D02*
X9990476Y32687705D01*
X9990476Y32687705D02*
X10066666Y32649610D01*
X10066666Y32649610D02*
X10104761Y32611515D01*
X10104761Y32611515D02*
X10142857Y32535324D01*
X10142857Y32535324D02*
X10142857Y32421039D01*
X10142857Y32421039D02*
X10104761Y32344848D01*
X10104761Y32344848D02*
X10066666Y32306753D01*
X10066666Y32306753D02*
X9990476Y32268658D01*
X9990476Y32268658D02*
X9685714Y32268658D01*
X18499998Y2295181D02*
X18690474Y2295181D01*
X18690474Y2295181D02*
X18785712Y2247562D01*
X18785712Y2247562D02*
X18880950Y2152324D01*
X18880950Y2152324D02*
X18928569Y1961848D01*
X18928569Y1961848D02*
X18928569Y1628515D01*
X18928569Y1628515D02*
X18880950Y1438039D01*
X18880950Y1438039D02*
X18785712Y1342800D01*
X18785712Y1342800D02*
X18690474Y1295181D01*
X18690474Y1295181D02*
X18499998Y1295181D01*
X18499998Y1295181D02*
X18404760Y1342800D01*
X18404760Y1342800D02*
X18309522Y1438039D01*
X18309522Y1438039D02*
X18261903Y1628515D01*
X18261903Y1628515D02*
X18261903Y1961848D01*
X18261903Y1961848D02*
X18309522Y2152324D01*
X18309522Y2152324D02*
X18404760Y2247562D01*
X18404760Y2247562D02*
X18499998Y2295181D01*
X19785712Y1961848D02*
X19785712Y1295181D01*
X19357141Y1961848D02*
X19357141Y1438039D01*
X19357141Y1438039D02*
X19404760Y1342800D01*
X19404760Y1342800D02*
X19499998Y1295181D01*
X19499998Y1295181D02*
X19642855Y1295181D01*
X19642855Y1295181D02*
X19738093Y1342800D01*
X19738093Y1342800D02*
X19785712Y1390420D01*
X20119046Y1961848D02*
X20499998Y1961848D01*
X20261903Y2295181D02*
X20261903Y1438039D01*
X20261903Y1438039D02*
X20309522Y1342800D01*
X20309522Y1342800D02*
X20404760Y1295181D01*
X20404760Y1295181D02*
X20499998Y1295181D01*
X20833332Y1961848D02*
X20833332Y961848D01*
X20833332Y1914229D02*
X20928570Y1961848D01*
X20928570Y1961848D02*
X21119046Y1961848D01*
X21119046Y1961848D02*
X21214284Y1914229D01*
X21214284Y1914229D02*
X21261903Y1866610D01*
X21261903Y1866610D02*
X21309522Y1771372D01*
X21309522Y1771372D02*
X21309522Y1485658D01*
X21309522Y1485658D02*
X21261903Y1390420D01*
X21261903Y1390420D02*
X21214284Y1342800D01*
X21214284Y1342800D02*
X21119046Y1295181D01*
X21119046Y1295181D02*
X20928570Y1295181D01*
X20928570Y1295181D02*
X20833332Y1342800D01*
X22166665Y1961848D02*
X22166665Y1295181D01*
X21738094Y1961848D02*
X21738094Y1438039D01*
X21738094Y1438039D02*
X21785713Y1342800D01*
X21785713Y1342800D02*
X21880951Y1295181D01*
X21880951Y1295181D02*
X22023808Y1295181D01*
X22023808Y1295181D02*
X22119046Y1342800D01*
X22119046Y1342800D02*
X22166665Y1390420D01*
X22499999Y1961848D02*
X22880951Y1961848D01*
X22642856Y2295181D02*
X22642856Y1438039D01*
X22642856Y1438039D02*
X22690475Y1342800D01*
X22690475Y1342800D02*
X22785713Y1295181D01*
X22785713Y1295181D02*
X22880951Y1295181D01*
X23214285Y1390420D02*
X23261904Y1342800D01*
X23261904Y1342800D02*
X23214285Y1295181D01*
X23214285Y1295181D02*
X23166666Y1342800D01*
X23166666Y1342800D02*
X23214285Y1390420D01*
X23214285Y1390420D02*
X23214285Y1295181D01*
X23214285Y1914229D02*
X23261904Y1866610D01*
X23261904Y1866610D02*
X23214285Y1818991D01*
X23214285Y1818991D02*
X23166666Y1866610D01*
X23166666Y1866610D02*
X23214285Y1914229D01*
X23214285Y1914229D02*
X23214285Y1818991D01*
X24452380Y1676134D02*
X25214285Y1676134D01*
X24833332Y1295181D02*
X24833332Y2057086D01*
X26166665Y2295181D02*
X25690475Y2295181D01*
X25690475Y2295181D02*
X25642856Y1818991D01*
X25642856Y1818991D02*
X25690475Y1866610D01*
X25690475Y1866610D02*
X25785713Y1914229D01*
X25785713Y1914229D02*
X26023808Y1914229D01*
X26023808Y1914229D02*
X26119046Y1866610D01*
X26119046Y1866610D02*
X26166665Y1818991D01*
X26166665Y1818991D02*
X26214284Y1723753D01*
X26214284Y1723753D02*
X26214284Y1485658D01*
X26214284Y1485658D02*
X26166665Y1390420D01*
X26166665Y1390420D02*
X26119046Y1342800D01*
X26119046Y1342800D02*
X26023808Y1295181D01*
X26023808Y1295181D02*
X25785713Y1295181D01*
X25785713Y1295181D02*
X25690475Y1342800D01*
X25690475Y1342800D02*
X25642856Y1390420D01*
X27261904Y2295181D02*
X27595237Y1295181D01*
X27595237Y1295181D02*
X27928570Y2295181D01*
X28404761Y1295181D02*
X28309523Y1342800D01*
X28309523Y1342800D02*
X28261904Y1390420D01*
X28261904Y1390420D02*
X28214285Y1485658D01*
X28214285Y1485658D02*
X28214285Y1771372D01*
X28214285Y1771372D02*
X28261904Y1866610D01*
X28261904Y1866610D02*
X28309523Y1914229D01*
X28309523Y1914229D02*
X28404761Y1961848D01*
X28404761Y1961848D02*
X28547618Y1961848D01*
X28547618Y1961848D02*
X28642856Y1914229D01*
X28642856Y1914229D02*
X28690475Y1866610D01*
X28690475Y1866610D02*
X28738094Y1771372D01*
X28738094Y1771372D02*
X28738094Y1485658D01*
X28738094Y1485658D02*
X28690475Y1390420D01*
X28690475Y1390420D02*
X28642856Y1342800D01*
X28642856Y1342800D02*
X28547618Y1295181D01*
X28547618Y1295181D02*
X28404761Y1295181D01*
X29309523Y1295181D02*
X29214285Y1342800D01*
X29214285Y1342800D02*
X29166666Y1438039D01*
X29166666Y1438039D02*
X29166666Y2295181D01*
X29547619Y1961848D02*
X29928571Y1961848D01*
X29690476Y2295181D02*
X29690476Y1438039D01*
X29690476Y1438039D02*
X29738095Y1342800D01*
X29738095Y1342800D02*
X29833333Y1295181D01*
X29833333Y1295181D02*
X29928571Y1295181D01*
X31309524Y914229D02*
X31261905Y961848D01*
X31261905Y961848D02*
X31166667Y1104705D01*
X31166667Y1104705D02*
X31119048Y1199943D01*
X31119048Y1199943D02*
X31071429Y1342800D01*
X31071429Y1342800D02*
X31023810Y1580896D01*
X31023810Y1580896D02*
X31023810Y1771372D01*
X31023810Y1771372D02*
X31071429Y2009467D01*
X31071429Y2009467D02*
X31119048Y2152324D01*
X31119048Y2152324D02*
X31166667Y2247562D01*
X31166667Y2247562D02*
X31261905Y2390420D01*
X31261905Y2390420D02*
X31309524Y2438039D01*
X32166667Y2295181D02*
X31690477Y2295181D01*
X31690477Y2295181D02*
X31642858Y1818991D01*
X31642858Y1818991D02*
X31690477Y1866610D01*
X31690477Y1866610D02*
X31785715Y1914229D01*
X31785715Y1914229D02*
X32023810Y1914229D01*
X32023810Y1914229D02*
X32119048Y1866610D01*
X32119048Y1866610D02*
X32166667Y1818991D01*
X32166667Y1818991D02*
X32214286Y1723753D01*
X32214286Y1723753D02*
X32214286Y1485658D01*
X32214286Y1485658D02*
X32166667Y1390420D01*
X32166667Y1390420D02*
X32119048Y1342800D01*
X32119048Y1342800D02*
X32023810Y1295181D01*
X32023810Y1295181D02*
X31785715Y1295181D01*
X31785715Y1295181D02*
X31690477Y1342800D01*
X31690477Y1342800D02*
X31642858Y1390420D01*
X33357144Y1580896D02*
X33833334Y1580896D01*
X33261906Y1295181D02*
X33595239Y2295181D01*
X33595239Y2295181D02*
X33928572Y1295181D01*
X34261906Y1295181D02*
X34261906Y1961848D01*
X34261906Y1866610D02*
X34309525Y1914229D01*
X34309525Y1914229D02*
X34404763Y1961848D01*
X34404763Y1961848D02*
X34547620Y1961848D01*
X34547620Y1961848D02*
X34642858Y1914229D01*
X34642858Y1914229D02*
X34690477Y1818991D01*
X34690477Y1818991D02*
X34690477Y1295181D01*
X34690477Y1818991D02*
X34738096Y1914229D01*
X34738096Y1914229D02*
X34833334Y1961848D01*
X34833334Y1961848D02*
X34976191Y1961848D01*
X34976191Y1961848D02*
X35071430Y1914229D01*
X35071430Y1914229D02*
X35119049Y1818991D01*
X35119049Y1818991D02*
X35119049Y1295181D01*
X35595239Y1961848D02*
X35595239Y961848D01*
X35595239Y1914229D02*
X35690477Y1961848D01*
X35690477Y1961848D02*
X35880953Y1961848D01*
X35880953Y1961848D02*
X35976191Y1914229D01*
X35976191Y1914229D02*
X36023810Y1866610D01*
X36023810Y1866610D02*
X36071429Y1771372D01*
X36071429Y1771372D02*
X36071429Y1485658D01*
X36071429Y1485658D02*
X36023810Y1390420D01*
X36023810Y1390420D02*
X35976191Y1342800D01*
X35976191Y1342800D02*
X35880953Y1295181D01*
X35880953Y1295181D02*
X35690477Y1295181D01*
X35690477Y1295181D02*
X35595239Y1342800D01*
X36404763Y914229D02*
X36452382Y961848D01*
X36452382Y961848D02*
X36547620Y1104705D01*
X36547620Y1104705D02*
X36595239Y1199943D01*
X36595239Y1199943D02*
X36642858Y1342800D01*
X36642858Y1342800D02*
X36690477Y1580896D01*
X36690477Y1580896D02*
X36690477Y1771372D01*
X36690477Y1771372D02*
X36642858Y2009467D01*
X36642858Y2009467D02*
X36595239Y2152324D01*
X36595239Y2152324D02*
X36547620Y2247562D01*
X36547620Y2247562D02*
X36452382Y2390420D01*
X36452382Y2390420D02*
X36404763Y2438039D01*
X738096Y6687705D02*
X890477Y6687705D01*
X890477Y6687705D02*
X966667Y6649610D01*
X966667Y6649610D02*
X1042858Y6573420D01*
X1042858Y6573420D02*
X1080953Y6421039D01*
X1080953Y6421039D02*
X1080953Y6154372D01*
X1080953Y6154372D02*
X1042858Y6001991D01*
X1042858Y6001991D02*
X966667Y5925800D01*
X966667Y5925800D02*
X890477Y5887705D01*
X890477Y5887705D02*
X738096Y5887705D01*
X738096Y5887705D02*
X661905Y5925800D01*
X661905Y5925800D02*
X585715Y6001991D01*
X585715Y6001991D02*
X547619Y6154372D01*
X547619Y6154372D02*
X547619Y6421039D01*
X547619Y6421039D02*
X585715Y6573420D01*
X585715Y6573420D02*
X661905Y6649610D01*
X661905Y6649610D02*
X738096Y6687705D01*
X1690476Y6306753D02*
X1423810Y6306753D01*
X1423810Y5887705D02*
X1423810Y6687705D01*
X1423810Y6687705D02*
X1804762Y6687705D01*
X2376190Y6306753D02*
X2109524Y6306753D01*
X2109524Y5887705D02*
X2109524Y6687705D01*
X2109524Y6687705D02*
X2490476Y6687705D01*
X17666666Y5295181D02*
X17666666Y6295181D01*
X17666666Y6295181D02*
X17904761Y6295181D01*
X17904761Y6295181D02*
X18047618Y6247562D01*
X18047618Y6247562D02*
X18142856Y6152324D01*
X18142856Y6152324D02*
X18190475Y6057086D01*
X18190475Y6057086D02*
X18238094Y5866610D01*
X18238094Y5866610D02*
X18238094Y5723753D01*
X18238094Y5723753D02*
X18190475Y5533277D01*
X18190475Y5533277D02*
X18142856Y5438039D01*
X18142856Y5438039D02*
X18047618Y5342800D01*
X18047618Y5342800D02*
X17904761Y5295181D01*
X17904761Y5295181D02*
X17666666Y5295181D01*
X19238094Y5390420D02*
X19190475Y5342800D01*
X19190475Y5342800D02*
X19047618Y5295181D01*
X19047618Y5295181D02*
X18952380Y5295181D01*
X18952380Y5295181D02*
X18809523Y5342800D01*
X18809523Y5342800D02*
X18714285Y5438039D01*
X18714285Y5438039D02*
X18666666Y5533277D01*
X18666666Y5533277D02*
X18619047Y5723753D01*
X18619047Y5723753D02*
X18619047Y5866610D01*
X18619047Y5866610D02*
X18666666Y6057086D01*
X18666666Y6057086D02*
X18714285Y6152324D01*
X18714285Y6152324D02*
X18809523Y6247562D01*
X18809523Y6247562D02*
X18952380Y6295181D01*
X18952380Y6295181D02*
X19047618Y6295181D01*
X19047618Y6295181D02*
X19190475Y6247562D01*
X19190475Y6247562D02*
X19238094Y6199943D01*
X19666666Y5676134D02*
X20428571Y5676134D01*
X20904761Y5295181D02*
X20904761Y6295181D01*
X20904761Y6295181D02*
X21142856Y6295181D01*
X21142856Y6295181D02*
X21285713Y6247562D01*
X21285713Y6247562D02*
X21380951Y6152324D01*
X21380951Y6152324D02*
X21428570Y6057086D01*
X21428570Y6057086D02*
X21476189Y5866610D01*
X21476189Y5866610D02*
X21476189Y5723753D01*
X21476189Y5723753D02*
X21428570Y5533277D01*
X21428570Y5533277D02*
X21380951Y5438039D01*
X21380951Y5438039D02*
X21285713Y5342800D01*
X21285713Y5342800D02*
X21142856Y5295181D01*
X21142856Y5295181D02*
X20904761Y5295181D01*
X22476189Y5390420D02*
X22428570Y5342800D01*
X22428570Y5342800D02*
X22285713Y5295181D01*
X22285713Y5295181D02*
X22190475Y5295181D01*
X22190475Y5295181D02*
X22047618Y5342800D01*
X22047618Y5342800D02*
X21952380Y5438039D01*
X21952380Y5438039D02*
X21904761Y5533277D01*
X21904761Y5533277D02*
X21857142Y5723753D01*
X21857142Y5723753D02*
X21857142Y5866610D01*
X21857142Y5866610D02*
X21904761Y6057086D01*
X21904761Y6057086D02*
X21952380Y6152324D01*
X21952380Y6152324D02*
X22047618Y6247562D01*
X22047618Y6247562D02*
X22190475Y6295181D01*
X22190475Y6295181D02*
X22285713Y6295181D01*
X22285713Y6295181D02*
X22428570Y6247562D01*
X22428570Y6247562D02*
X22476189Y6199943D01*
X23666666Y5295181D02*
X23666666Y6295181D01*
X23666666Y6295181D02*
X24047618Y6295181D01*
X24047618Y6295181D02*
X24142856Y6247562D01*
X24142856Y6247562D02*
X24190475Y6199943D01*
X24190475Y6199943D02*
X24238094Y6104705D01*
X24238094Y6104705D02*
X24238094Y5961848D01*
X24238094Y5961848D02*
X24190475Y5866610D01*
X24190475Y5866610D02*
X24142856Y5818991D01*
X24142856Y5818991D02*
X24047618Y5771372D01*
X24047618Y5771372D02*
X23666666Y5771372D01*
X24809523Y5295181D02*
X24714285Y5342800D01*
X24714285Y5342800D02*
X24666666Y5390420D01*
X24666666Y5390420D02*
X24619047Y5485658D01*
X24619047Y5485658D02*
X24619047Y5771372D01*
X24619047Y5771372D02*
X24666666Y5866610D01*
X24666666Y5866610D02*
X24714285Y5914229D01*
X24714285Y5914229D02*
X24809523Y5961848D01*
X24809523Y5961848D02*
X24952380Y5961848D01*
X24952380Y5961848D02*
X25047618Y5914229D01*
X25047618Y5914229D02*
X25095237Y5866610D01*
X25095237Y5866610D02*
X25142856Y5771372D01*
X25142856Y5771372D02*
X25142856Y5485658D01*
X25142856Y5485658D02*
X25095237Y5390420D01*
X25095237Y5390420D02*
X25047618Y5342800D01*
X25047618Y5342800D02*
X24952380Y5295181D01*
X24952380Y5295181D02*
X24809523Y5295181D01*
X25476190Y5961848D02*
X25666666Y5295181D01*
X25666666Y5295181D02*
X25857142Y5771372D01*
X25857142Y5771372D02*
X26047618Y5295181D01*
X26047618Y5295181D02*
X26238094Y5961848D01*
X26999999Y5342800D02*
X26904761Y5295181D01*
X26904761Y5295181D02*
X26714285Y5295181D01*
X26714285Y5295181D02*
X26619047Y5342800D01*
X26619047Y5342800D02*
X26571428Y5438039D01*
X26571428Y5438039D02*
X26571428Y5818991D01*
X26571428Y5818991D02*
X26619047Y5914229D01*
X26619047Y5914229D02*
X26714285Y5961848D01*
X26714285Y5961848D02*
X26904761Y5961848D01*
X26904761Y5961848D02*
X26999999Y5914229D01*
X26999999Y5914229D02*
X27047618Y5818991D01*
X27047618Y5818991D02*
X27047618Y5723753D01*
X27047618Y5723753D02*
X26571428Y5628515D01*
X27476190Y5295181D02*
X27476190Y5961848D01*
X27476190Y5771372D02*
X27523809Y5866610D01*
X27523809Y5866610D02*
X27571428Y5914229D01*
X27571428Y5914229D02*
X27666666Y5961848D01*
X27666666Y5961848D02*
X27761904Y5961848D01*
X28809524Y5342800D02*
X28952381Y5295181D01*
X28952381Y5295181D02*
X29190476Y5295181D01*
X29190476Y5295181D02*
X29285714Y5342800D01*
X29285714Y5342800D02*
X29333333Y5390420D01*
X29333333Y5390420D02*
X29380952Y5485658D01*
X29380952Y5485658D02*
X29380952Y5580896D01*
X29380952Y5580896D02*
X29333333Y5676134D01*
X29333333Y5676134D02*
X29285714Y5723753D01*
X29285714Y5723753D02*
X29190476Y5771372D01*
X29190476Y5771372D02*
X29000000Y5818991D01*
X29000000Y5818991D02*
X28904762Y5866610D01*
X28904762Y5866610D02*
X28857143Y5914229D01*
X28857143Y5914229D02*
X28809524Y6009467D01*
X28809524Y6009467D02*
X28809524Y6104705D01*
X28809524Y6104705D02*
X28857143Y6199943D01*
X28857143Y6199943D02*
X28904762Y6247562D01*
X28904762Y6247562D02*
X29000000Y6295181D01*
X29000000Y6295181D02*
X29238095Y6295181D01*
X29238095Y6295181D02*
X29380952Y6247562D01*
X30238095Y5961848D02*
X30238095Y5295181D01*
X29809524Y5961848D02*
X29809524Y5438039D01*
X29809524Y5438039D02*
X29857143Y5342800D01*
X29857143Y5342800D02*
X29952381Y5295181D01*
X29952381Y5295181D02*
X30095238Y5295181D01*
X30095238Y5295181D02*
X30190476Y5342800D01*
X30190476Y5342800D02*
X30238095Y5390420D01*
X30714286Y5961848D02*
X30714286Y4961848D01*
X30714286Y5914229D02*
X30809524Y5961848D01*
X30809524Y5961848D02*
X31000000Y5961848D01*
X31000000Y5961848D02*
X31095238Y5914229D01*
X31095238Y5914229D02*
X31142857Y5866610D01*
X31142857Y5866610D02*
X31190476Y5771372D01*
X31190476Y5771372D02*
X31190476Y5485658D01*
X31190476Y5485658D02*
X31142857Y5390420D01*
X31142857Y5390420D02*
X31095238Y5342800D01*
X31095238Y5342800D02*
X31000000Y5295181D01*
X31000000Y5295181D02*
X30809524Y5295181D01*
X30809524Y5295181D02*
X30714286Y5342800D01*
X31619048Y5961848D02*
X31619048Y4961848D01*
X31619048Y5914229D02*
X31714286Y5961848D01*
X31714286Y5961848D02*
X31904762Y5961848D01*
X31904762Y5961848D02*
X32000000Y5914229D01*
X32000000Y5914229D02*
X32047619Y5866610D01*
X32047619Y5866610D02*
X32095238Y5771372D01*
X32095238Y5771372D02*
X32095238Y5485658D01*
X32095238Y5485658D02*
X32047619Y5390420D01*
X32047619Y5390420D02*
X32000000Y5342800D01*
X32000000Y5342800D02*
X31904762Y5295181D01*
X31904762Y5295181D02*
X31714286Y5295181D01*
X31714286Y5295181D02*
X31619048Y5342800D01*
X32666667Y5295181D02*
X32571429Y5342800D01*
X32571429Y5342800D02*
X32523810Y5438039D01*
X32523810Y5438039D02*
X32523810Y6295181D01*
X32952382Y5961848D02*
X33190477Y5295181D01*
X33428572Y5961848D02*
X33190477Y5295181D01*
X33190477Y5295181D02*
X33095239Y5057086D01*
X33095239Y5057086D02*
X33047620Y5009467D01*
X33047620Y5009467D02*
X32952382Y4961848D01*
X47238095Y15247562D02*
X47142857Y15295181D01*
X47142857Y15295181D02*
X47000000Y15295181D01*
X47000000Y15295181D02*
X46857143Y15247562D01*
X46857143Y15247562D02*
X46761905Y15152324D01*
X46761905Y15152324D02*
X46714286Y15057086D01*
X46714286Y15057086D02*
X46666667Y14866610D01*
X46666667Y14866610D02*
X46666667Y14723753D01*
X46666667Y14723753D02*
X46714286Y14533277D01*
X46714286Y14533277D02*
X46761905Y14438039D01*
X46761905Y14438039D02*
X46857143Y14342800D01*
X46857143Y14342800D02*
X47000000Y14295181D01*
X47000000Y14295181D02*
X47095238Y14295181D01*
X47095238Y14295181D02*
X47238095Y14342800D01*
X47238095Y14342800D02*
X47285714Y14390420D01*
X47285714Y14390420D02*
X47285714Y14723753D01*
X47285714Y14723753D02*
X47095238Y14723753D01*
X47714286Y14295181D02*
X47714286Y15295181D01*
X47714286Y15295181D02*
X48285714Y14295181D01*
X48285714Y14295181D02*
X48285714Y15295181D01*
X48761905Y14295181D02*
X48761905Y15295181D01*
X48761905Y15295181D02*
X49000000Y15295181D01*
X49000000Y15295181D02*
X49142857Y15247562D01*
X49142857Y15247562D02*
X49238095Y15152324D01*
X49238095Y15152324D02*
X49285714Y15057086D01*
X49285714Y15057086D02*
X49333333Y14866610D01*
X49333333Y14866610D02*
X49333333Y14723753D01*
X49333333Y14723753D02*
X49285714Y14533277D01*
X49285714Y14533277D02*
X49238095Y14438039D01*
X49238095Y14438039D02*
X49142857Y14342800D01*
X49142857Y14342800D02*
X49000000Y14295181D01*
X49000000Y14295181D02*
X48761905Y14295181D01*
X37433333Y27795181D02*
X36957143Y27795181D01*
X36957143Y27795181D02*
X36957143Y28795181D01*
X38290476Y27795181D02*
X37719048Y27795181D01*
X38004762Y27795181D02*
X38004762Y28795181D01*
X38004762Y28795181D02*
X37909524Y28652324D01*
X37909524Y28652324D02*
X37814286Y28557086D01*
X37814286Y28557086D02*
X37719048Y28509467D01*
X48050118Y21916666D02*
X48764403Y21916666D01*
X48764403Y21916666D02*
X48907260Y21869047D01*
X48907260Y21869047D02*
X49002499Y21773809D01*
X49002499Y21773809D02*
X49050118Y21630952D01*
X49050118Y21630952D02*
X49050118Y21535714D01*
X48145356Y22345238D02*
X48097737Y22392857D01*
X48097737Y22392857D02*
X48050118Y22488095D01*
X48050118Y22488095D02*
X48050118Y22726190D01*
X48050118Y22726190D02*
X48097737Y22821428D01*
X48097737Y22821428D02*
X48145356Y22869047D01*
X48145356Y22869047D02*
X48240594Y22916666D01*
X48240594Y22916666D02*
X48335832Y22916666D01*
X48335832Y22916666D02*
X48478689Y22869047D01*
X48478689Y22869047D02*
X49050118Y22297619D01*
X49050118Y22297619D02*
X49050118Y22916666D01*
D10*
X33210000Y28846078D02*
X33210000Y28328922D01*
X31790000Y28846078D02*
X31790000Y28328922D01*
X820000Y36096359D02*
X820000Y36403641D01*
X1580000Y36096359D02*
X1580000Y36403641D01*
X24290000Y23141422D02*
X24290000Y23658578D01*
X25710000Y23141422D02*
X25710000Y23658578D01*
X515000Y34985000D02*
X515000Y33515000D01*
X515000Y33515000D02*
X2800000Y33515000D01*
X2800000Y34985000D02*
X515000Y34985000D01*
X24240000Y29340000D02*
X28760000Y29340000D01*
X28760000Y29340000D02*
X28760000Y37400000D01*
X24240000Y37400000D02*
X24240000Y29340000D01*
X19290000Y23141422D02*
X19290000Y23658578D01*
X20710000Y23141422D02*
X20710000Y23658578D01*
X29290000Y32328922D02*
X29290000Y32846078D01*
X30710000Y32328922D02*
X30710000Y32846078D01*
X1580000Y30513641D02*
X1580000Y30206359D01*
X820000Y30513641D02*
X820000Y30206359D01*
D13*
X250000Y26750000D02*
X250000Y17750000D01*
X250000Y17750000D02*
X3600000Y17750000D01*
X3600000Y26750000D02*
X250000Y26750000D01*
X10500000Y17750000D02*
X14750000Y17750000D01*
X14750000Y26750000D02*
X10500000Y26750000D01*
X14750000Y23600000D02*
X14750000Y26750000D01*
X14750000Y17750000D02*
X14750000Y19600000D01*
D14*
X17470000Y19060000D02*
G75*
G03*
X17470000Y19060000I-200000J0D01*
G01*
D13*
X9250000Y7450000D02*
X5880000Y7450000D01*
X9250000Y11050000D02*
X9250000Y7450000D01*
X4120000Y7450000D02*
X750000Y7450000D01*
X3340000Y11050000D02*
X6660000Y11050000D01*
X750000Y7450000D02*
X750000Y11050000D01*
D15*
X7641419Y11750000D02*
G75*
G03*
X7641419Y11750000I-141419J0D01*
G01*
D10*
X20710000Y20158578D02*
X20710000Y19641422D01*
X19290000Y20158578D02*
X19290000Y19641422D01*
X23210000Y20158578D02*
X23210000Y19641422D01*
X21790000Y20158578D02*
X21790000Y19641422D01*
X31790000Y32328922D02*
X31790000Y32846078D01*
X33210000Y32328922D02*
X33210000Y32846078D01*
X515000Y32985000D02*
X515000Y31515000D01*
X515000Y31515000D02*
X2800000Y31515000D01*
X2800000Y32985000D02*
X515000Y32985000D01*
X21790000Y23141422D02*
X21790000Y23658578D01*
X23210000Y23141422D02*
X23210000Y23658578D01*
X30710000Y28846078D02*
X30710000Y28328922D01*
X29290000Y28846078D02*
X29290000Y28328922D01*
X25710000Y20158578D02*
X25710000Y19641422D01*
X24290000Y20158578D02*
X24290000Y19641422D01*
X34400000Y25300000D02*
X34850000Y25300000D01*
X34400000Y25300000D02*
X34400000Y31500000D01*
X40600000Y25300000D02*
X40150000Y25300000D01*
X34400000Y31500000D02*
X34850000Y31500000D01*
X40600000Y31500000D02*
X40600000Y25300000D01*
X40600000Y31500000D02*
X40150000Y31500000D01*
X46775260Y28327000D02*
X41622999Y28327000D01*
X41622999Y28327000D02*
X41622999Y26078038D01*
X41622999Y24421958D02*
X41622999Y24078039D01*
X41622999Y22421959D02*
X41622999Y22078038D01*
X41622999Y20421958D02*
X41622999Y20078040D01*
X41622999Y18421960D02*
X41622999Y16172998D01*
X50487599Y18032839D02*
X50487599Y26467158D01*
X41622999Y16172998D02*
X46775260Y16172998D01*
X29539416Y24460000D02*
X27800000Y24460000D01*
X29539416Y19340000D02*
X29300000Y19340000D01*
X32960584Y24460000D02*
X33200000Y24460000D01*
X32960584Y19340000D02*
X33200000Y19340000D01*
D16*
X3250000Y22250000D03*
M02*
