M48
INCH,TZ
T1C0.0118
T2C0.0118
T3C0.1063
%
G90
G05
T1
X492Y15157
X492Y11614
X6299Y12756
X6299Y9843
X6299Y7717
X6299Y4646
X7087Y13780
X7874Y10394
X7874Y7244
X8858Y10394
X8858Y7244
X9252Y14764
X9843Y10394
X9843Y7244
X9882Y13780
X10669Y8392
X10669Y3701
X11299Y10000
X11614Y14764
X11811Y6260
X12008Y14011
X12008Y10492
X12303Y7539
X12303Y6260
X12500Y10492
X12598Y14011
X12795Y6260
X15866Y10000
X16732Y6299
X17126Y6299
T2
X12047Y9685
X12047Y9173
X12047Y8661
X12047Y8150
X12559Y9685
X12559Y9173
X12559Y8661
X12559Y8150
T3
X1378Y16142
X1378Y1181
X18307Y16142
X18307Y1181
T0
M30
