G04 #@! TF.GenerationSoftware,KiCad,Pcbnew,7.0.4*
G04 #@! TF.CreationDate,2023-08-12T12:22:54+02:00*
G04 #@! TF.ProjectId,NB3_power,4e42335f-706f-4776-9572-2e6b69636164,0.0.4*
G04 #@! TF.SameCoordinates,PX7bfa480PY7c37510*
G04 #@! TF.FileFunction,Legend,Bot*
G04 #@! TF.FilePolarity,Positive*
%FSLAX46Y46*%
G04 Gerber Fmt 4.6, Leading zero omitted, Abs format (unit mm)*
G04 Created by KiCad (PCBNEW 7.0.4) date 2023-08-12 12:22:54*
%MOMM*%
%LPD*%
G01*
G04 APERTURE LIST*
%ADD10C,0.150000*%
%ADD11C,0.010000*%
G04 APERTURE END LIST*
D10*
X43829887Y2653991D02*
X44163220Y2653991D01*
X44163220Y2130181D02*
X44163220Y3130181D01*
X44163220Y3130181D02*
X43687030Y3130181D01*
X43163220Y2130181D02*
X43258458Y2177800D01*
X43258458Y2177800D02*
X43306077Y2225420D01*
X43306077Y2225420D02*
X43353696Y2320658D01*
X43353696Y2320658D02*
X43353696Y2606372D01*
X43353696Y2606372D02*
X43306077Y2701610D01*
X43306077Y2701610D02*
X43258458Y2749229D01*
X43258458Y2749229D02*
X43163220Y2796848D01*
X43163220Y2796848D02*
X43020363Y2796848D01*
X43020363Y2796848D02*
X42925125Y2749229D01*
X42925125Y2749229D02*
X42877506Y2701610D01*
X42877506Y2701610D02*
X42829887Y2606372D01*
X42829887Y2606372D02*
X42829887Y2320658D01*
X42829887Y2320658D02*
X42877506Y2225420D01*
X42877506Y2225420D02*
X42925125Y2177800D01*
X42925125Y2177800D02*
X43020363Y2130181D01*
X43020363Y2130181D02*
X43163220Y2130181D01*
X42401315Y2130181D02*
X42401315Y2796848D01*
X42401315Y2606372D02*
X42353696Y2701610D01*
X42353696Y2701610D02*
X42306077Y2749229D01*
X42306077Y2749229D02*
X42210839Y2796848D01*
X42210839Y2796848D02*
X42115601Y2796848D01*
X40448934Y2130181D02*
X40782267Y2606372D01*
X41020362Y2130181D02*
X41020362Y3130181D01*
X41020362Y3130181D02*
X40639410Y3130181D01*
X40639410Y3130181D02*
X40544172Y3082562D01*
X40544172Y3082562D02*
X40496553Y3034943D01*
X40496553Y3034943D02*
X40448934Y2939705D01*
X40448934Y2939705D02*
X40448934Y2796848D01*
X40448934Y2796848D02*
X40496553Y2701610D01*
X40496553Y2701610D02*
X40544172Y2653991D01*
X40544172Y2653991D02*
X40639410Y2606372D01*
X40639410Y2606372D02*
X41020362Y2606372D01*
X39639410Y2177800D02*
X39734648Y2130181D01*
X39734648Y2130181D02*
X39925124Y2130181D01*
X39925124Y2130181D02*
X40020362Y2177800D01*
X40020362Y2177800D02*
X40067981Y2273039D01*
X40067981Y2273039D02*
X40067981Y2653991D01*
X40067981Y2653991D02*
X40020362Y2749229D01*
X40020362Y2749229D02*
X39925124Y2796848D01*
X39925124Y2796848D02*
X39734648Y2796848D01*
X39734648Y2796848D02*
X39639410Y2749229D01*
X39639410Y2749229D02*
X39591791Y2653991D01*
X39591791Y2653991D02*
X39591791Y2558753D01*
X39591791Y2558753D02*
X40067981Y2463515D01*
X39210838Y2177800D02*
X39115600Y2130181D01*
X39115600Y2130181D02*
X38925124Y2130181D01*
X38925124Y2130181D02*
X38829886Y2177800D01*
X38829886Y2177800D02*
X38782267Y2273039D01*
X38782267Y2273039D02*
X38782267Y2320658D01*
X38782267Y2320658D02*
X38829886Y2415896D01*
X38829886Y2415896D02*
X38925124Y2463515D01*
X38925124Y2463515D02*
X39067981Y2463515D01*
X39067981Y2463515D02*
X39163219Y2511134D01*
X39163219Y2511134D02*
X39210838Y2606372D01*
X39210838Y2606372D02*
X39210838Y2653991D01*
X39210838Y2653991D02*
X39163219Y2749229D01*
X39163219Y2749229D02*
X39067981Y2796848D01*
X39067981Y2796848D02*
X38925124Y2796848D01*
X38925124Y2796848D02*
X38829886Y2749229D01*
X37972743Y2177800D02*
X38067981Y2130181D01*
X38067981Y2130181D02*
X38258457Y2130181D01*
X38258457Y2130181D02*
X38353695Y2177800D01*
X38353695Y2177800D02*
X38401314Y2273039D01*
X38401314Y2273039D02*
X38401314Y2653991D01*
X38401314Y2653991D02*
X38353695Y2749229D01*
X38353695Y2749229D02*
X38258457Y2796848D01*
X38258457Y2796848D02*
X38067981Y2796848D01*
X38067981Y2796848D02*
X37972743Y2749229D01*
X37972743Y2749229D02*
X37925124Y2653991D01*
X37925124Y2653991D02*
X37925124Y2558753D01*
X37925124Y2558753D02*
X38401314Y2463515D01*
X37067981Y2130181D02*
X37067981Y2653991D01*
X37067981Y2653991D02*
X37115600Y2749229D01*
X37115600Y2749229D02*
X37210838Y2796848D01*
X37210838Y2796848D02*
X37401314Y2796848D01*
X37401314Y2796848D02*
X37496552Y2749229D01*
X37067981Y2177800D02*
X37163219Y2130181D01*
X37163219Y2130181D02*
X37401314Y2130181D01*
X37401314Y2130181D02*
X37496552Y2177800D01*
X37496552Y2177800D02*
X37544171Y2273039D01*
X37544171Y2273039D02*
X37544171Y2368277D01*
X37544171Y2368277D02*
X37496552Y2463515D01*
X37496552Y2463515D02*
X37401314Y2511134D01*
X37401314Y2511134D02*
X37163219Y2511134D01*
X37163219Y2511134D02*
X37067981Y2558753D01*
X36591790Y2130181D02*
X36591790Y2796848D01*
X36591790Y2606372D02*
X36544171Y2701610D01*
X36544171Y2701610D02*
X36496552Y2749229D01*
X36496552Y2749229D02*
X36401314Y2796848D01*
X36401314Y2796848D02*
X36306076Y2796848D01*
X35544171Y2177800D02*
X35639409Y2130181D01*
X35639409Y2130181D02*
X35829885Y2130181D01*
X35829885Y2130181D02*
X35925123Y2177800D01*
X35925123Y2177800D02*
X35972742Y2225420D01*
X35972742Y2225420D02*
X36020361Y2320658D01*
X36020361Y2320658D02*
X36020361Y2606372D01*
X36020361Y2606372D02*
X35972742Y2701610D01*
X35972742Y2701610D02*
X35925123Y2749229D01*
X35925123Y2749229D02*
X35829885Y2796848D01*
X35829885Y2796848D02*
X35639409Y2796848D01*
X35639409Y2796848D02*
X35544171Y2749229D01*
X35115599Y2130181D02*
X35115599Y3130181D01*
X34687028Y2130181D02*
X34687028Y2653991D01*
X34687028Y2653991D02*
X34734647Y2749229D01*
X34734647Y2749229D02*
X34829885Y2796848D01*
X34829885Y2796848D02*
X34972742Y2796848D01*
X34972742Y2796848D02*
X35067980Y2749229D01*
X35067980Y2749229D02*
X35115599Y2701610D01*
X33020361Y2130181D02*
X33020361Y2653991D01*
X33020361Y2653991D02*
X33067980Y2749229D01*
X33067980Y2749229D02*
X33163218Y2796848D01*
X33163218Y2796848D02*
X33353694Y2796848D01*
X33353694Y2796848D02*
X33448932Y2749229D01*
X33020361Y2177800D02*
X33115599Y2130181D01*
X33115599Y2130181D02*
X33353694Y2130181D01*
X33353694Y2130181D02*
X33448932Y2177800D01*
X33448932Y2177800D02*
X33496551Y2273039D01*
X33496551Y2273039D02*
X33496551Y2368277D01*
X33496551Y2368277D02*
X33448932Y2463515D01*
X33448932Y2463515D02*
X33353694Y2511134D01*
X33353694Y2511134D02*
X33115599Y2511134D01*
X33115599Y2511134D02*
X33020361Y2558753D01*
X32544170Y2796848D02*
X32544170Y2130181D01*
X32544170Y2701610D02*
X32496551Y2749229D01*
X32496551Y2749229D02*
X32401313Y2796848D01*
X32401313Y2796848D02*
X32258456Y2796848D01*
X32258456Y2796848D02*
X32163218Y2749229D01*
X32163218Y2749229D02*
X32115599Y2653991D01*
X32115599Y2653991D02*
X32115599Y2130181D01*
X31210837Y2130181D02*
X31210837Y3130181D01*
X31210837Y2177800D02*
X31306075Y2130181D01*
X31306075Y2130181D02*
X31496551Y2130181D01*
X31496551Y2130181D02*
X31591789Y2177800D01*
X31591789Y2177800D02*
X31639408Y2225420D01*
X31639408Y2225420D02*
X31687027Y2320658D01*
X31687027Y2320658D02*
X31687027Y2606372D01*
X31687027Y2606372D02*
X31639408Y2701610D01*
X31639408Y2701610D02*
X31591789Y2749229D01*
X31591789Y2749229D02*
X31496551Y2796848D01*
X31496551Y2796848D02*
X31306075Y2796848D01*
X31306075Y2796848D02*
X31210837Y2749229D01*
X29972741Y2653991D02*
X29639408Y2653991D01*
X29496551Y2130181D02*
X29972741Y2130181D01*
X29972741Y2130181D02*
X29972741Y3130181D01*
X29972741Y3130181D02*
X29496551Y3130181D01*
X28639408Y2130181D02*
X28639408Y3130181D01*
X28639408Y2177800D02*
X28734646Y2130181D01*
X28734646Y2130181D02*
X28925122Y2130181D01*
X28925122Y2130181D02*
X29020360Y2177800D01*
X29020360Y2177800D02*
X29067979Y2225420D01*
X29067979Y2225420D02*
X29115598Y2320658D01*
X29115598Y2320658D02*
X29115598Y2606372D01*
X29115598Y2606372D02*
X29067979Y2701610D01*
X29067979Y2701610D02*
X29020360Y2749229D01*
X29020360Y2749229D02*
X28925122Y2796848D01*
X28925122Y2796848D02*
X28734646Y2796848D01*
X28734646Y2796848D02*
X28639408Y2749229D01*
X27734646Y2796848D02*
X27734646Y2130181D01*
X28163217Y2796848D02*
X28163217Y2273039D01*
X28163217Y2273039D02*
X28115598Y2177800D01*
X28115598Y2177800D02*
X28020360Y2130181D01*
X28020360Y2130181D02*
X27877503Y2130181D01*
X27877503Y2130181D02*
X27782265Y2177800D01*
X27782265Y2177800D02*
X27734646Y2225420D01*
X26829884Y2177800D02*
X26925122Y2130181D01*
X26925122Y2130181D02*
X27115598Y2130181D01*
X27115598Y2130181D02*
X27210836Y2177800D01*
X27210836Y2177800D02*
X27258455Y2225420D01*
X27258455Y2225420D02*
X27306074Y2320658D01*
X27306074Y2320658D02*
X27306074Y2606372D01*
X27306074Y2606372D02*
X27258455Y2701610D01*
X27258455Y2701610D02*
X27210836Y2749229D01*
X27210836Y2749229D02*
X27115598Y2796848D01*
X27115598Y2796848D02*
X26925122Y2796848D01*
X26925122Y2796848D02*
X26829884Y2749229D01*
X25972741Y2130181D02*
X25972741Y2653991D01*
X25972741Y2653991D02*
X26020360Y2749229D01*
X26020360Y2749229D02*
X26115598Y2796848D01*
X26115598Y2796848D02*
X26306074Y2796848D01*
X26306074Y2796848D02*
X26401312Y2749229D01*
X25972741Y2177800D02*
X26067979Y2130181D01*
X26067979Y2130181D02*
X26306074Y2130181D01*
X26306074Y2130181D02*
X26401312Y2177800D01*
X26401312Y2177800D02*
X26448931Y2273039D01*
X26448931Y2273039D02*
X26448931Y2368277D01*
X26448931Y2368277D02*
X26401312Y2463515D01*
X26401312Y2463515D02*
X26306074Y2511134D01*
X26306074Y2511134D02*
X26067979Y2511134D01*
X26067979Y2511134D02*
X25972741Y2558753D01*
X25639407Y2796848D02*
X25258455Y2796848D01*
X25496550Y3130181D02*
X25496550Y2273039D01*
X25496550Y2273039D02*
X25448931Y2177800D01*
X25448931Y2177800D02*
X25353693Y2130181D01*
X25353693Y2130181D02*
X25258455Y2130181D01*
X24925121Y2130181D02*
X24925121Y2796848D01*
X24925121Y3130181D02*
X24972740Y3082562D01*
X24972740Y3082562D02*
X24925121Y3034943D01*
X24925121Y3034943D02*
X24877502Y3082562D01*
X24877502Y3082562D02*
X24925121Y3130181D01*
X24925121Y3130181D02*
X24925121Y3034943D01*
X24306074Y2130181D02*
X24401312Y2177800D01*
X24401312Y2177800D02*
X24448931Y2225420D01*
X24448931Y2225420D02*
X24496550Y2320658D01*
X24496550Y2320658D02*
X24496550Y2606372D01*
X24496550Y2606372D02*
X24448931Y2701610D01*
X24448931Y2701610D02*
X24401312Y2749229D01*
X24401312Y2749229D02*
X24306074Y2796848D01*
X24306074Y2796848D02*
X24163217Y2796848D01*
X24163217Y2796848D02*
X24067979Y2749229D01*
X24067979Y2749229D02*
X24020360Y2701610D01*
X24020360Y2701610D02*
X23972741Y2606372D01*
X23972741Y2606372D02*
X23972741Y2320658D01*
X23972741Y2320658D02*
X24020360Y2225420D01*
X24020360Y2225420D02*
X24067979Y2177800D01*
X24067979Y2177800D02*
X24163217Y2130181D01*
X24163217Y2130181D02*
X24306074Y2130181D01*
X23544169Y2796848D02*
X23544169Y2130181D01*
X23544169Y2701610D02*
X23496550Y2749229D01*
X23496550Y2749229D02*
X23401312Y2796848D01*
X23401312Y2796848D02*
X23258455Y2796848D01*
X23258455Y2796848D02*
X23163217Y2749229D01*
X23163217Y2749229D02*
X23115598Y2653991D01*
X23115598Y2653991D02*
X23115598Y2130181D01*
X21687026Y3130181D02*
X21496550Y3130181D01*
X21496550Y3130181D02*
X21401312Y3082562D01*
X21401312Y3082562D02*
X21306074Y2987324D01*
X21306074Y2987324D02*
X21258455Y2796848D01*
X21258455Y2796848D02*
X21258455Y2463515D01*
X21258455Y2463515D02*
X21306074Y2273039D01*
X21306074Y2273039D02*
X21401312Y2177800D01*
X21401312Y2177800D02*
X21496550Y2130181D01*
X21496550Y2130181D02*
X21687026Y2130181D01*
X21687026Y2130181D02*
X21782264Y2177800D01*
X21782264Y2177800D02*
X21877502Y2273039D01*
X21877502Y2273039D02*
X21925121Y2463515D01*
X21925121Y2463515D02*
X21925121Y2796848D01*
X21925121Y2796848D02*
X21877502Y2987324D01*
X21877502Y2987324D02*
X21782264Y3082562D01*
X21782264Y3082562D02*
X21687026Y3130181D01*
X20829883Y2130181D02*
X20829883Y3130181D01*
X20829883Y3130181D02*
X20258455Y2130181D01*
X20258455Y2130181D02*
X20258455Y3130181D01*
X19306074Y2130181D02*
X19782264Y2130181D01*
X19782264Y2130181D02*
X19782264Y3130181D01*
X18782264Y2606372D02*
X18782264Y2130181D01*
X19115597Y3130181D02*
X18782264Y2606372D01*
X18782264Y2606372D02*
X18448931Y3130181D01*
X15309523Y3100181D02*
X15309523Y4100181D01*
X15309523Y4100181D02*
X14738095Y3100181D01*
X14738095Y3100181D02*
X14738095Y4100181D01*
X13928571Y3623991D02*
X13785714Y3576372D01*
X13785714Y3576372D02*
X13738095Y3528753D01*
X13738095Y3528753D02*
X13690476Y3433515D01*
X13690476Y3433515D02*
X13690476Y3290658D01*
X13690476Y3290658D02*
X13738095Y3195420D01*
X13738095Y3195420D02*
X13785714Y3147800D01*
X13785714Y3147800D02*
X13880952Y3100181D01*
X13880952Y3100181D02*
X14261904Y3100181D01*
X14261904Y3100181D02*
X14261904Y4100181D01*
X14261904Y4100181D02*
X13928571Y4100181D01*
X13928571Y4100181D02*
X13833333Y4052562D01*
X13833333Y4052562D02*
X13785714Y4004943D01*
X13785714Y4004943D02*
X13738095Y3909705D01*
X13738095Y3909705D02*
X13738095Y3814467D01*
X13738095Y3814467D02*
X13785714Y3719229D01*
X13785714Y3719229D02*
X13833333Y3671610D01*
X13833333Y3671610D02*
X13928571Y3623991D01*
X13928571Y3623991D02*
X14261904Y3623991D01*
X13357142Y4100181D02*
X12738095Y4100181D01*
X12738095Y4100181D02*
X13071428Y3719229D01*
X13071428Y3719229D02*
X12928571Y3719229D01*
X12928571Y3719229D02*
X12833333Y3671610D01*
X12833333Y3671610D02*
X12785714Y3623991D01*
X12785714Y3623991D02*
X12738095Y3528753D01*
X12738095Y3528753D02*
X12738095Y3290658D01*
X12738095Y3290658D02*
X12785714Y3195420D01*
X12785714Y3195420D02*
X12833333Y3147800D01*
X12833333Y3147800D02*
X12928571Y3100181D01*
X12928571Y3100181D02*
X13214285Y3100181D01*
X13214285Y3100181D02*
X13309523Y3147800D01*
X13309523Y3147800D02*
X13357142Y3195420D01*
X12547619Y3004943D02*
X11785714Y3004943D01*
X11547618Y3766848D02*
X11547618Y2766848D01*
X11547618Y3719229D02*
X11452380Y3766848D01*
X11452380Y3766848D02*
X11261904Y3766848D01*
X11261904Y3766848D02*
X11166666Y3719229D01*
X11166666Y3719229D02*
X11119047Y3671610D01*
X11119047Y3671610D02*
X11071428Y3576372D01*
X11071428Y3576372D02*
X11071428Y3290658D01*
X11071428Y3290658D02*
X11119047Y3195420D01*
X11119047Y3195420D02*
X11166666Y3147800D01*
X11166666Y3147800D02*
X11261904Y3100181D01*
X11261904Y3100181D02*
X11452380Y3100181D01*
X11452380Y3100181D02*
X11547618Y3147800D01*
X10499999Y3100181D02*
X10595237Y3147800D01*
X10595237Y3147800D02*
X10642856Y3195420D01*
X10642856Y3195420D02*
X10690475Y3290658D01*
X10690475Y3290658D02*
X10690475Y3576372D01*
X10690475Y3576372D02*
X10642856Y3671610D01*
X10642856Y3671610D02*
X10595237Y3719229D01*
X10595237Y3719229D02*
X10499999Y3766848D01*
X10499999Y3766848D02*
X10357142Y3766848D01*
X10357142Y3766848D02*
X10261904Y3719229D01*
X10261904Y3719229D02*
X10214285Y3671610D01*
X10214285Y3671610D02*
X10166666Y3576372D01*
X10166666Y3576372D02*
X10166666Y3290658D01*
X10166666Y3290658D02*
X10214285Y3195420D01*
X10214285Y3195420D02*
X10261904Y3147800D01*
X10261904Y3147800D02*
X10357142Y3100181D01*
X10357142Y3100181D02*
X10499999Y3100181D01*
X9833332Y3766848D02*
X9642856Y3100181D01*
X9642856Y3100181D02*
X9452380Y3576372D01*
X9452380Y3576372D02*
X9261904Y3100181D01*
X9261904Y3100181D02*
X9071428Y3766848D01*
X8309523Y3147800D02*
X8404761Y3100181D01*
X8404761Y3100181D02*
X8595237Y3100181D01*
X8595237Y3100181D02*
X8690475Y3147800D01*
X8690475Y3147800D02*
X8738094Y3243039D01*
X8738094Y3243039D02*
X8738094Y3623991D01*
X8738094Y3623991D02*
X8690475Y3719229D01*
X8690475Y3719229D02*
X8595237Y3766848D01*
X8595237Y3766848D02*
X8404761Y3766848D01*
X8404761Y3766848D02*
X8309523Y3719229D01*
X8309523Y3719229D02*
X8261904Y3623991D01*
X8261904Y3623991D02*
X8261904Y3528753D01*
X8261904Y3528753D02*
X8738094Y3433515D01*
X7833332Y3100181D02*
X7833332Y3766848D01*
X7833332Y3576372D02*
X7785713Y3671610D01*
X7785713Y3671610D02*
X7738094Y3719229D01*
X7738094Y3719229D02*
X7642856Y3766848D01*
X7642856Y3766848D02*
X7547618Y3766848D01*
X14285714Y1490181D02*
X14619047Y1966372D01*
X14857142Y1490181D02*
X14857142Y2490181D01*
X14857142Y2490181D02*
X14476190Y2490181D01*
X14476190Y2490181D02*
X14380952Y2442562D01*
X14380952Y2442562D02*
X14333333Y2394943D01*
X14333333Y2394943D02*
X14285714Y2299705D01*
X14285714Y2299705D02*
X14285714Y2156848D01*
X14285714Y2156848D02*
X14333333Y2061610D01*
X14333333Y2061610D02*
X14380952Y2013991D01*
X14380952Y2013991D02*
X14476190Y1966372D01*
X14476190Y1966372D02*
X14857142Y1966372D01*
X13476190Y1537800D02*
X13571428Y1490181D01*
X13571428Y1490181D02*
X13761904Y1490181D01*
X13761904Y1490181D02*
X13857142Y1537800D01*
X13857142Y1537800D02*
X13904761Y1633039D01*
X13904761Y1633039D02*
X13904761Y2013991D01*
X13904761Y2013991D02*
X13857142Y2109229D01*
X13857142Y2109229D02*
X13761904Y2156848D01*
X13761904Y2156848D02*
X13571428Y2156848D01*
X13571428Y2156848D02*
X13476190Y2109229D01*
X13476190Y2109229D02*
X13428571Y2013991D01*
X13428571Y2013991D02*
X13428571Y1918753D01*
X13428571Y1918753D02*
X13904761Y1823515D01*
X13095237Y2156848D02*
X12857142Y1490181D01*
X12857142Y1490181D02*
X12619047Y2156848D01*
X11285713Y2490181D02*
X11190475Y2490181D01*
X11190475Y2490181D02*
X11095237Y2442562D01*
X11095237Y2442562D02*
X11047618Y2394943D01*
X11047618Y2394943D02*
X10999999Y2299705D01*
X10999999Y2299705D02*
X10952380Y2109229D01*
X10952380Y2109229D02*
X10952380Y1871134D01*
X10952380Y1871134D02*
X10999999Y1680658D01*
X10999999Y1680658D02*
X11047618Y1585420D01*
X11047618Y1585420D02*
X11095237Y1537800D01*
X11095237Y1537800D02*
X11190475Y1490181D01*
X11190475Y1490181D02*
X11285713Y1490181D01*
X11285713Y1490181D02*
X11380951Y1537800D01*
X11380951Y1537800D02*
X11428570Y1585420D01*
X11428570Y1585420D02*
X11476189Y1680658D01*
X11476189Y1680658D02*
X11523808Y1871134D01*
X11523808Y1871134D02*
X11523808Y2109229D01*
X11523808Y2109229D02*
X11476189Y2299705D01*
X11476189Y2299705D02*
X11428570Y2394943D01*
X11428570Y2394943D02*
X11380951Y2442562D01*
X11380951Y2442562D02*
X11285713Y2490181D01*
X10523808Y1585420D02*
X10476189Y1537800D01*
X10476189Y1537800D02*
X10523808Y1490181D01*
X10523808Y1490181D02*
X10571427Y1537800D01*
X10571427Y1537800D02*
X10523808Y1585420D01*
X10523808Y1585420D02*
X10523808Y1490181D01*
X9857142Y2490181D02*
X9761904Y2490181D01*
X9761904Y2490181D02*
X9666666Y2442562D01*
X9666666Y2442562D02*
X9619047Y2394943D01*
X9619047Y2394943D02*
X9571428Y2299705D01*
X9571428Y2299705D02*
X9523809Y2109229D01*
X9523809Y2109229D02*
X9523809Y1871134D01*
X9523809Y1871134D02*
X9571428Y1680658D01*
X9571428Y1680658D02*
X9619047Y1585420D01*
X9619047Y1585420D02*
X9666666Y1537800D01*
X9666666Y1537800D02*
X9761904Y1490181D01*
X9761904Y1490181D02*
X9857142Y1490181D01*
X9857142Y1490181D02*
X9952380Y1537800D01*
X9952380Y1537800D02*
X9999999Y1585420D01*
X9999999Y1585420D02*
X10047618Y1680658D01*
X10047618Y1680658D02*
X10095237Y1871134D01*
X10095237Y1871134D02*
X10095237Y2109229D01*
X10095237Y2109229D02*
X10047618Y2299705D01*
X10047618Y2299705D02*
X9999999Y2394943D01*
X9999999Y2394943D02*
X9952380Y2442562D01*
X9952380Y2442562D02*
X9857142Y2490181D01*
X9095237Y1585420D02*
X9047618Y1537800D01*
X9047618Y1537800D02*
X9095237Y1490181D01*
X9095237Y1490181D02*
X9142856Y1537800D01*
X9142856Y1537800D02*
X9095237Y1585420D01*
X9095237Y1585420D02*
X9095237Y1490181D01*
X8190476Y2156848D02*
X8190476Y1490181D01*
X8428571Y2537800D02*
X8666666Y1823515D01*
X8666666Y1823515D02*
X8047619Y1823515D01*
D11*
X42212891Y27306641D02*
X41915235Y27306641D01*
X41915235Y28447656D01*
X42212891Y28447656D01*
X42212891Y27306641D01*
G36*
X42212891Y27306641D02*
G01*
X41915235Y27306641D01*
X41915235Y28447656D01*
X42212891Y28447656D01*
X42212891Y27306641D01*
G37*
X42212891Y28596484D02*
X41915235Y28596484D01*
X41915235Y28894141D01*
X42212891Y28894141D01*
X42212891Y28596484D01*
G36*
X42212891Y28596484D02*
G01*
X41915235Y28596484D01*
X41915235Y28894141D01*
X42212891Y28894141D01*
X42212891Y28596484D01*
G37*
X38194532Y27728320D02*
X37599219Y27728320D01*
X37599219Y28025977D01*
X38194532Y28025977D01*
X38194532Y27728320D01*
G36*
X38194532Y27728320D02*
G01*
X37599219Y27728320D01*
X37599219Y28025977D01*
X38194532Y28025977D01*
X38194532Y27728320D01*
G37*
X30222635Y28907835D02*
X30298684Y28896283D01*
X30368091Y28871707D01*
X30449120Y28813464D01*
X30498848Y28725057D01*
X30523067Y28598807D01*
X30536773Y28447656D01*
X30706234Y28447656D01*
X30698674Y28329834D01*
X30694926Y28281165D01*
X30684262Y28233210D01*
X30659400Y28212240D01*
X30610498Y28204239D01*
X30529883Y28196466D01*
X30529883Y27306641D01*
X30232227Y27306641D01*
X30232227Y28199609D01*
X30008985Y28199609D01*
X30008985Y28447656D01*
X30120606Y28447656D01*
X30152680Y28447921D01*
X30205759Y28453464D01*
X30227832Y28472056D01*
X30232227Y28511299D01*
X30231345Y28539429D01*
X30211331Y28616700D01*
X30160100Y28658407D01*
X30071248Y28670898D01*
X30032954Y28671294D01*
X29982789Y28678536D01*
X29958919Y28703256D01*
X29945638Y28756105D01*
X29944283Y28763733D01*
X29938709Y28826540D01*
X29944542Y28865403D01*
X29977632Y28885508D01*
X30046125Y28901054D01*
X30133121Y28908961D01*
X30222635Y28907835D01*
G36*
X30222635Y28907835D02*
G01*
X30298684Y28896283D01*
X30368091Y28871707D01*
X30449120Y28813464D01*
X30498848Y28725057D01*
X30523067Y28598807D01*
X30536773Y28447656D01*
X30706234Y28447656D01*
X30698674Y28329834D01*
X30694926Y28281165D01*
X30684262Y28233210D01*
X30659400Y28212240D01*
X30610498Y28204239D01*
X30529883Y28196466D01*
X30529883Y27306641D01*
X30232227Y27306641D01*
X30232227Y28199609D01*
X30008985Y28199609D01*
X30008985Y28447656D01*
X30120606Y28447656D01*
X30152680Y28447921D01*
X30205759Y28453464D01*
X30227832Y28472056D01*
X30232227Y28511299D01*
X30231345Y28539429D01*
X30211331Y28616700D01*
X30160100Y28658407D01*
X30071248Y28670898D01*
X30032954Y28671294D01*
X29982789Y28678536D01*
X29958919Y28703256D01*
X29945638Y28756105D01*
X29944283Y28763733D01*
X29938709Y28826540D01*
X29944542Y28865403D01*
X29977632Y28885508D01*
X30046125Y28901054D01*
X30133121Y28908961D01*
X30222635Y28907835D01*
G37*
X40253321Y27306641D02*
X39960023Y27306641D01*
X39951643Y27702998D01*
X39948652Y27837030D01*
X39945026Y27948413D01*
X39939791Y28026069D01*
X39931562Y28078402D01*
X39918953Y28113819D01*
X39900577Y28140724D01*
X39875049Y28167522D01*
X39865800Y28176494D01*
X39795511Y28222762D01*
X39708294Y28235689D01*
X39690482Y28235259D01*
X39623340Y28225942D01*
X39582342Y28208280D01*
X39562914Y28180264D01*
X39539240Y28108174D01*
X39522809Y27997832D01*
X39513144Y27845566D01*
X39509772Y27647705D01*
X39509180Y27306641D01*
X39207584Y27306641D01*
X39215755Y27759326D01*
X39219000Y27908825D01*
X39223704Y28040283D01*
X39230184Y28136629D01*
X39239198Y28205603D01*
X39251501Y28254944D01*
X39267851Y28292393D01*
X39284585Y28319797D01*
X39370400Y28406105D01*
X39481065Y28457347D01*
X39606999Y28472029D01*
X39738622Y28448657D01*
X39866353Y28385736D01*
X39955664Y28325128D01*
X39955664Y28894141D01*
X40253321Y28894141D01*
X40253321Y27306641D01*
G36*
X40253321Y27306641D02*
G01*
X39960023Y27306641D01*
X39951643Y27702998D01*
X39948652Y27837030D01*
X39945026Y27948413D01*
X39939791Y28026069D01*
X39931562Y28078402D01*
X39918953Y28113819D01*
X39900577Y28140724D01*
X39875049Y28167522D01*
X39865800Y28176494D01*
X39795511Y28222762D01*
X39708294Y28235689D01*
X39690482Y28235259D01*
X39623340Y28225942D01*
X39582342Y28208280D01*
X39562914Y28180264D01*
X39539240Y28108174D01*
X39522809Y27997832D01*
X39513144Y27845566D01*
X39509772Y27647705D01*
X39509180Y27306641D01*
X39207584Y27306641D01*
X39215755Y27759326D01*
X39219000Y27908825D01*
X39223704Y28040283D01*
X39230184Y28136629D01*
X39239198Y28205603D01*
X39251501Y28254944D01*
X39267851Y28292393D01*
X39284585Y28319797D01*
X39370400Y28406105D01*
X39481065Y28457347D01*
X39606999Y28472029D01*
X39738622Y28448657D01*
X39866353Y28385736D01*
X39955664Y28325128D01*
X39955664Y28894141D01*
X40253321Y28894141D01*
X40253321Y27306641D01*
G37*
X31001311Y28903421D02*
X31083584Y28873840D01*
X31110113Y28861668D01*
X31176710Y28821962D01*
X31218673Y28772309D01*
X31244321Y28699490D01*
X31261970Y28590283D01*
X31273324Y28511145D01*
X31287172Y28467996D01*
X31310696Y28450772D01*
X31351296Y28447656D01*
X31385388Y28446290D01*
X31411119Y28433696D01*
X31421148Y28397072D01*
X31422852Y28323633D01*
X31422016Y28262387D01*
X31414456Y28218979D01*
X31392489Y28202319D01*
X31348438Y28199609D01*
X31274024Y28199609D01*
X31274024Y27306641D01*
X30951563Y27306641D01*
X30951563Y28196757D01*
X30846143Y28204384D01*
X30740723Y28212012D01*
X30725603Y28447656D01*
X30954415Y28447656D01*
X30939161Y28658496D01*
X30816025Y28670898D01*
X30762490Y28677111D01*
X30713378Y28690482D01*
X30689258Y28717834D01*
X30675388Y28769504D01*
X30673484Y28779313D01*
X30665832Y28839116D01*
X30668254Y28872484D01*
X30688002Y28881654D01*
X30745363Y28894586D01*
X30825212Y28906273D01*
X30921436Y28912879D01*
X31001311Y28903421D01*
G36*
X31001311Y28903421D02*
G01*
X31083584Y28873840D01*
X31110113Y28861668D01*
X31176710Y28821962D01*
X31218673Y28772309D01*
X31244321Y28699490D01*
X31261970Y28590283D01*
X31273324Y28511145D01*
X31287172Y28467996D01*
X31310696Y28450772D01*
X31351296Y28447656D01*
X31385388Y28446290D01*
X31411119Y28433696D01*
X31421148Y28397072D01*
X31422852Y28323633D01*
X31422016Y28262387D01*
X31414456Y28218979D01*
X31392489Y28202319D01*
X31348438Y28199609D01*
X31274024Y28199609D01*
X31274024Y27306641D01*
X30951563Y27306641D01*
X30951563Y28196757D01*
X30846143Y28204384D01*
X30740723Y28212012D01*
X30725603Y28447656D01*
X30954415Y28447656D01*
X30939161Y28658496D01*
X30816025Y28670898D01*
X30762490Y28677111D01*
X30713378Y28690482D01*
X30689258Y28717834D01*
X30675388Y28769504D01*
X30673484Y28779313D01*
X30665832Y28839116D01*
X30668254Y28872484D01*
X30688002Y28881654D01*
X30745363Y28894586D01*
X30825212Y28906273D01*
X30921436Y28912879D01*
X31001311Y28903421D01*
G37*
X38740235Y28766071D02*
X38889063Y28684252D01*
X38889063Y28565954D01*
X38889696Y28513369D01*
X38896817Y28468133D01*
X38918665Y28450593D01*
X38963477Y28447656D01*
X39000224Y28446264D01*
X39026269Y28433663D01*
X39036265Y28397052D01*
X39037891Y28323633D01*
X39037055Y28262387D01*
X39029495Y28218979D01*
X39007528Y28202319D01*
X38963477Y28199609D01*
X38889063Y28199609D01*
X38888184Y27833740D01*
X38887964Y27783685D01*
X38885083Y27632612D01*
X38877496Y27521172D01*
X38863315Y27441602D01*
X38840650Y27386135D01*
X38807611Y27347006D01*
X38762309Y27316451D01*
X38707629Y27297664D01*
X38614356Y27285006D01*
X38512147Y27284650D01*
X38422747Y27297791D01*
X38411508Y27301091D01*
X38382359Y27318955D01*
X38371463Y27356191D01*
X38373138Y27427677D01*
X38376503Y27472242D01*
X38386058Y27519245D01*
X38407872Y27535986D01*
X38450906Y27534812D01*
X38454272Y27534463D01*
X38507456Y27533451D01*
X38544898Y27547526D01*
X38569307Y27583582D01*
X38583390Y27648515D01*
X38589854Y27749218D01*
X38591407Y27892588D01*
X38591407Y28199609D01*
X38392969Y28199609D01*
X38392969Y28447656D01*
X38591407Y28447656D01*
X38591407Y28847889D01*
X38740235Y28766071D01*
G36*
X38740235Y28766071D02*
G01*
X38889063Y28684252D01*
X38889063Y28565954D01*
X38889696Y28513369D01*
X38896817Y28468133D01*
X38918665Y28450593D01*
X38963477Y28447656D01*
X39000224Y28446264D01*
X39026269Y28433663D01*
X39036265Y28397052D01*
X39037891Y28323633D01*
X39037055Y28262387D01*
X39029495Y28218979D01*
X39007528Y28202319D01*
X38963477Y28199609D01*
X38889063Y28199609D01*
X38888184Y27833740D01*
X38887964Y27783685D01*
X38885083Y27632612D01*
X38877496Y27521172D01*
X38863315Y27441602D01*
X38840650Y27386135D01*
X38807611Y27347006D01*
X38762309Y27316451D01*
X38707629Y27297664D01*
X38614356Y27285006D01*
X38512147Y27284650D01*
X38422747Y27297791D01*
X38411508Y27301091D01*
X38382359Y27318955D01*
X38371463Y27356191D01*
X38373138Y27427677D01*
X38376503Y27472242D01*
X38386058Y27519245D01*
X38407872Y27535986D01*
X38450906Y27534812D01*
X38454272Y27534463D01*
X38507456Y27533451D01*
X38544898Y27547526D01*
X38569307Y27583582D01*
X38583390Y27648515D01*
X38589854Y27749218D01*
X38591407Y27892588D01*
X38591407Y28199609D01*
X38392969Y28199609D01*
X38392969Y28447656D01*
X38591407Y28447656D01*
X38591407Y28847889D01*
X38740235Y28766071D01*
G37*
X37425586Y27306641D02*
X37103125Y27306641D01*
X37103125Y27792197D01*
X36978181Y27915262D01*
X36925885Y27965308D01*
X36877370Y28004722D01*
X36847791Y28015116D01*
X36829066Y28001146D01*
X36821807Y27989463D01*
X36790850Y27937868D01*
X36742379Y27856049D01*
X36681407Y27752484D01*
X36612946Y27635650D01*
X36420996Y27307334D01*
X36214894Y27306987D01*
X36134322Y27307756D01*
X36062883Y27312319D01*
X36029498Y27321922D01*
X36027566Y27337646D01*
X36029219Y27340316D01*
X36052754Y27377039D01*
X36098169Y27447189D01*
X36161056Y27543980D01*
X36237004Y27660624D01*
X36321607Y27790332D01*
X36338696Y27816514D01*
X36421802Y27943945D01*
X36495289Y28056791D01*
X36554776Y28148316D01*
X36595885Y28211783D01*
X36614237Y28240457D01*
X36613523Y28249774D01*
X36587582Y28292455D01*
X36531821Y28362645D01*
X36450146Y28455587D01*
X36346464Y28566522D01*
X36276850Y28639640D01*
X36191087Y28731141D01*
X36122789Y28805714D01*
X36077641Y28857125D01*
X36061328Y28879141D01*
X36063188Y28881197D01*
X36097680Y28887791D01*
X36166741Y28892404D01*
X36258597Y28894141D01*
X36455866Y28894141D01*
X36773295Y28548962D01*
X37090723Y28203783D01*
X37103125Y28542761D01*
X37115528Y28881738D01*
X37425586Y28896508D01*
X37425586Y27306641D01*
G36*
X37425586Y27306641D02*
G01*
X37103125Y27306641D01*
X37103125Y27792197D01*
X36978181Y27915262D01*
X36925885Y27965308D01*
X36877370Y28004722D01*
X36847791Y28015116D01*
X36829066Y28001146D01*
X36821807Y27989463D01*
X36790850Y27937868D01*
X36742379Y27856049D01*
X36681407Y27752484D01*
X36612946Y27635650D01*
X36420996Y27307334D01*
X36214894Y27306987D01*
X36134322Y27307756D01*
X36062883Y27312319D01*
X36029498Y27321922D01*
X36027566Y27337646D01*
X36029219Y27340316D01*
X36052754Y27377039D01*
X36098169Y27447189D01*
X36161056Y27543980D01*
X36237004Y27660624D01*
X36321607Y27790332D01*
X36338696Y27816514D01*
X36421802Y27943945D01*
X36495289Y28056791D01*
X36554776Y28148316D01*
X36595885Y28211783D01*
X36614237Y28240457D01*
X36613523Y28249774D01*
X36587582Y28292455D01*
X36531821Y28362645D01*
X36450146Y28455587D01*
X36346464Y28566522D01*
X36276850Y28639640D01*
X36191087Y28731141D01*
X36122789Y28805714D01*
X36077641Y28857125D01*
X36061328Y28879141D01*
X36063188Y28881197D01*
X36097680Y28887791D01*
X36166741Y28892404D01*
X36258597Y28894141D01*
X36455866Y28894141D01*
X36773295Y28548962D01*
X37090723Y28203783D01*
X37103125Y28542761D01*
X37115528Y28881738D01*
X37425586Y28896508D01*
X37425586Y27306641D01*
G37*
X43622213Y27838094D02*
X43616647Y27742374D01*
X43604594Y27660914D01*
X43582537Y27597436D01*
X43546190Y27534839D01*
X43476559Y27445919D01*
X43384188Y27372911D01*
X43260664Y27317131D01*
X43255278Y27315236D01*
X43087623Y27281541D01*
X42922786Y27294751D01*
X42768846Y27353090D01*
X42633884Y27454782D01*
X42553047Y27554019D01*
X42483265Y27701286D01*
X42456817Y27858119D01*
X42464123Y27926663D01*
X42775213Y27926663D01*
X42778349Y27803792D01*
X42813506Y27689642D01*
X42880684Y27598799D01*
X42915872Y27571495D01*
X43011055Y27532296D01*
X43105659Y27535328D01*
X43192226Y27575960D01*
X43263295Y27649561D01*
X43311407Y27751501D01*
X43329102Y27877148D01*
X43326359Y27927943D01*
X43296022Y28044792D01*
X43238123Y28136270D01*
X43160151Y28197728D01*
X43069594Y28224518D01*
X42973942Y28211991D01*
X42880684Y28155498D01*
X42865001Y28140228D01*
X42804097Y28043670D01*
X42775213Y27926663D01*
X42464123Y27926663D01*
X42473671Y28016246D01*
X42533797Y28167393D01*
X42637161Y28303286D01*
X42700564Y28360537D01*
X42819215Y28432037D01*
X42953072Y28465463D01*
X43114369Y28464960D01*
X43192392Y28453756D01*
X43344830Y28400292D01*
X43467308Y28307349D01*
X43560201Y28174684D01*
X43568262Y28158809D01*
X43600873Y28086540D01*
X43618412Y28021604D01*
X43624364Y27945092D01*
X43622998Y27877148D01*
X43622213Y27838094D01*
G36*
X43622213Y27838094D02*
G01*
X43616647Y27742374D01*
X43604594Y27660914D01*
X43582537Y27597436D01*
X43546190Y27534839D01*
X43476559Y27445919D01*
X43384188Y27372911D01*
X43260664Y27317131D01*
X43255278Y27315236D01*
X43087623Y27281541D01*
X42922786Y27294751D01*
X42768846Y27353090D01*
X42633884Y27454782D01*
X42553047Y27554019D01*
X42483265Y27701286D01*
X42456817Y27858119D01*
X42464123Y27926663D01*
X42775213Y27926663D01*
X42778349Y27803792D01*
X42813506Y27689642D01*
X42880684Y27598799D01*
X42915872Y27571495D01*
X43011055Y27532296D01*
X43105659Y27535328D01*
X43192226Y27575960D01*
X43263295Y27649561D01*
X43311407Y27751501D01*
X43329102Y27877148D01*
X43326359Y27927943D01*
X43296022Y28044792D01*
X43238123Y28136270D01*
X43160151Y28197728D01*
X43069594Y28224518D01*
X42973942Y28211991D01*
X42880684Y28155498D01*
X42865001Y28140228D01*
X42804097Y28043670D01*
X42775213Y27926663D01*
X42464123Y27926663D01*
X42473671Y28016246D01*
X42533797Y28167393D01*
X42637161Y28303286D01*
X42700564Y28360537D01*
X42819215Y28432037D01*
X42953072Y28465463D01*
X43114369Y28464960D01*
X43192392Y28453756D01*
X43344830Y28400292D01*
X43467308Y28307349D01*
X43560201Y28174684D01*
X43568262Y28158809D01*
X43600873Y28086540D01*
X43618412Y28021604D01*
X43624364Y27945092D01*
X43622998Y27877148D01*
X43622213Y27838094D01*
G37*
X32663086Y26860156D02*
X32365430Y26860156D01*
X32365430Y27145410D01*
X32363860Y27251512D01*
X32359214Y27344514D01*
X32352232Y27407495D01*
X32343663Y27430664D01*
X32325807Y27423897D01*
X32289659Y27391821D01*
X32245492Y27350358D01*
X32144759Y27301889D01*
X32026474Y27285479D01*
X31903091Y27300495D01*
X31787070Y27346303D01*
X31690866Y27422269D01*
X31689194Y27424131D01*
X31613160Y27543258D01*
X31564723Y27694622D01*
X31547420Y27867246D01*
X31547447Y27880809D01*
X31550638Y27914641D01*
X31850829Y27914641D01*
X31854349Y27786649D01*
X31885842Y27669364D01*
X31945361Y27577882D01*
X31999481Y27543703D01*
X32087334Y27528260D01*
X32178384Y27543608D01*
X32253213Y27589043D01*
X32313323Y27676907D01*
X32349633Y27796022D01*
X32355739Y27925045D01*
X32331033Y28048243D01*
X32274907Y28149882D01*
X32208901Y28202429D01*
X32117794Y28228159D01*
X32025338Y28216408D01*
X31947482Y28166374D01*
X31927486Y28142365D01*
X31875226Y28038245D01*
X31850829Y27914641D01*
X31550638Y27914641D01*
X31565128Y28068295D01*
X31615867Y28219927D01*
X31700579Y28337569D01*
X31820176Y28423081D01*
X31866295Y28443001D01*
X31995338Y28468087D01*
X32125388Y28455825D01*
X32242924Y28408684D01*
X32334424Y28329135D01*
X32351638Y28310475D01*
X32362841Y28318016D01*
X32365430Y28368501D01*
X32365430Y28447656D01*
X32663086Y28447656D01*
X32663086Y27925045D01*
X32663086Y26860156D01*
G36*
X32663086Y26860156D02*
G01*
X32365430Y26860156D01*
X32365430Y27145410D01*
X32363860Y27251512D01*
X32359214Y27344514D01*
X32352232Y27407495D01*
X32343663Y27430664D01*
X32325807Y27423897D01*
X32289659Y27391821D01*
X32245492Y27350358D01*
X32144759Y27301889D01*
X32026474Y27285479D01*
X31903091Y27300495D01*
X31787070Y27346303D01*
X31690866Y27422269D01*
X31689194Y27424131D01*
X31613160Y27543258D01*
X31564723Y27694622D01*
X31547420Y27867246D01*
X31547447Y27880809D01*
X31550638Y27914641D01*
X31850829Y27914641D01*
X31854349Y27786649D01*
X31885842Y27669364D01*
X31945361Y27577882D01*
X31999481Y27543703D01*
X32087334Y27528260D01*
X32178384Y27543608D01*
X32253213Y27589043D01*
X32313323Y27676907D01*
X32349633Y27796022D01*
X32355739Y27925045D01*
X32331033Y28048243D01*
X32274907Y28149882D01*
X32208901Y28202429D01*
X32117794Y28228159D01*
X32025338Y28216408D01*
X31947482Y28166374D01*
X31927486Y28142365D01*
X31875226Y28038245D01*
X31850829Y27914641D01*
X31550638Y27914641D01*
X31565128Y28068295D01*
X31615867Y28219927D01*
X31700579Y28337569D01*
X31820176Y28423081D01*
X31866295Y28443001D01*
X31995338Y28468087D01*
X32125388Y28455825D01*
X32242924Y28408684D01*
X32334424Y28329135D01*
X32351638Y28310475D01*
X32362841Y28318016D01*
X32365430Y28368501D01*
X32365430Y28447656D01*
X32663086Y28447656D01*
X32663086Y27925045D01*
X32663086Y26860156D01*
G37*
X44883285Y28894132D02*
X44969338Y28892574D01*
X45016086Y28886542D01*
X45032857Y28873454D01*
X45028980Y28850732D01*
X45026973Y28845430D01*
X45010061Y28799247D01*
X44979314Y28714402D01*
X44936973Y28597115D01*
X44885282Y28453604D01*
X44826485Y28290091D01*
X44762824Y28112793D01*
X44744593Y28061993D01*
X44681739Y27886973D01*
X44624162Y27726842D01*
X44574156Y27587962D01*
X44534013Y27476695D01*
X44506024Y27399404D01*
X44492483Y27362451D01*
X44491908Y27360946D01*
X44475530Y27331792D01*
X44446530Y27315421D01*
X44392592Y27308236D01*
X44301400Y27306641D01*
X44131455Y27306641D01*
X43854243Y28081787D01*
X43808834Y28209028D01*
X43746159Y28385598D01*
X43690497Y28543527D01*
X43643803Y28677207D01*
X43608034Y28781030D01*
X43585145Y28849387D01*
X43577090Y28876670D01*
X43577095Y28876823D01*
X43600352Y28885671D01*
X43660139Y28890071D01*
X43743682Y28889073D01*
X43910215Y28881738D01*
X44101240Y28298828D01*
X44144264Y28169581D01*
X44193574Y28026783D01*
X44236648Y27907896D01*
X44271290Y27818763D01*
X44295302Y27765225D01*
X44306486Y27753125D01*
X44317716Y27784773D01*
X44342445Y27856259D01*
X44377637Y27958812D01*
X44420486Y28084256D01*
X44468188Y28224414D01*
X44510487Y28348781D01*
X44558758Y28490397D01*
X44601569Y28615666D01*
X44635429Y28714377D01*
X44656846Y28776318D01*
X44698023Y28894141D01*
X44871978Y28894141D01*
X44883285Y28894132D01*
G36*
X44883285Y28894132D02*
G01*
X44969338Y28892574D01*
X45016086Y28886542D01*
X45032857Y28873454D01*
X45028980Y28850732D01*
X45026973Y28845430D01*
X45010061Y28799247D01*
X44979314Y28714402D01*
X44936973Y28597115D01*
X44885282Y28453604D01*
X44826485Y28290091D01*
X44762824Y28112793D01*
X44744593Y28061993D01*
X44681739Y27886973D01*
X44624162Y27726842D01*
X44574156Y27587962D01*
X44534013Y27476695D01*
X44506024Y27399404D01*
X44492483Y27362451D01*
X44491908Y27360946D01*
X44475530Y27331792D01*
X44446530Y27315421D01*
X44392592Y27308236D01*
X44301400Y27306641D01*
X44131455Y27306641D01*
X43854243Y28081787D01*
X43808834Y28209028D01*
X43746159Y28385598D01*
X43690497Y28543527D01*
X43643803Y28677207D01*
X43608034Y28781030D01*
X43585145Y28849387D01*
X43577090Y28876670D01*
X43577095Y28876823D01*
X43600352Y28885671D01*
X43660139Y28890071D01*
X43743682Y28889073D01*
X43910215Y28881738D01*
X44101240Y28298828D01*
X44144264Y28169581D01*
X44193574Y28026783D01*
X44236648Y27907896D01*
X44271290Y27818763D01*
X44295302Y27765225D01*
X44306486Y27753125D01*
X44317716Y27784773D01*
X44342445Y27856259D01*
X44377637Y27958812D01*
X44420486Y28084256D01*
X44468188Y28224414D01*
X44510487Y28348781D01*
X44558758Y28490397D01*
X44601569Y28615666D01*
X44635429Y28714377D01*
X44656846Y28776318D01*
X44698023Y28894141D01*
X44871978Y28894141D01*
X44883285Y28894132D01*
G37*
X34137291Y28442768D02*
X34252360Y28387415D01*
X34349805Y28322929D01*
X34349805Y28385293D01*
X34349809Y28387765D01*
X34353398Y28421291D01*
X34371630Y28439194D01*
X34416158Y28446354D01*
X34498633Y28447656D01*
X34647461Y28447656D01*
X34647461Y27306641D01*
X34328339Y27306641D01*
X34320469Y27715295D01*
X34319514Y27763241D01*
X34315963Y27903791D01*
X34311387Y28004903D01*
X34304789Y28074508D01*
X34295173Y28120535D01*
X34281543Y28150916D01*
X34262903Y28173579D01*
X34236837Y28196213D01*
X34155243Y28235717D01*
X34073075Y28238258D01*
X34005123Y28202193D01*
X33991949Y28187931D01*
X33976423Y28163363D01*
X33965659Y28128451D01*
X33958793Y28075344D01*
X33954959Y27996189D01*
X33953293Y27883132D01*
X33952930Y27728320D01*
X33952930Y27306641D01*
X33633808Y27306641D01*
X33625937Y27715295D01*
X33624983Y27763241D01*
X33621432Y27903791D01*
X33616856Y28004903D01*
X33610257Y28074508D01*
X33600641Y28120535D01*
X33587011Y28150916D01*
X33568371Y28173579D01*
X33542306Y28196213D01*
X33460712Y28235717D01*
X33378544Y28238258D01*
X33310592Y28202193D01*
X33297418Y28187931D01*
X33281891Y28163363D01*
X33271128Y28128451D01*
X33264261Y28075344D01*
X33260428Y27996189D01*
X33258762Y27883132D01*
X33258399Y27728320D01*
X33258399Y27306641D01*
X32960743Y27306641D01*
X32960835Y27771729D01*
X32961059Y27894675D01*
X32962386Y28029348D01*
X32965548Y28127932D01*
X32971267Y28198304D01*
X32980265Y28248342D01*
X32993265Y28285923D01*
X33010988Y28318924D01*
X33070994Y28387513D01*
X33170598Y28443911D01*
X33287273Y28469277D01*
X33408577Y28462924D01*
X33522069Y28424164D01*
X33615304Y28352310D01*
X33662150Y28299726D01*
X33745983Y28373333D01*
X33766093Y28390008D01*
X33834644Y28436444D01*
X33892871Y28462765D01*
X33897173Y28463804D01*
X34011893Y28469699D01*
X34137291Y28442768D01*
G36*
X34137291Y28442768D02*
G01*
X34252360Y28387415D01*
X34349805Y28322929D01*
X34349805Y28385293D01*
X34349809Y28387765D01*
X34353398Y28421291D01*
X34371630Y28439194D01*
X34416158Y28446354D01*
X34498633Y28447656D01*
X34647461Y28447656D01*
X34647461Y27306641D01*
X34328339Y27306641D01*
X34320469Y27715295D01*
X34319514Y27763241D01*
X34315963Y27903791D01*
X34311387Y28004903D01*
X34304789Y28074508D01*
X34295173Y28120535D01*
X34281543Y28150916D01*
X34262903Y28173579D01*
X34236837Y28196213D01*
X34155243Y28235717D01*
X34073075Y28238258D01*
X34005123Y28202193D01*
X33991949Y28187931D01*
X33976423Y28163363D01*
X33965659Y28128451D01*
X33958793Y28075344D01*
X33954959Y27996189D01*
X33953293Y27883132D01*
X33952930Y27728320D01*
X33952930Y27306641D01*
X33633808Y27306641D01*
X33625937Y27715295D01*
X33624983Y27763241D01*
X33621432Y27903791D01*
X33616856Y28004903D01*
X33610257Y28074508D01*
X33600641Y28120535D01*
X33587011Y28150916D01*
X33568371Y28173579D01*
X33542306Y28196213D01*
X33460712Y28235717D01*
X33378544Y28238258D01*
X33310592Y28202193D01*
X33297418Y28187931D01*
X33281891Y28163363D01*
X33271128Y28128451D01*
X33264261Y28075344D01*
X33260428Y27996189D01*
X33258762Y27883132D01*
X33258399Y27728320D01*
X33258399Y27306641D01*
X32960743Y27306641D01*
X32960835Y27771729D01*
X32961059Y27894675D01*
X32962386Y28029348D01*
X32965548Y28127932D01*
X32971267Y28198304D01*
X32980265Y28248342D01*
X32993265Y28285923D01*
X33010988Y28318924D01*
X33070994Y28387513D01*
X33170598Y28443911D01*
X33287273Y28469277D01*
X33408577Y28462924D01*
X33522069Y28424164D01*
X33615304Y28352310D01*
X33662150Y28299726D01*
X33745983Y28373333D01*
X33766093Y28390008D01*
X33834644Y28436444D01*
X33892871Y28462765D01*
X33897173Y28463804D01*
X34011893Y28469699D01*
X34137291Y28442768D01*
G37*
X35908614Y27577006D02*
X35881116Y27471740D01*
X35822136Y27381721D01*
X35732178Y27318611D01*
X35729609Y27317505D01*
X35593128Y27284766D01*
X35447186Y27293851D01*
X35307167Y27343848D01*
X35265718Y27365942D01*
X35210648Y27393727D01*
X35182565Y27400719D01*
X35169923Y27387900D01*
X35161173Y27356250D01*
X35154820Y27338910D01*
X35132283Y27318429D01*
X35085035Y27308949D01*
X35000683Y27306641D01*
X34853166Y27306641D01*
X34886739Y27436070D01*
X34896738Y27486816D01*
X34909340Y27598908D01*
X34917609Y27740985D01*
X34917689Y27745142D01*
X35217969Y27745142D01*
X35228815Y27652911D01*
X35261377Y27581898D01*
X35275108Y27567480D01*
X35342915Y27523914D01*
X35422664Y27498521D01*
X35490821Y27499730D01*
X35537341Y27522318D01*
X35592932Y27577405D01*
X35614844Y27641504D01*
X35595100Y27705386D01*
X35529284Y27760386D01*
X35416407Y27801903D01*
X35385746Y27809808D01*
X35311398Y27829373D01*
X35261377Y27843089D01*
X35258362Y27843923D01*
X35232741Y27842484D01*
X35220867Y27813145D01*
X35217969Y27745142D01*
X34917689Y27745142D01*
X34920679Y27901158D01*
X34921460Y27990608D01*
X34926826Y28136608D01*
X34937025Y28240582D01*
X34951769Y28298828D01*
X35007519Y28365601D01*
X35103731Y28421989D01*
X35227583Y28459098D01*
X35368352Y28472461D01*
X35373285Y28472453D01*
X35537224Y28460617D01*
X35663751Y28424979D01*
X35759828Y28363605D01*
X35792200Y28329159D01*
X35837364Y28268206D01*
X35873140Y28207610D01*
X35887696Y28165690D01*
X35878182Y28159252D01*
X35832374Y28144261D01*
X35761427Y28127031D01*
X35695467Y28114060D01*
X35645817Y28112847D01*
X35608912Y28131461D01*
X35565440Y28174585D01*
X35536691Y28200568D01*
X35458779Y28239344D01*
X35377055Y28247701D01*
X35303655Y28227883D01*
X35250715Y28182131D01*
X35230371Y28112687D01*
X35230389Y28106395D01*
X35233407Y28073635D01*
X35248049Y28050517D01*
X35283505Y28031886D01*
X35348964Y28012588D01*
X35453614Y27987470D01*
X35495344Y27977336D01*
X35603627Y27947758D01*
X35696366Y27918075D01*
X35757051Y27893405D01*
X35797170Y27867661D01*
X35867146Y27786630D01*
X35904126Y27685857D01*
X35905955Y27641504D01*
X35908614Y27577006D01*
G36*
X35908614Y27577006D02*
G01*
X35881116Y27471740D01*
X35822136Y27381721D01*
X35732178Y27318611D01*
X35729609Y27317505D01*
X35593128Y27284766D01*
X35447186Y27293851D01*
X35307167Y27343848D01*
X35265718Y27365942D01*
X35210648Y27393727D01*
X35182565Y27400719D01*
X35169923Y27387900D01*
X35161173Y27356250D01*
X35154820Y27338910D01*
X35132283Y27318429D01*
X35085035Y27308949D01*
X35000683Y27306641D01*
X34853166Y27306641D01*
X34886739Y27436070D01*
X34896738Y27486816D01*
X34909340Y27598908D01*
X34917609Y27740985D01*
X34917689Y27745142D01*
X35217969Y27745142D01*
X35228815Y27652911D01*
X35261377Y27581898D01*
X35275108Y27567480D01*
X35342915Y27523914D01*
X35422664Y27498521D01*
X35490821Y27499730D01*
X35537341Y27522318D01*
X35592932Y27577405D01*
X35614844Y27641504D01*
X35595100Y27705386D01*
X35529284Y27760386D01*
X35416407Y27801903D01*
X35385746Y27809808D01*
X35311398Y27829373D01*
X35261377Y27843089D01*
X35258362Y27843923D01*
X35232741Y27842484D01*
X35220867Y27813145D01*
X35217969Y27745142D01*
X34917689Y27745142D01*
X34920679Y27901158D01*
X34921460Y27990608D01*
X34926826Y28136608D01*
X34937025Y28240582D01*
X34951769Y28298828D01*
X35007519Y28365601D01*
X35103731Y28421989D01*
X35227583Y28459098D01*
X35368352Y28472461D01*
X35373285Y28472453D01*
X35537224Y28460617D01*
X35663751Y28424979D01*
X35759828Y28363605D01*
X35792200Y28329159D01*
X35837364Y28268206D01*
X35873140Y28207610D01*
X35887696Y28165690D01*
X35878182Y28159252D01*
X35832374Y28144261D01*
X35761427Y28127031D01*
X35695467Y28114060D01*
X35645817Y28112847D01*
X35608912Y28131461D01*
X35565440Y28174585D01*
X35536691Y28200568D01*
X35458779Y28239344D01*
X35377055Y28247701D01*
X35303655Y28227883D01*
X35250715Y28182131D01*
X35230371Y28112687D01*
X35230389Y28106395D01*
X35233407Y28073635D01*
X35248049Y28050517D01*
X35283505Y28031886D01*
X35348964Y28012588D01*
X35453614Y27987470D01*
X35495344Y27977336D01*
X35603627Y27947758D01*
X35696366Y27918075D01*
X35757051Y27893405D01*
X35797170Y27867661D01*
X35867146Y27786630D01*
X35904126Y27685857D01*
X35905955Y27641504D01*
X35908614Y27577006D01*
G37*
X41664505Y27902476D02*
X41660856Y27775192D01*
X41642705Y27667458D01*
X41604543Y27574167D01*
X41533108Y27467991D01*
X41445411Y27381918D01*
X41353789Y27330343D01*
X41348182Y27328535D01*
X41207272Y27308976D01*
X41068318Y27335869D01*
X40942584Y27407111D01*
X40841294Y27488509D01*
X40859240Y27329362D01*
X40869264Y27256382D01*
X40893489Y27167871D01*
X40934079Y27115240D01*
X40999321Y27089933D01*
X41097499Y27083398D01*
X41115315Y27083483D01*
X41195438Y27088395D01*
X41243309Y27103889D01*
X41273489Y27134167D01*
X41303005Y27162494D01*
X41365819Y27188078D01*
X41467822Y27207442D01*
X41547516Y27217009D01*
X41610854Y27221337D01*
X41639228Y27218845D01*
X41644068Y27197855D01*
X41632463Y27143847D01*
X41605461Y27075590D01*
X41569719Y27009111D01*
X41531893Y26960437D01*
X41510737Y26943487D01*
X41436479Y26901397D01*
X41351642Y26869109D01*
X41291326Y26855848D01*
X41158470Y26843576D01*
X41017557Y26847442D01*
X40887219Y26866444D01*
X40786089Y26899578D01*
X40731578Y26930091D01*
X40678755Y26972001D01*
X40637144Y27025466D01*
X40605461Y27095914D01*
X40582420Y27188775D01*
X40566736Y27309478D01*
X40557124Y27463454D01*
X40552300Y27656130D01*
X40550977Y27892936D01*
X40550977Y27899922D01*
X40855521Y27899922D01*
X40865192Y27785213D01*
X40901039Y27682961D01*
X40964197Y27605627D01*
X40984382Y27591231D01*
X41076966Y27556610D01*
X41169809Y27564546D01*
X41253552Y27610450D01*
X41318835Y27689736D01*
X41356298Y27797815D01*
X41359037Y27815538D01*
X41362293Y27950806D01*
X41335289Y28067294D01*
X41282822Y28158917D01*
X41209689Y28219588D01*
X41120688Y28243221D01*
X41020615Y28223730D01*
X40972182Y28194175D01*
X40910153Y28116864D01*
X40870887Y28014626D01*
X40855521Y27899922D01*
X40550977Y27899922D01*
X40550977Y28447656D01*
X40703533Y28447656D01*
X40784477Y28446192D01*
X40827880Y28438688D01*
X40845385Y28420352D01*
X40848633Y28386392D01*
X40848633Y28325128D01*
X40939837Y28387021D01*
X40952843Y28395719D01*
X41050824Y28448842D01*
X41145482Y28470255D01*
X41261239Y28465956D01*
X41284823Y28462376D01*
X41405198Y28417475D01*
X41515847Y28335157D01*
X41602878Y28225211D01*
X41633240Y28146507D01*
X41654888Y28032013D01*
X41660917Y27950806D01*
X41664505Y27902476D01*
G36*
X41664505Y27902476D02*
G01*
X41660856Y27775192D01*
X41642705Y27667458D01*
X41604543Y27574167D01*
X41533108Y27467991D01*
X41445411Y27381918D01*
X41353789Y27330343D01*
X41348182Y27328535D01*
X41207272Y27308976D01*
X41068318Y27335869D01*
X40942584Y27407111D01*
X40841294Y27488509D01*
X40859240Y27329362D01*
X40869264Y27256382D01*
X40893489Y27167871D01*
X40934079Y27115240D01*
X40999321Y27089933D01*
X41097499Y27083398D01*
X41115315Y27083483D01*
X41195438Y27088395D01*
X41243309Y27103889D01*
X41273489Y27134167D01*
X41303005Y27162494D01*
X41365819Y27188078D01*
X41467822Y27207442D01*
X41547516Y27217009D01*
X41610854Y27221337D01*
X41639228Y27218845D01*
X41644068Y27197855D01*
X41632463Y27143847D01*
X41605461Y27075590D01*
X41569719Y27009111D01*
X41531893Y26960437D01*
X41510737Y26943487D01*
X41436479Y26901397D01*
X41351642Y26869109D01*
X41291326Y26855848D01*
X41158470Y26843576D01*
X41017557Y26847442D01*
X40887219Y26866444D01*
X40786089Y26899578D01*
X40731578Y26930091D01*
X40678755Y26972001D01*
X40637144Y27025466D01*
X40605461Y27095914D01*
X40582420Y27188775D01*
X40566736Y27309478D01*
X40557124Y27463454D01*
X40552300Y27656130D01*
X40550977Y27892936D01*
X40550977Y27899922D01*
X40855521Y27899922D01*
X40865192Y27785213D01*
X40901039Y27682961D01*
X40964197Y27605627D01*
X40984382Y27591231D01*
X41076966Y27556610D01*
X41169809Y27564546D01*
X41253552Y27610450D01*
X41318835Y27689736D01*
X41356298Y27797815D01*
X41359037Y27815538D01*
X41362293Y27950806D01*
X41335289Y28067294D01*
X41282822Y28158917D01*
X41209689Y28219588D01*
X41120688Y28243221D01*
X41020615Y28223730D01*
X40972182Y28194175D01*
X40910153Y28116864D01*
X40870887Y28014626D01*
X40855521Y27899922D01*
X40550977Y27899922D01*
X40550977Y28447656D01*
X40703533Y28447656D01*
X40784477Y28446192D01*
X40827880Y28438688D01*
X40845385Y28420352D01*
X40848633Y28386392D01*
X40848633Y28325128D01*
X40939837Y28387021D01*
X40952843Y28395719D01*
X41050824Y28448842D01*
X41145482Y28470255D01*
X41261239Y28465956D01*
X41284823Y28462376D01*
X41405198Y28417475D01*
X41515847Y28335157D01*
X41602878Y28225211D01*
X41633240Y28146507D01*
X41654888Y28032013D01*
X41660917Y27950806D01*
X41664505Y27902476D01*
G37*
X43624456Y35674015D02*
X43604505Y35553312D01*
X43578947Y35401297D01*
X43548649Y35223140D01*
X43514477Y35024008D01*
X43477298Y34809071D01*
X43463017Y34726725D01*
X43426533Y34515436D01*
X43393168Y34320901D01*
X43363825Y34148471D01*
X43339408Y34003501D01*
X43320820Y33891341D01*
X43308964Y33817345D01*
X43304745Y33786865D01*
X43300812Y33773117D01*
X43268507Y33755859D01*
X43250896Y33760078D01*
X43189006Y33776695D01*
X43086518Y33804872D01*
X42947396Y33843488D01*
X42775599Y33891424D01*
X42575090Y33947560D01*
X42349830Y34010775D01*
X42103781Y34079950D01*
X41840903Y34153966D01*
X41565160Y34231701D01*
X41280511Y34312037D01*
X40990920Y34393853D01*
X40700346Y34476029D01*
X40412752Y34557446D01*
X40132100Y34636983D01*
X39862350Y34713522D01*
X39607464Y34785941D01*
X39371404Y34853121D01*
X39158131Y34913942D01*
X38971607Y34967285D01*
X38815793Y35012028D01*
X38694652Y35047053D01*
X38612143Y35071240D01*
X38572229Y35083468D01*
X38569103Y35084807D01*
X38561918Y35089079D01*
X38555436Y35093129D01*
X38551076Y35094442D01*
X38550255Y35090504D01*
X38554392Y35078803D01*
X38564906Y35056825D01*
X38583215Y35022055D01*
X38610738Y34971980D01*
X38648893Y34904086D01*
X38699099Y34815860D01*
X38762773Y34704787D01*
X38841335Y34568355D01*
X38936203Y34404049D01*
X39048796Y34209355D01*
X39180531Y33981761D01*
X39332828Y33718751D01*
X39507104Y33417813D01*
X39704779Y33076433D01*
X40818511Y31152839D01*
X40160381Y30815916D01*
X40105000Y30787655D01*
X39942106Y30705617D01*
X39794764Y30632998D01*
X39668663Y30572495D01*
X39569494Y30526809D01*
X39502946Y30498638D01*
X39474710Y30490680D01*
X39464777Y30506774D01*
X39434894Y30565033D01*
X39386824Y30662934D01*
X39321976Y30797493D01*
X39241758Y30965725D01*
X39147578Y31164646D01*
X39040845Y31391272D01*
X38922966Y31642619D01*
X38795350Y31915702D01*
X38659406Y32207536D01*
X38516541Y32515139D01*
X38368164Y32835525D01*
X38245585Y33100389D01*
X38102077Y33409975D01*
X37965461Y33704149D01*
X37837127Y33979950D01*
X37718462Y34234412D01*
X37610854Y34464572D01*
X37515692Y34667466D01*
X37434364Y34840130D01*
X37368258Y34979599D01*
X37318763Y35082911D01*
X37287266Y35147101D01*
X37275156Y35169204D01*
X37266869Y35148444D01*
X37244736Y35083290D01*
X37209817Y34976757D01*
X37163088Y34831930D01*
X37105527Y34651891D01*
X37038111Y34439726D01*
X36961818Y34198518D01*
X36877625Y33931351D01*
X36786510Y33641309D01*
X36689451Y33331476D01*
X36587423Y33004935D01*
X36481406Y32664772D01*
X36380860Y32341917D01*
X36278826Y32014596D01*
X36181844Y31703805D01*
X36090883Y31412630D01*
X36006909Y31144155D01*
X35930890Y30901463D01*
X35863791Y30687640D01*
X35806581Y30505769D01*
X35760227Y30358935D01*
X35725694Y30250223D01*
X35703951Y30182716D01*
X35695963Y30159498D01*
X35694049Y30160202D01*
X35660288Y30175510D01*
X35588843Y30208827D01*
X35485334Y30257504D01*
X35355383Y30318893D01*
X35204611Y30390344D01*
X35038639Y30469209D01*
X35000401Y30487456D01*
X34835783Y30567302D01*
X34689065Y30640530D01*
X34565668Y30704290D01*
X34471015Y30755734D01*
X34410527Y30792011D01*
X34389626Y30810274D01*
X34394724Y30824752D01*
X34417613Y30882039D01*
X34457707Y30979702D01*
X34513710Y31114662D01*
X34584330Y31283836D01*
X34668273Y31484144D01*
X34764245Y31712504D01*
X34870952Y31965835D01*
X34987101Y32241055D01*
X35111397Y32535083D01*
X35242547Y32844838D01*
X35379257Y33167238D01*
X35478704Y33401745D01*
X35611079Y33714398D01*
X35736756Y34011804D01*
X35854463Y34290923D01*
X35962927Y34548716D01*
X36060875Y34782142D01*
X36147033Y34988161D01*
X36220129Y35163733D01*
X36278889Y35305819D01*
X36322041Y35411377D01*
X36348312Y35477369D01*
X36356428Y35500753D01*
X36342626Y35504458D01*
X36284187Y35518559D01*
X36182969Y35542424D01*
X36042194Y35575307D01*
X35865083Y35616465D01*
X35654858Y35665151D01*
X35414740Y35720621D01*
X35147952Y35782131D01*
X34857713Y35848935D01*
X34547247Y35920289D01*
X34219774Y35995447D01*
X33878516Y36073666D01*
X33628462Y36131003D01*
X33296655Y36207280D01*
X32980875Y36280091D01*
X32684357Y36348682D01*
X32608268Y36366346D01*
X37049295Y36366346D01*
X37256044Y35960272D01*
X37462793Y35554199D01*
X40302930Y34742928D01*
X40548398Y34672827D01*
X40904055Y34571315D01*
X41244480Y34474219D01*
X41566722Y34382375D01*
X41867829Y34296624D01*
X42144850Y34217804D01*
X42394834Y34146753D01*
X42614829Y34084310D01*
X42801883Y34031315D01*
X42953046Y33988605D01*
X43065366Y33957019D01*
X43135891Y33937396D01*
X43161670Y33930574D01*
X43162140Y33930551D01*
X43180274Y33940883D01*
X43183489Y33961718D01*
X43194320Y34026451D01*
X43211861Y34129486D01*
X43235150Y34265213D01*
X43263222Y34428017D01*
X43295116Y34612289D01*
X43329867Y34812416D01*
X43360648Y34990551D01*
X43392324Y35176529D01*
X43419941Y35341546D01*
X43442589Y35480021D01*
X43459356Y35586377D01*
X43469331Y35655034D01*
X43471604Y35680415D01*
X43462314Y35682405D01*
X43409888Y35691548D01*
X43314625Y35707438D01*
X43180380Y35729459D01*
X43011008Y35756997D01*
X42810363Y35789437D01*
X42582302Y35826163D01*
X42330680Y35866560D01*
X42059351Y35910012D01*
X41772170Y35955905D01*
X41472993Y36003623D01*
X41165675Y36052552D01*
X40854071Y36102075D01*
X40542036Y36151577D01*
X40233425Y36200444D01*
X39932093Y36248060D01*
X39641895Y36293810D01*
X39366688Y36337079D01*
X39110324Y36377251D01*
X38876661Y36413711D01*
X38845549Y36418585D01*
X38696477Y36442864D01*
X38565512Y36465674D01*
X38460394Y36485565D01*
X38388867Y36501085D01*
X38358671Y36510783D01*
X38363504Y36527457D01*
X38388753Y36585754D01*
X38433973Y36683060D01*
X38497753Y36816514D01*
X38578684Y36983254D01*
X38675357Y37180420D01*
X38786362Y37405150D01*
X38910291Y37654584D01*
X39045733Y37925859D01*
X39191279Y38216115D01*
X39345521Y38522491D01*
X39507048Y38842125D01*
X39646844Y39118438D01*
X39800974Y39423546D01*
X39947219Y39713537D01*
X40084123Y39985498D01*
X40210229Y40236517D01*
X40324080Y40463684D01*
X40424219Y40664085D01*
X40509188Y40834809D01*
X40577531Y40972944D01*
X40627790Y41075578D01*
X40658508Y41139799D01*
X40668229Y41162696D01*
X40660774Y41167384D01*
X40615820Y41191165D01*
X40535935Y41231639D01*
X40427228Y41285833D01*
X40295808Y41350774D01*
X40147785Y41423489D01*
X39989267Y41501006D01*
X39826364Y41580353D01*
X39665185Y41658555D01*
X39511838Y41732641D01*
X39372434Y41799638D01*
X39253080Y41856573D01*
X39159888Y41900473D01*
X39098964Y41928366D01*
X39076419Y41937278D01*
X39071878Y41925734D01*
X39051690Y41871504D01*
X39016344Y41775476D01*
X38966886Y41640521D01*
X38904363Y41469508D01*
X38829822Y41265307D01*
X38744307Y41030787D01*
X38648866Y40768818D01*
X38544544Y40482270D01*
X38432388Y40174012D01*
X38313444Y39846913D01*
X38188759Y39503844D01*
X38059378Y39147675D01*
X37049295Y36366346D01*
X32608268Y36366346D01*
X32410334Y36412296D01*
X32162040Y36470175D01*
X31942710Y36521566D01*
X31755578Y36565710D01*
X31603877Y36601852D01*
X31490843Y36629235D01*
X31419708Y36647104D01*
X31393708Y36654701D01*
X31393600Y36654830D01*
X31394720Y36682724D01*
X31403815Y36751637D01*
X31419552Y36854102D01*
X31440596Y36982650D01*
X31465612Y37129813D01*
X31493267Y37288125D01*
X31522224Y37450115D01*
X31551151Y37608317D01*
X31578711Y37755263D01*
X31603572Y37883484D01*
X31624398Y37985513D01*
X31639855Y38053881D01*
X31648608Y38081121D01*
X31669932Y38075408D01*
X31735358Y38054852D01*
X31841824Y38020365D01*
X31986250Y37972971D01*
X32165560Y37913696D01*
X32376677Y37843563D01*
X32616522Y37763598D01*
X32882018Y37674823D01*
X33170088Y37578265D01*
X33477654Y37474946D01*
X33801639Y37365892D01*
X34138965Y37252128D01*
X34454383Y37145736D01*
X34779281Y37036334D01*
X35087937Y36932590D01*
X35377276Y36835529D01*
X35644225Y36746177D01*
X35885708Y36665557D01*
X36098650Y36594696D01*
X36279976Y36534618D01*
X36426612Y36486348D01*
X36535483Y36450911D01*
X36603513Y36429331D01*
X36627629Y36422633D01*
X36620051Y36438845D01*
X36590058Y36495603D01*
X36538774Y36590389D01*
X36467773Y36720347D01*
X36378632Y36882623D01*
X36272929Y37074362D01*
X36152238Y37292709D01*
X36018137Y37534810D01*
X35872202Y37797809D01*
X35716009Y38078852D01*
X35551134Y38375084D01*
X35379154Y38683650D01*
X35234179Y38943674D01*
X35067637Y39242603D01*
X34909329Y39526992D01*
X34760849Y39793965D01*
X34623795Y40040644D01*
X34499760Y40264152D01*
X34390341Y40461610D01*
X34297133Y40630143D01*
X34221732Y40766872D01*
X34165733Y40868920D01*
X34130732Y40933410D01*
X34118323Y40957465D01*
X34118598Y40958345D01*
X34144198Y40976640D01*
X34206589Y41013329D01*
X34299164Y41064960D01*
X34415312Y41128080D01*
X34548424Y41199235D01*
X34691892Y41274971D01*
X34839107Y41351836D01*
X34983458Y41426375D01*
X35118338Y41495137D01*
X35237136Y41554666D01*
X35333244Y41601511D01*
X35400053Y41632217D01*
X35430953Y41643331D01*
X35431146Y41643291D01*
X35445823Y41619323D01*
X35479086Y41553339D01*
X35529467Y41448532D01*
X35595496Y41308095D01*
X35675707Y41135220D01*
X35768630Y40933102D01*
X35872798Y40704932D01*
X35986742Y40453904D01*
X36108994Y40183211D01*
X36238086Y39896046D01*
X36372549Y39595602D01*
X36378163Y39583032D01*
X36512319Y39282901D01*
X36640794Y38995988D01*
X36762138Y38725504D01*
X36874900Y38474657D01*
X36977630Y38246659D01*
X37068877Y38044719D01*
X37147191Y37872046D01*
X37211122Y37731852D01*
X37259219Y37627345D01*
X37290033Y37561736D01*
X37302113Y37538234D01*
X37305125Y37543051D01*
X37323268Y37586095D01*
X37356523Y37671128D01*
X37403723Y37795006D01*
X37463703Y37954584D01*
X37535297Y38146719D01*
X37617339Y38368267D01*
X37708663Y38616084D01*
X37808104Y38887026D01*
X37914495Y39177948D01*
X38026671Y39485707D01*
X38143466Y39807158D01*
X38198491Y39958791D01*
X38313553Y40275558D01*
X38423507Y40577843D01*
X38527175Y40862430D01*
X38623379Y41126101D01*
X38710940Y41365642D01*
X38788682Y41577834D01*
X38855427Y41759462D01*
X38909996Y41907309D01*
X38951213Y42018159D01*
X38977898Y42088795D01*
X38988875Y42116000D01*
X38992600Y42118665D01*
X39022144Y42115660D01*
X39081578Y42095477D01*
X39173691Y42056906D01*
X39301271Y41998738D01*
X39467109Y41919762D01*
X39673993Y41818769D01*
X39686699Y41812514D01*
X39870942Y41722041D01*
X40054504Y41632259D01*
X40228629Y41547427D01*
X40384556Y41471804D01*
X40513529Y41409650D01*
X40606787Y41365221D01*
X40710030Y41315386D01*
X40794806Y41272172D01*
X40851990Y41240380D01*
X40872828Y41224635D01*
X40865232Y41208097D01*
X40836721Y41150057D01*
X40788444Y41053140D01*
X40721881Y40920278D01*
X40638509Y40754403D01*
X40539808Y40558448D01*
X40427256Y40335345D01*
X40302331Y40088025D01*
X40166511Y39819422D01*
X40021275Y39532468D01*
X39868102Y39230095D01*
X39708469Y38915234D01*
X39575064Y38651957D01*
X39421259Y38347754D01*
X39275435Y38058621D01*
X39139044Y37787472D01*
X39013540Y37537222D01*
X38900375Y37310784D01*
X38801002Y37111072D01*
X38716874Y36941000D01*
X38649443Y36803482D01*
X38600162Y36701431D01*
X38570484Y36637762D01*
X38561862Y36615388D01*
X38566220Y36614482D01*
X38605354Y36607768D01*
X38685205Y36594670D01*
X38806466Y36575077D01*
X38969826Y36548880D01*
X39175977Y36515969D01*
X39425608Y36476235D01*
X39719412Y36429567D01*
X40058079Y36375856D01*
X40442299Y36314992D01*
X40872765Y36246866D01*
X41350165Y36171367D01*
X41875192Y36088386D01*
X42448536Y35997812D01*
X42471602Y35994169D01*
X42706880Y35956916D01*
X42926284Y35922025D01*
X43125080Y35890259D01*
X43298535Y35862381D01*
X43441917Y35839155D01*
X43550490Y35821344D01*
X43619523Y35809711D01*
X43644282Y35805018D01*
X43644072Y35800812D01*
X43637934Y35758238D01*
X43625480Y35680415D01*
X43624456Y35674015D01*
G36*
X43624456Y35674015D02*
G01*
X43604505Y35553312D01*
X43578947Y35401297D01*
X43548649Y35223140D01*
X43514477Y35024008D01*
X43477298Y34809071D01*
X43463017Y34726725D01*
X43426533Y34515436D01*
X43393168Y34320901D01*
X43363825Y34148471D01*
X43339408Y34003501D01*
X43320820Y33891341D01*
X43308964Y33817345D01*
X43304745Y33786865D01*
X43300812Y33773117D01*
X43268507Y33755859D01*
X43250896Y33760078D01*
X43189006Y33776695D01*
X43086518Y33804872D01*
X42947396Y33843488D01*
X42775599Y33891424D01*
X42575090Y33947560D01*
X42349830Y34010775D01*
X42103781Y34079950D01*
X41840903Y34153966D01*
X41565160Y34231701D01*
X41280511Y34312037D01*
X40990920Y34393853D01*
X40700346Y34476029D01*
X40412752Y34557446D01*
X40132100Y34636983D01*
X39862350Y34713522D01*
X39607464Y34785941D01*
X39371404Y34853121D01*
X39158131Y34913942D01*
X38971607Y34967285D01*
X38815793Y35012028D01*
X38694652Y35047053D01*
X38612143Y35071240D01*
X38572229Y35083468D01*
X38569103Y35084807D01*
X38561918Y35089079D01*
X38555436Y35093129D01*
X38551076Y35094442D01*
X38550255Y35090504D01*
X38554392Y35078803D01*
X38564906Y35056825D01*
X38583215Y35022055D01*
X38610738Y34971980D01*
X38648893Y34904086D01*
X38699099Y34815860D01*
X38762773Y34704787D01*
X38841335Y34568355D01*
X38936203Y34404049D01*
X39048796Y34209355D01*
X39180531Y33981761D01*
X39332828Y33718751D01*
X39507104Y33417813D01*
X39704779Y33076433D01*
X40818511Y31152839D01*
X40160381Y30815916D01*
X40105000Y30787655D01*
X39942106Y30705617D01*
X39794764Y30632998D01*
X39668663Y30572495D01*
X39569494Y30526809D01*
X39502946Y30498638D01*
X39474710Y30490680D01*
X39464777Y30506774D01*
X39434894Y30565033D01*
X39386824Y30662934D01*
X39321976Y30797493D01*
X39241758Y30965725D01*
X39147578Y31164646D01*
X39040845Y31391272D01*
X38922966Y31642619D01*
X38795350Y31915702D01*
X38659406Y32207536D01*
X38516541Y32515139D01*
X38368164Y32835525D01*
X38245585Y33100389D01*
X38102077Y33409975D01*
X37965461Y33704149D01*
X37837127Y33979950D01*
X37718462Y34234412D01*
X37610854Y34464572D01*
X37515692Y34667466D01*
X37434364Y34840130D01*
X37368258Y34979599D01*
X37318763Y35082911D01*
X37287266Y35147101D01*
X37275156Y35169204D01*
X37266869Y35148444D01*
X37244736Y35083290D01*
X37209817Y34976757D01*
X37163088Y34831930D01*
X37105527Y34651891D01*
X37038111Y34439726D01*
X36961818Y34198518D01*
X36877625Y33931351D01*
X36786510Y33641309D01*
X36689451Y33331476D01*
X36587423Y33004935D01*
X36481406Y32664772D01*
X36380860Y32341917D01*
X36278826Y32014596D01*
X36181844Y31703805D01*
X36090883Y31412630D01*
X36006909Y31144155D01*
X35930890Y30901463D01*
X35863791Y30687640D01*
X35806581Y30505769D01*
X35760227Y30358935D01*
X35725694Y30250223D01*
X35703951Y30182716D01*
X35695963Y30159498D01*
X35694049Y30160202D01*
X35660288Y30175510D01*
X35588843Y30208827D01*
X35485334Y30257504D01*
X35355383Y30318893D01*
X35204611Y30390344D01*
X35038639Y30469209D01*
X35000401Y30487456D01*
X34835783Y30567302D01*
X34689065Y30640530D01*
X34565668Y30704290D01*
X34471015Y30755734D01*
X34410527Y30792011D01*
X34389626Y30810274D01*
X34394724Y30824752D01*
X34417613Y30882039D01*
X34457707Y30979702D01*
X34513710Y31114662D01*
X34584330Y31283836D01*
X34668273Y31484144D01*
X34764245Y31712504D01*
X34870952Y31965835D01*
X34987101Y32241055D01*
X35111397Y32535083D01*
X35242547Y32844838D01*
X35379257Y33167238D01*
X35478704Y33401745D01*
X35611079Y33714398D01*
X35736756Y34011804D01*
X35854463Y34290923D01*
X35962927Y34548716D01*
X36060875Y34782142D01*
X36147033Y34988161D01*
X36220129Y35163733D01*
X36278889Y35305819D01*
X36322041Y35411377D01*
X36348312Y35477369D01*
X36356428Y35500753D01*
X36342626Y35504458D01*
X36284187Y35518559D01*
X36182969Y35542424D01*
X36042194Y35575307D01*
X35865083Y35616465D01*
X35654858Y35665151D01*
X35414740Y35720621D01*
X35147952Y35782131D01*
X34857713Y35848935D01*
X34547247Y35920289D01*
X34219774Y35995447D01*
X33878516Y36073666D01*
X33628462Y36131003D01*
X33296655Y36207280D01*
X32980875Y36280091D01*
X32684357Y36348682D01*
X32608268Y36366346D01*
X37049295Y36366346D01*
X37256044Y35960272D01*
X37462793Y35554199D01*
X40302930Y34742928D01*
X40548398Y34672827D01*
X40904055Y34571315D01*
X41244480Y34474219D01*
X41566722Y34382375D01*
X41867829Y34296624D01*
X42144850Y34217804D01*
X42394834Y34146753D01*
X42614829Y34084310D01*
X42801883Y34031315D01*
X42953046Y33988605D01*
X43065366Y33957019D01*
X43135891Y33937396D01*
X43161670Y33930574D01*
X43162140Y33930551D01*
X43180274Y33940883D01*
X43183489Y33961718D01*
X43194320Y34026451D01*
X43211861Y34129486D01*
X43235150Y34265213D01*
X43263222Y34428017D01*
X43295116Y34612289D01*
X43329867Y34812416D01*
X43360648Y34990551D01*
X43392324Y35176529D01*
X43419941Y35341546D01*
X43442589Y35480021D01*
X43459356Y35586377D01*
X43469331Y35655034D01*
X43471604Y35680415D01*
X43462314Y35682405D01*
X43409888Y35691548D01*
X43314625Y35707438D01*
X43180380Y35729459D01*
X43011008Y35756997D01*
X42810363Y35789437D01*
X42582302Y35826163D01*
X42330680Y35866560D01*
X42059351Y35910012D01*
X41772170Y35955905D01*
X41472993Y36003623D01*
X41165675Y36052552D01*
X40854071Y36102075D01*
X40542036Y36151577D01*
X40233425Y36200444D01*
X39932093Y36248060D01*
X39641895Y36293810D01*
X39366688Y36337079D01*
X39110324Y36377251D01*
X38876661Y36413711D01*
X38845549Y36418585D01*
X38696477Y36442864D01*
X38565512Y36465674D01*
X38460394Y36485565D01*
X38388867Y36501085D01*
X38358671Y36510783D01*
X38363504Y36527457D01*
X38388753Y36585754D01*
X38433973Y36683060D01*
X38497753Y36816514D01*
X38578684Y36983254D01*
X38675357Y37180420D01*
X38786362Y37405150D01*
X38910291Y37654584D01*
X39045733Y37925859D01*
X39191279Y38216115D01*
X39345521Y38522491D01*
X39507048Y38842125D01*
X39646844Y39118438D01*
X39800974Y39423546D01*
X39947219Y39713537D01*
X40084123Y39985498D01*
X40210229Y40236517D01*
X40324080Y40463684D01*
X40424219Y40664085D01*
X40509188Y40834809D01*
X40577531Y40972944D01*
X40627790Y41075578D01*
X40658508Y41139799D01*
X40668229Y41162696D01*
X40660774Y41167384D01*
X40615820Y41191165D01*
X40535935Y41231639D01*
X40427228Y41285833D01*
X40295808Y41350774D01*
X40147785Y41423489D01*
X39989267Y41501006D01*
X39826364Y41580353D01*
X39665185Y41658555D01*
X39511838Y41732641D01*
X39372434Y41799638D01*
X39253080Y41856573D01*
X39159888Y41900473D01*
X39098964Y41928366D01*
X39076419Y41937278D01*
X39071878Y41925734D01*
X39051690Y41871504D01*
X39016344Y41775476D01*
X38966886Y41640521D01*
X38904363Y41469508D01*
X38829822Y41265307D01*
X38744307Y41030787D01*
X38648866Y40768818D01*
X38544544Y40482270D01*
X38432388Y40174012D01*
X38313444Y39846913D01*
X38188759Y39503844D01*
X38059378Y39147675D01*
X37049295Y36366346D01*
X32608268Y36366346D01*
X32410334Y36412296D01*
X32162040Y36470175D01*
X31942710Y36521566D01*
X31755578Y36565710D01*
X31603877Y36601852D01*
X31490843Y36629235D01*
X31419708Y36647104D01*
X31393708Y36654701D01*
X31393600Y36654830D01*
X31394720Y36682724D01*
X31403815Y36751637D01*
X31419552Y36854102D01*
X31440596Y36982650D01*
X31465612Y37129813D01*
X31493267Y37288125D01*
X31522224Y37450115D01*
X31551151Y37608317D01*
X31578711Y37755263D01*
X31603572Y37883484D01*
X31624398Y37985513D01*
X31639855Y38053881D01*
X31648608Y38081121D01*
X31669932Y38075408D01*
X31735358Y38054852D01*
X31841824Y38020365D01*
X31986250Y37972971D01*
X32165560Y37913696D01*
X32376677Y37843563D01*
X32616522Y37763598D01*
X32882018Y37674823D01*
X33170088Y37578265D01*
X33477654Y37474946D01*
X33801639Y37365892D01*
X34138965Y37252128D01*
X34454383Y37145736D01*
X34779281Y37036334D01*
X35087937Y36932590D01*
X35377276Y36835529D01*
X35644225Y36746177D01*
X35885708Y36665557D01*
X36098650Y36594696D01*
X36279976Y36534618D01*
X36426612Y36486348D01*
X36535483Y36450911D01*
X36603513Y36429331D01*
X36627629Y36422633D01*
X36620051Y36438845D01*
X36590058Y36495603D01*
X36538774Y36590389D01*
X36467773Y36720347D01*
X36378632Y36882623D01*
X36272929Y37074362D01*
X36152238Y37292709D01*
X36018137Y37534810D01*
X35872202Y37797809D01*
X35716009Y38078852D01*
X35551134Y38375084D01*
X35379154Y38683650D01*
X35234179Y38943674D01*
X35067637Y39242603D01*
X34909329Y39526992D01*
X34760849Y39793965D01*
X34623795Y40040644D01*
X34499760Y40264152D01*
X34390341Y40461610D01*
X34297133Y40630143D01*
X34221732Y40766872D01*
X34165733Y40868920D01*
X34130732Y40933410D01*
X34118323Y40957465D01*
X34118598Y40958345D01*
X34144198Y40976640D01*
X34206589Y41013329D01*
X34299164Y41064960D01*
X34415312Y41128080D01*
X34548424Y41199235D01*
X34691892Y41274971D01*
X34839107Y41351836D01*
X34983458Y41426375D01*
X35118338Y41495137D01*
X35237136Y41554666D01*
X35333244Y41601511D01*
X35400053Y41632217D01*
X35430953Y41643331D01*
X35431146Y41643291D01*
X35445823Y41619323D01*
X35479086Y41553339D01*
X35529467Y41448532D01*
X35595496Y41308095D01*
X35675707Y41135220D01*
X35768630Y40933102D01*
X35872798Y40704932D01*
X35986742Y40453904D01*
X36108994Y40183211D01*
X36238086Y39896046D01*
X36372549Y39595602D01*
X36378163Y39583032D01*
X36512319Y39282901D01*
X36640794Y38995988D01*
X36762138Y38725504D01*
X36874900Y38474657D01*
X36977630Y38246659D01*
X37068877Y38044719D01*
X37147191Y37872046D01*
X37211122Y37731852D01*
X37259219Y37627345D01*
X37290033Y37561736D01*
X37302113Y37538234D01*
X37305125Y37543051D01*
X37323268Y37586095D01*
X37356523Y37671128D01*
X37403723Y37795006D01*
X37463703Y37954584D01*
X37535297Y38146719D01*
X37617339Y38368267D01*
X37708663Y38616084D01*
X37808104Y38887026D01*
X37914495Y39177948D01*
X38026671Y39485707D01*
X38143466Y39807158D01*
X38198491Y39958791D01*
X38313553Y40275558D01*
X38423507Y40577843D01*
X38527175Y40862430D01*
X38623379Y41126101D01*
X38710940Y41365642D01*
X38788682Y41577834D01*
X38855427Y41759462D01*
X38909996Y41907309D01*
X38951213Y42018159D01*
X38977898Y42088795D01*
X38988875Y42116000D01*
X38992600Y42118665D01*
X39022144Y42115660D01*
X39081578Y42095477D01*
X39173691Y42056906D01*
X39301271Y41998738D01*
X39467109Y41919762D01*
X39673993Y41818769D01*
X39686699Y41812514D01*
X39870942Y41722041D01*
X40054504Y41632259D01*
X40228629Y41547427D01*
X40384556Y41471804D01*
X40513529Y41409650D01*
X40606787Y41365221D01*
X40710030Y41315386D01*
X40794806Y41272172D01*
X40851990Y41240380D01*
X40872828Y41224635D01*
X40865232Y41208097D01*
X40836721Y41150057D01*
X40788444Y41053140D01*
X40721881Y40920278D01*
X40638509Y40754403D01*
X40539808Y40558448D01*
X40427256Y40335345D01*
X40302331Y40088025D01*
X40166511Y39819422D01*
X40021275Y39532468D01*
X39868102Y39230095D01*
X39708469Y38915234D01*
X39575064Y38651957D01*
X39421259Y38347754D01*
X39275435Y38058621D01*
X39139044Y37787472D01*
X39013540Y37537222D01*
X38900375Y37310784D01*
X38801002Y37111072D01*
X38716874Y36941000D01*
X38649443Y36803482D01*
X38600162Y36701431D01*
X38570484Y36637762D01*
X38561862Y36615388D01*
X38566220Y36614482D01*
X38605354Y36607768D01*
X38685205Y36594670D01*
X38806466Y36575077D01*
X38969826Y36548880D01*
X39175977Y36515969D01*
X39425608Y36476235D01*
X39719412Y36429567D01*
X40058079Y36375856D01*
X40442299Y36314992D01*
X40872765Y36246866D01*
X41350165Y36171367D01*
X41875192Y36088386D01*
X42448536Y35997812D01*
X42471602Y35994169D01*
X42706880Y35956916D01*
X42926284Y35922025D01*
X43125080Y35890259D01*
X43298535Y35862381D01*
X43441917Y35839155D01*
X43550490Y35821344D01*
X43619523Y35809711D01*
X43644282Y35805018D01*
X43644072Y35800812D01*
X43637934Y35758238D01*
X43625480Y35680415D01*
X43624456Y35674015D01*
G37*
M02*
