G04 #@! TF.GenerationSoftware,KiCad,Pcbnew,(5.99.0-11105-gfb4343bc8f)*
G04 #@! TF.CreationDate,2021-06-29T16:28:08+01:00*
G04 #@! TF.ProjectId,NB3_power,4e42335f-706f-4776-9572-2e6b69636164,0.0.1*
G04 #@! TF.SameCoordinates,PX7bfa480PY7bfa480*
G04 #@! TF.FileFunction,Copper,L2,Bot*
G04 #@! TF.FilePolarity,Positive*
%FSLAX46Y46*%
G04 Gerber Fmt 4.6, Leading zero omitted, Abs format (unit mm)*
G04 Created by KiCad (PCBNEW (5.99.0-11105-gfb4343bc8f)) date 2021-06-29 16:28:08*
%MOMM*%
%LPD*%
G01*
G04 APERTURE LIST*
G04 #@! TA.AperFunction,ComponentPad*
%ADD10C,4.500000*%
G04 #@! TD*
G04 #@! TA.AperFunction,ComponentPad*
%ADD11C,0.500000*%
G04 #@! TD*
G04 #@! TA.AperFunction,SMDPad,CuDef*
%ADD12R,1.800000X4.400000*%
G04 #@! TD*
G04 #@! TA.AperFunction,ViaPad*
%ADD13C,0.600000*%
G04 #@! TD*
G04 #@! TA.AperFunction,Conductor*
%ADD14C,0.150000*%
G04 #@! TD*
G04 APERTURE END LIST*
D10*
X3500000Y3000000D03*
X46500000Y41000000D03*
X46500000Y3000000D03*
X3500000Y41000000D03*
D11*
X30600000Y23300000D03*
X31900000Y23300000D03*
D12*
X31250000Y22650000D03*
D11*
X31900000Y24600000D03*
X31900000Y22000000D03*
X30600000Y22000000D03*
X30600000Y20700000D03*
X31900000Y20700000D03*
X30600000Y24600000D03*
D13*
X31250000Y19150000D03*
X20000000Y26400000D03*
X30500000Y35587500D03*
X42500000Y16000000D03*
X29500000Y37500000D03*
X31250000Y15900000D03*
X25000000Y18400000D03*
X1250000Y38500000D03*
X31750000Y26650000D03*
X20000000Y18400000D03*
X43500000Y16000000D03*
X23500000Y37500000D03*
X30000000Y15900000D03*
X32000000Y35587500D03*
X25000000Y26400000D03*
X1250000Y29500000D03*
X30500000Y26650000D03*
X22500000Y26400000D03*
X32500000Y15900000D03*
X22500000Y18400000D03*
X40300000Y25400000D03*
X28700000Y25400000D03*
X25100000Y35000000D03*
X18000000Y35000000D03*
X16000000Y11800000D03*
X16000000Y32400000D03*
X16000000Y19600000D03*
X16000000Y25000000D03*
X27100000Y9400000D03*
X27100000Y21315000D03*
D14*
X40300000Y25400000D02*
X28700000Y25400000D01*
X25100000Y35000000D02*
X18000000Y35000000D01*
X16000000Y32400000D02*
X16000000Y25000000D01*
X16000000Y11800000D02*
X16000000Y19600000D01*
X27100000Y9400000D02*
X27100000Y21315000D01*
G04 #@! TA.AperFunction,Conductor*
G36*
X2684590Y43680038D02*
G01*
X2739128Y43625500D01*
X2759090Y43551000D01*
X2739128Y43476500D01*
X2684590Y43421962D01*
X2664940Y43412463D01*
X2411921Y43312286D01*
X2130695Y43157680D01*
X2126916Y43154935D01*
X2126909Y43154930D01*
X1874848Y42971797D01*
X1871063Y42969047D01*
X1637121Y42749360D01*
X1634133Y42745749D01*
X1634130Y42745745D01*
X1435542Y42505694D01*
X1435537Y42505688D01*
X1432557Y42502085D01*
X1430054Y42498141D01*
X1430049Y42498134D01*
X1280560Y42262576D01*
X1260598Y42231122D01*
X1123956Y41940742D01*
X1024786Y41635527D01*
X964651Y41320289D01*
X964358Y41315628D01*
X964357Y41315622D01*
X951408Y41109799D01*
X944500Y41000000D01*
X964651Y40679711D01*
X1024786Y40364473D01*
X1123956Y40059258D01*
X1260598Y39768878D01*
X1263108Y39764923D01*
X1430049Y39501866D01*
X1430054Y39501859D01*
X1432557Y39497915D01*
X1435537Y39494312D01*
X1435542Y39494306D01*
X1634130Y39254255D01*
X1637121Y39250640D01*
X1871063Y39030953D01*
X1874848Y39028203D01*
X2126909Y38845070D01*
X2126916Y38845065D01*
X2130695Y38842320D01*
X2411921Y38687714D01*
X2710307Y38569575D01*
X2714834Y38568413D01*
X2714836Y38568412D01*
X2800921Y38546309D01*
X3021147Y38489765D01*
X3025783Y38489179D01*
X3025790Y38489178D01*
X3334892Y38450130D01*
X3339539Y38449543D01*
X3660461Y38449543D01*
X3665108Y38450130D01*
X3974210Y38489178D01*
X3974217Y38489179D01*
X3978853Y38489765D01*
X4199079Y38546309D01*
X4285164Y38568412D01*
X4285166Y38568413D01*
X4289693Y38569575D01*
X4588079Y38687714D01*
X4869305Y38842320D01*
X4873084Y38845065D01*
X4873091Y38845070D01*
X5125152Y39028203D01*
X5128937Y39030953D01*
X5362879Y39250640D01*
X5365870Y39254255D01*
X5564458Y39494306D01*
X5564463Y39494312D01*
X5567443Y39497915D01*
X5569946Y39501859D01*
X5569951Y39501866D01*
X5736892Y39764923D01*
X5739402Y39768878D01*
X5876044Y40059258D01*
X5975214Y40364473D01*
X6035349Y40679711D01*
X6055500Y41000000D01*
X6048592Y41109799D01*
X6035643Y41315622D01*
X6035642Y41315628D01*
X6035349Y41320289D01*
X5975214Y41635527D01*
X5876044Y41940742D01*
X5739402Y42231122D01*
X5719440Y42262576D01*
X5569951Y42498134D01*
X5569946Y42498141D01*
X5567443Y42502085D01*
X5564463Y42505688D01*
X5564458Y42505694D01*
X5365870Y42745745D01*
X5365867Y42745749D01*
X5362879Y42749360D01*
X5128937Y42969047D01*
X5125152Y42971797D01*
X4873091Y43154930D01*
X4873084Y43154935D01*
X4869305Y43157680D01*
X4588079Y43312286D01*
X4335060Y43412463D01*
X4273140Y43458449D01*
X4242508Y43529233D01*
X4251373Y43605850D01*
X4297359Y43667770D01*
X4368143Y43698402D01*
X4389910Y43700000D01*
X45610090Y43700000D01*
X45684590Y43680038D01*
X45739128Y43625500D01*
X45759090Y43551000D01*
X45739128Y43476500D01*
X45684590Y43421962D01*
X45664940Y43412463D01*
X45411921Y43312286D01*
X45130695Y43157680D01*
X45126916Y43154935D01*
X45126909Y43154930D01*
X44874848Y42971797D01*
X44871063Y42969047D01*
X44637121Y42749360D01*
X44634133Y42745749D01*
X44634130Y42745745D01*
X44435542Y42505694D01*
X44435537Y42505688D01*
X44432557Y42502085D01*
X44430054Y42498141D01*
X44430049Y42498134D01*
X44280560Y42262576D01*
X44260598Y42231122D01*
X44123956Y41940742D01*
X44024786Y41635527D01*
X43964651Y41320289D01*
X43964358Y41315628D01*
X43964357Y41315622D01*
X43951408Y41109799D01*
X43944500Y41000000D01*
X43964651Y40679711D01*
X44024786Y40364473D01*
X44123956Y40059258D01*
X44260598Y39768878D01*
X44263108Y39764923D01*
X44430049Y39501866D01*
X44430054Y39501859D01*
X44432557Y39497915D01*
X44435537Y39494312D01*
X44435542Y39494306D01*
X44634130Y39254255D01*
X44637121Y39250640D01*
X44871063Y39030953D01*
X44874848Y39028203D01*
X45126909Y38845070D01*
X45126916Y38845065D01*
X45130695Y38842320D01*
X45411921Y38687714D01*
X45710307Y38569575D01*
X45714834Y38568413D01*
X45714836Y38568412D01*
X45800921Y38546309D01*
X46021147Y38489765D01*
X46025783Y38489179D01*
X46025790Y38489178D01*
X46334892Y38450130D01*
X46339539Y38449543D01*
X46660461Y38449543D01*
X46665108Y38450130D01*
X46974210Y38489178D01*
X46974217Y38489179D01*
X46978853Y38489765D01*
X47199079Y38546309D01*
X47285164Y38568412D01*
X47285166Y38568413D01*
X47289693Y38569575D01*
X47588079Y38687714D01*
X47869305Y38842320D01*
X47873084Y38845065D01*
X47873091Y38845070D01*
X48125152Y39028203D01*
X48128937Y39030953D01*
X48362879Y39250640D01*
X48365870Y39254255D01*
X48564458Y39494306D01*
X48564463Y39494312D01*
X48567443Y39497915D01*
X48569946Y39501859D01*
X48569951Y39501866D01*
X48736892Y39764923D01*
X48739402Y39768878D01*
X48876044Y40059258D01*
X48975214Y40364473D01*
X49035349Y40679711D01*
X49055500Y41000000D01*
X49048592Y41109799D01*
X49035643Y41315622D01*
X49035642Y41315628D01*
X49035349Y41320289D01*
X48975214Y41635527D01*
X48876044Y41940742D01*
X48739402Y42231122D01*
X48719440Y42262576D01*
X48569951Y42498134D01*
X48569946Y42498141D01*
X48567443Y42502085D01*
X48564463Y42505688D01*
X48564458Y42505694D01*
X48365870Y42745745D01*
X48365867Y42745749D01*
X48362879Y42749360D01*
X48128937Y42969047D01*
X48125152Y42971797D01*
X47873091Y43154930D01*
X47873084Y43154935D01*
X47869305Y43157680D01*
X47588079Y43312286D01*
X47335060Y43412463D01*
X47273140Y43458449D01*
X47242508Y43529233D01*
X47251373Y43605850D01*
X47297359Y43667770D01*
X47368143Y43698402D01*
X47389910Y43700000D01*
X47814018Y43700000D01*
X47888518Y43680038D01*
X47919377Y43656359D01*
X50656359Y40919377D01*
X50694923Y40852582D01*
X50700000Y40814018D01*
X50700000Y3185982D01*
X50680038Y3111482D01*
X50656359Y3080623D01*
X47919377Y343641D01*
X47852582Y305077D01*
X47814018Y300000D01*
X47389910Y300000D01*
X47315410Y319962D01*
X47260872Y374500D01*
X47240910Y449000D01*
X47260872Y523500D01*
X47315410Y578038D01*
X47335060Y587537D01*
X47583730Y685992D01*
X47583732Y685993D01*
X47588079Y687714D01*
X47869305Y842320D01*
X47873084Y845065D01*
X47873091Y845070D01*
X48125152Y1028203D01*
X48128937Y1030953D01*
X48362879Y1250640D01*
X48365870Y1254255D01*
X48564458Y1494306D01*
X48564463Y1494312D01*
X48567443Y1497915D01*
X48569946Y1501859D01*
X48569951Y1501866D01*
X48736892Y1764923D01*
X48739402Y1768878D01*
X48876044Y2059258D01*
X48975214Y2364473D01*
X49035349Y2679711D01*
X49042220Y2788911D01*
X49055206Y2995327D01*
X49055500Y3000000D01*
X49035349Y3320289D01*
X48975214Y3635527D01*
X48876044Y3940742D01*
X48739402Y4231122D01*
X48719440Y4262576D01*
X48569951Y4498134D01*
X48569946Y4498141D01*
X48567443Y4502085D01*
X48564463Y4505688D01*
X48564458Y4505694D01*
X48365870Y4745745D01*
X48365867Y4745749D01*
X48362879Y4749360D01*
X48128937Y4969047D01*
X48125152Y4971797D01*
X47873091Y5154930D01*
X47873084Y5154935D01*
X47869305Y5157680D01*
X47588079Y5312286D01*
X47289693Y5430425D01*
X47285166Y5431587D01*
X47285164Y5431588D01*
X47199079Y5453691D01*
X46978853Y5510235D01*
X46974217Y5510821D01*
X46974210Y5510822D01*
X46665108Y5549870D01*
X46665107Y5549870D01*
X46660461Y5550457D01*
X46339539Y5550457D01*
X46334893Y5549870D01*
X46334892Y5549870D01*
X46025790Y5510822D01*
X46025783Y5510821D01*
X46021147Y5510235D01*
X45800921Y5453691D01*
X45714836Y5431588D01*
X45714834Y5431587D01*
X45710307Y5430425D01*
X45411921Y5312286D01*
X45130695Y5157680D01*
X45126916Y5154935D01*
X45126909Y5154930D01*
X44874848Y4971797D01*
X44871063Y4969047D01*
X44637121Y4749360D01*
X44634133Y4745749D01*
X44634130Y4745745D01*
X44435542Y4505694D01*
X44435537Y4505688D01*
X44432557Y4502085D01*
X44430054Y4498141D01*
X44430049Y4498134D01*
X44280560Y4262576D01*
X44260598Y4231122D01*
X44123956Y3940742D01*
X44024786Y3635527D01*
X43964651Y3320289D01*
X43944500Y3000000D01*
X43944794Y2995327D01*
X43957781Y2788911D01*
X43964651Y2679711D01*
X44024786Y2364473D01*
X44123956Y2059258D01*
X44260598Y1768878D01*
X44263108Y1764923D01*
X44430049Y1501866D01*
X44430054Y1501859D01*
X44432557Y1497915D01*
X44435537Y1494312D01*
X44435542Y1494306D01*
X44634130Y1254255D01*
X44637121Y1250640D01*
X44871063Y1030953D01*
X44874848Y1028203D01*
X45126909Y845070D01*
X45126916Y845065D01*
X45130695Y842320D01*
X45411921Y687714D01*
X45416268Y685993D01*
X45416270Y685992D01*
X45664940Y587537D01*
X45726860Y541551D01*
X45757492Y470767D01*
X45748627Y394150D01*
X45702641Y332230D01*
X45631857Y301598D01*
X45610090Y300000D01*
X4389910Y300000D01*
X4315410Y319962D01*
X4260872Y374500D01*
X4240910Y449000D01*
X4260872Y523500D01*
X4315410Y578038D01*
X4335060Y587537D01*
X4583730Y685992D01*
X4583732Y685993D01*
X4588079Y687714D01*
X4869305Y842320D01*
X4873084Y845065D01*
X4873091Y845070D01*
X5125152Y1028203D01*
X5128937Y1030953D01*
X5362879Y1250640D01*
X5365870Y1254255D01*
X5564458Y1494306D01*
X5564463Y1494312D01*
X5567443Y1497915D01*
X5569946Y1501859D01*
X5569951Y1501866D01*
X5736892Y1764923D01*
X5739402Y1768878D01*
X5876044Y2059258D01*
X5975214Y2364473D01*
X6035349Y2679711D01*
X6042220Y2788911D01*
X6055206Y2995327D01*
X6055500Y3000000D01*
X6035349Y3320289D01*
X5975214Y3635527D01*
X5876044Y3940742D01*
X5739402Y4231122D01*
X5719440Y4262576D01*
X5569951Y4498134D01*
X5569946Y4498141D01*
X5567443Y4502085D01*
X5564463Y4505688D01*
X5564458Y4505694D01*
X5365870Y4745745D01*
X5365867Y4745749D01*
X5362879Y4749360D01*
X5128937Y4969047D01*
X5125152Y4971797D01*
X4873091Y5154930D01*
X4873084Y5154935D01*
X4869305Y5157680D01*
X4588079Y5312286D01*
X4289693Y5430425D01*
X4285166Y5431587D01*
X4285164Y5431588D01*
X4199079Y5453691D01*
X3978853Y5510235D01*
X3974217Y5510821D01*
X3974210Y5510822D01*
X3665108Y5549870D01*
X3665107Y5549870D01*
X3660461Y5550457D01*
X3339539Y5550457D01*
X3334893Y5549870D01*
X3334892Y5549870D01*
X3025790Y5510822D01*
X3025783Y5510821D01*
X3021147Y5510235D01*
X2800921Y5453691D01*
X2714836Y5431588D01*
X2714834Y5431587D01*
X2710307Y5430425D01*
X2411921Y5312286D01*
X2130695Y5157680D01*
X2126916Y5154935D01*
X2126909Y5154930D01*
X1874848Y4971797D01*
X1871063Y4969047D01*
X1637121Y4749360D01*
X1634133Y4745749D01*
X1634130Y4745745D01*
X1435542Y4505694D01*
X1435537Y4505688D01*
X1432557Y4502085D01*
X1430054Y4498141D01*
X1430049Y4498134D01*
X1280560Y4262576D01*
X1260598Y4231122D01*
X1123956Y3940742D01*
X1024786Y3635527D01*
X964651Y3320289D01*
X944500Y3000000D01*
X944794Y2995327D01*
X957781Y2788911D01*
X964651Y2679711D01*
X1024786Y2364473D01*
X1123956Y2059258D01*
X1260598Y1768878D01*
X1263108Y1764923D01*
X1430049Y1501866D01*
X1430054Y1501859D01*
X1432557Y1497915D01*
X1435537Y1494312D01*
X1435542Y1494306D01*
X1634130Y1254255D01*
X1637121Y1250640D01*
X1871063Y1030953D01*
X1874848Y1028203D01*
X2126909Y845070D01*
X2126916Y845065D01*
X2130695Y842320D01*
X2411921Y687714D01*
X2416268Y685993D01*
X2416270Y685992D01*
X2664940Y587537D01*
X2726860Y541551D01*
X2757492Y470767D01*
X2748627Y394150D01*
X2702641Y332230D01*
X2631857Y301598D01*
X2610090Y300000D01*
X2185982Y300000D01*
X2111482Y319962D01*
X2080623Y343641D01*
X343641Y2080623D01*
X305077Y2147418D01*
X300000Y2185982D01*
X300000Y19600000D01*
X15394500Y19600000D01*
X15415132Y19443285D01*
X15475622Y19297250D01*
X15571847Y19171847D01*
X15579596Y19165901D01*
X15580859Y19164638D01*
X15619423Y19097843D01*
X15624500Y19059279D01*
X15624500Y12340721D01*
X15604538Y12266221D01*
X15580859Y12235362D01*
X15579596Y12234099D01*
X15571847Y12228153D01*
X15475622Y12102750D01*
X15415132Y11956715D01*
X15394500Y11800000D01*
X15415132Y11643285D01*
X15475622Y11497250D01*
X15571847Y11371847D01*
X15697250Y11275622D01*
X15843285Y11215132D01*
X15852967Y11213857D01*
X15852968Y11213857D01*
X15990315Y11195775D01*
X16000000Y11194500D01*
X16009685Y11195775D01*
X16147032Y11213857D01*
X16147033Y11213857D01*
X16156715Y11215132D01*
X16302750Y11275622D01*
X16428153Y11371847D01*
X16524378Y11497250D01*
X16584868Y11643285D01*
X16605500Y11800000D01*
X16584868Y11956715D01*
X16524378Y12102750D01*
X16428153Y12228153D01*
X16420404Y12234099D01*
X16419141Y12235362D01*
X16380577Y12302157D01*
X16375500Y12340721D01*
X16375500Y19059279D01*
X16395462Y19133779D01*
X16419141Y19164638D01*
X16420404Y19165901D01*
X16428153Y19171847D01*
X16524378Y19297250D01*
X16584868Y19443285D01*
X16605500Y19600000D01*
X16584868Y19756715D01*
X16524378Y19902750D01*
X16428153Y20028153D01*
X16302750Y20124378D01*
X16156715Y20184868D01*
X16147033Y20186143D01*
X16147032Y20186143D01*
X16009685Y20204225D01*
X16000000Y20205500D01*
X15990315Y20204225D01*
X15852968Y20186143D01*
X15852967Y20186143D01*
X15843285Y20184868D01*
X15697250Y20124378D01*
X15571847Y20028153D01*
X15475622Y19902750D01*
X15415132Y19756715D01*
X15394500Y19600000D01*
X300000Y19600000D01*
X300000Y21315000D01*
X26494500Y21315000D01*
X26515132Y21158285D01*
X26575622Y21012250D01*
X26671847Y20886847D01*
X26679596Y20880901D01*
X26680859Y20879638D01*
X26719423Y20812843D01*
X26724500Y20774279D01*
X26724500Y9940721D01*
X26704538Y9866221D01*
X26680859Y9835362D01*
X26679596Y9834099D01*
X26671847Y9828153D01*
X26575622Y9702750D01*
X26515132Y9556715D01*
X26494500Y9400000D01*
X26515132Y9243285D01*
X26575622Y9097250D01*
X26671847Y8971847D01*
X26797250Y8875622D01*
X26943285Y8815132D01*
X26952967Y8813857D01*
X26952968Y8813857D01*
X27090315Y8795775D01*
X27100000Y8794500D01*
X27109685Y8795775D01*
X27247032Y8813857D01*
X27247033Y8813857D01*
X27256715Y8815132D01*
X27402750Y8875622D01*
X27528153Y8971847D01*
X27624378Y9097250D01*
X27684868Y9243285D01*
X27705500Y9400000D01*
X27684868Y9556715D01*
X27624378Y9702750D01*
X27528153Y9828153D01*
X27520404Y9834099D01*
X27519141Y9835362D01*
X27480577Y9902157D01*
X27475500Y9940721D01*
X27475500Y20774279D01*
X27495462Y20848779D01*
X27519141Y20879638D01*
X27520404Y20880901D01*
X27528153Y20886847D01*
X27624378Y21012250D01*
X27684868Y21158285D01*
X27705500Y21315000D01*
X27684868Y21471715D01*
X27624378Y21617750D01*
X27528153Y21743153D01*
X27402750Y21839378D01*
X27256715Y21899868D01*
X27247033Y21901143D01*
X27247032Y21901143D01*
X27109685Y21919225D01*
X27100000Y21920500D01*
X27090315Y21919225D01*
X26952968Y21901143D01*
X26952967Y21901143D01*
X26943285Y21899868D01*
X26797250Y21839378D01*
X26671847Y21743153D01*
X26575622Y21617750D01*
X26515132Y21471715D01*
X26494500Y21315000D01*
X300000Y21315000D01*
X300000Y23000000D01*
X1944500Y23000000D01*
X1964333Y22773302D01*
X2023231Y22553493D01*
X2119404Y22347250D01*
X2123135Y22341922D01*
X2123137Y22341918D01*
X2199906Y22232282D01*
X2249929Y22160841D01*
X2410841Y21999929D01*
X2416167Y21996200D01*
X2591918Y21873137D01*
X2591922Y21873135D01*
X2597250Y21869404D01*
X2803493Y21773231D01*
X2809774Y21771548D01*
X3017024Y21716015D01*
X3017026Y21716015D01*
X3023302Y21714333D01*
X3029773Y21713767D01*
X3029778Y21713766D01*
X3243519Y21695067D01*
X3250000Y21694500D01*
X3256481Y21695067D01*
X3470222Y21713766D01*
X3470227Y21713767D01*
X3476698Y21714333D01*
X3482974Y21716015D01*
X3482976Y21716015D01*
X3690226Y21771548D01*
X3696507Y21773231D01*
X3902750Y21869404D01*
X3908078Y21873135D01*
X3908082Y21873137D01*
X4083833Y21996200D01*
X4089159Y21999929D01*
X4250071Y22160841D01*
X4300094Y22232282D01*
X4376863Y22341918D01*
X4376865Y22341922D01*
X4380596Y22347250D01*
X4476769Y22553493D01*
X4535667Y22773302D01*
X4555500Y23000000D01*
X4535667Y23226698D01*
X4476769Y23446507D01*
X4380596Y23652750D01*
X4376865Y23658078D01*
X4376863Y23658082D01*
X4253800Y23833833D01*
X4250071Y23839159D01*
X4089159Y24000071D01*
X4017718Y24050094D01*
X3908082Y24126863D01*
X3908078Y24126865D01*
X3902750Y24130596D01*
X3696507Y24226769D01*
X3690226Y24228452D01*
X3482976Y24283985D01*
X3482974Y24283985D01*
X3476698Y24285667D01*
X3470227Y24286233D01*
X3470222Y24286234D01*
X3256481Y24304933D01*
X3250000Y24305500D01*
X3243519Y24304933D01*
X3029778Y24286234D01*
X3029773Y24286233D01*
X3023302Y24285667D01*
X3017026Y24283985D01*
X3017024Y24283985D01*
X2809774Y24228452D01*
X2803493Y24226769D01*
X2597250Y24130596D01*
X2591922Y24126865D01*
X2591918Y24126863D01*
X2482282Y24050094D01*
X2410841Y24000071D01*
X2249929Y23839159D01*
X2246200Y23833833D01*
X2123137Y23658082D01*
X2123135Y23658078D01*
X2119404Y23652750D01*
X2023231Y23446507D01*
X1964333Y23226698D01*
X1944500Y23000000D01*
X300000Y23000000D01*
X300000Y32400000D01*
X15394500Y32400000D01*
X15415132Y32243285D01*
X15475622Y32097250D01*
X15571847Y31971847D01*
X15579596Y31965901D01*
X15580859Y31964638D01*
X15619423Y31897843D01*
X15624500Y31859279D01*
X15624500Y25540721D01*
X15604538Y25466221D01*
X15580859Y25435362D01*
X15579596Y25434099D01*
X15571847Y25428153D01*
X15475622Y25302750D01*
X15471884Y25293727D01*
X15471884Y25293726D01*
X15450991Y25243285D01*
X15415132Y25156715D01*
X15394500Y25000000D01*
X15415132Y24843285D01*
X15418869Y24834263D01*
X15435340Y24794500D01*
X15475622Y24697250D01*
X15571847Y24571847D01*
X15697250Y24475622D01*
X15843285Y24415132D01*
X15852967Y24413857D01*
X15852968Y24413857D01*
X15990315Y24395775D01*
X16000000Y24394500D01*
X16009685Y24395775D01*
X16147032Y24413857D01*
X16147033Y24413857D01*
X16156715Y24415132D01*
X16302750Y24475622D01*
X16428153Y24571847D01*
X16524378Y24697250D01*
X16564661Y24794500D01*
X16581131Y24834263D01*
X16584868Y24843285D01*
X16605500Y25000000D01*
X16584868Y25156715D01*
X16549009Y25243285D01*
X16528116Y25293726D01*
X16528116Y25293727D01*
X16524378Y25302750D01*
X16449756Y25400000D01*
X28094500Y25400000D01*
X28115132Y25243285D01*
X28118869Y25234263D01*
X28155002Y25147032D01*
X28175622Y25097250D01*
X28271847Y24971847D01*
X28397250Y24875622D01*
X28543285Y24815132D01*
X28552967Y24813857D01*
X28552968Y24813857D01*
X28690315Y24795775D01*
X28700000Y24794500D01*
X28709685Y24795775D01*
X28847032Y24813857D01*
X28847033Y24813857D01*
X28856715Y24815132D01*
X29002750Y24875622D01*
X29128153Y24971847D01*
X29134099Y24979596D01*
X29135362Y24980859D01*
X29202157Y25019423D01*
X29240721Y25024500D01*
X39759279Y25024500D01*
X39833779Y25004538D01*
X39864638Y24980859D01*
X39865901Y24979596D01*
X39871847Y24971847D01*
X39997250Y24875622D01*
X40143285Y24815132D01*
X40152967Y24813857D01*
X40152968Y24813857D01*
X40290315Y24795775D01*
X40300000Y24794500D01*
X40309685Y24795775D01*
X40447032Y24813857D01*
X40447033Y24813857D01*
X40456715Y24815132D01*
X40602750Y24875622D01*
X40728153Y24971847D01*
X40824378Y25097250D01*
X40844999Y25147032D01*
X40881131Y25234263D01*
X40884868Y25243285D01*
X40905500Y25400000D01*
X40901794Y25428153D01*
X40886143Y25547032D01*
X40886143Y25547033D01*
X40884868Y25556715D01*
X40824378Y25702750D01*
X40728153Y25828153D01*
X40602750Y25924378D01*
X40456715Y25984868D01*
X40447033Y25986143D01*
X40447032Y25986143D01*
X40309685Y26004225D01*
X40300000Y26005500D01*
X40290315Y26004225D01*
X40152968Y25986143D01*
X40152967Y25986143D01*
X40143285Y25984868D01*
X39997250Y25924378D01*
X39871847Y25828153D01*
X39865901Y25820404D01*
X39864638Y25819141D01*
X39797843Y25780577D01*
X39759279Y25775500D01*
X29240721Y25775500D01*
X29166221Y25795462D01*
X29135362Y25819141D01*
X29134099Y25820404D01*
X29128153Y25828153D01*
X29002750Y25924378D01*
X28856715Y25984868D01*
X28847033Y25986143D01*
X28847032Y25986143D01*
X28709685Y26004225D01*
X28700000Y26005500D01*
X28690315Y26004225D01*
X28552968Y25986143D01*
X28552967Y25986143D01*
X28543285Y25984868D01*
X28397250Y25924378D01*
X28271847Y25828153D01*
X28175622Y25702750D01*
X28115132Y25556715D01*
X28113857Y25547033D01*
X28113857Y25547032D01*
X28098206Y25428153D01*
X28094500Y25400000D01*
X16449756Y25400000D01*
X16428153Y25428153D01*
X16420404Y25434099D01*
X16419141Y25435362D01*
X16380577Y25502157D01*
X16375500Y25540721D01*
X16375500Y31859279D01*
X16395462Y31933779D01*
X16419141Y31964638D01*
X16420404Y31965901D01*
X16428153Y31971847D01*
X16524378Y32097250D01*
X16584868Y32243285D01*
X16605500Y32400000D01*
X16584868Y32556715D01*
X16524378Y32702750D01*
X16428153Y32828153D01*
X16302750Y32924378D01*
X16156715Y32984868D01*
X16147033Y32986143D01*
X16147032Y32986143D01*
X16009685Y33004225D01*
X16000000Y33005500D01*
X15990315Y33004225D01*
X15852968Y32986143D01*
X15852967Y32986143D01*
X15843285Y32984868D01*
X15697250Y32924378D01*
X15571847Y32828153D01*
X15475622Y32702750D01*
X15415132Y32556715D01*
X15394500Y32400000D01*
X300000Y32400000D01*
X300000Y35000000D01*
X17394500Y35000000D01*
X17415132Y34843285D01*
X17475622Y34697250D01*
X17571847Y34571847D01*
X17697250Y34475622D01*
X17843285Y34415132D01*
X17852967Y34413857D01*
X17852968Y34413857D01*
X17990315Y34395775D01*
X18000000Y34394500D01*
X18009685Y34395775D01*
X18147032Y34413857D01*
X18147033Y34413857D01*
X18156715Y34415132D01*
X18302750Y34475622D01*
X18428153Y34571847D01*
X18434099Y34579596D01*
X18435362Y34580859D01*
X18502157Y34619423D01*
X18540721Y34624500D01*
X24559279Y34624500D01*
X24633779Y34604538D01*
X24664638Y34580859D01*
X24665901Y34579596D01*
X24671847Y34571847D01*
X24797250Y34475622D01*
X24943285Y34415132D01*
X24952967Y34413857D01*
X24952968Y34413857D01*
X25090315Y34395775D01*
X25100000Y34394500D01*
X25109685Y34395775D01*
X25247032Y34413857D01*
X25247033Y34413857D01*
X25256715Y34415132D01*
X25402750Y34475622D01*
X25528153Y34571847D01*
X25624378Y34697250D01*
X25684868Y34843285D01*
X25705500Y35000000D01*
X25684868Y35156715D01*
X25624378Y35302750D01*
X25528153Y35428153D01*
X25402750Y35524378D01*
X25256715Y35584868D01*
X25247033Y35586143D01*
X25247032Y35586143D01*
X25109685Y35604225D01*
X25100000Y35605500D01*
X25090315Y35604225D01*
X24952968Y35586143D01*
X24952967Y35586143D01*
X24943285Y35584868D01*
X24797250Y35524378D01*
X24671847Y35428153D01*
X24665901Y35420404D01*
X24664638Y35419141D01*
X24597843Y35380577D01*
X24559279Y35375500D01*
X18540721Y35375500D01*
X18466221Y35395462D01*
X18435362Y35419141D01*
X18434099Y35420404D01*
X18428153Y35428153D01*
X18302750Y35524378D01*
X18156715Y35584868D01*
X18147033Y35586143D01*
X18147032Y35586143D01*
X18009685Y35604225D01*
X18000000Y35605500D01*
X17990315Y35604225D01*
X17852968Y35586143D01*
X17852967Y35586143D01*
X17843285Y35584868D01*
X17697250Y35524378D01*
X17571847Y35428153D01*
X17475622Y35302750D01*
X17415132Y35156715D01*
X17394500Y35000000D01*
X300000Y35000000D01*
X300000Y41814018D01*
X319962Y41888518D01*
X343641Y41919377D01*
X2080623Y43656359D01*
X2147418Y43694923D01*
X2185982Y43700000D01*
X2610090Y43700000D01*
X2684590Y43680038D01*
G37*
G04 #@! TD.AperFunction*
M02*
