G04 #@! TF.GenerationSoftware,KiCad,Pcbnew,8.0.2*
G04 #@! TF.CreationDate,2024-06-29T10:38:53+01:00*
G04 #@! TF.ProjectId,NB3_power,4e42335f-706f-4776-9572-2e6b69636164,0.0.5*
G04 #@! TF.SameCoordinates,PX7bfa480PY7c37510*
G04 #@! TF.FileFunction,Copper,L1,Top*
G04 #@! TF.FilePolarity,Positive*
%FSLAX46Y46*%
G04 Gerber Fmt 4.6, Leading zero omitted, Abs format (unit mm)*
G04 Created by KiCad (PCBNEW 8.0.2) date 2024-06-29 10:38:53*
%MOMM*%
%LPD*%
G01*
G04 APERTURE LIST*
G04 Aperture macros list*
%AMRoundRect*
0 Rectangle with rounded corners*
0 $1 Rounding radius*
0 $2 $3 $4 $5 $6 $7 $8 $9 X,Y pos of 4 corners*
0 Add a 4 corners polygon primitive as box body*
4,1,4,$2,$3,$4,$5,$6,$7,$8,$9,$2,$3,0*
0 Add four circle primitives for the rounded corners*
1,1,$1+$1,$2,$3*
1,1,$1+$1,$4,$5*
1,1,$1+$1,$6,$7*
1,1,$1+$1,$8,$9*
0 Add four rect primitives between the rounded corners*
20,1,$1+$1,$2,$3,$4,$5,0*
20,1,$1+$1,$4,$5,$6,$7,0*
20,1,$1+$1,$6,$7,$8,$9,0*
20,1,$1+$1,$8,$9,$2,$3,0*%
G04 Aperture macros list end*
G04 #@! TA.AperFunction,WasherPad*
%ADD10C,4.500000*%
G04 #@! TD*
G04 #@! TA.AperFunction,SMDPad,CuDef*
%ADD11RoundRect,0.243750X-0.456250X0.243750X-0.456250X-0.243750X0.456250X-0.243750X0.456250X0.243750X0*%
G04 #@! TD*
G04 #@! TA.AperFunction,SMDPad,CuDef*
%ADD12RoundRect,0.147500X-0.147500X-0.172500X0.147500X-0.172500X0.147500X0.172500X-0.147500X0.172500X0*%
G04 #@! TD*
G04 #@! TA.AperFunction,SMDPad,CuDef*
%ADD13RoundRect,0.135000X0.185000X-0.135000X0.185000X0.135000X-0.185000X0.135000X-0.185000X-0.135000X0*%
G04 #@! TD*
G04 #@! TA.AperFunction,SMDPad,CuDef*
%ADD14RoundRect,0.243750X0.456250X-0.243750X0.456250X0.243750X-0.456250X0.243750X-0.456250X-0.243750X0*%
G04 #@! TD*
G04 #@! TA.AperFunction,SMDPad,CuDef*
%ADD15RoundRect,0.218750X-0.218750X-0.256250X0.218750X-0.256250X0.218750X0.256250X-0.218750X0.256250X0*%
G04 #@! TD*
G04 #@! TA.AperFunction,SMDPad,CuDef*
%ADD16RoundRect,0.250000X1.025000X-0.787500X1.025000X0.787500X-1.025000X0.787500X-1.025000X-0.787500X0*%
G04 #@! TD*
G04 #@! TA.AperFunction,SMDPad,CuDef*
%ADD17RoundRect,0.135000X-0.185000X0.135000X-0.185000X-0.135000X0.185000X-0.135000X0.185000X0.135000X0*%
G04 #@! TD*
G04 #@! TA.AperFunction,SMDPad,CuDef*
%ADD18R,4.400000X3.300000*%
G04 #@! TD*
G04 #@! TA.AperFunction,SMDPad,CuDef*
%ADD19R,6.200000X3.900000*%
G04 #@! TD*
G04 #@! TA.AperFunction,SMDPad,CuDef*
%ADD20R,1.000000X1.600000*%
G04 #@! TD*
G04 #@! TA.AperFunction,SMDPad,CuDef*
%ADD21RoundRect,0.147500X0.147500X0.172500X-0.147500X0.172500X-0.147500X-0.172500X0.147500X-0.172500X0*%
G04 #@! TD*
G04 #@! TA.AperFunction,ComponentPad*
%ADD22R,1.700000X1.700000*%
G04 #@! TD*
G04 #@! TA.AperFunction,ComponentPad*
%ADD23O,1.700000X1.700000*%
G04 #@! TD*
G04 #@! TA.AperFunction,SMDPad,CuDef*
%ADD24RoundRect,0.147500X0.172500X-0.147500X0.172500X0.147500X-0.172500X0.147500X-0.172500X-0.147500X0*%
G04 #@! TD*
G04 #@! TA.AperFunction,SMDPad,CuDef*
%ADD25R,5.100000X2.350000*%
G04 #@! TD*
G04 #@! TA.AperFunction,SMDPad,CuDef*
%ADD26R,3.505200X0.990600*%
G04 #@! TD*
G04 #@! TA.AperFunction,SMDPad,CuDef*
%ADD27R,3.505200X1.600200*%
G04 #@! TD*
G04 #@! TA.AperFunction,SMDPad,CuDef*
%ADD28RoundRect,0.150000X-0.737500X-0.150000X0.737500X-0.150000X0.737500X0.150000X-0.737500X0.150000X0*%
G04 #@! TD*
G04 #@! TA.AperFunction,ComponentPad*
%ADD29C,0.500000*%
G04 #@! TD*
G04 #@! TA.AperFunction,SMDPad,CuDef*
%ADD30R,2.950000X4.900000*%
G04 #@! TD*
G04 #@! TA.AperFunction,ViaPad*
%ADD31C,0.600000*%
G04 #@! TD*
G04 #@! TA.AperFunction,Conductor*
%ADD32C,0.150000*%
G04 #@! TD*
G04 #@! TA.AperFunction,Conductor*
%ADD33C,0.500000*%
G04 #@! TD*
G04 #@! TA.AperFunction,Conductor*
%ADD34C,4.000000*%
G04 #@! TD*
G04 #@! TA.AperFunction,Conductor*
%ADD35C,0.750000*%
G04 #@! TD*
G04 APERTURE END LIST*
D10*
X3250000Y2750000D03*
D11*
X32500000Y29525000D03*
X32500000Y27650000D03*
D12*
X36015000Y24250000D03*
X36985000Y24250000D03*
D13*
X1200000Y35740000D03*
X1200000Y36760000D03*
D14*
X25000000Y22462500D03*
X25000000Y24337500D03*
D15*
X1212500Y34250000D03*
X2787500Y34250000D03*
D16*
X26500000Y30637500D03*
X26500000Y36862500D03*
D10*
X47750000Y42250000D03*
D14*
X20000000Y22462500D03*
X20000000Y24337500D03*
X30000000Y31650000D03*
X30000000Y33525000D03*
D12*
X37765000Y20850000D03*
X38735000Y20850000D03*
D17*
X1200000Y30870000D03*
X1200000Y29850000D03*
D18*
X16000000Y21600000D03*
D19*
X7050000Y28700000D03*
X7050000Y15800000D03*
D20*
X7500000Y10450000D03*
X5000000Y8050000D03*
X2500000Y10450000D03*
D21*
X38735000Y21950000D03*
X37765000Y21950000D03*
D11*
X20000000Y20837500D03*
X20000000Y18962500D03*
D10*
X47750000Y2750000D03*
D22*
X22775000Y10875000D03*
D23*
X20235000Y10875000D03*
D11*
X22500000Y20837500D03*
X22500000Y18962500D03*
D14*
X32500000Y31650000D03*
X32500000Y33525000D03*
D15*
X1212500Y32250000D03*
X2787500Y32250000D03*
D14*
X22500000Y22462500D03*
X22500000Y24337500D03*
D24*
X36000000Y21415000D03*
X36000000Y22385000D03*
D10*
X3250000Y42250000D03*
D12*
X38265000Y24250000D03*
X39235000Y24250000D03*
D21*
X36985000Y19750000D03*
X36015000Y19750000D03*
D11*
X30000000Y29525000D03*
X30000000Y27650000D03*
X25000000Y20837500D03*
X25000000Y18962500D03*
D21*
X36985000Y18650000D03*
X36015000Y18650000D03*
D25*
X37500000Y26325000D03*
X37500000Y30475000D03*
D12*
X29015000Y18450000D03*
X29985000Y18450000D03*
D21*
X33485000Y18450000D03*
X32515000Y18450000D03*
D26*
X43110598Y19250000D03*
X43110598Y21249998D03*
X43110598Y23249999D03*
X43110598Y25249998D03*
D27*
X48860600Y27599998D03*
X48860600Y16899999D03*
D28*
X28687500Y23805000D03*
X28687500Y22535000D03*
X28687500Y21265000D03*
X28687500Y19995000D03*
X33812500Y19995000D03*
X33812500Y21265000D03*
X33812500Y22535000D03*
X33812500Y23805000D03*
D29*
X30600000Y23850000D03*
X30600000Y22550000D03*
X30600000Y21250000D03*
X30600000Y19950000D03*
D30*
X31250000Y21900000D03*
D29*
X31900000Y23850000D03*
X31900000Y22550000D03*
X31900000Y21250000D03*
X31900000Y19950000D03*
D31*
X31250000Y18400000D03*
X20000000Y25650000D03*
X30500000Y34837500D03*
X42500000Y15250000D03*
X29500000Y36750000D03*
X31250000Y15150000D03*
X25000000Y17650000D03*
X1250000Y37750000D03*
X31750000Y25900000D03*
X20000000Y17650000D03*
X43500000Y15250000D03*
X23500000Y36750000D03*
X30000000Y15150000D03*
X32000000Y34837500D03*
X25000000Y25650000D03*
X1250000Y28750000D03*
X30500000Y25900000D03*
X22500000Y25650000D03*
X32500000Y15150000D03*
X22500000Y17650000D03*
X25100000Y34250000D03*
X18000000Y34250000D03*
X16000000Y11050000D03*
X16000000Y31650000D03*
X16000000Y18850000D03*
X16000000Y24250000D03*
X16000000Y18000000D03*
X40300000Y24650000D03*
X28700000Y24650000D03*
X27100000Y8650000D03*
X27100000Y20565000D03*
D32*
X32500000Y33525000D02*
X30000000Y33525000D01*
D33*
X33812500Y22535000D02*
X35215000Y22535000D01*
D32*
X30500000Y21150000D02*
X31250000Y21900000D01*
D33*
X35365000Y22385000D02*
X36000000Y22385000D01*
D32*
X31915000Y22535000D02*
X31900000Y22550000D01*
X4350000Y15800000D02*
X2500000Y13950000D01*
D33*
X36465000Y22385000D02*
X36900000Y21950000D01*
D32*
X7050000Y15800000D02*
X4350000Y15800000D01*
D33*
X36900000Y21950000D02*
X37765000Y21950000D01*
X33812500Y22535000D02*
X31915000Y22535000D01*
D34*
X7050000Y28700000D02*
X7050000Y15800000D01*
D32*
X2500000Y13950000D02*
X2500000Y10450000D01*
D33*
X36000000Y22385000D02*
X36465000Y22385000D01*
D32*
X5900000Y29850000D02*
X7050000Y28700000D01*
D33*
X35215000Y22535000D02*
X35365000Y22385000D01*
D32*
X1200000Y29850000D02*
X5900000Y29850000D01*
D33*
X36985000Y24250000D02*
X38265000Y24250000D01*
X36985000Y19750000D02*
X36985000Y18650000D01*
D32*
X37737500Y30712500D02*
X37500000Y30475000D01*
X32500000Y29525000D02*
X32500000Y31650000D01*
X26500000Y33850000D02*
X26500000Y30637500D01*
X36985000Y19750000D02*
X39200000Y19750000D01*
X25100000Y34250000D02*
X26100000Y34250000D01*
X39200000Y19750000D02*
X40000000Y20550000D01*
X40000000Y22007500D02*
X41242499Y23249999D01*
X41242499Y23249999D02*
X43110598Y23249999D01*
X30000000Y29525000D02*
X30000000Y31650000D01*
X2787500Y34250000D02*
X18000000Y34250000D01*
X40000000Y20550000D02*
X40000000Y22007500D01*
X32500000Y29525000D02*
X30000000Y29525000D01*
X32500000Y31650000D02*
X30000000Y31650000D01*
X26100000Y34250000D02*
X26500000Y33850000D01*
D33*
X38735000Y21950000D02*
X38735000Y20850000D01*
D35*
X16000000Y18000000D02*
X16000000Y21600000D01*
D32*
X16000000Y24250000D02*
X16000000Y21600000D01*
X2787500Y32250000D02*
X15400000Y32250000D01*
X15400000Y32250000D02*
X16000000Y31650000D01*
X15400000Y10450000D02*
X16000000Y11050000D01*
X7500000Y10450000D02*
X15400000Y10450000D01*
X28687500Y23805000D02*
X28687500Y24637500D01*
X28687500Y24637500D02*
X28700000Y24650000D01*
X39235000Y24250000D02*
X39900000Y24250000D01*
X39900000Y24250000D02*
X40300000Y24650000D01*
D33*
X29015000Y18935000D02*
X29015000Y18450000D01*
X28687500Y19262500D02*
X29015000Y18935000D01*
X28687500Y19995000D02*
X28687500Y19262500D01*
X36435000Y21415000D02*
X37000000Y20850000D01*
X36000000Y21415000D02*
X36435000Y21415000D01*
X37000000Y20850000D02*
X37765000Y20850000D01*
X35115000Y21265000D02*
X35265000Y21415000D01*
X33812500Y21265000D02*
X35115000Y21265000D01*
X35265000Y21415000D02*
X36000000Y21415000D01*
X33485000Y19035000D02*
X33812500Y19362500D01*
X35400000Y19750000D02*
X36015000Y19750000D01*
X36015000Y19750000D02*
X36015000Y18650000D01*
X35155000Y19995000D02*
X35400000Y19750000D01*
X33485000Y18450000D02*
X33485000Y19035000D01*
X33812500Y19362500D02*
X33812500Y19995000D01*
X33812500Y19995000D02*
X35155000Y19995000D01*
D32*
X1200000Y32237500D02*
X1212500Y32250000D01*
X1200000Y30870000D02*
X1200000Y32237500D01*
X1200000Y34262500D02*
X1212500Y34250000D01*
X1200000Y35740000D02*
X1200000Y34262500D01*
X26500000Y8050000D02*
X27100000Y8650000D01*
X27800000Y21265000D02*
X28687500Y21265000D01*
X27100000Y20565000D02*
X27800000Y21265000D01*
X26500000Y8050000D02*
X5000000Y8050000D01*
G04 #@! TA.AperFunction,Conductor*
G36*
X46443039Y32230315D02*
G01*
X46488794Y32177511D01*
X46500000Y32126000D01*
X46500000Y29174000D01*
X46480315Y29106961D01*
X46427511Y29061206D01*
X46376000Y29050000D01*
X24624000Y29050000D01*
X24556961Y29069685D01*
X24511206Y29122489D01*
X24500000Y29174000D01*
X24500000Y32126000D01*
X24519685Y32193039D01*
X24572489Y32238794D01*
X24624000Y32250000D01*
X46376000Y32250000D01*
X46443039Y32230315D01*
G37*
G04 #@! TD.AperFunction*
G04 #@! TA.AperFunction,Conductor*
G36*
X42500000Y14050000D02*
G01*
X29700000Y14050000D01*
X29700000Y16650000D01*
X42500000Y16650000D01*
X42500000Y14050000D01*
G37*
G04 #@! TD.AperFunction*
G04 #@! TA.AperFunction,Conductor*
G36*
X36240314Y27430315D02*
G01*
X36286069Y27377511D01*
X36297245Y27323307D01*
X36289059Y26946685D01*
X36250000Y25149988D01*
X36250000Y24024000D01*
X36230315Y23956961D01*
X36177511Y23911206D01*
X36126000Y23900000D01*
X35000000Y23900000D01*
X34999999Y23900000D01*
X34999998Y23899999D01*
X34784273Y23468546D01*
X34736686Y23417387D01*
X34673364Y23400000D01*
X33374000Y23400000D01*
X33306961Y23419685D01*
X33261206Y23472489D01*
X33250000Y23524000D01*
X33250000Y26946685D01*
X33269685Y27013724D01*
X33299694Y27045955D01*
X33309327Y27053166D01*
X33309327Y27053167D01*
X33309331Y27053169D01*
X33394503Y27166946D01*
X33444171Y27300109D01*
X33448380Y27339256D01*
X33475118Y27403807D01*
X33532510Y27443655D01*
X33571669Y27450000D01*
X36173275Y27450000D01*
X36240314Y27430315D01*
G37*
G04 #@! TD.AperFunction*
G04 #@! TA.AperFunction,Conductor*
G36*
X46000000Y29050000D02*
G01*
X46000000Y23374000D01*
X45980315Y23306961D01*
X45927511Y23261206D01*
X45876000Y23250000D01*
X41124000Y23250000D01*
X41056961Y23269685D01*
X41011206Y23322489D01*
X41000000Y23374000D01*
X41000000Y29050000D01*
X41000000Y32250000D01*
X46000000Y32250000D01*
X46000000Y29050000D01*
G37*
G04 #@! TD.AperFunction*
G04 #@! TA.AperFunction,Conductor*
G36*
X33500000Y35650000D02*
G01*
X23100000Y35650000D01*
X23100000Y38250000D01*
X33500000Y38250000D01*
X33500000Y35650000D01*
G37*
G04 #@! TD.AperFunction*
G04 #@! TA.AperFunction,Conductor*
G36*
X46000000Y14050000D02*
G01*
X41000000Y14050000D01*
X41000000Y21250000D01*
X46000000Y21250000D01*
X46000000Y14050000D01*
G37*
G04 #@! TD.AperFunction*
G04 #@! TA.AperFunction,Conductor*
G36*
X23500000Y26050000D02*
G01*
X18700000Y26050000D01*
X18700000Y38250000D01*
X23500000Y38250000D01*
X23500000Y26050000D01*
G37*
G04 #@! TD.AperFunction*
G04 #@! TA.AperFunction,Conductor*
G36*
X33500000Y33050000D02*
G01*
X28900000Y33050000D01*
X28900000Y36050000D01*
X33500000Y36050000D01*
X33500000Y33050000D01*
G37*
G04 #@! TD.AperFunction*
G04 #@! TA.AperFunction,Conductor*
G36*
X26300000Y23650000D02*
G01*
X18700000Y23650000D01*
X18700000Y26250000D01*
X26300000Y26250000D01*
X26300000Y23650000D01*
G37*
G04 #@! TD.AperFunction*
G04 #@! TA.AperFunction,Conductor*
G36*
X26300000Y17050000D02*
G01*
X18700000Y17050000D01*
X18700000Y19650000D01*
X26300000Y19650000D01*
X26300000Y17050000D01*
G37*
G04 #@! TD.AperFunction*
G04 #@! TA.AperFunction,Conductor*
G36*
X23500000Y27050000D02*
G01*
X4000000Y27050000D01*
X4000000Y30650000D01*
X23500000Y30750000D01*
X23500000Y27050000D01*
G37*
G04 #@! TD.AperFunction*
G04 #@! TA.AperFunction,Conductor*
G36*
X29175500Y22980038D02*
G01*
X29230038Y22925500D01*
X29250000Y22851000D01*
X29250000Y22299000D01*
X29230038Y22224500D01*
X29175500Y22169962D01*
X29101000Y22150000D01*
X28200000Y22150000D01*
X27955521Y21905522D01*
X27888726Y21866958D01*
X27868008Y21863238D01*
X27865304Y21862647D01*
X27737116Y21817793D01*
X27627851Y21737152D01*
X27627848Y21737149D01*
X27547207Y21627885D01*
X27512883Y21529789D01*
X27477603Y21473642D01*
X27217917Y21213956D01*
X27151122Y21175392D01*
X27109764Y21172676D01*
X27109764Y21170682D01*
X27099997Y21170682D01*
X26943242Y21150046D01*
X26797159Y21089537D01*
X26671718Y20993283D01*
X26671717Y20993282D01*
X26575463Y20867841D01*
X26514954Y20721758D01*
X26494318Y20565003D01*
X26494318Y20555235D01*
X26492124Y20555235D01*
X26483798Y20491983D01*
X26436847Y20430792D01*
X26365591Y20401275D01*
X26346139Y20400000D01*
X17599000Y20400000D01*
X17524500Y20419962D01*
X17469962Y20474500D01*
X17450000Y20549000D01*
X17450000Y22851000D01*
X17469962Y22925500D01*
X17524500Y22980038D01*
X17599000Y23000000D01*
X29101000Y23000000D01*
X29175500Y22980038D01*
G37*
G04 #@! TD.AperFunction*
G04 #@! TA.AperFunction,Conductor*
G36*
X32700000Y26050000D02*
G01*
X23100000Y26050000D01*
X23100000Y28650000D01*
X32700000Y28650000D01*
X32700000Y26050000D01*
G37*
G04 #@! TD.AperFunction*
G04 #@! TA.AperFunction,Conductor*
G36*
X32700000Y24205543D02*
G01*
X32672207Y24167884D01*
X32627353Y24039696D01*
X32624500Y24009276D01*
X32624500Y23600725D01*
X32627353Y23570305D01*
X32672207Y23442117D01*
X32700000Y23404459D01*
X32700000Y21665543D01*
X32672207Y21627884D01*
X32627353Y21499696D01*
X32624500Y21469276D01*
X32624500Y21060725D01*
X32627353Y21030305D01*
X32672207Y20902117D01*
X32700000Y20864459D01*
X32700000Y20395543D01*
X32672207Y20357884D01*
X32627353Y20229696D01*
X32624500Y20199276D01*
X32624500Y19790725D01*
X32627353Y19760305D01*
X32672207Y19632117D01*
X32700000Y19594459D01*
X32700000Y14650000D01*
X29700000Y14650000D01*
X29700000Y19488052D01*
X29747150Y19522850D01*
X29827793Y19632118D01*
X29872646Y19760301D01*
X29875500Y19790734D01*
X29875500Y20199266D01*
X29872646Y20229699D01*
X29827793Y20357882D01*
X29747150Y20467150D01*
X29700000Y20501949D01*
X29700000Y20758052D01*
X29747150Y20792850D01*
X29827793Y20902118D01*
X29872646Y21030301D01*
X29875500Y21060734D01*
X29875500Y21469266D01*
X29872646Y21499699D01*
X29827793Y21627882D01*
X29747150Y21737150D01*
X29700000Y21771949D01*
X29700000Y22028052D01*
X29747150Y22062850D01*
X29827793Y22172118D01*
X29872646Y22300301D01*
X29875500Y22330734D01*
X29875500Y22739266D01*
X29872646Y22769699D01*
X29827793Y22897882D01*
X29747150Y23007150D01*
X29700000Y23041949D01*
X29700000Y23298052D01*
X29747150Y23332850D01*
X29827793Y23442118D01*
X29872646Y23570301D01*
X29875500Y23600734D01*
X29875500Y24009266D01*
X29872646Y24039699D01*
X29827793Y24167882D01*
X29747150Y24277150D01*
X29747148Y24277152D01*
X29700000Y24311949D01*
X29700000Y28650000D01*
X32700000Y28650000D01*
X32700000Y24205543D01*
G37*
G04 #@! TD.AperFunction*
G04 #@! TA.AperFunction,Conductor*
G36*
X15514141Y17601268D02*
G01*
X15514144Y17601264D01*
X15601263Y17514145D01*
X15601267Y17514142D01*
X15703707Y17445693D01*
X15703713Y17445690D01*
X15703714Y17445689D01*
X15817548Y17398537D01*
X15938389Y17374501D01*
X15938393Y17374500D01*
X15938394Y17374500D01*
X16061607Y17374500D01*
X16061608Y17374501D01*
X16182452Y17398537D01*
X16296286Y17445689D01*
X16398733Y17514142D01*
X16485858Y17601267D01*
X16518420Y17650000D01*
X30800000Y17650000D01*
X30800000Y14050000D01*
X4000000Y14050000D01*
X4000000Y17650000D01*
X15481579Y17650000D01*
X15514141Y17601268D01*
G37*
G04 #@! TD.AperFunction*
G04 #@! TA.AperFunction,Conductor*
G36*
X26688598Y20123765D02*
G01*
X26688601Y20123763D01*
X26694767Y20119032D01*
X26797159Y20040464D01*
X26943238Y19979956D01*
X26943241Y19979956D01*
X26943243Y19979955D01*
X26943240Y19979955D01*
X27099997Y19959318D01*
X27100000Y19959318D01*
X27100003Y19959318D01*
X27256755Y19979955D01*
X27256755Y19979956D01*
X27256762Y19979956D01*
X27293483Y19995167D01*
X27369947Y20005233D01*
X27441204Y19975718D01*
X27488158Y19914529D01*
X27499500Y19857508D01*
X27499500Y19790725D01*
X27502353Y19760305D01*
X27547207Y19632117D01*
X27627848Y19522852D01*
X27627851Y19522849D01*
X27737116Y19442208D01*
X27737117Y19442208D01*
X27737118Y19442207D01*
X27865301Y19397354D01*
X27895734Y19394500D01*
X27988000Y19394500D01*
X28062500Y19374538D01*
X28117038Y19320000D01*
X28137000Y19245500D01*
X28137000Y19190025D01*
X28159120Y19107474D01*
X28174516Y19050014D01*
X28246990Y18924485D01*
X28376444Y18795031D01*
X28415008Y18728236D01*
X28419084Y18679961D01*
X28419385Y18679946D01*
X28419500Y18679946D01*
X28419500Y18679941D01*
X28419663Y18679933D01*
X28419500Y18676454D01*
X28419500Y18223543D01*
X28419501Y18223540D01*
X28422339Y18193264D01*
X28466941Y18065801D01*
X28466942Y18065799D01*
X28547136Y17957140D01*
X28547139Y17957137D01*
X28655797Y17876944D01*
X28655798Y17876944D01*
X28655799Y17876943D01*
X28783271Y17832338D01*
X28783272Y17832338D01*
X28783275Y17832337D01*
X28795625Y17831180D01*
X28813537Y17829500D01*
X29216462Y17829501D01*
X29246729Y17832338D01*
X29246734Y17832340D01*
X29246736Y17832340D01*
X29374199Y17876942D01*
X29374201Y17876943D01*
X29450798Y17933474D01*
X29482862Y17957138D01*
X29563057Y18065799D01*
X29607662Y18193271D01*
X29607662Y18193274D01*
X29607663Y18193276D01*
X29610499Y18223527D01*
X29610500Y18223537D01*
X29610499Y18676462D01*
X29607662Y18706729D01*
X29573862Y18803324D01*
X29565500Y18852536D01*
X29565500Y19007475D01*
X29565499Y19007477D01*
X29560941Y19024487D01*
X29527984Y19147485D01*
X29527984Y19147486D01*
X29524894Y19152837D01*
X29524892Y19152841D01*
X29494812Y19204942D01*
X29474850Y19279438D01*
X29494812Y19353938D01*
X29549349Y19408476D01*
X29574637Y19420077D01*
X29637882Y19442207D01*
X29700000Y19488052D01*
X29700000Y17650000D01*
X26300000Y17650000D01*
X26300000Y19650000D01*
X18700000Y19650000D01*
X18700000Y17650000D01*
X16578554Y17650000D01*
X16598620Y17680031D01*
X16649540Y17802964D01*
X16675500Y17933469D01*
X16675500Y19500501D01*
X16695462Y19575001D01*
X16750000Y19629539D01*
X16824500Y19649501D01*
X18244867Y19649501D01*
X18259940Y19651250D01*
X18269991Y19652415D01*
X18372765Y19697794D01*
X18452206Y19777235D01*
X18497585Y19880009D01*
X18500500Y19905135D01*
X18500500Y19945500D01*
X18520462Y20020000D01*
X18575000Y20074538D01*
X18649500Y20094500D01*
X19297884Y20094500D01*
X19352546Y20084111D01*
X19413678Y20060003D01*
X19430095Y20058032D01*
X19501140Y20049500D01*
X19501141Y20049500D01*
X20498859Y20049500D01*
X20498860Y20049500D01*
X20586321Y20060003D01*
X20647454Y20084111D01*
X20702116Y20094500D01*
X21797884Y20094500D01*
X21852546Y20084111D01*
X21913678Y20060003D01*
X21930095Y20058032D01*
X22001140Y20049500D01*
X22001141Y20049500D01*
X22998859Y20049500D01*
X22998860Y20049500D01*
X23086321Y20060003D01*
X23147454Y20084111D01*
X23202116Y20094500D01*
X24297884Y20094500D01*
X24352546Y20084111D01*
X24413678Y20060003D01*
X24430095Y20058032D01*
X24501140Y20049500D01*
X24501141Y20049500D01*
X25498859Y20049500D01*
X25498860Y20049500D01*
X25586321Y20060003D01*
X25647454Y20084111D01*
X25702116Y20094500D01*
X26346143Y20094500D01*
X26348328Y20094572D01*
X26366120Y20095154D01*
X26385572Y20096429D01*
X26482507Y20119032D01*
X26540874Y20143211D01*
X26617341Y20153279D01*
X26688598Y20123765D01*
G37*
G04 #@! TD.AperFunction*
G04 #@! TA.AperFunction,Conductor*
G36*
X32752848Y20792852D02*
G01*
X32752851Y20792849D01*
X32811065Y20749885D01*
X32859154Y20689584D01*
X32870649Y20613317D01*
X32842471Y20541521D01*
X32811065Y20510115D01*
X32752851Y20467152D01*
X32752848Y20467149D01*
X32700000Y20395543D01*
X32700000Y20864459D01*
X32752848Y20792852D01*
G37*
G04 #@! TD.AperFunction*
G04 #@! TA.AperFunction,Conductor*
G36*
X29700000Y20501948D02*
G01*
X29688934Y20510115D01*
X29640846Y20570415D01*
X29629350Y20646681D01*
X29657527Y20718478D01*
X29688933Y20749885D01*
X29700000Y20758053D01*
X29700000Y20501948D01*
G37*
G04 #@! TD.AperFunction*
G04 #@! TA.AperFunction,Conductor*
G36*
X40636204Y24058648D02*
G01*
X40683157Y23997458D01*
X40694500Y23940437D01*
X40694500Y23374006D01*
X40694501Y23373986D01*
X40700563Y23317601D01*
X40688679Y23241394D01*
X40657776Y23196315D01*
X39769438Y22307975D01*
X39699525Y22238063D01*
X39699523Y22238061D01*
X39650091Y22152441D01*
X39623422Y22052913D01*
X39584857Y21986119D01*
X39518061Y21947556D01*
X39440933Y21947556D01*
X39374139Y21986121D01*
X39335576Y22052917D01*
X39330499Y22091479D01*
X39330499Y22176458D01*
X39330499Y22176462D01*
X39327662Y22206729D01*
X39327660Y22206734D01*
X39327660Y22206737D01*
X39283058Y22334200D01*
X39283057Y22334202D01*
X39202863Y22442861D01*
X39202860Y22442864D01*
X39094202Y22523057D01*
X38966724Y22567664D01*
X38936463Y22570500D01*
X38533542Y22570500D01*
X38533539Y22570500D01*
X38533538Y22570499D01*
X38503271Y22567662D01*
X38503270Y22567662D01*
X38503263Y22567661D01*
X38375800Y22523059D01*
X38375798Y22523058D01*
X38267139Y22442864D01*
X38267136Y22442861D01*
X38186943Y22334203D01*
X38142336Y22206725D01*
X38139500Y22176474D01*
X38139500Y21723543D01*
X38139500Y21723541D01*
X38139501Y21723538D01*
X38142338Y21693271D01*
X38142338Y21693269D01*
X38142339Y21693268D01*
X38152182Y21665139D01*
X38157947Y21588227D01*
X38124482Y21518737D01*
X38060756Y21475289D01*
X37997638Y21467577D01*
X37990184Y21468276D01*
X37966463Y21470500D01*
X37966455Y21470500D01*
X37563542Y21470500D01*
X37563539Y21470500D01*
X37563538Y21470499D01*
X37533271Y21467662D01*
X37533270Y21467662D01*
X37533263Y21467661D01*
X37405800Y21423059D01*
X37395927Y21417840D01*
X37393998Y21421489D01*
X37342824Y21401430D01*
X37326205Y21400500D01*
X37289742Y21400500D01*
X37215242Y21420462D01*
X37184383Y21444141D01*
X36773015Y21855510D01*
X36739480Y21874871D01*
X36647485Y21927984D01*
X36550613Y21953941D01*
X36550610Y21953942D01*
X36550608Y21953943D01*
X36507479Y21965499D01*
X36507478Y21965500D01*
X36507475Y21965500D01*
X36507471Y21965500D01*
X36402534Y21965500D01*
X36353323Y21973862D01*
X36256729Y22007662D01*
X36256728Y22007663D01*
X36256727Y22007663D01*
X36226463Y22010500D01*
X35773542Y22010500D01*
X35773539Y22010500D01*
X35773538Y22010499D01*
X35743271Y22007662D01*
X35743268Y22007662D01*
X35743267Y22007661D01*
X35646678Y21973862D01*
X35597466Y21965500D01*
X35192525Y21965500D01*
X35192522Y21965500D01*
X35192520Y21965499D01*
X35149386Y21953942D01*
X35149387Y21953941D01*
X35052513Y21927984D01*
X34926980Y21855507D01*
X34919235Y21849564D01*
X34917636Y21851648D01*
X34863821Y21820577D01*
X34825257Y21815500D01*
X34794751Y21815500D01*
X34745541Y21823861D01*
X34634699Y21862646D01*
X34634697Y21862647D01*
X34634695Y21862647D01*
X34604275Y21865500D01*
X34604266Y21865500D01*
X33020734Y21865500D01*
X33020724Y21865500D01*
X32990304Y21862647D01*
X32862116Y21817793D01*
X32752851Y21737152D01*
X32752848Y21737149D01*
X32700000Y21665543D01*
X32700000Y23404459D01*
X32752848Y23332852D01*
X32752851Y23332849D01*
X32862116Y23252208D01*
X32862117Y23252208D01*
X32862118Y23252207D01*
X32990301Y23207354D01*
X33020734Y23204500D01*
X33035198Y23204500D01*
X33109698Y23184538D01*
X33120746Y23177481D01*
X33220884Y23126563D01*
X33220886Y23126563D01*
X33220889Y23126561D01*
X33287928Y23106876D01*
X33287931Y23106876D01*
X33287932Y23106875D01*
X33373989Y23094501D01*
X33373997Y23094501D01*
X33374000Y23094500D01*
X33374003Y23094500D01*
X34673363Y23094500D01*
X34673364Y23094500D01*
X34754254Y23105404D01*
X34817576Y23122791D01*
X34870106Y23142561D01*
X34960375Y23209316D01*
X35007962Y23260475D01*
X35057521Y23331923D01*
X35147627Y23512135D01*
X35198800Y23569842D01*
X35271970Y23594232D01*
X35280897Y23594500D01*
X36125995Y23594500D01*
X36126000Y23594500D01*
X36190941Y23601482D01*
X36242452Y23612688D01*
X36280658Y23623646D01*
X36355769Y23667576D01*
X36364411Y23671567D01*
X36364327Y23671726D01*
X36374196Y23676942D01*
X36374201Y23676943D01*
X36411521Y23704486D01*
X36483317Y23732664D01*
X36559584Y23721169D01*
X36588479Y23704486D01*
X36625797Y23676944D01*
X36625798Y23676944D01*
X36625799Y23676943D01*
X36753271Y23632338D01*
X36753272Y23632338D01*
X36753275Y23632337D01*
X36765625Y23631180D01*
X36783537Y23629500D01*
X37186462Y23629501D01*
X37216729Y23632338D01*
X37216734Y23632340D01*
X37216736Y23632340D01*
X37344199Y23676942D01*
X37354073Y23682160D01*
X37356001Y23678512D01*
X37407176Y23698570D01*
X37423795Y23699500D01*
X37826205Y23699500D01*
X37895305Y23680985D01*
X37895927Y23682160D01*
X37905794Y23676945D01*
X37905798Y23676944D01*
X37905799Y23676943D01*
X38033271Y23632338D01*
X38033272Y23632338D01*
X38033275Y23632337D01*
X38045625Y23631180D01*
X38063537Y23629500D01*
X38466462Y23629501D01*
X38496729Y23632338D01*
X38496734Y23632340D01*
X38496736Y23632340D01*
X38624199Y23676942D01*
X38624199Y23676943D01*
X38624201Y23676943D01*
X38661521Y23704486D01*
X38733317Y23732664D01*
X38809584Y23721169D01*
X38838479Y23704486D01*
X38875797Y23676944D01*
X38875798Y23676944D01*
X38875799Y23676943D01*
X39003271Y23632338D01*
X39003272Y23632338D01*
X39003275Y23632337D01*
X39015625Y23631180D01*
X39033537Y23629500D01*
X39436462Y23629501D01*
X39466729Y23632338D01*
X39466734Y23632340D01*
X39466736Y23632340D01*
X39594199Y23676942D01*
X39594201Y23676943D01*
X39624765Y23699500D01*
X39702862Y23757138D01*
X39721387Y23782239D01*
X39744813Y23813979D01*
X39805114Y23862068D01*
X39864698Y23874500D01*
X39949433Y23874500D01*
X39949436Y23874500D01*
X39997186Y23887295D01*
X40044938Y23900090D01*
X40130562Y23949525D01*
X40182082Y24001046D01*
X40248875Y24039609D01*
X40290234Y24042319D01*
X40290234Y24044318D01*
X40300003Y24044318D01*
X40456759Y24064955D01*
X40456761Y24064956D01*
X40456762Y24064956D01*
X40488480Y24078095D01*
X40564947Y24088162D01*
X40636204Y24058648D01*
G37*
G04 #@! TD.AperFunction*
G04 #@! TA.AperFunction,Conductor*
G36*
X29700000Y21771948D02*
G01*
X29688934Y21780115D01*
X29640846Y21840415D01*
X29629350Y21916681D01*
X29657527Y21988478D01*
X29688933Y22019885D01*
X29700000Y22028053D01*
X29700000Y21771948D01*
G37*
G04 #@! TD.AperFunction*
G04 #@! TA.AperFunction,Conductor*
G36*
X29700000Y23041948D02*
G01*
X29688934Y23050115D01*
X29640846Y23110415D01*
X29629350Y23186681D01*
X29657527Y23258478D01*
X29688933Y23289885D01*
X29700000Y23298053D01*
X29700000Y23041948D01*
G37*
G04 #@! TD.AperFunction*
G04 #@! TA.AperFunction,Conductor*
G36*
X2558948Y44969538D02*
G01*
X2613486Y44915000D01*
X2633448Y44840500D01*
X2613486Y44766000D01*
X2558948Y44711462D01*
X2521505Y44696183D01*
X2490934Y44688334D01*
X2460300Y44680468D01*
X2460294Y44680466D01*
X2161907Y44562326D01*
X2161900Y44562323D01*
X1880673Y44407718D01*
X1621032Y44219077D01*
X1387089Y43999391D01*
X1182518Y43752105D01*
X1010564Y43481149D01*
X1010561Y43481142D01*
X873916Y43190758D01*
X774744Y42885538D01*
X714608Y42570294D01*
X694457Y42250000D01*
X714608Y41929706D01*
X774744Y41614462D01*
X873916Y41309242D01*
X873919Y41309236D01*
X1010564Y41018852D01*
X1182518Y40747896D01*
X1182522Y40747890D01*
X1387089Y40500610D01*
X1621036Y40280920D01*
X1828744Y40130012D01*
X1880673Y40092283D01*
X2038755Y40005377D01*
X2161903Y39937676D01*
X2460294Y39819534D01*
X2771139Y39739723D01*
X3089536Y39699500D01*
X3410464Y39699500D01*
X3728861Y39739723D01*
X4039706Y39819534D01*
X4338097Y39937676D01*
X4619328Y40092284D01*
X4878964Y40280920D01*
X5112911Y40500610D01*
X5317478Y40747890D01*
X5489439Y41018858D01*
X5626084Y41309242D01*
X5725256Y41614462D01*
X5785392Y41929706D01*
X5805543Y42250000D01*
X5785392Y42570294D01*
X5725256Y42885538D01*
X5626084Y43190758D01*
X5489439Y43481142D01*
X5317478Y43752110D01*
X5112911Y43999390D01*
X4878964Y44219080D01*
X4723182Y44332262D01*
X4619326Y44407718D01*
X4338099Y44562323D01*
X4338092Y44562326D01*
X4323505Y44568102D01*
X4039706Y44680466D01*
X4039701Y44680468D01*
X4039699Y44680468D01*
X4020935Y44685286D01*
X3978496Y44696182D01*
X3911302Y44734043D01*
X3872041Y44800431D01*
X3871233Y44877554D01*
X3909095Y44944750D01*
X3975483Y44984011D01*
X4015552Y44989500D01*
X46984448Y44989500D01*
X47058948Y44969538D01*
X47113486Y44915000D01*
X47133448Y44840500D01*
X47113486Y44766000D01*
X47058948Y44711462D01*
X47021505Y44696183D01*
X46990934Y44688334D01*
X46960300Y44680468D01*
X46960294Y44680466D01*
X46661907Y44562326D01*
X46661900Y44562323D01*
X46380673Y44407718D01*
X46121032Y44219077D01*
X45887089Y43999391D01*
X45682518Y43752105D01*
X45510564Y43481149D01*
X45510561Y43481142D01*
X45373916Y43190758D01*
X45274744Y42885538D01*
X45214608Y42570294D01*
X45194457Y42250000D01*
X45214608Y41929706D01*
X45274744Y41614462D01*
X45373916Y41309242D01*
X45373919Y41309236D01*
X45510564Y41018852D01*
X45682518Y40747896D01*
X45682522Y40747890D01*
X45887089Y40500610D01*
X46121036Y40280920D01*
X46328744Y40130012D01*
X46380673Y40092283D01*
X46538755Y40005377D01*
X46661903Y39937676D01*
X46960294Y39819534D01*
X47271139Y39739723D01*
X47589536Y39699500D01*
X47910464Y39699500D01*
X48228861Y39739723D01*
X48539706Y39819534D01*
X48838097Y39937676D01*
X49119328Y40092284D01*
X49378964Y40280920D01*
X49612911Y40500610D01*
X49817478Y40747890D01*
X49989439Y41018858D01*
X50126084Y41309242D01*
X50225256Y41614462D01*
X50285392Y41929706D01*
X50305543Y42250000D01*
X50285392Y42570294D01*
X50225256Y42885538D01*
X50126084Y43190758D01*
X49989439Y43481142D01*
X49817478Y43752110D01*
X49612911Y43999390D01*
X49378964Y44219080D01*
X49223182Y44332262D01*
X49119326Y44407718D01*
X48838099Y44562323D01*
X48838092Y44562326D01*
X48823505Y44568102D01*
X48539706Y44680466D01*
X48539701Y44680468D01*
X48539699Y44680468D01*
X48520935Y44685286D01*
X48478496Y44696182D01*
X48411302Y44734043D01*
X48372041Y44800431D01*
X48371233Y44877554D01*
X48409095Y44944750D01*
X48475483Y44984011D01*
X48515552Y44989500D01*
X50840500Y44989500D01*
X50915000Y44969538D01*
X50969538Y44915000D01*
X50989500Y44840500D01*
X50989500Y28791103D01*
X50969538Y28716603D01*
X50915000Y28662065D01*
X50840500Y28642103D01*
X50780317Y28654798D01*
X50683191Y28697683D01*
X50658065Y28700598D01*
X50658059Y28700598D01*
X47063133Y28700598D01*
X47038010Y28697684D01*
X47038007Y28697683D01*
X46935235Y28652305D01*
X46855793Y28572863D01*
X46810416Y28470093D01*
X46810415Y28470090D01*
X46810415Y28470089D01*
X46807500Y28444963D01*
X46807500Y28444962D01*
X46807500Y28444958D01*
X46807500Y26755032D01*
X46810414Y26729909D01*
X46810415Y26729906D01*
X46855793Y26627134D01*
X46855794Y26627133D01*
X46935235Y26547692D01*
X47038009Y26502313D01*
X47063135Y26499398D01*
X50658064Y26499399D01*
X50658066Y26499399D01*
X50670627Y26500856D01*
X50683191Y26502313D01*
X50780317Y26545199D01*
X50856530Y26557029D01*
X50928450Y26529168D01*
X50976804Y26469079D01*
X50989500Y26408894D01*
X50989500Y18091104D01*
X50969538Y18016604D01*
X50915000Y17962066D01*
X50840500Y17942104D01*
X50780317Y17954799D01*
X50683191Y17997684D01*
X50658065Y18000599D01*
X50658059Y18000599D01*
X47063133Y18000599D01*
X47038010Y17997685D01*
X47038007Y17997684D01*
X46935235Y17952306D01*
X46855793Y17872864D01*
X46810416Y17770094D01*
X46810415Y17770091D01*
X46810415Y17770090D01*
X46807500Y17744964D01*
X46807500Y17744963D01*
X46807500Y17744959D01*
X46807500Y16055033D01*
X46810414Y16029910D01*
X46810415Y16029907D01*
X46855793Y15927135D01*
X46855794Y15927134D01*
X46935235Y15847693D01*
X47038009Y15802314D01*
X47063135Y15799399D01*
X50658064Y15799400D01*
X50658066Y15799400D01*
X50670627Y15800857D01*
X50683191Y15802314D01*
X50780317Y15845200D01*
X50856530Y15857030D01*
X50928450Y15829169D01*
X50976804Y15769080D01*
X50989500Y15708895D01*
X50989500Y159500D01*
X50969538Y85000D01*
X50915000Y30462D01*
X50840500Y10500D01*
X48515552Y10500D01*
X48441052Y30462D01*
X48386514Y85000D01*
X48366552Y159500D01*
X48386514Y234000D01*
X48441052Y288538D01*
X48478494Y303818D01*
X48539706Y319534D01*
X48838097Y437676D01*
X49119328Y592284D01*
X49378964Y780920D01*
X49612911Y1000610D01*
X49817478Y1247890D01*
X49989439Y1518858D01*
X50126084Y1809242D01*
X50225256Y2114462D01*
X50285392Y2429706D01*
X50305543Y2750000D01*
X50285392Y3070294D01*
X50225256Y3385538D01*
X50126084Y3690758D01*
X49989439Y3981142D01*
X49817478Y4252110D01*
X49612911Y4499390D01*
X49378964Y4719080D01*
X49223182Y4832262D01*
X49119326Y4907718D01*
X48838099Y5062323D01*
X48838092Y5062326D01*
X48823505Y5068102D01*
X48539706Y5180466D01*
X48228861Y5260277D01*
X48228860Y5260278D01*
X48228857Y5260278D01*
X47910465Y5300500D01*
X47910464Y5300500D01*
X47589536Y5300500D01*
X47589534Y5300500D01*
X47271142Y5260278D01*
X46960297Y5180467D01*
X46960294Y5180466D01*
X46661907Y5062326D01*
X46661900Y5062323D01*
X46380673Y4907718D01*
X46121032Y4719077D01*
X45887089Y4499391D01*
X45682518Y4252105D01*
X45510564Y3981149D01*
X45510561Y3981142D01*
X45373916Y3690758D01*
X45274744Y3385538D01*
X45214608Y3070294D01*
X45194457Y2750000D01*
X45214608Y2429706D01*
X45274744Y2114462D01*
X45373916Y1809242D01*
X45373919Y1809236D01*
X45510564Y1518852D01*
X45682518Y1247896D01*
X45682522Y1247890D01*
X45887089Y1000610D01*
X46121036Y780920D01*
X46328744Y630012D01*
X46380673Y592283D01*
X46538755Y505377D01*
X46661903Y437676D01*
X46960294Y319534D01*
X47021503Y303819D01*
X47088698Y265957D01*
X47127959Y199569D01*
X47128767Y122446D01*
X47090905Y55250D01*
X47024517Y15989D01*
X46984448Y10500D01*
X4015552Y10500D01*
X3941052Y30462D01*
X3886514Y85000D01*
X3866552Y159500D01*
X3886514Y234000D01*
X3941052Y288538D01*
X3978494Y303818D01*
X4039706Y319534D01*
X4338097Y437676D01*
X4619328Y592284D01*
X4878964Y780920D01*
X5112911Y1000610D01*
X5317478Y1247890D01*
X5489439Y1518858D01*
X5626084Y1809242D01*
X5725256Y2114462D01*
X5785392Y2429706D01*
X5805543Y2750000D01*
X5785392Y3070294D01*
X5725256Y3385538D01*
X5626084Y3690758D01*
X5489439Y3981142D01*
X5317478Y4252110D01*
X5112911Y4499390D01*
X4878964Y4719080D01*
X4723182Y4832262D01*
X4619326Y4907718D01*
X4338099Y5062323D01*
X4338092Y5062326D01*
X4323505Y5068102D01*
X4039706Y5180466D01*
X3728861Y5260277D01*
X3728860Y5260278D01*
X3728857Y5260278D01*
X3410465Y5300500D01*
X3410464Y5300500D01*
X3089536Y5300500D01*
X3089534Y5300500D01*
X2771142Y5260278D01*
X2460297Y5180467D01*
X2460294Y5180466D01*
X2161907Y5062326D01*
X2161900Y5062323D01*
X1880673Y4907718D01*
X1621032Y4719077D01*
X1387089Y4499391D01*
X1182518Y4252105D01*
X1010564Y3981149D01*
X1010561Y3981142D01*
X873916Y3690758D01*
X774744Y3385538D01*
X714608Y3070294D01*
X694457Y2750000D01*
X714608Y2429706D01*
X774744Y2114462D01*
X873916Y1809242D01*
X873919Y1809236D01*
X1010564Y1518852D01*
X1182518Y1247896D01*
X1182522Y1247890D01*
X1387089Y1000610D01*
X1621036Y780920D01*
X1828744Y630012D01*
X1880673Y592283D01*
X2038755Y505377D01*
X2161903Y437676D01*
X2460294Y319534D01*
X2521503Y303819D01*
X2588698Y265957D01*
X2627959Y199569D01*
X2628767Y122446D01*
X2590905Y55250D01*
X2524517Y15989D01*
X2484448Y10500D01*
X159500Y10500D01*
X85000Y30462D01*
X30462Y85000D01*
X10500Y159500D01*
X10500Y8894865D01*
X4199500Y8894865D01*
X4199500Y8894864D01*
X4199500Y8894860D01*
X4199500Y7205134D01*
X4202414Y7180011D01*
X4202415Y7180008D01*
X4247793Y7077236D01*
X4247794Y7077235D01*
X4327235Y6997794D01*
X4430009Y6952415D01*
X4455135Y6949500D01*
X5544864Y6949501D01*
X5544866Y6949501D01*
X5557427Y6950958D01*
X5569991Y6952415D01*
X5672765Y6997794D01*
X5752206Y7077235D01*
X5797585Y7180009D01*
X5800500Y7205135D01*
X5800500Y7525500D01*
X5820462Y7600000D01*
X5875000Y7654538D01*
X5949500Y7674500D01*
X26549433Y7674500D01*
X26549436Y7674500D01*
X26597186Y7687295D01*
X26644938Y7700090D01*
X26730562Y7749525D01*
X26800475Y7819438D01*
X26982081Y8001046D01*
X27048876Y8039609D01*
X27090234Y8042319D01*
X27090234Y8044318D01*
X27100003Y8044318D01*
X27256757Y8064955D01*
X27256758Y8064956D01*
X27256762Y8064956D01*
X27402841Y8125464D01*
X27528282Y8221718D01*
X27624536Y8347159D01*
X27685044Y8493238D01*
X27685935Y8500000D01*
X27705682Y8649998D01*
X27705682Y8650003D01*
X27685045Y8806758D01*
X27685044Y8806760D01*
X27685044Y8806762D01*
X27624536Y8952841D01*
X27528282Y9078282D01*
X27497103Y9102207D01*
X27402840Y9174537D01*
X27322944Y9207631D01*
X27256762Y9235044D01*
X27256760Y9235045D01*
X27256756Y9235046D01*
X27256759Y9235046D01*
X27100003Y9255682D01*
X27099997Y9255682D01*
X26943242Y9235046D01*
X26797159Y9174537D01*
X26671718Y9078283D01*
X26671717Y9078282D01*
X26575463Y8952841D01*
X26514954Y8806758D01*
X26494318Y8650003D01*
X26494318Y8640236D01*
X26491224Y8640236D01*
X26483326Y8580382D01*
X26451046Y8532085D01*
X26388106Y8469143D01*
X26321311Y8430578D01*
X26282745Y8425500D01*
X5949499Y8425500D01*
X5874999Y8445462D01*
X5820461Y8500000D01*
X5800499Y8574500D01*
X5800499Y8894867D01*
X5797585Y8919990D01*
X5797584Y8919992D01*
X5752206Y9022765D01*
X5672765Y9102206D01*
X5672764Y9102207D01*
X5569994Y9147584D01*
X5569991Y9147585D01*
X5569982Y9147586D01*
X5544865Y9150500D01*
X5544859Y9150500D01*
X4455133Y9150500D01*
X4430010Y9147586D01*
X4430007Y9147585D01*
X4327235Y9102207D01*
X4247793Y9022765D01*
X4202416Y8919995D01*
X4202415Y8919992D01*
X4202415Y8919991D01*
X4199500Y8894865D01*
X10500Y8894865D01*
X10500Y11294865D01*
X6699500Y11294865D01*
X6699500Y11294864D01*
X6699500Y11294860D01*
X6699500Y9605134D01*
X6702414Y9580011D01*
X6702415Y9580008D01*
X6747793Y9477236D01*
X6747794Y9477235D01*
X6827235Y9397794D01*
X6930009Y9352415D01*
X6955135Y9349500D01*
X8044864Y9349501D01*
X8044866Y9349501D01*
X8057427Y9350958D01*
X8069991Y9352415D01*
X8172765Y9397794D01*
X8252206Y9477235D01*
X8297585Y9580009D01*
X8300500Y9605135D01*
X8300500Y9925500D01*
X8320462Y10000000D01*
X8375000Y10054538D01*
X8449500Y10074500D01*
X15449433Y10074500D01*
X15449436Y10074500D01*
X15497186Y10087295D01*
X15544938Y10100090D01*
X15630562Y10149525D01*
X15700475Y10219438D01*
X15882081Y10401046D01*
X15948876Y10439609D01*
X15990234Y10442319D01*
X15990234Y10444318D01*
X16000003Y10444318D01*
X16156757Y10464955D01*
X16156758Y10464956D01*
X16156762Y10464956D01*
X16302841Y10525464D01*
X16428282Y10621718D01*
X16524536Y10747159D01*
X16577492Y10875005D01*
X19079571Y10875005D01*
X19079571Y10874996D01*
X19099243Y10662695D01*
X19099243Y10662693D01*
X19099244Y10662690D01*
X19110902Y10621718D01*
X19157593Y10457615D01*
X19157594Y10457613D01*
X19252636Y10266741D01*
X19341154Y10149526D01*
X19381128Y10096593D01*
X19536441Y9955006D01*
X19538697Y9952949D01*
X19538698Y9952948D01*
X19719977Y9840704D01*
X19719983Y9840701D01*
X19807189Y9806918D01*
X19918802Y9763679D01*
X20128390Y9724500D01*
X20128393Y9724500D01*
X20341607Y9724500D01*
X20341610Y9724500D01*
X20551198Y9763679D01*
X20750019Y9840702D01*
X20931302Y9952948D01*
X21088872Y10096593D01*
X21217366Y10266745D01*
X21312405Y10457611D01*
X21332188Y10527143D01*
X21371775Y10593335D01*
X21439155Y10630866D01*
X21516274Y10629679D01*
X21582468Y10590092D01*
X21619999Y10522712D01*
X21624500Y10486367D01*
X21624500Y9980134D01*
X21627414Y9955011D01*
X21627415Y9955008D01*
X21672793Y9852236D01*
X21672794Y9852235D01*
X21752235Y9772794D01*
X21855009Y9727415D01*
X21880135Y9724500D01*
X23669864Y9724501D01*
X23669866Y9724501D01*
X23682427Y9725958D01*
X23694991Y9727415D01*
X23797765Y9772794D01*
X23877206Y9852235D01*
X23922585Y9955009D01*
X23925500Y9980135D01*
X23925499Y11769864D01*
X23922585Y11794991D01*
X23877206Y11897765D01*
X23797765Y11977206D01*
X23797764Y11977207D01*
X23694994Y12022584D01*
X23694991Y12022585D01*
X23694982Y12022586D01*
X23669865Y12025500D01*
X23669859Y12025500D01*
X21880133Y12025500D01*
X21855010Y12022586D01*
X21855007Y12022585D01*
X21752235Y11977207D01*
X21672793Y11897765D01*
X21627416Y11794995D01*
X21627415Y11794992D01*
X21627415Y11794991D01*
X21624500Y11769865D01*
X21624500Y11769864D01*
X21624500Y11769860D01*
X21624500Y11263636D01*
X21604538Y11189136D01*
X21550000Y11134598D01*
X21475500Y11114636D01*
X21401000Y11134598D01*
X21346462Y11189136D01*
X21332188Y11222860D01*
X21312406Y11292386D01*
X21312405Y11292388D01*
X21312405Y11292389D01*
X21217366Y11483255D01*
X21217364Y11483257D01*
X21217363Y11483260D01*
X21088872Y11653407D01*
X20931302Y11797052D01*
X20931301Y11797053D01*
X20750022Y11909297D01*
X20750016Y11909300D01*
X20551204Y11986319D01*
X20551200Y11986320D01*
X20551198Y11986321D01*
X20509280Y11994157D01*
X20341614Y12025500D01*
X20341610Y12025500D01*
X20128390Y12025500D01*
X20128385Y12025500D01*
X19918802Y11986321D01*
X19918795Y11986319D01*
X19719983Y11909300D01*
X19719977Y11909297D01*
X19538698Y11797053D01*
X19538697Y11797052D01*
X19381127Y11653407D01*
X19252636Y11483260D01*
X19157594Y11292388D01*
X19157593Y11292386D01*
X19099243Y11087306D01*
X19079571Y10875005D01*
X16577492Y10875005D01*
X16585044Y10893238D01*
X16585935Y10900000D01*
X16605682Y11049998D01*
X16605682Y11050003D01*
X16585045Y11206758D01*
X16585044Y11206760D01*
X16585044Y11206762D01*
X16524536Y11352841D01*
X16428282Y11478282D01*
X16397103Y11502207D01*
X16302840Y11574537D01*
X16222944Y11607631D01*
X16156762Y11635044D01*
X16156760Y11635045D01*
X16156756Y11635046D01*
X16156759Y11635046D01*
X16000003Y11655682D01*
X15999997Y11655682D01*
X15843242Y11635046D01*
X15697159Y11574537D01*
X15571718Y11478283D01*
X15571717Y11478282D01*
X15475463Y11352841D01*
X15414954Y11206758D01*
X15394318Y11050003D01*
X15394318Y11040236D01*
X15391224Y11040236D01*
X15383326Y10980382D01*
X15351046Y10932085D01*
X15288106Y10869143D01*
X15221311Y10830578D01*
X15182745Y10825500D01*
X8449499Y10825500D01*
X8374999Y10845462D01*
X8320461Y10900000D01*
X8300499Y10974500D01*
X8300499Y11294867D01*
X8297585Y11319990D01*
X8297584Y11319992D01*
X8252206Y11422765D01*
X8172765Y11502206D01*
X8172764Y11502207D01*
X8069994Y11547584D01*
X8069991Y11547585D01*
X8069982Y11547586D01*
X8044865Y11550500D01*
X8044859Y11550500D01*
X6955133Y11550500D01*
X6930010Y11547586D01*
X6930007Y11547585D01*
X6827235Y11502207D01*
X6747793Y11422765D01*
X6702416Y11319995D01*
X6702415Y11319992D01*
X6702415Y11319991D01*
X6699500Y11294865D01*
X10500Y11294865D01*
X10500Y32546903D01*
X474500Y32546903D01*
X474500Y31953098D01*
X484520Y31869658D01*
X484520Y31869657D01*
X484521Y31869654D01*
X509324Y31806758D01*
X536884Y31736870D01*
X536884Y31736869D01*
X623131Y31623135D01*
X623134Y31623132D01*
X709086Y31557953D01*
X756386Y31497032D01*
X766889Y31420622D01*
X737779Y31349198D01*
X707541Y31319349D01*
X703581Y31316427D01*
X703574Y31316420D01*
X625620Y31210797D01*
X625619Y31210794D01*
X582262Y31086886D01*
X582258Y31086875D01*
X579500Y31057466D01*
X579500Y30682548D01*
X579502Y30682525D01*
X582258Y30653122D01*
X582260Y30653115D01*
X625617Y30529208D01*
X625618Y30529206D01*
X703574Y30423581D01*
X703577Y30423577D01*
X809206Y30345619D01*
X933121Y30302259D01*
X962543Y30299500D01*
X1437456Y30299501D01*
X1466879Y30302259D01*
X1466885Y30302261D01*
X1590792Y30345618D01*
X1590794Y30345619D01*
X1590797Y30345621D01*
X1696423Y30423577D01*
X1774381Y30529206D01*
X1816649Y30650000D01*
X4000000Y30650000D01*
X4000000Y27050000D01*
X18700000Y27050000D01*
X18700000Y26250000D01*
X18700000Y23650000D01*
X26300000Y23650000D01*
X26300000Y26050000D01*
X29700000Y26050000D01*
X29700000Y24311949D01*
X29637883Y24357793D01*
X29578042Y24378732D01*
X29509699Y24402646D01*
X29509697Y24402647D01*
X29509695Y24402647D01*
X29479275Y24405500D01*
X29479266Y24405500D01*
X29443395Y24405500D01*
X29368895Y24425462D01*
X29314357Y24480000D01*
X29294395Y24554500D01*
X29295670Y24573948D01*
X29305682Y24649998D01*
X29305682Y24650003D01*
X29285045Y24806758D01*
X29285044Y24806760D01*
X29285044Y24806762D01*
X29224536Y24952841D01*
X29128282Y25078282D01*
X29002841Y25174536D01*
X29002840Y25174537D01*
X28888482Y25221905D01*
X28856762Y25235044D01*
X28856760Y25235045D01*
X28856756Y25235046D01*
X28856759Y25235046D01*
X28700003Y25255682D01*
X28699997Y25255682D01*
X28543242Y25235046D01*
X28397159Y25174537D01*
X28271718Y25078283D01*
X28271717Y25078282D01*
X28175463Y24952841D01*
X28114954Y24806758D01*
X28094318Y24650003D01*
X28094318Y24649998D01*
X28104330Y24573948D01*
X28094263Y24497480D01*
X28047310Y24436290D01*
X27976053Y24406775D01*
X27956605Y24405500D01*
X27895724Y24405500D01*
X27865304Y24402647D01*
X27737116Y24357793D01*
X27627851Y24277152D01*
X27627848Y24277149D01*
X27547207Y24167884D01*
X27502353Y24039696D01*
X27499500Y24009276D01*
X27499500Y23600725D01*
X27502353Y23570305D01*
X27502353Y23570303D01*
X27502354Y23570301D01*
X27510303Y23547585D01*
X27525655Y23503711D01*
X27531418Y23426799D01*
X27497954Y23357309D01*
X27434227Y23313861D01*
X27385016Y23305500D01*
X18601071Y23305500D01*
X18526571Y23325462D01*
X18472033Y23380000D01*
X18464773Y23394303D01*
X18452206Y23422765D01*
X18372765Y23502206D01*
X18372764Y23502207D01*
X18269994Y23547584D01*
X18269991Y23547585D01*
X18269982Y23547586D01*
X18244865Y23550500D01*
X18244859Y23550500D01*
X16524500Y23550500D01*
X16450000Y23570462D01*
X16395462Y23625000D01*
X16375500Y23699500D01*
X16375500Y23707739D01*
X16395462Y23782239D01*
X16422792Y23813403D01*
X16421379Y23814816D01*
X16428273Y23821712D01*
X16428282Y23821718D01*
X16524536Y23947159D01*
X16585044Y24093238D01*
X16594872Y24167884D01*
X16605682Y24249998D01*
X16605682Y24250003D01*
X16585045Y24406758D01*
X16585044Y24406760D01*
X16585044Y24406762D01*
X16524536Y24552841D01*
X16428282Y24678282D01*
X16344120Y24742862D01*
X16302840Y24774537D01*
X16222944Y24807631D01*
X16156762Y24835044D01*
X16156760Y24835045D01*
X16156756Y24835046D01*
X16156759Y24835046D01*
X16000003Y24855682D01*
X15999997Y24855682D01*
X15843242Y24835046D01*
X15697159Y24774537D01*
X15571718Y24678283D01*
X15571717Y24678282D01*
X15475463Y24552841D01*
X15414954Y24406758D01*
X15394318Y24250003D01*
X15394318Y24249998D01*
X15414954Y24093243D01*
X15475463Y23947160D01*
X15475464Y23947159D01*
X15571718Y23821718D01*
X15571722Y23821715D01*
X15578621Y23814816D01*
X15576428Y23812624D01*
X15613155Y23764767D01*
X15624500Y23707739D01*
X15624500Y23699500D01*
X15604538Y23625000D01*
X15550000Y23570462D01*
X15475500Y23550500D01*
X13755133Y23550500D01*
X13730010Y23547586D01*
X13730007Y23547585D01*
X13627235Y23502207D01*
X13547793Y23422765D01*
X13502416Y23319995D01*
X13502415Y23319992D01*
X13502415Y23319991D01*
X13499500Y23294865D01*
X13499500Y23294861D01*
X13499500Y23294860D01*
X13499500Y19905134D01*
X13502414Y19880011D01*
X13502415Y19880008D01*
X13547793Y19777236D01*
X13547794Y19777235D01*
X13627235Y19697794D01*
X13730009Y19652415D01*
X13755135Y19649500D01*
X15175500Y19649501D01*
X15250000Y19629539D01*
X15304538Y19575001D01*
X15324500Y19500501D01*
X15324500Y17933466D01*
X15350459Y17802965D01*
X15350460Y17802963D01*
X15374486Y17744959D01*
X15401380Y17680031D01*
X15421446Y17650000D01*
X4000000Y17650000D01*
X4000000Y14050000D01*
X29700000Y14050000D01*
X41000000Y14050000D01*
X42500000Y14050000D01*
X46000000Y14050000D01*
X46000000Y21250000D01*
X41000000Y21250000D01*
X41000000Y16650000D01*
X32700000Y16650000D01*
X32700000Y19594459D01*
X32752848Y19522852D01*
X32752851Y19522849D01*
X32862116Y19442208D01*
X32862117Y19442208D01*
X32862118Y19442207D01*
X32879802Y19436019D01*
X32943529Y19392573D01*
X32976995Y19323084D01*
X32974516Y19256815D01*
X32934500Y19107477D01*
X32934500Y18852536D01*
X32926138Y18803324D01*
X32892337Y18706730D01*
X32892337Y18706728D01*
X32889500Y18676474D01*
X32889500Y18223543D01*
X32889501Y18223540D01*
X32892339Y18193264D01*
X32936941Y18065801D01*
X32936942Y18065799D01*
X33017136Y17957140D01*
X33017139Y17957137D01*
X33125797Y17876944D01*
X33125798Y17876944D01*
X33125799Y17876943D01*
X33253271Y17832338D01*
X33253272Y17832338D01*
X33253275Y17832337D01*
X33265625Y17831180D01*
X33283537Y17829500D01*
X33686462Y17829501D01*
X33716729Y17832338D01*
X33716734Y17832340D01*
X33716736Y17832340D01*
X33844199Y17876942D01*
X33844201Y17876943D01*
X33920798Y17933474D01*
X33952862Y17957138D01*
X34033057Y18065799D01*
X34077662Y18193271D01*
X34077662Y18193274D01*
X34077663Y18193276D01*
X34080499Y18223527D01*
X34080500Y18223537D01*
X34080499Y18676462D01*
X34077662Y18706729D01*
X34071669Y18723854D01*
X34065904Y18800763D01*
X34099367Y18870254D01*
X34106931Y18878407D01*
X34253010Y19024485D01*
X34325484Y19150015D01*
X34354188Y19257138D01*
X34361403Y19284066D01*
X34399968Y19350860D01*
X34466763Y19389423D01*
X34505326Y19394500D01*
X34604259Y19394500D01*
X34604266Y19394500D01*
X34634699Y19397354D01*
X34745541Y19436140D01*
X34794751Y19444500D01*
X34865257Y19444500D01*
X34939757Y19424538D01*
X34970616Y19400859D01*
X35061985Y19309490D01*
X35169382Y19247485D01*
X35169383Y19247484D01*
X35187512Y19237018D01*
X35187515Y19237016D01*
X35327525Y19199500D01*
X35327531Y19199500D01*
X35334363Y19198600D01*
X35405620Y19169086D01*
X35452575Y19107897D01*
X35462644Y19031429D01*
X35455557Y19001663D01*
X35422337Y18906726D01*
X35419500Y18876474D01*
X35419500Y18423543D01*
X35419501Y18423540D01*
X35422339Y18393264D01*
X35466941Y18265801D01*
X35466942Y18265799D01*
X35547136Y18157140D01*
X35547139Y18157137D01*
X35655797Y18076944D01*
X35655798Y18076944D01*
X35655799Y18076943D01*
X35783271Y18032338D01*
X35783272Y18032338D01*
X35783275Y18032337D01*
X35795625Y18031180D01*
X35813537Y18029500D01*
X36216462Y18029501D01*
X36246729Y18032338D01*
X36246734Y18032340D01*
X36246736Y18032340D01*
X36374199Y18076942D01*
X36374199Y18076943D01*
X36374201Y18076943D01*
X36411521Y18104486D01*
X36483317Y18132664D01*
X36559584Y18121169D01*
X36588479Y18104486D01*
X36625797Y18076944D01*
X36625798Y18076944D01*
X36625799Y18076943D01*
X36753271Y18032338D01*
X36753272Y18032338D01*
X36753275Y18032337D01*
X36765625Y18031180D01*
X36783537Y18029500D01*
X37186462Y18029501D01*
X37216729Y18032338D01*
X37216734Y18032340D01*
X37216736Y18032340D01*
X37344199Y18076942D01*
X37344201Y18076943D01*
X37344202Y18076944D01*
X37452862Y18157138D01*
X37533057Y18265799D01*
X37577662Y18393271D01*
X37577662Y18393274D01*
X37577663Y18393276D01*
X37580499Y18423527D01*
X37580500Y18423537D01*
X37580499Y18876462D01*
X37577662Y18906729D01*
X37543862Y19003323D01*
X37535500Y19052536D01*
X37535500Y19225500D01*
X37555462Y19300000D01*
X37610000Y19354538D01*
X37684500Y19374500D01*
X39249433Y19374500D01*
X39249436Y19374500D01*
X39297186Y19387295D01*
X39344938Y19400090D01*
X39430562Y19449525D01*
X39500475Y19519438D01*
X39500474Y19519438D01*
X40300475Y20319437D01*
X40344350Y20395432D01*
X40349910Y20405062D01*
X40365616Y20463679D01*
X40375500Y20500564D01*
X40375500Y20599436D01*
X40375500Y21790246D01*
X40395462Y21864746D01*
X40419137Y21895601D01*
X41003262Y22479727D01*
X41070057Y22518290D01*
X41147185Y22518290D01*
X41172061Y22506846D01*
X41172602Y22508070D01*
X41185233Y22502493D01*
X41288007Y22457114D01*
X41313133Y22454199D01*
X44908062Y22454200D01*
X44908064Y22454200D01*
X44920625Y22455657D01*
X44933189Y22457114D01*
X45035963Y22502493D01*
X45115404Y22581934D01*
X45160783Y22684708D01*
X45163698Y22709834D01*
X45163698Y22795500D01*
X45183660Y22870000D01*
X45238198Y22924538D01*
X45312698Y22944500D01*
X45875995Y22944500D01*
X45876000Y22944500D01*
X45940941Y22951482D01*
X45992452Y22962688D01*
X46030658Y22973646D01*
X46127571Y23030325D01*
X46180375Y23076080D01*
X46222553Y23120813D01*
X46273439Y23220889D01*
X46293124Y23287928D01*
X46294121Y23294860D01*
X46305499Y23373990D01*
X46305500Y23374003D01*
X46305500Y28603081D01*
X46325462Y28677581D01*
X46380000Y28732119D01*
X46437018Y28750720D01*
X46436998Y28750843D01*
X46437790Y28750972D01*
X46438576Y28751228D01*
X46440941Y28751482D01*
X46492452Y28762688D01*
X46530658Y28773646D01*
X46627571Y28830325D01*
X46680375Y28876080D01*
X46722553Y28920813D01*
X46773439Y29020889D01*
X46793124Y29087928D01*
X46793125Y29087933D01*
X46805499Y29173990D01*
X46805500Y29174003D01*
X46805500Y32125995D01*
X46805498Y32126011D01*
X46798518Y32190941D01*
X46787312Y32242452D01*
X46776354Y32280658D01*
X46719675Y32377571D01*
X46673920Y32430375D01*
X46673916Y32430379D01*
X46673906Y32430389D01*
X46629190Y32472551D01*
X46629187Y32472553D01*
X46529115Y32523438D01*
X46529111Y32523439D01*
X46481865Y32537312D01*
X46462072Y32543124D01*
X46462070Y32543125D01*
X46462068Y32543125D01*
X46462067Y32543126D01*
X46376010Y32555500D01*
X46376000Y32555500D01*
X27024500Y32555500D01*
X26950000Y32575462D01*
X26895462Y32630000D01*
X26875500Y32704500D01*
X26875500Y33899432D01*
X26875500Y33899435D01*
X26875324Y33900090D01*
X26849910Y33994937D01*
X26849910Y33994938D01*
X26800475Y34080562D01*
X26730562Y34150475D01*
X26330563Y34550474D01*
X26330562Y34550475D01*
X26330560Y34550477D01*
X26273479Y34583432D01*
X26244938Y34599910D01*
X26197186Y34612705D01*
X26197183Y34612706D01*
X26149436Y34625500D01*
X26149435Y34625500D01*
X25642262Y34625500D01*
X25567762Y34645462D01*
X25536601Y34672790D01*
X25535188Y34671376D01*
X25528281Y34678283D01*
X25402840Y34774537D01*
X25322944Y34807631D01*
X25256762Y34835044D01*
X25256760Y34835045D01*
X25256756Y34835046D01*
X25256759Y34835046D01*
X25100003Y34855682D01*
X25099997Y34855682D01*
X24943242Y34835046D01*
X24797159Y34774537D01*
X24671718Y34678283D01*
X24671717Y34678282D01*
X24575463Y34552841D01*
X24514954Y34406758D01*
X24494318Y34250003D01*
X24494318Y34249998D01*
X24514954Y34093243D01*
X24575463Y33947160D01*
X24656045Y33842144D01*
X24671718Y33821718D01*
X24797159Y33725464D01*
X24943238Y33664956D01*
X24943241Y33664956D01*
X24943243Y33664955D01*
X24943240Y33664955D01*
X25099997Y33644318D01*
X25100000Y33644318D01*
X25100003Y33644318D01*
X25256757Y33664955D01*
X25256758Y33664956D01*
X25256762Y33664956D01*
X25402841Y33725464D01*
X25528282Y33821718D01*
X25528285Y33821723D01*
X25535188Y33828624D01*
X25537379Y33826433D01*
X25585243Y33863158D01*
X25642262Y33874500D01*
X25882745Y33874500D01*
X25957245Y33854538D01*
X25988104Y33830859D01*
X26080859Y33738104D01*
X26119423Y33671309D01*
X26124500Y33632745D01*
X26124500Y32704500D01*
X26104538Y32630000D01*
X26050000Y32575462D01*
X25975500Y32555500D01*
X24624000Y32555500D01*
X24623995Y32555500D01*
X24623985Y32555499D01*
X24559071Y32548520D01*
X24559061Y32548519D01*
X24514476Y32538820D01*
X24507548Y32537312D01*
X24469342Y32526354D01*
X24469339Y32526353D01*
X24372434Y32469679D01*
X24372427Y32469674D01*
X24319621Y32423917D01*
X24319611Y32423907D01*
X24277449Y32379191D01*
X24277447Y32379188D01*
X24226562Y32279116D01*
X24226561Y32279112D01*
X24206875Y32212069D01*
X24206874Y32212068D01*
X24194500Y32126011D01*
X24194500Y29174006D01*
X24194501Y29173986D01*
X24201480Y29109072D01*
X24201481Y29109062D01*
X24201482Y29109059D01*
X24212688Y29057548D01*
X24223646Y29019342D01*
X24280325Y28922429D01*
X24320483Y28876084D01*
X24326083Y28869622D01*
X24326093Y28869612D01*
X24370809Y28827450D01*
X24370811Y28827449D01*
X24370813Y28827447D01*
X24418387Y28803257D01*
X24470884Y28776563D01*
X24470886Y28776563D01*
X24470889Y28776561D01*
X24537928Y28756876D01*
X24537931Y28756876D01*
X24537932Y28756875D01*
X24623989Y28744501D01*
X24623997Y28744501D01*
X24624000Y28744500D01*
X29429772Y28744500D01*
X29447537Y28743438D01*
X29501140Y28737000D01*
X29501141Y28737000D01*
X30498859Y28737000D01*
X30498860Y28737000D01*
X30552462Y28743438D01*
X30570228Y28744500D01*
X31929772Y28744500D01*
X31947537Y28743438D01*
X32001140Y28737000D01*
X32001141Y28737000D01*
X32998859Y28737000D01*
X32998860Y28737000D01*
X33052462Y28743438D01*
X33070228Y28744500D01*
X40545500Y28744500D01*
X40620000Y28724538D01*
X40674538Y28670000D01*
X40694500Y28595500D01*
X40694500Y25359564D01*
X40674538Y25285064D01*
X40620000Y25230526D01*
X40545500Y25210564D01*
X40488482Y25221905D01*
X40456762Y25235044D01*
X40456760Y25235045D01*
X40447741Y25238780D01*
X40448663Y25241008D01*
X40394129Y25272501D01*
X40355572Y25339300D01*
X40350499Y25377849D01*
X40350499Y27544867D01*
X40347585Y27569990D01*
X40347584Y27569993D01*
X40302206Y27672765D01*
X40222764Y27752207D01*
X40119994Y27797584D01*
X40119991Y27797585D01*
X40119982Y27797586D01*
X40094865Y27800500D01*
X40094859Y27800500D01*
X34905133Y27800500D01*
X34880010Y27797586D01*
X34880009Y27797586D01*
X34835628Y27777990D01*
X34813447Y27768196D01*
X34753265Y27755500D01*
X33571669Y27755500D01*
X33522814Y27751568D01*
X33522811Y27751568D01*
X33483649Y27745223D01*
X33460691Y27740594D01*
X33358278Y27694601D01*
X33300888Y27654755D01*
X33254165Y27614782D01*
X33192874Y27520720D01*
X33192869Y27520710D01*
X33166137Y27456172D01*
X33166132Y27456158D01*
X33146036Y27377420D01*
X33141269Y27362197D01*
X33131100Y27334934D01*
X33110775Y27297712D01*
X33090624Y27270794D01*
X33078263Y27256656D01*
X33078365Y27256561D01*
X33046118Y27221928D01*
X33046070Y27221874D01*
X33027449Y27199877D01*
X33027445Y27199870D01*
X32976562Y27099801D01*
X32976561Y27099797D01*
X32956875Y27032754D01*
X32956874Y27032753D01*
X32944500Y26946696D01*
X32944500Y24491115D01*
X32924538Y24416615D01*
X32870000Y24362077D01*
X32865125Y24359383D01*
X32862118Y24357795D01*
X32752851Y24277152D01*
X32752848Y24277149D01*
X32700000Y24205543D01*
X32700000Y28650000D01*
X29700000Y28650000D01*
X23500000Y28650000D01*
X23500000Y35650000D01*
X28900000Y35650000D01*
X28900000Y33050000D01*
X33500000Y33050000D01*
X33500000Y36050000D01*
X33500000Y38250000D01*
X23500000Y38250000D01*
X18700000Y38250000D01*
X18700000Y30725385D01*
X4000000Y30650000D01*
X1816649Y30650000D01*
X1817741Y30653121D01*
X1820500Y30682543D01*
X1820499Y31057456D01*
X1817741Y31086879D01*
X1817739Y31086886D01*
X1774382Y31210793D01*
X1774381Y31210795D01*
X1696425Y31316420D01*
X1696423Y31316423D01*
X1696418Y31316427D01*
X1688527Y31324318D01*
X1691424Y31327216D01*
X1657114Y31370138D01*
X1645531Y31446391D01*
X1673627Y31518220D01*
X1703578Y31548599D01*
X1801867Y31623133D01*
X1881277Y31727851D01*
X1942197Y31775150D01*
X2018607Y31785653D01*
X2090031Y31756543D01*
X2118724Y31727850D01*
X2177760Y31649998D01*
X2198133Y31623133D01*
X2311868Y31536885D01*
X2444654Y31484521D01*
X2528098Y31474500D01*
X2528099Y31474500D01*
X3046901Y31474500D01*
X3046902Y31474500D01*
X3130346Y31484521D01*
X3263132Y31536885D01*
X3376867Y31623133D01*
X3463115Y31736868D01*
X3470874Y31756543D01*
X3480189Y31780162D01*
X3526090Y31842144D01*
X3596833Y31872872D01*
X3618800Y31874500D01*
X15182745Y31874500D01*
X15257245Y31854538D01*
X15288104Y31830859D01*
X15351044Y31767919D01*
X15389608Y31701124D01*
X15392327Y31659764D01*
X15394318Y31659764D01*
X15394318Y31649998D01*
X15414954Y31493243D01*
X15475463Y31347160D01*
X15475464Y31347159D01*
X15571718Y31221718D01*
X15697159Y31125464D01*
X15843238Y31064956D01*
X15843241Y31064956D01*
X15843243Y31064955D01*
X15843240Y31064955D01*
X15999997Y31044318D01*
X16000000Y31044318D01*
X16000003Y31044318D01*
X16156757Y31064955D01*
X16156758Y31064956D01*
X16156762Y31064956D01*
X16302841Y31125464D01*
X16428282Y31221718D01*
X16524536Y31347159D01*
X16585044Y31493238D01*
X16585544Y31497032D01*
X16605682Y31649998D01*
X16605682Y31650003D01*
X16585045Y31806758D01*
X16585044Y31806760D01*
X16585044Y31806762D01*
X16524536Y31952841D01*
X16428282Y32078282D01*
X16302841Y32174536D01*
X16302840Y32174537D01*
X16212221Y32212072D01*
X16156762Y32235044D01*
X16156760Y32235045D01*
X16156756Y32235046D01*
X16156759Y32235046D01*
X16000003Y32255682D01*
X15990236Y32255682D01*
X15990236Y32258774D01*
X15930367Y32266679D01*
X15882081Y32298956D01*
X15630560Y32550477D01*
X15544938Y32599910D01*
X15496086Y32613000D01*
X15496084Y32613001D01*
X15449436Y32625500D01*
X15449435Y32625500D01*
X3618800Y32625500D01*
X3544300Y32645462D01*
X3489762Y32700000D01*
X3480189Y32719838D01*
X3463118Y32763126D01*
X3463115Y32763132D01*
X3376868Y32876866D01*
X3376865Y32876869D01*
X3321891Y32918557D01*
X3263132Y32963115D01*
X3263130Y32963116D01*
X3235072Y32974181D01*
X3130346Y33015479D01*
X3130343Y33015480D01*
X3130342Y33015480D01*
X3046902Y33025500D01*
X2528098Y33025500D01*
X2528097Y33025500D01*
X2444657Y33015480D01*
X2444655Y33015480D01*
X2444654Y33015479D01*
X2392291Y32994830D01*
X2311869Y32963116D01*
X2311868Y32963116D01*
X2198134Y32876869D01*
X2198131Y32876866D01*
X2118724Y32772151D01*
X2057802Y32724851D01*
X1981393Y32714348D01*
X1909969Y32743458D01*
X1881276Y32772151D01*
X1801868Y32876866D01*
X1801865Y32876869D01*
X1746891Y32918557D01*
X1688132Y32963115D01*
X1688130Y32963116D01*
X1660072Y32974181D01*
X1555346Y33015479D01*
X1555343Y33015480D01*
X1555342Y33015480D01*
X1471902Y33025500D01*
X953098Y33025500D01*
X953097Y33025500D01*
X869657Y33015480D01*
X869655Y33015480D01*
X869654Y33015479D01*
X817291Y32994830D01*
X736869Y32963116D01*
X736868Y32963116D01*
X623134Y32876869D01*
X623131Y32876866D01*
X536884Y32763132D01*
X536884Y32763131D01*
X484521Y32630345D01*
X484520Y32630343D01*
X474500Y32546903D01*
X10500Y32546903D01*
X10500Y34546903D01*
X474500Y34546903D01*
X474500Y33953098D01*
X484520Y33869658D01*
X484520Y33869657D01*
X484521Y33869654D01*
X503425Y33821718D01*
X536884Y33736870D01*
X536884Y33736869D01*
X607067Y33644318D01*
X623133Y33623133D01*
X736868Y33536885D01*
X869654Y33484521D01*
X953098Y33474500D01*
X953099Y33474500D01*
X1471901Y33474500D01*
X1471902Y33474500D01*
X1555346Y33484521D01*
X1688132Y33536885D01*
X1801867Y33623133D01*
X1881277Y33727851D01*
X1942197Y33775150D01*
X2018607Y33785653D01*
X2090031Y33756543D01*
X2118724Y33727850D01*
X2166417Y33664956D01*
X2198133Y33623133D01*
X2311868Y33536885D01*
X2444654Y33484521D01*
X2528098Y33474500D01*
X2528099Y33474500D01*
X3046901Y33474500D01*
X3046902Y33474500D01*
X3130346Y33484521D01*
X3263132Y33536885D01*
X3376867Y33623133D01*
X3463115Y33736868D01*
X3463118Y33736875D01*
X3480189Y33780162D01*
X3526090Y33842144D01*
X3596833Y33872872D01*
X3618800Y33874500D01*
X17457738Y33874500D01*
X17532238Y33854538D01*
X17563398Y33827211D01*
X17564812Y33828624D01*
X17571717Y33821719D01*
X17571718Y33821718D01*
X17697159Y33725464D01*
X17843238Y33664956D01*
X17843241Y33664956D01*
X17843243Y33664955D01*
X17843240Y33664955D01*
X17999997Y33644318D01*
X18000000Y33644318D01*
X18000003Y33644318D01*
X18156757Y33664955D01*
X18156758Y33664956D01*
X18156762Y33664956D01*
X18302841Y33725464D01*
X18428282Y33821718D01*
X18524536Y33947159D01*
X18585044Y34093238D01*
X18592580Y34150475D01*
X18605682Y34249998D01*
X18605682Y34250003D01*
X18585045Y34406758D01*
X18585044Y34406760D01*
X18585044Y34406762D01*
X18524536Y34552841D01*
X18428282Y34678282D01*
X18399979Y34700000D01*
X18302840Y34774537D01*
X18222944Y34807631D01*
X18156762Y34835044D01*
X18156760Y34835045D01*
X18156756Y34835046D01*
X18156759Y34835046D01*
X18000003Y34855682D01*
X17999997Y34855682D01*
X17843242Y34835046D01*
X17697159Y34774537D01*
X17571718Y34678283D01*
X17564812Y34671376D01*
X17562620Y34673568D01*
X17514757Y34636842D01*
X17457738Y34625500D01*
X3618800Y34625500D01*
X3544300Y34645462D01*
X3489762Y34700000D01*
X3480189Y34719838D01*
X3463118Y34763126D01*
X3463115Y34763132D01*
X3376868Y34876866D01*
X3376865Y34876869D01*
X3321891Y34918557D01*
X3263132Y34963115D01*
X3263130Y34963116D01*
X3235072Y34974181D01*
X3130346Y35015479D01*
X3130343Y35015480D01*
X3130342Y35015480D01*
X3046902Y35025500D01*
X2528098Y35025500D01*
X2528097Y35025500D01*
X2444657Y35015480D01*
X2444655Y35015480D01*
X2444654Y35015479D01*
X2424502Y35007532D01*
X2311869Y34963116D01*
X2311868Y34963116D01*
X2198134Y34876869D01*
X2198131Y34876866D01*
X2118724Y34772151D01*
X2057802Y34724851D01*
X1981393Y34714348D01*
X1909969Y34743458D01*
X1881276Y34772151D01*
X1801868Y34876866D01*
X1801865Y34876869D01*
X1757591Y34910443D01*
X1688132Y34963115D01*
X1688130Y34963116D01*
X1669835Y34970331D01*
X1607853Y35016234D01*
X1577128Y35086978D01*
X1575500Y35108941D01*
X1575500Y35129114D01*
X1595462Y35203614D01*
X1636018Y35248997D01*
X1696423Y35293577D01*
X1774381Y35399206D01*
X1817741Y35523121D01*
X1820500Y35552543D01*
X1820499Y35927456D01*
X1817741Y35956879D01*
X1817739Y35956886D01*
X1774382Y36080793D01*
X1774381Y36080795D01*
X1696425Y36186420D01*
X1696423Y36186423D01*
X1696419Y36186426D01*
X1590796Y36264380D01*
X1590794Y36264381D01*
X1466879Y36307741D01*
X1466876Y36307742D01*
X1466874Y36307742D01*
X1437457Y36310500D01*
X962547Y36310500D01*
X962524Y36310498D01*
X933121Y36307742D01*
X933114Y36307740D01*
X809207Y36264383D01*
X809205Y36264382D01*
X703580Y36186426D01*
X703574Y36186420D01*
X625620Y36080797D01*
X625619Y36080794D01*
X582262Y35956886D01*
X582258Y35956875D01*
X579500Y35927466D01*
X579500Y35552548D01*
X579502Y35552525D01*
X582258Y35523122D01*
X582260Y35523115D01*
X625617Y35399208D01*
X625618Y35399206D01*
X703574Y35293581D01*
X703577Y35293577D01*
X763980Y35248997D01*
X812068Y35188698D01*
X824500Y35129114D01*
X824500Y35099082D01*
X804538Y35024582D01*
X750000Y34970044D01*
X744287Y34967287D01*
X736868Y34963115D01*
X623134Y34876869D01*
X623131Y34876866D01*
X536884Y34763132D01*
X536884Y34763131D01*
X484521Y34630345D01*
X484520Y34630343D01*
X474500Y34546903D01*
X10500Y34546903D01*
X10500Y44840500D01*
X30462Y44915000D01*
X85000Y44969538D01*
X159500Y44989500D01*
X2484448Y44989500D01*
X2558948Y44969538D01*
G37*
G04 #@! TD.AperFunction*
M02*
