G04 #@! TF.GenerationSoftware,KiCad,Pcbnew,(5.99.0-11065-g2a3d8e22b6)*
G04 #@! TF.CreationDate,2021-07-02T10:55:01+01:00*
G04 #@! TF.ProjectId,NB3_power,4e42335f-706f-4776-9572-2e6b69636164,0.0.2*
G04 #@! TF.SameCoordinates,PX7bfa480PY7bfa480*
G04 #@! TF.FileFunction,Legend,Top*
G04 #@! TF.FilePolarity,Positive*
%FSLAX46Y46*%
G04 Gerber Fmt 4.6, Leading zero omitted, Abs format (unit mm)*
G04 Created by KiCad (PCBNEW (5.99.0-11065-g2a3d8e22b6)) date 2021-07-02 10:55:01*
%MOMM*%
%LPD*%
G01*
G04 APERTURE LIST*
%ADD10C,0.120000*%
%ADD11C,0.300000*%
%ADD12C,0.150000*%
%ADD13C,0.127000*%
%ADD14C,0.400000*%
%ADD15C,0.152400*%
%ADD16C,2.000000*%
G04 APERTURE END LIST*
D10*
X17500000Y4500000D02*
X33500000Y4500000D01*
D11*
X16619047Y40095239D02*
X16619047Y42095239D01*
X17761904Y40095239D01*
X17761904Y42095239D01*
X19380952Y41142858D02*
X19666666Y41047620D01*
X19761904Y40952381D01*
X19857142Y40761905D01*
X19857142Y40476191D01*
X19761904Y40285715D01*
X19666666Y40190477D01*
X19476190Y40095239D01*
X18714285Y40095239D01*
X18714285Y42095239D01*
X19380952Y42095239D01*
X19571428Y42000000D01*
X19666666Y41904762D01*
X19761904Y41714286D01*
X19761904Y41523810D01*
X19666666Y41333334D01*
X19571428Y41238096D01*
X19380952Y41142858D01*
X18714285Y41142858D01*
X20523809Y42095239D02*
X21761904Y42095239D01*
X21095238Y41333334D01*
X21380952Y41333334D01*
X21571428Y41238096D01*
X21666666Y41142858D01*
X21761904Y40952381D01*
X21761904Y40476191D01*
X21666666Y40285715D01*
X21571428Y40190477D01*
X21380952Y40095239D01*
X20809523Y40095239D01*
X20619047Y40190477D01*
X20523809Y40285715D01*
X24142857Y40095239D02*
X24142857Y42095239D01*
X24904761Y42095239D01*
X25095238Y42000000D01*
X25190476Y41904762D01*
X25285714Y41714286D01*
X25285714Y41428572D01*
X25190476Y41238096D01*
X25095238Y41142858D01*
X24904761Y41047620D01*
X24142857Y41047620D01*
X26523809Y42095239D02*
X26904761Y42095239D01*
X27095238Y42000000D01*
X27285714Y41809524D01*
X27380952Y41428572D01*
X27380952Y40761905D01*
X27285714Y40380953D01*
X27095238Y40190477D01*
X26904761Y40095239D01*
X26523809Y40095239D01*
X26333333Y40190477D01*
X26142857Y40380953D01*
X26047619Y40761905D01*
X26047619Y41428572D01*
X26142857Y41809524D01*
X26333333Y42000000D01*
X26523809Y42095239D01*
X28047619Y42095239D02*
X28523809Y40095239D01*
X28904761Y41523810D01*
X29285714Y40095239D01*
X29761904Y42095239D01*
X30523809Y41142858D02*
X31190476Y41142858D01*
X31476190Y40095239D02*
X30523809Y40095239D01*
X30523809Y42095239D01*
X31476190Y42095239D01*
X33476190Y40095239D02*
X32809523Y41047620D01*
X32333333Y40095239D02*
X32333333Y42095239D01*
X33095238Y42095239D01*
X33285714Y42000000D01*
X33380952Y41904762D01*
X33476190Y41714286D01*
X33476190Y41428572D01*
X33380952Y41238096D01*
X33285714Y41142858D01*
X33095238Y41047620D01*
X32333333Y41047620D01*
D12*
X8004761Y6438096D02*
X8157142Y6438096D01*
X8233333Y6400000D01*
X8309523Y6323810D01*
X8347619Y6171429D01*
X8347619Y5904762D01*
X8309523Y5752381D01*
X8233333Y5676191D01*
X8157142Y5638096D01*
X8004761Y5638096D01*
X7928571Y5676191D01*
X7852380Y5752381D01*
X7814285Y5904762D01*
X7814285Y6171429D01*
X7852380Y6323810D01*
X7928571Y6400000D01*
X8004761Y6438096D01*
X8690476Y5638096D02*
X8690476Y6438096D01*
X9147619Y5638096D01*
X9147619Y6438096D01*
X47238095Y13500000D02*
X47142857Y13547620D01*
X47000000Y13547620D01*
X46857142Y13500000D01*
X46761904Y13404762D01*
X46714285Y13309524D01*
X46666666Y13119048D01*
X46666666Y12976191D01*
X46714285Y12785715D01*
X46761904Y12690477D01*
X46857142Y12595239D01*
X47000000Y12547620D01*
X47095238Y12547620D01*
X47238095Y12595239D01*
X47285714Y12642858D01*
X47285714Y12976191D01*
X47095238Y12976191D01*
X47714285Y12547620D02*
X47714285Y13547620D01*
X48285714Y12547620D01*
X48285714Y13547620D01*
X48761904Y12547620D02*
X48761904Y13547620D01*
X49000000Y13547620D01*
X49142857Y13500000D01*
X49238095Y13404762D01*
X49285714Y13309524D01*
X49333333Y13119048D01*
X49333333Y12976191D01*
X49285714Y12785715D01*
X49238095Y12690477D01*
X49142857Y12595239D01*
X49000000Y12547620D01*
X48761904Y12547620D01*
X18380952Y2547620D02*
X18380952Y3547620D01*
X18857142Y3214286D02*
X18857142Y2547620D01*
X18857142Y3119048D02*
X18904761Y3166667D01*
X19000000Y3214286D01*
X19142857Y3214286D01*
X19238095Y3166667D01*
X19285714Y3071429D01*
X19285714Y2547620D01*
X19761904Y3214286D02*
X19761904Y2214286D01*
X19761904Y3166667D02*
X19857142Y3214286D01*
X20047619Y3214286D01*
X20142857Y3166667D01*
X20190476Y3119048D01*
X20238095Y3023810D01*
X20238095Y2738096D01*
X20190476Y2642858D01*
X20142857Y2595239D01*
X20047619Y2547620D01*
X19857142Y2547620D01*
X19761904Y2595239D01*
X21095238Y3214286D02*
X21095238Y2547620D01*
X20666666Y3214286D02*
X20666666Y2690477D01*
X20714285Y2595239D01*
X20809523Y2547620D01*
X20952380Y2547620D01*
X21047619Y2595239D01*
X21095238Y2642858D01*
X21428571Y3214286D02*
X21809523Y3214286D01*
X21571428Y3547620D02*
X21571428Y2690477D01*
X21619047Y2595239D01*
X21714285Y2547620D01*
X21809523Y2547620D01*
X22142857Y2642858D02*
X22190476Y2595239D01*
X22142857Y2547620D01*
X22095238Y2595239D01*
X22142857Y2642858D01*
X22142857Y2547620D01*
X22142857Y3166667D02*
X22190476Y3119048D01*
X22142857Y3071429D01*
X22095238Y3119048D01*
X22142857Y3166667D01*
X22142857Y3071429D01*
X24142857Y2928572D02*
X24904761Y2928572D01*
X24523809Y2547620D02*
X24523809Y3309524D01*
X25809523Y3547620D02*
X25619047Y3547620D01*
X25523809Y3500000D01*
X25476190Y3452381D01*
X25380952Y3309524D01*
X25333333Y3119048D01*
X25333333Y2738096D01*
X25380952Y2642858D01*
X25428571Y2595239D01*
X25523809Y2547620D01*
X25714285Y2547620D01*
X25809523Y2595239D01*
X25857142Y2642858D01*
X25904761Y2738096D01*
X25904761Y2976191D01*
X25857142Y3071429D01*
X25809523Y3119048D01*
X25714285Y3166667D01*
X25523809Y3166667D01*
X25428571Y3119048D01*
X25380952Y3071429D01*
X25333333Y2976191D01*
X26952380Y3214286D02*
X27333333Y3214286D01*
X27095238Y3547620D02*
X27095238Y2690477D01*
X27142857Y2595239D01*
X27238095Y2547620D01*
X27333333Y2547620D01*
X27809523Y2547620D02*
X27714285Y2595239D01*
X27666666Y2642858D01*
X27619047Y2738096D01*
X27619047Y3023810D01*
X27666666Y3119048D01*
X27714285Y3166667D01*
X27809523Y3214286D01*
X27952380Y3214286D01*
X28047619Y3166667D01*
X28095238Y3119048D01*
X28142857Y3023810D01*
X28142857Y2738096D01*
X28095238Y2642858D01*
X28047619Y2595239D01*
X27952380Y2547620D01*
X27809523Y2547620D01*
X29333333Y2928572D02*
X30095238Y2928572D01*
X29714285Y2547620D02*
X29714285Y3309524D01*
X30476190Y3547620D02*
X31095238Y3547620D01*
X30761904Y3166667D01*
X30904761Y3166667D01*
X31000000Y3119048D01*
X31047619Y3071429D01*
X31095238Y2976191D01*
X31095238Y2738096D01*
X31047619Y2642858D01*
X31000000Y2595239D01*
X30904761Y2547620D01*
X30619047Y2547620D01*
X30523809Y2595239D01*
X30476190Y2642858D01*
X31952380Y3547620D02*
X31761904Y3547620D01*
X31666666Y3500000D01*
X31619047Y3452381D01*
X31523809Y3309524D01*
X31476190Y3119048D01*
X31476190Y2738096D01*
X31523809Y2642858D01*
X31571428Y2595239D01*
X31666666Y2547620D01*
X31857142Y2547620D01*
X31952380Y2595239D01*
X32000000Y2642858D01*
X32047619Y2738096D01*
X32047619Y2976191D01*
X32000000Y3071429D01*
X31952380Y3119048D01*
X31857142Y3166667D01*
X31666666Y3166667D01*
X31571428Y3119048D01*
X31523809Y3071429D01*
X31476190Y2976191D01*
X33095238Y3547620D02*
X33428571Y2547620D01*
X33761904Y3547620D01*
X34238095Y2547620D02*
X34142857Y2595239D01*
X34095238Y2642858D01*
X34047619Y2738096D01*
X34047619Y3023810D01*
X34095238Y3119048D01*
X34142857Y3166667D01*
X34238095Y3214286D01*
X34380952Y3214286D01*
X34476190Y3166667D01*
X34523809Y3119048D01*
X34571428Y3023810D01*
X34571428Y2738096D01*
X34523809Y2642858D01*
X34476190Y2595239D01*
X34380952Y2547620D01*
X34238095Y2547620D01*
X35142857Y2547620D02*
X35047619Y2595239D01*
X35000000Y2690477D01*
X35000000Y3547620D01*
X35380952Y3214286D02*
X35761904Y3214286D01*
X35523809Y3547620D02*
X35523809Y2690477D01*
X35571428Y2595239D01*
X35666666Y2547620D01*
X35761904Y2547620D01*
X46714285Y30428572D02*
X47476190Y30428572D01*
X47095238Y30047620D02*
X47095238Y30809524D01*
X48428571Y31047620D02*
X47952380Y31047620D01*
X47904761Y30571429D01*
X47952380Y30619048D01*
X48047619Y30666667D01*
X48285714Y30666667D01*
X48380952Y30619048D01*
X48428571Y30571429D01*
X48476190Y30476191D01*
X48476190Y30238096D01*
X48428571Y30142858D01*
X48380952Y30095239D01*
X48285714Y30047620D01*
X48047619Y30047620D01*
X47952380Y30095239D01*
X47904761Y30142858D01*
X48761904Y31047620D02*
X49095238Y30047620D01*
X49428571Y31047620D01*
X46714285Y28928572D02*
X47476190Y28928572D01*
X47095238Y28547620D02*
X47095238Y29309524D01*
X48428571Y29547620D02*
X47952380Y29547620D01*
X47904761Y29071429D01*
X47952380Y29119048D01*
X48047619Y29166667D01*
X48285714Y29166667D01*
X48380952Y29119048D01*
X48428571Y29071429D01*
X48476190Y28976191D01*
X48476190Y28738096D01*
X48428571Y28642858D01*
X48380952Y28595239D01*
X48285714Y28547620D01*
X48047619Y28547620D01*
X47952380Y28595239D01*
X47904761Y28642858D01*
X48761904Y29547620D02*
X49095238Y28547620D01*
X49428571Y29547620D01*
X4014285Y34438096D02*
X4166666Y34438096D01*
X4242857Y34400000D01*
X4319047Y34323810D01*
X4357142Y34171429D01*
X4357142Y33904762D01*
X4319047Y33752381D01*
X4242857Y33676191D01*
X4166666Y33638096D01*
X4014285Y33638096D01*
X3938095Y33676191D01*
X3861904Y33752381D01*
X3823809Y33904762D01*
X3823809Y34171429D01*
X3861904Y34323810D01*
X3938095Y34400000D01*
X4014285Y34438096D01*
X4700000Y34438096D02*
X4700000Y33790477D01*
X4738095Y33714286D01*
X4776190Y33676191D01*
X4852380Y33638096D01*
X5004761Y33638096D01*
X5080952Y33676191D01*
X5119047Y33714286D01*
X5157142Y33790477D01*
X5157142Y34438096D01*
X5423809Y34438096D02*
X5880952Y34438096D01*
X5652380Y33638096D02*
X5652380Y34438096D01*
X6147619Y33638096D02*
X6147619Y34438096D01*
X6452380Y34438096D01*
X6528571Y34400000D01*
X6566666Y34361905D01*
X6604761Y34285715D01*
X6604761Y34171429D01*
X6566666Y34095239D01*
X6528571Y34057143D01*
X6452380Y34019048D01*
X6147619Y34019048D01*
X6947619Y34438096D02*
X6947619Y33790477D01*
X6985714Y33714286D01*
X7023809Y33676191D01*
X7100000Y33638096D01*
X7252380Y33638096D01*
X7328571Y33676191D01*
X7366666Y33714286D01*
X7404761Y33790477D01*
X7404761Y34438096D01*
X7671428Y34438096D02*
X8128571Y34438096D01*
X7900000Y33638096D02*
X7900000Y34438096D01*
X9004761Y33638096D02*
X9004761Y34438096D01*
X9309523Y34438096D01*
X9385714Y34400000D01*
X9423809Y34361905D01*
X9461904Y34285715D01*
X9461904Y34171429D01*
X9423809Y34095239D01*
X9385714Y34057143D01*
X9309523Y34019048D01*
X9004761Y34019048D01*
X9728571Y34438096D02*
X9919047Y33638096D01*
X10071428Y34209524D01*
X10223809Y33638096D01*
X10414285Y34438096D01*
X11176190Y33638096D02*
X10909523Y34019048D01*
X10719047Y33638096D02*
X10719047Y34438096D01*
X11023809Y34438096D01*
X11100000Y34400000D01*
X11138095Y34361905D01*
X11176190Y34285715D01*
X11176190Y34171429D01*
X11138095Y34095239D01*
X11100000Y34057143D01*
X11023809Y34019048D01*
X10719047Y34019048D01*
X3895238Y31638096D02*
X3895238Y32438096D01*
X4276190Y31638096D02*
X4276190Y32438096D01*
X4733333Y31638096D01*
X4733333Y32438096D01*
X5114285Y31638096D02*
X5114285Y32438096D01*
X5419047Y32438096D01*
X5495238Y32400000D01*
X5533333Y32361905D01*
X5571428Y32285715D01*
X5571428Y32171429D01*
X5533333Y32095239D01*
X5495238Y32057143D01*
X5419047Y32019048D01*
X5114285Y32019048D01*
X5914285Y32438096D02*
X5914285Y31790477D01*
X5952380Y31714286D01*
X5990476Y31676191D01*
X6066666Y31638096D01*
X6219047Y31638096D01*
X6295238Y31676191D01*
X6333333Y31714286D01*
X6371428Y31790477D01*
X6371428Y32438096D01*
X6638095Y32438096D02*
X7095238Y32438096D01*
X6866666Y31638096D02*
X6866666Y32438096D01*
X7971428Y31638096D02*
X7971428Y32438096D01*
X8276190Y32438096D01*
X8352380Y32400000D01*
X8390476Y32361905D01*
X8428571Y32285715D01*
X8428571Y32171429D01*
X8390476Y32095239D01*
X8352380Y32057143D01*
X8276190Y32019048D01*
X7971428Y32019048D01*
X8695238Y32438096D02*
X8885714Y31638096D01*
X9038095Y32209524D01*
X9190476Y31638096D01*
X9380952Y32438096D01*
X10142857Y31638096D02*
X9876190Y32019048D01*
X9685714Y31638096D02*
X9685714Y32438096D01*
X9990476Y32438096D01*
X10066666Y32400000D01*
X10104761Y32361905D01*
X10142857Y32285715D01*
X10142857Y32171429D01*
X10104761Y32095239D01*
X10066666Y32057143D01*
X9990476Y32019048D01*
X9685714Y32019048D01*
X18500000Y2047620D02*
X18690476Y2047620D01*
X18785714Y2000000D01*
X18880952Y1904762D01*
X18928571Y1714286D01*
X18928571Y1380953D01*
X18880952Y1190477D01*
X18785714Y1095239D01*
X18690476Y1047620D01*
X18500000Y1047620D01*
X18404761Y1095239D01*
X18309523Y1190477D01*
X18261904Y1380953D01*
X18261904Y1714286D01*
X18309523Y1904762D01*
X18404761Y2000000D01*
X18500000Y2047620D01*
X19785714Y1714286D02*
X19785714Y1047620D01*
X19357142Y1714286D02*
X19357142Y1190477D01*
X19404761Y1095239D01*
X19500000Y1047620D01*
X19642857Y1047620D01*
X19738095Y1095239D01*
X19785714Y1142858D01*
X20119047Y1714286D02*
X20500000Y1714286D01*
X20261904Y2047620D02*
X20261904Y1190477D01*
X20309523Y1095239D01*
X20404761Y1047620D01*
X20500000Y1047620D01*
X20833333Y1714286D02*
X20833333Y714286D01*
X20833333Y1666667D02*
X20928571Y1714286D01*
X21119047Y1714286D01*
X21214285Y1666667D01*
X21261904Y1619048D01*
X21309523Y1523810D01*
X21309523Y1238096D01*
X21261904Y1142858D01*
X21214285Y1095239D01*
X21119047Y1047620D01*
X20928571Y1047620D01*
X20833333Y1095239D01*
X22166666Y1714286D02*
X22166666Y1047620D01*
X21738095Y1714286D02*
X21738095Y1190477D01*
X21785714Y1095239D01*
X21880952Y1047620D01*
X22023809Y1047620D01*
X22119047Y1095239D01*
X22166666Y1142858D01*
X22500000Y1714286D02*
X22880952Y1714286D01*
X22642857Y2047620D02*
X22642857Y1190477D01*
X22690476Y1095239D01*
X22785714Y1047620D01*
X22880952Y1047620D01*
X23214285Y1142858D02*
X23261904Y1095239D01*
X23214285Y1047620D01*
X23166666Y1095239D01*
X23214285Y1142858D01*
X23214285Y1047620D01*
X23214285Y1666667D02*
X23261904Y1619048D01*
X23214285Y1571429D01*
X23166666Y1619048D01*
X23214285Y1666667D01*
X23214285Y1571429D01*
X24452380Y1428572D02*
X25214285Y1428572D01*
X24833333Y1047620D02*
X24833333Y1809524D01*
X26166666Y2047620D02*
X25690476Y2047620D01*
X25642857Y1571429D01*
X25690476Y1619048D01*
X25785714Y1666667D01*
X26023809Y1666667D01*
X26119047Y1619048D01*
X26166666Y1571429D01*
X26214285Y1476191D01*
X26214285Y1238096D01*
X26166666Y1142858D01*
X26119047Y1095239D01*
X26023809Y1047620D01*
X25785714Y1047620D01*
X25690476Y1095239D01*
X25642857Y1142858D01*
X27261904Y2047620D02*
X27595238Y1047620D01*
X27928571Y2047620D01*
X28404761Y1047620D02*
X28309523Y1095239D01*
X28261904Y1142858D01*
X28214285Y1238096D01*
X28214285Y1523810D01*
X28261904Y1619048D01*
X28309523Y1666667D01*
X28404761Y1714286D01*
X28547619Y1714286D01*
X28642857Y1666667D01*
X28690476Y1619048D01*
X28738095Y1523810D01*
X28738095Y1238096D01*
X28690476Y1142858D01*
X28642857Y1095239D01*
X28547619Y1047620D01*
X28404761Y1047620D01*
X29309523Y1047620D02*
X29214285Y1095239D01*
X29166666Y1190477D01*
X29166666Y2047620D01*
X29547619Y1714286D02*
X29928571Y1714286D01*
X29690476Y2047620D02*
X29690476Y1190477D01*
X29738095Y1095239D01*
X29833333Y1047620D01*
X29928571Y1047620D01*
X31309523Y666667D02*
X31261904Y714286D01*
X31166666Y857143D01*
X31119047Y952381D01*
X31071428Y1095239D01*
X31023809Y1333334D01*
X31023809Y1523810D01*
X31071428Y1761905D01*
X31119047Y1904762D01*
X31166666Y2000000D01*
X31261904Y2142858D01*
X31309523Y2190477D01*
X32166666Y2047620D02*
X31690476Y2047620D01*
X31642857Y1571429D01*
X31690476Y1619048D01*
X31785714Y1666667D01*
X32023809Y1666667D01*
X32119047Y1619048D01*
X32166666Y1571429D01*
X32214285Y1476191D01*
X32214285Y1238096D01*
X32166666Y1142858D01*
X32119047Y1095239D01*
X32023809Y1047620D01*
X31785714Y1047620D01*
X31690476Y1095239D01*
X31642857Y1142858D01*
X33357142Y1333334D02*
X33833333Y1333334D01*
X33261904Y1047620D02*
X33595238Y2047620D01*
X33928571Y1047620D01*
X34261904Y1047620D02*
X34261904Y1714286D01*
X34261904Y1619048D02*
X34309523Y1666667D01*
X34404761Y1714286D01*
X34547619Y1714286D01*
X34642857Y1666667D01*
X34690476Y1571429D01*
X34690476Y1047620D01*
X34690476Y1571429D02*
X34738095Y1666667D01*
X34833333Y1714286D01*
X34976190Y1714286D01*
X35071428Y1666667D01*
X35119047Y1571429D01*
X35119047Y1047620D01*
X35595238Y1714286D02*
X35595238Y714286D01*
X35595238Y1666667D02*
X35690476Y1714286D01*
X35880952Y1714286D01*
X35976190Y1666667D01*
X36023809Y1619048D01*
X36071428Y1523810D01*
X36071428Y1238096D01*
X36023809Y1142858D01*
X35976190Y1095239D01*
X35880952Y1047620D01*
X35690476Y1047620D01*
X35595238Y1095239D01*
X36404761Y666667D02*
X36452380Y714286D01*
X36547619Y857143D01*
X36595238Y952381D01*
X36642857Y1095239D01*
X36690476Y1333334D01*
X36690476Y1523810D01*
X36642857Y1761905D01*
X36595238Y1904762D01*
X36547619Y2000000D01*
X36452380Y2142858D01*
X36404761Y2190477D01*
X738095Y6438096D02*
X890476Y6438096D01*
X966666Y6400000D01*
X1042857Y6323810D01*
X1080952Y6171429D01*
X1080952Y5904762D01*
X1042857Y5752381D01*
X966666Y5676191D01*
X890476Y5638096D01*
X738095Y5638096D01*
X661904Y5676191D01*
X585714Y5752381D01*
X547619Y5904762D01*
X547619Y6171429D01*
X585714Y6323810D01*
X661904Y6400000D01*
X738095Y6438096D01*
X1690476Y6057143D02*
X1423809Y6057143D01*
X1423809Y5638096D02*
X1423809Y6438096D01*
X1804761Y6438096D01*
X2376190Y6057143D02*
X2109523Y6057143D01*
X2109523Y5638096D02*
X2109523Y6438096D01*
X2490476Y6438096D01*
X17666666Y5047620D02*
X17666666Y6047620D01*
X17904761Y6047620D01*
X18047619Y6000000D01*
X18142857Y5904762D01*
X18190476Y5809524D01*
X18238095Y5619048D01*
X18238095Y5476191D01*
X18190476Y5285715D01*
X18142857Y5190477D01*
X18047619Y5095239D01*
X17904761Y5047620D01*
X17666666Y5047620D01*
X19238095Y5142858D02*
X19190476Y5095239D01*
X19047619Y5047620D01*
X18952380Y5047620D01*
X18809523Y5095239D01*
X18714285Y5190477D01*
X18666666Y5285715D01*
X18619047Y5476191D01*
X18619047Y5619048D01*
X18666666Y5809524D01*
X18714285Y5904762D01*
X18809523Y6000000D01*
X18952380Y6047620D01*
X19047619Y6047620D01*
X19190476Y6000000D01*
X19238095Y5952381D01*
X19666666Y5428572D02*
X20428571Y5428572D01*
X20904761Y5047620D02*
X20904761Y6047620D01*
X21142857Y6047620D01*
X21285714Y6000000D01*
X21380952Y5904762D01*
X21428571Y5809524D01*
X21476190Y5619048D01*
X21476190Y5476191D01*
X21428571Y5285715D01*
X21380952Y5190477D01*
X21285714Y5095239D01*
X21142857Y5047620D01*
X20904761Y5047620D01*
X22476190Y5142858D02*
X22428571Y5095239D01*
X22285714Y5047620D01*
X22190476Y5047620D01*
X22047619Y5095239D01*
X21952380Y5190477D01*
X21904761Y5285715D01*
X21857142Y5476191D01*
X21857142Y5619048D01*
X21904761Y5809524D01*
X21952380Y5904762D01*
X22047619Y6000000D01*
X22190476Y6047620D01*
X22285714Y6047620D01*
X22428571Y6000000D01*
X22476190Y5952381D01*
X23666666Y5047620D02*
X23666666Y6047620D01*
X24047619Y6047620D01*
X24142857Y6000000D01*
X24190476Y5952381D01*
X24238095Y5857143D01*
X24238095Y5714286D01*
X24190476Y5619048D01*
X24142857Y5571429D01*
X24047619Y5523810D01*
X23666666Y5523810D01*
X24809523Y5047620D02*
X24714285Y5095239D01*
X24666666Y5142858D01*
X24619047Y5238096D01*
X24619047Y5523810D01*
X24666666Y5619048D01*
X24714285Y5666667D01*
X24809523Y5714286D01*
X24952380Y5714286D01*
X25047619Y5666667D01*
X25095238Y5619048D01*
X25142857Y5523810D01*
X25142857Y5238096D01*
X25095238Y5142858D01*
X25047619Y5095239D01*
X24952380Y5047620D01*
X24809523Y5047620D01*
X25476190Y5714286D02*
X25666666Y5047620D01*
X25857142Y5523810D01*
X26047619Y5047620D01*
X26238095Y5714286D01*
X27000000Y5095239D02*
X26904761Y5047620D01*
X26714285Y5047620D01*
X26619047Y5095239D01*
X26571428Y5190477D01*
X26571428Y5571429D01*
X26619047Y5666667D01*
X26714285Y5714286D01*
X26904761Y5714286D01*
X27000000Y5666667D01*
X27047619Y5571429D01*
X27047619Y5476191D01*
X26571428Y5380953D01*
X27476190Y5047620D02*
X27476190Y5714286D01*
X27476190Y5523810D02*
X27523809Y5619048D01*
X27571428Y5666667D01*
X27666666Y5714286D01*
X27761904Y5714286D01*
X28809523Y5095239D02*
X28952380Y5047620D01*
X29190476Y5047620D01*
X29285714Y5095239D01*
X29333333Y5142858D01*
X29380952Y5238096D01*
X29380952Y5333334D01*
X29333333Y5428572D01*
X29285714Y5476191D01*
X29190476Y5523810D01*
X29000000Y5571429D01*
X28904761Y5619048D01*
X28857142Y5666667D01*
X28809523Y5761905D01*
X28809523Y5857143D01*
X28857142Y5952381D01*
X28904761Y6000000D01*
X29000000Y6047620D01*
X29238095Y6047620D01*
X29380952Y6000000D01*
X30238095Y5714286D02*
X30238095Y5047620D01*
X29809523Y5714286D02*
X29809523Y5190477D01*
X29857142Y5095239D01*
X29952380Y5047620D01*
X30095238Y5047620D01*
X30190476Y5095239D01*
X30238095Y5142858D01*
X30714285Y5714286D02*
X30714285Y4714286D01*
X30714285Y5666667D02*
X30809523Y5714286D01*
X31000000Y5714286D01*
X31095238Y5666667D01*
X31142857Y5619048D01*
X31190476Y5523810D01*
X31190476Y5238096D01*
X31142857Y5142858D01*
X31095238Y5095239D01*
X31000000Y5047620D01*
X30809523Y5047620D01*
X30714285Y5095239D01*
X31619047Y5714286D02*
X31619047Y4714286D01*
X31619047Y5666667D02*
X31714285Y5714286D01*
X31904761Y5714286D01*
X32000000Y5666667D01*
X32047619Y5619048D01*
X32095238Y5523810D01*
X32095238Y5238096D01*
X32047619Y5142858D01*
X32000000Y5095239D01*
X31904761Y5047620D01*
X31714285Y5047620D01*
X31619047Y5095239D01*
X32666666Y5047620D02*
X32571428Y5095239D01*
X32523809Y5190477D01*
X32523809Y6047620D01*
X32952380Y5714286D02*
X33190476Y5047620D01*
X33428571Y5714286D02*
X33190476Y5047620D01*
X33095238Y4809524D01*
X33047619Y4761905D01*
X32952380Y4714286D01*
X47238095Y15000000D02*
X47142857Y15047620D01*
X47000000Y15047620D01*
X46857142Y15000000D01*
X46761904Y14904762D01*
X46714285Y14809524D01*
X46666666Y14619048D01*
X46666666Y14476191D01*
X46714285Y14285715D01*
X46761904Y14190477D01*
X46857142Y14095239D01*
X47000000Y14047620D01*
X47095238Y14047620D01*
X47238095Y14095239D01*
X47285714Y14142858D01*
X47285714Y14476191D01*
X47095238Y14476191D01*
X47714285Y14047620D02*
X47714285Y15047620D01*
X48285714Y14047620D01*
X48285714Y15047620D01*
X48761904Y14047620D02*
X48761904Y15047620D01*
X49000000Y15047620D01*
X49142857Y15000000D01*
X49238095Y14904762D01*
X49285714Y14809524D01*
X49333333Y14619048D01*
X49333333Y14476191D01*
X49285714Y14285715D01*
X49238095Y14190477D01*
X49142857Y14095239D01*
X49000000Y14047620D01*
X48761904Y14047620D01*
X37433333Y27547620D02*
X36957142Y27547620D01*
X36957142Y28547620D01*
X38290476Y27547620D02*
X37719047Y27547620D01*
X38004761Y27547620D02*
X38004761Y28547620D01*
X37909523Y28404762D01*
X37814285Y28309524D01*
X37719047Y28261905D01*
X48047679Y21666666D02*
X48761965Y21666666D01*
X48904822Y21619047D01*
X49000060Y21523809D01*
X49047679Y21380952D01*
X49047679Y21285714D01*
X48142918Y22095238D02*
X48095299Y22142857D01*
X48047679Y22238095D01*
X48047679Y22476190D01*
X48095299Y22571428D01*
X48142918Y22619047D01*
X48238156Y22666666D01*
X48333394Y22666666D01*
X48476251Y22619047D01*
X49047679Y22047619D01*
X49047679Y22666666D01*
D10*
X33210000Y28596078D02*
X33210000Y28078922D01*
X31790000Y28596078D02*
X31790000Y28078922D01*
X1580000Y35846359D02*
X1580000Y36153641D01*
X820000Y35846359D02*
X820000Y36153641D01*
X24290000Y22891422D02*
X24290000Y23408578D01*
X25710000Y22891422D02*
X25710000Y23408578D01*
X515000Y34735000D02*
X515000Y33265000D01*
X2800000Y34735000D02*
X515000Y34735000D01*
X515000Y33265000D02*
X2800000Y33265000D01*
X24240000Y37150000D02*
X24240000Y29090000D01*
X24240000Y29090000D02*
X28760000Y29090000D01*
X28760000Y29090000D02*
X28760000Y37150000D01*
X20710000Y22891422D02*
X20710000Y23408578D01*
X19290000Y22891422D02*
X19290000Y23408578D01*
X29290000Y32078922D02*
X29290000Y32596078D01*
X30710000Y32078922D02*
X30710000Y32596078D01*
X1580000Y30263641D02*
X1580000Y29956359D01*
X820000Y30263641D02*
X820000Y29956359D01*
D13*
X3600000Y26500000D02*
X250000Y26500000D01*
X250000Y26500000D02*
X250000Y17500000D01*
X14750000Y26500000D02*
X10500000Y26500000D01*
X10500000Y17500000D02*
X14750000Y17500000D01*
X250000Y17500000D02*
X3600000Y17500000D01*
X14750000Y23350000D02*
X14750000Y26500000D01*
X14750000Y17500000D02*
X14750000Y19350000D01*
D14*
X17470000Y18810000D02*
G75*
G03*
X17470000Y18810000I-200000J0D01*
G01*
D13*
X750000Y7200000D02*
X750000Y10800000D01*
X3340000Y10800000D02*
X6660000Y10800000D01*
X9250000Y7200000D02*
X5880000Y7200000D01*
X4120000Y7200000D02*
X750000Y7200000D01*
X9250000Y10800000D02*
X9250000Y7200000D01*
D15*
X7641419Y11500000D02*
G75*
G03*
X7641419Y11500000I-141419J0D01*
G01*
D10*
X19290000Y19908578D02*
X19290000Y19391422D01*
X20710000Y19908578D02*
X20710000Y19391422D01*
X21790000Y19908578D02*
X21790000Y19391422D01*
X23210000Y19908578D02*
X23210000Y19391422D01*
X33210000Y32078922D02*
X33210000Y32596078D01*
X31790000Y32078922D02*
X31790000Y32596078D01*
X515000Y32735000D02*
X515000Y31265000D01*
X515000Y31265000D02*
X2800000Y31265000D01*
X2800000Y32735000D02*
X515000Y32735000D01*
X23210000Y22891422D02*
X23210000Y23408578D01*
X21790000Y22891422D02*
X21790000Y23408578D01*
X29290000Y28596078D02*
X29290000Y28078922D01*
X30710000Y28596078D02*
X30710000Y28078922D01*
X25710000Y19908578D02*
X25710000Y19391422D01*
X24290000Y19908578D02*
X24290000Y19391422D01*
X34400000Y25050000D02*
X34400000Y31250000D01*
X34400000Y25050000D02*
X34850000Y25050000D01*
X40600000Y25050000D02*
X40150000Y25050000D01*
X34400000Y31250000D02*
X34850000Y31250000D01*
X40600000Y31250000D02*
X40150000Y31250000D01*
X40600000Y31250000D02*
X40600000Y25050000D01*
X46775260Y28077000D02*
X41622999Y28077000D01*
X41622999Y28077000D02*
X41622999Y25828038D01*
X41622999Y18171960D02*
X41622999Y15922998D01*
X41622999Y20171958D02*
X41622999Y19828040D01*
X41622999Y22171959D02*
X41622999Y21828038D01*
X50487599Y17782839D02*
X50487599Y26217158D01*
X41622999Y15922998D02*
X46775260Y15922998D01*
X41622999Y24171958D02*
X41622999Y23828039D01*
X29539416Y19090000D02*
X29300000Y19090000D01*
X29539416Y24210000D02*
X27800000Y24210000D01*
X32960584Y24210000D02*
X33200000Y24210000D01*
X32960584Y19090000D02*
X33200000Y19090000D01*
D16*
X3250000Y22000000D03*
M02*
