G04 #@! TF.GenerationSoftware,KiCad,Pcbnew,8.0.2*
G04 #@! TF.CreationDate,2024-06-29T10:38:53+01:00*
G04 #@! TF.ProjectId,NB3_power,4e42335f-706f-4776-9572-2e6b69636164,0.0.5*
G04 #@! TF.SameCoordinates,PX7bfa480PY7c37510*
G04 #@! TF.FileFunction,Legend,Top*
G04 #@! TF.FilePolarity,Positive*
%FSLAX46Y46*%
G04 Gerber Fmt 4.6, Leading zero omitted, Abs format (unit mm)*
G04 Created by KiCad (PCBNEW 8.0.2) date 2024-06-29 10:38:53*
%MOMM*%
%LPD*%
G01*
G04 APERTURE LIST*
%ADD10C,0.200000*%
%ADD11C,0.120000*%
%ADD12C,0.150000*%
%ADD13C,0.300000*%
%ADD14C,0.127000*%
%ADD15C,0.400000*%
%ADD16C,0.152400*%
%ADD17C,2.000000*%
G04 APERTURE END LIST*
D10*
X16000000Y40000000D02*
X34500000Y40000000D01*
D11*
X25000000Y4750000D02*
X44500000Y4750000D01*
X44500000Y750000D01*
X25000000Y750000D01*
X25000000Y4750000D01*
X28500000Y10500000D02*
X49500000Y10500000D01*
X49500000Y7500000D01*
X28500000Y7500000D01*
X28500000Y10500000D01*
D12*
X19857143Y14850153D02*
X19857143Y15850153D01*
X20333333Y15516820D02*
X20333333Y14850153D01*
X20333333Y15421582D02*
X20380952Y15469201D01*
X20380952Y15469201D02*
X20476190Y15516820D01*
X20476190Y15516820D02*
X20619047Y15516820D01*
X20619047Y15516820D02*
X20714285Y15469201D01*
X20714285Y15469201D02*
X20761904Y15373963D01*
X20761904Y15373963D02*
X20761904Y14850153D01*
X21238095Y15516820D02*
X21238095Y14516820D01*
X21238095Y15469201D02*
X21333333Y15516820D01*
X21333333Y15516820D02*
X21523809Y15516820D01*
X21523809Y15516820D02*
X21619047Y15469201D01*
X21619047Y15469201D02*
X21666666Y15421582D01*
X21666666Y15421582D02*
X21714285Y15326344D01*
X21714285Y15326344D02*
X21714285Y15040630D01*
X21714285Y15040630D02*
X21666666Y14945392D01*
X21666666Y14945392D02*
X21619047Y14897772D01*
X21619047Y14897772D02*
X21523809Y14850153D01*
X21523809Y14850153D02*
X21333333Y14850153D01*
X21333333Y14850153D02*
X21238095Y14897772D01*
X22571428Y15516820D02*
X22571428Y14850153D01*
X22142857Y15516820D02*
X22142857Y14993011D01*
X22142857Y14993011D02*
X22190476Y14897772D01*
X22190476Y14897772D02*
X22285714Y14850153D01*
X22285714Y14850153D02*
X22428571Y14850153D01*
X22428571Y14850153D02*
X22523809Y14897772D01*
X22523809Y14897772D02*
X22571428Y14945392D01*
X22904762Y15516820D02*
X23285714Y15516820D01*
X23047619Y15850153D02*
X23047619Y14993011D01*
X23047619Y14993011D02*
X23095238Y14897772D01*
X23095238Y14897772D02*
X23190476Y14850153D01*
X23190476Y14850153D02*
X23285714Y14850153D01*
X18880952Y12906876D02*
X18642857Y12906876D01*
X18642857Y12906876D02*
X18642857Y14335448D01*
X18642857Y14335448D02*
X18880952Y14335448D01*
X19261905Y13621162D02*
X20023810Y13621162D01*
X19642857Y13240209D02*
X19642857Y14002114D01*
X20357143Y14240209D02*
X20690476Y13240209D01*
X20690476Y13240209D02*
X21023809Y14240209D01*
X22119048Y13621162D02*
X22880953Y13621162D01*
X22500000Y13240209D02*
X22500000Y14002114D01*
X23214286Y14240209D02*
X23547619Y13240209D01*
X23547619Y13240209D02*
X23880952Y14240209D01*
X24119048Y12906876D02*
X24357143Y12906876D01*
X24357143Y12906876D02*
X24357143Y14335448D01*
X24357143Y14335448D02*
X24119048Y14335448D01*
D13*
X16619047Y40840362D02*
X16619047Y42840362D01*
X16619047Y42840362D02*
X17761904Y40840362D01*
X17761904Y40840362D02*
X17761904Y42840362D01*
X19380952Y41887981D02*
X19666666Y41792743D01*
X19666666Y41792743D02*
X19761904Y41697505D01*
X19761904Y41697505D02*
X19857142Y41507029D01*
X19857142Y41507029D02*
X19857142Y41221315D01*
X19857142Y41221315D02*
X19761904Y41030839D01*
X19761904Y41030839D02*
X19666666Y40935600D01*
X19666666Y40935600D02*
X19476190Y40840362D01*
X19476190Y40840362D02*
X18714285Y40840362D01*
X18714285Y40840362D02*
X18714285Y42840362D01*
X18714285Y42840362D02*
X19380952Y42840362D01*
X19380952Y42840362D02*
X19571428Y42745124D01*
X19571428Y42745124D02*
X19666666Y42649886D01*
X19666666Y42649886D02*
X19761904Y42459410D01*
X19761904Y42459410D02*
X19761904Y42268934D01*
X19761904Y42268934D02*
X19666666Y42078458D01*
X19666666Y42078458D02*
X19571428Y41983220D01*
X19571428Y41983220D02*
X19380952Y41887981D01*
X19380952Y41887981D02*
X18714285Y41887981D01*
X20523809Y42840362D02*
X21761904Y42840362D01*
X21761904Y42840362D02*
X21095237Y42078458D01*
X21095237Y42078458D02*
X21380952Y42078458D01*
X21380952Y42078458D02*
X21571428Y41983220D01*
X21571428Y41983220D02*
X21666666Y41887981D01*
X21666666Y41887981D02*
X21761904Y41697505D01*
X21761904Y41697505D02*
X21761904Y41221315D01*
X21761904Y41221315D02*
X21666666Y41030839D01*
X21666666Y41030839D02*
X21571428Y40935600D01*
X21571428Y40935600D02*
X21380952Y40840362D01*
X21380952Y40840362D02*
X20809523Y40840362D01*
X20809523Y40840362D02*
X20619047Y40935600D01*
X20619047Y40935600D02*
X20523809Y41030839D01*
X24142857Y40840362D02*
X24142857Y42840362D01*
X24142857Y42840362D02*
X24904762Y42840362D01*
X24904762Y42840362D02*
X25095238Y42745124D01*
X25095238Y42745124D02*
X25190476Y42649886D01*
X25190476Y42649886D02*
X25285714Y42459410D01*
X25285714Y42459410D02*
X25285714Y42173696D01*
X25285714Y42173696D02*
X25190476Y41983220D01*
X25190476Y41983220D02*
X25095238Y41887981D01*
X25095238Y41887981D02*
X24904762Y41792743D01*
X24904762Y41792743D02*
X24142857Y41792743D01*
X26523809Y42840362D02*
X26904762Y42840362D01*
X26904762Y42840362D02*
X27095238Y42745124D01*
X27095238Y42745124D02*
X27285714Y42554648D01*
X27285714Y42554648D02*
X27380952Y42173696D01*
X27380952Y42173696D02*
X27380952Y41507029D01*
X27380952Y41507029D02*
X27285714Y41126077D01*
X27285714Y41126077D02*
X27095238Y40935600D01*
X27095238Y40935600D02*
X26904762Y40840362D01*
X26904762Y40840362D02*
X26523809Y40840362D01*
X26523809Y40840362D02*
X26333333Y40935600D01*
X26333333Y40935600D02*
X26142857Y41126077D01*
X26142857Y41126077D02*
X26047619Y41507029D01*
X26047619Y41507029D02*
X26047619Y42173696D01*
X26047619Y42173696D02*
X26142857Y42554648D01*
X26142857Y42554648D02*
X26333333Y42745124D01*
X26333333Y42745124D02*
X26523809Y42840362D01*
X28047619Y42840362D02*
X28523809Y40840362D01*
X28523809Y40840362D02*
X28904762Y42268934D01*
X28904762Y42268934D02*
X29285714Y40840362D01*
X29285714Y40840362D02*
X29761905Y42840362D01*
X30523809Y41887981D02*
X31190476Y41887981D01*
X31476190Y40840362D02*
X30523809Y40840362D01*
X30523809Y40840362D02*
X30523809Y42840362D01*
X30523809Y42840362D02*
X31476190Y42840362D01*
X33476190Y40840362D02*
X32809523Y41792743D01*
X32333333Y40840362D02*
X32333333Y42840362D01*
X32333333Y42840362D02*
X33095238Y42840362D01*
X33095238Y42840362D02*
X33285714Y42745124D01*
X33285714Y42745124D02*
X33380952Y42649886D01*
X33380952Y42649886D02*
X33476190Y42459410D01*
X33476190Y42459410D02*
X33476190Y42173696D01*
X33476190Y42173696D02*
X33380952Y41983220D01*
X33380952Y41983220D02*
X33285714Y41887981D01*
X33285714Y41887981D02*
X33095238Y41792743D01*
X33095238Y41792743D02*
X32333333Y41792743D01*
D12*
X8004762Y6687705D02*
X8157143Y6687705D01*
X8157143Y6687705D02*
X8233333Y6649610D01*
X8233333Y6649610D02*
X8309524Y6573420D01*
X8309524Y6573420D02*
X8347619Y6421039D01*
X8347619Y6421039D02*
X8347619Y6154372D01*
X8347619Y6154372D02*
X8309524Y6001991D01*
X8309524Y6001991D02*
X8233333Y5925800D01*
X8233333Y5925800D02*
X8157143Y5887705D01*
X8157143Y5887705D02*
X8004762Y5887705D01*
X8004762Y5887705D02*
X7928571Y5925800D01*
X7928571Y5925800D02*
X7852381Y6001991D01*
X7852381Y6001991D02*
X7814285Y6154372D01*
X7814285Y6154372D02*
X7814285Y6421039D01*
X7814285Y6421039D02*
X7852381Y6573420D01*
X7852381Y6573420D02*
X7928571Y6649610D01*
X7928571Y6649610D02*
X8004762Y6687705D01*
X8690476Y5887705D02*
X8690476Y6687705D01*
X8690476Y6687705D02*
X9147619Y5887705D01*
X9147619Y5887705D02*
X9147619Y6687705D01*
X47238095Y13747562D02*
X47142857Y13795181D01*
X47142857Y13795181D02*
X47000000Y13795181D01*
X47000000Y13795181D02*
X46857143Y13747562D01*
X46857143Y13747562D02*
X46761905Y13652324D01*
X46761905Y13652324D02*
X46714286Y13557086D01*
X46714286Y13557086D02*
X46666667Y13366610D01*
X46666667Y13366610D02*
X46666667Y13223753D01*
X46666667Y13223753D02*
X46714286Y13033277D01*
X46714286Y13033277D02*
X46761905Y12938039D01*
X46761905Y12938039D02*
X46857143Y12842800D01*
X46857143Y12842800D02*
X47000000Y12795181D01*
X47000000Y12795181D02*
X47095238Y12795181D01*
X47095238Y12795181D02*
X47238095Y12842800D01*
X47238095Y12842800D02*
X47285714Y12890420D01*
X47285714Y12890420D02*
X47285714Y13223753D01*
X47285714Y13223753D02*
X47095238Y13223753D01*
X47714286Y12795181D02*
X47714286Y13795181D01*
X47714286Y13795181D02*
X48285714Y12795181D01*
X48285714Y12795181D02*
X48285714Y13795181D01*
X48761905Y12795181D02*
X48761905Y13795181D01*
X48761905Y13795181D02*
X49000000Y13795181D01*
X49000000Y13795181D02*
X49142857Y13747562D01*
X49142857Y13747562D02*
X49238095Y13652324D01*
X49238095Y13652324D02*
X49285714Y13557086D01*
X49285714Y13557086D02*
X49333333Y13366610D01*
X49333333Y13366610D02*
X49333333Y13223753D01*
X49333333Y13223753D02*
X49285714Y13033277D01*
X49285714Y13033277D02*
X49238095Y12938039D01*
X49238095Y12938039D02*
X49142857Y12842800D01*
X49142857Y12842800D02*
X49000000Y12795181D01*
X49000000Y12795181D02*
X48761905Y12795181D01*
X25630951Y3045181D02*
X25630951Y4045181D01*
X26107141Y3711848D02*
X26107141Y3045181D01*
X26107141Y3616610D02*
X26154760Y3664229D01*
X26154760Y3664229D02*
X26249998Y3711848D01*
X26249998Y3711848D02*
X26392855Y3711848D01*
X26392855Y3711848D02*
X26488093Y3664229D01*
X26488093Y3664229D02*
X26535712Y3568991D01*
X26535712Y3568991D02*
X26535712Y3045181D01*
X27011903Y3711848D02*
X27011903Y2711848D01*
X27011903Y3664229D02*
X27107141Y3711848D01*
X27107141Y3711848D02*
X27297617Y3711848D01*
X27297617Y3711848D02*
X27392855Y3664229D01*
X27392855Y3664229D02*
X27440474Y3616610D01*
X27440474Y3616610D02*
X27488093Y3521372D01*
X27488093Y3521372D02*
X27488093Y3235658D01*
X27488093Y3235658D02*
X27440474Y3140420D01*
X27440474Y3140420D02*
X27392855Y3092800D01*
X27392855Y3092800D02*
X27297617Y3045181D01*
X27297617Y3045181D02*
X27107141Y3045181D01*
X27107141Y3045181D02*
X27011903Y3092800D01*
X28345236Y3711848D02*
X28345236Y3045181D01*
X27916665Y3711848D02*
X27916665Y3188039D01*
X27916665Y3188039D02*
X27964284Y3092800D01*
X27964284Y3092800D02*
X28059522Y3045181D01*
X28059522Y3045181D02*
X28202379Y3045181D01*
X28202379Y3045181D02*
X28297617Y3092800D01*
X28297617Y3092800D02*
X28345236Y3140420D01*
X28678570Y3711848D02*
X29059522Y3711848D01*
X28821427Y4045181D02*
X28821427Y3188039D01*
X28821427Y3188039D02*
X28869046Y3092800D01*
X28869046Y3092800D02*
X28964284Y3045181D01*
X28964284Y3045181D02*
X29059522Y3045181D01*
X29392856Y3140420D02*
X29440475Y3092800D01*
X29440475Y3092800D02*
X29392856Y3045181D01*
X29392856Y3045181D02*
X29345237Y3092800D01*
X29345237Y3092800D02*
X29392856Y3140420D01*
X29392856Y3140420D02*
X29392856Y3045181D01*
X29392856Y3664229D02*
X29440475Y3616610D01*
X29440475Y3616610D02*
X29392856Y3568991D01*
X29392856Y3568991D02*
X29345237Y3616610D01*
X29345237Y3616610D02*
X29392856Y3664229D01*
X29392856Y3664229D02*
X29392856Y3568991D01*
X31392856Y3426134D02*
X32154761Y3426134D01*
X31773808Y3045181D02*
X31773808Y3807086D01*
X33059522Y4045181D02*
X32869046Y4045181D01*
X32869046Y4045181D02*
X32773808Y3997562D01*
X32773808Y3997562D02*
X32726189Y3949943D01*
X32726189Y3949943D02*
X32630951Y3807086D01*
X32630951Y3807086D02*
X32583332Y3616610D01*
X32583332Y3616610D02*
X32583332Y3235658D01*
X32583332Y3235658D02*
X32630951Y3140420D01*
X32630951Y3140420D02*
X32678570Y3092800D01*
X32678570Y3092800D02*
X32773808Y3045181D01*
X32773808Y3045181D02*
X32964284Y3045181D01*
X32964284Y3045181D02*
X33059522Y3092800D01*
X33059522Y3092800D02*
X33107141Y3140420D01*
X33107141Y3140420D02*
X33154760Y3235658D01*
X33154760Y3235658D02*
X33154760Y3473753D01*
X33154760Y3473753D02*
X33107141Y3568991D01*
X33107141Y3568991D02*
X33059522Y3616610D01*
X33059522Y3616610D02*
X32964284Y3664229D01*
X32964284Y3664229D02*
X32773808Y3664229D01*
X32773808Y3664229D02*
X32678570Y3616610D01*
X32678570Y3616610D02*
X32630951Y3568991D01*
X32630951Y3568991D02*
X32583332Y3473753D01*
X34202380Y3711848D02*
X34583332Y3711848D01*
X34345237Y4045181D02*
X34345237Y3188039D01*
X34345237Y3188039D02*
X34392856Y3092800D01*
X34392856Y3092800D02*
X34488094Y3045181D01*
X34488094Y3045181D02*
X34583332Y3045181D01*
X35059523Y3045181D02*
X34964285Y3092800D01*
X34964285Y3092800D02*
X34916666Y3140420D01*
X34916666Y3140420D02*
X34869047Y3235658D01*
X34869047Y3235658D02*
X34869047Y3521372D01*
X34869047Y3521372D02*
X34916666Y3616610D01*
X34916666Y3616610D02*
X34964285Y3664229D01*
X34964285Y3664229D02*
X35059523Y3711848D01*
X35059523Y3711848D02*
X35202380Y3711848D01*
X35202380Y3711848D02*
X35297618Y3664229D01*
X35297618Y3664229D02*
X35345237Y3616610D01*
X35345237Y3616610D02*
X35392856Y3521372D01*
X35392856Y3521372D02*
X35392856Y3235658D01*
X35392856Y3235658D02*
X35345237Y3140420D01*
X35345237Y3140420D02*
X35297618Y3092800D01*
X35297618Y3092800D02*
X35202380Y3045181D01*
X35202380Y3045181D02*
X35059523Y3045181D01*
X36583333Y3426134D02*
X37345238Y3426134D01*
X36964285Y3045181D02*
X36964285Y3807086D01*
X37726190Y4045181D02*
X38345237Y4045181D01*
X38345237Y4045181D02*
X38011904Y3664229D01*
X38011904Y3664229D02*
X38154761Y3664229D01*
X38154761Y3664229D02*
X38249999Y3616610D01*
X38249999Y3616610D02*
X38297618Y3568991D01*
X38297618Y3568991D02*
X38345237Y3473753D01*
X38345237Y3473753D02*
X38345237Y3235658D01*
X38345237Y3235658D02*
X38297618Y3140420D01*
X38297618Y3140420D02*
X38249999Y3092800D01*
X38249999Y3092800D02*
X38154761Y3045181D01*
X38154761Y3045181D02*
X37869047Y3045181D01*
X37869047Y3045181D02*
X37773809Y3092800D01*
X37773809Y3092800D02*
X37726190Y3140420D01*
X39202380Y4045181D02*
X39011904Y4045181D01*
X39011904Y4045181D02*
X38916666Y3997562D01*
X38916666Y3997562D02*
X38869047Y3949943D01*
X38869047Y3949943D02*
X38773809Y3807086D01*
X38773809Y3807086D02*
X38726190Y3616610D01*
X38726190Y3616610D02*
X38726190Y3235658D01*
X38726190Y3235658D02*
X38773809Y3140420D01*
X38773809Y3140420D02*
X38821428Y3092800D01*
X38821428Y3092800D02*
X38916666Y3045181D01*
X38916666Y3045181D02*
X39107142Y3045181D01*
X39107142Y3045181D02*
X39202380Y3092800D01*
X39202380Y3092800D02*
X39249999Y3140420D01*
X39249999Y3140420D02*
X39297618Y3235658D01*
X39297618Y3235658D02*
X39297618Y3473753D01*
X39297618Y3473753D02*
X39249999Y3568991D01*
X39249999Y3568991D02*
X39202380Y3616610D01*
X39202380Y3616610D02*
X39107142Y3664229D01*
X39107142Y3664229D02*
X38916666Y3664229D01*
X38916666Y3664229D02*
X38821428Y3616610D01*
X38821428Y3616610D02*
X38773809Y3568991D01*
X38773809Y3568991D02*
X38726190Y3473753D01*
X40345238Y4045181D02*
X40678571Y3045181D01*
X40678571Y3045181D02*
X41011904Y4045181D01*
X41488095Y3045181D02*
X41392857Y3092800D01*
X41392857Y3092800D02*
X41345238Y3140420D01*
X41345238Y3140420D02*
X41297619Y3235658D01*
X41297619Y3235658D02*
X41297619Y3521372D01*
X41297619Y3521372D02*
X41345238Y3616610D01*
X41345238Y3616610D02*
X41392857Y3664229D01*
X41392857Y3664229D02*
X41488095Y3711848D01*
X41488095Y3711848D02*
X41630952Y3711848D01*
X41630952Y3711848D02*
X41726190Y3664229D01*
X41726190Y3664229D02*
X41773809Y3616610D01*
X41773809Y3616610D02*
X41821428Y3521372D01*
X41821428Y3521372D02*
X41821428Y3235658D01*
X41821428Y3235658D02*
X41773809Y3140420D01*
X41773809Y3140420D02*
X41726190Y3092800D01*
X41726190Y3092800D02*
X41630952Y3045181D01*
X41630952Y3045181D02*
X41488095Y3045181D01*
X42392857Y3045181D02*
X42297619Y3092800D01*
X42297619Y3092800D02*
X42250000Y3188039D01*
X42250000Y3188039D02*
X42250000Y4045181D01*
X42630953Y3711848D02*
X43011905Y3711848D01*
X42773810Y4045181D02*
X42773810Y3188039D01*
X42773810Y3188039D02*
X42821429Y3092800D01*
X42821429Y3092800D02*
X42916667Y3045181D01*
X42916667Y3045181D02*
X43011905Y3045181D01*
X46714286Y30676134D02*
X47476191Y30676134D01*
X47095238Y30295181D02*
X47095238Y31057086D01*
X48428571Y31295181D02*
X47952381Y31295181D01*
X47952381Y31295181D02*
X47904762Y30818991D01*
X47904762Y30818991D02*
X47952381Y30866610D01*
X47952381Y30866610D02*
X48047619Y30914229D01*
X48047619Y30914229D02*
X48285714Y30914229D01*
X48285714Y30914229D02*
X48380952Y30866610D01*
X48380952Y30866610D02*
X48428571Y30818991D01*
X48428571Y30818991D02*
X48476190Y30723753D01*
X48476190Y30723753D02*
X48476190Y30485658D01*
X48476190Y30485658D02*
X48428571Y30390420D01*
X48428571Y30390420D02*
X48380952Y30342800D01*
X48380952Y30342800D02*
X48285714Y30295181D01*
X48285714Y30295181D02*
X48047619Y30295181D01*
X48047619Y30295181D02*
X47952381Y30342800D01*
X47952381Y30342800D02*
X47904762Y30390420D01*
X48761905Y31295181D02*
X49095238Y30295181D01*
X49095238Y30295181D02*
X49428571Y31295181D01*
X46714286Y29176134D02*
X47476191Y29176134D01*
X47095238Y28795181D02*
X47095238Y29557086D01*
X48428571Y29795181D02*
X47952381Y29795181D01*
X47952381Y29795181D02*
X47904762Y29318991D01*
X47904762Y29318991D02*
X47952381Y29366610D01*
X47952381Y29366610D02*
X48047619Y29414229D01*
X48047619Y29414229D02*
X48285714Y29414229D01*
X48285714Y29414229D02*
X48380952Y29366610D01*
X48380952Y29366610D02*
X48428571Y29318991D01*
X48428571Y29318991D02*
X48476190Y29223753D01*
X48476190Y29223753D02*
X48476190Y28985658D01*
X48476190Y28985658D02*
X48428571Y28890420D01*
X48428571Y28890420D02*
X48380952Y28842800D01*
X48380952Y28842800D02*
X48285714Y28795181D01*
X48285714Y28795181D02*
X48047619Y28795181D01*
X48047619Y28795181D02*
X47952381Y28842800D01*
X47952381Y28842800D02*
X47904762Y28890420D01*
X48761905Y29795181D02*
X49095238Y28795181D01*
X49095238Y28795181D02*
X49428571Y29795181D01*
X4014286Y34687705D02*
X4166667Y34687705D01*
X4166667Y34687705D02*
X4242857Y34649610D01*
X4242857Y34649610D02*
X4319048Y34573420D01*
X4319048Y34573420D02*
X4357143Y34421039D01*
X4357143Y34421039D02*
X4357143Y34154372D01*
X4357143Y34154372D02*
X4319048Y34001991D01*
X4319048Y34001991D02*
X4242857Y33925800D01*
X4242857Y33925800D02*
X4166667Y33887705D01*
X4166667Y33887705D02*
X4014286Y33887705D01*
X4014286Y33887705D02*
X3938095Y33925800D01*
X3938095Y33925800D02*
X3861905Y34001991D01*
X3861905Y34001991D02*
X3823809Y34154372D01*
X3823809Y34154372D02*
X3823809Y34421039D01*
X3823809Y34421039D02*
X3861905Y34573420D01*
X3861905Y34573420D02*
X3938095Y34649610D01*
X3938095Y34649610D02*
X4014286Y34687705D01*
X4700000Y34687705D02*
X4700000Y34040086D01*
X4700000Y34040086D02*
X4738095Y33963896D01*
X4738095Y33963896D02*
X4776190Y33925800D01*
X4776190Y33925800D02*
X4852381Y33887705D01*
X4852381Y33887705D02*
X5004762Y33887705D01*
X5004762Y33887705D02*
X5080952Y33925800D01*
X5080952Y33925800D02*
X5119047Y33963896D01*
X5119047Y33963896D02*
X5157143Y34040086D01*
X5157143Y34040086D02*
X5157143Y34687705D01*
X5423809Y34687705D02*
X5880952Y34687705D01*
X5652380Y33887705D02*
X5652380Y34687705D01*
X6147619Y33887705D02*
X6147619Y34687705D01*
X6147619Y34687705D02*
X6452381Y34687705D01*
X6452381Y34687705D02*
X6528571Y34649610D01*
X6528571Y34649610D02*
X6566666Y34611515D01*
X6566666Y34611515D02*
X6604762Y34535324D01*
X6604762Y34535324D02*
X6604762Y34421039D01*
X6604762Y34421039D02*
X6566666Y34344848D01*
X6566666Y34344848D02*
X6528571Y34306753D01*
X6528571Y34306753D02*
X6452381Y34268658D01*
X6452381Y34268658D02*
X6147619Y34268658D01*
X6947619Y34687705D02*
X6947619Y34040086D01*
X6947619Y34040086D02*
X6985714Y33963896D01*
X6985714Y33963896D02*
X7023809Y33925800D01*
X7023809Y33925800D02*
X7100000Y33887705D01*
X7100000Y33887705D02*
X7252381Y33887705D01*
X7252381Y33887705D02*
X7328571Y33925800D01*
X7328571Y33925800D02*
X7366666Y33963896D01*
X7366666Y33963896D02*
X7404762Y34040086D01*
X7404762Y34040086D02*
X7404762Y34687705D01*
X7671428Y34687705D02*
X8128571Y34687705D01*
X7899999Y33887705D02*
X7899999Y34687705D01*
X9004762Y33887705D02*
X9004762Y34687705D01*
X9004762Y34687705D02*
X9309524Y34687705D01*
X9309524Y34687705D02*
X9385714Y34649610D01*
X9385714Y34649610D02*
X9423809Y34611515D01*
X9423809Y34611515D02*
X9461905Y34535324D01*
X9461905Y34535324D02*
X9461905Y34421039D01*
X9461905Y34421039D02*
X9423809Y34344848D01*
X9423809Y34344848D02*
X9385714Y34306753D01*
X9385714Y34306753D02*
X9309524Y34268658D01*
X9309524Y34268658D02*
X9004762Y34268658D01*
X9728571Y34687705D02*
X9919047Y33887705D01*
X9919047Y33887705D02*
X10071428Y34459134D01*
X10071428Y34459134D02*
X10223809Y33887705D01*
X10223809Y33887705D02*
X10414286Y34687705D01*
X11176191Y33887705D02*
X10909524Y34268658D01*
X10719048Y33887705D02*
X10719048Y34687705D01*
X10719048Y34687705D02*
X11023810Y34687705D01*
X11023810Y34687705D02*
X11100000Y34649610D01*
X11100000Y34649610D02*
X11138095Y34611515D01*
X11138095Y34611515D02*
X11176191Y34535324D01*
X11176191Y34535324D02*
X11176191Y34421039D01*
X11176191Y34421039D02*
X11138095Y34344848D01*
X11138095Y34344848D02*
X11100000Y34306753D01*
X11100000Y34306753D02*
X11023810Y34268658D01*
X11023810Y34268658D02*
X10719048Y34268658D01*
X3895238Y31887705D02*
X3895238Y32687705D01*
X4276190Y31887705D02*
X4276190Y32687705D01*
X4276190Y32687705D02*
X4733333Y31887705D01*
X4733333Y31887705D02*
X4733333Y32687705D01*
X5114285Y31887705D02*
X5114285Y32687705D01*
X5114285Y32687705D02*
X5419047Y32687705D01*
X5419047Y32687705D02*
X5495237Y32649610D01*
X5495237Y32649610D02*
X5533332Y32611515D01*
X5533332Y32611515D02*
X5571428Y32535324D01*
X5571428Y32535324D02*
X5571428Y32421039D01*
X5571428Y32421039D02*
X5533332Y32344848D01*
X5533332Y32344848D02*
X5495237Y32306753D01*
X5495237Y32306753D02*
X5419047Y32268658D01*
X5419047Y32268658D02*
X5114285Y32268658D01*
X5914285Y32687705D02*
X5914285Y32040086D01*
X5914285Y32040086D02*
X5952380Y31963896D01*
X5952380Y31963896D02*
X5990475Y31925800D01*
X5990475Y31925800D02*
X6066666Y31887705D01*
X6066666Y31887705D02*
X6219047Y31887705D01*
X6219047Y31887705D02*
X6295237Y31925800D01*
X6295237Y31925800D02*
X6333332Y31963896D01*
X6333332Y31963896D02*
X6371428Y32040086D01*
X6371428Y32040086D02*
X6371428Y32687705D01*
X6638094Y32687705D02*
X7095237Y32687705D01*
X6866665Y31887705D02*
X6866665Y32687705D01*
X7971428Y31887705D02*
X7971428Y32687705D01*
X7971428Y32687705D02*
X8276190Y32687705D01*
X8276190Y32687705D02*
X8352380Y32649610D01*
X8352380Y32649610D02*
X8390475Y32611515D01*
X8390475Y32611515D02*
X8428571Y32535324D01*
X8428571Y32535324D02*
X8428571Y32421039D01*
X8428571Y32421039D02*
X8390475Y32344848D01*
X8390475Y32344848D02*
X8352380Y32306753D01*
X8352380Y32306753D02*
X8276190Y32268658D01*
X8276190Y32268658D02*
X7971428Y32268658D01*
X8695237Y32687705D02*
X8885713Y31887705D01*
X8885713Y31887705D02*
X9038094Y32459134D01*
X9038094Y32459134D02*
X9190475Y31887705D01*
X9190475Y31887705D02*
X9380952Y32687705D01*
X10142857Y31887705D02*
X9876190Y32268658D01*
X9685714Y31887705D02*
X9685714Y32687705D01*
X9685714Y32687705D02*
X9990476Y32687705D01*
X9990476Y32687705D02*
X10066666Y32649610D01*
X10066666Y32649610D02*
X10104761Y32611515D01*
X10104761Y32611515D02*
X10142857Y32535324D01*
X10142857Y32535324D02*
X10142857Y32421039D01*
X10142857Y32421039D02*
X10104761Y32344848D01*
X10104761Y32344848D02*
X10066666Y32306753D01*
X10066666Y32306753D02*
X9990476Y32268658D01*
X9990476Y32268658D02*
X9685714Y32268658D01*
X25749998Y2545181D02*
X25940474Y2545181D01*
X25940474Y2545181D02*
X26035712Y2497562D01*
X26035712Y2497562D02*
X26130950Y2402324D01*
X26130950Y2402324D02*
X26178569Y2211848D01*
X26178569Y2211848D02*
X26178569Y1878515D01*
X26178569Y1878515D02*
X26130950Y1688039D01*
X26130950Y1688039D02*
X26035712Y1592800D01*
X26035712Y1592800D02*
X25940474Y1545181D01*
X25940474Y1545181D02*
X25749998Y1545181D01*
X25749998Y1545181D02*
X25654760Y1592800D01*
X25654760Y1592800D02*
X25559522Y1688039D01*
X25559522Y1688039D02*
X25511903Y1878515D01*
X25511903Y1878515D02*
X25511903Y2211848D01*
X25511903Y2211848D02*
X25559522Y2402324D01*
X25559522Y2402324D02*
X25654760Y2497562D01*
X25654760Y2497562D02*
X25749998Y2545181D01*
X27035712Y2211848D02*
X27035712Y1545181D01*
X26607141Y2211848D02*
X26607141Y1688039D01*
X26607141Y1688039D02*
X26654760Y1592800D01*
X26654760Y1592800D02*
X26749998Y1545181D01*
X26749998Y1545181D02*
X26892855Y1545181D01*
X26892855Y1545181D02*
X26988093Y1592800D01*
X26988093Y1592800D02*
X27035712Y1640420D01*
X27369046Y2211848D02*
X27749998Y2211848D01*
X27511903Y2545181D02*
X27511903Y1688039D01*
X27511903Y1688039D02*
X27559522Y1592800D01*
X27559522Y1592800D02*
X27654760Y1545181D01*
X27654760Y1545181D02*
X27749998Y1545181D01*
X28083332Y2211848D02*
X28083332Y1211848D01*
X28083332Y2164229D02*
X28178570Y2211848D01*
X28178570Y2211848D02*
X28369046Y2211848D01*
X28369046Y2211848D02*
X28464284Y2164229D01*
X28464284Y2164229D02*
X28511903Y2116610D01*
X28511903Y2116610D02*
X28559522Y2021372D01*
X28559522Y2021372D02*
X28559522Y1735658D01*
X28559522Y1735658D02*
X28511903Y1640420D01*
X28511903Y1640420D02*
X28464284Y1592800D01*
X28464284Y1592800D02*
X28369046Y1545181D01*
X28369046Y1545181D02*
X28178570Y1545181D01*
X28178570Y1545181D02*
X28083332Y1592800D01*
X29416665Y2211848D02*
X29416665Y1545181D01*
X28988094Y2211848D02*
X28988094Y1688039D01*
X28988094Y1688039D02*
X29035713Y1592800D01*
X29035713Y1592800D02*
X29130951Y1545181D01*
X29130951Y1545181D02*
X29273808Y1545181D01*
X29273808Y1545181D02*
X29369046Y1592800D01*
X29369046Y1592800D02*
X29416665Y1640420D01*
X29749999Y2211848D02*
X30130951Y2211848D01*
X29892856Y2545181D02*
X29892856Y1688039D01*
X29892856Y1688039D02*
X29940475Y1592800D01*
X29940475Y1592800D02*
X30035713Y1545181D01*
X30035713Y1545181D02*
X30130951Y1545181D01*
X30464285Y1640420D02*
X30511904Y1592800D01*
X30511904Y1592800D02*
X30464285Y1545181D01*
X30464285Y1545181D02*
X30416666Y1592800D01*
X30416666Y1592800D02*
X30464285Y1640420D01*
X30464285Y1640420D02*
X30464285Y1545181D01*
X30464285Y2164229D02*
X30511904Y2116610D01*
X30511904Y2116610D02*
X30464285Y2068991D01*
X30464285Y2068991D02*
X30416666Y2116610D01*
X30416666Y2116610D02*
X30464285Y2164229D01*
X30464285Y2164229D02*
X30464285Y2068991D01*
X31702380Y1926134D02*
X32464285Y1926134D01*
X32083332Y1545181D02*
X32083332Y2307086D01*
X33416665Y2545181D02*
X32940475Y2545181D01*
X32940475Y2545181D02*
X32892856Y2068991D01*
X32892856Y2068991D02*
X32940475Y2116610D01*
X32940475Y2116610D02*
X33035713Y2164229D01*
X33035713Y2164229D02*
X33273808Y2164229D01*
X33273808Y2164229D02*
X33369046Y2116610D01*
X33369046Y2116610D02*
X33416665Y2068991D01*
X33416665Y2068991D02*
X33464284Y1973753D01*
X33464284Y1973753D02*
X33464284Y1735658D01*
X33464284Y1735658D02*
X33416665Y1640420D01*
X33416665Y1640420D02*
X33369046Y1592800D01*
X33369046Y1592800D02*
X33273808Y1545181D01*
X33273808Y1545181D02*
X33035713Y1545181D01*
X33035713Y1545181D02*
X32940475Y1592800D01*
X32940475Y1592800D02*
X32892856Y1640420D01*
X34511904Y2545181D02*
X34845237Y1545181D01*
X34845237Y1545181D02*
X35178570Y2545181D01*
X35654761Y1545181D02*
X35559523Y1592800D01*
X35559523Y1592800D02*
X35511904Y1640420D01*
X35511904Y1640420D02*
X35464285Y1735658D01*
X35464285Y1735658D02*
X35464285Y2021372D01*
X35464285Y2021372D02*
X35511904Y2116610D01*
X35511904Y2116610D02*
X35559523Y2164229D01*
X35559523Y2164229D02*
X35654761Y2211848D01*
X35654761Y2211848D02*
X35797618Y2211848D01*
X35797618Y2211848D02*
X35892856Y2164229D01*
X35892856Y2164229D02*
X35940475Y2116610D01*
X35940475Y2116610D02*
X35988094Y2021372D01*
X35988094Y2021372D02*
X35988094Y1735658D01*
X35988094Y1735658D02*
X35940475Y1640420D01*
X35940475Y1640420D02*
X35892856Y1592800D01*
X35892856Y1592800D02*
X35797618Y1545181D01*
X35797618Y1545181D02*
X35654761Y1545181D01*
X36559523Y1545181D02*
X36464285Y1592800D01*
X36464285Y1592800D02*
X36416666Y1688039D01*
X36416666Y1688039D02*
X36416666Y2545181D01*
X36797619Y2211848D02*
X37178571Y2211848D01*
X36940476Y2545181D02*
X36940476Y1688039D01*
X36940476Y1688039D02*
X36988095Y1592800D01*
X36988095Y1592800D02*
X37083333Y1545181D01*
X37083333Y1545181D02*
X37178571Y1545181D01*
X38559524Y1164229D02*
X38511905Y1211848D01*
X38511905Y1211848D02*
X38416667Y1354705D01*
X38416667Y1354705D02*
X38369048Y1449943D01*
X38369048Y1449943D02*
X38321429Y1592800D01*
X38321429Y1592800D02*
X38273810Y1830896D01*
X38273810Y1830896D02*
X38273810Y2021372D01*
X38273810Y2021372D02*
X38321429Y2259467D01*
X38321429Y2259467D02*
X38369048Y2402324D01*
X38369048Y2402324D02*
X38416667Y2497562D01*
X38416667Y2497562D02*
X38511905Y2640420D01*
X38511905Y2640420D02*
X38559524Y2688039D01*
X39416667Y2545181D02*
X38940477Y2545181D01*
X38940477Y2545181D02*
X38892858Y2068991D01*
X38892858Y2068991D02*
X38940477Y2116610D01*
X38940477Y2116610D02*
X39035715Y2164229D01*
X39035715Y2164229D02*
X39273810Y2164229D01*
X39273810Y2164229D02*
X39369048Y2116610D01*
X39369048Y2116610D02*
X39416667Y2068991D01*
X39416667Y2068991D02*
X39464286Y1973753D01*
X39464286Y1973753D02*
X39464286Y1735658D01*
X39464286Y1735658D02*
X39416667Y1640420D01*
X39416667Y1640420D02*
X39369048Y1592800D01*
X39369048Y1592800D02*
X39273810Y1545181D01*
X39273810Y1545181D02*
X39035715Y1545181D01*
X39035715Y1545181D02*
X38940477Y1592800D01*
X38940477Y1592800D02*
X38892858Y1640420D01*
X40607144Y1830896D02*
X41083334Y1830896D01*
X40511906Y1545181D02*
X40845239Y2545181D01*
X40845239Y2545181D02*
X41178572Y1545181D01*
X41511906Y1545181D02*
X41511906Y2211848D01*
X41511906Y2116610D02*
X41559525Y2164229D01*
X41559525Y2164229D02*
X41654763Y2211848D01*
X41654763Y2211848D02*
X41797620Y2211848D01*
X41797620Y2211848D02*
X41892858Y2164229D01*
X41892858Y2164229D02*
X41940477Y2068991D01*
X41940477Y2068991D02*
X41940477Y1545181D01*
X41940477Y2068991D02*
X41988096Y2164229D01*
X41988096Y2164229D02*
X42083334Y2211848D01*
X42083334Y2211848D02*
X42226191Y2211848D01*
X42226191Y2211848D02*
X42321430Y2164229D01*
X42321430Y2164229D02*
X42369049Y2068991D01*
X42369049Y2068991D02*
X42369049Y1545181D01*
X42845239Y2211848D02*
X42845239Y1211848D01*
X42845239Y2164229D02*
X42940477Y2211848D01*
X42940477Y2211848D02*
X43130953Y2211848D01*
X43130953Y2211848D02*
X43226191Y2164229D01*
X43226191Y2164229D02*
X43273810Y2116610D01*
X43273810Y2116610D02*
X43321429Y2021372D01*
X43321429Y2021372D02*
X43321429Y1735658D01*
X43321429Y1735658D02*
X43273810Y1640420D01*
X43273810Y1640420D02*
X43226191Y1592800D01*
X43226191Y1592800D02*
X43130953Y1545181D01*
X43130953Y1545181D02*
X42940477Y1545181D01*
X42940477Y1545181D02*
X42845239Y1592800D01*
X43654763Y1164229D02*
X43702382Y1211848D01*
X43702382Y1211848D02*
X43797620Y1354705D01*
X43797620Y1354705D02*
X43845239Y1449943D01*
X43845239Y1449943D02*
X43892858Y1592800D01*
X43892858Y1592800D02*
X43940477Y1830896D01*
X43940477Y1830896D02*
X43940477Y2021372D01*
X43940477Y2021372D02*
X43892858Y2259467D01*
X43892858Y2259467D02*
X43845239Y2402324D01*
X43845239Y2402324D02*
X43797620Y2497562D01*
X43797620Y2497562D02*
X43702382Y2640420D01*
X43702382Y2640420D02*
X43654763Y2688039D01*
X738096Y6687705D02*
X890477Y6687705D01*
X890477Y6687705D02*
X966667Y6649610D01*
X966667Y6649610D02*
X1042858Y6573420D01*
X1042858Y6573420D02*
X1080953Y6421039D01*
X1080953Y6421039D02*
X1080953Y6154372D01*
X1080953Y6154372D02*
X1042858Y6001991D01*
X1042858Y6001991D02*
X966667Y5925800D01*
X966667Y5925800D02*
X890477Y5887705D01*
X890477Y5887705D02*
X738096Y5887705D01*
X738096Y5887705D02*
X661905Y5925800D01*
X661905Y5925800D02*
X585715Y6001991D01*
X585715Y6001991D02*
X547619Y6154372D01*
X547619Y6154372D02*
X547619Y6421039D01*
X547619Y6421039D02*
X585715Y6573420D01*
X585715Y6573420D02*
X661905Y6649610D01*
X661905Y6649610D02*
X738096Y6687705D01*
X1690476Y6306753D02*
X1423810Y6306753D01*
X1423810Y5887705D02*
X1423810Y6687705D01*
X1423810Y6687705D02*
X1804762Y6687705D01*
X2376190Y6306753D02*
X2109524Y6306753D01*
X2109524Y5887705D02*
X2109524Y6687705D01*
X2109524Y6687705D02*
X2490476Y6687705D01*
D10*
X29208334Y8432127D02*
X29208334Y9682127D01*
X29208334Y9682127D02*
X29505953Y9682127D01*
X29505953Y9682127D02*
X29684524Y9622603D01*
X29684524Y9622603D02*
X29803572Y9503555D01*
X29803572Y9503555D02*
X29863095Y9384508D01*
X29863095Y9384508D02*
X29922619Y9146412D01*
X29922619Y9146412D02*
X29922619Y8967841D01*
X29922619Y8967841D02*
X29863095Y8729746D01*
X29863095Y8729746D02*
X29803572Y8610698D01*
X29803572Y8610698D02*
X29684524Y8491650D01*
X29684524Y8491650D02*
X29505953Y8432127D01*
X29505953Y8432127D02*
X29208334Y8432127D01*
X31172619Y8551174D02*
X31113095Y8491650D01*
X31113095Y8491650D02*
X30934524Y8432127D01*
X30934524Y8432127D02*
X30815476Y8432127D01*
X30815476Y8432127D02*
X30636905Y8491650D01*
X30636905Y8491650D02*
X30517857Y8610698D01*
X30517857Y8610698D02*
X30458334Y8729746D01*
X30458334Y8729746D02*
X30398810Y8967841D01*
X30398810Y8967841D02*
X30398810Y9146412D01*
X30398810Y9146412D02*
X30458334Y9384508D01*
X30458334Y9384508D02*
X30517857Y9503555D01*
X30517857Y9503555D02*
X30636905Y9622603D01*
X30636905Y9622603D02*
X30815476Y9682127D01*
X30815476Y9682127D02*
X30934524Y9682127D01*
X30934524Y9682127D02*
X31113095Y9622603D01*
X31113095Y9622603D02*
X31172619Y9563079D01*
X31708334Y8908317D02*
X32660715Y8908317D01*
X33255953Y8432127D02*
X33255953Y9682127D01*
X33255953Y9682127D02*
X33553572Y9682127D01*
X33553572Y9682127D02*
X33732143Y9622603D01*
X33732143Y9622603D02*
X33851191Y9503555D01*
X33851191Y9503555D02*
X33910714Y9384508D01*
X33910714Y9384508D02*
X33970238Y9146412D01*
X33970238Y9146412D02*
X33970238Y8967841D01*
X33970238Y8967841D02*
X33910714Y8729746D01*
X33910714Y8729746D02*
X33851191Y8610698D01*
X33851191Y8610698D02*
X33732143Y8491650D01*
X33732143Y8491650D02*
X33553572Y8432127D01*
X33553572Y8432127D02*
X33255953Y8432127D01*
X35220238Y8551174D02*
X35160714Y8491650D01*
X35160714Y8491650D02*
X34982143Y8432127D01*
X34982143Y8432127D02*
X34863095Y8432127D01*
X34863095Y8432127D02*
X34684524Y8491650D01*
X34684524Y8491650D02*
X34565476Y8610698D01*
X34565476Y8610698D02*
X34505953Y8729746D01*
X34505953Y8729746D02*
X34446429Y8967841D01*
X34446429Y8967841D02*
X34446429Y9146412D01*
X34446429Y9146412D02*
X34505953Y9384508D01*
X34505953Y9384508D02*
X34565476Y9503555D01*
X34565476Y9503555D02*
X34684524Y9622603D01*
X34684524Y9622603D02*
X34863095Y9682127D01*
X34863095Y9682127D02*
X34982143Y9682127D01*
X34982143Y9682127D02*
X35160714Y9622603D01*
X35160714Y9622603D02*
X35220238Y9563079D01*
X36708334Y8432127D02*
X36708334Y9682127D01*
X36708334Y9682127D02*
X37184524Y9682127D01*
X37184524Y9682127D02*
X37303572Y9622603D01*
X37303572Y9622603D02*
X37363095Y9563079D01*
X37363095Y9563079D02*
X37422619Y9444031D01*
X37422619Y9444031D02*
X37422619Y9265460D01*
X37422619Y9265460D02*
X37363095Y9146412D01*
X37363095Y9146412D02*
X37303572Y9086889D01*
X37303572Y9086889D02*
X37184524Y9027365D01*
X37184524Y9027365D02*
X36708334Y9027365D01*
X38136905Y8432127D02*
X38017857Y8491650D01*
X38017857Y8491650D02*
X37958334Y8551174D01*
X37958334Y8551174D02*
X37898810Y8670222D01*
X37898810Y8670222D02*
X37898810Y9027365D01*
X37898810Y9027365D02*
X37958334Y9146412D01*
X37958334Y9146412D02*
X38017857Y9205936D01*
X38017857Y9205936D02*
X38136905Y9265460D01*
X38136905Y9265460D02*
X38315476Y9265460D01*
X38315476Y9265460D02*
X38434524Y9205936D01*
X38434524Y9205936D02*
X38494048Y9146412D01*
X38494048Y9146412D02*
X38553572Y9027365D01*
X38553572Y9027365D02*
X38553572Y8670222D01*
X38553572Y8670222D02*
X38494048Y8551174D01*
X38494048Y8551174D02*
X38434524Y8491650D01*
X38434524Y8491650D02*
X38315476Y8432127D01*
X38315476Y8432127D02*
X38136905Y8432127D01*
X38970238Y9265460D02*
X39208333Y8432127D01*
X39208333Y8432127D02*
X39446428Y9027365D01*
X39446428Y9027365D02*
X39684524Y8432127D01*
X39684524Y8432127D02*
X39922619Y9265460D01*
X40875000Y8491650D02*
X40755952Y8432127D01*
X40755952Y8432127D02*
X40517857Y8432127D01*
X40517857Y8432127D02*
X40398810Y8491650D01*
X40398810Y8491650D02*
X40339286Y8610698D01*
X40339286Y8610698D02*
X40339286Y9086889D01*
X40339286Y9086889D02*
X40398810Y9205936D01*
X40398810Y9205936D02*
X40517857Y9265460D01*
X40517857Y9265460D02*
X40755952Y9265460D01*
X40755952Y9265460D02*
X40875000Y9205936D01*
X40875000Y9205936D02*
X40934524Y9086889D01*
X40934524Y9086889D02*
X40934524Y8967841D01*
X40934524Y8967841D02*
X40339286Y8848793D01*
X41470239Y8432127D02*
X41470239Y9265460D01*
X41470239Y9027365D02*
X41529762Y9146412D01*
X41529762Y9146412D02*
X41589286Y9205936D01*
X41589286Y9205936D02*
X41708334Y9265460D01*
X41708334Y9265460D02*
X41827381Y9265460D01*
X43136906Y8491650D02*
X43315477Y8432127D01*
X43315477Y8432127D02*
X43613096Y8432127D01*
X43613096Y8432127D02*
X43732144Y8491650D01*
X43732144Y8491650D02*
X43791668Y8551174D01*
X43791668Y8551174D02*
X43851191Y8670222D01*
X43851191Y8670222D02*
X43851191Y8789270D01*
X43851191Y8789270D02*
X43791668Y8908317D01*
X43791668Y8908317D02*
X43732144Y8967841D01*
X43732144Y8967841D02*
X43613096Y9027365D01*
X43613096Y9027365D02*
X43375001Y9086889D01*
X43375001Y9086889D02*
X43255953Y9146412D01*
X43255953Y9146412D02*
X43196430Y9205936D01*
X43196430Y9205936D02*
X43136906Y9324984D01*
X43136906Y9324984D02*
X43136906Y9444031D01*
X43136906Y9444031D02*
X43196430Y9563079D01*
X43196430Y9563079D02*
X43255953Y9622603D01*
X43255953Y9622603D02*
X43375001Y9682127D01*
X43375001Y9682127D02*
X43672620Y9682127D01*
X43672620Y9682127D02*
X43851191Y9622603D01*
X44922620Y9265460D02*
X44922620Y8432127D01*
X44386906Y9265460D02*
X44386906Y8610698D01*
X44386906Y8610698D02*
X44446429Y8491650D01*
X44446429Y8491650D02*
X44565477Y8432127D01*
X44565477Y8432127D02*
X44744048Y8432127D01*
X44744048Y8432127D02*
X44863096Y8491650D01*
X44863096Y8491650D02*
X44922620Y8551174D01*
X45517858Y9265460D02*
X45517858Y8015460D01*
X45517858Y9205936D02*
X45636905Y9265460D01*
X45636905Y9265460D02*
X45875000Y9265460D01*
X45875000Y9265460D02*
X45994048Y9205936D01*
X45994048Y9205936D02*
X46053572Y9146412D01*
X46053572Y9146412D02*
X46113096Y9027365D01*
X46113096Y9027365D02*
X46113096Y8670222D01*
X46113096Y8670222D02*
X46053572Y8551174D01*
X46053572Y8551174D02*
X45994048Y8491650D01*
X45994048Y8491650D02*
X45875000Y8432127D01*
X45875000Y8432127D02*
X45636905Y8432127D01*
X45636905Y8432127D02*
X45517858Y8491650D01*
X46648810Y9265460D02*
X46648810Y8015460D01*
X46648810Y9205936D02*
X46767857Y9265460D01*
X46767857Y9265460D02*
X47005952Y9265460D01*
X47005952Y9265460D02*
X47125000Y9205936D01*
X47125000Y9205936D02*
X47184524Y9146412D01*
X47184524Y9146412D02*
X47244048Y9027365D01*
X47244048Y9027365D02*
X47244048Y8670222D01*
X47244048Y8670222D02*
X47184524Y8551174D01*
X47184524Y8551174D02*
X47125000Y8491650D01*
X47125000Y8491650D02*
X47005952Y8432127D01*
X47005952Y8432127D02*
X46767857Y8432127D01*
X46767857Y8432127D02*
X46648810Y8491650D01*
X47958333Y8432127D02*
X47839285Y8491650D01*
X47839285Y8491650D02*
X47779762Y8610698D01*
X47779762Y8610698D02*
X47779762Y9682127D01*
X48315476Y9265460D02*
X48613095Y8432127D01*
X48910714Y9265460D02*
X48613095Y8432127D01*
X48613095Y8432127D02*
X48494047Y8134508D01*
X48494047Y8134508D02*
X48434524Y8074984D01*
X48434524Y8074984D02*
X48315476Y8015460D01*
D12*
X47238095Y15247562D02*
X47142857Y15295181D01*
X47142857Y15295181D02*
X47000000Y15295181D01*
X47000000Y15295181D02*
X46857143Y15247562D01*
X46857143Y15247562D02*
X46761905Y15152324D01*
X46761905Y15152324D02*
X46714286Y15057086D01*
X46714286Y15057086D02*
X46666667Y14866610D01*
X46666667Y14866610D02*
X46666667Y14723753D01*
X46666667Y14723753D02*
X46714286Y14533277D01*
X46714286Y14533277D02*
X46761905Y14438039D01*
X46761905Y14438039D02*
X46857143Y14342800D01*
X46857143Y14342800D02*
X47000000Y14295181D01*
X47000000Y14295181D02*
X47095238Y14295181D01*
X47095238Y14295181D02*
X47238095Y14342800D01*
X47238095Y14342800D02*
X47285714Y14390420D01*
X47285714Y14390420D02*
X47285714Y14723753D01*
X47285714Y14723753D02*
X47095238Y14723753D01*
X47714286Y14295181D02*
X47714286Y15295181D01*
X47714286Y15295181D02*
X48285714Y14295181D01*
X48285714Y14295181D02*
X48285714Y15295181D01*
X48761905Y14295181D02*
X48761905Y15295181D01*
X48761905Y15295181D02*
X49000000Y15295181D01*
X49000000Y15295181D02*
X49142857Y15247562D01*
X49142857Y15247562D02*
X49238095Y15152324D01*
X49238095Y15152324D02*
X49285714Y15057086D01*
X49285714Y15057086D02*
X49333333Y14866610D01*
X49333333Y14866610D02*
X49333333Y14723753D01*
X49333333Y14723753D02*
X49285714Y14533277D01*
X49285714Y14533277D02*
X49238095Y14438039D01*
X49238095Y14438039D02*
X49142857Y14342800D01*
X49142857Y14342800D02*
X49000000Y14295181D01*
X49000000Y14295181D02*
X48761905Y14295181D01*
X37433333Y27795181D02*
X36957143Y27795181D01*
X36957143Y27795181D02*
X36957143Y28795181D01*
X38290476Y27795181D02*
X37719048Y27795181D01*
X38004762Y27795181D02*
X38004762Y28795181D01*
X38004762Y28795181D02*
X37909524Y28652324D01*
X37909524Y28652324D02*
X37814286Y28557086D01*
X37814286Y28557086D02*
X37719048Y28509467D01*
X48050118Y21916666D02*
X48764403Y21916666D01*
X48764403Y21916666D02*
X48907260Y21869047D01*
X48907260Y21869047D02*
X49002499Y21773809D01*
X49002499Y21773809D02*
X49050118Y21630952D01*
X49050118Y21630952D02*
X49050118Y21535714D01*
X48145356Y22345238D02*
X48097737Y22392857D01*
X48097737Y22392857D02*
X48050118Y22488095D01*
X48050118Y22488095D02*
X48050118Y22726190D01*
X48050118Y22726190D02*
X48097737Y22821428D01*
X48097737Y22821428D02*
X48145356Y22869047D01*
X48145356Y22869047D02*
X48240594Y22916666D01*
X48240594Y22916666D02*
X48335832Y22916666D01*
X48335832Y22916666D02*
X48478689Y22869047D01*
X48478689Y22869047D02*
X49050118Y22297619D01*
X49050118Y22297619D02*
X49050118Y22916666D01*
D11*
X33210000Y28846078D02*
X33210000Y28328922D01*
X31790000Y28846078D02*
X31790000Y28328922D01*
X820000Y36096359D02*
X820000Y36403641D01*
X1580000Y36096359D02*
X1580000Y36403641D01*
X24290000Y23141422D02*
X24290000Y23658578D01*
X25710000Y23141422D02*
X25710000Y23658578D01*
X515000Y34985000D02*
X515000Y33515000D01*
X515000Y33515000D02*
X2800000Y33515000D01*
X2800000Y34985000D02*
X515000Y34985000D01*
X24240000Y29340000D02*
X28760000Y29340000D01*
X28760000Y29340000D02*
X28760000Y37400000D01*
X24240000Y37400000D02*
X24240000Y29340000D01*
X19290000Y23141422D02*
X19290000Y23658578D01*
X20710000Y23141422D02*
X20710000Y23658578D01*
X29290000Y32328922D02*
X29290000Y32846078D01*
X30710000Y32328922D02*
X30710000Y32846078D01*
X1580000Y30513641D02*
X1580000Y30206359D01*
X820000Y30513641D02*
X820000Y30206359D01*
D14*
X250000Y26750000D02*
X250000Y17750000D01*
X250000Y17750000D02*
X3600000Y17750000D01*
X3600000Y26750000D02*
X250000Y26750000D01*
X10500000Y17750000D02*
X14750000Y17750000D01*
X14750000Y26750000D02*
X10500000Y26750000D01*
X14750000Y23600000D02*
X14750000Y26750000D01*
X14750000Y17750000D02*
X14750000Y19600000D01*
D15*
X17470000Y19060000D02*
G75*
G02*
X17070000Y19060000I-200000J0D01*
G01*
X17070000Y19060000D02*
G75*
G02*
X17470000Y19060000I200000J0D01*
G01*
D14*
X9250000Y7450000D02*
X5880000Y7450000D01*
X9250000Y11050000D02*
X9250000Y7450000D01*
X4120000Y7450000D02*
X750000Y7450000D01*
X3340000Y11050000D02*
X6660000Y11050000D01*
X750000Y7450000D02*
X750000Y11050000D01*
D16*
X7641419Y11750000D02*
G75*
G02*
X7358581Y11750000I-141419J0D01*
G01*
X7358581Y11750000D02*
G75*
G02*
X7641419Y11750000I141419J0D01*
G01*
D11*
X20710000Y20158578D02*
X20710000Y19641422D01*
X19290000Y20158578D02*
X19290000Y19641422D01*
X24045000Y12145000D02*
X24045000Y10875000D01*
X22775000Y12145000D02*
X24045000Y12145000D01*
X20615000Y9832071D02*
X20615000Y9435000D01*
X19855000Y9832071D02*
X19855000Y9435000D01*
X23155000Y9765000D02*
X23155000Y9435000D01*
X22395000Y9765000D02*
X22395000Y9435000D01*
X24105000Y9435000D02*
X18905000Y9435000D01*
X21505000Y9435000D02*
X21505000Y6775000D01*
X18905000Y9435000D02*
X18905000Y6775000D01*
X24105000Y6775000D02*
X24105000Y9435000D01*
X23155000Y6775000D02*
X23155000Y775000D01*
X23095000Y6775000D02*
X23095000Y775000D01*
X22975000Y6775000D02*
X22975000Y775000D01*
X22855000Y6775000D02*
X22855000Y775000D01*
X22735000Y6775000D02*
X22735000Y775000D01*
X22615000Y6775000D02*
X22615000Y775000D01*
X22495000Y6775000D02*
X22495000Y775000D01*
X20615000Y6775000D02*
X20615000Y775000D01*
X18905000Y6775000D02*
X24105000Y6775000D01*
X23155000Y775000D02*
X22395000Y775000D01*
X22395000Y775000D02*
X22395000Y6775000D01*
X20615000Y775000D02*
X19855000Y775000D01*
X19855000Y775000D02*
X19855000Y6775000D01*
X23210000Y20158578D02*
X23210000Y19641422D01*
X21790000Y20158578D02*
X21790000Y19641422D01*
X31790000Y32328922D02*
X31790000Y32846078D01*
X33210000Y32328922D02*
X33210000Y32846078D01*
X515000Y32985000D02*
X515000Y31515000D01*
X515000Y31515000D02*
X2800000Y31515000D01*
X2800000Y32985000D02*
X515000Y32985000D01*
X21790000Y23141422D02*
X21790000Y23658578D01*
X23210000Y23141422D02*
X23210000Y23658578D01*
X30710000Y28846078D02*
X30710000Y28328922D01*
X29290000Y28846078D02*
X29290000Y28328922D01*
X25710000Y20158578D02*
X25710000Y19641422D01*
X24290000Y20158578D02*
X24290000Y19641422D01*
X34400000Y25300000D02*
X34850000Y25300000D01*
X34400000Y25300000D02*
X34400000Y31500000D01*
X40600000Y25300000D02*
X40150000Y25300000D01*
X34400000Y31500000D02*
X34850000Y31500000D01*
X40600000Y31500000D02*
X40600000Y25300000D01*
X40600000Y31500000D02*
X40150000Y31500000D01*
X46775260Y28327000D02*
X41622999Y28327000D01*
X41622999Y28327000D02*
X41622999Y26078038D01*
X41622999Y24421958D02*
X41622999Y24078039D01*
X41622999Y22421959D02*
X41622999Y22078038D01*
X41622999Y20421958D02*
X41622999Y20078040D01*
X41622999Y18421960D02*
X41622999Y16172998D01*
X50487599Y18032839D02*
X50487599Y26467158D01*
X41622999Y16172998D02*
X46775260Y16172998D01*
X29539416Y24460000D02*
X27800000Y24460000D01*
X29539416Y19340000D02*
X29300000Y19340000D01*
X32960584Y24460000D02*
X33200000Y24460000D01*
X32960584Y19340000D02*
X33200000Y19340000D01*
D17*
X3250000Y22250000D03*
M02*
