M48
; DRILL file {KiCad (6.0.7)} date Thu 06 Oct 2022 12:21:01 BST
; FORMAT={-:-/ absolute / inch / decimal}
; #@! TF.CreationDate,2022-10-06T12:21:01+01:00
; #@! TF.GenerationSoftware,Kicad,Pcbnew,(6.0.7)
; #@! TF.FileFunction,Plated,1,2,PTH
FMAT,2
INCH
; #@! TA.AperFunction,Plated,PTH,ViaDrill
T1C0.0118
; #@! TA.AperFunction,Plated,PTH,ComponentDrill
T2C0.0118
%
G90
G05
T1
X0.0492Y1.4862
X0.0492Y1.1319
X0.6299Y1.2461
X0.6299Y0.9547
X0.6299Y0.7421
X0.6299Y0.435
X0.7087Y1.3484
X0.7874Y1.0098
X0.7874Y0.6949
X0.8858Y1.0098
X0.8858Y0.6949
X0.9252Y1.4469
X0.9843Y1.0098
X0.9843Y0.6949
X0.9882Y1.3484
X1.0669Y0.8096
X1.0669Y0.3406
X1.1299Y0.9705
X1.1614Y1.4469
X1.1811Y0.5965
X1.2008Y1.3716
X1.2008Y1.0197
X1.2303Y0.7244
X1.2303Y0.5965
X1.25Y1.0197
X1.2598Y1.3716
X1.2795Y0.5965
X1.5866Y0.9705
X1.6732Y0.6004
X1.7126Y0.6004
T2
X1.2047Y0.939
X1.2047Y0.8878
X1.2047Y0.8366
X1.2047Y0.7854
X1.2559Y0.939
X1.2559Y0.8878
X1.2559Y0.8366
X1.2559Y0.7854
T0
M30
