G04 #@! TF.GenerationSoftware,KiCad,Pcbnew,(6.0.7)*
G04 #@! TF.CreationDate,2022-10-06T12:21:05+01:00*
G04 #@! TF.ProjectId,NB3_power,4e42335f-706f-4776-9572-2e6b69636164,0.0.3*
G04 #@! TF.SameCoordinates,PX7bfa480PY7c37510*
G04 #@! TF.FileFunction,Legend,Bot*
G04 #@! TF.FilePolarity,Positive*
%FSLAX46Y46*%
G04 Gerber Fmt 4.6, Leading zero omitted, Abs format (unit mm)*
G04 Created by KiCad (PCBNEW (6.0.7)) date 2022-10-06 12:21:05*
%MOMM*%
%LPD*%
G01*
G04 APERTURE LIST*
%ADD10C,0.150000*%
%ADD11C,0.010000*%
G04 APERTURE END LIST*
D10*
X15309523Y3102620D02*
X15309523Y4102620D01*
X14738095Y3102620D01*
X14738095Y4102620D01*
X13928571Y3626429D02*
X13785714Y3578810D01*
X13738095Y3531191D01*
X13690476Y3435953D01*
X13690476Y3293096D01*
X13738095Y3197858D01*
X13785714Y3150239D01*
X13880952Y3102620D01*
X14261904Y3102620D01*
X14261904Y4102620D01*
X13928571Y4102620D01*
X13833333Y4055000D01*
X13785714Y4007381D01*
X13738095Y3912143D01*
X13738095Y3816905D01*
X13785714Y3721667D01*
X13833333Y3674048D01*
X13928571Y3626429D01*
X14261904Y3626429D01*
X13357142Y4102620D02*
X12738095Y4102620D01*
X13071428Y3721667D01*
X12928571Y3721667D01*
X12833333Y3674048D01*
X12785714Y3626429D01*
X12738095Y3531191D01*
X12738095Y3293096D01*
X12785714Y3197858D01*
X12833333Y3150239D01*
X12928571Y3102620D01*
X13214285Y3102620D01*
X13309523Y3150239D01*
X13357142Y3197858D01*
X12547619Y3007381D02*
X11785714Y3007381D01*
X11547619Y3769286D02*
X11547619Y2769286D01*
X11547619Y3721667D02*
X11452380Y3769286D01*
X11261904Y3769286D01*
X11166666Y3721667D01*
X11119047Y3674048D01*
X11071428Y3578810D01*
X11071428Y3293096D01*
X11119047Y3197858D01*
X11166666Y3150239D01*
X11261904Y3102620D01*
X11452380Y3102620D01*
X11547619Y3150239D01*
X10500000Y3102620D02*
X10595238Y3150239D01*
X10642857Y3197858D01*
X10690476Y3293096D01*
X10690476Y3578810D01*
X10642857Y3674048D01*
X10595238Y3721667D01*
X10500000Y3769286D01*
X10357142Y3769286D01*
X10261904Y3721667D01*
X10214285Y3674048D01*
X10166666Y3578810D01*
X10166666Y3293096D01*
X10214285Y3197858D01*
X10261904Y3150239D01*
X10357142Y3102620D01*
X10500000Y3102620D01*
X9833333Y3769286D02*
X9642857Y3102620D01*
X9452380Y3578810D01*
X9261904Y3102620D01*
X9071428Y3769286D01*
X8309523Y3150239D02*
X8404761Y3102620D01*
X8595238Y3102620D01*
X8690476Y3150239D01*
X8738095Y3245477D01*
X8738095Y3626429D01*
X8690476Y3721667D01*
X8595238Y3769286D01*
X8404761Y3769286D01*
X8309523Y3721667D01*
X8261904Y3626429D01*
X8261904Y3531191D01*
X8738095Y3435953D01*
X7833333Y3102620D02*
X7833333Y3769286D01*
X7833333Y3578810D02*
X7785714Y3674048D01*
X7738095Y3721667D01*
X7642857Y3769286D01*
X7547619Y3769286D01*
X14285714Y1492620D02*
X14619047Y1968810D01*
X14857142Y1492620D02*
X14857142Y2492620D01*
X14476190Y2492620D01*
X14380952Y2445000D01*
X14333333Y2397381D01*
X14285714Y2302143D01*
X14285714Y2159286D01*
X14333333Y2064048D01*
X14380952Y2016429D01*
X14476190Y1968810D01*
X14857142Y1968810D01*
X13476190Y1540239D02*
X13571428Y1492620D01*
X13761904Y1492620D01*
X13857142Y1540239D01*
X13904761Y1635477D01*
X13904761Y2016429D01*
X13857142Y2111667D01*
X13761904Y2159286D01*
X13571428Y2159286D01*
X13476190Y2111667D01*
X13428571Y2016429D01*
X13428571Y1921191D01*
X13904761Y1825953D01*
X13095238Y2159286D02*
X12857142Y1492620D01*
X12619047Y2159286D01*
X11285714Y2492620D02*
X11190476Y2492620D01*
X11095238Y2445000D01*
X11047619Y2397381D01*
X11000000Y2302143D01*
X10952380Y2111667D01*
X10952380Y1873572D01*
X11000000Y1683096D01*
X11047619Y1587858D01*
X11095238Y1540239D01*
X11190476Y1492620D01*
X11285714Y1492620D01*
X11380952Y1540239D01*
X11428571Y1587858D01*
X11476190Y1683096D01*
X11523809Y1873572D01*
X11523809Y2111667D01*
X11476190Y2302143D01*
X11428571Y2397381D01*
X11380952Y2445000D01*
X11285714Y2492620D01*
X10523809Y1587858D02*
X10476190Y1540239D01*
X10523809Y1492620D01*
X10571428Y1540239D01*
X10523809Y1587858D01*
X10523809Y1492620D01*
X9857142Y2492620D02*
X9761904Y2492620D01*
X9666666Y2445000D01*
X9619047Y2397381D01*
X9571428Y2302143D01*
X9523809Y2111667D01*
X9523809Y1873572D01*
X9571428Y1683096D01*
X9619047Y1587858D01*
X9666666Y1540239D01*
X9761904Y1492620D01*
X9857142Y1492620D01*
X9952380Y1540239D01*
X10000000Y1587858D01*
X10047619Y1683096D01*
X10095238Y1873572D01*
X10095238Y2111667D01*
X10047619Y2302143D01*
X10000000Y2397381D01*
X9952380Y2445000D01*
X9857142Y2492620D01*
X9095238Y1587858D02*
X9047619Y1540239D01*
X9095238Y1492620D01*
X9142857Y1540239D01*
X9095238Y1587858D01*
X9095238Y1492620D01*
X8714285Y2492620D02*
X8095238Y2492620D01*
X8428571Y2111667D01*
X8285714Y2111667D01*
X8190476Y2064048D01*
X8142857Y2016429D01*
X8095238Y1921191D01*
X8095238Y1683096D01*
X8142857Y1587858D01*
X8190476Y1540239D01*
X8285714Y1492620D01*
X8571428Y1492620D01*
X8666666Y1540239D01*
X8714285Y1587858D01*
G36*
X40104505Y10803312D02*
G01*
X40078947Y10651297D01*
X40048649Y10473140D01*
X40014477Y10274008D01*
X39977298Y10059071D01*
X39963017Y9976725D01*
X39926533Y9765436D01*
X39893168Y9570901D01*
X39863825Y9398471D01*
X39839408Y9253501D01*
X39820820Y9141341D01*
X39808964Y9067345D01*
X39804745Y9036865D01*
X39800812Y9023117D01*
X39768507Y9005859D01*
X39750896Y9010078D01*
X39689006Y9026695D01*
X39586518Y9054872D01*
X39447396Y9093488D01*
X39275599Y9141424D01*
X39075090Y9197560D01*
X38849830Y9260775D01*
X38603781Y9329950D01*
X38340903Y9403966D01*
X38065160Y9481701D01*
X37780511Y9562037D01*
X37490920Y9643853D01*
X37200346Y9726029D01*
X36912752Y9807446D01*
X36632100Y9886983D01*
X36362350Y9963522D01*
X36107464Y10035941D01*
X35871404Y10103121D01*
X35658131Y10163942D01*
X35471607Y10217285D01*
X35315793Y10262028D01*
X35194652Y10297053D01*
X35112143Y10321240D01*
X35072229Y10333468D01*
X35069103Y10334807D01*
X35061918Y10339079D01*
X35055436Y10343129D01*
X35051076Y10344442D01*
X35050255Y10340504D01*
X35054392Y10328803D01*
X35064906Y10306825D01*
X35083215Y10272055D01*
X35110738Y10221980D01*
X35148893Y10154086D01*
X35199099Y10065860D01*
X35262773Y9954787D01*
X35341335Y9818355D01*
X35436203Y9654049D01*
X35548796Y9459355D01*
X35680531Y9231761D01*
X35832828Y8968751D01*
X36007104Y8667813D01*
X36204779Y8326433D01*
X37318511Y6402839D01*
X36660381Y6065916D01*
X36605000Y6037655D01*
X36442106Y5955617D01*
X36294764Y5882998D01*
X36168663Y5822495D01*
X36069494Y5776809D01*
X36002946Y5748638D01*
X35974710Y5740680D01*
X35964777Y5756774D01*
X35934894Y5815033D01*
X35886824Y5912934D01*
X35821976Y6047493D01*
X35741758Y6215725D01*
X35647578Y6414646D01*
X35540845Y6641272D01*
X35422966Y6892619D01*
X35295350Y7165702D01*
X35159406Y7457536D01*
X35016541Y7765139D01*
X34868164Y8085525D01*
X34745585Y8350389D01*
X34602077Y8659975D01*
X34465461Y8954149D01*
X34337127Y9229950D01*
X34218462Y9484412D01*
X34110854Y9714572D01*
X34015692Y9917466D01*
X33934364Y10090130D01*
X33868258Y10229599D01*
X33818763Y10332911D01*
X33787266Y10397101D01*
X33775156Y10419204D01*
X33766869Y10398444D01*
X33744736Y10333290D01*
X33709817Y10226757D01*
X33663088Y10081930D01*
X33605527Y9901891D01*
X33538111Y9689726D01*
X33461818Y9448518D01*
X33377625Y9181351D01*
X33286510Y8891309D01*
X33189451Y8581476D01*
X33087423Y8254935D01*
X32981406Y7914772D01*
X32880860Y7591917D01*
X32778826Y7264596D01*
X32681844Y6953805D01*
X32590883Y6662630D01*
X32506909Y6394155D01*
X32430890Y6151463D01*
X32363791Y5937640D01*
X32306581Y5755769D01*
X32260227Y5608935D01*
X32225694Y5500223D01*
X32203951Y5432716D01*
X32195963Y5409498D01*
X32194049Y5410202D01*
X32160288Y5425510D01*
X32088843Y5458827D01*
X31985334Y5507504D01*
X31855383Y5568893D01*
X31704611Y5640344D01*
X31538639Y5719209D01*
X31500401Y5737456D01*
X31335783Y5817302D01*
X31189065Y5890530D01*
X31065668Y5954290D01*
X30971015Y6005734D01*
X30910527Y6042011D01*
X30889626Y6060274D01*
X30894724Y6074752D01*
X30917613Y6132039D01*
X30957707Y6229702D01*
X31013710Y6364662D01*
X31084330Y6533836D01*
X31168273Y6734144D01*
X31264245Y6962504D01*
X31370952Y7215835D01*
X31487101Y7491055D01*
X31611397Y7785083D01*
X31742547Y8094838D01*
X31879257Y8417238D01*
X31978704Y8651745D01*
X32111079Y8964398D01*
X32236756Y9261804D01*
X32354463Y9540923D01*
X32462927Y9798716D01*
X32560875Y10032142D01*
X32647033Y10238161D01*
X32720129Y10413733D01*
X32778889Y10555819D01*
X32822041Y10661377D01*
X32848312Y10727369D01*
X32856428Y10750753D01*
X32842626Y10754458D01*
X32784187Y10768559D01*
X32682969Y10792424D01*
X32542194Y10825307D01*
X32365083Y10866465D01*
X32154858Y10915151D01*
X31914740Y10970621D01*
X31647952Y11032131D01*
X31357713Y11098935D01*
X31047247Y11170289D01*
X30719774Y11245447D01*
X30378516Y11323666D01*
X30128462Y11381003D01*
X29796655Y11457280D01*
X29480875Y11530091D01*
X29184357Y11598682D01*
X29108268Y11616346D01*
X33549295Y11616346D01*
X33756044Y11210272D01*
X33962793Y10804199D01*
X36802930Y9992928D01*
X37048398Y9922827D01*
X37404055Y9821315D01*
X37744480Y9724219D01*
X38066722Y9632375D01*
X38367829Y9546624D01*
X38644850Y9467804D01*
X38894834Y9396753D01*
X39114829Y9334310D01*
X39301883Y9281315D01*
X39453046Y9238605D01*
X39565366Y9207019D01*
X39635891Y9187396D01*
X39661670Y9180574D01*
X39662140Y9180551D01*
X39680274Y9190883D01*
X39683489Y9211718D01*
X39694320Y9276451D01*
X39711861Y9379486D01*
X39735150Y9515213D01*
X39763222Y9678017D01*
X39795116Y9862289D01*
X39829867Y10062416D01*
X39860648Y10240551D01*
X39892324Y10426529D01*
X39919941Y10591546D01*
X39942589Y10730021D01*
X39959356Y10836377D01*
X39969331Y10905034D01*
X39971604Y10930415D01*
X39962314Y10932405D01*
X39909888Y10941548D01*
X39814625Y10957438D01*
X39680380Y10979459D01*
X39511008Y11006997D01*
X39310363Y11039437D01*
X39082302Y11076163D01*
X38830680Y11116560D01*
X38559351Y11160012D01*
X38272170Y11205905D01*
X37972993Y11253623D01*
X37665675Y11302552D01*
X37354071Y11352075D01*
X37042036Y11401577D01*
X36733425Y11450444D01*
X36432093Y11498060D01*
X36141895Y11543810D01*
X35866688Y11587079D01*
X35610324Y11627251D01*
X35376661Y11663711D01*
X35345549Y11668585D01*
X35196477Y11692864D01*
X35065512Y11715674D01*
X34960394Y11735565D01*
X34888867Y11751085D01*
X34858671Y11760783D01*
X34863504Y11777457D01*
X34888753Y11835754D01*
X34933973Y11933060D01*
X34997753Y12066514D01*
X35078684Y12233254D01*
X35175357Y12430420D01*
X35286362Y12655150D01*
X35410291Y12904584D01*
X35545733Y13175859D01*
X35691279Y13466115D01*
X35845521Y13772491D01*
X36007048Y14092125D01*
X36146844Y14368438D01*
X36300974Y14673546D01*
X36447219Y14963537D01*
X36584123Y15235498D01*
X36710229Y15486517D01*
X36824080Y15713684D01*
X36924219Y15914085D01*
X37009188Y16084809D01*
X37077531Y16222944D01*
X37127790Y16325578D01*
X37158508Y16389799D01*
X37168229Y16412696D01*
X37160774Y16417384D01*
X37115820Y16441165D01*
X37035935Y16481639D01*
X36927228Y16535833D01*
X36795808Y16600774D01*
X36647785Y16673489D01*
X36489267Y16751006D01*
X36326364Y16830353D01*
X36165185Y16908555D01*
X36011838Y16982641D01*
X35872434Y17049638D01*
X35753080Y17106573D01*
X35659888Y17150473D01*
X35598964Y17178366D01*
X35576419Y17187278D01*
X35571878Y17175734D01*
X35551690Y17121504D01*
X35516344Y17025476D01*
X35466886Y16890521D01*
X35404363Y16719508D01*
X35329822Y16515307D01*
X35244307Y16280787D01*
X35148866Y16018818D01*
X35044544Y15732270D01*
X34932388Y15424012D01*
X34813444Y15096913D01*
X34688759Y14753844D01*
X34559378Y14397675D01*
X33549295Y11616346D01*
X29108268Y11616346D01*
X28910334Y11662296D01*
X28662040Y11720175D01*
X28442710Y11771566D01*
X28255578Y11815710D01*
X28103877Y11851852D01*
X27990843Y11879235D01*
X27919708Y11897104D01*
X27893708Y11904701D01*
X27893600Y11904830D01*
X27894720Y11932724D01*
X27903815Y12001637D01*
X27919552Y12104102D01*
X27940596Y12232650D01*
X27965612Y12379813D01*
X27993267Y12538125D01*
X28022224Y12700115D01*
X28051151Y12858317D01*
X28078711Y13005263D01*
X28103572Y13133484D01*
X28124398Y13235513D01*
X28139855Y13303881D01*
X28148608Y13331121D01*
X28169932Y13325408D01*
X28235358Y13304852D01*
X28341824Y13270365D01*
X28486250Y13222971D01*
X28665560Y13163696D01*
X28876677Y13093563D01*
X29116522Y13013598D01*
X29382018Y12924823D01*
X29670088Y12828265D01*
X29977654Y12724946D01*
X30301639Y12615892D01*
X30638965Y12502128D01*
X30954383Y12395736D01*
X31279281Y12286334D01*
X31587937Y12182590D01*
X31877276Y12085529D01*
X32144225Y11996177D01*
X32385708Y11915557D01*
X32598650Y11844696D01*
X32779976Y11784618D01*
X32926612Y11736348D01*
X33035483Y11700911D01*
X33103513Y11679331D01*
X33127629Y11672633D01*
X33120051Y11688845D01*
X33090058Y11745603D01*
X33038774Y11840389D01*
X32967773Y11970347D01*
X32878632Y12132623D01*
X32772929Y12324362D01*
X32652238Y12542709D01*
X32518137Y12784810D01*
X32372202Y13047809D01*
X32216009Y13328852D01*
X32051134Y13625084D01*
X31879154Y13933650D01*
X31734179Y14193674D01*
X31567637Y14492603D01*
X31409329Y14776992D01*
X31260849Y15043965D01*
X31123795Y15290644D01*
X30999760Y15514152D01*
X30890341Y15711610D01*
X30797133Y15880143D01*
X30721732Y16016872D01*
X30665733Y16118920D01*
X30630732Y16183410D01*
X30618323Y16207465D01*
X30618598Y16208345D01*
X30644198Y16226640D01*
X30706589Y16263329D01*
X30799164Y16314960D01*
X30915312Y16378080D01*
X31048424Y16449235D01*
X31191892Y16524971D01*
X31339107Y16601836D01*
X31483458Y16676375D01*
X31618338Y16745137D01*
X31737136Y16804666D01*
X31833244Y16851511D01*
X31900053Y16882217D01*
X31930953Y16893331D01*
X31931146Y16893291D01*
X31945823Y16869323D01*
X31979086Y16803339D01*
X32029467Y16698532D01*
X32095496Y16558095D01*
X32175707Y16385220D01*
X32268630Y16183102D01*
X32372798Y15954932D01*
X32486742Y15703904D01*
X32608994Y15433211D01*
X32738086Y15146046D01*
X32872549Y14845602D01*
X32878163Y14833032D01*
X33012319Y14532901D01*
X33140794Y14245988D01*
X33262138Y13975504D01*
X33374900Y13724657D01*
X33477630Y13496659D01*
X33568877Y13294719D01*
X33647191Y13122046D01*
X33711122Y12981852D01*
X33759219Y12877345D01*
X33790033Y12811736D01*
X33802113Y12788234D01*
X33805125Y12793051D01*
X33823268Y12836095D01*
X33856523Y12921128D01*
X33903723Y13045006D01*
X33963703Y13204584D01*
X34035297Y13396719D01*
X34117339Y13618267D01*
X34208663Y13866084D01*
X34308104Y14137026D01*
X34414495Y14427948D01*
X34526671Y14735707D01*
X34643466Y15057158D01*
X34698491Y15208791D01*
X34813553Y15525558D01*
X34923507Y15827843D01*
X35027175Y16112430D01*
X35123379Y16376101D01*
X35210940Y16615642D01*
X35288682Y16827834D01*
X35355427Y17009462D01*
X35409996Y17157309D01*
X35451213Y17268159D01*
X35477898Y17338795D01*
X35488875Y17366000D01*
X35492600Y17368665D01*
X35522144Y17365660D01*
X35581578Y17345477D01*
X35673691Y17306906D01*
X35801271Y17248738D01*
X35967109Y17169762D01*
X36173993Y17068769D01*
X36186699Y17062514D01*
X36370942Y16972041D01*
X36554504Y16882259D01*
X36728629Y16797427D01*
X36884556Y16721804D01*
X37013529Y16659650D01*
X37106787Y16615221D01*
X37210030Y16565386D01*
X37294806Y16522172D01*
X37351990Y16490380D01*
X37372828Y16474635D01*
X37365232Y16458097D01*
X37336721Y16400057D01*
X37288444Y16303140D01*
X37221881Y16170278D01*
X37138509Y16004403D01*
X37039808Y15808448D01*
X36927256Y15585345D01*
X36802331Y15338025D01*
X36666511Y15069422D01*
X36521275Y14782468D01*
X36368102Y14480095D01*
X36208469Y14165234D01*
X36075064Y13901957D01*
X35921259Y13597754D01*
X35775435Y13308621D01*
X35639044Y13037472D01*
X35513540Y12787222D01*
X35400375Y12560784D01*
X35301002Y12361072D01*
X35216874Y12191000D01*
X35149443Y12053482D01*
X35100162Y11951431D01*
X35070484Y11887762D01*
X35061862Y11865388D01*
X35066220Y11864482D01*
X35105354Y11857768D01*
X35185205Y11844670D01*
X35306466Y11825077D01*
X35469826Y11798880D01*
X35675977Y11765969D01*
X35925608Y11726235D01*
X36219412Y11679567D01*
X36558079Y11625856D01*
X36942299Y11564992D01*
X37372765Y11496866D01*
X37850165Y11421367D01*
X38375192Y11338386D01*
X38948536Y11247812D01*
X38971602Y11244169D01*
X39206880Y11206916D01*
X39426284Y11172025D01*
X39625080Y11140259D01*
X39798535Y11112381D01*
X39941917Y11089155D01*
X40050490Y11071344D01*
X40119523Y11059711D01*
X40144282Y11055018D01*
X40144072Y11050812D01*
X40137934Y11008238D01*
X40125480Y10930415D01*
X40124456Y10924015D01*
X40104505Y10803312D01*
G37*
D11*
X40104505Y10803312D02*
X40078947Y10651297D01*
X40048649Y10473140D01*
X40014477Y10274008D01*
X39977298Y10059071D01*
X39963017Y9976725D01*
X39926533Y9765436D01*
X39893168Y9570901D01*
X39863825Y9398471D01*
X39839408Y9253501D01*
X39820820Y9141341D01*
X39808964Y9067345D01*
X39804745Y9036865D01*
X39800812Y9023117D01*
X39768507Y9005859D01*
X39750896Y9010078D01*
X39689006Y9026695D01*
X39586518Y9054872D01*
X39447396Y9093488D01*
X39275599Y9141424D01*
X39075090Y9197560D01*
X38849830Y9260775D01*
X38603781Y9329950D01*
X38340903Y9403966D01*
X38065160Y9481701D01*
X37780511Y9562037D01*
X37490920Y9643853D01*
X37200346Y9726029D01*
X36912752Y9807446D01*
X36632100Y9886983D01*
X36362350Y9963522D01*
X36107464Y10035941D01*
X35871404Y10103121D01*
X35658131Y10163942D01*
X35471607Y10217285D01*
X35315793Y10262028D01*
X35194652Y10297053D01*
X35112143Y10321240D01*
X35072229Y10333468D01*
X35069103Y10334807D01*
X35061918Y10339079D01*
X35055436Y10343129D01*
X35051076Y10344442D01*
X35050255Y10340504D01*
X35054392Y10328803D01*
X35064906Y10306825D01*
X35083215Y10272055D01*
X35110738Y10221980D01*
X35148893Y10154086D01*
X35199099Y10065860D01*
X35262773Y9954787D01*
X35341335Y9818355D01*
X35436203Y9654049D01*
X35548796Y9459355D01*
X35680531Y9231761D01*
X35832828Y8968751D01*
X36007104Y8667813D01*
X36204779Y8326433D01*
X37318511Y6402839D01*
X36660381Y6065916D01*
X36605000Y6037655D01*
X36442106Y5955617D01*
X36294764Y5882998D01*
X36168663Y5822495D01*
X36069494Y5776809D01*
X36002946Y5748638D01*
X35974710Y5740680D01*
X35964777Y5756774D01*
X35934894Y5815033D01*
X35886824Y5912934D01*
X35821976Y6047493D01*
X35741758Y6215725D01*
X35647578Y6414646D01*
X35540845Y6641272D01*
X35422966Y6892619D01*
X35295350Y7165702D01*
X35159406Y7457536D01*
X35016541Y7765139D01*
X34868164Y8085525D01*
X34745585Y8350389D01*
X34602077Y8659975D01*
X34465461Y8954149D01*
X34337127Y9229950D01*
X34218462Y9484412D01*
X34110854Y9714572D01*
X34015692Y9917466D01*
X33934364Y10090130D01*
X33868258Y10229599D01*
X33818763Y10332911D01*
X33787266Y10397101D01*
X33775156Y10419204D01*
X33766869Y10398444D01*
X33744736Y10333290D01*
X33709817Y10226757D01*
X33663088Y10081930D01*
X33605527Y9901891D01*
X33538111Y9689726D01*
X33461818Y9448518D01*
X33377625Y9181351D01*
X33286510Y8891309D01*
X33189451Y8581476D01*
X33087423Y8254935D01*
X32981406Y7914772D01*
X32880860Y7591917D01*
X32778826Y7264596D01*
X32681844Y6953805D01*
X32590883Y6662630D01*
X32506909Y6394155D01*
X32430890Y6151463D01*
X32363791Y5937640D01*
X32306581Y5755769D01*
X32260227Y5608935D01*
X32225694Y5500223D01*
X32203951Y5432716D01*
X32195963Y5409498D01*
X32194049Y5410202D01*
X32160288Y5425510D01*
X32088843Y5458827D01*
X31985334Y5507504D01*
X31855383Y5568893D01*
X31704611Y5640344D01*
X31538639Y5719209D01*
X31500401Y5737456D01*
X31335783Y5817302D01*
X31189065Y5890530D01*
X31065668Y5954290D01*
X30971015Y6005734D01*
X30910527Y6042011D01*
X30889626Y6060274D01*
X30894724Y6074752D01*
X30917613Y6132039D01*
X30957707Y6229702D01*
X31013710Y6364662D01*
X31084330Y6533836D01*
X31168273Y6734144D01*
X31264245Y6962504D01*
X31370952Y7215835D01*
X31487101Y7491055D01*
X31611397Y7785083D01*
X31742547Y8094838D01*
X31879257Y8417238D01*
X31978704Y8651745D01*
X32111079Y8964398D01*
X32236756Y9261804D01*
X32354463Y9540923D01*
X32462927Y9798716D01*
X32560875Y10032142D01*
X32647033Y10238161D01*
X32720129Y10413733D01*
X32778889Y10555819D01*
X32822041Y10661377D01*
X32848312Y10727369D01*
X32856428Y10750753D01*
X32842626Y10754458D01*
X32784187Y10768559D01*
X32682969Y10792424D01*
X32542194Y10825307D01*
X32365083Y10866465D01*
X32154858Y10915151D01*
X31914740Y10970621D01*
X31647952Y11032131D01*
X31357713Y11098935D01*
X31047247Y11170289D01*
X30719774Y11245447D01*
X30378516Y11323666D01*
X30128462Y11381003D01*
X29796655Y11457280D01*
X29480875Y11530091D01*
X29184357Y11598682D01*
X29108268Y11616346D01*
X33549295Y11616346D01*
X33756044Y11210272D01*
X33962793Y10804199D01*
X36802930Y9992928D01*
X37048398Y9922827D01*
X37404055Y9821315D01*
X37744480Y9724219D01*
X38066722Y9632375D01*
X38367829Y9546624D01*
X38644850Y9467804D01*
X38894834Y9396753D01*
X39114829Y9334310D01*
X39301883Y9281315D01*
X39453046Y9238605D01*
X39565366Y9207019D01*
X39635891Y9187396D01*
X39661670Y9180574D01*
X39662140Y9180551D01*
X39680274Y9190883D01*
X39683489Y9211718D01*
X39694320Y9276451D01*
X39711861Y9379486D01*
X39735150Y9515213D01*
X39763222Y9678017D01*
X39795116Y9862289D01*
X39829867Y10062416D01*
X39860648Y10240551D01*
X39892324Y10426529D01*
X39919941Y10591546D01*
X39942589Y10730021D01*
X39959356Y10836377D01*
X39969331Y10905034D01*
X39971604Y10930415D01*
X39962314Y10932405D01*
X39909888Y10941548D01*
X39814625Y10957438D01*
X39680380Y10979459D01*
X39511008Y11006997D01*
X39310363Y11039437D01*
X39082302Y11076163D01*
X38830680Y11116560D01*
X38559351Y11160012D01*
X38272170Y11205905D01*
X37972993Y11253623D01*
X37665675Y11302552D01*
X37354071Y11352075D01*
X37042036Y11401577D01*
X36733425Y11450444D01*
X36432093Y11498060D01*
X36141895Y11543810D01*
X35866688Y11587079D01*
X35610324Y11627251D01*
X35376661Y11663711D01*
X35345549Y11668585D01*
X35196477Y11692864D01*
X35065512Y11715674D01*
X34960394Y11735565D01*
X34888867Y11751085D01*
X34858671Y11760783D01*
X34863504Y11777457D01*
X34888753Y11835754D01*
X34933973Y11933060D01*
X34997753Y12066514D01*
X35078684Y12233254D01*
X35175357Y12430420D01*
X35286362Y12655150D01*
X35410291Y12904584D01*
X35545733Y13175859D01*
X35691279Y13466115D01*
X35845521Y13772491D01*
X36007048Y14092125D01*
X36146844Y14368438D01*
X36300974Y14673546D01*
X36447219Y14963537D01*
X36584123Y15235498D01*
X36710229Y15486517D01*
X36824080Y15713684D01*
X36924219Y15914085D01*
X37009188Y16084809D01*
X37077531Y16222944D01*
X37127790Y16325578D01*
X37158508Y16389799D01*
X37168229Y16412696D01*
X37160774Y16417384D01*
X37115820Y16441165D01*
X37035935Y16481639D01*
X36927228Y16535833D01*
X36795808Y16600774D01*
X36647785Y16673489D01*
X36489267Y16751006D01*
X36326364Y16830353D01*
X36165185Y16908555D01*
X36011838Y16982641D01*
X35872434Y17049638D01*
X35753080Y17106573D01*
X35659888Y17150473D01*
X35598964Y17178366D01*
X35576419Y17187278D01*
X35571878Y17175734D01*
X35551690Y17121504D01*
X35516344Y17025476D01*
X35466886Y16890521D01*
X35404363Y16719508D01*
X35329822Y16515307D01*
X35244307Y16280787D01*
X35148866Y16018818D01*
X35044544Y15732270D01*
X34932388Y15424012D01*
X34813444Y15096913D01*
X34688759Y14753844D01*
X34559378Y14397675D01*
X33549295Y11616346D01*
X29108268Y11616346D01*
X28910334Y11662296D01*
X28662040Y11720175D01*
X28442710Y11771566D01*
X28255578Y11815710D01*
X28103877Y11851852D01*
X27990843Y11879235D01*
X27919708Y11897104D01*
X27893708Y11904701D01*
X27893600Y11904830D01*
X27894720Y11932724D01*
X27903815Y12001637D01*
X27919552Y12104102D01*
X27940596Y12232650D01*
X27965612Y12379813D01*
X27993267Y12538125D01*
X28022224Y12700115D01*
X28051151Y12858317D01*
X28078711Y13005263D01*
X28103572Y13133484D01*
X28124398Y13235513D01*
X28139855Y13303881D01*
X28148608Y13331121D01*
X28169932Y13325408D01*
X28235358Y13304852D01*
X28341824Y13270365D01*
X28486250Y13222971D01*
X28665560Y13163696D01*
X28876677Y13093563D01*
X29116522Y13013598D01*
X29382018Y12924823D01*
X29670088Y12828265D01*
X29977654Y12724946D01*
X30301639Y12615892D01*
X30638965Y12502128D01*
X30954383Y12395736D01*
X31279281Y12286334D01*
X31587937Y12182590D01*
X31877276Y12085529D01*
X32144225Y11996177D01*
X32385708Y11915557D01*
X32598650Y11844696D01*
X32779976Y11784618D01*
X32926612Y11736348D01*
X33035483Y11700911D01*
X33103513Y11679331D01*
X33127629Y11672633D01*
X33120051Y11688845D01*
X33090058Y11745603D01*
X33038774Y11840389D01*
X32967773Y11970347D01*
X32878632Y12132623D01*
X32772929Y12324362D01*
X32652238Y12542709D01*
X32518137Y12784810D01*
X32372202Y13047809D01*
X32216009Y13328852D01*
X32051134Y13625084D01*
X31879154Y13933650D01*
X31734179Y14193674D01*
X31567637Y14492603D01*
X31409329Y14776992D01*
X31260849Y15043965D01*
X31123795Y15290644D01*
X30999760Y15514152D01*
X30890341Y15711610D01*
X30797133Y15880143D01*
X30721732Y16016872D01*
X30665733Y16118920D01*
X30630732Y16183410D01*
X30618323Y16207465D01*
X30618598Y16208345D01*
X30644198Y16226640D01*
X30706589Y16263329D01*
X30799164Y16314960D01*
X30915312Y16378080D01*
X31048424Y16449235D01*
X31191892Y16524971D01*
X31339107Y16601836D01*
X31483458Y16676375D01*
X31618338Y16745137D01*
X31737136Y16804666D01*
X31833244Y16851511D01*
X31900053Y16882217D01*
X31930953Y16893331D01*
X31931146Y16893291D01*
X31945823Y16869323D01*
X31979086Y16803339D01*
X32029467Y16698532D01*
X32095496Y16558095D01*
X32175707Y16385220D01*
X32268630Y16183102D01*
X32372798Y15954932D01*
X32486742Y15703904D01*
X32608994Y15433211D01*
X32738086Y15146046D01*
X32872549Y14845602D01*
X32878163Y14833032D01*
X33012319Y14532901D01*
X33140794Y14245988D01*
X33262138Y13975504D01*
X33374900Y13724657D01*
X33477630Y13496659D01*
X33568877Y13294719D01*
X33647191Y13122046D01*
X33711122Y12981852D01*
X33759219Y12877345D01*
X33790033Y12811736D01*
X33802113Y12788234D01*
X33805125Y12793051D01*
X33823268Y12836095D01*
X33856523Y12921128D01*
X33903723Y13045006D01*
X33963703Y13204584D01*
X34035297Y13396719D01*
X34117339Y13618267D01*
X34208663Y13866084D01*
X34308104Y14137026D01*
X34414495Y14427948D01*
X34526671Y14735707D01*
X34643466Y15057158D01*
X34698491Y15208791D01*
X34813553Y15525558D01*
X34923507Y15827843D01*
X35027175Y16112430D01*
X35123379Y16376101D01*
X35210940Y16615642D01*
X35288682Y16827834D01*
X35355427Y17009462D01*
X35409996Y17157309D01*
X35451213Y17268159D01*
X35477898Y17338795D01*
X35488875Y17366000D01*
X35492600Y17368665D01*
X35522144Y17365660D01*
X35581578Y17345477D01*
X35673691Y17306906D01*
X35801271Y17248738D01*
X35967109Y17169762D01*
X36173993Y17068769D01*
X36186699Y17062514D01*
X36370942Y16972041D01*
X36554504Y16882259D01*
X36728629Y16797427D01*
X36884556Y16721804D01*
X37013529Y16659650D01*
X37106787Y16615221D01*
X37210030Y16565386D01*
X37294806Y16522172D01*
X37351990Y16490380D01*
X37372828Y16474635D01*
X37365232Y16458097D01*
X37336721Y16400057D01*
X37288444Y16303140D01*
X37221881Y16170278D01*
X37138509Y16004403D01*
X37039808Y15808448D01*
X36927256Y15585345D01*
X36802331Y15338025D01*
X36666511Y15069422D01*
X36521275Y14782468D01*
X36368102Y14480095D01*
X36208469Y14165234D01*
X36075064Y13901957D01*
X35921259Y13597754D01*
X35775435Y13308621D01*
X35639044Y13037472D01*
X35513540Y12787222D01*
X35400375Y12560784D01*
X35301002Y12361072D01*
X35216874Y12191000D01*
X35149443Y12053482D01*
X35100162Y11951431D01*
X35070484Y11887762D01*
X35061862Y11865388D01*
X35066220Y11864482D01*
X35105354Y11857768D01*
X35185205Y11844670D01*
X35306466Y11825077D01*
X35469826Y11798880D01*
X35675977Y11765969D01*
X35925608Y11726235D01*
X36219412Y11679567D01*
X36558079Y11625856D01*
X36942299Y11564992D01*
X37372765Y11496866D01*
X37850165Y11421367D01*
X38375192Y11338386D01*
X38948536Y11247812D01*
X38971602Y11244169D01*
X39206880Y11206916D01*
X39426284Y11172025D01*
X39625080Y11140259D01*
X39798535Y11112381D01*
X39941917Y11089155D01*
X40050490Y11071344D01*
X40119523Y11059711D01*
X40144282Y11055018D01*
X40144072Y11050812D01*
X40137934Y11008238D01*
X40125480Y10930415D01*
X40124456Y10924015D01*
X40104505Y10803312D01*
G36*
X35240235Y4016071D02*
G01*
X35389063Y3934252D01*
X35389063Y3815954D01*
X35389696Y3763369D01*
X35396817Y3718133D01*
X35418665Y3700593D01*
X35463477Y3697656D01*
X35500224Y3696264D01*
X35526269Y3683663D01*
X35536265Y3647052D01*
X35537891Y3573633D01*
X35537055Y3512387D01*
X35529495Y3468979D01*
X35507528Y3452319D01*
X35463477Y3449609D01*
X35389063Y3449609D01*
X35388184Y3083740D01*
X35387964Y3033685D01*
X35385083Y2882612D01*
X35377496Y2771172D01*
X35363315Y2691602D01*
X35340650Y2636135D01*
X35307611Y2597006D01*
X35262309Y2566451D01*
X35207629Y2547664D01*
X35114356Y2535006D01*
X35012147Y2534650D01*
X34922747Y2547791D01*
X34911508Y2551091D01*
X34882359Y2568955D01*
X34871463Y2606191D01*
X34873138Y2677677D01*
X34876503Y2722242D01*
X34886058Y2769245D01*
X34907872Y2785986D01*
X34950906Y2784812D01*
X34954272Y2784463D01*
X35007456Y2783451D01*
X35044898Y2797526D01*
X35069307Y2833582D01*
X35083390Y2898515D01*
X35089854Y2999218D01*
X35091407Y3142588D01*
X35091407Y3449609D01*
X34892969Y3449609D01*
X34892969Y3697656D01*
X35091407Y3697656D01*
X35091407Y4097889D01*
X35240235Y4016071D01*
G37*
X35240235Y4016071D02*
X35389063Y3934252D01*
X35389063Y3815954D01*
X35389696Y3763369D01*
X35396817Y3718133D01*
X35418665Y3700593D01*
X35463477Y3697656D01*
X35500224Y3696264D01*
X35526269Y3683663D01*
X35536265Y3647052D01*
X35537891Y3573633D01*
X35537055Y3512387D01*
X35529495Y3468979D01*
X35507528Y3452319D01*
X35463477Y3449609D01*
X35389063Y3449609D01*
X35388184Y3083740D01*
X35387964Y3033685D01*
X35385083Y2882612D01*
X35377496Y2771172D01*
X35363315Y2691602D01*
X35340650Y2636135D01*
X35307611Y2597006D01*
X35262309Y2566451D01*
X35207629Y2547664D01*
X35114356Y2535006D01*
X35012147Y2534650D01*
X34922747Y2547791D01*
X34911508Y2551091D01*
X34882359Y2568955D01*
X34871463Y2606191D01*
X34873138Y2677677D01*
X34876503Y2722242D01*
X34886058Y2769245D01*
X34907872Y2785986D01*
X34950906Y2784812D01*
X34954272Y2784463D01*
X35007456Y2783451D01*
X35044898Y2797526D01*
X35069307Y2833582D01*
X35083390Y2898515D01*
X35089854Y2999218D01*
X35091407Y3142588D01*
X35091407Y3449609D01*
X34892969Y3449609D01*
X34892969Y3697656D01*
X35091407Y3697656D01*
X35091407Y4097889D01*
X35240235Y4016071D01*
G36*
X41383285Y4144132D02*
G01*
X41469338Y4142574D01*
X41516086Y4136542D01*
X41532857Y4123454D01*
X41528980Y4100732D01*
X41526973Y4095430D01*
X41510061Y4049247D01*
X41479314Y3964402D01*
X41436973Y3847115D01*
X41385282Y3703604D01*
X41326485Y3540091D01*
X41262824Y3362793D01*
X41244593Y3311993D01*
X41181739Y3136973D01*
X41124162Y2976842D01*
X41074156Y2837962D01*
X41034013Y2726695D01*
X41006024Y2649404D01*
X40992483Y2612451D01*
X40991908Y2610946D01*
X40975530Y2581792D01*
X40946530Y2565421D01*
X40892592Y2558236D01*
X40801400Y2556641D01*
X40631455Y2556641D01*
X40354243Y3331787D01*
X40308834Y3459028D01*
X40246159Y3635598D01*
X40190497Y3793527D01*
X40143803Y3927207D01*
X40108034Y4031030D01*
X40085145Y4099387D01*
X40077090Y4126670D01*
X40077095Y4126823D01*
X40100352Y4135671D01*
X40160139Y4140071D01*
X40243682Y4139073D01*
X40410215Y4131738D01*
X40601240Y3548828D01*
X40644264Y3419581D01*
X40693574Y3276783D01*
X40736648Y3157896D01*
X40771290Y3068763D01*
X40795302Y3015225D01*
X40806486Y3003125D01*
X40817716Y3034773D01*
X40842445Y3106259D01*
X40877637Y3208812D01*
X40920486Y3334256D01*
X40968188Y3474414D01*
X41010487Y3598781D01*
X41058758Y3740397D01*
X41101569Y3865666D01*
X41135429Y3964377D01*
X41156846Y4026318D01*
X41198023Y4144141D01*
X41371978Y4144141D01*
X41383285Y4144132D01*
G37*
X41383285Y4144132D02*
X41469338Y4142574D01*
X41516086Y4136542D01*
X41532857Y4123454D01*
X41528980Y4100732D01*
X41526973Y4095430D01*
X41510061Y4049247D01*
X41479314Y3964402D01*
X41436973Y3847115D01*
X41385282Y3703604D01*
X41326485Y3540091D01*
X41262824Y3362793D01*
X41244593Y3311993D01*
X41181739Y3136973D01*
X41124162Y2976842D01*
X41074156Y2837962D01*
X41034013Y2726695D01*
X41006024Y2649404D01*
X40992483Y2612451D01*
X40991908Y2610946D01*
X40975530Y2581792D01*
X40946530Y2565421D01*
X40892592Y2558236D01*
X40801400Y2556641D01*
X40631455Y2556641D01*
X40354243Y3331787D01*
X40308834Y3459028D01*
X40246159Y3635598D01*
X40190497Y3793527D01*
X40143803Y3927207D01*
X40108034Y4031030D01*
X40085145Y4099387D01*
X40077090Y4126670D01*
X40077095Y4126823D01*
X40100352Y4135671D01*
X40160139Y4140071D01*
X40243682Y4139073D01*
X40410215Y4131738D01*
X40601240Y3548828D01*
X40644264Y3419581D01*
X40693574Y3276783D01*
X40736648Y3157896D01*
X40771290Y3068763D01*
X40795302Y3015225D01*
X40806486Y3003125D01*
X40817716Y3034773D01*
X40842445Y3106259D01*
X40877637Y3208812D01*
X40920486Y3334256D01*
X40968188Y3474414D01*
X41010487Y3598781D01*
X41058758Y3740397D01*
X41101569Y3865666D01*
X41135429Y3964377D01*
X41156846Y4026318D01*
X41198023Y4144141D01*
X41371978Y4144141D01*
X41383285Y4144132D01*
G36*
X32381116Y2721740D02*
G01*
X32322136Y2631721D01*
X32232178Y2568611D01*
X32229609Y2567505D01*
X32093128Y2534766D01*
X31947186Y2543851D01*
X31807167Y2593848D01*
X31765718Y2615942D01*
X31710648Y2643727D01*
X31682565Y2650719D01*
X31669923Y2637900D01*
X31661173Y2606250D01*
X31654820Y2588910D01*
X31632283Y2568429D01*
X31585035Y2558949D01*
X31500683Y2556641D01*
X31353166Y2556641D01*
X31386739Y2686070D01*
X31396738Y2736816D01*
X31409340Y2848908D01*
X31417609Y2990985D01*
X31417689Y2995142D01*
X31717969Y2995142D01*
X31728815Y2902911D01*
X31761377Y2831898D01*
X31775108Y2817480D01*
X31842915Y2773914D01*
X31922664Y2748521D01*
X31990821Y2749730D01*
X32037341Y2772318D01*
X32092932Y2827405D01*
X32114844Y2891504D01*
X32095100Y2955386D01*
X32029284Y3010386D01*
X31916407Y3051903D01*
X31885746Y3059808D01*
X31811398Y3079373D01*
X31761377Y3093089D01*
X31758362Y3093923D01*
X31732741Y3092484D01*
X31720867Y3063145D01*
X31717969Y2995142D01*
X31417689Y2995142D01*
X31420679Y3151158D01*
X31421460Y3240608D01*
X31426826Y3386608D01*
X31437025Y3490582D01*
X31451769Y3548828D01*
X31507519Y3615601D01*
X31603731Y3671989D01*
X31727583Y3709098D01*
X31868352Y3722461D01*
X31873285Y3722453D01*
X32037224Y3710617D01*
X32163751Y3674979D01*
X32259828Y3613605D01*
X32292200Y3579159D01*
X32337364Y3518206D01*
X32373140Y3457610D01*
X32387696Y3415690D01*
X32378182Y3409252D01*
X32332374Y3394261D01*
X32261427Y3377031D01*
X32195467Y3364060D01*
X32145817Y3362847D01*
X32108912Y3381461D01*
X32065440Y3424585D01*
X32036691Y3450568D01*
X31958779Y3489344D01*
X31877055Y3497701D01*
X31803655Y3477883D01*
X31750715Y3432131D01*
X31730371Y3362687D01*
X31730389Y3356395D01*
X31733407Y3323635D01*
X31748049Y3300517D01*
X31783505Y3281886D01*
X31848964Y3262588D01*
X31953614Y3237470D01*
X31995344Y3227336D01*
X32103627Y3197758D01*
X32196366Y3168075D01*
X32257051Y3143405D01*
X32297170Y3117661D01*
X32367146Y3036630D01*
X32404126Y2935857D01*
X32405955Y2891504D01*
X32408614Y2827006D01*
X32381116Y2721740D01*
G37*
X32381116Y2721740D02*
X32322136Y2631721D01*
X32232178Y2568611D01*
X32229609Y2567505D01*
X32093128Y2534766D01*
X31947186Y2543851D01*
X31807167Y2593848D01*
X31765718Y2615942D01*
X31710648Y2643727D01*
X31682565Y2650719D01*
X31669923Y2637900D01*
X31661173Y2606250D01*
X31654820Y2588910D01*
X31632283Y2568429D01*
X31585035Y2558949D01*
X31500683Y2556641D01*
X31353166Y2556641D01*
X31386739Y2686070D01*
X31396738Y2736816D01*
X31409340Y2848908D01*
X31417609Y2990985D01*
X31417689Y2995142D01*
X31717969Y2995142D01*
X31728815Y2902911D01*
X31761377Y2831898D01*
X31775108Y2817480D01*
X31842915Y2773914D01*
X31922664Y2748521D01*
X31990821Y2749730D01*
X32037341Y2772318D01*
X32092932Y2827405D01*
X32114844Y2891504D01*
X32095100Y2955386D01*
X32029284Y3010386D01*
X31916407Y3051903D01*
X31885746Y3059808D01*
X31811398Y3079373D01*
X31761377Y3093089D01*
X31758362Y3093923D01*
X31732741Y3092484D01*
X31720867Y3063145D01*
X31717969Y2995142D01*
X31417689Y2995142D01*
X31420679Y3151158D01*
X31421460Y3240608D01*
X31426826Y3386608D01*
X31437025Y3490582D01*
X31451769Y3548828D01*
X31507519Y3615601D01*
X31603731Y3671989D01*
X31727583Y3709098D01*
X31868352Y3722461D01*
X31873285Y3722453D01*
X32037224Y3710617D01*
X32163751Y3674979D01*
X32259828Y3613605D01*
X32292200Y3579159D01*
X32337364Y3518206D01*
X32373140Y3457610D01*
X32387696Y3415690D01*
X32378182Y3409252D01*
X32332374Y3394261D01*
X32261427Y3377031D01*
X32195467Y3364060D01*
X32145817Y3362847D01*
X32108912Y3381461D01*
X32065440Y3424585D01*
X32036691Y3450568D01*
X31958779Y3489344D01*
X31877055Y3497701D01*
X31803655Y3477883D01*
X31750715Y3432131D01*
X31730371Y3362687D01*
X31730389Y3356395D01*
X31733407Y3323635D01*
X31748049Y3300517D01*
X31783505Y3281886D01*
X31848964Y3262588D01*
X31953614Y3237470D01*
X31995344Y3227336D01*
X32103627Y3197758D01*
X32196366Y3168075D01*
X32257051Y3143405D01*
X32297170Y3117661D01*
X32367146Y3036630D01*
X32404126Y2935857D01*
X32405955Y2891504D01*
X32408614Y2827006D01*
X32381116Y2721740D01*
G36*
X27501311Y4153421D02*
G01*
X27583584Y4123840D01*
X27610113Y4111668D01*
X27676710Y4071962D01*
X27718673Y4022309D01*
X27744321Y3949490D01*
X27761970Y3840283D01*
X27773324Y3761145D01*
X27787172Y3717996D01*
X27810696Y3700772D01*
X27851296Y3697656D01*
X27885388Y3696290D01*
X27911119Y3683696D01*
X27921148Y3647072D01*
X27922852Y3573633D01*
X27922016Y3512387D01*
X27914456Y3468979D01*
X27892489Y3452319D01*
X27848438Y3449609D01*
X27774024Y3449609D01*
X27774024Y2556641D01*
X27451563Y2556641D01*
X27451563Y3446757D01*
X27346143Y3454384D01*
X27240723Y3462012D01*
X27225603Y3697656D01*
X27454415Y3697656D01*
X27439161Y3908496D01*
X27316025Y3920898D01*
X27262490Y3927111D01*
X27213378Y3940482D01*
X27189258Y3967834D01*
X27175388Y4019504D01*
X27173484Y4029313D01*
X27165832Y4089116D01*
X27168254Y4122484D01*
X27188002Y4131654D01*
X27245363Y4144586D01*
X27325212Y4156273D01*
X27421436Y4162879D01*
X27501311Y4153421D01*
G37*
X27501311Y4153421D02*
X27583584Y4123840D01*
X27610113Y4111668D01*
X27676710Y4071962D01*
X27718673Y4022309D01*
X27744321Y3949490D01*
X27761970Y3840283D01*
X27773324Y3761145D01*
X27787172Y3717996D01*
X27810696Y3700772D01*
X27851296Y3697656D01*
X27885388Y3696290D01*
X27911119Y3683696D01*
X27921148Y3647072D01*
X27922852Y3573633D01*
X27922016Y3512387D01*
X27914456Y3468979D01*
X27892489Y3452319D01*
X27848438Y3449609D01*
X27774024Y3449609D01*
X27774024Y2556641D01*
X27451563Y2556641D01*
X27451563Y3446757D01*
X27346143Y3454384D01*
X27240723Y3462012D01*
X27225603Y3697656D01*
X27454415Y3697656D01*
X27439161Y3908496D01*
X27316025Y3920898D01*
X27262490Y3927111D01*
X27213378Y3940482D01*
X27189258Y3967834D01*
X27175388Y4019504D01*
X27173484Y4029313D01*
X27165832Y4089116D01*
X27168254Y4122484D01*
X27188002Y4131654D01*
X27245363Y4144586D01*
X27325212Y4156273D01*
X27421436Y4162879D01*
X27501311Y4153421D01*
G36*
X36753321Y2556641D02*
G01*
X36460023Y2556641D01*
X36451643Y2952998D01*
X36448652Y3087030D01*
X36445026Y3198413D01*
X36439791Y3276069D01*
X36431562Y3328402D01*
X36418953Y3363819D01*
X36400577Y3390724D01*
X36375049Y3417522D01*
X36365800Y3426494D01*
X36295511Y3472762D01*
X36208294Y3485689D01*
X36190482Y3485259D01*
X36123340Y3475942D01*
X36082342Y3458280D01*
X36062914Y3430264D01*
X36039240Y3358174D01*
X36022809Y3247832D01*
X36013144Y3095566D01*
X36009772Y2897705D01*
X36009180Y2556641D01*
X35707584Y2556641D01*
X35715755Y3009326D01*
X35719000Y3158825D01*
X35723704Y3290283D01*
X35730184Y3386629D01*
X35739198Y3455603D01*
X35751501Y3504944D01*
X35767851Y3542393D01*
X35784585Y3569797D01*
X35870400Y3656105D01*
X35981065Y3707347D01*
X36106999Y3722029D01*
X36238622Y3698657D01*
X36366353Y3635736D01*
X36455664Y3575128D01*
X36455664Y4144141D01*
X36753321Y4144141D01*
X36753321Y2556641D01*
G37*
X36753321Y2556641D02*
X36460023Y2556641D01*
X36451643Y2952998D01*
X36448652Y3087030D01*
X36445026Y3198413D01*
X36439791Y3276069D01*
X36431562Y3328402D01*
X36418953Y3363819D01*
X36400577Y3390724D01*
X36375049Y3417522D01*
X36365800Y3426494D01*
X36295511Y3472762D01*
X36208294Y3485689D01*
X36190482Y3485259D01*
X36123340Y3475942D01*
X36082342Y3458280D01*
X36062914Y3430264D01*
X36039240Y3358174D01*
X36022809Y3247832D01*
X36013144Y3095566D01*
X36009772Y2897705D01*
X36009180Y2556641D01*
X35707584Y2556641D01*
X35715755Y3009326D01*
X35719000Y3158825D01*
X35723704Y3290283D01*
X35730184Y3386629D01*
X35739198Y3455603D01*
X35751501Y3504944D01*
X35767851Y3542393D01*
X35784585Y3569797D01*
X35870400Y3656105D01*
X35981065Y3707347D01*
X36106999Y3722029D01*
X36238622Y3698657D01*
X36366353Y3635736D01*
X36455664Y3575128D01*
X36455664Y4144141D01*
X36753321Y4144141D01*
X36753321Y2556641D01*
G36*
X26722635Y4157835D02*
G01*
X26798684Y4146283D01*
X26868091Y4121707D01*
X26949120Y4063464D01*
X26998848Y3975057D01*
X27023067Y3848807D01*
X27036773Y3697656D01*
X27206234Y3697656D01*
X27198674Y3579834D01*
X27194926Y3531165D01*
X27184262Y3483210D01*
X27159400Y3462240D01*
X27110498Y3454239D01*
X27029883Y3446466D01*
X27029883Y2556641D01*
X26732227Y2556641D01*
X26732227Y3449609D01*
X26508985Y3449609D01*
X26508985Y3697656D01*
X26620606Y3697656D01*
X26652680Y3697921D01*
X26705759Y3703464D01*
X26727832Y3722056D01*
X26732227Y3761299D01*
X26731345Y3789429D01*
X26711331Y3866700D01*
X26660100Y3908407D01*
X26571248Y3920898D01*
X26532954Y3921294D01*
X26482789Y3928536D01*
X26458919Y3953256D01*
X26445638Y4006105D01*
X26444283Y4013733D01*
X26438709Y4076540D01*
X26444542Y4115403D01*
X26477632Y4135508D01*
X26546125Y4151054D01*
X26633121Y4158961D01*
X26722635Y4157835D01*
G37*
X26722635Y4157835D02*
X26798684Y4146283D01*
X26868091Y4121707D01*
X26949120Y4063464D01*
X26998848Y3975057D01*
X27023067Y3848807D01*
X27036773Y3697656D01*
X27206234Y3697656D01*
X27198674Y3579834D01*
X27194926Y3531165D01*
X27184262Y3483210D01*
X27159400Y3462240D01*
X27110498Y3454239D01*
X27029883Y3446466D01*
X27029883Y2556641D01*
X26732227Y2556641D01*
X26732227Y3449609D01*
X26508985Y3449609D01*
X26508985Y3697656D01*
X26620606Y3697656D01*
X26652680Y3697921D01*
X26705759Y3703464D01*
X26727832Y3722056D01*
X26732227Y3761299D01*
X26731345Y3789429D01*
X26711331Y3866700D01*
X26660100Y3908407D01*
X26571248Y3920898D01*
X26532954Y3921294D01*
X26482789Y3928536D01*
X26458919Y3953256D01*
X26445638Y4006105D01*
X26444283Y4013733D01*
X26438709Y4076540D01*
X26444542Y4115403D01*
X26477632Y4135508D01*
X26546125Y4151054D01*
X26633121Y4158961D01*
X26722635Y4157835D01*
G36*
X33925586Y2556641D02*
G01*
X33603125Y2556641D01*
X33603125Y3042197D01*
X33478181Y3165262D01*
X33425885Y3215308D01*
X33377370Y3254722D01*
X33347791Y3265116D01*
X33329066Y3251146D01*
X33321807Y3239463D01*
X33290850Y3187868D01*
X33242379Y3106049D01*
X33181407Y3002484D01*
X33112946Y2885650D01*
X32920996Y2557334D01*
X32714894Y2556987D01*
X32634322Y2557756D01*
X32562883Y2562319D01*
X32529498Y2571922D01*
X32527566Y2587646D01*
X32529219Y2590316D01*
X32552754Y2627039D01*
X32598169Y2697189D01*
X32661056Y2793980D01*
X32737004Y2910624D01*
X32821607Y3040332D01*
X32838696Y3066514D01*
X32921802Y3193945D01*
X32995289Y3306791D01*
X33054776Y3398316D01*
X33095885Y3461783D01*
X33114237Y3490457D01*
X33113523Y3499774D01*
X33087582Y3542455D01*
X33031821Y3612645D01*
X32950146Y3705587D01*
X32846464Y3816522D01*
X32776850Y3889640D01*
X32691087Y3981141D01*
X32622789Y4055714D01*
X32577641Y4107125D01*
X32561328Y4129141D01*
X32563188Y4131197D01*
X32597680Y4137791D01*
X32666741Y4142404D01*
X32758597Y4144141D01*
X32955866Y4144141D01*
X33273295Y3798962D01*
X33590723Y3453783D01*
X33603125Y3792761D01*
X33615528Y4131738D01*
X33925586Y4146508D01*
X33925586Y2556641D01*
G37*
X33925586Y2556641D02*
X33603125Y2556641D01*
X33603125Y3042197D01*
X33478181Y3165262D01*
X33425885Y3215308D01*
X33377370Y3254722D01*
X33347791Y3265116D01*
X33329066Y3251146D01*
X33321807Y3239463D01*
X33290850Y3187868D01*
X33242379Y3106049D01*
X33181407Y3002484D01*
X33112946Y2885650D01*
X32920996Y2557334D01*
X32714894Y2556987D01*
X32634322Y2557756D01*
X32562883Y2562319D01*
X32529498Y2571922D01*
X32527566Y2587646D01*
X32529219Y2590316D01*
X32552754Y2627039D01*
X32598169Y2697189D01*
X32661056Y2793980D01*
X32737004Y2910624D01*
X32821607Y3040332D01*
X32838696Y3066514D01*
X32921802Y3193945D01*
X32995289Y3306791D01*
X33054776Y3398316D01*
X33095885Y3461783D01*
X33114237Y3490457D01*
X33113523Y3499774D01*
X33087582Y3542455D01*
X33031821Y3612645D01*
X32950146Y3705587D01*
X32846464Y3816522D01*
X32776850Y3889640D01*
X32691087Y3981141D01*
X32622789Y4055714D01*
X32577641Y4107125D01*
X32561328Y4129141D01*
X32563188Y4131197D01*
X32597680Y4137791D01*
X32666741Y4142404D01*
X32758597Y4144141D01*
X32955866Y4144141D01*
X33273295Y3798962D01*
X33590723Y3453783D01*
X33603125Y3792761D01*
X33615528Y4131738D01*
X33925586Y4146508D01*
X33925586Y2556641D01*
G36*
X28865430Y2110156D02*
G01*
X28865430Y2395410D01*
X28863860Y2501512D01*
X28859214Y2594514D01*
X28852232Y2657495D01*
X28843663Y2680664D01*
X28825807Y2673897D01*
X28789659Y2641821D01*
X28745492Y2600358D01*
X28644759Y2551889D01*
X28526474Y2535479D01*
X28403091Y2550495D01*
X28287070Y2596303D01*
X28190866Y2672269D01*
X28189194Y2674131D01*
X28113160Y2793258D01*
X28064723Y2944622D01*
X28047420Y3117246D01*
X28047447Y3130809D01*
X28050638Y3164641D01*
X28350829Y3164641D01*
X28354349Y3036649D01*
X28385842Y2919364D01*
X28445361Y2827882D01*
X28499481Y2793703D01*
X28587334Y2778260D01*
X28678384Y2793608D01*
X28753213Y2839043D01*
X28813323Y2926907D01*
X28849633Y3046022D01*
X28855739Y3175045D01*
X28831033Y3298243D01*
X28774907Y3399882D01*
X28708901Y3452429D01*
X28617794Y3478159D01*
X28525338Y3466408D01*
X28447482Y3416374D01*
X28427486Y3392365D01*
X28375226Y3288245D01*
X28350829Y3164641D01*
X28050638Y3164641D01*
X28065128Y3318295D01*
X28115867Y3469927D01*
X28200579Y3587569D01*
X28320176Y3673081D01*
X28366295Y3693001D01*
X28495338Y3718087D01*
X28625388Y3705825D01*
X28742924Y3658684D01*
X28834424Y3579135D01*
X28851638Y3560475D01*
X28862841Y3568016D01*
X28865430Y3618501D01*
X28865430Y3697656D01*
X29163086Y3697656D01*
X29163086Y2110156D01*
X28865430Y2110156D01*
G37*
X28865430Y2110156D02*
X28865430Y2395410D01*
X28863860Y2501512D01*
X28859214Y2594514D01*
X28852232Y2657495D01*
X28843663Y2680664D01*
X28825807Y2673897D01*
X28789659Y2641821D01*
X28745492Y2600358D01*
X28644759Y2551889D01*
X28526474Y2535479D01*
X28403091Y2550495D01*
X28287070Y2596303D01*
X28190866Y2672269D01*
X28189194Y2674131D01*
X28113160Y2793258D01*
X28064723Y2944622D01*
X28047420Y3117246D01*
X28047447Y3130809D01*
X28050638Y3164641D01*
X28350829Y3164641D01*
X28354349Y3036649D01*
X28385842Y2919364D01*
X28445361Y2827882D01*
X28499481Y2793703D01*
X28587334Y2778260D01*
X28678384Y2793608D01*
X28753213Y2839043D01*
X28813323Y2926907D01*
X28849633Y3046022D01*
X28855739Y3175045D01*
X28831033Y3298243D01*
X28774907Y3399882D01*
X28708901Y3452429D01*
X28617794Y3478159D01*
X28525338Y3466408D01*
X28447482Y3416374D01*
X28427486Y3392365D01*
X28375226Y3288245D01*
X28350829Y3164641D01*
X28050638Y3164641D01*
X28065128Y3318295D01*
X28115867Y3469927D01*
X28200579Y3587569D01*
X28320176Y3673081D01*
X28366295Y3693001D01*
X28495338Y3718087D01*
X28625388Y3705825D01*
X28742924Y3658684D01*
X28834424Y3579135D01*
X28851638Y3560475D01*
X28862841Y3568016D01*
X28865430Y3618501D01*
X28865430Y3697656D01*
X29163086Y3697656D01*
X29163086Y2110156D01*
X28865430Y2110156D01*
G36*
X40116647Y2992374D02*
G01*
X40104594Y2910914D01*
X40082537Y2847436D01*
X40046190Y2784839D01*
X39976559Y2695919D01*
X39884188Y2622911D01*
X39760664Y2567131D01*
X39755278Y2565236D01*
X39587623Y2531541D01*
X39422786Y2544751D01*
X39268846Y2603090D01*
X39133884Y2704782D01*
X39053047Y2804019D01*
X38983265Y2951286D01*
X38956817Y3108119D01*
X38964123Y3176663D01*
X39275213Y3176663D01*
X39278349Y3053792D01*
X39313506Y2939642D01*
X39380684Y2848799D01*
X39415872Y2821495D01*
X39511055Y2782296D01*
X39605659Y2785328D01*
X39692226Y2825960D01*
X39763295Y2899561D01*
X39811407Y3001501D01*
X39829102Y3127148D01*
X39826359Y3177943D01*
X39796022Y3294792D01*
X39738123Y3386270D01*
X39660151Y3447728D01*
X39569594Y3474518D01*
X39473942Y3461991D01*
X39380684Y3405498D01*
X39365001Y3390228D01*
X39304097Y3293670D01*
X39275213Y3176663D01*
X38964123Y3176663D01*
X38973671Y3266246D01*
X39033797Y3417393D01*
X39137161Y3553286D01*
X39200564Y3610537D01*
X39319215Y3682037D01*
X39453072Y3715463D01*
X39614369Y3714960D01*
X39692392Y3703756D01*
X39844830Y3650292D01*
X39967308Y3557349D01*
X40060201Y3424684D01*
X40068262Y3408809D01*
X40100873Y3336540D01*
X40118412Y3271604D01*
X40124364Y3195092D01*
X40122998Y3127148D01*
X40122213Y3088094D01*
X40116647Y2992374D01*
G37*
X40116647Y2992374D02*
X40104594Y2910914D01*
X40082537Y2847436D01*
X40046190Y2784839D01*
X39976559Y2695919D01*
X39884188Y2622911D01*
X39760664Y2567131D01*
X39755278Y2565236D01*
X39587623Y2531541D01*
X39422786Y2544751D01*
X39268846Y2603090D01*
X39133884Y2704782D01*
X39053047Y2804019D01*
X38983265Y2951286D01*
X38956817Y3108119D01*
X38964123Y3176663D01*
X39275213Y3176663D01*
X39278349Y3053792D01*
X39313506Y2939642D01*
X39380684Y2848799D01*
X39415872Y2821495D01*
X39511055Y2782296D01*
X39605659Y2785328D01*
X39692226Y2825960D01*
X39763295Y2899561D01*
X39811407Y3001501D01*
X39829102Y3127148D01*
X39826359Y3177943D01*
X39796022Y3294792D01*
X39738123Y3386270D01*
X39660151Y3447728D01*
X39569594Y3474518D01*
X39473942Y3461991D01*
X39380684Y3405498D01*
X39365001Y3390228D01*
X39304097Y3293670D01*
X39275213Y3176663D01*
X38964123Y3176663D01*
X38973671Y3266246D01*
X39033797Y3417393D01*
X39137161Y3553286D01*
X39200564Y3610537D01*
X39319215Y3682037D01*
X39453072Y3715463D01*
X39614369Y3714960D01*
X39692392Y3703756D01*
X39844830Y3650292D01*
X39967308Y3557349D01*
X40060201Y3424684D01*
X40068262Y3408809D01*
X40100873Y3336540D01*
X40118412Y3271604D01*
X40124364Y3195092D01*
X40122998Y3127148D01*
X40122213Y3088094D01*
X40116647Y2992374D01*
G36*
X30637291Y3692768D02*
G01*
X30752360Y3637415D01*
X30849805Y3572929D01*
X30849805Y3635293D01*
X30849809Y3637765D01*
X30853398Y3671291D01*
X30871630Y3689194D01*
X30916158Y3696354D01*
X30998633Y3697656D01*
X31147461Y3697656D01*
X31147461Y2556641D01*
X30828339Y2556641D01*
X30820469Y2965295D01*
X30819514Y3013241D01*
X30815963Y3153791D01*
X30811387Y3254903D01*
X30804789Y3324508D01*
X30795173Y3370535D01*
X30781543Y3400916D01*
X30762903Y3423579D01*
X30736837Y3446213D01*
X30655243Y3485717D01*
X30573075Y3488258D01*
X30505123Y3452193D01*
X30491949Y3437931D01*
X30476423Y3413363D01*
X30465659Y3378451D01*
X30458793Y3325344D01*
X30454959Y3246189D01*
X30453293Y3133132D01*
X30452930Y2978320D01*
X30452930Y2556641D01*
X30133808Y2556641D01*
X30125937Y2965295D01*
X30124983Y3013241D01*
X30121432Y3153791D01*
X30116856Y3254903D01*
X30110257Y3324508D01*
X30100641Y3370535D01*
X30087011Y3400916D01*
X30068371Y3423579D01*
X30042306Y3446213D01*
X29960712Y3485717D01*
X29878544Y3488258D01*
X29810592Y3452193D01*
X29797418Y3437931D01*
X29781891Y3413363D01*
X29771128Y3378451D01*
X29764261Y3325344D01*
X29760428Y3246189D01*
X29758762Y3133132D01*
X29758399Y2978320D01*
X29758399Y2556641D01*
X29460743Y2556641D01*
X29460835Y3021729D01*
X29461059Y3144675D01*
X29462386Y3279348D01*
X29465548Y3377932D01*
X29471267Y3448304D01*
X29480265Y3498342D01*
X29493265Y3535923D01*
X29510988Y3568924D01*
X29570994Y3637513D01*
X29670598Y3693911D01*
X29787273Y3719277D01*
X29908577Y3712924D01*
X30022069Y3674164D01*
X30115304Y3602310D01*
X30162150Y3549726D01*
X30245983Y3623333D01*
X30266093Y3640008D01*
X30334644Y3686444D01*
X30392871Y3712765D01*
X30397173Y3713804D01*
X30511893Y3719699D01*
X30637291Y3692768D01*
G37*
X30637291Y3692768D02*
X30752360Y3637415D01*
X30849805Y3572929D01*
X30849805Y3635293D01*
X30849809Y3637765D01*
X30853398Y3671291D01*
X30871630Y3689194D01*
X30916158Y3696354D01*
X30998633Y3697656D01*
X31147461Y3697656D01*
X31147461Y2556641D01*
X30828339Y2556641D01*
X30820469Y2965295D01*
X30819514Y3013241D01*
X30815963Y3153791D01*
X30811387Y3254903D01*
X30804789Y3324508D01*
X30795173Y3370535D01*
X30781543Y3400916D01*
X30762903Y3423579D01*
X30736837Y3446213D01*
X30655243Y3485717D01*
X30573075Y3488258D01*
X30505123Y3452193D01*
X30491949Y3437931D01*
X30476423Y3413363D01*
X30465659Y3378451D01*
X30458793Y3325344D01*
X30454959Y3246189D01*
X30453293Y3133132D01*
X30452930Y2978320D01*
X30452930Y2556641D01*
X30133808Y2556641D01*
X30125937Y2965295D01*
X30124983Y3013241D01*
X30121432Y3153791D01*
X30116856Y3254903D01*
X30110257Y3324508D01*
X30100641Y3370535D01*
X30087011Y3400916D01*
X30068371Y3423579D01*
X30042306Y3446213D01*
X29960712Y3485717D01*
X29878544Y3488258D01*
X29810592Y3452193D01*
X29797418Y3437931D01*
X29781891Y3413363D01*
X29771128Y3378451D01*
X29764261Y3325344D01*
X29760428Y3246189D01*
X29758762Y3133132D01*
X29758399Y2978320D01*
X29758399Y2556641D01*
X29460743Y2556641D01*
X29460835Y3021729D01*
X29461059Y3144675D01*
X29462386Y3279348D01*
X29465548Y3377932D01*
X29471267Y3448304D01*
X29480265Y3498342D01*
X29493265Y3535923D01*
X29510988Y3568924D01*
X29570994Y3637513D01*
X29670598Y3693911D01*
X29787273Y3719277D01*
X29908577Y3712924D01*
X30022069Y3674164D01*
X30115304Y3602310D01*
X30162150Y3549726D01*
X30245983Y3623333D01*
X30266093Y3640008D01*
X30334644Y3686444D01*
X30392871Y3712765D01*
X30397173Y3713804D01*
X30511893Y3719699D01*
X30637291Y3692768D01*
G36*
X38160856Y3025192D02*
G01*
X38142705Y2917458D01*
X38104543Y2824167D01*
X38033108Y2717991D01*
X37945411Y2631918D01*
X37853789Y2580343D01*
X37848182Y2578535D01*
X37707272Y2558976D01*
X37568318Y2585869D01*
X37442584Y2657111D01*
X37341294Y2738509D01*
X37359240Y2579362D01*
X37369264Y2506382D01*
X37393489Y2417871D01*
X37434079Y2365240D01*
X37499321Y2339933D01*
X37597499Y2333398D01*
X37615315Y2333483D01*
X37695438Y2338395D01*
X37743309Y2353889D01*
X37773489Y2384167D01*
X37803005Y2412494D01*
X37865819Y2438078D01*
X37967822Y2457442D01*
X38047516Y2467009D01*
X38110854Y2471337D01*
X38139228Y2468845D01*
X38144068Y2447855D01*
X38132463Y2393847D01*
X38105461Y2325590D01*
X38069719Y2259111D01*
X38031893Y2210437D01*
X38010737Y2193487D01*
X37936479Y2151397D01*
X37851642Y2119109D01*
X37791326Y2105848D01*
X37658470Y2093576D01*
X37517557Y2097442D01*
X37387219Y2116444D01*
X37286089Y2149578D01*
X37231578Y2180091D01*
X37178755Y2222001D01*
X37137144Y2275466D01*
X37105461Y2345914D01*
X37082420Y2438775D01*
X37066736Y2559478D01*
X37057124Y2713454D01*
X37052300Y2906130D01*
X37050977Y3142936D01*
X37050977Y3149922D01*
X37355521Y3149922D01*
X37365192Y3035213D01*
X37401039Y2932961D01*
X37464197Y2855627D01*
X37484382Y2841231D01*
X37576966Y2806610D01*
X37669809Y2814546D01*
X37753552Y2860450D01*
X37818835Y2939736D01*
X37856298Y3047815D01*
X37859037Y3065538D01*
X37862293Y3200806D01*
X37835289Y3317294D01*
X37782822Y3408917D01*
X37709689Y3469588D01*
X37620688Y3493221D01*
X37520615Y3473730D01*
X37472182Y3444175D01*
X37410153Y3366864D01*
X37370887Y3264626D01*
X37355521Y3149922D01*
X37050977Y3149922D01*
X37050977Y3697656D01*
X37203533Y3697656D01*
X37284477Y3696192D01*
X37327880Y3688688D01*
X37345385Y3670352D01*
X37348633Y3636392D01*
X37348633Y3575128D01*
X37439837Y3637021D01*
X37452843Y3645719D01*
X37550824Y3698842D01*
X37645482Y3720255D01*
X37761239Y3715956D01*
X37784823Y3712376D01*
X37905198Y3667475D01*
X38015847Y3585157D01*
X38102878Y3475211D01*
X38133240Y3396507D01*
X38154888Y3282013D01*
X38160917Y3200806D01*
X38164505Y3152476D01*
X38160856Y3025192D01*
G37*
X38160856Y3025192D02*
X38142705Y2917458D01*
X38104543Y2824167D01*
X38033108Y2717991D01*
X37945411Y2631918D01*
X37853789Y2580343D01*
X37848182Y2578535D01*
X37707272Y2558976D01*
X37568318Y2585869D01*
X37442584Y2657111D01*
X37341294Y2738509D01*
X37359240Y2579362D01*
X37369264Y2506382D01*
X37393489Y2417871D01*
X37434079Y2365240D01*
X37499321Y2339933D01*
X37597499Y2333398D01*
X37615315Y2333483D01*
X37695438Y2338395D01*
X37743309Y2353889D01*
X37773489Y2384167D01*
X37803005Y2412494D01*
X37865819Y2438078D01*
X37967822Y2457442D01*
X38047516Y2467009D01*
X38110854Y2471337D01*
X38139228Y2468845D01*
X38144068Y2447855D01*
X38132463Y2393847D01*
X38105461Y2325590D01*
X38069719Y2259111D01*
X38031893Y2210437D01*
X38010737Y2193487D01*
X37936479Y2151397D01*
X37851642Y2119109D01*
X37791326Y2105848D01*
X37658470Y2093576D01*
X37517557Y2097442D01*
X37387219Y2116444D01*
X37286089Y2149578D01*
X37231578Y2180091D01*
X37178755Y2222001D01*
X37137144Y2275466D01*
X37105461Y2345914D01*
X37082420Y2438775D01*
X37066736Y2559478D01*
X37057124Y2713454D01*
X37052300Y2906130D01*
X37050977Y3142936D01*
X37050977Y3149922D01*
X37355521Y3149922D01*
X37365192Y3035213D01*
X37401039Y2932961D01*
X37464197Y2855627D01*
X37484382Y2841231D01*
X37576966Y2806610D01*
X37669809Y2814546D01*
X37753552Y2860450D01*
X37818835Y2939736D01*
X37856298Y3047815D01*
X37859037Y3065538D01*
X37862293Y3200806D01*
X37835289Y3317294D01*
X37782822Y3408917D01*
X37709689Y3469588D01*
X37620688Y3493221D01*
X37520615Y3473730D01*
X37472182Y3444175D01*
X37410153Y3366864D01*
X37370887Y3264626D01*
X37355521Y3149922D01*
X37050977Y3149922D01*
X37050977Y3697656D01*
X37203533Y3697656D01*
X37284477Y3696192D01*
X37327880Y3688688D01*
X37345385Y3670352D01*
X37348633Y3636392D01*
X37348633Y3575128D01*
X37439837Y3637021D01*
X37452843Y3645719D01*
X37550824Y3698842D01*
X37645482Y3720255D01*
X37761239Y3715956D01*
X37784823Y3712376D01*
X37905198Y3667475D01*
X38015847Y3585157D01*
X38102878Y3475211D01*
X38133240Y3396507D01*
X38154888Y3282013D01*
X38160917Y3200806D01*
X38164505Y3152476D01*
X38160856Y3025192D01*
G36*
X38712891Y2556641D02*
G01*
X38415235Y2556641D01*
X38415235Y3697656D01*
X38712891Y3697656D01*
X38712891Y2556641D01*
G37*
X38712891Y2556641D02*
X38415235Y2556641D01*
X38415235Y3697656D01*
X38712891Y3697656D01*
X38712891Y2556641D01*
G36*
X38712891Y3846484D02*
G01*
X38415235Y3846484D01*
X38415235Y4144141D01*
X38712891Y4144141D01*
X38712891Y3846484D01*
G37*
X38712891Y3846484D02*
X38415235Y3846484D01*
X38415235Y4144141D01*
X38712891Y4144141D01*
X38712891Y3846484D01*
G36*
X34694532Y2978320D02*
G01*
X34099219Y2978320D01*
X34099219Y3275977D01*
X34694532Y3275977D01*
X34694532Y2978320D01*
G37*
X34694532Y2978320D02*
X34099219Y2978320D01*
X34099219Y3275977D01*
X34694532Y3275977D01*
X34694532Y2978320D01*
M02*
