M48
INCH,TZ
T1C0.0118
T2C0.0118
%
G90
G05
T1
X492Y14764
X492Y11220
X6299Y12362
X6299Y9449
X6299Y7323
X6299Y4252
X7087Y13386
X7874Y10000
X7874Y6850
X8858Y10000
X8858Y6850
X9252Y14370
X9843Y10000
X9843Y6850
X9882Y13386
X10669Y7998
X10669Y3307
X11299Y9606
X11614Y14370
X11811Y5866
X12008Y13617
X12008Y10098
X12303Y7146
X12303Y5866
X12500Y10098
X12598Y13617
X12795Y5866
X15866Y9606
X16732Y5906
X17126Y5906
T2
X12047Y9291
X12047Y8780
X12047Y8268
X12047Y7756
X12559Y9291
X12559Y8780
X12559Y8268
X12559Y7756
T0
M30
