M48
INCH,TZ
T1C0.0118
T2C0.0118
%
G90
G05
T1
X492Y14862
X492Y11319
X6299Y12461
X6299Y9547
X6299Y7421
X6299Y4350
X7087Y13484
X7874Y10098
X7874Y6949
X8858Y10098
X8858Y6949
X9252Y14469
X9843Y10098
X9843Y6949
X9882Y13484
X10669Y8096
X10669Y3406
X11299Y9705
X11614Y14469
X11811Y5965
X12008Y13716
X12008Y10197
X12303Y7244
X12303Y5965
X12500Y10197
X12598Y13716
X12795Y5965
X15866Y9705
X16732Y6004
X17126Y6004
T2
X12047Y9390
X12047Y8878
X12047Y8366
X12047Y7854
X12559Y9390
X12559Y8878
X12559Y8366
X12559Y7854
T0
M30
