G04 #@! TF.GenerationSoftware,KiCad,Pcbnew,(5.99.0-11065-g2a3d8e22b6)*
G04 #@! TF.CreationDate,2021-07-02T10:55:01+01:00*
G04 #@! TF.ProjectId,NB3_power,4e42335f-706f-4776-9572-2e6b69636164,0.0.2*
G04 #@! TF.SameCoordinates,PX7bfa480PY7bfa480*
G04 #@! TF.FileFunction,Copper,L2,Bot*
G04 #@! TF.FilePolarity,Positive*
%FSLAX46Y46*%
G04 Gerber Fmt 4.6, Leading zero omitted, Abs format (unit mm)*
G04 Created by KiCad (PCBNEW (5.99.0-11065-g2a3d8e22b6)) date 2021-07-02 10:55:01*
%MOMM*%
%LPD*%
G01*
G04 APERTURE LIST*
G04 #@! TA.AperFunction,WasherPad*
%ADD10C,4.500000*%
G04 #@! TD*
G04 #@! TA.AperFunction,ComponentPad*
%ADD11C,0.500000*%
G04 #@! TD*
G04 #@! TA.AperFunction,SMDPad,CuDef*
%ADD12R,1.800000X4.400000*%
G04 #@! TD*
G04 #@! TA.AperFunction,ViaPad*
%ADD13C,0.600000*%
G04 #@! TD*
G04 #@! TA.AperFunction,Conductor*
%ADD14C,0.150000*%
G04 #@! TD*
G04 APERTURE END LIST*
D10*
X3500000Y3000000D03*
X46500000Y41000000D03*
X46500000Y3000000D03*
X3500000Y41000000D03*
D11*
X30600000Y22300000D03*
X31900000Y22300000D03*
D12*
X31250000Y21650000D03*
D11*
X31900000Y23600000D03*
X31900000Y21000000D03*
X30600000Y21000000D03*
X30600000Y19700000D03*
X31900000Y19700000D03*
X30600000Y23600000D03*
D13*
X31250000Y18150000D03*
X20000000Y25400000D03*
X30500000Y34587500D03*
X42500000Y15000000D03*
X29500000Y36500000D03*
X31250000Y14900000D03*
X25000000Y17400000D03*
X1250000Y37500000D03*
X31750000Y25650000D03*
X20000000Y17400000D03*
X43500000Y15000000D03*
X23500000Y36500000D03*
X30000000Y14900000D03*
X32000000Y34587500D03*
X25000000Y25400000D03*
X1250000Y28500000D03*
X30500000Y25650000D03*
X22500000Y25400000D03*
X32500000Y14900000D03*
X22500000Y17400000D03*
X40300000Y24400000D03*
X28700000Y24400000D03*
X25100000Y34000000D03*
X18000000Y34000000D03*
X16000000Y10800000D03*
X16000000Y31400000D03*
X16000000Y18600000D03*
X16000000Y24000000D03*
X27100000Y8400000D03*
X27100000Y20315000D03*
D14*
X40300000Y24400000D02*
X28700000Y24400000D01*
X25100000Y34000000D02*
X18000000Y34000000D01*
X16000000Y31400000D02*
X16000000Y24000000D01*
X16000000Y10800000D02*
X16000000Y18600000D01*
X27100000Y8400000D02*
X27100000Y20315000D01*
G04 #@! TA.AperFunction,Conductor*
G36*
X2684590Y43680038D02*
G01*
X2739128Y43625500D01*
X2759090Y43551000D01*
X2739128Y43476500D01*
X2684590Y43421962D01*
X2664940Y43412463D01*
X2411921Y43312286D01*
X2130695Y43157680D01*
X2126916Y43154935D01*
X2126909Y43154930D01*
X1874848Y42971797D01*
X1871063Y42969047D01*
X1637121Y42749360D01*
X1634133Y42745749D01*
X1634130Y42745745D01*
X1435542Y42505694D01*
X1435537Y42505688D01*
X1432557Y42502085D01*
X1430054Y42498141D01*
X1430049Y42498134D01*
X1280560Y42262576D01*
X1260598Y42231122D01*
X1123956Y41940742D01*
X1024786Y41635527D01*
X964651Y41320289D01*
X944500Y41000000D01*
X964651Y40679711D01*
X1024786Y40364473D01*
X1123956Y40059258D01*
X1260598Y39768878D01*
X1263108Y39764923D01*
X1430049Y39501866D01*
X1430054Y39501859D01*
X1432557Y39497915D01*
X1435537Y39494312D01*
X1435542Y39494306D01*
X1634130Y39254255D01*
X1637121Y39250640D01*
X1871063Y39030953D01*
X1874848Y39028203D01*
X2126909Y38845070D01*
X2126916Y38845065D01*
X2130695Y38842320D01*
X2411921Y38687714D01*
X2710307Y38569575D01*
X2714834Y38568413D01*
X2714836Y38568412D01*
X2800921Y38546309D01*
X3021147Y38489765D01*
X3025783Y38489179D01*
X3025790Y38489178D01*
X3334892Y38450130D01*
X3339539Y38449543D01*
X3660461Y38449543D01*
X3665108Y38450130D01*
X3974210Y38489178D01*
X3974217Y38489179D01*
X3978853Y38489765D01*
X4199079Y38546309D01*
X4285164Y38568412D01*
X4285166Y38568413D01*
X4289693Y38569575D01*
X4588079Y38687714D01*
X4869305Y38842320D01*
X4873084Y38845065D01*
X4873091Y38845070D01*
X5125152Y39028203D01*
X5128937Y39030953D01*
X5362879Y39250640D01*
X5365870Y39254255D01*
X5564458Y39494306D01*
X5564463Y39494312D01*
X5567443Y39497915D01*
X5569946Y39501859D01*
X5569951Y39501866D01*
X5736892Y39764923D01*
X5739402Y39768878D01*
X5876044Y40059258D01*
X5975214Y40364473D01*
X6035349Y40679711D01*
X6055500Y41000000D01*
X6035349Y41320289D01*
X5975214Y41635527D01*
X5876044Y41940742D01*
X5739402Y42231122D01*
X5719440Y42262576D01*
X5569951Y42498134D01*
X5569946Y42498141D01*
X5567443Y42502085D01*
X5564463Y42505688D01*
X5564458Y42505694D01*
X5365870Y42745745D01*
X5365867Y42745749D01*
X5362879Y42749360D01*
X5128937Y42969047D01*
X5125152Y42971797D01*
X4873091Y43154930D01*
X4873084Y43154935D01*
X4869305Y43157680D01*
X4588079Y43312286D01*
X4335060Y43412463D01*
X4273140Y43458449D01*
X4242508Y43529233D01*
X4251373Y43605850D01*
X4297359Y43667770D01*
X4368143Y43698402D01*
X4389910Y43700000D01*
X45610090Y43700000D01*
X45684590Y43680038D01*
X45739128Y43625500D01*
X45759090Y43551000D01*
X45739128Y43476500D01*
X45684590Y43421962D01*
X45664940Y43412463D01*
X45411921Y43312286D01*
X45130695Y43157680D01*
X45126916Y43154935D01*
X45126909Y43154930D01*
X44874848Y42971797D01*
X44871063Y42969047D01*
X44637121Y42749360D01*
X44634133Y42745749D01*
X44634130Y42745745D01*
X44435542Y42505694D01*
X44435537Y42505688D01*
X44432557Y42502085D01*
X44430054Y42498141D01*
X44430049Y42498134D01*
X44280560Y42262576D01*
X44260598Y42231122D01*
X44123956Y41940742D01*
X44024786Y41635527D01*
X43964651Y41320289D01*
X43944500Y41000000D01*
X43964651Y40679711D01*
X44024786Y40364473D01*
X44123956Y40059258D01*
X44260598Y39768878D01*
X44263108Y39764923D01*
X44430049Y39501866D01*
X44430054Y39501859D01*
X44432557Y39497915D01*
X44435537Y39494312D01*
X44435542Y39494306D01*
X44634130Y39254255D01*
X44637121Y39250640D01*
X44871063Y39030953D01*
X44874848Y39028203D01*
X45126909Y38845070D01*
X45126916Y38845065D01*
X45130695Y38842320D01*
X45411921Y38687714D01*
X45710307Y38569575D01*
X45714834Y38568413D01*
X45714836Y38568412D01*
X45800921Y38546309D01*
X46021147Y38489765D01*
X46025783Y38489179D01*
X46025790Y38489178D01*
X46334892Y38450130D01*
X46339539Y38449543D01*
X46660461Y38449543D01*
X46665108Y38450130D01*
X46974210Y38489178D01*
X46974217Y38489179D01*
X46978853Y38489765D01*
X47199079Y38546309D01*
X47285164Y38568412D01*
X47285166Y38568413D01*
X47289693Y38569575D01*
X47588079Y38687714D01*
X47869305Y38842320D01*
X47873084Y38845065D01*
X47873091Y38845070D01*
X48125152Y39028203D01*
X48128937Y39030953D01*
X48362879Y39250640D01*
X48365870Y39254255D01*
X48564458Y39494306D01*
X48564463Y39494312D01*
X48567443Y39497915D01*
X48569946Y39501859D01*
X48569951Y39501866D01*
X48736892Y39764923D01*
X48739402Y39768878D01*
X48876044Y40059258D01*
X48975214Y40364473D01*
X49035349Y40679711D01*
X49055500Y41000000D01*
X49035349Y41320289D01*
X48975214Y41635527D01*
X48876044Y41940742D01*
X48739402Y42231122D01*
X48719440Y42262576D01*
X48569951Y42498134D01*
X48569946Y42498141D01*
X48567443Y42502085D01*
X48564463Y42505688D01*
X48564458Y42505694D01*
X48365870Y42745745D01*
X48365867Y42745749D01*
X48362879Y42749360D01*
X48128937Y42969047D01*
X48125152Y42971797D01*
X47873091Y43154930D01*
X47873084Y43154935D01*
X47869305Y43157680D01*
X47588079Y43312286D01*
X47335060Y43412463D01*
X47273140Y43458449D01*
X47242508Y43529233D01*
X47251373Y43605850D01*
X47297359Y43667770D01*
X47368143Y43698402D01*
X47389910Y43700000D01*
X50551000Y43700000D01*
X50625500Y43680038D01*
X50680038Y43625500D01*
X50700000Y43551000D01*
X50700000Y449000D01*
X50680038Y374500D01*
X50625500Y319962D01*
X50551000Y300000D01*
X47389910Y300000D01*
X47315410Y319962D01*
X47260872Y374500D01*
X47240910Y449000D01*
X47260872Y523500D01*
X47315410Y578038D01*
X47335060Y587537D01*
X47583730Y685992D01*
X47583732Y685993D01*
X47588079Y687714D01*
X47869305Y842320D01*
X47873084Y845065D01*
X47873091Y845070D01*
X48125152Y1028203D01*
X48128937Y1030953D01*
X48362879Y1250640D01*
X48365870Y1254255D01*
X48564458Y1494306D01*
X48564463Y1494312D01*
X48567443Y1497915D01*
X48569946Y1501859D01*
X48569951Y1501866D01*
X48736892Y1764923D01*
X48739402Y1768878D01*
X48876044Y2059258D01*
X48975214Y2364473D01*
X49035349Y2679711D01*
X49055500Y3000000D01*
X49035349Y3320289D01*
X48975214Y3635527D01*
X48876044Y3940742D01*
X48739402Y4231122D01*
X48719440Y4262576D01*
X48569951Y4498134D01*
X48569946Y4498141D01*
X48567443Y4502085D01*
X48564463Y4505688D01*
X48564458Y4505694D01*
X48365870Y4745745D01*
X48365867Y4745749D01*
X48362879Y4749360D01*
X48128937Y4969047D01*
X48125152Y4971797D01*
X47873091Y5154930D01*
X47873084Y5154935D01*
X47869305Y5157680D01*
X47588079Y5312286D01*
X47289693Y5430425D01*
X47285166Y5431587D01*
X47285164Y5431588D01*
X47199079Y5453691D01*
X46978853Y5510235D01*
X46974217Y5510821D01*
X46974210Y5510822D01*
X46665108Y5549870D01*
X46665107Y5549870D01*
X46660461Y5550457D01*
X46339539Y5550457D01*
X46334893Y5549870D01*
X46334892Y5549870D01*
X46025790Y5510822D01*
X46025783Y5510821D01*
X46021147Y5510235D01*
X45800921Y5453691D01*
X45714836Y5431588D01*
X45714834Y5431587D01*
X45710307Y5430425D01*
X45411921Y5312286D01*
X45130695Y5157680D01*
X45126916Y5154935D01*
X45126909Y5154930D01*
X44874848Y4971797D01*
X44871063Y4969047D01*
X44637121Y4749360D01*
X44634133Y4745749D01*
X44634130Y4745745D01*
X44435542Y4505694D01*
X44435537Y4505688D01*
X44432557Y4502085D01*
X44430054Y4498141D01*
X44430049Y4498134D01*
X44280560Y4262576D01*
X44260598Y4231122D01*
X44123956Y3940742D01*
X44024786Y3635527D01*
X43964651Y3320289D01*
X43944500Y3000000D01*
X43964651Y2679711D01*
X44024786Y2364473D01*
X44123956Y2059258D01*
X44260598Y1768878D01*
X44263108Y1764923D01*
X44430049Y1501866D01*
X44430054Y1501859D01*
X44432557Y1497915D01*
X44435537Y1494312D01*
X44435542Y1494306D01*
X44634130Y1254255D01*
X44637121Y1250640D01*
X44871063Y1030953D01*
X44874848Y1028203D01*
X45126909Y845070D01*
X45126916Y845065D01*
X45130695Y842320D01*
X45411921Y687714D01*
X45416268Y685993D01*
X45416270Y685992D01*
X45664940Y587537D01*
X45726860Y541551D01*
X45757492Y470767D01*
X45748627Y394150D01*
X45702641Y332230D01*
X45631857Y301598D01*
X45610090Y300000D01*
X4389910Y300000D01*
X4315410Y319962D01*
X4260872Y374500D01*
X4240910Y449000D01*
X4260872Y523500D01*
X4315410Y578038D01*
X4335060Y587537D01*
X4583730Y685992D01*
X4583732Y685993D01*
X4588079Y687714D01*
X4869305Y842320D01*
X4873084Y845065D01*
X4873091Y845070D01*
X5125152Y1028203D01*
X5128937Y1030953D01*
X5362879Y1250640D01*
X5365870Y1254255D01*
X5564458Y1494306D01*
X5564463Y1494312D01*
X5567443Y1497915D01*
X5569946Y1501859D01*
X5569951Y1501866D01*
X5736892Y1764923D01*
X5739402Y1768878D01*
X5876044Y2059258D01*
X5975214Y2364473D01*
X6035349Y2679711D01*
X6055500Y3000000D01*
X6035349Y3320289D01*
X5975214Y3635527D01*
X5876044Y3940742D01*
X5739402Y4231122D01*
X5719440Y4262576D01*
X5569951Y4498134D01*
X5569946Y4498141D01*
X5567443Y4502085D01*
X5564463Y4505688D01*
X5564458Y4505694D01*
X5365870Y4745745D01*
X5365867Y4745749D01*
X5362879Y4749360D01*
X5128937Y4969047D01*
X5125152Y4971797D01*
X4873091Y5154930D01*
X4873084Y5154935D01*
X4869305Y5157680D01*
X4588079Y5312286D01*
X4289693Y5430425D01*
X4285166Y5431587D01*
X4285164Y5431588D01*
X4199079Y5453691D01*
X3978853Y5510235D01*
X3974217Y5510821D01*
X3974210Y5510822D01*
X3665108Y5549870D01*
X3665107Y5549870D01*
X3660461Y5550457D01*
X3339539Y5550457D01*
X3334893Y5549870D01*
X3334892Y5549870D01*
X3025790Y5510822D01*
X3025783Y5510821D01*
X3021147Y5510235D01*
X2800921Y5453691D01*
X2714836Y5431588D01*
X2714834Y5431587D01*
X2710307Y5430425D01*
X2411921Y5312286D01*
X2130695Y5157680D01*
X2126916Y5154935D01*
X2126909Y5154930D01*
X1874848Y4971797D01*
X1871063Y4969047D01*
X1637121Y4749360D01*
X1634133Y4745749D01*
X1634130Y4745745D01*
X1435542Y4505694D01*
X1435537Y4505688D01*
X1432557Y4502085D01*
X1430054Y4498141D01*
X1430049Y4498134D01*
X1280560Y4262576D01*
X1260598Y4231122D01*
X1123956Y3940742D01*
X1024786Y3635527D01*
X964651Y3320289D01*
X944500Y3000000D01*
X964651Y2679711D01*
X1024786Y2364473D01*
X1123956Y2059258D01*
X1260598Y1768878D01*
X1263108Y1764923D01*
X1430049Y1501866D01*
X1430054Y1501859D01*
X1432557Y1497915D01*
X1435537Y1494312D01*
X1435542Y1494306D01*
X1634130Y1254255D01*
X1637121Y1250640D01*
X1871063Y1030953D01*
X1874848Y1028203D01*
X2126909Y845070D01*
X2126916Y845065D01*
X2130695Y842320D01*
X2411921Y687714D01*
X2416268Y685993D01*
X2416270Y685992D01*
X2664940Y587537D01*
X2726860Y541551D01*
X2757492Y470767D01*
X2748627Y394150D01*
X2702641Y332230D01*
X2631857Y301598D01*
X2610090Y300000D01*
X449000Y300000D01*
X374500Y319962D01*
X319962Y374500D01*
X300000Y449000D01*
X300000Y18600000D01*
X15394500Y18600000D01*
X15415132Y18443285D01*
X15475622Y18297250D01*
X15571847Y18171847D01*
X15579596Y18165901D01*
X15580859Y18164638D01*
X15619423Y18097843D01*
X15624500Y18059279D01*
X15624500Y11340721D01*
X15604538Y11266221D01*
X15580859Y11235362D01*
X15579596Y11234099D01*
X15571847Y11228153D01*
X15475622Y11102750D01*
X15415132Y10956715D01*
X15394500Y10800000D01*
X15415132Y10643285D01*
X15475622Y10497250D01*
X15571847Y10371847D01*
X15697250Y10275622D01*
X15843285Y10215132D01*
X15852967Y10213857D01*
X15852968Y10213857D01*
X15990315Y10195775D01*
X16000000Y10194500D01*
X16009685Y10195775D01*
X16147032Y10213857D01*
X16147033Y10213857D01*
X16156715Y10215132D01*
X16302750Y10275622D01*
X16428153Y10371847D01*
X16524378Y10497250D01*
X16584868Y10643285D01*
X16605500Y10800000D01*
X16584868Y10956715D01*
X16524378Y11102750D01*
X16428153Y11228153D01*
X16420404Y11234099D01*
X16419141Y11235362D01*
X16380577Y11302157D01*
X16375500Y11340721D01*
X16375500Y18059279D01*
X16395462Y18133779D01*
X16419141Y18164638D01*
X16420404Y18165901D01*
X16428153Y18171847D01*
X16524378Y18297250D01*
X16584868Y18443285D01*
X16605500Y18600000D01*
X16584868Y18756715D01*
X16524378Y18902750D01*
X16428153Y19028153D01*
X16302750Y19124378D01*
X16156715Y19184868D01*
X16147033Y19186143D01*
X16147032Y19186143D01*
X16009685Y19204225D01*
X16000000Y19205500D01*
X15990315Y19204225D01*
X15852968Y19186143D01*
X15852967Y19186143D01*
X15843285Y19184868D01*
X15697250Y19124378D01*
X15571847Y19028153D01*
X15475622Y18902750D01*
X15415132Y18756715D01*
X15394500Y18600000D01*
X300000Y18600000D01*
X300000Y20315000D01*
X26494500Y20315000D01*
X26515132Y20158285D01*
X26575622Y20012250D01*
X26671847Y19886847D01*
X26679596Y19880901D01*
X26680859Y19879638D01*
X26719423Y19812843D01*
X26724500Y19774279D01*
X26724500Y8940721D01*
X26704538Y8866221D01*
X26680859Y8835362D01*
X26679596Y8834099D01*
X26671847Y8828153D01*
X26575622Y8702750D01*
X26515132Y8556715D01*
X26494500Y8400000D01*
X26515132Y8243285D01*
X26575622Y8097250D01*
X26671847Y7971847D01*
X26797250Y7875622D01*
X26943285Y7815132D01*
X26952967Y7813857D01*
X26952968Y7813857D01*
X27090315Y7795775D01*
X27100000Y7794500D01*
X27109685Y7795775D01*
X27247032Y7813857D01*
X27247033Y7813857D01*
X27256715Y7815132D01*
X27402750Y7875622D01*
X27528153Y7971847D01*
X27624378Y8097250D01*
X27684868Y8243285D01*
X27705500Y8400000D01*
X27684868Y8556715D01*
X27624378Y8702750D01*
X27528153Y8828153D01*
X27520404Y8834099D01*
X27519141Y8835362D01*
X27480577Y8902157D01*
X27475500Y8940721D01*
X27475500Y19774279D01*
X27495462Y19848779D01*
X27519141Y19879638D01*
X27520404Y19880901D01*
X27528153Y19886847D01*
X27624378Y20012250D01*
X27684868Y20158285D01*
X27705500Y20315000D01*
X27684868Y20471715D01*
X27624378Y20617750D01*
X27528153Y20743153D01*
X27402750Y20839378D01*
X27256715Y20899868D01*
X27247033Y20901143D01*
X27247032Y20901143D01*
X27109685Y20919225D01*
X27100000Y20920500D01*
X27090315Y20919225D01*
X26952968Y20901143D01*
X26952967Y20901143D01*
X26943285Y20899868D01*
X26797250Y20839378D01*
X26671847Y20743153D01*
X26575622Y20617750D01*
X26515132Y20471715D01*
X26494500Y20315000D01*
X300000Y20315000D01*
X300000Y22000000D01*
X1944500Y22000000D01*
X1964333Y21773302D01*
X2023231Y21553493D01*
X2119404Y21347250D01*
X2123135Y21341922D01*
X2123137Y21341918D01*
X2199906Y21232282D01*
X2249929Y21160841D01*
X2410841Y20999929D01*
X2416167Y20996200D01*
X2591918Y20873137D01*
X2591922Y20873135D01*
X2597250Y20869404D01*
X2803493Y20773231D01*
X2809774Y20771548D01*
X3017024Y20716015D01*
X3017026Y20716015D01*
X3023302Y20714333D01*
X3029773Y20713767D01*
X3029778Y20713766D01*
X3243519Y20695067D01*
X3250000Y20694500D01*
X3256481Y20695067D01*
X3470222Y20713766D01*
X3470227Y20713767D01*
X3476698Y20714333D01*
X3482974Y20716015D01*
X3482976Y20716015D01*
X3690226Y20771548D01*
X3696507Y20773231D01*
X3902750Y20869404D01*
X3908078Y20873135D01*
X3908082Y20873137D01*
X4083833Y20996200D01*
X4089159Y20999929D01*
X4250071Y21160841D01*
X4300094Y21232282D01*
X4376863Y21341918D01*
X4376865Y21341922D01*
X4380596Y21347250D01*
X4476769Y21553493D01*
X4535667Y21773302D01*
X4555500Y22000000D01*
X4535667Y22226698D01*
X4476769Y22446507D01*
X4380596Y22652750D01*
X4376865Y22658078D01*
X4376863Y22658082D01*
X4253800Y22833833D01*
X4250071Y22839159D01*
X4089159Y23000071D01*
X4017718Y23050094D01*
X3908082Y23126863D01*
X3908078Y23126865D01*
X3902750Y23130596D01*
X3696507Y23226769D01*
X3690226Y23228452D01*
X3482976Y23283985D01*
X3482974Y23283985D01*
X3476698Y23285667D01*
X3470227Y23286233D01*
X3470222Y23286234D01*
X3256481Y23304933D01*
X3250000Y23305500D01*
X3243519Y23304933D01*
X3029778Y23286234D01*
X3029773Y23286233D01*
X3023302Y23285667D01*
X3017026Y23283985D01*
X3017024Y23283985D01*
X2809774Y23228452D01*
X2803493Y23226769D01*
X2597250Y23130596D01*
X2591922Y23126865D01*
X2591918Y23126863D01*
X2482282Y23050094D01*
X2410841Y23000071D01*
X2249929Y22839159D01*
X2246200Y22833833D01*
X2123137Y22658082D01*
X2123135Y22658078D01*
X2119404Y22652750D01*
X2023231Y22446507D01*
X1964333Y22226698D01*
X1944500Y22000000D01*
X300000Y22000000D01*
X300000Y31400000D01*
X15394500Y31400000D01*
X15415132Y31243285D01*
X15475622Y31097250D01*
X15571847Y30971847D01*
X15579596Y30965901D01*
X15580859Y30964638D01*
X15619423Y30897843D01*
X15624500Y30859279D01*
X15624500Y24540721D01*
X15604538Y24466221D01*
X15580859Y24435362D01*
X15579596Y24434099D01*
X15571847Y24428153D01*
X15475622Y24302750D01*
X15471884Y24293727D01*
X15471884Y24293726D01*
X15450991Y24243285D01*
X15415132Y24156715D01*
X15394500Y24000000D01*
X15415132Y23843285D01*
X15418869Y23834263D01*
X15435340Y23794500D01*
X15475622Y23697250D01*
X15571847Y23571847D01*
X15697250Y23475622D01*
X15843285Y23415132D01*
X15852967Y23413857D01*
X15852968Y23413857D01*
X15990315Y23395775D01*
X16000000Y23394500D01*
X16009685Y23395775D01*
X16147032Y23413857D01*
X16147033Y23413857D01*
X16156715Y23415132D01*
X16302750Y23475622D01*
X16428153Y23571847D01*
X16524378Y23697250D01*
X16564661Y23794500D01*
X16581131Y23834263D01*
X16584868Y23843285D01*
X16605500Y24000000D01*
X16584868Y24156715D01*
X16549009Y24243285D01*
X16528116Y24293726D01*
X16528116Y24293727D01*
X16524378Y24302750D01*
X16449756Y24400000D01*
X28094500Y24400000D01*
X28115132Y24243285D01*
X28118869Y24234263D01*
X28155002Y24147032D01*
X28175622Y24097250D01*
X28271847Y23971847D01*
X28397250Y23875622D01*
X28543285Y23815132D01*
X28552967Y23813857D01*
X28552968Y23813857D01*
X28690315Y23795775D01*
X28700000Y23794500D01*
X28709685Y23795775D01*
X28847032Y23813857D01*
X28847033Y23813857D01*
X28856715Y23815132D01*
X29002750Y23875622D01*
X29128153Y23971847D01*
X29134099Y23979596D01*
X29135362Y23980859D01*
X29202157Y24019423D01*
X29240721Y24024500D01*
X39759279Y24024500D01*
X39833779Y24004538D01*
X39864638Y23980859D01*
X39865901Y23979596D01*
X39871847Y23971847D01*
X39997250Y23875622D01*
X40143285Y23815132D01*
X40152967Y23813857D01*
X40152968Y23813857D01*
X40290315Y23795775D01*
X40300000Y23794500D01*
X40309685Y23795775D01*
X40447032Y23813857D01*
X40447033Y23813857D01*
X40456715Y23815132D01*
X40602750Y23875622D01*
X40728153Y23971847D01*
X40824378Y24097250D01*
X40844999Y24147032D01*
X40881131Y24234263D01*
X40884868Y24243285D01*
X40905500Y24400000D01*
X40901794Y24428153D01*
X40886143Y24547032D01*
X40886143Y24547033D01*
X40884868Y24556715D01*
X40824378Y24702750D01*
X40728153Y24828153D01*
X40602750Y24924378D01*
X40456715Y24984868D01*
X40447033Y24986143D01*
X40447032Y24986143D01*
X40309685Y25004225D01*
X40300000Y25005500D01*
X40290315Y25004225D01*
X40152968Y24986143D01*
X40152967Y24986143D01*
X40143285Y24984868D01*
X39997250Y24924378D01*
X39871847Y24828153D01*
X39865901Y24820404D01*
X39864638Y24819141D01*
X39797843Y24780577D01*
X39759279Y24775500D01*
X29240721Y24775500D01*
X29166221Y24795462D01*
X29135362Y24819141D01*
X29134099Y24820404D01*
X29128153Y24828153D01*
X29002750Y24924378D01*
X28856715Y24984868D01*
X28847033Y24986143D01*
X28847032Y24986143D01*
X28709685Y25004225D01*
X28700000Y25005500D01*
X28690315Y25004225D01*
X28552968Y24986143D01*
X28552967Y24986143D01*
X28543285Y24984868D01*
X28397250Y24924378D01*
X28271847Y24828153D01*
X28175622Y24702750D01*
X28115132Y24556715D01*
X28113857Y24547033D01*
X28113857Y24547032D01*
X28098206Y24428153D01*
X28094500Y24400000D01*
X16449756Y24400000D01*
X16428153Y24428153D01*
X16420404Y24434099D01*
X16419141Y24435362D01*
X16380577Y24502157D01*
X16375500Y24540721D01*
X16375500Y30859279D01*
X16395462Y30933779D01*
X16419141Y30964638D01*
X16420404Y30965901D01*
X16428153Y30971847D01*
X16524378Y31097250D01*
X16584868Y31243285D01*
X16605500Y31400000D01*
X16584868Y31556715D01*
X16524378Y31702750D01*
X16428153Y31828153D01*
X16302750Y31924378D01*
X16156715Y31984868D01*
X16147033Y31986143D01*
X16147032Y31986143D01*
X16009685Y32004225D01*
X16000000Y32005500D01*
X15990315Y32004225D01*
X15852968Y31986143D01*
X15852967Y31986143D01*
X15843285Y31984868D01*
X15697250Y31924378D01*
X15571847Y31828153D01*
X15475622Y31702750D01*
X15415132Y31556715D01*
X15394500Y31400000D01*
X300000Y31400000D01*
X300000Y34000000D01*
X17394500Y34000000D01*
X17415132Y33843285D01*
X17475622Y33697250D01*
X17571847Y33571847D01*
X17697250Y33475622D01*
X17843285Y33415132D01*
X17852967Y33413857D01*
X17852968Y33413857D01*
X17990315Y33395775D01*
X18000000Y33394500D01*
X18009685Y33395775D01*
X18147032Y33413857D01*
X18147033Y33413857D01*
X18156715Y33415132D01*
X18302750Y33475622D01*
X18428153Y33571847D01*
X18434099Y33579596D01*
X18435362Y33580859D01*
X18502157Y33619423D01*
X18540721Y33624500D01*
X24559279Y33624500D01*
X24633779Y33604538D01*
X24664638Y33580859D01*
X24665901Y33579596D01*
X24671847Y33571847D01*
X24797250Y33475622D01*
X24943285Y33415132D01*
X24952967Y33413857D01*
X24952968Y33413857D01*
X25090315Y33395775D01*
X25100000Y33394500D01*
X25109685Y33395775D01*
X25247032Y33413857D01*
X25247033Y33413857D01*
X25256715Y33415132D01*
X25402750Y33475622D01*
X25528153Y33571847D01*
X25624378Y33697250D01*
X25684868Y33843285D01*
X25705500Y34000000D01*
X25684868Y34156715D01*
X25624378Y34302750D01*
X25528153Y34428153D01*
X25402750Y34524378D01*
X25256715Y34584868D01*
X25247033Y34586143D01*
X25247032Y34586143D01*
X25109685Y34604225D01*
X25100000Y34605500D01*
X25090315Y34604225D01*
X24952968Y34586143D01*
X24952967Y34586143D01*
X24943285Y34584868D01*
X24797250Y34524378D01*
X24671847Y34428153D01*
X24665901Y34420404D01*
X24664638Y34419141D01*
X24597843Y34380577D01*
X24559279Y34375500D01*
X18540721Y34375500D01*
X18466221Y34395462D01*
X18435362Y34419141D01*
X18434099Y34420404D01*
X18428153Y34428153D01*
X18302750Y34524378D01*
X18156715Y34584868D01*
X18147033Y34586143D01*
X18147032Y34586143D01*
X18009685Y34604225D01*
X18000000Y34605500D01*
X17990315Y34604225D01*
X17852968Y34586143D01*
X17852967Y34586143D01*
X17843285Y34584868D01*
X17697250Y34524378D01*
X17571847Y34428153D01*
X17475622Y34302750D01*
X17415132Y34156715D01*
X17394500Y34000000D01*
X300000Y34000000D01*
X300000Y43551000D01*
X319962Y43625500D01*
X374500Y43680038D01*
X449000Y43700000D01*
X2610090Y43700000D01*
X2684590Y43680038D01*
G37*
G04 #@! TD.AperFunction*
M02*
