G04 #@! TF.GenerationSoftware,KiCad,Pcbnew,(5.99.0-11105-gfb4343bc8f)*
G04 #@! TF.CreationDate,2021-06-29T16:28:08+01:00*
G04 #@! TF.ProjectId,NB3_power,4e42335f-706f-4776-9572-2e6b69636164,0.0.1*
G04 #@! TF.SameCoordinates,PX7bfa480PY7bfa480*
G04 #@! TF.FileFunction,Soldermask,Top*
G04 #@! TF.FilePolarity,Negative*
%FSLAX46Y46*%
G04 Gerber Fmt 4.6, Leading zero omitted, Abs format (unit mm)*
G04 Created by KiCad (PCBNEW (5.99.0-11105-gfb4343bc8f)) date 2021-06-29 16:28:08*
%MOMM*%
%LPD*%
G01*
G04 APERTURE LIST*
G04 Aperture macros list*
%AMRoundRect*
0 Rectangle with rounded corners*
0 $1 Rounding radius*
0 $2 $3 $4 $5 $6 $7 $8 $9 X,Y pos of 4 corners*
0 Add a 4 corners polygon primitive as box body*
4,1,4,$2,$3,$4,$5,$6,$7,$8,$9,$2,$3,0*
0 Add four circle primitives for the rounded corners*
1,1,$1+$1,$2,$3*
1,1,$1+$1,$4,$5*
1,1,$1+$1,$6,$7*
1,1,$1+$1,$8,$9*
0 Add four rect primitives between the rounded corners*
20,1,$1+$1,$2,$3,$4,$5,0*
20,1,$1+$1,$4,$5,$6,$7,0*
20,1,$1+$1,$6,$7,$8,$9,0*
20,1,$1+$1,$8,$9,$2,$3,0*%
G04 Aperture macros list end*
%ADD10C,4.500000*%
%ADD11RoundRect,0.243750X-0.456250X0.243750X-0.456250X-0.243750X0.456250X-0.243750X0.456250X0.243750X0*%
%ADD12RoundRect,0.147500X-0.147500X-0.172500X0.147500X-0.172500X0.147500X0.172500X-0.147500X0.172500X0*%
%ADD13RoundRect,0.135000X0.185000X-0.135000X0.185000X0.135000X-0.185000X0.135000X-0.185000X-0.135000X0*%
%ADD14RoundRect,0.243750X0.456250X-0.243750X0.456250X0.243750X-0.456250X0.243750X-0.456250X-0.243750X0*%
%ADD15RoundRect,0.218750X-0.218750X-0.256250X0.218750X-0.256250X0.218750X0.256250X-0.218750X0.256250X0*%
%ADD16RoundRect,0.250000X1.025000X-0.787500X1.025000X0.787500X-1.025000X0.787500X-1.025000X-0.787500X0*%
%ADD17RoundRect,0.135000X-0.185000X0.135000X-0.185000X-0.135000X0.185000X-0.135000X0.185000X0.135000X0*%
%ADD18R,4.400000X3.300000*%
%ADD19R,6.200000X3.900000*%
%ADD20C,2.000000*%
%ADD21R,1.000000X1.600000*%
%ADD22RoundRect,0.147500X0.147500X0.172500X-0.147500X0.172500X-0.147500X-0.172500X0.147500X-0.172500X0*%
%ADD23RoundRect,0.147500X0.172500X-0.147500X0.172500X0.147500X-0.172500X0.147500X-0.172500X-0.147500X0*%
%ADD24R,5.100000X2.350000*%
%ADD25R,3.505200X0.990600*%
%ADD26R,3.505200X1.600200*%
%ADD27R,2.710000X3.400000*%
%ADD28RoundRect,0.150000X-0.737500X-0.150000X0.737500X-0.150000X0.737500X0.150000X-0.737500X0.150000X0*%
G04 APERTURE END LIST*
D10*
X3500000Y3000000D03*
D11*
X32500000Y30275000D03*
X32500000Y28400000D03*
D12*
X36015000Y25000000D03*
X36985000Y25000000D03*
D13*
X1200000Y36490000D03*
X1200000Y37510000D03*
D14*
X25000000Y23212500D03*
X25000000Y25087500D03*
D15*
X1212500Y35000000D03*
X2787500Y35000000D03*
D16*
X26500000Y31387500D03*
X26500000Y37612500D03*
D10*
X46500000Y41000000D03*
D14*
X20000000Y23212500D03*
X20000000Y25087500D03*
X30000000Y32400000D03*
X30000000Y34275000D03*
D12*
X37765000Y21600000D03*
X38735000Y21600000D03*
D17*
X1200000Y31620000D03*
X1200000Y30600000D03*
D18*
X16000000Y22350000D03*
D19*
X7050000Y29450000D03*
X7050000Y16550000D03*
D20*
X3250000Y23000000D03*
D21*
X7500000Y11200000D03*
X5000000Y8800000D03*
X2500000Y11200000D03*
D22*
X38735000Y22700000D03*
X37765000Y22700000D03*
D11*
X20000000Y21587500D03*
X20000000Y19712500D03*
D10*
X46500000Y3000000D03*
D11*
X22500000Y21587500D03*
X22500000Y19712500D03*
D14*
X32500000Y32400000D03*
X32500000Y34275000D03*
D15*
X1212500Y33000000D03*
X2787500Y33000000D03*
D14*
X22500000Y23212500D03*
X22500000Y25087500D03*
D23*
X36000000Y22165000D03*
X36000000Y23135000D03*
D10*
X3500000Y41000000D03*
D12*
X38265000Y25000000D03*
X39235000Y25000000D03*
D22*
X36985000Y20500000D03*
X36015000Y20500000D03*
D11*
X30000000Y30275000D03*
X30000000Y28400000D03*
X25000000Y21587500D03*
X25000000Y19712500D03*
D22*
X36985000Y19400000D03*
X36015000Y19400000D03*
D24*
X37500000Y27075000D03*
X37500000Y31225000D03*
D12*
X29015000Y19200000D03*
X29985000Y19200000D03*
D22*
X33485000Y19200000D03*
X32515000Y19200000D03*
D25*
X43110598Y20000000D03*
X43110598Y21999998D03*
X43110598Y23999999D03*
X43110598Y25999998D03*
D26*
X48860600Y28349998D03*
X48860600Y17649999D03*
D27*
X31250000Y22650000D03*
D28*
X28687500Y24555000D03*
X28687500Y23285000D03*
X28687500Y22015000D03*
X28687500Y20745000D03*
X33812500Y20745000D03*
X33812500Y22015000D03*
X33812500Y23285000D03*
X33812500Y24555000D03*
M02*
