G04 #@! TF.GenerationSoftware,KiCad,Pcbnew,(5.99.0-11065-g2a3d8e22b6)*
G04 #@! TF.CreationDate,2021-07-02T10:55:01+01:00*
G04 #@! TF.ProjectId,NB3_power,4e42335f-706f-4776-9572-2e6b69636164,0.0.2*
G04 #@! TF.SameCoordinates,PX7bfa480PY7bfa480*
G04 #@! TF.FileFunction,Paste,Top*
G04 #@! TF.FilePolarity,Positive*
%FSLAX46Y46*%
G04 Gerber Fmt 4.6, Leading zero omitted, Abs format (unit mm)*
G04 Created by KiCad (PCBNEW (5.99.0-11065-g2a3d8e22b6)) date 2021-07-02 10:55:01*
%MOMM*%
%LPD*%
G01*
G04 APERTURE LIST*
G04 Aperture macros list*
%AMRoundRect*
0 Rectangle with rounded corners*
0 $1 Rounding radius*
0 $2 $3 $4 $5 $6 $7 $8 $9 X,Y pos of 4 corners*
0 Add a 4 corners polygon primitive as box body*
4,1,4,$2,$3,$4,$5,$6,$7,$8,$9,$2,$3,0*
0 Add four circle primitives for the rounded corners*
1,1,$1+$1,$2,$3*
1,1,$1+$1,$4,$5*
1,1,$1+$1,$6,$7*
1,1,$1+$1,$8,$9*
0 Add four rect primitives between the rounded corners*
20,1,$1+$1,$2,$3,$4,$5,0*
20,1,$1+$1,$4,$5,$6,$7,0*
20,1,$1+$1,$6,$7,$8,$9,0*
20,1,$1+$1,$8,$9,$2,$3,0*%
G04 Aperture macros list end*
%ADD10RoundRect,0.243750X-0.456250X0.243750X-0.456250X-0.243750X0.456250X-0.243750X0.456250X0.243750X0*%
%ADD11RoundRect,0.147500X-0.147500X-0.172500X0.147500X-0.172500X0.147500X0.172500X-0.147500X0.172500X0*%
%ADD12RoundRect,0.135000X0.185000X-0.135000X0.185000X0.135000X-0.185000X0.135000X-0.185000X-0.135000X0*%
%ADD13RoundRect,0.243750X0.456250X-0.243750X0.456250X0.243750X-0.456250X0.243750X-0.456250X-0.243750X0*%
%ADD14RoundRect,0.218750X-0.218750X-0.256250X0.218750X-0.256250X0.218750X0.256250X-0.218750X0.256250X0*%
%ADD15RoundRect,0.250000X1.025000X-0.787500X1.025000X0.787500X-1.025000X0.787500X-1.025000X-0.787500X0*%
%ADD16RoundRect,0.135000X-0.185000X0.135000X-0.185000X-0.135000X0.185000X-0.135000X0.185000X0.135000X0*%
%ADD17R,4.400000X3.300000*%
%ADD18R,6.200000X3.900000*%
%ADD19R,1.000000X1.600000*%
%ADD20RoundRect,0.147500X0.147500X0.172500X-0.147500X0.172500X-0.147500X-0.172500X0.147500X-0.172500X0*%
%ADD21RoundRect,0.147500X0.172500X-0.147500X0.172500X0.147500X-0.172500X0.147500X-0.172500X-0.147500X0*%
%ADD22R,5.100000X2.350000*%
%ADD23R,3.505200X0.990600*%
%ADD24R,3.505200X1.600200*%
%ADD25RoundRect,0.250000X-0.315000X-0.460000X0.315000X-0.460000X0.315000X0.460000X-0.315000X0.460000X0*%
%ADD26RoundRect,0.150000X-0.737500X-0.150000X0.737500X-0.150000X0.737500X0.150000X-0.737500X0.150000X0*%
G04 APERTURE END LIST*
D10*
X32500000Y29275000D03*
X32500000Y27400000D03*
D11*
X36015000Y24000000D03*
X36985000Y24000000D03*
D12*
X1200000Y35490000D03*
X1200000Y36510000D03*
D13*
X25000000Y22212500D03*
X25000000Y24087500D03*
D14*
X1212500Y34000000D03*
X2787500Y34000000D03*
D15*
X26500000Y30387500D03*
X26500000Y36612500D03*
D13*
X20000000Y22212500D03*
X20000000Y24087500D03*
X30000000Y31400000D03*
X30000000Y33275000D03*
D11*
X37765000Y20600000D03*
X38735000Y20600000D03*
D16*
X1200000Y30620000D03*
X1200000Y29600000D03*
D17*
X16000000Y21350000D03*
D18*
X7050000Y28450000D03*
X7050000Y15550000D03*
D19*
X7500000Y10200000D03*
X5000000Y7800000D03*
X2500000Y10200000D03*
D20*
X38735000Y21700000D03*
X37765000Y21700000D03*
D10*
X20000000Y20587500D03*
X20000000Y18712500D03*
X22500000Y20587500D03*
X22500000Y18712500D03*
D13*
X32500000Y31400000D03*
X32500000Y33275000D03*
D14*
X1212500Y32000000D03*
X2787500Y32000000D03*
D13*
X22500000Y22212500D03*
X22500000Y24087500D03*
D21*
X36000000Y21165000D03*
X36000000Y22135000D03*
D11*
X38265000Y24000000D03*
X39235000Y24000000D03*
D20*
X36985000Y19500000D03*
X36015000Y19500000D03*
D10*
X30000000Y29275000D03*
X30000000Y27400000D03*
X25000000Y20587500D03*
X25000000Y18712500D03*
D20*
X36985000Y18400000D03*
X36015000Y18400000D03*
D22*
X37500000Y26075000D03*
X37500000Y30225000D03*
D11*
X29015000Y18200000D03*
X29985000Y18200000D03*
D20*
X33485000Y18200000D03*
X32515000Y18200000D03*
D23*
X43110598Y19000000D03*
X43110598Y20999998D03*
X43110598Y22999999D03*
X43110598Y24999998D03*
D24*
X48860600Y27349998D03*
X48860600Y16649999D03*
D25*
X31930000Y20800000D03*
X30570000Y22500000D03*
X30570000Y20800000D03*
X31930000Y22500000D03*
D26*
X28687500Y23555000D03*
X28687500Y22285000D03*
X28687500Y21015000D03*
X28687500Y19745000D03*
X33812500Y19745000D03*
X33812500Y21015000D03*
X33812500Y22285000D03*
X33812500Y23555000D03*
M02*
