G04 #@! TF.GenerationSoftware,KiCad,Pcbnew,(5.99.0-11065-g2a3d8e22b6)*
G04 #@! TF.CreationDate,2021-07-02T10:55:01+01:00*
G04 #@! TF.ProjectId,NB3_power,4e42335f-706f-4776-9572-2e6b69636164,0.0.2*
G04 #@! TF.SameCoordinates,PX7bfa480PY7bfa480*
G04 #@! TF.FileFunction,Copper,L1,Top*
G04 #@! TF.FilePolarity,Positive*
%FSLAX46Y46*%
G04 Gerber Fmt 4.6, Leading zero omitted, Abs format (unit mm)*
G04 Created by KiCad (PCBNEW (5.99.0-11065-g2a3d8e22b6)) date 2021-07-02 10:55:01*
%MOMM*%
%LPD*%
G01*
G04 APERTURE LIST*
G04 Aperture macros list*
%AMRoundRect*
0 Rectangle with rounded corners*
0 $1 Rounding radius*
0 $2 $3 $4 $5 $6 $7 $8 $9 X,Y pos of 4 corners*
0 Add a 4 corners polygon primitive as box body*
4,1,4,$2,$3,$4,$5,$6,$7,$8,$9,$2,$3,0*
0 Add four circle primitives for the rounded corners*
1,1,$1+$1,$2,$3*
1,1,$1+$1,$4,$5*
1,1,$1+$1,$6,$7*
1,1,$1+$1,$8,$9*
0 Add four rect primitives between the rounded corners*
20,1,$1+$1,$2,$3,$4,$5,0*
20,1,$1+$1,$4,$5,$6,$7,0*
20,1,$1+$1,$6,$7,$8,$9,0*
20,1,$1+$1,$8,$9,$2,$3,0*%
G04 Aperture macros list end*
G04 #@! TA.AperFunction,WasherPad*
%ADD10C,4.500000*%
G04 #@! TD*
G04 #@! TA.AperFunction,SMDPad,CuDef*
%ADD11RoundRect,0.243750X-0.456250X0.243750X-0.456250X-0.243750X0.456250X-0.243750X0.456250X0.243750X0*%
G04 #@! TD*
G04 #@! TA.AperFunction,SMDPad,CuDef*
%ADD12RoundRect,0.147500X-0.147500X-0.172500X0.147500X-0.172500X0.147500X0.172500X-0.147500X0.172500X0*%
G04 #@! TD*
G04 #@! TA.AperFunction,SMDPad,CuDef*
%ADD13RoundRect,0.135000X0.185000X-0.135000X0.185000X0.135000X-0.185000X0.135000X-0.185000X-0.135000X0*%
G04 #@! TD*
G04 #@! TA.AperFunction,SMDPad,CuDef*
%ADD14RoundRect,0.243750X0.456250X-0.243750X0.456250X0.243750X-0.456250X0.243750X-0.456250X-0.243750X0*%
G04 #@! TD*
G04 #@! TA.AperFunction,SMDPad,CuDef*
%ADD15RoundRect,0.218750X-0.218750X-0.256250X0.218750X-0.256250X0.218750X0.256250X-0.218750X0.256250X0*%
G04 #@! TD*
G04 #@! TA.AperFunction,SMDPad,CuDef*
%ADD16RoundRect,0.250000X1.025000X-0.787500X1.025000X0.787500X-1.025000X0.787500X-1.025000X-0.787500X0*%
G04 #@! TD*
G04 #@! TA.AperFunction,SMDPad,CuDef*
%ADD17RoundRect,0.135000X-0.185000X0.135000X-0.185000X-0.135000X0.185000X-0.135000X0.185000X0.135000X0*%
G04 #@! TD*
G04 #@! TA.AperFunction,SMDPad,CuDef*
%ADD18R,4.400000X3.300000*%
G04 #@! TD*
G04 #@! TA.AperFunction,SMDPad,CuDef*
%ADD19R,6.200000X3.900000*%
G04 #@! TD*
G04 #@! TA.AperFunction,SMDPad,CuDef*
%ADD20R,1.000000X1.600000*%
G04 #@! TD*
G04 #@! TA.AperFunction,SMDPad,CuDef*
%ADD21RoundRect,0.147500X0.147500X0.172500X-0.147500X0.172500X-0.147500X-0.172500X0.147500X-0.172500X0*%
G04 #@! TD*
G04 #@! TA.AperFunction,SMDPad,CuDef*
%ADD22RoundRect,0.147500X0.172500X-0.147500X0.172500X0.147500X-0.172500X0.147500X-0.172500X-0.147500X0*%
G04 #@! TD*
G04 #@! TA.AperFunction,SMDPad,CuDef*
%ADD23R,5.100000X2.350000*%
G04 #@! TD*
G04 #@! TA.AperFunction,SMDPad,CuDef*
%ADD24R,3.505200X0.990600*%
G04 #@! TD*
G04 #@! TA.AperFunction,SMDPad,CuDef*
%ADD25R,3.505200X1.600200*%
G04 #@! TD*
G04 #@! TA.AperFunction,SMDPad,CuDef*
%ADD26RoundRect,0.150000X-0.737500X-0.150000X0.737500X-0.150000X0.737500X0.150000X-0.737500X0.150000X0*%
G04 #@! TD*
G04 #@! TA.AperFunction,ComponentPad*
%ADD27C,0.500000*%
G04 #@! TD*
G04 #@! TA.AperFunction,SMDPad,CuDef*
%ADD28R,2.950000X4.900000*%
G04 #@! TD*
G04 #@! TA.AperFunction,ViaPad*
%ADD29C,0.600000*%
G04 #@! TD*
G04 #@! TA.AperFunction,Conductor*
%ADD30C,0.150000*%
G04 #@! TD*
G04 #@! TA.AperFunction,Conductor*
%ADD31C,0.500000*%
G04 #@! TD*
G04 #@! TA.AperFunction,Conductor*
%ADD32C,4.000000*%
G04 #@! TD*
G04 APERTURE END LIST*
D10*
X3500000Y3000000D03*
D11*
X32500000Y29275000D03*
X32500000Y27400000D03*
D12*
X36015000Y24000000D03*
X36985000Y24000000D03*
D13*
X1200000Y35490000D03*
X1200000Y36510000D03*
D14*
X25000000Y22212500D03*
X25000000Y24087500D03*
D15*
X1212500Y34000000D03*
X2787500Y34000000D03*
D16*
X26500000Y30387500D03*
X26500000Y36612500D03*
D10*
X46500000Y41000000D03*
D14*
X20000000Y22212500D03*
X20000000Y24087500D03*
X30000000Y31400000D03*
X30000000Y33275000D03*
D12*
X37765000Y20600000D03*
X38735000Y20600000D03*
D17*
X1200000Y30620000D03*
X1200000Y29600000D03*
D18*
X16000000Y21350000D03*
D19*
X7050000Y28450000D03*
X7050000Y15550000D03*
D20*
X7500000Y10200000D03*
X5000000Y7800000D03*
X2500000Y10200000D03*
D21*
X38735000Y21700000D03*
X37765000Y21700000D03*
D11*
X20000000Y20587500D03*
X20000000Y18712500D03*
D10*
X46500000Y3000000D03*
D11*
X22500000Y20587500D03*
X22500000Y18712500D03*
D14*
X32500000Y31400000D03*
X32500000Y33275000D03*
D15*
X1212500Y32000000D03*
X2787500Y32000000D03*
D14*
X22500000Y22212500D03*
X22500000Y24087500D03*
D22*
X36000000Y21165000D03*
X36000000Y22135000D03*
D10*
X3500000Y41000000D03*
D12*
X38265000Y24000000D03*
X39235000Y24000000D03*
D21*
X36985000Y19500000D03*
X36015000Y19500000D03*
D11*
X30000000Y29275000D03*
X30000000Y27400000D03*
X25000000Y20587500D03*
X25000000Y18712500D03*
D21*
X36985000Y18400000D03*
X36015000Y18400000D03*
D23*
X37500000Y26075000D03*
X37500000Y30225000D03*
D12*
X29015000Y18200000D03*
X29985000Y18200000D03*
D21*
X33485000Y18200000D03*
X32515000Y18200000D03*
D24*
X43110598Y19000000D03*
X43110598Y20999998D03*
X43110598Y22999999D03*
X43110598Y24999998D03*
D25*
X48860600Y27349998D03*
X48860600Y16649999D03*
D26*
X28687500Y23555000D03*
X28687500Y22285000D03*
X28687500Y21015000D03*
X28687500Y19745000D03*
X33812500Y19745000D03*
X33812500Y21015000D03*
X33812500Y22285000D03*
X33812500Y23555000D03*
D27*
X30600000Y22300000D03*
X31900000Y22300000D03*
X31900000Y23600000D03*
X31900000Y21000000D03*
X30600000Y21000000D03*
X30600000Y19700000D03*
X31900000Y19700000D03*
X30600000Y23600000D03*
D28*
X31250000Y21650000D03*
D29*
X31250000Y18150000D03*
X20000000Y25400000D03*
X30500000Y34587500D03*
X42500000Y15000000D03*
X29500000Y36500000D03*
X31250000Y14900000D03*
X25000000Y17400000D03*
X1250000Y37500000D03*
X31750000Y25650000D03*
X20000000Y17400000D03*
X43500000Y15000000D03*
X23500000Y36500000D03*
X30000000Y14900000D03*
X32000000Y34587500D03*
X25000000Y25400000D03*
X1250000Y28500000D03*
X30500000Y25650000D03*
X22500000Y25400000D03*
X32500000Y14900000D03*
X22500000Y17400000D03*
X40300000Y24400000D03*
X28700000Y24400000D03*
X25100000Y34000000D03*
X18000000Y34000000D03*
X16000000Y10800000D03*
X16000000Y31400000D03*
X16000000Y18600000D03*
X16000000Y24000000D03*
X27100000Y8400000D03*
X27100000Y20315000D03*
D30*
X32500000Y33275000D02*
X30000000Y33275000D01*
D31*
X33812500Y22285000D02*
X35215000Y22285000D01*
D30*
X30500000Y20900000D02*
X31250000Y21650000D01*
D31*
X35365000Y22135000D02*
X36000000Y22135000D01*
D30*
X31915000Y22285000D02*
X31900000Y22300000D01*
X4350000Y15550000D02*
X2500000Y13700000D01*
D31*
X36465000Y22135000D02*
X36900000Y21700000D01*
D30*
X7050000Y15550000D02*
X4350000Y15550000D01*
D31*
X36900000Y21700000D02*
X37765000Y21700000D01*
X33812500Y22285000D02*
X31915000Y22285000D01*
D32*
X7050000Y28450000D02*
X7050000Y15550000D01*
D30*
X2500000Y13700000D02*
X2500000Y10200000D01*
D31*
X36000000Y22135000D02*
X36465000Y22135000D01*
D30*
X5900000Y29600000D02*
X7050000Y28450000D01*
D31*
X35215000Y22285000D02*
X35365000Y22135000D01*
D30*
X1200000Y29600000D02*
X5900000Y29600000D01*
D31*
X36985000Y24000000D02*
X38265000Y24000000D01*
X33485000Y18785000D02*
X33812500Y19112500D01*
X35400000Y19500000D02*
X36015000Y19500000D01*
X36015000Y19500000D02*
X36015000Y18400000D01*
X35155000Y19745000D02*
X35400000Y19500000D01*
X33485000Y18200000D02*
X33485000Y18785000D01*
X33812500Y19112500D02*
X33812500Y19745000D01*
X33812500Y19745000D02*
X35155000Y19745000D01*
D30*
X28687500Y23555000D02*
X28687500Y24387500D01*
X28687500Y24387500D02*
X28700000Y24400000D01*
X39235000Y24000000D02*
X39900000Y24000000D01*
X39900000Y24000000D02*
X40300000Y24400000D01*
D31*
X29015000Y18685000D02*
X29015000Y18200000D01*
X28687500Y19012500D02*
X29015000Y18685000D01*
X28687500Y19745000D02*
X28687500Y19012500D01*
X36435000Y21165000D02*
X37000000Y20600000D01*
X36000000Y21165000D02*
X36435000Y21165000D01*
X37000000Y20600000D02*
X37765000Y20600000D01*
X35115000Y21015000D02*
X35265000Y21165000D01*
X33812500Y21015000D02*
X35115000Y21015000D01*
X35265000Y21165000D02*
X36000000Y21165000D01*
X36985000Y19500000D02*
X36985000Y18400000D01*
D30*
X37737500Y30462500D02*
X37500000Y30225000D01*
X32500000Y29275000D02*
X32500000Y31400000D01*
X26500000Y33600000D02*
X26500000Y30387500D01*
X29862500Y31537500D02*
X30000000Y31400000D01*
X36985000Y19500000D02*
X39200000Y19500000D01*
X25100000Y34000000D02*
X26100000Y34000000D01*
X39200000Y19500000D02*
X40000000Y20300000D01*
X40000000Y21757500D02*
X41242499Y22999999D01*
X41242499Y22999999D02*
X43110598Y22999999D01*
X30000000Y29275000D02*
X30000000Y31400000D01*
X2787500Y34000000D02*
X18000000Y34000000D01*
X40000000Y20300000D02*
X40000000Y21757500D01*
X32500000Y29275000D02*
X30000000Y29275000D01*
X32500000Y31400000D02*
X30000000Y31400000D01*
X26100000Y34000000D02*
X26500000Y33600000D01*
D31*
X38735000Y21700000D02*
X38735000Y20600000D01*
D30*
X16000000Y24000000D02*
X16000000Y21350000D01*
X16000000Y18600000D02*
X16000000Y21350000D01*
X2787500Y32000000D02*
X15400000Y32000000D01*
X15400000Y32000000D02*
X16000000Y31400000D01*
X28615000Y22212500D02*
X28687500Y22285000D01*
X15400000Y10200000D02*
X16000000Y10800000D01*
X7500000Y10200000D02*
X15400000Y10200000D01*
X1200000Y31987500D02*
X1212500Y32000000D01*
X1200000Y30620000D02*
X1200000Y31987500D01*
X26500000Y7800000D02*
X27100000Y8400000D01*
X27800000Y21015000D02*
X28687500Y21015000D01*
X27100000Y20315000D02*
X27800000Y21015000D01*
X26500000Y7800000D02*
X5000000Y7800000D01*
X1200000Y34012500D02*
X1212500Y34000000D01*
X1200000Y35490000D02*
X1200000Y34012500D01*
G04 #@! TA.AperFunction,Conductor*
G36*
X46443039Y31980315D02*
G01*
X46488794Y31927511D01*
X46500000Y31876000D01*
X46500000Y28924000D01*
X46480315Y28856961D01*
X46427511Y28811206D01*
X46376000Y28800000D01*
X24624000Y28800000D01*
X24556961Y28819685D01*
X24511206Y28872489D01*
X24500000Y28924000D01*
X24500000Y31876000D01*
X24519685Y31943039D01*
X24572489Y31988794D01*
X24624000Y32000000D01*
X46376000Y32000000D01*
X46443039Y31980315D01*
G37*
G04 #@! TD.AperFunction*
G04 #@! TA.AperFunction,Conductor*
G36*
X42500000Y13800000D02*
G01*
X29700000Y13800000D01*
X29700000Y16400000D01*
X42500000Y16400000D01*
X42500000Y13800000D01*
G37*
G04 #@! TD.AperFunction*
G04 #@! TA.AperFunction,Conductor*
G36*
X36240314Y27180315D02*
G01*
X36286069Y27127511D01*
X36297246Y27073306D01*
X36250000Y24900000D01*
X36250000Y23774000D01*
X36230315Y23706961D01*
X36177511Y23661206D01*
X36126000Y23650000D01*
X35000000Y23650000D01*
X34992525Y23635050D01*
X34992524Y23635049D01*
X34784273Y23218546D01*
X34736686Y23167387D01*
X34673364Y23150000D01*
X33374000Y23150000D01*
X33306961Y23169685D01*
X33261206Y23222489D01*
X33250000Y23274000D01*
X33250000Y26700160D01*
X33269685Y26767199D01*
X33293058Y26794098D01*
X33325774Y26822288D01*
X33332467Y26828055D01*
X33409458Y26946839D01*
X33450016Y27082456D01*
X33450500Y27088969D01*
X33450500Y27089079D01*
X33451732Y27095758D01*
X33454036Y27095333D01*
X33474815Y27150582D01*
X33530863Y27192300D01*
X33573878Y27200000D01*
X36173275Y27200000D01*
X36240314Y27180315D01*
G37*
G04 #@! TD.AperFunction*
G04 #@! TA.AperFunction,Conductor*
G36*
X46000000Y23124000D02*
G01*
X45980315Y23056961D01*
X45927511Y23011206D01*
X45876000Y23000000D01*
X41124000Y23000000D01*
X41056961Y23019685D01*
X41011206Y23072489D01*
X41000000Y23124000D01*
X41000000Y32000000D01*
X46000000Y32000000D01*
X46000000Y23124000D01*
G37*
G04 #@! TD.AperFunction*
G04 #@! TA.AperFunction,Conductor*
G36*
X33500000Y35400000D02*
G01*
X23100000Y35400000D01*
X23100000Y38000000D01*
X33500000Y38000000D01*
X33500000Y35400000D01*
G37*
G04 #@! TD.AperFunction*
G04 #@! TA.AperFunction,Conductor*
G36*
X46000000Y13800000D02*
G01*
X41000000Y13800000D01*
X41000000Y21000000D01*
X46000000Y21000000D01*
X46000000Y13800000D01*
G37*
G04 #@! TD.AperFunction*
G04 #@! TA.AperFunction,Conductor*
G36*
X23500000Y25800000D02*
G01*
X18700000Y25800000D01*
X18700000Y38000000D01*
X23500000Y38000000D01*
X23500000Y25800000D01*
G37*
G04 #@! TD.AperFunction*
G04 #@! TA.AperFunction,Conductor*
G36*
X33500000Y32800000D02*
G01*
X28900000Y32800000D01*
X28900000Y35800000D01*
X33500000Y35800000D01*
X33500000Y32800000D01*
G37*
G04 #@! TD.AperFunction*
G04 #@! TA.AperFunction,Conductor*
G36*
X26300000Y23400000D02*
G01*
X18700000Y23400000D01*
X18700000Y26000000D01*
X26300000Y26000000D01*
X26300000Y23400000D01*
G37*
G04 #@! TD.AperFunction*
G04 #@! TA.AperFunction,Conductor*
G36*
X26300000Y16800000D02*
G01*
X18700000Y16800000D01*
X18700000Y19400000D01*
X26300000Y19400000D01*
X26300000Y16800000D01*
G37*
G04 #@! TD.AperFunction*
G04 #@! TA.AperFunction,Conductor*
G36*
X23500000Y26800000D02*
G01*
X4000000Y26800000D01*
X4000000Y30400000D01*
X23500000Y30500000D01*
X23500000Y26800000D01*
G37*
G04 #@! TD.AperFunction*
G04 #@! TA.AperFunction,Conductor*
G36*
X29175500Y22730038D02*
G01*
X29230038Y22675500D01*
X29250000Y22601000D01*
X29250000Y22049000D01*
X29230038Y21974500D01*
X29175500Y21919962D01*
X29101000Y21900000D01*
X28200000Y21900000D01*
X27949971Y21649971D01*
X27883176Y21611407D01*
X27866763Y21607986D01*
X27827077Y21602020D01*
X27827074Y21602019D01*
X27816065Y21600364D01*
X27755018Y21571050D01*
X27704008Y21546555D01*
X27704007Y21546554D01*
X27693971Y21541735D01*
X27594514Y21449798D01*
X27526487Y21332681D01*
X27523973Y21321836D01*
X27523970Y21321828D01*
X27517966Y21295924D01*
X27478174Y21224211D01*
X27216829Y20962866D01*
X27150034Y20924302D01*
X27111470Y20919225D01*
X27109684Y20919225D01*
X27100000Y20920500D01*
X27090315Y20919225D01*
X26952968Y20901143D01*
X26952967Y20901143D01*
X26943285Y20899868D01*
X26797250Y20839378D01*
X26671847Y20743153D01*
X26575622Y20617750D01*
X26515132Y20471715D01*
X26494500Y20315000D01*
X26495775Y20305315D01*
X26495775Y20299000D01*
X26475813Y20224500D01*
X26421275Y20169962D01*
X26346775Y20150000D01*
X17599000Y20150000D01*
X17524500Y20169962D01*
X17469962Y20224500D01*
X17450000Y20299000D01*
X17450000Y22601000D01*
X17469962Y22675500D01*
X17524500Y22730038D01*
X17599000Y22750000D01*
X29101000Y22750000D01*
X29175500Y22730038D01*
G37*
G04 #@! TD.AperFunction*
G04 #@! TA.AperFunction,Conductor*
G36*
X2684590Y43680038D02*
G01*
X2739128Y43625500D01*
X2759090Y43551000D01*
X2739128Y43476500D01*
X2684590Y43421962D01*
X2664940Y43412463D01*
X2411921Y43312286D01*
X2130695Y43157680D01*
X2126916Y43154935D01*
X2126909Y43154930D01*
X1874848Y42971797D01*
X1871063Y42969047D01*
X1637121Y42749360D01*
X1634133Y42745749D01*
X1634130Y42745745D01*
X1435542Y42505694D01*
X1435537Y42505688D01*
X1432557Y42502085D01*
X1430054Y42498141D01*
X1430049Y42498134D01*
X1280560Y42262576D01*
X1260598Y42231122D01*
X1123956Y41940742D01*
X1024786Y41635527D01*
X964651Y41320289D01*
X944500Y41000000D01*
X964651Y40679711D01*
X1024786Y40364473D01*
X1123956Y40059258D01*
X1260598Y39768878D01*
X1263108Y39764923D01*
X1430049Y39501866D01*
X1430054Y39501859D01*
X1432557Y39497915D01*
X1435537Y39494312D01*
X1435542Y39494306D01*
X1634130Y39254255D01*
X1637121Y39250640D01*
X1871063Y39030953D01*
X1874848Y39028203D01*
X2126909Y38845070D01*
X2126916Y38845065D01*
X2130695Y38842320D01*
X2411921Y38687714D01*
X2710307Y38569575D01*
X2714834Y38568413D01*
X2714836Y38568412D01*
X2800921Y38546309D01*
X3021147Y38489765D01*
X3025783Y38489179D01*
X3025790Y38489178D01*
X3334892Y38450130D01*
X3339539Y38449543D01*
X3660461Y38449543D01*
X3665108Y38450130D01*
X3974210Y38489178D01*
X3974217Y38489179D01*
X3978853Y38489765D01*
X4199079Y38546309D01*
X4285164Y38568412D01*
X4285166Y38568413D01*
X4289693Y38569575D01*
X4588079Y38687714D01*
X4869305Y38842320D01*
X4873084Y38845065D01*
X4873091Y38845070D01*
X5125152Y39028203D01*
X5128937Y39030953D01*
X5362879Y39250640D01*
X5365870Y39254255D01*
X5564458Y39494306D01*
X5564463Y39494312D01*
X5567443Y39497915D01*
X5569946Y39501859D01*
X5569951Y39501866D01*
X5736892Y39764923D01*
X5739402Y39768878D01*
X5876044Y40059258D01*
X5975214Y40364473D01*
X6035349Y40679711D01*
X6055500Y41000000D01*
X6035349Y41320289D01*
X5975214Y41635527D01*
X5876044Y41940742D01*
X5739402Y42231122D01*
X5719440Y42262576D01*
X5569951Y42498134D01*
X5569946Y42498141D01*
X5567443Y42502085D01*
X5564463Y42505688D01*
X5564458Y42505694D01*
X5365870Y42745745D01*
X5365867Y42745749D01*
X5362879Y42749360D01*
X5128937Y42969047D01*
X5125152Y42971797D01*
X4873091Y43154930D01*
X4873084Y43154935D01*
X4869305Y43157680D01*
X4588079Y43312286D01*
X4335060Y43412463D01*
X4273140Y43458449D01*
X4242508Y43529233D01*
X4251373Y43605850D01*
X4297359Y43667770D01*
X4368143Y43698402D01*
X4389910Y43700000D01*
X45610090Y43700000D01*
X45684590Y43680038D01*
X45739128Y43625500D01*
X45759090Y43551000D01*
X45739128Y43476500D01*
X45684590Y43421962D01*
X45664940Y43412463D01*
X45411921Y43312286D01*
X45130695Y43157680D01*
X45126916Y43154935D01*
X45126909Y43154930D01*
X44874848Y42971797D01*
X44871063Y42969047D01*
X44637121Y42749360D01*
X44634133Y42745749D01*
X44634130Y42745745D01*
X44435542Y42505694D01*
X44435537Y42505688D01*
X44432557Y42502085D01*
X44430054Y42498141D01*
X44430049Y42498134D01*
X44280560Y42262576D01*
X44260598Y42231122D01*
X44123956Y41940742D01*
X44024786Y41635527D01*
X43964651Y41320289D01*
X43944500Y41000000D01*
X43964651Y40679711D01*
X44024786Y40364473D01*
X44123956Y40059258D01*
X44260598Y39768878D01*
X44263108Y39764923D01*
X44430049Y39501866D01*
X44430054Y39501859D01*
X44432557Y39497915D01*
X44435537Y39494312D01*
X44435542Y39494306D01*
X44634130Y39254255D01*
X44637121Y39250640D01*
X44871063Y39030953D01*
X44874848Y39028203D01*
X45126909Y38845070D01*
X45126916Y38845065D01*
X45130695Y38842320D01*
X45411921Y38687714D01*
X45710307Y38569575D01*
X45714834Y38568413D01*
X45714836Y38568412D01*
X45800921Y38546309D01*
X46021147Y38489765D01*
X46025783Y38489179D01*
X46025790Y38489178D01*
X46334892Y38450130D01*
X46339539Y38449543D01*
X46660461Y38449543D01*
X46665108Y38450130D01*
X46974210Y38489178D01*
X46974217Y38489179D01*
X46978853Y38489765D01*
X47199079Y38546309D01*
X47285164Y38568412D01*
X47285166Y38568413D01*
X47289693Y38569575D01*
X47588079Y38687714D01*
X47869305Y38842320D01*
X47873084Y38845065D01*
X47873091Y38845070D01*
X48125152Y39028203D01*
X48128937Y39030953D01*
X48362879Y39250640D01*
X48365870Y39254255D01*
X48564458Y39494306D01*
X48564463Y39494312D01*
X48567443Y39497915D01*
X48569946Y39501859D01*
X48569951Y39501866D01*
X48736892Y39764923D01*
X48739402Y39768878D01*
X48876044Y40059258D01*
X48975214Y40364473D01*
X49035349Y40679711D01*
X49055500Y41000000D01*
X49035349Y41320289D01*
X48975214Y41635527D01*
X48876044Y41940742D01*
X48739402Y42231122D01*
X48719440Y42262576D01*
X48569951Y42498134D01*
X48569946Y42498141D01*
X48567443Y42502085D01*
X48564463Y42505688D01*
X48564458Y42505694D01*
X48365870Y42745745D01*
X48365867Y42745749D01*
X48362879Y42749360D01*
X48128937Y42969047D01*
X48125152Y42971797D01*
X47873091Y43154930D01*
X47873084Y43154935D01*
X47869305Y43157680D01*
X47588079Y43312286D01*
X47335060Y43412463D01*
X47273140Y43458449D01*
X47242508Y43529233D01*
X47251373Y43605850D01*
X47297359Y43667770D01*
X47368143Y43698402D01*
X47389910Y43700000D01*
X50551000Y43700000D01*
X50625500Y43680038D01*
X50680038Y43625500D01*
X50700000Y43551000D01*
X50700000Y28604598D01*
X50680038Y28530098D01*
X50625500Y28475560D01*
X50551000Y28455598D01*
X47108000Y28455598D01*
X47106294Y28455519D01*
X47106288Y28455519D01*
X47088450Y28454694D01*
X47079812Y28454295D01*
X47071526Y28451937D01*
X47071524Y28451937D01*
X47036743Y28442041D01*
X46971827Y28423570D01*
X46882233Y28355912D01*
X46823130Y28260457D01*
X46802500Y28150098D01*
X46802500Y26549898D01*
X46803803Y26521710D01*
X46834528Y26413725D01*
X46902186Y26324131D01*
X46913926Y26316862D01*
X46913927Y26316861D01*
X46985899Y26272298D01*
X46985900Y26272297D01*
X46997641Y26265028D01*
X47108000Y26244398D01*
X50551000Y26244398D01*
X50625500Y26224436D01*
X50680038Y26169898D01*
X50700000Y26095398D01*
X50700000Y17904599D01*
X50680038Y17830099D01*
X50625500Y17775561D01*
X50551000Y17755599D01*
X47108000Y17755599D01*
X47106294Y17755520D01*
X47106288Y17755520D01*
X47088450Y17754695D01*
X47079812Y17754296D01*
X47071526Y17751938D01*
X47071524Y17751938D01*
X47044557Y17744265D01*
X46971827Y17723571D01*
X46882233Y17655913D01*
X46874964Y17644173D01*
X46874963Y17644172D01*
X46835432Y17580326D01*
X46823130Y17560458D01*
X46802500Y17450099D01*
X46802500Y15849899D01*
X46803803Y15821711D01*
X46834528Y15713726D01*
X46902186Y15624132D01*
X46913926Y15616863D01*
X46913927Y15616862D01*
X46985899Y15572299D01*
X46985900Y15572298D01*
X46997641Y15565029D01*
X47108000Y15544399D01*
X50551000Y15544399D01*
X50625500Y15524437D01*
X50680038Y15469899D01*
X50700000Y15395399D01*
X50700000Y449000D01*
X50680038Y374500D01*
X50625500Y319962D01*
X50551000Y300000D01*
X47389910Y300000D01*
X47315410Y319962D01*
X47260872Y374500D01*
X47240910Y449000D01*
X47260872Y523500D01*
X47315410Y578038D01*
X47335060Y587537D01*
X47583730Y685992D01*
X47583732Y685993D01*
X47588079Y687714D01*
X47869305Y842320D01*
X47873084Y845065D01*
X47873091Y845070D01*
X48125152Y1028203D01*
X48128937Y1030953D01*
X48362879Y1250640D01*
X48365870Y1254255D01*
X48564458Y1494306D01*
X48564463Y1494312D01*
X48567443Y1497915D01*
X48569946Y1501859D01*
X48569951Y1501866D01*
X48736892Y1764923D01*
X48739402Y1768878D01*
X48876044Y2059258D01*
X48975214Y2364473D01*
X49035349Y2679711D01*
X49055500Y3000000D01*
X49035349Y3320289D01*
X48975214Y3635527D01*
X48876044Y3940742D01*
X48739402Y4231122D01*
X48719440Y4262576D01*
X48569951Y4498134D01*
X48569946Y4498141D01*
X48567443Y4502085D01*
X48564463Y4505688D01*
X48564458Y4505694D01*
X48365870Y4745745D01*
X48365867Y4745749D01*
X48362879Y4749360D01*
X48128937Y4969047D01*
X48125152Y4971797D01*
X47873091Y5154930D01*
X47873084Y5154935D01*
X47869305Y5157680D01*
X47588079Y5312286D01*
X47289693Y5430425D01*
X47285166Y5431587D01*
X47285164Y5431588D01*
X47199079Y5453691D01*
X46978853Y5510235D01*
X46974217Y5510821D01*
X46974210Y5510822D01*
X46665108Y5549870D01*
X46665107Y5549870D01*
X46660461Y5550457D01*
X46339539Y5550457D01*
X46334893Y5549870D01*
X46334892Y5549870D01*
X46025790Y5510822D01*
X46025783Y5510821D01*
X46021147Y5510235D01*
X45800921Y5453691D01*
X45714836Y5431588D01*
X45714834Y5431587D01*
X45710307Y5430425D01*
X45411921Y5312286D01*
X45130695Y5157680D01*
X45126916Y5154935D01*
X45126909Y5154930D01*
X44874848Y4971797D01*
X44871063Y4969047D01*
X44637121Y4749360D01*
X44634133Y4745749D01*
X44634130Y4745745D01*
X44435542Y4505694D01*
X44435537Y4505688D01*
X44432557Y4502085D01*
X44430054Y4498141D01*
X44430049Y4498134D01*
X44280560Y4262576D01*
X44260598Y4231122D01*
X44123956Y3940742D01*
X44024786Y3635527D01*
X43964651Y3320289D01*
X43944500Y3000000D01*
X43964651Y2679711D01*
X44024786Y2364473D01*
X44123956Y2059258D01*
X44260598Y1768878D01*
X44263108Y1764923D01*
X44430049Y1501866D01*
X44430054Y1501859D01*
X44432557Y1497915D01*
X44435537Y1494312D01*
X44435542Y1494306D01*
X44634130Y1254255D01*
X44637121Y1250640D01*
X44871063Y1030953D01*
X44874848Y1028203D01*
X45126909Y845070D01*
X45126916Y845065D01*
X45130695Y842320D01*
X45411921Y687714D01*
X45416268Y685993D01*
X45416270Y685992D01*
X45664940Y587537D01*
X45726860Y541551D01*
X45757492Y470767D01*
X45748627Y394150D01*
X45702641Y332230D01*
X45631857Y301598D01*
X45610090Y300000D01*
X4389910Y300000D01*
X4315410Y319962D01*
X4260872Y374500D01*
X4240910Y449000D01*
X4260872Y523500D01*
X4315410Y578038D01*
X4335060Y587537D01*
X4583730Y685992D01*
X4583732Y685993D01*
X4588079Y687714D01*
X4869305Y842320D01*
X4873084Y845065D01*
X4873091Y845070D01*
X5125152Y1028203D01*
X5128937Y1030953D01*
X5362879Y1250640D01*
X5365870Y1254255D01*
X5564458Y1494306D01*
X5564463Y1494312D01*
X5567443Y1497915D01*
X5569946Y1501859D01*
X5569951Y1501866D01*
X5736892Y1764923D01*
X5739402Y1768878D01*
X5876044Y2059258D01*
X5975214Y2364473D01*
X6035349Y2679711D01*
X6055500Y3000000D01*
X6035349Y3320289D01*
X5975214Y3635527D01*
X5876044Y3940742D01*
X5739402Y4231122D01*
X5719440Y4262576D01*
X5569951Y4498134D01*
X5569946Y4498141D01*
X5567443Y4502085D01*
X5564463Y4505688D01*
X5564458Y4505694D01*
X5365870Y4745745D01*
X5365867Y4745749D01*
X5362879Y4749360D01*
X5128937Y4969047D01*
X5125152Y4971797D01*
X4873091Y5154930D01*
X4873084Y5154935D01*
X4869305Y5157680D01*
X4588079Y5312286D01*
X4289693Y5430425D01*
X4285166Y5431587D01*
X4285164Y5431588D01*
X4199079Y5453691D01*
X3978853Y5510235D01*
X3974217Y5510821D01*
X3974210Y5510822D01*
X3665108Y5549870D01*
X3665107Y5549870D01*
X3660461Y5550457D01*
X3339539Y5550457D01*
X3334893Y5549870D01*
X3334892Y5549870D01*
X3025790Y5510822D01*
X3025783Y5510821D01*
X3021147Y5510235D01*
X2800921Y5453691D01*
X2714836Y5431588D01*
X2714834Y5431587D01*
X2710307Y5430425D01*
X2411921Y5312286D01*
X2130695Y5157680D01*
X2126916Y5154935D01*
X2126909Y5154930D01*
X1874848Y4971797D01*
X1871063Y4969047D01*
X1637121Y4749360D01*
X1634133Y4745749D01*
X1634130Y4745745D01*
X1435542Y4505694D01*
X1435537Y4505688D01*
X1432557Y4502085D01*
X1430054Y4498141D01*
X1430049Y4498134D01*
X1280560Y4262576D01*
X1260598Y4231122D01*
X1123956Y3940742D01*
X1024786Y3635527D01*
X964651Y3320289D01*
X944500Y3000000D01*
X964651Y2679711D01*
X1024786Y2364473D01*
X1123956Y2059258D01*
X1260598Y1768878D01*
X1263108Y1764923D01*
X1430049Y1501866D01*
X1430054Y1501859D01*
X1432557Y1497915D01*
X1435537Y1494312D01*
X1435542Y1494306D01*
X1634130Y1254255D01*
X1637121Y1250640D01*
X1871063Y1030953D01*
X1874848Y1028203D01*
X2126909Y845070D01*
X2126916Y845065D01*
X2130695Y842320D01*
X2411921Y687714D01*
X2416268Y685993D01*
X2416270Y685992D01*
X2664940Y587537D01*
X2726860Y541551D01*
X2757492Y470767D01*
X2748627Y394150D01*
X2702641Y332230D01*
X2631857Y301598D01*
X2610090Y300000D01*
X449000Y300000D01*
X374500Y319962D01*
X319962Y374500D01*
X300000Y449000D01*
X300000Y8600000D01*
X4194500Y8600000D01*
X4194500Y7000000D01*
X4195803Y6971812D01*
X4226528Y6863827D01*
X4294186Y6774233D01*
X4305926Y6766964D01*
X4305927Y6766963D01*
X4377899Y6722400D01*
X4377900Y6722399D01*
X4389641Y6715130D01*
X4500000Y6694500D01*
X5500000Y6694500D01*
X5501706Y6694579D01*
X5501712Y6694579D01*
X5519578Y6695405D01*
X5528188Y6695803D01*
X5536474Y6698161D01*
X5536476Y6698161D01*
X5571257Y6708057D01*
X5636173Y6726528D01*
X5725767Y6794186D01*
X5784870Y6889641D01*
X5805500Y7000000D01*
X5805500Y7275500D01*
X5825462Y7350000D01*
X5880000Y7404538D01*
X5954500Y7424500D01*
X26444956Y7424500D01*
X26458496Y7423059D01*
X26470032Y7422515D01*
X26482076Y7419922D01*
X26494310Y7421370D01*
X26512027Y7423467D01*
X26517781Y7423806D01*
X26517765Y7423994D01*
X26523885Y7424500D01*
X26530039Y7424500D01*
X26549458Y7427732D01*
X26556370Y7428715D01*
X26568624Y7430166D01*
X26593926Y7433160D01*
X26593928Y7433161D01*
X26606157Y7434608D01*
X26614322Y7438529D01*
X26623251Y7440015D01*
X26667361Y7463815D01*
X26673604Y7466996D01*
X26718789Y7488694D01*
X26724698Y7493661D01*
X26726973Y7495936D01*
X26727090Y7496043D01*
X26733211Y7499346D01*
X26765794Y7534594D01*
X26769849Y7538812D01*
X26983171Y7752134D01*
X27049966Y7790698D01*
X27088530Y7795775D01*
X27090316Y7795775D01*
X27100000Y7794500D01*
X27109685Y7795775D01*
X27247032Y7813857D01*
X27247033Y7813857D01*
X27256715Y7815132D01*
X27402750Y7875622D01*
X27528153Y7971847D01*
X27624378Y8097250D01*
X27684868Y8243285D01*
X27705500Y8400000D01*
X27684868Y8556715D01*
X27624378Y8702750D01*
X27528153Y8828153D01*
X27402750Y8924378D01*
X27256715Y8984868D01*
X27247033Y8986143D01*
X27247032Y8986143D01*
X27109685Y9004225D01*
X27100000Y9005500D01*
X27090315Y9004225D01*
X26952968Y8986143D01*
X26952967Y8986143D01*
X26943285Y8984868D01*
X26797250Y8924378D01*
X26671847Y8828153D01*
X26575622Y8702750D01*
X26515132Y8556715D01*
X26494500Y8400000D01*
X26495775Y8390316D01*
X26495775Y8388530D01*
X26475813Y8314030D01*
X26452134Y8283171D01*
X26388104Y8219141D01*
X26321309Y8180577D01*
X26282745Y8175500D01*
X5954500Y8175500D01*
X5880000Y8195462D01*
X5825462Y8250000D01*
X5805500Y8324500D01*
X5805500Y8600000D01*
X5804197Y8628188D01*
X5773472Y8736173D01*
X5705814Y8825767D01*
X5694073Y8833037D01*
X5622101Y8877600D01*
X5622100Y8877601D01*
X5610359Y8884870D01*
X5500000Y8905500D01*
X4500000Y8905500D01*
X4498294Y8905421D01*
X4498288Y8905421D01*
X4480450Y8904596D01*
X4471812Y8904197D01*
X4463526Y8901839D01*
X4463524Y8901839D01*
X4428743Y8891943D01*
X4363827Y8873472D01*
X4352810Y8865153D01*
X4352809Y8865152D01*
X4310282Y8833037D01*
X4274233Y8805814D01*
X4215130Y8710359D01*
X4194500Y8600000D01*
X300000Y8600000D01*
X300000Y11000000D01*
X6694500Y11000000D01*
X6694500Y9400000D01*
X6695803Y9371812D01*
X6726528Y9263827D01*
X6794186Y9174233D01*
X6805926Y9166964D01*
X6805927Y9166963D01*
X6877899Y9122400D01*
X6877900Y9122399D01*
X6889641Y9115130D01*
X7000000Y9094500D01*
X8000000Y9094500D01*
X8001706Y9094579D01*
X8001712Y9094579D01*
X8019578Y9095405D01*
X8028188Y9095803D01*
X8036474Y9098161D01*
X8036476Y9098161D01*
X8071257Y9108057D01*
X8136173Y9126528D01*
X8225767Y9194186D01*
X8284870Y9289641D01*
X8305500Y9400000D01*
X8305500Y9675500D01*
X8325462Y9750000D01*
X8380000Y9804538D01*
X8454500Y9824500D01*
X15344956Y9824500D01*
X15358496Y9823059D01*
X15370032Y9822515D01*
X15382076Y9819922D01*
X15394310Y9821370D01*
X15412027Y9823467D01*
X15417781Y9823806D01*
X15417765Y9823994D01*
X15423885Y9824500D01*
X15430039Y9824500D01*
X15449458Y9827732D01*
X15456370Y9828715D01*
X15468624Y9830166D01*
X15493926Y9833160D01*
X15493928Y9833161D01*
X15506157Y9834608D01*
X15514322Y9838529D01*
X15523251Y9840015D01*
X15567361Y9863815D01*
X15573604Y9866996D01*
X15618789Y9888694D01*
X15624698Y9893661D01*
X15626973Y9895936D01*
X15627090Y9896043D01*
X15633211Y9899346D01*
X15665794Y9934594D01*
X15669849Y9938812D01*
X15883171Y10152134D01*
X15949966Y10190698D01*
X15988530Y10195775D01*
X15990316Y10195775D01*
X16000000Y10194500D01*
X16009685Y10195775D01*
X16147032Y10213857D01*
X16147033Y10213857D01*
X16156715Y10215132D01*
X16302750Y10275622D01*
X16428153Y10371847D01*
X16524378Y10497250D01*
X16584868Y10643285D01*
X16605500Y10800000D01*
X16584868Y10956715D01*
X16524378Y11102750D01*
X16428153Y11228153D01*
X16302750Y11324378D01*
X16156715Y11384868D01*
X16147033Y11386143D01*
X16147032Y11386143D01*
X16009685Y11404225D01*
X16000000Y11405500D01*
X15990315Y11404225D01*
X15852968Y11386143D01*
X15852967Y11386143D01*
X15843285Y11384868D01*
X15697250Y11324378D01*
X15571847Y11228153D01*
X15475622Y11102750D01*
X15415132Y10956715D01*
X15394500Y10800000D01*
X15395775Y10790316D01*
X15395775Y10788530D01*
X15375813Y10714030D01*
X15352134Y10683171D01*
X15288104Y10619141D01*
X15221309Y10580577D01*
X15182745Y10575500D01*
X8454500Y10575500D01*
X8380000Y10595462D01*
X8325462Y10650000D01*
X8305500Y10724500D01*
X8305500Y11000000D01*
X8304197Y11028188D01*
X8273472Y11136173D01*
X8205814Y11225767D01*
X8194073Y11233037D01*
X8122101Y11277600D01*
X8122100Y11277601D01*
X8110359Y11284870D01*
X8000000Y11305500D01*
X7000000Y11305500D01*
X6998294Y11305421D01*
X6998288Y11305421D01*
X6980450Y11304596D01*
X6971812Y11304197D01*
X6963526Y11301839D01*
X6963524Y11301839D01*
X6928743Y11291943D01*
X6863827Y11273472D01*
X6852810Y11265153D01*
X6852809Y11265152D01*
X6810282Y11233037D01*
X6774233Y11205814D01*
X6715130Y11110359D01*
X6694500Y11000000D01*
X300000Y11000000D01*
X300000Y22000000D01*
X1944500Y22000000D01*
X1945067Y21993519D01*
X1959218Y21831771D01*
X1964333Y21773302D01*
X1966015Y21767026D01*
X1966015Y21767024D01*
X2007130Y21613582D01*
X2023231Y21553493D01*
X2119404Y21347250D01*
X2123135Y21341922D01*
X2123137Y21341918D01*
X2158879Y21290874D01*
X2249929Y21160841D01*
X2410841Y20999929D01*
X2416167Y20996200D01*
X2591918Y20873137D01*
X2591922Y20873135D01*
X2597250Y20869404D01*
X2803493Y20773231D01*
X2809774Y20771548D01*
X3017024Y20716015D01*
X3017026Y20716015D01*
X3023302Y20714333D01*
X3029773Y20713767D01*
X3029778Y20713766D01*
X3243519Y20695067D01*
X3250000Y20694500D01*
X3256481Y20695067D01*
X3470222Y20713766D01*
X3470227Y20713767D01*
X3476698Y20714333D01*
X3482974Y20716015D01*
X3482976Y20716015D01*
X3690226Y20771548D01*
X3696507Y20773231D01*
X3902750Y20869404D01*
X3908078Y20873135D01*
X3908082Y20873137D01*
X4083833Y20996200D01*
X4089159Y20999929D01*
X4250071Y21160841D01*
X4341121Y21290874D01*
X4376863Y21341918D01*
X4376865Y21341922D01*
X4380596Y21347250D01*
X4476769Y21553493D01*
X4492870Y21613582D01*
X4533985Y21767024D01*
X4533985Y21767026D01*
X4535667Y21773302D01*
X4540783Y21831771D01*
X4554933Y21993519D01*
X4555500Y22000000D01*
X4545257Y22117086D01*
X4536234Y22220222D01*
X4536233Y22220227D01*
X4535667Y22226698D01*
X4528102Y22254933D01*
X4478452Y22440226D01*
X4476769Y22446507D01*
X4380596Y22652750D01*
X4376865Y22658078D01*
X4376863Y22658082D01*
X4290791Y22781005D01*
X4250071Y22839159D01*
X4089159Y23000071D01*
X3996879Y23064686D01*
X3908082Y23126863D01*
X3908078Y23126865D01*
X3902750Y23130596D01*
X3696507Y23226769D01*
X3608398Y23250378D01*
X3482976Y23283985D01*
X3482974Y23283985D01*
X3476698Y23285667D01*
X3470227Y23286233D01*
X3470222Y23286234D01*
X3256481Y23304933D01*
X3250000Y23305500D01*
X3243519Y23304933D01*
X3029778Y23286234D01*
X3029773Y23286233D01*
X3023302Y23285667D01*
X3017026Y23283985D01*
X3017024Y23283985D01*
X2891602Y23250378D01*
X2803493Y23226769D01*
X2597250Y23130596D01*
X2591922Y23126865D01*
X2591918Y23126863D01*
X2503121Y23064686D01*
X2410841Y23000071D01*
X2249929Y22839159D01*
X2209209Y22781005D01*
X2123137Y22658082D01*
X2123135Y22658078D01*
X2119404Y22652750D01*
X2023231Y22446507D01*
X2021548Y22440226D01*
X1971899Y22254933D01*
X1964333Y22226698D01*
X1963767Y22220227D01*
X1963766Y22220222D01*
X1954743Y22117086D01*
X1944500Y22000000D01*
X300000Y22000000D01*
X300000Y30325616D01*
X319962Y30400116D01*
X374500Y30454654D01*
X449000Y30474616D01*
X523500Y30454654D01*
X578038Y30400116D01*
X591414Y30369427D01*
X592316Y30366494D01*
X593973Y30355475D01*
X650671Y30237402D01*
X739581Y30141220D01*
X852841Y30075433D01*
X863691Y30072918D01*
X863694Y30072917D01*
X925626Y30058563D01*
X964726Y30049500D01*
X1418258Y30049500D01*
X1423750Y30050326D01*
X1423754Y30050326D01*
X1503513Y30062317D01*
X1503516Y30062318D01*
X1514525Y30063973D01*
X1573562Y30092322D01*
X1622561Y30115851D01*
X1622562Y30115852D01*
X1632598Y30120671D01*
X1728780Y30209581D01*
X1794567Y30322841D01*
X1799804Y30345432D01*
X1812451Y30400000D01*
X4000000Y30400000D01*
X4000000Y26800000D01*
X18700000Y26800000D01*
X18700000Y23400000D01*
X26300000Y23400000D01*
X26300000Y25800000D01*
X29700000Y25800000D01*
X29700000Y24066177D01*
X29592681Y24128513D01*
X29476252Y24155500D01*
X29443213Y24155500D01*
X29368713Y24175462D01*
X29314175Y24230000D01*
X29294213Y24304500D01*
X29295488Y24323948D01*
X29304225Y24390315D01*
X29305500Y24400000D01*
X29284868Y24556715D01*
X29273207Y24584868D01*
X29228116Y24693726D01*
X29228116Y24693727D01*
X29224378Y24702750D01*
X29128153Y24828153D01*
X29002750Y24924378D01*
X28921363Y24958090D01*
X28865737Y24981131D01*
X28856715Y24984868D01*
X28847033Y24986143D01*
X28847032Y24986143D01*
X28709685Y25004225D01*
X28700000Y25005500D01*
X28690315Y25004225D01*
X28552968Y24986143D01*
X28552967Y24986143D01*
X28543285Y24984868D01*
X28534263Y24981131D01*
X28478638Y24958090D01*
X28397250Y24924378D01*
X28271847Y24828153D01*
X28175622Y24702750D01*
X28171884Y24693727D01*
X28171884Y24693726D01*
X28126793Y24584868D01*
X28115132Y24556715D01*
X28094500Y24400000D01*
X28095775Y24390315D01*
X28104512Y24323948D01*
X28094445Y24247479D01*
X28047492Y24186290D01*
X27976235Y24156775D01*
X27956787Y24155500D01*
X27916742Y24155500D01*
X27911250Y24154674D01*
X27911246Y24154674D01*
X27827077Y24142020D01*
X27827074Y24142019D01*
X27816065Y24140364D01*
X27779736Y24122919D01*
X27704008Y24086555D01*
X27704007Y24086554D01*
X27693971Y24081735D01*
X27670984Y24060486D01*
X27616028Y24009685D01*
X27594514Y23989798D01*
X27526487Y23872681D01*
X27499500Y23756252D01*
X27499500Y23371742D01*
X27500326Y23366250D01*
X27500326Y23366246D01*
X27512694Y23283985D01*
X27514636Y23271065D01*
X27519455Y23261029D01*
X27522732Y23250378D01*
X27520845Y23249797D01*
X27532524Y23187705D01*
X27506972Y23114932D01*
X27448456Y23064686D01*
X27383953Y23050000D01*
X18605804Y23050000D01*
X18531304Y23069962D01*
X18476804Y23124462D01*
X18473472Y23136173D01*
X18405814Y23225767D01*
X18369637Y23248167D01*
X18322101Y23277600D01*
X18322100Y23277601D01*
X18310359Y23284870D01*
X18200000Y23305500D01*
X16524500Y23305500D01*
X16450000Y23325462D01*
X16395462Y23380000D01*
X16375500Y23454500D01*
X16375500Y23459279D01*
X16395462Y23533779D01*
X16419141Y23564638D01*
X16420404Y23565901D01*
X16428153Y23571847D01*
X16524378Y23697250D01*
X16539847Y23734594D01*
X16581131Y23834263D01*
X16584868Y23843285D01*
X16598950Y23950244D01*
X16604225Y23990315D01*
X16605500Y24000000D01*
X16604225Y24009685D01*
X16586143Y24147032D01*
X16586143Y24147033D01*
X16584868Y24156715D01*
X16524378Y24302750D01*
X16428153Y24428153D01*
X16302750Y24524378D01*
X16247731Y24547168D01*
X16165737Y24581131D01*
X16156715Y24584868D01*
X16147033Y24586143D01*
X16147032Y24586143D01*
X16009685Y24604225D01*
X16000000Y24605500D01*
X15990315Y24604225D01*
X15852968Y24586143D01*
X15852967Y24586143D01*
X15843285Y24584868D01*
X15834263Y24581131D01*
X15752270Y24547168D01*
X15697250Y24524378D01*
X15571847Y24428153D01*
X15475622Y24302750D01*
X15415132Y24156715D01*
X15413857Y24147033D01*
X15413857Y24147032D01*
X15395775Y24009685D01*
X15394500Y24000000D01*
X15395775Y23990315D01*
X15401051Y23950244D01*
X15415132Y23843285D01*
X15418869Y23834263D01*
X15460154Y23734594D01*
X15475622Y23697250D01*
X15571847Y23571847D01*
X15579596Y23565901D01*
X15580859Y23564638D01*
X15619423Y23497843D01*
X15624500Y23459279D01*
X15624500Y23454500D01*
X15604538Y23380000D01*
X15550000Y23325462D01*
X15475500Y23305500D01*
X13800000Y23305500D01*
X13798294Y23305421D01*
X13798288Y23305421D01*
X13780450Y23304596D01*
X13771812Y23304197D01*
X13763526Y23301839D01*
X13763524Y23301839D01*
X13728743Y23291943D01*
X13663827Y23273472D01*
X13652810Y23265153D01*
X13652809Y23265152D01*
X13610282Y23233037D01*
X13574233Y23205814D01*
X13566964Y23194074D01*
X13566963Y23194073D01*
X13523886Y23124500D01*
X13515130Y23110359D01*
X13494500Y23000000D01*
X13494500Y19700000D01*
X13495803Y19671812D01*
X13526528Y19563827D01*
X13534847Y19552810D01*
X13534848Y19552809D01*
X13541691Y19543748D01*
X13594186Y19474233D01*
X13605926Y19466964D01*
X13605927Y19466963D01*
X13677899Y19422400D01*
X13677900Y19422399D01*
X13689641Y19415130D01*
X13800000Y19394500D01*
X15475500Y19394500D01*
X15550000Y19374538D01*
X15604538Y19320000D01*
X15624500Y19245500D01*
X15624500Y19140721D01*
X15604538Y19066221D01*
X15580859Y19035362D01*
X15579596Y19034099D01*
X15571847Y19028153D01*
X15475622Y18902750D01*
X15471884Y18893727D01*
X15471884Y18893726D01*
X15451165Y18843707D01*
X15415132Y18756715D01*
X15413857Y18747033D01*
X15413857Y18747032D01*
X15406699Y18692661D01*
X15394500Y18600000D01*
X15395775Y18590315D01*
X15402723Y18537544D01*
X15415132Y18443285D01*
X15475622Y18297250D01*
X15571847Y18171847D01*
X15697250Y18075622D01*
X15843285Y18015132D01*
X15852967Y18013857D01*
X15852968Y18013857D01*
X15990315Y17995775D01*
X16000000Y17994500D01*
X16009685Y17995775D01*
X16147032Y18013857D01*
X16147033Y18013857D01*
X16156715Y18015132D01*
X16302750Y18075622D01*
X16428153Y18171847D01*
X16524378Y18297250D01*
X16584868Y18443285D01*
X16597278Y18537544D01*
X16604225Y18590315D01*
X16605500Y18600000D01*
X16593301Y18692661D01*
X16586143Y18747032D01*
X16586143Y18747033D01*
X16584868Y18756715D01*
X16548835Y18843707D01*
X16528116Y18893726D01*
X16528116Y18893727D01*
X16524378Y18902750D01*
X16428153Y19028153D01*
X16420404Y19034099D01*
X16419141Y19035362D01*
X16380577Y19102157D01*
X16375500Y19140721D01*
X16375500Y19245500D01*
X16395462Y19320000D01*
X16450000Y19374538D01*
X16524500Y19394500D01*
X18200000Y19394500D01*
X18201706Y19394579D01*
X18201712Y19394579D01*
X18219578Y19395405D01*
X18228188Y19395803D01*
X18236474Y19398161D01*
X18236476Y19398161D01*
X18271257Y19408057D01*
X18336173Y19426528D01*
X18368617Y19451028D01*
X18414748Y19485865D01*
X18425767Y19494186D01*
X18451332Y19535475D01*
X18477600Y19577899D01*
X18477601Y19577900D01*
X18484870Y19589641D01*
X18505500Y19700000D01*
X18505500Y19706884D01*
X18506136Y19713748D01*
X18508848Y19713497D01*
X18525462Y19775500D01*
X18580000Y19830038D01*
X18654500Y19850000D01*
X19282732Y19850000D01*
X19333202Y19841191D01*
X19429555Y19806502D01*
X19438483Y19805564D01*
X19438486Y19805563D01*
X19472029Y19802038D01*
X19496177Y19799500D01*
X20492751Y19799500D01*
X20566074Y19809544D01*
X20593889Y19813354D01*
X20593891Y19813355D01*
X20603954Y19814733D01*
X20657133Y19837746D01*
X20716306Y19850000D01*
X21782732Y19850000D01*
X21833202Y19841191D01*
X21929555Y19806502D01*
X21938483Y19805564D01*
X21938486Y19805563D01*
X21972029Y19802038D01*
X21996177Y19799500D01*
X22992751Y19799500D01*
X23066074Y19809544D01*
X23093889Y19813354D01*
X23093891Y19813355D01*
X23103954Y19814733D01*
X23157133Y19837746D01*
X23216306Y19850000D01*
X24282732Y19850000D01*
X24333202Y19841191D01*
X24429555Y19806502D01*
X24438483Y19805564D01*
X24438486Y19805563D01*
X24472029Y19802038D01*
X24496177Y19799500D01*
X25492751Y19799500D01*
X25566074Y19809544D01*
X25593889Y19813354D01*
X25593891Y19813355D01*
X25603954Y19814733D01*
X25657133Y19837746D01*
X25716306Y19850000D01*
X26346775Y19850000D01*
X26351610Y19850637D01*
X26351617Y19850637D01*
X26419576Y19859584D01*
X26419580Y19859585D01*
X26424420Y19860222D01*
X26498920Y19880184D01*
X26542451Y19895524D01*
X26543319Y19893061D01*
X26604175Y19905901D01*
X26677492Y19881958D01*
X26686860Y19875327D01*
X26797250Y19790622D01*
X26806273Y19786884D01*
X26806274Y19786884D01*
X26934261Y19733870D01*
X26943285Y19730132D01*
X26952967Y19728857D01*
X26952968Y19728857D01*
X27090315Y19710775D01*
X27100000Y19709500D01*
X27109685Y19710775D01*
X27247032Y19728857D01*
X27247033Y19728857D01*
X27256715Y19730132D01*
X27265738Y19733869D01*
X27265740Y19733870D01*
X27293479Y19745360D01*
X27369947Y19755428D01*
X27441204Y19725914D01*
X27488157Y19664724D01*
X27499500Y19607703D01*
X27499500Y19561742D01*
X27500326Y19556250D01*
X27500326Y19556246D01*
X27511000Y19485252D01*
X27514636Y19461065D01*
X27573265Y19338971D01*
X27665202Y19239514D01*
X27782319Y19171487D01*
X27898748Y19144500D01*
X27986813Y19144500D01*
X28061313Y19124538D01*
X28115851Y19070000D01*
X28135682Y18989261D01*
X28134465Y18960223D01*
X28144152Y18918922D01*
X28146705Y18905150D01*
X28152463Y18863115D01*
X28156497Y18853794D01*
X28156497Y18853793D01*
X28157614Y18851212D01*
X28165932Y18826060D01*
X28166339Y18824327D01*
X28168896Y18813426D01*
X28173786Y18804531D01*
X28173788Y18804526D01*
X28189329Y18776258D01*
X28195505Y18763651D01*
X28208310Y18734059D01*
X28208312Y18734056D01*
X28212345Y18724736D01*
X28220512Y18714651D01*
X28235287Y18692663D01*
X28241535Y18681297D01*
X28250092Y18671384D01*
X28273256Y18648220D01*
X28283692Y18636630D01*
X28289471Y18629494D01*
X28307234Y18607558D01*
X28315514Y18601674D01*
X28320136Y18598389D01*
X28339182Y18582294D01*
X28377570Y18543906D01*
X28416134Y18477111D01*
X28419953Y18425547D01*
X28419500Y18423591D01*
X28419500Y17994243D01*
X28434526Y17894300D01*
X28492832Y17772876D01*
X28584265Y17673965D01*
X28593893Y17668373D01*
X28593895Y17668371D01*
X28620648Y17652832D01*
X28700740Y17606311D01*
X28816409Y17579500D01*
X29195757Y17579500D01*
X29295700Y17594526D01*
X29417124Y17652832D01*
X29493649Y17723571D01*
X29507858Y17736706D01*
X29507859Y17736707D01*
X29516035Y17744265D01*
X29521862Y17754296D01*
X29565891Y17830099D01*
X29583689Y17860740D01*
X29610500Y17976409D01*
X29610500Y18405757D01*
X29595474Y18505700D01*
X29580183Y18537544D01*
X29565500Y18602041D01*
X29565500Y18673688D01*
X29565631Y18679928D01*
X29566165Y18692661D01*
X29568035Y18737277D01*
X29558348Y18778578D01*
X29555795Y18792350D01*
X29550037Y18834385D01*
X29544886Y18846288D01*
X29536568Y18871440D01*
X29535924Y18874184D01*
X29535923Y18874187D01*
X29533604Y18884074D01*
X29528714Y18892969D01*
X29528712Y18892974D01*
X29513171Y18921242D01*
X29507003Y18933830D01*
X29491929Y18968664D01*
X29480662Y19044960D01*
X29509054Y19116672D01*
X29564177Y19162153D01*
X29670992Y19213445D01*
X29670993Y19213446D01*
X29681029Y19218265D01*
X29700000Y19235802D01*
X29700000Y17400000D01*
X26300000Y17400000D01*
X26300000Y19400000D01*
X18700000Y19400000D01*
X18700000Y17400000D01*
X4000000Y17400000D01*
X4000000Y13800000D01*
X46000000Y13800000D01*
X46000000Y21000000D01*
X41000000Y21000000D01*
X41000000Y16400000D01*
X32700000Y16400000D01*
X32700000Y19337094D01*
X32790202Y19239514D01*
X32799831Y19233921D01*
X32906544Y19171937D01*
X32960938Y19117257D01*
X32980705Y19042705D01*
X32974790Y19001528D01*
X32965691Y18970209D01*
X32961145Y18956933D01*
X32945535Y18917505D01*
X32944473Y18907401D01*
X32944179Y18904604D01*
X32939079Y18878609D01*
X32935459Y18866149D01*
X32934500Y18853089D01*
X32934500Y18820326D01*
X32933684Y18804751D01*
X32930932Y18778567D01*
X32929774Y18767551D01*
X32931468Y18757538D01*
X32932413Y18751950D01*
X32934500Y18727100D01*
X32934500Y18609126D01*
X32924037Y18554275D01*
X32921906Y18548892D01*
X32916311Y18539260D01*
X32889500Y18423591D01*
X32889500Y17994243D01*
X32904526Y17894300D01*
X32962832Y17772876D01*
X33054265Y17673965D01*
X33063893Y17668373D01*
X33063895Y17668371D01*
X33090648Y17652832D01*
X33170740Y17606311D01*
X33286409Y17579500D01*
X33665757Y17579500D01*
X33765700Y17594526D01*
X33887124Y17652832D01*
X33963649Y17723571D01*
X33977858Y17736706D01*
X33977859Y17736707D01*
X33986035Y17744265D01*
X33991862Y17754296D01*
X34035891Y17830099D01*
X34053689Y17860740D01*
X34080500Y17976409D01*
X34080500Y18405757D01*
X34066033Y18501982D01*
X34074697Y18578622D01*
X34108018Y18629494D01*
X34193757Y18715233D01*
X34198262Y18719553D01*
X34233041Y18751534D01*
X34240520Y18758411D01*
X34262874Y18794465D01*
X34270812Y18806015D01*
X34296459Y18839803D01*
X34301233Y18851861D01*
X34313137Y18875528D01*
X34314621Y18877921D01*
X34314624Y18877928D01*
X34319975Y18886558D01*
X34331809Y18927289D01*
X34336355Y18940567D01*
X34343173Y18957789D01*
X34351965Y18979995D01*
X34353321Y18992896D01*
X34358421Y19018891D01*
X34362041Y19031351D01*
X34363732Y19030860D01*
X34392348Y19091673D01*
X34455682Y19135691D01*
X34506154Y19144500D01*
X34583258Y19144500D01*
X34588750Y19145326D01*
X34588754Y19145326D01*
X34672923Y19157980D01*
X34672926Y19157981D01*
X34683935Y19159636D01*
X34725962Y19179817D01*
X34790460Y19194500D01*
X34865258Y19194500D01*
X34939758Y19174538D01*
X34970617Y19150859D01*
X35002733Y19118743D01*
X35007053Y19114238D01*
X35045911Y19071980D01*
X35081965Y19049626D01*
X35093515Y19041688D01*
X35127303Y19016041D01*
X35136747Y19012302D01*
X35136749Y19012301D01*
X35139363Y19011266D01*
X35163031Y18999362D01*
X35165425Y18997878D01*
X35174058Y18992525D01*
X35183808Y18989692D01*
X35183811Y18989691D01*
X35214784Y18980693D01*
X35228067Y18976145D01*
X35258051Y18964273D01*
X35258056Y18964272D01*
X35267494Y18960535D01*
X35280398Y18959179D01*
X35306388Y18954080D01*
X35318851Y18950459D01*
X35326634Y18949888D01*
X35334323Y18948504D01*
X35333953Y18946449D01*
X35396235Y18924764D01*
X35446635Y18866380D01*
X35461090Y18790619D01*
X35451293Y18747837D01*
X35446311Y18739260D01*
X35419500Y18623591D01*
X35419500Y18194243D01*
X35434526Y18094300D01*
X35492832Y17972876D01*
X35584265Y17873965D01*
X35593893Y17868373D01*
X35593895Y17868371D01*
X35628946Y17848012D01*
X35700740Y17806311D01*
X35816409Y17779500D01*
X36195757Y17779500D01*
X36295700Y17794526D01*
X36417124Y17852832D01*
X36421086Y17856495D01*
X36490809Y17880774D01*
X36566571Y17866321D01*
X36576557Y17861016D01*
X36661106Y17811906D01*
X36661109Y17811905D01*
X36670740Y17806311D01*
X36786409Y17779500D01*
X37165757Y17779500D01*
X37265700Y17794526D01*
X37387124Y17852832D01*
X37443125Y17904599D01*
X37477858Y17936706D01*
X37477859Y17936707D01*
X37486035Y17944265D01*
X37497906Y17964701D01*
X37548095Y18051110D01*
X37553689Y18060740D01*
X37580500Y18176409D01*
X37580500Y18605757D01*
X37565474Y18705700D01*
X37550183Y18737544D01*
X37535500Y18802041D01*
X37535500Y18975500D01*
X37555462Y19050000D01*
X37610000Y19104538D01*
X37684500Y19124500D01*
X39144956Y19124500D01*
X39158496Y19123059D01*
X39170032Y19122515D01*
X39182076Y19119922D01*
X39194310Y19121370D01*
X39212027Y19123467D01*
X39217781Y19123806D01*
X39217765Y19123994D01*
X39223885Y19124500D01*
X39230039Y19124500D01*
X39249458Y19127732D01*
X39256370Y19128715D01*
X39268624Y19130166D01*
X39293926Y19133160D01*
X39293928Y19133161D01*
X39306157Y19134608D01*
X39314322Y19138529D01*
X39323251Y19140015D01*
X39349974Y19154434D01*
X39367361Y19163815D01*
X39373604Y19166996D01*
X39418789Y19188694D01*
X39424698Y19193661D01*
X39426973Y19195936D01*
X39427090Y19196043D01*
X39433211Y19199346D01*
X39465794Y19234594D01*
X39469849Y19238812D01*
X40226597Y19995560D01*
X40237192Y20004117D01*
X40245733Y20011888D01*
X40256081Y20018570D01*
X40264253Y20028935D01*
X40274752Y20042254D01*
X40278582Y20046565D01*
X40278439Y20046686D01*
X40282414Y20051377D01*
X40286759Y20055722D01*
X40290331Y20060720D01*
X40290335Y20060725D01*
X40298189Y20071716D01*
X40302404Y20077330D01*
X40325810Y20107020D01*
X40325811Y20107022D01*
X40333435Y20116693D01*
X40336435Y20125237D01*
X40341700Y20132604D01*
X40345227Y20144399D01*
X40345229Y20144402D01*
X40356062Y20180626D01*
X40358231Y20187303D01*
X40360713Y20194370D01*
X40374834Y20234581D01*
X40375500Y20242271D01*
X40375500Y20245494D01*
X40375507Y20245645D01*
X40377500Y20252311D01*
X40375615Y20300282D01*
X40375500Y20306131D01*
X40375500Y21540245D01*
X40395462Y21614745D01*
X40419141Y21645604D01*
X41007147Y22233610D01*
X41073942Y22272174D01*
X41151070Y22272174D01*
X41190944Y22254933D01*
X41235897Y22227099D01*
X41235898Y22227098D01*
X41247639Y22219829D01*
X41357998Y22199199D01*
X44863198Y22199199D01*
X44864904Y22199278D01*
X44864910Y22199278D01*
X44882776Y22200104D01*
X44891386Y22200502D01*
X44899672Y22202860D01*
X44899674Y22202860D01*
X44934455Y22212756D01*
X44999371Y22231227D01*
X45010474Y22239611D01*
X45077946Y22290564D01*
X45088965Y22298885D01*
X45101837Y22319674D01*
X45140798Y22382598D01*
X45140799Y22382599D01*
X45148068Y22394340D01*
X45168698Y22504699D01*
X45168698Y22551000D01*
X45188660Y22625500D01*
X45243198Y22680038D01*
X45317698Y22700000D01*
X45876000Y22700000D01*
X45879958Y22700426D01*
X45879967Y22700426D01*
X45907886Y22703428D01*
X45939772Y22706856D01*
X45991283Y22718062D01*
X46028801Y22728823D01*
X46094222Y22767084D01*
X46118026Y22781005D01*
X46118028Y22781007D01*
X46123969Y22784481D01*
X46130900Y22790486D01*
X46173939Y22827780D01*
X46173942Y22827783D01*
X46176773Y22830236D01*
X46218192Y22874164D01*
X46245238Y22927355D01*
X46265040Y22966298D01*
X46265042Y22966303D01*
X46268162Y22972439D01*
X46272462Y22987081D01*
X46286346Y23034366D01*
X46286346Y23034367D01*
X46287847Y23039478D01*
X46298039Y23110359D01*
X46299243Y23118732D01*
X46299243Y23118738D01*
X46300000Y23124000D01*
X46300000Y28357990D01*
X46319962Y28432490D01*
X46374500Y28487028D01*
X46431878Y28505746D01*
X46431870Y28505792D01*
X46432167Y28505840D01*
X46433073Y28506136D01*
X46439772Y28506856D01*
X46491283Y28518062D01*
X46528801Y28528823D01*
X46611140Y28576978D01*
X46618026Y28581005D01*
X46618028Y28581007D01*
X46623969Y28584481D01*
X46647186Y28604598D01*
X46673939Y28627780D01*
X46673942Y28627783D01*
X46676773Y28630236D01*
X46718192Y28674164D01*
X46723022Y28683663D01*
X46765040Y28766298D01*
X46765042Y28766303D01*
X46768162Y28772439D01*
X46778815Y28808717D01*
X46786346Y28834366D01*
X46786346Y28834367D01*
X46787847Y28839478D01*
X46800000Y28924000D01*
X46800000Y31876000D01*
X46793144Y31939772D01*
X46781938Y31991283D01*
X46771177Y32028801D01*
X46732916Y32094222D01*
X46718995Y32118026D01*
X46718993Y32118028D01*
X46715519Y32123969D01*
X46707182Y32133591D01*
X46672220Y32173939D01*
X46672217Y32173942D01*
X46669764Y32176773D01*
X46625836Y32218192D01*
X46587256Y32237809D01*
X46533702Y32265040D01*
X46533697Y32265042D01*
X46527561Y32268162D01*
X46520954Y32270102D01*
X46520949Y32270104D01*
X46465634Y32286346D01*
X46465633Y32286346D01*
X46460522Y32287847D01*
X46420720Y32293570D01*
X46381268Y32299243D01*
X46381262Y32299243D01*
X46376000Y32300000D01*
X27024500Y32300000D01*
X26950000Y32319962D01*
X26895462Y32374500D01*
X26875500Y32449000D01*
X26875500Y33544957D01*
X26876941Y33558499D01*
X26877485Y33570035D01*
X26880077Y33582076D01*
X26876533Y33612019D01*
X26876193Y33617782D01*
X26876006Y33617767D01*
X26875500Y33623889D01*
X26875500Y33630039D01*
X26872268Y33649457D01*
X26871278Y33656414D01*
X26866838Y33693927D01*
X26865391Y33706157D01*
X26861472Y33714319D01*
X26859985Y33723251D01*
X26836189Y33767352D01*
X26832999Y33773613D01*
X26815365Y33810338D01*
X26815363Y33810341D01*
X26811306Y33818790D01*
X26806339Y33824698D01*
X26804059Y33826978D01*
X26803957Y33827089D01*
X26800654Y33833211D01*
X26765406Y33865794D01*
X26761188Y33869849D01*
X26404440Y34226597D01*
X26395883Y34237192D01*
X26388112Y34245733D01*
X26381430Y34256081D01*
X26371758Y34263705D01*
X26371757Y34263707D01*
X26357746Y34274752D01*
X26353440Y34278578D01*
X26353319Y34278435D01*
X26348626Y34282411D01*
X26344278Y34286759D01*
X26328277Y34298193D01*
X26322681Y34302395D01*
X26292981Y34325809D01*
X26292979Y34325810D01*
X26283307Y34333435D01*
X26274761Y34336436D01*
X26267396Y34341699D01*
X26219390Y34356056D01*
X26212715Y34358225D01*
X26174264Y34371728D01*
X26174263Y34371728D01*
X26165419Y34374834D01*
X26157729Y34375500D01*
X26154507Y34375500D01*
X26154354Y34375507D01*
X26147689Y34377500D01*
X26099719Y34375615D01*
X26093869Y34375500D01*
X25640721Y34375500D01*
X25566221Y34395462D01*
X25535362Y34419141D01*
X25534099Y34420404D01*
X25528153Y34428153D01*
X25402750Y34524378D01*
X25375376Y34535717D01*
X25265737Y34581131D01*
X25256715Y34584868D01*
X25247033Y34586143D01*
X25247032Y34586143D01*
X25109685Y34604225D01*
X25100000Y34605500D01*
X25090315Y34604225D01*
X24952968Y34586143D01*
X24952967Y34586143D01*
X24943285Y34584868D01*
X24934263Y34581131D01*
X24824625Y34535717D01*
X24797250Y34524378D01*
X24671847Y34428153D01*
X24575622Y34302750D01*
X24571884Y34293727D01*
X24571884Y34293726D01*
X24565550Y34278435D01*
X24515132Y34156715D01*
X24494500Y34000000D01*
X24495775Y33990315D01*
X24512169Y33865794D01*
X24515132Y33843285D01*
X24518869Y33834263D01*
X24565678Y33721258D01*
X24575622Y33697250D01*
X24671847Y33571847D01*
X24679596Y33565901D01*
X24787114Y33483400D01*
X24797250Y33475622D01*
X24806273Y33471884D01*
X24806274Y33471884D01*
X24863619Y33448131D01*
X24943285Y33415132D01*
X24952967Y33413857D01*
X24952968Y33413857D01*
X25090315Y33395775D01*
X25100000Y33394500D01*
X25109685Y33395775D01*
X25247032Y33413857D01*
X25247033Y33413857D01*
X25256715Y33415132D01*
X25336381Y33448131D01*
X25393726Y33471884D01*
X25393727Y33471884D01*
X25402750Y33475622D01*
X25412887Y33483400D01*
X25520404Y33565901D01*
X25528153Y33571847D01*
X25534099Y33579596D01*
X25535362Y33580859D01*
X25602157Y33619423D01*
X25640721Y33624500D01*
X25882745Y33624500D01*
X25957245Y33604538D01*
X25988104Y33580859D01*
X26080859Y33488104D01*
X26119423Y33421309D01*
X26124500Y33382745D01*
X26124500Y32449000D01*
X26104538Y32374500D01*
X26050000Y32319962D01*
X25975500Y32300000D01*
X24624000Y32300000D01*
X24620042Y32299574D01*
X24620033Y32299574D01*
X24592114Y32296572D01*
X24560228Y32293144D01*
X24508717Y32281938D01*
X24471199Y32271177D01*
X24414144Y32237809D01*
X24381974Y32218995D01*
X24381972Y32218993D01*
X24376031Y32215519D01*
X24370831Y32211013D01*
X24370828Y32211011D01*
X24328045Y32173939D01*
X24323227Y32169764D01*
X24281808Y32125836D01*
X24276978Y32116337D01*
X24234960Y32033702D01*
X24234958Y32033697D01*
X24231838Y32027561D01*
X24229898Y32020954D01*
X24229896Y32020949D01*
X24213654Y31965634D01*
X24212153Y31960522D01*
X24200000Y31876000D01*
X24200000Y28924000D01*
X24206856Y28860228D01*
X24218062Y28808717D01*
X24228823Y28771199D01*
X24267084Y28705778D01*
X24280018Y28683663D01*
X24284481Y28676031D01*
X24288987Y28670831D01*
X24288989Y28670828D01*
X24327780Y28626061D01*
X24330236Y28623227D01*
X24374164Y28581808D01*
X24383663Y28576978D01*
X24466298Y28534960D01*
X24466303Y28534958D01*
X24472439Y28531838D01*
X24479046Y28529898D01*
X24479051Y28529896D01*
X24519354Y28518062D01*
X24539478Y28512153D01*
X24570427Y28507703D01*
X24618732Y28500757D01*
X24618738Y28500757D01*
X24624000Y28500000D01*
X29391356Y28500000D01*
X29422756Y28496450D01*
X29429555Y28494002D01*
X29438483Y28493064D01*
X29438486Y28493063D01*
X29472029Y28489538D01*
X29496177Y28487000D01*
X30492751Y28487000D01*
X30577586Y28498621D01*
X30597808Y28500000D01*
X31891356Y28500000D01*
X31922756Y28496450D01*
X31929555Y28494002D01*
X31938483Y28493064D01*
X31938486Y28493063D01*
X31972029Y28489538D01*
X31996177Y28487000D01*
X32992751Y28487000D01*
X33077586Y28498621D01*
X33097808Y28500000D01*
X40551000Y28500000D01*
X40625500Y28480038D01*
X40680038Y28425500D01*
X40700000Y28351000D01*
X40700000Y25107090D01*
X40680038Y25032590D01*
X40625500Y24978052D01*
X40551000Y24958090D01*
X40493982Y24969431D01*
X40456715Y24984868D01*
X40456714Y24984868D01*
X40457227Y24986107D01*
X40399147Y25019636D01*
X40360579Y25086429D01*
X40355500Y25125000D01*
X40355500Y27250000D01*
X40354197Y27278188D01*
X40323472Y27386173D01*
X40255814Y27475767D01*
X40243609Y27483324D01*
X40172101Y27527600D01*
X40172100Y27527601D01*
X40160359Y27534870D01*
X40050000Y27555500D01*
X34950000Y27555500D01*
X34948294Y27555421D01*
X34948288Y27555421D01*
X34930450Y27554596D01*
X34921812Y27554197D01*
X34913526Y27551839D01*
X34913524Y27551839D01*
X34827108Y27527251D01*
X34827107Y27527251D01*
X34813827Y27523472D01*
X34803285Y27515511D01*
X34737336Y27500000D01*
X33573878Y27500000D01*
X33570590Y27499708D01*
X33570589Y27499708D01*
X33563901Y27499114D01*
X33521016Y27495306D01*
X33478001Y27487606D01*
X33450768Y27481410D01*
X33351738Y27432954D01*
X33295690Y27391236D01*
X33251129Y27350493D01*
X33194018Y27256189D01*
X33173239Y27200940D01*
X33174431Y27200492D01*
X33171817Y27189456D01*
X33165668Y27173470D01*
X33165668Y27173468D01*
X33163607Y27168110D01*
X33162594Y27168413D01*
X33158649Y27155220D01*
X33156709Y27150178D01*
X33156187Y27147349D01*
X33155687Y27146509D01*
X33156014Y27146411D01*
X33140460Y27094403D01*
X33122744Y27056060D01*
X33114414Y27043207D01*
X33094516Y27018665D01*
X33068519Y26992776D01*
X33068506Y26992763D01*
X33066604Y26990868D01*
X33043231Y26963969D01*
X33031808Y26949996D01*
X33028176Y26942853D01*
X32984960Y26857862D01*
X32984958Y26857857D01*
X32981838Y26851721D01*
X32962153Y26784682D01*
X32950000Y26700160D01*
X32950000Y24238394D01*
X32930038Y24163894D01*
X32875500Y24109356D01*
X32865498Y24104077D01*
X32829008Y24086555D01*
X32829007Y24086554D01*
X32818971Y24081735D01*
X32795984Y24060486D01*
X32741028Y24009685D01*
X32719514Y23989798D01*
X32700000Y23956202D01*
X32700000Y28400000D01*
X23500000Y28400000D01*
X23500000Y35400000D01*
X28900000Y35400000D01*
X28900000Y32800000D01*
X33500000Y32800000D01*
X33500000Y38000000D01*
X18700000Y38000000D01*
X18700000Y30475385D01*
X4000000Y30400000D01*
X1812451Y30400000D01*
X1818582Y30426452D01*
X1820500Y30434726D01*
X1820500Y30788258D01*
X1817942Y30805274D01*
X1807683Y30873513D01*
X1807682Y30873516D01*
X1806027Y30884525D01*
X1766951Y30965901D01*
X1754149Y30992561D01*
X1754148Y30992562D01*
X1749329Y31002598D01*
X1682107Y31075318D01*
X1646196Y31143574D01*
X1649224Y31220642D01*
X1690380Y31285872D01*
X1702868Y31295273D01*
X1702826Y31295325D01*
X1805519Y31378484D01*
X1805520Y31378485D01*
X1813412Y31384876D01*
X1859717Y31450034D01*
X1877130Y31474536D01*
X1936558Y31523699D01*
X2012606Y31536562D01*
X2084897Y31509677D01*
X2119995Y31471907D01*
X2120325Y31472174D01*
X2126715Y31464283D01*
X2191018Y31384876D01*
X2209876Y31361588D01*
X2325867Y31279158D01*
X2388330Y31256670D01*
X2451301Y31233998D01*
X2451305Y31233997D01*
X2459752Y31230956D01*
X2468680Y31230018D01*
X2468683Y31230017D01*
X2493911Y31227366D01*
X2521178Y31224500D01*
X3042751Y31224500D01*
X3093839Y31231498D01*
X3137167Y31237433D01*
X3137170Y31237434D01*
X3147231Y31238812D01*
X3277826Y31295325D01*
X3388412Y31384876D01*
X3470842Y31500867D01*
X3479880Y31525972D01*
X3523896Y31589304D01*
X3593684Y31622145D01*
X3620071Y31624500D01*
X15182745Y31624500D01*
X15257245Y31604538D01*
X15288104Y31580859D01*
X15352134Y31516829D01*
X15390698Y31450034D01*
X15395775Y31411470D01*
X15395775Y31409685D01*
X15394500Y31400000D01*
X15395775Y31390315D01*
X15408812Y31291293D01*
X15415132Y31243285D01*
X15418869Y31234263D01*
X15466477Y31119329D01*
X15475622Y31097250D01*
X15571847Y30971847D01*
X15697250Y30875622D01*
X15843285Y30815132D01*
X15852967Y30813857D01*
X15852968Y30813857D01*
X15990315Y30795775D01*
X16000000Y30794500D01*
X16009685Y30795775D01*
X16147032Y30813857D01*
X16147033Y30813857D01*
X16156715Y30815132D01*
X16302750Y30875622D01*
X16428153Y30971847D01*
X16524378Y31097250D01*
X16533524Y31119329D01*
X16581131Y31234263D01*
X16584868Y31243285D01*
X16591189Y31291293D01*
X16604225Y31390315D01*
X16605500Y31400000D01*
X16601700Y31428862D01*
X16586143Y31547032D01*
X16586143Y31547033D01*
X16584868Y31556715D01*
X16524378Y31702750D01*
X16428153Y31828153D01*
X16302750Y31924378D01*
X16256188Y31943665D01*
X16165737Y31981131D01*
X16156715Y31984868D01*
X16147033Y31986143D01*
X16147032Y31986143D01*
X16009685Y32004225D01*
X16000000Y32005500D01*
X15990316Y32004225D01*
X15988530Y32004225D01*
X15914030Y32024187D01*
X15883171Y32047866D01*
X15704440Y32226597D01*
X15695883Y32237192D01*
X15688112Y32245733D01*
X15681430Y32256081D01*
X15671758Y32263705D01*
X15671757Y32263707D01*
X15657746Y32274752D01*
X15653440Y32278578D01*
X15653319Y32278435D01*
X15648626Y32282411D01*
X15644278Y32286759D01*
X15628277Y32298193D01*
X15622681Y32302395D01*
X15592981Y32325809D01*
X15592979Y32325810D01*
X15583307Y32333435D01*
X15574761Y32336436D01*
X15567396Y32341699D01*
X15519390Y32356056D01*
X15512715Y32358225D01*
X15474264Y32371728D01*
X15474263Y32371728D01*
X15465419Y32374834D01*
X15457729Y32375500D01*
X15454507Y32375500D01*
X15454354Y32375507D01*
X15447689Y32377500D01*
X15399719Y32375615D01*
X15393869Y32375500D01*
X3618467Y32375500D01*
X3543967Y32395462D01*
X3489429Y32450000D01*
X3481721Y32465326D01*
X3458708Y32518506D01*
X3454675Y32527826D01*
X3365124Y32638412D01*
X3249133Y32720842D01*
X3186670Y32743330D01*
X3123699Y32766002D01*
X3123695Y32766003D01*
X3115248Y32769044D01*
X3106320Y32769982D01*
X3106317Y32769983D01*
X3081089Y32772634D01*
X3053822Y32775500D01*
X2532249Y32775500D01*
X2485119Y32769044D01*
X2437833Y32762567D01*
X2437830Y32762566D01*
X2427769Y32761188D01*
X2297174Y32704675D01*
X2186588Y32615124D01*
X2180704Y32606844D01*
X2122870Y32525464D01*
X2063442Y32476301D01*
X1987394Y32463438D01*
X1915103Y32490323D01*
X1880005Y32528093D01*
X1879675Y32527826D01*
X1836188Y32581528D01*
X1796516Y32630519D01*
X1796515Y32630520D01*
X1790124Y32638412D01*
X1674133Y32720842D01*
X1611670Y32743330D01*
X1548699Y32766002D01*
X1548695Y32766003D01*
X1540248Y32769044D01*
X1531320Y32769982D01*
X1531317Y32769983D01*
X1506089Y32772634D01*
X1478822Y32775500D01*
X957249Y32775500D01*
X910119Y32769044D01*
X862833Y32762567D01*
X862830Y32762566D01*
X852769Y32761188D01*
X722174Y32704675D01*
X611588Y32615124D01*
X570453Y32557242D01*
X511027Y32508079D01*
X434979Y32495216D01*
X362688Y32522100D01*
X313524Y32581528D01*
X300000Y32643555D01*
X300000Y33354362D01*
X319962Y33428862D01*
X374500Y33483400D01*
X449000Y33503362D01*
X523500Y33483400D01*
X564794Y33448132D01*
X586515Y33421309D01*
X616018Y33384876D01*
X634876Y33361588D01*
X750867Y33279158D01*
X813330Y33256670D01*
X876301Y33233998D01*
X876305Y33233997D01*
X884752Y33230956D01*
X893680Y33230018D01*
X893683Y33230017D01*
X918911Y33227366D01*
X946178Y33224500D01*
X1467751Y33224500D01*
X1518839Y33231498D01*
X1562167Y33237433D01*
X1562170Y33237434D01*
X1572231Y33238812D01*
X1702826Y33295325D01*
X1813412Y33384876D01*
X1858365Y33448131D01*
X1877130Y33474536D01*
X1936558Y33523699D01*
X2012606Y33536562D01*
X2084897Y33509677D01*
X2119995Y33471907D01*
X2120325Y33472174D01*
X2126715Y33464283D01*
X2191018Y33384876D01*
X2209876Y33361588D01*
X2325867Y33279158D01*
X2388330Y33256670D01*
X2451301Y33233998D01*
X2451305Y33233997D01*
X2459752Y33230956D01*
X2468680Y33230018D01*
X2468683Y33230017D01*
X2493911Y33227366D01*
X2521178Y33224500D01*
X3042751Y33224500D01*
X3093839Y33231498D01*
X3137167Y33237433D01*
X3137170Y33237434D01*
X3147231Y33238812D01*
X3277826Y33295325D01*
X3388412Y33384876D01*
X3470842Y33500867D01*
X3479880Y33525972D01*
X3523896Y33589304D01*
X3593684Y33622145D01*
X3620071Y33624500D01*
X17459279Y33624500D01*
X17533779Y33604538D01*
X17564638Y33580859D01*
X17565901Y33579596D01*
X17571847Y33571847D01*
X17579596Y33565901D01*
X17687114Y33483400D01*
X17697250Y33475622D01*
X17706273Y33471884D01*
X17706274Y33471884D01*
X17763619Y33448131D01*
X17843285Y33415132D01*
X17852967Y33413857D01*
X17852968Y33413857D01*
X17990315Y33395775D01*
X18000000Y33394500D01*
X18009685Y33395775D01*
X18147032Y33413857D01*
X18147033Y33413857D01*
X18156715Y33415132D01*
X18236381Y33448131D01*
X18293726Y33471884D01*
X18293727Y33471884D01*
X18302750Y33475622D01*
X18312887Y33483400D01*
X18420404Y33565901D01*
X18428153Y33571847D01*
X18524378Y33697250D01*
X18534323Y33721258D01*
X18581131Y33834263D01*
X18584868Y33843285D01*
X18587832Y33865794D01*
X18604225Y33990315D01*
X18605500Y34000000D01*
X18584868Y34156715D01*
X18534450Y34278435D01*
X18528116Y34293726D01*
X18528116Y34293727D01*
X18524378Y34302750D01*
X18428153Y34428153D01*
X18302750Y34524378D01*
X18275376Y34535717D01*
X18165737Y34581131D01*
X18156715Y34584868D01*
X18147033Y34586143D01*
X18147032Y34586143D01*
X18009685Y34604225D01*
X18000000Y34605500D01*
X17990315Y34604225D01*
X17852968Y34586143D01*
X17852967Y34586143D01*
X17843285Y34584868D01*
X17834263Y34581131D01*
X17724625Y34535717D01*
X17697250Y34524378D01*
X17571847Y34428153D01*
X17565901Y34420404D01*
X17564638Y34419141D01*
X17497843Y34380577D01*
X17459279Y34375500D01*
X3618467Y34375500D01*
X3543967Y34395462D01*
X3489429Y34450000D01*
X3481721Y34465326D01*
X3458708Y34518506D01*
X3454675Y34527826D01*
X3365124Y34638412D01*
X3249133Y34720842D01*
X3171047Y34748955D01*
X3123699Y34766002D01*
X3123695Y34766003D01*
X3115248Y34769044D01*
X3106320Y34769982D01*
X3106317Y34769983D01*
X3081089Y34772634D01*
X3053822Y34775500D01*
X2532249Y34775500D01*
X2485119Y34769044D01*
X2437833Y34762567D01*
X2437830Y34762566D01*
X2427769Y34761188D01*
X2418450Y34757155D01*
X2418449Y34757155D01*
X2399500Y34748955D01*
X2297174Y34704675D01*
X2186588Y34615124D01*
X2165086Y34584868D01*
X2122870Y34525464D01*
X2063442Y34476301D01*
X1987394Y34463438D01*
X1915103Y34490323D01*
X1880005Y34528093D01*
X1879675Y34527826D01*
X1855854Y34557243D01*
X1796516Y34630519D01*
X1796515Y34630520D01*
X1790124Y34638412D01*
X1674133Y34720842D01*
X1664574Y34724283D01*
X1655575Y34728988D01*
X1657369Y34732420D01*
X1610534Y34765087D01*
X1577811Y34834930D01*
X1575500Y34861071D01*
X1575500Y34874978D01*
X1595462Y34949478D01*
X1633168Y34990055D01*
X1632598Y34990671D01*
X1640701Y34998161D01*
X1640703Y34998163D01*
X1728780Y35079581D01*
X1794567Y35192841D01*
X1799804Y35215432D01*
X1818582Y35296452D01*
X1820500Y35304726D01*
X1820500Y35658258D01*
X1806027Y35754525D01*
X1749329Y35872598D01*
X1660419Y35968780D01*
X1547159Y36034567D01*
X1536309Y36037082D01*
X1536306Y36037083D01*
X1474374Y36051437D01*
X1435274Y36060500D01*
X981742Y36060500D01*
X976250Y36059674D01*
X976246Y36059674D01*
X896487Y36047683D01*
X896484Y36047682D01*
X885475Y36046027D01*
X861610Y36034567D01*
X777439Y35994149D01*
X777438Y35994148D01*
X767402Y35989329D01*
X671220Y35900419D01*
X605433Y35787159D01*
X602918Y35776306D01*
X602917Y35776305D01*
X594152Y35738489D01*
X557884Y35670420D01*
X492440Y35629605D01*
X415357Y35626980D01*
X347288Y35663248D01*
X306473Y35728692D01*
X300000Y35772132D01*
X300000Y43551000D01*
X319962Y43625500D01*
X374500Y43680038D01*
X449000Y43700000D01*
X2610090Y43700000D01*
X2684590Y43680038D01*
G37*
G04 #@! TD.AperFunction*
G04 #@! TA.AperFunction,Conductor*
G36*
X32732979Y20571418D02*
G01*
X32754619Y20548008D01*
X32790202Y20509514D01*
X32799831Y20503921D01*
X32808526Y20496955D01*
X32806151Y20493991D01*
X32845801Y20454126D01*
X32865561Y20379572D01*
X32845397Y20305127D01*
X32817709Y20270568D01*
X32719514Y20179798D01*
X32700000Y20146202D01*
X32700000Y20607094D01*
X32732979Y20571418D01*
G37*
G04 #@! TD.AperFunction*
G04 #@! TA.AperFunction,Conductor*
G36*
X29700000Y20256214D02*
G01*
X29691474Y20263045D01*
X29693849Y20266009D01*
X29654199Y20305874D01*
X29634439Y20380428D01*
X29654603Y20454873D01*
X29682291Y20489432D01*
X29700000Y20505802D01*
X29700000Y20256214D01*
G37*
G04 #@! TD.AperFunction*
G04 #@! TA.AperFunction,Conductor*
G36*
X40641705Y23811120D02*
G01*
X40688658Y23749931D01*
X40700000Y23692910D01*
X40700000Y23124000D01*
X40700426Y23120039D01*
X40700426Y23120036D01*
X40701600Y23109116D01*
X40705530Y23072565D01*
X40693646Y22996360D01*
X40662743Y22951280D01*
X39773403Y22061940D01*
X39762808Y22053383D01*
X39754267Y22045612D01*
X39743919Y22038930D01*
X39736295Y22029258D01*
X39736293Y22029257D01*
X39725248Y22015246D01*
X39721422Y22010940D01*
X39721565Y22010819D01*
X39717589Y22006126D01*
X39713241Y22001778D01*
X39701807Y21985777D01*
X39697605Y21980181D01*
X39679874Y21957689D01*
X39666565Y21940807D01*
X39663564Y21932261D01*
X39658301Y21924896D01*
X39652577Y21905757D01*
X39643944Y21876891D01*
X39641775Y21870216D01*
X39625166Y21822919D01*
X39624583Y21816187D01*
X39589968Y21748688D01*
X39525173Y21706851D01*
X39448140Y21703015D01*
X39379510Y21738210D01*
X39337673Y21803005D01*
X39330500Y21848678D01*
X39330500Y21905757D01*
X39315474Y22005700D01*
X39257168Y22127124D01*
X39165735Y22226035D01*
X39156107Y22231627D01*
X39156105Y22231629D01*
X39107497Y22259862D01*
X39049260Y22293689D01*
X38933591Y22320500D01*
X38554243Y22320500D01*
X38454300Y22305474D01*
X38332876Y22247168D01*
X38233965Y22155735D01*
X38228373Y22146107D01*
X38228371Y22146105D01*
X38217346Y22127124D01*
X38166311Y22039260D01*
X38139500Y21923591D01*
X38139500Y21494243D01*
X38140326Y21488749D01*
X38154526Y21394300D01*
X38152966Y21394065D01*
X38155336Y21329404D01*
X38119244Y21261242D01*
X38053906Y21220257D01*
X37980309Y21217655D01*
X37980305Y21217617D01*
X37980050Y21217646D01*
X37976453Y21217519D01*
X37971866Y21218582D01*
X37971865Y21218582D01*
X37963591Y21220500D01*
X37584243Y21220500D01*
X37484300Y21205474D01*
X37411387Y21170462D01*
X37400393Y21165183D01*
X37335896Y21150500D01*
X37289743Y21150500D01*
X37215243Y21170462D01*
X37184384Y21194141D01*
X36832267Y21546257D01*
X36827947Y21550762D01*
X36802147Y21578819D01*
X36789089Y21593020D01*
X36753035Y21615374D01*
X36741485Y21623312D01*
X36707697Y21648959D01*
X36695639Y21653733D01*
X36671972Y21665637D01*
X36669579Y21667121D01*
X36669572Y21667124D01*
X36660942Y21672475D01*
X36622637Y21683604D01*
X36620211Y21684309D01*
X36606933Y21688855D01*
X36588878Y21696003D01*
X36567505Y21704465D01*
X36554604Y21705821D01*
X36528609Y21710921D01*
X36516149Y21714541D01*
X36503089Y21715500D01*
X36470326Y21715500D01*
X36454751Y21716316D01*
X36417551Y21720226D01*
X36407535Y21718532D01*
X36406427Y21718497D01*
X36347801Y21728728D01*
X36339260Y21733689D01*
X36223591Y21760500D01*
X35794243Y21760500D01*
X35694300Y21745474D01*
X35684258Y21740652D01*
X35662456Y21730183D01*
X35597959Y21715500D01*
X35276312Y21715500D01*
X35270072Y21715631D01*
X35268068Y21715715D01*
X35212723Y21718035D01*
X35171422Y21708348D01*
X35157650Y21705795D01*
X35115615Y21700037D01*
X35106294Y21696003D01*
X35106293Y21696003D01*
X35103712Y21694886D01*
X35078560Y21686568D01*
X35075816Y21685924D01*
X35075813Y21685923D01*
X35065926Y21683604D01*
X35057031Y21678714D01*
X35057026Y21678712D01*
X35028758Y21663171D01*
X35016151Y21656995D01*
X34986559Y21644190D01*
X34986556Y21644188D01*
X34977236Y21640155D01*
X34967151Y21631988D01*
X34945163Y21617213D01*
X34933797Y21610965D01*
X34923884Y21602408D01*
X34923521Y21602829D01*
X34921472Y21601405D01*
X34921006Y21602076D01*
X34859049Y21569264D01*
X34825771Y21565500D01*
X34797433Y21565500D01*
X34738660Y21581331D01*
X34737665Y21578819D01*
X34727316Y21582917D01*
X34717681Y21588513D01*
X34601252Y21615500D01*
X33041742Y21615500D01*
X33036250Y21614674D01*
X33036246Y21614674D01*
X32952077Y21602020D01*
X32952074Y21602019D01*
X32941065Y21600364D01*
X32908312Y21584636D01*
X32829008Y21546555D01*
X32829007Y21546554D01*
X32818971Y21541735D01*
X32810794Y21534176D01*
X32748302Y21476409D01*
X32719514Y21449798D01*
X32700000Y21416202D01*
X32700000Y23147094D01*
X32733958Y23110359D01*
X32762003Y23080020D01*
X32790202Y23049514D01*
X32907319Y22981487D01*
X33023748Y22954500D01*
X33047381Y22954500D01*
X33121025Y22934767D01*
X33124164Y22931808D01*
X33146545Y22920428D01*
X33216298Y22884960D01*
X33216303Y22884958D01*
X33222439Y22881838D01*
X33229046Y22879898D01*
X33229051Y22879896D01*
X33284366Y22863654D01*
X33289478Y22862153D01*
X33314794Y22858513D01*
X33368732Y22850757D01*
X33368738Y22850757D01*
X33374000Y22850000D01*
X34673364Y22850000D01*
X34678302Y22850666D01*
X34678308Y22850666D01*
X34747857Y22860041D01*
X34752798Y22860707D01*
X34763531Y22863654D01*
X34812815Y22877186D01*
X34812825Y22877189D01*
X34816120Y22878094D01*
X34867704Y22897509D01*
X34956348Y22963062D01*
X35003935Y23014221D01*
X35052601Y23084382D01*
X35144228Y23267635D01*
X35195401Y23325342D01*
X35268571Y23349732D01*
X35277498Y23350000D01*
X36126000Y23350000D01*
X36129958Y23350426D01*
X36129967Y23350426D01*
X36157886Y23353428D01*
X36189772Y23356856D01*
X36219772Y23363382D01*
X36238916Y23367547D01*
X36238918Y23367548D01*
X36241283Y23368062D01*
X36278801Y23378823D01*
X36346072Y23418165D01*
X36356793Y23423862D01*
X36368206Y23429342D01*
X36417124Y23452832D01*
X36421086Y23456495D01*
X36490809Y23480774D01*
X36566571Y23466321D01*
X36576557Y23461016D01*
X36661106Y23411906D01*
X36661111Y23411904D01*
X36670740Y23406311D01*
X36786409Y23379500D01*
X37165757Y23379500D01*
X37265700Y23394526D01*
X37349607Y23434817D01*
X37414104Y23449500D01*
X37836251Y23449500D01*
X37911088Y23429342D01*
X37941106Y23411906D01*
X37941111Y23411904D01*
X37950740Y23406311D01*
X38066409Y23379500D01*
X38445757Y23379500D01*
X38545700Y23394526D01*
X38667124Y23452832D01*
X38671086Y23456495D01*
X38740809Y23480774D01*
X38816571Y23466321D01*
X38826557Y23461016D01*
X38911106Y23411906D01*
X38911111Y23411904D01*
X38920740Y23406311D01*
X39036409Y23379500D01*
X39415757Y23379500D01*
X39515700Y23394526D01*
X39637124Y23452832D01*
X39721608Y23530929D01*
X39727860Y23536708D01*
X39736035Y23544265D01*
X39741628Y23553895D01*
X39748591Y23562586D01*
X39750884Y23560749D01*
X39793065Y23602711D01*
X39872698Y23621941D01*
X39882076Y23619922D01*
X39894310Y23621370D01*
X39912027Y23623467D01*
X39917781Y23623806D01*
X39917765Y23623994D01*
X39923885Y23624500D01*
X39930039Y23624500D01*
X39949458Y23627732D01*
X39956370Y23628715D01*
X39968624Y23630166D01*
X39993926Y23633160D01*
X39993928Y23633161D01*
X40006157Y23634608D01*
X40014322Y23638529D01*
X40023251Y23640015D01*
X40067361Y23663815D01*
X40073604Y23666996D01*
X40118789Y23688694D01*
X40124698Y23693661D01*
X40126973Y23695936D01*
X40127090Y23696043D01*
X40133211Y23699346D01*
X40165794Y23734594D01*
X40169849Y23738812D01*
X40183171Y23752134D01*
X40249966Y23790698D01*
X40288530Y23795775D01*
X40290316Y23795775D01*
X40300000Y23794500D01*
X40309685Y23795775D01*
X40447032Y23813857D01*
X40447033Y23813857D01*
X40456715Y23815132D01*
X40493981Y23830568D01*
X40570447Y23840635D01*
X40641705Y23811120D01*
G37*
G04 #@! TD.AperFunction*
G04 #@! TA.AperFunction,Conductor*
G36*
X29700000Y21526214D02*
G01*
X29691474Y21533045D01*
X29693849Y21536009D01*
X29654199Y21575874D01*
X29634439Y21650428D01*
X29654603Y21724873D01*
X29682291Y21759432D01*
X29700000Y21775802D01*
X29700000Y21526214D01*
G37*
G04 #@! TD.AperFunction*
G04 #@! TA.AperFunction,Conductor*
G36*
X29700000Y22796214D02*
G01*
X29691474Y22803045D01*
X29693849Y22806009D01*
X29654199Y22845874D01*
X29634439Y22920428D01*
X29654603Y22994873D01*
X29682291Y23029432D01*
X29700000Y23045802D01*
X29700000Y22796214D01*
G37*
G04 #@! TD.AperFunction*
G04 #@! TA.AperFunction,Conductor*
G36*
X32700000Y25800000D02*
G01*
X23100000Y25800000D01*
X23100000Y28400000D01*
X32700000Y28400000D01*
X32700000Y25800000D01*
G37*
G04 #@! TD.AperFunction*
G04 #@! TA.AperFunction,Conductor*
G36*
X32700000Y23956202D02*
G01*
X32651487Y23872681D01*
X32624500Y23756252D01*
X32624500Y23371742D01*
X32639636Y23271065D01*
X32698265Y23148971D01*
X32700000Y23147094D01*
X32700000Y21416202D01*
X32651487Y21332681D01*
X32624500Y21216252D01*
X32624500Y20831742D01*
X32639636Y20731065D01*
X32698265Y20608971D01*
X32700000Y20607094D01*
X32700000Y20146202D01*
X32651487Y20062681D01*
X32624500Y19946252D01*
X32624500Y19561742D01*
X32639636Y19461065D01*
X32698265Y19338971D01*
X32700000Y19337094D01*
X32700000Y14400000D01*
X29700000Y14400000D01*
X29700000Y19235802D01*
X29772308Y19302642D01*
X29772309Y19302643D01*
X29780486Y19310202D01*
X29848513Y19427319D01*
X29875500Y19543748D01*
X29875500Y19928258D01*
X29860364Y20028935D01*
X29801735Y20151029D01*
X29709798Y20250486D01*
X29700167Y20256080D01*
X29700000Y20256214D01*
X29700000Y20505802D01*
X29780486Y20580202D01*
X29848513Y20697319D01*
X29875500Y20813748D01*
X29875500Y21198258D01*
X29860364Y21298935D01*
X29801735Y21421029D01*
X29709798Y21520486D01*
X29700167Y21526080D01*
X29700000Y21526214D01*
X29700000Y21775802D01*
X29780486Y21850202D01*
X29848513Y21967319D01*
X29875500Y22083748D01*
X29875500Y22468258D01*
X29860364Y22568935D01*
X29801735Y22691029D01*
X29709798Y22790486D01*
X29700167Y22796080D01*
X29700000Y22796214D01*
X29700000Y23045802D01*
X29780486Y23120202D01*
X29848513Y23237319D01*
X29875500Y23353748D01*
X29875500Y23738258D01*
X29860364Y23838935D01*
X29801735Y23961029D01*
X29709798Y24060486D01*
X29700000Y24066177D01*
X29700000Y28400000D01*
X32700000Y28400000D01*
X32700000Y23956202D01*
G37*
G04 #@! TD.AperFunction*
G04 #@! TA.AperFunction,Conductor*
G36*
X30800000Y13800000D02*
G01*
X4000000Y13800000D01*
X4000000Y17400000D01*
X30800000Y17400000D01*
X30800000Y13800000D01*
G37*
G04 #@! TD.AperFunction*
M02*
