G04 #@! TF.GenerationSoftware,KiCad,Pcbnew,7.0.7*
G04 #@! TF.CreationDate,2023-08-29T18:05:24+01:00*
G04 #@! TF.ProjectId,NB3_hindbrain,4e42335f-6869-46e6-9462-7261696e2e6b,0.0.1*
G04 #@! TF.SameCoordinates,PX4af0920PY4c4db10*
G04 #@! TF.FileFunction,Legend,Bot*
G04 #@! TF.FilePolarity,Positive*
%FSLAX46Y46*%
G04 Gerber Fmt 4.6, Leading zero omitted, Abs format (unit mm)*
G04 Created by KiCad (PCBNEW 7.0.7) date 2023-08-29 18:05:24*
%MOMM*%
%LPD*%
G01*
G04 APERTURE LIST*
%ADD10C,0.150000*%
%ADD11C,0.120000*%
%ADD12C,0.152400*%
%ADD13C,0.200000*%
%ADD14C,0.127000*%
G04 APERTURE END LIST*
D10*
X53833332Y-6844295D02*
X53833332Y-6310961D01*
X53833332Y-6463342D02*
X53795237Y-6387152D01*
X53795237Y-6387152D02*
X53757142Y-6349057D01*
X53757142Y-6349057D02*
X53680951Y-6310961D01*
X53680951Y-6310961D02*
X53604761Y-6310961D01*
X53033332Y-6806200D02*
X53109523Y-6844295D01*
X53109523Y-6844295D02*
X53261904Y-6844295D01*
X53261904Y-6844295D02*
X53338094Y-6806200D01*
X53338094Y-6806200D02*
X53376190Y-6730009D01*
X53376190Y-6730009D02*
X53376190Y-6425247D01*
X53376190Y-6425247D02*
X53338094Y-6349057D01*
X53338094Y-6349057D02*
X53261904Y-6310961D01*
X53261904Y-6310961D02*
X53109523Y-6310961D01*
X53109523Y-6310961D02*
X53033332Y-6349057D01*
X53033332Y-6349057D02*
X52995237Y-6425247D01*
X52995237Y-6425247D02*
X52995237Y-6501438D01*
X52995237Y-6501438D02*
X53376190Y-6577628D01*
X52728571Y-6310961D02*
X52538095Y-6844295D01*
X52538095Y-6844295D02*
X52347618Y-6310961D01*
X51280951Y-6044295D02*
X51204761Y-6044295D01*
X51204761Y-6044295D02*
X51128570Y-6082390D01*
X51128570Y-6082390D02*
X51090475Y-6120485D01*
X51090475Y-6120485D02*
X51052380Y-6196676D01*
X51052380Y-6196676D02*
X51014285Y-6349057D01*
X51014285Y-6349057D02*
X51014285Y-6539533D01*
X51014285Y-6539533D02*
X51052380Y-6691914D01*
X51052380Y-6691914D02*
X51090475Y-6768104D01*
X51090475Y-6768104D02*
X51128570Y-6806200D01*
X51128570Y-6806200D02*
X51204761Y-6844295D01*
X51204761Y-6844295D02*
X51280951Y-6844295D01*
X51280951Y-6844295D02*
X51357142Y-6806200D01*
X51357142Y-6806200D02*
X51395237Y-6768104D01*
X51395237Y-6768104D02*
X51433332Y-6691914D01*
X51433332Y-6691914D02*
X51471428Y-6539533D01*
X51471428Y-6539533D02*
X51471428Y-6349057D01*
X51471428Y-6349057D02*
X51433332Y-6196676D01*
X51433332Y-6196676D02*
X51395237Y-6120485D01*
X51395237Y-6120485D02*
X51357142Y-6082390D01*
X51357142Y-6082390D02*
X51280951Y-6044295D01*
X50671427Y-6768104D02*
X50633332Y-6806200D01*
X50633332Y-6806200D02*
X50671427Y-6844295D01*
X50671427Y-6844295D02*
X50709523Y-6806200D01*
X50709523Y-6806200D02*
X50671427Y-6768104D01*
X50671427Y-6768104D02*
X50671427Y-6844295D01*
X50138094Y-6044295D02*
X50061904Y-6044295D01*
X50061904Y-6044295D02*
X49985713Y-6082390D01*
X49985713Y-6082390D02*
X49947618Y-6120485D01*
X49947618Y-6120485D02*
X49909523Y-6196676D01*
X49909523Y-6196676D02*
X49871428Y-6349057D01*
X49871428Y-6349057D02*
X49871428Y-6539533D01*
X49871428Y-6539533D02*
X49909523Y-6691914D01*
X49909523Y-6691914D02*
X49947618Y-6768104D01*
X49947618Y-6768104D02*
X49985713Y-6806200D01*
X49985713Y-6806200D02*
X50061904Y-6844295D01*
X50061904Y-6844295D02*
X50138094Y-6844295D01*
X50138094Y-6844295D02*
X50214285Y-6806200D01*
X50214285Y-6806200D02*
X50252380Y-6768104D01*
X50252380Y-6768104D02*
X50290475Y-6691914D01*
X50290475Y-6691914D02*
X50328571Y-6539533D01*
X50328571Y-6539533D02*
X50328571Y-6349057D01*
X50328571Y-6349057D02*
X50290475Y-6196676D01*
X50290475Y-6196676D02*
X50252380Y-6120485D01*
X50252380Y-6120485D02*
X50214285Y-6082390D01*
X50214285Y-6082390D02*
X50138094Y-6044295D01*
X49528570Y-6768104D02*
X49490475Y-6806200D01*
X49490475Y-6806200D02*
X49528570Y-6844295D01*
X49528570Y-6844295D02*
X49566666Y-6806200D01*
X49566666Y-6806200D02*
X49528570Y-6768104D01*
X49528570Y-6768104D02*
X49528570Y-6844295D01*
X48728571Y-6844295D02*
X49185714Y-6844295D01*
X48957142Y-6844295D02*
X48957142Y-6044295D01*
X48957142Y-6044295D02*
X49033333Y-6158580D01*
X49033333Y-6158580D02*
X49109523Y-6234771D01*
X49109523Y-6234771D02*
X49185714Y-6272866D01*
X26261906Y-6425247D02*
X26528572Y-6425247D01*
X26528572Y-6844295D02*
X26528572Y-6044295D01*
X26528572Y-6044295D02*
X26147620Y-6044295D01*
X25728573Y-6844295D02*
X25804763Y-6806200D01*
X25804763Y-6806200D02*
X25842858Y-6768104D01*
X25842858Y-6768104D02*
X25880954Y-6691914D01*
X25880954Y-6691914D02*
X25880954Y-6463342D01*
X25880954Y-6463342D02*
X25842858Y-6387152D01*
X25842858Y-6387152D02*
X25804763Y-6349057D01*
X25804763Y-6349057D02*
X25728573Y-6310961D01*
X25728573Y-6310961D02*
X25614287Y-6310961D01*
X25614287Y-6310961D02*
X25538096Y-6349057D01*
X25538096Y-6349057D02*
X25500001Y-6387152D01*
X25500001Y-6387152D02*
X25461906Y-6463342D01*
X25461906Y-6463342D02*
X25461906Y-6691914D01*
X25461906Y-6691914D02*
X25500001Y-6768104D01*
X25500001Y-6768104D02*
X25538096Y-6806200D01*
X25538096Y-6806200D02*
X25614287Y-6844295D01*
X25614287Y-6844295D02*
X25728573Y-6844295D01*
X25119048Y-6844295D02*
X25119048Y-6310961D01*
X25119048Y-6463342D02*
X25080953Y-6387152D01*
X25080953Y-6387152D02*
X25042858Y-6349057D01*
X25042858Y-6349057D02*
X24966667Y-6310961D01*
X24966667Y-6310961D02*
X24890477Y-6310961D01*
X23557143Y-6844295D02*
X23823810Y-6463342D01*
X24014286Y-6844295D02*
X24014286Y-6044295D01*
X24014286Y-6044295D02*
X23709524Y-6044295D01*
X23709524Y-6044295D02*
X23633334Y-6082390D01*
X23633334Y-6082390D02*
X23595239Y-6120485D01*
X23595239Y-6120485D02*
X23557143Y-6196676D01*
X23557143Y-6196676D02*
X23557143Y-6310961D01*
X23557143Y-6310961D02*
X23595239Y-6387152D01*
X23595239Y-6387152D02*
X23633334Y-6425247D01*
X23633334Y-6425247D02*
X23709524Y-6463342D01*
X23709524Y-6463342D02*
X24014286Y-6463342D01*
X22909524Y-6806200D02*
X22985715Y-6844295D01*
X22985715Y-6844295D02*
X23138096Y-6844295D01*
X23138096Y-6844295D02*
X23214286Y-6806200D01*
X23214286Y-6806200D02*
X23252382Y-6730009D01*
X23252382Y-6730009D02*
X23252382Y-6425247D01*
X23252382Y-6425247D02*
X23214286Y-6349057D01*
X23214286Y-6349057D02*
X23138096Y-6310961D01*
X23138096Y-6310961D02*
X22985715Y-6310961D01*
X22985715Y-6310961D02*
X22909524Y-6349057D01*
X22909524Y-6349057D02*
X22871429Y-6425247D01*
X22871429Y-6425247D02*
X22871429Y-6501438D01*
X22871429Y-6501438D02*
X23252382Y-6577628D01*
X22566668Y-6806200D02*
X22490477Y-6844295D01*
X22490477Y-6844295D02*
X22338096Y-6844295D01*
X22338096Y-6844295D02*
X22261906Y-6806200D01*
X22261906Y-6806200D02*
X22223810Y-6730009D01*
X22223810Y-6730009D02*
X22223810Y-6691914D01*
X22223810Y-6691914D02*
X22261906Y-6615723D01*
X22261906Y-6615723D02*
X22338096Y-6577628D01*
X22338096Y-6577628D02*
X22452382Y-6577628D01*
X22452382Y-6577628D02*
X22528572Y-6539533D01*
X22528572Y-6539533D02*
X22566668Y-6463342D01*
X22566668Y-6463342D02*
X22566668Y-6425247D01*
X22566668Y-6425247D02*
X22528572Y-6349057D01*
X22528572Y-6349057D02*
X22452382Y-6310961D01*
X22452382Y-6310961D02*
X22338096Y-6310961D01*
X22338096Y-6310961D02*
X22261906Y-6349057D01*
X21576191Y-6806200D02*
X21652382Y-6844295D01*
X21652382Y-6844295D02*
X21804763Y-6844295D01*
X21804763Y-6844295D02*
X21880953Y-6806200D01*
X21880953Y-6806200D02*
X21919049Y-6730009D01*
X21919049Y-6730009D02*
X21919049Y-6425247D01*
X21919049Y-6425247D02*
X21880953Y-6349057D01*
X21880953Y-6349057D02*
X21804763Y-6310961D01*
X21804763Y-6310961D02*
X21652382Y-6310961D01*
X21652382Y-6310961D02*
X21576191Y-6349057D01*
X21576191Y-6349057D02*
X21538096Y-6425247D01*
X21538096Y-6425247D02*
X21538096Y-6501438D01*
X21538096Y-6501438D02*
X21919049Y-6577628D01*
X20852382Y-6844295D02*
X20852382Y-6425247D01*
X20852382Y-6425247D02*
X20890477Y-6349057D01*
X20890477Y-6349057D02*
X20966668Y-6310961D01*
X20966668Y-6310961D02*
X21119049Y-6310961D01*
X21119049Y-6310961D02*
X21195239Y-6349057D01*
X20852382Y-6806200D02*
X20928573Y-6844295D01*
X20928573Y-6844295D02*
X21119049Y-6844295D01*
X21119049Y-6844295D02*
X21195239Y-6806200D01*
X21195239Y-6806200D02*
X21233335Y-6730009D01*
X21233335Y-6730009D02*
X21233335Y-6653819D01*
X21233335Y-6653819D02*
X21195239Y-6577628D01*
X21195239Y-6577628D02*
X21119049Y-6539533D01*
X21119049Y-6539533D02*
X20928573Y-6539533D01*
X20928573Y-6539533D02*
X20852382Y-6501438D01*
X20471429Y-6844295D02*
X20471429Y-6310961D01*
X20471429Y-6463342D02*
X20433334Y-6387152D01*
X20433334Y-6387152D02*
X20395239Y-6349057D01*
X20395239Y-6349057D02*
X20319048Y-6310961D01*
X20319048Y-6310961D02*
X20242858Y-6310961D01*
X19633334Y-6806200D02*
X19709525Y-6844295D01*
X19709525Y-6844295D02*
X19861906Y-6844295D01*
X19861906Y-6844295D02*
X19938096Y-6806200D01*
X19938096Y-6806200D02*
X19976191Y-6768104D01*
X19976191Y-6768104D02*
X20014287Y-6691914D01*
X20014287Y-6691914D02*
X20014287Y-6463342D01*
X20014287Y-6463342D02*
X19976191Y-6387152D01*
X19976191Y-6387152D02*
X19938096Y-6349057D01*
X19938096Y-6349057D02*
X19861906Y-6310961D01*
X19861906Y-6310961D02*
X19709525Y-6310961D01*
X19709525Y-6310961D02*
X19633334Y-6349057D01*
X19290477Y-6844295D02*
X19290477Y-6044295D01*
X18947620Y-6844295D02*
X18947620Y-6425247D01*
X18947620Y-6425247D02*
X18985715Y-6349057D01*
X18985715Y-6349057D02*
X19061906Y-6310961D01*
X19061906Y-6310961D02*
X19176192Y-6310961D01*
X19176192Y-6310961D02*
X19252382Y-6349057D01*
X19252382Y-6349057D02*
X19290477Y-6387152D01*
X17614286Y-6844295D02*
X17614286Y-6425247D01*
X17614286Y-6425247D02*
X17652381Y-6349057D01*
X17652381Y-6349057D02*
X17728572Y-6310961D01*
X17728572Y-6310961D02*
X17880953Y-6310961D01*
X17880953Y-6310961D02*
X17957143Y-6349057D01*
X17614286Y-6806200D02*
X17690477Y-6844295D01*
X17690477Y-6844295D02*
X17880953Y-6844295D01*
X17880953Y-6844295D02*
X17957143Y-6806200D01*
X17957143Y-6806200D02*
X17995239Y-6730009D01*
X17995239Y-6730009D02*
X17995239Y-6653819D01*
X17995239Y-6653819D02*
X17957143Y-6577628D01*
X17957143Y-6577628D02*
X17880953Y-6539533D01*
X17880953Y-6539533D02*
X17690477Y-6539533D01*
X17690477Y-6539533D02*
X17614286Y-6501438D01*
X17233333Y-6310961D02*
X17233333Y-6844295D01*
X17233333Y-6387152D02*
X17195238Y-6349057D01*
X17195238Y-6349057D02*
X17119048Y-6310961D01*
X17119048Y-6310961D02*
X17004762Y-6310961D01*
X17004762Y-6310961D02*
X16928571Y-6349057D01*
X16928571Y-6349057D02*
X16890476Y-6425247D01*
X16890476Y-6425247D02*
X16890476Y-6844295D01*
X16166666Y-6844295D02*
X16166666Y-6044295D01*
X16166666Y-6806200D02*
X16242857Y-6844295D01*
X16242857Y-6844295D02*
X16395238Y-6844295D01*
X16395238Y-6844295D02*
X16471428Y-6806200D01*
X16471428Y-6806200D02*
X16509523Y-6768104D01*
X16509523Y-6768104D02*
X16547619Y-6691914D01*
X16547619Y-6691914D02*
X16547619Y-6463342D01*
X16547619Y-6463342D02*
X16509523Y-6387152D01*
X16509523Y-6387152D02*
X16471428Y-6349057D01*
X16471428Y-6349057D02*
X16395238Y-6310961D01*
X16395238Y-6310961D02*
X16242857Y-6310961D01*
X16242857Y-6310961D02*
X16166666Y-6349057D01*
X15176189Y-6425247D02*
X14909523Y-6425247D01*
X14795237Y-6844295D02*
X15176189Y-6844295D01*
X15176189Y-6844295D02*
X15176189Y-6044295D01*
X15176189Y-6044295D02*
X14795237Y-6044295D01*
X14109522Y-6844295D02*
X14109522Y-6044295D01*
X14109522Y-6806200D02*
X14185713Y-6844295D01*
X14185713Y-6844295D02*
X14338094Y-6844295D01*
X14338094Y-6844295D02*
X14414284Y-6806200D01*
X14414284Y-6806200D02*
X14452379Y-6768104D01*
X14452379Y-6768104D02*
X14490475Y-6691914D01*
X14490475Y-6691914D02*
X14490475Y-6463342D01*
X14490475Y-6463342D02*
X14452379Y-6387152D01*
X14452379Y-6387152D02*
X14414284Y-6349057D01*
X14414284Y-6349057D02*
X14338094Y-6310961D01*
X14338094Y-6310961D02*
X14185713Y-6310961D01*
X14185713Y-6310961D02*
X14109522Y-6349057D01*
X13385712Y-6310961D02*
X13385712Y-6844295D01*
X13728569Y-6310961D02*
X13728569Y-6730009D01*
X13728569Y-6730009D02*
X13690474Y-6806200D01*
X13690474Y-6806200D02*
X13614284Y-6844295D01*
X13614284Y-6844295D02*
X13499998Y-6844295D01*
X13499998Y-6844295D02*
X13423807Y-6806200D01*
X13423807Y-6806200D02*
X13385712Y-6768104D01*
X12661902Y-6806200D02*
X12738093Y-6844295D01*
X12738093Y-6844295D02*
X12890474Y-6844295D01*
X12890474Y-6844295D02*
X12966664Y-6806200D01*
X12966664Y-6806200D02*
X13004759Y-6768104D01*
X13004759Y-6768104D02*
X13042855Y-6691914D01*
X13042855Y-6691914D02*
X13042855Y-6463342D01*
X13042855Y-6463342D02*
X13004759Y-6387152D01*
X13004759Y-6387152D02*
X12966664Y-6349057D01*
X12966664Y-6349057D02*
X12890474Y-6310961D01*
X12890474Y-6310961D02*
X12738093Y-6310961D01*
X12738093Y-6310961D02*
X12661902Y-6349057D01*
X11976188Y-6844295D02*
X11976188Y-6425247D01*
X11976188Y-6425247D02*
X12014283Y-6349057D01*
X12014283Y-6349057D02*
X12090474Y-6310961D01*
X12090474Y-6310961D02*
X12242855Y-6310961D01*
X12242855Y-6310961D02*
X12319045Y-6349057D01*
X11976188Y-6806200D02*
X12052379Y-6844295D01*
X12052379Y-6844295D02*
X12242855Y-6844295D01*
X12242855Y-6844295D02*
X12319045Y-6806200D01*
X12319045Y-6806200D02*
X12357141Y-6730009D01*
X12357141Y-6730009D02*
X12357141Y-6653819D01*
X12357141Y-6653819D02*
X12319045Y-6577628D01*
X12319045Y-6577628D02*
X12242855Y-6539533D01*
X12242855Y-6539533D02*
X12052379Y-6539533D01*
X12052379Y-6539533D02*
X11976188Y-6501438D01*
X11709521Y-6310961D02*
X11404759Y-6310961D01*
X11595235Y-6044295D02*
X11595235Y-6730009D01*
X11595235Y-6730009D02*
X11557140Y-6806200D01*
X11557140Y-6806200D02*
X11480950Y-6844295D01*
X11480950Y-6844295D02*
X11404759Y-6844295D01*
X11138092Y-6844295D02*
X11138092Y-6310961D01*
X11138092Y-6044295D02*
X11176188Y-6082390D01*
X11176188Y-6082390D02*
X11138092Y-6120485D01*
X11138092Y-6120485D02*
X11099997Y-6082390D01*
X11099997Y-6082390D02*
X11138092Y-6044295D01*
X11138092Y-6044295D02*
X11138092Y-6120485D01*
X10642855Y-6844295D02*
X10719045Y-6806200D01*
X10719045Y-6806200D02*
X10757140Y-6768104D01*
X10757140Y-6768104D02*
X10795236Y-6691914D01*
X10795236Y-6691914D02*
X10795236Y-6463342D01*
X10795236Y-6463342D02*
X10757140Y-6387152D01*
X10757140Y-6387152D02*
X10719045Y-6349057D01*
X10719045Y-6349057D02*
X10642855Y-6310961D01*
X10642855Y-6310961D02*
X10528569Y-6310961D01*
X10528569Y-6310961D02*
X10452378Y-6349057D01*
X10452378Y-6349057D02*
X10414283Y-6387152D01*
X10414283Y-6387152D02*
X10376188Y-6463342D01*
X10376188Y-6463342D02*
X10376188Y-6691914D01*
X10376188Y-6691914D02*
X10414283Y-6768104D01*
X10414283Y-6768104D02*
X10452378Y-6806200D01*
X10452378Y-6806200D02*
X10528569Y-6844295D01*
X10528569Y-6844295D02*
X10642855Y-6844295D01*
X10033330Y-6310961D02*
X10033330Y-6844295D01*
X10033330Y-6387152D02*
X9995235Y-6349057D01*
X9995235Y-6349057D02*
X9919045Y-6310961D01*
X9919045Y-6310961D02*
X9804759Y-6310961D01*
X9804759Y-6310961D02*
X9728568Y-6349057D01*
X9728568Y-6349057D02*
X9690473Y-6425247D01*
X9690473Y-6425247D02*
X9690473Y-6844295D01*
X8547615Y-6044295D02*
X8395234Y-6044295D01*
X8395234Y-6044295D02*
X8319044Y-6082390D01*
X8319044Y-6082390D02*
X8242853Y-6158580D01*
X8242853Y-6158580D02*
X8204758Y-6310961D01*
X8204758Y-6310961D02*
X8204758Y-6577628D01*
X8204758Y-6577628D02*
X8242853Y-6730009D01*
X8242853Y-6730009D02*
X8319044Y-6806200D01*
X8319044Y-6806200D02*
X8395234Y-6844295D01*
X8395234Y-6844295D02*
X8547615Y-6844295D01*
X8547615Y-6844295D02*
X8623806Y-6806200D01*
X8623806Y-6806200D02*
X8699996Y-6730009D01*
X8699996Y-6730009D02*
X8738092Y-6577628D01*
X8738092Y-6577628D02*
X8738092Y-6310961D01*
X8738092Y-6310961D02*
X8699996Y-6158580D01*
X8699996Y-6158580D02*
X8623806Y-6082390D01*
X8623806Y-6082390D02*
X8547615Y-6044295D01*
X7861901Y-6844295D02*
X7861901Y-6044295D01*
X7861901Y-6044295D02*
X7404758Y-6844295D01*
X7404758Y-6844295D02*
X7404758Y-6044295D01*
X6642854Y-6844295D02*
X7023806Y-6844295D01*
X7023806Y-6844295D02*
X7023806Y-6044295D01*
X6223806Y-6463342D02*
X6223806Y-6844295D01*
X6490473Y-6044295D02*
X6223806Y-6463342D01*
X6223806Y-6463342D02*
X5957140Y-6044295D01*
D11*
X11920000Y-5243641D02*
X11920000Y-4936359D01*
X12680000Y-5243641D02*
X12680000Y-4936359D01*
X18390000Y3359420D02*
X18390000Y3640580D01*
X19410000Y3359420D02*
X19410000Y3640580D01*
X56090000Y-7560000D02*
X56090000Y-10220000D01*
X7770000Y-7560000D02*
X56090000Y-7560000D01*
X7770000Y-7560000D02*
X7770000Y-10220000D01*
X6500000Y-7560000D02*
X5170000Y-7560000D01*
X5170000Y-7560000D02*
X5170000Y-8890000D01*
X7770000Y-10220000D02*
X56090000Y-10220000D01*
X40430000Y6003641D02*
X40430000Y5696359D01*
X39670000Y6003641D02*
X39670000Y5696359D01*
D12*
X15154800Y6924000D02*
X15383400Y6924000D01*
X14545200Y6924000D02*
X15154800Y6924000D01*
X14316600Y6924000D02*
X14545200Y6924000D01*
X14545200Y6924000D02*
G75*
G03*
X15154800Y6924000I304800J0D01*
G01*
D11*
X22457836Y3790000D02*
X22242164Y3790000D01*
X22457836Y4510000D02*
X22242164Y4510000D01*
X38380000Y6003641D02*
X38380000Y5696359D01*
X37620000Y6003641D02*
X37620000Y5696359D01*
X10865580Y4690000D02*
X10584420Y4690000D01*
X10865580Y5710000D02*
X10584420Y5710000D01*
X31640580Y-3510000D02*
X31359420Y-3510000D01*
X31640580Y-2490000D02*
X31359420Y-2490000D01*
X45115580Y-5760000D02*
X44834420Y-5760000D01*
X45115580Y-4740000D02*
X44834420Y-4740000D01*
X11127836Y3540000D02*
X10912164Y3540000D01*
X11127836Y4260000D02*
X10912164Y4260000D01*
X34360000Y-5192164D02*
X34360000Y-5407836D01*
X33640000Y-5192164D02*
X33640000Y-5407836D01*
X19253641Y5220000D02*
X18946359Y5220000D01*
X19253641Y5980000D02*
X18946359Y5980000D01*
D13*
X33490000Y3475000D02*
X33490000Y1950000D01*
X42342000Y1600000D02*
X33658000Y1600000D01*
X33658000Y1600000D02*
X33658000Y-1600000D01*
X42342000Y-1600000D02*
X42342000Y1600000D01*
X33658000Y-1600000D02*
X42342000Y-1600000D01*
D11*
X19840000Y2792164D02*
X19840000Y3007836D01*
X20560000Y2792164D02*
X20560000Y3007836D01*
X20560000Y-2792164D02*
X20560000Y-3007836D01*
X19840000Y-2792164D02*
X19840000Y-3007836D01*
X19410000Y-3359420D02*
X19410000Y-3640580D01*
X18390000Y-3359420D02*
X18390000Y-3640580D01*
D13*
X56080000Y-3450000D02*
X56080000Y-1950000D01*
X51050000Y-1600000D02*
X55950000Y-1600000D01*
X55950000Y-1600000D02*
X55950000Y1600000D01*
X51050000Y1600000D02*
X51050000Y-1600000D01*
X55950000Y1600000D02*
X51050000Y1600000D01*
D11*
X47270000Y-4893641D02*
X47270000Y-4586359D01*
X48030000Y-4893641D02*
X48030000Y-4586359D01*
X43757836Y-3610000D02*
X43542164Y-3610000D01*
X43757836Y-2890000D02*
X43542164Y-2890000D01*
X47384420Y6760000D02*
X47665580Y6760000D01*
X47384420Y5740000D02*
X47665580Y5740000D01*
X15607836Y-4860000D02*
X15392164Y-4860000D01*
X15607836Y-4140000D02*
X15392164Y-4140000D01*
X23712164Y-3840000D02*
X23927836Y-3840000D01*
X23712164Y-4560000D02*
X23927836Y-4560000D01*
X34580000Y6003641D02*
X34580000Y5696359D01*
X33820000Y6003641D02*
X33820000Y5696359D01*
X10320000Y171359D02*
X10320000Y478641D01*
X11080000Y171359D02*
X11080000Y478641D01*
X48490000Y-4165580D02*
X48490000Y-3884420D01*
X49510000Y-4165580D02*
X49510000Y-3884420D01*
X55262164Y-4890000D02*
X55477836Y-4890000D01*
X55262164Y-5610000D02*
X55477836Y-5610000D01*
X31890000Y2342164D02*
X31890000Y2557836D01*
X32610000Y2342164D02*
X32610000Y2557836D01*
X29590000Y1959420D02*
X29590000Y2240580D01*
X30610000Y1959420D02*
X30610000Y2240580D01*
X17220000Y5246359D02*
X17220000Y5553641D01*
X17980000Y5246359D02*
X17980000Y5553641D01*
X30460000Y-292164D02*
X30460000Y-507836D01*
X29740000Y-292164D02*
X29740000Y-507836D01*
D13*
X21025000Y-3125000D02*
X22675000Y-3125000D01*
X23250000Y3250000D02*
X23250000Y-3250000D01*
X23250000Y-3250000D02*
X26750000Y-3250000D01*
X26750000Y3250000D02*
X23250000Y3250000D01*
X26750000Y-3250000D02*
X26750000Y3250000D01*
D11*
X32760000Y140580D02*
X32760000Y-140580D01*
X31740000Y140580D02*
X31740000Y-140580D01*
D14*
X14250000Y3250000D02*
X17750000Y3250000D01*
X14250000Y-3250000D02*
X17750000Y-3250000D01*
X17750000Y3250000D02*
X17750000Y2010000D01*
X17750000Y-3250000D02*
X17750000Y-2010000D01*
D13*
X11500000Y-2300000D02*
G75*
G03*
X11500000Y-2300000I-100000J0D01*
G01*
D11*
X36380000Y6003641D02*
X36380000Y5696359D01*
X35620000Y6003641D02*
X35620000Y5696359D01*
X47122164Y-2890000D02*
X47337836Y-2890000D01*
X47122164Y-3610000D02*
X47337836Y-3610000D01*
X11377836Y6140000D02*
X11162164Y6140000D01*
X11377836Y6860000D02*
X11162164Y6860000D01*
X56090000Y10220000D02*
X56090000Y7560000D01*
X7770000Y10220000D02*
X56090000Y10220000D01*
X7770000Y10220000D02*
X7770000Y7560000D01*
X6500000Y10220000D02*
X5170000Y10220000D01*
X5170000Y10220000D02*
X5170000Y8890000D01*
X7770000Y7560000D02*
X56090000Y7560000D01*
M02*
