G04 #@! TF.GenerationSoftware,KiCad,Pcbnew,7.0.7*
G04 #@! TF.CreationDate,2023-08-29T18:05:24+01:00*
G04 #@! TF.ProjectId,NB3_hindbrain,4e42335f-6869-46e6-9462-7261696e2e6b,0.0.1*
G04 #@! TF.SameCoordinates,PX4af0920PY4c4db10*
G04 #@! TF.FileFunction,Soldermask,Bot*
G04 #@! TF.FilePolarity,Negative*
%FSLAX46Y46*%
G04 Gerber Fmt 4.6, Leading zero omitted, Abs format (unit mm)*
G04 Created by KiCad (PCBNEW 7.0.7) date 2023-08-29 18:05:24*
%MOMM*%
%LPD*%
G01*
G04 APERTURE LIST*
G04 Aperture macros list*
%AMRoundRect*
0 Rectangle with rounded corners*
0 $1 Rounding radius*
0 $2 $3 $4 $5 $6 $7 $8 $9 X,Y pos of 4 corners*
0 Add a 4 corners polygon primitive as box body*
4,1,4,$2,$3,$4,$5,$6,$7,$8,$9,$2,$3,0*
0 Add four circle primitives for the rounded corners*
1,1,$1+$1,$2,$3*
1,1,$1+$1,$4,$5*
1,1,$1+$1,$6,$7*
1,1,$1+$1,$8,$9*
0 Add four rect primitives between the rounded corners*
20,1,$1+$1,$2,$3,$4,$5,0*
20,1,$1+$1,$4,$5,$6,$7,0*
20,1,$1+$1,$6,$7,$8,$9,0*
20,1,$1+$1,$8,$9,$2,$3,0*%
G04 Aperture macros list end*
%ADD10O,2.400000X1.200000*%
%ADD11R,2.100000X1.050000*%
%ADD12RoundRect,0.135000X0.185000X-0.135000X0.185000X0.135000X-0.185000X0.135000X-0.185000X-0.135000X0*%
%ADD13RoundRect,0.225000X0.250000X-0.225000X0.250000X0.225000X-0.250000X0.225000X-0.250000X-0.225000X0*%
%ADD14R,1.700000X1.700000*%
%ADD15O,1.700000X1.700000*%
%ADD16RoundRect,0.135000X-0.185000X0.135000X-0.185000X-0.135000X0.185000X-0.135000X0.185000X0.135000X0*%
%ADD17R,1.270000X0.558800*%
%ADD18RoundRect,0.140000X0.140000X0.170000X-0.140000X0.170000X-0.140000X-0.170000X0.140000X-0.170000X0*%
%ADD19RoundRect,0.225000X0.225000X0.250000X-0.225000X0.250000X-0.225000X-0.250000X0.225000X-0.250000X0*%
%ADD20RoundRect,0.140000X-0.170000X0.140000X-0.170000X-0.140000X0.170000X-0.140000X0.170000X0.140000X0*%
%ADD21RoundRect,0.135000X0.135000X0.185000X-0.135000X0.185000X-0.135000X-0.185000X0.135000X-0.185000X0*%
%ADD22R,0.700000X1.525000*%
%ADD23RoundRect,0.140000X0.170000X-0.140000X0.170000X0.140000X-0.170000X0.140000X-0.170000X-0.140000X0*%
%ADD24RoundRect,0.225000X-0.250000X0.225000X-0.250000X-0.225000X0.250000X-0.225000X0.250000X0.225000X0*%
%ADD25R,0.650000X1.500000*%
%ADD26RoundRect,0.225000X-0.225000X-0.250000X0.225000X-0.250000X0.225000X0.250000X-0.225000X0.250000X0*%
%ADD27RoundRect,0.140000X-0.140000X-0.170000X0.140000X-0.170000X0.140000X0.170000X-0.140000X0.170000X0*%
%ADD28R,1.650000X0.950000*%
%ADD29R,1.650000X3.250000*%
%ADD30R,2.150000X0.950000*%
%ADD31R,2.150000X3.250000*%
G04 APERTURE END LIST*
D10*
X3700000Y2725000D03*
X3700000Y-2725000D03*
D11*
X6730000Y2425000D03*
X6730000Y-2425000D03*
D12*
X12300000Y-5600000D03*
X12300000Y-4580000D03*
D13*
X18900000Y2725000D03*
X18900000Y4275000D03*
D14*
X6500000Y-8890000D03*
D15*
X9040000Y-8890000D03*
X11580000Y-8890000D03*
X14120000Y-8890000D03*
X16660000Y-8890000D03*
X19200000Y-8890000D03*
X21740000Y-8890000D03*
X24280000Y-8890000D03*
X26820000Y-8890000D03*
X29360000Y-8890000D03*
X31900000Y-8890000D03*
X34440000Y-8890000D03*
X36980000Y-8890000D03*
X39520000Y-8890000D03*
X42060000Y-8890000D03*
X44600000Y-8890000D03*
X47140000Y-8890000D03*
X49680000Y-8890000D03*
X52220000Y-8890000D03*
X54760000Y-8890000D03*
D16*
X40050000Y6360000D03*
X40050000Y5340000D03*
D17*
X16145400Y6339800D03*
X16145400Y5400000D03*
X16145400Y4460200D03*
X13554600Y4460200D03*
X13554600Y5400000D03*
X13554600Y6339800D03*
D18*
X22830000Y4150000D03*
X21870000Y4150000D03*
D16*
X38000000Y6360000D03*
X38000000Y5340000D03*
D19*
X11500000Y5200000D03*
X9950000Y5200000D03*
X32275000Y-3000000D03*
X30725000Y-3000000D03*
X45750000Y-5250000D03*
X44200000Y-5250000D03*
D18*
X11500000Y3900000D03*
X10540000Y3900000D03*
D20*
X34000000Y-4820000D03*
X34000000Y-5780000D03*
D21*
X19610000Y5600000D03*
X18590000Y5600000D03*
D22*
X34190000Y2712000D03*
X35460000Y2712000D03*
X36730000Y2712000D03*
X38000000Y2712000D03*
X39270000Y2712000D03*
X40540000Y2712000D03*
X41810000Y2712000D03*
X41810000Y-2712000D03*
X40540000Y-2712000D03*
X39270000Y-2712000D03*
X38000000Y-2712000D03*
X36730000Y-2712000D03*
X35460000Y-2712000D03*
X34190000Y-2712000D03*
D23*
X20200000Y2420000D03*
X20200000Y3380000D03*
D20*
X20200000Y-2420000D03*
X20200000Y-3380000D03*
D24*
X18900000Y-2725000D03*
X18900000Y-4275000D03*
D25*
X55405000Y-2700000D03*
X54135000Y-2700000D03*
X52865000Y-2700000D03*
X51595000Y-2700000D03*
X51595000Y2700000D03*
X52865000Y2700000D03*
X54135000Y2700000D03*
X55405000Y2700000D03*
D12*
X47650000Y-5250000D03*
X47650000Y-4230000D03*
D18*
X44130000Y-3250000D03*
X43170000Y-3250000D03*
D26*
X46750000Y6250000D03*
X48300000Y6250000D03*
D18*
X15980000Y-4500000D03*
X15020000Y-4500000D03*
D27*
X23340000Y-4200000D03*
X24300000Y-4200000D03*
D16*
X34200000Y6360000D03*
X34200000Y5340000D03*
D12*
X10700000Y-185000D03*
X10700000Y835000D03*
D13*
X49000000Y-4800000D03*
X49000000Y-3250000D03*
D27*
X54890000Y-5250000D03*
X55850000Y-5250000D03*
D23*
X32250000Y1970000D03*
X32250000Y2930000D03*
D13*
X30100000Y1325000D03*
X30100000Y2875000D03*
D12*
X17600000Y4890000D03*
X17600000Y5910000D03*
D20*
X30100000Y80000D03*
X30100000Y-880000D03*
D28*
X21850000Y-2300000D03*
X21850000Y0D03*
X21850000Y2300000D03*
D29*
X28150000Y0D03*
D24*
X32250000Y775000D03*
X32250000Y-775000D03*
D30*
X13100000Y-2300000D03*
X13100000Y0D03*
X13100000Y2300000D03*
D31*
X18900000Y0D03*
D16*
X36000000Y6360000D03*
X36000000Y5340000D03*
D27*
X46750000Y-3250000D03*
X47710000Y-3250000D03*
D18*
X11750000Y6500000D03*
X10790000Y6500000D03*
D14*
X6500000Y8890000D03*
D15*
X9040000Y8890000D03*
X11580000Y8890000D03*
X14120000Y8890000D03*
X16660000Y8890000D03*
X19200000Y8890000D03*
X21740000Y8890000D03*
X24280000Y8890000D03*
X26820000Y8890000D03*
X29360000Y8890000D03*
X31900000Y8890000D03*
X34440000Y8890000D03*
X36980000Y8890000D03*
X39520000Y8890000D03*
X42060000Y8890000D03*
X44600000Y8890000D03*
X47140000Y8890000D03*
X49680000Y8890000D03*
X52220000Y8890000D03*
X54760000Y8890000D03*
M02*
