M48
INCH,TZ
T1C0.0079
T2C0.0098
T3C0.0256
T4C0.0276
T5C0.0394
%
G90
G05
T1
X17195Y496
X17195Y0
X17195Y-496
X17614Y915
X17614Y496
X17614Y0
X17614Y-496
X17614Y-915
X18110Y915
X18110Y496
X18110Y0
X18110Y-496
X18110Y-915
X18606Y915
X18606Y496
X18606Y0
X18606Y-496
X18606Y-915
X19026Y496
X19026Y0
X19026Y-496
T2
X2047Y-512
X2264Y-2067
X2264Y-2264
X2362Y2441
X2362Y2244
X3150Y551
X3386Y1417
X3386Y551
X3386Y128
X4518Y492
X4518Y128
X4528Y1181
X4528Y984
X4528Y787
X4902Y-1476
X4921Y2953
X5579Y-2165
X5720Y1063
X5748Y689
X5748Y-394
X5748Y-1220
X5768Y2598
X5807Y2126
X5807Y-2165
X5913Y-1429
X6063Y3248
X6083Y-1201
X6398Y689
X6398Y394
X6398Y-394
X6398Y-689
X6398Y-2165
X6417Y1378
X6732Y-1358
X6929Y-2165
X7067Y3247
X7126Y1083
X7165Y-1378
X7185Y1378
X7185Y-2165
X7579Y-2165
X7874Y-2165
X8189Y945
X8327Y1339
X8366Y2165
X9252Y1280
X9252Y295
X9252Y-295
X9252Y-571
X9252Y-827
X9252Y-1083
X9843Y2323
X9843Y-2087
X10045Y793
X10045Y-799
X10315Y315
X10315Y0
X10551Y0
X10630Y2323
X10630Y2087
X10630Y-2087
X10630Y-2323
X10827Y787
X10827Y-793
X11417Y2323
X11417Y2087
X11417Y-2087
X11417Y-2323
X12205Y2323
X12205Y2087
X12205Y-2087
X12205Y-2323
X12244Y591
X12402Y787
X12402Y-793
X12717Y-622
X12992Y2323
X12992Y2087
X12992Y1850
X12992Y787
X12992Y-2087
X12992Y-2323
X13271Y-628
X13425Y551
X13780Y2323
X13780Y2087
X13780Y-2087
X13780Y-2323
X13858Y315
X14004Y-238
X14567Y2323
X14567Y2087
X14567Y1850
X14567Y-2087
X14567Y-2323
X14705Y-20
X15258Y481
X15354Y2323
X15354Y2087
X15354Y-1890
X15354Y-2323
X15551Y492
X15564Y-485
X15709Y-669
X16083Y-1870
X16102Y2126
X16142Y-2323
X16346Y1575
X16388Y-1614
X16457Y354
X16457Y126
X16457Y-589
X16457Y597
X16459Y-105
X16469Y-347
X16872Y-1614
X16964Y1969
X17042Y-984
X17106Y-1613
X17192Y1969
X17269Y-1007
X17362Y-1614
X17420Y1969
X17618Y-1614
X17648Y1969
X17801Y-1760
X17877Y1969
X18012Y-1673
X18061Y3228
X18105Y1969
X18248Y-1614
X18406Y1673
X18476Y-1614
X18667Y1673
X18740Y-2638
X18844Y1843
X19014Y1673
X19050Y-3209
X19055Y3228
X19449Y1921
X19783Y1212
X19783Y-197
X19783Y-492
X19783Y-787
X19783Y-1378
X19783Y-1673
X19783Y-1969
X19786Y984
X19786Y329
X19793Y689
X20010Y1949
X20049Y-3209
X20054Y3228
X20313Y-197
X20807Y-394
X20817Y551
X21299Y2323
X21319Y197
X21811Y-1654
X21813Y394
T5
X2559Y3500
X2559Y-3500
X3559Y3500
X3559Y-3500
X4559Y3500
X4559Y-3500
X5559Y3500
X5559Y-3500
X6559Y3500
X6559Y-3500
X7559Y3500
X7559Y-3500
X8559Y3500
X8559Y-3500
X9559Y3500
X9559Y-3500
X10559Y3500
X10559Y-3500
X11559Y3500
X11559Y-3500
X12559Y3500
X12559Y-3500
X13559Y3500
X13559Y-3500
X14559Y3500
X14559Y-3500
X15559Y3500
X15559Y-3500
X16559Y3500
X16559Y-3500
X17559Y3500
X17559Y-3500
X18559Y3500
X18559Y-3500
X19559Y3500
X19559Y-3500
X20559Y3500
X20559Y-3500
X21559Y3500
X21559Y-3500
T3
G00X2728Y955
M15
G01X2571Y955
M16
G05
G00X2728Y-955
M15
G01X2571Y-955
M16
G05
T4
G00X1555Y1073
M15
G01X1358Y1073
M16
G05
G00X1555Y-1073
M15
G01X1358Y-1073
M16
G05
T0
M30
