G04 #@! TF.GenerationSoftware,KiCad,Pcbnew,7.0.7*
G04 #@! TF.CreationDate,2023-08-29T18:05:24+01:00*
G04 #@! TF.ProjectId,NB3_hindbrain,4e42335f-6869-46e6-9462-7261696e2e6b,0.0.1*
G04 #@! TF.SameCoordinates,PX4af0920PY4c4db10*
G04 #@! TF.FileFunction,Soldermask,Top*
G04 #@! TF.FilePolarity,Negative*
%FSLAX46Y46*%
G04 Gerber Fmt 4.6, Leading zero omitted, Abs format (unit mm)*
G04 Created by KiCad (PCBNEW 7.0.7) date 2023-08-29 18:05:24*
%MOMM*%
%LPD*%
G01*
G04 APERTURE LIST*
G04 Aperture macros list*
%AMRoundRect*
0 Rectangle with rounded corners*
0 $1 Rounding radius*
0 $2 $3 $4 $5 $6 $7 $8 $9 X,Y pos of 4 corners*
0 Add a 4 corners polygon primitive as box body*
4,1,4,$2,$3,$4,$5,$6,$7,$8,$9,$2,$3,0*
0 Add four circle primitives for the rounded corners*
1,1,$1+$1,$2,$3*
1,1,$1+$1,$4,$5*
1,1,$1+$1,$6,$7*
1,1,$1+$1,$8,$9*
0 Add four rect primitives between the rounded corners*
20,1,$1+$1,$2,$3,$4,$5,0*
20,1,$1+$1,$4,$5,$6,$7,0*
20,1,$1+$1,$6,$7,$8,$9,0*
20,1,$1+$1,$8,$9,$2,$3,0*%
%AMOutline5P*
0 Free polygon, 5 corners , with rotation*
0 The origin of the aperture is its center*
0 number of corners: always 5*
0 $1 to $10 corner X, Y*
0 $11 Rotation angle, in degrees counterclockwise*
0 create outline with 5 corners*
4,1,5,$1,$2,$3,$4,$5,$6,$7,$8,$9,$10,$1,$2,$11*%
%AMOutline6P*
0 Free polygon, 6 corners , with rotation*
0 The origin of the aperture is its center*
0 number of corners: always 6*
0 $1 to $12 corner X, Y*
0 $13 Rotation angle, in degrees counterclockwise*
0 create outline with 6 corners*
4,1,6,$1,$2,$3,$4,$5,$6,$7,$8,$9,$10,$11,$12,$1,$2,$13*%
%AMOutline7P*
0 Free polygon, 7 corners , with rotation*
0 The origin of the aperture is its center*
0 number of corners: always 7*
0 $1 to $14 corner X, Y*
0 $15 Rotation angle, in degrees counterclockwise*
0 create outline with 7 corners*
4,1,7,$1,$2,$3,$4,$5,$6,$7,$8,$9,$10,$11,$12,$13,$14,$1,$2,$15*%
%AMOutline8P*
0 Free polygon, 8 corners , with rotation*
0 The origin of the aperture is its center*
0 number of corners: always 8*
0 $1 to $16 corner X, Y*
0 $17 Rotation angle, in degrees counterclockwise*
0 create outline with 8 corners*
4,1,8,$1,$2,$3,$4,$5,$6,$7,$8,$9,$10,$11,$12,$13,$14,$15,$16,$1,$2,$17*%
G04 Aperture macros list end*
%ADD10C,0.010000*%
%ADD11RoundRect,0.135000X0.135000X0.185000X-0.135000X0.185000X-0.135000X-0.185000X0.135000X-0.185000X0*%
%ADD12RoundRect,0.147500X0.147500X0.172500X-0.147500X0.172500X-0.147500X-0.172500X0.147500X-0.172500X0*%
%ADD13R,0.370000X0.425000*%
%ADD14R,1.000000X0.800000*%
%ADD15R,0.970000X1.000000*%
%ADD16R,0.370000X0.500000*%
%ADD17R,0.470000X0.500000*%
%ADD18R,0.240000X0.600000*%
%ADD19R,0.600000X0.240000*%
%ADD20Outline5P,-2.575000X2.575000X2.575000X2.575000X2.575000X-1.545000X1.545000X-2.575000X-2.575000X-2.575000X270.000000*%
%ADD21RoundRect,0.135000X-0.185000X0.135000X-0.185000X-0.135000X0.185000X-0.135000X0.185000X0.135000X0*%
%ADD22RoundRect,0.140000X-0.170000X0.140000X-0.170000X-0.140000X0.170000X-0.140000X0.170000X0.140000X0*%
%ADD23RoundRect,0.225000X-0.225000X-0.250000X0.225000X-0.250000X0.225000X0.250000X-0.225000X0.250000X0*%
%ADD24R,0.800000X0.900000*%
%ADD25RoundRect,0.140000X0.170000X-0.140000X0.170000X0.140000X-0.170000X0.140000X-0.170000X-0.140000X0*%
%ADD26R,0.650000X1.650000*%
%ADD27R,1.750000X0.400000*%
%ADD28O,2.400000X1.200000*%
%ADD29R,2.500000X1.425000*%
%ADD30RoundRect,0.135000X-0.135000X-0.185000X0.135000X-0.185000X0.135000X0.185000X-0.135000X0.185000X0*%
%ADD31RoundRect,0.140000X0.140000X0.170000X-0.140000X0.170000X-0.140000X-0.170000X0.140000X-0.170000X0*%
%ADD32R,0.770000X1.070000*%
%ADD33R,0.850000X0.300000*%
%ADD34R,0.300000X0.850000*%
%ADD35R,4.550000X4.550000*%
%ADD36RoundRect,0.225000X-0.250000X0.225000X-0.250000X-0.225000X0.250000X-0.225000X0.250000X0.225000X0*%
%ADD37RoundRect,0.225000X0.250000X-0.225000X0.250000X0.225000X-0.250000X0.225000X-0.250000X-0.225000X0*%
%ADD38R,0.500000X0.600000*%
%ADD39RoundRect,0.135000X0.185000X-0.135000X0.185000X0.135000X-0.185000X0.135000X-0.185000X-0.135000X0*%
%ADD40RoundRect,0.147500X-0.147500X-0.172500X0.147500X-0.172500X0.147500X0.172500X-0.147500X0.172500X0*%
%ADD41R,1.700000X1.700000*%
%ADD42O,1.700000X1.700000*%
G04 APERTURE END LIST*
D10*
X7560000Y1800000D02*
X5900000Y1800000D01*
X5900000Y4000000D01*
X7560000Y4000000D01*
X7560000Y1800000D01*
G36*
X7560000Y1800000D02*
G01*
X5900000Y1800000D01*
X5900000Y4000000D01*
X7560000Y4000000D01*
X7560000Y1800000D01*
G37*
X7560000Y-4000000D02*
X5900000Y-4000000D01*
X5900000Y-1800000D01*
X7560000Y-1800000D01*
X7560000Y-4000000D01*
G36*
X7560000Y-4000000D02*
G01*
X5900000Y-4000000D01*
X5900000Y-1800000D01*
X7560000Y-1800000D01*
X7560000Y-4000000D01*
G37*
X5850000Y1975000D02*
X2900000Y1975000D01*
X2873832Y1975685D01*
X2847736Y1977739D01*
X2821783Y1981156D01*
X2796044Y1985926D01*
X2770590Y1992037D01*
X2745492Y1999472D01*
X2720816Y2008210D01*
X2696632Y2018227D01*
X2673005Y2029497D01*
X2650000Y2041987D01*
X2627680Y2055665D01*
X2606107Y2070492D01*
X2585340Y2086427D01*
X2565435Y2103428D01*
X2546447Y2121447D01*
X2528428Y2140435D01*
X2511427Y2160340D01*
X2495492Y2181107D01*
X2480665Y2202680D01*
X2466987Y2225000D01*
X2454497Y2248005D01*
X2443227Y2271632D01*
X2433210Y2295816D01*
X2424472Y2320492D01*
X2417037Y2345590D01*
X2410926Y2371044D01*
X2406156Y2396783D01*
X2402739Y2422736D01*
X2400685Y2448832D01*
X2400000Y2475000D01*
X2400000Y2975000D01*
X2400685Y3001168D01*
X2402739Y3027264D01*
X2406156Y3053217D01*
X2410926Y3078956D01*
X2417037Y3104410D01*
X2424472Y3129508D01*
X2433210Y3154184D01*
X2443227Y3178368D01*
X2454497Y3201995D01*
X2466987Y3225000D01*
X2480665Y3247320D01*
X2495492Y3268893D01*
X2511427Y3289660D01*
X2528428Y3309565D01*
X2546447Y3328553D01*
X2565435Y3346572D01*
X2585340Y3363573D01*
X2606107Y3379508D01*
X2627680Y3394335D01*
X2650000Y3408013D01*
X2673005Y3420503D01*
X2696632Y3431773D01*
X2720816Y3441790D01*
X2745492Y3450528D01*
X2770590Y3457963D01*
X2796044Y3464074D01*
X2821783Y3468844D01*
X2847736Y3472261D01*
X2873832Y3474315D01*
X2900000Y3475000D01*
X4950000Y3475000D01*
X4950000Y4000000D01*
X5850000Y4000000D01*
X5850000Y1975000D01*
G36*
X5850000Y1975000D02*
G01*
X2900000Y1975000D01*
X2873832Y1975685D01*
X2847736Y1977739D01*
X2821783Y1981156D01*
X2796044Y1985926D01*
X2770590Y1992037D01*
X2745492Y1999472D01*
X2720816Y2008210D01*
X2696632Y2018227D01*
X2673005Y2029497D01*
X2650000Y2041987D01*
X2627680Y2055665D01*
X2606107Y2070492D01*
X2585340Y2086427D01*
X2565435Y2103428D01*
X2546447Y2121447D01*
X2528428Y2140435D01*
X2511427Y2160340D01*
X2495492Y2181107D01*
X2480665Y2202680D01*
X2466987Y2225000D01*
X2454497Y2248005D01*
X2443227Y2271632D01*
X2433210Y2295816D01*
X2424472Y2320492D01*
X2417037Y2345590D01*
X2410926Y2371044D01*
X2406156Y2396783D01*
X2402739Y2422736D01*
X2400685Y2448832D01*
X2400000Y2475000D01*
X2400000Y2975000D01*
X2400685Y3001168D01*
X2402739Y3027264D01*
X2406156Y3053217D01*
X2410926Y3078956D01*
X2417037Y3104410D01*
X2424472Y3129508D01*
X2433210Y3154184D01*
X2443227Y3178368D01*
X2454497Y3201995D01*
X2466987Y3225000D01*
X2480665Y3247320D01*
X2495492Y3268893D01*
X2511427Y3289660D01*
X2528428Y3309565D01*
X2546447Y3328553D01*
X2565435Y3346572D01*
X2585340Y3363573D01*
X2606107Y3379508D01*
X2627680Y3394335D01*
X2650000Y3408013D01*
X2673005Y3420503D01*
X2696632Y3431773D01*
X2720816Y3441790D01*
X2745492Y3450528D01*
X2770590Y3457963D01*
X2796044Y3464074D01*
X2821783Y3468844D01*
X2847736Y3472261D01*
X2873832Y3474315D01*
X2900000Y3475000D01*
X4950000Y3475000D01*
X4950000Y4000000D01*
X5850000Y4000000D01*
X5850000Y1975000D01*
G37*
X5850000Y-4000000D02*
X4950000Y-4000000D01*
X4950000Y-3475000D01*
X2900000Y-3475000D01*
X2873832Y-3474315D01*
X2847736Y-3472261D01*
X2821783Y-3468844D01*
X2796044Y-3464074D01*
X2770590Y-3457963D01*
X2745492Y-3450528D01*
X2720816Y-3441790D01*
X2696632Y-3431773D01*
X2673005Y-3420503D01*
X2650000Y-3408013D01*
X2627680Y-3394335D01*
X2606107Y-3379508D01*
X2585340Y-3363573D01*
X2565435Y-3346572D01*
X2546447Y-3328553D01*
X2528428Y-3309565D01*
X2511427Y-3289660D01*
X2495492Y-3268893D01*
X2480665Y-3247320D01*
X2466987Y-3225000D01*
X2454497Y-3201995D01*
X2443227Y-3178368D01*
X2433210Y-3154184D01*
X2424472Y-3129508D01*
X2417037Y-3104410D01*
X2410926Y-3078956D01*
X2406156Y-3053217D01*
X2402739Y-3027264D01*
X2400685Y-3001168D01*
X2400000Y-2975000D01*
X2400000Y-2475000D01*
X2400685Y-2448832D01*
X2402739Y-2422736D01*
X2406156Y-2396783D01*
X2410926Y-2371044D01*
X2417037Y-2345590D01*
X2424472Y-2320492D01*
X2433210Y-2295816D01*
X2443227Y-2271632D01*
X2454497Y-2248005D01*
X2466987Y-2225000D01*
X2480665Y-2202680D01*
X2495492Y-2181107D01*
X2511427Y-2160340D01*
X2528428Y-2140435D01*
X2546447Y-2121447D01*
X2565435Y-2103428D01*
X2585340Y-2086427D01*
X2606107Y-2070492D01*
X2627680Y-2055665D01*
X2650000Y-2041987D01*
X2673005Y-2029497D01*
X2696632Y-2018227D01*
X2720816Y-2008210D01*
X2745492Y-1999472D01*
X2770590Y-1992037D01*
X2796044Y-1985926D01*
X2821783Y-1981156D01*
X2847736Y-1977739D01*
X2873832Y-1975685D01*
X2900000Y-1975000D01*
X5850000Y-1975000D01*
X5850000Y-4000000D01*
G36*
X5850000Y-4000000D02*
G01*
X4950000Y-4000000D01*
X4950000Y-3475000D01*
X2900000Y-3475000D01*
X2873832Y-3474315D01*
X2847736Y-3472261D01*
X2821783Y-3468844D01*
X2796044Y-3464074D01*
X2770590Y-3457963D01*
X2745492Y-3450528D01*
X2720816Y-3441790D01*
X2696632Y-3431773D01*
X2673005Y-3420503D01*
X2650000Y-3408013D01*
X2627680Y-3394335D01*
X2606107Y-3379508D01*
X2585340Y-3363573D01*
X2565435Y-3346572D01*
X2546447Y-3328553D01*
X2528428Y-3309565D01*
X2511427Y-3289660D01*
X2495492Y-3268893D01*
X2480665Y-3247320D01*
X2466987Y-3225000D01*
X2454497Y-3201995D01*
X2443227Y-3178368D01*
X2433210Y-3154184D01*
X2424472Y-3129508D01*
X2417037Y-3104410D01*
X2410926Y-3078956D01*
X2406156Y-3053217D01*
X2402739Y-3027264D01*
X2400685Y-3001168D01*
X2400000Y-2975000D01*
X2400000Y-2475000D01*
X2400685Y-2448832D01*
X2402739Y-2422736D01*
X2406156Y-2396783D01*
X2410926Y-2371044D01*
X2417037Y-2345590D01*
X2424472Y-2320492D01*
X2433210Y-2295816D01*
X2443227Y-2271632D01*
X2454497Y-2248005D01*
X2466987Y-2225000D01*
X2480665Y-2202680D01*
X2495492Y-2181107D01*
X2511427Y-2160340D01*
X2528428Y-2140435D01*
X2546447Y-2121447D01*
X2565435Y-2103428D01*
X2585340Y-2086427D01*
X2606107Y-2070492D01*
X2627680Y-2055665D01*
X2650000Y-2041987D01*
X2673005Y-2029497D01*
X2696632Y-2018227D01*
X2720816Y-2008210D01*
X2745492Y-1999472D01*
X2770590Y-1992037D01*
X2796044Y-1985926D01*
X2821783Y-1981156D01*
X2847736Y-1977739D01*
X2873832Y-1975685D01*
X2900000Y-1975000D01*
X5850000Y-1975000D01*
X5850000Y-4000000D01*
G37*
D11*
X38510000Y7000000D03*
X37490000Y7000000D03*
D12*
X36485000Y-3000000D03*
X35515000Y-3000000D03*
D11*
X26510000Y-7000000D03*
X25490000Y-7000000D03*
D13*
X9837000Y-175000D03*
X9837000Y325000D03*
X9837000Y825000D03*
X9163000Y825000D03*
X9163000Y325000D03*
X9163000Y-175000D03*
D11*
X28510000Y4000000D03*
X27490000Y4000000D03*
D14*
X32250000Y550000D03*
X33750000Y550000D03*
X33750000Y-550000D03*
X32250000Y-550000D03*
D11*
X20520000Y6000000D03*
X19500000Y6000000D03*
X32510000Y-7000000D03*
X31490000Y-7000000D03*
X32510000Y4000000D03*
X31490000Y4000000D03*
X36510000Y-4000000D03*
X35490000Y-4000000D03*
D15*
X8525000Y-1950000D03*
X8525000Y-3420000D03*
D16*
X29600000Y-5900000D03*
X30400000Y-5900000D03*
D17*
X30000000Y-5100000D03*
D16*
X36400000Y5900000D03*
X35600000Y5900000D03*
D17*
X36000000Y5100000D03*
D18*
X48750000Y3400000D03*
X48250000Y3400000D03*
X47750000Y3400000D03*
X47250000Y3400000D03*
X46750000Y3400000D03*
X46250000Y3400000D03*
X45750000Y3400000D03*
X45250000Y3400000D03*
X44750000Y3400000D03*
X44250000Y3400000D03*
X43750000Y3400000D03*
X43250000Y3400000D03*
D19*
X42600000Y2750000D03*
X42600000Y2250000D03*
X42600000Y1750000D03*
X42600000Y1250000D03*
X42600000Y750000D03*
X42600000Y250000D03*
X42600000Y-250000D03*
X42600000Y-750000D03*
X42600000Y-1250000D03*
X42600000Y-1750000D03*
X42600000Y-2250000D03*
X42600000Y-2750000D03*
D18*
X43250000Y-3400000D03*
X43750000Y-3400000D03*
X44250000Y-3400000D03*
X44750000Y-3400000D03*
X45250000Y-3400000D03*
X45750000Y-3400000D03*
X46250000Y-3400000D03*
X46750000Y-3400000D03*
X47250000Y-3400000D03*
X47750000Y-3400000D03*
X48250000Y-3400000D03*
X48750000Y-3400000D03*
D19*
X49400000Y-2750000D03*
X49400000Y-2250000D03*
X49400000Y-1750000D03*
X49400000Y-1250000D03*
X49400000Y-750000D03*
X49400000Y-250000D03*
X49400000Y250000D03*
X49400000Y750000D03*
X49400000Y1250000D03*
X49400000Y1750000D03*
X49400000Y2250000D03*
X49400000Y2750000D03*
D20*
X46000000Y0D03*
D12*
X26485000Y-3000000D03*
X25515000Y-3000000D03*
D11*
X30510000Y7000000D03*
X29490000Y7000000D03*
X38510000Y-4000000D03*
X37490000Y-4000000D03*
D12*
X30485000Y-3000000D03*
X29515000Y-3000000D03*
D16*
X31600000Y-5900000D03*
X32400000Y-5900000D03*
D17*
X32000000Y-5100000D03*
D21*
X14100000Y7110000D03*
X14100000Y6090000D03*
D22*
X46750000Y5960000D03*
X46750000Y5000000D03*
D12*
X30485000Y3000000D03*
X29515000Y3000000D03*
D11*
X40510000Y4000000D03*
X39490000Y4000000D03*
X26510000Y4000000D03*
X25490000Y4000000D03*
D12*
X32485000Y-3000000D03*
X31515000Y-3000000D03*
D11*
X40510000Y-7000000D03*
X39490000Y-7000000D03*
X34510000Y-4000000D03*
X33490000Y-4000000D03*
D22*
X12750000Y6710000D03*
X12750000Y5750000D03*
D23*
X54625000Y-6600000D03*
X56175000Y-6600000D03*
D21*
X52850000Y6510000D03*
X52850000Y5490000D03*
D24*
X37775000Y-925000D03*
X37775000Y925000D03*
X36325000Y925000D03*
X36325000Y-925000D03*
D25*
X12325000Y-2730000D03*
X12325000Y-1770000D03*
D26*
X55405000Y3600000D03*
X54135000Y3600000D03*
X52865000Y3600000D03*
X51595000Y3600000D03*
X51595000Y-3600000D03*
X52865000Y-3600000D03*
X54135000Y-3600000D03*
X55405000Y-3600000D03*
D16*
X39600000Y-5900000D03*
X40400000Y-5900000D03*
D17*
X40000000Y-5100000D03*
D11*
X26510000Y7000000D03*
X25490000Y7000000D03*
X50702400Y-7340600D03*
X49682400Y-7340600D03*
X48162400Y-7340600D03*
X47142400Y-7340600D03*
X26510000Y-4000000D03*
X25490000Y-4000000D03*
D16*
X40400000Y5900000D03*
X39600000Y5900000D03*
D17*
X40000000Y5100000D03*
D16*
X34400000Y5900000D03*
X33600000Y5900000D03*
D17*
X34000000Y5100000D03*
D21*
X15200000Y7110000D03*
X15200000Y6090000D03*
D12*
X40485000Y3000000D03*
X39515000Y3000000D03*
D27*
X6525000Y1300000D03*
X6525000Y650000D03*
X6525000Y0D03*
X6525000Y-650000D03*
X6525000Y-1300000D03*
D28*
X3700000Y2725000D03*
X3700000Y-2725000D03*
D29*
X3450000Y962500D03*
X3450000Y-962500D03*
D12*
X34485000Y3000000D03*
X33515000Y3000000D03*
D16*
X32400000Y5900000D03*
X31600000Y5900000D03*
D17*
X32000000Y5100000D03*
D15*
X8525000Y4765000D03*
X8525000Y6235000D03*
D30*
X2538000Y10160000D03*
X3558000Y10160000D03*
D11*
X48162400Y7350000D03*
X47142400Y7350000D03*
D12*
X34485000Y-3000000D03*
X33515000Y-3000000D03*
X32485000Y3000000D03*
X31515000Y3000000D03*
D25*
X47600000Y-5980000D03*
X47600000Y-5020000D03*
D16*
X28400000Y5900000D03*
X27600000Y5900000D03*
D17*
X28000000Y5100000D03*
D31*
X22230000Y-5750000D03*
X21270000Y-5750000D03*
D12*
X19685000Y7200000D03*
X18715000Y7200000D03*
D21*
X53300000Y-5580000D03*
X53300000Y-6600000D03*
D16*
X30400000Y5900000D03*
X29600000Y5900000D03*
D17*
X30000000Y5100000D03*
D32*
X8600000Y2500000D03*
X10400000Y2500000D03*
D21*
X55400000Y6510000D03*
X55400000Y5490000D03*
D16*
X35600000Y-5900000D03*
X36400000Y-5900000D03*
D17*
X36000000Y-5100000D03*
D11*
X40510000Y-4000000D03*
X39490000Y-4000000D03*
X36510000Y7000000D03*
X35490000Y7000000D03*
X32510000Y7000000D03*
X31490000Y7000000D03*
X28510000Y-7000000D03*
X27490000Y-7000000D03*
X38500000Y-7000000D03*
X37480000Y-7000000D03*
D12*
X38485000Y-3000000D03*
X37515000Y-3000000D03*
X28485000Y-3000000D03*
X27515000Y-3000000D03*
D11*
X40510000Y7000000D03*
X39490000Y7000000D03*
X28510000Y7000000D03*
X27490000Y7000000D03*
D30*
X17480000Y6000000D03*
X18500000Y6000000D03*
D11*
X28510000Y-4000000D03*
X27490000Y-4000000D03*
X30510000Y-7000000D03*
X29490000Y-7000000D03*
D33*
X13550000Y3750000D03*
X13550000Y3250000D03*
X13550000Y2750000D03*
X13550000Y2250000D03*
X13550000Y1750000D03*
X13550000Y1250000D03*
X13550000Y750000D03*
X13550000Y250000D03*
X13550000Y-250000D03*
X13550000Y-750000D03*
X13550000Y-1250000D03*
X13550000Y-1750000D03*
X13550000Y-2250000D03*
X13550000Y-2750000D03*
X13550000Y-3250000D03*
X13550000Y-3750000D03*
D34*
X14250000Y-4450000D03*
X14750000Y-4450000D03*
X15250000Y-4450000D03*
X15750000Y-4450000D03*
X16250000Y-4450000D03*
X16750000Y-4450000D03*
X17250000Y-4450000D03*
X17750000Y-4450000D03*
X18250000Y-4450000D03*
X18750000Y-4450000D03*
X19250000Y-4450000D03*
X19750000Y-4450000D03*
X20250000Y-4450000D03*
X20750000Y-4450000D03*
X21250000Y-4450000D03*
X21750000Y-4450000D03*
D33*
X22450000Y-3750000D03*
X22450000Y-3250000D03*
X22450000Y-2750000D03*
X22450000Y-2250000D03*
X22450000Y-1750000D03*
X22450000Y-1250000D03*
X22450000Y-750000D03*
X22450000Y-250000D03*
X22450000Y250000D03*
X22450000Y750000D03*
X22450000Y1250000D03*
X22450000Y1750000D03*
X22450000Y2250000D03*
X22450000Y2750000D03*
X22450000Y3250000D03*
X22450000Y3750000D03*
D34*
X21750000Y4450000D03*
X21250000Y4450000D03*
X20750000Y4450000D03*
X20250000Y4450000D03*
X19750000Y4450000D03*
X19250000Y4450000D03*
X18750000Y4450000D03*
X18250000Y4450000D03*
X17750000Y4450000D03*
X17250000Y4450000D03*
X16750000Y4450000D03*
X16250000Y4450000D03*
X15750000Y4450000D03*
X15250000Y4450000D03*
X14750000Y4450000D03*
X14250000Y4450000D03*
D35*
X18000000Y0D03*
D11*
X30510000Y4000000D03*
X29490000Y4000000D03*
D31*
X55860000Y-5250000D03*
X54900000Y-5250000D03*
D11*
X36510000Y-7000000D03*
X35490000Y-7000000D03*
D36*
X10075000Y-1900000D03*
X10075000Y-3450000D03*
D22*
X48750000Y5980000D03*
X48750000Y5020000D03*
D12*
X40485000Y-3000000D03*
X39515000Y-3000000D03*
D16*
X33600000Y-5900000D03*
X34400000Y-5900000D03*
D17*
X34000000Y-5100000D03*
D25*
X11400000Y4720000D03*
X11400000Y5680000D03*
D16*
X26400000Y5900000D03*
X25600000Y5900000D03*
D17*
X26000000Y5100000D03*
D11*
X30510000Y-4000000D03*
X29490000Y-4000000D03*
D12*
X17185000Y7200000D03*
X16215000Y7200000D03*
D11*
X34510000Y4000000D03*
X33490000Y4000000D03*
D37*
X10100000Y4725000D03*
X10100000Y6275000D03*
D38*
X40750000Y1050000D03*
X40750000Y-1050000D03*
D11*
X34510000Y7000000D03*
X33490000Y7000000D03*
X32510000Y-4000000D03*
X31490000Y-4000000D03*
D25*
X39100000Y-480000D03*
X39100000Y480000D03*
D11*
X34510000Y-7000000D03*
X33490000Y-7000000D03*
D22*
X11350000Y-1770000D03*
X11350000Y-2730000D03*
D25*
X45750000Y-5960000D03*
X45750000Y-5000000D03*
D11*
X50702400Y7366000D03*
X49682400Y7366000D03*
D16*
X25600000Y-5900000D03*
X26400000Y-5900000D03*
D17*
X26000000Y-5100000D03*
D16*
X38400000Y5900000D03*
X37600000Y5900000D03*
D17*
X38000000Y5100000D03*
D39*
X17600000Y-7270000D03*
X17600000Y-6250000D03*
D12*
X28485000Y3000000D03*
X27515000Y3000000D03*
D16*
X37600000Y-5900000D03*
X38400000Y-5900000D03*
D17*
X38000000Y-5100000D03*
D12*
X26485000Y3000000D03*
X25515000Y3000000D03*
D23*
X22325000Y6100000D03*
X23875000Y6100000D03*
D12*
X38485000Y3000000D03*
X37515000Y3000000D03*
X36485000Y3000000D03*
X35515000Y3000000D03*
D11*
X38510000Y4000000D03*
X37490000Y4000000D03*
D36*
X42600000Y-5100000D03*
X42600000Y-6650000D03*
D16*
X27600000Y-5900000D03*
X28400000Y-5900000D03*
D17*
X28000000Y-5100000D03*
D40*
X2563000Y8900000D03*
X3533000Y8900000D03*
D11*
X36510000Y4000000D03*
X35490000Y4000000D03*
D41*
X6500000Y-8890000D03*
D42*
X9040000Y-8890000D03*
X11580000Y-8890000D03*
X14120000Y-8890000D03*
X16660000Y-8890000D03*
X19200000Y-8890000D03*
X21740000Y-8890000D03*
X24280000Y-8890000D03*
X26820000Y-8890000D03*
X29360000Y-8890000D03*
X31900000Y-8890000D03*
X34440000Y-8890000D03*
X36980000Y-8890000D03*
X39520000Y-8890000D03*
X42060000Y-8890000D03*
X44600000Y-8890000D03*
X47140000Y-8890000D03*
X49680000Y-8890000D03*
X52220000Y-8890000D03*
X54760000Y-8890000D03*
D41*
X6500000Y8890000D03*
D42*
X9040000Y8890000D03*
X11580000Y8890000D03*
X14120000Y8890000D03*
X16660000Y8890000D03*
X19200000Y8890000D03*
X21740000Y8890000D03*
X24280000Y8890000D03*
X26820000Y8890000D03*
X29360000Y8890000D03*
X31900000Y8890000D03*
X34440000Y8890000D03*
X36980000Y8890000D03*
X39520000Y8890000D03*
X42060000Y8890000D03*
X44600000Y8890000D03*
X47140000Y8890000D03*
X49680000Y8890000D03*
X52220000Y8890000D03*
X54760000Y8890000D03*
M02*
