G04 #@! TF.GenerationSoftware,KiCad,Pcbnew,7.0.7*
G04 #@! TF.CreationDate,2023-08-29T18:05:24+01:00*
G04 #@! TF.ProjectId,NB3_hindbrain,4e42335f-6869-46e6-9462-7261696e2e6b,0.0.1*
G04 #@! TF.SameCoordinates,PX4af0920PY4c4db10*
G04 #@! TF.FileFunction,Copper,L3,Inr*
G04 #@! TF.FilePolarity,Positive*
%FSLAX46Y46*%
G04 Gerber Fmt 4.6, Leading zero omitted, Abs format (unit mm)*
G04 Created by KiCad (PCBNEW 7.0.7) date 2023-08-29 18:05:24*
%MOMM*%
%LPD*%
G01*
G04 APERTURE LIST*
G04 #@! TA.AperFunction,ComponentPad*
%ADD10C,0.450000*%
G04 #@! TD*
G04 #@! TA.AperFunction,ComponentPad*
%ADD11O,1.460000X0.730000*%
G04 #@! TD*
G04 #@! TA.AperFunction,ComponentPad*
%ADD12O,2.400000X1.200000*%
G04 #@! TD*
G04 #@! TA.AperFunction,ComponentPad*
%ADD13R,1.700000X1.700000*%
G04 #@! TD*
G04 #@! TA.AperFunction,ComponentPad*
%ADD14O,1.700000X1.700000*%
G04 #@! TD*
G04 #@! TA.AperFunction,ViaPad*
%ADD15C,0.450000*%
G04 #@! TD*
G04 #@! TA.AperFunction,Conductor*
%ADD16C,0.250000*%
G04 #@! TD*
G04 #@! TA.AperFunction,Conductor*
%ADD17C,0.200000*%
G04 #@! TD*
G04 #@! TA.AperFunction,Conductor*
%ADD18C,0.500000*%
G04 #@! TD*
G04 #@! TA.AperFunction,Conductor*
%ADD19C,0.130000*%
G04 #@! TD*
G04 APERTURE END LIST*
D10*
X46000000Y0D03*
X47260000Y0D03*
X47260000Y-1260000D03*
X46000000Y-1260000D03*
X44740000Y-1260000D03*
X47260000Y1260000D03*
X46000000Y1260000D03*
X44740000Y1260000D03*
X44740000Y0D03*
X48325000Y0D03*
X48325000Y-1260000D03*
X43675000Y-1260000D03*
X43675000Y0D03*
X43675000Y1260000D03*
X47260000Y-2325000D03*
X46000000Y-2325000D03*
X44740000Y-2325000D03*
X47260000Y2325000D03*
X46000000Y2325000D03*
X44740000Y2325000D03*
X48325000Y1260000D03*
D11*
X6730000Y2425000D03*
X6730000Y-2425000D03*
D12*
X3700000Y2725000D03*
X3700000Y-2725000D03*
D13*
X6500000Y-8890000D03*
D14*
X9040000Y-8890000D03*
X11580000Y-8890000D03*
X14120000Y-8890000D03*
X16660000Y-8890000D03*
X19200000Y-8890000D03*
X21740000Y-8890000D03*
X24280000Y-8890000D03*
X26820000Y-8890000D03*
X29360000Y-8890000D03*
X31900000Y-8890000D03*
X34440000Y-8890000D03*
X36980000Y-8890000D03*
X39520000Y-8890000D03*
X42060000Y-8890000D03*
X44600000Y-8890000D03*
X47140000Y-8890000D03*
X49680000Y-8890000D03*
X52220000Y-8890000D03*
X54760000Y-8890000D03*
D13*
X6500000Y8890000D03*
D14*
X9040000Y8890000D03*
X11580000Y8890000D03*
X14120000Y8890000D03*
X16660000Y8890000D03*
X19200000Y8890000D03*
X21740000Y8890000D03*
X24280000Y8890000D03*
X26820000Y8890000D03*
X29360000Y8890000D03*
X31900000Y8890000D03*
X34440000Y8890000D03*
X36980000Y8890000D03*
X39520000Y8890000D03*
X42060000Y8890000D03*
X44600000Y8890000D03*
X47140000Y8890000D03*
X49680000Y8890000D03*
X52220000Y8890000D03*
X54760000Y8890000D03*
D15*
X50248907Y3079447D03*
X50256880Y2500000D03*
X50274965Y1750000D03*
X50256880Y836383D03*
X11475000Y1250000D03*
X14600000Y-3100000D03*
X11500000Y3000000D03*
X11500000Y2000000D03*
X11500000Y2500000D03*
X29000000Y-5900000D03*
X21150000Y3400000D03*
X35000000Y5900000D03*
X33000000Y5900000D03*
X14600000Y1750000D03*
X25000000Y5900000D03*
X35000000Y-5900000D03*
X16250000Y1000000D03*
X31000000Y-5900000D03*
X18250000Y-5500000D03*
X27000000Y-5900000D03*
X31000000Y5900000D03*
X12500000Y7500000D03*
X16250000Y-1000000D03*
X27000000Y5900000D03*
X16250000Y1750000D03*
X23500000Y3250000D03*
X23500000Y-2750000D03*
X39000000Y-5900000D03*
X11475000Y325000D03*
X16250000Y-1750000D03*
X41000000Y-5900000D03*
X29000000Y5900000D03*
X5200000Y-1300000D03*
X37000000Y5900000D03*
X14600000Y-1000000D03*
X37000000Y-5900000D03*
X37350000Y-50000D03*
X39000000Y5900000D03*
X33000000Y-5900000D03*
X26200000Y800000D03*
X35200000Y800000D03*
X40850000Y-4750000D03*
X14529502Y2700000D03*
X50250000Y-4250000D03*
X45750000Y-4250000D03*
X26800000Y0D03*
X26200000Y0D03*
X46750000Y4250000D03*
X54100000Y5900000D03*
X25515000Y-2030000D03*
X27500000Y2000000D03*
X15020000Y-3630000D03*
X5750000Y-5750000D03*
X19250000Y-5500000D03*
X18250000Y3500000D03*
X39532147Y-1232147D03*
X31100000Y1500000D03*
X43863569Y-2558669D03*
X31500000Y-2015000D03*
X5750000Y-5250000D03*
X27500000Y-2015000D03*
X23500000Y750000D03*
X15400000Y8250000D03*
X6000000Y5700000D03*
X20000000Y-5500000D03*
X17100000Y-3450000D03*
X55400000Y-4200000D03*
X21250000Y5500000D03*
X20800000Y2400000D03*
X25515000Y2015000D03*
X18100000Y2750000D03*
X31500000Y2000000D03*
X49400000Y4880500D03*
X33000000Y2000000D03*
X39500000Y1250000D03*
X6000000Y6200000D03*
X17950000Y8246632D03*
X23500000Y-2100000D03*
X32300000Y-1579500D03*
X50250000Y-500000D03*
X34100000Y1400000D03*
X50250000Y-1250000D03*
X33708089Y-1595500D03*
X50250000Y-2000000D03*
X40900000Y5400000D03*
X12450000Y-3750000D03*
X52850000Y-1000000D03*
X14170497Y-5500000D03*
X51595000Y-500000D03*
X41519500Y4000000D03*
X25000000Y-5300000D03*
X50250000Y-3500000D03*
X54150000Y500000D03*
X41800000Y900000D03*
X14750000Y-5500000D03*
X50250000Y-5000000D03*
X27000000Y-5300000D03*
X29000000Y-5300000D03*
X46929503Y-4100000D03*
X14649934Y6600000D03*
X14750000Y5399994D03*
X46350000Y-4100000D03*
X31000000Y-5300000D03*
X44750000Y-4100000D03*
X33000000Y-5300000D03*
X44100000Y-4100000D03*
X35000000Y-5300000D03*
X37000000Y-5300000D03*
X43450447Y-4097316D03*
X39000000Y-4800000D03*
X42854500Y-4100000D03*
X41801424Y1515312D03*
X16250000Y-5500000D03*
X55405000Y1000000D03*
X15450000Y-3050000D03*
X17600000Y-5500000D03*
X44827018Y5000000D03*
X23500000Y-1450000D03*
X23500000Y-750000D03*
X16300000Y3500000D03*
X43088509Y5000000D03*
X39000000Y5300000D03*
X43668012Y5000000D03*
X37000000Y5300000D03*
X44247515Y5000000D03*
X35000000Y5300000D03*
X41830174Y-880174D03*
X41625000Y-4100000D03*
X45406521Y5000000D03*
X18200000Y-3500000D03*
X45986024Y5000000D03*
X33000000Y5300000D03*
X31000000Y5300000D03*
X47414058Y4250000D03*
X47864856Y4681994D03*
X29000000Y5300000D03*
X48295500Y4250000D03*
X27000000Y5300000D03*
X43287181Y-2498666D03*
X45875000Y8200000D03*
X50825000Y4950000D03*
X8600000Y3600000D03*
X8600000Y1400000D03*
X8600000Y325000D03*
X8000000Y1400000D03*
X50937600Y8200000D03*
X33000000Y4700000D03*
X50925200Y-8150000D03*
X35570498Y-604500D03*
X37000000Y4700000D03*
X48400000Y8200000D03*
X38754500Y1222553D03*
X48387600Y-8150000D03*
X47600000Y-6700000D03*
X45214499Y-4471500D03*
X41800000Y320497D03*
X41806841Y-265918D03*
X39900000Y-1700000D03*
X41800000Y-1495500D03*
X52875000Y1400000D03*
D16*
X41000000Y-5900000D02*
X27000000Y-5900000D01*
X39000000Y5900000D02*
X25000000Y5900000D01*
D17*
X49500000Y-5000000D02*
X50250000Y-4250000D01*
X41100000Y-5000000D02*
X49500000Y-5000000D01*
X35200000Y800000D02*
X26200000Y800000D01*
X40850000Y-4750000D02*
X41100000Y-5000000D01*
D18*
X36675000Y0D02*
X26200000Y0D01*
X45745000Y-3849400D02*
X45745000Y-4146401D01*
X45095600Y-3200000D02*
X45745000Y-3849400D01*
X36675000Y225000D02*
X36675000Y0D01*
X36675000Y-275000D02*
X39600000Y-3200000D01*
X45700000Y3200000D02*
X39650000Y3200000D01*
X46750000Y4250000D02*
X45700000Y3200000D01*
X36675000Y0D02*
X36675000Y-275000D01*
X39650000Y3200000D02*
X36675000Y225000D01*
X39600000Y-3200000D02*
X45095600Y-3200000D01*
D19*
X19250000Y-5500000D02*
X19250000Y-4250000D01*
X41070128Y5570128D02*
X50954872Y5570128D01*
X52350000Y4175000D02*
X52350000Y-500000D01*
X52350000Y-500000D02*
X52850000Y-1000000D01*
X40900000Y5400000D02*
X41070128Y5570128D01*
X50954872Y5570128D02*
X52350000Y4175000D01*
X51595000Y3505000D02*
X51595000Y-500000D01*
X45579994Y4000000D02*
X46879994Y5300000D01*
X49800000Y5300000D02*
X51595000Y3505000D01*
X41519500Y4000000D02*
X45579994Y4000000D01*
X46879994Y5300000D02*
X49800000Y5300000D01*
X14120000Y6620000D02*
X14120000Y8890000D01*
X17600000Y-5500000D02*
X17600000Y-5200000D01*
X17600000Y-5200000D02*
X15450000Y-3050000D01*
X15450000Y2650000D02*
X13450000Y4650000D01*
X13450000Y4650000D02*
X13450000Y5950000D01*
X15450000Y-3050000D02*
X15450000Y2650000D01*
X13450000Y5950000D02*
X14120000Y6620000D01*
X22200000Y-1450000D02*
X19240000Y1510000D01*
X19240000Y6310000D02*
X16660000Y8890000D01*
X19240000Y1510000D02*
X19240000Y6310000D01*
X23500000Y-1450000D02*
X22200000Y-1450000D01*
X23500000Y-750000D02*
X22250000Y-750000D01*
X22250000Y-750000D02*
X19750000Y1750000D01*
X19750000Y1750000D02*
X19750000Y8340000D01*
X45275000Y7600000D02*
X43350000Y7600000D01*
X45875000Y8200000D02*
X45275000Y7600000D01*
X43350000Y7600000D02*
X42060000Y8890000D01*
X40480000Y4780000D02*
X39720000Y4020000D01*
X48567728Y5830128D02*
X40736158Y5830128D01*
X50937600Y8200000D02*
X48567728Y5830128D01*
X40480000Y5573970D02*
X40480000Y4780000D01*
X40736158Y5830128D02*
X40480000Y5573970D01*
X39720000Y4020000D02*
X33680000Y4020000D01*
X33680000Y4020000D02*
X33000000Y4700000D01*
X49000000Y-6500000D02*
X47980000Y-5480000D01*
X50925200Y-7425200D02*
X50000000Y-6500000D01*
X47980000Y-5480000D02*
X39086030Y-5480000D01*
X50925200Y-8150000D02*
X50925200Y-7425200D01*
X39086030Y-5480000D02*
X35570498Y-1964468D01*
X35570498Y-1964468D02*
X35570498Y-604500D01*
X50000000Y-6500000D02*
X49000000Y-6500000D01*
X48400000Y8200000D02*
X46290128Y6090128D01*
X40220000Y4887696D02*
X39612304Y4280000D01*
X39612304Y4280000D02*
X37420000Y4280000D01*
X37420000Y4280000D02*
X37000000Y4700000D01*
X40628463Y6090129D02*
X40220000Y5681666D01*
X46290128Y6090128D02*
X40628463Y6090129D01*
X40220000Y5681666D02*
X40220000Y4887696D01*
X39900000Y-1700000D02*
X40104500Y-1495500D01*
X40104500Y-1495500D02*
X41800000Y-1495500D01*
G04 #@! TA.AperFunction,Conductor*
G36*
X49578126Y4706815D02*
G01*
X49598768Y4690181D01*
X50266762Y4022187D01*
X50300247Y3960864D01*
X50295263Y3891172D01*
X50253391Y3835239D01*
X50192965Y3811286D01*
X50084660Y3799083D01*
X49928638Y3744489D01*
X49788683Y3656549D01*
X49671805Y3539671D01*
X49583865Y3399716D01*
X49529271Y3243694D01*
X49510766Y3079451D01*
X49510766Y3079445D01*
X49529272Y2915196D01*
X49562832Y2819284D01*
X49566393Y2749505D01*
X49562832Y2737378D01*
X49537245Y2664252D01*
X49518739Y2500003D01*
X49518739Y2499997D01*
X49537244Y2335754D01*
X49537245Y2335749D01*
X49537246Y2335748D01*
X49570337Y2241180D01*
X49591838Y2179733D01*
X49596287Y2172652D01*
X49615286Y2105415D01*
X49608334Y2065728D01*
X49555329Y1914247D01*
X49536824Y1750004D01*
X49536824Y1749997D01*
X49555329Y1585754D01*
X49609922Y1429734D01*
X49645222Y1373555D01*
X49664222Y1306319D01*
X49645222Y1241611D01*
X49591838Y1156652D01*
X49537244Y1000630D01*
X49518739Y836387D01*
X49518739Y836380D01*
X49537244Y672137D01*
X49591838Y516115D01*
X49679778Y376160D01*
X49796842Y259096D01*
X49830327Y197773D01*
X49825343Y128081D01*
X49793111Y83616D01*
X49794701Y82026D01*
X49672898Y-39776D01*
X49584958Y-179731D01*
X49530364Y-335753D01*
X49511859Y-499996D01*
X49511859Y-500003D01*
X49530364Y-664246D01*
X49584957Y-820265D01*
X49585408Y-821201D01*
X49585517Y-821865D01*
X49587258Y-826840D01*
X49586386Y-827144D01*
X49596758Y-890143D01*
X49587081Y-923098D01*
X49587258Y-923160D01*
X49586050Y-926611D01*
X49585408Y-928799D01*
X49584957Y-929734D01*
X49530364Y-1085753D01*
X49511859Y-1249996D01*
X49511859Y-1250003D01*
X49530364Y-1414246D01*
X49584956Y-1570263D01*
X49585405Y-1571194D01*
X49585514Y-1571855D01*
X49587258Y-1576840D01*
X49586385Y-1577145D01*
X49596759Y-1640135D01*
X49587081Y-1673098D01*
X49587258Y-1673160D01*
X49586049Y-1676613D01*
X49585410Y-1678792D01*
X49584960Y-1679724D01*
X49530364Y-1835753D01*
X49511859Y-1999996D01*
X49511859Y-2000003D01*
X49530364Y-2164246D01*
X49530365Y-2164251D01*
X49530366Y-2164252D01*
X49533789Y-2174033D01*
X49584958Y-2320268D01*
X49665125Y-2447852D01*
X49672898Y-2460223D01*
X49789777Y-2577102D01*
X49832832Y-2604155D01*
X49897845Y-2645006D01*
X49944136Y-2697341D01*
X49954784Y-2766395D01*
X49926409Y-2830243D01*
X49897845Y-2854994D01*
X49789776Y-2922898D01*
X49672898Y-3039776D01*
X49584958Y-3179731D01*
X49530364Y-3335753D01*
X49511859Y-3499996D01*
X49511859Y-3500003D01*
X49530364Y-3664246D01*
X49530365Y-3664251D01*
X49530366Y-3664252D01*
X49541918Y-3697266D01*
X49584957Y-3820265D01*
X49585408Y-3821201D01*
X49585517Y-3821865D01*
X49587258Y-3826840D01*
X49586386Y-3827144D01*
X49596758Y-3890143D01*
X49587081Y-3923098D01*
X49587258Y-3923160D01*
X49586050Y-3926611D01*
X49585408Y-3928799D01*
X49584957Y-3929734D01*
X49568004Y-3978185D01*
X49530366Y-4085748D01*
X49530365Y-4085750D01*
X49528067Y-4092320D01*
X49525703Y-4091492D01*
X49498203Y-4141246D01*
X49389448Y-4250003D01*
X49284270Y-4355181D01*
X49222947Y-4388666D01*
X49196589Y-4391500D01*
X47773556Y-4391500D01*
X47706517Y-4371815D01*
X47660762Y-4319011D01*
X47650336Y-4253616D01*
X47667644Y-4100002D01*
X47667644Y-4099996D01*
X47649138Y-3935753D01*
X47649137Y-3935751D01*
X47649137Y-3935748D01*
X47594545Y-3779733D01*
X47594010Y-3778882D01*
X47527844Y-3673579D01*
X47506605Y-3639777D01*
X47389726Y-3522898D01*
X47353278Y-3499996D01*
X47249771Y-3434958D01*
X47093749Y-3380364D01*
X46929507Y-3361859D01*
X46929499Y-3361859D01*
X46765252Y-3380365D01*
X46680705Y-3409949D01*
X46610926Y-3413510D01*
X46598798Y-3409949D01*
X46514248Y-3380364D01*
X46372415Y-3364384D01*
X46308001Y-3337317D01*
X46301204Y-3331357D01*
X46273517Y-3305235D01*
X46217817Y-3249536D01*
X46191685Y-3223404D01*
X46158202Y-3162084D01*
X46163186Y-3092392D01*
X46205057Y-3036458D01*
X46238410Y-3018684D01*
X46320267Y-2990042D01*
X46460223Y-2902102D01*
X46542321Y-2820003D01*
X46603640Y-2786521D01*
X46673332Y-2791505D01*
X46717680Y-2820005D01*
X46799777Y-2902102D01*
X46939733Y-2990042D01*
X47095748Y-3044634D01*
X47095751Y-3044634D01*
X47095753Y-3044635D01*
X47259996Y-3063141D01*
X47260000Y-3063141D01*
X47260004Y-3063141D01*
X47424246Y-3044635D01*
X47424247Y-3044634D01*
X47424252Y-3044634D01*
X47580267Y-2990042D01*
X47720223Y-2902102D01*
X47837102Y-2785223D01*
X47925042Y-2645267D01*
X47979634Y-2489252D01*
X47979635Y-2489246D01*
X47998141Y-2325003D01*
X47998141Y-2324996D01*
X47979635Y-2160751D01*
X47970140Y-2133616D01*
X47967189Y-2125184D01*
X47963627Y-2055408D01*
X47998356Y-1994780D01*
X48060349Y-1962552D01*
X48125184Y-1967189D01*
X48160748Y-1979634D01*
X48160751Y-1979635D01*
X48324996Y-1998141D01*
X48325000Y-1998141D01*
X48325004Y-1998141D01*
X48489246Y-1979635D01*
X48489247Y-1979634D01*
X48489252Y-1979634D01*
X48645267Y-1925042D01*
X48785223Y-1837102D01*
X48902102Y-1720223D01*
X48990042Y-1580267D01*
X49044634Y-1424252D01*
X49045761Y-1414252D01*
X49063141Y-1260003D01*
X49063141Y-1259996D01*
X49044635Y-1095753D01*
X49044634Y-1095751D01*
X49044634Y-1095748D01*
X48990042Y-939733D01*
X48902102Y-799777D01*
X48820006Y-717680D01*
X48786521Y-656358D01*
X48791505Y-586666D01*
X48820006Y-542319D01*
X48857500Y-504825D01*
X48902102Y-460223D01*
X48990042Y-320267D01*
X49044634Y-164252D01*
X49045027Y-160766D01*
X49063141Y-3D01*
X49063141Y4D01*
X49044635Y164247D01*
X49044634Y164249D01*
X49044634Y164252D01*
X48990042Y320267D01*
X48989899Y320494D01*
X48925554Y422899D01*
X48902102Y460223D01*
X48820005Y542320D01*
X48786521Y603642D01*
X48791505Y673334D01*
X48820006Y717681D01*
X48860825Y758500D01*
X48902102Y799777D01*
X48990042Y939733D01*
X49044634Y1095748D01*
X49045223Y1100975D01*
X49063141Y1259997D01*
X49063141Y1260004D01*
X49044635Y1424247D01*
X49044634Y1424249D01*
X49044634Y1424252D01*
X48990042Y1580267D01*
X48986594Y1585754D01*
X48927650Y1679564D01*
X48902102Y1720223D01*
X48785223Y1837102D01*
X48748426Y1860223D01*
X48645268Y1925042D01*
X48489246Y1979636D01*
X48325004Y1998141D01*
X48324996Y1998141D01*
X48160752Y1979636D01*
X48125184Y1967190D01*
X48055405Y1963629D01*
X47994778Y1998359D01*
X47962552Y2060353D01*
X47967190Y2125186D01*
X47979634Y2160748D01*
X47980029Y2164252D01*
X47998141Y2324997D01*
X47998141Y2325004D01*
X47979635Y2489247D01*
X47979634Y2489249D01*
X47979634Y2489252D01*
X47925042Y2645267D01*
X47837102Y2785223D01*
X47720223Y2902102D01*
X47699384Y2915196D01*
X47580268Y2990042D01*
X47458786Y3032550D01*
X47424252Y3044634D01*
X47424251Y3044635D01*
X47424246Y3044636D01*
X47260004Y3063141D01*
X47259996Y3063141D01*
X47095753Y3044636D01*
X46939731Y2990042D01*
X46939727Y2990040D01*
X46857176Y2938170D01*
X46789939Y2919170D01*
X46723104Y2939538D01*
X46677891Y2992807D01*
X46668654Y3062063D01*
X46698326Y3125319D01*
X46703497Y3130818D01*
X47085996Y3513317D01*
X47147317Y3546800D01*
X47214628Y3542676D01*
X47249806Y3530366D01*
X47249810Y3530366D01*
X47249812Y3530365D01*
X47249809Y3530365D01*
X47414054Y3511859D01*
X47414058Y3511859D01*
X47414062Y3511859D01*
X47578304Y3530365D01*
X47578305Y3530366D01*
X47578310Y3530366D01*
X47734325Y3584958D01*
X47788805Y3619191D01*
X47856042Y3638192D01*
X47920752Y3619191D01*
X47975233Y3584958D01*
X48131248Y3530366D01*
X48131251Y3530366D01*
X48131253Y3530365D01*
X48295496Y3511859D01*
X48295500Y3511859D01*
X48295504Y3511859D01*
X48459746Y3530365D01*
X48459747Y3530366D01*
X48459752Y3530366D01*
X48615767Y3584958D01*
X48755723Y3672898D01*
X48872602Y3789777D01*
X48960542Y3929733D01*
X49015134Y4085748D01*
X49018952Y4119634D01*
X49033641Y4249997D01*
X49033641Y4250004D01*
X49015135Y4414247D01*
X49015134Y4414249D01*
X49015134Y4414252D01*
X48972619Y4535754D01*
X48963594Y4561546D01*
X48960033Y4631325D01*
X48994762Y4691952D01*
X49056756Y4724179D01*
X49080636Y4726500D01*
X49511087Y4726500D01*
X49578126Y4706815D01*
G37*
G04 #@! TD.AperFunction*
G04 #@! TA.AperFunction,Conductor*
G36*
X41564697Y2421815D02*
G01*
X41610452Y2369011D01*
X41620396Y2299853D01*
X41591371Y2236297D01*
X41538613Y2200459D01*
X41518723Y2193500D01*
X41481155Y2180354D01*
X41341200Y2092414D01*
X41224322Y1975536D01*
X41136382Y1835581D01*
X41081788Y1679559D01*
X41063283Y1515316D01*
X41063283Y1515309D01*
X41081788Y1351062D01*
X41116926Y1250645D01*
X41120487Y1180866D01*
X41116926Y1168737D01*
X41080364Y1064251D01*
X41061859Y900004D01*
X41061859Y899997D01*
X41080364Y735753D01*
X41109949Y651202D01*
X41113510Y581423D01*
X41109949Y569295D01*
X41080365Y484748D01*
X41061859Y320501D01*
X41061859Y320495D01*
X41080365Y156246D01*
X41114578Y58468D01*
X41118139Y-11311D01*
X41114578Y-23437D01*
X41087207Y-101663D01*
X41087206Y-101666D01*
X41068700Y-265915D01*
X41068700Y-265921D01*
X41087205Y-430164D01*
X41087206Y-430169D01*
X41087207Y-430170D01*
X41120058Y-524054D01*
X41134537Y-565431D01*
X41138098Y-635210D01*
X41134537Y-647338D01*
X41110539Y-715922D01*
X41099727Y-811884D01*
X41072660Y-876298D01*
X41015065Y-915853D01*
X40976507Y-922000D01*
X40146159Y-922000D01*
X40138060Y-921469D01*
X40117462Y-918757D01*
X40104501Y-917051D01*
X40104499Y-917051D01*
X40066908Y-922000D01*
X39998849Y-930960D01*
X39954784Y-936761D01*
X39908194Y-956059D01*
X39874627Y-964717D01*
X39735753Y-980364D01*
X39579731Y-1034958D01*
X39439776Y-1122898D01*
X39322898Y-1239776D01*
X39234958Y-1379731D01*
X39200977Y-1476846D01*
X39160255Y-1533622D01*
X39095303Y-1559370D01*
X39026741Y-1545914D01*
X38996254Y-1523573D01*
X38018557Y-545876D01*
X37985072Y-484553D01*
X37990056Y-414861D01*
X38001241Y-392229D01*
X38015042Y-370267D01*
X38069634Y-214252D01*
X38072829Y-185893D01*
X38088141Y-50003D01*
X38088141Y-49996D01*
X38069635Y114247D01*
X38069634Y114249D01*
X38069634Y114252D01*
X38015042Y270267D01*
X37981950Y322933D01*
X37962950Y390166D01*
X37983317Y457001D01*
X37999258Y476579D01*
X38146886Y624207D01*
X38208207Y657690D01*
X38277899Y652706D01*
X38300533Y641520D01*
X38434233Y557511D01*
X38590248Y502919D01*
X38590251Y502919D01*
X38590253Y502918D01*
X38754496Y484412D01*
X38754500Y484412D01*
X38754504Y484412D01*
X38918746Y502918D01*
X38918747Y502919D01*
X38918752Y502919D01*
X39074767Y557511D01*
X39214723Y645451D01*
X39331602Y762330D01*
X39419542Y902286D01*
X39474134Y1058301D01*
X39474804Y1064247D01*
X39492641Y1222550D01*
X39492641Y1222557D01*
X39474135Y1386800D01*
X39474134Y1386802D01*
X39474134Y1386805D01*
X39419542Y1542820D01*
X39409590Y1558658D01*
X39380405Y1605107D01*
X39335534Y1676518D01*
X39316535Y1743752D01*
X39336903Y1810588D01*
X39352843Y1830163D01*
X39927861Y2405181D01*
X39989185Y2438666D01*
X40015543Y2441500D01*
X41497658Y2441500D01*
X41564697Y2421815D01*
G37*
G04 #@! TD.AperFunction*
G04 #@! TA.AperFunction,Conductor*
G36*
X55752426Y11239309D02*
G01*
X55785836Y11236680D01*
X55934176Y11225006D01*
X55953386Y11221963D01*
X56123544Y11181112D01*
X56142036Y11175104D01*
X56269658Y11122241D01*
X56303706Y11108137D01*
X56321043Y11099303D01*
X56470237Y11007877D01*
X56485979Y10996440D01*
X56619038Y10882797D01*
X56632796Y10869039D01*
X56746439Y10735980D01*
X56757876Y10720238D01*
X56849302Y10571044D01*
X56858136Y10553707D01*
X56925100Y10392044D01*
X56931113Y10373538D01*
X56971961Y10203392D01*
X56975005Y10184174D01*
X56989309Y10002428D01*
X56989500Y9997561D01*
X56989500Y-9997559D01*
X56989309Y-10002425D01*
X56975005Y-10184173D01*
X56971961Y-10203391D01*
X56931113Y-10373537D01*
X56925100Y-10392043D01*
X56858136Y-10553706D01*
X56849302Y-10571043D01*
X56757876Y-10720237D01*
X56746439Y-10735979D01*
X56632796Y-10869038D01*
X56619038Y-10882796D01*
X56485979Y-10996439D01*
X56470237Y-11007876D01*
X56321043Y-11099302D01*
X56303706Y-11108136D01*
X56142043Y-11175100D01*
X56123537Y-11181113D01*
X55953391Y-11221961D01*
X55934173Y-11225005D01*
X55752427Y-11239309D01*
X55747560Y-11239500D01*
X2002038Y-11239500D01*
X1997982Y-11239367D01*
X1744371Y-11222745D01*
X1736322Y-11221685D01*
X1489067Y-11172502D01*
X1481233Y-11170403D01*
X1242494Y-11089362D01*
X1235010Y-11086262D01*
X1008897Y-10974756D01*
X1001867Y-10970697D01*
X792251Y-10830636D01*
X785816Y-10825698D01*
X596267Y-10659469D01*
X590528Y-10653730D01*
X424299Y-10464181D01*
X419367Y-10457753D01*
X279302Y-10248132D01*
X275245Y-10241107D01*
X163733Y-10014982D01*
X160639Y-10007512D01*
X86347Y-9788654D01*
X5141500Y-9788654D01*
X5148011Y-9849202D01*
X5148011Y-9849204D01*
X5199110Y-9986204D01*
X5199111Y-9986204D01*
X5286739Y-10103261D01*
X5403796Y-10190889D01*
X5540799Y-10241989D01*
X5566481Y-10244750D01*
X5601345Y-10248499D01*
X5601362Y-10248500D01*
X7398638Y-10248500D01*
X7398654Y-10248499D01*
X7425692Y-10245591D01*
X7459201Y-10241989D01*
X7596204Y-10190889D01*
X7713261Y-10103261D01*
X7800889Y-9986204D01*
X7846138Y-9864887D01*
X7888009Y-9808956D01*
X7953474Y-9784539D01*
X8021746Y-9799391D01*
X8053545Y-9824236D01*
X8116760Y-9892906D01*
X8294424Y-10031189D01*
X8294425Y-10031189D01*
X8294427Y-10031191D01*
X8354314Y-10063600D01*
X8492426Y-10138342D01*
X8705365Y-10211444D01*
X8927431Y-10248500D01*
X9152569Y-10248500D01*
X9374635Y-10211444D01*
X9587574Y-10138342D01*
X9785576Y-10031189D01*
X9963240Y-9892906D01*
X10084594Y-9761082D01*
X10115715Y-9727276D01*
X10115715Y-9727275D01*
X10115722Y-9727268D01*
X10206193Y-9588790D01*
X10259338Y-9543437D01*
X10328569Y-9534013D01*
X10391905Y-9563515D01*
X10413804Y-9588787D01*
X10504278Y-9727268D01*
X10504283Y-9727273D01*
X10504284Y-9727276D01*
X10630968Y-9864889D01*
X10656760Y-9892906D01*
X10834424Y-10031189D01*
X10834425Y-10031189D01*
X10834427Y-10031191D01*
X10894314Y-10063600D01*
X11032426Y-10138342D01*
X11245365Y-10211444D01*
X11467431Y-10248500D01*
X11692569Y-10248500D01*
X11914635Y-10211444D01*
X12127574Y-10138342D01*
X12325576Y-10031189D01*
X12503240Y-9892906D01*
X12624594Y-9761082D01*
X12655715Y-9727276D01*
X12655715Y-9727275D01*
X12655722Y-9727268D01*
X12746193Y-9588790D01*
X12799338Y-9543437D01*
X12868569Y-9534013D01*
X12931905Y-9563515D01*
X12953804Y-9588787D01*
X13044278Y-9727268D01*
X13044283Y-9727273D01*
X13044284Y-9727276D01*
X13170968Y-9864889D01*
X13196760Y-9892906D01*
X13374424Y-10031189D01*
X13374425Y-10031189D01*
X13374427Y-10031191D01*
X13434314Y-10063600D01*
X13572426Y-10138342D01*
X13785365Y-10211444D01*
X14007431Y-10248500D01*
X14232569Y-10248500D01*
X14454635Y-10211444D01*
X14667574Y-10138342D01*
X14865576Y-10031189D01*
X15043240Y-9892906D01*
X15164594Y-9761082D01*
X15195715Y-9727276D01*
X15195715Y-9727275D01*
X15195722Y-9727268D01*
X15286193Y-9588790D01*
X15339338Y-9543437D01*
X15408569Y-9534013D01*
X15471905Y-9563515D01*
X15493804Y-9588787D01*
X15584278Y-9727268D01*
X15584283Y-9727273D01*
X15584284Y-9727276D01*
X15710968Y-9864889D01*
X15736760Y-9892906D01*
X15914424Y-10031189D01*
X15914425Y-10031189D01*
X15914427Y-10031191D01*
X15974314Y-10063600D01*
X16112426Y-10138342D01*
X16325365Y-10211444D01*
X16547431Y-10248500D01*
X16772569Y-10248500D01*
X16994635Y-10211444D01*
X17207574Y-10138342D01*
X17405576Y-10031189D01*
X17583240Y-9892906D01*
X17704594Y-9761082D01*
X17735715Y-9727276D01*
X17735715Y-9727275D01*
X17735722Y-9727268D01*
X17826193Y-9588790D01*
X17879338Y-9543437D01*
X17948569Y-9534013D01*
X18011905Y-9563515D01*
X18033804Y-9588787D01*
X18124278Y-9727268D01*
X18124283Y-9727273D01*
X18124284Y-9727276D01*
X18250968Y-9864889D01*
X18276760Y-9892906D01*
X18454424Y-10031189D01*
X18454425Y-10031189D01*
X18454427Y-10031191D01*
X18514314Y-10063600D01*
X18652426Y-10138342D01*
X18865365Y-10211444D01*
X19087431Y-10248500D01*
X19312569Y-10248500D01*
X19534635Y-10211444D01*
X19747574Y-10138342D01*
X19945576Y-10031189D01*
X20123240Y-9892906D01*
X20244594Y-9761082D01*
X20275715Y-9727276D01*
X20275715Y-9727275D01*
X20275722Y-9727268D01*
X20366193Y-9588790D01*
X20419338Y-9543437D01*
X20488569Y-9534013D01*
X20551905Y-9563515D01*
X20573804Y-9588787D01*
X20664278Y-9727268D01*
X20664283Y-9727273D01*
X20664284Y-9727276D01*
X20790968Y-9864889D01*
X20816760Y-9892906D01*
X20994424Y-10031189D01*
X20994425Y-10031189D01*
X20994427Y-10031191D01*
X21054314Y-10063600D01*
X21192426Y-10138342D01*
X21405365Y-10211444D01*
X21627431Y-10248500D01*
X21852569Y-10248500D01*
X22074635Y-10211444D01*
X22287574Y-10138342D01*
X22485576Y-10031189D01*
X22663240Y-9892906D01*
X22784594Y-9761082D01*
X22815715Y-9727276D01*
X22815715Y-9727275D01*
X22815722Y-9727268D01*
X22906193Y-9588790D01*
X22959338Y-9543437D01*
X23028569Y-9534013D01*
X23091905Y-9563515D01*
X23113804Y-9588787D01*
X23204278Y-9727268D01*
X23204283Y-9727273D01*
X23204284Y-9727276D01*
X23330968Y-9864889D01*
X23356760Y-9892906D01*
X23534424Y-10031189D01*
X23534425Y-10031189D01*
X23534427Y-10031191D01*
X23594314Y-10063600D01*
X23732426Y-10138342D01*
X23945365Y-10211444D01*
X24167431Y-10248500D01*
X24392569Y-10248500D01*
X24614635Y-10211444D01*
X24827574Y-10138342D01*
X25025576Y-10031189D01*
X25203240Y-9892906D01*
X25324594Y-9761082D01*
X25355715Y-9727276D01*
X25355715Y-9727275D01*
X25355722Y-9727268D01*
X25446193Y-9588790D01*
X25499338Y-9543437D01*
X25568569Y-9534013D01*
X25631905Y-9563515D01*
X25653804Y-9588787D01*
X25744278Y-9727268D01*
X25744283Y-9727273D01*
X25744284Y-9727276D01*
X25870968Y-9864889D01*
X25896760Y-9892906D01*
X26074424Y-10031189D01*
X26074425Y-10031189D01*
X26074427Y-10031191D01*
X26134314Y-10063600D01*
X26272426Y-10138342D01*
X26485365Y-10211444D01*
X26707431Y-10248500D01*
X26932569Y-10248500D01*
X27154635Y-10211444D01*
X27367574Y-10138342D01*
X27565576Y-10031189D01*
X27743240Y-9892906D01*
X27864594Y-9761082D01*
X27895715Y-9727276D01*
X27895715Y-9727275D01*
X27895722Y-9727268D01*
X27986193Y-9588790D01*
X28039338Y-9543437D01*
X28108569Y-9534013D01*
X28171905Y-9563515D01*
X28193804Y-9588787D01*
X28284278Y-9727268D01*
X28284283Y-9727273D01*
X28284284Y-9727276D01*
X28410968Y-9864889D01*
X28436760Y-9892906D01*
X28614424Y-10031189D01*
X28614425Y-10031189D01*
X28614427Y-10031191D01*
X28674314Y-10063600D01*
X28812426Y-10138342D01*
X29025365Y-10211444D01*
X29247431Y-10248500D01*
X29472569Y-10248500D01*
X29694635Y-10211444D01*
X29907574Y-10138342D01*
X30105576Y-10031189D01*
X30283240Y-9892906D01*
X30404594Y-9761082D01*
X30435715Y-9727276D01*
X30435715Y-9727275D01*
X30435722Y-9727268D01*
X30526193Y-9588790D01*
X30579338Y-9543437D01*
X30648569Y-9534013D01*
X30711905Y-9563515D01*
X30733804Y-9588787D01*
X30824278Y-9727268D01*
X30824283Y-9727273D01*
X30824284Y-9727276D01*
X30950968Y-9864889D01*
X30976760Y-9892906D01*
X31154424Y-10031189D01*
X31154425Y-10031189D01*
X31154427Y-10031191D01*
X31214314Y-10063600D01*
X31352426Y-10138342D01*
X31565365Y-10211444D01*
X31787431Y-10248500D01*
X32012569Y-10248500D01*
X32234635Y-10211444D01*
X32447574Y-10138342D01*
X32645576Y-10031189D01*
X32823240Y-9892906D01*
X32944594Y-9761082D01*
X32975715Y-9727276D01*
X32975715Y-9727275D01*
X32975722Y-9727268D01*
X33066193Y-9588790D01*
X33119338Y-9543437D01*
X33188569Y-9534013D01*
X33251905Y-9563515D01*
X33273804Y-9588787D01*
X33364278Y-9727268D01*
X33364283Y-9727273D01*
X33364284Y-9727276D01*
X33490968Y-9864889D01*
X33516760Y-9892906D01*
X33694424Y-10031189D01*
X33694425Y-10031189D01*
X33694427Y-10031191D01*
X33754314Y-10063600D01*
X33892426Y-10138342D01*
X34105365Y-10211444D01*
X34327431Y-10248500D01*
X34552569Y-10248500D01*
X34774635Y-10211444D01*
X34987574Y-10138342D01*
X35185576Y-10031189D01*
X35363240Y-9892906D01*
X35484594Y-9761082D01*
X35515715Y-9727276D01*
X35515715Y-9727275D01*
X35515722Y-9727268D01*
X35606193Y-9588790D01*
X35659338Y-9543437D01*
X35728569Y-9534013D01*
X35791905Y-9563515D01*
X35813804Y-9588787D01*
X35904278Y-9727268D01*
X35904283Y-9727273D01*
X35904284Y-9727276D01*
X36030968Y-9864889D01*
X36056760Y-9892906D01*
X36234424Y-10031189D01*
X36234425Y-10031189D01*
X36234427Y-10031191D01*
X36294314Y-10063600D01*
X36432426Y-10138342D01*
X36645365Y-10211444D01*
X36867431Y-10248500D01*
X37092569Y-10248500D01*
X37314635Y-10211444D01*
X37527574Y-10138342D01*
X37725576Y-10031189D01*
X37903240Y-9892906D01*
X38024594Y-9761082D01*
X38055715Y-9727276D01*
X38055715Y-9727275D01*
X38055722Y-9727268D01*
X38146193Y-9588790D01*
X38199338Y-9543437D01*
X38268569Y-9534013D01*
X38331905Y-9563515D01*
X38353804Y-9588787D01*
X38444278Y-9727268D01*
X38444283Y-9727273D01*
X38444284Y-9727276D01*
X38570968Y-9864889D01*
X38596760Y-9892906D01*
X38774424Y-10031189D01*
X38774425Y-10031189D01*
X38774427Y-10031191D01*
X38834314Y-10063600D01*
X38972426Y-10138342D01*
X39185365Y-10211444D01*
X39407431Y-10248500D01*
X39632569Y-10248500D01*
X39854635Y-10211444D01*
X40067574Y-10138342D01*
X40265576Y-10031189D01*
X40443240Y-9892906D01*
X40564594Y-9761082D01*
X40595715Y-9727276D01*
X40595715Y-9727275D01*
X40595722Y-9727268D01*
X40686193Y-9588790D01*
X40739338Y-9543437D01*
X40808569Y-9534013D01*
X40871905Y-9563515D01*
X40893804Y-9588787D01*
X40984278Y-9727268D01*
X40984283Y-9727273D01*
X40984284Y-9727276D01*
X41110968Y-9864889D01*
X41136760Y-9892906D01*
X41314424Y-10031189D01*
X41314425Y-10031189D01*
X41314427Y-10031191D01*
X41374314Y-10063600D01*
X41512426Y-10138342D01*
X41725365Y-10211444D01*
X41947431Y-10248500D01*
X42172569Y-10248500D01*
X42394635Y-10211444D01*
X42607574Y-10138342D01*
X42805576Y-10031189D01*
X42983240Y-9892906D01*
X43104594Y-9761082D01*
X43135715Y-9727276D01*
X43135715Y-9727275D01*
X43135722Y-9727268D01*
X43226193Y-9588790D01*
X43279338Y-9543437D01*
X43348569Y-9534013D01*
X43411905Y-9563515D01*
X43433804Y-9588787D01*
X43524278Y-9727268D01*
X43524283Y-9727273D01*
X43524284Y-9727276D01*
X43650968Y-9864889D01*
X43676760Y-9892906D01*
X43854424Y-10031189D01*
X43854425Y-10031189D01*
X43854427Y-10031191D01*
X43914314Y-10063600D01*
X44052426Y-10138342D01*
X44265365Y-10211444D01*
X44487431Y-10248500D01*
X44712569Y-10248500D01*
X44934635Y-10211444D01*
X45147574Y-10138342D01*
X45345576Y-10031189D01*
X45523240Y-9892906D01*
X45644594Y-9761082D01*
X45675715Y-9727276D01*
X45675715Y-9727275D01*
X45675722Y-9727268D01*
X45766193Y-9588790D01*
X45819338Y-9543437D01*
X45888569Y-9534013D01*
X45951905Y-9563515D01*
X45973804Y-9588787D01*
X46064278Y-9727268D01*
X46064283Y-9727273D01*
X46064284Y-9727276D01*
X46190968Y-9864889D01*
X46216760Y-9892906D01*
X46394424Y-10031189D01*
X46394425Y-10031189D01*
X46394427Y-10031191D01*
X46454314Y-10063600D01*
X46592426Y-10138342D01*
X46805365Y-10211444D01*
X47027431Y-10248500D01*
X47252569Y-10248500D01*
X47474635Y-10211444D01*
X47687574Y-10138342D01*
X47885576Y-10031189D01*
X48063240Y-9892906D01*
X48184594Y-9761082D01*
X48215715Y-9727276D01*
X48215715Y-9727275D01*
X48215722Y-9727268D01*
X48306193Y-9588790D01*
X48359338Y-9543437D01*
X48428569Y-9534013D01*
X48491905Y-9563515D01*
X48513804Y-9588787D01*
X48604278Y-9727268D01*
X48604283Y-9727273D01*
X48604284Y-9727276D01*
X48730968Y-9864889D01*
X48756760Y-9892906D01*
X48934424Y-10031189D01*
X48934425Y-10031189D01*
X48934427Y-10031191D01*
X48994314Y-10063600D01*
X49132426Y-10138342D01*
X49345365Y-10211444D01*
X49567431Y-10248500D01*
X49792569Y-10248500D01*
X50014635Y-10211444D01*
X50227574Y-10138342D01*
X50425576Y-10031189D01*
X50603240Y-9892906D01*
X50724594Y-9761082D01*
X50755715Y-9727276D01*
X50755715Y-9727275D01*
X50755722Y-9727268D01*
X50846193Y-9588790D01*
X50899338Y-9543437D01*
X50968569Y-9534013D01*
X51031905Y-9563515D01*
X51053804Y-9588787D01*
X51144278Y-9727268D01*
X51144283Y-9727273D01*
X51144284Y-9727276D01*
X51270968Y-9864889D01*
X51296760Y-9892906D01*
X51474424Y-10031189D01*
X51474425Y-10031189D01*
X51474427Y-10031191D01*
X51534314Y-10063600D01*
X51672426Y-10138342D01*
X51885365Y-10211444D01*
X52107431Y-10248500D01*
X52332569Y-10248500D01*
X52554635Y-10211444D01*
X52767574Y-10138342D01*
X52965576Y-10031189D01*
X53143240Y-9892906D01*
X53264594Y-9761082D01*
X53295715Y-9727276D01*
X53295715Y-9727275D01*
X53295722Y-9727268D01*
X53389749Y-9583347D01*
X53442894Y-9537994D01*
X53512125Y-9528570D01*
X53575461Y-9558072D01*
X53595130Y-9580048D01*
X53721890Y-9761078D01*
X53888917Y-9928105D01*
X54082421Y-10063600D01*
X54296507Y-10163429D01*
X54296516Y-10163433D01*
X54510000Y-10220634D01*
X54510000Y-9502301D01*
X54529685Y-9435262D01*
X54582489Y-9389507D01*
X54651647Y-9379563D01*
X54724237Y-9390000D01*
X54724238Y-9390000D01*
X54795762Y-9390000D01*
X54795763Y-9390000D01*
X54868352Y-9379563D01*
X54937510Y-9389507D01*
X54990314Y-9435261D01*
X55009999Y-9502301D01*
X55009999Y-10220634D01*
X55223483Y-10163433D01*
X55223492Y-10163429D01*
X55437578Y-10063600D01*
X55631082Y-9928105D01*
X55798105Y-9761082D01*
X55933600Y-9567578D01*
X56033429Y-9353492D01*
X56033432Y-9353486D01*
X56090636Y-9140000D01*
X55373347Y-9140000D01*
X55306308Y-9120315D01*
X55260553Y-9067511D01*
X55250609Y-8998353D01*
X55254369Y-8981067D01*
X55260000Y-8961888D01*
X55260000Y-8818111D01*
X55254369Y-8798933D01*
X55254370Y-8729064D01*
X55292145Y-8670286D01*
X55355701Y-8641262D01*
X55373347Y-8640000D01*
X56090636Y-8640000D01*
X56090635Y-8639999D01*
X56033432Y-8426513D01*
X56033429Y-8426507D01*
X55933600Y-8212422D01*
X55933599Y-8212420D01*
X55798113Y-8018926D01*
X55798108Y-8018920D01*
X55631082Y-7851894D01*
X55437578Y-7716399D01*
X55223492Y-7616570D01*
X55223486Y-7616567D01*
X55010000Y-7559364D01*
X55009999Y-7559364D01*
X55009999Y-8277698D01*
X54990314Y-8344738D01*
X54937510Y-8390492D01*
X54868353Y-8400436D01*
X54795764Y-8390000D01*
X54795763Y-8390000D01*
X54724237Y-8390000D01*
X54724233Y-8390000D01*
X54651645Y-8400436D01*
X54582487Y-8390492D01*
X54529684Y-8344736D01*
X54510000Y-8277698D01*
X54510000Y-7559364D01*
X54509999Y-7559364D01*
X54296513Y-7616567D01*
X54296507Y-7616570D01*
X54082422Y-7716399D01*
X54082420Y-7716400D01*
X53888926Y-7851886D01*
X53888920Y-7851891D01*
X53721891Y-8018920D01*
X53721890Y-8018922D01*
X53595131Y-8199952D01*
X53540554Y-8243577D01*
X53471055Y-8250769D01*
X53408701Y-8219247D01*
X53389752Y-8196656D01*
X53295722Y-8052732D01*
X53295715Y-8052725D01*
X53295715Y-8052723D01*
X53143243Y-7887097D01*
X53143238Y-7887092D01*
X52965577Y-7748812D01*
X52965572Y-7748808D01*
X52767580Y-7641661D01*
X52767577Y-7641659D01*
X52767574Y-7641658D01*
X52767571Y-7641657D01*
X52767569Y-7641656D01*
X52554637Y-7568556D01*
X52332569Y-7531500D01*
X52107431Y-7531500D01*
X51885362Y-7568556D01*
X51667576Y-7643323D01*
X51667225Y-7642302D01*
X51603200Y-7650522D01*
X51540090Y-7620540D01*
X51503209Y-7561198D01*
X51498700Y-7528065D01*
X51498700Y-7466851D01*
X51499231Y-7458749D01*
X51503648Y-7425199D01*
X51501892Y-7411859D01*
X51498967Y-7389645D01*
X51498965Y-7389621D01*
X51484152Y-7277102D01*
X51483939Y-7275486D01*
X51436196Y-7160223D01*
X51426152Y-7135975D01*
X51426151Y-7135973D01*
X51357307Y-7046256D01*
X51334225Y-7016175D01*
X51334223Y-7016173D01*
X51334222Y-7016172D01*
X51314385Y-7000951D01*
X51307362Y-6995562D01*
X51301272Y-6990221D01*
X50434975Y-6123924D01*
X50429636Y-6117836D01*
X50409025Y-6090975D01*
X50289224Y-5999048D01*
X50289220Y-5999046D01*
X50229766Y-5974419D01*
X50175362Y-5930578D01*
X50153298Y-5864283D01*
X50170578Y-5796584D01*
X50221715Y-5748974D01*
X50263333Y-5736638D01*
X50344185Y-5727528D01*
X50414246Y-5719635D01*
X50414247Y-5719634D01*
X50414252Y-5719634D01*
X50570267Y-5665042D01*
X50710223Y-5577102D01*
X50827102Y-5460223D01*
X50915042Y-5320267D01*
X50969634Y-5164252D01*
X50969635Y-5164246D01*
X50988141Y-5000003D01*
X50988141Y-4999996D01*
X50969635Y-4835753D01*
X50969634Y-4835751D01*
X50969634Y-4835748D01*
X50915042Y-4679733D01*
X50914595Y-4678805D01*
X50914485Y-4678143D01*
X50912742Y-4673159D01*
X50913614Y-4672853D01*
X50903241Y-4609864D01*
X50912919Y-4576902D01*
X50912742Y-4576841D01*
X50913955Y-4573372D01*
X50914595Y-4571195D01*
X50915043Y-4570264D01*
X50917984Y-4561859D01*
X50969634Y-4414252D01*
X50976290Y-4355181D01*
X50988141Y-4250003D01*
X50988141Y-4249996D01*
X50969635Y-4085753D01*
X50969634Y-4085751D01*
X50969634Y-4085748D01*
X50930653Y-3974347D01*
X50915043Y-3929735D01*
X50914595Y-3928805D01*
X50914485Y-3928143D01*
X50912742Y-3923159D01*
X50913614Y-3922853D01*
X50903241Y-3859864D01*
X50912919Y-3826902D01*
X50912742Y-3826841D01*
X50913955Y-3823372D01*
X50914595Y-3821195D01*
X50915043Y-3820264D01*
X50918787Y-3809563D01*
X50969634Y-3664252D01*
X50978479Y-3585753D01*
X50988141Y-3500003D01*
X50988141Y-3499996D01*
X50969635Y-3335753D01*
X50969634Y-3335751D01*
X50969634Y-3335748D01*
X50915042Y-3179733D01*
X50910747Y-3172898D01*
X50864944Y-3100003D01*
X50827102Y-3039777D01*
X50710223Y-2922898D01*
X50602153Y-2854993D01*
X50555863Y-2802659D01*
X50545215Y-2733606D01*
X50573590Y-2669757D01*
X50602154Y-2645006D01*
X50610476Y-2639777D01*
X50710223Y-2577102D01*
X50827102Y-2460223D01*
X50915042Y-2320267D01*
X50969634Y-2164252D01*
X50969635Y-2164246D01*
X50988141Y-2000003D01*
X50988141Y-1999996D01*
X50969635Y-1835753D01*
X50969634Y-1835751D01*
X50969634Y-1835748D01*
X50915042Y-1679733D01*
X50914595Y-1678805D01*
X50914485Y-1678143D01*
X50912742Y-1673159D01*
X50913614Y-1672853D01*
X50903241Y-1609864D01*
X50912919Y-1576902D01*
X50912742Y-1576841D01*
X50913955Y-1573372D01*
X50914595Y-1571195D01*
X50915043Y-1570264D01*
X50923563Y-1545914D01*
X50969634Y-1414252D01*
X50969635Y-1414246D01*
X50988141Y-1250003D01*
X50988141Y-1249998D01*
X50984833Y-1220642D01*
X50996887Y-1151820D01*
X51044235Y-1100440D01*
X51111846Y-1082815D01*
X51174025Y-1101763D01*
X51273475Y-1164252D01*
X51274733Y-1165042D01*
X51430748Y-1219634D01*
X51430751Y-1219634D01*
X51430753Y-1219635D01*
X51594996Y-1238141D01*
X51595000Y-1238141D01*
X51595004Y-1238141D01*
X51759246Y-1219635D01*
X51759247Y-1219634D01*
X51759252Y-1219634D01*
X51915267Y-1165042D01*
X51916525Y-1164252D01*
X51953601Y-1140955D01*
X51960165Y-1136830D01*
X52027400Y-1117830D01*
X52094235Y-1138197D01*
X52139450Y-1191464D01*
X52143178Y-1200869D01*
X52184956Y-1320263D01*
X52184957Y-1320267D01*
X52249417Y-1422853D01*
X52272898Y-1460223D01*
X52389777Y-1577102D01*
X52466005Y-1624999D01*
X52496171Y-1643954D01*
X52529733Y-1665042D01*
X52685748Y-1719634D01*
X52685751Y-1719634D01*
X52685753Y-1719635D01*
X52849996Y-1738141D01*
X52850000Y-1738141D01*
X52850004Y-1738141D01*
X53014246Y-1719635D01*
X53014247Y-1719634D01*
X53014252Y-1719634D01*
X53170267Y-1665042D01*
X53310223Y-1577102D01*
X53427102Y-1460223D01*
X53515042Y-1320267D01*
X53569634Y-1164252D01*
X53569635Y-1164246D01*
X53588141Y-1000003D01*
X53588141Y-999996D01*
X53569635Y-835753D01*
X53569634Y-835751D01*
X53569634Y-835748D01*
X53515042Y-679733D01*
X53427102Y-539777D01*
X53310223Y-422898D01*
X53244867Y-381832D01*
X53170268Y-334958D01*
X53112903Y-314885D01*
X53014252Y-280366D01*
X53014249Y-280365D01*
X53007680Y-278067D01*
X53008631Y-275348D01*
X52958932Y-247553D01*
X52926071Y-185893D01*
X52923499Y-160774D01*
X52923499Y556512D01*
X52943184Y623550D01*
X52995988Y669305D01*
X53033619Y679732D01*
X53039252Y680366D01*
X53039256Y680368D01*
X53039259Y680368D01*
X53156889Y721529D01*
X53195267Y734958D01*
X53195268Y734960D01*
X53195271Y734960D01*
X53227442Y755175D01*
X53238828Y762330D01*
X53306063Y781331D01*
X53372899Y760965D01*
X53418114Y707698D01*
X53428021Y643454D01*
X53411859Y500005D01*
X53411859Y499997D01*
X53430364Y335754D01*
X53430365Y335749D01*
X53430366Y335748D01*
X53434127Y325000D01*
X53484958Y179732D01*
X53556931Y65188D01*
X53572898Y39777D01*
X53689777Y-77102D01*
X53772558Y-129116D01*
X53828475Y-164252D01*
X53829733Y-165042D01*
X53985748Y-219634D01*
X53985751Y-219634D01*
X53985753Y-219635D01*
X54149996Y-238141D01*
X54150000Y-238141D01*
X54150004Y-238141D01*
X54314246Y-219635D01*
X54314247Y-219634D01*
X54314252Y-219634D01*
X54470267Y-165042D01*
X54610223Y-77102D01*
X54727102Y39777D01*
X54815042Y179733D01*
X54856821Y299133D01*
X54897542Y355906D01*
X54962494Y381654D01*
X55031056Y368198D01*
X55039835Y363169D01*
X55069519Y344518D01*
X55084733Y334958D01*
X55240748Y280366D01*
X55240751Y280366D01*
X55240753Y280365D01*
X55404996Y261859D01*
X55405000Y261859D01*
X55405004Y261859D01*
X55569246Y280365D01*
X55569247Y280366D01*
X55569252Y280366D01*
X55725267Y334958D01*
X55865223Y422898D01*
X55982102Y539777D01*
X56070042Y679733D01*
X56124634Y835748D01*
X56124635Y835754D01*
X56143141Y999997D01*
X56143141Y1000004D01*
X56124635Y1164247D01*
X56124634Y1164249D01*
X56124634Y1164252D01*
X56070042Y1320267D01*
X56065911Y1326841D01*
X56019944Y1399998D01*
X55982102Y1460223D01*
X55865223Y1577102D01*
X55851453Y1585754D01*
X55725268Y1665042D01*
X55569246Y1719636D01*
X55405004Y1738141D01*
X55404996Y1738141D01*
X55240753Y1719636D01*
X55084731Y1665042D01*
X54944776Y1577102D01*
X54827898Y1460224D01*
X54739957Y1320268D01*
X54739956Y1320264D01*
X54698178Y1200870D01*
X54657456Y1144094D01*
X54592504Y1118347D01*
X54523942Y1131803D01*
X54515165Y1136831D01*
X54470267Y1165042D01*
X54470268Y1165042D01*
X54314246Y1219636D01*
X54150004Y1238141D01*
X54149996Y1238141D01*
X53985753Y1219636D01*
X53829731Y1165042D01*
X53786170Y1137670D01*
X53718933Y1118670D01*
X53652098Y1139038D01*
X53606884Y1192306D01*
X53596978Y1256548D01*
X53613141Y1399998D01*
X53613141Y1400004D01*
X53594635Y1564247D01*
X53594634Y1564250D01*
X53594634Y1564252D01*
X53540042Y1720267D01*
X53525285Y1743752D01*
X53467587Y1835579D01*
X53452102Y1860223D01*
X53335223Y1977102D01*
X53331190Y1979636D01*
X53195268Y2065042D01*
X53039246Y2119636D01*
X53033614Y2120270D01*
X52969200Y2147338D01*
X52929646Y2204933D01*
X52923499Y2243490D01*
X52923499Y3130845D01*
X52923499Y4133359D01*
X52924028Y4141423D01*
X52928449Y4175000D01*
X52908739Y4324714D01*
X52850952Y4464224D01*
X52846210Y4470403D01*
X52830578Y4490777D01*
X52761833Y4580365D01*
X52759025Y4584025D01*
X52732162Y4604638D01*
X52726072Y4609979D01*
X51389847Y5946204D01*
X51384508Y5952292D01*
X51363897Y5979153D01*
X51244096Y6071080D01*
X51244093Y6071081D01*
X51244091Y6071083D01*
X51104589Y6128866D01*
X51104584Y6128868D01*
X50992464Y6143628D01*
X50954873Y6148577D01*
X50954871Y6148577D01*
X50940736Y6146717D01*
X50921310Y6144159D01*
X50913212Y6143628D01*
X49991641Y6143628D01*
X49924602Y6163313D01*
X49878847Y6216117D01*
X49868903Y6285275D01*
X49897928Y6348831D01*
X49903960Y6355309D01*
X50168287Y6619636D01*
X50989088Y7440439D01*
X51050409Y7473922D01*
X51062867Y7475974D01*
X51101852Y7480366D01*
X51257867Y7534958D01*
X51397823Y7622898D01*
X51441039Y7666115D01*
X51502361Y7699600D01*
X51572052Y7694616D01*
X51587737Y7687489D01*
X51607600Y7676740D01*
X51672426Y7641658D01*
X51885365Y7568556D01*
X52107431Y7531500D01*
X52332569Y7531500D01*
X52554635Y7568556D01*
X52767574Y7641658D01*
X52965576Y7748811D01*
X53143240Y7887094D01*
X53264594Y8018918D01*
X53295715Y8052724D01*
X53295715Y8052725D01*
X53295722Y8052732D01*
X53389749Y8196653D01*
X53442894Y8242006D01*
X53512125Y8251430D01*
X53575461Y8221928D01*
X53595130Y8199952D01*
X53721890Y8018922D01*
X53888917Y7851895D01*
X54082421Y7716400D01*
X54296507Y7616571D01*
X54296516Y7616567D01*
X54510000Y7559366D01*
X54510000Y8277699D01*
X54529685Y8344738D01*
X54582489Y8390493D01*
X54651647Y8400437D01*
X54724237Y8390000D01*
X54724238Y8390000D01*
X54795762Y8390000D01*
X54795763Y8390000D01*
X54868352Y8400437D01*
X54937510Y8390493D01*
X54990314Y8344739D01*
X55009999Y8277699D01*
X55009999Y7559366D01*
X55223483Y7616567D01*
X55223492Y7616571D01*
X55437578Y7716400D01*
X55631082Y7851895D01*
X55798105Y8018918D01*
X55933600Y8212422D01*
X56033429Y8426508D01*
X56033432Y8426514D01*
X56090636Y8640000D01*
X55373347Y8640000D01*
X55306308Y8659685D01*
X55260553Y8712489D01*
X55250609Y8781647D01*
X55254369Y8798933D01*
X55260000Y8818112D01*
X55260000Y8961889D01*
X55254369Y8981067D01*
X55254370Y9050936D01*
X55292145Y9109714D01*
X55355701Y9138738D01*
X55373347Y9140000D01*
X56090636Y9140000D01*
X56090635Y9140001D01*
X56033432Y9353487D01*
X56033429Y9353493D01*
X55933600Y9567578D01*
X55933599Y9567580D01*
X55798113Y9761074D01*
X55798108Y9761080D01*
X55631082Y9928106D01*
X55437578Y10063601D01*
X55223492Y10163430D01*
X55223486Y10163433D01*
X55010000Y10220636D01*
X55009999Y10220636D01*
X55009999Y9502302D01*
X54990314Y9435262D01*
X54937510Y9389508D01*
X54868353Y9379564D01*
X54795764Y9390000D01*
X54795763Y9390000D01*
X54724237Y9390000D01*
X54724233Y9390000D01*
X54651645Y9379564D01*
X54582487Y9389508D01*
X54529684Y9435264D01*
X54510000Y9502302D01*
X54510000Y10220636D01*
X54509999Y10220636D01*
X54296513Y10163433D01*
X54296507Y10163430D01*
X54082422Y10063601D01*
X54082420Y10063600D01*
X53888926Y9928114D01*
X53888920Y9928109D01*
X53721891Y9761080D01*
X53721890Y9761078D01*
X53595131Y9580048D01*
X53540554Y9536423D01*
X53471055Y9529231D01*
X53408701Y9560753D01*
X53389752Y9583344D01*
X53295722Y9727268D01*
X53295715Y9727275D01*
X53295715Y9727277D01*
X53143243Y9892903D01*
X53143238Y9892908D01*
X53005646Y10000001D01*
X52965576Y10031189D01*
X52965575Y10031190D01*
X52965572Y10031192D01*
X52767580Y10138339D01*
X52767577Y10138341D01*
X52767574Y10138342D01*
X52767571Y10138343D01*
X52767569Y10138344D01*
X52554637Y10211444D01*
X52332569Y10248500D01*
X52107431Y10248500D01*
X51885362Y10211444D01*
X51672430Y10138344D01*
X51672419Y10138339D01*
X51474427Y10031192D01*
X51474422Y10031188D01*
X51296761Y9892908D01*
X51296756Y9892903D01*
X51144284Y9727277D01*
X51144276Y9727266D01*
X51053808Y9588794D01*
X51000662Y9543438D01*
X50931431Y9534014D01*
X50868095Y9563516D01*
X50846192Y9588794D01*
X50755723Y9727266D01*
X50755715Y9727277D01*
X50603243Y9892903D01*
X50603238Y9892908D01*
X50465646Y10000001D01*
X50425576Y10031189D01*
X50425575Y10031190D01*
X50425572Y10031192D01*
X50227580Y10138339D01*
X50227577Y10138341D01*
X50227574Y10138342D01*
X50227571Y10138343D01*
X50227569Y10138344D01*
X50014637Y10211444D01*
X49792569Y10248500D01*
X49567431Y10248500D01*
X49345362Y10211444D01*
X49132430Y10138344D01*
X49132419Y10138339D01*
X48934427Y10031192D01*
X48934422Y10031188D01*
X48756761Y9892908D01*
X48756756Y9892903D01*
X48604284Y9727277D01*
X48604276Y9727266D01*
X48513808Y9588794D01*
X48460662Y9543438D01*
X48391431Y9534014D01*
X48328095Y9563516D01*
X48306192Y9588794D01*
X48215723Y9727266D01*
X48215715Y9727277D01*
X48063243Y9892903D01*
X48063238Y9892908D01*
X47925646Y10000001D01*
X47885576Y10031189D01*
X47885575Y10031190D01*
X47885572Y10031192D01*
X47687580Y10138339D01*
X47687577Y10138341D01*
X47687574Y10138342D01*
X47687571Y10138343D01*
X47687569Y10138344D01*
X47474637Y10211444D01*
X47252569Y10248500D01*
X47027431Y10248500D01*
X46805362Y10211444D01*
X46592430Y10138344D01*
X46592419Y10138339D01*
X46394427Y10031192D01*
X46394422Y10031188D01*
X46216761Y9892908D01*
X46216756Y9892903D01*
X46064284Y9727277D01*
X46064276Y9727266D01*
X45973808Y9588794D01*
X45920662Y9543438D01*
X45851431Y9534014D01*
X45788095Y9563516D01*
X45766192Y9588794D01*
X45675723Y9727266D01*
X45675715Y9727277D01*
X45523243Y9892903D01*
X45523238Y9892908D01*
X45385646Y10000001D01*
X45345576Y10031189D01*
X45345575Y10031190D01*
X45345572Y10031192D01*
X45147580Y10138339D01*
X45147577Y10138341D01*
X45147574Y10138342D01*
X45147571Y10138343D01*
X45147569Y10138344D01*
X44934637Y10211444D01*
X44712569Y10248500D01*
X44487431Y10248500D01*
X44265362Y10211444D01*
X44052430Y10138344D01*
X44052419Y10138339D01*
X43854427Y10031192D01*
X43854422Y10031188D01*
X43676761Y9892908D01*
X43676756Y9892903D01*
X43524284Y9727277D01*
X43524276Y9727266D01*
X43433808Y9588794D01*
X43380662Y9543438D01*
X43311431Y9534014D01*
X43248095Y9563516D01*
X43226192Y9588794D01*
X43135723Y9727266D01*
X43135715Y9727277D01*
X42983243Y9892903D01*
X42983238Y9892908D01*
X42845646Y10000001D01*
X42805576Y10031189D01*
X42805575Y10031190D01*
X42805572Y10031192D01*
X42607580Y10138339D01*
X42607577Y10138341D01*
X42607574Y10138342D01*
X42607571Y10138343D01*
X42607569Y10138344D01*
X42394637Y10211444D01*
X42172569Y10248500D01*
X41947431Y10248500D01*
X41725362Y10211444D01*
X41512430Y10138344D01*
X41512419Y10138339D01*
X41314427Y10031192D01*
X41314422Y10031188D01*
X41136761Y9892908D01*
X41136756Y9892903D01*
X40984284Y9727277D01*
X40984276Y9727266D01*
X40893808Y9588794D01*
X40840662Y9543438D01*
X40771431Y9534014D01*
X40708095Y9563516D01*
X40686192Y9588794D01*
X40595723Y9727266D01*
X40595715Y9727277D01*
X40443243Y9892903D01*
X40443238Y9892908D01*
X40305646Y10000001D01*
X40265576Y10031189D01*
X40265575Y10031190D01*
X40265572Y10031192D01*
X40067580Y10138339D01*
X40067577Y10138341D01*
X40067574Y10138342D01*
X40067571Y10138343D01*
X40067569Y10138344D01*
X39854637Y10211444D01*
X39632569Y10248500D01*
X39407431Y10248500D01*
X39185362Y10211444D01*
X38972430Y10138344D01*
X38972419Y10138339D01*
X38774427Y10031192D01*
X38774422Y10031188D01*
X38596761Y9892908D01*
X38596756Y9892903D01*
X38444284Y9727277D01*
X38444276Y9727266D01*
X38353808Y9588794D01*
X38300662Y9543438D01*
X38231431Y9534014D01*
X38168095Y9563516D01*
X38146192Y9588794D01*
X38055723Y9727266D01*
X38055715Y9727277D01*
X37903243Y9892903D01*
X37903238Y9892908D01*
X37765646Y10000001D01*
X37725576Y10031189D01*
X37725575Y10031190D01*
X37725572Y10031192D01*
X37527580Y10138339D01*
X37527577Y10138341D01*
X37527574Y10138342D01*
X37527571Y10138343D01*
X37527569Y10138344D01*
X37314637Y10211444D01*
X37092569Y10248500D01*
X36867431Y10248500D01*
X36645362Y10211444D01*
X36432430Y10138344D01*
X36432419Y10138339D01*
X36234427Y10031192D01*
X36234422Y10031188D01*
X36056761Y9892908D01*
X36056756Y9892903D01*
X35904284Y9727277D01*
X35904276Y9727266D01*
X35813808Y9588794D01*
X35760662Y9543438D01*
X35691431Y9534014D01*
X35628095Y9563516D01*
X35606192Y9588794D01*
X35515723Y9727266D01*
X35515715Y9727277D01*
X35363243Y9892903D01*
X35363238Y9892908D01*
X35225646Y10000001D01*
X35185576Y10031189D01*
X35185575Y10031190D01*
X35185572Y10031192D01*
X34987580Y10138339D01*
X34987577Y10138341D01*
X34987574Y10138342D01*
X34987571Y10138343D01*
X34987569Y10138344D01*
X34774637Y10211444D01*
X34552569Y10248500D01*
X34327431Y10248500D01*
X34105362Y10211444D01*
X33892430Y10138344D01*
X33892419Y10138339D01*
X33694427Y10031192D01*
X33694422Y10031188D01*
X33516761Y9892908D01*
X33516756Y9892903D01*
X33364284Y9727277D01*
X33364276Y9727266D01*
X33273808Y9588794D01*
X33220662Y9543438D01*
X33151431Y9534014D01*
X33088095Y9563516D01*
X33066192Y9588794D01*
X32975723Y9727266D01*
X32975715Y9727277D01*
X32823243Y9892903D01*
X32823238Y9892908D01*
X32685646Y10000001D01*
X32645576Y10031189D01*
X32645575Y10031190D01*
X32645572Y10031192D01*
X32447580Y10138339D01*
X32447577Y10138341D01*
X32447574Y10138342D01*
X32447571Y10138343D01*
X32447569Y10138344D01*
X32234637Y10211444D01*
X32012569Y10248500D01*
X31787431Y10248500D01*
X31565362Y10211444D01*
X31352430Y10138344D01*
X31352419Y10138339D01*
X31154427Y10031192D01*
X31154422Y10031188D01*
X30976761Y9892908D01*
X30976756Y9892903D01*
X30824284Y9727277D01*
X30824276Y9727266D01*
X30733808Y9588794D01*
X30680662Y9543438D01*
X30611431Y9534014D01*
X30548095Y9563516D01*
X30526192Y9588794D01*
X30435723Y9727266D01*
X30435715Y9727277D01*
X30283243Y9892903D01*
X30283238Y9892908D01*
X30145646Y10000001D01*
X30105576Y10031189D01*
X30105575Y10031190D01*
X30105572Y10031192D01*
X29907580Y10138339D01*
X29907577Y10138341D01*
X29907574Y10138342D01*
X29907571Y10138343D01*
X29907569Y10138344D01*
X29694637Y10211444D01*
X29472569Y10248500D01*
X29247431Y10248500D01*
X29025362Y10211444D01*
X28812430Y10138344D01*
X28812419Y10138339D01*
X28614427Y10031192D01*
X28614422Y10031188D01*
X28436761Y9892908D01*
X28436756Y9892903D01*
X28284284Y9727277D01*
X28284276Y9727266D01*
X28193808Y9588794D01*
X28140662Y9543438D01*
X28071431Y9534014D01*
X28008095Y9563516D01*
X27986192Y9588794D01*
X27895723Y9727266D01*
X27895715Y9727277D01*
X27743243Y9892903D01*
X27743238Y9892908D01*
X27605646Y10000001D01*
X27565576Y10031189D01*
X27565575Y10031190D01*
X27565572Y10031192D01*
X27367580Y10138339D01*
X27367577Y10138341D01*
X27367574Y10138342D01*
X27367571Y10138343D01*
X27367569Y10138344D01*
X27154637Y10211444D01*
X26932569Y10248500D01*
X26707431Y10248500D01*
X26485362Y10211444D01*
X26272430Y10138344D01*
X26272419Y10138339D01*
X26074427Y10031192D01*
X26074422Y10031188D01*
X25896761Y9892908D01*
X25896756Y9892903D01*
X25744284Y9727277D01*
X25744276Y9727266D01*
X25653808Y9588794D01*
X25600662Y9543438D01*
X25531431Y9534014D01*
X25468095Y9563516D01*
X25446192Y9588794D01*
X25355723Y9727266D01*
X25355715Y9727277D01*
X25203243Y9892903D01*
X25203238Y9892908D01*
X25065646Y10000001D01*
X25025576Y10031189D01*
X25025575Y10031190D01*
X25025572Y10031192D01*
X24827580Y10138339D01*
X24827577Y10138341D01*
X24827574Y10138342D01*
X24827571Y10138343D01*
X24827569Y10138344D01*
X24614637Y10211444D01*
X24392569Y10248500D01*
X24167431Y10248500D01*
X23945362Y10211444D01*
X23732430Y10138344D01*
X23732419Y10138339D01*
X23534427Y10031192D01*
X23534422Y10031188D01*
X23356761Y9892908D01*
X23356756Y9892903D01*
X23204284Y9727277D01*
X23204276Y9727266D01*
X23113808Y9588794D01*
X23060662Y9543438D01*
X22991431Y9534014D01*
X22928095Y9563516D01*
X22906192Y9588794D01*
X22815723Y9727266D01*
X22815715Y9727277D01*
X22663243Y9892903D01*
X22663238Y9892908D01*
X22525646Y10000001D01*
X22485576Y10031189D01*
X22485575Y10031190D01*
X22485572Y10031192D01*
X22287580Y10138339D01*
X22287577Y10138341D01*
X22287574Y10138342D01*
X22287571Y10138343D01*
X22287569Y10138344D01*
X22074637Y10211444D01*
X21852569Y10248500D01*
X21627431Y10248500D01*
X21405362Y10211444D01*
X21192430Y10138344D01*
X21192419Y10138339D01*
X20994427Y10031192D01*
X20994422Y10031188D01*
X20816761Y9892908D01*
X20816756Y9892903D01*
X20664284Y9727277D01*
X20664276Y9727266D01*
X20573808Y9588794D01*
X20520662Y9543438D01*
X20451431Y9534014D01*
X20388095Y9563516D01*
X20366192Y9588794D01*
X20275723Y9727266D01*
X20275715Y9727277D01*
X20123243Y9892903D01*
X20123238Y9892908D01*
X19985646Y10000001D01*
X19945576Y10031189D01*
X19945575Y10031190D01*
X19945572Y10031192D01*
X19747580Y10138339D01*
X19747577Y10138341D01*
X19747574Y10138342D01*
X19747571Y10138343D01*
X19747569Y10138344D01*
X19534637Y10211444D01*
X19312569Y10248500D01*
X19087431Y10248500D01*
X18865362Y10211444D01*
X18652430Y10138344D01*
X18652419Y10138339D01*
X18454427Y10031192D01*
X18454422Y10031188D01*
X18276761Y9892908D01*
X18276756Y9892903D01*
X18124284Y9727277D01*
X18124276Y9727266D01*
X18033808Y9588794D01*
X17980662Y9543438D01*
X17911431Y9534014D01*
X17848095Y9563516D01*
X17826192Y9588794D01*
X17735723Y9727266D01*
X17735715Y9727277D01*
X17583243Y9892903D01*
X17583238Y9892908D01*
X17445646Y10000001D01*
X17405576Y10031189D01*
X17405575Y10031190D01*
X17405572Y10031192D01*
X17207580Y10138339D01*
X17207577Y10138341D01*
X17207574Y10138342D01*
X17207571Y10138343D01*
X17207569Y10138344D01*
X16994637Y10211444D01*
X16772569Y10248500D01*
X16547431Y10248500D01*
X16325362Y10211444D01*
X16112430Y10138344D01*
X16112419Y10138339D01*
X15914427Y10031192D01*
X15914422Y10031188D01*
X15736761Y9892908D01*
X15736756Y9892903D01*
X15584284Y9727277D01*
X15584276Y9727266D01*
X15493808Y9588794D01*
X15440662Y9543438D01*
X15371431Y9534014D01*
X15308095Y9563516D01*
X15286192Y9588794D01*
X15195723Y9727266D01*
X15195715Y9727277D01*
X15043243Y9892903D01*
X15043238Y9892908D01*
X14905646Y10000001D01*
X14865576Y10031189D01*
X14865575Y10031190D01*
X14865572Y10031192D01*
X14667580Y10138339D01*
X14667577Y10138341D01*
X14667574Y10138342D01*
X14667571Y10138343D01*
X14667569Y10138344D01*
X14454637Y10211444D01*
X14232569Y10248500D01*
X14007431Y10248500D01*
X13785362Y10211444D01*
X13572430Y10138344D01*
X13572419Y10138339D01*
X13374427Y10031192D01*
X13374422Y10031188D01*
X13196761Y9892908D01*
X13196756Y9892903D01*
X13044284Y9727277D01*
X13044276Y9727266D01*
X12953808Y9588794D01*
X12900662Y9543438D01*
X12831431Y9534014D01*
X12768095Y9563516D01*
X12746192Y9588794D01*
X12655723Y9727266D01*
X12655715Y9727277D01*
X12503243Y9892903D01*
X12503238Y9892908D01*
X12365646Y10000001D01*
X12325576Y10031189D01*
X12325575Y10031190D01*
X12325572Y10031192D01*
X12127580Y10138339D01*
X12127577Y10138341D01*
X12127574Y10138342D01*
X12127571Y10138343D01*
X12127569Y10138344D01*
X11914637Y10211444D01*
X11692569Y10248500D01*
X11467431Y10248500D01*
X11245362Y10211444D01*
X11032430Y10138344D01*
X11032419Y10138339D01*
X10834427Y10031192D01*
X10834422Y10031188D01*
X10656761Y9892908D01*
X10656756Y9892903D01*
X10504284Y9727277D01*
X10504276Y9727266D01*
X10413808Y9588794D01*
X10360662Y9543438D01*
X10291431Y9534014D01*
X10228095Y9563516D01*
X10206192Y9588794D01*
X10115723Y9727266D01*
X10115715Y9727277D01*
X9963243Y9892903D01*
X9963238Y9892908D01*
X9825646Y10000001D01*
X9785576Y10031189D01*
X9785575Y10031190D01*
X9785572Y10031192D01*
X9587580Y10138339D01*
X9587577Y10138341D01*
X9587574Y10138342D01*
X9587571Y10138343D01*
X9587569Y10138344D01*
X9374637Y10211444D01*
X9152569Y10248500D01*
X8927431Y10248500D01*
X8705362Y10211444D01*
X8492430Y10138344D01*
X8492419Y10138339D01*
X8294427Y10031192D01*
X8294422Y10031188D01*
X8116761Y9892908D01*
X8053548Y9824240D01*
X7993661Y9788250D01*
X7923823Y9790351D01*
X7866207Y9829876D01*
X7846138Y9864890D01*
X7800889Y9986204D01*
X7784951Y10007495D01*
X7713261Y10103261D01*
X7596204Y10190889D01*
X7562683Y10203392D01*
X7459203Y10241989D01*
X7398654Y10248500D01*
X7398638Y10248500D01*
X5601362Y10248500D01*
X5601345Y10248500D01*
X5540797Y10241989D01*
X5540795Y10241989D01*
X5403795Y10190889D01*
X5286739Y10103261D01*
X5199111Y9986205D01*
X5148011Y9849205D01*
X5148011Y9849203D01*
X5141500Y9788655D01*
X5141500Y7991346D01*
X5148011Y7930798D01*
X5148011Y7930796D01*
X5189238Y7820267D01*
X5199111Y7793796D01*
X5286739Y7676739D01*
X5403796Y7589111D01*
X5540799Y7538011D01*
X5568050Y7535082D01*
X5601345Y7531501D01*
X5601362Y7531500D01*
X7398638Y7531500D01*
X7398654Y7531501D01*
X7425692Y7534409D01*
X7459201Y7538011D01*
X7596204Y7589111D01*
X7713261Y7676739D01*
X7800889Y7793796D01*
X7846138Y7915113D01*
X7888009Y7971044D01*
X7953474Y7995461D01*
X8021746Y7980609D01*
X8053545Y7955764D01*
X8116760Y7887094D01*
X8294424Y7748811D01*
X8294425Y7748811D01*
X8294427Y7748809D01*
X8401516Y7690856D01*
X8492426Y7641658D01*
X8705365Y7568556D01*
X8927431Y7531500D01*
X9152569Y7531500D01*
X9374635Y7568556D01*
X9587574Y7641658D01*
X9785576Y7748811D01*
X9963240Y7887094D01*
X10084594Y8018918D01*
X10115715Y8052724D01*
X10115715Y8052725D01*
X10115722Y8052732D01*
X10206193Y8191210D01*
X10259338Y8236563D01*
X10328569Y8245987D01*
X10391905Y8216485D01*
X10413804Y8191213D01*
X10504278Y8052732D01*
X10504283Y8052727D01*
X10504284Y8052724D01*
X10630968Y7915111D01*
X10656760Y7887094D01*
X10834424Y7748811D01*
X10834425Y7748811D01*
X10834427Y7748809D01*
X10941516Y7690856D01*
X11032426Y7641658D01*
X11245365Y7568556D01*
X11467431Y7531500D01*
X11647497Y7531500D01*
X11714536Y7511815D01*
X11760291Y7459011D01*
X11770717Y7421383D01*
X11780364Y7335754D01*
X11834958Y7179732D01*
X11910050Y7060224D01*
X11922898Y7039777D01*
X12039777Y6922898D01*
X12122558Y6870884D01*
X12168724Y6841875D01*
X12179733Y6834958D01*
X12335748Y6780366D01*
X12335751Y6780366D01*
X12335753Y6780365D01*
X12499996Y6761859D01*
X12500000Y6761859D01*
X12500004Y6761859D01*
X12664246Y6780365D01*
X12664247Y6780366D01*
X12664252Y6780366D01*
X12820267Y6834958D01*
X12960223Y6922898D01*
X13077102Y7039777D01*
X13165042Y7179733D01*
X13219634Y7335748D01*
X13219635Y7335754D01*
X13238141Y7499997D01*
X13238141Y7500003D01*
X13226022Y7607562D01*
X13238076Y7676384D01*
X13285425Y7727764D01*
X13353036Y7745388D01*
X13408257Y7730502D01*
X13481517Y7690856D01*
X13531108Y7641637D01*
X13546500Y7581801D01*
X13546500Y6908914D01*
X13526815Y6841875D01*
X13510181Y6821233D01*
X13073935Y6384987D01*
X13067834Y6379636D01*
X13040975Y6359025D01*
X12970955Y6267779D01*
X12970953Y6267772D01*
X12949047Y6239224D01*
X12949045Y6239220D01*
X12891262Y6099718D01*
X12891260Y6099713D01*
X12871551Y5950002D01*
X12871551Y5950000D01*
X12875969Y5916443D01*
X12876500Y5908341D01*
X12876500Y4691659D01*
X12875969Y4683561D01*
X12874010Y4668675D01*
X12871551Y4650001D01*
X12871551Y4649998D01*
X12875692Y4618543D01*
X12875693Y4618538D01*
X12891260Y4500288D01*
X12891262Y4500283D01*
X12949045Y4360781D01*
X12949045Y4360780D01*
X12949047Y4360777D01*
X12949048Y4360776D01*
X13034052Y4249997D01*
X13040977Y4240973D01*
X13067829Y4220369D01*
X13073925Y4215024D01*
X13518138Y3770811D01*
X13952882Y3336067D01*
X13986367Y3274744D01*
X13981383Y3205052D01*
X13956297Y3166020D01*
X13956741Y3165666D01*
X13953286Y3161335D01*
X13952882Y3160705D01*
X13952400Y3160224D01*
X13864460Y3020269D01*
X13809866Y2864247D01*
X13791361Y2700004D01*
X13791361Y2699997D01*
X13809866Y2535754D01*
X13864460Y2379732D01*
X13920243Y2290955D01*
X13951518Y2241180D01*
X13955481Y2234874D01*
X13974481Y2167637D01*
X13955482Y2102932D01*
X13934958Y2070268D01*
X13880364Y1914247D01*
X13861859Y1750004D01*
X13861859Y1749997D01*
X13880364Y1585754D01*
X13880365Y1585749D01*
X13880366Y1585748D01*
X13887890Y1564247D01*
X13934958Y1429732D01*
X13984390Y1351062D01*
X14022898Y1289777D01*
X14139777Y1172898D01*
X14222558Y1120884D01*
X14278475Y1085748D01*
X14279733Y1084958D01*
X14435748Y1030366D01*
X14435751Y1030366D01*
X14435753Y1030365D01*
X14599996Y1011859D01*
X14600000Y1011859D01*
X14600003Y1011859D01*
X14738616Y1027477D01*
X14807438Y1015423D01*
X14858818Y968074D01*
X14876500Y904257D01*
X14876500Y-154256D01*
X14856815Y-221295D01*
X14804011Y-267050D01*
X14738617Y-277476D01*
X14600004Y-261859D01*
X14599996Y-261859D01*
X14435753Y-280364D01*
X14279731Y-334958D01*
X14139776Y-422898D01*
X14022898Y-539776D01*
X13934958Y-679731D01*
X13880364Y-835753D01*
X13861859Y-999996D01*
X13861859Y-1000003D01*
X13880364Y-1164246D01*
X13880365Y-1164251D01*
X13880366Y-1164252D01*
X13889375Y-1189998D01*
X13934958Y-1320268D01*
X13999417Y-1422853D01*
X14022898Y-1460223D01*
X14139777Y-1577102D01*
X14216005Y-1624999D01*
X14246171Y-1643954D01*
X14279733Y-1665042D01*
X14435748Y-1719634D01*
X14435751Y-1719634D01*
X14435753Y-1719635D01*
X14599996Y-1738141D01*
X14600000Y-1738141D01*
X14600003Y-1738141D01*
X14738616Y-1722523D01*
X14807438Y-1734577D01*
X14858818Y-1781926D01*
X14876500Y-1845743D01*
X14876500Y-2254256D01*
X14856815Y-2321295D01*
X14804011Y-2367050D01*
X14738617Y-2377476D01*
X14600004Y-2361859D01*
X14599996Y-2361859D01*
X14435753Y-2380364D01*
X14279731Y-2434958D01*
X14139776Y-2522898D01*
X14022898Y-2639776D01*
X13934958Y-2779731D01*
X13880364Y-2935753D01*
X13861859Y-3099996D01*
X13861859Y-3100003D01*
X13880364Y-3264246D01*
X13934958Y-3420268D01*
X13977606Y-3488141D01*
X14022898Y-3560223D01*
X14139777Y-3677102D01*
X14200155Y-3715040D01*
X14255798Y-3750003D01*
X14279733Y-3765042D01*
X14435748Y-3819634D01*
X14435751Y-3819634D01*
X14435753Y-3819635D01*
X14599996Y-3838141D01*
X14600000Y-3838141D01*
X14600004Y-3838141D01*
X14764246Y-3819635D01*
X14764247Y-3819634D01*
X14764252Y-3819634D01*
X14920267Y-3765042D01*
X14998815Y-3715686D01*
X15066051Y-3696687D01*
X15122817Y-3713355D01*
X15123460Y-3712022D01*
X15129727Y-3715040D01*
X15129733Y-3715042D01*
X15285748Y-3769634D01*
X15324715Y-3774024D01*
X15389126Y-3801089D01*
X15398512Y-3809563D01*
X16158527Y-4569578D01*
X16192012Y-4630901D01*
X16187028Y-4700593D01*
X16145156Y-4756526D01*
X16092245Y-4777505D01*
X16092544Y-4778814D01*
X16085756Y-4780363D01*
X15929731Y-4834958D01*
X15789776Y-4922898D01*
X15672898Y-5039776D01*
X15604994Y-5147845D01*
X15552659Y-5194136D01*
X15483605Y-5204784D01*
X15419757Y-5176409D01*
X15395006Y-5147845D01*
X15327101Y-5039776D01*
X15210223Y-4922898D01*
X15070268Y-4834958D01*
X14914246Y-4780364D01*
X14750004Y-4761859D01*
X14749996Y-4761859D01*
X14585749Y-4780365D01*
X14501202Y-4809949D01*
X14431423Y-4813510D01*
X14419295Y-4809949D01*
X14334744Y-4780364D01*
X14334745Y-4780364D01*
X14170501Y-4761859D01*
X14170493Y-4761859D01*
X14006250Y-4780364D01*
X13850228Y-4834958D01*
X13710273Y-4922898D01*
X13593395Y-5039776D01*
X13505455Y-5179731D01*
X13450861Y-5335753D01*
X13432356Y-5499996D01*
X13432356Y-5500003D01*
X13450861Y-5664246D01*
X13450862Y-5664251D01*
X13450863Y-5664252D01*
X13458283Y-5685458D01*
X13505455Y-5820268D01*
X13561899Y-5910097D01*
X13593395Y-5960223D01*
X13710274Y-6077102D01*
X13850230Y-6165042D01*
X14006245Y-6219634D01*
X14006248Y-6219634D01*
X14006250Y-6219635D01*
X14170493Y-6238141D01*
X14170497Y-6238141D01*
X14170501Y-6238141D01*
X14334745Y-6219635D01*
X14334747Y-6219634D01*
X14334749Y-6219634D01*
X14419293Y-6190049D01*
X14489071Y-6186487D01*
X14501203Y-6190050D01*
X14585751Y-6219635D01*
X14749996Y-6238141D01*
X14750000Y-6238141D01*
X14750004Y-6238141D01*
X14914246Y-6219635D01*
X14914247Y-6219634D01*
X14914252Y-6219634D01*
X15070267Y-6165042D01*
X15210223Y-6077102D01*
X15327102Y-5960223D01*
X15395006Y-5852153D01*
X15447341Y-5805863D01*
X15516394Y-5795215D01*
X15580243Y-5823590D01*
X15604993Y-5852153D01*
X15672898Y-5960223D01*
X15789777Y-6077102D01*
X15929733Y-6165042D01*
X16085748Y-6219634D01*
X16085751Y-6219634D01*
X16085753Y-6219635D01*
X16249996Y-6238141D01*
X16250000Y-6238141D01*
X16250004Y-6238141D01*
X16414246Y-6219635D01*
X16414247Y-6219634D01*
X16414252Y-6219634D01*
X16570267Y-6165042D01*
X16710223Y-6077102D01*
X16827102Y-5960223D01*
X16827106Y-5960215D01*
X16828054Y-5959029D01*
X16828865Y-5958459D01*
X16832026Y-5955299D01*
X16832579Y-5955852D01*
X16885243Y-5918889D01*
X16955055Y-5916040D01*
X17015324Y-5951387D01*
X17021946Y-5959029D01*
X17022897Y-5960221D01*
X17022898Y-5960223D01*
X17139777Y-6077102D01*
X17279733Y-6165042D01*
X17435748Y-6219634D01*
X17435751Y-6219634D01*
X17435753Y-6219635D01*
X17599996Y-6238141D01*
X17600000Y-6238141D01*
X17600004Y-6238141D01*
X17764248Y-6219635D01*
X17764250Y-6219634D01*
X17764252Y-6219634D01*
X17884046Y-6177715D01*
X17953825Y-6174154D01*
X17965938Y-6177710D01*
X18085748Y-6219634D01*
X18085751Y-6219635D01*
X18249996Y-6238141D01*
X18250000Y-6238141D01*
X18250004Y-6238141D01*
X18414246Y-6219635D01*
X18414247Y-6219634D01*
X18414252Y-6219634D01*
X18570267Y-6165042D01*
X18710223Y-6077102D01*
X18827102Y-5960223D01*
X18915042Y-5820267D01*
X18969634Y-5664252D01*
X18969635Y-5664246D01*
X18988141Y-5500003D01*
X18988141Y-5499996D01*
X18969635Y-5335753D01*
X18969634Y-5335751D01*
X18969634Y-5335748D01*
X18957126Y-5300003D01*
X24261859Y-5300003D01*
X24280364Y-5464246D01*
X24334958Y-5620268D01*
X24409023Y-5738141D01*
X24422898Y-5760223D01*
X24539777Y-5877102D01*
X24601747Y-5916040D01*
X24672063Y-5960223D01*
X24679733Y-5965042D01*
X24835748Y-6019634D01*
X24835751Y-6019634D01*
X24835753Y-6019635D01*
X24999996Y-6038141D01*
X25000000Y-6038141D01*
X25000004Y-6038141D01*
X25164246Y-6019635D01*
X25164247Y-6019634D01*
X25164252Y-6019634D01*
X25320267Y-5965042D01*
X25460223Y-5877102D01*
X25577102Y-5760223D01*
X25665042Y-5620267D01*
X25719634Y-5464252D01*
X25734113Y-5335748D01*
X25738141Y-5300003D01*
X25738141Y-5299996D01*
X25719635Y-5135753D01*
X25719634Y-5135751D01*
X25719634Y-5135748D01*
X25665042Y-4979733D01*
X25577102Y-4839777D01*
X25460223Y-4722898D01*
X25424725Y-4700593D01*
X25320268Y-4634958D01*
X25164246Y-4580364D01*
X25000004Y-4561859D01*
X24999996Y-4561859D01*
X24835753Y-4580364D01*
X24679731Y-4634958D01*
X24539776Y-4722898D01*
X24422898Y-4839776D01*
X24334958Y-4979731D01*
X24280364Y-5135753D01*
X24261859Y-5299996D01*
X24261859Y-5300003D01*
X18957126Y-5300003D01*
X18915042Y-5179733D01*
X18912953Y-5176409D01*
X18827101Y-5039776D01*
X18710223Y-4922898D01*
X18570268Y-4834958D01*
X18414246Y-4780364D01*
X18250004Y-4761859D01*
X18249997Y-4761859D01*
X18085748Y-4780365D01*
X18078959Y-4781915D01*
X18078442Y-4779649D01*
X18019596Y-4782637D01*
X17960774Y-4749723D01*
X16711054Y-3500003D01*
X17461859Y-3500003D01*
X17480364Y-3664246D01*
X17480365Y-3664251D01*
X17480366Y-3664252D01*
X17491918Y-3697266D01*
X17534958Y-3820268D01*
X17610572Y-3940607D01*
X17622898Y-3960223D01*
X17739777Y-4077102D01*
X17879733Y-4165042D01*
X18035748Y-4219634D01*
X18035751Y-4219634D01*
X18035753Y-4219635D01*
X18199996Y-4238141D01*
X18200000Y-4238141D01*
X18200004Y-4238141D01*
X18364246Y-4219635D01*
X18364247Y-4219634D01*
X18364252Y-4219634D01*
X18520267Y-4165042D01*
X18660223Y-4077102D01*
X18777102Y-3960223D01*
X18865042Y-3820267D01*
X18919634Y-3664252D01*
X18928479Y-3585753D01*
X18938141Y-3500003D01*
X18938141Y-3499996D01*
X18919635Y-3335753D01*
X18919634Y-3335751D01*
X18919634Y-3335748D01*
X18865042Y-3179733D01*
X18860747Y-3172898D01*
X18814944Y-3100003D01*
X18777102Y-3039777D01*
X18660223Y-2922898D01*
X18627128Y-2902103D01*
X18520268Y-2834958D01*
X18381842Y-2786521D01*
X18364252Y-2780366D01*
X18364251Y-2780365D01*
X18364246Y-2780364D01*
X18200004Y-2761859D01*
X18199996Y-2761859D01*
X18035753Y-2780364D01*
X17879731Y-2834958D01*
X17739776Y-2922898D01*
X17622898Y-3039776D01*
X17534958Y-3179731D01*
X17480364Y-3335753D01*
X17461859Y-3499996D01*
X17461859Y-3500003D01*
X16711054Y-3500003D01*
X16209563Y-2998512D01*
X16176078Y-2937189D01*
X16174025Y-2924729D01*
X16169634Y-2885748D01*
X16115042Y-2729733D01*
X16115040Y-2729730D01*
X16115040Y-2729729D01*
X16078384Y-2671392D01*
X16059383Y-2604155D01*
X16079750Y-2537320D01*
X16133018Y-2492105D01*
X16197261Y-2482199D01*
X16249997Y-2488141D01*
X16250000Y-2488141D01*
X16250004Y-2488141D01*
X16414246Y-2469635D01*
X16414247Y-2469634D01*
X16414252Y-2469634D01*
X16570267Y-2415042D01*
X16710223Y-2327102D01*
X16827102Y-2210223D01*
X16915042Y-2070267D01*
X16969634Y-1914252D01*
X16975857Y-1859021D01*
X16988141Y-1750003D01*
X16988141Y-1749996D01*
X16969635Y-1585753D01*
X16969634Y-1585751D01*
X16969634Y-1585748D01*
X16915042Y-1429733D01*
X16914595Y-1428805D01*
X16914485Y-1428143D01*
X16912742Y-1423159D01*
X16913614Y-1422853D01*
X16903241Y-1359864D01*
X16912919Y-1326902D01*
X16912742Y-1326841D01*
X16913955Y-1323372D01*
X16914595Y-1321195D01*
X16915043Y-1320264D01*
X16915043Y-1320263D01*
X16969634Y-1164252D01*
X16969635Y-1164246D01*
X16988141Y-1000003D01*
X16988141Y-999996D01*
X16969635Y-835753D01*
X16969634Y-835751D01*
X16969634Y-835748D01*
X16915042Y-679733D01*
X16827102Y-539777D01*
X16710223Y-422898D01*
X16644867Y-381832D01*
X16570268Y-334958D01*
X16414246Y-280364D01*
X16250004Y-261859D01*
X16249996Y-261859D01*
X16161383Y-271843D01*
X16092561Y-259788D01*
X16041182Y-212439D01*
X16023500Y-148623D01*
X16023500Y148624D01*
X16043185Y215663D01*
X16095989Y261418D01*
X16161383Y271844D01*
X16207357Y266664D01*
X16249998Y261859D01*
X16250000Y261859D01*
X16250004Y261859D01*
X16414246Y280365D01*
X16414247Y280366D01*
X16414252Y280366D01*
X16570267Y334958D01*
X16710223Y422898D01*
X16827102Y539777D01*
X16915042Y679733D01*
X16969634Y835748D01*
X16969635Y835754D01*
X16988141Y999997D01*
X16988141Y1000004D01*
X16969635Y1164247D01*
X16969634Y1164249D01*
X16969634Y1164252D01*
X16915042Y1320267D01*
X16914595Y1321195D01*
X16914485Y1321857D01*
X16912742Y1326841D01*
X16913614Y1327147D01*
X16903241Y1390136D01*
X16912919Y1423098D01*
X16912742Y1423159D01*
X16913955Y1426628D01*
X16914595Y1428805D01*
X16915043Y1429736D01*
X16927397Y1465042D01*
X16969634Y1585748D01*
X16969635Y1585754D01*
X16988141Y1749997D01*
X16988141Y1750004D01*
X16969635Y1914247D01*
X16969634Y1914249D01*
X16969634Y1914252D01*
X16915042Y2070267D01*
X16896919Y2099109D01*
X16855987Y2164252D01*
X16827102Y2210223D01*
X16710223Y2327102D01*
X16696453Y2335754D01*
X16570268Y2415042D01*
X16414246Y2469636D01*
X16250004Y2488141D01*
X16249996Y2488141D01*
X16161383Y2478157D01*
X16092561Y2490212D01*
X16041182Y2537561D01*
X16023500Y2601377D01*
X16023500Y2608343D01*
X16024031Y2616444D01*
X16028449Y2650000D01*
X16028449Y2653700D01*
X16029332Y2656709D01*
X16029510Y2658058D01*
X16029720Y2658031D01*
X16048134Y2720739D01*
X16100938Y2766494D01*
X16166332Y2776920D01*
X16179139Y2775477D01*
X16299998Y2761859D01*
X16300000Y2761859D01*
X16300004Y2761859D01*
X16464246Y2780365D01*
X16464247Y2780366D01*
X16464252Y2780366D01*
X16620267Y2834958D01*
X16760223Y2922898D01*
X16877102Y3039777D01*
X16965042Y3179733D01*
X17019634Y3335748D01*
X17022558Y3361698D01*
X17038141Y3499997D01*
X17038141Y3500004D01*
X17019635Y3664247D01*
X17019634Y3664249D01*
X17019634Y3664252D01*
X16965042Y3820267D01*
X16960747Y3827102D01*
X16929117Y3877442D01*
X16877102Y3960223D01*
X16760223Y4077102D01*
X16692534Y4119634D01*
X16620268Y4165042D01*
X16464246Y4219636D01*
X16300004Y4238141D01*
X16299996Y4238141D01*
X16135753Y4219636D01*
X15979731Y4165042D01*
X15839776Y4077102D01*
X15722898Y3960224D01*
X15634958Y3820269D01*
X15580364Y3664247D01*
X15575416Y3620331D01*
X15548348Y3555918D01*
X15490753Y3516364D01*
X15420916Y3514227D01*
X15364515Y3546536D01*
X14423733Y4487318D01*
X14390248Y4548641D01*
X14395232Y4618333D01*
X14437104Y4674266D01*
X14502568Y4698683D01*
X14552368Y4692041D01*
X14585731Y4680366D01*
X14585751Y4680359D01*
X14749996Y4661853D01*
X14750000Y4661853D01*
X14750004Y4661853D01*
X14914246Y4680359D01*
X14914247Y4680360D01*
X14914252Y4680360D01*
X15070267Y4734952D01*
X15210223Y4822892D01*
X15327102Y4939771D01*
X15415042Y5079727D01*
X15469634Y5235742D01*
X15469635Y5235748D01*
X15488141Y5399991D01*
X15488141Y5399998D01*
X15469635Y5564241D01*
X15469634Y5564243D01*
X15469634Y5564246D01*
X15415042Y5720261D01*
X15327102Y5860217D01*
X15224969Y5962350D01*
X15191484Y6023673D01*
X15196468Y6093365D01*
X15222765Y6134278D01*
X15222695Y6134334D01*
X15223243Y6135022D01*
X15224975Y6137717D01*
X15227036Y6139777D01*
X15314976Y6279733D01*
X15369568Y6435748D01*
X15370041Y6439947D01*
X15388075Y6599997D01*
X15388075Y6600004D01*
X15369569Y6764247D01*
X15369568Y6764249D01*
X15369568Y6764252D01*
X15314976Y6920267D01*
X15227036Y7060223D01*
X15110157Y7177102D01*
X15077952Y7197338D01*
X14970202Y7265042D01*
X14892193Y7292338D01*
X14814186Y7319634D01*
X14803613Y7320826D01*
X14739201Y7347893D01*
X14699647Y7405489D01*
X14693500Y7444044D01*
X14693500Y7511815D01*
X14693500Y7581804D01*
X14713183Y7648840D01*
X14758482Y7690856D01*
X14822290Y7725386D01*
X14865566Y7748805D01*
X14865572Y7748809D01*
X14865576Y7748811D01*
X15043240Y7887094D01*
X15164594Y8018918D01*
X15195715Y8052724D01*
X15195715Y8052725D01*
X15195722Y8052732D01*
X15286193Y8191210D01*
X15339338Y8236563D01*
X15408569Y8245987D01*
X15471905Y8216485D01*
X15493804Y8191213D01*
X15584278Y8052732D01*
X15584283Y8052727D01*
X15584284Y8052724D01*
X15710968Y7915111D01*
X15736760Y7887094D01*
X15914424Y7748811D01*
X15914425Y7748811D01*
X15914427Y7748809D01*
X16021516Y7690856D01*
X16112426Y7641658D01*
X16325365Y7568556D01*
X16547431Y7531500D01*
X16772569Y7531500D01*
X16994635Y7568556D01*
X17052263Y7588341D01*
X17122060Y7591492D01*
X17180208Y7558741D01*
X18630181Y6108768D01*
X18663666Y6047445D01*
X18666500Y6021087D01*
X18666500Y1551659D01*
X18665969Y1543557D01*
X18661551Y1510001D01*
X18661551Y1509998D01*
X18665692Y1478543D01*
X18665693Y1478538D01*
X18681260Y1360288D01*
X18681262Y1360283D01*
X18739045Y1220781D01*
X18739045Y1220780D01*
X18739047Y1220777D01*
X18739048Y1220776D01*
X18816170Y1120269D01*
X18830977Y1100973D01*
X18857829Y1080369D01*
X18863925Y1075024D01*
X21765022Y-1826073D01*
X21770363Y-1832163D01*
X21790975Y-1859025D01*
X21910776Y-1950952D01*
X21910779Y-1950953D01*
X21910780Y-1950954D01*
X21949978Y-1967190D01*
X22050286Y-2008739D01*
X22081087Y-2012794D01*
X22121580Y-2018125D01*
X22199999Y-2028449D01*
X22200000Y-2028449D01*
X22200001Y-2028449D01*
X22212962Y-2026742D01*
X22233560Y-2024030D01*
X22241659Y-2023500D01*
X22642426Y-2023500D01*
X22709465Y-2043185D01*
X22755220Y-2095989D01*
X22765646Y-2133616D01*
X22780364Y-2264244D01*
X22780365Y-2264248D01*
X22780366Y-2264252D01*
X22822284Y-2384047D01*
X22825845Y-2453823D01*
X22822284Y-2465953D01*
X22780364Y-2585753D01*
X22761859Y-2749996D01*
X22761859Y-2750003D01*
X22780364Y-2914246D01*
X22834958Y-3070268D01*
X22887120Y-3153283D01*
X22922898Y-3210223D01*
X23039777Y-3327102D01*
X23089788Y-3358526D01*
X23177294Y-3413510D01*
X23179733Y-3415042D01*
X23335748Y-3469634D01*
X23335751Y-3469634D01*
X23335753Y-3469635D01*
X23499996Y-3488141D01*
X23500000Y-3488141D01*
X23500004Y-3488141D01*
X23664246Y-3469635D01*
X23664247Y-3469634D01*
X23664252Y-3469634D01*
X23820267Y-3415042D01*
X23960223Y-3327102D01*
X24077102Y-3210223D01*
X24165042Y-3070267D01*
X24219634Y-2914252D01*
X24222846Y-2885748D01*
X24238141Y-2750003D01*
X24238141Y-2749996D01*
X24219635Y-2585751D01*
X24213507Y-2568237D01*
X24177715Y-2465952D01*
X24174154Y-2396176D01*
X24177712Y-2384056D01*
X24219634Y-2264252D01*
X24219634Y-2264250D01*
X24219635Y-2264248D01*
X24238141Y-2100003D01*
X24238141Y-2099996D01*
X24219635Y-1935751D01*
X24217941Y-1930911D01*
X24177715Y-1815952D01*
X24174154Y-1746176D01*
X24177712Y-1734056D01*
X24219634Y-1614252D01*
X24219634Y-1614250D01*
X24219635Y-1614248D01*
X24238141Y-1450003D01*
X24238141Y-1449996D01*
X24219635Y-1285751D01*
X24207125Y-1250000D01*
X24168967Y-1140952D01*
X24165406Y-1071176D01*
X24168964Y-1059058D01*
X24219634Y-914252D01*
X24219634Y-914250D01*
X24219635Y-914248D01*
X24238141Y-750003D01*
X24238141Y-749996D01*
X24219635Y-585753D01*
X24219634Y-585751D01*
X24219634Y-585748D01*
X24165042Y-429733D01*
X24160747Y-422898D01*
X24127677Y-370267D01*
X24077102Y-289777D01*
X23960223Y-172898D01*
X23934627Y-156815D01*
X23820268Y-84958D01*
X23664246Y-30364D01*
X23500004Y-11859D01*
X23499996Y-11859D01*
X23335753Y-30364D01*
X23179731Y-84958D01*
X23091846Y-140181D01*
X23064291Y-157494D01*
X22998321Y-176500D01*
X22538913Y-176500D01*
X22471874Y-156815D01*
X22451232Y-140181D01*
X20359819Y1951232D01*
X20326334Y2012555D01*
X20323500Y2038913D01*
X20323500Y2906279D01*
X20343185Y2973318D01*
X20395989Y3019073D01*
X20465147Y3029017D01*
X20528703Y2999992D01*
X20552493Y2972251D01*
X20572898Y2939777D01*
X20689777Y2822898D01*
X20757468Y2780365D01*
X20825881Y2737378D01*
X20829733Y2734958D01*
X20985748Y2680366D01*
X20985751Y2680366D01*
X20985753Y2680365D01*
X21149996Y2661859D01*
X21150000Y2661859D01*
X21150004Y2661859D01*
X21314246Y2680365D01*
X21314247Y2680366D01*
X21314252Y2680366D01*
X21470267Y2734958D01*
X21610223Y2822898D01*
X21727102Y2939777D01*
X21815042Y3079733D01*
X21869634Y3235748D01*
X21869635Y3235754D01*
X21871240Y3249997D01*
X22761859Y3249997D01*
X22780364Y3085754D01*
X22834958Y2929732D01*
X22915773Y2801117D01*
X22922898Y2789777D01*
X23039777Y2672898D01*
X23179733Y2584958D01*
X23335748Y2530366D01*
X23335751Y2530366D01*
X23335753Y2530365D01*
X23499996Y2511859D01*
X23500000Y2511859D01*
X23500004Y2511859D01*
X23664246Y2530365D01*
X23664247Y2530366D01*
X23664252Y2530366D01*
X23820267Y2584958D01*
X23960223Y2672898D01*
X24077102Y2789777D01*
X24165042Y2929733D01*
X24219634Y3085748D01*
X24224093Y3125319D01*
X24238141Y3249997D01*
X24238141Y3250004D01*
X24219635Y3414247D01*
X24219634Y3414249D01*
X24219634Y3414252D01*
X24165042Y3570267D01*
X24160747Y3577102D01*
X24118753Y3643935D01*
X24077102Y3710223D01*
X23960223Y3827102D01*
X23907510Y3860224D01*
X23820268Y3915042D01*
X23664246Y3969636D01*
X23500004Y3988141D01*
X23499996Y3988141D01*
X23335753Y3969636D01*
X23179731Y3915042D01*
X23039776Y3827102D01*
X22922898Y3710224D01*
X22834958Y3570269D01*
X22780364Y3414247D01*
X22761859Y3250004D01*
X22761859Y3249997D01*
X21871240Y3249997D01*
X21888141Y3399997D01*
X21888141Y3400004D01*
X21869635Y3564247D01*
X21869634Y3564249D01*
X21869634Y3564252D01*
X21815042Y3720267D01*
X21787404Y3764252D01*
X21727101Y3860224D01*
X21610223Y3977102D01*
X21470268Y4065042D01*
X21314246Y4119636D01*
X21150004Y4138141D01*
X21149996Y4138141D01*
X20985753Y4119636D01*
X20829731Y4065042D01*
X20689776Y3977102D01*
X20572898Y3860224D01*
X20552494Y3827750D01*
X20500159Y3781459D01*
X20431105Y3770811D01*
X20367257Y3799186D01*
X20328885Y3857576D01*
X20323500Y3893722D01*
X20323500Y8088945D01*
X20343185Y8155984D01*
X20343690Y8156765D01*
X20345138Y8158982D01*
X20366191Y8191207D01*
X20419336Y8236563D01*
X20488567Y8245987D01*
X20551903Y8216486D01*
X20573804Y8191213D01*
X20664278Y8052732D01*
X20664283Y8052727D01*
X20664284Y8052724D01*
X20790968Y7915111D01*
X20816760Y7887094D01*
X20994424Y7748811D01*
X20994425Y7748811D01*
X20994427Y7748809D01*
X21101516Y7690856D01*
X21192426Y7641658D01*
X21405365Y7568556D01*
X21627431Y7531500D01*
X21852569Y7531500D01*
X22074635Y7568556D01*
X22287574Y7641658D01*
X22485576Y7748811D01*
X22663240Y7887094D01*
X22784594Y8018918D01*
X22815715Y8052724D01*
X22815715Y8052725D01*
X22815722Y8052732D01*
X22906193Y8191210D01*
X22959338Y8236563D01*
X23028569Y8245987D01*
X23091905Y8216485D01*
X23113804Y8191213D01*
X23204278Y8052732D01*
X23204283Y8052727D01*
X23204284Y8052724D01*
X23330968Y7915111D01*
X23356760Y7887094D01*
X23534424Y7748811D01*
X23534425Y7748811D01*
X23534427Y7748809D01*
X23641516Y7690856D01*
X23732426Y7641658D01*
X23945365Y7568556D01*
X24167431Y7531500D01*
X24392569Y7531500D01*
X24614635Y7568556D01*
X24827574Y7641658D01*
X25025576Y7748811D01*
X25203240Y7887094D01*
X25324594Y8018918D01*
X25355715Y8052724D01*
X25355715Y8052725D01*
X25355722Y8052732D01*
X25446193Y8191210D01*
X25499338Y8236563D01*
X25568569Y8245987D01*
X25631905Y8216485D01*
X25653804Y8191213D01*
X25744278Y8052732D01*
X25744283Y8052727D01*
X25744284Y8052724D01*
X25870968Y7915111D01*
X25896760Y7887094D01*
X26074424Y7748811D01*
X26074425Y7748811D01*
X26074427Y7748809D01*
X26181516Y7690856D01*
X26272426Y7641658D01*
X26485365Y7568556D01*
X26707431Y7531500D01*
X26932569Y7531500D01*
X27154635Y7568556D01*
X27367574Y7641658D01*
X27565576Y7748811D01*
X27743240Y7887094D01*
X27864594Y8018918D01*
X27895715Y8052724D01*
X27895715Y8052725D01*
X27895722Y8052732D01*
X27986193Y8191210D01*
X28039338Y8236563D01*
X28108569Y8245987D01*
X28171905Y8216485D01*
X28193804Y8191213D01*
X28284278Y8052732D01*
X28284283Y8052727D01*
X28284284Y8052724D01*
X28410968Y7915111D01*
X28436760Y7887094D01*
X28614424Y7748811D01*
X28614425Y7748811D01*
X28614427Y7748809D01*
X28721516Y7690856D01*
X28812426Y7641658D01*
X29025365Y7568556D01*
X29247431Y7531500D01*
X29472569Y7531500D01*
X29694635Y7568556D01*
X29907574Y7641658D01*
X30105576Y7748811D01*
X30283240Y7887094D01*
X30404594Y8018918D01*
X30435715Y8052724D01*
X30435715Y8052725D01*
X30435722Y8052732D01*
X30526193Y8191210D01*
X30579338Y8236563D01*
X30648569Y8245987D01*
X30711905Y8216485D01*
X30733804Y8191213D01*
X30824278Y8052732D01*
X30824283Y8052727D01*
X30824284Y8052724D01*
X30950968Y7915111D01*
X30976760Y7887094D01*
X31154424Y7748811D01*
X31154425Y7748811D01*
X31154427Y7748809D01*
X31261516Y7690856D01*
X31352426Y7641658D01*
X31565365Y7568556D01*
X31787431Y7531500D01*
X32012569Y7531500D01*
X32234635Y7568556D01*
X32447574Y7641658D01*
X32645576Y7748811D01*
X32823240Y7887094D01*
X32944594Y8018918D01*
X32975715Y8052724D01*
X32975715Y8052725D01*
X32975722Y8052732D01*
X33066193Y8191210D01*
X33119338Y8236563D01*
X33188569Y8245987D01*
X33251905Y8216485D01*
X33273804Y8191213D01*
X33364278Y8052732D01*
X33364283Y8052727D01*
X33364284Y8052724D01*
X33490968Y7915111D01*
X33516760Y7887094D01*
X33694424Y7748811D01*
X33694425Y7748811D01*
X33694427Y7748809D01*
X33801516Y7690856D01*
X33892426Y7641658D01*
X34105365Y7568556D01*
X34327431Y7531500D01*
X34552569Y7531500D01*
X34774635Y7568556D01*
X34987574Y7641658D01*
X35185576Y7748811D01*
X35363240Y7887094D01*
X35484594Y8018918D01*
X35515715Y8052724D01*
X35515715Y8052725D01*
X35515722Y8052732D01*
X35606193Y8191210D01*
X35659338Y8236563D01*
X35728569Y8245987D01*
X35791905Y8216485D01*
X35813804Y8191213D01*
X35904278Y8052732D01*
X35904283Y8052727D01*
X35904284Y8052724D01*
X36030968Y7915111D01*
X36056760Y7887094D01*
X36234424Y7748811D01*
X36234425Y7748811D01*
X36234427Y7748809D01*
X36341516Y7690856D01*
X36432426Y7641658D01*
X36645365Y7568556D01*
X36867431Y7531500D01*
X37092569Y7531500D01*
X37314635Y7568556D01*
X37527574Y7641658D01*
X37725576Y7748811D01*
X37903240Y7887094D01*
X38024594Y8018918D01*
X38055715Y8052724D01*
X38055715Y8052725D01*
X38055722Y8052732D01*
X38146193Y8191210D01*
X38199338Y8236563D01*
X38268569Y8245987D01*
X38331905Y8216485D01*
X38353804Y8191213D01*
X38444278Y8052732D01*
X38444283Y8052727D01*
X38444284Y8052724D01*
X38570968Y7915111D01*
X38596760Y7887094D01*
X38774424Y7748811D01*
X38774425Y7748811D01*
X38774427Y7748809D01*
X38881516Y7690856D01*
X38972426Y7641658D01*
X39185365Y7568556D01*
X39407431Y7531500D01*
X39632569Y7531500D01*
X39854635Y7568556D01*
X40067574Y7641658D01*
X40265576Y7748811D01*
X40443240Y7887094D01*
X40564594Y8018918D01*
X40595715Y8052724D01*
X40595715Y8052725D01*
X40595722Y8052732D01*
X40686193Y8191210D01*
X40739338Y8236563D01*
X40808569Y8245987D01*
X40871905Y8216485D01*
X40893804Y8191213D01*
X40984278Y8052732D01*
X40984283Y8052727D01*
X40984284Y8052724D01*
X41110968Y7915111D01*
X41136760Y7887094D01*
X41314424Y7748811D01*
X41314425Y7748811D01*
X41314427Y7748809D01*
X41421516Y7690856D01*
X41512426Y7641658D01*
X41725365Y7568556D01*
X41947431Y7531500D01*
X42172569Y7531500D01*
X42394635Y7568556D01*
X42452266Y7588342D01*
X42522060Y7591491D01*
X42580207Y7558741D01*
X42915025Y7223923D01*
X42920366Y7217833D01*
X42940975Y7190975D01*
X42940974Y7190975D01*
X42971048Y7167898D01*
X42971052Y7167896D01*
X42971055Y7167893D01*
X43021856Y7128912D01*
X43060773Y7099049D01*
X43060774Y7099049D01*
X43060775Y7099048D01*
X43114425Y7076826D01*
X43200286Y7041261D01*
X43312408Y7026500D01*
X43312413Y7026500D01*
X43314001Y7026291D01*
X43314019Y7026289D01*
X43350000Y7021552D01*
X43383554Y7025970D01*
X43391652Y7026500D01*
X45233341Y7026500D01*
X45241439Y7025970D01*
X45262037Y7023258D01*
X45274999Y7021551D01*
X45275000Y7021551D01*
X45275001Y7021551D01*
X45334263Y7029353D01*
X45424714Y7041261D01*
X45564224Y7099048D01*
X45653944Y7167893D01*
X45653943Y7167893D01*
X45684025Y7190975D01*
X45684026Y7190978D01*
X45692316Y7197338D01*
X45698079Y7209291D01*
X45704634Y7217835D01*
X45709969Y7223920D01*
X45926488Y7440439D01*
X45987809Y7473922D01*
X46000267Y7475974D01*
X46039252Y7480366D01*
X46195267Y7534958D01*
X46335223Y7622898D01*
X46372329Y7660005D01*
X46433650Y7693490D01*
X46503342Y7688506D01*
X46519027Y7681379D01*
X46566499Y7655689D01*
X46592426Y7641658D01*
X46730740Y7594175D01*
X46787756Y7553790D01*
X46813887Y7488991D01*
X46800836Y7420351D01*
X46778159Y7389213D01*
X46088895Y6699948D01*
X46027572Y6666463D01*
X46001214Y6663629D01*
X40670120Y6663629D01*
X40662022Y6664160D01*
X40628463Y6668578D01*
X40628462Y6668578D01*
X40590871Y6663629D01*
X40478750Y6648869D01*
X40478745Y6648867D01*
X40339243Y6591084D01*
X40339238Y6591081D01*
X40219437Y6499155D01*
X40198826Y6472295D01*
X40193475Y6466193D01*
X39877815Y6150534D01*
X39816492Y6117049D01*
X39746800Y6122033D01*
X39690867Y6163905D01*
X39673092Y6197261D01*
X39665041Y6220269D01*
X39584260Y6348831D01*
X39577102Y6360223D01*
X39460223Y6477102D01*
X39320268Y6565042D01*
X39164246Y6619636D01*
X39000004Y6638141D01*
X38999996Y6638141D01*
X38835753Y6619636D01*
X38679731Y6565042D01*
X38679730Y6565041D01*
X38659783Y6552507D01*
X38593810Y6533500D01*
X37406190Y6533500D01*
X37340217Y6552507D01*
X37320269Y6565041D01*
X37320268Y6565042D01*
X37164246Y6619636D01*
X37000004Y6638141D01*
X36999996Y6638141D01*
X36835753Y6619636D01*
X36679731Y6565042D01*
X36679730Y6565041D01*
X36659783Y6552507D01*
X36593810Y6533500D01*
X35406190Y6533500D01*
X35340217Y6552507D01*
X35320269Y6565041D01*
X35320268Y6565042D01*
X35164246Y6619636D01*
X35000004Y6638141D01*
X34999996Y6638141D01*
X34835753Y6619636D01*
X34679731Y6565042D01*
X34679730Y6565041D01*
X34659783Y6552507D01*
X34593810Y6533500D01*
X33406190Y6533500D01*
X33340217Y6552507D01*
X33320269Y6565041D01*
X33320268Y6565042D01*
X33164246Y6619636D01*
X33000004Y6638141D01*
X32999996Y6638141D01*
X32835753Y6619636D01*
X32679731Y6565042D01*
X32679730Y6565041D01*
X32659783Y6552507D01*
X32593810Y6533500D01*
X31406190Y6533500D01*
X31340217Y6552507D01*
X31320269Y6565041D01*
X31320268Y6565042D01*
X31164246Y6619636D01*
X31000004Y6638141D01*
X30999996Y6638141D01*
X30835753Y6619636D01*
X30679731Y6565042D01*
X30679730Y6565041D01*
X30659783Y6552507D01*
X30593810Y6533500D01*
X29406190Y6533500D01*
X29340217Y6552507D01*
X29320269Y6565041D01*
X29320268Y6565042D01*
X29164246Y6619636D01*
X29000004Y6638141D01*
X28999996Y6638141D01*
X28835753Y6619636D01*
X28679731Y6565042D01*
X28679730Y6565041D01*
X28659783Y6552507D01*
X28593810Y6533500D01*
X27406190Y6533500D01*
X27340217Y6552507D01*
X27320269Y6565041D01*
X27320268Y6565042D01*
X27164246Y6619636D01*
X27000004Y6638141D01*
X26999996Y6638141D01*
X26835753Y6619636D01*
X26679731Y6565042D01*
X26679730Y6565041D01*
X26659783Y6552507D01*
X26593810Y6533500D01*
X25406190Y6533500D01*
X25340217Y6552507D01*
X25320269Y6565041D01*
X25320268Y6565042D01*
X25164246Y6619636D01*
X25000004Y6638141D01*
X24999996Y6638141D01*
X24835753Y6619636D01*
X24679731Y6565042D01*
X24539776Y6477102D01*
X24422898Y6360224D01*
X24334958Y6220269D01*
X24280364Y6064247D01*
X24261859Y5900004D01*
X24261859Y5899997D01*
X24280364Y5735754D01*
X24334958Y5579732D01*
X24422897Y5439778D01*
X24422898Y5439777D01*
X24539777Y5322898D01*
X24581498Y5296683D01*
X24679729Y5234960D01*
X24679733Y5234958D01*
X24835748Y5180366D01*
X24835751Y5180366D01*
X24835753Y5180365D01*
X24999996Y5161859D01*
X25000000Y5161859D01*
X25000004Y5161859D01*
X25164246Y5180365D01*
X25164247Y5180366D01*
X25164252Y5180366D01*
X25320267Y5234958D01*
X25337285Y5245651D01*
X25340217Y5247493D01*
X25406190Y5266500D01*
X26154820Y5266500D01*
X26221859Y5246815D01*
X26267614Y5194011D01*
X26278040Y5156385D01*
X26280364Y5135753D01*
X26280367Y5135741D01*
X26334956Y4979737D01*
X26334957Y4979733D01*
X26393533Y4886511D01*
X26422898Y4839777D01*
X26539777Y4722898D01*
X26607476Y4680360D01*
X26672978Y4639202D01*
X26679733Y4634958D01*
X26835748Y4580366D01*
X26835751Y4580366D01*
X26835753Y4580365D01*
X26999996Y4561859D01*
X27000000Y4561859D01*
X27000004Y4561859D01*
X27164246Y4580365D01*
X27164247Y4580366D01*
X27164252Y4580366D01*
X27320267Y4634958D01*
X27460223Y4722898D01*
X27577102Y4839777D01*
X27665042Y4979733D01*
X27700031Y5079726D01*
X27719632Y5135741D01*
X27719635Y5135753D01*
X27721960Y5156385D01*
X27749027Y5220799D01*
X27806623Y5260353D01*
X27845180Y5266500D01*
X28154820Y5266500D01*
X28221859Y5246815D01*
X28267614Y5194011D01*
X28278040Y5156385D01*
X28280364Y5135753D01*
X28280367Y5135741D01*
X28334956Y4979737D01*
X28334957Y4979733D01*
X28393533Y4886511D01*
X28422898Y4839777D01*
X28539777Y4722898D01*
X28607476Y4680360D01*
X28672978Y4639202D01*
X28679733Y4634958D01*
X28835748Y4580366D01*
X28835751Y4580366D01*
X28835753Y4580365D01*
X28999996Y4561859D01*
X29000000Y4561859D01*
X29000004Y4561859D01*
X29164246Y4580365D01*
X29164247Y4580366D01*
X29164252Y4580366D01*
X29320267Y4634958D01*
X29460223Y4722898D01*
X29577102Y4839777D01*
X29665042Y4979733D01*
X29700031Y5079726D01*
X29719632Y5135741D01*
X29719635Y5135753D01*
X29721960Y5156385D01*
X29749027Y5220799D01*
X29806623Y5260353D01*
X29845180Y5266500D01*
X30154820Y5266500D01*
X30221859Y5246815D01*
X30267614Y5194011D01*
X30278040Y5156385D01*
X30280364Y5135753D01*
X30280367Y5135741D01*
X30334956Y4979737D01*
X30334957Y4979733D01*
X30393533Y4886511D01*
X30422898Y4839777D01*
X30539777Y4722898D01*
X30607476Y4680360D01*
X30672978Y4639202D01*
X30679733Y4634958D01*
X30835748Y4580366D01*
X30835751Y4580366D01*
X30835753Y4580365D01*
X30999996Y4561859D01*
X31000000Y4561859D01*
X31000004Y4561859D01*
X31164246Y4580365D01*
X31164247Y4580366D01*
X31164252Y4580366D01*
X31320267Y4634958D01*
X31460223Y4722898D01*
X31577102Y4839777D01*
X31665042Y4979733D01*
X31700031Y5079726D01*
X31719632Y5135741D01*
X31719635Y5135753D01*
X31721960Y5156385D01*
X31749027Y5220799D01*
X31806623Y5260353D01*
X31845180Y5266500D01*
X32154820Y5266500D01*
X32221859Y5246815D01*
X32267614Y5194011D01*
X32278040Y5156385D01*
X32280365Y5135751D01*
X32313535Y5040955D01*
X32317096Y4971176D01*
X32313535Y4959047D01*
X32280365Y4864251D01*
X32261859Y4700004D01*
X32261859Y4699997D01*
X32280364Y4535754D01*
X32334958Y4379732D01*
X32422897Y4239777D01*
X32422898Y4239777D01*
X32539777Y4122898D01*
X32679733Y4034958D01*
X32835748Y3980366D01*
X32874715Y3975976D01*
X32939126Y3948911D01*
X32948512Y3940437D01*
X33245022Y3643927D01*
X33250363Y3637837D01*
X33259667Y3625711D01*
X33270972Y3610978D01*
X33270973Y3610977D01*
X33270975Y3610975D01*
X33285273Y3600004D01*
X33301056Y3587893D01*
X33390773Y3519049D01*
X33390779Y3519046D01*
X33436761Y3500000D01*
X33530286Y3461261D01*
X33605143Y3451406D01*
X33679999Y3441551D01*
X33680000Y3441551D01*
X33680001Y3441551D01*
X33692962Y3443258D01*
X33713560Y3445970D01*
X33721659Y3446500D01*
X38524457Y3446500D01*
X38591496Y3426815D01*
X38637251Y3374011D01*
X38647195Y3304853D01*
X38618170Y3241297D01*
X38612138Y3234819D01*
X36184122Y806805D01*
X36170495Y795027D01*
X36160386Y787500D01*
X36157328Y785223D01*
X36154397Y783041D01*
X36088869Y758793D01*
X36080343Y758500D01*
X36053630Y758500D01*
X35986591Y778185D01*
X35940836Y830989D01*
X35930410Y868617D01*
X35919635Y964247D01*
X35919634Y964249D01*
X35919634Y964252D01*
X35865042Y1120267D01*
X35857793Y1131803D01*
X35801888Y1220776D01*
X35777102Y1260223D01*
X35660223Y1377102D01*
X35644781Y1386805D01*
X35520268Y1465042D01*
X35391784Y1510000D01*
X35364252Y1519634D01*
X35364251Y1519635D01*
X35364246Y1519636D01*
X35200004Y1538141D01*
X35199996Y1538141D01*
X35035753Y1519636D01*
X34974159Y1498083D01*
X34904380Y1494522D01*
X34843753Y1529251D01*
X34816163Y1574171D01*
X34765042Y1720267D01*
X34750285Y1743752D01*
X34692587Y1835579D01*
X34677102Y1860223D01*
X34560223Y1977102D01*
X34556190Y1979636D01*
X34420268Y2065042D01*
X34264246Y2119636D01*
X34100004Y2138141D01*
X34099996Y2138141D01*
X33935753Y2119636D01*
X33779731Y2065042D01*
X33639776Y1977102D01*
X33522898Y1860224D01*
X33434958Y1720269D01*
X33380365Y1564250D01*
X33380364Y1564244D01*
X33375224Y1518618D01*
X33348158Y1454203D01*
X33290564Y1414648D01*
X33252004Y1408500D01*
X26645977Y1408500D01*
X26580005Y1427507D01*
X26520270Y1465042D01*
X26376592Y1515316D01*
X26364252Y1519634D01*
X26364251Y1519635D01*
X26364246Y1519636D01*
X26200004Y1538141D01*
X26199996Y1538141D01*
X26035753Y1519636D01*
X25879731Y1465042D01*
X25739776Y1377102D01*
X25622898Y1260224D01*
X25534958Y1120269D01*
X25480364Y964247D01*
X25461859Y800004D01*
X25461859Y799997D01*
X25480364Y635754D01*
X25534958Y479731D01*
X25536619Y476283D01*
X25537022Y473834D01*
X25537258Y473160D01*
X25537139Y473119D01*
X25547969Y407341D01*
X25532285Y360486D01*
X25498789Y302469D01*
X25447939Y132613D01*
X25447937Y132605D01*
X25437628Y-44402D01*
X25437628Y-44403D01*
X25468416Y-219014D01*
X25468417Y-219017D01*
X25468418Y-219021D01*
X25538648Y-381832D01*
X25644531Y-524058D01*
X25780360Y-638032D01*
X25938812Y-717609D01*
X26111344Y-758500D01*
X31797525Y-758500D01*
X31864564Y-778185D01*
X31910319Y-830989D01*
X31920263Y-900147D01*
X31891238Y-963703D01*
X31863497Y-987494D01*
X31839776Y-1002398D01*
X31722898Y-1119276D01*
X31634958Y-1259231D01*
X31580364Y-1415253D01*
X31561859Y-1579496D01*
X31561859Y-1579503D01*
X31580364Y-1743746D01*
X31580365Y-1743751D01*
X31580366Y-1743752D01*
X31587184Y-1763236D01*
X31634958Y-1899768D01*
X31705977Y-2012794D01*
X31722898Y-2039723D01*
X31839777Y-2156602D01*
X31874464Y-2178397D01*
X31944371Y-2222323D01*
X31979733Y-2244542D01*
X32135748Y-2299134D01*
X32135751Y-2299134D01*
X32135753Y-2299135D01*
X32299996Y-2317641D01*
X32300000Y-2317641D01*
X32300004Y-2317641D01*
X32464246Y-2299135D01*
X32464247Y-2299134D01*
X32464252Y-2299134D01*
X32620267Y-2244542D01*
X32760223Y-2156602D01*
X32877102Y-2039723D01*
X32894024Y-2012790D01*
X32946355Y-1966501D01*
X33015408Y-1955851D01*
X33079257Y-1984225D01*
X33104010Y-2012791D01*
X33130982Y-2055717D01*
X33130987Y-2055723D01*
X33247866Y-2172602D01*
X33326997Y-2222323D01*
X33362356Y-2244541D01*
X33387822Y-2260542D01*
X33543837Y-2315134D01*
X33543840Y-2315134D01*
X33543842Y-2315135D01*
X33708085Y-2333641D01*
X33708089Y-2333641D01*
X33708093Y-2333641D01*
X33872335Y-2315135D01*
X33872336Y-2315134D01*
X33872341Y-2315134D01*
X34028356Y-2260542D01*
X34168312Y-2172602D01*
X34285191Y-2055723D01*
X34373131Y-1915767D01*
X34427723Y-1759752D01*
X34427724Y-1759746D01*
X34446230Y-1595503D01*
X34446230Y-1595496D01*
X34427724Y-1431253D01*
X34427723Y-1431251D01*
X34427723Y-1431248D01*
X34373131Y-1275233D01*
X34363561Y-1260003D01*
X34326136Y-1200441D01*
X34285191Y-1135277D01*
X34168312Y-1018398D01*
X34119127Y-987493D01*
X34072837Y-935159D01*
X34062189Y-866106D01*
X34090564Y-802257D01*
X34148953Y-763885D01*
X34185100Y-758500D01*
X34759294Y-758500D01*
X34826333Y-778185D01*
X34872088Y-830989D01*
X34876336Y-841546D01*
X34905456Y-924768D01*
X34929921Y-963703D01*
X34974693Y-1034958D01*
X34977992Y-1040207D01*
X34996998Y-1106179D01*
X34996998Y-1922809D01*
X34996467Y-1930911D01*
X34992048Y-1964467D01*
X34992049Y-1964470D01*
X34996190Y-1995925D01*
X34996191Y-1995930D01*
X35011758Y-2114180D01*
X35011760Y-2114185D01*
X35069543Y-2253687D01*
X35069543Y-2253688D01*
X35069545Y-2253691D01*
X35069546Y-2253692D01*
X35156529Y-2367050D01*
X35161475Y-2373495D01*
X35188327Y-2394099D01*
X35194423Y-2399444D01*
X36175343Y-3380364D01*
X37151570Y-4356591D01*
X37185055Y-4417914D01*
X37180071Y-4487606D01*
X37138199Y-4543539D01*
X37072735Y-4567956D01*
X37050007Y-4567493D01*
X37019929Y-4564104D01*
X37000000Y-4561859D01*
X36999998Y-4561859D01*
X36999997Y-4561859D01*
X36999996Y-4561859D01*
X36835753Y-4580364D01*
X36679731Y-4634958D01*
X36539776Y-4722898D01*
X36422898Y-4839776D01*
X36334957Y-4979732D01*
X36334956Y-4979736D01*
X36280367Y-5135740D01*
X36280364Y-5135752D01*
X36278040Y-5156385D01*
X36250973Y-5220799D01*
X36193377Y-5260353D01*
X36154820Y-5266500D01*
X35845180Y-5266500D01*
X35778141Y-5246815D01*
X35732386Y-5194011D01*
X35721960Y-5156385D01*
X35719635Y-5135752D01*
X35719632Y-5135740D01*
X35665043Y-4979736D01*
X35665042Y-4979732D01*
X35577101Y-4839776D01*
X35460223Y-4722898D01*
X35320268Y-4634958D01*
X35164246Y-4580364D01*
X35000004Y-4561859D01*
X34999996Y-4561859D01*
X34835753Y-4580364D01*
X34679731Y-4634958D01*
X34539776Y-4722898D01*
X34422898Y-4839776D01*
X34334957Y-4979732D01*
X34334956Y-4979736D01*
X34280367Y-5135740D01*
X34280364Y-5135752D01*
X34278040Y-5156385D01*
X34250973Y-5220799D01*
X34193377Y-5260353D01*
X34154820Y-5266500D01*
X33845180Y-5266500D01*
X33778141Y-5246815D01*
X33732386Y-5194011D01*
X33721960Y-5156385D01*
X33719635Y-5135752D01*
X33719632Y-5135740D01*
X33665043Y-4979736D01*
X33665042Y-4979732D01*
X33577101Y-4839776D01*
X33460223Y-4722898D01*
X33320268Y-4634958D01*
X33164246Y-4580364D01*
X33000004Y-4561859D01*
X32999996Y-4561859D01*
X32835753Y-4580364D01*
X32679731Y-4634958D01*
X32539776Y-4722898D01*
X32422898Y-4839776D01*
X32334957Y-4979732D01*
X32334956Y-4979736D01*
X32280367Y-5135740D01*
X32280364Y-5135752D01*
X32278040Y-5156385D01*
X32250973Y-5220799D01*
X32193377Y-5260353D01*
X32154820Y-5266500D01*
X31845180Y-5266500D01*
X31778141Y-5246815D01*
X31732386Y-5194011D01*
X31721960Y-5156385D01*
X31719635Y-5135752D01*
X31719632Y-5135740D01*
X31665043Y-4979736D01*
X31665042Y-4979732D01*
X31577101Y-4839776D01*
X31460223Y-4722898D01*
X31320268Y-4634958D01*
X31164246Y-4580364D01*
X31000004Y-4561859D01*
X30999996Y-4561859D01*
X30835753Y-4580364D01*
X30679731Y-4634958D01*
X30539776Y-4722898D01*
X30422898Y-4839776D01*
X30334957Y-4979732D01*
X30334956Y-4979736D01*
X30280367Y-5135740D01*
X30280364Y-5135752D01*
X30278040Y-5156385D01*
X30250973Y-5220799D01*
X30193377Y-5260353D01*
X30154820Y-5266500D01*
X29845180Y-5266500D01*
X29778141Y-5246815D01*
X29732386Y-5194011D01*
X29721960Y-5156385D01*
X29719635Y-5135752D01*
X29719632Y-5135740D01*
X29665043Y-4979736D01*
X29665042Y-4979732D01*
X29577101Y-4839776D01*
X29460223Y-4722898D01*
X29320268Y-4634958D01*
X29164246Y-4580364D01*
X29000004Y-4561859D01*
X28999996Y-4561859D01*
X28835753Y-4580364D01*
X28679731Y-4634958D01*
X28539776Y-4722898D01*
X28422898Y-4839776D01*
X28334957Y-4979732D01*
X28334956Y-4979736D01*
X28280367Y-5135740D01*
X28280364Y-5135752D01*
X28278040Y-5156385D01*
X28250973Y-5220799D01*
X28193377Y-5260353D01*
X28154820Y-5266500D01*
X27845180Y-5266500D01*
X27778141Y-5246815D01*
X27732386Y-5194011D01*
X27721960Y-5156385D01*
X27719635Y-5135752D01*
X27719632Y-5135740D01*
X27665043Y-4979736D01*
X27665042Y-4979732D01*
X27577101Y-4839776D01*
X27460223Y-4722898D01*
X27320268Y-4634958D01*
X27164246Y-4580364D01*
X27000004Y-4561859D01*
X26999996Y-4561859D01*
X26835753Y-4580364D01*
X26679731Y-4634958D01*
X26539776Y-4722898D01*
X26422898Y-4839776D01*
X26334958Y-4979731D01*
X26280364Y-5135753D01*
X26261859Y-5299996D01*
X26261859Y-5300003D01*
X26280364Y-5464250D01*
X26313535Y-5559045D01*
X26317096Y-5628823D01*
X26313535Y-5640953D01*
X26280365Y-5735749D01*
X26261859Y-5899996D01*
X26261859Y-5900003D01*
X26280364Y-6064246D01*
X26334958Y-6220268D01*
X26422897Y-6360222D01*
X26422898Y-6360223D01*
X26539777Y-6477102D01*
X26622558Y-6529116D01*
X26679729Y-6565040D01*
X26679733Y-6565042D01*
X26835748Y-6619634D01*
X26835751Y-6619634D01*
X26835753Y-6619635D01*
X26999996Y-6638141D01*
X27000000Y-6638141D01*
X27000004Y-6638141D01*
X27164246Y-6619635D01*
X27164247Y-6619634D01*
X27164252Y-6619634D01*
X27320267Y-6565042D01*
X27333620Y-6556651D01*
X27340217Y-6552507D01*
X27406190Y-6533500D01*
X28593810Y-6533500D01*
X28659783Y-6552507D01*
X28674973Y-6562051D01*
X28679733Y-6565042D01*
X28835748Y-6619634D01*
X28835751Y-6619634D01*
X28835753Y-6619635D01*
X28999996Y-6638141D01*
X29000000Y-6638141D01*
X29000004Y-6638141D01*
X29164246Y-6619635D01*
X29164247Y-6619634D01*
X29164252Y-6619634D01*
X29320267Y-6565042D01*
X29333620Y-6556651D01*
X29340217Y-6552507D01*
X29406190Y-6533500D01*
X30593810Y-6533500D01*
X30659783Y-6552507D01*
X30674973Y-6562051D01*
X30679733Y-6565042D01*
X30835748Y-6619634D01*
X30835751Y-6619634D01*
X30835753Y-6619635D01*
X30999996Y-6638141D01*
X31000000Y-6638141D01*
X31000004Y-6638141D01*
X31164246Y-6619635D01*
X31164247Y-6619634D01*
X31164252Y-6619634D01*
X31320267Y-6565042D01*
X31333620Y-6556651D01*
X31340217Y-6552507D01*
X31406190Y-6533500D01*
X32593810Y-6533500D01*
X32659783Y-6552507D01*
X32674973Y-6562051D01*
X32679733Y-6565042D01*
X32835748Y-6619634D01*
X32835751Y-6619634D01*
X32835753Y-6619635D01*
X32999996Y-6638141D01*
X33000000Y-6638141D01*
X33000004Y-6638141D01*
X33164246Y-6619635D01*
X33164247Y-6619634D01*
X33164252Y-6619634D01*
X33320267Y-6565042D01*
X33333620Y-6556651D01*
X33340217Y-6552507D01*
X33406190Y-6533500D01*
X34593810Y-6533500D01*
X34659783Y-6552507D01*
X34674973Y-6562051D01*
X34679733Y-6565042D01*
X34835748Y-6619634D01*
X34835751Y-6619634D01*
X34835753Y-6619635D01*
X34999996Y-6638141D01*
X35000000Y-6638141D01*
X35000004Y-6638141D01*
X35164246Y-6619635D01*
X35164247Y-6619634D01*
X35164252Y-6619634D01*
X35320267Y-6565042D01*
X35333620Y-6556651D01*
X35340217Y-6552507D01*
X35406190Y-6533500D01*
X36593810Y-6533500D01*
X36659783Y-6552507D01*
X36674973Y-6562051D01*
X36679733Y-6565042D01*
X36835748Y-6619634D01*
X36835751Y-6619634D01*
X36835753Y-6619635D01*
X36999996Y-6638141D01*
X37000000Y-6638141D01*
X37000004Y-6638141D01*
X37164246Y-6619635D01*
X37164247Y-6619634D01*
X37164252Y-6619634D01*
X37320267Y-6565042D01*
X37333620Y-6556651D01*
X37340217Y-6552507D01*
X37406190Y-6533500D01*
X38593810Y-6533500D01*
X38659783Y-6552507D01*
X38674973Y-6562051D01*
X38679733Y-6565042D01*
X38835748Y-6619634D01*
X38835751Y-6619634D01*
X38835753Y-6619635D01*
X38999996Y-6638141D01*
X39000000Y-6638141D01*
X39000004Y-6638141D01*
X39164246Y-6619635D01*
X39164247Y-6619634D01*
X39164252Y-6619634D01*
X39320267Y-6565042D01*
X39333620Y-6556651D01*
X39340217Y-6552507D01*
X39406190Y-6533500D01*
X40593810Y-6533500D01*
X40659783Y-6552507D01*
X40674973Y-6562051D01*
X40679733Y-6565042D01*
X40835748Y-6619634D01*
X40835751Y-6619634D01*
X40835753Y-6619635D01*
X40999996Y-6638141D01*
X41000000Y-6638141D01*
X41000004Y-6638141D01*
X41164246Y-6619635D01*
X41164247Y-6619634D01*
X41164252Y-6619634D01*
X41320267Y-6565042D01*
X41460223Y-6477102D01*
X41577102Y-6360223D01*
X41665042Y-6220267D01*
X41694337Y-6136545D01*
X41735059Y-6079770D01*
X41800012Y-6054022D01*
X41811379Y-6053500D01*
X46915583Y-6053500D01*
X46982622Y-6073185D01*
X47028377Y-6125989D01*
X47038321Y-6195147D01*
X47020578Y-6243469D01*
X46989458Y-6292995D01*
X46934958Y-6379731D01*
X46880364Y-6535753D01*
X46861859Y-6699996D01*
X46861859Y-6700003D01*
X46880364Y-6864246D01*
X46934958Y-7020268D01*
X47022896Y-7160220D01*
X47022898Y-7160223D01*
X47139777Y-7277102D01*
X47180208Y-7302506D01*
X47226499Y-7354840D01*
X47237148Y-7423894D01*
X47208773Y-7487742D01*
X47150383Y-7526115D01*
X47114236Y-7531500D01*
X47027431Y-7531500D01*
X46805362Y-7568556D01*
X46592430Y-7641656D01*
X46592419Y-7641661D01*
X46394427Y-7748808D01*
X46394422Y-7748812D01*
X46216761Y-7887092D01*
X46216756Y-7887097D01*
X46064284Y-8052723D01*
X46064276Y-8052734D01*
X45973808Y-8191206D01*
X45920662Y-8236562D01*
X45851431Y-8245986D01*
X45788095Y-8216484D01*
X45766192Y-8191206D01*
X45675723Y-8052734D01*
X45675715Y-8052723D01*
X45523243Y-7887097D01*
X45523238Y-7887092D01*
X45345577Y-7748812D01*
X45345572Y-7748808D01*
X45147580Y-7641661D01*
X45147577Y-7641659D01*
X45147574Y-7641658D01*
X45147571Y-7641657D01*
X45147569Y-7641656D01*
X44934637Y-7568556D01*
X44712569Y-7531500D01*
X44487431Y-7531500D01*
X44265362Y-7568556D01*
X44052430Y-7641656D01*
X44052419Y-7641661D01*
X43854427Y-7748808D01*
X43854422Y-7748812D01*
X43676761Y-7887092D01*
X43676756Y-7887097D01*
X43524284Y-8052723D01*
X43524276Y-8052734D01*
X43433808Y-8191206D01*
X43380662Y-8236562D01*
X43311431Y-8245986D01*
X43248095Y-8216484D01*
X43226192Y-8191206D01*
X43135723Y-8052734D01*
X43135715Y-8052723D01*
X42983243Y-7887097D01*
X42983238Y-7887092D01*
X42805577Y-7748812D01*
X42805572Y-7748808D01*
X42607580Y-7641661D01*
X42607577Y-7641659D01*
X42607574Y-7641658D01*
X42607571Y-7641657D01*
X42607569Y-7641656D01*
X42394637Y-7568556D01*
X42172569Y-7531500D01*
X41947431Y-7531500D01*
X41725362Y-7568556D01*
X41512430Y-7641656D01*
X41512419Y-7641661D01*
X41314427Y-7748808D01*
X41314422Y-7748812D01*
X41136761Y-7887092D01*
X41136756Y-7887097D01*
X40984284Y-8052723D01*
X40984276Y-8052734D01*
X40893808Y-8191206D01*
X40840662Y-8236562D01*
X40771431Y-8245986D01*
X40708095Y-8216484D01*
X40686192Y-8191206D01*
X40595723Y-8052734D01*
X40595715Y-8052723D01*
X40443243Y-7887097D01*
X40443238Y-7887092D01*
X40265577Y-7748812D01*
X40265572Y-7748808D01*
X40067580Y-7641661D01*
X40067577Y-7641659D01*
X40067574Y-7641658D01*
X40067571Y-7641657D01*
X40067569Y-7641656D01*
X39854637Y-7568556D01*
X39632569Y-7531500D01*
X39407431Y-7531500D01*
X39185362Y-7568556D01*
X38972430Y-7641656D01*
X38972419Y-7641661D01*
X38774427Y-7748808D01*
X38774422Y-7748812D01*
X38596761Y-7887092D01*
X38596756Y-7887097D01*
X38444284Y-8052723D01*
X38444276Y-8052734D01*
X38353808Y-8191206D01*
X38300662Y-8236562D01*
X38231431Y-8245986D01*
X38168095Y-8216484D01*
X38146192Y-8191206D01*
X38055723Y-8052734D01*
X38055715Y-8052723D01*
X37903243Y-7887097D01*
X37903238Y-7887092D01*
X37725577Y-7748812D01*
X37725572Y-7748808D01*
X37527580Y-7641661D01*
X37527577Y-7641659D01*
X37527574Y-7641658D01*
X37527571Y-7641657D01*
X37527569Y-7641656D01*
X37314637Y-7568556D01*
X37092569Y-7531500D01*
X36867431Y-7531500D01*
X36645362Y-7568556D01*
X36432430Y-7641656D01*
X36432419Y-7641661D01*
X36234427Y-7748808D01*
X36234422Y-7748812D01*
X36056761Y-7887092D01*
X36056756Y-7887097D01*
X35904284Y-8052723D01*
X35904276Y-8052734D01*
X35813808Y-8191206D01*
X35760662Y-8236562D01*
X35691431Y-8245986D01*
X35628095Y-8216484D01*
X35606192Y-8191206D01*
X35515723Y-8052734D01*
X35515715Y-8052723D01*
X35363243Y-7887097D01*
X35363238Y-7887092D01*
X35185577Y-7748812D01*
X35185572Y-7748808D01*
X34987580Y-7641661D01*
X34987577Y-7641659D01*
X34987574Y-7641658D01*
X34987571Y-7641657D01*
X34987569Y-7641656D01*
X34774637Y-7568556D01*
X34552569Y-7531500D01*
X34327431Y-7531500D01*
X34105362Y-7568556D01*
X33892430Y-7641656D01*
X33892419Y-7641661D01*
X33694427Y-7748808D01*
X33694422Y-7748812D01*
X33516761Y-7887092D01*
X33516756Y-7887097D01*
X33364284Y-8052723D01*
X33364276Y-8052734D01*
X33273808Y-8191206D01*
X33220662Y-8236562D01*
X33151431Y-8245986D01*
X33088095Y-8216484D01*
X33066192Y-8191206D01*
X32975723Y-8052734D01*
X32975715Y-8052723D01*
X32823243Y-7887097D01*
X32823238Y-7887092D01*
X32645577Y-7748812D01*
X32645572Y-7748808D01*
X32447580Y-7641661D01*
X32447577Y-7641659D01*
X32447574Y-7641658D01*
X32447571Y-7641657D01*
X32447569Y-7641656D01*
X32234637Y-7568556D01*
X32012569Y-7531500D01*
X31787431Y-7531500D01*
X31565362Y-7568556D01*
X31352430Y-7641656D01*
X31352419Y-7641661D01*
X31154427Y-7748808D01*
X31154422Y-7748812D01*
X30976761Y-7887092D01*
X30976756Y-7887097D01*
X30824284Y-8052723D01*
X30824276Y-8052734D01*
X30733808Y-8191206D01*
X30680662Y-8236562D01*
X30611431Y-8245986D01*
X30548095Y-8216484D01*
X30526192Y-8191206D01*
X30435723Y-8052734D01*
X30435715Y-8052723D01*
X30283243Y-7887097D01*
X30283238Y-7887092D01*
X30105577Y-7748812D01*
X30105572Y-7748808D01*
X29907580Y-7641661D01*
X29907577Y-7641659D01*
X29907574Y-7641658D01*
X29907571Y-7641657D01*
X29907569Y-7641656D01*
X29694637Y-7568556D01*
X29472569Y-7531500D01*
X29247431Y-7531500D01*
X29025362Y-7568556D01*
X28812430Y-7641656D01*
X28812419Y-7641661D01*
X28614427Y-7748808D01*
X28614422Y-7748812D01*
X28436761Y-7887092D01*
X28436756Y-7887097D01*
X28284284Y-8052723D01*
X28284276Y-8052734D01*
X28193808Y-8191206D01*
X28140662Y-8236562D01*
X28071431Y-8245986D01*
X28008095Y-8216484D01*
X27986192Y-8191206D01*
X27895723Y-8052734D01*
X27895715Y-8052723D01*
X27743243Y-7887097D01*
X27743238Y-7887092D01*
X27565577Y-7748812D01*
X27565572Y-7748808D01*
X27367580Y-7641661D01*
X27367577Y-7641659D01*
X27367574Y-7641658D01*
X27367571Y-7641657D01*
X27367569Y-7641656D01*
X27154637Y-7568556D01*
X26932569Y-7531500D01*
X26707431Y-7531500D01*
X26485362Y-7568556D01*
X26272430Y-7641656D01*
X26272419Y-7641661D01*
X26074427Y-7748808D01*
X26074422Y-7748812D01*
X25896761Y-7887092D01*
X25896756Y-7887097D01*
X25744284Y-8052723D01*
X25744276Y-8052734D01*
X25653808Y-8191206D01*
X25600662Y-8236562D01*
X25531431Y-8245986D01*
X25468095Y-8216484D01*
X25446192Y-8191206D01*
X25355723Y-8052734D01*
X25355715Y-8052723D01*
X25203243Y-7887097D01*
X25203238Y-7887092D01*
X25025577Y-7748812D01*
X25025572Y-7748808D01*
X24827580Y-7641661D01*
X24827577Y-7641659D01*
X24827574Y-7641658D01*
X24827571Y-7641657D01*
X24827569Y-7641656D01*
X24614637Y-7568556D01*
X24392569Y-7531500D01*
X24167431Y-7531500D01*
X23945362Y-7568556D01*
X23732430Y-7641656D01*
X23732419Y-7641661D01*
X23534427Y-7748808D01*
X23534422Y-7748812D01*
X23356761Y-7887092D01*
X23356756Y-7887097D01*
X23204284Y-8052723D01*
X23204276Y-8052734D01*
X23113808Y-8191206D01*
X23060662Y-8236562D01*
X22991431Y-8245986D01*
X22928095Y-8216484D01*
X22906192Y-8191206D01*
X22815723Y-8052734D01*
X22815715Y-8052723D01*
X22663243Y-7887097D01*
X22663238Y-7887092D01*
X22485577Y-7748812D01*
X22485572Y-7748808D01*
X22287580Y-7641661D01*
X22287577Y-7641659D01*
X22287574Y-7641658D01*
X22287571Y-7641657D01*
X22287569Y-7641656D01*
X22074637Y-7568556D01*
X21852569Y-7531500D01*
X21627431Y-7531500D01*
X21405362Y-7568556D01*
X21192430Y-7641656D01*
X21192419Y-7641661D01*
X20994427Y-7748808D01*
X20994422Y-7748812D01*
X20816761Y-7887092D01*
X20816756Y-7887097D01*
X20664284Y-8052723D01*
X20664276Y-8052734D01*
X20573808Y-8191206D01*
X20520662Y-8236562D01*
X20451431Y-8245986D01*
X20388095Y-8216484D01*
X20366192Y-8191206D01*
X20275723Y-8052734D01*
X20275715Y-8052723D01*
X20123243Y-7887097D01*
X20123238Y-7887092D01*
X19945577Y-7748812D01*
X19945572Y-7748808D01*
X19747580Y-7641661D01*
X19747577Y-7641659D01*
X19747574Y-7641658D01*
X19747571Y-7641657D01*
X19747569Y-7641656D01*
X19534637Y-7568556D01*
X19312569Y-7531500D01*
X19087431Y-7531500D01*
X18865362Y-7568556D01*
X18652430Y-7641656D01*
X18652419Y-7641661D01*
X18454427Y-7748808D01*
X18454422Y-7748812D01*
X18276761Y-7887092D01*
X18276756Y-7887097D01*
X18124284Y-8052723D01*
X18124276Y-8052734D01*
X18033808Y-8191206D01*
X17980662Y-8236562D01*
X17911431Y-8245986D01*
X17848095Y-8216484D01*
X17826192Y-8191206D01*
X17735723Y-8052734D01*
X17735715Y-8052723D01*
X17583243Y-7887097D01*
X17583238Y-7887092D01*
X17405577Y-7748812D01*
X17405572Y-7748808D01*
X17207580Y-7641661D01*
X17207577Y-7641659D01*
X17207574Y-7641658D01*
X17207571Y-7641657D01*
X17207569Y-7641656D01*
X16994637Y-7568556D01*
X16772569Y-7531500D01*
X16547431Y-7531500D01*
X16325362Y-7568556D01*
X16112430Y-7641656D01*
X16112419Y-7641661D01*
X15914427Y-7748808D01*
X15914422Y-7748812D01*
X15736761Y-7887092D01*
X15736756Y-7887097D01*
X15584284Y-8052723D01*
X15584276Y-8052734D01*
X15493808Y-8191206D01*
X15440662Y-8236562D01*
X15371431Y-8245986D01*
X15308095Y-8216484D01*
X15286192Y-8191206D01*
X15195723Y-8052734D01*
X15195715Y-8052723D01*
X15043243Y-7887097D01*
X15043238Y-7887092D01*
X14865577Y-7748812D01*
X14865572Y-7748808D01*
X14667580Y-7641661D01*
X14667577Y-7641659D01*
X14667574Y-7641658D01*
X14667571Y-7641657D01*
X14667569Y-7641656D01*
X14454637Y-7568556D01*
X14232569Y-7531500D01*
X14007431Y-7531500D01*
X13785362Y-7568556D01*
X13572430Y-7641656D01*
X13572419Y-7641661D01*
X13374427Y-7748808D01*
X13374422Y-7748812D01*
X13196761Y-7887092D01*
X13196756Y-7887097D01*
X13044284Y-8052723D01*
X13044276Y-8052734D01*
X12953808Y-8191206D01*
X12900662Y-8236562D01*
X12831431Y-8245986D01*
X12768095Y-8216484D01*
X12746192Y-8191206D01*
X12655723Y-8052734D01*
X12655715Y-8052723D01*
X12503243Y-7887097D01*
X12503238Y-7887092D01*
X12325577Y-7748812D01*
X12325572Y-7748808D01*
X12127580Y-7641661D01*
X12127577Y-7641659D01*
X12127574Y-7641658D01*
X12127571Y-7641657D01*
X12127569Y-7641656D01*
X11914637Y-7568556D01*
X11692569Y-7531500D01*
X11467431Y-7531500D01*
X11245362Y-7568556D01*
X11032430Y-7641656D01*
X11032419Y-7641661D01*
X10834427Y-7748808D01*
X10834422Y-7748812D01*
X10656761Y-7887092D01*
X10656756Y-7887097D01*
X10504284Y-8052723D01*
X10504276Y-8052734D01*
X10413808Y-8191206D01*
X10360662Y-8236562D01*
X10291431Y-8245986D01*
X10228095Y-8216484D01*
X10206192Y-8191206D01*
X10115723Y-8052734D01*
X10115715Y-8052723D01*
X9963243Y-7887097D01*
X9963238Y-7887092D01*
X9785577Y-7748812D01*
X9785572Y-7748808D01*
X9587580Y-7641661D01*
X9587577Y-7641659D01*
X9587574Y-7641658D01*
X9587571Y-7641657D01*
X9587569Y-7641656D01*
X9374637Y-7568556D01*
X9152569Y-7531500D01*
X8927431Y-7531500D01*
X8705362Y-7568556D01*
X8492430Y-7641656D01*
X8492419Y-7641661D01*
X8294427Y-7748808D01*
X8294422Y-7748812D01*
X8116761Y-7887092D01*
X8053548Y-7955760D01*
X7993661Y-7991750D01*
X7923823Y-7989649D01*
X7866207Y-7950124D01*
X7846138Y-7915110D01*
X7800889Y-7793796D01*
X7767214Y-7748812D01*
X7713261Y-7676739D01*
X7596204Y-7589111D01*
X7552736Y-7572898D01*
X7459203Y-7538011D01*
X7398654Y-7531500D01*
X7398638Y-7531500D01*
X5601362Y-7531500D01*
X5601345Y-7531500D01*
X5540797Y-7538011D01*
X5540795Y-7538011D01*
X5403795Y-7589111D01*
X5286739Y-7676739D01*
X5199111Y-7793795D01*
X5148011Y-7930795D01*
X5148011Y-7930797D01*
X5141500Y-7991345D01*
X5141500Y-9788654D01*
X86347Y-9788654D01*
X79593Y-9768756D01*
X77499Y-9760942D01*
X28312Y-9513667D01*
X27254Y-9505627D01*
X10633Y-9252018D01*
X10500Y-9247962D01*
X10500Y-7055710D01*
X30185Y-6988671D01*
X46814Y-6968034D01*
X1738493Y-5276354D01*
X1742158Y-5273907D01*
X1758036Y-5258036D01*
X1760500Y-5252089D01*
X1760753Y-5251477D01*
X1761365Y-5250000D01*
X1761364Y-5249997D01*
X1761366Y-5227613D01*
X1760500Y-5223254D01*
X1760500Y-3750003D01*
X11711859Y-3750003D01*
X11730364Y-3914246D01*
X11784958Y-4070268D01*
X11856567Y-4184232D01*
X11872898Y-4210223D01*
X11989777Y-4327102D01*
X12072558Y-4379117D01*
X12128475Y-4414252D01*
X12129733Y-4415042D01*
X12285748Y-4469634D01*
X12285751Y-4469634D01*
X12285753Y-4469635D01*
X12449996Y-4488141D01*
X12450000Y-4488141D01*
X12450004Y-4488141D01*
X12614246Y-4469635D01*
X12614247Y-4469634D01*
X12614252Y-4469634D01*
X12770267Y-4415042D01*
X12910223Y-4327102D01*
X13027102Y-4210223D01*
X13115042Y-4070267D01*
X13169634Y-3914252D01*
X13169981Y-3911174D01*
X13188141Y-3750003D01*
X13188141Y-3749996D01*
X13169635Y-3585753D01*
X13169634Y-3585751D01*
X13169634Y-3585748D01*
X13115042Y-3429733D01*
X13105810Y-3415041D01*
X13056973Y-3337317D01*
X13027102Y-3289777D01*
X12910223Y-3172898D01*
X12893013Y-3162084D01*
X12770268Y-3084958D01*
X12614246Y-3030364D01*
X12450004Y-3011859D01*
X12449996Y-3011859D01*
X12285753Y-3030364D01*
X12129731Y-3084958D01*
X11989776Y-3172898D01*
X11872898Y-3289776D01*
X11784958Y-3429731D01*
X11730364Y-3585753D01*
X11711859Y-3749996D01*
X11711859Y-3750003D01*
X1760500Y-3750003D01*
X1760500Y-2725001D01*
X2494317Y-2725001D01*
X2514954Y-2881760D01*
X2514955Y-2881762D01*
X2575463Y-3027842D01*
X2602549Y-3063141D01*
X2671717Y-3153283D01*
X2753456Y-3216003D01*
X2797157Y-3249536D01*
X2797158Y-3249536D01*
X2797159Y-3249537D01*
X2943238Y-3310045D01*
X3060639Y-3325501D01*
X3060646Y-3325501D01*
X4339354Y-3325501D01*
X4339361Y-3325501D01*
X4456762Y-3310045D01*
X4602841Y-3249537D01*
X4728283Y-3153283D01*
X4824537Y-3027842D01*
X4885045Y-2881762D01*
X4905060Y-2729733D01*
X4905683Y-2725001D01*
X4905683Y-2724998D01*
X4891924Y-2620492D01*
X4885045Y-2568238D01*
X4838387Y-2455597D01*
X5995710Y-2455597D01*
X6004231Y-2489246D01*
X6024235Y-2568239D01*
X6025657Y-2573852D01*
X6025658Y-2573854D01*
X6089383Y-2671392D01*
X6092374Y-2675970D01*
X6124579Y-2701036D01*
X6188632Y-2750891D01*
X6188637Y-2750894D01*
X6304007Y-2790501D01*
X6304009Y-2790501D01*
X7125286Y-2790501D01*
X7215319Y-2775477D01*
X7322600Y-2717420D01*
X7405216Y-2627674D01*
X7454216Y-2515966D01*
X7461745Y-2425097D01*
X7464289Y-2394402D01*
X7464288Y-2394401D01*
X7464289Y-2394400D01*
X7434344Y-2276150D01*
X7426565Y-2264244D01*
X7367628Y-2174033D01*
X7367627Y-2174032D01*
X7367626Y-2174030D01*
X7345233Y-2156601D01*
X7271367Y-2099108D01*
X7271362Y-2099105D01*
X7155993Y-2059499D01*
X7155991Y-2059499D01*
X6334714Y-2059499D01*
X6244681Y-2074522D01*
X6137400Y-2132579D01*
X6054785Y-2222323D01*
X6040778Y-2254256D01*
X6005957Y-2333641D01*
X6005783Y-2334037D01*
X5995710Y-2455597D01*
X4838387Y-2455597D01*
X4824537Y-2422159D01*
X4824536Y-2422158D01*
X4824536Y-2422157D01*
X4787195Y-2373493D01*
X4728283Y-2296717D01*
X4665561Y-2248589D01*
X4602842Y-2200463D01*
X4456762Y-2139955D01*
X4456760Y-2139954D01*
X4339370Y-2124500D01*
X4339367Y-2124499D01*
X4339361Y-2124499D01*
X3060639Y-2124499D01*
X3060633Y-2124499D01*
X3060629Y-2124500D01*
X2943239Y-2139954D01*
X2943237Y-2139955D01*
X2797157Y-2200463D01*
X2671718Y-2296715D01*
X2575461Y-2422160D01*
X2514956Y-2568234D01*
X2514954Y-2568239D01*
X2494317Y-2724998D01*
X2494317Y-2725001D01*
X1760500Y-2725001D01*
X1760500Y-1300003D01*
X4461859Y-1300003D01*
X4480364Y-1464246D01*
X4534958Y-1620268D01*
X4609023Y-1738141D01*
X4622898Y-1760223D01*
X4739777Y-1877102D01*
X4798901Y-1914252D01*
X4878822Y-1964470D01*
X4879733Y-1965042D01*
X5035748Y-2019634D01*
X5035751Y-2019634D01*
X5035753Y-2019635D01*
X5199996Y-2038141D01*
X5200000Y-2038141D01*
X5200004Y-2038141D01*
X5364246Y-2019635D01*
X5364247Y-2019634D01*
X5364252Y-2019634D01*
X5520267Y-1965042D01*
X5660223Y-1877102D01*
X5777102Y-1760223D01*
X5865042Y-1620267D01*
X5919634Y-1464252D01*
X5920088Y-1460223D01*
X5938141Y-1300003D01*
X5938141Y-1299996D01*
X5919635Y-1135753D01*
X5919634Y-1135751D01*
X5919634Y-1135748D01*
X5865042Y-979733D01*
X5777102Y-839777D01*
X5660223Y-722898D01*
X5649121Y-715922D01*
X5520268Y-634958D01*
X5364246Y-580364D01*
X5200004Y-561859D01*
X5199996Y-561859D01*
X5035753Y-580364D01*
X4879731Y-634958D01*
X4739776Y-722898D01*
X4622898Y-839776D01*
X4534958Y-979731D01*
X4480364Y-1135753D01*
X4461859Y-1299996D01*
X4461859Y-1300003D01*
X1760500Y-1300003D01*
X1760500Y1399997D01*
X7261859Y1399997D01*
X7280364Y1235754D01*
X7334958Y1079732D01*
X7410051Y960223D01*
X7422898Y939777D01*
X7539777Y822898D01*
X7679733Y734958D01*
X7818036Y686564D01*
X7874812Y645842D01*
X7900559Y580889D01*
X7894123Y528569D01*
X7880364Y489248D01*
X7861859Y325004D01*
X7861859Y324997D01*
X7880364Y160754D01*
X7934958Y4732D01*
X7986378Y-77102D01*
X8022898Y-135223D01*
X8139777Y-252102D01*
X8171195Y-271843D01*
X8271641Y-334958D01*
X8279733Y-340042D01*
X8435748Y-394634D01*
X8435751Y-394634D01*
X8435753Y-394635D01*
X8599996Y-413141D01*
X8600000Y-413141D01*
X8600004Y-413141D01*
X8764246Y-394635D01*
X8764247Y-394634D01*
X8764252Y-394634D01*
X8920267Y-340042D01*
X9060223Y-252102D01*
X9177102Y-135223D01*
X9265042Y4733D01*
X9319634Y160748D01*
X9319635Y160754D01*
X9338141Y324997D01*
X10736859Y324997D01*
X10755364Y160754D01*
X10809958Y4732D01*
X10861378Y-77102D01*
X10897898Y-135223D01*
X11014777Y-252102D01*
X11046195Y-271843D01*
X11146641Y-334958D01*
X11154733Y-340042D01*
X11310748Y-394634D01*
X11310751Y-394634D01*
X11310753Y-394635D01*
X11474996Y-413141D01*
X11475000Y-413141D01*
X11475004Y-413141D01*
X11639246Y-394635D01*
X11639247Y-394634D01*
X11639252Y-394634D01*
X11795267Y-340042D01*
X11935223Y-252102D01*
X12052102Y-135223D01*
X12140042Y4733D01*
X12194634Y160748D01*
X12194635Y160754D01*
X12213141Y324997D01*
X12213141Y325004D01*
X12194635Y489247D01*
X12194634Y489249D01*
X12194634Y489252D01*
X12140042Y645267D01*
X12139926Y645451D01*
X12092124Y721528D01*
X12073124Y788764D01*
X12092124Y853472D01*
X12111283Y883964D01*
X12140042Y929733D01*
X12194634Y1085748D01*
X12195761Y1095748D01*
X12213141Y1249997D01*
X12213141Y1250004D01*
X12194635Y1414249D01*
X12186906Y1436336D01*
X12144103Y1558659D01*
X12140542Y1628437D01*
X12156153Y1665587D01*
X12165042Y1679733D01*
X12219634Y1835748D01*
X12228479Y1914247D01*
X12238141Y1999997D01*
X12238141Y2000004D01*
X12219635Y2164246D01*
X12219634Y2164250D01*
X12219634Y2164252D01*
X12203958Y2209049D01*
X12200398Y2278825D01*
X12203956Y2290945D01*
X12219634Y2335748D01*
X12223382Y2369011D01*
X12238141Y2499997D01*
X12238141Y2500004D01*
X12219635Y2664246D01*
X12219634Y2664250D01*
X12219634Y2664252D01*
X12203958Y2709049D01*
X12200398Y2778825D01*
X12203956Y2790945D01*
X12219634Y2835748D01*
X12222846Y2864252D01*
X12238141Y2999997D01*
X12238141Y3000004D01*
X12219635Y3164247D01*
X12219634Y3164249D01*
X12219634Y3164252D01*
X12165042Y3320267D01*
X12077102Y3460223D01*
X11960223Y3577102D01*
X11923775Y3600004D01*
X11820268Y3665042D01*
X11664246Y3719636D01*
X11500004Y3738141D01*
X11499996Y3738141D01*
X11335753Y3719636D01*
X11179731Y3665042D01*
X11039776Y3577102D01*
X10922898Y3460224D01*
X10834958Y3320269D01*
X10780364Y3164247D01*
X10761859Y3000004D01*
X10761859Y2999997D01*
X10780365Y2835750D01*
X10796039Y2790955D01*
X10799600Y2721176D01*
X10796040Y2709049D01*
X10780365Y2664250D01*
X10761859Y2500003D01*
X10761859Y2499997D01*
X10780365Y2335750D01*
X10796039Y2290955D01*
X10799600Y2221176D01*
X10796040Y2209049D01*
X10780365Y2164250D01*
X10761859Y2000003D01*
X10761859Y1999997D01*
X10780364Y1835755D01*
X10780365Y1835750D01*
X10780366Y1835748D01*
X10820996Y1719634D01*
X10830896Y1691342D01*
X10834457Y1621563D01*
X10818850Y1584419D01*
X10809957Y1570267D01*
X10755364Y1414247D01*
X10736859Y1250004D01*
X10736859Y1249997D01*
X10755364Y1085754D01*
X10755365Y1085749D01*
X10755366Y1085748D01*
X10757248Y1080369D01*
X10809958Y929732D01*
X10809960Y929728D01*
X10857875Y853471D01*
X10876875Y786235D01*
X10857875Y721529D01*
X10809960Y645273D01*
X10809958Y645269D01*
X10755364Y489247D01*
X10736859Y325004D01*
X10736859Y324997D01*
X9338141Y324997D01*
X9338141Y325004D01*
X9319635Y489247D01*
X9319634Y489249D01*
X9319634Y489252D01*
X9265042Y645267D01*
X9264926Y645451D01*
X9217124Y721528D01*
X9177102Y785223D01*
X9177101Y785224D01*
X9173397Y791119D01*
X9174441Y791776D01*
X9150722Y849867D01*
X9163475Y918563D01*
X9176840Y939362D01*
X9177098Y939774D01*
X9177102Y939777D01*
X9265042Y1079733D01*
X9319634Y1235748D01*
X9320295Y1241611D01*
X9338141Y1399997D01*
X9338141Y1400004D01*
X9319635Y1564247D01*
X9319634Y1564250D01*
X9319634Y1564252D01*
X9265042Y1720267D01*
X9250285Y1743752D01*
X9192587Y1835579D01*
X9177102Y1860223D01*
X9060223Y1977102D01*
X9056190Y1979636D01*
X8920268Y2065042D01*
X8764246Y2119636D01*
X8600004Y2138141D01*
X8599996Y2138141D01*
X8435749Y2119636D01*
X8340954Y2086465D01*
X8271175Y2082904D01*
X8259046Y2086465D01*
X8164250Y2119636D01*
X8000004Y2138141D01*
X7999996Y2138141D01*
X7835753Y2119636D01*
X7679731Y2065042D01*
X7539776Y1977102D01*
X7422898Y1860224D01*
X7334958Y1720269D01*
X7280364Y1564247D01*
X7261859Y1400004D01*
X7261859Y1399997D01*
X1760500Y1399997D01*
X1760500Y2724999D01*
X2494317Y2724999D01*
X2514954Y2568240D01*
X2514955Y2568238D01*
X2575463Y2422158D01*
X2596763Y2394400D01*
X2671717Y2296717D01*
X2750459Y2236297D01*
X2797157Y2200464D01*
X2797158Y2200464D01*
X2797159Y2200463D01*
X2943238Y2139955D01*
X3060639Y2124499D01*
X3060646Y2124499D01*
X4339354Y2124499D01*
X4339361Y2124499D01*
X4456762Y2139955D01*
X4602841Y2200463D01*
X4728283Y2296717D01*
X4803238Y2394400D01*
X5995710Y2394400D01*
X5995711Y2394400D01*
X6021906Y2290957D01*
X6025657Y2276148D01*
X6025658Y2276146D01*
X6085155Y2185079D01*
X6092374Y2174030D01*
X6109431Y2160754D01*
X6188632Y2099109D01*
X6188637Y2099106D01*
X6304007Y2059499D01*
X6304009Y2059499D01*
X7125286Y2059499D01*
X7215319Y2074523D01*
X7322600Y2132580D01*
X7405216Y2222326D01*
X7454216Y2334034D01*
X7464289Y2455600D01*
X7434344Y2573850D01*
X7379328Y2658058D01*
X7367628Y2675967D01*
X7367627Y2675968D01*
X7367626Y2675970D01*
X7310107Y2720739D01*
X7271367Y2750892D01*
X7271362Y2750895D01*
X7155993Y2790501D01*
X7155991Y2790501D01*
X6334714Y2790501D01*
X6244681Y2775478D01*
X6137400Y2717421D01*
X6054785Y2627677D01*
X6043249Y2601377D01*
X6012101Y2530366D01*
X6005783Y2515963D01*
X5995710Y2394403D01*
X5995710Y2394400D01*
X4803238Y2394400D01*
X4824537Y2422158D01*
X4885045Y2568238D01*
X4905683Y2725000D01*
X4904053Y2737378D01*
X4885045Y2881761D01*
X4885045Y2881762D01*
X4824537Y3027841D01*
X4824536Y3027842D01*
X4824536Y3027843D01*
X4749740Y3125319D01*
X4728283Y3153283D01*
X4660816Y3205052D01*
X4602842Y3249537D01*
X4456762Y3310045D01*
X4456760Y3310046D01*
X4339370Y3325500D01*
X4339367Y3325501D01*
X4339361Y3325501D01*
X3060639Y3325501D01*
X3060633Y3325501D01*
X3060629Y3325500D01*
X2943239Y3310046D01*
X2943237Y3310045D01*
X2797157Y3249537D01*
X2671718Y3153285D01*
X2575461Y3027840D01*
X2514956Y2881766D01*
X2514954Y2881761D01*
X2494317Y2725002D01*
X2494317Y2724999D01*
X1760500Y2724999D01*
X1760500Y3599997D01*
X7861859Y3599997D01*
X7880364Y3435754D01*
X7934958Y3279732D01*
X8009352Y3161335D01*
X8022898Y3139777D01*
X8139777Y3022898D01*
X8218683Y2973318D01*
X8272063Y2939777D01*
X8279733Y2934958D01*
X8435748Y2880366D01*
X8435751Y2880366D01*
X8435753Y2880365D01*
X8599996Y2861859D01*
X8600000Y2861859D01*
X8600004Y2861859D01*
X8764246Y2880365D01*
X8764247Y2880366D01*
X8764252Y2880366D01*
X8920267Y2934958D01*
X9060223Y3022898D01*
X9177102Y3139777D01*
X9265042Y3279733D01*
X9319634Y3435748D01*
X9320786Y3445969D01*
X9338141Y3599997D01*
X9338141Y3600004D01*
X9319635Y3764247D01*
X9319634Y3764249D01*
X9319634Y3764252D01*
X9265042Y3920267D01*
X9252368Y3940437D01*
X9222394Y3988141D01*
X9177102Y4060223D01*
X9060223Y4177102D01*
X8920268Y4265042D01*
X8764246Y4319636D01*
X8600004Y4338141D01*
X8599996Y4338141D01*
X8435753Y4319636D01*
X8279731Y4265042D01*
X8139776Y4177102D01*
X8022898Y4060224D01*
X7934958Y3920269D01*
X7880364Y3764247D01*
X7861859Y3600004D01*
X7861859Y3599997D01*
X1760500Y3599997D01*
X1760500Y5223244D01*
X1761365Y5227591D01*
X1761365Y5249999D01*
X1761365Y5250000D01*
X1758901Y5255948D01*
X1758900Y5255949D01*
X1758036Y5258036D01*
X1758034Y5258037D01*
X1758033Y5258040D01*
X1742208Y5273868D01*
X1738508Y5276341D01*
X46819Y6968030D01*
X13334Y7029353D01*
X10500Y7055711D01*
X10500Y9247963D01*
X10633Y9252019D01*
X22642Y9435262D01*
X27254Y9505633D01*
X28312Y9513666D01*
X77500Y9760947D01*
X79592Y9768753D01*
X160641Y10007519D01*
X163731Y10014978D01*
X275248Y10241115D01*
X279302Y10248133D01*
X419372Y10457762D01*
X424293Y10464175D01*
X590537Y10653741D01*
X596259Y10659463D01*
X785825Y10825707D01*
X792238Y10830628D01*
X1001872Y10970701D01*
X1008885Y10974752D01*
X1235022Y11086269D01*
X1242481Y11089359D01*
X1481247Y11170408D01*
X1489053Y11172500D01*
X1736334Y11221688D01*
X1744367Y11222746D01*
X1816692Y11227486D01*
X1997982Y11239367D01*
X2002038Y11239500D01*
X2003412Y11239500D01*
X55746588Y11239500D01*
X55747560Y11239500D01*
X55752426Y11239309D01*
G37*
G04 #@! TD.AperFunction*
M02*
