G04 #@! TF.GenerationSoftware,KiCad,Pcbnew,7.0.7*
G04 #@! TF.CreationDate,2023-08-30T11:11:12+01:00*
G04 #@! TF.ProjectId,NB3_hindbrain,4e42335f-6869-46e6-9462-7261696e2e6b,0.0.1*
G04 #@! TF.SameCoordinates,PX4af0920PY4c4db10*
G04 #@! TF.FileFunction,Paste,Top*
G04 #@! TF.FilePolarity,Positive*
%FSLAX46Y46*%
G04 Gerber Fmt 4.6, Leading zero omitted, Abs format (unit mm)*
G04 Created by KiCad (PCBNEW 7.0.7) date 2023-08-30 11:11:12*
%MOMM*%
%LPD*%
G01*
G04 APERTURE LIST*
G04 Aperture macros list*
%AMRoundRect*
0 Rectangle with rounded corners*
0 $1 Rounding radius*
0 $2 $3 $4 $5 $6 $7 $8 $9 X,Y pos of 4 corners*
0 Add a 4 corners polygon primitive as box body*
4,1,4,$2,$3,$4,$5,$6,$7,$8,$9,$2,$3,0*
0 Add four circle primitives for the rounded corners*
1,1,$1+$1,$2,$3*
1,1,$1+$1,$4,$5*
1,1,$1+$1,$6,$7*
1,1,$1+$1,$8,$9*
0 Add four rect primitives between the rounded corners*
20,1,$1+$1,$2,$3,$4,$5,0*
20,1,$1+$1,$4,$5,$6,$7,0*
20,1,$1+$1,$6,$7,$8,$9,0*
20,1,$1+$1,$8,$9,$2,$3,0*%
G04 Aperture macros list end*
%ADD10C,0.010000*%
%ADD11RoundRect,0.135000X0.135000X0.185000X-0.135000X0.185000X-0.135000X-0.185000X0.135000X-0.185000X0*%
%ADD12RoundRect,0.147500X0.147500X0.172500X-0.147500X0.172500X-0.147500X-0.172500X0.147500X-0.172500X0*%
%ADD13R,0.370000X0.425000*%
%ADD14R,1.000000X0.800000*%
%ADD15R,0.970000X1.000000*%
%ADD16R,0.370000X0.500000*%
%ADD17R,0.470000X0.500000*%
%ADD18R,0.240000X0.600000*%
%ADD19R,0.600000X0.240000*%
%ADD20RoundRect,0.135000X-0.185000X0.135000X-0.185000X-0.135000X0.185000X-0.135000X0.185000X0.135000X0*%
%ADD21RoundRect,0.140000X-0.170000X0.140000X-0.170000X-0.140000X0.170000X-0.140000X0.170000X0.140000X0*%
%ADD22RoundRect,0.225000X-0.225000X-0.250000X0.225000X-0.250000X0.225000X0.250000X-0.225000X0.250000X0*%
%ADD23R,0.800000X0.900000*%
%ADD24RoundRect,0.140000X0.170000X-0.140000X0.170000X0.140000X-0.170000X0.140000X-0.170000X-0.140000X0*%
%ADD25R,0.650000X1.650000*%
%ADD26R,1.750000X0.400000*%
%ADD27R,2.500000X1.425000*%
%ADD28RoundRect,0.135000X-0.135000X-0.185000X0.135000X-0.185000X0.135000X0.185000X-0.135000X0.185000X0*%
%ADD29RoundRect,0.140000X0.140000X0.170000X-0.140000X0.170000X-0.140000X-0.170000X0.140000X-0.170000X0*%
%ADD30R,0.770000X1.070000*%
%ADD31R,0.850000X0.300000*%
%ADD32R,0.300000X0.850000*%
%ADD33R,4.550000X4.550000*%
%ADD34RoundRect,0.225000X-0.250000X0.225000X-0.250000X-0.225000X0.250000X-0.225000X0.250000X0.225000X0*%
%ADD35RoundRect,0.225000X0.250000X-0.225000X0.250000X0.225000X-0.250000X0.225000X-0.250000X-0.225000X0*%
%ADD36R,0.500000X0.600000*%
%ADD37RoundRect,0.135000X0.185000X-0.135000X0.185000X0.135000X-0.185000X0.135000X-0.185000X-0.135000X0*%
%ADD38RoundRect,0.147500X-0.147500X-0.172500X0.147500X-0.172500X0.147500X0.172500X-0.147500X0.172500X0*%
G04 APERTURE END LIST*
D10*
X48420000Y1360000D02*
X47360000Y1360000D01*
X47360000Y2420000D01*
X48420000Y2420000D01*
X48420000Y1360000D01*
G36*
X48420000Y1360000D02*
G01*
X47360000Y1360000D01*
X47360000Y2420000D01*
X48420000Y2420000D01*
X48420000Y1360000D01*
G37*
X47160000Y1360000D02*
X46100000Y1360000D01*
X46100000Y2420000D01*
X47160000Y2420000D01*
X47160000Y1360000D01*
G36*
X47160000Y1360000D02*
G01*
X46100000Y1360000D01*
X46100000Y2420000D01*
X47160000Y2420000D01*
X47160000Y1360000D01*
G37*
X45900000Y1360000D02*
X44840000Y1360000D01*
X44840000Y2420000D01*
X45900000Y2420000D01*
X45900000Y1360000D01*
G36*
X45900000Y1360000D02*
G01*
X44840000Y1360000D01*
X44840000Y2420000D01*
X45900000Y2420000D01*
X45900000Y1360000D01*
G37*
X44640000Y1360000D02*
X43580000Y1360000D01*
X43580000Y2420000D01*
X44640000Y2420000D01*
X44640000Y1360000D01*
G36*
X44640000Y1360000D02*
G01*
X43580000Y1360000D01*
X43580000Y2420000D01*
X44640000Y2420000D01*
X44640000Y1360000D01*
G37*
X48420000Y100000D02*
X47360000Y100000D01*
X47360000Y1160000D01*
X48420000Y1160000D01*
X48420000Y100000D01*
G36*
X48420000Y100000D02*
G01*
X47360000Y100000D01*
X47360000Y1160000D01*
X48420000Y1160000D01*
X48420000Y100000D01*
G37*
X47160000Y100000D02*
X46100000Y100000D01*
X46100000Y1160000D01*
X47160000Y1160000D01*
X47160000Y100000D01*
G36*
X47160000Y100000D02*
G01*
X46100000Y100000D01*
X46100000Y1160000D01*
X47160000Y1160000D01*
X47160000Y100000D01*
G37*
X45900000Y100000D02*
X44840000Y100000D01*
X44840000Y1160000D01*
X45900000Y1160000D01*
X45900000Y100000D01*
G36*
X45900000Y100000D02*
G01*
X44840000Y100000D01*
X44840000Y1160000D01*
X45900000Y1160000D01*
X45900000Y100000D01*
G37*
X44640000Y100000D02*
X43580000Y100000D01*
X43580000Y1160000D01*
X44640000Y1160000D01*
X44640000Y100000D01*
G36*
X44640000Y100000D02*
G01*
X43580000Y100000D01*
X43580000Y1160000D01*
X44640000Y1160000D01*
X44640000Y100000D01*
G37*
X48420000Y-1160000D02*
X47360000Y-1160000D01*
X47360000Y-100000D01*
X48420000Y-100000D01*
X48420000Y-1160000D01*
G36*
X48420000Y-1160000D02*
G01*
X47360000Y-1160000D01*
X47360000Y-100000D01*
X48420000Y-100000D01*
X48420000Y-1160000D01*
G37*
X47160000Y-1160000D02*
X46100000Y-1160000D01*
X46100000Y-100000D01*
X47160000Y-100000D01*
X47160000Y-1160000D01*
G36*
X47160000Y-1160000D02*
G01*
X46100000Y-1160000D01*
X46100000Y-100000D01*
X47160000Y-100000D01*
X47160000Y-1160000D01*
G37*
X45900000Y-1160000D02*
X44840000Y-1160000D01*
X44840000Y-100000D01*
X45900000Y-100000D01*
X45900000Y-1160000D01*
G36*
X45900000Y-1160000D02*
G01*
X44840000Y-1160000D01*
X44840000Y-100000D01*
X45900000Y-100000D01*
X45900000Y-1160000D01*
G37*
X44640000Y-1160000D02*
X43580000Y-1160000D01*
X43580000Y-100000D01*
X44640000Y-100000D01*
X44640000Y-1160000D01*
G36*
X44640000Y-1160000D02*
G01*
X43580000Y-1160000D01*
X43580000Y-100000D01*
X44640000Y-100000D01*
X44640000Y-1160000D01*
G37*
X48420000Y-2420000D02*
X47360000Y-2420000D01*
X47360000Y-1360000D01*
X48420000Y-1360000D01*
X48420000Y-2420000D01*
G36*
X48420000Y-2420000D02*
G01*
X47360000Y-2420000D01*
X47360000Y-1360000D01*
X48420000Y-1360000D01*
X48420000Y-2420000D01*
G37*
X47160000Y-2420000D02*
X46100000Y-2420000D01*
X46100000Y-1360000D01*
X47160000Y-1360000D01*
X47160000Y-2420000D01*
G36*
X47160000Y-2420000D02*
G01*
X46100000Y-2420000D01*
X46100000Y-1360000D01*
X47160000Y-1360000D01*
X47160000Y-2420000D01*
G37*
X45900000Y-2420000D02*
X44840000Y-2420000D01*
X44840000Y-1360000D01*
X45900000Y-1360000D01*
X45900000Y-2420000D01*
G36*
X45900000Y-2420000D02*
G01*
X44840000Y-2420000D01*
X44840000Y-1360000D01*
X45900000Y-1360000D01*
X45900000Y-2420000D01*
G37*
X44640000Y-2420000D02*
X43580000Y-2420000D01*
X43580000Y-1360000D01*
X44640000Y-1360000D01*
X44640000Y-2420000D01*
G36*
X44640000Y-2420000D02*
G01*
X43580000Y-2420000D01*
X43580000Y-1360000D01*
X44640000Y-1360000D01*
X44640000Y-2420000D01*
G37*
D11*
X38510000Y7000000D03*
X37490000Y7000000D03*
D12*
X36485000Y-3000000D03*
X35515000Y-3000000D03*
D11*
X26510000Y-7000000D03*
X25490000Y-7000000D03*
D13*
X9837000Y-175000D03*
X9837000Y325000D03*
X9837000Y825000D03*
X9163000Y825000D03*
X9163000Y325000D03*
X9163000Y-175000D03*
D11*
X28510000Y4000000D03*
X27490000Y4000000D03*
D14*
X32250000Y550000D03*
X33750000Y550000D03*
X33750000Y-550000D03*
X32250000Y-550000D03*
D11*
X20520000Y6000000D03*
X19500000Y6000000D03*
X32510000Y-7000000D03*
X31490000Y-7000000D03*
X32510000Y4000000D03*
X31490000Y4000000D03*
X36510000Y-4000000D03*
X35490000Y-4000000D03*
D15*
X8525000Y-1950000D03*
X8525000Y-3420000D03*
D16*
X29600000Y-5900000D03*
X30400000Y-5900000D03*
D17*
X30000000Y-5100000D03*
D16*
X36400000Y5900000D03*
X35600000Y5900000D03*
D17*
X36000000Y5100000D03*
D18*
X48750000Y3400000D03*
X48250000Y3400000D03*
X47750000Y3400000D03*
X47250000Y3400000D03*
X46750000Y3400000D03*
X46250000Y3400000D03*
X45750000Y3400000D03*
X45250000Y3400000D03*
X44750000Y3400000D03*
X44250000Y3400000D03*
X43750000Y3400000D03*
X43250000Y3400000D03*
D19*
X42600000Y2750000D03*
X42600000Y2250000D03*
X42600000Y1750000D03*
X42600000Y1250000D03*
X42600000Y750000D03*
X42600000Y250000D03*
X42600000Y-250000D03*
X42600000Y-750000D03*
X42600000Y-1250000D03*
X42600000Y-1750000D03*
X42600000Y-2250000D03*
X42600000Y-2750000D03*
D18*
X43250000Y-3400000D03*
X43750000Y-3400000D03*
X44250000Y-3400000D03*
X44750000Y-3400000D03*
X45250000Y-3400000D03*
X45750000Y-3400000D03*
X46250000Y-3400000D03*
X46750000Y-3400000D03*
X47250000Y-3400000D03*
X47750000Y-3400000D03*
X48250000Y-3400000D03*
X48750000Y-3400000D03*
D19*
X49400000Y-2750000D03*
X49400000Y-2250000D03*
X49400000Y-1750000D03*
X49400000Y-1250000D03*
X49400000Y-750000D03*
X49400000Y-250000D03*
X49400000Y250000D03*
X49400000Y750000D03*
X49400000Y1250000D03*
X49400000Y1750000D03*
X49400000Y2250000D03*
X49400000Y2750000D03*
D12*
X26485000Y-3000000D03*
X25515000Y-3000000D03*
D11*
X30510000Y7000000D03*
X29490000Y7000000D03*
X38510000Y-4000000D03*
X37490000Y-4000000D03*
D12*
X30485000Y-3000000D03*
X29515000Y-3000000D03*
D16*
X31600000Y-5900000D03*
X32400000Y-5900000D03*
D17*
X32000000Y-5100000D03*
D20*
X14100000Y7110000D03*
X14100000Y6090000D03*
D21*
X46750000Y5960000D03*
X46750000Y5000000D03*
D12*
X30485000Y3000000D03*
X29515000Y3000000D03*
D11*
X40510000Y4000000D03*
X39490000Y4000000D03*
X26510000Y4000000D03*
X25490000Y4000000D03*
D12*
X32485000Y-3000000D03*
X31515000Y-3000000D03*
D11*
X40510000Y-7000000D03*
X39490000Y-7000000D03*
X34510000Y-4000000D03*
X33490000Y-4000000D03*
D21*
X12750000Y6710000D03*
X12750000Y5750000D03*
D22*
X54625000Y-6600000D03*
X56175000Y-6600000D03*
D20*
X52850000Y6510000D03*
X52850000Y5490000D03*
D23*
X37775000Y-925000D03*
X37775000Y925000D03*
X36325000Y925000D03*
X36325000Y-925000D03*
D24*
X12325000Y-2730000D03*
X12325000Y-1770000D03*
D25*
X55405000Y3600000D03*
X54135000Y3600000D03*
X52865000Y3600000D03*
X51595000Y3600000D03*
X51595000Y-3600000D03*
X52865000Y-3600000D03*
X54135000Y-3600000D03*
X55405000Y-3600000D03*
D16*
X39600000Y-5900000D03*
X40400000Y-5900000D03*
D17*
X40000000Y-5100000D03*
D11*
X26510000Y7000000D03*
X25490000Y7000000D03*
X50702400Y-7340600D03*
X49682400Y-7340600D03*
X48162400Y-7340600D03*
X47142400Y-7340600D03*
X26510000Y-4000000D03*
X25490000Y-4000000D03*
D16*
X40400000Y5900000D03*
X39600000Y5900000D03*
D17*
X40000000Y5100000D03*
D16*
X34400000Y5900000D03*
X33600000Y5900000D03*
D17*
X34000000Y5100000D03*
D20*
X15200000Y7110000D03*
X15200000Y6090000D03*
D12*
X40485000Y3000000D03*
X39515000Y3000000D03*
D26*
X6525000Y1300000D03*
X6525000Y650000D03*
X6525000Y0D03*
X6525000Y-650000D03*
X6525000Y-1300000D03*
D27*
X3450000Y962500D03*
X3450000Y-962500D03*
D12*
X34485000Y3000000D03*
X33515000Y3000000D03*
D16*
X32400000Y5900000D03*
X31600000Y5900000D03*
D17*
X32000000Y5100000D03*
D15*
X8525000Y4765000D03*
X8525000Y6235000D03*
D28*
X2538000Y10160000D03*
X3558000Y10160000D03*
D11*
X48162400Y7350000D03*
X47142400Y7350000D03*
D12*
X34485000Y-3000000D03*
X33515000Y-3000000D03*
X32485000Y3000000D03*
X31515000Y3000000D03*
D24*
X47600000Y-5980000D03*
X47600000Y-5020000D03*
D16*
X28400000Y5900000D03*
X27600000Y5900000D03*
D17*
X28000000Y5100000D03*
D29*
X22230000Y-5750000D03*
X21270000Y-5750000D03*
D12*
X19685000Y7200000D03*
X18715000Y7200000D03*
D20*
X53300000Y-5580000D03*
X53300000Y-6600000D03*
D16*
X30400000Y5900000D03*
X29600000Y5900000D03*
D17*
X30000000Y5100000D03*
D30*
X8600000Y2500000D03*
X10400000Y2500000D03*
D20*
X55400000Y6510000D03*
X55400000Y5490000D03*
D16*
X35600000Y-5900000D03*
X36400000Y-5900000D03*
D17*
X36000000Y-5100000D03*
D11*
X40510000Y-4000000D03*
X39490000Y-4000000D03*
X36510000Y7000000D03*
X35490000Y7000000D03*
X32510000Y7000000D03*
X31490000Y7000000D03*
X28510000Y-7000000D03*
X27490000Y-7000000D03*
X38500000Y-7000000D03*
X37480000Y-7000000D03*
D12*
X38485000Y-3000000D03*
X37515000Y-3000000D03*
X28485000Y-3000000D03*
X27515000Y-3000000D03*
D11*
X40510000Y7000000D03*
X39490000Y7000000D03*
X28510000Y7000000D03*
X27490000Y7000000D03*
D28*
X17480000Y6000000D03*
X18500000Y6000000D03*
D11*
X28510000Y-4000000D03*
X27490000Y-4000000D03*
X30510000Y-7000000D03*
X29490000Y-7000000D03*
D31*
X13550000Y3750000D03*
X13550000Y3250000D03*
X13550000Y2750000D03*
X13550000Y2250000D03*
X13550000Y1750000D03*
X13550000Y1250000D03*
X13550000Y750000D03*
X13550000Y250000D03*
X13550000Y-250000D03*
X13550000Y-750000D03*
X13550000Y-1250000D03*
X13550000Y-1750000D03*
X13550000Y-2250000D03*
X13550000Y-2750000D03*
X13550000Y-3250000D03*
X13550000Y-3750000D03*
D32*
X14250000Y-4450000D03*
X14750000Y-4450000D03*
X15250000Y-4450000D03*
X15750000Y-4450000D03*
X16250000Y-4450000D03*
X16750000Y-4450000D03*
X17250000Y-4450000D03*
X17750000Y-4450000D03*
X18250000Y-4450000D03*
X18750000Y-4450000D03*
X19250000Y-4450000D03*
X19750000Y-4450000D03*
X20250000Y-4450000D03*
X20750000Y-4450000D03*
X21250000Y-4450000D03*
X21750000Y-4450000D03*
D31*
X22450000Y-3750000D03*
X22450000Y-3250000D03*
X22450000Y-2750000D03*
X22450000Y-2250000D03*
X22450000Y-1750000D03*
X22450000Y-1250000D03*
X22450000Y-750000D03*
X22450000Y-250000D03*
X22450000Y250000D03*
X22450000Y750000D03*
X22450000Y1250000D03*
X22450000Y1750000D03*
X22450000Y2250000D03*
X22450000Y2750000D03*
X22450000Y3250000D03*
X22450000Y3750000D03*
D32*
X21750000Y4450000D03*
X21250000Y4450000D03*
X20750000Y4450000D03*
X20250000Y4450000D03*
X19750000Y4450000D03*
X19250000Y4450000D03*
X18750000Y4450000D03*
X18250000Y4450000D03*
X17750000Y4450000D03*
X17250000Y4450000D03*
X16750000Y4450000D03*
X16250000Y4450000D03*
X15750000Y4450000D03*
X15250000Y4450000D03*
X14750000Y4450000D03*
X14250000Y4450000D03*
D33*
X18000000Y0D03*
D11*
X30510000Y4000000D03*
X29490000Y4000000D03*
D29*
X55860000Y-5250000D03*
X54900000Y-5250000D03*
D11*
X36510000Y-7000000D03*
X35490000Y-7000000D03*
D34*
X10075000Y-1900000D03*
X10075000Y-3450000D03*
D21*
X48750000Y5980000D03*
X48750000Y5020000D03*
D12*
X40485000Y-3000000D03*
X39515000Y-3000000D03*
D16*
X33600000Y-5900000D03*
X34400000Y-5900000D03*
D17*
X34000000Y-5100000D03*
D24*
X11400000Y4720000D03*
X11400000Y5680000D03*
D16*
X26400000Y5900000D03*
X25600000Y5900000D03*
D17*
X26000000Y5100000D03*
D11*
X30510000Y-4000000D03*
X29490000Y-4000000D03*
D12*
X17185000Y7200000D03*
X16215000Y7200000D03*
D11*
X34510000Y4000000D03*
X33490000Y4000000D03*
D35*
X10100000Y4725000D03*
X10100000Y6275000D03*
D36*
X40750000Y1050000D03*
X40750000Y-1050000D03*
D11*
X34510000Y7000000D03*
X33490000Y7000000D03*
X32510000Y-4000000D03*
X31490000Y-4000000D03*
D24*
X39100000Y-480000D03*
X39100000Y480000D03*
D11*
X34510000Y-7000000D03*
X33490000Y-7000000D03*
D21*
X11350000Y-1770000D03*
X11350000Y-2730000D03*
D24*
X45750000Y-5960000D03*
X45750000Y-5000000D03*
D11*
X50702400Y7366000D03*
X49682400Y7366000D03*
D16*
X25600000Y-5900000D03*
X26400000Y-5900000D03*
D17*
X26000000Y-5100000D03*
D16*
X38400000Y5900000D03*
X37600000Y5900000D03*
D17*
X38000000Y5100000D03*
D37*
X17600000Y-7270000D03*
X17600000Y-6250000D03*
D12*
X28485000Y3000000D03*
X27515000Y3000000D03*
D16*
X37600000Y-5900000D03*
X38400000Y-5900000D03*
D17*
X38000000Y-5100000D03*
D12*
X26485000Y3000000D03*
X25515000Y3000000D03*
D22*
X22325000Y6100000D03*
X23875000Y6100000D03*
D12*
X38485000Y3000000D03*
X37515000Y3000000D03*
X36485000Y3000000D03*
X35515000Y3000000D03*
D11*
X38510000Y4000000D03*
X37490000Y4000000D03*
D34*
X42600000Y-5100000D03*
X42600000Y-6650000D03*
D16*
X27600000Y-5900000D03*
X28400000Y-5900000D03*
D17*
X28000000Y-5100000D03*
D38*
X2563000Y8900000D03*
X3533000Y8900000D03*
D11*
X36510000Y4000000D03*
X35490000Y4000000D03*
M02*
