G04 #@! TF.GenerationSoftware,KiCad,Pcbnew,7.0.7*
G04 #@! TF.CreationDate,2023-08-30T11:11:12+01:00*
G04 #@! TF.ProjectId,NB3_hindbrain,4e42335f-6869-46e6-9462-7261696e2e6b,0.0.1*
G04 #@! TF.SameCoordinates,PX4af0920PY4c4db10*
G04 #@! TF.FileFunction,Legend,Top*
G04 #@! TF.FilePolarity,Positive*
%FSLAX46Y46*%
G04 Gerber Fmt 4.6, Leading zero omitted, Abs format (unit mm)*
G04 Created by KiCad (PCBNEW 7.0.7) date 2023-08-30 11:11:12*
%MOMM*%
%LPD*%
G01*
G04 APERTURE LIST*
%ADD10C,0.150000*%
%ADD11C,0.120000*%
%ADD12C,0.100000*%
%ADD13C,0.050000*%
%ADD14C,0.200000*%
%ADD15C,0.127000*%
%ADD16C,0.250000*%
%ADD17C,0.010000*%
G04 APERTURE END LIST*
D10*
X45114286Y-10767609D02*
X45190476Y-10805704D01*
X45190476Y-10805704D02*
X45304762Y-10805704D01*
X45304762Y-10805704D02*
X45419048Y-10767609D01*
X45419048Y-10767609D02*
X45495238Y-10691419D01*
X45495238Y-10691419D02*
X45533333Y-10615228D01*
X45533333Y-10615228D02*
X45571429Y-10462847D01*
X45571429Y-10462847D02*
X45571429Y-10348561D01*
X45571429Y-10348561D02*
X45533333Y-10196180D01*
X45533333Y-10196180D02*
X45495238Y-10119990D01*
X45495238Y-10119990D02*
X45419048Y-10043800D01*
X45419048Y-10043800D02*
X45304762Y-10005704D01*
X45304762Y-10005704D02*
X45228571Y-10005704D01*
X45228571Y-10005704D02*
X45114286Y-10043800D01*
X45114286Y-10043800D02*
X45076190Y-10081895D01*
X45076190Y-10081895D02*
X45076190Y-10348561D01*
X45076190Y-10348561D02*
X45228571Y-10348561D01*
X44733333Y-10539038D02*
X44733333Y-10005704D01*
X44733333Y-10462847D02*
X44695238Y-10500942D01*
X44695238Y-10500942D02*
X44619048Y-10539038D01*
X44619048Y-10539038D02*
X44504762Y-10539038D01*
X44504762Y-10539038D02*
X44428571Y-10500942D01*
X44428571Y-10500942D02*
X44390476Y-10424752D01*
X44390476Y-10424752D02*
X44390476Y-10005704D01*
X43666666Y-10005704D02*
X43666666Y-10805704D01*
X43666666Y-10043800D02*
X43742857Y-10005704D01*
X43742857Y-10005704D02*
X43895238Y-10005704D01*
X43895238Y-10005704D02*
X43971428Y-10043800D01*
X43971428Y-10043800D02*
X44009523Y-10081895D01*
X44009523Y-10081895D02*
X44047619Y-10158085D01*
X44047619Y-10158085D02*
X44047619Y-10386657D01*
X44047619Y-10386657D02*
X44009523Y-10462847D01*
X44009523Y-10462847D02*
X43971428Y-10500942D01*
X43971428Y-10500942D02*
X43895238Y-10539038D01*
X43895238Y-10539038D02*
X43742857Y-10539038D01*
X43742857Y-10539038D02*
X43666666Y-10500942D01*
X39653332Y-10011704D02*
X39919999Y-10392657D01*
X40110475Y-10011704D02*
X40110475Y-10811704D01*
X40110475Y-10811704D02*
X39805713Y-10811704D01*
X39805713Y-10811704D02*
X39729523Y-10773609D01*
X39729523Y-10773609D02*
X39691428Y-10735514D01*
X39691428Y-10735514D02*
X39653332Y-10659323D01*
X39653332Y-10659323D02*
X39653332Y-10545038D01*
X39653332Y-10545038D02*
X39691428Y-10468847D01*
X39691428Y-10468847D02*
X39729523Y-10430752D01*
X39729523Y-10430752D02*
X39805713Y-10392657D01*
X39805713Y-10392657D02*
X40110475Y-10392657D01*
X39158094Y-10811704D02*
X39081904Y-10811704D01*
X39081904Y-10811704D02*
X39005713Y-10773609D01*
X39005713Y-10773609D02*
X38967618Y-10735514D01*
X38967618Y-10735514D02*
X38929523Y-10659323D01*
X38929523Y-10659323D02*
X38891428Y-10506942D01*
X38891428Y-10506942D02*
X38891428Y-10316466D01*
X38891428Y-10316466D02*
X38929523Y-10164085D01*
X38929523Y-10164085D02*
X38967618Y-10087895D01*
X38967618Y-10087895D02*
X39005713Y-10049800D01*
X39005713Y-10049800D02*
X39081904Y-10011704D01*
X39081904Y-10011704D02*
X39158094Y-10011704D01*
X39158094Y-10011704D02*
X39234285Y-10049800D01*
X39234285Y-10049800D02*
X39272380Y-10087895D01*
X39272380Y-10087895D02*
X39310475Y-10164085D01*
X39310475Y-10164085D02*
X39348571Y-10316466D01*
X39348571Y-10316466D02*
X39348571Y-10506942D01*
X39348571Y-10506942D02*
X39310475Y-10659323D01*
X39310475Y-10659323D02*
X39272380Y-10735514D01*
X39272380Y-10735514D02*
X39234285Y-10773609D01*
X39234285Y-10773609D02*
X39158094Y-10811704D01*
X41907619Y10011705D02*
X41526667Y10011705D01*
X41526667Y10011705D02*
X41526667Y10811705D01*
X42593333Y10773610D02*
X42517143Y10811705D01*
X42517143Y10811705D02*
X42402857Y10811705D01*
X42402857Y10811705D02*
X42288571Y10773610D01*
X42288571Y10773610D02*
X42212381Y10697420D01*
X42212381Y10697420D02*
X42174286Y10621229D01*
X42174286Y10621229D02*
X42136190Y10468848D01*
X42136190Y10468848D02*
X42136190Y10354562D01*
X42136190Y10354562D02*
X42174286Y10202181D01*
X42174286Y10202181D02*
X42212381Y10125991D01*
X42212381Y10125991D02*
X42288571Y10049800D01*
X42288571Y10049800D02*
X42402857Y10011705D01*
X42402857Y10011705D02*
X42479048Y10011705D01*
X42479048Y10011705D02*
X42593333Y10049800D01*
X42593333Y10049800D02*
X42631429Y10087896D01*
X42631429Y10087896D02*
X42631429Y10354562D01*
X42631429Y10354562D02*
X42479048Y10354562D01*
X36846666Y10011705D02*
X36465714Y10011705D01*
X36465714Y10011705D02*
X36465714Y10811705D01*
X37532380Y10011705D02*
X37075237Y10011705D01*
X37303809Y10011705D02*
X37303809Y10811705D01*
X37303809Y10811705D02*
X37227618Y10697420D01*
X37227618Y10697420D02*
X37151428Y10621229D01*
X37151428Y10621229D02*
X37075237Y10583134D01*
X34306666Y10011705D02*
X33925714Y10011705D01*
X33925714Y10011705D02*
X33925714Y10811705D01*
X34535237Y10735515D02*
X34573333Y10773610D01*
X34573333Y10773610D02*
X34649523Y10811705D01*
X34649523Y10811705D02*
X34839999Y10811705D01*
X34839999Y10811705D02*
X34916190Y10773610D01*
X34916190Y10773610D02*
X34954285Y10735515D01*
X34954285Y10735515D02*
X34992380Y10659324D01*
X34992380Y10659324D02*
X34992380Y10583134D01*
X34992380Y10583134D02*
X34954285Y10468848D01*
X34954285Y10468848D02*
X34497142Y10011705D01*
X34497142Y10011705D02*
X34992380Y10011705D01*
X44085713Y10773610D02*
X44009523Y10811705D01*
X44009523Y10811705D02*
X43895237Y10811705D01*
X43895237Y10811705D02*
X43780951Y10773610D01*
X43780951Y10773610D02*
X43704761Y10697420D01*
X43704761Y10697420D02*
X43666666Y10621229D01*
X43666666Y10621229D02*
X43628570Y10468848D01*
X43628570Y10468848D02*
X43628570Y10354562D01*
X43628570Y10354562D02*
X43666666Y10202181D01*
X43666666Y10202181D02*
X43704761Y10125991D01*
X43704761Y10125991D02*
X43780951Y10049800D01*
X43780951Y10049800D02*
X43895237Y10011705D01*
X43895237Y10011705D02*
X43971428Y10011705D01*
X43971428Y10011705D02*
X44085713Y10049800D01*
X44085713Y10049800D02*
X44123809Y10087896D01*
X44123809Y10087896D02*
X44123809Y10354562D01*
X44123809Y10354562D02*
X43971428Y10354562D01*
X44466666Y10545039D02*
X44466666Y10011705D01*
X44466666Y10468848D02*
X44504761Y10506943D01*
X44504761Y10506943D02*
X44580951Y10545039D01*
X44580951Y10545039D02*
X44695237Y10545039D01*
X44695237Y10545039D02*
X44771428Y10506943D01*
X44771428Y10506943D02*
X44809523Y10430753D01*
X44809523Y10430753D02*
X44809523Y10011705D01*
X45533333Y10011705D02*
X45533333Y10811705D01*
X45533333Y10049800D02*
X45457142Y10011705D01*
X45457142Y10011705D02*
X45304761Y10011705D01*
X45304761Y10011705D02*
X45228571Y10049800D01*
X45228571Y10049800D02*
X45190476Y10087896D01*
X45190476Y10087896D02*
X45152380Y10164086D01*
X45152380Y10164086D02*
X45152380Y10392658D01*
X45152380Y10392658D02*
X45190476Y10468848D01*
X45190476Y10468848D02*
X45228571Y10506943D01*
X45228571Y10506943D02*
X45304761Y10545039D01*
X45304761Y10545039D02*
X45457142Y10545039D01*
X45457142Y10545039D02*
X45533333Y10506943D01*
X24146666Y10011705D02*
X23765714Y10011705D01*
X23765714Y10011705D02*
X23765714Y10811705D01*
X24756190Y10811705D02*
X24603809Y10811705D01*
X24603809Y10811705D02*
X24527618Y10773610D01*
X24527618Y10773610D02*
X24489523Y10735515D01*
X24489523Y10735515D02*
X24413333Y10621229D01*
X24413333Y10621229D02*
X24375237Y10468848D01*
X24375237Y10468848D02*
X24375237Y10164086D01*
X24375237Y10164086D02*
X24413333Y10087896D01*
X24413333Y10087896D02*
X24451428Y10049800D01*
X24451428Y10049800D02*
X24527618Y10011705D01*
X24527618Y10011705D02*
X24679999Y10011705D01*
X24679999Y10011705D02*
X24756190Y10049800D01*
X24756190Y10049800D02*
X24794285Y10087896D01*
X24794285Y10087896D02*
X24832380Y10164086D01*
X24832380Y10164086D02*
X24832380Y10354562D01*
X24832380Y10354562D02*
X24794285Y10430753D01*
X24794285Y10430753D02*
X24756190Y10468848D01*
X24756190Y10468848D02*
X24679999Y10506943D01*
X24679999Y10506943D02*
X24527618Y10506943D01*
X24527618Y10506943D02*
X24451428Y10468848D01*
X24451428Y10468848D02*
X24413333Y10430753D01*
X24413333Y10430753D02*
X24375237Y10354562D01*
X9554286Y-10773609D02*
X9630476Y-10811704D01*
X9630476Y-10811704D02*
X9744762Y-10811704D01*
X9744762Y-10811704D02*
X9859048Y-10773609D01*
X9859048Y-10773609D02*
X9935238Y-10697419D01*
X9935238Y-10697419D02*
X9973333Y-10621228D01*
X9973333Y-10621228D02*
X10011429Y-10468847D01*
X10011429Y-10468847D02*
X10011429Y-10354561D01*
X10011429Y-10354561D02*
X9973333Y-10202180D01*
X9973333Y-10202180D02*
X9935238Y-10125990D01*
X9935238Y-10125990D02*
X9859048Y-10049800D01*
X9859048Y-10049800D02*
X9744762Y-10011704D01*
X9744762Y-10011704D02*
X9668571Y-10011704D01*
X9668571Y-10011704D02*
X9554286Y-10049800D01*
X9554286Y-10049800D02*
X9516190Y-10087895D01*
X9516190Y-10087895D02*
X9516190Y-10354561D01*
X9516190Y-10354561D02*
X9668571Y-10354561D01*
X9173333Y-10545038D02*
X9173333Y-10011704D01*
X9173333Y-10468847D02*
X9135238Y-10506942D01*
X9135238Y-10506942D02*
X9059048Y-10545038D01*
X9059048Y-10545038D02*
X8944762Y-10545038D01*
X8944762Y-10545038D02*
X8868571Y-10506942D01*
X8868571Y-10506942D02*
X8830476Y-10430752D01*
X8830476Y-10430752D02*
X8830476Y-10011704D01*
X8106666Y-10011704D02*
X8106666Y-10811704D01*
X8106666Y-10049800D02*
X8182857Y-10011704D01*
X8182857Y-10011704D02*
X8335238Y-10011704D01*
X8335238Y-10011704D02*
X8411428Y-10049800D01*
X8411428Y-10049800D02*
X8449523Y-10087895D01*
X8449523Y-10087895D02*
X8487619Y-10164085D01*
X8487619Y-10164085D02*
X8487619Y-10392657D01*
X8487619Y-10392657D02*
X8449523Y-10468847D01*
X8449523Y-10468847D02*
X8411428Y-10506942D01*
X8411428Y-10506942D02*
X8335238Y-10545038D01*
X8335238Y-10545038D02*
X8182857Y-10545038D01*
X8182857Y-10545038D02*
X8106666Y-10506942D01*
X47711428Y-10240276D02*
X47330475Y-10240276D01*
X47787618Y-10011704D02*
X47520951Y-10811704D01*
X47520951Y-10811704D02*
X47254285Y-10011704D01*
X47063809Y-10811704D02*
X46568571Y-10811704D01*
X46568571Y-10811704D02*
X46835237Y-10506942D01*
X46835237Y-10506942D02*
X46720952Y-10506942D01*
X46720952Y-10506942D02*
X46644761Y-10468847D01*
X46644761Y-10468847D02*
X46606666Y-10430752D01*
X46606666Y-10430752D02*
X46568571Y-10354561D01*
X46568571Y-10354561D02*
X46568571Y-10164085D01*
X46568571Y-10164085D02*
X46606666Y-10087895D01*
X46606666Y-10087895D02*
X46644761Y-10049800D01*
X46644761Y-10049800D02*
X46720952Y-10011704D01*
X46720952Y-10011704D02*
X46949523Y-10011704D01*
X46949523Y-10011704D02*
X47025714Y-10049800D01*
X47025714Y-10049800D02*
X47063809Y-10087895D01*
X34573332Y-10011704D02*
X34839999Y-10392657D01*
X35030475Y-10011704D02*
X35030475Y-10811704D01*
X35030475Y-10811704D02*
X34725713Y-10811704D01*
X34725713Y-10811704D02*
X34649523Y-10773609D01*
X34649523Y-10773609D02*
X34611428Y-10735514D01*
X34611428Y-10735514D02*
X34573332Y-10659323D01*
X34573332Y-10659323D02*
X34573332Y-10545038D01*
X34573332Y-10545038D02*
X34611428Y-10468847D01*
X34611428Y-10468847D02*
X34649523Y-10430752D01*
X34649523Y-10430752D02*
X34725713Y-10392657D01*
X34725713Y-10392657D02*
X35030475Y-10392657D01*
X34268571Y-10735514D02*
X34230475Y-10773609D01*
X34230475Y-10773609D02*
X34154285Y-10811704D01*
X34154285Y-10811704D02*
X33963809Y-10811704D01*
X33963809Y-10811704D02*
X33887618Y-10773609D01*
X33887618Y-10773609D02*
X33849523Y-10735514D01*
X33849523Y-10735514D02*
X33811428Y-10659323D01*
X33811428Y-10659323D02*
X33811428Y-10583133D01*
X33811428Y-10583133D02*
X33849523Y-10468847D01*
X33849523Y-10468847D02*
X34306666Y-10011704D01*
X34306666Y-10011704D02*
X33811428Y-10011704D01*
X37113332Y-10011704D02*
X37379999Y-10392657D01*
X37570475Y-10011704D02*
X37570475Y-10811704D01*
X37570475Y-10811704D02*
X37265713Y-10811704D01*
X37265713Y-10811704D02*
X37189523Y-10773609D01*
X37189523Y-10773609D02*
X37151428Y-10735514D01*
X37151428Y-10735514D02*
X37113332Y-10659323D01*
X37113332Y-10659323D02*
X37113332Y-10545038D01*
X37113332Y-10545038D02*
X37151428Y-10468847D01*
X37151428Y-10468847D02*
X37189523Y-10430752D01*
X37189523Y-10430752D02*
X37265713Y-10392657D01*
X37265713Y-10392657D02*
X37570475Y-10392657D01*
X36351428Y-10011704D02*
X36808571Y-10011704D01*
X36579999Y-10011704D02*
X36579999Y-10811704D01*
X36579999Y-10811704D02*
X36656190Y-10697419D01*
X36656190Y-10697419D02*
X36732380Y-10621228D01*
X36732380Y-10621228D02*
X36808571Y-10583133D01*
X39386666Y10011705D02*
X39005714Y10011705D01*
X39005714Y10011705D02*
X39005714Y10811705D01*
X39805714Y10811705D02*
X39881904Y10811705D01*
X39881904Y10811705D02*
X39958095Y10773610D01*
X39958095Y10773610D02*
X39996190Y10735515D01*
X39996190Y10735515D02*
X40034285Y10659324D01*
X40034285Y10659324D02*
X40072380Y10506943D01*
X40072380Y10506943D02*
X40072380Y10316467D01*
X40072380Y10316467D02*
X40034285Y10164086D01*
X40034285Y10164086D02*
X39996190Y10087896D01*
X39996190Y10087896D02*
X39958095Y10049800D01*
X39958095Y10049800D02*
X39881904Y10011705D01*
X39881904Y10011705D02*
X39805714Y10011705D01*
X39805714Y10011705D02*
X39729523Y10049800D01*
X39729523Y10049800D02*
X39691428Y10087896D01*
X39691428Y10087896D02*
X39653333Y10164086D01*
X39653333Y10164086D02*
X39615237Y10316467D01*
X39615237Y10316467D02*
X39615237Y10506943D01*
X39615237Y10506943D02*
X39653333Y10659324D01*
X39653333Y10659324D02*
X39691428Y10735515D01*
X39691428Y10735515D02*
X39729523Y10773610D01*
X39729523Y10773610D02*
X39805714Y10811705D01*
X17307619Y-10049800D02*
X17193333Y-10011704D01*
X17193333Y-10011704D02*
X17002857Y-10011704D01*
X17002857Y-10011704D02*
X16926666Y-10049800D01*
X16926666Y-10049800D02*
X16888571Y-10087895D01*
X16888571Y-10087895D02*
X16850476Y-10164085D01*
X16850476Y-10164085D02*
X16850476Y-10240276D01*
X16850476Y-10240276D02*
X16888571Y-10316466D01*
X16888571Y-10316466D02*
X16926666Y-10354561D01*
X16926666Y-10354561D02*
X17002857Y-10392657D01*
X17002857Y-10392657D02*
X17155238Y-10430752D01*
X17155238Y-10430752D02*
X17231428Y-10468847D01*
X17231428Y-10468847D02*
X17269523Y-10506942D01*
X17269523Y-10506942D02*
X17307619Y-10583133D01*
X17307619Y-10583133D02*
X17307619Y-10659323D01*
X17307619Y-10659323D02*
X17269523Y-10735514D01*
X17269523Y-10735514D02*
X17231428Y-10773609D01*
X17231428Y-10773609D02*
X17155238Y-10811704D01*
X17155238Y-10811704D02*
X16964761Y-10811704D01*
X16964761Y-10811704D02*
X16850476Y-10773609D01*
X16355237Y-10811704D02*
X16202856Y-10811704D01*
X16202856Y-10811704D02*
X16126666Y-10773609D01*
X16126666Y-10773609D02*
X16050475Y-10697419D01*
X16050475Y-10697419D02*
X16012380Y-10545038D01*
X16012380Y-10545038D02*
X16012380Y-10278371D01*
X16012380Y-10278371D02*
X16050475Y-10125990D01*
X16050475Y-10125990D02*
X16126666Y-10049800D01*
X16126666Y-10049800D02*
X16202856Y-10011704D01*
X16202856Y-10011704D02*
X16355237Y-10011704D01*
X16355237Y-10011704D02*
X16431428Y-10049800D01*
X16431428Y-10049800D02*
X16507618Y-10125990D01*
X16507618Y-10125990D02*
X16545714Y-10278371D01*
X16545714Y-10278371D02*
X16545714Y-10545038D01*
X16545714Y-10545038D02*
X16507618Y-10697419D01*
X16507618Y-10697419D02*
X16431428Y-10773609D01*
X16431428Y-10773609D02*
X16355237Y-10811704D01*
X46568571Y10240277D02*
X46949524Y10240277D01*
X46492381Y10011705D02*
X46759048Y10811705D01*
X46759048Y10811705D02*
X47025714Y10011705D01*
X47254285Y10735515D02*
X47292381Y10773610D01*
X47292381Y10773610D02*
X47368571Y10811705D01*
X47368571Y10811705D02*
X47559047Y10811705D01*
X47559047Y10811705D02*
X47635238Y10773610D01*
X47635238Y10773610D02*
X47673333Y10735515D01*
X47673333Y10735515D02*
X47711428Y10659324D01*
X47711428Y10659324D02*
X47711428Y10583134D01*
X47711428Y10583134D02*
X47673333Y10468848D01*
X47673333Y10468848D02*
X47216190Y10011705D01*
X47216190Y10011705D02*
X47711428Y10011705D01*
X19333332Y-10087895D02*
X19371428Y-10049800D01*
X19371428Y-10049800D02*
X19485713Y-10011704D01*
X19485713Y-10011704D02*
X19561904Y-10011704D01*
X19561904Y-10011704D02*
X19676190Y-10049800D01*
X19676190Y-10049800D02*
X19752380Y-10125990D01*
X19752380Y-10125990D02*
X19790475Y-10202180D01*
X19790475Y-10202180D02*
X19828571Y-10354561D01*
X19828571Y-10354561D02*
X19828571Y-10468847D01*
X19828571Y-10468847D02*
X19790475Y-10621228D01*
X19790475Y-10621228D02*
X19752380Y-10697419D01*
X19752380Y-10697419D02*
X19676190Y-10773609D01*
X19676190Y-10773609D02*
X19561904Y-10811704D01*
X19561904Y-10811704D02*
X19485713Y-10811704D01*
X19485713Y-10811704D02*
X19371428Y-10773609D01*
X19371428Y-10773609D02*
X19333332Y-10735514D01*
X19028571Y-10049800D02*
X18914285Y-10011704D01*
X18914285Y-10011704D02*
X18723809Y-10011704D01*
X18723809Y-10011704D02*
X18647618Y-10049800D01*
X18647618Y-10049800D02*
X18609523Y-10087895D01*
X18609523Y-10087895D02*
X18571428Y-10164085D01*
X18571428Y-10164085D02*
X18571428Y-10240276D01*
X18571428Y-10240276D02*
X18609523Y-10316466D01*
X18609523Y-10316466D02*
X18647618Y-10354561D01*
X18647618Y-10354561D02*
X18723809Y-10392657D01*
X18723809Y-10392657D02*
X18876190Y-10430752D01*
X18876190Y-10430752D02*
X18952380Y-10468847D01*
X18952380Y-10468847D02*
X18990475Y-10506942D01*
X18990475Y-10506942D02*
X19028571Y-10583133D01*
X19028571Y-10583133D02*
X19028571Y-10659323D01*
X19028571Y-10659323D02*
X18990475Y-10735514D01*
X18990475Y-10735514D02*
X18952380Y-10773609D01*
X18952380Y-10773609D02*
X18876190Y-10811704D01*
X18876190Y-10811704D02*
X18685713Y-10811704D01*
X18685713Y-10811704D02*
X18571428Y-10773609D01*
X26686666Y10011705D02*
X26305714Y10011705D01*
X26305714Y10011705D02*
X26305714Y10811705D01*
X27334285Y10811705D02*
X26953333Y10811705D01*
X26953333Y10811705D02*
X26915237Y10430753D01*
X26915237Y10430753D02*
X26953333Y10468848D01*
X26953333Y10468848D02*
X27029523Y10506943D01*
X27029523Y10506943D02*
X27219999Y10506943D01*
X27219999Y10506943D02*
X27296190Y10468848D01*
X27296190Y10468848D02*
X27334285Y10430753D01*
X27334285Y10430753D02*
X27372380Y10354562D01*
X27372380Y10354562D02*
X27372380Y10164086D01*
X27372380Y10164086D02*
X27334285Y10087896D01*
X27334285Y10087896D02*
X27296190Y10049800D01*
X27296190Y10049800D02*
X27219999Y10011705D01*
X27219999Y10011705D02*
X27029523Y10011705D01*
X27029523Y10011705D02*
X26953333Y10049800D01*
X26953333Y10049800D02*
X26915237Y10087896D01*
X23855704Y4171429D02*
X24655704Y4171429D01*
X24655704Y4171429D02*
X23855704Y3714286D01*
X23855704Y3714286D02*
X24655704Y3714286D01*
X24274752Y3066668D02*
X24236657Y2952382D01*
X24236657Y2952382D02*
X24198561Y2914287D01*
X24198561Y2914287D02*
X24122371Y2876191D01*
X24122371Y2876191D02*
X24008085Y2876191D01*
X24008085Y2876191D02*
X23931895Y2914287D01*
X23931895Y2914287D02*
X23893800Y2952382D01*
X23893800Y2952382D02*
X23855704Y3028572D01*
X23855704Y3028572D02*
X23855704Y3333334D01*
X23855704Y3333334D02*
X24655704Y3333334D01*
X24655704Y3333334D02*
X24655704Y3066668D01*
X24655704Y3066668D02*
X24617609Y2990477D01*
X24617609Y2990477D02*
X24579514Y2952382D01*
X24579514Y2952382D02*
X24503323Y2914287D01*
X24503323Y2914287D02*
X24427133Y2914287D01*
X24427133Y2914287D02*
X24350942Y2952382D01*
X24350942Y2952382D02*
X24312847Y2990477D01*
X24312847Y2990477D02*
X24274752Y3066668D01*
X24274752Y3066668D02*
X24274752Y3333334D01*
X24655704Y2609525D02*
X24655704Y2114287D01*
X24655704Y2114287D02*
X24350942Y2380953D01*
X24350942Y2380953D02*
X24350942Y2266668D01*
X24350942Y2266668D02*
X24312847Y2190477D01*
X24312847Y2190477D02*
X24274752Y2152382D01*
X24274752Y2152382D02*
X24198561Y2114287D01*
X24198561Y2114287D02*
X24008085Y2114287D01*
X24008085Y2114287D02*
X23931895Y2152382D01*
X23931895Y2152382D02*
X23893800Y2190477D01*
X23893800Y2190477D02*
X23855704Y2266668D01*
X23855704Y2266668D02*
X23855704Y2495239D01*
X23855704Y2495239D02*
X23893800Y2571430D01*
X23893800Y2571430D02*
X23931895Y2609525D01*
X23855704Y1161905D02*
X24655704Y1161905D01*
X24274752Y1161905D02*
X24274752Y704762D01*
X23855704Y704762D02*
X24655704Y704762D01*
X23855704Y323810D02*
X24389038Y323810D01*
X24655704Y323810D02*
X24617609Y361906D01*
X24617609Y361906D02*
X24579514Y323810D01*
X24579514Y323810D02*
X24617609Y285715D01*
X24617609Y285715D02*
X24655704Y323810D01*
X24655704Y323810D02*
X24579514Y323810D01*
X24389038Y-57142D02*
X23855704Y-57142D01*
X24312847Y-57142D02*
X24350942Y-95237D01*
X24350942Y-95237D02*
X24389038Y-171427D01*
X24389038Y-171427D02*
X24389038Y-285713D01*
X24389038Y-285713D02*
X24350942Y-361904D01*
X24350942Y-361904D02*
X24274752Y-399999D01*
X24274752Y-399999D02*
X23855704Y-399999D01*
X23855704Y-1123809D02*
X24655704Y-1123809D01*
X23893800Y-1123809D02*
X23855704Y-1047618D01*
X23855704Y-1047618D02*
X23855704Y-895237D01*
X23855704Y-895237D02*
X23893800Y-819047D01*
X23893800Y-819047D02*
X23931895Y-780952D01*
X23931895Y-780952D02*
X24008085Y-742856D01*
X24008085Y-742856D02*
X24236657Y-742856D01*
X24236657Y-742856D02*
X24312847Y-780952D01*
X24312847Y-780952D02*
X24350942Y-819047D01*
X24350942Y-819047D02*
X24389038Y-895237D01*
X24389038Y-895237D02*
X24389038Y-1047618D01*
X24389038Y-1047618D02*
X24350942Y-1123809D01*
X23855704Y-1504762D02*
X24655704Y-1504762D01*
X24350942Y-1504762D02*
X24389038Y-1580952D01*
X24389038Y-1580952D02*
X24389038Y-1733333D01*
X24389038Y-1733333D02*
X24350942Y-1809524D01*
X24350942Y-1809524D02*
X24312847Y-1847619D01*
X24312847Y-1847619D02*
X24236657Y-1885714D01*
X24236657Y-1885714D02*
X24008085Y-1885714D01*
X24008085Y-1885714D02*
X23931895Y-1847619D01*
X23931895Y-1847619D02*
X23893800Y-1809524D01*
X23893800Y-1809524D02*
X23855704Y-1733333D01*
X23855704Y-1733333D02*
X23855704Y-1580952D01*
X23855704Y-1580952D02*
X23893800Y-1504762D01*
X23855704Y-2228572D02*
X24389038Y-2228572D01*
X24236657Y-2228572D02*
X24312847Y-2266667D01*
X24312847Y-2266667D02*
X24350942Y-2304762D01*
X24350942Y-2304762D02*
X24389038Y-2380953D01*
X24389038Y-2380953D02*
X24389038Y-2457143D01*
X23855704Y-3066667D02*
X24274752Y-3066667D01*
X24274752Y-3066667D02*
X24350942Y-3028572D01*
X24350942Y-3028572D02*
X24389038Y-2952381D01*
X24389038Y-2952381D02*
X24389038Y-2800000D01*
X24389038Y-2800000D02*
X24350942Y-2723810D01*
X23893800Y-3066667D02*
X23855704Y-2990476D01*
X23855704Y-2990476D02*
X23855704Y-2800000D01*
X23855704Y-2800000D02*
X23893800Y-2723810D01*
X23893800Y-2723810D02*
X23969990Y-2685714D01*
X23969990Y-2685714D02*
X24046180Y-2685714D01*
X24046180Y-2685714D02*
X24122371Y-2723810D01*
X24122371Y-2723810D02*
X24160466Y-2800000D01*
X24160466Y-2800000D02*
X24160466Y-2990476D01*
X24160466Y-2990476D02*
X24198561Y-3066667D01*
X23855704Y-3447620D02*
X24389038Y-3447620D01*
X24655704Y-3447620D02*
X24617609Y-3409524D01*
X24617609Y-3409524D02*
X24579514Y-3447620D01*
X24579514Y-3447620D02*
X24617609Y-3485715D01*
X24617609Y-3485715D02*
X24655704Y-3447620D01*
X24655704Y-3447620D02*
X24579514Y-3447620D01*
X24389038Y-3828572D02*
X23855704Y-3828572D01*
X24312847Y-3828572D02*
X24350942Y-3866667D01*
X24350942Y-3866667D02*
X24389038Y-3942857D01*
X24389038Y-3942857D02*
X24389038Y-4057143D01*
X24389038Y-4057143D02*
X24350942Y-4133334D01*
X24350942Y-4133334D02*
X24274752Y-4171429D01*
X24274752Y-4171429D02*
X23855704Y-4171429D01*
X13815238Y10011705D02*
X13548571Y10392658D01*
X13358095Y10011705D02*
X13358095Y10811705D01*
X13358095Y10811705D02*
X13662857Y10811705D01*
X13662857Y10811705D02*
X13739047Y10773610D01*
X13739047Y10773610D02*
X13777142Y10735515D01*
X13777142Y10735515D02*
X13815238Y10659324D01*
X13815238Y10659324D02*
X13815238Y10545039D01*
X13815238Y10545039D02*
X13777142Y10468848D01*
X13777142Y10468848D02*
X13739047Y10430753D01*
X13739047Y10430753D02*
X13662857Y10392658D01*
X13662857Y10392658D02*
X13358095Y10392658D01*
X14119999Y10049800D02*
X14196190Y10011705D01*
X14196190Y10011705D02*
X14348571Y10011705D01*
X14348571Y10011705D02*
X14424761Y10049800D01*
X14424761Y10049800D02*
X14462857Y10125991D01*
X14462857Y10125991D02*
X14462857Y10164086D01*
X14462857Y10164086D02*
X14424761Y10240277D01*
X14424761Y10240277D02*
X14348571Y10278372D01*
X14348571Y10278372D02*
X14234285Y10278372D01*
X14234285Y10278372D02*
X14158095Y10316467D01*
X14158095Y10316467D02*
X14119999Y10392658D01*
X14119999Y10392658D02*
X14119999Y10430753D01*
X14119999Y10430753D02*
X14158095Y10506943D01*
X14158095Y10506943D02*
X14234285Y10545039D01*
X14234285Y10545039D02*
X14348571Y10545039D01*
X14348571Y10545039D02*
X14424761Y10506943D01*
X14691428Y10545039D02*
X14996190Y10545039D01*
X14805714Y10811705D02*
X14805714Y10125991D01*
X14805714Y10125991D02*
X14843809Y10049800D01*
X14843809Y10049800D02*
X14919999Y10011705D01*
X14919999Y10011705D02*
X14996190Y10011705D01*
X29226666Y10011705D02*
X28845714Y10011705D01*
X28845714Y10011705D02*
X28845714Y10811705D01*
X29836190Y10545039D02*
X29836190Y10011705D01*
X29645714Y10849800D02*
X29455237Y10278372D01*
X29455237Y10278372D02*
X29950476Y10278372D01*
X11027619Y10011705D02*
X11027619Y10811705D01*
X11027619Y10430753D02*
X11484762Y10430753D01*
X11484762Y10011705D02*
X11484762Y10811705D01*
X11789523Y10545039D02*
X12208571Y10545039D01*
X12208571Y10545039D02*
X11789523Y10011705D01*
X11789523Y10011705D02*
X12208571Y10011705D01*
X42212380Y-10011704D02*
X42479047Y-10392657D01*
X42669523Y-10011704D02*
X42669523Y-10811704D01*
X42669523Y-10811704D02*
X42364761Y-10811704D01*
X42364761Y-10811704D02*
X42288571Y-10773609D01*
X42288571Y-10773609D02*
X42250476Y-10735514D01*
X42250476Y-10735514D02*
X42212380Y-10659323D01*
X42212380Y-10659323D02*
X42212380Y-10545038D01*
X42212380Y-10545038D02*
X42250476Y-10468847D01*
X42250476Y-10468847D02*
X42288571Y-10430752D01*
X42288571Y-10430752D02*
X42364761Y-10392657D01*
X42364761Y-10392657D02*
X42669523Y-10392657D01*
X41450476Y-10773609D02*
X41526666Y-10811704D01*
X41526666Y-10811704D02*
X41640952Y-10811704D01*
X41640952Y-10811704D02*
X41755238Y-10773609D01*
X41755238Y-10773609D02*
X41831428Y-10697419D01*
X41831428Y-10697419D02*
X41869523Y-10621228D01*
X41869523Y-10621228D02*
X41907619Y-10468847D01*
X41907619Y-10468847D02*
X41907619Y-10354561D01*
X41907619Y-10354561D02*
X41869523Y-10202180D01*
X41869523Y-10202180D02*
X41831428Y-10125990D01*
X41831428Y-10125990D02*
X41755238Y-10049800D01*
X41755238Y-10049800D02*
X41640952Y-10011704D01*
X41640952Y-10011704D02*
X41564761Y-10011704D01*
X41564761Y-10011704D02*
X41450476Y-10049800D01*
X41450476Y-10049800D02*
X41412380Y-10087895D01*
X41412380Y-10087895D02*
X41412380Y-10354561D01*
X41412380Y-10354561D02*
X41564761Y-10354561D01*
X14539047Y-10049800D02*
X14424761Y-10011704D01*
X14424761Y-10011704D02*
X14234285Y-10011704D01*
X14234285Y-10011704D02*
X14158094Y-10049800D01*
X14158094Y-10049800D02*
X14119999Y-10087895D01*
X14119999Y-10087895D02*
X14081904Y-10164085D01*
X14081904Y-10164085D02*
X14081904Y-10240276D01*
X14081904Y-10240276D02*
X14119999Y-10316466D01*
X14119999Y-10316466D02*
X14158094Y-10354561D01*
X14158094Y-10354561D02*
X14234285Y-10392657D01*
X14234285Y-10392657D02*
X14386666Y-10430752D01*
X14386666Y-10430752D02*
X14462856Y-10468847D01*
X14462856Y-10468847D02*
X14500951Y-10506942D01*
X14500951Y-10506942D02*
X14539047Y-10583133D01*
X14539047Y-10583133D02*
X14539047Y-10659323D01*
X14539047Y-10659323D02*
X14500951Y-10735514D01*
X14500951Y-10735514D02*
X14462856Y-10773609D01*
X14462856Y-10773609D02*
X14386666Y-10811704D01*
X14386666Y-10811704D02*
X14196189Y-10811704D01*
X14196189Y-10811704D02*
X14081904Y-10773609D01*
X13739046Y-10011704D02*
X13739046Y-10811704D01*
X24413332Y-10011704D02*
X24679999Y-10392657D01*
X24870475Y-10011704D02*
X24870475Y-10811704D01*
X24870475Y-10811704D02*
X24565713Y-10811704D01*
X24565713Y-10811704D02*
X24489523Y-10773609D01*
X24489523Y-10773609D02*
X24451428Y-10735514D01*
X24451428Y-10735514D02*
X24413332Y-10659323D01*
X24413332Y-10659323D02*
X24413332Y-10545038D01*
X24413332Y-10545038D02*
X24451428Y-10468847D01*
X24451428Y-10468847D02*
X24489523Y-10430752D01*
X24489523Y-10430752D02*
X24565713Y-10392657D01*
X24565713Y-10392657D02*
X24870475Y-10392657D01*
X23727618Y-10811704D02*
X23879999Y-10811704D01*
X23879999Y-10811704D02*
X23956190Y-10773609D01*
X23956190Y-10773609D02*
X23994285Y-10735514D01*
X23994285Y-10735514D02*
X24070475Y-10621228D01*
X24070475Y-10621228D02*
X24108571Y-10468847D01*
X24108571Y-10468847D02*
X24108571Y-10164085D01*
X24108571Y-10164085D02*
X24070475Y-10087895D01*
X24070475Y-10087895D02*
X24032380Y-10049800D01*
X24032380Y-10049800D02*
X23956190Y-10011704D01*
X23956190Y-10011704D02*
X23803809Y-10011704D01*
X23803809Y-10011704D02*
X23727618Y-10049800D01*
X23727618Y-10049800D02*
X23689523Y-10087895D01*
X23689523Y-10087895D02*
X23651428Y-10164085D01*
X23651428Y-10164085D02*
X23651428Y-10354561D01*
X23651428Y-10354561D02*
X23689523Y-10430752D01*
X23689523Y-10430752D02*
X23727618Y-10468847D01*
X23727618Y-10468847D02*
X23803809Y-10506942D01*
X23803809Y-10506942D02*
X23956190Y-10506942D01*
X23956190Y-10506942D02*
X24032380Y-10468847D01*
X24032380Y-10468847D02*
X24070475Y-10430752D01*
X24070475Y-10430752D02*
X24108571Y-10354561D01*
X8525713Y10773610D02*
X8449523Y10811705D01*
X8449523Y10811705D02*
X8335237Y10811705D01*
X8335237Y10811705D02*
X8220951Y10773610D01*
X8220951Y10773610D02*
X8144761Y10697420D01*
X8144761Y10697420D02*
X8106666Y10621229D01*
X8106666Y10621229D02*
X8068570Y10468848D01*
X8068570Y10468848D02*
X8068570Y10354562D01*
X8068570Y10354562D02*
X8106666Y10202181D01*
X8106666Y10202181D02*
X8144761Y10125991D01*
X8144761Y10125991D02*
X8220951Y10049800D01*
X8220951Y10049800D02*
X8335237Y10011705D01*
X8335237Y10011705D02*
X8411428Y10011705D01*
X8411428Y10011705D02*
X8525713Y10049800D01*
X8525713Y10049800D02*
X8563809Y10087896D01*
X8563809Y10087896D02*
X8563809Y10354562D01*
X8563809Y10354562D02*
X8411428Y10354562D01*
X8906666Y10545039D02*
X8906666Y10011705D01*
X8906666Y10468848D02*
X8944761Y10506943D01*
X8944761Y10506943D02*
X9020951Y10545039D01*
X9020951Y10545039D02*
X9135237Y10545039D01*
X9135237Y10545039D02*
X9211428Y10506943D01*
X9211428Y10506943D02*
X9249523Y10430753D01*
X9249523Y10430753D02*
X9249523Y10011705D01*
X9973333Y10011705D02*
X9973333Y10811705D01*
X9973333Y10049800D02*
X9897142Y10011705D01*
X9897142Y10011705D02*
X9744761Y10011705D01*
X9744761Y10011705D02*
X9668571Y10049800D01*
X9668571Y10049800D02*
X9630476Y10087896D01*
X9630476Y10087896D02*
X9592380Y10164086D01*
X9592380Y10164086D02*
X9592380Y10392658D01*
X9592380Y10392658D02*
X9630476Y10468848D01*
X9630476Y10468848D02*
X9668571Y10506943D01*
X9668571Y10506943D02*
X9744761Y10545039D01*
X9744761Y10545039D02*
X9897142Y10545039D01*
X9897142Y10545039D02*
X9973333Y10506943D01*
X19123810Y10011705D02*
X18857143Y10392658D01*
X18666667Y10011705D02*
X18666667Y10811705D01*
X18666667Y10811705D02*
X18971429Y10811705D01*
X18971429Y10811705D02*
X19047619Y10773610D01*
X19047619Y10773610D02*
X19085714Y10735515D01*
X19085714Y10735515D02*
X19123810Y10659324D01*
X19123810Y10659324D02*
X19123810Y10545039D01*
X19123810Y10545039D02*
X19085714Y10468848D01*
X19085714Y10468848D02*
X19047619Y10430753D01*
X19047619Y10430753D02*
X18971429Y10392658D01*
X18971429Y10392658D02*
X18666667Y10392658D01*
X19390476Y10011705D02*
X19809524Y10545039D01*
X19390476Y10545039D02*
X19809524Y10011705D01*
X26953332Y-10011704D02*
X27219999Y-10392657D01*
X27410475Y-10011704D02*
X27410475Y-10811704D01*
X27410475Y-10811704D02*
X27105713Y-10811704D01*
X27105713Y-10811704D02*
X27029523Y-10773609D01*
X27029523Y-10773609D02*
X26991428Y-10735514D01*
X26991428Y-10735514D02*
X26953332Y-10659323D01*
X26953332Y-10659323D02*
X26953332Y-10545038D01*
X26953332Y-10545038D02*
X26991428Y-10468847D01*
X26991428Y-10468847D02*
X27029523Y-10430752D01*
X27029523Y-10430752D02*
X27105713Y-10392657D01*
X27105713Y-10392657D02*
X27410475Y-10392657D01*
X26229523Y-10811704D02*
X26610475Y-10811704D01*
X26610475Y-10811704D02*
X26648571Y-10430752D01*
X26648571Y-10430752D02*
X26610475Y-10468847D01*
X26610475Y-10468847D02*
X26534285Y-10506942D01*
X26534285Y-10506942D02*
X26343809Y-10506942D01*
X26343809Y-10506942D02*
X26267618Y-10468847D01*
X26267618Y-10468847D02*
X26229523Y-10430752D01*
X26229523Y-10430752D02*
X26191428Y-10354561D01*
X26191428Y-10354561D02*
X26191428Y-10164085D01*
X26191428Y-10164085D02*
X26229523Y-10087895D01*
X26229523Y-10087895D02*
X26267618Y-10049800D01*
X26267618Y-10049800D02*
X26343809Y-10011704D01*
X26343809Y-10011704D02*
X26534285Y-10011704D01*
X26534285Y-10011704D02*
X26610475Y-10049800D01*
X26610475Y-10049800D02*
X26648571Y-10087895D01*
X50251428Y-10240276D02*
X49870475Y-10240276D01*
X50327618Y-10011704D02*
X50060951Y-10811704D01*
X50060951Y-10811704D02*
X49794285Y-10011704D01*
X49108571Y-10011704D02*
X49565714Y-10011704D01*
X49337142Y-10011704D02*
X49337142Y-10811704D01*
X49337142Y-10811704D02*
X49413333Y-10697419D01*
X49413333Y-10697419D02*
X49489523Y-10621228D01*
X49489523Y-10621228D02*
X49565714Y-10583133D01*
X53807618Y10811705D02*
X54302856Y10811705D01*
X54302856Y10811705D02*
X54036190Y10506943D01*
X54036190Y10506943D02*
X54150475Y10506943D01*
X54150475Y10506943D02*
X54226666Y10468848D01*
X54226666Y10468848D02*
X54264761Y10430753D01*
X54264761Y10430753D02*
X54302856Y10354562D01*
X54302856Y10354562D02*
X54302856Y10164086D01*
X54302856Y10164086D02*
X54264761Y10087896D01*
X54264761Y10087896D02*
X54226666Y10049800D01*
X54226666Y10049800D02*
X54150475Y10011705D01*
X54150475Y10011705D02*
X53921904Y10011705D01*
X53921904Y10011705D02*
X53845713Y10049800D01*
X53845713Y10049800D02*
X53807618Y10087896D01*
X54569523Y10545039D02*
X54759999Y10011705D01*
X54759999Y10011705D02*
X54950476Y10545039D01*
X55179047Y10811705D02*
X55674285Y10811705D01*
X55674285Y10811705D02*
X55407619Y10506943D01*
X55407619Y10506943D02*
X55521904Y10506943D01*
X55521904Y10506943D02*
X55598095Y10468848D01*
X55598095Y10468848D02*
X55636190Y10430753D01*
X55636190Y10430753D02*
X55674285Y10354562D01*
X55674285Y10354562D02*
X55674285Y10164086D01*
X55674285Y10164086D02*
X55636190Y10087896D01*
X55636190Y10087896D02*
X55598095Y10049800D01*
X55598095Y10049800D02*
X55521904Y10011705D01*
X55521904Y10011705D02*
X55293333Y10011705D01*
X55293333Y10011705D02*
X55217142Y10049800D01*
X55217142Y10049800D02*
X55179047Y10087896D01*
X52810475Y-10011704D02*
X52810475Y-10811704D01*
X52810475Y-10811704D02*
X52619999Y-10811704D01*
X52619999Y-10811704D02*
X52505713Y-10773609D01*
X52505713Y-10773609D02*
X52429523Y-10697419D01*
X52429523Y-10697419D02*
X52391428Y-10621228D01*
X52391428Y-10621228D02*
X52353332Y-10468847D01*
X52353332Y-10468847D02*
X52353332Y-10354561D01*
X52353332Y-10354561D02*
X52391428Y-10202180D01*
X52391428Y-10202180D02*
X52429523Y-10125990D01*
X52429523Y-10125990D02*
X52505713Y-10049800D01*
X52505713Y-10049800D02*
X52619999Y-10011704D01*
X52619999Y-10011704D02*
X52810475Y-10011704D01*
X51591428Y-10011704D02*
X52048571Y-10011704D01*
X51819999Y-10011704D02*
X51819999Y-10811704D01*
X51819999Y-10811704D02*
X51896190Y-10697419D01*
X51896190Y-10697419D02*
X51972380Y-10621228D01*
X51972380Y-10621228D02*
X52048571Y-10583133D01*
X11732380Y-10087895D02*
X11770476Y-10049800D01*
X11770476Y-10049800D02*
X11884761Y-10011704D01*
X11884761Y-10011704D02*
X11960952Y-10011704D01*
X11960952Y-10011704D02*
X12075238Y-10049800D01*
X12075238Y-10049800D02*
X12151428Y-10125990D01*
X12151428Y-10125990D02*
X12189523Y-10202180D01*
X12189523Y-10202180D02*
X12227619Y-10354561D01*
X12227619Y-10354561D02*
X12227619Y-10468847D01*
X12227619Y-10468847D02*
X12189523Y-10621228D01*
X12189523Y-10621228D02*
X12151428Y-10697419D01*
X12151428Y-10697419D02*
X12075238Y-10773609D01*
X12075238Y-10773609D02*
X11960952Y-10811704D01*
X11960952Y-10811704D02*
X11884761Y-10811704D01*
X11884761Y-10811704D02*
X11770476Y-10773609D01*
X11770476Y-10773609D02*
X11732380Y-10735514D01*
X11389523Y-10011704D02*
X11389523Y-10811704D01*
X10932380Y-10011704D02*
X11275238Y-10468847D01*
X10932380Y-10811704D02*
X11389523Y-10354561D01*
X6652380Y-10811704D02*
X7033332Y-10811704D01*
X7033332Y-10811704D02*
X7071428Y-10430752D01*
X7071428Y-10430752D02*
X7033332Y-10468847D01*
X7033332Y-10468847D02*
X6957142Y-10506942D01*
X6957142Y-10506942D02*
X6766666Y-10506942D01*
X6766666Y-10506942D02*
X6690475Y-10468847D01*
X6690475Y-10468847D02*
X6652380Y-10430752D01*
X6652380Y-10430752D02*
X6614285Y-10354561D01*
X6614285Y-10354561D02*
X6614285Y-10164085D01*
X6614285Y-10164085D02*
X6652380Y-10087895D01*
X6652380Y-10087895D02*
X6690475Y-10049800D01*
X6690475Y-10049800D02*
X6766666Y-10011704D01*
X6766666Y-10011704D02*
X6957142Y-10011704D01*
X6957142Y-10011704D02*
X7033332Y-10049800D01*
X7033332Y-10049800D02*
X7071428Y-10087895D01*
X6385713Y-10811704D02*
X6119046Y-10011704D01*
X6119046Y-10011704D02*
X5852380Y-10811704D01*
X29493332Y-10011704D02*
X29759999Y-10392657D01*
X29950475Y-10011704D02*
X29950475Y-10811704D01*
X29950475Y-10811704D02*
X29645713Y-10811704D01*
X29645713Y-10811704D02*
X29569523Y-10773609D01*
X29569523Y-10773609D02*
X29531428Y-10735514D01*
X29531428Y-10735514D02*
X29493332Y-10659323D01*
X29493332Y-10659323D02*
X29493332Y-10545038D01*
X29493332Y-10545038D02*
X29531428Y-10468847D01*
X29531428Y-10468847D02*
X29569523Y-10430752D01*
X29569523Y-10430752D02*
X29645713Y-10392657D01*
X29645713Y-10392657D02*
X29950475Y-10392657D01*
X28807618Y-10545038D02*
X28807618Y-10011704D01*
X28998094Y-10849800D02*
X29188571Y-10278371D01*
X29188571Y-10278371D02*
X28693332Y-10278371D01*
X49108571Y10240277D02*
X49489524Y10240277D01*
X49032381Y10011705D02*
X49299048Y10811705D01*
X49299048Y10811705D02*
X49565714Y10011705D01*
X49984762Y10811705D02*
X50060952Y10811705D01*
X50060952Y10811705D02*
X50137143Y10773610D01*
X50137143Y10773610D02*
X50175238Y10735515D01*
X50175238Y10735515D02*
X50213333Y10659324D01*
X50213333Y10659324D02*
X50251428Y10506943D01*
X50251428Y10506943D02*
X50251428Y10316467D01*
X50251428Y10316467D02*
X50213333Y10164086D01*
X50213333Y10164086D02*
X50175238Y10087896D01*
X50175238Y10087896D02*
X50137143Y10049800D01*
X50137143Y10049800D02*
X50060952Y10011705D01*
X50060952Y10011705D02*
X49984762Y10011705D01*
X49984762Y10011705D02*
X49908571Y10049800D01*
X49908571Y10049800D02*
X49870476Y10087896D01*
X49870476Y10087896D02*
X49832381Y10164086D01*
X49832381Y10164086D02*
X49794285Y10316467D01*
X49794285Y10316467D02*
X49794285Y10506943D01*
X49794285Y10506943D02*
X49832381Y10659324D01*
X49832381Y10659324D02*
X49870476Y10735515D01*
X49870476Y10735515D02*
X49908571Y10773610D01*
X49908571Y10773610D02*
X49984762Y10811705D01*
X32033332Y-10011704D02*
X32299999Y-10392657D01*
X32490475Y-10011704D02*
X32490475Y-10811704D01*
X32490475Y-10811704D02*
X32185713Y-10811704D01*
X32185713Y-10811704D02*
X32109523Y-10773609D01*
X32109523Y-10773609D02*
X32071428Y-10735514D01*
X32071428Y-10735514D02*
X32033332Y-10659323D01*
X32033332Y-10659323D02*
X32033332Y-10545038D01*
X32033332Y-10545038D02*
X32071428Y-10468847D01*
X32071428Y-10468847D02*
X32109523Y-10430752D01*
X32109523Y-10430752D02*
X32185713Y-10392657D01*
X32185713Y-10392657D02*
X32490475Y-10392657D01*
X31766666Y-10811704D02*
X31271428Y-10811704D01*
X31271428Y-10811704D02*
X31538094Y-10506942D01*
X31538094Y-10506942D02*
X31423809Y-10506942D01*
X31423809Y-10506942D02*
X31347618Y-10468847D01*
X31347618Y-10468847D02*
X31309523Y-10430752D01*
X31309523Y-10430752D02*
X31271428Y-10354561D01*
X31271428Y-10354561D02*
X31271428Y-10164085D01*
X31271428Y-10164085D02*
X31309523Y-10087895D01*
X31309523Y-10087895D02*
X31347618Y-10049800D01*
X31347618Y-10049800D02*
X31423809Y-10011704D01*
X31423809Y-10011704D02*
X31652380Y-10011704D01*
X31652380Y-10011704D02*
X31728571Y-10049800D01*
X31728571Y-10049800D02*
X31766666Y-10087895D01*
X2605704Y8066667D02*
X3405704Y8066667D01*
X3405704Y8066667D02*
X3405704Y7761905D01*
X3405704Y7761905D02*
X3367609Y7685715D01*
X3367609Y7685715D02*
X3329514Y7647620D01*
X3329514Y7647620D02*
X3253323Y7609524D01*
X3253323Y7609524D02*
X3139038Y7609524D01*
X3139038Y7609524D02*
X3062847Y7647620D01*
X3062847Y7647620D02*
X3024752Y7685715D01*
X3024752Y7685715D02*
X2986657Y7761905D01*
X2986657Y7761905D02*
X2986657Y8066667D01*
X3405704Y7342858D02*
X2605704Y7152382D01*
X2605704Y7152382D02*
X3177133Y7000001D01*
X3177133Y7000001D02*
X2605704Y6847620D01*
X2605704Y6847620D02*
X3405704Y6657143D01*
X2605704Y5895238D02*
X2986657Y6161905D01*
X2605704Y6352381D02*
X3405704Y6352381D01*
X3405704Y6352381D02*
X3405704Y6047619D01*
X3405704Y6047619D02*
X3367609Y5971429D01*
X3367609Y5971429D02*
X3329514Y5933334D01*
X3329514Y5933334D02*
X3253323Y5895238D01*
X3253323Y5895238D02*
X3139038Y5895238D01*
X3139038Y5895238D02*
X3062847Y5933334D01*
X3062847Y5933334D02*
X3024752Y5971429D01*
X3024752Y5971429D02*
X2986657Y6047619D01*
X2986657Y6047619D02*
X2986657Y6352381D01*
X16107619Y10805705D02*
X16564762Y10805705D01*
X16336190Y10005705D02*
X16336190Y10805705D01*
X16755238Y10005705D02*
X17174286Y10539039D01*
X16755238Y10539039D02*
X17174286Y10005705D01*
X55712381Y-10811704D02*
X55217143Y-10811704D01*
X55217143Y-10811704D02*
X55483809Y-10506942D01*
X55483809Y-10506942D02*
X55369524Y-10506942D01*
X55369524Y-10506942D02*
X55293333Y-10468847D01*
X55293333Y-10468847D02*
X55255238Y-10430752D01*
X55255238Y-10430752D02*
X55217143Y-10354561D01*
X55217143Y-10354561D02*
X55217143Y-10164085D01*
X55217143Y-10164085D02*
X55255238Y-10087895D01*
X55255238Y-10087895D02*
X55293333Y-10049800D01*
X55293333Y-10049800D02*
X55369524Y-10011704D01*
X55369524Y-10011704D02*
X55598095Y-10011704D01*
X55598095Y-10011704D02*
X55674286Y-10049800D01*
X55674286Y-10049800D02*
X55712381Y-10087895D01*
X54950476Y-10545038D02*
X54760000Y-10011704D01*
X54760000Y-10011704D02*
X54569523Y-10545038D01*
X54340952Y-10811704D02*
X53845714Y-10811704D01*
X53845714Y-10811704D02*
X54112380Y-10506942D01*
X54112380Y-10506942D02*
X53998095Y-10506942D01*
X53998095Y-10506942D02*
X53921904Y-10468847D01*
X53921904Y-10468847D02*
X53883809Y-10430752D01*
X53883809Y-10430752D02*
X53845714Y-10354561D01*
X53845714Y-10354561D02*
X53845714Y-10164085D01*
X53845714Y-10164085D02*
X53883809Y-10087895D01*
X53883809Y-10087895D02*
X53921904Y-10049800D01*
X53921904Y-10049800D02*
X53998095Y-10011704D01*
X53998095Y-10011704D02*
X54226666Y-10011704D01*
X54226666Y-10011704D02*
X54302857Y-10049800D01*
X54302857Y-10049800D02*
X54340952Y-10087895D01*
X51629524Y10011705D02*
X51629524Y10811705D01*
X51629524Y10811705D02*
X51820000Y10811705D01*
X51820000Y10811705D02*
X51934286Y10773610D01*
X51934286Y10773610D02*
X52010476Y10697420D01*
X52010476Y10697420D02*
X52048571Y10621229D01*
X52048571Y10621229D02*
X52086667Y10468848D01*
X52086667Y10468848D02*
X52086667Y10354562D01*
X52086667Y10354562D02*
X52048571Y10202181D01*
X52048571Y10202181D02*
X52010476Y10125991D01*
X52010476Y10125991D02*
X51934286Y10049800D01*
X51934286Y10049800D02*
X51820000Y10011705D01*
X51820000Y10011705D02*
X51629524Y10011705D01*
X52581905Y10811705D02*
X52658095Y10811705D01*
X52658095Y10811705D02*
X52734286Y10773610D01*
X52734286Y10773610D02*
X52772381Y10735515D01*
X52772381Y10735515D02*
X52810476Y10659324D01*
X52810476Y10659324D02*
X52848571Y10506943D01*
X52848571Y10506943D02*
X52848571Y10316467D01*
X52848571Y10316467D02*
X52810476Y10164086D01*
X52810476Y10164086D02*
X52772381Y10087896D01*
X52772381Y10087896D02*
X52734286Y10049800D01*
X52734286Y10049800D02*
X52658095Y10011705D01*
X52658095Y10011705D02*
X52581905Y10011705D01*
X52581905Y10011705D02*
X52505714Y10049800D01*
X52505714Y10049800D02*
X52467619Y10087896D01*
X52467619Y10087896D02*
X52429524Y10164086D01*
X52429524Y10164086D02*
X52391428Y10316467D01*
X52391428Y10316467D02*
X52391428Y10506943D01*
X52391428Y10506943D02*
X52429524Y10659324D01*
X52429524Y10659324D02*
X52467619Y10735515D01*
X52467619Y10735515D02*
X52505714Y10773610D01*
X52505714Y10773610D02*
X52581905Y10811705D01*
X21873332Y-10011704D02*
X22139999Y-10392657D01*
X22330475Y-10011704D02*
X22330475Y-10811704D01*
X22330475Y-10811704D02*
X22025713Y-10811704D01*
X22025713Y-10811704D02*
X21949523Y-10773609D01*
X21949523Y-10773609D02*
X21911428Y-10735514D01*
X21911428Y-10735514D02*
X21873332Y-10659323D01*
X21873332Y-10659323D02*
X21873332Y-10545038D01*
X21873332Y-10545038D02*
X21911428Y-10468847D01*
X21911428Y-10468847D02*
X21949523Y-10430752D01*
X21949523Y-10430752D02*
X22025713Y-10392657D01*
X22025713Y-10392657D02*
X22330475Y-10392657D01*
X21606666Y-10811704D02*
X21073332Y-10811704D01*
X21073332Y-10811704D02*
X21416190Y-10011704D01*
X21606666Y10011705D02*
X21225714Y10011705D01*
X21225714Y10011705D02*
X21225714Y10811705D01*
X21797142Y10811705D02*
X22330476Y10811705D01*
X22330476Y10811705D02*
X21987618Y10011705D01*
X31766666Y10011705D02*
X31385714Y10011705D01*
X31385714Y10011705D02*
X31385714Y10811705D01*
X31957142Y10811705D02*
X32452380Y10811705D01*
X32452380Y10811705D02*
X32185714Y10506943D01*
X32185714Y10506943D02*
X32299999Y10506943D01*
X32299999Y10506943D02*
X32376190Y10468848D01*
X32376190Y10468848D02*
X32414285Y10430753D01*
X32414285Y10430753D02*
X32452380Y10354562D01*
X32452380Y10354562D02*
X32452380Y10164086D01*
X32452380Y10164086D02*
X32414285Y10087896D01*
X32414285Y10087896D02*
X32376190Y10049800D01*
X32376190Y10049800D02*
X32299999Y10011705D01*
X32299999Y10011705D02*
X32071428Y10011705D01*
X32071428Y10011705D02*
X31995237Y10049800D01*
X31995237Y10049800D02*
X31957142Y10087896D01*
X6347619Y10811705D02*
X5966667Y10811705D01*
X5966667Y10811705D02*
X5928571Y10430753D01*
X5928571Y10430753D02*
X5966667Y10468848D01*
X5966667Y10468848D02*
X6042857Y10506943D01*
X6042857Y10506943D02*
X6233333Y10506943D01*
X6233333Y10506943D02*
X6309524Y10468848D01*
X6309524Y10468848D02*
X6347619Y10430753D01*
X6347619Y10430753D02*
X6385714Y10354562D01*
X6385714Y10354562D02*
X6385714Y10164086D01*
X6385714Y10164086D02*
X6347619Y10087896D01*
X6347619Y10087896D02*
X6309524Y10049800D01*
X6309524Y10049800D02*
X6233333Y10011705D01*
X6233333Y10011705D02*
X6042857Y10011705D01*
X6042857Y10011705D02*
X5966667Y10049800D01*
X5966667Y10049800D02*
X5928571Y10087896D01*
X6614286Y10811705D02*
X6880953Y10011705D01*
X6880953Y10011705D02*
X7147619Y10811705D01*
D11*
X38153641Y6620000D02*
X37846359Y6620000D01*
X38153641Y7380000D02*
X37846359Y7380000D01*
D12*
X37140000Y-3000000D02*
G75*
G03*
X37140000Y-3000000I-50000J0D01*
G01*
D11*
X26153641Y-7380000D02*
X25846359Y-7380000D01*
X26153641Y-6620000D02*
X25846359Y-6620000D01*
D12*
X9500000Y-400000D02*
X9450000Y-400000D01*
X9550000Y-400000D02*
X9500000Y-400000D01*
D13*
X10200000Y-175000D02*
X10200000Y-175000D01*
X10250000Y-175000D02*
X10250000Y-175000D01*
D12*
X9500000Y1050000D02*
X9450000Y1050000D01*
X9550000Y1050000D02*
X9500000Y1050000D01*
D13*
X10250000Y-175000D02*
G75*
G03*
X10200000Y-175000I-25000J0D01*
G01*
X10200000Y-175000D02*
G75*
G03*
X10250000Y-175000I25000J0D01*
G01*
D11*
X28153641Y3620000D02*
X27846359Y3620000D01*
X28153641Y4380000D02*
X27846359Y4380000D01*
D12*
X31400000Y600000D02*
X31400000Y600000D01*
X31300000Y600000D02*
X31300000Y600000D01*
X31300000Y600000D02*
G75*
G03*
X31400000Y600000I50000J0D01*
G01*
X31400000Y600000D02*
G75*
G03*
X31300000Y600000I-50000J0D01*
G01*
D11*
X20163641Y5620000D02*
X19856359Y5620000D01*
X20163641Y6380000D02*
X19856359Y6380000D01*
X32153641Y-7380000D02*
X31846359Y-7380000D01*
X32153641Y-6620000D02*
X31846359Y-6620000D01*
X32153641Y3620000D02*
X31846359Y3620000D01*
X32153641Y4380000D02*
X31846359Y4380000D01*
X36153641Y-4380000D02*
X35846359Y-4380000D01*
X36153641Y-3620000D02*
X35846359Y-3620000D01*
D14*
X29400000Y-5100000D02*
X29400000Y-5500000D01*
X30600000Y-5100000D02*
X30600000Y-5500000D01*
X29601000Y-6306000D02*
G75*
G03*
X29601000Y-6306000I-12000J0D01*
G01*
X36600000Y5100000D02*
X36600000Y5500000D01*
X35400000Y5100000D02*
X35400000Y5500000D01*
X36423000Y6306000D02*
G75*
G03*
X36423000Y6306000I-12000J0D01*
G01*
D15*
X49190000Y3500000D02*
X49500000Y3500000D01*
X42500000Y3500000D02*
X42810000Y3500000D01*
X49500000Y3190000D02*
X49500000Y3500000D01*
X42500000Y3190000D02*
X42500000Y3500000D01*
X49500000Y-3500000D02*
X49500000Y-3190000D01*
X49190000Y-3500000D02*
X49500000Y-3500000D01*
X42500000Y-3500000D02*
X42500000Y-3190000D01*
X42500000Y-3500000D02*
X42810000Y-3500000D01*
D14*
X49402000Y4318000D02*
G75*
G03*
X49402000Y4318000I-100000J0D01*
G01*
D12*
X27140000Y-3000000D02*
G75*
G03*
X27140000Y-3000000I-50000J0D01*
G01*
D11*
X30153641Y6620000D02*
X29846359Y6620000D01*
X30153641Y7380000D02*
X29846359Y7380000D01*
X38153641Y-4380000D02*
X37846359Y-4380000D01*
X38153641Y-3620000D02*
X37846359Y-3620000D01*
D12*
X31140000Y-3000000D02*
G75*
G03*
X31140000Y-3000000I-50000J0D01*
G01*
D14*
X31400000Y-5100000D02*
X31400000Y-5500000D01*
X32600000Y-5100000D02*
X32600000Y-5500000D01*
X31601000Y-6306000D02*
G75*
G03*
X31601000Y-6306000I-12000J0D01*
G01*
D11*
X14480000Y6753641D02*
X14480000Y6446359D01*
X13720000Y6753641D02*
X13720000Y6446359D01*
X47110000Y5587836D02*
X47110000Y5372164D01*
X46390000Y5587836D02*
X46390000Y5372164D01*
D12*
X31140000Y3000000D02*
G75*
G03*
X31140000Y3000000I-50000J0D01*
G01*
D11*
X40153641Y3620000D02*
X39846359Y3620000D01*
X40153641Y4380000D02*
X39846359Y4380000D01*
X26153641Y3620000D02*
X25846359Y3620000D01*
X26153641Y4380000D02*
X25846359Y4380000D01*
D12*
X33140000Y-3000000D02*
G75*
G03*
X33140000Y-3000000I-50000J0D01*
G01*
D11*
X40153641Y-7380000D02*
X39846359Y-7380000D01*
X40153641Y-6620000D02*
X39846359Y-6620000D01*
X34153641Y-4380000D02*
X33846359Y-4380000D01*
X34153641Y-3620000D02*
X33846359Y-3620000D01*
X13110000Y6337836D02*
X13110000Y6122164D01*
X12390000Y6337836D02*
X12390000Y6122164D01*
X55259420Y-6090000D02*
X55540580Y-6090000D01*
X55259420Y-7110000D02*
X55540580Y-7110000D01*
X53230000Y6153641D02*
X53230000Y5846359D01*
X52470000Y6153641D02*
X52470000Y5846359D01*
D15*
X36050000Y-221000D02*
X36050000Y221000D01*
X38050000Y-221000D02*
X38050000Y221000D01*
D14*
X38000000Y-1900000D02*
G75*
G03*
X38000000Y-1900000I-100000J0D01*
G01*
D11*
X11965000Y-2357836D02*
X11965000Y-2142164D01*
X12685000Y-2357836D02*
X12685000Y-2142164D01*
G36*
X29391018Y2205161D02*
G01*
X29451990Y2205161D01*
X29451990Y2113773D01*
X29451990Y2022385D01*
X29615853Y2021045D01*
X29779716Y2019704D01*
X29781054Y1848220D01*
X29782392Y1676735D01*
X29929673Y1676735D01*
X30015983Y1676735D01*
X30076955Y1676735D01*
X30076955Y1440597D01*
X30076955Y1204459D01*
X30156981Y1203060D01*
X30178576Y1202682D01*
X30237007Y1201660D01*
X30238318Y900610D01*
X30239628Y599560D01*
X30300520Y599560D01*
X30300560Y599560D01*
X30361492Y599560D01*
X30361492Y180630D01*
X30361492Y-238301D01*
X30332276Y-239825D01*
X30303061Y-241348D01*
X30301748Y-524444D01*
X30300435Y-807539D01*
X30245857Y-808980D01*
X30191278Y-810422D01*
X30189961Y-1068284D01*
X30188645Y-1326145D01*
X30071828Y-1326145D01*
X29955011Y-1326145D01*
X29955011Y-1473495D01*
X29955011Y-1620844D01*
X29820364Y-1620844D01*
X29685717Y-1620844D01*
X29685717Y-1775815D01*
X29685717Y-1930786D01*
X29457071Y-1930786D01*
X29228426Y-1930786D01*
X29228426Y-2040028D01*
X29228426Y-2149270D01*
X28806701Y-2149270D01*
X28384977Y-2149270D01*
X28384977Y-2088298D01*
X28445949Y-2088298D01*
X28806701Y-2088298D01*
X29167453Y-2088298D01*
X29167453Y-2009542D01*
X29167453Y-1930786D01*
X29004861Y-1930786D01*
X28842268Y-1930786D01*
X28842268Y-1648790D01*
X28842268Y-1366793D01*
X28647496Y-1366793D01*
X28603968Y-1366879D01*
X28563653Y-1367123D01*
X28527677Y-1367505D01*
X28497163Y-1368008D01*
X28473236Y-1368611D01*
X28457020Y-1369295D01*
X28449640Y-1370041D01*
X28449336Y-1370181D01*
X28448774Y-1375699D01*
X28448241Y-1390558D01*
X28447745Y-1413936D01*
X28447294Y-1445012D01*
X28446894Y-1482964D01*
X28446555Y-1526971D01*
X28446284Y-1576212D01*
X28446088Y-1629865D01*
X28445975Y-1687109D01*
X28445949Y-1730933D01*
X28445949Y-2088298D01*
X28384977Y-2088298D01*
X28384977Y-2055271D01*
X28384977Y-1961272D01*
X28062332Y-1961272D01*
X27739688Y-1961272D01*
X27739688Y-1862269D01*
X27739688Y-1802371D01*
X27796448Y-1802371D01*
X27796620Y-1826876D01*
X27796709Y-1831424D01*
X27798120Y-1897760D01*
X28092819Y-1897760D01*
X28387517Y-1897760D01*
X28388829Y-1604331D01*
X28390141Y-1310902D01*
X28453612Y-1310902D01*
X28517083Y-1310902D01*
X28517083Y-1244849D01*
X28517083Y-1178796D01*
X28400220Y-1178796D01*
X28283357Y-1178796D01*
X28283357Y-1468414D01*
X28283357Y-1758032D01*
X28042855Y-1758032D01*
X27994358Y-1758104D01*
X27948985Y-1758311D01*
X27907745Y-1758639D01*
X27871645Y-1759073D01*
X27841693Y-1759597D01*
X27818899Y-1760199D01*
X27804270Y-1760863D01*
X27798826Y-1761560D01*
X27797612Y-1767696D01*
X27796799Y-1781972D01*
X27796448Y-1802371D01*
X27739688Y-1802371D01*
X27739688Y-1763266D01*
X27591068Y-1761919D01*
X27442448Y-1760572D01*
X27441098Y-1619574D01*
X27439747Y-1478576D01*
X27500682Y-1478576D01*
X27502051Y-1589088D01*
X27503421Y-1699600D01*
X27861632Y-1699600D01*
X28219844Y-1699600D01*
X28221148Y-1340118D01*
X28221826Y-1153391D01*
X28903241Y-1153391D01*
X28903241Y-1511602D01*
X28903241Y-1869814D01*
X29263993Y-1869814D01*
X29624745Y-1869814D01*
X29624745Y-1745376D01*
X29624745Y-1620938D01*
X29369424Y-1619621D01*
X29114103Y-1618304D01*
X29112781Y-1385847D01*
X29111460Y-1153391D01*
X29172534Y-1153391D01*
X29172534Y-1356631D01*
X29172534Y-1559872D01*
X29533287Y-1559872D01*
X29894039Y-1559872D01*
X29894039Y-1443009D01*
X29894039Y-1326145D01*
X29622204Y-1326145D01*
X29350370Y-1326145D01*
X29350370Y-1265173D01*
X29411342Y-1265173D01*
X29769554Y-1265173D01*
X30127765Y-1265173D01*
X30127765Y-1036527D01*
X30127765Y-807882D01*
X29843296Y-807882D01*
X29558827Y-807882D01*
X29557489Y-979366D01*
X29556151Y-1150850D01*
X29483747Y-1152260D01*
X29411342Y-1153670D01*
X29411342Y-1209421D01*
X29411342Y-1265173D01*
X29350370Y-1265173D01*
X29350370Y-1239768D01*
X29350370Y-1153391D01*
X29261452Y-1153391D01*
X29172534Y-1153391D01*
X29111460Y-1153391D01*
X29007350Y-1153391D01*
X28903241Y-1153391D01*
X28221826Y-1153391D01*
X28222453Y-980636D01*
X28105555Y-980636D01*
X27988658Y-980636D01*
X27988658Y-1087338D01*
X27988658Y-1194039D01*
X27813363Y-1194039D01*
X27638068Y-1194039D01*
X27638068Y-1336307D01*
X27638068Y-1478576D01*
X27569375Y-1478576D01*
X27500682Y-1478576D01*
X27439747Y-1478576D01*
X27117183Y-1478576D01*
X26794619Y-1478576D01*
X26794619Y-1417604D01*
X26855591Y-1417604D01*
X27216343Y-1417604D01*
X27577095Y-1417604D01*
X27577095Y-1056851D01*
X27577095Y-919664D01*
X27998820Y-919664D01*
X28107970Y-919664D01*
X28217119Y-919664D01*
X28218482Y-798990D01*
X28219844Y-678316D01*
X28222453Y-678302D01*
X28467543Y-676997D01*
X28517083Y-676733D01*
X28647496Y-676039D01*
X28715243Y-675679D01*
X28715243Y-576647D01*
X28715243Y-477616D01*
X28425625Y-477616D01*
X28136007Y-477616D01*
X28136007Y-632587D01*
X28136007Y-787558D01*
X28067413Y-787558D01*
X27998820Y-787558D01*
X27998820Y-853611D01*
X27998820Y-919664D01*
X27577095Y-919664D01*
X27577095Y-696099D01*
X27216343Y-696099D01*
X26855591Y-696099D01*
X26855591Y-1056851D01*
X26855591Y-1417604D01*
X26794619Y-1417604D01*
X26794619Y-1060239D01*
X26794659Y-995924D01*
X26794776Y-934547D01*
X26794962Y-876866D01*
X26795213Y-823637D01*
X26795522Y-775620D01*
X26795884Y-733572D01*
X26796290Y-698250D01*
X26796737Y-670413D01*
X26797218Y-650818D01*
X26797726Y-640223D01*
X26798006Y-638514D01*
X26803716Y-637712D01*
X26818387Y-636977D01*
X26840820Y-636333D01*
X26869813Y-635804D01*
X26904166Y-635412D01*
X26942680Y-635181D01*
X26973301Y-635127D01*
X27145209Y-635127D01*
X27145209Y-495535D01*
X27145209Y-355943D01*
X27159708Y-355671D01*
X27358612Y-355671D01*
X27577095Y-355671D01*
X27673635Y-355671D01*
X27988658Y-355671D01*
X27988658Y-541128D01*
X27988658Y-726585D01*
X28031846Y-726585D01*
X28075035Y-726585D01*
X28075035Y-365833D01*
X28075035Y-5081D01*
X27716823Y-5081D01*
X27358612Y-5081D01*
X27358612Y-180376D01*
X27358612Y-355671D01*
X27159708Y-355671D01*
X27220154Y-354537D01*
X27295099Y-353131D01*
X27296427Y-148620D01*
X27297755Y55891D01*
X27505948Y55891D01*
X27714142Y55891D01*
X27775255Y55891D01*
X27955631Y55891D01*
X28075035Y55891D01*
X28136007Y55891D01*
X28136007Y-170214D01*
X28136007Y-396319D01*
X28196979Y-396319D01*
X28257952Y-396319D01*
X28257952Y-35567D01*
X28257952Y187998D01*
X28318924Y187998D01*
X28318924Y-114323D01*
X28318924Y-416643D01*
X28516906Y-416643D01*
X28714887Y-416643D01*
X28715243Y-403839D01*
X28716158Y-370914D01*
X28776215Y-370914D01*
X28776215Y-731666D01*
X28776215Y-1092419D01*
X28903241Y-1092419D01*
X29136967Y-1092419D01*
X29172534Y-1092419D01*
X29497719Y-1092419D01*
X29497719Y-810422D01*
X29497719Y-752062D01*
X29558692Y-752062D01*
X29900390Y-750756D01*
X30127765Y-749887D01*
X30242088Y-749450D01*
X30242088Y-495399D01*
X30242088Y-241348D01*
X30007091Y-240027D01*
X29772094Y-238706D01*
X29772094Y-383566D01*
X29772094Y-528426D01*
X29665393Y-528426D01*
X29558692Y-528426D01*
X29558692Y-640244D01*
X29558692Y-752062D01*
X29497719Y-752062D01*
X29497719Y-528426D01*
X29215723Y-528426D01*
X28933727Y-528426D01*
X28933727Y-449670D01*
X28933727Y-370914D01*
X28854971Y-370914D01*
X28776215Y-370914D01*
X28716158Y-370914D01*
X28716335Y-364563D01*
X28717783Y-312483D01*
X28776215Y-311741D01*
X28825755Y-311111D01*
X28933727Y-309740D01*
X28933727Y-177836D01*
X29579016Y-177836D01*
X29772094Y-177836D01*
X29939768Y-177836D01*
X30300520Y-177836D01*
X30300520Y180376D01*
X30300520Y538588D01*
X30270034Y538588D01*
X30239548Y538588D01*
X30239548Y449670D01*
X30239548Y360752D01*
X29957551Y360752D01*
X29675555Y360752D01*
X29675555Y213403D01*
X29675555Y66053D01*
X29627285Y66053D01*
X29579016Y66053D01*
X29579016Y-55891D01*
X29579016Y-177836D01*
X28933727Y-177836D01*
X28933727Y-121843D01*
X28933727Y66053D01*
X28882917Y66053D01*
X28832106Y66053D01*
X28832106Y127025D01*
X28893079Y127025D01*
X29253831Y127025D01*
X29614583Y127025D01*
X29614583Y421724D01*
X29675555Y421724D01*
X29927065Y421724D01*
X30178576Y421724D01*
X30178576Y782476D01*
X30178576Y1143229D01*
X30127765Y1143229D01*
X30076955Y1143229D01*
X30076955Y990798D01*
X30076955Y838368D01*
X29876255Y838368D01*
X29675555Y838368D01*
X29675555Y630046D01*
X29675555Y421724D01*
X29614583Y421724D01*
X29614583Y482696D01*
X29614583Y838368D01*
X29518044Y838368D01*
X29421504Y838368D01*
X29421504Y627505D01*
X29421504Y416643D01*
X29261549Y416643D01*
X29101595Y416643D01*
X29100227Y303591D01*
X29098860Y190538D01*
X28995969Y189163D01*
X28893079Y187787D01*
X28893079Y157406D01*
X28893079Y127025D01*
X28832106Y127025D01*
X28832106Y187998D01*
X28575515Y187998D01*
X28318924Y187998D01*
X28257952Y187998D01*
X28257952Y325185D01*
X28019991Y325185D01*
X27971762Y325115D01*
X27926667Y324914D01*
X27885718Y324596D01*
X27849928Y324176D01*
X27820310Y323667D01*
X27797877Y323085D01*
X27783642Y322442D01*
X27778642Y321798D01*
X27777728Y315998D01*
X27776908Y301422D01*
X27776215Y279453D01*
X27775686Y251477D01*
X27775355Y218878D01*
X27775255Y187151D01*
X27775255Y55891D01*
X27714142Y55891D01*
X27715483Y219754D01*
X27716823Y383617D01*
X27799390Y385013D01*
X27881956Y386409D01*
X27881956Y774981D01*
X27881956Y1102580D01*
X27942929Y1102580D01*
X27942929Y744369D01*
X27942929Y386157D01*
X28100440Y386157D01*
X28257952Y386157D01*
X28257952Y594479D01*
X28257952Y802801D01*
X28153791Y802801D01*
X28049630Y802801D01*
X28049630Y863773D01*
X28110602Y863773D01*
X28318924Y863773D01*
X28468814Y863773D01*
X28827025Y863773D01*
X28827025Y1178796D01*
X28887998Y1178796D01*
X28887998Y1105224D01*
X28887998Y1031652D01*
X28993429Y1030279D01*
X29098860Y1028906D01*
X29100174Y753261D01*
X29101488Y477615D01*
X29231010Y477615D01*
X29360532Y477615D01*
X29360532Y657992D01*
X29360532Y838368D01*
X29299560Y838368D01*
X29238588Y838368D01*
X29238588Y894259D01*
X29299560Y894259D01*
X29614583Y894259D01*
X29657771Y894259D01*
X30015983Y894259D01*
X30015983Y1255011D01*
X30015983Y1615763D01*
X29899120Y1615763D01*
X29782256Y1615763D01*
X29782256Y1397279D01*
X29782256Y1178796D01*
X29540908Y1178796D01*
X29299560Y1178796D01*
X29299560Y1036527D01*
X29299560Y894259D01*
X29238588Y894259D01*
X29238588Y1008582D01*
X29238588Y1178796D01*
X29063293Y1178796D01*
X28887998Y1178796D01*
X28827025Y1178796D01*
X28827025Y1224525D01*
X28827025Y1585277D01*
X28468814Y1585277D01*
X28110602Y1585277D01*
X28110602Y1224525D01*
X28110602Y863773D01*
X28049630Y863773D01*
X28049630Y952690D01*
X28049630Y1102580D01*
X27996279Y1102580D01*
X27942929Y1102580D01*
X27881956Y1102580D01*
X27881956Y1163553D01*
X27942929Y1163553D01*
X27965793Y1163553D01*
X28049630Y1163553D01*
X28049630Y1404901D01*
X28049630Y1646249D01*
X28133404Y1646249D01*
X28217178Y1646249D01*
X28278276Y1646249D01*
X28583137Y1646249D01*
X28827025Y1646249D01*
X28887998Y1646249D01*
X28887998Y1443009D01*
X28887998Y1239768D01*
X28943889Y1239768D01*
X28999780Y1239768D01*
X28999780Y1600520D01*
X28999780Y1961272D01*
X28642415Y1961272D01*
X28583059Y1961225D01*
X28526690Y1961089D01*
X28474130Y1960873D01*
X28426202Y1960582D01*
X28383725Y1960226D01*
X28347522Y1959812D01*
X28318414Y1959348D01*
X28297222Y1958842D01*
X28284767Y1958300D01*
X28281663Y1957885D01*
X28280817Y1952140D01*
X28280048Y1937505D01*
X28279384Y1915252D01*
X28278851Y1886651D01*
X28278478Y1852974D01*
X28278292Y1815493D01*
X28278276Y1800373D01*
X28278276Y1646249D01*
X28217178Y1646249D01*
X28218511Y1832977D01*
X28219826Y2017163D01*
X28674595Y2017163D01*
X28867673Y2017163D01*
X28999780Y2017163D01*
X29060752Y2017163D01*
X29060752Y1719924D01*
X29060752Y1422684D01*
X29225885Y1422684D01*
X29391018Y1422684D01*
X29391018Y1783437D01*
X29391018Y2144189D01*
X29032807Y2144189D01*
X28674595Y2144189D01*
X28674595Y2080676D01*
X28674595Y2017163D01*
X28219826Y2017163D01*
X28219844Y2019704D01*
X28416733Y2021034D01*
X28613623Y2022364D01*
X28613623Y2113762D01*
X28613623Y2205161D01*
X29032807Y2205161D01*
X29391018Y2205161D01*
G37*
D14*
X56080000Y4425000D02*
X56080000Y2775000D01*
X56140000Y2425000D02*
X56140000Y-2425000D01*
X50860000Y2425000D02*
X56140000Y2425000D01*
X56140000Y-2425000D02*
X50860000Y-2425000D01*
X50860000Y-2425000D02*
X50860000Y2425000D01*
X39400000Y-5100000D02*
X39400000Y-5500000D01*
X40600000Y-5100000D02*
X40600000Y-5500000D01*
X39601000Y-6306000D02*
G75*
G03*
X39601000Y-6306000I-12000J0D01*
G01*
D11*
X26153641Y6620000D02*
X25846359Y6620000D01*
X26153641Y7380000D02*
X25846359Y7380000D01*
X50346041Y-7720600D02*
X50038759Y-7720600D01*
X50346041Y-6960600D02*
X50038759Y-6960600D01*
X47806041Y-7720600D02*
X47498759Y-7720600D01*
X47806041Y-6960600D02*
X47498759Y-6960600D01*
X26153641Y-4380000D02*
X25846359Y-4380000D01*
X26153641Y-3620000D02*
X25846359Y-3620000D01*
D14*
X40600000Y5100000D02*
X40600000Y5500000D01*
X39400000Y5100000D02*
X39400000Y5500000D01*
X40423000Y6306000D02*
G75*
G03*
X40423000Y6306000I-12000J0D01*
G01*
X34600000Y5100000D02*
X34600000Y5500000D01*
X33400000Y5100000D02*
X33400000Y5500000D01*
X34423000Y6306000D02*
G75*
G03*
X34423000Y6306000I-12000J0D01*
G01*
D11*
X15580000Y6753641D02*
X15580000Y6446359D01*
X14820000Y6753641D02*
X14820000Y6446359D01*
D12*
X41140000Y3000000D02*
G75*
G03*
X41140000Y3000000I-50000J0D01*
G01*
D15*
X4700000Y3750000D02*
X2000000Y3750000D01*
X2000000Y3750000D02*
X2000000Y1995000D01*
X4700000Y-3750000D02*
X2000000Y-3750000D01*
X2000000Y-3750000D02*
X2000000Y-1995000D01*
D14*
X8200000Y1300000D02*
G75*
G03*
X8200000Y1300000I-100000J0D01*
G01*
D12*
X35140000Y3000000D02*
G75*
G03*
X35140000Y3000000I-50000J0D01*
G01*
D14*
X32600000Y5100000D02*
X32600000Y5500000D01*
X31400000Y5100000D02*
X31400000Y5500000D01*
X32423000Y6306000D02*
G75*
G03*
X32423000Y6306000I-12000J0D01*
G01*
D11*
X2894359Y10540000D02*
X3201641Y10540000D01*
X2894359Y9780000D02*
X3201641Y9780000D01*
X47806041Y6970000D02*
X47498759Y6970000D01*
X47806041Y7730000D02*
X47498759Y7730000D01*
D12*
X35140000Y-3000000D02*
G75*
G03*
X35140000Y-3000000I-50000J0D01*
G01*
X33140000Y3000000D02*
G75*
G03*
X33140000Y3000000I-50000J0D01*
G01*
D11*
X47240000Y-5607836D02*
X47240000Y-5392164D01*
X47960000Y-5607836D02*
X47960000Y-5392164D01*
D14*
X28600000Y5100000D02*
X28600000Y5500000D01*
X27400000Y5100000D02*
X27400000Y5500000D01*
X28423000Y6306000D02*
G75*
G03*
X28423000Y6306000I-12000J0D01*
G01*
D11*
X21857836Y-6110000D02*
X21642164Y-6110000D01*
X21857836Y-5390000D02*
X21642164Y-5390000D01*
D12*
X20340000Y7200000D02*
G75*
G03*
X20340000Y7200000I-50000J0D01*
G01*
D11*
X53680000Y-5936359D02*
X53680000Y-6243641D01*
X52920000Y-5936359D02*
X52920000Y-6243641D01*
D14*
X30600000Y5100000D02*
X30600000Y5500000D01*
X29400000Y5100000D02*
X29400000Y5500000D01*
X30423000Y6306000D02*
G75*
G03*
X30423000Y6306000I-12000J0D01*
G01*
X9500000Y2825000D02*
X9500000Y2175000D01*
D11*
X55780000Y6153641D02*
X55780000Y5846359D01*
X55020000Y6153641D02*
X55020000Y5846359D01*
D14*
X35400000Y-5100000D02*
X35400000Y-5500000D01*
X36600000Y-5100000D02*
X36600000Y-5500000D01*
X35601000Y-6306000D02*
G75*
G03*
X35601000Y-6306000I-12000J0D01*
G01*
D11*
X40153641Y-4380000D02*
X39846359Y-4380000D01*
X40153641Y-3620000D02*
X39846359Y-3620000D01*
X36153641Y6620000D02*
X35846359Y6620000D01*
X36153641Y7380000D02*
X35846359Y7380000D01*
X32153641Y6620000D02*
X31846359Y6620000D01*
X32153641Y7380000D02*
X31846359Y7380000D01*
X28153641Y-7380000D02*
X27846359Y-7380000D01*
X28153641Y-6620000D02*
X27846359Y-6620000D01*
X38143641Y-7380000D02*
X37836359Y-7380000D01*
X38143641Y-6620000D02*
X37836359Y-6620000D01*
D12*
X39140000Y-3000000D02*
G75*
G03*
X39140000Y-3000000I-50000J0D01*
G01*
X29140000Y-3000000D02*
G75*
G03*
X29140000Y-3000000I-50000J0D01*
G01*
D11*
X40153641Y6620000D02*
X39846359Y6620000D01*
X40153641Y7380000D02*
X39846359Y7380000D01*
X28153641Y6620000D02*
X27846359Y6620000D01*
X28153641Y7380000D02*
X27846359Y7380000D01*
X17836359Y6380000D02*
X18143641Y6380000D01*
X17836359Y5620000D02*
X18143641Y5620000D01*
X28153641Y-4380000D02*
X27846359Y-4380000D01*
X28153641Y-3620000D02*
X27846359Y-3620000D01*
X30153641Y-7380000D02*
X29846359Y-7380000D01*
X30153641Y-6620000D02*
X29846359Y-6620000D01*
D16*
X13250000Y4500000D02*
G75*
G03*
X13250000Y4500000I-125000J0D01*
G01*
D11*
X30153641Y3620000D02*
X29846359Y3620000D01*
X30153641Y4380000D02*
X29846359Y4380000D01*
X55487836Y-5610000D02*
X55272164Y-5610000D01*
X55487836Y-4890000D02*
X55272164Y-4890000D01*
X36153641Y-7380000D02*
X35846359Y-7380000D01*
X36153641Y-6620000D02*
X35846359Y-6620000D01*
X10585000Y-2534420D02*
X10585000Y-2815580D01*
X9565000Y-2534420D02*
X9565000Y-2815580D01*
X49110000Y5607836D02*
X49110000Y5392164D01*
X48390000Y5607836D02*
X48390000Y5392164D01*
D12*
X41140000Y-3000000D02*
G75*
G03*
X41140000Y-3000000I-50000J0D01*
G01*
D14*
X33400000Y-5100000D02*
X33400000Y-5500000D01*
X34600000Y-5100000D02*
X34600000Y-5500000D01*
X33601000Y-6306000D02*
G75*
G03*
X33601000Y-6306000I-12000J0D01*
G01*
D11*
X11040000Y5092164D02*
X11040000Y5307836D01*
X11760000Y5092164D02*
X11760000Y5307836D01*
D14*
X26600000Y5100000D02*
X26600000Y5500000D01*
X25400000Y5100000D02*
X25400000Y5500000D01*
X26423000Y6306000D02*
G75*
G03*
X26423000Y6306000I-12000J0D01*
G01*
D11*
X30153641Y-4380000D02*
X29846359Y-4380000D01*
X30153641Y-3620000D02*
X29846359Y-3620000D01*
D12*
X17840000Y7200000D02*
G75*
G03*
X17840000Y7200000I-50000J0D01*
G01*
D11*
X34153641Y3620000D02*
X33846359Y3620000D01*
X34153641Y4380000D02*
X33846359Y4380000D01*
X9590000Y5359420D02*
X9590000Y5640580D01*
X10610000Y5359420D02*
X10610000Y5640580D01*
D17*
X41375182Y-525153D02*
X40125000Y-525153D01*
X40125000Y-100000D01*
X41375182Y-100000D01*
X41375182Y-525153D01*
G36*
X41375182Y-525153D02*
G01*
X40125000Y-525153D01*
X40125000Y-100000D01*
X41375182Y-100000D01*
X41375182Y-525153D01*
G37*
D11*
X34153641Y6620000D02*
X33846359Y6620000D01*
X34153641Y7380000D02*
X33846359Y7380000D01*
X32153641Y-4380000D02*
X31846359Y-4380000D01*
X32153641Y-3620000D02*
X31846359Y-3620000D01*
X38740000Y-107836D02*
X38740000Y107836D01*
X39460000Y-107836D02*
X39460000Y107836D01*
X34153641Y-7380000D02*
X33846359Y-7380000D01*
X34153641Y-6620000D02*
X33846359Y-6620000D01*
G36*
X2950869Y-6183838D02*
G01*
X2954667Y-6206723D01*
X2960640Y-6243416D01*
X2968619Y-6292865D01*
X2978437Y-6354019D01*
X2989926Y-6425828D01*
X3002917Y-6507241D01*
X3017243Y-6597206D01*
X3032736Y-6694672D01*
X3049227Y-6798588D01*
X3066549Y-6907903D01*
X3080967Y-6999010D01*
X3098845Y-7111994D01*
X3116029Y-7220487D01*
X3132350Y-7323431D01*
X3147640Y-7419768D01*
X3161730Y-7508441D01*
X3174452Y-7588393D01*
X3185638Y-7658567D01*
X3195119Y-7717904D01*
X3202728Y-7765349D01*
X3208295Y-7799843D01*
X3211652Y-7820329D01*
X3212634Y-7825920D01*
X3219897Y-7823109D01*
X3240567Y-7813464D01*
X3273700Y-7797455D01*
X3318349Y-7775556D01*
X3373567Y-7748237D01*
X3438409Y-7715970D01*
X3511928Y-7679228D01*
X3593178Y-7638481D01*
X3681214Y-7594201D01*
X3775089Y-7546861D01*
X3873858Y-7496931D01*
X3959308Y-7453641D01*
X4061518Y-7401827D01*
X4159659Y-7352111D01*
X4252782Y-7304970D01*
X4339936Y-7260886D01*
X4420170Y-7220338D01*
X4492533Y-7183805D01*
X4556074Y-7151768D01*
X4609842Y-7124706D01*
X4652887Y-7103099D01*
X4684258Y-7087427D01*
X4703005Y-7078169D01*
X4708293Y-7075700D01*
X4712578Y-7082654D01*
X4723148Y-7102596D01*
X4739250Y-7134028D01*
X4760131Y-7175451D01*
X4785037Y-7225368D01*
X4813216Y-7282279D01*
X4843915Y-7344685D01*
X4860405Y-7378364D01*
X4899373Y-7458456D01*
X4931347Y-7525053D01*
X4956696Y-7578983D01*
X4975790Y-7621074D01*
X4988998Y-7652155D01*
X4996690Y-7673055D01*
X4999237Y-7684602D01*
X4998316Y-7687480D01*
X4989458Y-7691060D01*
X4966501Y-7699741D01*
X4930488Y-7713141D01*
X4882466Y-7730876D01*
X4823479Y-7752564D01*
X4754571Y-7777823D01*
X4676788Y-7806268D01*
X4591173Y-7837519D01*
X4498772Y-7871191D01*
X4400630Y-7906902D01*
X4297791Y-7944270D01*
X4248777Y-7962063D01*
X4144429Y-7999986D01*
X4044526Y-8036406D01*
X3950087Y-8070944D01*
X3862134Y-8103222D01*
X3781688Y-8132862D01*
X3709770Y-8159484D01*
X3647400Y-8182711D01*
X3595601Y-8202164D01*
X3555392Y-8217465D01*
X3527795Y-8228235D01*
X3513831Y-8234095D01*
X3512272Y-8235057D01*
X3519887Y-8238954D01*
X3541174Y-8248933D01*
X3575090Y-8264524D01*
X3620594Y-8285256D01*
X3676643Y-8310658D01*
X3742196Y-8340260D01*
X3816211Y-8373592D01*
X3897646Y-8410183D01*
X3985458Y-8449563D01*
X4078606Y-8491261D01*
X4176048Y-8534806D01*
X4180166Y-8536644D01*
X4277715Y-8580294D01*
X4370952Y-8622202D01*
X4458842Y-8661893D01*
X4540346Y-8698888D01*
X4614429Y-8732711D01*
X4680053Y-8762886D01*
X4736182Y-8788935D01*
X4781779Y-8810382D01*
X4815808Y-8826750D01*
X4837232Y-8837563D01*
X4845013Y-8842343D01*
X4845026Y-8842407D01*
X4841418Y-8852500D01*
X4831453Y-8874245D01*
X4816252Y-8905497D01*
X4796935Y-8944107D01*
X4774623Y-8987931D01*
X4750437Y-9034821D01*
X4725497Y-9082631D01*
X4700924Y-9129213D01*
X4677838Y-9172423D01*
X4657359Y-9210113D01*
X4640609Y-9240136D01*
X4628708Y-9260346D01*
X4622776Y-9268597D01*
X4622499Y-9268679D01*
X4614669Y-9264650D01*
X4593711Y-9253286D01*
X4560560Y-9235105D01*
X4516151Y-9210624D01*
X4461416Y-9180361D01*
X4397292Y-9144835D01*
X4324712Y-9104564D01*
X4244611Y-9060066D01*
X4157923Y-9011858D01*
X4065582Y-8960459D01*
X3968524Y-8906387D01*
X3884120Y-8859329D01*
X3783941Y-8803493D01*
X3687768Y-8749964D01*
X3596528Y-8699254D01*
X3511147Y-8651874D01*
X3432553Y-8608336D01*
X3361671Y-8569152D01*
X3299430Y-8534834D01*
X3246754Y-8505893D01*
X3204572Y-8482841D01*
X3173810Y-8466190D01*
X3155394Y-8456451D01*
X3150141Y-8453990D01*
X3152329Y-8461820D01*
X3159351Y-8483906D01*
X3170872Y-8519252D01*
X3186560Y-8566859D01*
X3206082Y-8625728D01*
X3229104Y-8694862D01*
X3255295Y-8773262D01*
X3284320Y-8859930D01*
X3315848Y-8953867D01*
X3349545Y-9054075D01*
X3385077Y-9159557D01*
X3419636Y-9261977D01*
X3456580Y-9371496D01*
X3491988Y-9476685D01*
X3525529Y-9576547D01*
X3556869Y-9670081D01*
X3585677Y-9756288D01*
X3611620Y-9834169D01*
X3634366Y-9902724D01*
X3653583Y-9960955D01*
X3668938Y-10007862D01*
X3680099Y-10042446D01*
X3686734Y-10063707D01*
X3688549Y-10070649D01*
X3679580Y-10073526D01*
X3657275Y-10078569D01*
X3624062Y-10085347D01*
X3582364Y-10093426D01*
X3534607Y-10102374D01*
X3483215Y-10111758D01*
X3430613Y-10121146D01*
X3379227Y-10130104D01*
X3331481Y-10138201D01*
X3289800Y-10145004D01*
X3256609Y-10150079D01*
X3234333Y-10152994D01*
X3225397Y-10153317D01*
X3225368Y-10153292D01*
X3222940Y-10144918D01*
X3217228Y-10122117D01*
X3208528Y-10086163D01*
X3197132Y-10038335D01*
X3183337Y-9979907D01*
X3167435Y-9912157D01*
X3149720Y-9836361D01*
X3130488Y-9753794D01*
X3110032Y-9665735D01*
X3088647Y-9573457D01*
X3066626Y-9478239D01*
X3044264Y-9381357D01*
X3021854Y-9284086D01*
X2999692Y-9187703D01*
X2978071Y-9093484D01*
X2957286Y-9002706D01*
X2937630Y-8916646D01*
X2919398Y-8836578D01*
X2902884Y-8763781D01*
X2888382Y-8699529D01*
X2876186Y-8645100D01*
X2866591Y-8601769D01*
X2859890Y-8570814D01*
X2856379Y-8553510D01*
X2855910Y-8550337D01*
X2850038Y-8542706D01*
X2841917Y-8543285D01*
X2832684Y-8546924D01*
X2809637Y-8556439D01*
X2773788Y-8571404D01*
X2726145Y-8591393D01*
X2667718Y-8615981D01*
X2599516Y-8644741D01*
X2522549Y-8677248D01*
X2437827Y-8713075D01*
X2346360Y-8751797D01*
X2249156Y-8792987D01*
X2147225Y-8836219D01*
X2075539Y-8866647D01*
X1971215Y-8910858D01*
X1871073Y-8953134D01*
X1776107Y-8993064D01*
X1687310Y-9030238D01*
X1605675Y-9064246D01*
X1532196Y-9094678D01*
X1467866Y-9121122D01*
X1413678Y-9143169D01*
X1370626Y-9160407D01*
X1339702Y-9172428D01*
X1321902Y-9178819D01*
X1317780Y-9179724D01*
X1313368Y-9171486D01*
X1303220Y-9151018D01*
X1288398Y-9120551D01*
X1269963Y-9082314D01*
X1248977Y-9038540D01*
X1226500Y-8991460D01*
X1203594Y-8943304D01*
X1181321Y-8896305D01*
X1160741Y-8852691D01*
X1142915Y-8814696D01*
X1128906Y-8784550D01*
X1119774Y-8764484D01*
X1116580Y-8756742D01*
X1124114Y-8754112D01*
X1146028Y-8747016D01*
X1181319Y-8735769D01*
X1228988Y-8720686D01*
X1288033Y-8702079D01*
X1357452Y-8680265D01*
X1436244Y-8655557D01*
X1523407Y-8628270D01*
X1617941Y-8598717D01*
X1718844Y-8567213D01*
X1825115Y-8534073D01*
X1929960Y-8501414D01*
X2040401Y-8466988D01*
X2146419Y-8433859D01*
X2247013Y-8402344D01*
X2341181Y-8372759D01*
X2427923Y-8345423D01*
X2506238Y-8320653D01*
X2575123Y-8298766D01*
X2633578Y-8280080D01*
X2680602Y-8264911D01*
X2715193Y-8253577D01*
X2736351Y-8246396D01*
X2743095Y-8243710D01*
X2735919Y-8239785D01*
X2715079Y-8229565D01*
X2681537Y-8213502D01*
X2636256Y-8192046D01*
X2580198Y-8165646D01*
X2514325Y-8134756D01*
X2439600Y-8099823D01*
X2356985Y-8061300D01*
X2267442Y-8019637D01*
X2171934Y-7975285D01*
X2071422Y-7928694D01*
X1985426Y-7888896D01*
X1881405Y-7840720D01*
X1781533Y-7794331D01*
X1686779Y-7750186D01*
X1598113Y-7708742D01*
X1516503Y-7670457D01*
X1442919Y-7635789D01*
X1378329Y-7605194D01*
X1323703Y-7579131D01*
X1280009Y-7558056D01*
X1248216Y-7542428D01*
X1229295Y-7532703D01*
X1224064Y-7529460D01*
X1226636Y-7520251D01*
X1235782Y-7498608D01*
X1250624Y-7466379D01*
X1270288Y-7425410D01*
X1293896Y-7377547D01*
X1320573Y-7324639D01*
X1329913Y-7306360D01*
X1439625Y-7092380D01*
X1477383Y-7115215D01*
X1489033Y-7122074D01*
X1513562Y-7136368D01*
X1549899Y-7157477D01*
X1596976Y-7184784D01*
X1653722Y-7217669D01*
X1719067Y-7255513D01*
X1791943Y-7297698D01*
X1871278Y-7343605D01*
X1956004Y-7392614D01*
X2045049Y-7444108D01*
X2137346Y-7497467D01*
X2231823Y-7552073D01*
X2327411Y-7607306D01*
X2423040Y-7662548D01*
X2517640Y-7717181D01*
X2610143Y-7770584D01*
X2699476Y-7822140D01*
X2712973Y-7829928D01*
X2716266Y-7827343D01*
X2715244Y-7822874D01*
X2711486Y-7810685D01*
X2703826Y-7784596D01*
X2692630Y-7745894D01*
X2678259Y-7695865D01*
X2661079Y-7635797D01*
X2641452Y-7566974D01*
X2619742Y-7490685D01*
X2596313Y-7408214D01*
X2571527Y-7320849D01*
X2545750Y-7229877D01*
X2519344Y-7136582D01*
X2492673Y-7042252D01*
X2466100Y-6948174D01*
X2439989Y-6855634D01*
X2414704Y-6765917D01*
X2390608Y-6680311D01*
X2368065Y-6600102D01*
X2347438Y-6526577D01*
X2329091Y-6461021D01*
X2313388Y-6404722D01*
X2300691Y-6358965D01*
X2293407Y-6332463D01*
X2340946Y-6332463D01*
X2340953Y-6332602D01*
X2343168Y-6340972D01*
X2349538Y-6363869D01*
X2359793Y-6400335D01*
X2373660Y-6449413D01*
X2390866Y-6510144D01*
X2411139Y-6581569D01*
X2434207Y-6662730D01*
X2459797Y-6752670D01*
X2487638Y-6850429D01*
X2517456Y-6955051D01*
X2548980Y-7065575D01*
X2581938Y-7181045D01*
X2604697Y-7260741D01*
X2868090Y-8182840D01*
X3000000Y-8250000D01*
X3131910Y-8317161D01*
X4034845Y-7989099D01*
X4150473Y-7947078D01*
X4261849Y-7906583D01*
X4368039Y-7867955D01*
X4468113Y-7831532D01*
X4561140Y-7797655D01*
X4646186Y-7766664D01*
X4722321Y-7738897D01*
X4788613Y-7714695D01*
X4844131Y-7694398D01*
X4887942Y-7678345D01*
X4919116Y-7666875D01*
X4936719Y-7660330D01*
X4940466Y-7658863D01*
X4937574Y-7651558D01*
X4928520Y-7631793D01*
X4914268Y-7601550D01*
X4895783Y-7562813D01*
X4874032Y-7517566D01*
X4849978Y-7467790D01*
X4824588Y-7415470D01*
X4798825Y-7362588D01*
X4773657Y-7311128D01*
X4750047Y-7263072D01*
X4728961Y-7220404D01*
X4711363Y-7185107D01*
X4698221Y-7159163D01*
X4690497Y-7144557D01*
X4688971Y-7142127D01*
X4681537Y-7145283D01*
X4660684Y-7155259D01*
X4627356Y-7171583D01*
X4582496Y-7193784D01*
X4527047Y-7221388D01*
X4461952Y-7253923D01*
X4388154Y-7290919D01*
X4306596Y-7331903D01*
X4218221Y-7376402D01*
X4123973Y-7423945D01*
X4024794Y-7474059D01*
X3931965Y-7521037D01*
X3810994Y-7582279D01*
X3703577Y-7636600D01*
X3608910Y-7684385D01*
X3526194Y-7726020D01*
X3454627Y-7761891D01*
X3393408Y-7792382D01*
X3341735Y-7817880D01*
X3298808Y-7838770D01*
X3263825Y-7855438D01*
X3235985Y-7868270D01*
X3214488Y-7877650D01*
X3198531Y-7883965D01*
X3187313Y-7887600D01*
X3180034Y-7888941D01*
X3175893Y-7888373D01*
X3174087Y-7886282D01*
X3173963Y-7885838D01*
X3171984Y-7874827D01*
X3167749Y-7849430D01*
X3161500Y-7811171D01*
X3153484Y-7761576D01*
X3143946Y-7702169D01*
X3133131Y-7634475D01*
X3121284Y-7560018D01*
X3108650Y-7480323D01*
X3101944Y-7437913D01*
X3076018Y-7273805D01*
X3052486Y-7124899D01*
X3031235Y-6990488D01*
X3012152Y-6869862D01*
X2995123Y-6762315D01*
X2980036Y-6667137D01*
X2966777Y-6583622D01*
X2955233Y-6511060D01*
X2945291Y-6448744D01*
X2936838Y-6395967D01*
X2929760Y-6352018D01*
X2923945Y-6316192D01*
X2919279Y-6287779D01*
X2915650Y-6266072D01*
X2912943Y-6250363D01*
X2911046Y-6239943D01*
X2909846Y-6234104D01*
X2909243Y-6232151D01*
X2901035Y-6232916D01*
X2878772Y-6236166D01*
X2844261Y-6241607D01*
X2799311Y-6248943D01*
X2745731Y-6257881D01*
X2685330Y-6268125D01*
X2627013Y-6278152D01*
X2561987Y-6289386D01*
X2502126Y-6299698D01*
X2449249Y-6308776D01*
X2405171Y-6316311D01*
X2371709Y-6321991D01*
X2350682Y-6325506D01*
X2343896Y-6326562D01*
X2340946Y-6332463D01*
X2293407Y-6332463D01*
X2291366Y-6325037D01*
X2285774Y-6304225D01*
X2284229Y-6297811D01*
X2288360Y-6287456D01*
X2291555Y-6286296D01*
X2300835Y-6284965D01*
X2324272Y-6281164D01*
X2360155Y-6275184D01*
X2406772Y-6267313D01*
X2462411Y-6257842D01*
X2525361Y-6247059D01*
X2593910Y-6235255D01*
X2623330Y-6230171D01*
X2693415Y-6218096D01*
X2758377Y-6206996D01*
X2816546Y-6197152D01*
X2866249Y-6188840D01*
X2905813Y-6182340D01*
X2909243Y-6181795D01*
X2933567Y-6177931D01*
X2947839Y-6175892D01*
X2949413Y-6175812D01*
X2950869Y-6183838D01*
G37*
X11710000Y-2142164D02*
X11710000Y-2357836D01*
X10990000Y-2142164D02*
X10990000Y-2357836D01*
X45390000Y-5587836D02*
X45390000Y-5372164D01*
X46110000Y-5587836D02*
X46110000Y-5372164D01*
X50346041Y6986000D02*
X50038759Y6986000D01*
X50346041Y7746000D02*
X50038759Y7746000D01*
D14*
X25400000Y-5100000D02*
X25400000Y-5500000D01*
X26600000Y-5100000D02*
X26600000Y-5500000D01*
X25601000Y-6306000D02*
G75*
G03*
X25601000Y-6306000I-12000J0D01*
G01*
X38600000Y5100000D02*
X38600000Y5500000D01*
X37400000Y5100000D02*
X37400000Y5500000D01*
X38423000Y6306000D02*
G75*
G03*
X38423000Y6306000I-12000J0D01*
G01*
D11*
X17220000Y-6913641D02*
X17220000Y-6606359D01*
X17980000Y-6913641D02*
X17980000Y-6606359D01*
D12*
X29140000Y3000000D02*
G75*
G03*
X29140000Y3000000I-50000J0D01*
G01*
D14*
X37400000Y-5100000D02*
X37400000Y-5500000D01*
X38600000Y-5100000D02*
X38600000Y-5500000D01*
X37601000Y-6306000D02*
G75*
G03*
X37601000Y-6306000I-12000J0D01*
G01*
D12*
X27140000Y3000000D02*
G75*
G03*
X27140000Y3000000I-50000J0D01*
G01*
D11*
X22959420Y6610000D02*
X23240580Y6610000D01*
X22959420Y5590000D02*
X23240580Y5590000D01*
D12*
X39140000Y3000000D02*
G75*
G03*
X39140000Y3000000I-50000J0D01*
G01*
X37140000Y3000000D02*
G75*
G03*
X37140000Y3000000I-50000J0D01*
G01*
D11*
X38153641Y3620000D02*
X37846359Y3620000D01*
X38153641Y4380000D02*
X37846359Y4380000D01*
X43110000Y-5734420D02*
X43110000Y-6015580D01*
X42090000Y-5734420D02*
X42090000Y-6015580D01*
D14*
X27400000Y-5100000D02*
X27400000Y-5500000D01*
X28600000Y-5100000D02*
X28600000Y-5500000D01*
X27601000Y-6306000D02*
G75*
G03*
X27601000Y-6306000I-12000J0D01*
G01*
D12*
X2008000Y8900000D02*
G75*
G03*
X2008000Y8900000I-50000J0D01*
G01*
D11*
X36153641Y3620000D02*
X35846359Y3620000D01*
X36153641Y4380000D02*
X35846359Y4380000D01*
M02*
