<?xml version="1.0" encoding="UTF-8" standalone="no"?>
<svg id="logo" width="100mm" height="100mm" viewBox="0 0 100 100" version="1.1" xmlns="http://www.w3.org/2000/svg" xmlns:svg="http://www.w3.org/2000/svg">
	<rect class="box" id="box_0" transform="scale(1,1) translate(1, 1)" x="30.111000" y="41.584000" height="13" width="13" style="fill:#0;fill-opacity:1;stroke:#FFFFFF;stroke-width:1;stroke-linecap:round;stroke-linejoin:miter;stroke-miterlimit:4;stroke-opacity:1"/>
	<rect class="box" id="box_1" transform="scale(1,1) translate(1, 1)" x="43.056000" y="44.334000" height="13" width="13" style="fill:#0;fill-opacity:1;stroke:#FFFFFF;stroke-width:1;stroke-linecap:round;stroke-linejoin:miter;stroke-miterlimit:4;stroke-opacity:1"/>
	<rect class="box" id="box_2" transform="scale(1,1) translate(1, 1)" x="45.286000" y="35.310000" height="13" width="13" style="fill:#0;fill-opacity:1;stroke:#FFFFFF;stroke-width:1;stroke-linecap:round;stroke-linejoin:miter;stroke-miterlimit:4;stroke-opacity:1"/>
	<rect class="box" id="box_3" transform="scale(1,1) translate(1, 1)" x="56.432000" y="40.647000" height="13" width="13" style="fill:#0;fill-opacity:1;stroke:#FFFFFF;stroke-width:1;stroke-linecap:round;stroke-linejoin:miter;stroke-miterlimit:4;stroke-opacity:1"/>
	<rect class="box" id="box_4" transform="scale(1,1) translate(1, 1)" x="60.730000" y="35.965000" height="13" width="13" style="fill:#0;fill-opacity:1;stroke:#FFFFFF;stroke-width:1;stroke-linecap:round;stroke-linejoin:miter;stroke-miterlimit:4;stroke-opacity:1"/>
	<rect class="box" id="box_5" transform="scale(1,1) translate(1, 1)" x="68.113000" y="43.989000" height="13" width="13" style="fill:#0;fill-opacity:1;stroke:#FFFFFF;stroke-width:1;stroke-linecap:round;stroke-linejoin:miter;stroke-miterlimit:4;stroke-opacity:1"/>
	<rect class="box" id="box_6" transform="scale(1,1) translate(1, 1)" x="71.266000" y="33.164000" height="13" width="13" style="fill:#0;fill-opacity:1;stroke:#FFFFFF;stroke-width:1;stroke-linecap:round;stroke-linejoin:miter;stroke-miterlimit:4;stroke-opacity:1"/>
	<rect class="box" id="box_7" transform="scale(1,1) translate(1, 1)" x="67.657000" y="25.546000" height="13" width="13" style="fill:#0;fill-opacity:1;stroke:#FFFFFF;stroke-width:1;stroke-linecap:round;stroke-linejoin:miter;stroke-miterlimit:4;stroke-opacity:1"/>
	<rect class="box" id="box_8" transform="scale(1,1) translate(1, 1)" x="62.446000" y="21.072000" height="13" width="13" style="fill:#0;fill-opacity:1;stroke:#FFFFFF;stroke-width:1;stroke-linecap:round;stroke-linejoin:miter;stroke-miterlimit:4;stroke-opacity:1"/>
	<rect class="box" id="box_9" transform="scale(1,1) translate(1, 1)" x="57.531000" y="17.127000" height="13" width="13" style="fill:#0;fill-opacity:1;stroke:#FFFFFF;stroke-width:1;stroke-linecap:round;stroke-linejoin:miter;stroke-miterlimit:4;stroke-opacity:1"/>
	<rect class="box" id="box_10" transform="scale(1,1) translate(1, 1)" x="48.949000" y="15.257000" height="13" width="13" style="fill:#0;fill-opacity:1;stroke:#FFFFFF;stroke-width:1;stroke-linecap:round;stroke-linejoin:miter;stroke-miterlimit:4;stroke-opacity:1"/>
	<rect class="box" id="box_11" transform="scale(1,1) translate(1, 1)" x="54.655000" y="27.685000" height="13" width="13" style="fill:#0;fill-opacity:1;stroke:#FFFFFF;stroke-width:1;stroke-linecap:round;stroke-linejoin:miter;stroke-miterlimit:4;stroke-opacity:1"/>
	<rect class="box" id="box_12" transform="scale(1,1) translate(1, 1)" x="44.271000" y="24.076000" height="13" width="13" style="fill:#0;fill-opacity:1;stroke:#FFFFFF;stroke-width:1;stroke-linecap:round;stroke-linejoin:miter;stroke-miterlimit:4;stroke-opacity:1"/>
	<rect class="box" id="box_13" transform="scale(1,1) translate(1, 1)" x="39.460000" y="14.321000" height="13" width="13" style="fill:#0;fill-opacity:1;stroke:#FFFFFF;stroke-width:1;stroke-linecap:round;stroke-linejoin:miter;stroke-miterlimit:4;stroke-opacity:1"/>
	<rect class="box" id="box_14" transform="scale(1,1) translate(1, 1)" x="29.438000" y="16.326000" height="13" width="13" style="fill:#0;fill-opacity:1;stroke:#FFFFFF;stroke-width:1;stroke-linecap:round;stroke-linejoin:miter;stroke-miterlimit:4;stroke-opacity:1"/>
	<rect class="box" id="box_15" transform="scale(1,1) translate(1, 1)" x="34.347000" y="25.727000" height="13" width="13" style="fill:#0;fill-opacity:1;stroke:#FFFFFF;stroke-width:1;stroke-linecap:round;stroke-linejoin:miter;stroke-miterlimit:4;stroke-opacity:1"/>
	<rect class="box" id="box_16" transform="scale(1,1) translate(1, 1)" x="28.536000" y="29.956000" height="13" width="13" style="fill:#0;fill-opacity:1;stroke:#FFFFFF;stroke-width:1;stroke-linecap:round;stroke-linejoin:miter;stroke-miterlimit:4;stroke-opacity:1"/>
	<rect class="box" id="box_17" transform="scale(1,1) translate(1, 1)" x="21.519000" y="18.998000" height="13" width="13" style="fill:#0;fill-opacity:1;stroke:#FFFFFF;stroke-width:1;stroke-linecap:round;stroke-linejoin:miter;stroke-miterlimit:4;stroke-opacity:1"/>
	<rect class="box" id="box_18" transform="scale(1,1) translate(1, 1)" x="15.807000" y="23.943000" height="13" width="13" style="fill:#0;fill-opacity:1;stroke:#FFFFFF;stroke-width:1;stroke-linecap:round;stroke-linejoin:miter;stroke-miterlimit:4;stroke-opacity:1"/>
	<rect class="box" id="box_19" transform="scale(1,1) translate(1, 1)" x="12.733000" y="29.422000" height="13" width="13" style="fill:#0;fill-opacity:1;stroke:#FFFFFF;stroke-width:1;stroke-linecap:round;stroke-linejoin:miter;stroke-miterlimit:4;stroke-opacity:1"/>
	<rect class="box" id="box_20" transform="scale(1,1) translate(1, 1)" x="15.807000" y="35.970000" height="13" width="13" style="fill:#0;fill-opacity:1;stroke:#FFFFFF;stroke-width:1;stroke-linecap:round;stroke-linejoin:miter;stroke-miterlimit:4;stroke-opacity:1"/>
	<rect class="box" id="box_21" transform="scale(1,1) translate(1, 1)" x="48.552000" y="51.343000" height="13" width="13" style="fill:#0;fill-opacity:1;stroke:#FFFFFF;stroke-width:1;stroke-linecap:round;stroke-linejoin:miter;stroke-miterlimit:4;stroke-opacity:1"/>
	<rect class="box" id="box_22" transform="scale(1,1) translate(1, 1)" x="64.787000" y="48.932000" height="13" width="13" style="fill:#0;fill-opacity:1;stroke:#FFFFFF;stroke-width:1;stroke-linecap:round;stroke-linejoin:miter;stroke-miterlimit:4;stroke-opacity:1"/>
	<rect class="box" id="box_23" transform="scale(1,1) translate(1, 1)" x="55.365000" y="53.845000" height="13" width="13" style="fill:#0;fill-opacity:1;stroke:#FFFFFF;stroke-width:1;stroke-linecap:round;stroke-linejoin:miter;stroke-miterlimit:4;stroke-opacity:1"/>
	<rect class="box" id="box_24" transform="scale(1,1) translate(1, 1)" x="60.080000" y="59.678000" height="13" width="13" style="fill:#0;fill-opacity:1;stroke:#FFFFFF;stroke-width:1;stroke-linecap:round;stroke-linejoin:miter;stroke-miterlimit:4;stroke-opacity:1"/>
	<rect class="box" id="box_25" transform="scale(1,1) translate(1, 1)" x="32.286000" y="35.310000" height="13" width="13" style="fill:#0;fill-opacity:1;stroke:#FFFFFF;stroke-width:1;stroke-linecap:round;stroke-linejoin:miter;stroke-miterlimit:4;stroke-opacity:1"/>
	<rect class="box" id="box_26" transform="scale(1,1) translate(1, 1)" x="22.050000" y="38.814000" height="13" width="13" style="fill:#0;fill-opacity:1;stroke:#FFFFFF;stroke-width:1;stroke-linecap:round;stroke-linejoin:miter;stroke-miterlimit:4;stroke-opacity:1"/>
	<rect class="box" id="box_27" transform="scale(1,1) translate(1, 1)" x="22.050000" y="38.814000" height="13" width="13" style="fill:#0;fill-opacity:1;stroke:#FFFFFF;stroke-width:1;stroke-linecap:round;stroke-linejoin:miter;stroke-miterlimit:4;stroke-opacity:1"/>
	<text class= "text" id="nbb" x="10.5" y="86.5" style="font-style:normal;font-weight:bold;font-size:9.5;line-height:1.25;font-family:'Liberation Mono';white-space:pre;display:inline;fill:#ffffff;fill-opacity:1;stroke:none">The Last Black Box</text>
</svg>