999
dxfrw 0.6.3
  0
SECTION
  2
HEADER
  9
$ACADVER
  1
AC1009
  9
$DWGCODEPAGE
  3
ANSI_1252
  9
$INSBASE
 10
0
 20
0
 30
0
  9
$EXTMIN
 10
-100
 20
-1.110223024625157e-16
 30
0
  9
$EXTMAX
 10
100
 20
199.4592497241733
 30
0
  9
$LIMMIN
 10
0
 20
0
  9
$LIMMAX
 10
420
 20
297
  9
$ORTHOMODE
 70
    0
  9
$REGENMODE
 70
    1
  9
$FILLMODE
 70
    1
  9
$QTEXTMODE
 70
    0
  9
$MIRRTEXT
 70
    0
  9
$DRAGMODE
 70
    2
  9
$LTSCALE
 40
1
  9
$OSMODE
 70
    0
  9
$ATTMODE
 70
    0
  9
$TEXTSIZE
 40
2.5
  9
$TRACEWID
 40
15.68
  9
$TEXTSTYLE
  7
STANDARD
  9
$CLAYER
  8
0
  9
$CELTYPE
  6
BYLAYER
  9
$CECOLOR
 62
  256
  9
$DIMSCALE
 40
1
  9
$DIMASZ
 40
2.5
  9
$DIMEXO
 40
0.625
  9
$DIMDLI
 40
3.75
  9
$DIMRND
 40
0
  9
$DIMDLE
 40
0
  9
$DIMEXE
 40
1.25
  9
$DIMTP
 40
0
  9
$DIMTM
 40
0
  9
$DIMTXT
 40
2.5
  9
$DIMCEN
 40
2.5
  9
$DIMTSZ
 40
0
  9
$DIMTOL
 70
    0
  9
$DIMLIM
 70
    0
  9
$DIMTIH
 70
    0
  9
$DIMTOH
 70
    0
  9
$DIMSE1
 70
    0
  9
$DIMSE2
 70
    0
  9
$DIMTAD
 70
    1
  9
$DIMZIN
 70
    8
  9
$DIMBLK
  1

  9
$DIMASO
 70
    1
  9
$DIMSHO
 70
    1
  9
$DIMPOST
  1

  9
$DIMAPOST
  1

  9
$DIMALT
 70
    0
  9
$DIMALTD
 70
    3
  9
$DIMALTF
 40
0.03937
  9
$DIMLFAC
 40
1
  9
$DIMTOFL
 70
    1
  9
$DIMTVP
 40
0
  9
$DIMTIX
 70
    0
  9
$DIMSOXD
 70
    0
  9
$DIMSAH
 70
    0
  9
$DIMBLK1
  1

  9
$DIMBLK2
  1

  9
$DIMSTYLE
  2
STANDARD
  9
$DIMCLRD
 70
    0
  9
$DIMCLRE
 70
    0
  9
$DIMCLRT
 70
    0
  9
$DIMTFAC
 40
1
  9
$DIMGAP
 40
0.625
  9
$LUNITS
 70
    2
  9
$LUPREC
 70
    4
  9
$SKETCHINC
 40
1
  9
$FILLETRAD
 40
0
  9
$AUNITS
 70
    0
  9
$AUPREC
 70
    2
  9
$MENU
  1
.
  9
$ELEVATION
 40
0
  9
$PELEVATION
 40
0
  9
$THICKNESS
 40
0
  9
$LIMCHECK
 70
    0
  9
$BLIPMODE
 70
    0
  9
$CHAMFERA
 40
0
  9
$CHAMFERB
 40
0
  9
$SKPOLY
 70
    0
  9
$USRTIMER
 70
    1
  9
$ANGBASE
 50
0
  9
$ANGDIR
 70
    0
  9
$PDMODE
 70
   34
  9
$PDSIZE
 40
0
  9
$PLINEWID
 40
0
  9
$COORDS
 70
    2
  9
$SPLFRAME
 70
    0
  9
$SPLINETYPE
 70
    2
  9
$SPLINESEGS
 70
    8
  9
$ATTDIA
 70
    1
  9
$ATTREQ
 70
    1
  9
$HANDLING
 70
    1
  9
$HANDSEED
  5
20000
  9
$SURFTAB1
 70
    6
  9
$SURFTAB2
 70
    6
  9
$SURFTYPE
 70
    6
  9
$SURFU
 70
    6
  9
$SURFV
 70
    6
  9
$UCSNAME
  2

  9
$UCSORG
 10
0
 20
0
 30
0
  9
$UCSXDIR
 10
1
 20
0
 30
0
  9
$UCSYDIR
 10
0
 20
1
 30
0
  9
$PUCSNAME
  2

  9
$PUCSORG
 10
0
 20
0
 30
0
  9
$PUCSXDIR
 10
1
 20
0
 30
0
  9
$PUCSYDIR
 10
0
 20
1
 30
0
  9
$USERI1
 70
    0
  9
$USERI2
 70
    0
  9
$USERI3
 70
    0
  9
$USERI4
 70
    0
  9
$USERI5
 70
    0
  9
$USERR1
 40
0
  9
$USERR2
 40
0
  9
$USERR3
 40
0
  9
$USERR4
 40
0
  9
$USERR5
 40
0
  9
$WORLDVIEW
 70
    1
  9
$SHADEDGE
 70
    3
  9
$SHADEDIF
 70
   70
  9
$TILEMODE
 70
    1
  9
$MAXACTVP
 70
   64
  9
$PLIMCHECK
 70
    0
  9
$PEXTMIN
 10
0
 20
0
 30
0
  9
$PEXTMAX
 10
0
 20
0
 30
0
  9
$GRIDMODE
 70
    1
  9
$SNAPSTYLE
 70
    0
  9
$PLIMMIN
 10
0
 20
0
  9
$PLIMMAX
 10
297
 20
210
  9
$UNITMODE
 70
    0
  9
$VISRETAIN
 70
    1
  9
$PLINEGEN
 70
    0
  9
$PSLTSCALE
 70
    1
  0
ENDSEC
  0
SECTION
  2
TABLES
  0
TABLE
  2
VPORT
 70
    1
  0
VPORT
  2
*ACTIVE
 70
    0
 10
0
 20
0
 11
1
 21
1
 12
182.2816120122961
 22
122.2290894107876
 13
0
 23
0
 14
10
 24
10
 15
10
 25
10
 16
0
 26
0
 36
1
 17
0
 27
0
 37
0
 40
303.9314166391463
 41
2.349428208386277
 42
50
 43
0
 44
0
 50
0
 51
0
 71
    0
 72
  100
 73
    1
 74
    3
 75
    0
 76
    1
 77
    0
 78
    0
  0
ENDTAB
  0
TABLE
  2
LTYPE
 70
    4
  0
LTYPE
  2
BYBLOCK
 70
    0
  3

 72
   65
 73
    0
 40
0
  0
LTYPE
  2
BYLAYER
 70
    0
  3

 72
   65
 73
    0
 40
0
  0
LTYPE
  2
CONTINUOUS
 70
    0
  3
Solid line
 72
   65
 73
    0
 40
0
  0
LTYPE
  2
DOT
 70
    0
  3
Dot . . . . . . . . . . . . . . . . . . . . . .
 72
   65
 73
    2
 40
6.35
 49
0
 49
-6.35
  0
LTYPE
  2
DOTTINY
 70
    0
  3
Dot (.15x) .....................................
 72
   65
 73
    2
 40
0.9525
 49
0
 49
-0.9525
  0
LTYPE
  2
DOT2
 70
    0
  3
Dot (.5x) .....................................
 72
   65
 73
    2
 40
3.175
 49
0
 49
-3.175
  0
LTYPE
  2
DOTX2
 70
    0
  3
Dot (2x) .  .  .  .  .  .  .  .  .  .  .  .  .
 72
   65
 73
    2
 40
12.7
 49
0
 49
-12.7
  0
LTYPE
  2
DASHED
 70
    0
  3
Dashed _ _ _ _ _ _ _ _ _ _ _ _ _ _ _ _ _
 72
   65
 73
    2
 40
19.05
 49
12.7
 49
-6.35
  0
LTYPE
  2
DASHEDTINY
 70
    0
  3
Dashed (.15x) _ _ _ _ _ _ _ _ _ _ _ _ _ _ _ _ _
 72
   65
 73
    2
 40
2.8575
 49
1.905
 49
-0.9525
  0
LTYPE
  2
DASHED2
 70
    0
  3
Dashed (.5x) _ _ _ _ _ _ _ _ _ _ _ _ _ _ _ _ _
 72
   65
 73
    2
 40
9.524999999999999
 49
6.35
 49
-3.175
  0
LTYPE
  2
DASHEDX2
 70
    0
  3
Dashed (2x) ____  ____  ____  ____  ____  ___
 72
   65
 73
    2
 40
38.09999999999999
 49
25.4
 49
-12.7
  0
LTYPE
  2
DASHDOT
 70
    0
  3
Dash dot __ . __ . __ . __ . __ . __ . __ . __
 72
   65
 73
    4
 40
25.4
 49
12.7
 49
-6.35
 49
0
 49
-6.35
  0
LTYPE
  2
DASHDOTTINY
 70
    0
  3
Dash dot (.15x) _._._._._._._._._._._._._._._.
 72
   65
 73
    4
 40
3.81
 49
1.905
 49
-0.9525
 49
0
 49
-0.9525
  0
LTYPE
  2
DASHDOT2
 70
    0
  3
Dash dot (.5x) _._._._._._._._._._._._._._._.
 72
   65
 73
    4
 40
12.7
 49
6.35
 49
-3.175
 49
0
 49
-3.175
  0
LTYPE
  2
DASHDOTX2
 70
    0
  3
Dash dot (2x) ____  .  ____  .  ____  .  ___
 72
   65
 73
    4
 40
50.8
 49
25.4
 49
-12.7
 49
0
 49
-12.7
  0
LTYPE
  2
DIVIDE
 70
    0
  3
Divide ____ . . ____ . . ____ . . ____ . . ____
 72
   65
 73
    6
 40
31.75
 49
12.7
 49
-6.35
 49
0
 49
-6.35
 49
0
 49
-6.35
  0
LTYPE
  2
DIVIDETINY
 70
    0
  3
Divide (.15x) __..__..__..__..__..__..__..__.._
 72
   65
 73
    6
 40
4.7625
 49
1.905
 49
-0.9525
 49
0
 49
-0.9525
 49
0
 49
-0.9525
  0
LTYPE
  2
DIVIDE2
 70
    0
  3
Divide (.5x) __..__..__..__..__..__..__..__.._
 72
   65
 73
    6
 40
15.875
 49
6.35
 49
-3.175
 49
0
 49
-3.175
 49
0
 49
-3.175
  0
LTYPE
  2
DIVIDEX2
 70
    0
  3
Divide (2x) ________  .  .  ________  .  .  _
 72
   65
 73
    6
 40
63.5
 49
25.4
 49
-12.7
 49
0
 49
-12.7
 49
0
 49
-12.7
  0
LTYPE
  2
BORDER
 70
    0
  3
Border __ __ . __ __ . __ __ . __ __ . __ __ .
 72
   65
 73
    6
 40
44.45
 49
12.7
 49
-6.35
 49
12.7
 49
-6.35
 49
0
 49
-6.35
  0
LTYPE
  2
BORDERTINY
 70
    0
  3
Border (.15x) __.__.__.__.__.__.__.__.__.__.__.
 72
   65
 73
    6
 40
6.6675
 49
1.905
 49
-0.9525
 49
1.905
 49
-0.9525
 49
0
 49
-0.9525
  0
LTYPE
  2
BORDER2
 70
    0
  3
Border (.5x) __.__.__.__.__.__.__.__.__.__.__.
 72
   65
 73
    6
 40
22.225
 49
6.35
 49
-3.175
 49
6.35
 49
-3.175
 49
0
 49
-3.175
  0
LTYPE
  2
BORDERX2
 70
    0
  3
Border (2x) ____  ____  .  ____  ____  .  ___
 72
   65
 73
    6
 40
88.89999999999999
 49
25.4
 49
-12.7
 49
25.4
 49
-12.7
 49
0
 49
-12.7
  0
LTYPE
  2
CENTER
 70
    0
  3
Center ____ _ ____ _ ____ _ ____ _ ____ _ ____
 72
   65
 73
    4
 40
50.8
 49
31.75
 49
-6.35
 49
6.35
 49
-6.35
  0
LTYPE
  2
CENTERTINY
 70
    0
  3
Center (.15x) ___ _ ___ _ ___ _ ___ _ ___ _ ___
 72
   65
 73
    4
 40
7.619999999999999
 49
4.7625
 49
-0.9525
 49
0.9525
 49
-0.9525
  0
LTYPE
  2
CENTER2
 70
    0
  3
Center (.5x) ___ _ ___ _ ___ _ ___ _ ___ _ ___
 72
   65
 73
    4
 40
28.575
 49
19.05
 49
-3.175
 49
3.175
 49
-3.175
  0
LTYPE
  2
CENTERX2
 70
    0
  3
Center (2x) ________  __  ________  __  _____
 72
   65
 73
    4
 40
101.6
 49
63.5
 49
-12.7
 49
12.7
 49
-12.7
  0
ENDTAB
  0
TABLE
  2
LAYER
 70
    1
  0
LAYER
  2
0
 70
    0
 62
    7
  6
CONTINUOUS
  0
LAYER
  2
ARDUINO_NANO3_0
 70
    0
 62
    7
  6
CONTINUOUS
  0
LAYER
  2
BOARD_OUTLINE
 70
    0
 62
   85
  6
CONTINUOUS
  0
LAYER
  2
PARTS_BOTTOM
 70
    0
 62
   12
  6
CONTINUOUS
  0
LAYER
  2
PARTS_TOP
 70
    0
 62
  111
  6
CONTINUOUS
  0
LAYER
  2
PINS_BOTTOM
 70
    0
 62
    5
  6
CONTINUOUS
  0
LAYER
  2
PINS_TOP
 70
    0
 62
    1
  6
CONTINUOUS
  0
LAYER
  2
SILK_BOTTOM
 70
    0
 62
   85
  6
CONTINUOUS
  0
LAYER
  2
SILK_TOP
 70
    0
 62
   85
  6
CONTINUOUS
  0
ENDTAB
  0
TABLE
  2
STYLE
 70
    3
  0
STYLE
  2
STANDARD
 70
    0
 40
0
 41
1
 50
0
 71
    0
 42
1
  3
TXT
  4

  0
ENDTAB
  0
TABLE
  2
VIEW
 70
    0
  0
ENDTAB
  0
TABLE
  2
UCS
 70
    0
  0
ENDTAB
  0
TABLE
  2
APPID
 70
    1
  0
APPID
  2
ACAD
 70
    0
  0
APPID
  2
LIBRECAD
 70
    0
  0
ENDTAB
  0
TABLE
  2
DIMSTYLE
 70
    1
  0
DIMSTYLE
  2
STANDARD
 70
    0
  3

  4

  5

  6

  7

 40
1
 41
2.5
 42
0.625
 43
0.38
 44
1.25
 45
0
 46
0
 47
0
 48
0
 49
1
140
2.5
141
0.09
142
0
143
25.4
144
1
145
0
146
1
147
0.625
 71
    0
 72
    0
 73
    0
 74
    1
 75
    0
 76
    0
 77
    0
 78
    8
170
    0
171
    2
172
    0
173
    0
174
    0
175
    0
176
    0
177
    0
178
    0
  0
ENDTAB
  0
ENDSEC
  0
SECTION
  2
BLOCKS
  0
BLOCK
  8
0
  2
$MODEL_SPACE
 70
    0
 10
0
 20
0
 30
0
  3
$MODEL_SPACE
  1

  0
ENDBLK
  8
0
  0
BLOCK
  8
0
  2
$PAPER_SPACE
 70
    0
 10
0
 20
0
 30
0
  3
$PAPER_SPACE
  1

  0
ENDBLK
  8
0
  0
ENDSEC
  0
SECTION
  2
ENTITIES
  0
CIRCLE
  5
31
  8
0
  6
BYLAYER
 62
    7
 10
0
 20
185
 40
11.40000000000001
  0
CIRCLE
  5
32
  8
0
  6
BYLAYER
 62
    7
 10
-24.5
 20
178
 40
1.300000000000011
  0
CIRCLE
  5
33
  8
0
  6
BYLAYER
 62
    7
 10
24.5
 20
178
 40
1.300000000000011
  0
CIRCLE
  5
34
  8
0
  6
BYLAYER
 62
    7
 10
-24.5
 20
178
 40
1.300000000000011
  0
CIRCLE
  5
35
  8
0
  6
BYLAYER
 62
    7
 10
24.5
 20
178
 40
1.300000000000011
  0
CIRCLE
  5
36
  8
0
  6
BYLAYER
 62
    7
 10
-24.5
 20
120
 40
1.300000000000011
  0
CIRCLE
  5
37
  8
0
  6
BYLAYER
 62
    7
 10
-24.5
 20
120
 40
1.300000000000011
  0
LINE
  5
38
  8
0
  6
BYLAYER
 62
    7
 10
-48
 20
56
 11
-48
 21
10
  0
LINE
  5
39
  8
0
  6
BYLAYER
 62
    7
 10
-57
 20
131
 11
-57
 21
85
  0
LINE
  5
3A
  8
0
  6
BYLAYER
 62
    7
 10
48
 20
56
 11
48
 21
10
  0
LINE
  5
3B
  8
0
  6
BYLAYER
 62
    7
 10
57
 20
131
 11
57
 21
85
  0
LINE
  5
3C
  8
0
  6
BYLAYER
 62
    7
 10
-100
 20
19
 11
-100
 21
36
  0
POLYLINE
  5
3D
  8
0
  6
BYLAYER
 62
    7
 66
    1
 10
0
 20
0
 30
0
 70
    0
  0
VERTEX
  5
3E
  8
0
  6
BYLAYER
 62
    7
 10
0
 20
197
 30
0
  0
VERTEX
  5
3F
  8
0
  6
BYLAYER
 62
    7
 10
-3.364185272539189
 20
197.8024156221861
 30
0
  0
VERTEX
  5
40
  8
0
  6
BYLAYER
 62
    7
 10
-6.658904530281905
 20
198.4478149771093
 30
0
  0
VERTEX
  5
41
  8
0
  6
BYLAYER
 62
    7
 10
-9.884157773228146
 20
198.9361980647696
 30
0
  0
VERTEX
  5
42
  8
0
  6
BYLAYER
 62
    7
 10
-13.03994500137792
 20
199.267564885167
 30
0
  0
VERTEX
  5
43
  8
0
  6
BYLAYER
 62
    7
 10
-16.12626621473121
 20
199.4419154383016
 30
0
  0
VERTEX
  5
44
  8
0
  6
BYLAYER
 62
    7
 10
-19.14312141328803
 20
199.4592497241733
 30
0
  0
VERTEX
  5
45
  8
0
  6
BYLAYER
 62
    7
 10
-22.09051059704838
 20
199.3195677427821
 30
0
  0
VERTEX
  5
46
  8
0
  6
BYLAYER
 62
    7
 10
-24.96843376601225
 20
199.0228694941281
 30
0
  0
VERTEX
  5
47
  8
0
  6
BYLAYER
 62
    7
 10
-27.75365170136097
 20
198.6109320660259
 30
0
  0
VERTEX
  5
48
  8
0
  6
BYLAYER
 62
    7
 10
-30.42292518427583
 20
198.1255325462903
 30
0
  0
VERTEX
  5
49
  8
0
  6
BYLAYER
 62
    7
 10
-32.97625421475684
 20
197.5666709349213
 30
0
  0
VERTEX
  5
4A
  8
0
  6
BYLAYER
 62
    7
 10
-35.41363879280402
 20
196.9343472319189
 30
0
  0
VERTEX
  5
4B
  8
0
  6
BYLAYER
 62
    7
 10
-37.73507891841733
 20
196.2285614372831
 30
0
  0
VERTEX
  5
4C
  8
0
  6
BYLAYER
 62
    7
 10
-39.9405745915968
 20
195.4493135510138
 30
0
  0
VERTEX
  5
4D
  8
0
  6
BYLAYER
 62
    7
 10
-42.03012581234243
 20
194.5966035731112
 30
0
  0
VERTEX
  5
4E
  8
0
  6
BYLAYER
 62
    7
 10
-44.0037325806542
 20
193.6704315035751
 30
0
  0
VERTEX
  5
4F
  8
0
  6
BYLAYER
 62
    7
 10
-45.88222066144527
 20
192.6676237808185
 30
0
  0
VERTEX
  5
50
  8
0
  6
BYLAYER
 62
    7
 10
-47.68641581962876
 20
191.5850068432542
 30
0
  0
VERTEX
  5
51
  8
0
  6
BYLAYER
 62
    7
 10
-49.41631805520468
 20
190.4225806908823
 30
0
  0
VERTEX
  5
52
  8
0
  6
BYLAYER
 62
    7
 10
-51.07192736817304
 20
189.1803453237027
 30
0
  0
VERTEX
  5
53
  8
0
  6
BYLAYER
 62
    7
 10
-52.65324375853383
 20
187.8583007417154
 30
0
  0
VERTEX
  5
54
  8
0
  6
BYLAYER
 62
    7
 10
-54.16026722628703
 20
186.4564469449205
 30
0
  0
VERTEX
  5
55
  8
0
  6
BYLAYER
 62
    7
 10
-55.59299777143268
 20
184.9747839333179
 30
0
  0
VERTEX
  5
56
  8
0
  6
BYLAYER
 62
    7
 10
-56.95143539397075
 20
183.4133117069076
 30
0
  0
VERTEX
  5
57
  8
0
  6
BYLAYER
 62
    7
 10
-58.18091164086538
 20
181.7440740581209
 30
0
  0
VERTEX
  5
58
  8
0
  6
BYLAYER
 62
    7
 10
-59.22675805908069
 20
179.9391147793889
 30
0
  0
VERTEX
  5
59
  8
0
  6
BYLAYER
 62
    7
 10
-60.0889746486167
 20
177.9984338707116
 30
0
  0
VERTEX
  5
5A
  8
0
  6
BYLAYER
 62
    7
 10
-60.76756140947339
 20
175.9220313320891
 30
0
  0
VERTEX
  5
5B
  8
0
  6
BYLAYER
 62
    7
 10
-61.26251834165075
 20
173.7099071635214
 30
0
  0
VERTEX
  5
5C
  8
0
  6
BYLAYER
 62
    7
 10
-61.57384544514879
 20
171.3620613650084
 30
0
  0
VERTEX
  5
5D
  8
0
  6
BYLAYER
 62
    7
 10
-61.70154271996753
 20
168.8784939365501
 30
0
  0
VERTEX
  5
5E
  8
0
  6
BYLAYER
 62
    7
 10
-61.64561016610695
 20
166.2592048781466
 30
0
  0
VERTEX
  5
5F
  8
0
  6
BYLAYER
 62
    7
 10
-61.29234560707037
 20
163.6428209537601
 30
0
  0
VERTEX
  5
60
  8
0
  6
BYLAYER
 62
    7
 10
-60.52804686636112
 20
161.1679689273526
 30
0
  0
VERTEX
  5
61
  8
0
  6
BYLAYER
 62
    7
 10
-59.35271394397923
 20
158.8346487989242
 30
0
  0
VERTEX
  5
62
  8
0
  6
BYLAYER
 62
    7
 10
-57.76634683992466
 20
156.642860568475
 30
0
  0
VERTEX
  5
63
  8
0
  6
BYLAYER
 62
    7
 10
-55.76894555419742
 20
154.5926042360049
 30
0
  0
VERTEX
  5
64
  8
0
  6
BYLAYER
 62
    7
 10
-53.3605100867975
 20
152.6838798015139
 30
0
  0
VERTEX
  5
65
  8
0
  6
BYLAYER
 62
    7
 10
-50.54104043772494
 20
150.9166872650021
 30
0
  0
VERTEX
  5
66
  8
0
  6
BYLAYER
 62
    7
 10
-47.3105366069797
 20
149.2910266264693
 30
0
  0
SEQEND
  5
67
  8
0
  6
BYLAYER
 62
    7
  0
POLYLINE
  5
68
  8
0
  6
BYLAYER
 62
    7
 66
    1
 10
0
 20
0
 30
0
 70
    0
  0
VERTEX
  5
69
  8
0
  6
BYLAYER
 62
    7
 10
-47.3105366069797
 20
149.2910266264693
 30
0
  0
VERTEX
  5
6A
  8
0
  6
BYLAYER
 62
    7
 10
-51.67157591529424
 20
148.8399482990534
 30
0
  0
VERTEX
  5
6B
  8
0
  6
BYLAYER
 62
    7
 10
-55.81731300652589
 20
148.069002545047
 30
0
  0
VERTEX
  5
6C
  8
0
  6
BYLAYER
 62
    7
 10
-59.74774788067462
 20
146.9781893644499
 30
0
  0
VERTEX
  5
6D
  8
0
  6
BYLAYER
 62
    7
 10
-63.46288053774047
 20
145.5675087572621
 30
0
  0
VERTEX
  5
6E
  8
0
  6
BYLAYER
 62
    7
 10
-66.9627109777234
 20
143.8369607234837
 30
0
  0
VERTEX
  5
6F
  8
0
  6
BYLAYER
 62
    7
 10
-70.24723920062343
 20
141.7865452631147
 30
0
  0
VERTEX
  5
70
  8
0
  6
BYLAYER
 62
    7
 10
-73.31646520644057
 20
139.416262376155
 30
0
  0
VERTEX
  5
71
  8
0
  6
BYLAYER
 62
    7
 10
-76.17038899517479
 20
136.7261120626046
 30
0
  0
VERTEX
  5
72
  8
0
  6
BYLAYER
 62
    7
 10
-78.77388462612578
 20
133.8197626561255
 30
0
  0
VERTEX
  5
73
  8
0
  6
BYLAYER
 62
    7
 10
-81.09182615859312
 20
130.8008824903794
 30
0
  0
VERTEX
  5
74
  8
0
  6
BYLAYER
 62
    7
 10
-83.12421359257688
 20
127.6694715653663
 30
0
  0
VERTEX
  5
75
  8
0
  6
BYLAYER
 62
    7
 10
-84.87104692807702
 20
124.4255298810863
 30
0
  0
VERTEX
  5
76
  8
0
  6
BYLAYER
 62
    7
 10
-86.33232616509356
 20
121.0690574375393
 30
0
  0
VERTEX
  5
77
  8
0
  6
BYLAYER
 62
    7
 10
-87.5080513036265
 20
117.6000542347253
 30
0
  0
VERTEX
  5
78
  8
0
  6
BYLAYER
 62
    7
 10
-88.39822234367583
 20
114.0185202726444
 30
0
  0
VERTEX
  5
79
  8
0
  6
BYLAYER
 62
    7
 10
-89.00283928524155
 20
110.3244555512965
 30
0
  0
VERTEX
  5
7A
  8
0
  6
BYLAYER
 62
    7
 10
-89.3026916349142
 20
106.5879759737146
 30
0
  0
VERTEX
  5
7B
  8
0
  6
BYLAYER
 62
    7
 10
-89.27856889928432
 20
102.879197442932
 30
0
  0
VERTEX
  5
7C
  8
0
  6
BYLAYER
 62
    7
 10
-88.9304710783519
 20
99.1981199589484
 30
0
  0
VERTEX
  5
7D
  8
0
  6
BYLAYER
 62
    7
 10
-88.25839817211696
 20
95.54474352176395
 30
0
  0
VERTEX
  5
7E
  8
0
  6
BYLAYER
 62
    7
 10
-87.26235018057949
 20
91.91906813137862
 30
0
  0
VERTEX
  5
7F
  8
0
  6
BYLAYER
 62
    7
 10
-85.9423271037395
 20
88.32109378779244
 30
0
  0
VERTEX
  5
80
  8
0
  6
BYLAYER
 62
    7
 10
-84.29832894159698
 20
84.75082049100537
 30
0
  0
VERTEX
  5
81
  8
0
  6
BYLAYER
 62
    7
 10
-82.3303556941519
 20
81.20824824101743
 30
0
  0
VERTEX
  5
82
  8
0
  6
BYLAYER
 62
    7
 10
-79.991536754083
 20
77.9527994672541
 30
0
  0
VERTEX
  5
83
  8
0
  6
BYLAYER
 62
    7
 10
-77.2350015140689
 20
75.24389659914083
 30
0
  0
VERTEX
  5
84
  8
0
  6
BYLAYER
 62
    7
 10
-74.06074997410967
 20
73.08153963667766
 30
0
  0
VERTEX
  5
85
  8
0
  6
BYLAYER
 62
    7
 10
-70.46878213420524
 20
71.46572857986456
 30
0
  0
VERTEX
  5
86
  8
0
  6
BYLAYER
 62
    7
 10
-66.45909799435566
 20
70.39646342870154
 30
0
  0
VERTEX
  5
87
  8
0
  6
BYLAYER
 62
    7
 10
-62.03169755456091
 20
69.87374418318861
 30
0
  0
VERTEX
  5
88
  8
0
  6
BYLAYER
 62
    7
 10
-57.18658081482099
 20
69.89757084332574
 30
0
  0
VERTEX
  5
89
  8
0
  6
BYLAYER
 62
    7
 10
-51.92374777513589
 20
70.46794340911296
 30
0
  0
SEQEND
  5
8A
  8
0
  6
BYLAYER
 62
    7
  0
POLYLINE
  5
8B
  8
0
  6
BYLAYER
 62
    7
 66
    1
 10
0
 20
0
 30
0
 70
    0
  0
VERTEX
  5
8C
  8
0
  6
BYLAYER
 62
    7
 10
-51.92374777513589
 20
70.46794340911296
 30
0
  0
VERTEX
  5
8D
  8
0
  6
BYLAYER
 62
    7
 10
-54.49777643012087
 20
69.15154594083899
 30
0
  0
VERTEX
  5
8E
  8
0
  6
BYLAYER
 62
    7
 10
-57.11741141086217
 20
68.00960512627844
 30
0
  0
VERTEX
  5
8F
  8
0
  6
BYLAYER
 62
    7
 10
-59.78265271735981
 20
67.04212096543129
 30
0
  0
VERTEX
  5
90
  8
0
  6
BYLAYER
 62
    7
 10
-62.49350034961378
 20
66.24909345829757
 30
0
  0
VERTEX
  5
91
  8
0
  6
BYLAYER
 62
    7
 10
-65.24995430762409
 20
65.63052260487726
 30
0
  0
VERTEX
  5
92
  8
0
  6
BYLAYER
 62
    7
 10
-68.05201459139074
 20
65.18640840517034
 30
0
  0
VERTEX
  5
93
  8
0
  6
BYLAYER
 62
    7
 10
-70.89968120091373
 20
64.91675085917686
 30
0
  0
VERTEX
  5
94
  8
0
  6
BYLAYER
 62
    7
 10
-73.79295413619305
 20
64.82154996689678
 30
0
  0
VERTEX
  5
95
  8
0
  6
BYLAYER
 62
    7
 10
-76.63973779489297
 20
64.67174707027465
 30
0
  0
VERTEX
  5
96
  8
0
  6
BYLAYER
 62
    7
 10
-79.34793657467777
 20
64.23828351125502
 30
0
  0
VERTEX
  5
97
  8
0
  6
BYLAYER
 62
    7
 10
-81.91755047554744
 20
63.52115928983788
 30
0
  0
VERTEX
  5
98
  8
0
  6
BYLAYER
 62
    7
 10
-84.34857949750197
 20
62.52037440602324
 30
0
  0
VERTEX
  5
99
  8
0
  6
BYLAYER
 62
    7
 10
-86.64102364054139
 20
61.2359288598111
 30
0
  0
VERTEX
  5
9A
  8
0
  6
BYLAYER
 62
    7
 10
-88.79488290466568
 20
59.66782265120144
 30
0
  0
VERTEX
  5
9B
  8
0
  6
BYLAYER
 62
    7
 10
-90.81015728987485
 20
57.81605578019427
 30
0
  0
VERTEX
  5
9C
  8
0
  6
BYLAYER
 62
    7
 10
-92.68684679616889
 20
55.68062824678961
 30
0
  0
VERTEX
  5
9D
  8
0
  6
BYLAYER
 62
    7
 10
-94.38258724846067
 20
53.38051779890552
 30
0
  0
VERTEX
  5
9E
  8
0
  6
BYLAYER
 62
    7
 10
-95.85501447166305
 20
51.03470218446013
 30
0
  0
VERTEX
  5
9F
  8
0
  6
BYLAYER
 62
    7
 10
-97.10412846577603
 20
48.64318140345341
 30
0
  0
VERTEX
  5
A0
  8
0
  6
BYLAYER
 62
    7
 10
-98.12992923079962
 20
46.20595545588537
 30
0
  0
VERTEX
  5
A1
  8
0
  6
BYLAYER
 62
    7
 10
-98.93241676673381
 20
43.723024341756
 30
0
  0
VERTEX
  5
A2
  8
0
  6
BYLAYER
 62
    7
 10
-99.51159107357861
 20
41.19438806106533
 30
0
  0
VERTEX
  5
A3
  8
0
  6
BYLAYER
 62
    7
 10
-99.86745215133401
 20
38.62004661381332
 30
0
  0
VERTEX
  5
A4
  8
0
  6
BYLAYER
 62
    7
 10
-100
 20
36
 30
0
  0
SEQEND
  5
A5
  8
0
  6
BYLAYER
 62
    7
  0
POLYLINE
  5
A6
  8
0
  6
BYLAYER
 62
    7
 66
    1
 10
0
 20
0
 30
0
 70
    0
  0
VERTEX
  5
A7
  8
0
  6
BYLAYER
 62
    7
 10
-100
 20
19
 30
0
  0
VERTEX
  5
A8
  8
0
  6
BYLAYER
 62
    7
 10
-99.3696473587915
 20
15.33340745273936
 30
0
  0
VERTEX
  5
A9
  8
0
  6
BYLAYER
 62
    7
 10
-98.23649393541953
 20
12.08229996989179
 30
0
  0
VERTEX
  5
AA
  8
0
  6
BYLAYER
 62
    7
 10
-96.6005397298841
 20
9.246677551457282
 30
0
  0
VERTEX
  5
AB
  8
0
  6
BYLAYER
 62
    7
 10
-94.46178474218522
 20
6.826540197435834
 30
0
  0
VERTEX
  5
AC
  8
0
  6
BYLAYER
 62
    7
 10
-91.82022897232287
 20
4.821887907827453
 30
0
  0
VERTEX
  5
AD
  8
0
  6
BYLAYER
 62
    7
 10
-88.67587242029705
 20
3.232720682632133
 30
0
  0
VERTEX
  5
AE
  8
0
  6
BYLAYER
 62
    7
 10
-85.02871508610779
 20
2.059038521849877
 30
0
  0
VERTEX
  5
AF
  8
0
  6
BYLAYER
 62
    7
 10
-80.87875696975506
 20
1.300841425480685
 30
0
  0
VERTEX
  5
B0
  8
0
  6
BYLAYER
 62
    7
 10
-76.21696269809749
 20
0.814493034565221
 30
0
  0
VERTEX
  5
B1
  8
0
  6
BYLAYER
 62
    7
 10
-71.03429689799367
 20
0.4563569901441509
 30
0
  0
VERTEX
  5
B2
  8
0
  6
BYLAYER
 62
    7
 10
-65.33075956944364
 20
0.2264332922174747
 30
0
  0
VERTEX
  5
B3
  8
0
  6
BYLAYER
 62
    7
 10
-59.10635071244737
 20
0.1247219407851923
 30
0
  0
VERTEX
  5
B4
  8
0
  6
BYLAYER
 62
    7
 10
-52.36107032700487
 20
0.1512229358473036
 30
0
  0
VERTEX
  5
B5
  8
0
  6
BYLAYER
 62
    7
 10
-45.09491841311615
 20
0.3059362774038086
 30
0
  0
VERTEX
  5
B6
  8
0
  6
BYLAYER
 62
    7
 10
-37.30789497078118
 20
0.5888619654547074
 30
0
  0
VERTEX
  5
B7
  8
0
  6
BYLAYER
 62
    7
 10
-29
 20
1
 30
0
  0
SEQEND
  5
B8
  8
0
  6
BYLAYER
 62
    7
  0
LINE
  5
B9
  8
0
  6
BYLAYER
 62
    7
 10
100
 20
19
 11
100
 21
36
  0
POLYLINE
  5
BA
  8
0
  6
BYLAYER
 62
    7
 66
    1
 10
0
 20
0
 30
0
 70
    0
  0
VERTEX
  5
BB
  8
0
  6
BYLAYER
 62
    7
 10
0
 20
197
 30
0
  0
VERTEX
  5
BC
  8
0
  6
BYLAYER
 62
    7
 10
3.364185272539183
 20
197.8024156221861
 30
0
  0
VERTEX
  5
BD
  8
0
  6
BYLAYER
 62
    7
 10
6.658904530281893
 20
198.4478149771093
 30
0
  0
VERTEX
  5
BE
  8
0
  6
BYLAYER
 62
    7
 10
9.88415777322813
 20
198.9361980647696
 30
0
  0
VERTEX
  5
BF
  8
0
  6
BYLAYER
 62
    7
 10
13.03994500137789
 20
199.267564885167
 30
0
  0
VERTEX
  5
C0
  8
0
  6
BYLAYER
 62
    7
 10
16.12626621473119
 20
199.4419154383016
 30
0
  0
VERTEX
  5
C1
  8
0
  6
BYLAYER
 62
    7
 10
19.14312141328801
 20
199.4592497241733
 30
0
  0
VERTEX
  5
C2
  8
0
  6
BYLAYER
 62
    7
 10
22.09051059704835
 20
199.3195677427821
 30
0
  0
VERTEX
  5
C3
  8
0
  6
BYLAYER
 62
    7
 10
24.96843376601223
 20
199.0228694941281
 30
0
  0
VERTEX
  5
C4
  8
0
  6
BYLAYER
 62
    7
 10
27.75365170136094
 20
198.6109320660259
 30
0
  0
VERTEX
  5
C5
  8
0
  6
BYLAYER
 62
    7
 10
30.4229251842758
 20
198.1255325462903
 30
0
  0
VERTEX
  5
C6
  8
0
  6
BYLAYER
 62
    7
 10
32.97625421475682
 20
197.5666709349213
 30
0
  0
VERTEX
  5
C7
  8
0
  6
BYLAYER
 62
    7
 10
35.41363879280399
 20
196.9343472319189
 30
0
  0
VERTEX
  5
C8
  8
0
  6
BYLAYER
 62
    7
 10
37.73507891841731
 20
196.2285614372831
 30
0
  0
VERTEX
  5
C9
  8
0
  6
BYLAYER
 62
    7
 10
39.94057459159678
 20
195.4493135510138
 30
0
  0
VERTEX
  5
CA
  8
0
  6
BYLAYER
 62
    7
 10
42.0301258123424
 20
194.5966035731112
 30
0
  0
VERTEX
  5
CB
  8
0
  6
BYLAYER
 62
    7
 10
44.00373258065417
 20
193.6704315035751
 30
0
  0
VERTEX
  5
CC
  8
0
  6
BYLAYER
 62
    7
 10
45.88222066144524
 20
192.6676237808185
 30
0
  0
VERTEX
  5
CD
  8
0
  6
BYLAYER
 62
    7
 10
47.68641581962873
 20
191.5850068432542
 30
0
  0
VERTEX
  5
CE
  8
0
  6
BYLAYER
 62
    7
 10
49.41631805520466
 20
190.4225806908822
 30
0
  0
VERTEX
  5
CF
  8
0
  6
BYLAYER
 62
    7
 10
51.07192736817301
 20
189.1803453237026
 30
0
  0
VERTEX
  5
D0
  8
0
  6
BYLAYER
 62
    7
 10
52.6532437585338
 20
187.8583007417153
 30
0
  0
VERTEX
  5
D1
  8
0
  6
BYLAYER
 62
    7
 10
54.16026722628702
 20
186.4564469449204
 30
0
  0
VERTEX
  5
D2
  8
0
  6
BYLAYER
 62
    7
 10
55.59299777143266
 20
184.9747839333178
 30
0
  0
VERTEX
  5
D3
  8
0
  6
BYLAYER
 62
    7
 10
56.95143539397074
 20
183.4133117069076
 30
0
  0
VERTEX
  5
D4
  8
0
  6
BYLAYER
 62
    7
 10
58.18091164086538
 20
181.7440740581208
 30
0
  0
VERTEX
  5
D5
  8
0
  6
BYLAYER
 62
    7
 10
59.22675805908069
 20
179.9391147793889
 30
0
  0
VERTEX
  5
D6
  8
0
  6
BYLAYER
 62
    7
 10
60.0889746486167
 20
177.9984338707116
 30
0
  0
VERTEX
  5
D7
  8
0
  6
BYLAYER
 62
    7
 10
60.76756140947338
 20
175.9220313320891
 30
0
  0
VERTEX
  5
D8
  8
0
  6
BYLAYER
 62
    7
 10
61.26251834165075
 20
173.7099071635214
 30
0
  0
VERTEX
  5
D9
  8
0
  6
BYLAYER
 62
    7
 10
61.57384544514881
 20
171.3620613650084
 30
0
  0
VERTEX
  5
DA
  8
0
  6
BYLAYER
 62
    7
 10
61.70154271996754
 20
168.8784939365501
 30
0
  0
VERTEX
  5
DB
  8
0
  6
BYLAYER
 62
    7
 10
61.64561016610696
 20
166.2592048781466
 30
0
  0
VERTEX
  5
DC
  8
0
  6
BYLAYER
 62
    7
 10
61.29234560707039
 20
163.6428209537601
 30
0
  0
VERTEX
  5
DD
  8
0
  6
BYLAYER
 62
    7
 10
60.52804686636115
 20
161.1679689273526
 30
0
  0
VERTEX
  5
DE
  8
0
  6
BYLAYER
 62
    7
 10
59.35271394397925
 20
158.8346487989242
 30
0
  0
VERTEX
  5
DF
  8
0
  6
BYLAYER
 62
    7
 10
57.76634683992468
 20
156.642860568475
 30
0
  0
VERTEX
  5
E0
  8
0
  6
BYLAYER
 62
    7
 10
55.76894555419744
 20
154.5926042360049
 30
0
  0
VERTEX
  5
E1
  8
0
  6
BYLAYER
 62
    7
 10
53.36051008679753
 20
152.6838798015139
 30
0
  0
VERTEX
  5
E2
  8
0
  6
BYLAYER
 62
    7
 10
50.54104043772497
 20
150.9166872650021
 30
0
  0
VERTEX
  5
E3
  8
0
  6
BYLAYER
 62
    7
 10
47.31053660697972
 20
149.2910266264693
 30
0
  0
SEQEND
  5
E4
  8
0
  6
BYLAYER
 62
    7
  0
POLYLINE
  5
E5
  8
0
  6
BYLAYER
 62
    7
 66
    1
 10
0
 20
0
 30
0
 70
    0
  0
VERTEX
  5
E6
  8
0
  6
BYLAYER
 62
    7
 10
47.31053660697972
 20
149.2910266264693
 30
0
  0
VERTEX
  5
E7
  8
0
  6
BYLAYER
 62
    7
 10
51.67157591529427
 20
148.8399482990534
 30
0
  0
VERTEX
  5
E8
  8
0
  6
BYLAYER
 62
    7
 10
55.81731300652591
 20
148.069002545047
 30
0
  0
VERTEX
  5
E9
  8
0
  6
BYLAYER
 62
    7
 10
59.74774788067464
 20
146.9781893644499
 30
0
  0
VERTEX
  5
EA
  8
0
  6
BYLAYER
 62
    7
 10
63.46288053774047
 20
145.5675087572621
 30
0
  0
VERTEX
  5
EB
  8
0
  6
BYLAYER
 62
    7
 10
66.9627109777234
 20
143.8369607234837
 30
0
  0
VERTEX
  5
EC
  8
0
  6
BYLAYER
 62
    7
 10
70.24723920062344
 20
141.7865452631147
 30
0
  0
VERTEX
  5
ED
  8
0
  6
BYLAYER
 62
    7
 10
73.31646520644057
 20
139.416262376155
 30
0
  0
VERTEX
  5
EE
  8
0
  6
BYLAYER
 62
    7
 10
76.17038899517479
 20
136.7261120626046
 30
0
  0
VERTEX
  5
EF
  8
0
  6
BYLAYER
 62
    7
 10
78.77388462612578
 20
133.8197626561255
 30
0
  0
VERTEX
  5
F0
  8
0
  6
BYLAYER
 62
    7
 10
81.09182615859312
 20
130.8008824903794
 30
0
  0
VERTEX
  5
F1
  8
0
  6
BYLAYER
 62
    7
 10
83.12421359257688
 20
127.6694715653663
 30
0
  0
VERTEX
  5
F2
  8
0
  6
BYLAYER
 62
    7
 10
84.87104692807702
 20
124.4255298810863
 30
0
  0
VERTEX
  5
F3
  8
0
  6
BYLAYER
 62
    7
 10
86.33232616509356
 20
121.0690574375393
 30
0
  0
VERTEX
  5
F4
  8
0
  6
BYLAYER
 62
    7
 10
87.5080513036265
 20
117.6000542347253
 30
0
  0
VERTEX
  5
F5
  8
0
  6
BYLAYER
 62
    7
 10
88.39822234367583
 20
114.0185202726444
 30
0
  0
VERTEX
  5
F6
  8
0
  6
BYLAYER
 62
    7
 10
89.00283928524155
 20
110.3244555512965
 30
0
  0
VERTEX
  5
F7
  8
0
  6
BYLAYER
 62
    7
 10
89.3026916349142
 20
106.5879759737146
 30
0
  0
VERTEX
  5
F8
  8
0
  6
BYLAYER
 62
    7
 10
89.27856889928432
 20
102.879197442932
 30
0
  0
VERTEX
  5
F9
  8
0
  6
BYLAYER
 62
    7
 10
88.93047107835191
 20
99.1981199589484
 30
0
  0
VERTEX
  5
FA
  8
0
  6
BYLAYER
 62
    7
 10
88.25839817211698
 20
95.54474352176393
 30
0
  0
VERTEX
  5
FB
  8
0
  6
BYLAYER
 62
    7
 10
87.26235018057952
 20
91.91906813137861
 30
0
  0
VERTEX
  5
FC
  8
0
  6
BYLAYER
 62
    7
 10
85.94232710373953
 20
88.32109378779242
 30
0
  0
VERTEX
  5
FD
  8
0
  6
BYLAYER
 62
    7
 10
84.29832894159701
 20
84.75082049100534
 30
0
  0
VERTEX
  5
FE
  8
0
  6
BYLAYER
 62
    7
 10
82.33035569415196
 20
81.2082482410174
 30
0
  0
VERTEX
  5
FF
  8
0
  6
BYLAYER
 62
    7
 10
79.99153675408306
 20
77.95279946725407
 30
0
  0
VERTEX
  5
100
  8
0
  6
BYLAYER
 62
    7
 10
77.23500151406898
 20
75.2438965991408
 30
0
  0
VERTEX
  5
101
  8
0
  6
BYLAYER
 62
    7
 10
74.06074997410973
 20
73.08153963667763
 30
0
  0
VERTEX
  5
102
  8
0
  6
BYLAYER
 62
    7
 10
70.4687821342053
 20
71.46572857986453
 30
0
  0
VERTEX
  5
103
  8
0
  6
BYLAYER
 62
    7
 10
66.45909799435569
 20
70.39646342870152
 30
0
  0
VERTEX
  5
104
  8
0
  6
BYLAYER
 62
    7
 10
62.03169755456089
 20
69.87374418318859
 30
0
  0
VERTEX
  5
105
  8
0
  6
BYLAYER
 62
    7
 10
57.18658081482092
 20
69.89757084332572
 30
0
  0
VERTEX
  5
106
  8
0
  6
BYLAYER
 62
    7
 10
51.92374777513578
 20
70.46794340911296
 30
0
  0
SEQEND
  5
107
  8
0
  6
BYLAYER
 62
    7
  0
POLYLINE
  5
108
  8
0
  6
BYLAYER
 62
    7
 66
    1
 10
0
 20
0
 30
0
 70
    0
  0
VERTEX
  5
109
  8
0
  6
BYLAYER
 62
    7
 10
51.92374777513578
 20
70.46794340911296
 30
0
  0
VERTEX
  5
10A
  8
0
  6
BYLAYER
 62
    7
 10
54.49777643012075
 20
69.15154594083897
 30
0
  0
VERTEX
  5
10B
  8
0
  6
BYLAYER
 62
    7
 10
57.11741141086207
 20
68.0096051262784
 30
0
  0
VERTEX
  5
10C
  8
0
  6
BYLAYER
 62
    7
 10
59.78265271735971
 20
67.04212096543125
 30
0
  0
VERTEX
  5
10D
  8
0
  6
BYLAYER
 62
    7
 10
62.49350034961369
 20
66.24909345829751
 30
0
  0
VERTEX
  5
10E
  8
0
  6
BYLAYER
 62
    7
 10
65.24995430762399
 20
65.63052260487719
 30
0
  0
VERTEX
  5
10F
  8
0
  6
BYLAYER
 62
    7
 10
68.05201459139064
 20
65.18640840517028
 30
0
  0
VERTEX
  5
110
  8
0
  6
BYLAYER
 62
    7
 10
70.89968120091363
 20
64.9167508591768
 30
0
  0
VERTEX
  5
111
  8
0
  6
BYLAYER
 62
    7
 10
73.79295413619295
 20
64.82154996689673
 30
0
  0
VERTEX
  5
112
  8
0
  6
BYLAYER
 62
    7
 10
76.63973779489285
 20
64.67174707027461
 30
0
  0
VERTEX
  5
113
  8
0
  6
BYLAYER
 62
    7
 10
79.34793657467766
 20
64.23828351125499
 30
0
  0
VERTEX
  5
114
  8
0
  6
BYLAYER
 62
    7
 10
81.91755047554734
 20
63.52115928983787
 30
0
  0
VERTEX
  5
115
  8
0
  6
BYLAYER
 62
    7
 10
84.34857949750189
 20
62.52037440602323
 30
0
  0
VERTEX
  5
116
  8
0
  6
BYLAYER
 62
    7
 10
86.64102364054132
 20
61.23592885981109
 30
0
  0
VERTEX
  5
117
  8
0
  6
BYLAYER
 62
    7
 10
88.79488290466561
 20
59.66782265120144
 30
0
  0
VERTEX
  5
118
  8
0
  6
BYLAYER
 62
    7
 10
90.81015728987479
 20
57.81605578019428
 30
0
  0
VERTEX
  5
119
  8
0
  6
BYLAYER
 62
    7
 10
92.68684679616885
 20
55.68062824678962
 30
0
  0
VERTEX
  5
11A
  8
0
  6
BYLAYER
 62
    7
 10
94.38258724846065
 20
53.38051779890553
 30
0
  0
VERTEX
  5
11B
  8
0
  6
BYLAYER
 62
    7
 10
95.85501447166303
 20
51.03470218446014
 30
0
  0
VERTEX
  5
11C
  8
0
  6
BYLAYER
 62
    7
 10
97.10412846577603
 20
48.64318140345342
 30
0
  0
VERTEX
  5
11D
  8
0
  6
BYLAYER
 62
    7
 10
98.12992923079963
 20
46.20595545588537
 30
0
  0
VERTEX
  5
11E
  8
0
  6
BYLAYER
 62
    7
 10
98.93241676673381
 20
43.72302434175602
 30
0
  0
VERTEX
  5
11F
  8
0
  6
BYLAYER
 62
    7
 10
99.51159107357861
 20
41.19438806106533
 30
0
  0
VERTEX
  5
120
  8
0
  6
BYLAYER
 62
    7
 10
99.86745215133401
 20
38.62004661381333
 30
0
  0
VERTEX
  5
121
  8
0
  6
BYLAYER
 62
    7
 10
100
 20
36
 30
0
  0
SEQEND
  5
122
  8
0
  6
BYLAYER
 62
    7
  0
POLYLINE
  5
123
  8
0
  6
BYLAYER
 62
    7
 66
    1
 10
0
 20
0
 30
0
 70
    0
  0
VERTEX
  5
124
  8
0
  6
BYLAYER
 62
    7
 10
100
 20
19
 30
0
  0
VERTEX
  5
125
  8
0
  6
BYLAYER
 62
    7
 10
99.3696473587915
 20
15.33340745273935
 30
0
  0
VERTEX
  5
126
  8
0
  6
BYLAYER
 62
    7
 10
98.23649393541953
 20
12.08229996989176
 30
0
  0
VERTEX
  5
127
  8
0
  6
BYLAYER
 62
    7
 10
96.6005397298841
 20
9.246677551457248
 30
0
  0
VERTEX
  5
128
  8
0
  6
BYLAYER
 62
    7
 10
94.46178474218523
 20
6.826540197435803
 30
0
  0
VERTEX
  5
129
  8
0
  6
BYLAYER
 62
    7
 10
91.82022897232289
 20
4.821887907827427
 30
0
  0
VERTEX
  5
12A
  8
0
  6
BYLAYER
 62
    7
 10
88.67587242029708
 20
3.232720682632121
 30
0
  0
VERTEX
  5
12B
  8
0
  6
BYLAYER
 62
    7
 10
85.02871508610781
 20
2.059038521849883
 30
0
  0
VERTEX
  5
12C
  8
0
  6
BYLAYER
 62
    7
 10
80.8787569697551
 20
1.300841425480715
 30
0
  0
VERTEX
  5
12D
  8
0
  6
BYLAYER
 62
    7
 10
76.21696269809753
 20
0.8144930345652744
 30
0
  0
VERTEX
  5
12E
  8
0
  6
BYLAYER
 62
    7
 10
71.03429689799373
 20
0.4563569901442202
 30
0
  0
VERTEX
  5
12F
  8
0
  6
BYLAYER
 62
    7
 10
65.3307595694437
 20
0.2264332922175517
 30
0
  0
VERTEX
  5
130
  8
0
  6
BYLAYER
 62
    7
 10
59.10635071244742
 20
0.1247219407852693
 30
0
  0
VERTEX
  5
131
  8
0
  6
BYLAYER
 62
    7
 10
52.36107032700492
 20
0.151222935847373
 30
0
  0
VERTEX
  5
132
  8
0
  6
BYLAYER
 62
    7
 10
45.09491841311618
 20
0.3059362774038626
 30
0
  0
VERTEX
  5
133
  8
0
  6
BYLAYER
 62
    7
 10
37.30789497078121
 20
0.5888619654547383
 30
0
  0
VERTEX
  5
134
  8
0
  6
BYLAYER
 62
    7
 10
29
 20
1
 30
0
  0
SEQEND
  5
135
  8
0
  6
BYLAYER
 62
    7
  0
CIRCLE
  5
136
  8
0
  6
BYLAYER
 62
    7
 10
7.25
 20
185
 40
1.199999999999989
  0
CIRCLE
  5
137
  8
0
  6
BYLAYER
 62
    7
 10
-8.25
 20
185
 40
1.199999999999989
  0
LINE
  5
138
  8
0
  6
BYLAYER
 62
    7
 10
-28
 20
-1.110223024625157e-16
 11
-29
 21
1
  0
LINE
  5
139
  8
0
  6
BYLAYER
 62
    7
 10
28
 20
0
 11
29
 21
1
  0
LINE
  5
13A
  8
0
  6
BYLAYER
 62
    7
 10
-28
 20
0
 11
28
 21
0
  0
LINE
  5
13B
  8
0
  6
BYLAYER
 62
    7
 10
-77
 20
35
 11
-76
 21
36
  0
LINE
  5
13C
  8
0
  6
BYLAYER
 62
    7
 10
-76
 20
36
 11
-69
 21
36
  0
LINE
  5
13D
  8
0
  6
BYLAYER
 62
    7
 10
-69
 20
36
 11
-68
 21
35
  0
LINE
  5
13E
  8
0
  6
BYLAYER
 62
    7
 10
-68
 20
35
 11
-68
 21
21
  0
LINE
  5
13F
  8
0
  6
BYLAYER
 62
    7
 10
-68
 20
21
 11
-69
 21
20
  0
LINE
  5
140
  8
0
  6
BYLAYER
 62
    7
 10
-69
 20
20
 11
-76
 21
20
  0
LINE
  5
141
  8
0
  6
BYLAYER
 62
    7
 10
-76
 20
20
 11
-77
 21
21
  0
LINE
  5
142
  8
0
  6
BYLAYER
 62
    7
 10
-77
 20
21
 11
-77
 21
35
  0
CIRCLE
  5
143
  8
0
  6
BYLAYER
 62
    7
 10
-82.18999298056571
 20
18.56352179714493
 40
1.25
  0
CIRCLE
  5
144
  8
0
  6
BYLAYER
 62
    7
 10
-82.18999298056571
 20
36.56352179714493
 40
1.25
  0
LINE
  5
145
  8
0
  6
BYLAYER
 62
    7
 10
77
 20
35
 11
76
 21
36
  0
LINE
  5
146
  8
0
  6
BYLAYER
 62
    7
 10
76
 20
36
 11
69
 21
36
  0
LINE
  5
147
  8
0
  6
BYLAYER
 62
    7
 10
69
 20
36
 11
68
 21
35
  0
LINE
  5
148
  8
0
  6
BYLAYER
 62
    7
 10
68
 20
35
 11
68
 21
21
  0
LINE
  5
149
  8
0
  6
BYLAYER
 62
    7
 10
68
 20
21
 11
69
 21
20
  0
LINE
  5
14A
  8
0
  6
BYLAYER
 62
    7
 10
69
 20
20
 11
76
 21
20
  0
LINE
  5
14B
  8
0
  6
BYLAYER
 62
    7
 10
76
 20
20
 11
77
 21
21
  0
LINE
  5
14C
  8
0
  6
BYLAYER
 62
    7
 10
77
 20
21
 11
77
 21
35
  0
CIRCLE
  5
14D
  8
0
  6
BYLAYER
 62
    7
 10
82.69999999999999
 20
18.5
 40
1.25
  0
CIRCLE
  5
14E
  8
0
  6
BYLAYER
 62
    7
 10
82.69999999999999
 20
36.5
 40
1.25
  0
CIRCLE
  5
14F
  8
0
  6
CONTINUOUS
 62
    7
 10
24.5
 20
178
 40
1.35
  0
CIRCLE
  5
150
  8
0
  6
CONTINUOUS
 62
    7
 10
-24.5
 20
178
 40
1.35
  0
CIRCLE
  5
151
  8
0
  6
CONTINUOUS
 62
    7
 10
24.5
 20
120
 40
1.35
  0
CIRCLE
  5
152
  8
0
  6
CONTINUOUS
 62
    7
 10
-24.5
 20
120
 40
1.35
  0
CIRCLE
  5
153
  8
0
  6
BYLAYER
 62
    7
 10
-85
 20
10
 40
4
  0
CIRCLE
  5
154
  8
0
  6
BYLAYER
 62
    7
 10
85
 20
10
 40
4
  0
CIRCLE
  5
155
  8
0
  6
BYLAYER
 62
    7
 10
24.5
 20
178
 40
1.35
  0
CIRCLE
  5
156
  8
0
  6
BYLAYER
 62
    7
 10
-24.5
 20
178
 40
1.35
  0
CIRCLE
  5
157
  8
0
  6
BYLAYER
 62
    7
 10
-24.5
 20
120
 40
1.35
  0
LINE
  5
158
  8
0
  6
BYLAYER
 62
    7
 10
-66
 20
10
 11
-30
 21
10
  0
LINE
  5
159
  8
0
  6
BYLAYER
 62
    7
 10
-30
 20
10
 11
-30
 21
56
  0
LINE
  5
15A
  8
0
  6
BYLAYER
 62
    7
 10
-30
 20
56
 11
-66
 21
56
  0
LINE
  5
15B
  8
0
  6
BYLAYER
 62
    7
 10
-66
 20
56
 11
-66
 21
10
  0
LINE
  5
15C
  8
0
  6
BYLAYER
 62
    7
 10
-75
 20
85
 11
-39
 21
85
  0
LINE
  5
15D
  8
0
  6
BYLAYER
 62
    7
 10
-39
 20
85
 11
-39
 21
131
  0
LINE
  5
15E
  8
0
  6
BYLAYER
 62
    7
 10
-39
 20
131
 11
-75
 21
131
  0
LINE
  5
15F
  8
0
  6
BYLAYER
 62
    7
 10
-75
 20
131
 11
-75
 21
85
  0
LINE
  5
160
  8
0
  6
BYLAYER
 62
    7
 10
30
 20
10
 11
66
 21
10
  0
LINE
  5
161
  8
0
  6
BYLAYER
 62
    7
 10
66
 20
10
 11
66
 21
56
  0
LINE
  5
162
  8
0
  6
BYLAYER
 62
    7
 10
66
 20
56
 11
30
 21
56
  0
LINE
  5
163
  8
0
  6
BYLAYER
 62
    7
 10
30
 20
56
 11
30
 21
10
  0
LINE
  5
164
  8
0
  6
BYLAYER
 62
    7
 10
39
 20
85
 11
75
 21
85
  0
LINE
  5
165
  8
0
  6
BYLAYER
 62
    7
 10
75
 20
85
 11
75
 21
131
  0
LINE
  5
166
  8
0
  6
BYLAYER
 62
    7
 10
75
 20
131
 11
39
 21
131
  0
LINE
  5
167
  8
0
  6
BYLAYER
 62
    7
 10
39
 20
131
 11
39
 21
85
  0
CIRCLE
  5
168
  8
0
  6
BYLAYER
 62
    7
 10
-50
 20
180
 40
4
  0
CIRCLE
  5
169
  8
0
  6
BYLAYER
 62
    7
 10
50
 20
180
 40
4
  0
LINE
  5
16A
  8
0
  6
BYLAYER
 62
    7
 10
0
 20
87
 11
0
 21
2
  0
LINE
  5
16B
  8
0
  6
BYLAYER
 62
    7
 10
27.5
 20
2
 11
27.5
 21
87
  0
LINE
  5
16C
  8
0
  6
BYLAYER
 62
    7
 10
27.5
 20
87
 11
-27.5
 21
87
  0
LINE
  5
16D
  8
0
  6
BYLAYER
 62
    7
 10
-27.5
 20
87
 11
-27.5
 21
2
  0
LINE
  5
16E
  8
0
  6
BYLAYER
 62
    7
 10
-27.5
 20
2
 11
27.5
 21
2
  0
ENDSEC
  0
EOF
