  0
SECTION
  2
HEADER
  9
$ACADVER
  1
AC1014
  9
$HANDSEED
  5
FFFF
  9
$MEASUREMENT
 70
     1
  0
ENDSEC
  0
SECTION
  2
TABLES
  0
TABLE
  2
VPORT
  5
8
330
0
100
AcDbSymbolTable
 70
     4
  0
VPORT
  5
2E
330
8
100
AcDbSymbolTableRecord
100
AcDbViewportTableRecord
  2
*ACTIVE
 70
     0
 10
0.0
 20
0.0
 11
1.0
 21
1.0
 12
210.0
 22
148.5
 13
0.0
 23
0.0
 14
10.0
 24
10.0
 15
10.0
 25
10.0
 16
0.0
 26
0.0
 36
1.0
 17
0.0
 27
0.0
 37
0.0
 40
341.0
 41
1.24
 42
50.0
 43
0.0
 44
0.0
 50
0.0
 51
0.0
 71
     0
 72
   100
 73
     1
 74
     3
 75
     0
 76
     0
 77
     0
 78
     0
  0
ENDTAB
  0
TABLE
  2
LTYPE
  5
5
330
0
100
AcDbSymbolTable
 70
     1
  0
LTYPE
  5
14
330
5
100
AcDbSymbolTableRecord
100
AcDbLinetypeTableRecord
  2
BYBLOCK
 70
     0
  3

 72
    65
 73
     0
 40
0.0
  0
LTYPE
  5
15
330
5
100
AcDbSymbolTableRecord
100
AcDbLinetypeTableRecord
  2
BYLAYER
 70
     0
  3

 72
    65
 73
     0
 40
0.0
  0
LTYPE
  5
16
330
5
100
AcDbSymbolTableRecord
100
AcDbLinetypeTableRecord
  2
CONTINUOUS
 70
     0
  3
Solid line
 72
    65
 73
     0
 40
0.0
  0
ENDTAB
  0
TABLE
  2
LAYER
  5
2
100
AcDbSymbolTable
 70
2
  0
LAYER
  5
50
100
AcDbSymbolTableRecord
100
AcDbLayerTableRecord
  2
0
 70
0
  6
CONTINUOUS
  0
LAYER
  5
51
100
AcDbSymbolTableRecord
100
AcDbLayerTableRecord
  2
Layer_1
 70
0
  6
CONTINUOUS
  0
ENDTAB
  0
TABLE
  2
STYLE
  5
3
330
0
100
AcDbSymbolTable
 70
     1
  0
STYLE
  5
11
330
3
100
AcDbSymbolTableRecord
100
AcDbTextStyleTableRecord
  2
STANDARD
 70
     0
 40
0.0
 41
1.0
 50
0.0
 71
     0
 42
2.5
  3
txt
  4

  0
ENDTAB
  0
TABLE
  2
VIEW
  5
6
330
0
100
AcDbSymbolTable
 70
     0
  0
ENDTAB
  0
TABLE
  2
UCS
  5
7
330
0
100
AcDbSymbolTable
 70
     0
  0
ENDTAB
  0
TABLE
  2
APPID
  5
9
330
0
100
AcDbSymbolTable
 70
     2
  0
APPID
  5
12
330
9
100
AcDbSymbolTableRecord
100
AcDbRegAppTableRecord
  2
ACAD
 70
     0
  0
ENDTAB
  0
TABLE
  2
DIMSTYLE
  5
A
330
0
100
AcDbSymbolTable
 70
     1
  0
DIMSTYLE
105
27
330
A
100
AcDbSymbolTableRecord
100
AcDbDimStyleTableRecord
  2
ISO-25
 70
     0
  3

  4

  5

  6

  7

 40
1.0
 41
2.5
 42
0.625
 43
3.75
 44
1.25
 45
0.0
 46
0.0
 47
0.0
 48
0.0
140
2.5
141
2.5
142
0.0
143
0.03937007874016
144
1.0
145
0.0
146
1.0
147
0.625
 71
     0
 72
     0
 73
     0
 74
     0
 75
     0
 76
     0
 77
     1
 78
     8
170
     0
171
     3
172
     1
173
     0
174
     0
175
     0
176
     0
177
     0
178
     0
270
     2
271
     2
272
     2
273
     2
274
     3
340
11
275
     0
280
     0
281
     0
282
     0
283
     0
284
     8
285
     0
286
     0
287
     3
288
     0
  0
ENDTAB
  0
TABLE
  2
BLOCK_RECORD
  5
1
330
0
100
AcDbSymbolTable
 70
     1
  0
BLOCK_RECORD
  5
1F
330
1
100
AcDbSymbolTableRecord
100
AcDbBlockTableRecord
  2
*MODEL_SPACE
  0
BLOCK_RECORD
  5
1B
330
1
100
AcDbSymbolTableRecord
100
AcDbBlockTableRecord
  2
*PAPER_SPACE
  0
ENDTAB
  0
ENDSEC
  0
SECTION
  2
BLOCKS
  0
BLOCK
  5
20
330
1F
100
AcDbEntity
  8
0
100
AcDbBlockBegin
  2
*MODEL_SPACE
 70
     0
 10
0.0
 20
0.0
 30
0.0
  3
*MODEL_SPACE
  1

  0
ENDBLK
  5
21
330
1F
100
AcDbEntity
  8
0
100
AcDbBlockEnd
  0
BLOCK
  5
1C
330
1B
100
AcDbEntity
 67
     1
  8
0
100
AcDbBlockBegin
  2
*PAPER_SPACE
  1

  0
ENDBLK
  5
1D
330
1B
100
AcDbEntity
 67
     1
  8
0
100
AcDbBlockEnd
  0
ENDSEC
  0
SECTION
  2
ENTITIES
  0
LWPOLYLINE
  5
100
100
AcDbEntity
  8
Layer_1
 62
1
100
AcDbPolyline
 90
4
 70
1
 10
40.449162
 20
50.966900
 30
0.0
 10
47.012366
 20
50.966900
 30
0.0
 10
47.012366
 20
44.404324
 30
0.0
 10
40.449162
 20
44.404324
 30
0.0
  0
LWPOLYLINE
  5
101
100
AcDbEntity
  8
Layer_1
 62
1
100
AcDbPolyline
 90
4
 70
1
 10
47.519032
 20
49.578750
 30
0.0
 10
54.082236
 20
49.578750
 30
0.0
 10
54.082236
 20
43.016174
 30
0.0
 10
47.519032
 20
43.016174
 30
0.0
  0
LWPOLYLINE
  5
102
100
AcDbEntity
  8
Layer_1
 62
1
100
AcDbPolyline
 90
4
 70
1
 10
48.377468
 20
54.134160
 30
0.0
 10
54.940672
 20
54.134160
 30
0.0
 10
54.940672
 20
47.571584
 30
0.0
 10
48.377468
 20
47.571584
 30
0.0
  0
LWPOLYLINE
  5
103
100
AcDbEntity
  8
Layer_1
 62
1
100
AcDbPolyline
 90
4
 70
1
 10
54.004845
 20
51.439900
 30
0.0
 10
60.568049
 20
51.439900
 30
0.0
 10
60.568049
 20
44.877324
 30
0.0
 10
54.004845
 20
44.877324
 30
0.0
  0
LWPOLYLINE
  5
104
100
AcDbEntity
  8
Layer_1
 62
1
100
AcDbPolyline
 90
4
 70
1
 10
57.243263
 20
54.070880
 30
0.0
 10
63.806467
 20
54.070880
 30
0.0
 10
63.806467
 20
47.508304
 30
0.0
 10
57.243263
 20
47.508304
 30
0.0
  0
LWPOLYLINE
  5
105
100
AcDbEntity
  8
Layer_1
 62
1
100
AcDbPolyline
 90
4
 70
1
 10
59.902073
 20
49.753040
 30
0.0
 10
66.465277
 20
49.753040
 30
0.0
 10
66.465277
 20
43.190464
 30
0.0
 10
59.902073
 20
43.190464
 30
0.0
  0
LWPOLYLINE
  5
106
100
AcDbEntity
  8
Layer_1
 62
1
100
AcDbPolyline
 90
4
 70
1
 10
61.493690
 20
55.217700
 30
0.0
 10
68.056894
 20
55.217700
 30
0.0
 10
68.056894
 20
48.655124
 30
0.0
 10
61.493690
 20
48.655124
 30
0.0
  0
LWPOLYLINE
  5
107
100
AcDbEntity
  8
Layer_1
 62
1
100
AcDbPolyline
 90
4
 70
1
 10
59.672081
 20
59.062960
 30
0.0
 10
66.235285
 20
59.062960
 30
0.0
 10
66.235285
 20
52.500384
 30
0.0
 10
59.672081
 20
52.500384
 30
0.0
  0
LWPOLYLINE
  5
108
100
AcDbEntity
  8
Layer_1
 62
1
100
AcDbPolyline
 90
4
 70
1
 10
57.040863
 20
60.816930
 30
0.0
 10
63.604067
 20
60.816930
 30
0.0
 10
63.604067
 20
54.254354
 30
0.0
 10
57.040863
 20
54.254354
 30
0.0
  0
LWPOLYLINE
  5
109
100
AcDbEntity
  8
Layer_1
 62
1
100
AcDbPolyline
 90
4
 70
1
 10
53.802437
 20
63.312990
 30
0.0
 10
60.365641
 20
63.312990
 30
0.0
 10
60.365641
 20
56.750414
 30
0.0
 10
53.802437
 20
56.750414
 30
0.0
  0
LWPOLYLINE
  5
10a
100
AcDbEntity
  8
Layer_1
 62
1
100
AcDbPolyline
 90
4
 70
1
 10
50.226688
 20
64.257430
 30
0.0
 10
56.789892
 20
64.257430
 30
0.0
 10
56.789892
 20
57.694854
 30
0.0
 10
50.226688
 20
57.694854
 30
0.0
  0
LWPOLYLINE
  5
10b
100
AcDbEntity
  8
Layer_1
 62
1
100
AcDbPolyline
 90
4
 70
1
 10
52.588028
 20
57.983600
 30
0.0
 10
59.151232
 20
57.983600
 30
0.0
 10
59.151232
 20
51.421024
 30
0.0
 10
52.588028
 20
51.421024
 30
0.0
  0
LWPOLYLINE
  5
10c
100
AcDbEntity
  8
Layer_1
 62
1
100
AcDbPolyline
 90
4
 70
1
 10
47.865337
 20
59.805020
 30
0.0
 10
54.428541
 20
59.805020
 30
0.0
 10
54.428541
 20
53.242444
 30
0.0
 10
47.865337
 20
53.242444
 30
0.0
  0
LWPOLYLINE
  5
10d
100
AcDbEntity
  8
Layer_1
 62
1
100
AcDbPolyline
 90
4
 70
1
 10
45.436520
 20
58.167070
 30
0.0
 10
51.999724
 20
58.167070
 30
0.0
 10
51.999724
 20
64.729646
 30
0.0
 10
45.436520
 20
64.729646
 30
0.0
  0
LWPOLYLINE
  5
10e
100
AcDbEntity
  8
Layer_1
 62
1
100
AcDbPolyline
 90
4
 70
1
 10
40.376492
 20
63.717740
 30
0.0
 10
46.939696
 20
63.717740
 30
0.0
 10
46.939696
 20
57.155164
 30
0.0
 10
40.376492
 20
57.155164
 30
0.0
  0
LWPOLYLINE
  5
10f
100
AcDbEntity
  8
Layer_1
 62
1
100
AcDbPolyline
 90
4
 70
1
 10
43.210110
 20
58.928040
 30
0.0
 10
49.773314
 20
58.928040
 30
0.0
 10
49.773314
 20
52.365464
 30
0.0
 10
43.210110
 20
52.365464
 30
0.0
  0
LWPOLYLINE
  5
110
100
AcDbEntity
  8
Layer_1
 62
1
100
AcDbPolyline
 90
4
 70
1
 10
39.921089
 20
56.836750
 30
0.0
 10
46.484293
 20
56.836750
 30
0.0
 10
46.484293
 20
50.274174
 30
0.0
 10
39.921089
 20
50.274174
 30
0.0
  0
LWPOLYLINE
  5
111
100
AcDbEntity
  8
Layer_1
 62
1
100
AcDbPolyline
 90
4
 70
1
 10
36.126064
 20
62.368550
 30
0.0
 10
42.689268
 20
62.368550
 30
0.0
 10
42.689268
 20
55.805974
 30
0.0
 10
36.126064
 20
55.805974
 30
0.0
  0
LWPOLYLINE
  5
112
100
AcDbEntity
  8
Layer_1
 62
1
100
AcDbPolyline
 90
4
 70
1
 10
33.494846
 20
59.872480
 30
0.0
 10
40.058050
 20
59.872480
 30
0.0
 10
40.058050
 20
53.309904
 30
0.0
 10
33.494846
 20
53.309904
 30
0.0
  0
LWPOLYLINE
  5
113
100
AcDbEntity
  8
Layer_1
 62
1
100
AcDbPolyline
 90
4
 70
1
 10
31.943104
 20
57.106580
 30
0.0
 10
38.506308
 20
57.106580
 30
0.0
 10
38.506308
 20
50.544004
 30
0.0
 10
31.943104
 20
50.544004
 30
0.0
  0
LWPOLYLINE
  5
114
100
AcDbEntity
  8
Layer_1
 62
1
100
AcDbPolyline
 90
4
 70
1
 10
33.494846
 20
53.801040
 30
0.0
 10
40.058050
 20
53.801040
 30
0.0
 10
40.058050
 20
47.238464
 30
0.0
 10
33.494846
 20
47.238464
 30
0.0
  0
LWPOLYLINE
  5
115
100
AcDbEntity
  8
Layer_1
 62
1
100
AcDbPolyline
 90
4
 70
1
 10
51.036289
 20
46.040360
 30
0.0
 10
57.599493
 20
46.040360
 30
0.0
 10
57.599493
 20
39.477784
 30
0.0
 10
51.036289
 20
39.477784
 30
0.0
  0
LWPOLYLINE
  5
116
100
AcDbEntity
  8
Layer_1
 62
1
100
AcDbPolyline
 90
4
 70
1
 10
57.985405
 20
46.990220
 30
0.0
 10
64.548609
 20
46.990220
 30
0.0
 10
64.548609
 20
40.427644
 30
0.0
 10
57.985405
 20
40.427644
 30
0.0
  0
LWPOLYLINE
  5
117
100
AcDbEntity
  8
Layer_1
 62
1
100
AcDbPolyline
 90
4
 70
1
 10
53.971104
 20
44.525190
 30
0.0
 10
60.534308
 20
44.525190
 30
0.0
 10
60.534308
 20
37.962614
 30
0.0
 10
53.971104
 20
37.962614
 30
0.0
  0
LWPOLYLINE
  5
118
100
AcDbEntity
  8
Layer_1
 62
1
100
AcDbPolyline
 90
4
 70
1
 10
55.846565
 20
41.832920
 30
0.0
 10
62.409769
 20
41.832920
 30
0.0
 10
62.409769
 20
35.270344
 30
0.0
 10
55.846565
 20
35.270344
 30
0.0
  0
LWPOLYLINE
  5
119
100
AcDbEntity
  8
Layer_1
 62
1
100
AcDbPolyline
 90
4
 70
1
 10
41.814262
 20
54.134160
 30
0.0
 10
48.377466
 20
54.134160
 30
0.0
 10
48.377466
 20
47.571584
 30
0.0
 10
41.814262
 20
47.571584
 30
0.0
  0
LWPOLYLINE
  5
11a
100
AcDbEntity
  8
Layer_1
 62
1
100
AcDbPolyline
 90
4
 70
1
 10
36.646904
 20
52.365460
 30
0.0
 10
43.210108
 20
52.365460
 30
0.0
 10
43.210108
 20
45.802884
 30
0.0
 10
36.646904
 20
45.802884
 30
0.0
  0
ENDSEC
  0
SECTION
  2
OBJECTS
  0
DICTIONARY
  5
C
330
0
100
AcDbDictionary
  3
ACAD_GROUP
350
D
  3
ACAD_MLINESTYLE
350
17
  0
DICTIONARY
  5
D
330
C
100
AcDbDictionary
  0
DICTIONARY
  5
1A
330
C
100
AcDbDictionary
  0
DICTIONARY
  5
17
330
C
100
AcDbDictionary
  3
STANDARD
350
18
  0
DICTIONARY
  5
19
330
C
100
AcDbDictionary
  0
ENDSEC
  0
EOF
