M48
INCH,TZ
T1C0.0118
T2C0.0433
%
G90
G05
T1
X2724Y-4055
X3740Y-3661
X4232Y2264
X4724Y4764
X5217Y2264
X5236Y-2205
X5709Y4291
X6201Y2264
X6201Y-2264
T2
X2724Y7480
X2724Y2756
X2724Y1756
X2724Y-1756
X2724Y-2756
X2724Y-7480
X3724Y7480
X3724Y2756
X3724Y1756
X3724Y-1756
X3724Y-2756
X3724Y-7480
X4724Y7480
X4724Y2756
X4724Y1756
X4724Y-1756
X4724Y-2756
X4724Y-7480
X5724Y7480
X5724Y2756
X5724Y1756
X5724Y-1756
X5724Y-2756
X5724Y-7480
X6724Y7480
X6724Y2756
X6724Y1756
X6724Y-1756
X6724Y-2756
X6724Y-7480
X11417Y5429
X11417Y4429
X11417Y-4429
X11417Y-5429
X12417Y5429
X12417Y4429
X12417Y-4429
X12417Y-5429
X13417Y5429
X13417Y4429
X13417Y-4429
X13417Y-5429
X14417Y5429
X14417Y4429
X14417Y-4429
X14417Y-5429
X15417Y5429
X15417Y4429
X15417Y-4429
X15417Y-5429
M30
