G04 #@! TF.GenerationSoftware,KiCad,Pcbnew,8.0.7*
G04 #@! TF.CreationDate,2025-01-23T12:20:56+00:00*
G04 #@! TF.ProjectId,NB3_eye,4e42335f-6579-4652-9e6b-696361645f70,0.0.1*
G04 #@! TF.SameCoordinates,PX56c8cc0PY67f3540*
G04 #@! TF.FileFunction,Copper,L2,Bot*
G04 #@! TF.FilePolarity,Positive*
%FSLAX46Y46*%
G04 Gerber Fmt 4.6, Leading zero omitted, Abs format (unit mm)*
G04 Created by KiCad (PCBNEW 8.0.7) date 2025-01-23 12:20:56*
%MOMM*%
%LPD*%
G01*
G04 APERTURE LIST*
G04 #@! TA.AperFunction,ComponentPad*
%ADD10C,1.900000*%
G04 #@! TD*
G04 #@! TA.AperFunction,ComponentPad*
%ADD11R,1.574803X1.700000*%
G04 #@! TD*
G04 #@! TA.AperFunction,ComponentPad*
%ADD12C,1.700000*%
G04 #@! TD*
G04 #@! TA.AperFunction,ComponentPad*
%ADD13R,1.700000X1.574803*%
G04 #@! TD*
G04 #@! TA.AperFunction,ViaPad*
%ADD14C,0.600000*%
G04 #@! TD*
G04 #@! TA.AperFunction,Conductor*
%ADD15C,0.200000*%
G04 #@! TD*
G04 APERTURE END LIST*
D10*
X6919990Y-19000000D03*
X9459995Y-19000000D03*
X12000000Y-19000000D03*
X14540005Y-19000000D03*
X17080010Y-19000000D03*
X17080010Y19000000D03*
X14540005Y19000000D03*
X12000000Y19000000D03*
X9459995Y19000000D03*
X6919990Y19000000D03*
D11*
X6919990Y4459994D03*
D12*
X6919990Y7000000D03*
X9459995Y4459994D03*
X9459995Y7000000D03*
X12000000Y4459994D03*
X12000000Y7000000D03*
X14540005Y4459994D03*
X14540005Y7000000D03*
X17080010Y4459994D03*
X17080010Y7000000D03*
D13*
X29000000Y11250000D03*
D12*
X29000000Y13790006D03*
X31540005Y11250000D03*
X31540005Y13790006D03*
X34080010Y11250000D03*
X34080010Y13790006D03*
X36620015Y11250000D03*
X36620015Y13790006D03*
X39160020Y11250000D03*
X39160020Y13790006D03*
D11*
X17080010Y-4459994D03*
D12*
X17080010Y-7000000D03*
X14540005Y-4459994D03*
X14540005Y-7000000D03*
X12000000Y-4459994D03*
X12000000Y-7000000D03*
X9459995Y-4459994D03*
X9459995Y-7000000D03*
X6919990Y-4459994D03*
X6919990Y-7000000D03*
D13*
X39160020Y-11250000D03*
D12*
X39160020Y-13790006D03*
X36620015Y-11250000D03*
X36620015Y-13790006D03*
X34080010Y-11250000D03*
X34080010Y-13790006D03*
X31540005Y-11250000D03*
X31540005Y-13790006D03*
X29000000Y-11250000D03*
X29000000Y-13790006D03*
D14*
X13250000Y5750000D03*
X14500000Y10900000D03*
X15750000Y5750000D03*
X12000000Y12100000D03*
X10750000Y5750000D03*
X6919990Y-10300000D03*
X15750000Y-5750000D03*
X13300000Y-5600000D03*
X9500000Y-9300000D03*
D15*
X13250000Y5750000D02*
X13250000Y10450000D01*
X13700000Y10900000D02*
X14500000Y10900000D01*
X13250000Y10450000D02*
X13700000Y10900000D01*
X15750000Y11650000D02*
X15750000Y5750000D01*
X12000000Y12100000D02*
X15300000Y12100000D01*
X15300000Y12100000D02*
X15750000Y11650000D01*
X16700000Y14000000D02*
X17080010Y14380010D01*
X17080010Y14380010D02*
X17080010Y19000000D01*
X10750000Y13550000D02*
X11200000Y14000000D01*
X10750000Y5750000D02*
X10750000Y13550000D01*
X11200000Y14000000D02*
X16700000Y14000000D01*
X6919990Y-10300000D02*
X7019990Y-10200000D01*
X15550000Y-10200000D02*
X15750000Y-10000000D01*
X15750000Y-10000000D02*
X15750000Y-5750000D01*
X7019990Y-10200000D02*
X15550000Y-10200000D01*
X13300000Y-9000000D02*
X13300000Y-5600000D01*
X9500000Y-9300000D02*
X13000000Y-9300000D01*
X13000000Y-9300000D02*
X13300000Y-9000000D01*
G04 #@! TA.AperFunction,Conductor*
G36*
X8034915Y-5221365D02*
G01*
X8088113Y-5145394D01*
X8142690Y-5101770D01*
X8212189Y-5094578D01*
X8274543Y-5126101D01*
X8291262Y-5145396D01*
X8421495Y-5331389D01*
X8421500Y-5331395D01*
X8588594Y-5498489D01*
X8697747Y-5574919D01*
X8774157Y-5628422D01*
X8817782Y-5682999D01*
X8824975Y-5752497D01*
X8793453Y-5814852D01*
X8774157Y-5831572D01*
X8588592Y-5961505D01*
X8421500Y-6128597D01*
X8291567Y-6314162D01*
X8236990Y-6357787D01*
X8167492Y-6364980D01*
X8105137Y-6333458D01*
X8088417Y-6314162D01*
X7958484Y-6128597D01*
X7791392Y-5961506D01*
X7791385Y-5961501D01*
X7744026Y-5928340D01*
X7605391Y-5831266D01*
X7561766Y-5776689D01*
X7554573Y-5707191D01*
X7586095Y-5644836D01*
X7605390Y-5628117D01*
X7681361Y-5574919D01*
X7090234Y-4983792D01*
X7132287Y-4972524D01*
X7257706Y-4900114D01*
X7360110Y-4797710D01*
X7432520Y-4672291D01*
X7443788Y-4630238D01*
X8034915Y-5221365D01*
G37*
G04 #@! TD.AperFunction*
G04 #@! TA.AperFunction,Conductor*
G36*
X42943039Y-1019685D02*
G01*
X42988794Y-1072489D01*
X43000000Y-1124000D01*
X43000000Y-24948638D01*
X42980315Y-25015677D01*
X42963681Y-25036319D01*
X40036319Y-27963681D01*
X39974996Y-27997166D01*
X39948638Y-28000000D01*
X20613304Y-28000000D01*
X20546265Y-27980315D01*
X20500510Y-27927511D01*
X20493529Y-27908093D01*
X20466391Y-27806812D01*
X20457563Y-27791521D01*
X20400500Y-27692686D01*
X20307314Y-27599500D01*
X19307314Y-26599500D01*
X19250250Y-26566554D01*
X19193187Y-26533608D01*
X19129539Y-26516554D01*
X19065892Y-26499500D01*
X5065893Y-26499500D01*
X4934108Y-26499500D01*
X4806812Y-26533608D01*
X4692686Y-26599500D01*
X4692683Y-26599502D01*
X3599502Y-27692683D01*
X3599500Y-27692686D01*
X3533608Y-27806812D01*
X3506471Y-27908093D01*
X3470106Y-27967754D01*
X3407259Y-27998283D01*
X3386696Y-28000000D01*
X2051362Y-28000000D01*
X1984323Y-27980315D01*
X1963681Y-27963681D01*
X1036319Y-27036319D01*
X1002834Y-26974996D01*
X1000000Y-26948638D01*
X1000000Y-18999994D01*
X5464519Y-18999994D01*
X5464519Y-19000005D01*
X5484369Y-19239559D01*
X5543379Y-19472589D01*
X5639941Y-19692729D01*
X5753798Y-19866998D01*
X5771419Y-19893969D01*
X5934226Y-20070825D01*
X5934229Y-20070827D01*
X5934232Y-20070830D01*
X6123914Y-20218466D01*
X6123920Y-20218470D01*
X6123923Y-20218472D01*
X6335334Y-20332882D01*
X6335337Y-20332883D01*
X6562689Y-20410933D01*
X6562691Y-20410933D01*
X6562693Y-20410934D01*
X6799798Y-20450500D01*
X6799799Y-20450500D01*
X7040181Y-20450500D01*
X7040182Y-20450500D01*
X7277287Y-20410934D01*
X7504646Y-20332882D01*
X7716057Y-20218472D01*
X7716601Y-20218049D01*
X7779758Y-20168891D01*
X7905754Y-20070825D01*
X8068561Y-19893969D01*
X8086183Y-19866996D01*
X8139326Y-19821639D01*
X8208557Y-19812214D01*
X8271894Y-19841713D01*
X8293798Y-19866990D01*
X8311424Y-19893969D01*
X8474231Y-20070825D01*
X8474234Y-20070827D01*
X8474237Y-20070830D01*
X8663919Y-20218466D01*
X8663925Y-20218470D01*
X8663928Y-20218472D01*
X8875339Y-20332882D01*
X8875342Y-20332883D01*
X9102694Y-20410933D01*
X9102696Y-20410933D01*
X9102698Y-20410934D01*
X9339803Y-20450500D01*
X9339804Y-20450500D01*
X9580186Y-20450500D01*
X9580187Y-20450500D01*
X9817292Y-20410934D01*
X10044651Y-20332882D01*
X10256062Y-20218472D01*
X10256606Y-20218049D01*
X10319763Y-20168891D01*
X10445759Y-20070825D01*
X10608566Y-19893969D01*
X10626188Y-19866996D01*
X10679331Y-19821639D01*
X10748562Y-19812214D01*
X10811899Y-19841713D01*
X10833803Y-19866990D01*
X10851429Y-19893969D01*
X11014236Y-20070825D01*
X11014239Y-20070827D01*
X11014242Y-20070830D01*
X11203924Y-20218466D01*
X11203930Y-20218470D01*
X11203933Y-20218472D01*
X11415344Y-20332882D01*
X11415347Y-20332883D01*
X11642699Y-20410933D01*
X11642701Y-20410933D01*
X11642703Y-20410934D01*
X11879808Y-20450500D01*
X11879809Y-20450500D01*
X12120191Y-20450500D01*
X12120192Y-20450500D01*
X12357297Y-20410934D01*
X12584656Y-20332882D01*
X12796067Y-20218472D01*
X12796611Y-20218049D01*
X12859768Y-20168891D01*
X12985764Y-20070825D01*
X13148571Y-19893969D01*
X13166491Y-19866539D01*
X13219636Y-19821182D01*
X13288867Y-19811757D01*
X13331349Y-19831543D01*
X13352693Y-19833757D01*
X14016206Y-19170244D01*
X14027475Y-19212297D01*
X14099885Y-19337716D01*
X14202289Y-19440120D01*
X14327708Y-19512530D01*
X14369759Y-19523797D01*
X13705577Y-20187979D01*
X13744213Y-20218051D01*
X13955549Y-20332421D01*
X13955555Y-20332423D01*
X14182828Y-20410446D01*
X14419856Y-20450000D01*
X14660154Y-20450000D01*
X14897181Y-20410446D01*
X15124454Y-20332423D01*
X15124460Y-20332421D01*
X15335799Y-20218049D01*
X15335800Y-20218048D01*
X15374431Y-20187980D01*
X15374432Y-20187979D01*
X14710250Y-19523797D01*
X14752302Y-19512530D01*
X14877721Y-19440120D01*
X14980125Y-19337716D01*
X15052535Y-19212297D01*
X15063802Y-19170244D01*
X15727315Y-19833757D01*
X15746657Y-19831751D01*
X15759041Y-19821182D01*
X15828272Y-19811755D01*
X15891609Y-19841254D01*
X15913516Y-19866536D01*
X15931439Y-19893969D01*
X16094246Y-20070825D01*
X16094249Y-20070827D01*
X16094252Y-20070830D01*
X16283934Y-20218466D01*
X16283940Y-20218470D01*
X16283943Y-20218472D01*
X16495354Y-20332882D01*
X16495357Y-20332883D01*
X16722709Y-20410933D01*
X16722711Y-20410933D01*
X16722713Y-20410934D01*
X16959818Y-20450500D01*
X16959819Y-20450500D01*
X17200201Y-20450500D01*
X17200202Y-20450500D01*
X17437307Y-20410934D01*
X17664666Y-20332882D01*
X17876077Y-20218472D01*
X17876621Y-20218049D01*
X17939778Y-20168891D01*
X18065774Y-20070825D01*
X18228581Y-19893969D01*
X18360059Y-19692728D01*
X18456620Y-19472591D01*
X18515630Y-19239563D01*
X18535481Y-19000000D01*
X18515630Y-18760437D01*
X18456620Y-18527409D01*
X18360059Y-18307272D01*
X18228581Y-18106031D01*
X18065774Y-17929175D01*
X18065769Y-17929171D01*
X18065767Y-17929169D01*
X17876085Y-17781533D01*
X17876079Y-17781529D01*
X17664667Y-17667118D01*
X17664662Y-17667116D01*
X17437310Y-17589066D01*
X17259478Y-17559391D01*
X17200202Y-17549500D01*
X16959818Y-17549500D01*
X16912397Y-17557413D01*
X16722709Y-17589066D01*
X16495357Y-17667116D01*
X16495352Y-17667118D01*
X16283940Y-17781529D01*
X16283934Y-17781533D01*
X16094252Y-17929169D01*
X16094249Y-17929172D01*
X15931440Y-18106029D01*
X15931436Y-18106035D01*
X15913514Y-18133465D01*
X15860366Y-18178820D01*
X15791134Y-18188241D01*
X15748661Y-18168455D01*
X15727315Y-18166241D01*
X15063802Y-18829754D01*
X15052535Y-18787703D01*
X14980125Y-18662284D01*
X14877721Y-18559880D01*
X14752302Y-18487470D01*
X14710248Y-18476201D01*
X15374431Y-17812019D01*
X15374431Y-17812017D01*
X15335806Y-17781954D01*
X15335800Y-17781950D01*
X15124460Y-17667578D01*
X15124454Y-17667576D01*
X14897181Y-17589553D01*
X14660154Y-17550000D01*
X14419856Y-17550000D01*
X14182828Y-17589553D01*
X13955555Y-17667576D01*
X13955549Y-17667578D01*
X13744214Y-17781948D01*
X13705576Y-17812019D01*
X14369759Y-18476202D01*
X14327708Y-18487470D01*
X14202289Y-18559880D01*
X14099885Y-18662284D01*
X14027475Y-18787703D01*
X14016207Y-18829755D01*
X13352693Y-18166241D01*
X13333344Y-18168248D01*
X13320956Y-18178820D01*
X13251724Y-18188240D01*
X13188390Y-18158735D01*
X13166492Y-18133461D01*
X13166194Y-18133005D01*
X13148571Y-18106031D01*
X12985764Y-17929175D01*
X12985759Y-17929171D01*
X12985757Y-17929169D01*
X12796075Y-17781533D01*
X12796069Y-17781529D01*
X12584657Y-17667118D01*
X12584652Y-17667116D01*
X12357300Y-17589066D01*
X12179468Y-17559391D01*
X12120192Y-17549500D01*
X11879808Y-17549500D01*
X11832387Y-17557413D01*
X11642699Y-17589066D01*
X11415347Y-17667116D01*
X11415342Y-17667118D01*
X11203930Y-17781529D01*
X11203924Y-17781533D01*
X11014242Y-17929169D01*
X11014239Y-17929172D01*
X10851428Y-18106031D01*
X10833805Y-18133006D01*
X10780658Y-18178362D01*
X10711426Y-18187785D01*
X10648091Y-18158282D01*
X10626189Y-18133005D01*
X10608566Y-18106031D01*
X10445759Y-17929175D01*
X10445754Y-17929171D01*
X10445752Y-17929169D01*
X10256070Y-17781533D01*
X10256064Y-17781529D01*
X10044652Y-17667118D01*
X10044647Y-17667116D01*
X9817295Y-17589066D01*
X9639463Y-17559391D01*
X9580187Y-17549500D01*
X9339803Y-17549500D01*
X9292382Y-17557413D01*
X9102694Y-17589066D01*
X8875342Y-17667116D01*
X8875337Y-17667118D01*
X8663925Y-17781529D01*
X8663919Y-17781533D01*
X8474237Y-17929169D01*
X8474234Y-17929172D01*
X8311423Y-18106031D01*
X8293800Y-18133006D01*
X8240653Y-18178362D01*
X8171421Y-18187785D01*
X8108086Y-18158282D01*
X8086184Y-18133005D01*
X8068561Y-18106031D01*
X7905754Y-17929175D01*
X7905749Y-17929171D01*
X7905747Y-17929169D01*
X7716065Y-17781533D01*
X7716059Y-17781529D01*
X7504647Y-17667118D01*
X7504642Y-17667116D01*
X7277290Y-17589066D01*
X7099458Y-17559391D01*
X7040182Y-17549500D01*
X6799798Y-17549500D01*
X6752377Y-17557413D01*
X6562689Y-17589066D01*
X6335337Y-17667116D01*
X6335332Y-17667118D01*
X6123920Y-17781529D01*
X6123914Y-17781533D01*
X5934232Y-17929169D01*
X5934229Y-17929172D01*
X5771420Y-18106029D01*
X5771417Y-18106033D01*
X5639941Y-18307270D01*
X5543379Y-18527410D01*
X5484369Y-18760440D01*
X5464519Y-18999994D01*
X1000000Y-18999994D01*
X1000000Y-11249999D01*
X27644341Y-11249999D01*
X27644341Y-11250000D01*
X27664936Y-11485403D01*
X27664938Y-11485413D01*
X27726094Y-11713655D01*
X27726096Y-11713659D01*
X27726097Y-11713663D01*
X27820701Y-11916542D01*
X27825965Y-11927830D01*
X27825967Y-11927834D01*
X27831572Y-11935838D01*
X27961505Y-12121401D01*
X28128599Y-12288495D01*
X28249622Y-12373236D01*
X28314162Y-12418428D01*
X28357787Y-12473005D01*
X28364980Y-12542503D01*
X28333458Y-12604858D01*
X28314162Y-12621578D01*
X28128597Y-12751511D01*
X27961505Y-12918603D01*
X27825965Y-13112175D01*
X27825964Y-13112177D01*
X27726098Y-13326341D01*
X27726094Y-13326350D01*
X27664938Y-13554592D01*
X27664936Y-13554602D01*
X27644341Y-13790005D01*
X27644341Y-13790006D01*
X27664936Y-14025409D01*
X27664938Y-14025419D01*
X27726094Y-14253661D01*
X27726096Y-14253665D01*
X27726097Y-14253669D01*
X27820701Y-14456548D01*
X27825965Y-14467836D01*
X27825967Y-14467840D01*
X27831572Y-14475844D01*
X27961505Y-14661407D01*
X28128599Y-14828501D01*
X28225384Y-14896271D01*
X28322165Y-14964038D01*
X28322167Y-14964039D01*
X28322170Y-14964041D01*
X28536337Y-15063909D01*
X28764592Y-15125069D01*
X28952918Y-15141545D01*
X28999999Y-15145665D01*
X29000000Y-15145665D01*
X29000001Y-15145665D01*
X29039234Y-15142232D01*
X29235408Y-15125069D01*
X29463663Y-15063909D01*
X29677830Y-14964041D01*
X29871401Y-14828501D01*
X30038495Y-14661407D01*
X30168428Y-14475842D01*
X30223004Y-14432219D01*
X30292502Y-14425025D01*
X30354857Y-14456548D01*
X30371577Y-14475844D01*
X30501510Y-14661407D01*
X30668604Y-14828501D01*
X30765389Y-14896271D01*
X30862170Y-14964038D01*
X30862172Y-14964039D01*
X30862175Y-14964041D01*
X31076342Y-15063909D01*
X31304597Y-15125069D01*
X31492923Y-15141545D01*
X31540004Y-15145665D01*
X31540005Y-15145665D01*
X31540006Y-15145665D01*
X31579239Y-15142232D01*
X31775413Y-15125069D01*
X32003668Y-15063909D01*
X32217835Y-14964041D01*
X32411406Y-14828501D01*
X32578500Y-14661407D01*
X32708433Y-14475842D01*
X32763009Y-14432219D01*
X32832507Y-14425025D01*
X32894862Y-14456548D01*
X32911582Y-14475844D01*
X33041515Y-14661407D01*
X33208609Y-14828501D01*
X33305394Y-14896271D01*
X33402175Y-14964038D01*
X33402177Y-14964039D01*
X33402180Y-14964041D01*
X33616347Y-15063909D01*
X33844602Y-15125069D01*
X34032928Y-15141545D01*
X34080009Y-15145665D01*
X34080010Y-15145665D01*
X34080011Y-15145665D01*
X34119244Y-15142232D01*
X34315418Y-15125069D01*
X34543673Y-15063909D01*
X34757840Y-14964041D01*
X34951411Y-14828501D01*
X35118505Y-14661407D01*
X35248438Y-14475842D01*
X35303014Y-14432219D01*
X35372512Y-14425025D01*
X35434867Y-14456548D01*
X35451587Y-14475844D01*
X35581520Y-14661407D01*
X35748614Y-14828501D01*
X35845399Y-14896271D01*
X35942180Y-14964038D01*
X35942182Y-14964039D01*
X35942185Y-14964041D01*
X36156352Y-15063909D01*
X36384607Y-15125069D01*
X36572933Y-15141545D01*
X36620014Y-15145665D01*
X36620015Y-15145665D01*
X36620016Y-15145665D01*
X36659249Y-15142232D01*
X36855423Y-15125069D01*
X37083678Y-15063909D01*
X37297845Y-14964041D01*
X37491416Y-14828501D01*
X37658510Y-14661407D01*
X37788443Y-14475842D01*
X37843019Y-14432219D01*
X37912517Y-14425025D01*
X37974872Y-14456548D01*
X37991592Y-14475844D01*
X38121525Y-14661407D01*
X38288619Y-14828501D01*
X38385404Y-14896271D01*
X38482185Y-14964038D01*
X38482187Y-14964039D01*
X38482190Y-14964041D01*
X38696357Y-15063909D01*
X38924612Y-15125069D01*
X39112938Y-15141545D01*
X39160019Y-15145665D01*
X39160020Y-15145665D01*
X39160021Y-15145665D01*
X39199254Y-15142232D01*
X39395428Y-15125069D01*
X39623683Y-15063909D01*
X39837850Y-14964041D01*
X40031421Y-14828501D01*
X40198515Y-14661407D01*
X40334055Y-14467836D01*
X40433923Y-14253669D01*
X40495083Y-14025414D01*
X40515679Y-13790006D01*
X40495083Y-13554598D01*
X40433923Y-13326343D01*
X40334055Y-13112177D01*
X40198515Y-12918605D01*
X40198514Y-12918603D01*
X40031417Y-12751507D01*
X40031268Y-12751382D01*
X40031220Y-12751310D01*
X40027593Y-12747683D01*
X40028322Y-12746953D01*
X39992573Y-12693206D01*
X39991474Y-12623345D01*
X40028319Y-12563980D01*
X40091410Y-12533958D01*
X40097732Y-12533113D01*
X40117400Y-12530998D01*
X40252106Y-12480756D01*
X40252113Y-12480752D01*
X40367207Y-12394592D01*
X40367210Y-12394589D01*
X40453370Y-12279495D01*
X40453374Y-12279488D01*
X40503616Y-12144781D01*
X40503618Y-12144774D01*
X40510019Y-12085246D01*
X40510020Y-12085229D01*
X40510020Y-11500000D01*
X39650782Y-11500000D01*
X39672550Y-11462297D01*
X39710033Y-11322411D01*
X39710033Y-11177589D01*
X39672550Y-11037703D01*
X39650782Y-11000000D01*
X40510020Y-11000000D01*
X40510020Y-10414770D01*
X40510019Y-10414753D01*
X40503618Y-10355225D01*
X40503616Y-10355218D01*
X40453374Y-10220511D01*
X40453370Y-10220504D01*
X40367210Y-10105410D01*
X40367207Y-10105407D01*
X40252113Y-10019247D01*
X40252106Y-10019243D01*
X40117399Y-9969001D01*
X40117392Y-9968999D01*
X40057864Y-9962598D01*
X39410020Y-9962598D01*
X39410020Y-10759237D01*
X39372317Y-10737470D01*
X39232431Y-10699987D01*
X39087609Y-10699987D01*
X38947723Y-10737470D01*
X38910020Y-10759237D01*
X38910020Y-9962598D01*
X38262175Y-9962598D01*
X38202647Y-9968999D01*
X38202640Y-9969001D01*
X38067933Y-10019243D01*
X38067926Y-10019247D01*
X37952832Y-10105407D01*
X37952829Y-10105410D01*
X37866669Y-10220504D01*
X37866663Y-10220515D01*
X37834600Y-10306479D01*
X37792729Y-10362413D01*
X37727264Y-10386829D01*
X37658991Y-10371977D01*
X37630738Y-10350827D01*
X37579907Y-10299996D01*
X37491416Y-10211505D01*
X37491412Y-10211502D01*
X37491411Y-10211501D01*
X37297849Y-10075967D01*
X37297845Y-10075965D01*
X37176213Y-10019247D01*
X37083678Y-9976097D01*
X37083674Y-9976096D01*
X37083670Y-9976094D01*
X36855428Y-9914938D01*
X36855418Y-9914936D01*
X36620016Y-9894341D01*
X36620014Y-9894341D01*
X36384611Y-9914936D01*
X36384601Y-9914938D01*
X36156359Y-9976094D01*
X36156350Y-9976098D01*
X35942186Y-10075964D01*
X35942184Y-10075965D01*
X35748612Y-10211505D01*
X35581520Y-10378597D01*
X35451587Y-10564162D01*
X35397010Y-10607787D01*
X35327512Y-10614980D01*
X35265157Y-10583458D01*
X35248437Y-10564162D01*
X35118504Y-10378597D01*
X34951412Y-10211506D01*
X34951405Y-10211501D01*
X34757844Y-10075967D01*
X34757840Y-10075965D01*
X34636208Y-10019247D01*
X34543673Y-9976097D01*
X34543669Y-9976096D01*
X34543665Y-9976094D01*
X34315423Y-9914938D01*
X34315413Y-9914936D01*
X34080011Y-9894341D01*
X34080009Y-9894341D01*
X33844606Y-9914936D01*
X33844596Y-9914938D01*
X33616354Y-9976094D01*
X33616345Y-9976098D01*
X33402181Y-10075964D01*
X33402179Y-10075965D01*
X33208607Y-10211505D01*
X33041515Y-10378597D01*
X32911582Y-10564162D01*
X32857005Y-10607787D01*
X32787507Y-10614980D01*
X32725152Y-10583458D01*
X32708432Y-10564162D01*
X32578499Y-10378597D01*
X32411407Y-10211506D01*
X32411400Y-10211501D01*
X32217839Y-10075967D01*
X32217835Y-10075965D01*
X32096203Y-10019247D01*
X32003668Y-9976097D01*
X32003664Y-9976096D01*
X32003660Y-9976094D01*
X31775418Y-9914938D01*
X31775408Y-9914936D01*
X31540006Y-9894341D01*
X31540004Y-9894341D01*
X31304601Y-9914936D01*
X31304591Y-9914938D01*
X31076349Y-9976094D01*
X31076340Y-9976098D01*
X30862176Y-10075964D01*
X30862174Y-10075965D01*
X30668602Y-10211505D01*
X30501510Y-10378597D01*
X30371577Y-10564162D01*
X30317000Y-10607787D01*
X30247502Y-10614980D01*
X30185147Y-10583458D01*
X30168427Y-10564162D01*
X30038494Y-10378597D01*
X29871402Y-10211506D01*
X29871395Y-10211501D01*
X29677834Y-10075967D01*
X29677830Y-10075965D01*
X29556198Y-10019247D01*
X29463663Y-9976097D01*
X29463659Y-9976096D01*
X29463655Y-9976094D01*
X29235413Y-9914938D01*
X29235403Y-9914936D01*
X29000001Y-9894341D01*
X28999999Y-9894341D01*
X28764596Y-9914936D01*
X28764586Y-9914938D01*
X28536344Y-9976094D01*
X28536335Y-9976098D01*
X28322171Y-10075964D01*
X28322169Y-10075965D01*
X28128597Y-10211505D01*
X27961505Y-10378597D01*
X27825965Y-10572169D01*
X27825964Y-10572171D01*
X27726098Y-10786335D01*
X27726094Y-10786344D01*
X27664938Y-11014586D01*
X27664936Y-11014596D01*
X27644341Y-11249999D01*
X1000000Y-11249999D01*
X1000000Y-6999999D01*
X5564331Y-6999999D01*
X5564331Y-7000000D01*
X5584926Y-7235403D01*
X5584928Y-7235413D01*
X5646084Y-7463655D01*
X5646086Y-7463659D01*
X5646087Y-7463663D01*
X5740691Y-7666542D01*
X5745955Y-7677830D01*
X5745957Y-7677834D01*
X5751562Y-7685838D01*
X5881495Y-7871401D01*
X6048589Y-8038495D01*
X6145374Y-8106265D01*
X6242155Y-8174032D01*
X6242157Y-8174033D01*
X6242160Y-8174035D01*
X6456327Y-8273903D01*
X6456333Y-8273904D01*
X6456334Y-8273905D01*
X6469893Y-8277538D01*
X6684582Y-8335063D01*
X6872908Y-8351539D01*
X6919989Y-8355659D01*
X6919990Y-8355659D01*
X6919991Y-8355659D01*
X6959224Y-8352226D01*
X7155398Y-8335063D01*
X7383653Y-8273903D01*
X7597820Y-8174035D01*
X7791391Y-8038495D01*
X7958485Y-7871401D01*
X8088418Y-7685836D01*
X8142994Y-7642213D01*
X8212492Y-7635019D01*
X8274847Y-7666542D01*
X8291567Y-7685838D01*
X8421500Y-7871401D01*
X8588594Y-8038495D01*
X8685379Y-8106265D01*
X8782160Y-8174032D01*
X8782162Y-8174033D01*
X8782165Y-8174035D01*
X8996332Y-8273903D01*
X8996338Y-8273904D01*
X8996339Y-8273905D01*
X9009898Y-8277538D01*
X9181370Y-8323483D01*
X9241030Y-8359848D01*
X9271560Y-8422694D01*
X9263266Y-8492070D01*
X9218781Y-8545948D01*
X9190233Y-8560299D01*
X9150479Y-8574209D01*
X8997737Y-8670184D01*
X8870184Y-8797737D01*
X8774211Y-8950476D01*
X8714631Y-9120745D01*
X8714630Y-9120750D01*
X8694435Y-9299996D01*
X8694435Y-9300003D01*
X8712644Y-9461617D01*
X8700589Y-9530439D01*
X8653240Y-9581818D01*
X8589424Y-9599500D01*
X7345484Y-9599500D01*
X7279513Y-9580494D01*
X7269515Y-9574212D01*
X7099244Y-9514631D01*
X7099239Y-9514630D01*
X6919994Y-9494435D01*
X6919986Y-9494435D01*
X6740740Y-9514630D01*
X6740735Y-9514631D01*
X6570466Y-9574211D01*
X6417727Y-9670184D01*
X6290174Y-9797737D01*
X6194201Y-9950476D01*
X6134621Y-10120745D01*
X6134620Y-10120750D01*
X6114425Y-10299996D01*
X6114425Y-10300003D01*
X6134620Y-10479249D01*
X6134621Y-10479254D01*
X6194201Y-10649523D01*
X6280166Y-10786335D01*
X6290174Y-10802262D01*
X6417728Y-10929816D01*
X6508070Y-10986582D01*
X6552638Y-11014586D01*
X6570468Y-11025789D01*
X6740735Y-11085368D01*
X6740740Y-11085369D01*
X6919986Y-11105565D01*
X6919990Y-11105565D01*
X6919994Y-11105565D01*
X7099239Y-11085369D01*
X7099242Y-11085368D01*
X7099245Y-11085368D01*
X7269512Y-11025789D01*
X7422252Y-10929816D01*
X7515250Y-10836818D01*
X7576574Y-10803334D01*
X7602931Y-10800500D01*
X15463331Y-10800500D01*
X15463347Y-10800501D01*
X15470943Y-10800501D01*
X15629054Y-10800501D01*
X15629057Y-10800501D01*
X15781785Y-10759577D01*
X15831904Y-10730639D01*
X15918716Y-10680520D01*
X16030520Y-10568716D01*
X16030520Y-10568714D01*
X16230520Y-10368716D01*
X16309577Y-10231784D01*
X16350501Y-10079057D01*
X16350501Y-9920942D01*
X16350501Y-9913347D01*
X16350500Y-9913329D01*
X16350500Y-8344577D01*
X16370185Y-8277538D01*
X16422989Y-8231783D01*
X16492147Y-8221839D01*
X16526902Y-8232194D01*
X16616347Y-8273903D01*
X16616352Y-8273904D01*
X16616354Y-8273905D01*
X16629913Y-8277538D01*
X16844602Y-8335063D01*
X17032928Y-8351539D01*
X17080009Y-8355659D01*
X17080010Y-8355659D01*
X17080011Y-8355659D01*
X17119244Y-8352226D01*
X17315418Y-8335063D01*
X17543673Y-8273903D01*
X17757840Y-8174035D01*
X17951411Y-8038495D01*
X18118505Y-7871401D01*
X18254045Y-7677830D01*
X18353913Y-7463663D01*
X18415073Y-7235408D01*
X18435669Y-7000000D01*
X18415073Y-6764592D01*
X18353913Y-6536337D01*
X18254045Y-6322171D01*
X18118505Y-6128599D01*
X18118504Y-6128597D01*
X17979570Y-5989663D01*
X17946085Y-5928340D01*
X17951069Y-5858648D01*
X17992941Y-5802715D01*
X18023917Y-5785800D01*
X18109743Y-5753790D01*
X18224958Y-5667540D01*
X18311208Y-5552325D01*
X18361503Y-5417477D01*
X18367912Y-5357867D01*
X18367911Y-3562122D01*
X18361503Y-3502511D01*
X18311208Y-3367663D01*
X18311207Y-3367662D01*
X18311205Y-3367658D01*
X18224959Y-3252449D01*
X18224956Y-3252446D01*
X18109747Y-3166200D01*
X18109740Y-3166196D01*
X17974894Y-3115902D01*
X17974895Y-3115902D01*
X17915295Y-3109495D01*
X17915293Y-3109494D01*
X17915285Y-3109494D01*
X17915276Y-3109494D01*
X16244737Y-3109494D01*
X16244731Y-3109495D01*
X16185124Y-3115902D01*
X16050279Y-3166196D01*
X16050272Y-3166200D01*
X15935063Y-3252446D01*
X15935060Y-3252449D01*
X15848814Y-3367658D01*
X15848810Y-3367665D01*
X15798516Y-3502510D01*
X15796448Y-3521751D01*
X15769709Y-3586301D01*
X15712316Y-3626148D01*
X15642490Y-3628641D01*
X15582402Y-3592987D01*
X15578647Y-3588739D01*
X15411407Y-3421500D01*
X15411400Y-3421495D01*
X15217839Y-3285961D01*
X15217835Y-3285959D01*
X15217833Y-3285958D01*
X15003668Y-3186091D01*
X15003664Y-3186090D01*
X15003660Y-3186088D01*
X14775418Y-3124932D01*
X14775408Y-3124930D01*
X14540006Y-3104335D01*
X14540004Y-3104335D01*
X14304601Y-3124930D01*
X14304591Y-3124932D01*
X14076349Y-3186088D01*
X14076340Y-3186092D01*
X13862176Y-3285958D01*
X13862174Y-3285959D01*
X13668602Y-3421499D01*
X13501510Y-3588591D01*
X13371577Y-3774156D01*
X13317000Y-3817781D01*
X13247502Y-3824974D01*
X13185147Y-3793452D01*
X13168427Y-3774156D01*
X13038494Y-3588591D01*
X12871402Y-3421500D01*
X12871395Y-3421495D01*
X12677834Y-3285961D01*
X12677830Y-3285959D01*
X12677828Y-3285958D01*
X12463663Y-3186091D01*
X12463659Y-3186090D01*
X12463655Y-3186088D01*
X12235413Y-3124932D01*
X12235403Y-3124930D01*
X12000001Y-3104335D01*
X11999999Y-3104335D01*
X11764596Y-3124930D01*
X11764586Y-3124932D01*
X11536344Y-3186088D01*
X11536335Y-3186092D01*
X11322171Y-3285958D01*
X11322169Y-3285959D01*
X11128597Y-3421499D01*
X10961505Y-3588591D01*
X10831572Y-3774156D01*
X10776995Y-3817781D01*
X10707497Y-3824974D01*
X10645142Y-3793452D01*
X10628422Y-3774156D01*
X10498489Y-3588591D01*
X10331397Y-3421500D01*
X10331390Y-3421495D01*
X10137829Y-3285961D01*
X10137825Y-3285959D01*
X10137823Y-3285958D01*
X9923658Y-3186091D01*
X9923654Y-3186090D01*
X9923650Y-3186088D01*
X9695408Y-3124932D01*
X9695398Y-3124930D01*
X9459996Y-3104335D01*
X9459994Y-3104335D01*
X9224591Y-3124930D01*
X9224581Y-3124932D01*
X8996339Y-3186088D01*
X8996330Y-3186092D01*
X8782166Y-3285958D01*
X8782164Y-3285959D01*
X8588592Y-3421499D01*
X8421500Y-3588591D01*
X8291262Y-3774592D01*
X8236685Y-3818217D01*
X8167187Y-3825411D01*
X8104832Y-3793888D01*
X8088112Y-3774593D01*
X8034915Y-3698620D01*
X7443787Y-4289748D01*
X7432520Y-4247697D01*
X7360110Y-4122278D01*
X7257706Y-4019874D01*
X7132287Y-3947464D01*
X7090234Y-3936195D01*
X7681362Y-3345067D01*
X7597566Y-3286392D01*
X7383482Y-3186564D01*
X7383473Y-3186560D01*
X7155316Y-3125426D01*
X7155305Y-3125424D01*
X6919992Y-3104837D01*
X6919988Y-3104837D01*
X6684674Y-3125424D01*
X6684663Y-3125426D01*
X6456506Y-3186560D01*
X6456497Y-3186564D01*
X6242413Y-3286393D01*
X6242411Y-3286394D01*
X6158617Y-3345067D01*
X6158616Y-3345067D01*
X6749745Y-3936195D01*
X6707693Y-3947464D01*
X6582274Y-4019874D01*
X6479870Y-4122278D01*
X6407460Y-4247697D01*
X6396192Y-4289749D01*
X5805063Y-3698620D01*
X5805063Y-3698621D01*
X5746390Y-3782415D01*
X5746389Y-3782417D01*
X5646560Y-3996501D01*
X5646556Y-3996510D01*
X5585422Y-4224667D01*
X5585420Y-4224678D01*
X5564833Y-4459992D01*
X5564833Y-4459995D01*
X5585420Y-4695309D01*
X5585422Y-4695320D01*
X5646556Y-4923477D01*
X5646560Y-4923486D01*
X5746388Y-5137570D01*
X5805063Y-5221366D01*
X6396191Y-4630238D01*
X6407460Y-4672291D01*
X6479870Y-4797710D01*
X6582274Y-4900114D01*
X6707693Y-4972524D01*
X6749745Y-4983792D01*
X6158617Y-5574919D01*
X6234589Y-5628116D01*
X6278214Y-5682693D01*
X6285406Y-5752192D01*
X6253884Y-5814546D01*
X6234589Y-5831266D01*
X6048584Y-5961508D01*
X5881495Y-6128597D01*
X5745955Y-6322169D01*
X5745954Y-6322171D01*
X5646088Y-6536335D01*
X5646084Y-6536344D01*
X5584928Y-6764586D01*
X5584926Y-6764596D01*
X5564331Y-6999999D01*
X1000000Y-6999999D01*
X1000000Y-1124000D01*
X1019685Y-1056961D01*
X1072489Y-1011206D01*
X1124000Y-1000000D01*
X42876000Y-1000000D01*
X42943039Y-1019685D01*
G37*
G04 #@! TD.AperFunction*
G04 #@! TA.AperFunction,Conductor*
G36*
X37974872Y13123464D02*
G01*
X37991592Y13104168D01*
X38121525Y12918605D01*
X38288619Y12751511D01*
X38419914Y12659577D01*
X38474619Y12621272D01*
X38518244Y12566695D01*
X38525436Y12497196D01*
X38493914Y12434842D01*
X38474618Y12418122D01*
X38398647Y12364928D01*
X38398646Y12364927D01*
X38989775Y11773799D01*
X38947723Y11762530D01*
X38822304Y11690120D01*
X38719900Y11587716D01*
X38647490Y11462297D01*
X38636222Y11420245D01*
X38045093Y12011374D01*
X38045092Y12011373D01*
X37991898Y11935402D01*
X37937321Y11891777D01*
X37867823Y11884583D01*
X37805468Y11916106D01*
X37788748Y11935402D01*
X37658509Y12121403D01*
X37491417Y12288494D01*
X37491410Y12288499D01*
X37305853Y12418428D01*
X37262228Y12473005D01*
X37255035Y12542503D01*
X37286557Y12604858D01*
X37305853Y12621578D01*
X37360121Y12659577D01*
X37491416Y12751511D01*
X37658510Y12918605D01*
X37788443Y13104170D01*
X37843019Y13147793D01*
X37912517Y13154987D01*
X37974872Y13123464D01*
G37*
G04 #@! TD.AperFunction*
G04 #@! TA.AperFunction,Conductor*
G36*
X3453735Y27980315D02*
G01*
X3499490Y27927511D01*
X3506471Y27908093D01*
X3533608Y27806813D01*
X3566554Y27749750D01*
X3599500Y27692686D01*
X4599500Y26692686D01*
X4692686Y26599500D01*
X4806814Y26533608D01*
X4934108Y26499500D01*
X4934110Y26499500D01*
X19065890Y26499500D01*
X19065892Y26499500D01*
X19193186Y26533608D01*
X19307314Y26599500D01*
X20400500Y27692686D01*
X20466392Y27806814D01*
X20493529Y27908095D01*
X20529894Y27967754D01*
X20592741Y27998283D01*
X20613304Y28000000D01*
X21000000Y28000000D01*
X40000000Y28000000D01*
X42963681Y25036319D01*
X42997166Y24974996D01*
X43000000Y24948638D01*
X43000000Y1124000D01*
X42980315Y1056961D01*
X42927511Y1011206D01*
X42876000Y1000000D01*
X1124000Y1000000D01*
X1056961Y1019685D01*
X1011206Y1072489D01*
X1000000Y1124000D01*
X1000000Y19000006D01*
X5464519Y19000006D01*
X5464519Y18999995D01*
X5484369Y18760441D01*
X5543379Y18527411D01*
X5639941Y18307271D01*
X5753798Y18133002D01*
X5771419Y18106031D01*
X5934226Y17929175D01*
X5934229Y17929173D01*
X5934232Y17929170D01*
X6123914Y17781534D01*
X6123920Y17781530D01*
X6123923Y17781528D01*
X6254506Y17710860D01*
X6332144Y17668844D01*
X6335334Y17667118D01*
X6335337Y17667117D01*
X6562689Y17589067D01*
X6562691Y17589067D01*
X6562693Y17589066D01*
X6799798Y17549500D01*
X6799799Y17549500D01*
X7040181Y17549500D01*
X7040182Y17549500D01*
X7277287Y17589066D01*
X7504646Y17667118D01*
X7716057Y17781528D01*
X7716601Y17781951D01*
X7779758Y17831109D01*
X7905754Y17929175D01*
X8068561Y18106031D01*
X8086481Y18133461D01*
X8139626Y18178818D01*
X8208857Y18188243D01*
X8251339Y18168457D01*
X8272683Y18166243D01*
X8936196Y18829756D01*
X8947465Y18787703D01*
X9019875Y18662284D01*
X9122279Y18559880D01*
X9247698Y18487470D01*
X9289749Y18476203D01*
X8625567Y17812021D01*
X8664203Y17781949D01*
X8875539Y17667579D01*
X8875545Y17667577D01*
X9102818Y17589554D01*
X9339846Y17550000D01*
X9580144Y17550000D01*
X9817171Y17589554D01*
X10044444Y17667577D01*
X10044450Y17667579D01*
X10255789Y17781951D01*
X10255790Y17781952D01*
X10294421Y17812020D01*
X10294422Y17812021D01*
X9630240Y18476203D01*
X9672292Y18487470D01*
X9797711Y18559880D01*
X9900115Y18662284D01*
X9972525Y18787703D01*
X9983792Y18829756D01*
X10647305Y18166243D01*
X10666647Y18168249D01*
X10679031Y18178818D01*
X10748262Y18188245D01*
X10811599Y18158746D01*
X10833506Y18133464D01*
X10851429Y18106031D01*
X11014236Y17929175D01*
X11014239Y17929173D01*
X11014242Y17929170D01*
X11203924Y17781534D01*
X11203930Y17781530D01*
X11203933Y17781528D01*
X11334516Y17710860D01*
X11412154Y17668844D01*
X11415344Y17667118D01*
X11415347Y17667117D01*
X11642699Y17589067D01*
X11642701Y17589067D01*
X11642703Y17589066D01*
X11879808Y17549500D01*
X11879809Y17549500D01*
X12120191Y17549500D01*
X12120192Y17549500D01*
X12357297Y17589066D01*
X12584656Y17667118D01*
X12796067Y17781528D01*
X12796611Y17781951D01*
X12859768Y17831109D01*
X12985764Y17929175D01*
X13148571Y18106031D01*
X13166193Y18133004D01*
X13219336Y18178361D01*
X13288567Y18187786D01*
X13351904Y18158287D01*
X13373808Y18133010D01*
X13391434Y18106031D01*
X13554241Y17929175D01*
X13554244Y17929173D01*
X13554247Y17929170D01*
X13743929Y17781534D01*
X13743935Y17781530D01*
X13743938Y17781528D01*
X13874521Y17710860D01*
X13952159Y17668844D01*
X13955349Y17667118D01*
X13955352Y17667117D01*
X14182704Y17589067D01*
X14182706Y17589067D01*
X14182708Y17589066D01*
X14419813Y17549500D01*
X14419814Y17549500D01*
X14660196Y17549500D01*
X14660197Y17549500D01*
X14897302Y17589066D01*
X15124661Y17667118D01*
X15336072Y17781528D01*
X15336616Y17781951D01*
X15399773Y17831109D01*
X15525769Y17929175D01*
X15688576Y18106031D01*
X15706198Y18133004D01*
X15759341Y18178361D01*
X15828572Y18187786D01*
X15891909Y18158287D01*
X15913813Y18133010D01*
X15931439Y18106031D01*
X16094246Y17929175D01*
X16094249Y17929173D01*
X16094252Y17929170D01*
X16283934Y17781534D01*
X16283945Y17781527D01*
X16414527Y17710860D01*
X16464118Y17661641D01*
X16479510Y17601805D01*
X16479510Y14724500D01*
X16459825Y14657461D01*
X16407021Y14611706D01*
X16355510Y14600500D01*
X11279057Y14600500D01*
X11120943Y14600500D01*
X10968215Y14559577D01*
X10968214Y14559577D01*
X10968212Y14559576D01*
X10968209Y14559575D01*
X10918096Y14530641D01*
X10918095Y14530640D01*
X10874689Y14505580D01*
X10831285Y14480521D01*
X10831282Y14480519D01*
X10269481Y13918718D01*
X10269479Y13918715D01*
X10219361Y13831906D01*
X10219359Y13831904D01*
X10190425Y13781791D01*
X10190424Y13781790D01*
X10190423Y13781785D01*
X10149499Y13629057D01*
X10149499Y13629055D01*
X10149499Y13460954D01*
X10149500Y13460941D01*
X10149500Y8363233D01*
X10129815Y8296194D01*
X10077011Y8250439D01*
X10007853Y8240495D01*
X9973097Y8250850D01*
X9923660Y8273902D01*
X9923650Y8273906D01*
X9695408Y8335062D01*
X9695398Y8335064D01*
X9459996Y8355659D01*
X9459994Y8355659D01*
X9224591Y8335064D01*
X9224581Y8335062D01*
X8996339Y8273906D01*
X8996330Y8273902D01*
X8782166Y8174036D01*
X8782164Y8174035D01*
X8588592Y8038495D01*
X8421500Y7871403D01*
X8291567Y7685838D01*
X8236990Y7642213D01*
X8167492Y7635020D01*
X8105137Y7666542D01*
X8088417Y7685838D01*
X7958484Y7871403D01*
X7791392Y8038494D01*
X7791385Y8038499D01*
X7597824Y8174033D01*
X7597820Y8174035D01*
X7529483Y8205901D01*
X7383653Y8273903D01*
X7383649Y8273904D01*
X7383645Y8273906D01*
X7155403Y8335062D01*
X7155393Y8335064D01*
X6919991Y8355659D01*
X6919989Y8355659D01*
X6684586Y8335064D01*
X6684576Y8335062D01*
X6456334Y8273906D01*
X6456325Y8273902D01*
X6242161Y8174036D01*
X6242159Y8174035D01*
X6048587Y8038495D01*
X5881495Y7871403D01*
X5745955Y7677831D01*
X5745954Y7677829D01*
X5646088Y7463665D01*
X5646084Y7463656D01*
X5584928Y7235414D01*
X5584926Y7235404D01*
X5564331Y7000001D01*
X5564331Y7000000D01*
X5584926Y6764597D01*
X5584928Y6764587D01*
X5646084Y6536345D01*
X5646086Y6536341D01*
X5646087Y6536337D01*
X5740691Y6333458D01*
X5745955Y6322170D01*
X5745957Y6322166D01*
X5751562Y6314162D01*
X5881491Y6128604D01*
X5881496Y6128598D01*
X6020818Y5989276D01*
X6054303Y5927953D01*
X6049319Y5858261D01*
X6007447Y5802328D01*
X5976471Y5785413D01*
X5890499Y5753348D01*
X5890494Y5753345D01*
X5775400Y5667185D01*
X5775397Y5667182D01*
X5689237Y5552088D01*
X5689233Y5552081D01*
X5638991Y5417374D01*
X5638989Y5417367D01*
X5632588Y5357839D01*
X5632588Y4709994D01*
X6429228Y4709994D01*
X6407460Y4672291D01*
X6369977Y4532405D01*
X6369977Y4387583D01*
X6407460Y4247697D01*
X6429228Y4209994D01*
X5632588Y4209994D01*
X5632588Y3562150D01*
X5638989Y3502622D01*
X5638991Y3502615D01*
X5689233Y3367908D01*
X5689237Y3367901D01*
X5775397Y3252807D01*
X5775400Y3252804D01*
X5890494Y3166644D01*
X5890501Y3166640D01*
X6025208Y3116398D01*
X6025215Y3116396D01*
X6084743Y3109995D01*
X6084760Y3109994D01*
X6669990Y3109994D01*
X6669990Y3969232D01*
X6707693Y3947464D01*
X6847579Y3909981D01*
X6992401Y3909981D01*
X7132287Y3947464D01*
X7169990Y3969232D01*
X7169990Y3109994D01*
X7755220Y3109994D01*
X7755236Y3109995D01*
X7814764Y3116396D01*
X7814771Y3116398D01*
X7949478Y3166640D01*
X7949485Y3166644D01*
X8064579Y3252804D01*
X8064582Y3252807D01*
X8150742Y3367901D01*
X8150746Y3367908D01*
X8200988Y3502615D01*
X8203103Y3522281D01*
X8229841Y3586832D01*
X8287233Y3626681D01*
X8357058Y3629175D01*
X8417147Y3593524D01*
X8421374Y3588743D01*
X8421496Y3588598D01*
X8421500Y3588593D01*
X8588594Y3421499D01*
X8665130Y3367908D01*
X8782160Y3285962D01*
X8782162Y3285961D01*
X8782165Y3285959D01*
X8996332Y3186091D01*
X9224587Y3124931D01*
X9395314Y3109994D01*
X9459994Y3104335D01*
X9459995Y3104335D01*
X9459996Y3104335D01*
X9524676Y3109994D01*
X9695403Y3124931D01*
X9923658Y3186091D01*
X10137825Y3285959D01*
X10331396Y3421499D01*
X10498490Y3588593D01*
X10628423Y3774158D01*
X10682999Y3817781D01*
X10752497Y3824975D01*
X10814852Y3793452D01*
X10831572Y3774156D01*
X10961505Y3588593D01*
X11128599Y3421499D01*
X11205135Y3367908D01*
X11322165Y3285962D01*
X11322167Y3285961D01*
X11322170Y3285959D01*
X11536337Y3186091D01*
X11764592Y3124931D01*
X11935319Y3109994D01*
X11999999Y3104335D01*
X12000000Y3104335D01*
X12000001Y3104335D01*
X12064681Y3109994D01*
X12235408Y3124931D01*
X12463663Y3186091D01*
X12677830Y3285959D01*
X12871401Y3421499D01*
X13038495Y3588593D01*
X13168428Y3774158D01*
X13223004Y3817781D01*
X13292502Y3824975D01*
X13354857Y3793452D01*
X13371577Y3774156D01*
X13501510Y3588593D01*
X13668604Y3421499D01*
X13745140Y3367908D01*
X13862170Y3285962D01*
X13862172Y3285961D01*
X13862175Y3285959D01*
X14076342Y3186091D01*
X14304597Y3124931D01*
X14475324Y3109994D01*
X14540004Y3104335D01*
X14540005Y3104335D01*
X14540006Y3104335D01*
X14604686Y3109994D01*
X14775413Y3124931D01*
X15003668Y3186091D01*
X15217835Y3285959D01*
X15411406Y3421499D01*
X15578500Y3588593D01*
X15708433Y3774158D01*
X15763009Y3817781D01*
X15832507Y3824975D01*
X15894862Y3793452D01*
X15911582Y3774156D01*
X16041515Y3588593D01*
X16208609Y3421499D01*
X16285145Y3367908D01*
X16402175Y3285962D01*
X16402177Y3285961D01*
X16402180Y3285959D01*
X16616347Y3186091D01*
X16844602Y3124931D01*
X17015329Y3109994D01*
X17080009Y3104335D01*
X17080010Y3104335D01*
X17080011Y3104335D01*
X17144691Y3109994D01*
X17315418Y3124931D01*
X17543673Y3186091D01*
X17757840Y3285959D01*
X17951411Y3421499D01*
X18118505Y3588593D01*
X18254045Y3782164D01*
X18353913Y3996331D01*
X18415073Y4224586D01*
X18435669Y4459994D01*
X18415073Y4695402D01*
X18353913Y4923657D01*
X18254045Y5137823D01*
X18121186Y5327567D01*
X18118504Y5331397D01*
X17951412Y5498488D01*
X17951405Y5498493D01*
X17765848Y5628422D01*
X17722223Y5682999D01*
X17715030Y5752497D01*
X17746552Y5814852D01*
X17765848Y5831572D01*
X17853217Y5892749D01*
X17951411Y5961505D01*
X18118505Y6128599D01*
X18254045Y6322170D01*
X18353913Y6536337D01*
X18415073Y6764592D01*
X18435669Y7000000D01*
X18415073Y7235408D01*
X18353913Y7463663D01*
X18254045Y7677829D01*
X18118505Y7871401D01*
X18118504Y7871403D01*
X17951412Y8038494D01*
X17951405Y8038499D01*
X17757844Y8174033D01*
X17757840Y8174035D01*
X17689503Y8205901D01*
X17543673Y8273903D01*
X17543669Y8273904D01*
X17543665Y8273906D01*
X17315423Y8335062D01*
X17315413Y8335064D01*
X17080011Y8355659D01*
X17080009Y8355659D01*
X16844606Y8335064D01*
X16844596Y8335062D01*
X16616354Y8273906D01*
X16616345Y8273903D01*
X16526905Y8232195D01*
X16457828Y8221703D01*
X16394044Y8250223D01*
X16355804Y8308699D01*
X16350500Y8344577D01*
X16350500Y11729055D01*
X16350500Y11729057D01*
X16309577Y11881784D01*
X16309577Y11881785D01*
X16289510Y11916542D01*
X16274129Y11943183D01*
X16230522Y12018713D01*
X16230521Y12018714D01*
X16230520Y12018716D01*
X16118716Y12130520D01*
X16118715Y12130521D01*
X16114385Y12134851D01*
X16114374Y12134861D01*
X15787590Y12461645D01*
X15787588Y12461648D01*
X15668717Y12580519D01*
X15668709Y12580525D01*
X15566936Y12639283D01*
X15566934Y12639284D01*
X15531790Y12659575D01*
X15531789Y12659576D01*
X15519263Y12662933D01*
X15379057Y12700501D01*
X15220943Y12700501D01*
X15213347Y12700501D01*
X15213331Y12700500D01*
X12582412Y12700500D01*
X12515373Y12720185D01*
X12505097Y12727555D01*
X12502263Y12729815D01*
X12502262Y12729816D01*
X12372575Y12811304D01*
X12349523Y12825789D01*
X12179254Y12885369D01*
X12179249Y12885370D01*
X12000004Y12905565D01*
X11999996Y12905565D01*
X11820750Y12885370D01*
X11820745Y12885369D01*
X11650476Y12825789D01*
X11540472Y12756668D01*
X11473235Y12737668D01*
X11406400Y12758036D01*
X11361186Y12811304D01*
X11350500Y12861662D01*
X11350500Y13249903D01*
X11370185Y13316942D01*
X11386819Y13337584D01*
X11412416Y13363181D01*
X11473739Y13396666D01*
X11500097Y13399500D01*
X16613331Y13399500D01*
X16613347Y13399499D01*
X16620943Y13399499D01*
X16779054Y13399499D01*
X16779057Y13399499D01*
X16931785Y13440423D01*
X17006540Y13483583D01*
X17068716Y13519480D01*
X17180520Y13631284D01*
X17180520Y13631286D01*
X17190724Y13641489D01*
X17190728Y13641494D01*
X17339241Y13790007D01*
X27644341Y13790007D01*
X27644341Y13790006D01*
X27664936Y13554603D01*
X27664938Y13554593D01*
X27726094Y13326351D01*
X27726096Y13326347D01*
X27726097Y13326343D01*
X27820701Y13123464D01*
X27825965Y13112176D01*
X27825967Y13112172D01*
X27831572Y13104168D01*
X27961501Y12918610D01*
X27961506Y12918604D01*
X28132427Y12747683D01*
X28131553Y12746810D01*
X28166908Y12693670D01*
X28168016Y12623809D01*
X28131179Y12564439D01*
X28068092Y12534410D01*
X28061758Y12533563D01*
X28042519Y12531495D01*
X27907671Y12481200D01*
X27907664Y12481196D01*
X27792455Y12394950D01*
X27792452Y12394947D01*
X27706206Y12279738D01*
X27706202Y12279731D01*
X27655908Y12144885D01*
X27649501Y12085286D01*
X27649500Y12085267D01*
X27649500Y10414728D01*
X27649501Y10414722D01*
X27655908Y10355115D01*
X27706202Y10220270D01*
X27706206Y10220263D01*
X27792452Y10105054D01*
X27792455Y10105051D01*
X27907664Y10018805D01*
X27907671Y10018801D01*
X28042517Y9968507D01*
X28042516Y9968507D01*
X28049444Y9967763D01*
X28102127Y9962098D01*
X29897872Y9962099D01*
X29957483Y9968507D01*
X30092331Y10018802D01*
X30207546Y10105052D01*
X30293796Y10220267D01*
X30325806Y10306092D01*
X30367676Y10362025D01*
X30433140Y10386443D01*
X30501413Y10371592D01*
X30529669Y10350440D01*
X30668604Y10211505D01*
X30765389Y10143735D01*
X30862170Y10075968D01*
X30862172Y10075967D01*
X30862175Y10075965D01*
X31076342Y9976097D01*
X31076348Y9976096D01*
X31076349Y9976095D01*
X31128580Y9962100D01*
X31304597Y9914937D01*
X31492923Y9898461D01*
X31540004Y9894341D01*
X31540005Y9894341D01*
X31540006Y9894341D01*
X31579239Y9897774D01*
X31775413Y9914937D01*
X32003668Y9976097D01*
X32217835Y10075965D01*
X32411406Y10211505D01*
X32578500Y10378599D01*
X32708433Y10564164D01*
X32763009Y10607787D01*
X32832507Y10614981D01*
X32894862Y10583458D01*
X32911582Y10564162D01*
X33041515Y10378599D01*
X33208609Y10211505D01*
X33305394Y10143735D01*
X33402175Y10075968D01*
X33402177Y10075967D01*
X33402180Y10075965D01*
X33616347Y9976097D01*
X33616353Y9976096D01*
X33616354Y9976095D01*
X33668585Y9962100D01*
X33844602Y9914937D01*
X34032928Y9898461D01*
X34080009Y9894341D01*
X34080010Y9894341D01*
X34080011Y9894341D01*
X34119244Y9897774D01*
X34315418Y9914937D01*
X34543673Y9976097D01*
X34757840Y10075965D01*
X34951411Y10211505D01*
X35118505Y10378599D01*
X35248438Y10564164D01*
X35303014Y10607787D01*
X35372512Y10614981D01*
X35434867Y10583458D01*
X35451587Y10564162D01*
X35581520Y10378599D01*
X35748614Y10211505D01*
X35845399Y10143735D01*
X35942180Y10075968D01*
X35942182Y10075967D01*
X35942185Y10075965D01*
X36156352Y9976097D01*
X36156358Y9976096D01*
X36156359Y9976095D01*
X36208590Y9962100D01*
X36384607Y9914937D01*
X36572933Y9898461D01*
X36620014Y9894341D01*
X36620015Y9894341D01*
X36620016Y9894341D01*
X36659249Y9897774D01*
X36855423Y9914937D01*
X37083678Y9976097D01*
X37297845Y10075965D01*
X37491416Y10211505D01*
X37658510Y10378599D01*
X37788749Y10564600D01*
X37843324Y10608223D01*
X37912822Y10615417D01*
X37975177Y10583894D01*
X37991896Y10564599D01*
X38045092Y10488628D01*
X38045093Y10488628D01*
X38636221Y11079756D01*
X38647490Y11037703D01*
X38719900Y10912284D01*
X38822304Y10809880D01*
X38947723Y10737470D01*
X38989775Y10726202D01*
X38398646Y10135074D01*
X38482437Y10076402D01*
X38482441Y10076400D01*
X38696527Y9976571D01*
X38696536Y9976567D01*
X38924693Y9915433D01*
X38924704Y9915431D01*
X39160018Y9894843D01*
X39160022Y9894843D01*
X39395335Y9915431D01*
X39395346Y9915433D01*
X39623503Y9976567D01*
X39623512Y9976571D01*
X39837600Y10076401D01*
X39921391Y10135075D01*
X39330264Y10726202D01*
X39372317Y10737470D01*
X39497736Y10809880D01*
X39600140Y10912284D01*
X39672550Y11037703D01*
X39683818Y11079756D01*
X40274945Y10488629D01*
X40333619Y10572420D01*
X40433449Y10786508D01*
X40433453Y10786517D01*
X40494587Y11014674D01*
X40494589Y11014685D01*
X40515177Y11249999D01*
X40515177Y11250002D01*
X40494589Y11485316D01*
X40494587Y11485327D01*
X40433453Y11713484D01*
X40433449Y11713493D01*
X40333621Y11927576D01*
X40274945Y12011374D01*
X39683817Y11420246D01*
X39672550Y11462297D01*
X39600140Y11587716D01*
X39497736Y11690120D01*
X39372317Y11762530D01*
X39330264Y11773799D01*
X39921392Y12364927D01*
X39845420Y12418123D01*
X39801795Y12472700D01*
X39794603Y12542199D01*
X39826125Y12604553D01*
X39845416Y12621270D01*
X40031421Y12751511D01*
X40198515Y12918605D01*
X40334055Y13112176D01*
X40433923Y13326343D01*
X40495083Y13554598D01*
X40515679Y13790006D01*
X40495083Y14025414D01*
X40433923Y14253669D01*
X40334055Y14467835D01*
X40325173Y14480521D01*
X40198514Y14661409D01*
X40031422Y14828500D01*
X40031415Y14828505D01*
X39837854Y14964039D01*
X39837850Y14964041D01*
X39837848Y14964042D01*
X39623683Y15063909D01*
X39623679Y15063910D01*
X39623675Y15063912D01*
X39395433Y15125068D01*
X39395423Y15125070D01*
X39160021Y15145665D01*
X39160019Y15145665D01*
X38924616Y15125070D01*
X38924606Y15125068D01*
X38696364Y15063912D01*
X38696355Y15063908D01*
X38482191Y14964042D01*
X38482189Y14964041D01*
X38288617Y14828501D01*
X38121525Y14661409D01*
X37991592Y14475844D01*
X37937015Y14432219D01*
X37867517Y14425026D01*
X37805162Y14456548D01*
X37788442Y14475844D01*
X37658509Y14661409D01*
X37491417Y14828500D01*
X37491410Y14828505D01*
X37297849Y14964039D01*
X37297845Y14964041D01*
X37297843Y14964042D01*
X37083678Y15063909D01*
X37083674Y15063910D01*
X37083670Y15063912D01*
X36855428Y15125068D01*
X36855418Y15125070D01*
X36620016Y15145665D01*
X36620014Y15145665D01*
X36384611Y15125070D01*
X36384601Y15125068D01*
X36156359Y15063912D01*
X36156350Y15063908D01*
X35942186Y14964042D01*
X35942184Y14964041D01*
X35748612Y14828501D01*
X35581520Y14661409D01*
X35451587Y14475844D01*
X35397010Y14432219D01*
X35327512Y14425026D01*
X35265157Y14456548D01*
X35248437Y14475844D01*
X35118504Y14661409D01*
X34951412Y14828500D01*
X34951405Y14828505D01*
X34757844Y14964039D01*
X34757840Y14964041D01*
X34757838Y14964042D01*
X34543673Y15063909D01*
X34543669Y15063910D01*
X34543665Y15063912D01*
X34315423Y15125068D01*
X34315413Y15125070D01*
X34080011Y15145665D01*
X34080009Y15145665D01*
X33844606Y15125070D01*
X33844596Y15125068D01*
X33616354Y15063912D01*
X33616345Y15063908D01*
X33402181Y14964042D01*
X33402179Y14964041D01*
X33208607Y14828501D01*
X33041515Y14661409D01*
X32911582Y14475844D01*
X32857005Y14432219D01*
X32787507Y14425026D01*
X32725152Y14456548D01*
X32708432Y14475844D01*
X32578499Y14661409D01*
X32411407Y14828500D01*
X32411400Y14828505D01*
X32217839Y14964039D01*
X32217835Y14964041D01*
X32217833Y14964042D01*
X32003668Y15063909D01*
X32003664Y15063910D01*
X32003660Y15063912D01*
X31775418Y15125068D01*
X31775408Y15125070D01*
X31540006Y15145665D01*
X31540004Y15145665D01*
X31304601Y15125070D01*
X31304591Y15125068D01*
X31076349Y15063912D01*
X31076340Y15063908D01*
X30862176Y14964042D01*
X30862174Y14964041D01*
X30668602Y14828501D01*
X30501510Y14661409D01*
X30371577Y14475844D01*
X30317000Y14432219D01*
X30247502Y14425026D01*
X30185147Y14456548D01*
X30168427Y14475844D01*
X30038494Y14661409D01*
X29871402Y14828500D01*
X29871395Y14828505D01*
X29677834Y14964039D01*
X29677830Y14964041D01*
X29677828Y14964042D01*
X29463663Y15063909D01*
X29463659Y15063910D01*
X29463655Y15063912D01*
X29235413Y15125068D01*
X29235403Y15125070D01*
X29000001Y15145665D01*
X28999999Y15145665D01*
X28764596Y15125070D01*
X28764586Y15125068D01*
X28536344Y15063912D01*
X28536335Y15063908D01*
X28322171Y14964042D01*
X28322169Y14964041D01*
X28128597Y14828501D01*
X27961505Y14661409D01*
X27825965Y14467837D01*
X27825964Y14467835D01*
X27726098Y14253671D01*
X27726094Y14253662D01*
X27664938Y14025420D01*
X27664936Y14025410D01*
X27644341Y13790007D01*
X17339241Y13790007D01*
X17438516Y13889282D01*
X17438521Y13889286D01*
X17448724Y13899490D01*
X17448726Y13899490D01*
X17560530Y14011294D01*
X17617273Y14109577D01*
X17639587Y14148225D01*
X17680510Y14300952D01*
X17680510Y14459067D01*
X17680510Y17601805D01*
X17700195Y17668844D01*
X17745493Y17710860D01*
X17876077Y17781528D01*
X17876621Y17781951D01*
X17939778Y17831109D01*
X18065774Y17929175D01*
X18228581Y18106031D01*
X18360059Y18307272D01*
X18456620Y18527409D01*
X18515630Y18760437D01*
X18535481Y19000000D01*
X18515630Y19239563D01*
X18456620Y19472591D01*
X18360059Y19692728D01*
X18228581Y19893969D01*
X18065774Y20070825D01*
X18065769Y20070829D01*
X18065767Y20070831D01*
X17876085Y20218467D01*
X17876079Y20218471D01*
X17664667Y20332882D01*
X17664662Y20332884D01*
X17437310Y20410934D01*
X17259478Y20440609D01*
X17200202Y20450500D01*
X16959818Y20450500D01*
X16912397Y20442587D01*
X16722709Y20410934D01*
X16495357Y20332884D01*
X16495352Y20332882D01*
X16283940Y20218471D01*
X16283934Y20218467D01*
X16094252Y20070831D01*
X16094249Y20070828D01*
X15931438Y19893969D01*
X15913815Y19866994D01*
X15860668Y19821638D01*
X15791436Y19812215D01*
X15728101Y19841718D01*
X15706199Y19866995D01*
X15688576Y19893969D01*
X15525769Y20070825D01*
X15525764Y20070829D01*
X15525762Y20070831D01*
X15336080Y20218467D01*
X15336074Y20218471D01*
X15124662Y20332882D01*
X15124657Y20332884D01*
X14897305Y20410934D01*
X14719473Y20440609D01*
X14660197Y20450500D01*
X14419813Y20450500D01*
X14372392Y20442587D01*
X14182704Y20410934D01*
X13955352Y20332884D01*
X13955347Y20332882D01*
X13743935Y20218471D01*
X13743929Y20218467D01*
X13554247Y20070831D01*
X13554244Y20070828D01*
X13391433Y19893969D01*
X13373810Y19866994D01*
X13320663Y19821638D01*
X13251431Y19812215D01*
X13188096Y19841718D01*
X13166194Y19866995D01*
X13148571Y19893969D01*
X12985764Y20070825D01*
X12985759Y20070829D01*
X12985757Y20070831D01*
X12796075Y20218467D01*
X12796069Y20218471D01*
X12584657Y20332882D01*
X12584652Y20332884D01*
X12357300Y20410934D01*
X12179468Y20440609D01*
X12120192Y20450500D01*
X11879808Y20450500D01*
X11832387Y20442587D01*
X11642699Y20410934D01*
X11415347Y20332884D01*
X11415342Y20332882D01*
X11203930Y20218471D01*
X11203924Y20218467D01*
X11014242Y20070831D01*
X11014239Y20070828D01*
X10851430Y19893971D01*
X10851426Y19893965D01*
X10833504Y19866535D01*
X10780356Y19821180D01*
X10711124Y19811759D01*
X10668651Y19831545D01*
X10647305Y19833759D01*
X9983792Y19170246D01*
X9972525Y19212297D01*
X9900115Y19337716D01*
X9797711Y19440120D01*
X9672292Y19512530D01*
X9630238Y19523799D01*
X10294421Y20187981D01*
X10294421Y20187983D01*
X10255796Y20218046D01*
X10255790Y20218050D01*
X10044450Y20332422D01*
X10044444Y20332424D01*
X9817171Y20410447D01*
X9580144Y20450000D01*
X9339846Y20450000D01*
X9102818Y20410447D01*
X8875545Y20332424D01*
X8875539Y20332422D01*
X8664204Y20218052D01*
X8625566Y20187981D01*
X9289749Y19523798D01*
X9247698Y19512530D01*
X9122279Y19440120D01*
X9019875Y19337716D01*
X8947465Y19212297D01*
X8936197Y19170245D01*
X8272683Y19833759D01*
X8253334Y19831752D01*
X8240946Y19821180D01*
X8171714Y19811760D01*
X8108380Y19841265D01*
X8086482Y19866539D01*
X8086184Y19866995D01*
X8068561Y19893969D01*
X7905754Y20070825D01*
X7905749Y20070829D01*
X7905747Y20070831D01*
X7716065Y20218467D01*
X7716059Y20218471D01*
X7504647Y20332882D01*
X7504642Y20332884D01*
X7277290Y20410934D01*
X7099458Y20440609D01*
X7040182Y20450500D01*
X6799798Y20450500D01*
X6752377Y20442587D01*
X6562689Y20410934D01*
X6335337Y20332884D01*
X6335332Y20332882D01*
X6123920Y20218471D01*
X6123914Y20218467D01*
X5934232Y20070831D01*
X5934229Y20070828D01*
X5771420Y19893971D01*
X5771417Y19893967D01*
X5639941Y19692730D01*
X5543379Y19472590D01*
X5484369Y19239560D01*
X5464519Y19000006D01*
X1000000Y19000006D01*
X1000000Y26948638D01*
X1019685Y27015677D01*
X1036319Y27036319D01*
X1963681Y27963681D01*
X2025004Y27997166D01*
X2051362Y28000000D01*
X3386696Y28000000D01*
X3453735Y27980315D01*
G37*
G04 #@! TD.AperFunction*
G04 #@! TA.AperFunction,Conductor*
G36*
X39015677Y28980315D02*
G01*
X39036319Y28963681D01*
X40000000Y28000000D01*
X21000000Y28000000D01*
X21963681Y28963681D01*
X22025004Y28997166D01*
X22051362Y29000000D01*
X38948638Y29000000D01*
X39015677Y28980315D01*
G37*
G04 #@! TD.AperFunction*
M02*
