G04 #@! TF.GenerationSoftware,KiCad,Pcbnew,8.0.7*
G04 #@! TF.CreationDate,2025-01-23T12:20:57+00:00*
G04 #@! TF.ProjectId,NB3_eye,4e42335f-6579-4652-9e6b-696361645f70,0.0.1*
G04 #@! TF.SameCoordinates,PX56c8cc0PY67f3540*
G04 #@! TF.FileFunction,Legend,Top*
G04 #@! TF.FilePolarity,Positive*
%FSLAX46Y46*%
G04 Gerber Fmt 4.6, Leading zero omitted, Abs format (unit mm)*
G04 Created by KiCad (PCBNEW 8.0.7) date 2025-01-23 12:20:57*
%MOMM*%
%LPD*%
G01*
G04 APERTURE LIST*
%ADD10C,0.100000*%
%ADD11C,0.125000*%
%ADD12C,0.200000*%
%ADD13C,0.254000*%
%ADD14C,0.059995*%
%ADD15C,0.203200*%
%ADD16C,0.000000*%
G04 APERTURE END LIST*
D10*
X15750000Y15250000D02*
X15750000Y17250000D01*
X19250000Y14500000D02*
X27250000Y14500000D01*
X27250000Y10000000D01*
X19250000Y10000000D01*
X19250000Y14500000D01*
X8500000Y-13000000D02*
X8500000Y-9000000D01*
X10750000Y9000000D02*
X10750000Y13000000D01*
X8250000Y9000000D02*
X8250000Y13000000D01*
X16000000Y-13000000D02*
X16000000Y-9000000D01*
X19250000Y-10000000D02*
X27250000Y-10000000D01*
X27250000Y-14500000D01*
X19250000Y-14500000D01*
X19250000Y-10000000D01*
X6000000Y-9000000D02*
X18500000Y-9000000D01*
X18500000Y-13000000D01*
X6000000Y-13000000D01*
X6000000Y-9000000D01*
X10650000Y-15250000D02*
X10650000Y-17250000D01*
X13350000Y15250000D02*
X13350000Y17250000D01*
X15750000Y-15250000D02*
X15750000Y-17250000D01*
X11000000Y-13000000D02*
X11000000Y-9000000D01*
X13250000Y9000000D02*
X13250000Y13000000D01*
X13500000Y-13000000D02*
X13500000Y-9000000D01*
X8250000Y-15250000D02*
X8250000Y-17250000D01*
X15750000Y9000000D02*
X15750000Y13000000D01*
X10700000Y15250000D02*
X10700000Y17250000D01*
X6000000Y-11000000D02*
X18500000Y-11000000D01*
X8250000Y15250000D02*
X8250000Y17250000D01*
X13350000Y-15250000D02*
X13350000Y-17250000D01*
X5750000Y-15250000D02*
X18250000Y-15250000D01*
X18250000Y-17250000D01*
X5750000Y-17250000D01*
X5750000Y-15250000D01*
X5750000Y11000000D02*
X18250000Y11000000D01*
X5750000Y13000000D02*
X18250000Y13000000D01*
X18250000Y9000000D01*
X5750000Y9000000D01*
X5750000Y13000000D01*
X5750000Y17250000D02*
X18250000Y17250000D01*
X18250000Y15250000D01*
X5750000Y15250000D01*
X5750000Y17250000D01*
X17553258Y-9377580D02*
X17648496Y-9425200D01*
X17648496Y-9425200D02*
X17696115Y-9520438D01*
X17696115Y-9520438D02*
X17696115Y-10377580D01*
X17172305Y-9901390D02*
X16838972Y-9901390D01*
X16696115Y-9377580D02*
X17172305Y-9377580D01*
X17172305Y-9377580D02*
X17172305Y-10377580D01*
X17172305Y-10377580D02*
X16696115Y-10377580D01*
X9674687Y-15872819D02*
X9722306Y-15825200D01*
X9722306Y-15825200D02*
X9865163Y-15777580D01*
X9865163Y-15777580D02*
X9960401Y-15777580D01*
X9960401Y-15777580D02*
X10103258Y-15825200D01*
X10103258Y-15825200D02*
X10198496Y-15920438D01*
X10198496Y-15920438D02*
X10246115Y-16015676D01*
X10246115Y-16015676D02*
X10293734Y-16206152D01*
X10293734Y-16206152D02*
X10293734Y-16349009D01*
X10293734Y-16349009D02*
X10246115Y-16539485D01*
X10246115Y-16539485D02*
X10198496Y-16634723D01*
X10198496Y-16634723D02*
X10103258Y-16729961D01*
X10103258Y-16729961D02*
X9960401Y-16777580D01*
X9960401Y-16777580D02*
X9865163Y-16777580D01*
X9865163Y-16777580D02*
X9722306Y-16729961D01*
X9722306Y-16729961D02*
X9674687Y-16682342D01*
X9293734Y-15825200D02*
X9150877Y-15777580D01*
X9150877Y-15777580D02*
X8912782Y-15777580D01*
X8912782Y-15777580D02*
X8817544Y-15825200D01*
X8817544Y-15825200D02*
X8769925Y-15872819D01*
X8769925Y-15872819D02*
X8722306Y-15968057D01*
X8722306Y-15968057D02*
X8722306Y-16063295D01*
X8722306Y-16063295D02*
X8769925Y-16158533D01*
X8769925Y-16158533D02*
X8817544Y-16206152D01*
X8817544Y-16206152D02*
X8912782Y-16253771D01*
X8912782Y-16253771D02*
X9103258Y-16301390D01*
X9103258Y-16301390D02*
X9198496Y-16349009D01*
X9198496Y-16349009D02*
X9246115Y-16396628D01*
X9246115Y-16396628D02*
X9293734Y-16491866D01*
X9293734Y-16491866D02*
X9293734Y-16587104D01*
X9293734Y-16587104D02*
X9246115Y-16682342D01*
X9246115Y-16682342D02*
X9198496Y-16729961D01*
X9198496Y-16729961D02*
X9103258Y-16777580D01*
X9103258Y-16777580D02*
X8865163Y-16777580D01*
X8865163Y-16777580D02*
X8722306Y-16729961D01*
X15005639Y-16777580D02*
X14910401Y-16777580D01*
X14910401Y-16777580D02*
X14815163Y-16729961D01*
X14815163Y-16729961D02*
X14767544Y-16682342D01*
X14767544Y-16682342D02*
X14719925Y-16587104D01*
X14719925Y-16587104D02*
X14672306Y-16396628D01*
X14672306Y-16396628D02*
X14672306Y-16158533D01*
X14672306Y-16158533D02*
X14719925Y-15968057D01*
X14719925Y-15968057D02*
X14767544Y-15872819D01*
X14767544Y-15872819D02*
X14815163Y-15825200D01*
X14815163Y-15825200D02*
X14910401Y-15777580D01*
X14910401Y-15777580D02*
X15005639Y-15777580D01*
X15005639Y-15777580D02*
X15100877Y-15825200D01*
X15100877Y-15825200D02*
X15148496Y-15872819D01*
X15148496Y-15872819D02*
X15196115Y-15968057D01*
X15196115Y-15968057D02*
X15243734Y-16158533D01*
X15243734Y-16158533D02*
X15243734Y-16396628D01*
X15243734Y-16396628D02*
X15196115Y-16587104D01*
X15196115Y-16587104D02*
X15148496Y-16682342D01*
X15148496Y-16682342D02*
X15100877Y-16729961D01*
X15100877Y-16729961D02*
X15005639Y-16777580D01*
X14386591Y-16777580D02*
X14053258Y-15777580D01*
X14053258Y-15777580D02*
X13719925Y-16777580D01*
X6780074Y12377581D02*
X6303884Y12377581D01*
X6303884Y12377581D02*
X6256265Y11901391D01*
X6256265Y11901391D02*
X6303884Y11949010D01*
X6303884Y11949010D02*
X6399122Y11996629D01*
X6399122Y11996629D02*
X6637217Y11996629D01*
X6637217Y11996629D02*
X6732455Y11949010D01*
X6732455Y11949010D02*
X6780074Y11901391D01*
X6780074Y11901391D02*
X6827693Y11806153D01*
X6827693Y11806153D02*
X6827693Y11568058D01*
X6827693Y11568058D02*
X6780074Y11472820D01*
X6780074Y11472820D02*
X6732455Y11425200D01*
X6732455Y11425200D02*
X6637217Y11377581D01*
X6637217Y11377581D02*
X6399122Y11377581D01*
X6399122Y11377581D02*
X6303884Y11425200D01*
X6303884Y11425200D02*
X6256265Y11472820D01*
X7113408Y12377581D02*
X7446741Y11377581D01*
X7446741Y11377581D02*
X7780074Y12377581D01*
X17219925Y-16777580D02*
X17696115Y-16777580D01*
X17696115Y-16777580D02*
X17743734Y-16301390D01*
X17743734Y-16301390D02*
X17696115Y-16349009D01*
X17696115Y-16349009D02*
X17600877Y-16396628D01*
X17600877Y-16396628D02*
X17362782Y-16396628D01*
X17362782Y-16396628D02*
X17267544Y-16349009D01*
X17267544Y-16349009D02*
X17219925Y-16301390D01*
X17219925Y-16301390D02*
X17172306Y-16206152D01*
X17172306Y-16206152D02*
X17172306Y-15968057D01*
X17172306Y-15968057D02*
X17219925Y-15872819D01*
X17219925Y-15872819D02*
X17267544Y-15825200D01*
X17267544Y-15825200D02*
X17362782Y-15777580D01*
X17362782Y-15777580D02*
X17600877Y-15777580D01*
X17600877Y-15777580D02*
X17696115Y-15825200D01*
X17696115Y-15825200D02*
X17743734Y-15872819D01*
X16886591Y-16777580D02*
X16553258Y-15777580D01*
X16553258Y-15777580D02*
X16219925Y-16777580D01*
X8994360Y16777581D02*
X9089598Y16777581D01*
X9089598Y16777581D02*
X9184836Y16729962D01*
X9184836Y16729962D02*
X9232455Y16682343D01*
X9232455Y16682343D02*
X9280074Y16587105D01*
X9280074Y16587105D02*
X9327693Y16396629D01*
X9327693Y16396629D02*
X9327693Y16158534D01*
X9327693Y16158534D02*
X9280074Y15968058D01*
X9280074Y15968058D02*
X9232455Y15872820D01*
X9232455Y15872820D02*
X9184836Y15825200D01*
X9184836Y15825200D02*
X9089598Y15777581D01*
X9089598Y15777581D02*
X8994360Y15777581D01*
X8994360Y15777581D02*
X8899122Y15825200D01*
X8899122Y15825200D02*
X8851503Y15872820D01*
X8851503Y15872820D02*
X8803884Y15968058D01*
X8803884Y15968058D02*
X8756265Y16158534D01*
X8756265Y16158534D02*
X8756265Y16396629D01*
X8756265Y16396629D02*
X8803884Y16587105D01*
X8803884Y16587105D02*
X8851503Y16682343D01*
X8851503Y16682343D02*
X8899122Y16729962D01*
X8899122Y16729962D02*
X8994360Y16777581D01*
X9613408Y16777581D02*
X9946741Y15777581D01*
X9946741Y15777581D02*
X10280074Y16777581D01*
X11003884Y15777581D02*
X11003884Y16777581D01*
X11003884Y16777581D02*
X11241979Y16777581D01*
X11241979Y16777581D02*
X11384836Y16729962D01*
X11384836Y16729962D02*
X11480074Y16634724D01*
X11480074Y16634724D02*
X11527693Y16539486D01*
X11527693Y16539486D02*
X11575312Y16349010D01*
X11575312Y16349010D02*
X11575312Y16206153D01*
X11575312Y16206153D02*
X11527693Y16015677D01*
X11527693Y16015677D02*
X11480074Y15920439D01*
X11480074Y15920439D02*
X11384836Y15825200D01*
X11384836Y15825200D02*
X11241979Y15777581D01*
X11241979Y15777581D02*
X11003884Y15777581D01*
X12003884Y15777581D02*
X12003884Y16777581D01*
X12480074Y15777581D02*
X12480074Y16777581D01*
X12480074Y16777581D02*
X13051502Y15777581D01*
X13051502Y15777581D02*
X13051502Y16777581D01*
X16825312Y15872820D02*
X16777693Y15825200D01*
X16777693Y15825200D02*
X16634836Y15777581D01*
X16634836Y15777581D02*
X16539598Y15777581D01*
X16539598Y15777581D02*
X16396741Y15825200D01*
X16396741Y15825200D02*
X16301503Y15920439D01*
X16301503Y15920439D02*
X16253884Y16015677D01*
X16253884Y16015677D02*
X16206265Y16206153D01*
X16206265Y16206153D02*
X16206265Y16349010D01*
X16206265Y16349010D02*
X16253884Y16539486D01*
X16253884Y16539486D02*
X16301503Y16634724D01*
X16301503Y16634724D02*
X16396741Y16729962D01*
X16396741Y16729962D02*
X16539598Y16777581D01*
X16539598Y16777581D02*
X16634836Y16777581D01*
X16634836Y16777581D02*
X16777693Y16729962D01*
X16777693Y16729962D02*
X16825312Y16682343D01*
X17253884Y15777581D02*
X17253884Y16777581D01*
X17825312Y15777581D02*
X17396741Y16349010D01*
X17825312Y16777581D02*
X17253884Y16206153D01*
D11*
X21910714Y10628881D02*
X21636904Y11105072D01*
X21339285Y10628881D02*
X21464285Y11628881D01*
X21464285Y11628881D02*
X21845238Y11628881D01*
X21845238Y11628881D02*
X21934523Y11581262D01*
X21934523Y11581262D02*
X21976190Y11533643D01*
X21976190Y11533643D02*
X22011904Y11438405D01*
X22011904Y11438405D02*
X21994047Y11295548D01*
X21994047Y11295548D02*
X21934523Y11200310D01*
X21934523Y11200310D02*
X21880952Y11152691D01*
X21880952Y11152691D02*
X21779762Y11105072D01*
X21779762Y11105072D02*
X21398809Y11105072D01*
X22339285Y10628881D02*
X22464285Y11628881D01*
X23458333Y11581262D02*
X23369047Y11628881D01*
X23369047Y11628881D02*
X23226190Y11628881D01*
X23226190Y11628881D02*
X23077380Y11581262D01*
X23077380Y11581262D02*
X22970237Y11486024D01*
X22970237Y11486024D02*
X22910713Y11390786D01*
X22910713Y11390786D02*
X22839285Y11200310D01*
X22839285Y11200310D02*
X22821428Y11057453D01*
X22821428Y11057453D02*
X22845237Y10866977D01*
X22845237Y10866977D02*
X22880952Y10771739D01*
X22880952Y10771739D02*
X22964285Y10676500D01*
X22964285Y10676500D02*
X23101190Y10628881D01*
X23101190Y10628881D02*
X23196428Y10628881D01*
X23196428Y10628881D02*
X23345237Y10676500D01*
X23345237Y10676500D02*
X23398809Y10724120D01*
X23398809Y10724120D02*
X23440475Y11057453D01*
X23440475Y11057453D02*
X23249999Y11057453D01*
X23815475Y10628881D02*
X23940475Y11628881D01*
X23880952Y11152691D02*
X24452380Y11152691D01*
X24386904Y10628881D02*
X24511904Y11628881D01*
X24845237Y11628881D02*
X25416666Y11628881D01*
X25005952Y10628881D02*
X25130952Y11628881D01*
D10*
X16553884Y9377581D02*
X16553884Y10044248D01*
X16553884Y9853772D02*
X16601503Y9949010D01*
X16601503Y9949010D02*
X16649122Y9996629D01*
X16649122Y9996629D02*
X16744360Y10044248D01*
X16744360Y10044248D02*
X16839598Y10044248D01*
X17172932Y9377581D02*
X17172932Y10377581D01*
X17172932Y9901391D02*
X17744360Y9901391D01*
X17744360Y9377581D02*
X17744360Y10377581D01*
D12*
X39738095Y-16632780D02*
X39738095Y-17632780D01*
X39738095Y-17632780D02*
X39166667Y-16632780D01*
X39166667Y-16632780D02*
X39166667Y-17632780D01*
X38547619Y-16632780D02*
X38642857Y-16680400D01*
X38642857Y-16680400D02*
X38690476Y-16728019D01*
X38690476Y-16728019D02*
X38738095Y-16823257D01*
X38738095Y-16823257D02*
X38738095Y-17108971D01*
X38738095Y-17108971D02*
X38690476Y-17204209D01*
X38690476Y-17204209D02*
X38642857Y-17251828D01*
X38642857Y-17251828D02*
X38547619Y-17299447D01*
X38547619Y-17299447D02*
X38404762Y-17299447D01*
X38404762Y-17299447D02*
X38309524Y-17251828D01*
X38309524Y-17251828D02*
X38261905Y-17204209D01*
X38261905Y-17204209D02*
X38214286Y-17108971D01*
X38214286Y-17108971D02*
X38214286Y-16823257D01*
X38214286Y-16823257D02*
X38261905Y-16728019D01*
X38261905Y-16728019D02*
X38309524Y-16680400D01*
X38309524Y-16680400D02*
X38404762Y-16632780D01*
X38404762Y-16632780D02*
X38547619Y-16632780D01*
X36690476Y-17156590D02*
X36547619Y-17108971D01*
X36547619Y-17108971D02*
X36500000Y-17061352D01*
X36500000Y-17061352D02*
X36452381Y-16966114D01*
X36452381Y-16966114D02*
X36452381Y-16823257D01*
X36452381Y-16823257D02*
X36500000Y-16728019D01*
X36500000Y-16728019D02*
X36547619Y-16680400D01*
X36547619Y-16680400D02*
X36642857Y-16632780D01*
X36642857Y-16632780D02*
X37023809Y-16632780D01*
X37023809Y-16632780D02*
X37023809Y-17632780D01*
X37023809Y-17632780D02*
X36690476Y-17632780D01*
X36690476Y-17632780D02*
X36595238Y-17585161D01*
X36595238Y-17585161D02*
X36547619Y-17537542D01*
X36547619Y-17537542D02*
X36500000Y-17442304D01*
X36500000Y-17442304D02*
X36500000Y-17347066D01*
X36500000Y-17347066D02*
X36547619Y-17251828D01*
X36547619Y-17251828D02*
X36595238Y-17204209D01*
X36595238Y-17204209D02*
X36690476Y-17156590D01*
X36690476Y-17156590D02*
X37023809Y-17156590D01*
X35880952Y-16632780D02*
X35976190Y-16680400D01*
X35976190Y-16680400D02*
X36023809Y-16775638D01*
X36023809Y-16775638D02*
X36023809Y-17632780D01*
X35071428Y-16632780D02*
X35071428Y-17156590D01*
X35071428Y-17156590D02*
X35119047Y-17251828D01*
X35119047Y-17251828D02*
X35214285Y-17299447D01*
X35214285Y-17299447D02*
X35404761Y-17299447D01*
X35404761Y-17299447D02*
X35499999Y-17251828D01*
X35071428Y-16680400D02*
X35166666Y-16632780D01*
X35166666Y-16632780D02*
X35404761Y-16632780D01*
X35404761Y-16632780D02*
X35499999Y-16680400D01*
X35499999Y-16680400D02*
X35547618Y-16775638D01*
X35547618Y-16775638D02*
X35547618Y-16870876D01*
X35547618Y-16870876D02*
X35499999Y-16966114D01*
X35499999Y-16966114D02*
X35404761Y-17013733D01*
X35404761Y-17013733D02*
X35166666Y-17013733D01*
X35166666Y-17013733D02*
X35071428Y-17061352D01*
X34166666Y-16680400D02*
X34261904Y-16632780D01*
X34261904Y-16632780D02*
X34452380Y-16632780D01*
X34452380Y-16632780D02*
X34547618Y-16680400D01*
X34547618Y-16680400D02*
X34595237Y-16728019D01*
X34595237Y-16728019D02*
X34642856Y-16823257D01*
X34642856Y-16823257D02*
X34642856Y-17108971D01*
X34642856Y-17108971D02*
X34595237Y-17204209D01*
X34595237Y-17204209D02*
X34547618Y-17251828D01*
X34547618Y-17251828D02*
X34452380Y-17299447D01*
X34452380Y-17299447D02*
X34261904Y-17299447D01*
X34261904Y-17299447D02*
X34166666Y-17251828D01*
X33738094Y-16632780D02*
X33738094Y-17632780D01*
X33642856Y-17013733D02*
X33357142Y-16632780D01*
X33357142Y-17299447D02*
X33738094Y-16918495D01*
X31833332Y-17156590D02*
X31690475Y-17108971D01*
X31690475Y-17108971D02*
X31642856Y-17061352D01*
X31642856Y-17061352D02*
X31595237Y-16966114D01*
X31595237Y-16966114D02*
X31595237Y-16823257D01*
X31595237Y-16823257D02*
X31642856Y-16728019D01*
X31642856Y-16728019D02*
X31690475Y-16680400D01*
X31690475Y-16680400D02*
X31785713Y-16632780D01*
X31785713Y-16632780D02*
X32166665Y-16632780D01*
X32166665Y-16632780D02*
X32166665Y-17632780D01*
X32166665Y-17632780D02*
X31833332Y-17632780D01*
X31833332Y-17632780D02*
X31738094Y-17585161D01*
X31738094Y-17585161D02*
X31690475Y-17537542D01*
X31690475Y-17537542D02*
X31642856Y-17442304D01*
X31642856Y-17442304D02*
X31642856Y-17347066D01*
X31642856Y-17347066D02*
X31690475Y-17251828D01*
X31690475Y-17251828D02*
X31738094Y-17204209D01*
X31738094Y-17204209D02*
X31833332Y-17156590D01*
X31833332Y-17156590D02*
X32166665Y-17156590D01*
X31023808Y-16632780D02*
X31119046Y-16680400D01*
X31119046Y-16680400D02*
X31166665Y-16728019D01*
X31166665Y-16728019D02*
X31214284Y-16823257D01*
X31214284Y-16823257D02*
X31214284Y-17108971D01*
X31214284Y-17108971D02*
X31166665Y-17204209D01*
X31166665Y-17204209D02*
X31119046Y-17251828D01*
X31119046Y-17251828D02*
X31023808Y-17299447D01*
X31023808Y-17299447D02*
X30880951Y-17299447D01*
X30880951Y-17299447D02*
X30785713Y-17251828D01*
X30785713Y-17251828D02*
X30738094Y-17204209D01*
X30738094Y-17204209D02*
X30690475Y-17108971D01*
X30690475Y-17108971D02*
X30690475Y-16823257D01*
X30690475Y-16823257D02*
X30738094Y-16728019D01*
X30738094Y-16728019D02*
X30785713Y-16680400D01*
X30785713Y-16680400D02*
X30880951Y-16632780D01*
X30880951Y-16632780D02*
X31023808Y-16632780D01*
X30357141Y-16632780D02*
X29833332Y-17299447D01*
X30357141Y-17299447D02*
X29833332Y-16632780D01*
X29071427Y-16680400D02*
X29166665Y-16632780D01*
X29166665Y-16632780D02*
X29357141Y-16632780D01*
X29357141Y-16632780D02*
X29452379Y-16680400D01*
X29452379Y-16680400D02*
X29499998Y-16775638D01*
X29499998Y-16775638D02*
X29499998Y-17156590D01*
X29499998Y-17156590D02*
X29452379Y-17251828D01*
X29452379Y-17251828D02*
X29357141Y-17299447D01*
X29357141Y-17299447D02*
X29166665Y-17299447D01*
X29166665Y-17299447D02*
X29071427Y-17251828D01*
X29071427Y-17251828D02*
X29023808Y-17156590D01*
X29023808Y-17156590D02*
X29023808Y-17061352D01*
X29023808Y-17061352D02*
X29499998Y-16966114D01*
X28642855Y-16680400D02*
X28547617Y-16632780D01*
X28547617Y-16632780D02*
X28357141Y-16632780D01*
X28357141Y-16632780D02*
X28261903Y-16680400D01*
X28261903Y-16680400D02*
X28214284Y-16775638D01*
X28214284Y-16775638D02*
X28214284Y-16823257D01*
X28214284Y-16823257D02*
X28261903Y-16918495D01*
X28261903Y-16918495D02*
X28357141Y-16966114D01*
X28357141Y-16966114D02*
X28499998Y-16966114D01*
X28499998Y-16966114D02*
X28595236Y-17013733D01*
X28595236Y-17013733D02*
X28642855Y-17108971D01*
X28642855Y-17108971D02*
X28642855Y-17156590D01*
X28642855Y-17156590D02*
X28595236Y-17251828D01*
X28595236Y-17251828D02*
X28499998Y-17299447D01*
X28499998Y-17299447D02*
X28357141Y-17299447D01*
X28357141Y-17299447D02*
X28261903Y-17251828D01*
D10*
X7755639Y-10377580D02*
X7660401Y-10377580D01*
X7660401Y-10377580D02*
X7565163Y-10329961D01*
X7565163Y-10329961D02*
X7517544Y-10282342D01*
X7517544Y-10282342D02*
X7469925Y-10187104D01*
X7469925Y-10187104D02*
X7422306Y-9996628D01*
X7422306Y-9996628D02*
X7422306Y-9758533D01*
X7422306Y-9758533D02*
X7469925Y-9568057D01*
X7469925Y-9568057D02*
X7517544Y-9472819D01*
X7517544Y-9472819D02*
X7565163Y-9425200D01*
X7565163Y-9425200D02*
X7660401Y-9377580D01*
X7660401Y-9377580D02*
X7755639Y-9377580D01*
X7755639Y-9377580D02*
X7850877Y-9425200D01*
X7850877Y-9425200D02*
X7898496Y-9472819D01*
X7898496Y-9472819D02*
X7946115Y-9568057D01*
X7946115Y-9568057D02*
X7993734Y-9758533D01*
X7993734Y-9758533D02*
X7993734Y-9996628D01*
X7993734Y-9996628D02*
X7946115Y-10187104D01*
X7946115Y-10187104D02*
X7898496Y-10282342D01*
X7898496Y-10282342D02*
X7850877Y-10329961D01*
X7850877Y-10329961D02*
X7755639Y-10377580D01*
X7136591Y-10377580D02*
X6803258Y-9377580D01*
X6803258Y-9377580D02*
X6469925Y-10377580D01*
X17553258Y-11377580D02*
X17648496Y-11425200D01*
X17648496Y-11425200D02*
X17696115Y-11520438D01*
X17696115Y-11520438D02*
X17696115Y-12377580D01*
X17219924Y-11663295D02*
X16743734Y-11663295D01*
X17315162Y-11377580D02*
X16981829Y-12377580D01*
X16981829Y-12377580D02*
X16648496Y-11377580D01*
X14325312Y15872820D02*
X14277693Y15825200D01*
X14277693Y15825200D02*
X14134836Y15777581D01*
X14134836Y15777581D02*
X14039598Y15777581D01*
X14039598Y15777581D02*
X13896741Y15825200D01*
X13896741Y15825200D02*
X13801503Y15920439D01*
X13801503Y15920439D02*
X13753884Y16015677D01*
X13753884Y16015677D02*
X13706265Y16206153D01*
X13706265Y16206153D02*
X13706265Y16349010D01*
X13706265Y16349010D02*
X13753884Y16539486D01*
X13753884Y16539486D02*
X13801503Y16634724D01*
X13801503Y16634724D02*
X13896741Y16729962D01*
X13896741Y16729962D02*
X14039598Y16777581D01*
X14039598Y16777581D02*
X14134836Y16777581D01*
X14134836Y16777581D02*
X14277693Y16729962D01*
X14277693Y16729962D02*
X14325312Y16682343D01*
X14706265Y15825200D02*
X14849122Y15777581D01*
X14849122Y15777581D02*
X15087217Y15777581D01*
X15087217Y15777581D02*
X15182455Y15825200D01*
X15182455Y15825200D02*
X15230074Y15872820D01*
X15230074Y15872820D02*
X15277693Y15968058D01*
X15277693Y15968058D02*
X15277693Y16063296D01*
X15277693Y16063296D02*
X15230074Y16158534D01*
X15230074Y16158534D02*
X15182455Y16206153D01*
X15182455Y16206153D02*
X15087217Y16253772D01*
X15087217Y16253772D02*
X14896741Y16301391D01*
X14896741Y16301391D02*
X14801503Y16349010D01*
X14801503Y16349010D02*
X14753884Y16396629D01*
X14753884Y16396629D02*
X14706265Y16491867D01*
X14706265Y16491867D02*
X14706265Y16587105D01*
X14706265Y16587105D02*
X14753884Y16682343D01*
X14753884Y16682343D02*
X14801503Y16729962D01*
X14801503Y16729962D02*
X14896741Y16777581D01*
X14896741Y16777581D02*
X15134836Y16777581D01*
X15134836Y16777581D02*
X15277693Y16729962D01*
D12*
X26226190Y-12632780D02*
X26226190Y-13632780D01*
X26226190Y-13632780D02*
X25654762Y-12632780D01*
X25654762Y-12632780D02*
X25654762Y-13632780D01*
X24845238Y-13156590D02*
X24702381Y-13108971D01*
X24702381Y-13108971D02*
X24654762Y-13061352D01*
X24654762Y-13061352D02*
X24607143Y-12966114D01*
X24607143Y-12966114D02*
X24607143Y-12823257D01*
X24607143Y-12823257D02*
X24654762Y-12728019D01*
X24654762Y-12728019D02*
X24702381Y-12680400D01*
X24702381Y-12680400D02*
X24797619Y-12632780D01*
X24797619Y-12632780D02*
X25178571Y-12632780D01*
X25178571Y-12632780D02*
X25178571Y-13632780D01*
X25178571Y-13632780D02*
X24845238Y-13632780D01*
X24845238Y-13632780D02*
X24750000Y-13585161D01*
X24750000Y-13585161D02*
X24702381Y-13537542D01*
X24702381Y-13537542D02*
X24654762Y-13442304D01*
X24654762Y-13442304D02*
X24654762Y-13347066D01*
X24654762Y-13347066D02*
X24702381Y-13251828D01*
X24702381Y-13251828D02*
X24750000Y-13204209D01*
X24750000Y-13204209D02*
X24845238Y-13156590D01*
X24845238Y-13156590D02*
X25178571Y-13156590D01*
X24273809Y-13632780D02*
X23654762Y-13632780D01*
X23654762Y-13632780D02*
X23988095Y-13251828D01*
X23988095Y-13251828D02*
X23845238Y-13251828D01*
X23845238Y-13251828D02*
X23750000Y-13204209D01*
X23750000Y-13204209D02*
X23702381Y-13156590D01*
X23702381Y-13156590D02*
X23654762Y-13061352D01*
X23654762Y-13061352D02*
X23654762Y-12823257D01*
X23654762Y-12823257D02*
X23702381Y-12728019D01*
X23702381Y-12728019D02*
X23750000Y-12680400D01*
X23750000Y-12680400D02*
X23845238Y-12632780D01*
X23845238Y-12632780D02*
X24130952Y-12632780D01*
X24130952Y-12632780D02*
X24226190Y-12680400D01*
X24226190Y-12680400D02*
X24273809Y-12728019D01*
X22464285Y-13156590D02*
X22130952Y-13156590D01*
X21988095Y-12632780D02*
X22464285Y-12632780D01*
X22464285Y-12632780D02*
X22464285Y-13632780D01*
X22464285Y-13632780D02*
X21988095Y-13632780D01*
X21369047Y-13108971D02*
X21369047Y-12632780D01*
X21702380Y-13632780D02*
X21369047Y-13108971D01*
X21369047Y-13108971D02*
X21035714Y-13632780D01*
X20702380Y-13156590D02*
X20369047Y-13156590D01*
X20226190Y-12632780D02*
X20702380Y-12632780D01*
X20702380Y-12632780D02*
X20702380Y-13632780D01*
X20702380Y-13632780D02*
X20226190Y-13632780D01*
D10*
X15303258Y-11377580D02*
X15398496Y-11425200D01*
X15398496Y-11425200D02*
X15446115Y-11520438D01*
X15446115Y-11520438D02*
X15446115Y-12377580D01*
X14588972Y-11901390D02*
X14446115Y-11853771D01*
X14446115Y-11853771D02*
X14398496Y-11806152D01*
X14398496Y-11806152D02*
X14350877Y-11710914D01*
X14350877Y-11710914D02*
X14350877Y-11568057D01*
X14350877Y-11568057D02*
X14398496Y-11472819D01*
X14398496Y-11472819D02*
X14446115Y-11425200D01*
X14446115Y-11425200D02*
X14541353Y-11377580D01*
X14541353Y-11377580D02*
X14922305Y-11377580D01*
X14922305Y-11377580D02*
X14922305Y-12377580D01*
X14922305Y-12377580D02*
X14588972Y-12377580D01*
X14588972Y-12377580D02*
X14493734Y-12329961D01*
X14493734Y-12329961D02*
X14446115Y-12282342D01*
X14446115Y-12282342D02*
X14398496Y-12187104D01*
X14398496Y-12187104D02*
X14398496Y-12091866D01*
X14398496Y-12091866D02*
X14446115Y-11996628D01*
X14446115Y-11996628D02*
X14493734Y-11949009D01*
X14493734Y-11949009D02*
X14588972Y-11901390D01*
X14588972Y-11901390D02*
X14922305Y-11901390D01*
X14053884Y9377581D02*
X14053884Y10044248D01*
X14053884Y9853772D02*
X14101503Y9949010D01*
X14101503Y9949010D02*
X14149122Y9996629D01*
X14149122Y9996629D02*
X14244360Y10044248D01*
X14244360Y10044248D02*
X14339598Y10044248D01*
X15196741Y10329962D02*
X15101503Y10377581D01*
X15101503Y10377581D02*
X14958646Y10377581D01*
X14958646Y10377581D02*
X14815789Y10329962D01*
X14815789Y10329962D02*
X14720551Y10234724D01*
X14720551Y10234724D02*
X14672932Y10139486D01*
X14672932Y10139486D02*
X14625313Y9949010D01*
X14625313Y9949010D02*
X14625313Y9806153D01*
X14625313Y9806153D02*
X14672932Y9615677D01*
X14672932Y9615677D02*
X14720551Y9520439D01*
X14720551Y9520439D02*
X14815789Y9425200D01*
X14815789Y9425200D02*
X14958646Y9377581D01*
X14958646Y9377581D02*
X15053884Y9377581D01*
X15053884Y9377581D02*
X15196741Y9425200D01*
X15196741Y9425200D02*
X15244360Y9472820D01*
X15244360Y9472820D02*
X15244360Y9806153D01*
X15244360Y9806153D02*
X15053884Y9806153D01*
X14053884Y11377581D02*
X14053884Y12044248D01*
X14053884Y11853772D02*
X14101503Y11949010D01*
X14101503Y11949010D02*
X14149122Y11996629D01*
X14149122Y11996629D02*
X14244360Y12044248D01*
X14244360Y12044248D02*
X14339598Y12044248D01*
X15244360Y11472820D02*
X15196741Y11425200D01*
X15196741Y11425200D02*
X15053884Y11377581D01*
X15053884Y11377581D02*
X14958646Y11377581D01*
X14958646Y11377581D02*
X14815789Y11425200D01*
X14815789Y11425200D02*
X14720551Y11520439D01*
X14720551Y11520439D02*
X14672932Y11615677D01*
X14672932Y11615677D02*
X14625313Y11806153D01*
X14625313Y11806153D02*
X14625313Y11949010D01*
X14625313Y11949010D02*
X14672932Y12139486D01*
X14672932Y12139486D02*
X14720551Y12234724D01*
X14720551Y12234724D02*
X14815789Y12329962D01*
X14815789Y12329962D02*
X14958646Y12377581D01*
X14958646Y12377581D02*
X15053884Y12377581D01*
X15053884Y12377581D02*
X15196741Y12329962D01*
X15196741Y12329962D02*
X15244360Y12282343D01*
X7469925Y-12377580D02*
X7946115Y-12377580D01*
X7946115Y-12377580D02*
X7993734Y-11901390D01*
X7993734Y-11901390D02*
X7946115Y-11949009D01*
X7946115Y-11949009D02*
X7850877Y-11996628D01*
X7850877Y-11996628D02*
X7612782Y-11996628D01*
X7612782Y-11996628D02*
X7517544Y-11949009D01*
X7517544Y-11949009D02*
X7469925Y-11901390D01*
X7469925Y-11901390D02*
X7422306Y-11806152D01*
X7422306Y-11806152D02*
X7422306Y-11568057D01*
X7422306Y-11568057D02*
X7469925Y-11472819D01*
X7469925Y-11472819D02*
X7517544Y-11425200D01*
X7517544Y-11425200D02*
X7612782Y-11377580D01*
X7612782Y-11377580D02*
X7850877Y-11377580D01*
X7850877Y-11377580D02*
X7946115Y-11425200D01*
X7946115Y-11425200D02*
X7993734Y-11472819D01*
X7136591Y-12377580D02*
X6803258Y-11377580D01*
X6803258Y-11377580D02*
X6469925Y-12377580D01*
D12*
X28261904Y16632781D02*
X28261904Y17632781D01*
X28261904Y17632781D02*
X28833332Y16632781D01*
X28833332Y16632781D02*
X28833332Y17632781D01*
X29452380Y16632781D02*
X29357142Y16680400D01*
X29357142Y16680400D02*
X29309523Y16728020D01*
X29309523Y16728020D02*
X29261904Y16823258D01*
X29261904Y16823258D02*
X29261904Y17108972D01*
X29261904Y17108972D02*
X29309523Y17204210D01*
X29309523Y17204210D02*
X29357142Y17251829D01*
X29357142Y17251829D02*
X29452380Y17299448D01*
X29452380Y17299448D02*
X29595237Y17299448D01*
X29595237Y17299448D02*
X29690475Y17251829D01*
X29690475Y17251829D02*
X29738094Y17204210D01*
X29738094Y17204210D02*
X29785713Y17108972D01*
X29785713Y17108972D02*
X29785713Y16823258D01*
X29785713Y16823258D02*
X29738094Y16728020D01*
X29738094Y16728020D02*
X29690475Y16680400D01*
X29690475Y16680400D02*
X29595237Y16632781D01*
X29595237Y16632781D02*
X29452380Y16632781D01*
X31309523Y17156591D02*
X31452380Y17108972D01*
X31452380Y17108972D02*
X31499999Y17061353D01*
X31499999Y17061353D02*
X31547618Y16966115D01*
X31547618Y16966115D02*
X31547618Y16823258D01*
X31547618Y16823258D02*
X31499999Y16728020D01*
X31499999Y16728020D02*
X31452380Y16680400D01*
X31452380Y16680400D02*
X31357142Y16632781D01*
X31357142Y16632781D02*
X30976190Y16632781D01*
X30976190Y16632781D02*
X30976190Y17632781D01*
X30976190Y17632781D02*
X31309523Y17632781D01*
X31309523Y17632781D02*
X31404761Y17585162D01*
X31404761Y17585162D02*
X31452380Y17537543D01*
X31452380Y17537543D02*
X31499999Y17442305D01*
X31499999Y17442305D02*
X31499999Y17347067D01*
X31499999Y17347067D02*
X31452380Y17251829D01*
X31452380Y17251829D02*
X31404761Y17204210D01*
X31404761Y17204210D02*
X31309523Y17156591D01*
X31309523Y17156591D02*
X30976190Y17156591D01*
X32119047Y16632781D02*
X32023809Y16680400D01*
X32023809Y16680400D02*
X31976190Y16775639D01*
X31976190Y16775639D02*
X31976190Y17632781D01*
X32928571Y16632781D02*
X32928571Y17156591D01*
X32928571Y17156591D02*
X32880952Y17251829D01*
X32880952Y17251829D02*
X32785714Y17299448D01*
X32785714Y17299448D02*
X32595238Y17299448D01*
X32595238Y17299448D02*
X32500000Y17251829D01*
X32928571Y16680400D02*
X32833333Y16632781D01*
X32833333Y16632781D02*
X32595238Y16632781D01*
X32595238Y16632781D02*
X32500000Y16680400D01*
X32500000Y16680400D02*
X32452381Y16775639D01*
X32452381Y16775639D02*
X32452381Y16870877D01*
X32452381Y16870877D02*
X32500000Y16966115D01*
X32500000Y16966115D02*
X32595238Y17013734D01*
X32595238Y17013734D02*
X32833333Y17013734D01*
X32833333Y17013734D02*
X32928571Y17061353D01*
X33833333Y16680400D02*
X33738095Y16632781D01*
X33738095Y16632781D02*
X33547619Y16632781D01*
X33547619Y16632781D02*
X33452381Y16680400D01*
X33452381Y16680400D02*
X33404762Y16728020D01*
X33404762Y16728020D02*
X33357143Y16823258D01*
X33357143Y16823258D02*
X33357143Y17108972D01*
X33357143Y17108972D02*
X33404762Y17204210D01*
X33404762Y17204210D02*
X33452381Y17251829D01*
X33452381Y17251829D02*
X33547619Y17299448D01*
X33547619Y17299448D02*
X33738095Y17299448D01*
X33738095Y17299448D02*
X33833333Y17251829D01*
X34261905Y16632781D02*
X34261905Y17632781D01*
X34357143Y17013734D02*
X34642857Y16632781D01*
X34642857Y17299448D02*
X34261905Y16918496D01*
X36166667Y17156591D02*
X36309524Y17108972D01*
X36309524Y17108972D02*
X36357143Y17061353D01*
X36357143Y17061353D02*
X36404762Y16966115D01*
X36404762Y16966115D02*
X36404762Y16823258D01*
X36404762Y16823258D02*
X36357143Y16728020D01*
X36357143Y16728020D02*
X36309524Y16680400D01*
X36309524Y16680400D02*
X36214286Y16632781D01*
X36214286Y16632781D02*
X35833334Y16632781D01*
X35833334Y16632781D02*
X35833334Y17632781D01*
X35833334Y17632781D02*
X36166667Y17632781D01*
X36166667Y17632781D02*
X36261905Y17585162D01*
X36261905Y17585162D02*
X36309524Y17537543D01*
X36309524Y17537543D02*
X36357143Y17442305D01*
X36357143Y17442305D02*
X36357143Y17347067D01*
X36357143Y17347067D02*
X36309524Y17251829D01*
X36309524Y17251829D02*
X36261905Y17204210D01*
X36261905Y17204210D02*
X36166667Y17156591D01*
X36166667Y17156591D02*
X35833334Y17156591D01*
X36976191Y16632781D02*
X36880953Y16680400D01*
X36880953Y16680400D02*
X36833334Y16728020D01*
X36833334Y16728020D02*
X36785715Y16823258D01*
X36785715Y16823258D02*
X36785715Y17108972D01*
X36785715Y17108972D02*
X36833334Y17204210D01*
X36833334Y17204210D02*
X36880953Y17251829D01*
X36880953Y17251829D02*
X36976191Y17299448D01*
X36976191Y17299448D02*
X37119048Y17299448D01*
X37119048Y17299448D02*
X37214286Y17251829D01*
X37214286Y17251829D02*
X37261905Y17204210D01*
X37261905Y17204210D02*
X37309524Y17108972D01*
X37309524Y17108972D02*
X37309524Y16823258D01*
X37309524Y16823258D02*
X37261905Y16728020D01*
X37261905Y16728020D02*
X37214286Y16680400D01*
X37214286Y16680400D02*
X37119048Y16632781D01*
X37119048Y16632781D02*
X36976191Y16632781D01*
X37642858Y16632781D02*
X38166667Y17299448D01*
X37642858Y17299448D02*
X38166667Y16632781D01*
X38928572Y16680400D02*
X38833334Y16632781D01*
X38833334Y16632781D02*
X38642858Y16632781D01*
X38642858Y16632781D02*
X38547620Y16680400D01*
X38547620Y16680400D02*
X38500001Y16775639D01*
X38500001Y16775639D02*
X38500001Y17156591D01*
X38500001Y17156591D02*
X38547620Y17251829D01*
X38547620Y17251829D02*
X38642858Y17299448D01*
X38642858Y17299448D02*
X38833334Y17299448D01*
X38833334Y17299448D02*
X38928572Y17251829D01*
X38928572Y17251829D02*
X38976191Y17156591D01*
X38976191Y17156591D02*
X38976191Y17061353D01*
X38976191Y17061353D02*
X38500001Y16966115D01*
X39357144Y16680400D02*
X39452382Y16632781D01*
X39452382Y16632781D02*
X39642858Y16632781D01*
X39642858Y16632781D02*
X39738096Y16680400D01*
X39738096Y16680400D02*
X39785715Y16775639D01*
X39785715Y16775639D02*
X39785715Y16823258D01*
X39785715Y16823258D02*
X39738096Y16918496D01*
X39738096Y16918496D02*
X39642858Y16966115D01*
X39642858Y16966115D02*
X39500001Y16966115D01*
X39500001Y16966115D02*
X39404763Y17013734D01*
X39404763Y17013734D02*
X39357144Y17108972D01*
X39357144Y17108972D02*
X39357144Y17156591D01*
X39357144Y17156591D02*
X39404763Y17251829D01*
X39404763Y17251829D02*
X39500001Y17299448D01*
X39500001Y17299448D02*
X39642858Y17299448D01*
X39642858Y17299448D02*
X39738096Y17251829D01*
D10*
X11553884Y11377581D02*
X11553884Y12044248D01*
X11553884Y11853772D02*
X11601503Y11949010D01*
X11601503Y11949010D02*
X11649122Y11996629D01*
X11649122Y11996629D02*
X11744360Y12044248D01*
X11744360Y12044248D02*
X11839598Y12044248D01*
X12506265Y11901391D02*
X12649122Y11853772D01*
X12649122Y11853772D02*
X12696741Y11806153D01*
X12696741Y11806153D02*
X12744360Y11710915D01*
X12744360Y11710915D02*
X12744360Y11568058D01*
X12744360Y11568058D02*
X12696741Y11472820D01*
X12696741Y11472820D02*
X12649122Y11425200D01*
X12649122Y11425200D02*
X12553884Y11377581D01*
X12553884Y11377581D02*
X12172932Y11377581D01*
X12172932Y11377581D02*
X12172932Y12377581D01*
X12172932Y12377581D02*
X12506265Y12377581D01*
X12506265Y12377581D02*
X12601503Y12329962D01*
X12601503Y12329962D02*
X12649122Y12282343D01*
X12649122Y12282343D02*
X12696741Y12187105D01*
X12696741Y12187105D02*
X12696741Y12091867D01*
X12696741Y12091867D02*
X12649122Y11996629D01*
X12649122Y11996629D02*
X12601503Y11949010D01*
X12601503Y11949010D02*
X12506265Y11901391D01*
X12506265Y11901391D02*
X12172932Y11901391D01*
X7174687Y-15872819D02*
X7222306Y-15825200D01*
X7222306Y-15825200D02*
X7365163Y-15777580D01*
X7365163Y-15777580D02*
X7460401Y-15777580D01*
X7460401Y-15777580D02*
X7603258Y-15825200D01*
X7603258Y-15825200D02*
X7698496Y-15920438D01*
X7698496Y-15920438D02*
X7746115Y-16015676D01*
X7746115Y-16015676D02*
X7793734Y-16206152D01*
X7793734Y-16206152D02*
X7793734Y-16349009D01*
X7793734Y-16349009D02*
X7746115Y-16539485D01*
X7746115Y-16539485D02*
X7698496Y-16634723D01*
X7698496Y-16634723D02*
X7603258Y-16729961D01*
X7603258Y-16729961D02*
X7460401Y-16777580D01*
X7460401Y-16777580D02*
X7365163Y-16777580D01*
X7365163Y-16777580D02*
X7222306Y-16729961D01*
X7222306Y-16729961D02*
X7174687Y-16682342D01*
X6746115Y-15777580D02*
X6746115Y-16777580D01*
X6174687Y-15777580D02*
X6603258Y-16349009D01*
X6174687Y-16777580D02*
X6746115Y-16206152D01*
X12996115Y-15777580D02*
X12996115Y-16777580D01*
X12996115Y-16777580D02*
X12758020Y-16777580D01*
X12758020Y-16777580D02*
X12615163Y-16729961D01*
X12615163Y-16729961D02*
X12519925Y-16634723D01*
X12519925Y-16634723D02*
X12472306Y-16539485D01*
X12472306Y-16539485D02*
X12424687Y-16349009D01*
X12424687Y-16349009D02*
X12424687Y-16206152D01*
X12424687Y-16206152D02*
X12472306Y-16015676D01*
X12472306Y-16015676D02*
X12519925Y-15920438D01*
X12519925Y-15920438D02*
X12615163Y-15825200D01*
X12615163Y-15825200D02*
X12758020Y-15777580D01*
X12758020Y-15777580D02*
X12996115Y-15777580D01*
X11996115Y-15777580D02*
X11996115Y-16777580D01*
X11519925Y-15777580D02*
X11519925Y-16777580D01*
X11519925Y-16777580D02*
X10948497Y-15777580D01*
X10948497Y-15777580D02*
X10948497Y-16777580D01*
D12*
X20273809Y12632781D02*
X20273809Y13632781D01*
X20273809Y13632781D02*
X20845237Y12632781D01*
X20845237Y12632781D02*
X20845237Y13632781D01*
X21654761Y13156591D02*
X21797618Y13108972D01*
X21797618Y13108972D02*
X21845237Y13061353D01*
X21845237Y13061353D02*
X21892856Y12966115D01*
X21892856Y12966115D02*
X21892856Y12823258D01*
X21892856Y12823258D02*
X21845237Y12728020D01*
X21845237Y12728020D02*
X21797618Y12680400D01*
X21797618Y12680400D02*
X21702380Y12632781D01*
X21702380Y12632781D02*
X21321428Y12632781D01*
X21321428Y12632781D02*
X21321428Y13632781D01*
X21321428Y13632781D02*
X21654761Y13632781D01*
X21654761Y13632781D02*
X21749999Y13585162D01*
X21749999Y13585162D02*
X21797618Y13537543D01*
X21797618Y13537543D02*
X21845237Y13442305D01*
X21845237Y13442305D02*
X21845237Y13347067D01*
X21845237Y13347067D02*
X21797618Y13251829D01*
X21797618Y13251829D02*
X21749999Y13204210D01*
X21749999Y13204210D02*
X21654761Y13156591D01*
X21654761Y13156591D02*
X21321428Y13156591D01*
X22226190Y13632781D02*
X22845237Y13632781D01*
X22845237Y13632781D02*
X22511904Y13251829D01*
X22511904Y13251829D02*
X22654761Y13251829D01*
X22654761Y13251829D02*
X22749999Y13204210D01*
X22749999Y13204210D02*
X22797618Y13156591D01*
X22797618Y13156591D02*
X22845237Y13061353D01*
X22845237Y13061353D02*
X22845237Y12823258D01*
X22845237Y12823258D02*
X22797618Y12728020D01*
X22797618Y12728020D02*
X22749999Y12680400D01*
X22749999Y12680400D02*
X22654761Y12632781D01*
X22654761Y12632781D02*
X22369047Y12632781D01*
X22369047Y12632781D02*
X22273809Y12680400D01*
X22273809Y12680400D02*
X22226190Y12728020D01*
X24035714Y13156591D02*
X24369047Y13156591D01*
X24511904Y12632781D02*
X24035714Y12632781D01*
X24035714Y12632781D02*
X24035714Y13632781D01*
X24035714Y13632781D02*
X24511904Y13632781D01*
X25130952Y13108972D02*
X25130952Y12632781D01*
X24797619Y13632781D02*
X25130952Y13108972D01*
X25130952Y13108972D02*
X25464285Y13632781D01*
X25797619Y13156591D02*
X26130952Y13156591D01*
X26273809Y12632781D02*
X25797619Y12632781D01*
X25797619Y12632781D02*
X25797619Y13632781D01*
X25797619Y13632781D02*
X26273809Y13632781D01*
D11*
X24208333Y-10628880D02*
X24684524Y-10628880D01*
X24684524Y-10628880D02*
X24559524Y-11628880D01*
X23809523Y-11152690D02*
X23476190Y-11152690D01*
X23398809Y-10628880D02*
X23875000Y-10628880D01*
X23875000Y-10628880D02*
X23750000Y-11628880D01*
X23750000Y-11628880D02*
X23273809Y-11628880D01*
X22571428Y-11152690D02*
X22904761Y-11152690D01*
X22970238Y-10628880D02*
X22845238Y-11628880D01*
X22845238Y-11628880D02*
X22369047Y-11628880D01*
X22130952Y-11628880D02*
X21559523Y-11628880D01*
X21970238Y-10628880D02*
X21845238Y-11628880D01*
D10*
X10303258Y-11377580D02*
X10398496Y-11425200D01*
X10398496Y-11425200D02*
X10446115Y-11520438D01*
X10446115Y-11520438D02*
X10446115Y-12377580D01*
X9922305Y-11377580D02*
X9922305Y-12377580D01*
X9922305Y-12377580D02*
X9684210Y-12377580D01*
X9684210Y-12377580D02*
X9541353Y-12329961D01*
X9541353Y-12329961D02*
X9446115Y-12234723D01*
X9446115Y-12234723D02*
X9398496Y-12139485D01*
X9398496Y-12139485D02*
X9350877Y-11949009D01*
X9350877Y-11949009D02*
X9350877Y-11806152D01*
X9350877Y-11806152D02*
X9398496Y-11615676D01*
X9398496Y-11615676D02*
X9446115Y-11520438D01*
X9446115Y-11520438D02*
X9541353Y-11425200D01*
X9541353Y-11425200D02*
X9684210Y-11377580D01*
X9684210Y-11377580D02*
X9922305Y-11377580D01*
X6780074Y16777581D02*
X6303884Y16777581D01*
X6303884Y16777581D02*
X6256265Y16301391D01*
X6256265Y16301391D02*
X6303884Y16349010D01*
X6303884Y16349010D02*
X6399122Y16396629D01*
X6399122Y16396629D02*
X6637217Y16396629D01*
X6637217Y16396629D02*
X6732455Y16349010D01*
X6732455Y16349010D02*
X6780074Y16301391D01*
X6780074Y16301391D02*
X6827693Y16206153D01*
X6827693Y16206153D02*
X6827693Y15968058D01*
X6827693Y15968058D02*
X6780074Y15872820D01*
X6780074Y15872820D02*
X6732455Y15825200D01*
X6732455Y15825200D02*
X6637217Y15777581D01*
X6637217Y15777581D02*
X6399122Y15777581D01*
X6399122Y15777581D02*
X6303884Y15825200D01*
X6303884Y15825200D02*
X6256265Y15872820D01*
X7113408Y16777581D02*
X7446741Y15777581D01*
X7446741Y15777581D02*
X7780074Y16777581D01*
X9053884Y9377581D02*
X9053884Y10044248D01*
X9053884Y9853772D02*
X9101503Y9949010D01*
X9101503Y9949010D02*
X9149122Y9996629D01*
X9149122Y9996629D02*
X9244360Y10044248D01*
X9244360Y10044248D02*
X9339598Y10044248D01*
X9672932Y9901391D02*
X10006265Y9901391D01*
X10149122Y9377581D02*
X9672932Y9377581D01*
X9672932Y9377581D02*
X9672932Y10377581D01*
X9672932Y10377581D02*
X10149122Y10377581D01*
X12803258Y-9377580D02*
X12898496Y-9425200D01*
X12898496Y-9425200D02*
X12946115Y-9520438D01*
X12946115Y-9520438D02*
X12946115Y-10377580D01*
X11898496Y-10329961D02*
X11993734Y-10377580D01*
X11993734Y-10377580D02*
X12136591Y-10377580D01*
X12136591Y-10377580D02*
X12279448Y-10329961D01*
X12279448Y-10329961D02*
X12374686Y-10234723D01*
X12374686Y-10234723D02*
X12422305Y-10139485D01*
X12422305Y-10139485D02*
X12469924Y-9949009D01*
X12469924Y-9949009D02*
X12469924Y-9806152D01*
X12469924Y-9806152D02*
X12422305Y-9615676D01*
X12422305Y-9615676D02*
X12374686Y-9520438D01*
X12374686Y-9520438D02*
X12279448Y-9425200D01*
X12279448Y-9425200D02*
X12136591Y-9377580D01*
X12136591Y-9377580D02*
X12041353Y-9377580D01*
X12041353Y-9377580D02*
X11898496Y-9425200D01*
X11898496Y-9425200D02*
X11850877Y-9472819D01*
X11850877Y-9472819D02*
X11850877Y-9806152D01*
X11850877Y-9806152D02*
X12041353Y-9806152D01*
X6494360Y10377581D02*
X6589598Y10377581D01*
X6589598Y10377581D02*
X6684836Y10329962D01*
X6684836Y10329962D02*
X6732455Y10282343D01*
X6732455Y10282343D02*
X6780074Y10187105D01*
X6780074Y10187105D02*
X6827693Y9996629D01*
X6827693Y9996629D02*
X6827693Y9758534D01*
X6827693Y9758534D02*
X6780074Y9568058D01*
X6780074Y9568058D02*
X6732455Y9472820D01*
X6732455Y9472820D02*
X6684836Y9425200D01*
X6684836Y9425200D02*
X6589598Y9377581D01*
X6589598Y9377581D02*
X6494360Y9377581D01*
X6494360Y9377581D02*
X6399122Y9425200D01*
X6399122Y9425200D02*
X6351503Y9472820D01*
X6351503Y9472820D02*
X6303884Y9568058D01*
X6303884Y9568058D02*
X6256265Y9758534D01*
X6256265Y9758534D02*
X6256265Y9996629D01*
X6256265Y9996629D02*
X6303884Y10187105D01*
X6303884Y10187105D02*
X6351503Y10282343D01*
X6351503Y10282343D02*
X6399122Y10329962D01*
X6399122Y10329962D02*
X6494360Y10377581D01*
X7113408Y10377581D02*
X7446741Y9377581D01*
X7446741Y9377581D02*
X7780074Y10377581D01*
X12803258Y-11377580D02*
X12898496Y-11425200D01*
X12898496Y-11425200D02*
X12946115Y-11520438D01*
X12946115Y-11520438D02*
X12946115Y-12377580D01*
X11850877Y-11472819D02*
X11898496Y-11425200D01*
X11898496Y-11425200D02*
X12041353Y-11377580D01*
X12041353Y-11377580D02*
X12136591Y-11377580D01*
X12136591Y-11377580D02*
X12279448Y-11425200D01*
X12279448Y-11425200D02*
X12374686Y-11520438D01*
X12374686Y-11520438D02*
X12422305Y-11615676D01*
X12422305Y-11615676D02*
X12469924Y-11806152D01*
X12469924Y-11806152D02*
X12469924Y-11949009D01*
X12469924Y-11949009D02*
X12422305Y-12139485D01*
X12422305Y-12139485D02*
X12374686Y-12234723D01*
X12374686Y-12234723D02*
X12279448Y-12329961D01*
X12279448Y-12329961D02*
X12136591Y-12377580D01*
X12136591Y-12377580D02*
X12041353Y-12377580D01*
X12041353Y-12377580D02*
X11898496Y-12329961D01*
X11898496Y-12329961D02*
X11850877Y-12282342D01*
X15053258Y-9377580D02*
X15148496Y-9425200D01*
X15148496Y-9425200D02*
X15196115Y-9520438D01*
X15196115Y-9520438D02*
X15196115Y-10377580D01*
X14338972Y-9901390D02*
X14672305Y-9901390D01*
X14672305Y-9377580D02*
X14672305Y-10377580D01*
X14672305Y-10377580D02*
X14196115Y-10377580D01*
X10303258Y-9377580D02*
X10398496Y-9425200D01*
X10398496Y-9425200D02*
X10446115Y-9520438D01*
X10446115Y-9520438D02*
X10446115Y-10377580D01*
X9922305Y-9377580D02*
X9922305Y-10377580D01*
X9922305Y-9901390D02*
X9350877Y-9901390D01*
X9350877Y-9377580D02*
X9350877Y-10377580D01*
X9053884Y11377581D02*
X9053884Y12044248D01*
X9053884Y11853772D02*
X9101503Y11949010D01*
X9101503Y11949010D02*
X9149122Y11996629D01*
X9149122Y11996629D02*
X9244360Y12044248D01*
X9244360Y12044248D02*
X9339598Y12044248D01*
X9625313Y11663296D02*
X10101503Y11663296D01*
X9530075Y11377581D02*
X9863408Y12377581D01*
X9863408Y12377581D02*
X10196741Y11377581D01*
X11553884Y9377581D02*
X11553884Y10044248D01*
X11553884Y9853772D02*
X11601503Y9949010D01*
X11601503Y9949010D02*
X11649122Y9996629D01*
X11649122Y9996629D02*
X11744360Y10044248D01*
X11744360Y10044248D02*
X11839598Y10044248D01*
X12506265Y9901391D02*
X12172932Y9901391D01*
X12172932Y9377581D02*
X12172932Y10377581D01*
X12172932Y10377581D02*
X12649122Y10377581D01*
X16553884Y11377581D02*
X16553884Y12044248D01*
X16553884Y11853772D02*
X16601503Y11949010D01*
X16601503Y11949010D02*
X16649122Y11996629D01*
X16649122Y11996629D02*
X16744360Y12044248D01*
X16744360Y12044248D02*
X16839598Y12044248D01*
X17172932Y11377581D02*
X17172932Y12377581D01*
X17172932Y12377581D02*
X17411027Y12377581D01*
X17411027Y12377581D02*
X17553884Y12329962D01*
X17553884Y12329962D02*
X17649122Y12234724D01*
X17649122Y12234724D02*
X17696741Y12139486D01*
X17696741Y12139486D02*
X17744360Y11949010D01*
X17744360Y11949010D02*
X17744360Y11806153D01*
X17744360Y11806153D02*
X17696741Y11615677D01*
X17696741Y11615677D02*
X17649122Y11520439D01*
X17649122Y11520439D02*
X17553884Y11425200D01*
X17553884Y11425200D02*
X17411027Y11377581D01*
X17411027Y11377581D02*
X17172932Y11377581D01*
D13*
X5509982Y-18500000D02*
X5510008Y-26000000D01*
X5509982Y-20500000D02*
X18489967Y-20500000D01*
X5510008Y-26500000D02*
X18489993Y-26500000D01*
X6919990Y-20500000D02*
X6919990Y-20181153D01*
X9459995Y-20181153D02*
X9459995Y-20500000D01*
X12000000Y-20181153D02*
X12000000Y-20500000D01*
X14540005Y-20181153D02*
X14540005Y-20500000D01*
X17080010Y-20181153D02*
X17080010Y-20500000D01*
X18500000Y-26000000D02*
X18489967Y-20500000D01*
X5500000Y26000000D02*
X5510033Y20500000D01*
X6919990Y20181153D02*
X6919990Y20500000D01*
X9459995Y20181153D02*
X9459995Y20500000D01*
X12000000Y20181153D02*
X12000000Y20500000D01*
X14540005Y20181153D02*
X14540005Y20500000D01*
X17080010Y20500000D02*
X17080010Y20181153D01*
X18489993Y26500000D02*
X5510008Y26500000D01*
X18490018Y20500000D02*
X5510033Y20500000D01*
X18490018Y20500000D02*
X18500000Y26000000D01*
X5395987Y8270002D02*
X5395987Y3189992D01*
X5395987Y5729997D02*
X5395987Y3189992D01*
X5395987Y3189992D02*
X8189992Y3189992D01*
X5395987Y3189992D02*
X18604013Y3189992D01*
X8189992Y5729997D02*
X5395987Y5729997D01*
X8189992Y3189992D02*
X8189992Y5729997D01*
X18604013Y8270002D02*
X5395987Y8270002D01*
X18604013Y3189992D02*
X18604013Y8270002D01*
D14*
X5480061Y3229870D02*
G75*
G02*
X5420117Y3229870I-29972J0D01*
G01*
X5420117Y3229870D02*
G75*
G02*
X5480061Y3229870I29972J0D01*
G01*
D15*
X27729997Y9471997D02*
X40430023Y9471997D01*
X27729997Y8836996D02*
X28364999Y9471997D01*
X27729997Y8201994D02*
X27729997Y9471997D01*
X28491999Y1597981D02*
X28491999Y8201994D01*
X28491999Y1597981D02*
X28491999Y8201994D01*
X29000000Y1089980D02*
X28491999Y1597981D01*
X29000000Y1089980D02*
X28491999Y1597981D01*
X29508001Y8201994D02*
X29508001Y1597981D01*
X29508001Y8201994D02*
X29508001Y1597981D01*
X29508001Y1597981D02*
X29000000Y1089980D01*
X29508001Y1597981D02*
X29000000Y1089980D01*
X31032004Y1597981D02*
X31032004Y8201994D01*
X31032004Y1597981D02*
X31032004Y8201994D01*
X31540005Y1089980D02*
X31032004Y1597981D01*
X31540005Y1089980D02*
X31032004Y1597981D01*
X32048006Y8201994D02*
X32048006Y1597981D01*
X32048006Y8201994D02*
X32048006Y1597981D01*
X32048006Y1597981D02*
X31540005Y1089980D01*
X32048006Y1597981D02*
X31540005Y1089980D01*
X33572009Y1597981D02*
X33572009Y8201994D01*
X33572034Y1597981D02*
X33572034Y8201994D01*
X34080010Y1089980D02*
X33572009Y1597981D01*
X34080035Y1089980D02*
X33572034Y1597981D01*
X34588011Y8201994D02*
X34588011Y1597981D01*
X34588011Y1597981D02*
X34080010Y1089980D01*
X34588036Y8201994D02*
X34588036Y1597981D01*
X34588036Y1597981D02*
X34080035Y1089980D01*
X36112014Y1597981D02*
X36112014Y8201994D01*
X36112014Y1597981D02*
X36112014Y8201994D01*
X36620015Y1089980D02*
X36112014Y1597981D01*
X36620015Y1089980D02*
X36112014Y1597981D01*
X37128016Y8201994D02*
X37128016Y1597981D01*
X37128016Y8201994D02*
X37128016Y1597981D01*
X37128016Y1597981D02*
X36620015Y1089980D01*
X37128016Y1597981D02*
X36620015Y1089980D01*
X38652019Y1597981D02*
X38652019Y8201994D01*
X39160020Y1089980D02*
X38652019Y1597981D01*
X39668021Y8201994D02*
X39668021Y1597981D01*
X39668021Y1597981D02*
X39160020Y1089980D01*
X40430023Y9471997D02*
X40430023Y8201994D01*
X40430023Y8201994D02*
X27729997Y8201994D01*
D14*
X27759969Y1209868D02*
G75*
G02*
X27700025Y1209868I-29972J0D01*
G01*
X27700025Y1209868D02*
G75*
G02*
X27759969Y1209868I29972J0D01*
G01*
D16*
G36*
X34099741Y27081916D02*
G01*
X34103552Y27008855D01*
X34811502Y27005571D01*
X35519452Y27002288D01*
X35523058Y26865802D01*
X35526663Y26729315D01*
X36171511Y26726022D01*
X36816358Y26722729D01*
X36816358Y26430599D01*
X36816358Y26138469D01*
X37184842Y26138469D01*
X37553327Y26138469D01*
X37553327Y25801751D01*
X37553327Y25465033D01*
X37940870Y25465033D01*
X38328414Y25465033D01*
X38328414Y24893247D01*
X38328414Y24321461D01*
X38601601Y24321461D01*
X38874787Y24321461D01*
X38874787Y23266834D01*
X38874787Y22212206D01*
X38639720Y22212206D01*
X38404652Y22212206D01*
X38404652Y21405353D01*
X38404652Y20598499D01*
X38157070Y20598499D01*
X37909488Y20598499D01*
X37906120Y20226839D01*
X37902751Y19855178D01*
X37550150Y19851800D01*
X37197549Y19848423D01*
X37197549Y19041770D01*
X37197549Y18235118D01*
X36151392Y18235118D01*
X35990557Y18235218D01*
X35837069Y18235510D01*
X35692822Y18235977D01*
X35559711Y18236604D01*
X35439632Y18237377D01*
X35334480Y18238280D01*
X35246149Y18239298D01*
X35176535Y18240415D01*
X35127533Y18241617D01*
X35101038Y18242888D01*
X35096765Y18243589D01*
X35094758Y18257867D01*
X35092921Y18294556D01*
X35091311Y18350654D01*
X35089987Y18423159D01*
X35089007Y18509068D01*
X35088429Y18605381D01*
X35088294Y18681958D01*
X35088294Y19111856D01*
X34739209Y19111856D01*
X34390124Y19111856D01*
X34386787Y19289745D01*
X35240770Y19289745D01*
X35240770Y18387594D01*
X36142921Y18387594D01*
X37045072Y18387594D01*
X37045072Y19289745D01*
X37045072Y20191896D01*
X36142921Y20191896D01*
X35240770Y20191896D01*
X35240770Y19289745D01*
X34386787Y19289745D01*
X34386608Y19299275D01*
X34383091Y19486693D01*
X33871661Y19490014D01*
X33360230Y19493335D01*
X33360230Y20013975D01*
X33360230Y20534616D01*
X32950450Y20537968D01*
X32540670Y20541321D01*
X33512706Y20541321D01*
X33512706Y19645523D01*
X33951075Y19645523D01*
X34389445Y19645523D01*
X34389445Y20191896D01*
X34389445Y20433317D01*
X34389445Y21221111D01*
X34853226Y21221111D01*
X35317008Y21221111D01*
X35317008Y21329115D01*
X35317008Y21437119D01*
X34414857Y21437119D01*
X33512706Y21437119D01*
X33512706Y20541321D01*
X32540670Y20541321D01*
X32537179Y20747799D01*
X32533688Y20954277D01*
X31561966Y20954277D01*
X30590245Y20954277D01*
X30590245Y21106754D01*
X30590245Y21163932D01*
X30590245Y21373587D01*
X30742721Y21373587D01*
X30742721Y21240170D01*
X30742721Y21106754D01*
X31638519Y21106754D01*
X32534317Y21106754D01*
X32534317Y21299467D01*
X32686793Y21299467D01*
X32686969Y21178859D01*
X32687472Y21066087D01*
X32688266Y20963683D01*
X32689317Y20874182D01*
X32690589Y20800115D01*
X32692045Y20744016D01*
X32693652Y20708418D01*
X32695264Y20695915D01*
X32709767Y20693629D01*
X32746219Y20691577D01*
X32801157Y20689846D01*
X32871118Y20688522D01*
X32952640Y20687694D01*
X33031983Y20687444D01*
X33360230Y20687444D01*
X33360230Y21138519D01*
X33360230Y21437119D01*
X33360230Y21589595D01*
X33925663Y21589595D01*
X34491095Y21589595D01*
X34491095Y21742071D01*
X34491095Y21894547D01*
X33588944Y21894547D01*
X32686793Y21894547D01*
X32686793Y21299467D01*
X32534317Y21299467D01*
X32534317Y21500650D01*
X32534317Y21894547D01*
X32013357Y21894547D01*
X31492396Y21894547D01*
X31492396Y21634067D01*
X31492396Y21373587D01*
X31117559Y21373587D01*
X30742721Y21373587D01*
X30590245Y21373587D01*
X29986693Y21373587D01*
X29383141Y21373587D01*
X29383141Y21583085D01*
X29383141Y21792583D01*
X28916183Y21795917D01*
X28449224Y21799250D01*
X28445899Y22291621D01*
X28442573Y22783992D01*
X28214008Y22783992D01*
X27985443Y22783992D01*
X27985443Y23832266D01*
X28137919Y23832266D01*
X28137919Y22936468D01*
X28296748Y22936468D01*
X28455578Y22936468D01*
X28455578Y23419310D01*
X28455578Y23749675D01*
X28595348Y23749675D01*
X28595348Y22855995D01*
X28595465Y22707559D01*
X28595805Y22566595D01*
X28596347Y22435157D01*
X28597073Y22315299D01*
X28597963Y22209076D01*
X28598998Y22118540D01*
X28600159Y22045748D01*
X28601426Y21992752D01*
X28602780Y21961607D01*
X28603818Y21953844D01*
X28618184Y21951728D01*
X28654783Y21949805D01*
X28710434Y21948144D01*
X28781958Y21946813D01*
X28866175Y21945880D01*
X28959905Y21945413D01*
X28997715Y21945373D01*
X29383141Y21945373D01*
X29383141Y22707754D01*
X29383141Y23317659D01*
X29535618Y23317659D01*
X29535618Y22421861D01*
X29535618Y21526063D01*
X30437769Y21526063D01*
X31339920Y21526063D01*
X31339920Y22047024D01*
X31339920Y22421861D01*
X31339920Y23317659D01*
X30437769Y23317659D01*
X29535618Y23317659D01*
X29383141Y23317659D01*
X29383141Y23330365D01*
X33029865Y23330365D01*
X33029865Y22688694D01*
X33029865Y22047024D01*
X33785893Y22047024D01*
X34541921Y22047024D01*
X34541921Y22542127D01*
X34541921Y23037230D01*
X34509945Y23038119D01*
X34694397Y23038119D01*
X34694397Y22313857D01*
X34694397Y21589595D01*
X35081941Y21589595D01*
X35469485Y21589595D01*
X35469485Y21418059D01*
X35469485Y21246523D01*
X35634667Y21246523D01*
X35799850Y21246523D01*
X35799850Y21513442D01*
X35952326Y21513442D01*
X35952326Y21221111D01*
X36219159Y21221111D01*
X36485993Y21221111D01*
X36485993Y20782741D01*
X36485993Y20344372D01*
X36841771Y20344372D01*
X37197549Y20344372D01*
X37197549Y20172589D01*
X37197549Y20000805D01*
X37473912Y20004230D01*
X37750275Y20007654D01*
X37750275Y20903452D01*
X37750275Y21799250D01*
X36851301Y21802512D01*
X35952326Y21805773D01*
X35952326Y21513442D01*
X35799850Y21513442D01*
X35799850Y21519480D01*
X35799850Y21792437D01*
X35498074Y21795843D01*
X35196298Y21799250D01*
X35196263Y21805773D01*
X35193897Y22250325D01*
X36447874Y22250325D01*
X36447874Y21958079D01*
X37172136Y21958079D01*
X37896398Y21958079D01*
X37896398Y21356645D01*
X37896579Y21235366D01*
X37897097Y21121900D01*
X37897917Y21018767D01*
X37899001Y20928490D01*
X37900314Y20853590D01*
X37901818Y20796587D01*
X37903477Y20760002D01*
X37905221Y20746389D01*
X37920566Y20743352D01*
X37956267Y20741319D01*
X38007280Y20740442D01*
X38068561Y20740873D01*
X38079933Y20741094D01*
X38245823Y20744622D01*
X38245823Y21481591D01*
X38245823Y22218559D01*
X37512031Y22221839D01*
X36778239Y22225119D01*
X36778239Y22383845D01*
X36778239Y22542571D01*
X36613056Y22542571D01*
X36447874Y22542571D01*
X36447874Y22250325D01*
X35193897Y22250325D01*
X35193001Y22418684D01*
X35192341Y22542571D01*
X35190605Y22868701D01*
X35189703Y23038119D01*
X34942050Y23038119D01*
X34694397Y23038119D01*
X34509945Y23038119D01*
X34411681Y23040851D01*
X34281441Y23044472D01*
X34279585Y23190595D01*
X34278011Y23314482D01*
X34274582Y23584492D01*
X34427564Y23584492D01*
X34427564Y23387544D01*
X34427564Y23190595D01*
X35329715Y23190595D01*
X36231866Y23190595D01*
X36231866Y23355778D01*
X36918009Y23355778D01*
X36918009Y22868701D01*
X36918223Y22759848D01*
X36918832Y22659031D01*
X36919789Y22569063D01*
X36921046Y22492756D01*
X36922553Y22432920D01*
X36924265Y22392369D01*
X36926131Y22373912D01*
X36926480Y22373153D01*
X36940280Y22371748D01*
X36977438Y22370415D01*
X37035901Y22369174D01*
X37113614Y22368045D01*
X37208523Y22367046D01*
X37318574Y22366198D01*
X37441713Y22365519D01*
X37575886Y22365029D01*
X37719038Y22364746D01*
X37828631Y22364682D01*
X38722311Y22364682D01*
X38722311Y23266834D01*
X38722311Y24168985D01*
X38525363Y24168985D01*
X38328414Y24168985D01*
X38328414Y23762381D01*
X38328414Y23355778D01*
X37623211Y23355778D01*
X36918009Y23355778D01*
X36231866Y23355778D01*
X36231866Y23508254D01*
X36231866Y24028958D01*
X36384342Y24028958D01*
X36384342Y23768606D01*
X36384342Y23508254D01*
X37280140Y23508254D01*
X38175938Y23508254D01*
X38175938Y24410405D01*
X38175938Y25312556D01*
X37864750Y25312556D01*
X37553562Y25312556D01*
X37550267Y24674062D01*
X37546973Y24035568D01*
X36965658Y24032263D01*
X36384342Y24028958D01*
X36231866Y24028958D01*
X36231866Y24092746D01*
X36231866Y24181691D01*
X36231866Y24626413D01*
X36384342Y24626413D01*
X36384342Y24404052D01*
X36384342Y24181691D01*
X36892596Y24181691D01*
X37400850Y24181691D01*
X37400850Y25083842D01*
X37400850Y25985993D01*
X37108604Y25985993D01*
X36816358Y25985993D01*
X36816358Y25306203D01*
X36816358Y24626413D01*
X36600350Y24626413D01*
X36384342Y24626413D01*
X36231866Y24626413D01*
X36231866Y24994898D01*
X35526663Y24994898D01*
X34821461Y24994898D01*
X34821461Y24289695D01*
X34821461Y23584492D01*
X34624512Y23584492D01*
X34427564Y23584492D01*
X34274582Y23584492D01*
X33804700Y23584492D01*
X33334817Y23584492D01*
X33334817Y23457429D01*
X33334817Y23330365D01*
X33182341Y23330365D01*
X33029865Y23330365D01*
X29383141Y23330365D01*
X29383141Y23470135D01*
X29891396Y23470135D01*
X30399650Y23470135D01*
X30399650Y23609905D01*
X30399650Y23749675D01*
X29497499Y23749675D01*
X28595348Y23749675D01*
X28455578Y23749675D01*
X28455578Y23902151D01*
X29198899Y23902151D01*
X29942221Y23902151D01*
X29942221Y24315108D01*
X29942221Y24346874D01*
X30552126Y24346874D01*
X30552126Y23908504D01*
X30552126Y23470135D01*
X30736110Y23470135D01*
X30920095Y23470135D01*
X30923529Y23733792D01*
X30926963Y23997449D01*
X31616283Y24000735D01*
X32305603Y24004021D01*
X32305603Y24327923D01*
X32305603Y24651826D01*
X31854527Y24651826D01*
X31403452Y24651826D01*
X31403452Y24499350D01*
X31403452Y24346874D01*
X30977789Y24346874D01*
X30552126Y24346874D01*
X29942221Y24346874D01*
X29942221Y24728064D01*
X29040070Y24728064D01*
X28137919Y24728064D01*
X28137919Y23832266D01*
X27985443Y23832266D01*
X27985443Y24728064D01*
X27985443Y24880540D01*
X28213981Y24880540D01*
X28442519Y24880540D01*
X28445872Y25290320D01*
X28449224Y25700100D01*
X28878064Y25703446D01*
X29306903Y25706791D01*
X29306903Y25998699D01*
X29459380Y25998699D01*
X29459380Y25706453D01*
X30005753Y25706453D01*
X30552126Y25706453D01*
X30552126Y25102902D01*
X30552126Y24499350D01*
X30907904Y24499350D01*
X31263682Y24499350D01*
X31263682Y25045723D01*
X31403452Y25045723D01*
X31403452Y24804302D01*
X31930765Y24804302D01*
X32458079Y24804302D01*
X32458079Y24404295D01*
X32458079Y24004288D01*
X32740795Y24000869D01*
X33023512Y23997449D01*
X33026951Y23740145D01*
X33030391Y23482842D01*
X33106366Y23482842D01*
X33182341Y23482842D01*
X33182341Y24384993D01*
X33182341Y25287144D01*
X32292896Y25287144D01*
X31403452Y25287144D01*
X31403452Y25045723D01*
X31263682Y25045723D01*
X31263682Y25287144D01*
X31263682Y25395148D01*
X31263682Y26290946D01*
X30361531Y26290946D01*
X29459380Y26290946D01*
X29459380Y25998699D01*
X29306903Y25998699D01*
X29306903Y26075107D01*
X29306903Y26290946D01*
X29306903Y26443422D01*
X29897426Y26443422D01*
X30487949Y26443422D01*
X30490171Y26570485D01*
X30641070Y26570485D01*
X30641070Y26443422D01*
X31022261Y26443422D01*
X31403452Y26443422D01*
X31403452Y25941521D01*
X31403452Y25439620D01*
X31924412Y25439620D01*
X32445373Y25439620D01*
X32445373Y26068584D01*
X32445373Y26697549D01*
X31543221Y26697549D01*
X30641070Y26697549D01*
X30641070Y26570485D01*
X30490171Y26570485D01*
X30491448Y26643547D01*
X30492392Y26697549D01*
X30494947Y26843672D01*
X31247799Y26846949D01*
X32000650Y26850227D01*
X32000650Y26926263D01*
X32153126Y26926263D01*
X32153126Y26850025D01*
X32375488Y26850025D01*
X32597849Y26850025D01*
X32597849Y26144823D01*
X32597849Y25439620D01*
X32966333Y25439620D01*
X33334817Y25439620D01*
X33334817Y25318910D01*
X33334817Y25198199D01*
X33639770Y25198199D01*
X33944722Y25198199D01*
X33944722Y25681041D01*
X34096945Y25681041D01*
X34459203Y25681041D01*
X34821461Y25681041D01*
X34821461Y25414207D01*
X34821461Y25147374D01*
X35101090Y25147374D01*
X35380719Y25147374D01*
X35377999Y25859099D01*
X35520310Y25859099D01*
X35520310Y25147712D01*
X35949149Y25144366D01*
X36377989Y25141021D01*
X36381514Y24959955D01*
X36385040Y24778890D01*
X36524461Y24778890D01*
X36663882Y24778890D01*
X36663882Y25674687D01*
X36663882Y26570485D01*
X36092096Y26570485D01*
X35520310Y26570485D01*
X35520310Y25859099D01*
X35377999Y25859099D01*
X35377453Y26001876D01*
X35375280Y26570485D01*
X35374187Y26856378D01*
X34738869Y26856378D01*
X34103552Y26856378D01*
X34100248Y26268709D01*
X34096945Y25681041D01*
X33944722Y25681041D01*
X33944722Y26100350D01*
X33944722Y27002501D01*
X33048924Y27002501D01*
X32153126Y27002501D01*
X32153126Y26926263D01*
X32000650Y26926263D01*
X32000650Y27002501D01*
X32000650Y27002602D01*
X32000650Y27154978D01*
X33048290Y27154978D01*
X34095930Y27154978D01*
X34099741Y27081916D01*
G37*
D13*
X5395987Y-3189992D02*
X5395987Y-8270002D01*
X5395987Y-8270002D02*
X18604013Y-8270002D01*
X15810008Y-3189992D02*
X15810008Y-5729997D01*
X15810008Y-5729997D02*
X18604013Y-5729997D01*
X18604013Y-3189992D02*
X5395987Y-3189992D01*
X18604013Y-3189992D02*
X15810008Y-3189992D01*
X18604013Y-5729997D02*
X18604013Y-3189992D01*
X18604013Y-8270002D02*
X18604013Y-3189992D01*
D14*
X18579883Y-3229870D02*
G75*
G02*
X18519939Y-3229870I-29972J0D01*
G01*
X18519939Y-3229870D02*
G75*
G02*
X18579883Y-3229870I29972J0D01*
G01*
D15*
X27729997Y-8201994D02*
X40430023Y-8201994D01*
X27729997Y-9471997D02*
X27729997Y-8201994D01*
X28491999Y-1597981D02*
X29000000Y-1089980D01*
X28491999Y-8201994D02*
X28491999Y-1597981D01*
X29000000Y-1089980D02*
X29508001Y-1597981D01*
X29508001Y-1597981D02*
X29508001Y-8201994D01*
X31032004Y-1597981D02*
X31540005Y-1089980D01*
X31032004Y-1597981D02*
X31540005Y-1089980D01*
X31032004Y-8201994D02*
X31032004Y-1597981D01*
X31032004Y-8201994D02*
X31032004Y-1597981D01*
X31540005Y-1089980D02*
X32048006Y-1597981D01*
X31540005Y-1089980D02*
X32048006Y-1597981D01*
X32048006Y-1597981D02*
X32048006Y-8201994D01*
X32048006Y-1597981D02*
X32048006Y-8201994D01*
X33571984Y-1597981D02*
X34079985Y-1089980D01*
X33571984Y-8201994D02*
X33571984Y-1597981D01*
X33572009Y-1597981D02*
X34080010Y-1089980D01*
X33572009Y-8201994D02*
X33572009Y-1597981D01*
X34079985Y-1089980D02*
X34587986Y-1597981D01*
X34080010Y-1089980D02*
X34588011Y-1597981D01*
X34587986Y-1597981D02*
X34587986Y-8201994D01*
X34588011Y-1597981D02*
X34588011Y-8201994D01*
X36112014Y-1597981D02*
X36620015Y-1089980D01*
X36112014Y-1597981D02*
X36620015Y-1089980D01*
X36112014Y-8201994D02*
X36112014Y-1597981D01*
X36112014Y-8201994D02*
X36112014Y-1597981D01*
X36620015Y-1089980D02*
X37128016Y-1597981D01*
X36620015Y-1089980D02*
X37128016Y-1597981D01*
X37128016Y-1597981D02*
X37128016Y-8201994D01*
X37128016Y-1597981D02*
X37128016Y-8201994D01*
X38652019Y-1597981D02*
X39160020Y-1089980D01*
X38652019Y-1597981D02*
X39160020Y-1089980D01*
X38652019Y-8201994D02*
X38652019Y-1597981D01*
X38652019Y-8201994D02*
X38652019Y-1597981D01*
X39160020Y-1089980D02*
X39668021Y-1597981D01*
X39160020Y-1089980D02*
X39668021Y-1597981D01*
X39668021Y-1597981D02*
X39668021Y-8201994D01*
X39668021Y-1597981D02*
X39668021Y-8201994D01*
X40430023Y-8201994D02*
X40430023Y-9471997D01*
X40430023Y-8836996D02*
X39795021Y-9471997D01*
X40430023Y-9471997D02*
X27729997Y-9471997D01*
D14*
X40459995Y-1209868D02*
G75*
G02*
X40400051Y-1209868I-29972J0D01*
G01*
X40400051Y-1209868D02*
G75*
G02*
X40459995Y-1209868I29972J0D01*
G01*
D16*
G36*
X37197549Y-19041770D02*
G01*
X37197549Y-19848423D01*
X37550150Y-19851800D01*
X37902751Y-19855178D01*
X37906120Y-20226839D01*
X37909488Y-20598499D01*
X38157070Y-20598499D01*
X38404652Y-20598499D01*
X38404652Y-21405353D01*
X38404652Y-22212206D01*
X38639720Y-22212206D01*
X38874787Y-22212206D01*
X38874787Y-23266834D01*
X38874787Y-24321461D01*
X38601601Y-24321461D01*
X38328414Y-24321461D01*
X38328414Y-24893247D01*
X38328414Y-25465033D01*
X37940870Y-25465033D01*
X37553327Y-25465033D01*
X37553327Y-25801751D01*
X37553327Y-26138469D01*
X37184842Y-26138469D01*
X36816358Y-26138469D01*
X36816358Y-26430599D01*
X36816358Y-26722729D01*
X36171511Y-26726022D01*
X35526663Y-26729315D01*
X35523058Y-26865802D01*
X35519452Y-27002288D01*
X34811502Y-27005571D01*
X34103552Y-27008855D01*
X34099741Y-27081916D01*
X34095930Y-27154978D01*
X33048290Y-27154978D01*
X32000650Y-27154978D01*
X32000650Y-27002602D01*
X32000650Y-27002501D01*
X32000650Y-26850227D01*
X31954257Y-26850025D01*
X32153126Y-26850025D01*
X32153126Y-26926263D01*
X32153126Y-27002501D01*
X33048924Y-27002501D01*
X33944722Y-27002501D01*
X33944722Y-26100350D01*
X33944722Y-25681041D01*
X34096945Y-25681041D01*
X34100248Y-26268709D01*
X34103552Y-26856378D01*
X34738869Y-26856378D01*
X35374187Y-26856378D01*
X35375280Y-26570485D01*
X35377453Y-26001876D01*
X35380718Y-25147712D01*
X35520310Y-25147712D01*
X35520310Y-25859099D01*
X35520310Y-26570485D01*
X36092096Y-26570485D01*
X36663882Y-26570485D01*
X36663882Y-25674687D01*
X36663882Y-24778890D01*
X36524461Y-24778890D01*
X36385040Y-24778890D01*
X36381514Y-24959955D01*
X36377989Y-25141021D01*
X35949149Y-25144366D01*
X35520310Y-25147712D01*
X35380718Y-25147712D01*
X35380719Y-25147374D01*
X35101090Y-25147374D01*
X34821461Y-25147374D01*
X34821461Y-25414207D01*
X34821461Y-25681041D01*
X34459203Y-25681041D01*
X34096945Y-25681041D01*
X33944722Y-25681041D01*
X33944722Y-25198199D01*
X33639770Y-25198199D01*
X33334817Y-25198199D01*
X33334817Y-25318910D01*
X33334817Y-25439620D01*
X32966333Y-25439620D01*
X32597849Y-25439620D01*
X32597849Y-26144823D01*
X32597849Y-26850025D01*
X32375488Y-26850025D01*
X32153126Y-26850025D01*
X31954257Y-26850025D01*
X31247799Y-26846949D01*
X30494947Y-26843672D01*
X30492392Y-26697549D01*
X30491448Y-26643547D01*
X30487949Y-26443422D01*
X30641070Y-26443422D01*
X30641070Y-26570485D01*
X30641070Y-26697549D01*
X31543221Y-26697549D01*
X32445373Y-26697549D01*
X32445373Y-26068584D01*
X32445373Y-25439620D01*
X31924412Y-25439620D01*
X31403452Y-25439620D01*
X31403452Y-25941521D01*
X31403452Y-26443422D01*
X31022261Y-26443422D01*
X30641070Y-26443422D01*
X30487949Y-26443422D01*
X29897426Y-26443422D01*
X29306903Y-26443422D01*
X29306903Y-26290946D01*
X29306903Y-26075107D01*
X29306903Y-25706791D01*
X29263570Y-25706453D01*
X29459380Y-25706453D01*
X29459380Y-25998699D01*
X29459380Y-26290946D01*
X30361531Y-26290946D01*
X31263682Y-26290946D01*
X31263682Y-25395148D01*
X31263682Y-25287144D01*
X31263682Y-24804302D01*
X31403452Y-24804302D01*
X31403452Y-25045723D01*
X31403452Y-25287144D01*
X32292896Y-25287144D01*
X33182341Y-25287144D01*
X33182341Y-24384993D01*
X33182341Y-23482842D01*
X33106366Y-23482842D01*
X33030391Y-23482842D01*
X33026951Y-23740145D01*
X33023512Y-23997449D01*
X32740795Y-24000869D01*
X32458079Y-24004288D01*
X32458079Y-24404295D01*
X32458079Y-24804302D01*
X31930765Y-24804302D01*
X31403452Y-24804302D01*
X31263682Y-24804302D01*
X31263682Y-24499350D01*
X30907904Y-24499350D01*
X30552126Y-24499350D01*
X30552126Y-25102902D01*
X30552126Y-25706453D01*
X30005753Y-25706453D01*
X29459380Y-25706453D01*
X29263570Y-25706453D01*
X28878064Y-25703446D01*
X28449224Y-25700100D01*
X28445872Y-25290320D01*
X28442519Y-24880540D01*
X28213981Y-24880540D01*
X27985443Y-24880540D01*
X27985443Y-24728064D01*
X27985443Y-23832266D01*
X27985443Y-22936468D01*
X28137919Y-22936468D01*
X28137919Y-23832266D01*
X28137919Y-24728064D01*
X29040070Y-24728064D01*
X29942221Y-24728064D01*
X29942221Y-24315108D01*
X29942221Y-23908504D01*
X30552126Y-23908504D01*
X30552126Y-24346874D01*
X30977789Y-24346874D01*
X31403452Y-24346874D01*
X31403452Y-24499350D01*
X31403452Y-24651826D01*
X31854527Y-24651826D01*
X32305603Y-24651826D01*
X32305603Y-24327923D01*
X32305603Y-24004021D01*
X31616283Y-24000735D01*
X30926963Y-23997449D01*
X30923529Y-23733792D01*
X30920095Y-23470135D01*
X30736110Y-23470135D01*
X30552126Y-23470135D01*
X30552126Y-23908504D01*
X29942221Y-23908504D01*
X29942221Y-23902151D01*
X29198899Y-23902151D01*
X28455578Y-23902151D01*
X28455578Y-23749675D01*
X28455578Y-23419310D01*
X28455578Y-22936468D01*
X28296748Y-22936468D01*
X28137919Y-22936468D01*
X27985443Y-22936468D01*
X27985443Y-22855995D01*
X28595348Y-22855995D01*
X28595348Y-23749675D01*
X29497499Y-23749675D01*
X30399650Y-23749675D01*
X30399650Y-23609905D01*
X30399650Y-23470135D01*
X29891396Y-23470135D01*
X29383141Y-23470135D01*
X29383141Y-23317659D01*
X29383141Y-22707754D01*
X29383141Y-21945373D01*
X28997715Y-21945373D01*
X28959905Y-21945413D01*
X28866175Y-21945880D01*
X28781958Y-21946813D01*
X28710434Y-21948144D01*
X28654783Y-21949805D01*
X28618184Y-21951728D01*
X28603818Y-21953844D01*
X28602780Y-21961607D01*
X28601426Y-21992752D01*
X28600159Y-22045748D01*
X28598998Y-22118540D01*
X28597963Y-22209076D01*
X28597073Y-22315299D01*
X28596347Y-22435157D01*
X28595805Y-22566595D01*
X28595465Y-22707559D01*
X28595348Y-22855995D01*
X27985443Y-22855995D01*
X27985443Y-22783992D01*
X28214008Y-22783992D01*
X28442573Y-22783992D01*
X28445899Y-22291621D01*
X28449224Y-21799250D01*
X28916183Y-21795917D01*
X29383141Y-21792583D01*
X29383141Y-21583085D01*
X29383141Y-21526063D01*
X29535618Y-21526063D01*
X29535618Y-22421861D01*
X29535618Y-23317659D01*
X30437769Y-23317659D01*
X31339920Y-23317659D01*
X31339920Y-22421861D01*
X31339920Y-22047024D01*
X33029865Y-22047024D01*
X33029865Y-22688694D01*
X33029865Y-23330365D01*
X33182341Y-23330365D01*
X33334817Y-23330365D01*
X33334817Y-23457429D01*
X33334817Y-23584492D01*
X33804700Y-23584492D01*
X34274582Y-23584492D01*
X34277083Y-23387544D01*
X34427564Y-23387544D01*
X34427564Y-23584492D01*
X34624512Y-23584492D01*
X34821461Y-23584492D01*
X34821461Y-24289695D01*
X34821461Y-24994898D01*
X35526663Y-24994898D01*
X36231866Y-24994898D01*
X36231866Y-24404052D01*
X36384342Y-24404052D01*
X36384342Y-24626413D01*
X36600350Y-24626413D01*
X36816358Y-24626413D01*
X36816358Y-25306203D01*
X36816358Y-25985993D01*
X37108604Y-25985993D01*
X37400850Y-25985993D01*
X37400850Y-25083842D01*
X37400850Y-24181691D01*
X36892596Y-24181691D01*
X36384342Y-24181691D01*
X36384342Y-24404052D01*
X36231866Y-24404052D01*
X36231866Y-24181691D01*
X36231866Y-24092746D01*
X36231866Y-23768606D01*
X36384342Y-23768606D01*
X36384342Y-24028958D01*
X36965658Y-24032263D01*
X37546973Y-24035568D01*
X37550267Y-24674062D01*
X37553562Y-25312556D01*
X37864750Y-25312556D01*
X38175938Y-25312556D01*
X38175938Y-24410405D01*
X38175938Y-23508254D01*
X37280140Y-23508254D01*
X36384342Y-23508254D01*
X36384342Y-23768606D01*
X36231866Y-23768606D01*
X36231866Y-23508254D01*
X36231866Y-23355778D01*
X36918009Y-23355778D01*
X37623211Y-23355778D01*
X38328414Y-23355778D01*
X38328414Y-23762381D01*
X38328414Y-24168985D01*
X38525363Y-24168985D01*
X38722311Y-24168985D01*
X38722311Y-23266834D01*
X38722311Y-22364682D01*
X37828631Y-22364682D01*
X37719038Y-22364746D01*
X37575886Y-22365029D01*
X37441713Y-22365519D01*
X37318574Y-22366198D01*
X37208523Y-22367046D01*
X37113614Y-22368045D01*
X37035901Y-22369174D01*
X36977438Y-22370415D01*
X36940280Y-22371748D01*
X36926480Y-22373153D01*
X36926131Y-22373912D01*
X36924265Y-22392369D01*
X36922553Y-22432920D01*
X36921046Y-22492756D01*
X36919789Y-22569063D01*
X36918832Y-22659031D01*
X36918223Y-22759848D01*
X36918009Y-22868701D01*
X36918009Y-23355778D01*
X36231866Y-23355778D01*
X36231866Y-23190595D01*
X35329715Y-23190595D01*
X34427564Y-23190595D01*
X34427564Y-23387544D01*
X34277083Y-23387544D01*
X34278011Y-23314482D01*
X34279585Y-23190595D01*
X34281441Y-23044472D01*
X34411681Y-23040851D01*
X34509945Y-23038119D01*
X34541921Y-23037230D01*
X34541921Y-22542127D01*
X34541921Y-22047024D01*
X33785893Y-22047024D01*
X33029865Y-22047024D01*
X31339920Y-22047024D01*
X31339920Y-21526063D01*
X30437769Y-21526063D01*
X29535618Y-21526063D01*
X29383141Y-21526063D01*
X29383141Y-21373587D01*
X29986693Y-21373587D01*
X30590245Y-21373587D01*
X30590245Y-21240170D01*
X30742721Y-21240170D01*
X30742721Y-21373587D01*
X31117559Y-21373587D01*
X31492396Y-21373587D01*
X31492396Y-21634067D01*
X31492396Y-21894547D01*
X32013357Y-21894547D01*
X32534317Y-21894547D01*
X32534317Y-21500650D01*
X32534317Y-21299467D01*
X32686793Y-21299467D01*
X32686793Y-21894547D01*
X33588944Y-21894547D01*
X34491095Y-21894547D01*
X34491095Y-21742071D01*
X34491095Y-21589595D01*
X34694397Y-21589595D01*
X34694397Y-22313857D01*
X34694397Y-23038119D01*
X34942050Y-23038119D01*
X35189703Y-23038119D01*
X35190605Y-22868701D01*
X35192341Y-22542571D01*
X35193001Y-22418684D01*
X35195452Y-21958079D01*
X36447874Y-21958079D01*
X36447874Y-22250325D01*
X36447874Y-22542571D01*
X36613056Y-22542571D01*
X36778239Y-22542571D01*
X36778239Y-22383845D01*
X36778239Y-22225119D01*
X37512031Y-22221839D01*
X38245823Y-22218559D01*
X38245823Y-21481591D01*
X38245823Y-20744622D01*
X38079933Y-20741094D01*
X38068561Y-20740873D01*
X38007280Y-20740442D01*
X37956267Y-20741319D01*
X37920566Y-20743352D01*
X37905221Y-20746389D01*
X37903477Y-20760002D01*
X37901818Y-20796587D01*
X37900314Y-20853590D01*
X37899001Y-20928490D01*
X37897917Y-21018767D01*
X37897097Y-21121900D01*
X37896579Y-21235366D01*
X37896398Y-21356645D01*
X37896398Y-21958079D01*
X37172136Y-21958079D01*
X36447874Y-21958079D01*
X35195452Y-21958079D01*
X35196263Y-21805773D01*
X35196298Y-21799250D01*
X35498074Y-21795843D01*
X35799850Y-21792437D01*
X35799850Y-21519480D01*
X35799850Y-21246523D01*
X35634667Y-21246523D01*
X35469485Y-21246523D01*
X35469485Y-21418059D01*
X35469485Y-21589595D01*
X35081941Y-21589595D01*
X34694397Y-21589595D01*
X34491095Y-21589595D01*
X33925663Y-21589595D01*
X33360230Y-21589595D01*
X33360230Y-21437119D01*
X33360230Y-21138519D01*
X33360230Y-20687444D01*
X33031983Y-20687444D01*
X32952640Y-20687694D01*
X32871118Y-20688522D01*
X32801157Y-20689846D01*
X32746219Y-20691577D01*
X32709767Y-20693629D01*
X32695264Y-20695915D01*
X32693652Y-20708418D01*
X32692045Y-20744016D01*
X32690589Y-20800115D01*
X32689317Y-20874182D01*
X32688266Y-20963683D01*
X32687472Y-21066087D01*
X32686969Y-21178859D01*
X32686793Y-21299467D01*
X32534317Y-21299467D01*
X32534317Y-21106754D01*
X31638519Y-21106754D01*
X30742721Y-21106754D01*
X30742721Y-21240170D01*
X30590245Y-21240170D01*
X30590245Y-21163932D01*
X30590245Y-21106754D01*
X30590245Y-20954277D01*
X31561966Y-20954277D01*
X32533688Y-20954277D01*
X32537179Y-20747799D01*
X32540670Y-20541321D01*
X32950450Y-20537968D01*
X33360230Y-20534616D01*
X33360230Y-20013975D01*
X33360230Y-19645523D01*
X33512706Y-19645523D01*
X33512706Y-20541321D01*
X33512706Y-21437119D01*
X34414857Y-21437119D01*
X35317008Y-21437119D01*
X35317008Y-21329115D01*
X35317008Y-21221111D01*
X35952326Y-21221111D01*
X35952326Y-21513442D01*
X35952326Y-21805773D01*
X36851301Y-21802512D01*
X37750275Y-21799250D01*
X37750275Y-20903452D01*
X37750275Y-20007654D01*
X37473912Y-20004230D01*
X37197549Y-20000805D01*
X37197549Y-20172589D01*
X37197549Y-20344372D01*
X36841771Y-20344372D01*
X36485993Y-20344372D01*
X36485993Y-20782741D01*
X36485993Y-21221111D01*
X36219159Y-21221111D01*
X35952326Y-21221111D01*
X35317008Y-21221111D01*
X34853226Y-21221111D01*
X34389445Y-21221111D01*
X34389445Y-20433317D01*
X34389445Y-20191896D01*
X34389445Y-19645523D01*
X33951075Y-19645523D01*
X33512706Y-19645523D01*
X33360230Y-19645523D01*
X33360230Y-19493335D01*
X33871661Y-19490014D01*
X34383091Y-19486693D01*
X34386608Y-19299275D01*
X34390124Y-19111856D01*
X34739209Y-19111856D01*
X35088294Y-19111856D01*
X35088294Y-18681958D01*
X35088429Y-18605381D01*
X35089007Y-18509068D01*
X35089987Y-18423159D01*
X35090636Y-18387594D01*
X35240770Y-18387594D01*
X35240770Y-19289745D01*
X35240770Y-20191896D01*
X36142921Y-20191896D01*
X37045072Y-20191896D01*
X37045072Y-19289745D01*
X37045072Y-18387594D01*
X36142921Y-18387594D01*
X35240770Y-18387594D01*
X35090636Y-18387594D01*
X35091311Y-18350654D01*
X35092921Y-18294556D01*
X35094758Y-18257867D01*
X35096765Y-18243589D01*
X35101038Y-18242888D01*
X35127533Y-18241617D01*
X35176535Y-18240415D01*
X35246149Y-18239298D01*
X35334480Y-18238280D01*
X35439632Y-18237377D01*
X35559711Y-18236604D01*
X35692822Y-18235977D01*
X35837069Y-18235510D01*
X35990557Y-18235218D01*
X36151392Y-18235118D01*
X37197549Y-18235118D01*
X37197549Y-19041770D01*
G37*
M02*
