G04 #@! TF.GenerationSoftware,KiCad,Pcbnew,8.0.7*
G04 #@! TF.CreationDate,2025-01-23T12:20:56+00:00*
G04 #@! TF.ProjectId,NB3_eye,4e42335f-6579-4652-9e6b-696361645f70,0.0.1*
G04 #@! TF.SameCoordinates,PX56c8cc0PY67f3540*
G04 #@! TF.FileFunction,Copper,L1,Top*
G04 #@! TF.FilePolarity,Positive*
%FSLAX46Y46*%
G04 Gerber Fmt 4.6, Leading zero omitted, Abs format (unit mm)*
G04 Created by KiCad (PCBNEW 8.0.7) date 2025-01-23 12:20:56*
%MOMM*%
%LPD*%
G01*
G04 APERTURE LIST*
G04 #@! TA.AperFunction,ComponentPad*
%ADD10C,1.900000*%
G04 #@! TD*
G04 #@! TA.AperFunction,ComponentPad*
%ADD11R,1.574803X1.700000*%
G04 #@! TD*
G04 #@! TA.AperFunction,ComponentPad*
%ADD12C,1.700000*%
G04 #@! TD*
G04 #@! TA.AperFunction,ComponentPad*
%ADD13R,1.700000X1.574803*%
G04 #@! TD*
G04 #@! TA.AperFunction,ViaPad*
%ADD14C,0.600000*%
G04 #@! TD*
G04 #@! TA.AperFunction,Conductor*
%ADD15C,0.200000*%
G04 #@! TD*
G04 APERTURE END LIST*
D10*
X6919990Y-19000000D03*
X9459995Y-19000000D03*
X12000000Y-19000000D03*
X14540005Y-19000000D03*
X17080010Y-19000000D03*
X17080010Y19000000D03*
X14540005Y19000000D03*
X12000000Y19000000D03*
X9459995Y19000000D03*
X6919990Y19000000D03*
D11*
X6919990Y4459994D03*
D12*
X6919990Y7000000D03*
X9459995Y4459994D03*
X9459995Y7000000D03*
X12000000Y4459994D03*
X12000000Y7000000D03*
X14540005Y4459994D03*
X14540005Y7000000D03*
X17080010Y4459994D03*
X17080010Y7000000D03*
D13*
X29000000Y11250000D03*
D12*
X29000000Y13790006D03*
X31540005Y11250000D03*
X31540005Y13790006D03*
X34080010Y11250000D03*
X34080010Y13790006D03*
X36620015Y11250000D03*
X36620015Y13790006D03*
X39160020Y11250000D03*
X39160020Y13790006D03*
D11*
X17080010Y-4459994D03*
D12*
X17080010Y-7000000D03*
X14540005Y-4459994D03*
X14540005Y-7000000D03*
X12000000Y-4459994D03*
X12000000Y-7000000D03*
X9459995Y-4459994D03*
X9459995Y-7000000D03*
X6919990Y-4459994D03*
X6919990Y-7000000D03*
D13*
X39160020Y-11250000D03*
D12*
X39160020Y-13790006D03*
X36620015Y-11250000D03*
X36620015Y-13790006D03*
X34080010Y-11250000D03*
X34080010Y-13790006D03*
X31540005Y-11250000D03*
X31540005Y-13790006D03*
X29000000Y-11250000D03*
X29000000Y-13790006D03*
D14*
X13250000Y5750000D03*
X14500000Y10900000D03*
X15750000Y5750000D03*
X12000000Y12100000D03*
X10750000Y5750000D03*
X6919990Y-10300000D03*
X15750000Y-5750000D03*
X13300000Y-5600000D03*
X9500000Y-9300000D03*
D15*
X25002942Y9700000D02*
X12159995Y9700000D01*
X25800000Y14800000D02*
X25800000Y10497058D01*
X12159995Y9700000D02*
X9459995Y7000000D01*
X36620015Y13790006D02*
X34160021Y16250000D01*
X27250000Y16250000D02*
X25800000Y14800000D01*
X25800000Y10497058D02*
X25002942Y9700000D01*
X34160021Y16250000D02*
X27250000Y16250000D01*
X6919990Y19000000D02*
X6919990Y7000000D01*
X34080010Y13790006D02*
X32020016Y15850000D01*
X32020016Y15850000D02*
X27415686Y15850000D01*
X14300000Y9300000D02*
X12000000Y7000000D01*
X27415686Y15850000D02*
X26200000Y14634314D01*
X26200000Y14634314D02*
X26200000Y10331372D01*
X26200000Y10331372D02*
X25168628Y9300000D01*
X25168628Y9300000D02*
X14300000Y9300000D01*
X25334314Y8900000D02*
X16440005Y8900000D01*
X26600000Y14468628D02*
X26600000Y10165686D01*
X29880011Y15450000D02*
X27581372Y15450000D01*
X26600000Y10165686D02*
X25334314Y8900000D01*
X27581372Y15450000D02*
X26600000Y14468628D01*
X16440005Y8900000D02*
X14540005Y7000000D01*
X31540005Y13790006D02*
X29880011Y15450000D01*
X27950000Y2950000D02*
X18590004Y2950000D01*
X18590004Y2950000D02*
X17080010Y4459994D01*
X29000000Y11250000D02*
X29000000Y4000000D01*
X29000000Y4000000D02*
X27950000Y2950000D01*
X30550000Y2550000D02*
X16449999Y2550000D01*
X16449999Y2550000D02*
X14540005Y4459994D01*
X31540005Y3540005D02*
X30550000Y2550000D01*
X31540005Y11250000D02*
X31540005Y3540005D01*
X12000000Y4500000D02*
X13250000Y5750000D01*
X14500000Y10900000D02*
X14540005Y10940005D01*
X14540005Y10940005D02*
X14540005Y19000000D01*
X34080010Y11250000D02*
X34080010Y3080010D01*
X33150000Y2150000D02*
X14309994Y2150000D01*
X14309994Y2150000D02*
X12000000Y4459994D01*
X34080010Y3080010D02*
X33150000Y2150000D01*
X12000000Y4459994D02*
X12000000Y4500000D01*
X17000000Y7000000D02*
X15750000Y5750000D01*
X27000000Y10000000D02*
X26765685Y9765686D01*
X12000000Y12100000D02*
X12000000Y19000000D01*
X25499999Y8500000D02*
X18580010Y8500000D01*
X27355692Y13790006D02*
X27000000Y13434314D01*
X18580010Y8500000D02*
X17080010Y7000000D01*
X26765685Y9765686D02*
X25499999Y8500000D01*
X29000000Y13790006D02*
X27355692Y13790006D01*
X27000000Y13434314D02*
X27000000Y10000000D01*
X26770670Y-9740686D02*
X25504984Y-8475000D01*
X27004985Y-9975000D02*
X26770670Y-9740686D01*
X18584995Y-8475000D02*
X17084995Y-6975000D01*
X25504984Y-8475000D02*
X18584995Y-8475000D01*
X29004985Y-13765006D02*
X27360677Y-13765006D01*
X27004985Y-13409314D02*
X27004985Y-9975000D01*
X27360677Y-13765006D02*
X27004985Y-13409314D01*
X33154985Y-2125000D02*
X14314979Y-2125000D01*
X34084995Y-11225000D02*
X34084995Y-3055010D01*
X14314979Y-2125000D02*
X12004985Y-4434994D01*
X34084995Y-3055010D02*
X33154985Y-2125000D01*
X12004985Y-4434994D02*
X12004985Y-4475000D01*
X26604985Y-14443628D02*
X26604985Y-10140686D01*
X26604985Y-10140686D02*
X25339299Y-8875000D01*
X25339299Y-8875000D02*
X16444990Y-8875000D01*
X27586357Y-15425000D02*
X26604985Y-14443628D01*
X31544990Y-13765006D02*
X29884996Y-15425000D01*
X16444990Y-8875000D02*
X14544990Y-6975000D01*
X29884996Y-15425000D02*
X27586357Y-15425000D01*
X34084995Y-13765006D02*
X32025001Y-15825000D01*
X26204985Y-14609314D02*
X26204985Y-10306372D01*
X26204985Y-10306372D02*
X25173613Y-9275000D01*
X27420671Y-15825000D02*
X26204985Y-14609314D01*
X32025001Y-15825000D02*
X27420671Y-15825000D01*
X25173613Y-9275000D02*
X14304985Y-9275000D01*
X14304985Y-9275000D02*
X12004985Y-6975000D01*
X36620015Y2620015D02*
X35750000Y1750000D01*
X35750000Y1750000D02*
X12169989Y1750000D01*
X9459995Y4459994D02*
X9459995Y4459995D01*
X12169989Y1750000D02*
X9459995Y4459994D01*
X9459995Y4459995D02*
X10750000Y5750000D01*
X36620015Y11250000D02*
X36620015Y2620015D01*
X12000000Y-9510020D02*
X9464980Y-6975000D01*
X36625000Y-13765006D02*
X34165006Y-16225000D01*
X12000000Y-19000000D02*
X12000000Y-9510020D01*
X25032927Y-9700000D02*
X12000000Y-9700000D01*
X34165006Y-16225000D02*
X27254985Y-16225000D01*
X25804985Y-10472058D02*
X25032927Y-9700000D01*
X27254985Y-16225000D02*
X25804985Y-14775000D01*
X25804985Y-14775000D02*
X25804985Y-10472058D01*
X36625000Y-11225000D02*
X36625000Y-2595015D01*
X36625000Y-2595015D02*
X35754985Y-1725000D01*
X9464980Y-4434994D02*
X9464980Y-4434995D01*
X12174974Y-1725000D02*
X9464980Y-4434994D01*
X35754985Y-1725000D02*
X12174974Y-1725000D01*
X29004985Y-11225000D02*
X29004985Y-3975000D01*
X17040006Y-4459994D02*
X15750000Y-5750000D01*
X17080010Y-4459994D02*
X17040006Y-4459994D01*
X27954985Y-2925000D02*
X18594989Y-2925000D01*
X6919990Y-10300000D02*
X6919990Y-19000000D01*
X18594989Y-2925000D02*
X17084995Y-4434994D01*
X29004985Y-3975000D02*
X27954985Y-2925000D01*
X9459995Y-9340005D02*
X9459995Y-19000000D01*
X31544990Y-3515005D02*
X30554985Y-2525000D01*
X16454984Y-2525000D02*
X14544990Y-4434994D01*
X31544990Y-11225000D02*
X31544990Y-3515005D01*
X30554985Y-2525000D02*
X16454984Y-2525000D01*
X14540005Y-4459994D02*
X14440006Y-4459994D01*
X14440006Y-4459994D02*
X13300000Y-5600000D01*
X9500000Y-9300000D02*
X9459995Y-9340005D01*
G04 #@! TA.AperFunction,Conductor*
G36*
X39015677Y28980315D02*
G01*
X39036319Y28963681D01*
X40000000Y28000000D01*
X21000000Y28000000D01*
X21963681Y28963681D01*
X22025004Y28997166D01*
X22051362Y29000000D01*
X38948638Y29000000D01*
X39015677Y28980315D01*
G37*
G04 #@! TD.AperFunction*
G04 #@! TA.AperFunction,Conductor*
G36*
X11833974Y-1019685D02*
G01*
X11879729Y-1072489D01*
X11889673Y-1141647D01*
X11860648Y-1205203D01*
X11828935Y-1231387D01*
X11806261Y-1244477D01*
X11806256Y-1244481D01*
X11694452Y-1356286D01*
X9927740Y-3122997D01*
X9866417Y-3156482D01*
X9807967Y-3155091D01*
X9695403Y-3124931D01*
X9459996Y-3104335D01*
X9459994Y-3104335D01*
X9224591Y-3124930D01*
X9224581Y-3124932D01*
X8996339Y-3186088D01*
X8996330Y-3186092D01*
X8782166Y-3285958D01*
X8782164Y-3285959D01*
X8588592Y-3421499D01*
X8421500Y-3588591D01*
X8291567Y-3774156D01*
X8236990Y-3817781D01*
X8167492Y-3824974D01*
X8105137Y-3793452D01*
X8088417Y-3774156D01*
X7958484Y-3588591D01*
X7791392Y-3421500D01*
X7791389Y-3421498D01*
X7714507Y-3367664D01*
X7597824Y-3285961D01*
X7597820Y-3285959D01*
X7558076Y-3267426D01*
X7383653Y-3186091D01*
X7383649Y-3186090D01*
X7383645Y-3186088D01*
X7155403Y-3124932D01*
X7155393Y-3124930D01*
X6919991Y-3104335D01*
X6919989Y-3104335D01*
X6684586Y-3124930D01*
X6684576Y-3124932D01*
X6456334Y-3186088D01*
X6456325Y-3186092D01*
X6242161Y-3285958D01*
X6242159Y-3285959D01*
X6048587Y-3421499D01*
X5881495Y-3588591D01*
X5745955Y-3782163D01*
X5745954Y-3782165D01*
X5646088Y-3996329D01*
X5646084Y-3996338D01*
X5584928Y-4224580D01*
X5584926Y-4224590D01*
X5564331Y-4459993D01*
X5564331Y-4459994D01*
X5584926Y-4695397D01*
X5584928Y-4695407D01*
X5646084Y-4923649D01*
X5646086Y-4923653D01*
X5646087Y-4923657D01*
X5740691Y-5126536D01*
X5745955Y-5137824D01*
X5745957Y-5137828D01*
X5751562Y-5145832D01*
X5881495Y-5331395D01*
X6048589Y-5498489D01*
X6194331Y-5600539D01*
X6234589Y-5628728D01*
X6278214Y-5683305D01*
X6285406Y-5752804D01*
X6253884Y-5815158D01*
X6234588Y-5831878D01*
X6158617Y-5885072D01*
X6158616Y-5885073D01*
X6749745Y-6476201D01*
X6707693Y-6487470D01*
X6582274Y-6559880D01*
X6479870Y-6662284D01*
X6407460Y-6787703D01*
X6396192Y-6829755D01*
X5805063Y-6238626D01*
X5805063Y-6238627D01*
X5746390Y-6322421D01*
X5746389Y-6322423D01*
X5646560Y-6536507D01*
X5646556Y-6536516D01*
X5585422Y-6764673D01*
X5585420Y-6764684D01*
X5564833Y-6999998D01*
X5564833Y-7000001D01*
X5585420Y-7235315D01*
X5585422Y-7235326D01*
X5646556Y-7463483D01*
X5646560Y-7463492D01*
X5746388Y-7677576D01*
X5805063Y-7761372D01*
X6396191Y-7170244D01*
X6407460Y-7212297D01*
X6479870Y-7337716D01*
X6582274Y-7440120D01*
X6707693Y-7512530D01*
X6749745Y-7523798D01*
X6158616Y-8114926D01*
X6242407Y-8173598D01*
X6242411Y-8173600D01*
X6456497Y-8273429D01*
X6456506Y-8273433D01*
X6684663Y-8334567D01*
X6684674Y-8334569D01*
X6919988Y-8355157D01*
X6919992Y-8355157D01*
X7155305Y-8334569D01*
X7155316Y-8334567D01*
X7383473Y-8273433D01*
X7383482Y-8273429D01*
X7597570Y-8173599D01*
X7681361Y-8114925D01*
X7090234Y-7523798D01*
X7132287Y-7512530D01*
X7257706Y-7440120D01*
X7360110Y-7337716D01*
X7432520Y-7212297D01*
X7443788Y-7170244D01*
X8034915Y-7761371D01*
X8088113Y-7685400D01*
X8142690Y-7641776D01*
X8212189Y-7634584D01*
X8274543Y-7666107D01*
X8291261Y-7685401D01*
X8421500Y-7871401D01*
X8588594Y-8038495D01*
X8685379Y-8106265D01*
X8782160Y-8174032D01*
X8782162Y-8174033D01*
X8782165Y-8174035D01*
X8996332Y-8273903D01*
X8996338Y-8273904D01*
X8996339Y-8273905D01*
X9071846Y-8294136D01*
X9181370Y-8323483D01*
X9241030Y-8359848D01*
X9271560Y-8422694D01*
X9263266Y-8492070D01*
X9218781Y-8545948D01*
X9190233Y-8560299D01*
X9150479Y-8574209D01*
X8997737Y-8670184D01*
X8870184Y-8797737D01*
X8774211Y-8950476D01*
X8714631Y-9120745D01*
X8714630Y-9120750D01*
X8694435Y-9299996D01*
X8694435Y-9300003D01*
X8714630Y-9479249D01*
X8714631Y-9479254D01*
X8774211Y-9649524D01*
X8840488Y-9755001D01*
X8859495Y-9820974D01*
X8859495Y-17601803D01*
X8839810Y-17668842D01*
X8794513Y-17710857D01*
X8663934Y-17781523D01*
X8663919Y-17781533D01*
X8474237Y-17929169D01*
X8474234Y-17929172D01*
X8311423Y-18106031D01*
X8293800Y-18133006D01*
X8240653Y-18178362D01*
X8171421Y-18187785D01*
X8108086Y-18158282D01*
X8086184Y-18133005D01*
X8068562Y-18106033D01*
X8068561Y-18106031D01*
X7905754Y-17929175D01*
X7905749Y-17929171D01*
X7905747Y-17929169D01*
X7716065Y-17781533D01*
X7716050Y-17781523D01*
X7585472Y-17710857D01*
X7535881Y-17661638D01*
X7520490Y-17601803D01*
X7520490Y-10882412D01*
X7540175Y-10815373D01*
X7547545Y-10805097D01*
X7549800Y-10802267D01*
X7549806Y-10802262D01*
X7645779Y-10649522D01*
X7705358Y-10479255D01*
X7705359Y-10479249D01*
X7725555Y-10300003D01*
X7725555Y-10299996D01*
X7705359Y-10120750D01*
X7705358Y-10120745D01*
X7685518Y-10064045D01*
X7645779Y-9950478D01*
X7549806Y-9797738D01*
X7422252Y-9670184D01*
X7389369Y-9649522D01*
X7269513Y-9574211D01*
X7099244Y-9514631D01*
X7099239Y-9514630D01*
X6919994Y-9494435D01*
X6919986Y-9494435D01*
X6740740Y-9514630D01*
X6740735Y-9514631D01*
X6570466Y-9574211D01*
X6417727Y-9670184D01*
X6290174Y-9797737D01*
X6194201Y-9950476D01*
X6134621Y-10120745D01*
X6134620Y-10120750D01*
X6114425Y-10299996D01*
X6114425Y-10300003D01*
X6134620Y-10479249D01*
X6134621Y-10479254D01*
X6194201Y-10649523D01*
X6254505Y-10745496D01*
X6271256Y-10772155D01*
X6290175Y-10802263D01*
X6292435Y-10805097D01*
X6293324Y-10807275D01*
X6293879Y-10808158D01*
X6293724Y-10808255D01*
X6318845Y-10869783D01*
X6319490Y-10882412D01*
X6319490Y-17601803D01*
X6299805Y-17668842D01*
X6254508Y-17710857D01*
X6123929Y-17781523D01*
X6123914Y-17781533D01*
X5934232Y-17929169D01*
X5934229Y-17929172D01*
X5771420Y-18106029D01*
X5771417Y-18106033D01*
X5639941Y-18307270D01*
X5543379Y-18527410D01*
X5484369Y-18760440D01*
X5464519Y-18999994D01*
X5464519Y-19000005D01*
X5484369Y-19239559D01*
X5543379Y-19472589D01*
X5639941Y-19692729D01*
X5753798Y-19866998D01*
X5771419Y-19893969D01*
X5934226Y-20070825D01*
X5934229Y-20070827D01*
X5934232Y-20070830D01*
X6123914Y-20218466D01*
X6123920Y-20218470D01*
X6123923Y-20218472D01*
X6335334Y-20332882D01*
X6335337Y-20332883D01*
X6562689Y-20410933D01*
X6562691Y-20410933D01*
X6562693Y-20410934D01*
X6799798Y-20450500D01*
X6799799Y-20450500D01*
X7040181Y-20450500D01*
X7040182Y-20450500D01*
X7277287Y-20410934D01*
X7504646Y-20332882D01*
X7716057Y-20218472D01*
X7716601Y-20218049D01*
X7779758Y-20168891D01*
X7905754Y-20070825D01*
X8068561Y-19893969D01*
X8086183Y-19866996D01*
X8139326Y-19821639D01*
X8208557Y-19812214D01*
X8271894Y-19841713D01*
X8293798Y-19866990D01*
X8311424Y-19893969D01*
X8474231Y-20070825D01*
X8474234Y-20070827D01*
X8474237Y-20070830D01*
X8663919Y-20218466D01*
X8663925Y-20218470D01*
X8663928Y-20218472D01*
X8875339Y-20332882D01*
X8875342Y-20332883D01*
X9102694Y-20410933D01*
X9102696Y-20410933D01*
X9102698Y-20410934D01*
X9339803Y-20450500D01*
X9339804Y-20450500D01*
X9580186Y-20450500D01*
X9580187Y-20450500D01*
X9817292Y-20410934D01*
X10044651Y-20332882D01*
X10256062Y-20218472D01*
X10256606Y-20218049D01*
X10319763Y-20168891D01*
X10445759Y-20070825D01*
X10608566Y-19893969D01*
X10626188Y-19866996D01*
X10679331Y-19821639D01*
X10748562Y-19812214D01*
X10811899Y-19841713D01*
X10833803Y-19866990D01*
X10851429Y-19893969D01*
X11014236Y-20070825D01*
X11014239Y-20070827D01*
X11014242Y-20070830D01*
X11203924Y-20218466D01*
X11203930Y-20218470D01*
X11203933Y-20218472D01*
X11415344Y-20332882D01*
X11415347Y-20332883D01*
X11642699Y-20410933D01*
X11642701Y-20410933D01*
X11642703Y-20410934D01*
X11879808Y-20450500D01*
X11879809Y-20450500D01*
X12120191Y-20450500D01*
X12120192Y-20450500D01*
X12357297Y-20410934D01*
X12584656Y-20332882D01*
X12796067Y-20218472D01*
X12796611Y-20218049D01*
X12859768Y-20168891D01*
X12985764Y-20070825D01*
X13148571Y-19893969D01*
X13166193Y-19866996D01*
X13219336Y-19821639D01*
X13288567Y-19812214D01*
X13351904Y-19841713D01*
X13373808Y-19866990D01*
X13391434Y-19893969D01*
X13554241Y-20070825D01*
X13554244Y-20070827D01*
X13554247Y-20070830D01*
X13743929Y-20218466D01*
X13743935Y-20218470D01*
X13743938Y-20218472D01*
X13955349Y-20332882D01*
X13955352Y-20332883D01*
X14182704Y-20410933D01*
X14182706Y-20410933D01*
X14182708Y-20410934D01*
X14419813Y-20450500D01*
X14419814Y-20450500D01*
X14660196Y-20450500D01*
X14660197Y-20450500D01*
X14897302Y-20410934D01*
X15124661Y-20332882D01*
X15336072Y-20218472D01*
X15336616Y-20218049D01*
X15399773Y-20168891D01*
X15525769Y-20070825D01*
X15688576Y-19893969D01*
X15706496Y-19866539D01*
X15759641Y-19821182D01*
X15828872Y-19811757D01*
X15871354Y-19831543D01*
X15892698Y-19833757D01*
X16556211Y-19170244D01*
X16567480Y-19212297D01*
X16639890Y-19337716D01*
X16742294Y-19440120D01*
X16867713Y-19512530D01*
X16909764Y-19523797D01*
X16245582Y-20187979D01*
X16284218Y-20218051D01*
X16495554Y-20332421D01*
X16495560Y-20332423D01*
X16722833Y-20410446D01*
X16959861Y-20450000D01*
X17200159Y-20450000D01*
X17437186Y-20410446D01*
X17664459Y-20332423D01*
X17664465Y-20332421D01*
X17875804Y-20218049D01*
X17875805Y-20218048D01*
X17914436Y-20187980D01*
X17914437Y-20187979D01*
X17250255Y-19523797D01*
X17292307Y-19512530D01*
X17417726Y-19440120D01*
X17520130Y-19337716D01*
X17592540Y-19212297D01*
X17603807Y-19170244D01*
X18267320Y-19833757D01*
X18359616Y-19692490D01*
X18456144Y-19472428D01*
X18515135Y-19239476D01*
X18534979Y-19000005D01*
X18534979Y-18999994D01*
X18515135Y-18760523D01*
X18456144Y-18527571D01*
X18359618Y-18307514D01*
X18267320Y-18166241D01*
X17603807Y-18829754D01*
X17592540Y-18787703D01*
X17520130Y-18662284D01*
X17417726Y-18559880D01*
X17292307Y-18487470D01*
X17250253Y-18476201D01*
X17914436Y-17812019D01*
X17914436Y-17812017D01*
X17875811Y-17781954D01*
X17875805Y-17781950D01*
X17664465Y-17667578D01*
X17664459Y-17667576D01*
X17437186Y-17589553D01*
X17200159Y-17550000D01*
X16959861Y-17550000D01*
X16722833Y-17589553D01*
X16495560Y-17667576D01*
X16495554Y-17667578D01*
X16284219Y-17781948D01*
X16245581Y-17812019D01*
X16909764Y-18476202D01*
X16867713Y-18487470D01*
X16742294Y-18559880D01*
X16639890Y-18662284D01*
X16567480Y-18787703D01*
X16556212Y-18829755D01*
X15892698Y-18166241D01*
X15873349Y-18168248D01*
X15860961Y-18178820D01*
X15791729Y-18188240D01*
X15728395Y-18158735D01*
X15706497Y-18133461D01*
X15688577Y-18106033D01*
X15688576Y-18106031D01*
X15525769Y-17929175D01*
X15525764Y-17929171D01*
X15525762Y-17929169D01*
X15336080Y-17781533D01*
X15336074Y-17781529D01*
X15124662Y-17667118D01*
X15124657Y-17667116D01*
X14897305Y-17589066D01*
X14719473Y-17559391D01*
X14660197Y-17549500D01*
X14419813Y-17549500D01*
X14372392Y-17557413D01*
X14182704Y-17589066D01*
X13955352Y-17667116D01*
X13955347Y-17667118D01*
X13743935Y-17781529D01*
X13743929Y-17781533D01*
X13554247Y-17929169D01*
X13554244Y-17929172D01*
X13391433Y-18106031D01*
X13373810Y-18133006D01*
X13320663Y-18178362D01*
X13251431Y-18187785D01*
X13188096Y-18158282D01*
X13166194Y-18133005D01*
X13148572Y-18106033D01*
X13148571Y-18106031D01*
X12985764Y-17929175D01*
X12985759Y-17929171D01*
X12985757Y-17929169D01*
X12796075Y-17781533D01*
X12796060Y-17781523D01*
X12665482Y-17710857D01*
X12615891Y-17661638D01*
X12600500Y-17601803D01*
X12600500Y-10424500D01*
X12620185Y-10357461D01*
X12672989Y-10311706D01*
X12724500Y-10300500D01*
X24732830Y-10300500D01*
X24799869Y-10320185D01*
X24820511Y-10336819D01*
X25168166Y-10684474D01*
X25201651Y-10745797D01*
X25204485Y-10772155D01*
X25204485Y-14688330D01*
X25204484Y-14688348D01*
X25204484Y-14854054D01*
X25204483Y-14854054D01*
X25204484Y-14854057D01*
X25245408Y-15006785D01*
X25266968Y-15044128D01*
X25324462Y-15143712D01*
X25324466Y-15143717D01*
X25443334Y-15262585D01*
X25443339Y-15262589D01*
X26886269Y-16705520D01*
X26886271Y-16705521D01*
X26886275Y-16705524D01*
X27023194Y-16784573D01*
X27023201Y-16784577D01*
X27175928Y-16825501D01*
X27175930Y-16825501D01*
X27341639Y-16825501D01*
X27341655Y-16825500D01*
X34078337Y-16825500D01*
X34078353Y-16825501D01*
X34085949Y-16825501D01*
X34244060Y-16825501D01*
X34244063Y-16825501D01*
X34396791Y-16784577D01*
X34446910Y-16755639D01*
X34533722Y-16705520D01*
X34645526Y-16593716D01*
X34645526Y-16593714D01*
X34655734Y-16583507D01*
X34655736Y-16583504D01*
X36120699Y-15118540D01*
X36182020Y-15085057D01*
X36240471Y-15086448D01*
X36296872Y-15101560D01*
X36384607Y-15125069D01*
X36572933Y-15141545D01*
X36620014Y-15145665D01*
X36620015Y-15145665D01*
X36620016Y-15145665D01*
X36659249Y-15142232D01*
X36855423Y-15125069D01*
X37083678Y-15063909D01*
X37297845Y-14964041D01*
X37491416Y-14828501D01*
X37658510Y-14661407D01*
X37788749Y-14475406D01*
X37843324Y-14431783D01*
X37912822Y-14424589D01*
X37975177Y-14456112D01*
X37991896Y-14475407D01*
X38045092Y-14551378D01*
X38045093Y-14551378D01*
X38636221Y-13960250D01*
X38647490Y-14002303D01*
X38719900Y-14127722D01*
X38822304Y-14230126D01*
X38947723Y-14302536D01*
X38989775Y-14313804D01*
X38398646Y-14904932D01*
X38482437Y-14963604D01*
X38482441Y-14963606D01*
X38696527Y-15063435D01*
X38696536Y-15063439D01*
X38924693Y-15124573D01*
X38924704Y-15124575D01*
X39160018Y-15145163D01*
X39160022Y-15145163D01*
X39395335Y-15124575D01*
X39395346Y-15124573D01*
X39623503Y-15063439D01*
X39623512Y-15063435D01*
X39837600Y-14963605D01*
X39921391Y-14904931D01*
X39330264Y-14313804D01*
X39372317Y-14302536D01*
X39497736Y-14230126D01*
X39600140Y-14127722D01*
X39672550Y-14002303D01*
X39683818Y-13960250D01*
X40274945Y-14551377D01*
X40333619Y-14467586D01*
X40433449Y-14253498D01*
X40433453Y-14253489D01*
X40494587Y-14025332D01*
X40494589Y-14025321D01*
X40515177Y-13790007D01*
X40515177Y-13790004D01*
X40494589Y-13554690D01*
X40494587Y-13554679D01*
X40433453Y-13326522D01*
X40433449Y-13326513D01*
X40333621Y-13112430D01*
X40274945Y-13028632D01*
X39683817Y-13619760D01*
X39672550Y-13577709D01*
X39600140Y-13452290D01*
X39497736Y-13349886D01*
X39372317Y-13277476D01*
X39330264Y-13266207D01*
X39921392Y-12675079D01*
X39921185Y-12672708D01*
X39934952Y-12604208D01*
X39983567Y-12554025D01*
X40044712Y-12537901D01*
X40057892Y-12537901D01*
X40117503Y-12531493D01*
X40252351Y-12481198D01*
X40367566Y-12394948D01*
X40453816Y-12279733D01*
X40504111Y-12144885D01*
X40510520Y-12085275D01*
X40510519Y-10414726D01*
X40504111Y-10355115D01*
X40485826Y-10306091D01*
X40453817Y-10220269D01*
X40453813Y-10220262D01*
X40367567Y-10105053D01*
X40367564Y-10105050D01*
X40252355Y-10018804D01*
X40252348Y-10018800D01*
X40117502Y-9968506D01*
X40117503Y-9968506D01*
X40057903Y-9962099D01*
X40057901Y-9962098D01*
X40057893Y-9962098D01*
X40057884Y-9962098D01*
X38262149Y-9962098D01*
X38262143Y-9962099D01*
X38202536Y-9968506D01*
X38067691Y-10018800D01*
X38067684Y-10018804D01*
X37952475Y-10105050D01*
X37952472Y-10105053D01*
X37866226Y-10220262D01*
X37866223Y-10220267D01*
X37834213Y-10306091D01*
X37792341Y-10362024D01*
X37726877Y-10386441D01*
X37658604Y-10371589D01*
X37630350Y-10350439D01*
X37579907Y-10299996D01*
X37491416Y-10211505D01*
X37491412Y-10211502D01*
X37491411Y-10211501D01*
X37297846Y-10075965D01*
X37297839Y-10075961D01*
X37297094Y-10075614D01*
X37296821Y-10075373D01*
X37293155Y-10073257D01*
X37293580Y-10072520D01*
X37244655Y-10029441D01*
X37225500Y-9963233D01*
X37225500Y-2684074D01*
X37225501Y-2684061D01*
X37225501Y-2515960D01*
X37225501Y-2515958D01*
X37184577Y-2363230D01*
X37144154Y-2293216D01*
X37105520Y-2226299D01*
X36993716Y-2114495D01*
X36989385Y-2110164D01*
X36989374Y-2110154D01*
X36242575Y-1363355D01*
X36242573Y-1363352D01*
X36123702Y-1244481D01*
X36123697Y-1244477D01*
X36101024Y-1231387D01*
X36052808Y-1180820D01*
X36039585Y-1112213D01*
X36065553Y-1047348D01*
X36122468Y-1006820D01*
X36163024Y-1000000D01*
X42876000Y-1000000D01*
X42943039Y-1019685D01*
X42988794Y-1072489D01*
X43000000Y-1124000D01*
X43000000Y-24948638D01*
X42980315Y-25015677D01*
X42963681Y-25036319D01*
X40036319Y-27963681D01*
X39974996Y-27997166D01*
X39948638Y-28000000D01*
X20613304Y-28000000D01*
X20546265Y-27980315D01*
X20500510Y-27927511D01*
X20493529Y-27908093D01*
X20466391Y-27806812D01*
X20457563Y-27791521D01*
X20400500Y-27692686D01*
X20307314Y-27599500D01*
X19307314Y-26599500D01*
X19250250Y-26566554D01*
X19193187Y-26533608D01*
X19129539Y-26516554D01*
X19065892Y-26499500D01*
X5065893Y-26499500D01*
X4934108Y-26499500D01*
X4806812Y-26533608D01*
X4692686Y-26599500D01*
X4692683Y-26599502D01*
X3599502Y-27692683D01*
X3599500Y-27692686D01*
X3533608Y-27806812D01*
X3506471Y-27908093D01*
X3470106Y-27967754D01*
X3407259Y-27998283D01*
X3386696Y-28000000D01*
X2051362Y-28000000D01*
X1984323Y-27980315D01*
X1963681Y-27963681D01*
X1036319Y-27036319D01*
X1002834Y-26974996D01*
X1000000Y-26948638D01*
X1000000Y-1124000D01*
X1019685Y-1056961D01*
X1072489Y-1011206D01*
X1124000Y-1000000D01*
X11766935Y-1000000D01*
X11833974Y-1019685D01*
G37*
G04 #@! TD.AperFunction*
G04 #@! TA.AperFunction,Conductor*
G36*
X37761364Y-12121059D02*
G01*
X37817298Y-12162930D01*
X37834213Y-12193908D01*
X37866222Y-12279730D01*
X37866226Y-12279737D01*
X37952472Y-12394946D01*
X37952475Y-12394949D01*
X38067684Y-12481195D01*
X38067691Y-12481199D01*
X38111405Y-12497503D01*
X38202537Y-12531493D01*
X38262147Y-12537902D01*
X38275321Y-12537901D01*
X38342359Y-12557581D01*
X38388117Y-12610383D01*
X38398854Y-12672708D01*
X38398646Y-12675079D01*
X38989775Y-13266207D01*
X38947723Y-13277476D01*
X38822304Y-13349886D01*
X38719900Y-13452290D01*
X38647490Y-13577709D01*
X38636222Y-13619761D01*
X38045093Y-13028632D01*
X38045092Y-13028633D01*
X37991898Y-13104604D01*
X37937321Y-13148229D01*
X37867823Y-13155423D01*
X37805468Y-13123900D01*
X37788748Y-13104604D01*
X37658509Y-12918603D01*
X37491417Y-12751512D01*
X37491410Y-12751507D01*
X37305853Y-12621578D01*
X37262228Y-12567001D01*
X37255035Y-12497503D01*
X37286557Y-12435148D01*
X37305853Y-12418428D01*
X37339617Y-12394785D01*
X37491416Y-12288495D01*
X37630353Y-12149557D01*
X37691672Y-12116075D01*
X37761364Y-12121059D01*
G37*
G04 #@! TD.AperFunction*
G04 #@! TA.AperFunction,Conductor*
G36*
X8274847Y-5126536D02*
G01*
X8291567Y-5145832D01*
X8421500Y-5331395D01*
X8588594Y-5498489D01*
X8709617Y-5583230D01*
X8774157Y-5628422D01*
X8817782Y-5682999D01*
X8824975Y-5752497D01*
X8793453Y-5814852D01*
X8774157Y-5831572D01*
X8588592Y-5961505D01*
X8421500Y-6128597D01*
X8291262Y-6314598D01*
X8236685Y-6358223D01*
X8167187Y-6365417D01*
X8104832Y-6333894D01*
X8088112Y-6314599D01*
X8034915Y-6238626D01*
X7443787Y-6829754D01*
X7432520Y-6787703D01*
X7360110Y-6662284D01*
X7257706Y-6559880D01*
X7132287Y-6487470D01*
X7090234Y-6476201D01*
X7681362Y-5885073D01*
X7605390Y-5831877D01*
X7561765Y-5777300D01*
X7554573Y-5707801D01*
X7586095Y-5645447D01*
X7605386Y-5628730D01*
X7791391Y-5498489D01*
X7958485Y-5331395D01*
X8088418Y-5145830D01*
X8142994Y-5102207D01*
X8212492Y-5095013D01*
X8274847Y-5126536D01*
G37*
G04 #@! TD.AperFunction*
G04 #@! TA.AperFunction,Conductor*
G36*
X3453735Y27980315D02*
G01*
X3499490Y27927511D01*
X3506471Y27908093D01*
X3533608Y27806813D01*
X3566554Y27749750D01*
X3599500Y27692686D01*
X4599500Y26692686D01*
X4692686Y26599500D01*
X4806814Y26533608D01*
X4934108Y26499500D01*
X4934110Y26499500D01*
X19065890Y26499500D01*
X19065892Y26499500D01*
X19193186Y26533608D01*
X19307314Y26599500D01*
X20400500Y27692686D01*
X20466392Y27806814D01*
X20493529Y27908095D01*
X20529894Y27967754D01*
X20592741Y27998283D01*
X20613304Y28000000D01*
X21000000Y28000000D01*
X40000000Y28000000D01*
X42963681Y25036319D01*
X42997166Y24974996D01*
X43000000Y24948638D01*
X43000000Y1124000D01*
X42980315Y1056961D01*
X42927511Y1011206D01*
X42876000Y1000000D01*
X36114734Y1000000D01*
X36047695Y1019685D01*
X36001940Y1072489D01*
X35991996Y1141647D01*
X36021021Y1205203D01*
X36052736Y1231388D01*
X36118716Y1269480D01*
X36230520Y1381284D01*
X36230520Y1381286D01*
X36240728Y1391493D01*
X36240730Y1391496D01*
X36978521Y2129287D01*
X36978526Y2129291D01*
X36988729Y2139495D01*
X36988731Y2139495D01*
X37100535Y2251299D01*
X37105581Y2260041D01*
X37175870Y2381783D01*
X37175872Y2381789D01*
X37179592Y2388230D01*
X37220516Y2540958D01*
X37220516Y2699072D01*
X37220516Y2706667D01*
X37220515Y2706685D01*
X37220515Y9960910D01*
X37240200Y10027949D01*
X37292116Y10073294D01*
X37297845Y10075965D01*
X37491416Y10211505D01*
X37658510Y10378599D01*
X37788443Y10564164D01*
X37843019Y10607787D01*
X37912517Y10614981D01*
X37974872Y10583458D01*
X37991592Y10564162D01*
X38043191Y10490472D01*
X38121525Y10378599D01*
X38288619Y10211505D01*
X38332872Y10180519D01*
X38482185Y10075968D01*
X38482187Y10075967D01*
X38482190Y10075965D01*
X38696357Y9976097D01*
X38696363Y9976096D01*
X38696364Y9976095D01*
X38748595Y9962100D01*
X38924612Y9914937D01*
X39112938Y9898461D01*
X39160019Y9894341D01*
X39160020Y9894341D01*
X39160021Y9894341D01*
X39199254Y9897774D01*
X39395428Y9914937D01*
X39623683Y9976097D01*
X39837850Y10075965D01*
X40031421Y10211505D01*
X40198515Y10378599D01*
X40334055Y10572170D01*
X40433923Y10786337D01*
X40495083Y11014592D01*
X40515679Y11250000D01*
X40495083Y11485408D01*
X40433923Y11713663D01*
X40334055Y11927829D01*
X40223812Y12085274D01*
X40198514Y12121403D01*
X40031422Y12288494D01*
X40031415Y12288499D01*
X39845421Y12418734D01*
X39801796Y12473311D01*
X39794603Y12542809D01*
X39826125Y12605164D01*
X39845420Y12621883D01*
X39921391Y12675081D01*
X39330264Y13266208D01*
X39372317Y13277476D01*
X39497736Y13349886D01*
X39600140Y13452290D01*
X39672550Y13577709D01*
X39683818Y13619762D01*
X40274945Y13028635D01*
X40333619Y13112426D01*
X40433449Y13326514D01*
X40433453Y13326523D01*
X40494587Y13554680D01*
X40494589Y13554691D01*
X40515177Y13790005D01*
X40515177Y13790008D01*
X40494589Y14025322D01*
X40494587Y14025333D01*
X40433453Y14253490D01*
X40433449Y14253499D01*
X40333621Y14467582D01*
X40274945Y14551380D01*
X39683817Y13960252D01*
X39672550Y14002303D01*
X39600140Y14127722D01*
X39497736Y14230126D01*
X39372317Y14302536D01*
X39330264Y14313805D01*
X39921392Y14904933D01*
X39837596Y14963608D01*
X39623512Y15063436D01*
X39623503Y15063440D01*
X39395346Y15124574D01*
X39395335Y15124576D01*
X39160022Y15145163D01*
X39160018Y15145163D01*
X38924704Y15124576D01*
X38924693Y15124574D01*
X38696536Y15063440D01*
X38696527Y15063436D01*
X38482443Y14963607D01*
X38482441Y14963606D01*
X38398647Y14904933D01*
X38398646Y14904933D01*
X38989775Y14313805D01*
X38947723Y14302536D01*
X38822304Y14230126D01*
X38719900Y14127722D01*
X38647490Y14002303D01*
X38636222Y13960251D01*
X38045093Y14551380D01*
X38045092Y14551379D01*
X37991898Y14475408D01*
X37937321Y14431783D01*
X37867823Y14424589D01*
X37805468Y14456112D01*
X37788748Y14475408D01*
X37658509Y14661409D01*
X37491417Y14828500D01*
X37491410Y14828505D01*
X37297849Y14964039D01*
X37297845Y14964041D01*
X37083678Y15063909D01*
X37083674Y15063910D01*
X37083670Y15063912D01*
X36855428Y15125068D01*
X36855418Y15125070D01*
X36620016Y15145665D01*
X36620014Y15145665D01*
X36384611Y15125070D01*
X36384598Y15125067D01*
X36256256Y15090679D01*
X36186407Y15092342D01*
X36136483Y15122773D01*
X34647611Y16611645D01*
X34647609Y16611648D01*
X34528738Y16730519D01*
X34528737Y16730520D01*
X34441925Y16780640D01*
X34441925Y16780641D01*
X34441921Y16780642D01*
X34391806Y16809577D01*
X34239078Y16850501D01*
X34080964Y16850501D01*
X34073368Y16850501D01*
X34073352Y16850500D01*
X27336670Y16850500D01*
X27336654Y16850501D01*
X27329058Y16850501D01*
X27170943Y16850501D01*
X27094579Y16830039D01*
X27018214Y16809577D01*
X27018209Y16809574D01*
X26881290Y16730525D01*
X26881282Y16730519D01*
X25319481Y15168718D01*
X25319479Y15168715D01*
X25269361Y15081906D01*
X25269359Y15081904D01*
X25240425Y15031791D01*
X25240424Y15031790D01*
X25240423Y15031785D01*
X25199499Y14879057D01*
X25199499Y14879055D01*
X25199499Y14710954D01*
X25199500Y14710941D01*
X25199500Y10797155D01*
X25179815Y10730116D01*
X25163181Y10709474D01*
X24790526Y10336819D01*
X24729203Y10303334D01*
X24702845Y10300500D01*
X15293079Y10300500D01*
X15226040Y10320185D01*
X15180285Y10372989D01*
X15170341Y10442147D01*
X15188085Y10490472D01*
X15225788Y10550477D01*
X15225789Y10550478D01*
X15285368Y10720745D01*
X15286424Y10730116D01*
X15305565Y10899997D01*
X15305565Y10900004D01*
X15285369Y11079250D01*
X15285366Y11079263D01*
X15225790Y11249519D01*
X15225789Y11249522D01*
X15197568Y11294435D01*
X15159511Y11355004D01*
X15140505Y11420976D01*
X15140505Y17601805D01*
X15160190Y17668844D01*
X15205488Y17710860D01*
X15336072Y17781528D01*
X15336616Y17781951D01*
X15399773Y17831109D01*
X15525769Y17929175D01*
X15688576Y18106031D01*
X15706198Y18133004D01*
X15759341Y18178361D01*
X15828572Y18187786D01*
X15891909Y18158287D01*
X15913813Y18133010D01*
X15931439Y18106031D01*
X16094246Y17929175D01*
X16094249Y17929173D01*
X16094252Y17929170D01*
X16283934Y17781534D01*
X16283940Y17781530D01*
X16283943Y17781528D01*
X16414526Y17710860D01*
X16492164Y17668844D01*
X16495354Y17667118D01*
X16495357Y17667117D01*
X16722709Y17589067D01*
X16722711Y17589067D01*
X16722713Y17589066D01*
X16959818Y17549500D01*
X16959819Y17549500D01*
X17200201Y17549500D01*
X17200202Y17549500D01*
X17437307Y17589066D01*
X17664666Y17667118D01*
X17876077Y17781528D01*
X17876621Y17781951D01*
X17939778Y17831109D01*
X18065774Y17929175D01*
X18228581Y18106031D01*
X18360059Y18307272D01*
X18456620Y18527409D01*
X18515630Y18760437D01*
X18535481Y19000000D01*
X18515630Y19239563D01*
X18456620Y19472591D01*
X18360059Y19692728D01*
X18228581Y19893969D01*
X18065774Y20070825D01*
X18065769Y20070829D01*
X18065767Y20070831D01*
X17876085Y20218467D01*
X17876079Y20218471D01*
X17664667Y20332882D01*
X17664662Y20332884D01*
X17437310Y20410934D01*
X17259478Y20440609D01*
X17200202Y20450500D01*
X16959818Y20450500D01*
X16912397Y20442587D01*
X16722709Y20410934D01*
X16495357Y20332884D01*
X16495352Y20332882D01*
X16283940Y20218471D01*
X16283934Y20218467D01*
X16094252Y20070831D01*
X16094249Y20070828D01*
X15931438Y19893969D01*
X15913815Y19866994D01*
X15860668Y19821638D01*
X15791436Y19812215D01*
X15728101Y19841718D01*
X15706199Y19866995D01*
X15688576Y19893969D01*
X15525769Y20070825D01*
X15525764Y20070829D01*
X15525762Y20070831D01*
X15336080Y20218467D01*
X15336074Y20218471D01*
X15124662Y20332882D01*
X15124657Y20332884D01*
X14897305Y20410934D01*
X14719473Y20440609D01*
X14660197Y20450500D01*
X14419813Y20450500D01*
X14372392Y20442587D01*
X14182704Y20410934D01*
X13955352Y20332884D01*
X13955347Y20332882D01*
X13743935Y20218471D01*
X13743929Y20218467D01*
X13554247Y20070831D01*
X13554244Y20070828D01*
X13391433Y19893969D01*
X13373810Y19866994D01*
X13320663Y19821638D01*
X13251431Y19812215D01*
X13188096Y19841718D01*
X13166194Y19866995D01*
X13148571Y19893969D01*
X12985764Y20070825D01*
X12985759Y20070829D01*
X12985757Y20070831D01*
X12796075Y20218467D01*
X12796069Y20218471D01*
X12584657Y20332882D01*
X12584652Y20332884D01*
X12357300Y20410934D01*
X12179468Y20440609D01*
X12120192Y20450500D01*
X11879808Y20450500D01*
X11832387Y20442587D01*
X11642699Y20410934D01*
X11415347Y20332884D01*
X11415342Y20332882D01*
X11203930Y20218471D01*
X11203924Y20218467D01*
X11014242Y20070831D01*
X11014239Y20070828D01*
X10851428Y19893969D01*
X10833805Y19866994D01*
X10780658Y19821638D01*
X10711426Y19812215D01*
X10648091Y19841718D01*
X10626189Y19866995D01*
X10608566Y19893969D01*
X10445759Y20070825D01*
X10445754Y20070829D01*
X10445752Y20070831D01*
X10256070Y20218467D01*
X10256064Y20218471D01*
X10044652Y20332882D01*
X10044647Y20332884D01*
X9817295Y20410934D01*
X9639463Y20440609D01*
X9580187Y20450500D01*
X9339803Y20450500D01*
X9292382Y20442587D01*
X9102694Y20410934D01*
X8875342Y20332884D01*
X8875337Y20332882D01*
X8663925Y20218471D01*
X8663919Y20218467D01*
X8474237Y20070831D01*
X8474234Y20070828D01*
X8311425Y19893971D01*
X8311421Y19893965D01*
X8293499Y19866535D01*
X8240351Y19821180D01*
X8171119Y19811759D01*
X8128646Y19831545D01*
X8107300Y19833759D01*
X7443787Y19170246D01*
X7432520Y19212297D01*
X7360110Y19337716D01*
X7257706Y19440120D01*
X7132287Y19512530D01*
X7090233Y19523799D01*
X7754416Y20187981D01*
X7754416Y20187983D01*
X7715791Y20218046D01*
X7715785Y20218050D01*
X7504445Y20332422D01*
X7504439Y20332424D01*
X7277166Y20410447D01*
X7040139Y20450000D01*
X6799841Y20450000D01*
X6562813Y20410447D01*
X6335540Y20332424D01*
X6335534Y20332422D01*
X6124199Y20218052D01*
X6085561Y20187981D01*
X6749744Y19523798D01*
X6707693Y19512530D01*
X6582274Y19440120D01*
X6479870Y19337716D01*
X6407460Y19212297D01*
X6396191Y19170245D01*
X5732677Y19833759D01*
X5640382Y19692489D01*
X5543855Y19472429D01*
X5484864Y19239477D01*
X5465021Y19000006D01*
X5465021Y18999995D01*
X5484864Y18760524D01*
X5543855Y18527572D01*
X5640381Y18307515D01*
X5732678Y18166243D01*
X6396191Y18829756D01*
X6407460Y18787703D01*
X6479870Y18662284D01*
X6582274Y18559880D01*
X6707693Y18487470D01*
X6749744Y18476203D01*
X6085562Y17812021D01*
X6124198Y17781949D01*
X6335534Y17667579D01*
X6335540Y17667577D01*
X6562813Y17589554D01*
X6799841Y17550000D01*
X7040139Y17550000D01*
X7277166Y17589554D01*
X7504439Y17667577D01*
X7504445Y17667579D01*
X7715784Y17781951D01*
X7715785Y17781952D01*
X7754416Y17812020D01*
X7754417Y17812021D01*
X7090235Y18476203D01*
X7132287Y18487470D01*
X7257706Y18559880D01*
X7360110Y18662284D01*
X7432520Y18787703D01*
X7443787Y18829756D01*
X8107300Y18166243D01*
X8126642Y18168249D01*
X8139026Y18178818D01*
X8208257Y18188245D01*
X8271594Y18158746D01*
X8293501Y18133464D01*
X8311424Y18106031D01*
X8474231Y17929175D01*
X8474234Y17929173D01*
X8474237Y17929170D01*
X8663919Y17781534D01*
X8663925Y17781530D01*
X8663928Y17781528D01*
X8794511Y17710860D01*
X8872149Y17668844D01*
X8875339Y17667118D01*
X8875342Y17667117D01*
X9102694Y17589067D01*
X9102696Y17589067D01*
X9102698Y17589066D01*
X9339803Y17549500D01*
X9339804Y17549500D01*
X9580186Y17549500D01*
X9580187Y17549500D01*
X9817292Y17589066D01*
X10044651Y17667118D01*
X10256062Y17781528D01*
X10256606Y17781951D01*
X10319763Y17831109D01*
X10445759Y17929175D01*
X10608566Y18106031D01*
X10626188Y18133004D01*
X10679331Y18178361D01*
X10748562Y18187786D01*
X10811899Y18158287D01*
X10833803Y18133010D01*
X10851429Y18106031D01*
X11014236Y17929175D01*
X11014239Y17929173D01*
X11014242Y17929170D01*
X11203924Y17781534D01*
X11203935Y17781527D01*
X11334517Y17710860D01*
X11384108Y17661641D01*
X11399500Y17601805D01*
X11399500Y12682413D01*
X11379815Y12615374D01*
X11372450Y12605104D01*
X11370186Y12602266D01*
X11274211Y12449524D01*
X11214631Y12279255D01*
X11214630Y12279250D01*
X11194435Y12100004D01*
X11194435Y12099997D01*
X11214630Y11920751D01*
X11214631Y11920746D01*
X11274211Y11750477D01*
X11370184Y11597738D01*
X11497738Y11470184D01*
X11553313Y11435264D01*
X11605833Y11402263D01*
X11650478Y11374211D01*
X11820745Y11314632D01*
X11820750Y11314631D01*
X11999996Y11294435D01*
X12000000Y11294435D01*
X12000004Y11294435D01*
X12179249Y11314631D01*
X12179252Y11314632D01*
X12179255Y11314632D01*
X12349522Y11374211D01*
X12502262Y11470184D01*
X12629816Y11597738D01*
X12725789Y11750478D01*
X12785368Y11920745D01*
X12786166Y11927829D01*
X12805565Y12099997D01*
X12805565Y12100004D01*
X12785369Y12279250D01*
X12785368Y12279255D01*
X12746567Y12390142D01*
X12725789Y12449522D01*
X12710841Y12473311D01*
X12674283Y12531493D01*
X12629816Y12602262D01*
X12629814Y12602264D01*
X12629813Y12602266D01*
X12627550Y12605104D01*
X12626659Y12607285D01*
X12626111Y12608158D01*
X12626264Y12608255D01*
X12601144Y12669791D01*
X12600500Y12682413D01*
X12600500Y17601805D01*
X12620185Y17668844D01*
X12665483Y17710860D01*
X12796067Y17781528D01*
X12796611Y17781951D01*
X12859768Y17831109D01*
X12985764Y17929175D01*
X13148571Y18106031D01*
X13166193Y18133004D01*
X13219336Y18178361D01*
X13288567Y18187786D01*
X13351904Y18158287D01*
X13373808Y18133010D01*
X13391434Y18106031D01*
X13554241Y17929175D01*
X13554244Y17929173D01*
X13554247Y17929170D01*
X13743929Y17781534D01*
X13743940Y17781527D01*
X13874522Y17710860D01*
X13924113Y17661641D01*
X13939505Y17601805D01*
X13939505Y11522945D01*
X13919820Y11455906D01*
X13903186Y11435264D01*
X13870184Y11402263D01*
X13774211Y11249524D01*
X13714631Y11079255D01*
X13714630Y11079250D01*
X13694435Y10900004D01*
X13694435Y10899997D01*
X13714630Y10720751D01*
X13714631Y10720746D01*
X13774211Y10550477D01*
X13811915Y10490472D01*
X13830915Y10423235D01*
X13810547Y10356400D01*
X13757279Y10311186D01*
X13706921Y10300500D01*
X12246665Y10300500D01*
X12246649Y10300501D01*
X12239053Y10300501D01*
X12080938Y10300501D01*
X12004574Y10280039D01*
X11928209Y10259577D01*
X11928204Y10259574D01*
X11791285Y10180525D01*
X11791277Y10180519D01*
X9943525Y8332767D01*
X9882202Y8299282D01*
X9823751Y8300673D01*
X9695408Y8335062D01*
X9695398Y8335064D01*
X9459996Y8355659D01*
X9459994Y8355659D01*
X9224591Y8335064D01*
X9224581Y8335062D01*
X8996339Y8273906D01*
X8996330Y8273902D01*
X8782166Y8174036D01*
X8782164Y8174035D01*
X8588592Y8038495D01*
X8421500Y7871403D01*
X8291262Y7685402D01*
X8236685Y7641777D01*
X8167187Y7634583D01*
X8104832Y7666106D01*
X8088112Y7685401D01*
X8034915Y7761374D01*
X7443787Y7170246D01*
X7432520Y7212297D01*
X7360110Y7337716D01*
X7257706Y7440120D01*
X7132287Y7512530D01*
X7090234Y7523799D01*
X7681362Y8114927D01*
X7597566Y8173602D01*
X7383482Y8273430D01*
X7383473Y8273434D01*
X7155316Y8334568D01*
X7155305Y8334570D01*
X6919992Y8355157D01*
X6919988Y8355157D01*
X6684674Y8334570D01*
X6684663Y8334568D01*
X6456506Y8273434D01*
X6456497Y8273430D01*
X6242413Y8173601D01*
X6242411Y8173600D01*
X6158617Y8114927D01*
X6158616Y8114927D01*
X6749745Y7523799D01*
X6707693Y7512530D01*
X6582274Y7440120D01*
X6479870Y7337716D01*
X6407460Y7212297D01*
X6396192Y7170245D01*
X5805063Y7761374D01*
X5805063Y7761373D01*
X5746390Y7677579D01*
X5746389Y7677577D01*
X5646560Y7463493D01*
X5646556Y7463484D01*
X5585422Y7235327D01*
X5585420Y7235316D01*
X5564833Y7000002D01*
X5564833Y6999999D01*
X5585420Y6764685D01*
X5585422Y6764674D01*
X5646556Y6536517D01*
X5646560Y6536508D01*
X5746388Y6322424D01*
X5805063Y6238628D01*
X6396191Y6829756D01*
X6407460Y6787703D01*
X6479870Y6662284D01*
X6582274Y6559880D01*
X6707693Y6487470D01*
X6749745Y6476202D01*
X6117731Y5844188D01*
X6115537Y5846382D01*
X6091379Y5821460D01*
X6043527Y5806067D01*
X6025107Y5804087D01*
X5890259Y5753792D01*
X5890252Y5753788D01*
X5775043Y5667542D01*
X5775040Y5667539D01*
X5688794Y5552330D01*
X5688790Y5552323D01*
X5638496Y5417477D01*
X5632089Y5357878D01*
X5632088Y5357859D01*
X5632088Y3562124D01*
X5632089Y3562118D01*
X5638496Y3502511D01*
X5688790Y3367666D01*
X5688794Y3367659D01*
X5775040Y3252450D01*
X5775043Y3252447D01*
X5890252Y3166201D01*
X5890259Y3166197D01*
X6025105Y3115903D01*
X6025104Y3115903D01*
X6032032Y3115159D01*
X6084715Y3109494D01*
X7755264Y3109495D01*
X7814875Y3115903D01*
X7949723Y3166198D01*
X8064938Y3252448D01*
X8151188Y3367663D01*
X8201483Y3502511D01*
X8203551Y3521751D01*
X8230287Y3586299D01*
X8287678Y3626148D01*
X8357503Y3628644D01*
X8417593Y3592993D01*
X8421347Y3588746D01*
X8421500Y3588593D01*
X8588594Y3421499D01*
X8673309Y3362181D01*
X8782160Y3285962D01*
X8782162Y3285961D01*
X8782165Y3285959D01*
X8996332Y3186091D01*
X9224587Y3124931D01*
X9401029Y3109494D01*
X9459994Y3104335D01*
X9459995Y3104335D01*
X9459996Y3104335D01*
X9518961Y3109494D01*
X9695403Y3124931D01*
X9823752Y3159322D01*
X9893601Y3157659D01*
X9943526Y3127228D01*
X11685128Y1385626D01*
X11685138Y1385615D01*
X11801274Y1269479D01*
X11867252Y1231388D01*
X11915468Y1180821D01*
X11928692Y1112214D01*
X11902724Y1047349D01*
X11845811Y1006820D01*
X11805253Y1000000D01*
X1124000Y1000000D01*
X1056961Y1019685D01*
X1011206Y1072489D01*
X1000000Y1124000D01*
X1000000Y26948638D01*
X1019685Y27015677D01*
X1036319Y27036319D01*
X1963681Y27963681D01*
X2025004Y27997166D01*
X2051362Y28000000D01*
X3386696Y28000000D01*
X3453735Y27980315D01*
G37*
G04 #@! TD.AperFunction*
G04 #@! TA.AperFunction,Conductor*
G36*
X8034915Y6238629D02*
G01*
X8088113Y6314600D01*
X8142690Y6358224D01*
X8212189Y6365416D01*
X8274543Y6333893D01*
X8291262Y6314598D01*
X8421495Y6128605D01*
X8421500Y6128599D01*
X8588594Y5961505D01*
X8709617Y5876764D01*
X8774157Y5831572D01*
X8817782Y5776995D01*
X8824975Y5707497D01*
X8793453Y5645142D01*
X8774157Y5628422D01*
X8588592Y5498489D01*
X8417671Y5327567D01*
X8416799Y5328439D01*
X8363642Y5293082D01*
X8293781Y5291983D01*
X8234416Y5328828D01*
X8204395Y5391919D01*
X8203550Y5398245D01*
X8201483Y5417478D01*
X8151189Y5552323D01*
X8151185Y5552330D01*
X8064939Y5667539D01*
X8064936Y5667542D01*
X7949727Y5753788D01*
X7949720Y5753792D01*
X7814874Y5804086D01*
X7814875Y5804086D01*
X7796453Y5806066D01*
X7731902Y5832804D01*
X7723280Y5845221D01*
X7722248Y5844188D01*
X7090234Y6476202D01*
X7132287Y6487470D01*
X7257706Y6559880D01*
X7360110Y6662284D01*
X7432520Y6787703D01*
X7443788Y6829756D01*
X8034915Y6238629D01*
G37*
G04 #@! TD.AperFunction*
G04 #@! TA.AperFunction,Conductor*
G36*
X38647490Y13577709D02*
G01*
X38719900Y13452290D01*
X38822304Y13349886D01*
X38947723Y13277476D01*
X38989775Y13266208D01*
X38398647Y12675081D01*
X38474619Y12621884D01*
X38518244Y12567307D01*
X38525436Y12497808D01*
X38493914Y12435454D01*
X38474619Y12418734D01*
X38288614Y12288492D01*
X38121525Y12121403D01*
X37991592Y11935838D01*
X37937015Y11892213D01*
X37867517Y11885020D01*
X37805162Y11916542D01*
X37788442Y11935838D01*
X37658509Y12121403D01*
X37491417Y12288494D01*
X37491410Y12288499D01*
X37305853Y12418428D01*
X37262228Y12473005D01*
X37255035Y12542503D01*
X37286557Y12604858D01*
X37305853Y12621578D01*
X37339617Y12645221D01*
X37491416Y12751511D01*
X37658510Y12918605D01*
X37788749Y13104606D01*
X37843324Y13148229D01*
X37912822Y13155423D01*
X37975177Y13123900D01*
X37991896Y13104605D01*
X38045092Y13028634D01*
X38045093Y13028634D01*
X38636221Y13619762D01*
X38647490Y13577709D01*
G37*
G04 #@! TD.AperFunction*
M02*
