%TF.GenerationSoftware,KiCad,Pcbnew,(5.99.0-11065-g2a3d8e22b6)*%
%TF.CreationDate,2021-07-07T11:59:56+01:00*%
%TF.ProjectId,NB3_ear,4e42335f-6561-4722-9e6b-696361645f70,0.0.1*%
%TF.SameCoordinates,Original*%
%TF.FileFunction,Legend,Top*%
%TF.FilePolarity,Positive*%
%FSLAX46Y46*%
G04 Gerber Fmt 4.6, Leading zero omitted, Abs format (unit mm)*
G04 Created by KiCad (PCBNEW (5.99.0-11065-g2a3d8e22b6)) date 2021-07-07 11:59:56*
%MOMM*%
%LPD*%
G01*
G04 APERTURE LIST*
%ADD10C,0.120000*%
%ADD11C,0.200000*%
%ADD12C,0.127000*%
G04 APERTURE END LIST*
D10*
%TO.C,J2*%
X160030000Y-112350000D02*
X160030000Y-107150000D01*
X159460000Y-107150000D02*
X160030000Y-107150000D01*
X154380000Y-112350000D02*
X155400000Y-112350000D01*
X152290000Y-112350000D02*
X152290000Y-107150000D01*
X156920000Y-107150000D02*
X157940000Y-107150000D01*
X156920000Y-112350000D02*
X157940000Y-112350000D01*
X152290000Y-112350000D02*
X152860000Y-112350000D01*
X152860000Y-113790000D02*
X152860000Y-112350000D01*
X154380000Y-107150000D02*
X155400000Y-107150000D01*
X152290000Y-107150000D02*
X152860000Y-107150000D01*
X159460000Y-112350000D02*
X160030000Y-112350000D01*
D11*
%TO.C,MK1*%
X152917500Y-102264000D02*
G75*
G03*
X152917500Y-102264000I-100000J0D01*
G01*
D12*
X152405000Y-102664000D02*
X152405000Y-99164000D01*
X149755000Y-102664000D02*
X152405000Y-102664000D01*
X152405000Y-99164000D02*
X149755000Y-99164000D01*
X149755000Y-99164000D02*
X149755000Y-102664000D01*
D10*
%TO.C,C1*%
X148900000Y-102647164D02*
X148900000Y-102862836D01*
X148180000Y-102647164D02*
X148180000Y-102862836D01*
%TO.C,R1*%
X151460000Y-107898641D02*
X151460000Y-107591359D01*
X150700000Y-107898641D02*
X150700000Y-107591359D01*
%TO.C,J1*%
X142130000Y-112375000D02*
X142130000Y-107175000D01*
X149300000Y-107175000D02*
X149870000Y-107175000D01*
X144220000Y-107175000D02*
X145240000Y-107175000D01*
X142130000Y-107175000D02*
X142700000Y-107175000D01*
X142700000Y-113815000D02*
X142700000Y-112375000D01*
X144220000Y-112375000D02*
X145240000Y-112375000D01*
X149870000Y-112375000D02*
X149870000Y-107175000D01*
X146760000Y-107175000D02*
X147780000Y-107175000D01*
X146760000Y-112375000D02*
X147780000Y-112375000D01*
X142130000Y-112375000D02*
X142700000Y-112375000D01*
X149300000Y-112375000D02*
X149870000Y-112375000D01*
%TD*%
M02*
