%TF.GenerationSoftware,KiCad,Pcbnew,(5.99.0-11065-g2a3d8e22b6)*%
%TF.CreationDate,2021-07-07T11:59:55+01:00*%
%TF.ProjectId,NB3_ear,4e42335f-6561-4722-9e6b-696361645f70,0.0.1*%
%TF.SameCoordinates,Original*%
%TF.FileFunction,Copper,L1,Top*%
%TF.FilePolarity,Positive*%
%FSLAX46Y46*%
G04 Gerber Fmt 4.6, Leading zero omitted, Abs format (unit mm)*
G04 Created by KiCad (PCBNEW (5.99.0-11065-g2a3d8e22b6)) date 2021-07-07 11:59:55*
%MOMM*%
%LPD*%
G01*
G04 APERTURE LIST*
G04 Aperture macros list*
%AMRoundRect*
0 Rectangle with rounded corners*
0 $1 Rounding radius*
0 $2 $3 $4 $5 $6 $7 $8 $9 X,Y pos of 4 corners*
0 Add a 4 corners polygon primitive as box body*
4,1,4,$2,$3,$4,$5,$6,$7,$8,$9,$2,$3,0*
0 Add four circle primitives for the rounded corners*
1,1,$1+$1,$2,$3*
1,1,$1+$1,$4,$5*
1,1,$1+$1,$6,$7*
1,1,$1+$1,$8,$9*
0 Add four rect primitives between the rounded corners*
20,1,$1+$1,$2,$3,$4,$5,0*
20,1,$1+$1,$4,$5,$6,$7,0*
20,1,$1+$1,$6,$7,$8,$9,0*
20,1,$1+$1,$8,$9,$2,$3,0*%
G04 Aperture macros list end*
%TA.AperFunction,EtchedComponent*%
%ADD10C,0.001000*%
%TD*%
%TA.AperFunction,SMDPad,CuDef*%
%ADD11R,1.000000X3.150000*%
%TD*%
%TA.AperFunction,SMDPad,CuDef*%
%ADD12R,0.600000X0.522000*%
%TD*%
%TA.AperFunction,SMDPad,CuDef*%
%ADD13R,0.100000X0.100000*%
%TD*%
%TA.AperFunction,SMDPad,CuDef*%
%ADD14RoundRect,0.140000X-0.170000X0.140000X-0.170000X-0.140000X0.170000X-0.140000X0.170000X0.140000X0*%
%TD*%
%TA.AperFunction,SMDPad,CuDef*%
%ADD15RoundRect,0.135000X0.185000X-0.135000X0.185000X0.135000X-0.185000X0.135000X-0.185000X-0.135000X0*%
%TD*%
%TA.AperFunction,ViaPad*%
%ADD16C,0.800000*%
%TD*%
%TA.AperFunction,Conductor*%
%ADD17C,0.250000*%
%TD*%
G04 APERTURE END LIST*
D10*
%TO.C,MK1*%
X151090000Y-101014000D02*
X151090000Y-100714000D01*
X151090000Y-100714000D02*
X151116168Y-100713315D01*
X151116168Y-100713315D02*
X151142264Y-100711261D01*
X151142264Y-100711261D02*
X151168217Y-100707844D01*
X151168217Y-100707844D02*
X151193956Y-100703074D01*
X151193956Y-100703074D02*
X151219410Y-100696963D01*
X151219410Y-100696963D02*
X151244508Y-100689528D01*
X151244508Y-100689528D02*
X151269184Y-100680790D01*
X151269184Y-100680790D02*
X151293368Y-100670773D01*
X151293368Y-100670773D02*
X151316995Y-100659503D01*
X151316995Y-100659503D02*
X151340000Y-100647013D01*
X151340000Y-100647013D02*
X151362320Y-100633335D01*
X151362320Y-100633335D02*
X151383893Y-100618508D01*
X151383893Y-100618508D02*
X151404660Y-100602573D01*
X151404660Y-100602573D02*
X151424565Y-100585572D01*
X151424565Y-100585572D02*
X151443553Y-100567553D01*
X151443553Y-100567553D02*
X151461572Y-100548565D01*
X151461572Y-100548565D02*
X151478573Y-100528660D01*
X151478573Y-100528660D02*
X151494508Y-100507893D01*
X151494508Y-100507893D02*
X151509335Y-100486320D01*
X151509335Y-100486320D02*
X151523013Y-100464000D01*
X151523013Y-100464000D02*
X151535503Y-100440995D01*
X151535503Y-100440995D02*
X151546773Y-100417368D01*
X151546773Y-100417368D02*
X151556790Y-100393184D01*
X151556790Y-100393184D02*
X151565528Y-100368508D01*
X151565528Y-100368508D02*
X151572963Y-100343410D01*
X151572963Y-100343410D02*
X151579074Y-100317956D01*
X151579074Y-100317956D02*
X151583844Y-100292217D01*
X151583844Y-100292217D02*
X151587261Y-100266264D01*
X151587261Y-100266264D02*
X151589315Y-100240168D01*
X151589315Y-100240168D02*
X151590000Y-100214000D01*
X151590000Y-100214000D02*
X151590000Y-100194000D01*
X151590000Y-100194000D02*
X151589301Y-100167309D01*
X151589301Y-100167309D02*
X151587206Y-100140690D01*
X151587206Y-100140690D02*
X151583721Y-100114218D01*
X151583721Y-100114218D02*
X151578855Y-100087965D01*
X151578855Y-100087965D02*
X151572622Y-100062002D01*
X151572622Y-100062002D02*
X151565039Y-100036401D01*
X151565039Y-100036401D02*
X151556126Y-100011232D01*
X151556126Y-100011232D02*
X151545908Y-99986564D01*
X151545908Y-99986564D02*
X151534413Y-99962465D01*
X151534413Y-99962465D02*
X151521673Y-99939000D01*
X151521673Y-99939000D02*
X151507722Y-99916234D01*
X151507722Y-99916234D02*
X151492599Y-99894230D01*
X151492599Y-99894230D02*
X151476344Y-99873047D01*
X151476344Y-99873047D02*
X151459004Y-99852743D01*
X151459004Y-99852743D02*
X151440624Y-99833376D01*
X151440624Y-99833376D02*
X151421257Y-99814996D01*
X151421257Y-99814996D02*
X151400953Y-99797656D01*
X151400953Y-99797656D02*
X151379770Y-99781401D01*
X151379770Y-99781401D02*
X151357766Y-99766278D01*
X151357766Y-99766278D02*
X151335000Y-99752327D01*
X151335000Y-99752327D02*
X151311535Y-99739587D01*
X151311535Y-99739587D02*
X151287436Y-99728092D01*
X151287436Y-99728092D02*
X151262768Y-99717874D01*
X151262768Y-99717874D02*
X151237599Y-99708961D01*
X151237599Y-99708961D02*
X151211998Y-99701378D01*
X151211998Y-99701378D02*
X151186035Y-99695145D01*
X151186035Y-99695145D02*
X151159782Y-99690279D01*
X151159782Y-99690279D02*
X151133310Y-99686794D01*
X151133310Y-99686794D02*
X151106691Y-99684699D01*
X151106691Y-99684699D02*
X151080000Y-99684000D01*
X151080000Y-99684000D02*
X151070000Y-99684000D01*
X151070000Y-99684000D02*
X151043832Y-99684685D01*
X151043832Y-99684685D02*
X151017736Y-99686739D01*
X151017736Y-99686739D02*
X150991783Y-99690156D01*
X150991783Y-99690156D02*
X150966044Y-99694926D01*
X150966044Y-99694926D02*
X150940590Y-99701037D01*
X150940590Y-99701037D02*
X150915492Y-99708472D01*
X150915492Y-99708472D02*
X150890816Y-99717210D01*
X150890816Y-99717210D02*
X150866632Y-99727227D01*
X150866632Y-99727227D02*
X150843005Y-99738497D01*
X150843005Y-99738497D02*
X150820000Y-99750987D01*
X150820000Y-99750987D02*
X150797680Y-99764665D01*
X150797680Y-99764665D02*
X150776107Y-99779492D01*
X150776107Y-99779492D02*
X150755340Y-99795427D01*
X150755340Y-99795427D02*
X150735435Y-99812428D01*
X150735435Y-99812428D02*
X150716447Y-99830447D01*
X150716447Y-99830447D02*
X150698428Y-99849435D01*
X150698428Y-99849435D02*
X150681427Y-99869340D01*
X150681427Y-99869340D02*
X150665492Y-99890107D01*
X150665492Y-99890107D02*
X150650665Y-99911680D01*
X150650665Y-99911680D02*
X150636987Y-99934000D01*
X150636987Y-99934000D02*
X150624497Y-99957005D01*
X150624497Y-99957005D02*
X150613227Y-99980632D01*
X150613227Y-99980632D02*
X150603210Y-100004816D01*
X150603210Y-100004816D02*
X150594472Y-100029492D01*
X150594472Y-100029492D02*
X150587037Y-100054590D01*
X150587037Y-100054590D02*
X150580926Y-100080044D01*
X150580926Y-100080044D02*
X150576156Y-100105783D01*
X150576156Y-100105783D02*
X150572739Y-100131736D01*
X150572739Y-100131736D02*
X150570685Y-100157832D01*
X150570685Y-100157832D02*
X150570000Y-100184000D01*
X150570000Y-100184000D02*
X150570000Y-100214000D01*
X150570000Y-100214000D02*
X150570685Y-100240168D01*
X150570685Y-100240168D02*
X150572739Y-100266264D01*
X150572739Y-100266264D02*
X150576156Y-100292217D01*
X150576156Y-100292217D02*
X150580926Y-100317956D01*
X150580926Y-100317956D02*
X150587037Y-100343410D01*
X150587037Y-100343410D02*
X150594472Y-100368508D01*
X150594472Y-100368508D02*
X150603210Y-100393184D01*
X150603210Y-100393184D02*
X150613227Y-100417368D01*
X150613227Y-100417368D02*
X150624497Y-100440995D01*
X150624497Y-100440995D02*
X150636987Y-100464000D01*
X150636987Y-100464000D02*
X150650665Y-100486320D01*
X150650665Y-100486320D02*
X150665492Y-100507893D01*
X150665492Y-100507893D02*
X150681427Y-100528660D01*
X150681427Y-100528660D02*
X150698428Y-100548565D01*
X150698428Y-100548565D02*
X150716447Y-100567553D01*
X150716447Y-100567553D02*
X150735435Y-100585572D01*
X150735435Y-100585572D02*
X150755340Y-100602573D01*
X150755340Y-100602573D02*
X150776107Y-100618508D01*
X150776107Y-100618508D02*
X150797680Y-100633335D01*
X150797680Y-100633335D02*
X150820000Y-100647013D01*
X150820000Y-100647013D02*
X150843005Y-100659503D01*
X150843005Y-100659503D02*
X150866632Y-100670773D01*
X150866632Y-100670773D02*
X150890816Y-100680790D01*
X150890816Y-100680790D02*
X150915492Y-100689528D01*
X150915492Y-100689528D02*
X150940590Y-100696963D01*
X150940590Y-100696963D02*
X150966044Y-100703074D01*
X150966044Y-100703074D02*
X150991783Y-100707844D01*
X150991783Y-100707844D02*
X151017736Y-100711261D01*
X151017736Y-100711261D02*
X151043832Y-100713315D01*
X151043832Y-100713315D02*
X151070000Y-100714000D01*
X151070000Y-100714000D02*
X151070000Y-101014000D01*
X151070000Y-101014000D02*
X151060000Y-101014000D01*
X151060000Y-101014000D02*
X151018655Y-101012917D01*
X151018655Y-101012917D02*
X150977423Y-101009672D01*
X150977423Y-101009672D02*
X150936417Y-101004274D01*
X150936417Y-101004274D02*
X150895750Y-100996737D01*
X150895750Y-100996737D02*
X150855533Y-100987081D01*
X150855533Y-100987081D02*
X150815877Y-100975335D01*
X150815877Y-100975335D02*
X150776889Y-100961529D01*
X150776889Y-100961529D02*
X150738678Y-100945701D01*
X150738678Y-100945701D02*
X150701348Y-100927895D01*
X150701348Y-100927895D02*
X150665000Y-100908160D01*
X150665000Y-100908160D02*
X150629735Y-100886550D01*
X150629735Y-100886550D02*
X150595650Y-100863123D01*
X150595650Y-100863123D02*
X150562837Y-100837945D01*
X150562837Y-100837945D02*
X150531387Y-100811084D01*
X150531387Y-100811084D02*
X150501386Y-100782614D01*
X150501386Y-100782614D02*
X150472916Y-100752613D01*
X150472916Y-100752613D02*
X150446055Y-100721163D01*
X150446055Y-100721163D02*
X150420877Y-100688350D01*
X150420877Y-100688350D02*
X150397450Y-100654265D01*
X150397450Y-100654265D02*
X150375840Y-100619000D01*
X150375840Y-100619000D02*
X150356105Y-100582652D01*
X150356105Y-100582652D02*
X150338299Y-100545322D01*
X150338299Y-100545322D02*
X150322471Y-100507111D01*
X150322471Y-100507111D02*
X150308665Y-100468123D01*
X150308665Y-100468123D02*
X150296919Y-100428467D01*
X150296919Y-100428467D02*
X150287263Y-100388250D01*
X150287263Y-100388250D02*
X150279726Y-100347583D01*
X150279726Y-100347583D02*
X150274328Y-100306577D01*
X150274328Y-100306577D02*
X150271083Y-100265345D01*
X150271083Y-100265345D02*
X150270000Y-100224000D01*
X150270000Y-100224000D02*
X150270000Y-100194000D01*
X150270000Y-100194000D02*
X150271110Y-100151608D01*
X150271110Y-100151608D02*
X150274437Y-100109332D01*
X150274437Y-100109332D02*
X150279972Y-100067288D01*
X150279972Y-100067288D02*
X150287700Y-100025592D01*
X150287700Y-100025592D02*
X150297600Y-99984357D01*
X150297600Y-99984357D02*
X150309644Y-99943696D01*
X150309644Y-99943696D02*
X150323800Y-99903722D01*
X150323800Y-99903722D02*
X150340028Y-99864543D01*
X150340028Y-99864543D02*
X150358285Y-99826268D01*
X150358285Y-99826268D02*
X150378519Y-99789000D01*
X150378519Y-99789000D02*
X150400677Y-99752842D01*
X150400677Y-99752842D02*
X150424696Y-99717894D01*
X150424696Y-99717894D02*
X150450512Y-99684250D01*
X150450512Y-99684250D02*
X150478053Y-99652004D01*
X150478053Y-99652004D02*
X150507244Y-99621244D01*
X150507244Y-99621244D02*
X150538004Y-99592053D01*
X150538004Y-99592053D02*
X150570250Y-99564512D01*
X150570250Y-99564512D02*
X150603894Y-99538696D01*
X150603894Y-99538696D02*
X150638842Y-99514677D01*
X150638842Y-99514677D02*
X150675000Y-99492519D01*
X150675000Y-99492519D02*
X150712268Y-99472285D01*
X150712268Y-99472285D02*
X150750543Y-99454028D01*
X150750543Y-99454028D02*
X150789722Y-99437800D01*
X150789722Y-99437800D02*
X150829696Y-99423644D01*
X150829696Y-99423644D02*
X150870357Y-99411600D01*
X150870357Y-99411600D02*
X150911592Y-99401700D01*
X150911592Y-99401700D02*
X150953288Y-99393972D01*
X150953288Y-99393972D02*
X150995332Y-99388437D01*
X150995332Y-99388437D02*
X151037608Y-99385110D01*
X151037608Y-99385110D02*
X151080000Y-99384000D01*
X151080000Y-99384000D02*
X151090000Y-99384000D01*
X151090000Y-99384000D02*
X151131869Y-99385096D01*
X151131869Y-99385096D02*
X151173623Y-99388382D01*
X151173623Y-99388382D02*
X151215148Y-99393849D01*
X151215148Y-99393849D02*
X151256329Y-99401482D01*
X151256329Y-99401482D02*
X151297055Y-99411259D01*
X151297055Y-99411259D02*
X151337214Y-99423155D01*
X151337214Y-99423155D02*
X151376694Y-99437136D01*
X151376694Y-99437136D02*
X151415389Y-99453164D01*
X151415389Y-99453164D02*
X151453192Y-99471195D01*
X151453192Y-99471195D02*
X151490000Y-99491180D01*
X151490000Y-99491180D02*
X151525711Y-99513064D01*
X151525711Y-99513064D02*
X151560228Y-99536786D01*
X151560228Y-99536786D02*
X151593456Y-99562283D01*
X151593456Y-99562283D02*
X151625304Y-99589484D01*
X151625304Y-99589484D02*
X151655685Y-99618315D01*
X151655685Y-99618315D02*
X151684516Y-99648696D01*
X151684516Y-99648696D02*
X151711717Y-99680544D01*
X151711717Y-99680544D02*
X151737214Y-99713772D01*
X151737214Y-99713772D02*
X151760936Y-99748289D01*
X151760936Y-99748289D02*
X151782820Y-99784000D01*
X151782820Y-99784000D02*
X151802805Y-99820808D01*
X151802805Y-99820808D02*
X151820836Y-99858611D01*
X151820836Y-99858611D02*
X151836864Y-99897306D01*
X151836864Y-99897306D02*
X151850845Y-99936786D01*
X151850845Y-99936786D02*
X151862741Y-99976945D01*
X151862741Y-99976945D02*
X151872518Y-100017671D01*
X151872518Y-100017671D02*
X151880151Y-100058852D01*
X151880151Y-100058852D02*
X151885618Y-100100377D01*
X151885618Y-100100377D02*
X151888904Y-100142131D01*
X151888904Y-100142131D02*
X151890000Y-100184000D01*
X151890000Y-100184000D02*
X151890000Y-100214000D01*
X151890000Y-100214000D02*
X151888904Y-100255869D01*
X151888904Y-100255869D02*
X151885618Y-100297623D01*
X151885618Y-100297623D02*
X151880151Y-100339148D01*
X151880151Y-100339148D02*
X151872518Y-100380329D01*
X151872518Y-100380329D02*
X151862741Y-100421055D01*
X151862741Y-100421055D02*
X151850845Y-100461214D01*
X151850845Y-100461214D02*
X151836864Y-100500694D01*
X151836864Y-100500694D02*
X151820836Y-100539389D01*
X151820836Y-100539389D02*
X151802805Y-100577192D01*
X151802805Y-100577192D02*
X151782820Y-100614000D01*
X151782820Y-100614000D02*
X151760936Y-100649711D01*
X151760936Y-100649711D02*
X151737214Y-100684228D01*
X151737214Y-100684228D02*
X151711717Y-100717456D01*
X151711717Y-100717456D02*
X151684516Y-100749304D01*
X151684516Y-100749304D02*
X151655685Y-100779685D01*
X151655685Y-100779685D02*
X151625304Y-100808516D01*
X151625304Y-100808516D02*
X151593456Y-100835717D01*
X151593456Y-100835717D02*
X151560228Y-100861214D01*
X151560228Y-100861214D02*
X151525711Y-100884936D01*
X151525711Y-100884936D02*
X151490000Y-100906820D01*
X151490000Y-100906820D02*
X151453192Y-100926805D01*
X151453192Y-100926805D02*
X151415389Y-100944836D01*
X151415389Y-100944836D02*
X151376694Y-100960864D01*
X151376694Y-100960864D02*
X151337214Y-100974845D01*
X151337214Y-100974845D02*
X151297055Y-100986741D01*
X151297055Y-100986741D02*
X151256329Y-100996518D01*
X151256329Y-100996518D02*
X151215148Y-101004151D01*
X151215148Y-101004151D02*
X151173623Y-101009618D01*
X151173623Y-101009618D02*
X151131869Y-101012904D01*
X151131869Y-101012904D02*
X151090000Y-101014000D01*
X151090000Y-101014000D02*
X151090000Y-101014000D01*
G36*
X151131869Y-99385096D02*
G01*
X151173623Y-99388382D01*
X151215148Y-99393849D01*
X151256329Y-99401482D01*
X151297055Y-99411259D01*
X151337214Y-99423155D01*
X151376694Y-99437136D01*
X151415389Y-99453164D01*
X151453192Y-99471195D01*
X151490000Y-99491180D01*
X151525711Y-99513064D01*
X151560228Y-99536786D01*
X151593456Y-99562283D01*
X151625304Y-99589484D01*
X151655685Y-99618315D01*
X151684516Y-99648696D01*
X151711717Y-99680544D01*
X151737214Y-99713772D01*
X151760936Y-99748289D01*
X151782820Y-99784000D01*
X151802805Y-99820808D01*
X151820836Y-99858611D01*
X151836864Y-99897306D01*
X151850845Y-99936786D01*
X151862741Y-99976945D01*
X151872518Y-100017671D01*
X151880151Y-100058852D01*
X151885618Y-100100377D01*
X151888904Y-100142131D01*
X151890000Y-100184000D01*
X151890000Y-100214000D01*
X151888904Y-100255869D01*
X151885618Y-100297623D01*
X151880151Y-100339148D01*
X151872518Y-100380329D01*
X151862741Y-100421055D01*
X151850845Y-100461214D01*
X151836864Y-100500694D01*
X151820836Y-100539389D01*
X151802805Y-100577192D01*
X151782820Y-100614000D01*
X151760936Y-100649711D01*
X151737214Y-100684228D01*
X151711717Y-100717456D01*
X151684516Y-100749304D01*
X151655685Y-100779685D01*
X151625304Y-100808516D01*
X151593456Y-100835717D01*
X151560228Y-100861214D01*
X151525711Y-100884936D01*
X151490000Y-100906820D01*
X151453192Y-100926805D01*
X151415389Y-100944836D01*
X151376694Y-100960864D01*
X151337214Y-100974845D01*
X151297055Y-100986741D01*
X151256329Y-100996518D01*
X151215148Y-101004151D01*
X151173623Y-101009618D01*
X151131869Y-101012904D01*
X151090000Y-101014000D01*
X151090000Y-100714000D01*
X151116168Y-100713315D01*
X151142264Y-100711261D01*
X151168217Y-100707844D01*
X151193956Y-100703074D01*
X151219410Y-100696963D01*
X151244508Y-100689528D01*
X151269184Y-100680790D01*
X151293368Y-100670773D01*
X151316995Y-100659503D01*
X151340000Y-100647013D01*
X151362320Y-100633335D01*
X151383893Y-100618508D01*
X151404660Y-100602573D01*
X151424565Y-100585572D01*
X151443553Y-100567553D01*
X151461572Y-100548565D01*
X151478573Y-100528660D01*
X151494508Y-100507893D01*
X151509335Y-100486320D01*
X151523013Y-100464000D01*
X151535503Y-100440995D01*
X151546773Y-100417368D01*
X151556790Y-100393184D01*
X151565528Y-100368508D01*
X151572963Y-100343410D01*
X151579074Y-100317956D01*
X151583844Y-100292217D01*
X151587261Y-100266264D01*
X151589315Y-100240168D01*
X151590000Y-100214000D01*
X151590000Y-100194000D01*
X151589301Y-100167309D01*
X151587206Y-100140690D01*
X151583721Y-100114218D01*
X151578855Y-100087965D01*
X151572622Y-100062002D01*
X151565039Y-100036401D01*
X151556126Y-100011232D01*
X151545908Y-99986564D01*
X151534413Y-99962465D01*
X151521673Y-99939000D01*
X151507722Y-99916234D01*
X151492599Y-99894230D01*
X151476344Y-99873047D01*
X151459004Y-99852743D01*
X151440624Y-99833376D01*
X151421257Y-99814996D01*
X151400953Y-99797656D01*
X151379770Y-99781401D01*
X151357766Y-99766278D01*
X151335000Y-99752327D01*
X151311535Y-99739587D01*
X151287436Y-99728092D01*
X151262768Y-99717874D01*
X151237599Y-99708961D01*
X151211998Y-99701378D01*
X151186035Y-99695145D01*
X151159782Y-99690279D01*
X151133310Y-99686794D01*
X151106691Y-99684699D01*
X151080000Y-99684000D01*
X151070000Y-99684000D01*
X151043832Y-99684685D01*
X151017736Y-99686739D01*
X150991783Y-99690156D01*
X150966044Y-99694926D01*
X150940590Y-99701037D01*
X150915492Y-99708472D01*
X150890816Y-99717210D01*
X150866632Y-99727227D01*
X150843005Y-99738497D01*
X150820000Y-99750987D01*
X150797680Y-99764665D01*
X150776107Y-99779492D01*
X150755340Y-99795427D01*
X150735435Y-99812428D01*
X150716447Y-99830447D01*
X150698428Y-99849435D01*
X150681427Y-99869340D01*
X150665492Y-99890107D01*
X150650665Y-99911680D01*
X150636987Y-99934000D01*
X150624497Y-99957005D01*
X150613227Y-99980632D01*
X150603210Y-100004816D01*
X150594472Y-100029492D01*
X150587037Y-100054590D01*
X150580926Y-100080044D01*
X150576156Y-100105783D01*
X150572739Y-100131736D01*
X150570685Y-100157832D01*
X150570000Y-100184000D01*
X150570000Y-100214000D01*
X150570685Y-100240168D01*
X150572739Y-100266264D01*
X150576156Y-100292217D01*
X150580926Y-100317956D01*
X150587037Y-100343410D01*
X150594472Y-100368508D01*
X150603210Y-100393184D01*
X150613227Y-100417368D01*
X150624497Y-100440995D01*
X150636987Y-100464000D01*
X150650665Y-100486320D01*
X150665492Y-100507893D01*
X150681427Y-100528660D01*
X150698428Y-100548565D01*
X150716447Y-100567553D01*
X150735435Y-100585572D01*
X150755340Y-100602573D01*
X150776107Y-100618508D01*
X150797680Y-100633335D01*
X150820000Y-100647013D01*
X150843005Y-100659503D01*
X150866632Y-100670773D01*
X150890816Y-100680790D01*
X150915492Y-100689528D01*
X150940590Y-100696963D01*
X150966044Y-100703074D01*
X150991783Y-100707844D01*
X151017736Y-100711261D01*
X151043832Y-100713315D01*
X151070000Y-100714000D01*
X151070000Y-101014000D01*
X151060000Y-101014000D01*
X151018655Y-101012917D01*
X150977423Y-101009672D01*
X150936417Y-101004274D01*
X150895750Y-100996737D01*
X150855533Y-100987081D01*
X150815877Y-100975335D01*
X150776889Y-100961529D01*
X150738678Y-100945701D01*
X150701348Y-100927895D01*
X150665000Y-100908160D01*
X150629735Y-100886550D01*
X150595650Y-100863123D01*
X150562837Y-100837945D01*
X150531387Y-100811084D01*
X150501386Y-100782614D01*
X150472916Y-100752613D01*
X150446055Y-100721163D01*
X150420877Y-100688350D01*
X150397450Y-100654265D01*
X150375840Y-100619000D01*
X150356105Y-100582652D01*
X150338299Y-100545322D01*
X150322471Y-100507111D01*
X150308665Y-100468123D01*
X150296919Y-100428467D01*
X150287263Y-100388250D01*
X150279726Y-100347583D01*
X150274328Y-100306577D01*
X150271083Y-100265345D01*
X150270000Y-100224000D01*
X150270000Y-100194000D01*
X150271110Y-100151608D01*
X150274437Y-100109332D01*
X150279972Y-100067288D01*
X150287700Y-100025592D01*
X150297600Y-99984357D01*
X150309644Y-99943696D01*
X150323800Y-99903722D01*
X150340028Y-99864543D01*
X150358285Y-99826268D01*
X150378519Y-99789000D01*
X150400677Y-99752842D01*
X150424696Y-99717894D01*
X150450512Y-99684250D01*
X150478053Y-99652004D01*
X150507244Y-99621244D01*
X150538004Y-99592053D01*
X150570250Y-99564512D01*
X150603894Y-99538696D01*
X150638842Y-99514677D01*
X150675000Y-99492519D01*
X150712268Y-99472285D01*
X150750543Y-99454028D01*
X150789722Y-99437800D01*
X150829696Y-99423644D01*
X150870357Y-99411600D01*
X150911592Y-99401700D01*
X150953288Y-99393972D01*
X150995332Y-99388437D01*
X151037608Y-99385110D01*
X151080000Y-99384000D01*
X151090000Y-99384000D01*
X151131869Y-99385096D01*
G37*
X151131869Y-99385096D02*
X151173623Y-99388382D01*
X151215148Y-99393849D01*
X151256329Y-99401482D01*
X151297055Y-99411259D01*
X151337214Y-99423155D01*
X151376694Y-99437136D01*
X151415389Y-99453164D01*
X151453192Y-99471195D01*
X151490000Y-99491180D01*
X151525711Y-99513064D01*
X151560228Y-99536786D01*
X151593456Y-99562283D01*
X151625304Y-99589484D01*
X151655685Y-99618315D01*
X151684516Y-99648696D01*
X151711717Y-99680544D01*
X151737214Y-99713772D01*
X151760936Y-99748289D01*
X151782820Y-99784000D01*
X151802805Y-99820808D01*
X151820836Y-99858611D01*
X151836864Y-99897306D01*
X151850845Y-99936786D01*
X151862741Y-99976945D01*
X151872518Y-100017671D01*
X151880151Y-100058852D01*
X151885618Y-100100377D01*
X151888904Y-100142131D01*
X151890000Y-100184000D01*
X151890000Y-100214000D01*
X151888904Y-100255869D01*
X151885618Y-100297623D01*
X151880151Y-100339148D01*
X151872518Y-100380329D01*
X151862741Y-100421055D01*
X151850845Y-100461214D01*
X151836864Y-100500694D01*
X151820836Y-100539389D01*
X151802805Y-100577192D01*
X151782820Y-100614000D01*
X151760936Y-100649711D01*
X151737214Y-100684228D01*
X151711717Y-100717456D01*
X151684516Y-100749304D01*
X151655685Y-100779685D01*
X151625304Y-100808516D01*
X151593456Y-100835717D01*
X151560228Y-100861214D01*
X151525711Y-100884936D01*
X151490000Y-100906820D01*
X151453192Y-100926805D01*
X151415389Y-100944836D01*
X151376694Y-100960864D01*
X151337214Y-100974845D01*
X151297055Y-100986741D01*
X151256329Y-100996518D01*
X151215148Y-101004151D01*
X151173623Y-101009618D01*
X151131869Y-101012904D01*
X151090000Y-101014000D01*
X151090000Y-100714000D01*
X151116168Y-100713315D01*
X151142264Y-100711261D01*
X151168217Y-100707844D01*
X151193956Y-100703074D01*
X151219410Y-100696963D01*
X151244508Y-100689528D01*
X151269184Y-100680790D01*
X151293368Y-100670773D01*
X151316995Y-100659503D01*
X151340000Y-100647013D01*
X151362320Y-100633335D01*
X151383893Y-100618508D01*
X151404660Y-100602573D01*
X151424565Y-100585572D01*
X151443553Y-100567553D01*
X151461572Y-100548565D01*
X151478573Y-100528660D01*
X151494508Y-100507893D01*
X151509335Y-100486320D01*
X151523013Y-100464000D01*
X151535503Y-100440995D01*
X151546773Y-100417368D01*
X151556790Y-100393184D01*
X151565528Y-100368508D01*
X151572963Y-100343410D01*
X151579074Y-100317956D01*
X151583844Y-100292217D01*
X151587261Y-100266264D01*
X151589315Y-100240168D01*
X151590000Y-100214000D01*
X151590000Y-100194000D01*
X151589301Y-100167309D01*
X151587206Y-100140690D01*
X151583721Y-100114218D01*
X151578855Y-100087965D01*
X151572622Y-100062002D01*
X151565039Y-100036401D01*
X151556126Y-100011232D01*
X151545908Y-99986564D01*
X151534413Y-99962465D01*
X151521673Y-99939000D01*
X151507722Y-99916234D01*
X151492599Y-99894230D01*
X151476344Y-99873047D01*
X151459004Y-99852743D01*
X151440624Y-99833376D01*
X151421257Y-99814996D01*
X151400953Y-99797656D01*
X151379770Y-99781401D01*
X151357766Y-99766278D01*
X151335000Y-99752327D01*
X151311535Y-99739587D01*
X151287436Y-99728092D01*
X151262768Y-99717874D01*
X151237599Y-99708961D01*
X151211998Y-99701378D01*
X151186035Y-99695145D01*
X151159782Y-99690279D01*
X151133310Y-99686794D01*
X151106691Y-99684699D01*
X151080000Y-99684000D01*
X151070000Y-99684000D01*
X151043832Y-99684685D01*
X151017736Y-99686739D01*
X150991783Y-99690156D01*
X150966044Y-99694926D01*
X150940590Y-99701037D01*
X150915492Y-99708472D01*
X150890816Y-99717210D01*
X150866632Y-99727227D01*
X150843005Y-99738497D01*
X150820000Y-99750987D01*
X150797680Y-99764665D01*
X150776107Y-99779492D01*
X150755340Y-99795427D01*
X150735435Y-99812428D01*
X150716447Y-99830447D01*
X150698428Y-99849435D01*
X150681427Y-99869340D01*
X150665492Y-99890107D01*
X150650665Y-99911680D01*
X150636987Y-99934000D01*
X150624497Y-99957005D01*
X150613227Y-99980632D01*
X150603210Y-100004816D01*
X150594472Y-100029492D01*
X150587037Y-100054590D01*
X150580926Y-100080044D01*
X150576156Y-100105783D01*
X150572739Y-100131736D01*
X150570685Y-100157832D01*
X150570000Y-100184000D01*
X150570000Y-100214000D01*
X150570685Y-100240168D01*
X150572739Y-100266264D01*
X150576156Y-100292217D01*
X150580926Y-100317956D01*
X150587037Y-100343410D01*
X150594472Y-100368508D01*
X150603210Y-100393184D01*
X150613227Y-100417368D01*
X150624497Y-100440995D01*
X150636987Y-100464000D01*
X150650665Y-100486320D01*
X150665492Y-100507893D01*
X150681427Y-100528660D01*
X150698428Y-100548565D01*
X150716447Y-100567553D01*
X150735435Y-100585572D01*
X150755340Y-100602573D01*
X150776107Y-100618508D01*
X150797680Y-100633335D01*
X150820000Y-100647013D01*
X150843005Y-100659503D01*
X150866632Y-100670773D01*
X150890816Y-100680790D01*
X150915492Y-100689528D01*
X150940590Y-100696963D01*
X150966044Y-100703074D01*
X150991783Y-100707844D01*
X151017736Y-100711261D01*
X151043832Y-100713315D01*
X151070000Y-100714000D01*
X151070000Y-101014000D01*
X151060000Y-101014000D01*
X151018655Y-101012917D01*
X150977423Y-101009672D01*
X150936417Y-101004274D01*
X150895750Y-100996737D01*
X150855533Y-100987081D01*
X150815877Y-100975335D01*
X150776889Y-100961529D01*
X150738678Y-100945701D01*
X150701348Y-100927895D01*
X150665000Y-100908160D01*
X150629735Y-100886550D01*
X150595650Y-100863123D01*
X150562837Y-100837945D01*
X150531387Y-100811084D01*
X150501386Y-100782614D01*
X150472916Y-100752613D01*
X150446055Y-100721163D01*
X150420877Y-100688350D01*
X150397450Y-100654265D01*
X150375840Y-100619000D01*
X150356105Y-100582652D01*
X150338299Y-100545322D01*
X150322471Y-100507111D01*
X150308665Y-100468123D01*
X150296919Y-100428467D01*
X150287263Y-100388250D01*
X150279726Y-100347583D01*
X150274328Y-100306577D01*
X150271083Y-100265345D01*
X150270000Y-100224000D01*
X150270000Y-100194000D01*
X150271110Y-100151608D01*
X150274437Y-100109332D01*
X150279972Y-100067288D01*
X150287700Y-100025592D01*
X150297600Y-99984357D01*
X150309644Y-99943696D01*
X150323800Y-99903722D01*
X150340028Y-99864543D01*
X150358285Y-99826268D01*
X150378519Y-99789000D01*
X150400677Y-99752842D01*
X150424696Y-99717894D01*
X150450512Y-99684250D01*
X150478053Y-99652004D01*
X150507244Y-99621244D01*
X150538004Y-99592053D01*
X150570250Y-99564512D01*
X150603894Y-99538696D01*
X150638842Y-99514677D01*
X150675000Y-99492519D01*
X150712268Y-99472285D01*
X150750543Y-99454028D01*
X150789722Y-99437800D01*
X150829696Y-99423644D01*
X150870357Y-99411600D01*
X150911592Y-99401700D01*
X150953288Y-99393972D01*
X150995332Y-99388437D01*
X151037608Y-99385110D01*
X151080000Y-99384000D01*
X151090000Y-99384000D01*
X151131869Y-99385096D01*
%TD*%
D11*
%TO.P,J2,1,Pin_1*%
%TO.N,/SD*%
X153620000Y-112275000D03*
%TO.P,J2,2,Pin_2*%
X153620000Y-107225000D03*
%TO.P,J2,3,Pin_3*%
%TO.N,/WS*%
X156160000Y-112275000D03*
%TO.P,J2,4,Pin_4*%
X156160000Y-107225000D03*
%TO.P,J2,5,Pin_5*%
%TO.N,/LR*%
X158700000Y-112275000D03*
%TO.P,J2,6,Pin_6*%
X158700000Y-107225000D03*
%TD*%
D12*
%TO.P,MK1,6,SD*%
%TO.N,/SD*%
X151080000Y-102275000D03*
%TO.P,MK1,5,VDD*%
%TO.N,+3V3*%
X150180000Y-102275000D03*
%TO.P,MK1,4,SCK*%
%TO.N,/SCK*%
X150180000Y-101453000D03*
D13*
%TO.P,MK1,3,GND*%
%TO.N,GND*%
X151095500Y-99531000D03*
D12*
%TO.P,MK1,2,LR*%
%TO.N,/LR*%
X151980000Y-101453000D03*
%TO.P,MK1,1,WS*%
%TO.N,/WS*%
X151980000Y-102275000D03*
%TD*%
D14*
%TO.P,C1,1*%
%TO.N,+3V3*%
X148540000Y-102275000D03*
%TO.P,C1,2*%
%TO.N,GND*%
X148540000Y-103235000D03*
%TD*%
D15*
%TO.P,R1,1*%
%TO.N,GND*%
X151080000Y-108255000D03*
%TO.P,R1,2*%
%TO.N,/SD*%
X151080000Y-107235000D03*
%TD*%
D11*
%TO.P,J1,1,Pin_1*%
%TO.N,/SCK*%
X143460000Y-112300000D03*
%TO.P,J1,2,Pin_2*%
X143460000Y-107250000D03*
%TO.P,J1,3,Pin_3*%
%TO.N,+3V3*%
X146000000Y-112300000D03*
%TO.P,J1,4,Pin_4*%
X146000000Y-107250000D03*
%TO.P,J1,5,Pin_5*%
%TO.N,GND*%
X148540000Y-112300000D03*
%TO.P,J1,6,Pin_6*%
X148540000Y-107250000D03*
%TD*%
D16*
%TO.N,GND*%
X153620000Y-104695000D03*
X144730000Y-104695000D03*
X157080000Y-114775000D03*
X159080000Y-114775000D03*
X145080000Y-114775000D03*
X143080000Y-114775000D03*
X151080000Y-111775000D03*
X151080000Y-109775000D03*
X145080000Y-99775000D03*
X143080000Y-99775000D03*
X157080000Y-99775000D03*
X159080000Y-99775000D03*
X148580000Y-99525000D03*
X153574000Y-99531000D03*
X147270000Y-104695000D03*
X148540000Y-104695000D03*
%TD*%
D17*
%TO.N,GND*%
X148586000Y-99531000D02*
X148580000Y-99525000D01*
X151095500Y-99531000D02*
X148586000Y-99531000D01*
X153574000Y-99531000D02*
X153580000Y-99525000D01*
X151095500Y-99531000D02*
X153574000Y-99531000D01*
X148540000Y-104695000D02*
X147270000Y-104695000D01*
X148540000Y-103235000D02*
X148540000Y-104695000D01*
%TO.N,/LR*%
X158700000Y-112275000D02*
X158700000Y-107225000D01*
%TO.N,/WS*%
X156160000Y-112275000D02*
X156160000Y-107225000D01*
%TO.N,/SD*%
X153620000Y-112275000D02*
X153620000Y-107225000D01*
%TO.N,/SCK*%
X143460000Y-112300000D02*
X143460000Y-107250000D01*
%TO.N,+3V3*%
X146000000Y-112300000D02*
X146000000Y-107250000D01*
%TO.N,GND*%
X148540000Y-112300000D02*
X148540000Y-107250000D01*
%TO.N,+3V3*%
X146000000Y-103425000D02*
X146000000Y-107250000D01*
X148540000Y-102275000D02*
X147150000Y-102275000D01*
X148540000Y-102275000D02*
X150180000Y-102275000D01*
X147150000Y-102275000D02*
X146000000Y-103425000D01*
%TO.N,GND*%
X150318000Y-106473000D02*
X150318000Y-104187000D01*
X148540000Y-107250000D02*
X149317000Y-107250000D01*
X149366000Y-103235000D02*
X148540000Y-103235000D01*
X149541000Y-107250000D02*
X150318000Y-106473000D01*
X150318000Y-104187000D02*
X149366000Y-103235000D01*
X148540000Y-107250000D02*
X149541000Y-107250000D01*
%TO.N,/SCK*%
X145432000Y-101453000D02*
X143460000Y-103425000D01*
X143460000Y-103425000D02*
X143460000Y-107250000D01*
X150180000Y-101453000D02*
X145432000Y-101453000D01*
%TO.N,/SD*%
X151080000Y-107235000D02*
X153610000Y-107235000D01*
X153610000Y-107235000D02*
X153620000Y-107225000D01*
X151080000Y-102275000D02*
X151080000Y-107235000D01*
%TO.N,/WS*%
X156227000Y-103425000D02*
X156227000Y-107250000D01*
X155077000Y-102275000D02*
X156227000Y-103425000D01*
X151980000Y-102275000D02*
X155077000Y-102275000D01*
%TO.N,/LR*%
X156728000Y-101453000D02*
X151980000Y-101453000D01*
X158700000Y-107225000D02*
X158700000Y-103425000D01*
X158700000Y-103425000D02*
X156728000Y-101453000D01*
%TD*%
%TA.AperFunction,Conductor*%
%TO.N,GND*%
G36*
X160772121Y-98545002D02*
G01*
X160818614Y-98598658D01*
X160830000Y-98651000D01*
X160830000Y-115899000D01*
X160809998Y-115967121D01*
X160756342Y-116013614D01*
X160704000Y-116025000D01*
X141456000Y-116025000D01*
X141387879Y-116004998D01*
X141341386Y-115951342D01*
X141330000Y-115899000D01*
X141330000Y-105675000D01*
X142704500Y-105675000D01*
X142704500Y-108825000D01*
X142723949Y-108922776D01*
X142730841Y-108933091D01*
X142730842Y-108933093D01*
X142767235Y-108987559D01*
X142779334Y-109005666D01*
X142789650Y-109012559D01*
X142851907Y-109054158D01*
X142851909Y-109054159D01*
X142862224Y-109061051D01*
X142960000Y-109080500D01*
X142966188Y-109080500D01*
X142970848Y-109080959D01*
X143036681Y-109107540D01*
X143077692Y-109165494D01*
X143084500Y-109206352D01*
X143084500Y-110343648D01*
X143064498Y-110411769D01*
X143010842Y-110458262D01*
X142970848Y-110469041D01*
X142966188Y-110469500D01*
X142960000Y-110469500D01*
X142862224Y-110488949D01*
X142851909Y-110495841D01*
X142851907Y-110495842D01*
X142816749Y-110519334D01*
X142779334Y-110544334D01*
X142772441Y-110554650D01*
X142730842Y-110616907D01*
X142730841Y-110616909D01*
X142723949Y-110627224D01*
X142704500Y-110725000D01*
X142704500Y-113875000D01*
X142723949Y-113972776D01*
X142730841Y-113983091D01*
X142730842Y-113983093D01*
X142767235Y-114037559D01*
X142779334Y-114055666D01*
X142789650Y-114062559D01*
X142851907Y-114104158D01*
X142851909Y-114104159D01*
X142862224Y-114111051D01*
X142960000Y-114130500D01*
X143960000Y-114130500D01*
X144057776Y-114111051D01*
X144068091Y-114104159D01*
X144068093Y-114104158D01*
X144130350Y-114062559D01*
X144140666Y-114055666D01*
X144152765Y-114037559D01*
X144189158Y-113983093D01*
X144189159Y-113983091D01*
X144196051Y-113972776D01*
X144215500Y-113875000D01*
X144215500Y-110725000D01*
X144196051Y-110627224D01*
X144189159Y-110616909D01*
X144189158Y-110616907D01*
X144147559Y-110554650D01*
X144140666Y-110544334D01*
X144103251Y-110519334D01*
X144068093Y-110495842D01*
X144068091Y-110495841D01*
X144057776Y-110488949D01*
X143960000Y-110469500D01*
X143953812Y-110469500D01*
X143949152Y-110469041D01*
X143883319Y-110442460D01*
X143842308Y-110384506D01*
X143835500Y-110343648D01*
X143835500Y-109206352D01*
X143855502Y-109138231D01*
X143909158Y-109091738D01*
X143949152Y-109080959D01*
X143953812Y-109080500D01*
X143960000Y-109080500D01*
X144057776Y-109061051D01*
X144068091Y-109054159D01*
X144068093Y-109054158D01*
X144130350Y-109012559D01*
X144140666Y-109005666D01*
X144152765Y-108987559D01*
X144189158Y-108933093D01*
X144189159Y-108933091D01*
X144196051Y-108922776D01*
X144215500Y-108825000D01*
X144215500Y-105675000D01*
X144196051Y-105577224D01*
X144189159Y-105566909D01*
X144189158Y-105566907D01*
X144147559Y-105504650D01*
X144140666Y-105494334D01*
X144103251Y-105469334D01*
X144068093Y-105445842D01*
X144068091Y-105445841D01*
X144057776Y-105438949D01*
X143960000Y-105419500D01*
X143953812Y-105419500D01*
X143949152Y-105419041D01*
X143883319Y-105392460D01*
X143842308Y-105334506D01*
X143835500Y-105293648D01*
X143835500Y-103632727D01*
X143855502Y-103564606D01*
X143872405Y-103543632D01*
X145550632Y-101865405D01*
X145612944Y-101831379D01*
X145639727Y-101828500D01*
X146761273Y-101828500D01*
X146829394Y-101848502D01*
X146875887Y-101902158D01*
X146885991Y-101972432D01*
X146856497Y-102037012D01*
X146850368Y-102043595D01*
X145771675Y-103122288D01*
X145755421Y-103135416D01*
X145752668Y-103137921D01*
X145743919Y-103143570D01*
X145737472Y-103151748D01*
X145724403Y-103168326D01*
X145720220Y-103173033D01*
X145720277Y-103173082D01*
X145716925Y-103177038D01*
X145713241Y-103180722D01*
X145701484Y-103197174D01*
X145697943Y-103201890D01*
X145666565Y-103241693D01*
X145663564Y-103250239D01*
X145658301Y-103257604D01*
X145645043Y-103301936D01*
X145643789Y-103306128D01*
X145641962Y-103311752D01*
X145625166Y-103359581D01*
X145624500Y-103367271D01*
X145624500Y-103369984D01*
X145624468Y-103370732D01*
X145622500Y-103377311D01*
X145622909Y-103387718D01*
X145624403Y-103425739D01*
X145624500Y-103430686D01*
X145624500Y-105293648D01*
X145604498Y-105361769D01*
X145550842Y-105408262D01*
X145510848Y-105419041D01*
X145506188Y-105419500D01*
X145500000Y-105419500D01*
X145402224Y-105438949D01*
X145391909Y-105445841D01*
X145391907Y-105445842D01*
X145356749Y-105469334D01*
X145319334Y-105494334D01*
X145312441Y-105504650D01*
X145270842Y-105566907D01*
X145270841Y-105566909D01*
X145263949Y-105577224D01*
X145244500Y-105675000D01*
X145244500Y-108825000D01*
X145263949Y-108922776D01*
X145270841Y-108933091D01*
X145270842Y-108933093D01*
X145307235Y-108987559D01*
X145319334Y-109005666D01*
X145329650Y-109012559D01*
X145391907Y-109054158D01*
X145391909Y-109054159D01*
X145402224Y-109061051D01*
X145500000Y-109080500D01*
X145506188Y-109080500D01*
X145510848Y-109080959D01*
X145576681Y-109107540D01*
X145617692Y-109165494D01*
X145624500Y-109206352D01*
X145624500Y-110343648D01*
X145604498Y-110411769D01*
X145550842Y-110458262D01*
X145510848Y-110469041D01*
X145506188Y-110469500D01*
X145500000Y-110469500D01*
X145402224Y-110488949D01*
X145391909Y-110495841D01*
X145391907Y-110495842D01*
X145356749Y-110519334D01*
X145319334Y-110544334D01*
X145312441Y-110554650D01*
X145270842Y-110616907D01*
X145270841Y-110616909D01*
X145263949Y-110627224D01*
X145244500Y-110725000D01*
X145244500Y-113875000D01*
X145263949Y-113972776D01*
X145270841Y-113983091D01*
X145270842Y-113983093D01*
X145307235Y-114037559D01*
X145319334Y-114055666D01*
X145329650Y-114062559D01*
X145391907Y-114104158D01*
X145391909Y-114104159D01*
X145402224Y-114111051D01*
X145500000Y-114130500D01*
X146500000Y-114130500D01*
X146597776Y-114111051D01*
X146608091Y-114104159D01*
X146608093Y-114104158D01*
X146670350Y-114062559D01*
X146680666Y-114055666D01*
X146692765Y-114037559D01*
X146729158Y-113983093D01*
X146729159Y-113983091D01*
X146736051Y-113972776D01*
X146755500Y-113875000D01*
X146755500Y-110725000D01*
X146736051Y-110627224D01*
X146729159Y-110616909D01*
X146729158Y-110616907D01*
X146687559Y-110554650D01*
X146680666Y-110544334D01*
X146643251Y-110519334D01*
X146608093Y-110495842D01*
X146608091Y-110495841D01*
X146597776Y-110488949D01*
X146500000Y-110469500D01*
X146493812Y-110469500D01*
X146489152Y-110469041D01*
X146423319Y-110442460D01*
X146382308Y-110384506D01*
X146375500Y-110343648D01*
X146375500Y-109206352D01*
X146395502Y-109138231D01*
X146449158Y-109091738D01*
X146489152Y-109080959D01*
X146493812Y-109080500D01*
X146500000Y-109080500D01*
X146597776Y-109061051D01*
X146608091Y-109054159D01*
X146608093Y-109054158D01*
X146670350Y-109012559D01*
X146680666Y-109005666D01*
X146692765Y-108987559D01*
X146729158Y-108933093D01*
X146729159Y-108933091D01*
X146736051Y-108922776D01*
X146755500Y-108825000D01*
X146755500Y-105675000D01*
X146736051Y-105577224D01*
X146729159Y-105566909D01*
X146729158Y-105566907D01*
X146687559Y-105504650D01*
X146680666Y-105494334D01*
X146672247Y-105488709D01*
X146638978Y-105427783D01*
X146644043Y-105356968D01*
X146686590Y-105300132D01*
X146753110Y-105275321D01*
X146762099Y-105275000D01*
X146954000Y-105275000D01*
X147022121Y-105295002D01*
X147068614Y-105348658D01*
X147080000Y-105401000D01*
X147080000Y-114275000D01*
X147679230Y-114275000D01*
X147747351Y-114295002D01*
X147749271Y-114296440D01*
X147770848Y-114310307D01*
X147887275Y-114363477D01*
X147904388Y-114368502D01*
X148035554Y-114387361D01*
X148044495Y-114388000D01*
X148267885Y-114388000D01*
X148283124Y-114383525D01*
X148284329Y-114382135D01*
X148286000Y-114374452D01*
X148286000Y-114275000D01*
X148794000Y-114275000D01*
X148794000Y-114369885D01*
X148798475Y-114385124D01*
X148799865Y-114386329D01*
X148807548Y-114388000D01*
X149037743Y-114388000D01*
X149042250Y-114387839D01*
X149106269Y-114383260D01*
X149119491Y-114380874D01*
X149244458Y-114344181D01*
X149260692Y-114336767D01*
X149325681Y-114295002D01*
X149393801Y-114275000D01*
X149580000Y-114275000D01*
X149580000Y-108526426D01*
X150264234Y-108526426D01*
X150266364Y-108543286D01*
X150270275Y-108558519D01*
X150324236Y-108694807D01*
X150331812Y-108708589D01*
X150417968Y-108827173D01*
X150428736Y-108838640D01*
X150541675Y-108932070D01*
X150554957Y-108940499D01*
X150687583Y-109002909D01*
X150702548Y-109007771D01*
X150808206Y-109027926D01*
X150821245Y-109026656D01*
X150826000Y-109011731D01*
X150826000Y-108527115D01*
X150824659Y-108522548D01*
X151334000Y-108522548D01*
X151334000Y-109011168D01*
X151338075Y-109025046D01*
X151351424Y-109027082D01*
X151418292Y-109018635D01*
X151433516Y-109014726D01*
X151569807Y-108960764D01*
X151583589Y-108953188D01*
X151702173Y-108867032D01*
X151713640Y-108856264D01*
X151807070Y-108743325D01*
X151815499Y-108730043D01*
X151877911Y-108597412D01*
X151882770Y-108582459D01*
X151893389Y-108526794D01*
X151892118Y-108513755D01*
X151877196Y-108509000D01*
X151352115Y-108509000D01*
X151336876Y-108513475D01*
X151335671Y-108514865D01*
X151334000Y-108522548D01*
X150824659Y-108522548D01*
X150821525Y-108511876D01*
X150820135Y-108510671D01*
X150812452Y-108509000D01*
X150280148Y-108509000D01*
X150266271Y-108513075D01*
X150264234Y-108526426D01*
X149580000Y-108526426D01*
X149580000Y-107901000D01*
X149600002Y-107832879D01*
X149653658Y-107786386D01*
X149706000Y-107775000D01*
X150154021Y-107775000D01*
X150222142Y-107795002D01*
X150268635Y-107848658D01*
X150277789Y-107924610D01*
X150266611Y-107983206D01*
X150267882Y-107996245D01*
X150282804Y-108001000D01*
X151879852Y-108001000D01*
X151893729Y-107996925D01*
X151895766Y-107983574D01*
X151893636Y-107966714D01*
X151889725Y-107951481D01*
X151835763Y-107815189D01*
X151825874Y-107797201D01*
X151810584Y-107727871D01*
X151835204Y-107661280D01*
X151891918Y-107618571D01*
X151936288Y-107610500D01*
X152738500Y-107610500D01*
X152806621Y-107630502D01*
X152853114Y-107684158D01*
X152864500Y-107736500D01*
X152864500Y-108800000D01*
X152883949Y-108897776D01*
X152890841Y-108908091D01*
X152890842Y-108908093D01*
X152900653Y-108922776D01*
X152939334Y-108980666D01*
X152949650Y-108987559D01*
X153011907Y-109029158D01*
X153011909Y-109029159D01*
X153022224Y-109036051D01*
X153120000Y-109055500D01*
X153126188Y-109055500D01*
X153130848Y-109055959D01*
X153196681Y-109082540D01*
X153237692Y-109140494D01*
X153244500Y-109181352D01*
X153244500Y-110318648D01*
X153224498Y-110386769D01*
X153170842Y-110433262D01*
X153130848Y-110444041D01*
X153126188Y-110444500D01*
X153120000Y-110444500D01*
X153022224Y-110463949D01*
X153011909Y-110470841D01*
X153011907Y-110470842D01*
X152974492Y-110495842D01*
X152939334Y-110519334D01*
X152932441Y-110529650D01*
X152890842Y-110591907D01*
X152890841Y-110591909D01*
X152883949Y-110602224D01*
X152864500Y-110700000D01*
X152864500Y-113850000D01*
X152883949Y-113947776D01*
X152890841Y-113958091D01*
X152890842Y-113958093D01*
X152900653Y-113972776D01*
X152939334Y-114030666D01*
X152949650Y-114037559D01*
X153011907Y-114079158D01*
X153011909Y-114079159D01*
X153022224Y-114086051D01*
X153120000Y-114105500D01*
X154120000Y-114105500D01*
X154217776Y-114086051D01*
X154228091Y-114079159D01*
X154228093Y-114079158D01*
X154290350Y-114037559D01*
X154300666Y-114030666D01*
X154339347Y-113972776D01*
X154349158Y-113958093D01*
X154349159Y-113958091D01*
X154356051Y-113947776D01*
X154375500Y-113850000D01*
X154375500Y-110700000D01*
X154356051Y-110602224D01*
X154349159Y-110591909D01*
X154349158Y-110591907D01*
X154307559Y-110529650D01*
X154300666Y-110519334D01*
X154265508Y-110495842D01*
X154228093Y-110470842D01*
X154228091Y-110470841D01*
X154217776Y-110463949D01*
X154120000Y-110444500D01*
X154113812Y-110444500D01*
X154109152Y-110444041D01*
X154043319Y-110417460D01*
X154002308Y-110359506D01*
X153995500Y-110318648D01*
X153995500Y-109181352D01*
X154015502Y-109113231D01*
X154069158Y-109066738D01*
X154109152Y-109055959D01*
X154113812Y-109055500D01*
X154120000Y-109055500D01*
X154217776Y-109036051D01*
X154228091Y-109029159D01*
X154228093Y-109029158D01*
X154290350Y-108987559D01*
X154300666Y-108980666D01*
X154339347Y-108922776D01*
X154349158Y-108908093D01*
X154349159Y-108908091D01*
X154356051Y-108897776D01*
X154375500Y-108800000D01*
X154375500Y-105650000D01*
X154356051Y-105552224D01*
X154349159Y-105541909D01*
X154349158Y-105541907D01*
X154307559Y-105479650D01*
X154300666Y-105469334D01*
X154265508Y-105445842D01*
X154228093Y-105420842D01*
X154228091Y-105420841D01*
X154217776Y-105413949D01*
X154120000Y-105394500D01*
X153120000Y-105394500D01*
X153022224Y-105413949D01*
X153011909Y-105420841D01*
X153011907Y-105420842D01*
X152974492Y-105445842D01*
X152939334Y-105469334D01*
X152932441Y-105479650D01*
X152890842Y-105541907D01*
X152890841Y-105541909D01*
X152883949Y-105552224D01*
X152864500Y-105650000D01*
X152864500Y-106733500D01*
X152844498Y-106801621D01*
X152790842Y-106848114D01*
X152738500Y-106859500D01*
X151621617Y-106859500D01*
X151553496Y-106839498D01*
X151536088Y-106826024D01*
X151495971Y-106788940D01*
X151459526Y-106728012D01*
X151455500Y-106696416D01*
X151455500Y-102900376D01*
X151475502Y-102832255D01*
X151529158Y-102785762D01*
X151606081Y-102776797D01*
X151673931Y-102790293D01*
X151673933Y-102790293D01*
X151680000Y-102791500D01*
X152280000Y-102791500D01*
X152377776Y-102772051D01*
X152388091Y-102765159D01*
X152388093Y-102765158D01*
X152450350Y-102723559D01*
X152460666Y-102716666D01*
X152467558Y-102706351D01*
X152476337Y-102697572D01*
X152477159Y-102698394D01*
X152521934Y-102660972D01*
X152572225Y-102650500D01*
X154869272Y-102650500D01*
X154937393Y-102670502D01*
X154958368Y-102687405D01*
X155814596Y-103543634D01*
X155848621Y-103605946D01*
X155851500Y-103632729D01*
X155851500Y-105268500D01*
X155831498Y-105336621D01*
X155777842Y-105383114D01*
X155725500Y-105394500D01*
X155660000Y-105394500D01*
X155562224Y-105413949D01*
X155551909Y-105420841D01*
X155551907Y-105420842D01*
X155514492Y-105445842D01*
X155479334Y-105469334D01*
X155472441Y-105479650D01*
X155430842Y-105541907D01*
X155430841Y-105541909D01*
X155423949Y-105552224D01*
X155404500Y-105650000D01*
X155404500Y-108800000D01*
X155423949Y-108897776D01*
X155430841Y-108908091D01*
X155430842Y-108908093D01*
X155440653Y-108922776D01*
X155479334Y-108980666D01*
X155489650Y-108987559D01*
X155551907Y-109029158D01*
X155551909Y-109029159D01*
X155562224Y-109036051D01*
X155660000Y-109055500D01*
X155666188Y-109055500D01*
X155670848Y-109055959D01*
X155736681Y-109082540D01*
X155777692Y-109140494D01*
X155784500Y-109181352D01*
X155784500Y-110318648D01*
X155764498Y-110386769D01*
X155710842Y-110433262D01*
X155670848Y-110444041D01*
X155666188Y-110444500D01*
X155660000Y-110444500D01*
X155562224Y-110463949D01*
X155551909Y-110470841D01*
X155551907Y-110470842D01*
X155514492Y-110495842D01*
X155479334Y-110519334D01*
X155472441Y-110529650D01*
X155430842Y-110591907D01*
X155430841Y-110591909D01*
X155423949Y-110602224D01*
X155404500Y-110700000D01*
X155404500Y-113850000D01*
X155423949Y-113947776D01*
X155430841Y-113958091D01*
X155430842Y-113958093D01*
X155440653Y-113972776D01*
X155479334Y-114030666D01*
X155489650Y-114037559D01*
X155551907Y-114079158D01*
X155551909Y-114079159D01*
X155562224Y-114086051D01*
X155660000Y-114105500D01*
X156660000Y-114105500D01*
X156757776Y-114086051D01*
X156768091Y-114079159D01*
X156768093Y-114079158D01*
X156830350Y-114037559D01*
X156840666Y-114030666D01*
X156879347Y-113972776D01*
X156889158Y-113958093D01*
X156889159Y-113958091D01*
X156896051Y-113947776D01*
X156915500Y-113850000D01*
X156915500Y-110700000D01*
X156896051Y-110602224D01*
X156889159Y-110591909D01*
X156889158Y-110591907D01*
X156847559Y-110529650D01*
X156840666Y-110519334D01*
X156805508Y-110495842D01*
X156768093Y-110470842D01*
X156768091Y-110470841D01*
X156757776Y-110463949D01*
X156660000Y-110444500D01*
X156653812Y-110444500D01*
X156649152Y-110444041D01*
X156583319Y-110417460D01*
X156542308Y-110359506D01*
X156535500Y-110318648D01*
X156535500Y-109181352D01*
X156555502Y-109113231D01*
X156609158Y-109066738D01*
X156649152Y-109055959D01*
X156653812Y-109055500D01*
X156660000Y-109055500D01*
X156757776Y-109036051D01*
X156768091Y-109029159D01*
X156768093Y-109029158D01*
X156830350Y-108987559D01*
X156840666Y-108980666D01*
X156879347Y-108922776D01*
X156889158Y-108908093D01*
X156889159Y-108908091D01*
X156896051Y-108897776D01*
X156915500Y-108800000D01*
X156915500Y-105650000D01*
X156896051Y-105552224D01*
X156889159Y-105541909D01*
X156889158Y-105541907D01*
X156847559Y-105479650D01*
X156840666Y-105469334D01*
X156805508Y-105445842D01*
X156768093Y-105420842D01*
X156768091Y-105420841D01*
X156757776Y-105413949D01*
X156745609Y-105411529D01*
X156745607Y-105411528D01*
X156703919Y-105403236D01*
X156641009Y-105370329D01*
X156605877Y-105308634D01*
X156602500Y-105279657D01*
X156602500Y-103477600D01*
X156604711Y-103456829D01*
X156604887Y-103453103D01*
X156607078Y-103442925D01*
X156603373Y-103411621D01*
X156603002Y-103405333D01*
X156602928Y-103405339D01*
X156602500Y-103400162D01*
X156602500Y-103394961D01*
X156599562Y-103377311D01*
X156599184Y-103375039D01*
X156598347Y-103369159D01*
X156593616Y-103329186D01*
X156593615Y-103329182D01*
X156592392Y-103318844D01*
X156588471Y-103310680D01*
X156586985Y-103301749D01*
X156562925Y-103257157D01*
X156560251Y-103251911D01*
X156538306Y-103206211D01*
X156533339Y-103200302D01*
X156531390Y-103198353D01*
X156530918Y-103197838D01*
X156527654Y-103191789D01*
X156492049Y-103158876D01*
X156488483Y-103155446D01*
X155379712Y-102046675D01*
X155362959Y-102025934D01*
X155360969Y-102022852D01*
X155340818Y-101954778D01*
X155360670Y-101886613D01*
X155414223Y-101840002D01*
X155466818Y-101828500D01*
X156520273Y-101828500D01*
X156588394Y-101848502D01*
X156609368Y-101865405D01*
X158287595Y-103543632D01*
X158321621Y-103605944D01*
X158324500Y-103632727D01*
X158324500Y-105268648D01*
X158304498Y-105336769D01*
X158250842Y-105383262D01*
X158210848Y-105394041D01*
X158206188Y-105394500D01*
X158200000Y-105394500D01*
X158102224Y-105413949D01*
X158091909Y-105420841D01*
X158091907Y-105420842D01*
X158054492Y-105445842D01*
X158019334Y-105469334D01*
X158012441Y-105479650D01*
X157970842Y-105541907D01*
X157970841Y-105541909D01*
X157963949Y-105552224D01*
X157944500Y-105650000D01*
X157944500Y-108800000D01*
X157963949Y-108897776D01*
X157970841Y-108908091D01*
X157970842Y-108908093D01*
X157980653Y-108922776D01*
X158019334Y-108980666D01*
X158029650Y-108987559D01*
X158091907Y-109029158D01*
X158091909Y-109029159D01*
X158102224Y-109036051D01*
X158200000Y-109055500D01*
X158206188Y-109055500D01*
X158210848Y-109055959D01*
X158276681Y-109082540D01*
X158317692Y-109140494D01*
X158324500Y-109181352D01*
X158324500Y-110318648D01*
X158304498Y-110386769D01*
X158250842Y-110433262D01*
X158210848Y-110444041D01*
X158206188Y-110444500D01*
X158200000Y-110444500D01*
X158102224Y-110463949D01*
X158091909Y-110470841D01*
X158091907Y-110470842D01*
X158054492Y-110495842D01*
X158019334Y-110519334D01*
X158012441Y-110529650D01*
X157970842Y-110591907D01*
X157970841Y-110591909D01*
X157963949Y-110602224D01*
X157944500Y-110700000D01*
X157944500Y-113850000D01*
X157963949Y-113947776D01*
X157970841Y-113958091D01*
X157970842Y-113958093D01*
X157980653Y-113972776D01*
X158019334Y-114030666D01*
X158029650Y-114037559D01*
X158091907Y-114079158D01*
X158091909Y-114079159D01*
X158102224Y-114086051D01*
X158200000Y-114105500D01*
X159200000Y-114105500D01*
X159297776Y-114086051D01*
X159308091Y-114079159D01*
X159308093Y-114079158D01*
X159370350Y-114037559D01*
X159380666Y-114030666D01*
X159419347Y-113972776D01*
X159429158Y-113958093D01*
X159429159Y-113958091D01*
X159436051Y-113947776D01*
X159455500Y-113850000D01*
X159455500Y-110700000D01*
X159436051Y-110602224D01*
X159429159Y-110591909D01*
X159429158Y-110591907D01*
X159387559Y-110529650D01*
X159380666Y-110519334D01*
X159345508Y-110495842D01*
X159308093Y-110470842D01*
X159308091Y-110470841D01*
X159297776Y-110463949D01*
X159200000Y-110444500D01*
X159193812Y-110444500D01*
X159189152Y-110444041D01*
X159123319Y-110417460D01*
X159082308Y-110359506D01*
X159075500Y-110318648D01*
X159075500Y-109181352D01*
X159095502Y-109113231D01*
X159149158Y-109066738D01*
X159189152Y-109055959D01*
X159193812Y-109055500D01*
X159200000Y-109055500D01*
X159297776Y-109036051D01*
X159308091Y-109029159D01*
X159308093Y-109029158D01*
X159370350Y-108987559D01*
X159380666Y-108980666D01*
X159419347Y-108922776D01*
X159429158Y-108908093D01*
X159429159Y-108908091D01*
X159436051Y-108897776D01*
X159455500Y-108800000D01*
X159455500Y-105650000D01*
X159436051Y-105552224D01*
X159429159Y-105541909D01*
X159429158Y-105541907D01*
X159387559Y-105479650D01*
X159380666Y-105469334D01*
X159345508Y-105445842D01*
X159308093Y-105420842D01*
X159308091Y-105420841D01*
X159297776Y-105413949D01*
X159200000Y-105394500D01*
X159193812Y-105394500D01*
X159189152Y-105394041D01*
X159123319Y-105367460D01*
X159082308Y-105309506D01*
X159075500Y-105268648D01*
X159075500Y-103477599D01*
X159077711Y-103456828D01*
X159077887Y-103453102D01*
X159080078Y-103442924D01*
X159076373Y-103411621D01*
X159076002Y-103405335D01*
X159075928Y-103405341D01*
X159075500Y-103400165D01*
X159075500Y-103394961D01*
X159072180Y-103375014D01*
X159071349Y-103369175D01*
X159071062Y-103366745D01*
X159065392Y-103318843D01*
X159061471Y-103310678D01*
X159059985Y-103301749D01*
X159055041Y-103292587D01*
X159055040Y-103292583D01*
X159035932Y-103257170D01*
X159033237Y-103251880D01*
X159014740Y-103213360D01*
X159014736Y-103213354D01*
X159011306Y-103206210D01*
X159006339Y-103200302D01*
X159004395Y-103198358D01*
X159003918Y-103197838D01*
X159000654Y-103191789D01*
X158965049Y-103158876D01*
X158961483Y-103155446D01*
X157030712Y-101224675D01*
X157017584Y-101208421D01*
X157015079Y-101205668D01*
X157009430Y-101196919D01*
X156984674Y-101177403D01*
X156979967Y-101173220D01*
X156979918Y-101173277D01*
X156975962Y-101169925D01*
X156972278Y-101166241D01*
X156955826Y-101154484D01*
X156951107Y-101150941D01*
X156950340Y-101150336D01*
X156911307Y-101119565D01*
X156902761Y-101116564D01*
X156895396Y-101111301D01*
X156885422Y-101108318D01*
X156885420Y-101108317D01*
X156850788Y-101097960D01*
X156846863Y-101096786D01*
X156841248Y-101094962D01*
X156793419Y-101078166D01*
X156785729Y-101077500D01*
X156783016Y-101077500D01*
X156782268Y-101077468D01*
X156775689Y-101075500D01*
X156727668Y-101077387D01*
X156727261Y-101077403D01*
X156722314Y-101077500D01*
X152572225Y-101077500D01*
X152504104Y-101057498D01*
X152476441Y-101030324D01*
X152476337Y-101030428D01*
X152467558Y-101021649D01*
X152460666Y-101011334D01*
X152450350Y-101004441D01*
X152388093Y-100962842D01*
X152388091Y-100962841D01*
X152377776Y-100955949D01*
X152280000Y-100936500D01*
X152104547Y-100936500D01*
X152036426Y-100916498D01*
X151989933Y-100862842D01*
X151979829Y-100792568D01*
X151993810Y-100750388D01*
X151995554Y-100747176D01*
X151998278Y-100742160D01*
X152001546Y-100736499D01*
X152009540Y-100723454D01*
X152011358Y-100718526D01*
X152014940Y-100711930D01*
X152018081Y-100707723D01*
X152024669Y-100693913D01*
X152027652Y-100688059D01*
X152031991Y-100680067D01*
X152031994Y-100680060D01*
X152034943Y-100674628D01*
X152036497Y-100669623D01*
X152039734Y-100662837D01*
X152042648Y-100658475D01*
X152048497Y-100644354D01*
X152051173Y-100638344D01*
X152055093Y-100630126D01*
X152057756Y-100624543D01*
X152059048Y-100619456D01*
X152061921Y-100612519D01*
X152064604Y-100608010D01*
X152069706Y-100593602D01*
X152072071Y-100587441D01*
X152072111Y-100587345D01*
X152077915Y-100573333D01*
X152078938Y-100568189D01*
X152081444Y-100561111D01*
X152083889Y-100556464D01*
X152088228Y-100541817D01*
X152090266Y-100535543D01*
X152090856Y-100533879D01*
X152095367Y-100521140D01*
X152096121Y-100515943D01*
X152098254Y-100508740D01*
X152100452Y-100503973D01*
X152104020Y-100489112D01*
X152105721Y-100482762D01*
X152108305Y-100474039D01*
X152110064Y-100468101D01*
X152110544Y-100462872D01*
X152112297Y-100455574D01*
X152114242Y-100450698D01*
X152117030Y-100435657D01*
X152118400Y-100429212D01*
X152120520Y-100420382D01*
X152120520Y-100420380D01*
X152121965Y-100414362D01*
X152122171Y-100409120D01*
X152123540Y-100401736D01*
X152125227Y-100396768D01*
X152127221Y-100381623D01*
X152128253Y-100375106D01*
X152128345Y-100374609D01*
X152131037Y-100360086D01*
X152130968Y-100354838D01*
X152131949Y-100347386D01*
X152133374Y-100342336D01*
X152134576Y-100327065D01*
X152135262Y-100320545D01*
X152136447Y-100311542D01*
X152137256Y-100305399D01*
X152136912Y-100300153D01*
X152137502Y-100292670D01*
X152138660Y-100287552D01*
X152138898Y-100278461D01*
X152139060Y-100272288D01*
X152139405Y-100265707D01*
X152140118Y-100256643D01*
X152140118Y-100256640D01*
X152140604Y-100250463D01*
X152140019Y-100245521D01*
X152140213Y-100240580D01*
X152140500Y-100239137D01*
X152140500Y-100218925D01*
X152140543Y-100215630D01*
X152140851Y-100203857D01*
X152141070Y-100203863D01*
X152141005Y-100202963D01*
X152141072Y-100202573D01*
X152140978Y-100199000D01*
X152141072Y-100195427D01*
X152141005Y-100195037D01*
X152141070Y-100194137D01*
X152140851Y-100194143D01*
X152140543Y-100182370D01*
X152140500Y-100179075D01*
X152140500Y-100158863D01*
X152140213Y-100157420D01*
X152140019Y-100152479D01*
X152140604Y-100147537D01*
X152139892Y-100138490D01*
X152139405Y-100132293D01*
X152139060Y-100125712D01*
X152138822Y-100116637D01*
X152138660Y-100110448D01*
X152137502Y-100105330D01*
X152136912Y-100097847D01*
X152137256Y-100092601D01*
X152135261Y-100077443D01*
X152134576Y-100070935D01*
X152133374Y-100055664D01*
X152131949Y-100050614D01*
X152130968Y-100043162D01*
X152131037Y-100037914D01*
X152128253Y-100022891D01*
X152127221Y-100016377D01*
X152126035Y-100007367D01*
X152126034Y-100007364D01*
X152125227Y-100001232D01*
X152123540Y-99996264D01*
X152122171Y-99988880D01*
X152121965Y-99983638D01*
X152120298Y-99976692D01*
X152118400Y-99968788D01*
X152117029Y-99962339D01*
X152115711Y-99955225D01*
X152114242Y-99947302D01*
X152112297Y-99942426D01*
X152110544Y-99935128D01*
X152110064Y-99929899D01*
X152105718Y-99915226D01*
X152104020Y-99908888D01*
X152100452Y-99894027D01*
X152098254Y-99889260D01*
X152096121Y-99882057D01*
X152095367Y-99876860D01*
X152090261Y-99862443D01*
X152088227Y-99856181D01*
X152085648Y-99847473D01*
X152085647Y-99847470D01*
X152083889Y-99841536D01*
X152081444Y-99836889D01*
X152078938Y-99829811D01*
X152077915Y-99824667D01*
X152072071Y-99810559D01*
X152069706Y-99804398D01*
X152066671Y-99795827D01*
X152066671Y-99795826D01*
X152064604Y-99789990D01*
X152061921Y-99785481D01*
X152059048Y-99778544D01*
X152057756Y-99773457D01*
X152051172Y-99759654D01*
X152048497Y-99753646D01*
X152042648Y-99739525D01*
X152039734Y-99735163D01*
X152036497Y-99728377D01*
X152034943Y-99723372D01*
X152031994Y-99717940D01*
X152031991Y-99717933D01*
X152027652Y-99709941D01*
X152024662Y-99704074D01*
X152020747Y-99695866D01*
X152018081Y-99690277D01*
X152014940Y-99686070D01*
X152011358Y-99679474D01*
X152009540Y-99674546D01*
X152001546Y-99661502D01*
X151998262Y-99655812D01*
X151996642Y-99652827D01*
X151990970Y-99642381D01*
X151987616Y-99638349D01*
X151983689Y-99631941D01*
X151981620Y-99627124D01*
X151978118Y-99622028D01*
X151978114Y-99622021D01*
X151972959Y-99614521D01*
X151969364Y-99608986D01*
X151964620Y-99601245D01*
X151961387Y-99595969D01*
X151957831Y-99592123D01*
X151953577Y-99585935D01*
X151951251Y-99581219D01*
X151941955Y-99569105D01*
X151938081Y-99563772D01*
X151932928Y-99556274D01*
X151929423Y-99551174D01*
X151925659Y-99547508D01*
X151921088Y-99541552D01*
X151918523Y-99536971D01*
X151908610Y-99525364D01*
X151904460Y-99520240D01*
X151898918Y-99513018D01*
X151895149Y-99508106D01*
X151891203Y-99504646D01*
X151886323Y-99498932D01*
X151883524Y-99494495D01*
X151873007Y-99483413D01*
X151868591Y-99478508D01*
X151862696Y-99471606D01*
X151858672Y-99466894D01*
X151854546Y-99463642D01*
X151849379Y-99458196D01*
X151846353Y-99453914D01*
X151835266Y-99443392D01*
X151830608Y-99438734D01*
X151824348Y-99432138D01*
X151820086Y-99427647D01*
X151815804Y-99424621D01*
X151810354Y-99419448D01*
X151807106Y-99415328D01*
X151795491Y-99405408D01*
X151790586Y-99400992D01*
X151783992Y-99394734D01*
X151783991Y-99394733D01*
X151779505Y-99390476D01*
X151775068Y-99387677D01*
X151769354Y-99382797D01*
X151765894Y-99378851D01*
X151753760Y-99369540D01*
X151748636Y-99365390D01*
X151741739Y-99359499D01*
X151741735Y-99359496D01*
X151737029Y-99355477D01*
X151732448Y-99352912D01*
X151726490Y-99348340D01*
X151722826Y-99344578D01*
X151710233Y-99335923D01*
X151704922Y-99332065D01*
X151692781Y-99322749D01*
X151688068Y-99320424D01*
X151681881Y-99316172D01*
X151678031Y-99312613D01*
X151665002Y-99304629D01*
X151659487Y-99301048D01*
X151646876Y-99292381D01*
X151644882Y-99291524D01*
X151600904Y-99250407D01*
X151538074Y-99152640D01*
X151526388Y-99139153D01*
X151429660Y-99055338D01*
X151414652Y-99045693D01*
X151298225Y-98992523D01*
X151281112Y-98987498D01*
X151149946Y-98968639D01*
X151141005Y-98968000D01*
X151047757Y-98968000D01*
X151043250Y-98968161D01*
X150979231Y-98972740D01*
X150966009Y-98975126D01*
X150841042Y-99011819D01*
X150824808Y-99019233D01*
X150717140Y-99088426D01*
X150703653Y-99100112D01*
X150619840Y-99196838D01*
X150610192Y-99211851D01*
X150609311Y-99213781D01*
X150608002Y-99215260D01*
X150605323Y-99219428D01*
X150604678Y-99219013D01*
X150560531Y-99268872D01*
X150552518Y-99273783D01*
X150546821Y-99277072D01*
X150533385Y-99284367D01*
X150529284Y-99287778D01*
X150522577Y-99291888D01*
X150517674Y-99293995D01*
X150505059Y-99302665D01*
X150499548Y-99306244D01*
X150486522Y-99314226D01*
X150482606Y-99317846D01*
X150476125Y-99322300D01*
X150471341Y-99324659D01*
X150459214Y-99333965D01*
X150453887Y-99337835D01*
X150446399Y-99342981D01*
X150446395Y-99342984D01*
X150441294Y-99346490D01*
X150437575Y-99350309D01*
X150431333Y-99355098D01*
X150426676Y-99357706D01*
X150421965Y-99361730D01*
X150415044Y-99367641D01*
X150409916Y-99371793D01*
X150402723Y-99377312D01*
X150402721Y-99377314D01*
X150397813Y-99381080D01*
X150394298Y-99385088D01*
X150388312Y-99390200D01*
X150383802Y-99393046D01*
X150379313Y-99397307D01*
X150379312Y-99397307D01*
X150372711Y-99403571D01*
X150367813Y-99407981D01*
X150356202Y-99417898D01*
X150352901Y-99422085D01*
X150347195Y-99427500D01*
X150342843Y-99430575D01*
X150338586Y-99435061D01*
X150338579Y-99435067D01*
X150332315Y-99441668D01*
X150327653Y-99446331D01*
X150316575Y-99456844D01*
X150313499Y-99461196D01*
X150308087Y-99466899D01*
X150303897Y-99470202D01*
X150299880Y-99474906D01*
X150299868Y-99474917D01*
X150293967Y-99481827D01*
X150289554Y-99486729D01*
X150279046Y-99497802D01*
X150276199Y-99502314D01*
X150271091Y-99508295D01*
X150267079Y-99511813D01*
X150263307Y-99516729D01*
X150263306Y-99516730D01*
X150257782Y-99523929D01*
X150253630Y-99529057D01*
X150243706Y-99540676D01*
X150241098Y-99545333D01*
X150236310Y-99551572D01*
X150232490Y-99555294D01*
X150223823Y-99567905D01*
X150219962Y-99573218D01*
X150214426Y-99580432D01*
X150214424Y-99580436D01*
X150210659Y-99585342D01*
X150208301Y-99590123D01*
X150203846Y-99596605D01*
X150200226Y-99600522D01*
X150196988Y-99605806D01*
X150192247Y-99613542D01*
X150188665Y-99619059D01*
X150179995Y-99631674D01*
X150177891Y-99636571D01*
X150173781Y-99643280D01*
X150170367Y-99647384D01*
X150167412Y-99652827D01*
X150163073Y-99660819D01*
X150159787Y-99666511D01*
X150151799Y-99679545D01*
X150149952Y-99684551D01*
X150146195Y-99691469D01*
X150143011Y-99695733D01*
X150140348Y-99701316D01*
X150136429Y-99709532D01*
X150133436Y-99715406D01*
X150126145Y-99728835D01*
X150124566Y-99733921D01*
X150121181Y-99741020D01*
X150118215Y-99745459D01*
X150115848Y-99751173D01*
X150115845Y-99751179D01*
X150112369Y-99759572D01*
X150109702Y-99765565D01*
X150103110Y-99779384D01*
X150101796Y-99784557D01*
X150098785Y-99791824D01*
X150096060Y-99796405D01*
X150090950Y-99810835D01*
X150088595Y-99816969D01*
X150082748Y-99831086D01*
X150081709Y-99836309D01*
X150079081Y-99843730D01*
X150076598Y-99848450D01*
X150074839Y-99854388D01*
X150074837Y-99854393D01*
X150072255Y-99863109D01*
X150070219Y-99869375D01*
X150065122Y-99883770D01*
X150064356Y-99889051D01*
X150062122Y-99896592D01*
X150059890Y-99901434D01*
X150056576Y-99915238D01*
X150056322Y-99916295D01*
X150054616Y-99922661D01*
X150052035Y-99931376D01*
X150050276Y-99937315D01*
X150049789Y-99942620D01*
X150047954Y-99950267D01*
X150045976Y-99955225D01*
X150044848Y-99961312D01*
X150044846Y-99961318D01*
X150043191Y-99970246D01*
X150041821Y-99976692D01*
X150038253Y-99991554D01*
X150038044Y-99996878D01*
X150036609Y-100004623D01*
X150034896Y-100009670D01*
X150034089Y-100015796D01*
X150034089Y-100015798D01*
X150032900Y-100024830D01*
X150031869Y-100031334D01*
X150029086Y-100046353D01*
X150029156Y-100051682D01*
X150028129Y-100059487D01*
X150026681Y-100064619D01*
X150026196Y-100070787D01*
X150026195Y-100070790D01*
X150025481Y-100079867D01*
X150024792Y-100086417D01*
X150022799Y-100101558D01*
X150023147Y-100106876D01*
X150022530Y-100114726D01*
X150021354Y-100119922D01*
X150021192Y-100126105D01*
X150021192Y-100126106D01*
X150020954Y-100135190D01*
X150020609Y-100141771D01*
X150019927Y-100150445D01*
X150019410Y-100157015D01*
X150020009Y-100162072D01*
X150019802Y-100167345D01*
X150019500Y-100168863D01*
X150019500Y-100189076D01*
X150019457Y-100192370D01*
X150019149Y-100204147D01*
X150018928Y-100204141D01*
X150018994Y-100205050D01*
X150018928Y-100205431D01*
X150019021Y-100209001D01*
X150018928Y-100212571D01*
X150018994Y-100212952D01*
X150018928Y-100213859D01*
X150019149Y-100213853D01*
X150019149Y-100213855D01*
X150019239Y-100217274D01*
X150019457Y-100225619D01*
X150019500Y-100228916D01*
X150019500Y-100249137D01*
X150019772Y-100250506D01*
X150019953Y-100255118D01*
X150019383Y-100259939D01*
X150019869Y-100266114D01*
X150019869Y-100266116D01*
X150020581Y-100275160D01*
X150020927Y-100281750D01*
X150021327Y-100297033D01*
X150022467Y-100302073D01*
X150023028Y-100309193D01*
X150022690Y-100314349D01*
X150024685Y-100329506D01*
X150025372Y-100336037D01*
X150026572Y-100351290D01*
X150027973Y-100356259D01*
X150028908Y-100363355D01*
X150028840Y-100368516D01*
X150029969Y-100374608D01*
X150029969Y-100374609D01*
X150031622Y-100383531D01*
X150032654Y-100390046D01*
X150034649Y-100405199D01*
X150036310Y-100410092D01*
X150037614Y-100417131D01*
X150037817Y-100422290D01*
X150039262Y-100428309D01*
X150041382Y-100437140D01*
X150042752Y-100443586D01*
X150045538Y-100458615D01*
X150047454Y-100463416D01*
X150049124Y-100470374D01*
X150049595Y-100475507D01*
X150053931Y-100490145D01*
X150055635Y-100496507D01*
X150057763Y-100505368D01*
X150057765Y-100505373D01*
X150059210Y-100511392D01*
X150061370Y-100516077D01*
X150063401Y-100522934D01*
X150064142Y-100528044D01*
X150066208Y-100533878D01*
X150066208Y-100533879D01*
X150069249Y-100542468D01*
X150071283Y-100548730D01*
X150075619Y-100563367D01*
X150078023Y-100567937D01*
X150080411Y-100574680D01*
X150081420Y-100579752D01*
X150083790Y-100585473D01*
X150083791Y-100585477D01*
X150087268Y-100593871D01*
X150089630Y-100600022D01*
X150094729Y-100614423D01*
X150097373Y-100618867D01*
X150100110Y-100625474D01*
X150101381Y-100630479D01*
X150104046Y-100636066D01*
X150107954Y-100644260D01*
X150110632Y-100650275D01*
X150116488Y-100664410D01*
X150119357Y-100668703D01*
X150122434Y-100675153D01*
X150123966Y-100680088D01*
X150126924Y-100685535D01*
X150131246Y-100693495D01*
X150134240Y-100699368D01*
X150140830Y-100713186D01*
X150143921Y-100717325D01*
X150147333Y-100723609D01*
X150149119Y-100728451D01*
X150152352Y-100733727D01*
X150152355Y-100733733D01*
X150157097Y-100741471D01*
X150160391Y-100747176D01*
X150162127Y-100750373D01*
X150177057Y-100819783D01*
X150152090Y-100886245D01*
X150095155Y-100928658D01*
X150051399Y-100936500D01*
X149880000Y-100936500D01*
X149782224Y-100955949D01*
X149771909Y-100962841D01*
X149771907Y-100962842D01*
X149709650Y-101004441D01*
X149699334Y-101011334D01*
X149692442Y-101021649D01*
X149683663Y-101030428D01*
X149682841Y-101029606D01*
X149638066Y-101067028D01*
X149587775Y-101077500D01*
X145484599Y-101077500D01*
X145463828Y-101075289D01*
X145460102Y-101075113D01*
X145449924Y-101072922D01*
X145419601Y-101076511D01*
X145418621Y-101076627D01*
X145412335Y-101076998D01*
X145412341Y-101077072D01*
X145407165Y-101077500D01*
X145401961Y-101077500D01*
X145382014Y-101080820D01*
X145376191Y-101081649D01*
X145352637Y-101084437D01*
X145336182Y-101086384D01*
X145336180Y-101086384D01*
X145325843Y-101087608D01*
X145317678Y-101091529D01*
X145308749Y-101093015D01*
X145299587Y-101097959D01*
X145299583Y-101097960D01*
X145264170Y-101117068D01*
X145258880Y-101119763D01*
X145220360Y-101138260D01*
X145220356Y-101138263D01*
X145213210Y-101141694D01*
X145207302Y-101146661D01*
X145205358Y-101148605D01*
X145204838Y-101149082D01*
X145198789Y-101152346D01*
X145191721Y-101159992D01*
X145165876Y-101187951D01*
X145162446Y-101191517D01*
X143231675Y-103122288D01*
X143215421Y-103135416D01*
X143212668Y-103137921D01*
X143203919Y-103143570D01*
X143197472Y-103151748D01*
X143184403Y-103168326D01*
X143180220Y-103173033D01*
X143180277Y-103173082D01*
X143176925Y-103177038D01*
X143173241Y-103180722D01*
X143161484Y-103197174D01*
X143157943Y-103201890D01*
X143126565Y-103241693D01*
X143123564Y-103250239D01*
X143118301Y-103257604D01*
X143105043Y-103301936D01*
X143103789Y-103306128D01*
X143101962Y-103311752D01*
X143085166Y-103359581D01*
X143084500Y-103367271D01*
X143084500Y-103369984D01*
X143084468Y-103370732D01*
X143082500Y-103377311D01*
X143082909Y-103387718D01*
X143084403Y-103425739D01*
X143084500Y-103430686D01*
X143084500Y-105293648D01*
X143064498Y-105361769D01*
X143010842Y-105408262D01*
X142970848Y-105419041D01*
X142966188Y-105419500D01*
X142960000Y-105419500D01*
X142862224Y-105438949D01*
X142851909Y-105445841D01*
X142851907Y-105445842D01*
X142816749Y-105469334D01*
X142779334Y-105494334D01*
X142772441Y-105504650D01*
X142730842Y-105566907D01*
X142730841Y-105566909D01*
X142723949Y-105577224D01*
X142704500Y-105675000D01*
X141330000Y-105675000D01*
X141330000Y-98651000D01*
X141350002Y-98582879D01*
X141403658Y-98536386D01*
X141456000Y-98525000D01*
X160704000Y-98525000D01*
X160772121Y-98545002D01*
G37*
%TD.AperFunction*%
%TD*%
M02*
