G04 #@! TF.GenerationSoftware,KiCad,Pcbnew,(5.99.0-11065-g2a3d8e22b6)*
G04 #@! TF.CreationDate,2021-07-08T09:19:05+01:00*
G04 #@! TF.ProjectId,NB3_ear,4e42335f-6561-4722-9e6b-696361645f70,0.0.1*
G04 #@! TF.SameCoordinates,PX868b5c0PY6ee3738*
G04 #@! TF.FileFunction,Copper,L1,Top*
G04 #@! TF.FilePolarity,Positive*
%FSLAX46Y46*%
G04 Gerber Fmt 4.6, Leading zero omitted, Abs format (unit mm)*
G04 Created by KiCad (PCBNEW (5.99.0-11065-g2a3d8e22b6)) date 2021-07-08 09:19:05*
%MOMM*%
%LPD*%
G01*
G04 APERTURE LIST*
G04 Aperture macros list*
%AMRoundRect*
0 Rectangle with rounded corners*
0 $1 Rounding radius*
0 $2 $3 $4 $5 $6 $7 $8 $9 X,Y pos of 4 corners*
0 Add a 4 corners polygon primitive as box body*
4,1,4,$2,$3,$4,$5,$6,$7,$8,$9,$2,$3,0*
0 Add four circle primitives for the rounded corners*
1,1,$1+$1,$2,$3*
1,1,$1+$1,$4,$5*
1,1,$1+$1,$6,$7*
1,1,$1+$1,$8,$9*
0 Add four rect primitives between the rounded corners*
20,1,$1+$1,$2,$3,$4,$5,0*
20,1,$1+$1,$4,$5,$6,$7,0*
20,1,$1+$1,$6,$7,$8,$9,0*
20,1,$1+$1,$8,$9,$2,$3,0*%
G04 Aperture macros list end*
G04 #@! TA.AperFunction,EtchedComponent*
%ADD10C,0.001000*%
G04 #@! TD*
G04 #@! TA.AperFunction,SMDPad,CuDef*
%ADD11R,0.600000X0.522000*%
G04 #@! TD*
G04 #@! TA.AperFunction,SMDPad,CuDef*
%ADD12R,0.100000X0.100000*%
G04 #@! TD*
G04 #@! TA.AperFunction,SMDPad,CuDef*
%ADD13RoundRect,0.140000X-0.170000X0.140000X-0.170000X-0.140000X0.170000X-0.140000X0.170000X0.140000X0*%
G04 #@! TD*
G04 #@! TA.AperFunction,SMDPad,CuDef*
%ADD14RoundRect,0.135000X0.185000X-0.135000X0.185000X0.135000X-0.185000X0.135000X-0.185000X-0.135000X0*%
G04 #@! TD*
G04 #@! TA.AperFunction,SMDPad,CuDef*
%ADD15R,1.000000X3.150000*%
G04 #@! TD*
G04 #@! TA.AperFunction,ViaPad*
%ADD16C,0.800000*%
G04 #@! TD*
G04 #@! TA.AperFunction,Conductor*
%ADD17C,0.250000*%
G04 #@! TD*
G04 APERTURE END LIST*
D10*
X10010000Y15261000D02*
X10010000Y15561000D01*
X10010000Y15561000D02*
X10036168Y15561685D01*
X10036168Y15561685D02*
X10062264Y15563739D01*
X10062264Y15563739D02*
X10088217Y15567156D01*
X10088217Y15567156D02*
X10113956Y15571926D01*
X10113956Y15571926D02*
X10139410Y15578037D01*
X10139410Y15578037D02*
X10164508Y15585472D01*
X10164508Y15585472D02*
X10189184Y15594210D01*
X10189184Y15594210D02*
X10213368Y15604227D01*
X10213368Y15604227D02*
X10236995Y15615497D01*
X10236995Y15615497D02*
X10260000Y15627987D01*
X10260000Y15627987D02*
X10282320Y15641665D01*
X10282320Y15641665D02*
X10303893Y15656492D01*
X10303893Y15656492D02*
X10324660Y15672427D01*
X10324660Y15672427D02*
X10344565Y15689428D01*
X10344565Y15689428D02*
X10363553Y15707447D01*
X10363553Y15707447D02*
X10381572Y15726435D01*
X10381572Y15726435D02*
X10398573Y15746340D01*
X10398573Y15746340D02*
X10414508Y15767107D01*
X10414508Y15767107D02*
X10429335Y15788680D01*
X10429335Y15788680D02*
X10443013Y15811000D01*
X10443013Y15811000D02*
X10455503Y15834005D01*
X10455503Y15834005D02*
X10466773Y15857632D01*
X10466773Y15857632D02*
X10476790Y15881816D01*
X10476790Y15881816D02*
X10485528Y15906492D01*
X10485528Y15906492D02*
X10492963Y15931590D01*
X10492963Y15931590D02*
X10499074Y15957044D01*
X10499074Y15957044D02*
X10503844Y15982783D01*
X10503844Y15982783D02*
X10507261Y16008736D01*
X10507261Y16008736D02*
X10509315Y16034832D01*
X10509315Y16034832D02*
X10510000Y16061000D01*
X10510000Y16061000D02*
X10510000Y16081000D01*
X10510000Y16081000D02*
X10509301Y16107691D01*
X10509301Y16107691D02*
X10507206Y16134310D01*
X10507206Y16134310D02*
X10503721Y16160782D01*
X10503721Y16160782D02*
X10498855Y16187035D01*
X10498855Y16187035D02*
X10492622Y16212998D01*
X10492622Y16212998D02*
X10485039Y16238599D01*
X10485039Y16238599D02*
X10476126Y16263768D01*
X10476126Y16263768D02*
X10465908Y16288436D01*
X10465908Y16288436D02*
X10454413Y16312535D01*
X10454413Y16312535D02*
X10441673Y16336000D01*
X10441673Y16336000D02*
X10427722Y16358766D01*
X10427722Y16358766D02*
X10412599Y16380770D01*
X10412599Y16380770D02*
X10396344Y16401953D01*
X10396344Y16401953D02*
X10379004Y16422257D01*
X10379004Y16422257D02*
X10360624Y16441624D01*
X10360624Y16441624D02*
X10341257Y16460004D01*
X10341257Y16460004D02*
X10320953Y16477344D01*
X10320953Y16477344D02*
X10299770Y16493599D01*
X10299770Y16493599D02*
X10277766Y16508722D01*
X10277766Y16508722D02*
X10255000Y16522673D01*
X10255000Y16522673D02*
X10231535Y16535413D01*
X10231535Y16535413D02*
X10207436Y16546908D01*
X10207436Y16546908D02*
X10182768Y16557126D01*
X10182768Y16557126D02*
X10157599Y16566039D01*
X10157599Y16566039D02*
X10131998Y16573622D01*
X10131998Y16573622D02*
X10106035Y16579855D01*
X10106035Y16579855D02*
X10079782Y16584721D01*
X10079782Y16584721D02*
X10053310Y16588206D01*
X10053310Y16588206D02*
X10026691Y16590301D01*
X10026691Y16590301D02*
X10000000Y16591000D01*
X10000000Y16591000D02*
X9990000Y16591000D01*
X9990000Y16591000D02*
X9963832Y16590315D01*
X9963832Y16590315D02*
X9937736Y16588261D01*
X9937736Y16588261D02*
X9911783Y16584844D01*
X9911783Y16584844D02*
X9886044Y16580074D01*
X9886044Y16580074D02*
X9860590Y16573963D01*
X9860590Y16573963D02*
X9835492Y16566528D01*
X9835492Y16566528D02*
X9810816Y16557790D01*
X9810816Y16557790D02*
X9786632Y16547773D01*
X9786632Y16547773D02*
X9763005Y16536503D01*
X9763005Y16536503D02*
X9740000Y16524013D01*
X9740000Y16524013D02*
X9717680Y16510335D01*
X9717680Y16510335D02*
X9696107Y16495508D01*
X9696107Y16495508D02*
X9675340Y16479573D01*
X9675340Y16479573D02*
X9655435Y16462572D01*
X9655435Y16462572D02*
X9636447Y16444553D01*
X9636447Y16444553D02*
X9618428Y16425565D01*
X9618428Y16425565D02*
X9601427Y16405660D01*
X9601427Y16405660D02*
X9585492Y16384893D01*
X9585492Y16384893D02*
X9570665Y16363320D01*
X9570665Y16363320D02*
X9556987Y16341000D01*
X9556987Y16341000D02*
X9544497Y16317995D01*
X9544497Y16317995D02*
X9533227Y16294368D01*
X9533227Y16294368D02*
X9523210Y16270184D01*
X9523210Y16270184D02*
X9514472Y16245508D01*
X9514472Y16245508D02*
X9507037Y16220410D01*
X9507037Y16220410D02*
X9500926Y16194956D01*
X9500926Y16194956D02*
X9496156Y16169217D01*
X9496156Y16169217D02*
X9492739Y16143264D01*
X9492739Y16143264D02*
X9490685Y16117168D01*
X9490685Y16117168D02*
X9490000Y16091000D01*
X9490000Y16091000D02*
X9490000Y16061000D01*
X9490000Y16061000D02*
X9490685Y16034832D01*
X9490685Y16034832D02*
X9492739Y16008736D01*
X9492739Y16008736D02*
X9496156Y15982783D01*
X9496156Y15982783D02*
X9500926Y15957044D01*
X9500926Y15957044D02*
X9507037Y15931590D01*
X9507037Y15931590D02*
X9514472Y15906492D01*
X9514472Y15906492D02*
X9523210Y15881816D01*
X9523210Y15881816D02*
X9533227Y15857632D01*
X9533227Y15857632D02*
X9544497Y15834005D01*
X9544497Y15834005D02*
X9556987Y15811000D01*
X9556987Y15811000D02*
X9570665Y15788680D01*
X9570665Y15788680D02*
X9585492Y15767107D01*
X9585492Y15767107D02*
X9601427Y15746340D01*
X9601427Y15746340D02*
X9618428Y15726435D01*
X9618428Y15726435D02*
X9636447Y15707447D01*
X9636447Y15707447D02*
X9655435Y15689428D01*
X9655435Y15689428D02*
X9675340Y15672427D01*
X9675340Y15672427D02*
X9696107Y15656492D01*
X9696107Y15656492D02*
X9717680Y15641665D01*
X9717680Y15641665D02*
X9740000Y15627987D01*
X9740000Y15627987D02*
X9763005Y15615497D01*
X9763005Y15615497D02*
X9786632Y15604227D01*
X9786632Y15604227D02*
X9810816Y15594210D01*
X9810816Y15594210D02*
X9835492Y15585472D01*
X9835492Y15585472D02*
X9860590Y15578037D01*
X9860590Y15578037D02*
X9886044Y15571926D01*
X9886044Y15571926D02*
X9911783Y15567156D01*
X9911783Y15567156D02*
X9937736Y15563739D01*
X9937736Y15563739D02*
X9963832Y15561685D01*
X9963832Y15561685D02*
X9990000Y15561000D01*
X9990000Y15561000D02*
X9990000Y15261000D01*
X9990000Y15261000D02*
X9980000Y15261000D01*
X9980000Y15261000D02*
X9938655Y15262083D01*
X9938655Y15262083D02*
X9897423Y15265328D01*
X9897423Y15265328D02*
X9856417Y15270726D01*
X9856417Y15270726D02*
X9815750Y15278263D01*
X9815750Y15278263D02*
X9775533Y15287919D01*
X9775533Y15287919D02*
X9735877Y15299665D01*
X9735877Y15299665D02*
X9696889Y15313471D01*
X9696889Y15313471D02*
X9658678Y15329299D01*
X9658678Y15329299D02*
X9621348Y15347105D01*
X9621348Y15347105D02*
X9585000Y15366840D01*
X9585000Y15366840D02*
X9549735Y15388450D01*
X9549735Y15388450D02*
X9515650Y15411877D01*
X9515650Y15411877D02*
X9482837Y15437055D01*
X9482837Y15437055D02*
X9451387Y15463916D01*
X9451387Y15463916D02*
X9421386Y15492386D01*
X9421386Y15492386D02*
X9392916Y15522387D01*
X9392916Y15522387D02*
X9366055Y15553837D01*
X9366055Y15553837D02*
X9340877Y15586650D01*
X9340877Y15586650D02*
X9317450Y15620735D01*
X9317450Y15620735D02*
X9295840Y15656000D01*
X9295840Y15656000D02*
X9276105Y15692348D01*
X9276105Y15692348D02*
X9258299Y15729678D01*
X9258299Y15729678D02*
X9242471Y15767889D01*
X9242471Y15767889D02*
X9228665Y15806877D01*
X9228665Y15806877D02*
X9216919Y15846533D01*
X9216919Y15846533D02*
X9207263Y15886750D01*
X9207263Y15886750D02*
X9199726Y15927417D01*
X9199726Y15927417D02*
X9194328Y15968423D01*
X9194328Y15968423D02*
X9191083Y16009655D01*
X9191083Y16009655D02*
X9190000Y16051000D01*
X9190000Y16051000D02*
X9190000Y16081000D01*
X9190000Y16081000D02*
X9191110Y16123392D01*
X9191110Y16123392D02*
X9194437Y16165668D01*
X9194437Y16165668D02*
X9199972Y16207712D01*
X9199972Y16207712D02*
X9207700Y16249408D01*
X9207700Y16249408D02*
X9217600Y16290643D01*
X9217600Y16290643D02*
X9229644Y16331304D01*
X9229644Y16331304D02*
X9243800Y16371278D01*
X9243800Y16371278D02*
X9260028Y16410457D01*
X9260028Y16410457D02*
X9278285Y16448732D01*
X9278285Y16448732D02*
X9298519Y16486000D01*
X9298519Y16486000D02*
X9320677Y16522158D01*
X9320677Y16522158D02*
X9344696Y16557106D01*
X9344696Y16557106D02*
X9370512Y16590750D01*
X9370512Y16590750D02*
X9398053Y16622996D01*
X9398053Y16622996D02*
X9427244Y16653756D01*
X9427244Y16653756D02*
X9458004Y16682947D01*
X9458004Y16682947D02*
X9490250Y16710488D01*
X9490250Y16710488D02*
X9523894Y16736304D01*
X9523894Y16736304D02*
X9558842Y16760323D01*
X9558842Y16760323D02*
X9595000Y16782481D01*
X9595000Y16782481D02*
X9632268Y16802715D01*
X9632268Y16802715D02*
X9670543Y16820972D01*
X9670543Y16820972D02*
X9709722Y16837200D01*
X9709722Y16837200D02*
X9749696Y16851356D01*
X9749696Y16851356D02*
X9790357Y16863400D01*
X9790357Y16863400D02*
X9831592Y16873300D01*
X9831592Y16873300D02*
X9873288Y16881028D01*
X9873288Y16881028D02*
X9915332Y16886563D01*
X9915332Y16886563D02*
X9957608Y16889890D01*
X9957608Y16889890D02*
X10000000Y16891000D01*
X10000000Y16891000D02*
X10010000Y16891000D01*
X10010000Y16891000D02*
X10051869Y16889904D01*
X10051869Y16889904D02*
X10093623Y16886618D01*
X10093623Y16886618D02*
X10135148Y16881151D01*
X10135148Y16881151D02*
X10176329Y16873518D01*
X10176329Y16873518D02*
X10217055Y16863741D01*
X10217055Y16863741D02*
X10257214Y16851845D01*
X10257214Y16851845D02*
X10296694Y16837864D01*
X10296694Y16837864D02*
X10335389Y16821836D01*
X10335389Y16821836D02*
X10373192Y16803805D01*
X10373192Y16803805D02*
X10410000Y16783820D01*
X10410000Y16783820D02*
X10445711Y16761936D01*
X10445711Y16761936D02*
X10480228Y16738214D01*
X10480228Y16738214D02*
X10513456Y16712717D01*
X10513456Y16712717D02*
X10545304Y16685516D01*
X10545304Y16685516D02*
X10575685Y16656685D01*
X10575685Y16656685D02*
X10604516Y16626304D01*
X10604516Y16626304D02*
X10631717Y16594456D01*
X10631717Y16594456D02*
X10657214Y16561228D01*
X10657214Y16561228D02*
X10680936Y16526711D01*
X10680936Y16526711D02*
X10702820Y16491000D01*
X10702820Y16491000D02*
X10722805Y16454192D01*
X10722805Y16454192D02*
X10740836Y16416389D01*
X10740836Y16416389D02*
X10756864Y16377694D01*
X10756864Y16377694D02*
X10770845Y16338214D01*
X10770845Y16338214D02*
X10782741Y16298055D01*
X10782741Y16298055D02*
X10792518Y16257329D01*
X10792518Y16257329D02*
X10800151Y16216148D01*
X10800151Y16216148D02*
X10805618Y16174623D01*
X10805618Y16174623D02*
X10808904Y16132869D01*
X10808904Y16132869D02*
X10810000Y16091000D01*
X10810000Y16091000D02*
X10810000Y16061000D01*
X10810000Y16061000D02*
X10808904Y16019131D01*
X10808904Y16019131D02*
X10805618Y15977377D01*
X10805618Y15977377D02*
X10800151Y15935852D01*
X10800151Y15935852D02*
X10792518Y15894671D01*
X10792518Y15894671D02*
X10782741Y15853945D01*
X10782741Y15853945D02*
X10770845Y15813786D01*
X10770845Y15813786D02*
X10756864Y15774306D01*
X10756864Y15774306D02*
X10740836Y15735611D01*
X10740836Y15735611D02*
X10722805Y15697808D01*
X10722805Y15697808D02*
X10702820Y15661000D01*
X10702820Y15661000D02*
X10680936Y15625289D01*
X10680936Y15625289D02*
X10657214Y15590772D01*
X10657214Y15590772D02*
X10631717Y15557544D01*
X10631717Y15557544D02*
X10604516Y15525696D01*
X10604516Y15525696D02*
X10575685Y15495315D01*
X10575685Y15495315D02*
X10545304Y15466484D01*
X10545304Y15466484D02*
X10513456Y15439283D01*
X10513456Y15439283D02*
X10480228Y15413786D01*
X10480228Y15413786D02*
X10445711Y15390064D01*
X10445711Y15390064D02*
X10410000Y15368180D01*
X10410000Y15368180D02*
X10373192Y15348195D01*
X10373192Y15348195D02*
X10335389Y15330164D01*
X10335389Y15330164D02*
X10296694Y15314136D01*
X10296694Y15314136D02*
X10257214Y15300155D01*
X10257214Y15300155D02*
X10217055Y15288259D01*
X10217055Y15288259D02*
X10176329Y15278482D01*
X10176329Y15278482D02*
X10135148Y15270849D01*
X10135148Y15270849D02*
X10093623Y15265382D01*
X10093623Y15265382D02*
X10051869Y15262096D01*
X10051869Y15262096D02*
X10010000Y15261000D01*
X10010000Y15261000D02*
X10010000Y15261000D01*
G36*
X10051869Y16889904D02*
G01*
X10093623Y16886618D01*
X10135148Y16881151D01*
X10176329Y16873518D01*
X10217055Y16863741D01*
X10257214Y16851845D01*
X10296694Y16837864D01*
X10335389Y16821836D01*
X10373192Y16803805D01*
X10410000Y16783820D01*
X10445711Y16761936D01*
X10480228Y16738214D01*
X10513456Y16712717D01*
X10545304Y16685516D01*
X10575685Y16656685D01*
X10604516Y16626304D01*
X10631717Y16594456D01*
X10657214Y16561228D01*
X10680936Y16526711D01*
X10702820Y16491000D01*
X10722805Y16454192D01*
X10740836Y16416389D01*
X10756864Y16377694D01*
X10770845Y16338214D01*
X10782741Y16298055D01*
X10792518Y16257329D01*
X10800151Y16216148D01*
X10805618Y16174623D01*
X10808904Y16132869D01*
X10810000Y16091000D01*
X10810000Y16061000D01*
X10808904Y16019131D01*
X10805618Y15977377D01*
X10800151Y15935852D01*
X10792518Y15894671D01*
X10782741Y15853945D01*
X10770845Y15813786D01*
X10756864Y15774306D01*
X10740836Y15735611D01*
X10722805Y15697808D01*
X10702820Y15661000D01*
X10680936Y15625289D01*
X10657214Y15590772D01*
X10631717Y15557544D01*
X10604516Y15525696D01*
X10575685Y15495315D01*
X10545304Y15466484D01*
X10513456Y15439283D01*
X10480228Y15413786D01*
X10445711Y15390064D01*
X10410000Y15368180D01*
X10373192Y15348195D01*
X10335389Y15330164D01*
X10296694Y15314136D01*
X10257214Y15300155D01*
X10217055Y15288259D01*
X10176329Y15278482D01*
X10135148Y15270849D01*
X10093623Y15265382D01*
X10051869Y15262096D01*
X10010000Y15261000D01*
X10010000Y15561000D01*
X10036168Y15561685D01*
X10062264Y15563739D01*
X10088217Y15567156D01*
X10113956Y15571926D01*
X10139410Y15578037D01*
X10164508Y15585472D01*
X10189184Y15594210D01*
X10213368Y15604227D01*
X10236995Y15615497D01*
X10260000Y15627987D01*
X10282320Y15641665D01*
X10303893Y15656492D01*
X10324660Y15672427D01*
X10344565Y15689428D01*
X10363553Y15707447D01*
X10381572Y15726435D01*
X10398573Y15746340D01*
X10414508Y15767107D01*
X10429335Y15788680D01*
X10443013Y15811000D01*
X10455503Y15834005D01*
X10466773Y15857632D01*
X10476790Y15881816D01*
X10485528Y15906492D01*
X10492963Y15931590D01*
X10499074Y15957044D01*
X10503844Y15982783D01*
X10507261Y16008736D01*
X10509315Y16034832D01*
X10510000Y16061000D01*
X10510000Y16081000D01*
X10509301Y16107691D01*
X10507206Y16134310D01*
X10503721Y16160782D01*
X10498855Y16187035D01*
X10492622Y16212998D01*
X10485039Y16238599D01*
X10476126Y16263768D01*
X10465908Y16288436D01*
X10454413Y16312535D01*
X10441673Y16336000D01*
X10427722Y16358766D01*
X10412599Y16380770D01*
X10396344Y16401953D01*
X10379004Y16422257D01*
X10360624Y16441624D01*
X10341257Y16460004D01*
X10320953Y16477344D01*
X10299770Y16493599D01*
X10277766Y16508722D01*
X10255000Y16522673D01*
X10231535Y16535413D01*
X10207436Y16546908D01*
X10182768Y16557126D01*
X10157599Y16566039D01*
X10131998Y16573622D01*
X10106035Y16579855D01*
X10079782Y16584721D01*
X10053310Y16588206D01*
X10026691Y16590301D01*
X10000000Y16591000D01*
X9990000Y16591000D01*
X9963832Y16590315D01*
X9937736Y16588261D01*
X9911783Y16584844D01*
X9886044Y16580074D01*
X9860590Y16573963D01*
X9835492Y16566528D01*
X9810816Y16557790D01*
X9786632Y16547773D01*
X9763005Y16536503D01*
X9740000Y16524013D01*
X9717680Y16510335D01*
X9696107Y16495508D01*
X9675340Y16479573D01*
X9655435Y16462572D01*
X9636447Y16444553D01*
X9618428Y16425565D01*
X9601427Y16405660D01*
X9585492Y16384893D01*
X9570665Y16363320D01*
X9556987Y16341000D01*
X9544497Y16317995D01*
X9533227Y16294368D01*
X9523210Y16270184D01*
X9514472Y16245508D01*
X9507037Y16220410D01*
X9500926Y16194956D01*
X9496156Y16169217D01*
X9492739Y16143264D01*
X9490685Y16117168D01*
X9490000Y16091000D01*
X9490000Y16061000D01*
X9490685Y16034832D01*
X9492739Y16008736D01*
X9496156Y15982783D01*
X9500926Y15957044D01*
X9507037Y15931590D01*
X9514472Y15906492D01*
X9523210Y15881816D01*
X9533227Y15857632D01*
X9544497Y15834005D01*
X9556987Y15811000D01*
X9570665Y15788680D01*
X9585492Y15767107D01*
X9601427Y15746340D01*
X9618428Y15726435D01*
X9636447Y15707447D01*
X9655435Y15689428D01*
X9675340Y15672427D01*
X9696107Y15656492D01*
X9717680Y15641665D01*
X9740000Y15627987D01*
X9763005Y15615497D01*
X9786632Y15604227D01*
X9810816Y15594210D01*
X9835492Y15585472D01*
X9860590Y15578037D01*
X9886044Y15571926D01*
X9911783Y15567156D01*
X9937736Y15563739D01*
X9963832Y15561685D01*
X9990000Y15561000D01*
X9990000Y15261000D01*
X9980000Y15261000D01*
X9938655Y15262083D01*
X9897423Y15265328D01*
X9856417Y15270726D01*
X9815750Y15278263D01*
X9775533Y15287919D01*
X9735877Y15299665D01*
X9696889Y15313471D01*
X9658678Y15329299D01*
X9621348Y15347105D01*
X9585000Y15366840D01*
X9549735Y15388450D01*
X9515650Y15411877D01*
X9482837Y15437055D01*
X9451387Y15463916D01*
X9421386Y15492386D01*
X9392916Y15522387D01*
X9366055Y15553837D01*
X9340877Y15586650D01*
X9317450Y15620735D01*
X9295840Y15656000D01*
X9276105Y15692348D01*
X9258299Y15729678D01*
X9242471Y15767889D01*
X9228665Y15806877D01*
X9216919Y15846533D01*
X9207263Y15886750D01*
X9199726Y15927417D01*
X9194328Y15968423D01*
X9191083Y16009655D01*
X9190000Y16051000D01*
X9190000Y16081000D01*
X9191110Y16123392D01*
X9194437Y16165668D01*
X9199972Y16207712D01*
X9207700Y16249408D01*
X9217600Y16290643D01*
X9229644Y16331304D01*
X9243800Y16371278D01*
X9260028Y16410457D01*
X9278285Y16448732D01*
X9298519Y16486000D01*
X9320677Y16522158D01*
X9344696Y16557106D01*
X9370512Y16590750D01*
X9398053Y16622996D01*
X9427244Y16653756D01*
X9458004Y16682947D01*
X9490250Y16710488D01*
X9523894Y16736304D01*
X9558842Y16760323D01*
X9595000Y16782481D01*
X9632268Y16802715D01*
X9670543Y16820972D01*
X9709722Y16837200D01*
X9749696Y16851356D01*
X9790357Y16863400D01*
X9831592Y16873300D01*
X9873288Y16881028D01*
X9915332Y16886563D01*
X9957608Y16889890D01*
X10000000Y16891000D01*
X10010000Y16891000D01*
X10051869Y16889904D01*
G37*
X10051869Y16889904D02*
X10093623Y16886618D01*
X10135148Y16881151D01*
X10176329Y16873518D01*
X10217055Y16863741D01*
X10257214Y16851845D01*
X10296694Y16837864D01*
X10335389Y16821836D01*
X10373192Y16803805D01*
X10410000Y16783820D01*
X10445711Y16761936D01*
X10480228Y16738214D01*
X10513456Y16712717D01*
X10545304Y16685516D01*
X10575685Y16656685D01*
X10604516Y16626304D01*
X10631717Y16594456D01*
X10657214Y16561228D01*
X10680936Y16526711D01*
X10702820Y16491000D01*
X10722805Y16454192D01*
X10740836Y16416389D01*
X10756864Y16377694D01*
X10770845Y16338214D01*
X10782741Y16298055D01*
X10792518Y16257329D01*
X10800151Y16216148D01*
X10805618Y16174623D01*
X10808904Y16132869D01*
X10810000Y16091000D01*
X10810000Y16061000D01*
X10808904Y16019131D01*
X10805618Y15977377D01*
X10800151Y15935852D01*
X10792518Y15894671D01*
X10782741Y15853945D01*
X10770845Y15813786D01*
X10756864Y15774306D01*
X10740836Y15735611D01*
X10722805Y15697808D01*
X10702820Y15661000D01*
X10680936Y15625289D01*
X10657214Y15590772D01*
X10631717Y15557544D01*
X10604516Y15525696D01*
X10575685Y15495315D01*
X10545304Y15466484D01*
X10513456Y15439283D01*
X10480228Y15413786D01*
X10445711Y15390064D01*
X10410000Y15368180D01*
X10373192Y15348195D01*
X10335389Y15330164D01*
X10296694Y15314136D01*
X10257214Y15300155D01*
X10217055Y15288259D01*
X10176329Y15278482D01*
X10135148Y15270849D01*
X10093623Y15265382D01*
X10051869Y15262096D01*
X10010000Y15261000D01*
X10010000Y15561000D01*
X10036168Y15561685D01*
X10062264Y15563739D01*
X10088217Y15567156D01*
X10113956Y15571926D01*
X10139410Y15578037D01*
X10164508Y15585472D01*
X10189184Y15594210D01*
X10213368Y15604227D01*
X10236995Y15615497D01*
X10260000Y15627987D01*
X10282320Y15641665D01*
X10303893Y15656492D01*
X10324660Y15672427D01*
X10344565Y15689428D01*
X10363553Y15707447D01*
X10381572Y15726435D01*
X10398573Y15746340D01*
X10414508Y15767107D01*
X10429335Y15788680D01*
X10443013Y15811000D01*
X10455503Y15834005D01*
X10466773Y15857632D01*
X10476790Y15881816D01*
X10485528Y15906492D01*
X10492963Y15931590D01*
X10499074Y15957044D01*
X10503844Y15982783D01*
X10507261Y16008736D01*
X10509315Y16034832D01*
X10510000Y16061000D01*
X10510000Y16081000D01*
X10509301Y16107691D01*
X10507206Y16134310D01*
X10503721Y16160782D01*
X10498855Y16187035D01*
X10492622Y16212998D01*
X10485039Y16238599D01*
X10476126Y16263768D01*
X10465908Y16288436D01*
X10454413Y16312535D01*
X10441673Y16336000D01*
X10427722Y16358766D01*
X10412599Y16380770D01*
X10396344Y16401953D01*
X10379004Y16422257D01*
X10360624Y16441624D01*
X10341257Y16460004D01*
X10320953Y16477344D01*
X10299770Y16493599D01*
X10277766Y16508722D01*
X10255000Y16522673D01*
X10231535Y16535413D01*
X10207436Y16546908D01*
X10182768Y16557126D01*
X10157599Y16566039D01*
X10131998Y16573622D01*
X10106035Y16579855D01*
X10079782Y16584721D01*
X10053310Y16588206D01*
X10026691Y16590301D01*
X10000000Y16591000D01*
X9990000Y16591000D01*
X9963832Y16590315D01*
X9937736Y16588261D01*
X9911783Y16584844D01*
X9886044Y16580074D01*
X9860590Y16573963D01*
X9835492Y16566528D01*
X9810816Y16557790D01*
X9786632Y16547773D01*
X9763005Y16536503D01*
X9740000Y16524013D01*
X9717680Y16510335D01*
X9696107Y16495508D01*
X9675340Y16479573D01*
X9655435Y16462572D01*
X9636447Y16444553D01*
X9618428Y16425565D01*
X9601427Y16405660D01*
X9585492Y16384893D01*
X9570665Y16363320D01*
X9556987Y16341000D01*
X9544497Y16317995D01*
X9533227Y16294368D01*
X9523210Y16270184D01*
X9514472Y16245508D01*
X9507037Y16220410D01*
X9500926Y16194956D01*
X9496156Y16169217D01*
X9492739Y16143264D01*
X9490685Y16117168D01*
X9490000Y16091000D01*
X9490000Y16061000D01*
X9490685Y16034832D01*
X9492739Y16008736D01*
X9496156Y15982783D01*
X9500926Y15957044D01*
X9507037Y15931590D01*
X9514472Y15906492D01*
X9523210Y15881816D01*
X9533227Y15857632D01*
X9544497Y15834005D01*
X9556987Y15811000D01*
X9570665Y15788680D01*
X9585492Y15767107D01*
X9601427Y15746340D01*
X9618428Y15726435D01*
X9636447Y15707447D01*
X9655435Y15689428D01*
X9675340Y15672427D01*
X9696107Y15656492D01*
X9717680Y15641665D01*
X9740000Y15627987D01*
X9763005Y15615497D01*
X9786632Y15604227D01*
X9810816Y15594210D01*
X9835492Y15585472D01*
X9860590Y15578037D01*
X9886044Y15571926D01*
X9911783Y15567156D01*
X9937736Y15563739D01*
X9963832Y15561685D01*
X9990000Y15561000D01*
X9990000Y15261000D01*
X9980000Y15261000D01*
X9938655Y15262083D01*
X9897423Y15265328D01*
X9856417Y15270726D01*
X9815750Y15278263D01*
X9775533Y15287919D01*
X9735877Y15299665D01*
X9696889Y15313471D01*
X9658678Y15329299D01*
X9621348Y15347105D01*
X9585000Y15366840D01*
X9549735Y15388450D01*
X9515650Y15411877D01*
X9482837Y15437055D01*
X9451387Y15463916D01*
X9421386Y15492386D01*
X9392916Y15522387D01*
X9366055Y15553837D01*
X9340877Y15586650D01*
X9317450Y15620735D01*
X9295840Y15656000D01*
X9276105Y15692348D01*
X9258299Y15729678D01*
X9242471Y15767889D01*
X9228665Y15806877D01*
X9216919Y15846533D01*
X9207263Y15886750D01*
X9199726Y15927417D01*
X9194328Y15968423D01*
X9191083Y16009655D01*
X9190000Y16051000D01*
X9190000Y16081000D01*
X9191110Y16123392D01*
X9194437Y16165668D01*
X9199972Y16207712D01*
X9207700Y16249408D01*
X9217600Y16290643D01*
X9229644Y16331304D01*
X9243800Y16371278D01*
X9260028Y16410457D01*
X9278285Y16448732D01*
X9298519Y16486000D01*
X9320677Y16522158D01*
X9344696Y16557106D01*
X9370512Y16590750D01*
X9398053Y16622996D01*
X9427244Y16653756D01*
X9458004Y16682947D01*
X9490250Y16710488D01*
X9523894Y16736304D01*
X9558842Y16760323D01*
X9595000Y16782481D01*
X9632268Y16802715D01*
X9670543Y16820972D01*
X9709722Y16837200D01*
X9749696Y16851356D01*
X9790357Y16863400D01*
X9831592Y16873300D01*
X9873288Y16881028D01*
X9915332Y16886563D01*
X9957608Y16889890D01*
X10000000Y16891000D01*
X10010000Y16891000D01*
X10051869Y16889904D01*
D11*
X10900000Y14000000D03*
X10900000Y14822000D03*
D12*
X10015500Y16744000D03*
D11*
X9100000Y14822000D03*
X9100000Y14000000D03*
X10000000Y14000000D03*
D13*
X7460000Y14000000D03*
X7460000Y13040000D03*
D14*
X10000000Y8020000D03*
X10000000Y9040000D03*
D15*
X12540000Y4000000D03*
X12540000Y9050000D03*
X15080000Y4000000D03*
X15080000Y9050000D03*
X17620000Y4000000D03*
X17620000Y9050000D03*
X2380000Y3975000D03*
X2380000Y9025000D03*
X4920000Y3975000D03*
X4920000Y9025000D03*
X7460000Y3975000D03*
X7460000Y9025000D03*
D16*
X16000000Y16500000D03*
X2000000Y1500000D03*
X10000000Y4500000D03*
X16000000Y1500000D03*
X7460000Y11580000D03*
X12540000Y11580000D03*
X10000000Y6500000D03*
X18000000Y16500000D03*
X2000000Y16500000D03*
X18000000Y1500000D03*
X4000000Y1500000D03*
X4000000Y16500000D03*
X3650000Y11580000D03*
X6190000Y11580000D03*
X7500000Y16750000D03*
X12494000Y16744000D03*
D17*
X4920000Y12850000D02*
X4920000Y9025000D01*
X7460000Y14000000D02*
X6070000Y14000000D01*
X7460000Y14000000D02*
X9100000Y14000000D01*
X6070000Y14000000D02*
X4920000Y12850000D01*
X4920000Y3975000D02*
X4920000Y9025000D01*
X9238000Y9802000D02*
X9238000Y12088000D01*
X7460000Y9025000D02*
X8237000Y9025000D01*
X8286000Y13040000D02*
X7460000Y13040000D01*
X8461000Y9025000D02*
X9238000Y9802000D01*
X10015500Y16744000D02*
X7506000Y16744000D01*
X10015500Y16744000D02*
X12494000Y16744000D01*
X7460000Y3975000D02*
X7460000Y9025000D01*
X7460000Y13040000D02*
X7460000Y11580000D01*
X12494000Y16744000D02*
X12500000Y16750000D01*
X7506000Y16744000D02*
X7500000Y16750000D01*
X9238000Y12088000D02*
X8286000Y13040000D01*
X7460000Y11580000D02*
X6190000Y11580000D01*
X7460000Y9025000D02*
X8461000Y9025000D01*
X4352000Y14822000D02*
X2380000Y12850000D01*
X2380000Y12850000D02*
X2380000Y9025000D01*
X9100000Y14822000D02*
X4352000Y14822000D01*
X2380000Y3975000D02*
X2380000Y9025000D01*
X12540000Y4000000D02*
X12540000Y9050000D01*
X10000000Y9040000D02*
X12530000Y9040000D01*
X12530000Y9040000D02*
X12540000Y9050000D01*
X10000000Y14000000D02*
X10000000Y9040000D01*
X15147000Y12850000D02*
X15147000Y9025000D01*
X15080000Y4000000D02*
X15080000Y9050000D01*
X13997000Y14000000D02*
X15147000Y12850000D01*
X10900000Y14000000D02*
X13997000Y14000000D01*
X17620000Y4000000D02*
X17620000Y9050000D01*
X15648000Y14822000D02*
X10900000Y14822000D01*
X17620000Y9050000D02*
X17620000Y12850000D01*
X17620000Y12850000D02*
X15648000Y14822000D01*
G04 #@! TA.AperFunction,Conductor*
G36*
X19692121Y17729998D02*
G01*
X19738614Y17676342D01*
X19750000Y17624000D01*
X19750000Y376000D01*
X19729998Y307879D01*
X19676342Y261386D01*
X19624000Y250000D01*
X376000Y250000D01*
X307879Y270002D01*
X261386Y323658D01*
X250000Y376000D01*
X250000Y10600000D01*
X1624500Y10600000D01*
X1624500Y7450000D01*
X1643949Y7352224D01*
X1650841Y7341909D01*
X1650842Y7341907D01*
X1687235Y7287441D01*
X1699334Y7269334D01*
X1709650Y7262441D01*
X1771907Y7220842D01*
X1771909Y7220841D01*
X1782224Y7213949D01*
X1880000Y7194500D01*
X1886188Y7194500D01*
X1890848Y7194041D01*
X1956681Y7167460D01*
X1997692Y7109506D01*
X2004500Y7068648D01*
X2004500Y5931352D01*
X1984498Y5863231D01*
X1930842Y5816738D01*
X1890848Y5805959D01*
X1886188Y5805500D01*
X1880000Y5805500D01*
X1782224Y5786051D01*
X1771909Y5779159D01*
X1771907Y5779158D01*
X1736749Y5755666D01*
X1699334Y5730666D01*
X1692441Y5720350D01*
X1650842Y5658093D01*
X1650841Y5658091D01*
X1643949Y5647776D01*
X1624500Y5550000D01*
X1624500Y2400000D01*
X1643949Y2302224D01*
X1650841Y2291909D01*
X1650842Y2291907D01*
X1687235Y2237441D01*
X1699334Y2219334D01*
X1709650Y2212441D01*
X1771907Y2170842D01*
X1771909Y2170841D01*
X1782224Y2163949D01*
X1880000Y2144500D01*
X2880000Y2144500D01*
X2977776Y2163949D01*
X2988091Y2170841D01*
X2988093Y2170842D01*
X3050350Y2212441D01*
X3060666Y2219334D01*
X3072765Y2237441D01*
X3109158Y2291907D01*
X3109159Y2291909D01*
X3116051Y2302224D01*
X3135500Y2400000D01*
X3135500Y5550000D01*
X3116051Y5647776D01*
X3109159Y5658091D01*
X3109158Y5658093D01*
X3067559Y5720350D01*
X3060666Y5730666D01*
X3023251Y5755666D01*
X2988093Y5779158D01*
X2988091Y5779159D01*
X2977776Y5786051D01*
X2880000Y5805500D01*
X2873812Y5805500D01*
X2869152Y5805959D01*
X2803319Y5832540D01*
X2762308Y5890494D01*
X2755500Y5931352D01*
X2755500Y7068648D01*
X2775502Y7136769D01*
X2829158Y7183262D01*
X2869152Y7194041D01*
X2873812Y7194500D01*
X2880000Y7194500D01*
X2977776Y7213949D01*
X2988091Y7220841D01*
X2988093Y7220842D01*
X3050350Y7262441D01*
X3060666Y7269334D01*
X3072765Y7287441D01*
X3109158Y7341907D01*
X3109159Y7341909D01*
X3116051Y7352224D01*
X3135500Y7450000D01*
X3135500Y10600000D01*
X3116051Y10697776D01*
X3109159Y10708091D01*
X3109158Y10708093D01*
X3067559Y10770350D01*
X3060666Y10780666D01*
X3023251Y10805666D01*
X2988093Y10829158D01*
X2988091Y10829159D01*
X2977776Y10836051D01*
X2880000Y10855500D01*
X2873812Y10855500D01*
X2869152Y10855959D01*
X2803319Y10882540D01*
X2762308Y10940494D01*
X2755500Y10981352D01*
X2755500Y12642273D01*
X2775502Y12710394D01*
X2792405Y12731368D01*
X4470632Y14409595D01*
X4532944Y14443621D01*
X4559727Y14446500D01*
X5681273Y14446500D01*
X5749394Y14426498D01*
X5795887Y14372842D01*
X5805991Y14302568D01*
X5776497Y14237988D01*
X5770368Y14231405D01*
X4691675Y13152712D01*
X4675421Y13139584D01*
X4672668Y13137079D01*
X4663919Y13131430D01*
X4657472Y13123252D01*
X4644403Y13106674D01*
X4640220Y13101967D01*
X4640277Y13101918D01*
X4636925Y13097962D01*
X4633241Y13094278D01*
X4621484Y13077826D01*
X4617943Y13073110D01*
X4586565Y13033307D01*
X4583564Y13024761D01*
X4578301Y13017396D01*
X4565043Y12973064D01*
X4563789Y12968872D01*
X4561962Y12963248D01*
X4545166Y12915419D01*
X4544500Y12907729D01*
X4544500Y12905016D01*
X4544468Y12904268D01*
X4542500Y12897689D01*
X4542909Y12887282D01*
X4544403Y12849261D01*
X4544500Y12844314D01*
X4544500Y10981352D01*
X4524498Y10913231D01*
X4470842Y10866738D01*
X4430848Y10855959D01*
X4426188Y10855500D01*
X4420000Y10855500D01*
X4322224Y10836051D01*
X4311909Y10829159D01*
X4311907Y10829158D01*
X4276749Y10805666D01*
X4239334Y10780666D01*
X4232441Y10770350D01*
X4190842Y10708093D01*
X4190841Y10708091D01*
X4183949Y10697776D01*
X4164500Y10600000D01*
X4164500Y7450000D01*
X4183949Y7352224D01*
X4190841Y7341909D01*
X4190842Y7341907D01*
X4227235Y7287441D01*
X4239334Y7269334D01*
X4249650Y7262441D01*
X4311907Y7220842D01*
X4311909Y7220841D01*
X4322224Y7213949D01*
X4420000Y7194500D01*
X4426188Y7194500D01*
X4430848Y7194041D01*
X4496681Y7167460D01*
X4537692Y7109506D01*
X4544500Y7068648D01*
X4544500Y5931352D01*
X4524498Y5863231D01*
X4470842Y5816738D01*
X4430848Y5805959D01*
X4426188Y5805500D01*
X4420000Y5805500D01*
X4322224Y5786051D01*
X4311909Y5779159D01*
X4311907Y5779158D01*
X4276749Y5755666D01*
X4239334Y5730666D01*
X4232441Y5720350D01*
X4190842Y5658093D01*
X4190841Y5658091D01*
X4183949Y5647776D01*
X4164500Y5550000D01*
X4164500Y2400000D01*
X4183949Y2302224D01*
X4190841Y2291909D01*
X4190842Y2291907D01*
X4227235Y2237441D01*
X4239334Y2219334D01*
X4249650Y2212441D01*
X4311907Y2170842D01*
X4311909Y2170841D01*
X4322224Y2163949D01*
X4420000Y2144500D01*
X5420000Y2144500D01*
X5517776Y2163949D01*
X5528091Y2170841D01*
X5528093Y2170842D01*
X5590350Y2212441D01*
X5600666Y2219334D01*
X5612765Y2237441D01*
X5649158Y2291907D01*
X5649159Y2291909D01*
X5656051Y2302224D01*
X5675500Y2400000D01*
X5675500Y5550000D01*
X5656051Y5647776D01*
X5649159Y5658091D01*
X5649158Y5658093D01*
X5607559Y5720350D01*
X5600666Y5730666D01*
X5563251Y5755666D01*
X5528093Y5779158D01*
X5528091Y5779159D01*
X5517776Y5786051D01*
X5420000Y5805500D01*
X5413812Y5805500D01*
X5409152Y5805959D01*
X5343319Y5832540D01*
X5302308Y5890494D01*
X5295500Y5931352D01*
X5295500Y7068648D01*
X5315502Y7136769D01*
X5369158Y7183262D01*
X5409152Y7194041D01*
X5413812Y7194500D01*
X5420000Y7194500D01*
X5517776Y7213949D01*
X5528091Y7220841D01*
X5528093Y7220842D01*
X5590350Y7262441D01*
X5600666Y7269334D01*
X5612765Y7287441D01*
X5649158Y7341907D01*
X5649159Y7341909D01*
X5656051Y7352224D01*
X5675500Y7450000D01*
X5675500Y10600000D01*
X5656051Y10697776D01*
X5649159Y10708091D01*
X5649158Y10708093D01*
X5607559Y10770350D01*
X5600666Y10780666D01*
X5592247Y10786291D01*
X5558978Y10847217D01*
X5564043Y10918032D01*
X5606590Y10974868D01*
X5673110Y10999679D01*
X5682099Y11000000D01*
X5874000Y11000000D01*
X5942121Y10979998D01*
X5988614Y10926342D01*
X6000000Y10874000D01*
X6000000Y2000000D01*
X6599230Y2000000D01*
X6667351Y1979998D01*
X6669271Y1978560D01*
X6690848Y1964693D01*
X6807275Y1911523D01*
X6824388Y1906498D01*
X6955554Y1887639D01*
X6964495Y1887000D01*
X7187885Y1887000D01*
X7203124Y1891475D01*
X7204329Y1892865D01*
X7206000Y1900548D01*
X7206000Y2000000D01*
X7714000Y2000000D01*
X7714000Y1905115D01*
X7718475Y1889876D01*
X7719865Y1888671D01*
X7727548Y1887000D01*
X7957743Y1887000D01*
X7962250Y1887161D01*
X8026269Y1891740D01*
X8039491Y1894126D01*
X8164458Y1930819D01*
X8180692Y1938233D01*
X8245681Y1979998D01*
X8313801Y2000000D01*
X8500000Y2000000D01*
X8500000Y7748574D01*
X9184234Y7748574D01*
X9186364Y7731714D01*
X9190275Y7716481D01*
X9244236Y7580193D01*
X9251812Y7566411D01*
X9337968Y7447827D01*
X9348736Y7436360D01*
X9461675Y7342930D01*
X9474957Y7334501D01*
X9607583Y7272091D01*
X9622548Y7267229D01*
X9728206Y7247074D01*
X9741245Y7248344D01*
X9746000Y7263269D01*
X9746000Y7747885D01*
X9744659Y7752452D01*
X10254000Y7752452D01*
X10254000Y7263832D01*
X10258075Y7249954D01*
X10271424Y7247918D01*
X10338292Y7256365D01*
X10353516Y7260274D01*
X10489807Y7314236D01*
X10503589Y7321812D01*
X10622173Y7407968D01*
X10633640Y7418736D01*
X10727070Y7531675D01*
X10735499Y7544957D01*
X10797911Y7677588D01*
X10802770Y7692541D01*
X10813389Y7748206D01*
X10812118Y7761245D01*
X10797196Y7766000D01*
X10272115Y7766000D01*
X10256876Y7761525D01*
X10255671Y7760135D01*
X10254000Y7752452D01*
X9744659Y7752452D01*
X9741525Y7763124D01*
X9740135Y7764329D01*
X9732452Y7766000D01*
X9200148Y7766000D01*
X9186271Y7761925D01*
X9184234Y7748574D01*
X8500000Y7748574D01*
X8500000Y8374000D01*
X8520002Y8442121D01*
X8573658Y8488614D01*
X8626000Y8500000D01*
X9074021Y8500000D01*
X9142142Y8479998D01*
X9188635Y8426342D01*
X9197789Y8350390D01*
X9186611Y8291794D01*
X9187882Y8278755D01*
X9202804Y8274000D01*
X10799852Y8274000D01*
X10813729Y8278075D01*
X10815766Y8291426D01*
X10813636Y8308286D01*
X10809725Y8323519D01*
X10755763Y8459811D01*
X10745874Y8477799D01*
X10730584Y8547129D01*
X10755204Y8613720D01*
X10811918Y8656429D01*
X10856288Y8664500D01*
X11658500Y8664500D01*
X11726621Y8644498D01*
X11773114Y8590842D01*
X11784500Y8538500D01*
X11784500Y7475000D01*
X11803949Y7377224D01*
X11810841Y7366909D01*
X11810842Y7366907D01*
X11820653Y7352224D01*
X11859334Y7294334D01*
X11869650Y7287441D01*
X11931907Y7245842D01*
X11931909Y7245841D01*
X11942224Y7238949D01*
X12040000Y7219500D01*
X12046188Y7219500D01*
X12050848Y7219041D01*
X12116681Y7192460D01*
X12157692Y7134506D01*
X12164500Y7093648D01*
X12164500Y5956352D01*
X12144498Y5888231D01*
X12090842Y5841738D01*
X12050848Y5830959D01*
X12046188Y5830500D01*
X12040000Y5830500D01*
X11942224Y5811051D01*
X11931909Y5804159D01*
X11931907Y5804158D01*
X11894492Y5779158D01*
X11859334Y5755666D01*
X11852441Y5745350D01*
X11810842Y5683093D01*
X11810841Y5683091D01*
X11803949Y5672776D01*
X11784500Y5575000D01*
X11784500Y2425000D01*
X11803949Y2327224D01*
X11810841Y2316909D01*
X11810842Y2316907D01*
X11820653Y2302224D01*
X11859334Y2244334D01*
X11869650Y2237441D01*
X11931907Y2195842D01*
X11931909Y2195841D01*
X11942224Y2188949D01*
X12040000Y2169500D01*
X13040000Y2169500D01*
X13137776Y2188949D01*
X13148091Y2195841D01*
X13148093Y2195842D01*
X13210350Y2237441D01*
X13220666Y2244334D01*
X13259347Y2302224D01*
X13269158Y2316907D01*
X13269159Y2316909D01*
X13276051Y2327224D01*
X13295500Y2425000D01*
X13295500Y5575000D01*
X13276051Y5672776D01*
X13269159Y5683091D01*
X13269158Y5683093D01*
X13227559Y5745350D01*
X13220666Y5755666D01*
X13185508Y5779158D01*
X13148093Y5804158D01*
X13148091Y5804159D01*
X13137776Y5811051D01*
X13040000Y5830500D01*
X13033812Y5830500D01*
X13029152Y5830959D01*
X12963319Y5857540D01*
X12922308Y5915494D01*
X12915500Y5956352D01*
X12915500Y7093648D01*
X12935502Y7161769D01*
X12989158Y7208262D01*
X13029152Y7219041D01*
X13033812Y7219500D01*
X13040000Y7219500D01*
X13137776Y7238949D01*
X13148091Y7245841D01*
X13148093Y7245842D01*
X13210350Y7287441D01*
X13220666Y7294334D01*
X13259347Y7352224D01*
X13269158Y7366907D01*
X13269159Y7366909D01*
X13276051Y7377224D01*
X13295500Y7475000D01*
X13295500Y10625000D01*
X13276051Y10722776D01*
X13269159Y10733091D01*
X13269158Y10733093D01*
X13227559Y10795350D01*
X13220666Y10805666D01*
X13185508Y10829158D01*
X13148093Y10854158D01*
X13148091Y10854159D01*
X13137776Y10861051D01*
X13040000Y10880500D01*
X12040000Y10880500D01*
X11942224Y10861051D01*
X11931909Y10854159D01*
X11931907Y10854158D01*
X11894492Y10829158D01*
X11859334Y10805666D01*
X11852441Y10795350D01*
X11810842Y10733093D01*
X11810841Y10733091D01*
X11803949Y10722776D01*
X11784500Y10625000D01*
X11784500Y9541500D01*
X11764498Y9473379D01*
X11710842Y9426886D01*
X11658500Y9415500D01*
X10541617Y9415500D01*
X10473496Y9435502D01*
X10456088Y9448976D01*
X10415971Y9486060D01*
X10379526Y9546988D01*
X10375500Y9578584D01*
X10375500Y13374624D01*
X10395502Y13442745D01*
X10449158Y13489238D01*
X10526081Y13498203D01*
X10593931Y13484707D01*
X10593933Y13484707D01*
X10600000Y13483500D01*
X11200000Y13483500D01*
X11297776Y13502949D01*
X11308091Y13509841D01*
X11308093Y13509842D01*
X11370350Y13551441D01*
X11380666Y13558334D01*
X11387558Y13568649D01*
X11396337Y13577428D01*
X11397159Y13576606D01*
X11441934Y13614028D01*
X11492225Y13624500D01*
X13789272Y13624500D01*
X13857393Y13604498D01*
X13878368Y13587595D01*
X14734596Y12731366D01*
X14768621Y12669054D01*
X14771500Y12642271D01*
X14771500Y11006500D01*
X14751498Y10938379D01*
X14697842Y10891886D01*
X14645500Y10880500D01*
X14580000Y10880500D01*
X14482224Y10861051D01*
X14471909Y10854159D01*
X14471907Y10854158D01*
X14434492Y10829158D01*
X14399334Y10805666D01*
X14392441Y10795350D01*
X14350842Y10733093D01*
X14350841Y10733091D01*
X14343949Y10722776D01*
X14324500Y10625000D01*
X14324500Y7475000D01*
X14343949Y7377224D01*
X14350841Y7366909D01*
X14350842Y7366907D01*
X14360653Y7352224D01*
X14399334Y7294334D01*
X14409650Y7287441D01*
X14471907Y7245842D01*
X14471909Y7245841D01*
X14482224Y7238949D01*
X14580000Y7219500D01*
X14586188Y7219500D01*
X14590848Y7219041D01*
X14656681Y7192460D01*
X14697692Y7134506D01*
X14704500Y7093648D01*
X14704500Y5956352D01*
X14684498Y5888231D01*
X14630842Y5841738D01*
X14590848Y5830959D01*
X14586188Y5830500D01*
X14580000Y5830500D01*
X14482224Y5811051D01*
X14471909Y5804159D01*
X14471907Y5804158D01*
X14434492Y5779158D01*
X14399334Y5755666D01*
X14392441Y5745350D01*
X14350842Y5683093D01*
X14350841Y5683091D01*
X14343949Y5672776D01*
X14324500Y5575000D01*
X14324500Y2425000D01*
X14343949Y2327224D01*
X14350841Y2316909D01*
X14350842Y2316907D01*
X14360653Y2302224D01*
X14399334Y2244334D01*
X14409650Y2237441D01*
X14471907Y2195842D01*
X14471909Y2195841D01*
X14482224Y2188949D01*
X14580000Y2169500D01*
X15580000Y2169500D01*
X15677776Y2188949D01*
X15688091Y2195841D01*
X15688093Y2195842D01*
X15750350Y2237441D01*
X15760666Y2244334D01*
X15799347Y2302224D01*
X15809158Y2316907D01*
X15809159Y2316909D01*
X15816051Y2327224D01*
X15835500Y2425000D01*
X15835500Y5575000D01*
X15816051Y5672776D01*
X15809159Y5683091D01*
X15809158Y5683093D01*
X15767559Y5745350D01*
X15760666Y5755666D01*
X15725508Y5779158D01*
X15688093Y5804158D01*
X15688091Y5804159D01*
X15677776Y5811051D01*
X15580000Y5830500D01*
X15573812Y5830500D01*
X15569152Y5830959D01*
X15503319Y5857540D01*
X15462308Y5915494D01*
X15455500Y5956352D01*
X15455500Y7093648D01*
X15475502Y7161769D01*
X15529158Y7208262D01*
X15569152Y7219041D01*
X15573812Y7219500D01*
X15580000Y7219500D01*
X15677776Y7238949D01*
X15688091Y7245841D01*
X15688093Y7245842D01*
X15750350Y7287441D01*
X15760666Y7294334D01*
X15799347Y7352224D01*
X15809158Y7366907D01*
X15809159Y7366909D01*
X15816051Y7377224D01*
X15835500Y7475000D01*
X15835500Y10625000D01*
X15816051Y10722776D01*
X15809159Y10733091D01*
X15809158Y10733093D01*
X15767559Y10795350D01*
X15760666Y10805666D01*
X15725508Y10829158D01*
X15688093Y10854158D01*
X15688091Y10854159D01*
X15677776Y10861051D01*
X15665609Y10863471D01*
X15665607Y10863472D01*
X15623919Y10871764D01*
X15561009Y10904671D01*
X15525877Y10966366D01*
X15522500Y10995343D01*
X15522500Y12797400D01*
X15524711Y12818171D01*
X15524887Y12821897D01*
X15527078Y12832075D01*
X15523373Y12863379D01*
X15523002Y12869667D01*
X15522928Y12869661D01*
X15522500Y12874838D01*
X15522500Y12880039D01*
X15519562Y12897689D01*
X15519184Y12899961D01*
X15518347Y12905841D01*
X15513616Y12945814D01*
X15513615Y12945818D01*
X15512392Y12956156D01*
X15508471Y12964320D01*
X15506985Y12973251D01*
X15482925Y13017843D01*
X15480251Y13023089D01*
X15458306Y13068789D01*
X15453339Y13074698D01*
X15451390Y13076647D01*
X15450918Y13077162D01*
X15447654Y13083211D01*
X15412049Y13116124D01*
X15408483Y13119554D01*
X14299712Y14228325D01*
X14282959Y14249066D01*
X14280969Y14252148D01*
X14260818Y14320222D01*
X14280670Y14388387D01*
X14334223Y14434998D01*
X14386818Y14446500D01*
X15440273Y14446500D01*
X15508394Y14426498D01*
X15529368Y14409595D01*
X17207595Y12731368D01*
X17241621Y12669056D01*
X17244500Y12642273D01*
X17244500Y11006352D01*
X17224498Y10938231D01*
X17170842Y10891738D01*
X17130848Y10880959D01*
X17126188Y10880500D01*
X17120000Y10880500D01*
X17022224Y10861051D01*
X17011909Y10854159D01*
X17011907Y10854158D01*
X16974492Y10829158D01*
X16939334Y10805666D01*
X16932441Y10795350D01*
X16890842Y10733093D01*
X16890841Y10733091D01*
X16883949Y10722776D01*
X16864500Y10625000D01*
X16864500Y7475000D01*
X16883949Y7377224D01*
X16890841Y7366909D01*
X16890842Y7366907D01*
X16900653Y7352224D01*
X16939334Y7294334D01*
X16949650Y7287441D01*
X17011907Y7245842D01*
X17011909Y7245841D01*
X17022224Y7238949D01*
X17120000Y7219500D01*
X17126188Y7219500D01*
X17130848Y7219041D01*
X17196681Y7192460D01*
X17237692Y7134506D01*
X17244500Y7093648D01*
X17244500Y5956352D01*
X17224498Y5888231D01*
X17170842Y5841738D01*
X17130848Y5830959D01*
X17126188Y5830500D01*
X17120000Y5830500D01*
X17022224Y5811051D01*
X17011909Y5804159D01*
X17011907Y5804158D01*
X16974492Y5779158D01*
X16939334Y5755666D01*
X16932441Y5745350D01*
X16890842Y5683093D01*
X16890841Y5683091D01*
X16883949Y5672776D01*
X16864500Y5575000D01*
X16864500Y2425000D01*
X16883949Y2327224D01*
X16890841Y2316909D01*
X16890842Y2316907D01*
X16900653Y2302224D01*
X16939334Y2244334D01*
X16949650Y2237441D01*
X17011907Y2195842D01*
X17011909Y2195841D01*
X17022224Y2188949D01*
X17120000Y2169500D01*
X18120000Y2169500D01*
X18217776Y2188949D01*
X18228091Y2195841D01*
X18228093Y2195842D01*
X18290350Y2237441D01*
X18300666Y2244334D01*
X18339347Y2302224D01*
X18349158Y2316907D01*
X18349159Y2316909D01*
X18356051Y2327224D01*
X18375500Y2425000D01*
X18375500Y5575000D01*
X18356051Y5672776D01*
X18349159Y5683091D01*
X18349158Y5683093D01*
X18307559Y5745350D01*
X18300666Y5755666D01*
X18265508Y5779158D01*
X18228093Y5804158D01*
X18228091Y5804159D01*
X18217776Y5811051D01*
X18120000Y5830500D01*
X18113812Y5830500D01*
X18109152Y5830959D01*
X18043319Y5857540D01*
X18002308Y5915494D01*
X17995500Y5956352D01*
X17995500Y7093648D01*
X18015502Y7161769D01*
X18069158Y7208262D01*
X18109152Y7219041D01*
X18113812Y7219500D01*
X18120000Y7219500D01*
X18217776Y7238949D01*
X18228091Y7245841D01*
X18228093Y7245842D01*
X18290350Y7287441D01*
X18300666Y7294334D01*
X18339347Y7352224D01*
X18349158Y7366907D01*
X18349159Y7366909D01*
X18356051Y7377224D01*
X18375500Y7475000D01*
X18375500Y10625000D01*
X18356051Y10722776D01*
X18349159Y10733091D01*
X18349158Y10733093D01*
X18307559Y10795350D01*
X18300666Y10805666D01*
X18265508Y10829158D01*
X18228093Y10854158D01*
X18228091Y10854159D01*
X18217776Y10861051D01*
X18120000Y10880500D01*
X18113812Y10880500D01*
X18109152Y10880959D01*
X18043319Y10907540D01*
X18002308Y10965494D01*
X17995500Y11006352D01*
X17995500Y12797401D01*
X17997711Y12818172D01*
X17997887Y12821898D01*
X18000078Y12832076D01*
X17996373Y12863379D01*
X17996002Y12869665D01*
X17995928Y12869659D01*
X17995500Y12874835D01*
X17995500Y12880039D01*
X17992180Y12899986D01*
X17991349Y12905825D01*
X17991062Y12908255D01*
X17985392Y12956157D01*
X17981471Y12964322D01*
X17979985Y12973251D01*
X17975041Y12982413D01*
X17975040Y12982417D01*
X17955932Y13017830D01*
X17953237Y13023120D01*
X17934740Y13061640D01*
X17934736Y13061646D01*
X17931306Y13068790D01*
X17926339Y13074698D01*
X17924395Y13076642D01*
X17923918Y13077162D01*
X17920654Y13083211D01*
X17885049Y13116124D01*
X17881483Y13119554D01*
X15950712Y15050325D01*
X15937584Y15066579D01*
X15935079Y15069332D01*
X15929430Y15078081D01*
X15904674Y15097597D01*
X15899967Y15101780D01*
X15899918Y15101723D01*
X15895962Y15105075D01*
X15892278Y15108759D01*
X15875826Y15120516D01*
X15871107Y15124059D01*
X15870340Y15124664D01*
X15831307Y15155435D01*
X15822761Y15158436D01*
X15815396Y15163699D01*
X15805422Y15166682D01*
X15805420Y15166683D01*
X15770788Y15177040D01*
X15766863Y15178214D01*
X15761248Y15180038D01*
X15713419Y15196834D01*
X15705729Y15197500D01*
X15703016Y15197500D01*
X15702268Y15197532D01*
X15695689Y15199500D01*
X15647668Y15197613D01*
X15647261Y15197597D01*
X15642314Y15197500D01*
X11492225Y15197500D01*
X11424104Y15217502D01*
X11396441Y15244676D01*
X11396337Y15244572D01*
X11387558Y15253351D01*
X11380666Y15263666D01*
X11370350Y15270559D01*
X11308093Y15312158D01*
X11308091Y15312159D01*
X11297776Y15319051D01*
X11200000Y15338500D01*
X11024547Y15338500D01*
X10956426Y15358502D01*
X10909933Y15412158D01*
X10899829Y15482432D01*
X10913810Y15524612D01*
X10915554Y15527824D01*
X10918278Y15532840D01*
X10921546Y15538501D01*
X10929540Y15551546D01*
X10931358Y15556474D01*
X10934940Y15563070D01*
X10938081Y15567277D01*
X10944669Y15581087D01*
X10947652Y15586941D01*
X10951991Y15594933D01*
X10951994Y15594940D01*
X10954943Y15600372D01*
X10956497Y15605377D01*
X10959734Y15612163D01*
X10962648Y15616525D01*
X10968497Y15630646D01*
X10971173Y15636656D01*
X10975093Y15644874D01*
X10977756Y15650457D01*
X10979048Y15655544D01*
X10981921Y15662481D01*
X10984604Y15666990D01*
X10989706Y15681398D01*
X10992071Y15687559D01*
X10992111Y15687655D01*
X10997915Y15701667D01*
X10998938Y15706811D01*
X11001444Y15713889D01*
X11003889Y15718536D01*
X11008228Y15733183D01*
X11010266Y15739457D01*
X11010856Y15741121D01*
X11015367Y15753860D01*
X11016121Y15759057D01*
X11018254Y15766260D01*
X11020452Y15771027D01*
X11024020Y15785888D01*
X11025721Y15792238D01*
X11028305Y15800961D01*
X11030064Y15806899D01*
X11030544Y15812128D01*
X11032297Y15819426D01*
X11034242Y15824302D01*
X11037030Y15839343D01*
X11038400Y15845788D01*
X11040520Y15854618D01*
X11040520Y15854620D01*
X11041965Y15860638D01*
X11042171Y15865880D01*
X11043540Y15873264D01*
X11045227Y15878232D01*
X11047221Y15893377D01*
X11048253Y15899894D01*
X11048345Y15900391D01*
X11051037Y15914914D01*
X11050968Y15920162D01*
X11051949Y15927614D01*
X11053374Y15932664D01*
X11054576Y15947935D01*
X11055262Y15954455D01*
X11056447Y15963458D01*
X11057256Y15969601D01*
X11056912Y15974847D01*
X11057502Y15982330D01*
X11058660Y15987448D01*
X11058898Y15996539D01*
X11059060Y16002712D01*
X11059405Y16009293D01*
X11060118Y16018357D01*
X11060118Y16018360D01*
X11060604Y16024537D01*
X11060019Y16029479D01*
X11060213Y16034420D01*
X11060500Y16035863D01*
X11060500Y16056075D01*
X11060543Y16059370D01*
X11060851Y16071143D01*
X11061070Y16071137D01*
X11061005Y16072037D01*
X11061072Y16072427D01*
X11060978Y16076000D01*
X11061072Y16079573D01*
X11061005Y16079963D01*
X11061070Y16080863D01*
X11060851Y16080857D01*
X11060543Y16092630D01*
X11060500Y16095925D01*
X11060500Y16116137D01*
X11060213Y16117580D01*
X11060019Y16122521D01*
X11060604Y16127463D01*
X11059892Y16136510D01*
X11059405Y16142707D01*
X11059060Y16149288D01*
X11058822Y16158363D01*
X11058660Y16164552D01*
X11057502Y16169670D01*
X11056912Y16177153D01*
X11057256Y16182399D01*
X11055261Y16197557D01*
X11054576Y16204065D01*
X11053374Y16219336D01*
X11051949Y16224386D01*
X11050968Y16231838D01*
X11051037Y16237086D01*
X11048253Y16252109D01*
X11047221Y16258623D01*
X11046035Y16267633D01*
X11046034Y16267636D01*
X11045227Y16273768D01*
X11043540Y16278736D01*
X11042171Y16286120D01*
X11041965Y16291362D01*
X11040298Y16298308D01*
X11038400Y16306212D01*
X11037029Y16312661D01*
X11035711Y16319775D01*
X11034242Y16327698D01*
X11032297Y16332574D01*
X11030544Y16339872D01*
X11030064Y16345101D01*
X11025718Y16359774D01*
X11024020Y16366112D01*
X11020452Y16380973D01*
X11018254Y16385740D01*
X11016121Y16392943D01*
X11015367Y16398140D01*
X11010261Y16412557D01*
X11008227Y16418819D01*
X11005648Y16427527D01*
X11005647Y16427530D01*
X11003889Y16433464D01*
X11001444Y16438111D01*
X10998938Y16445189D01*
X10997915Y16450333D01*
X10992071Y16464441D01*
X10989706Y16470602D01*
X10986671Y16479173D01*
X10986671Y16479174D01*
X10984604Y16485010D01*
X10981921Y16489519D01*
X10979048Y16496456D01*
X10977756Y16501543D01*
X10971172Y16515346D01*
X10968497Y16521354D01*
X10962648Y16535475D01*
X10959734Y16539837D01*
X10956497Y16546623D01*
X10954943Y16551628D01*
X10951994Y16557060D01*
X10951991Y16557067D01*
X10947652Y16565059D01*
X10944662Y16570926D01*
X10940747Y16579134D01*
X10938081Y16584723D01*
X10934940Y16588930D01*
X10931358Y16595526D01*
X10929540Y16600454D01*
X10921546Y16613498D01*
X10918262Y16619188D01*
X10916642Y16622173D01*
X10910970Y16632619D01*
X10907616Y16636651D01*
X10903689Y16643059D01*
X10901620Y16647876D01*
X10898118Y16652972D01*
X10898114Y16652979D01*
X10892959Y16660479D01*
X10889364Y16666014D01*
X10884620Y16673755D01*
X10881387Y16679031D01*
X10877831Y16682877D01*
X10873577Y16689065D01*
X10871251Y16693781D01*
X10861955Y16705895D01*
X10858081Y16711228D01*
X10852928Y16718726D01*
X10849423Y16723826D01*
X10845659Y16727492D01*
X10841088Y16733448D01*
X10838523Y16738029D01*
X10828610Y16749636D01*
X10824460Y16754760D01*
X10818918Y16761982D01*
X10815149Y16766894D01*
X10811203Y16770354D01*
X10806323Y16776068D01*
X10803524Y16780505D01*
X10793007Y16791587D01*
X10788591Y16796492D01*
X10782696Y16803394D01*
X10778672Y16808106D01*
X10774546Y16811358D01*
X10769379Y16816804D01*
X10766353Y16821086D01*
X10755266Y16831608D01*
X10750608Y16836266D01*
X10744348Y16842862D01*
X10740086Y16847353D01*
X10735804Y16850379D01*
X10730354Y16855552D01*
X10727106Y16859672D01*
X10715491Y16869592D01*
X10710586Y16874008D01*
X10703992Y16880266D01*
X10703991Y16880267D01*
X10699505Y16884524D01*
X10695068Y16887323D01*
X10689354Y16892203D01*
X10685894Y16896149D01*
X10673760Y16905460D01*
X10668636Y16909610D01*
X10661739Y16915501D01*
X10661735Y16915504D01*
X10657029Y16919523D01*
X10652448Y16922088D01*
X10646490Y16926660D01*
X10642826Y16930422D01*
X10630233Y16939077D01*
X10624922Y16942935D01*
X10612781Y16952251D01*
X10608068Y16954576D01*
X10601881Y16958828D01*
X10598031Y16962387D01*
X10585002Y16970371D01*
X10579487Y16973952D01*
X10566876Y16982619D01*
X10564882Y16983476D01*
X10520904Y17024593D01*
X10458074Y17122360D01*
X10446388Y17135847D01*
X10349660Y17219662D01*
X10334652Y17229307D01*
X10218225Y17282477D01*
X10201112Y17287502D01*
X10069946Y17306361D01*
X10061005Y17307000D01*
X9967757Y17307000D01*
X9963250Y17306839D01*
X9899231Y17302260D01*
X9886009Y17299874D01*
X9761042Y17263181D01*
X9744808Y17255767D01*
X9637140Y17186574D01*
X9623653Y17174888D01*
X9539840Y17078162D01*
X9530192Y17063149D01*
X9529311Y17061219D01*
X9528002Y17059740D01*
X9525323Y17055572D01*
X9524678Y17055987D01*
X9480531Y17006128D01*
X9472518Y17001217D01*
X9466821Y16997928D01*
X9453385Y16990633D01*
X9449284Y16987222D01*
X9442577Y16983112D01*
X9437674Y16981005D01*
X9425059Y16972335D01*
X9419548Y16968756D01*
X9406522Y16960774D01*
X9402606Y16957154D01*
X9396125Y16952700D01*
X9391341Y16950341D01*
X9379214Y16941035D01*
X9373887Y16937165D01*
X9366399Y16932019D01*
X9366395Y16932016D01*
X9361294Y16928510D01*
X9357575Y16924691D01*
X9351333Y16919902D01*
X9346676Y16917294D01*
X9341965Y16913270D01*
X9335044Y16907359D01*
X9329916Y16903207D01*
X9322723Y16897688D01*
X9322721Y16897686D01*
X9317813Y16893920D01*
X9314298Y16889912D01*
X9308312Y16884800D01*
X9303802Y16881954D01*
X9299313Y16877693D01*
X9299312Y16877693D01*
X9292711Y16871429D01*
X9287813Y16867019D01*
X9276202Y16857102D01*
X9272901Y16852915D01*
X9267195Y16847500D01*
X9262843Y16844425D01*
X9258586Y16839939D01*
X9258579Y16839933D01*
X9252315Y16833332D01*
X9247653Y16828669D01*
X9236575Y16818156D01*
X9233499Y16813804D01*
X9228087Y16808101D01*
X9223897Y16804798D01*
X9219880Y16800094D01*
X9219868Y16800083D01*
X9213967Y16793173D01*
X9209554Y16788271D01*
X9199046Y16777198D01*
X9196199Y16772686D01*
X9191091Y16766705D01*
X9187079Y16763187D01*
X9183307Y16758271D01*
X9183306Y16758270D01*
X9177782Y16751071D01*
X9173630Y16745943D01*
X9163706Y16734324D01*
X9161098Y16729667D01*
X9156310Y16723428D01*
X9152490Y16719706D01*
X9143823Y16707095D01*
X9139962Y16701782D01*
X9134426Y16694568D01*
X9134424Y16694564D01*
X9130659Y16689658D01*
X9128301Y16684877D01*
X9123846Y16678395D01*
X9120226Y16674478D01*
X9116988Y16669194D01*
X9112247Y16661458D01*
X9108665Y16655941D01*
X9099995Y16643326D01*
X9097891Y16638429D01*
X9093781Y16631720D01*
X9090367Y16627616D01*
X9087412Y16622173D01*
X9083073Y16614181D01*
X9079787Y16608489D01*
X9071799Y16595455D01*
X9069952Y16590449D01*
X9066195Y16583531D01*
X9063011Y16579267D01*
X9060348Y16573684D01*
X9056429Y16565468D01*
X9053436Y16559594D01*
X9046145Y16546165D01*
X9044566Y16541079D01*
X9041181Y16533980D01*
X9038215Y16529541D01*
X9035848Y16523827D01*
X9035845Y16523821D01*
X9032369Y16515428D01*
X9029702Y16509435D01*
X9023110Y16495616D01*
X9021796Y16490443D01*
X9018785Y16483176D01*
X9016060Y16478595D01*
X9010950Y16464165D01*
X9008595Y16458031D01*
X9002748Y16443914D01*
X9001709Y16438691D01*
X8999081Y16431270D01*
X8996598Y16426550D01*
X8994839Y16420612D01*
X8994837Y16420607D01*
X8992255Y16411891D01*
X8990219Y16405625D01*
X8985122Y16391230D01*
X8984356Y16385949D01*
X8982122Y16378408D01*
X8979890Y16373566D01*
X8976576Y16359762D01*
X8976322Y16358705D01*
X8974616Y16352339D01*
X8972035Y16343624D01*
X8970276Y16337685D01*
X8969789Y16332380D01*
X8967954Y16324733D01*
X8965976Y16319775D01*
X8964848Y16313688D01*
X8964846Y16313682D01*
X8963191Y16304754D01*
X8961821Y16298308D01*
X8958253Y16283446D01*
X8958044Y16278122D01*
X8956609Y16270377D01*
X8954896Y16265330D01*
X8954089Y16259204D01*
X8954089Y16259202D01*
X8952900Y16250170D01*
X8951869Y16243666D01*
X8949086Y16228647D01*
X8949156Y16223318D01*
X8948129Y16215513D01*
X8946681Y16210381D01*
X8946196Y16204213D01*
X8946195Y16204210D01*
X8945481Y16195133D01*
X8944792Y16188583D01*
X8942799Y16173442D01*
X8943147Y16168124D01*
X8942530Y16160274D01*
X8941354Y16155078D01*
X8941192Y16148895D01*
X8941192Y16148894D01*
X8940954Y16139810D01*
X8940609Y16133229D01*
X8939927Y16124555D01*
X8939410Y16117985D01*
X8940009Y16112928D01*
X8939802Y16107655D01*
X8939500Y16106137D01*
X8939500Y16085924D01*
X8939457Y16082630D01*
X8939149Y16070853D01*
X8938928Y16070859D01*
X8938994Y16069950D01*
X8938928Y16069569D01*
X8939021Y16065999D01*
X8938928Y16062429D01*
X8938994Y16062048D01*
X8938928Y16061141D01*
X8939149Y16061147D01*
X8939149Y16061145D01*
X8939239Y16057726D01*
X8939457Y16049381D01*
X8939500Y16046084D01*
X8939500Y16025863D01*
X8939772Y16024494D01*
X8939953Y16019882D01*
X8939383Y16015061D01*
X8939869Y16008886D01*
X8939869Y16008884D01*
X8940581Y15999840D01*
X8940927Y15993250D01*
X8941327Y15977967D01*
X8942467Y15972927D01*
X8943028Y15965807D01*
X8942690Y15960651D01*
X8944685Y15945494D01*
X8945372Y15938963D01*
X8946572Y15923710D01*
X8947973Y15918741D01*
X8948908Y15911645D01*
X8948840Y15906484D01*
X8949969Y15900392D01*
X8949969Y15900391D01*
X8951622Y15891469D01*
X8952654Y15884954D01*
X8954649Y15869801D01*
X8956310Y15864908D01*
X8957614Y15857869D01*
X8957817Y15852710D01*
X8959262Y15846691D01*
X8961382Y15837860D01*
X8962752Y15831414D01*
X8965538Y15816385D01*
X8967454Y15811584D01*
X8969124Y15804626D01*
X8969595Y15799493D01*
X8973931Y15784855D01*
X8975635Y15778493D01*
X8977763Y15769632D01*
X8977765Y15769627D01*
X8979210Y15763608D01*
X8981370Y15758923D01*
X8983401Y15752066D01*
X8984142Y15746956D01*
X8986208Y15741122D01*
X8986208Y15741121D01*
X8989249Y15732532D01*
X8991283Y15726270D01*
X8995619Y15711633D01*
X8998023Y15707063D01*
X9000411Y15700320D01*
X9001420Y15695248D01*
X9003790Y15689527D01*
X9003791Y15689523D01*
X9007268Y15681129D01*
X9009630Y15674978D01*
X9014729Y15660577D01*
X9017373Y15656133D01*
X9020110Y15649526D01*
X9021381Y15644521D01*
X9024046Y15638934D01*
X9027954Y15630740D01*
X9030632Y15624725D01*
X9036488Y15610590D01*
X9039357Y15606297D01*
X9042434Y15599847D01*
X9043966Y15594912D01*
X9046924Y15589465D01*
X9051246Y15581505D01*
X9054240Y15575632D01*
X9060830Y15561814D01*
X9063921Y15557675D01*
X9067333Y15551391D01*
X9069119Y15546549D01*
X9072352Y15541273D01*
X9072355Y15541267D01*
X9077097Y15533529D01*
X9080391Y15527824D01*
X9082127Y15524627D01*
X9097057Y15455217D01*
X9072090Y15388755D01*
X9015155Y15346342D01*
X8971399Y15338500D01*
X8800000Y15338500D01*
X8702224Y15319051D01*
X8691909Y15312159D01*
X8691907Y15312158D01*
X8629650Y15270559D01*
X8619334Y15263666D01*
X8612442Y15253351D01*
X8603663Y15244572D01*
X8602841Y15245394D01*
X8558066Y15207972D01*
X8507775Y15197500D01*
X4404599Y15197500D01*
X4383828Y15199711D01*
X4380102Y15199887D01*
X4369924Y15202078D01*
X4339601Y15198489D01*
X4338621Y15198373D01*
X4332335Y15198002D01*
X4332341Y15197928D01*
X4327165Y15197500D01*
X4321961Y15197500D01*
X4302014Y15194180D01*
X4296191Y15193351D01*
X4272637Y15190563D01*
X4256182Y15188616D01*
X4256180Y15188616D01*
X4245843Y15187392D01*
X4237678Y15183471D01*
X4228749Y15181985D01*
X4219587Y15177041D01*
X4219583Y15177040D01*
X4184170Y15157932D01*
X4178880Y15155237D01*
X4140360Y15136740D01*
X4140356Y15136737D01*
X4133210Y15133306D01*
X4127302Y15128339D01*
X4125358Y15126395D01*
X4124838Y15125918D01*
X4118789Y15122654D01*
X4111721Y15115008D01*
X4085876Y15087049D01*
X4082446Y15083483D01*
X2151675Y13152712D01*
X2135421Y13139584D01*
X2132668Y13137079D01*
X2123919Y13131430D01*
X2117472Y13123252D01*
X2104403Y13106674D01*
X2100220Y13101967D01*
X2100277Y13101918D01*
X2096925Y13097962D01*
X2093241Y13094278D01*
X2081484Y13077826D01*
X2077943Y13073110D01*
X2046565Y13033307D01*
X2043564Y13024761D01*
X2038301Y13017396D01*
X2025043Y12973064D01*
X2023789Y12968872D01*
X2021962Y12963248D01*
X2005166Y12915419D01*
X2004500Y12907729D01*
X2004500Y12905016D01*
X2004468Y12904268D01*
X2002500Y12897689D01*
X2002909Y12887282D01*
X2004403Y12849261D01*
X2004500Y12844314D01*
X2004500Y10981352D01*
X1984498Y10913231D01*
X1930842Y10866738D01*
X1890848Y10855959D01*
X1886188Y10855500D01*
X1880000Y10855500D01*
X1782224Y10836051D01*
X1771909Y10829159D01*
X1771907Y10829158D01*
X1736749Y10805666D01*
X1699334Y10780666D01*
X1692441Y10770350D01*
X1650842Y10708093D01*
X1650841Y10708091D01*
X1643949Y10697776D01*
X1624500Y10600000D01*
X250000Y10600000D01*
X250000Y17624000D01*
X270002Y17692121D01*
X323658Y17738614D01*
X376000Y17750000D01*
X19624000Y17750000D01*
X19692121Y17729998D01*
G37*
G04 #@! TD.AperFunction*
M02*
