%TF.GenerationSoftware,KiCad,Pcbnew,(5.99.0-11065-g2a3d8e22b6)*%
%TF.CreationDate,2021-07-07T11:59:56+01:00*%
%TF.ProjectId,NB3_ear,4e42335f-6561-4722-9e6b-696361645f70,0.0.1*%
%TF.SameCoordinates,Original*%
%TF.FileFunction,Paste,Top*%
%TF.FilePolarity,Positive*%
%FSLAX46Y46*%
G04 Gerber Fmt 4.6, Leading zero omitted, Abs format (unit mm)*
G04 Created by KiCad (PCBNEW (5.99.0-11065-g2a3d8e22b6)) date 2021-07-07 11:59:56*
%MOMM*%
%LPD*%
G01*
G04 APERTURE LIST*
G04 Aperture macros list*
%AMRoundRect*
0 Rectangle with rounded corners*
0 $1 Rounding radius*
0 $2 $3 $4 $5 $6 $7 $8 $9 X,Y pos of 4 corners*
0 Add a 4 corners polygon primitive as box body*
4,1,4,$2,$3,$4,$5,$6,$7,$8,$9,$2,$3,0*
0 Add four circle primitives for the rounded corners*
1,1,$1+$1,$2,$3*
1,1,$1+$1,$4,$5*
1,1,$1+$1,$6,$7*
1,1,$1+$1,$8,$9*
0 Add four rect primitives between the rounded corners*
20,1,$1+$1,$2,$3,$4,$5,0*
20,1,$1+$1,$4,$5,$6,$7,0*
20,1,$1+$1,$6,$7,$8,$9,0*
20,1,$1+$1,$8,$9,$2,$3,0*%
G04 Aperture macros list end*
%ADD10C,0.001000*%
%ADD11R,1.000000X3.150000*%
%ADD12RoundRect,0.140000X-0.170000X0.140000X-0.170000X-0.140000X0.170000X-0.140000X0.170000X0.140000X0*%
%ADD13RoundRect,0.135000X0.185000X-0.135000X0.185000X0.135000X-0.185000X0.135000X-0.185000X-0.135000X0*%
G04 APERTURE END LIST*
D10*
%TO.C,MK1*%
X149930000Y-101664000D02*
X149930000Y-101242000D01*
X149930000Y-101242000D02*
X150430000Y-101242000D01*
X150430000Y-101242000D02*
X150430000Y-101664000D01*
X150430000Y-101664000D02*
X149930000Y-101664000D01*
G36*
X150430000Y-101664000D02*
G01*
X149930000Y-101664000D01*
X149930000Y-101242000D01*
X150430000Y-101242000D01*
X150430000Y-101664000D01*
G37*
X150430000Y-101664000D02*
X149930000Y-101664000D01*
X149930000Y-101242000D01*
X150430000Y-101242000D01*
X150430000Y-101664000D01*
X151730000Y-101664000D02*
X151730000Y-101242000D01*
X151730000Y-101242000D02*
X152230000Y-101242000D01*
X152230000Y-101242000D02*
X152230000Y-101664000D01*
X152230000Y-101664000D02*
X151730000Y-101664000D01*
G36*
X152230000Y-101664000D02*
G01*
X151730000Y-101664000D01*
X151730000Y-101242000D01*
X152230000Y-101242000D01*
X152230000Y-101664000D01*
G37*
X152230000Y-101664000D02*
X151730000Y-101664000D01*
X151730000Y-101242000D01*
X152230000Y-101242000D01*
X152230000Y-101664000D01*
X151030000Y-100711000D02*
X151008804Y-100708598D01*
X151008804Y-100708598D02*
X150985416Y-100704894D01*
X150985416Y-100704894D02*
X150962225Y-100700105D01*
X150962225Y-100700105D02*
X150939282Y-100694243D01*
X150939282Y-100694243D02*
X150916636Y-100687319D01*
X150916636Y-100687319D02*
X150894338Y-100679350D01*
X150894338Y-100679350D02*
X150872434Y-100670352D01*
X150872434Y-100670352D02*
X150850972Y-100660344D01*
X150850972Y-100660344D02*
X150830000Y-100649349D01*
X150830000Y-100649349D02*
X150809562Y-100637390D01*
X150809562Y-100637390D02*
X150789702Y-100624492D01*
X150789702Y-100624492D02*
X150770464Y-100610685D01*
X150770464Y-100610685D02*
X150751889Y-100595998D01*
X150751889Y-100595998D02*
X150734017Y-100580463D01*
X150734017Y-100580463D02*
X150716888Y-100564112D01*
X150716888Y-100564112D02*
X150700537Y-100546983D01*
X150700537Y-100546983D02*
X150685002Y-100529111D01*
X150685002Y-100529111D02*
X150670315Y-100510536D01*
X150670315Y-100510536D02*
X150656508Y-100491298D01*
X150656508Y-100491298D02*
X150643610Y-100471438D01*
X150643610Y-100471438D02*
X150631651Y-100451000D01*
X150631651Y-100451000D02*
X150620656Y-100430028D01*
X150620656Y-100430028D02*
X150610648Y-100408566D01*
X150610648Y-100408566D02*
X150601650Y-100386662D01*
X150601650Y-100386662D02*
X150593681Y-100364364D01*
X150593681Y-100364364D02*
X150586757Y-100341718D01*
X150586757Y-100341718D02*
X150580895Y-100318775D01*
X150580895Y-100318775D02*
X150576106Y-100295584D01*
X150576106Y-100295584D02*
X150572402Y-100272196D01*
X150572402Y-100272196D02*
X150570000Y-100251000D01*
X150570000Y-100251000D02*
X150270000Y-100251000D01*
X150270000Y-100251000D02*
X150272979Y-100289506D01*
X150272979Y-100289506D02*
X150277902Y-100328477D01*
X150277902Y-100328477D02*
X150284723Y-100367160D01*
X150284723Y-100367160D02*
X150293425Y-100405465D01*
X150293425Y-100405465D02*
X150303989Y-100443298D01*
X150303989Y-100443298D02*
X150316387Y-100480570D01*
X150316387Y-100480570D02*
X150330592Y-100517192D01*
X150330592Y-100517192D02*
X150346569Y-100553077D01*
X150346569Y-100553077D02*
X150364280Y-100588138D01*
X150364280Y-100588138D02*
X150383682Y-100622292D01*
X150383682Y-100622292D02*
X150404729Y-100655458D01*
X150404729Y-100655458D02*
X150427372Y-100687555D01*
X150427372Y-100687555D02*
X150451555Y-100718509D01*
X150451555Y-100718509D02*
X150477222Y-100748244D01*
X150477222Y-100748244D02*
X150504310Y-100776690D01*
X150504310Y-100776690D02*
X150532756Y-100803778D01*
X150532756Y-100803778D02*
X150562491Y-100829445D01*
X150562491Y-100829445D02*
X150593445Y-100853628D01*
X150593445Y-100853628D02*
X150625542Y-100876271D01*
X150625542Y-100876271D02*
X150658708Y-100897318D01*
X150658708Y-100897318D02*
X150692862Y-100916720D01*
X150692862Y-100916720D02*
X150727923Y-100934431D01*
X150727923Y-100934431D02*
X150763808Y-100950408D01*
X150763808Y-100950408D02*
X150800430Y-100964613D01*
X150800430Y-100964613D02*
X150837702Y-100977011D01*
X150837702Y-100977011D02*
X150875535Y-100987575D01*
X150875535Y-100987575D02*
X150913840Y-100996277D01*
X150913840Y-100996277D02*
X150952523Y-101003098D01*
X150952523Y-101003098D02*
X150991494Y-101008021D01*
X150991494Y-101008021D02*
X151030000Y-101011000D01*
X151030000Y-101011000D02*
X151030000Y-100711000D01*
X151030000Y-100711000D02*
X151030000Y-100711000D01*
G36*
X150572402Y-100272196D02*
G01*
X150576106Y-100295584D01*
X150580895Y-100318775D01*
X150586757Y-100341718D01*
X150593681Y-100364364D01*
X150601650Y-100386662D01*
X150610648Y-100408566D01*
X150620656Y-100430028D01*
X150631651Y-100451000D01*
X150643610Y-100471438D01*
X150656508Y-100491298D01*
X150670315Y-100510536D01*
X150685002Y-100529111D01*
X150700537Y-100546983D01*
X150716888Y-100564112D01*
X150734017Y-100580463D01*
X150751889Y-100595998D01*
X150770464Y-100610685D01*
X150789702Y-100624492D01*
X150809562Y-100637390D01*
X150830000Y-100649349D01*
X150850972Y-100660344D01*
X150872434Y-100670352D01*
X150894338Y-100679350D01*
X150916636Y-100687319D01*
X150939282Y-100694243D01*
X150962225Y-100700105D01*
X150985416Y-100704894D01*
X151008804Y-100708598D01*
X151030000Y-100711000D01*
X151030000Y-101011000D01*
X150991494Y-101008021D01*
X150952523Y-101003098D01*
X150913840Y-100996277D01*
X150875535Y-100987575D01*
X150837702Y-100977011D01*
X150800430Y-100964613D01*
X150763808Y-100950408D01*
X150727923Y-100934431D01*
X150692862Y-100916720D01*
X150658708Y-100897318D01*
X150625542Y-100876271D01*
X150593445Y-100853628D01*
X150562491Y-100829445D01*
X150532756Y-100803778D01*
X150504310Y-100776690D01*
X150477222Y-100748244D01*
X150451555Y-100718509D01*
X150427372Y-100687555D01*
X150404729Y-100655458D01*
X150383682Y-100622292D01*
X150364280Y-100588138D01*
X150346569Y-100553077D01*
X150330592Y-100517192D01*
X150316387Y-100480570D01*
X150303989Y-100443298D01*
X150293425Y-100405465D01*
X150284723Y-100367160D01*
X150277902Y-100328477D01*
X150272979Y-100289506D01*
X150270000Y-100251000D01*
X150570000Y-100251000D01*
X150572402Y-100272196D01*
G37*
X150572402Y-100272196D02*
X150576106Y-100295584D01*
X150580895Y-100318775D01*
X150586757Y-100341718D01*
X150593681Y-100364364D01*
X150601650Y-100386662D01*
X150610648Y-100408566D01*
X150620656Y-100430028D01*
X150631651Y-100451000D01*
X150643610Y-100471438D01*
X150656508Y-100491298D01*
X150670315Y-100510536D01*
X150685002Y-100529111D01*
X150700537Y-100546983D01*
X150716888Y-100564112D01*
X150734017Y-100580463D01*
X150751889Y-100595998D01*
X150770464Y-100610685D01*
X150789702Y-100624492D01*
X150809562Y-100637390D01*
X150830000Y-100649349D01*
X150850972Y-100660344D01*
X150872434Y-100670352D01*
X150894338Y-100679350D01*
X150916636Y-100687319D01*
X150939282Y-100694243D01*
X150962225Y-100700105D01*
X150985416Y-100704894D01*
X151008804Y-100708598D01*
X151030000Y-100711000D01*
X151030000Y-101011000D01*
X150991494Y-101008021D01*
X150952523Y-101003098D01*
X150913840Y-100996277D01*
X150875535Y-100987575D01*
X150837702Y-100977011D01*
X150800430Y-100964613D01*
X150763808Y-100950408D01*
X150727923Y-100934431D01*
X150692862Y-100916720D01*
X150658708Y-100897318D01*
X150625542Y-100876271D01*
X150593445Y-100853628D01*
X150562491Y-100829445D01*
X150532756Y-100803778D01*
X150504310Y-100776690D01*
X150477222Y-100748244D01*
X150451555Y-100718509D01*
X150427372Y-100687555D01*
X150404729Y-100655458D01*
X150383682Y-100622292D01*
X150364280Y-100588138D01*
X150346569Y-100553077D01*
X150330592Y-100517192D01*
X150316387Y-100480570D01*
X150303989Y-100443298D01*
X150293425Y-100405465D01*
X150284723Y-100367160D01*
X150277902Y-100328477D01*
X150272979Y-100289506D01*
X150270000Y-100251000D01*
X150570000Y-100251000D01*
X150572402Y-100272196D01*
X150570000Y-100151000D02*
X150572402Y-100129804D01*
X150572402Y-100129804D02*
X150576106Y-100106416D01*
X150576106Y-100106416D02*
X150580895Y-100083225D01*
X150580895Y-100083225D02*
X150586757Y-100060282D01*
X150586757Y-100060282D02*
X150593681Y-100037636D01*
X150593681Y-100037636D02*
X150601650Y-100015338D01*
X150601650Y-100015338D02*
X150610648Y-99993434D01*
X150610648Y-99993434D02*
X150620656Y-99971972D01*
X150620656Y-99971972D02*
X150631651Y-99951000D01*
X150631651Y-99951000D02*
X150643610Y-99930562D01*
X150643610Y-99930562D02*
X150656508Y-99910702D01*
X150656508Y-99910702D02*
X150670315Y-99891464D01*
X150670315Y-99891464D02*
X150685002Y-99872889D01*
X150685002Y-99872889D02*
X150700537Y-99855017D01*
X150700537Y-99855017D02*
X150716888Y-99837888D01*
X150716888Y-99837888D02*
X150734017Y-99821537D01*
X150734017Y-99821537D02*
X150751889Y-99806002D01*
X150751889Y-99806002D02*
X150770464Y-99791315D01*
X150770464Y-99791315D02*
X150789702Y-99777508D01*
X150789702Y-99777508D02*
X150809562Y-99764610D01*
X150809562Y-99764610D02*
X150830000Y-99752651D01*
X150830000Y-99752651D02*
X150850972Y-99741656D01*
X150850972Y-99741656D02*
X150872434Y-99731648D01*
X150872434Y-99731648D02*
X150894338Y-99722650D01*
X150894338Y-99722650D02*
X150916636Y-99714681D01*
X150916636Y-99714681D02*
X150939282Y-99707757D01*
X150939282Y-99707757D02*
X150962225Y-99701895D01*
X150962225Y-99701895D02*
X150985416Y-99697106D01*
X150985416Y-99697106D02*
X151008804Y-99693402D01*
X151008804Y-99693402D02*
X151030000Y-99691000D01*
X151030000Y-99691000D02*
X151030000Y-99391000D01*
X151030000Y-99391000D02*
X150991494Y-99393979D01*
X150991494Y-99393979D02*
X150952523Y-99398902D01*
X150952523Y-99398902D02*
X150913840Y-99405723D01*
X150913840Y-99405723D02*
X150875535Y-99414425D01*
X150875535Y-99414425D02*
X150837702Y-99424989D01*
X150837702Y-99424989D02*
X150800430Y-99437387D01*
X150800430Y-99437387D02*
X150763808Y-99451592D01*
X150763808Y-99451592D02*
X150727923Y-99467569D01*
X150727923Y-99467569D02*
X150692862Y-99485280D01*
X150692862Y-99485280D02*
X150658708Y-99504682D01*
X150658708Y-99504682D02*
X150625542Y-99525729D01*
X150625542Y-99525729D02*
X150593445Y-99548372D01*
X150593445Y-99548372D02*
X150562491Y-99572555D01*
X150562491Y-99572555D02*
X150532756Y-99598222D01*
X150532756Y-99598222D02*
X150504310Y-99625310D01*
X150504310Y-99625310D02*
X150477222Y-99653756D01*
X150477222Y-99653756D02*
X150451555Y-99683491D01*
X150451555Y-99683491D02*
X150427372Y-99714445D01*
X150427372Y-99714445D02*
X150404729Y-99746542D01*
X150404729Y-99746542D02*
X150383682Y-99779708D01*
X150383682Y-99779708D02*
X150364280Y-99813862D01*
X150364280Y-99813862D02*
X150346569Y-99848923D01*
X150346569Y-99848923D02*
X150330592Y-99884808D01*
X150330592Y-99884808D02*
X150316387Y-99921430D01*
X150316387Y-99921430D02*
X150303989Y-99958702D01*
X150303989Y-99958702D02*
X150293425Y-99996535D01*
X150293425Y-99996535D02*
X150284723Y-100034840D01*
X150284723Y-100034840D02*
X150277902Y-100073523D01*
X150277902Y-100073523D02*
X150272979Y-100112494D01*
X150272979Y-100112494D02*
X150270000Y-100151000D01*
X150270000Y-100151000D02*
X150570000Y-100151000D01*
X150570000Y-100151000D02*
X150570000Y-100151000D01*
G36*
X151030000Y-99691000D02*
G01*
X151008804Y-99693402D01*
X150985416Y-99697106D01*
X150962225Y-99701895D01*
X150939282Y-99707757D01*
X150916636Y-99714681D01*
X150894338Y-99722650D01*
X150872434Y-99731648D01*
X150850972Y-99741656D01*
X150830000Y-99752651D01*
X150809562Y-99764610D01*
X150789702Y-99777508D01*
X150770464Y-99791315D01*
X150751889Y-99806002D01*
X150734017Y-99821537D01*
X150716888Y-99837888D01*
X150700537Y-99855017D01*
X150685002Y-99872889D01*
X150670315Y-99891464D01*
X150656508Y-99910702D01*
X150643610Y-99930562D01*
X150631651Y-99951000D01*
X150620656Y-99971972D01*
X150610648Y-99993434D01*
X150601650Y-100015338D01*
X150593681Y-100037636D01*
X150586757Y-100060282D01*
X150580895Y-100083225D01*
X150576106Y-100106416D01*
X150572402Y-100129804D01*
X150570000Y-100151000D01*
X150270000Y-100151000D01*
X150272979Y-100112494D01*
X150277902Y-100073523D01*
X150284723Y-100034840D01*
X150293425Y-99996535D01*
X150303989Y-99958702D01*
X150316387Y-99921430D01*
X150330592Y-99884808D01*
X150346569Y-99848923D01*
X150364280Y-99813862D01*
X150383682Y-99779708D01*
X150404729Y-99746542D01*
X150427372Y-99714445D01*
X150451555Y-99683491D01*
X150477222Y-99653756D01*
X150504310Y-99625310D01*
X150532756Y-99598222D01*
X150562491Y-99572555D01*
X150593445Y-99548372D01*
X150625542Y-99525729D01*
X150658708Y-99504682D01*
X150692862Y-99485280D01*
X150727923Y-99467569D01*
X150763808Y-99451592D01*
X150800430Y-99437387D01*
X150837702Y-99424989D01*
X150875535Y-99414425D01*
X150913840Y-99405723D01*
X150952523Y-99398902D01*
X150991494Y-99393979D01*
X151030000Y-99391000D01*
X151030000Y-99691000D01*
G37*
X151030000Y-99691000D02*
X151008804Y-99693402D01*
X150985416Y-99697106D01*
X150962225Y-99701895D01*
X150939282Y-99707757D01*
X150916636Y-99714681D01*
X150894338Y-99722650D01*
X150872434Y-99731648D01*
X150850972Y-99741656D01*
X150830000Y-99752651D01*
X150809562Y-99764610D01*
X150789702Y-99777508D01*
X150770464Y-99791315D01*
X150751889Y-99806002D01*
X150734017Y-99821537D01*
X150716888Y-99837888D01*
X150700537Y-99855017D01*
X150685002Y-99872889D01*
X150670315Y-99891464D01*
X150656508Y-99910702D01*
X150643610Y-99930562D01*
X150631651Y-99951000D01*
X150620656Y-99971972D01*
X150610648Y-99993434D01*
X150601650Y-100015338D01*
X150593681Y-100037636D01*
X150586757Y-100060282D01*
X150580895Y-100083225D01*
X150576106Y-100106416D01*
X150572402Y-100129804D01*
X150570000Y-100151000D01*
X150270000Y-100151000D01*
X150272979Y-100112494D01*
X150277902Y-100073523D01*
X150284723Y-100034840D01*
X150293425Y-99996535D01*
X150303989Y-99958702D01*
X150316387Y-99921430D01*
X150330592Y-99884808D01*
X150346569Y-99848923D01*
X150364280Y-99813862D01*
X150383682Y-99779708D01*
X150404729Y-99746542D01*
X150427372Y-99714445D01*
X150451555Y-99683491D01*
X150477222Y-99653756D01*
X150504310Y-99625310D01*
X150532756Y-99598222D01*
X150562491Y-99572555D01*
X150593445Y-99548372D01*
X150625542Y-99525729D01*
X150658708Y-99504682D01*
X150692862Y-99485280D01*
X150727923Y-99467569D01*
X150763808Y-99451592D01*
X150800430Y-99437387D01*
X150837702Y-99424989D01*
X150875535Y-99414425D01*
X150913840Y-99405723D01*
X150952523Y-99398902D01*
X150991494Y-99393979D01*
X151030000Y-99391000D01*
X151030000Y-99691000D01*
X150830000Y-102486000D02*
X150830000Y-102064000D01*
X150830000Y-102064000D02*
X151330000Y-102064000D01*
X151330000Y-102064000D02*
X151330000Y-102486000D01*
X151330000Y-102486000D02*
X150830000Y-102486000D01*
G36*
X151330000Y-102486000D02*
G01*
X150830000Y-102486000D01*
X150830000Y-102064000D01*
X151330000Y-102064000D01*
X151330000Y-102486000D01*
G37*
X151330000Y-102486000D02*
X150830000Y-102486000D01*
X150830000Y-102064000D01*
X151330000Y-102064000D01*
X151330000Y-102486000D01*
X149930000Y-102486000D02*
X149930000Y-102064000D01*
X149930000Y-102064000D02*
X150430000Y-102064000D01*
X150430000Y-102064000D02*
X150430000Y-102486000D01*
X150430000Y-102486000D02*
X149930000Y-102486000D01*
G36*
X150430000Y-102486000D02*
G01*
X149930000Y-102486000D01*
X149930000Y-102064000D01*
X150430000Y-102064000D01*
X150430000Y-102486000D01*
G37*
X150430000Y-102486000D02*
X149930000Y-102486000D01*
X149930000Y-102064000D01*
X150430000Y-102064000D01*
X150430000Y-102486000D01*
X151130000Y-99691000D02*
X151151196Y-99693402D01*
X151151196Y-99693402D02*
X151174584Y-99697106D01*
X151174584Y-99697106D02*
X151197775Y-99701895D01*
X151197775Y-99701895D02*
X151220718Y-99707757D01*
X151220718Y-99707757D02*
X151243364Y-99714681D01*
X151243364Y-99714681D02*
X151265662Y-99722650D01*
X151265662Y-99722650D02*
X151287566Y-99731648D01*
X151287566Y-99731648D02*
X151309028Y-99741656D01*
X151309028Y-99741656D02*
X151330000Y-99752651D01*
X151330000Y-99752651D02*
X151350438Y-99764610D01*
X151350438Y-99764610D02*
X151370298Y-99777508D01*
X151370298Y-99777508D02*
X151389536Y-99791315D01*
X151389536Y-99791315D02*
X151408111Y-99806002D01*
X151408111Y-99806002D02*
X151425983Y-99821537D01*
X151425983Y-99821537D02*
X151443112Y-99837888D01*
X151443112Y-99837888D02*
X151459463Y-99855017D01*
X151459463Y-99855017D02*
X151474998Y-99872889D01*
X151474998Y-99872889D02*
X151489685Y-99891464D01*
X151489685Y-99891464D02*
X151503492Y-99910702D01*
X151503492Y-99910702D02*
X151516390Y-99930562D01*
X151516390Y-99930562D02*
X151528349Y-99951000D01*
X151528349Y-99951000D02*
X151539344Y-99971972D01*
X151539344Y-99971972D02*
X151549352Y-99993434D01*
X151549352Y-99993434D02*
X151558350Y-100015338D01*
X151558350Y-100015338D02*
X151566319Y-100037636D01*
X151566319Y-100037636D02*
X151573243Y-100060282D01*
X151573243Y-100060282D02*
X151579105Y-100083225D01*
X151579105Y-100083225D02*
X151583894Y-100106416D01*
X151583894Y-100106416D02*
X151587598Y-100129804D01*
X151587598Y-100129804D02*
X151590000Y-100151000D01*
X151590000Y-100151000D02*
X151890000Y-100151000D01*
X151890000Y-100151000D02*
X151887021Y-100112494D01*
X151887021Y-100112494D02*
X151882098Y-100073523D01*
X151882098Y-100073523D02*
X151875277Y-100034840D01*
X151875277Y-100034840D02*
X151866575Y-99996535D01*
X151866575Y-99996535D02*
X151856011Y-99958702D01*
X151856011Y-99958702D02*
X151843613Y-99921430D01*
X151843613Y-99921430D02*
X151829408Y-99884808D01*
X151829408Y-99884808D02*
X151813431Y-99848923D01*
X151813431Y-99848923D02*
X151795720Y-99813862D01*
X151795720Y-99813862D02*
X151776318Y-99779708D01*
X151776318Y-99779708D02*
X151755271Y-99746542D01*
X151755271Y-99746542D02*
X151732628Y-99714445D01*
X151732628Y-99714445D02*
X151708445Y-99683491D01*
X151708445Y-99683491D02*
X151682778Y-99653756D01*
X151682778Y-99653756D02*
X151655690Y-99625310D01*
X151655690Y-99625310D02*
X151627244Y-99598222D01*
X151627244Y-99598222D02*
X151597509Y-99572555D01*
X151597509Y-99572555D02*
X151566555Y-99548372D01*
X151566555Y-99548372D02*
X151534458Y-99525729D01*
X151534458Y-99525729D02*
X151501292Y-99504682D01*
X151501292Y-99504682D02*
X151467138Y-99485280D01*
X151467138Y-99485280D02*
X151432077Y-99467569D01*
X151432077Y-99467569D02*
X151396192Y-99451592D01*
X151396192Y-99451592D02*
X151359570Y-99437387D01*
X151359570Y-99437387D02*
X151322298Y-99424989D01*
X151322298Y-99424989D02*
X151284465Y-99414425D01*
X151284465Y-99414425D02*
X151246160Y-99405723D01*
X151246160Y-99405723D02*
X151207477Y-99398902D01*
X151207477Y-99398902D02*
X151168506Y-99393979D01*
X151168506Y-99393979D02*
X151130000Y-99391000D01*
X151130000Y-99391000D02*
X151130000Y-99691000D01*
X151130000Y-99691000D02*
X151130000Y-99691000D01*
G36*
X151168506Y-99393979D02*
G01*
X151207477Y-99398902D01*
X151246160Y-99405723D01*
X151284465Y-99414425D01*
X151322298Y-99424989D01*
X151359570Y-99437387D01*
X151396192Y-99451592D01*
X151432077Y-99467569D01*
X151467138Y-99485280D01*
X151501292Y-99504682D01*
X151534458Y-99525729D01*
X151566555Y-99548372D01*
X151597509Y-99572555D01*
X151627244Y-99598222D01*
X151655690Y-99625310D01*
X151682778Y-99653756D01*
X151708445Y-99683491D01*
X151732628Y-99714445D01*
X151755271Y-99746542D01*
X151776318Y-99779708D01*
X151795720Y-99813862D01*
X151813431Y-99848923D01*
X151829408Y-99884808D01*
X151843613Y-99921430D01*
X151856011Y-99958702D01*
X151866575Y-99996535D01*
X151875277Y-100034840D01*
X151882098Y-100073523D01*
X151887021Y-100112494D01*
X151890000Y-100151000D01*
X151590000Y-100151000D01*
X151587598Y-100129804D01*
X151583894Y-100106416D01*
X151579105Y-100083225D01*
X151573243Y-100060282D01*
X151566319Y-100037636D01*
X151558350Y-100015338D01*
X151549352Y-99993434D01*
X151539344Y-99971972D01*
X151528349Y-99951000D01*
X151516390Y-99930562D01*
X151503492Y-99910702D01*
X151489685Y-99891464D01*
X151474998Y-99872889D01*
X151459463Y-99855017D01*
X151443112Y-99837888D01*
X151425983Y-99821537D01*
X151408111Y-99806002D01*
X151389536Y-99791315D01*
X151370298Y-99777508D01*
X151350438Y-99764610D01*
X151330000Y-99752651D01*
X151309028Y-99741656D01*
X151287566Y-99731648D01*
X151265662Y-99722650D01*
X151243364Y-99714681D01*
X151220718Y-99707757D01*
X151197775Y-99701895D01*
X151174584Y-99697106D01*
X151151196Y-99693402D01*
X151130000Y-99691000D01*
X151130000Y-99391000D01*
X151168506Y-99393979D01*
G37*
X151168506Y-99393979D02*
X151207477Y-99398902D01*
X151246160Y-99405723D01*
X151284465Y-99414425D01*
X151322298Y-99424989D01*
X151359570Y-99437387D01*
X151396192Y-99451592D01*
X151432077Y-99467569D01*
X151467138Y-99485280D01*
X151501292Y-99504682D01*
X151534458Y-99525729D01*
X151566555Y-99548372D01*
X151597509Y-99572555D01*
X151627244Y-99598222D01*
X151655690Y-99625310D01*
X151682778Y-99653756D01*
X151708445Y-99683491D01*
X151732628Y-99714445D01*
X151755271Y-99746542D01*
X151776318Y-99779708D01*
X151795720Y-99813862D01*
X151813431Y-99848923D01*
X151829408Y-99884808D01*
X151843613Y-99921430D01*
X151856011Y-99958702D01*
X151866575Y-99996535D01*
X151875277Y-100034840D01*
X151882098Y-100073523D01*
X151887021Y-100112494D01*
X151890000Y-100151000D01*
X151590000Y-100151000D01*
X151587598Y-100129804D01*
X151583894Y-100106416D01*
X151579105Y-100083225D01*
X151573243Y-100060282D01*
X151566319Y-100037636D01*
X151558350Y-100015338D01*
X151549352Y-99993434D01*
X151539344Y-99971972D01*
X151528349Y-99951000D01*
X151516390Y-99930562D01*
X151503492Y-99910702D01*
X151489685Y-99891464D01*
X151474998Y-99872889D01*
X151459463Y-99855017D01*
X151443112Y-99837888D01*
X151425983Y-99821537D01*
X151408111Y-99806002D01*
X151389536Y-99791315D01*
X151370298Y-99777508D01*
X151350438Y-99764610D01*
X151330000Y-99752651D01*
X151309028Y-99741656D01*
X151287566Y-99731648D01*
X151265662Y-99722650D01*
X151243364Y-99714681D01*
X151220718Y-99707757D01*
X151197775Y-99701895D01*
X151174584Y-99697106D01*
X151151196Y-99693402D01*
X151130000Y-99691000D01*
X151130000Y-99391000D01*
X151168506Y-99393979D01*
X151730000Y-102486000D02*
X151730000Y-102064000D01*
X151730000Y-102064000D02*
X152230000Y-102064000D01*
X152230000Y-102064000D02*
X152230000Y-102486000D01*
X152230000Y-102486000D02*
X151730000Y-102486000D01*
G36*
X152230000Y-102486000D02*
G01*
X151730000Y-102486000D01*
X151730000Y-102064000D01*
X152230000Y-102064000D01*
X152230000Y-102486000D01*
G37*
X152230000Y-102486000D02*
X151730000Y-102486000D01*
X151730000Y-102064000D01*
X152230000Y-102064000D01*
X152230000Y-102486000D01*
X151590000Y-100251000D02*
X151587598Y-100272196D01*
X151587598Y-100272196D02*
X151583894Y-100295584D01*
X151583894Y-100295584D02*
X151579105Y-100318775D01*
X151579105Y-100318775D02*
X151573243Y-100341718D01*
X151573243Y-100341718D02*
X151566319Y-100364364D01*
X151566319Y-100364364D02*
X151558350Y-100386662D01*
X151558350Y-100386662D02*
X151549352Y-100408566D01*
X151549352Y-100408566D02*
X151539344Y-100430028D01*
X151539344Y-100430028D02*
X151528349Y-100451000D01*
X151528349Y-100451000D02*
X151516390Y-100471438D01*
X151516390Y-100471438D02*
X151503492Y-100491298D01*
X151503492Y-100491298D02*
X151489685Y-100510536D01*
X151489685Y-100510536D02*
X151474998Y-100529111D01*
X151474998Y-100529111D02*
X151459463Y-100546983D01*
X151459463Y-100546983D02*
X151443112Y-100564112D01*
X151443112Y-100564112D02*
X151425983Y-100580463D01*
X151425983Y-100580463D02*
X151408111Y-100595998D01*
X151408111Y-100595998D02*
X151389536Y-100610685D01*
X151389536Y-100610685D02*
X151370298Y-100624492D01*
X151370298Y-100624492D02*
X151350438Y-100637390D01*
X151350438Y-100637390D02*
X151330000Y-100649349D01*
X151330000Y-100649349D02*
X151309028Y-100660344D01*
X151309028Y-100660344D02*
X151287566Y-100670352D01*
X151287566Y-100670352D02*
X151265662Y-100679350D01*
X151265662Y-100679350D02*
X151243364Y-100687319D01*
X151243364Y-100687319D02*
X151220718Y-100694243D01*
X151220718Y-100694243D02*
X151197775Y-100700105D01*
X151197775Y-100700105D02*
X151174584Y-100704894D01*
X151174584Y-100704894D02*
X151151196Y-100708598D01*
X151151196Y-100708598D02*
X151130000Y-100711000D01*
X151130000Y-100711000D02*
X151130000Y-101011000D01*
X151130000Y-101011000D02*
X151168506Y-101008021D01*
X151168506Y-101008021D02*
X151207477Y-101003098D01*
X151207477Y-101003098D02*
X151246160Y-100996277D01*
X151246160Y-100996277D02*
X151284465Y-100987575D01*
X151284465Y-100987575D02*
X151322298Y-100977011D01*
X151322298Y-100977011D02*
X151359570Y-100964613D01*
X151359570Y-100964613D02*
X151396192Y-100950408D01*
X151396192Y-100950408D02*
X151432077Y-100934431D01*
X151432077Y-100934431D02*
X151467138Y-100916720D01*
X151467138Y-100916720D02*
X151501292Y-100897318D01*
X151501292Y-100897318D02*
X151534458Y-100876271D01*
X151534458Y-100876271D02*
X151566555Y-100853628D01*
X151566555Y-100853628D02*
X151597509Y-100829445D01*
X151597509Y-100829445D02*
X151627244Y-100803778D01*
X151627244Y-100803778D02*
X151655690Y-100776690D01*
X151655690Y-100776690D02*
X151682778Y-100748244D01*
X151682778Y-100748244D02*
X151708445Y-100718509D01*
X151708445Y-100718509D02*
X151732628Y-100687555D01*
X151732628Y-100687555D02*
X151755271Y-100655458D01*
X151755271Y-100655458D02*
X151776318Y-100622292D01*
X151776318Y-100622292D02*
X151795720Y-100588138D01*
X151795720Y-100588138D02*
X151813431Y-100553077D01*
X151813431Y-100553077D02*
X151829408Y-100517192D01*
X151829408Y-100517192D02*
X151843613Y-100480570D01*
X151843613Y-100480570D02*
X151856011Y-100443298D01*
X151856011Y-100443298D02*
X151866575Y-100405465D01*
X151866575Y-100405465D02*
X151875277Y-100367160D01*
X151875277Y-100367160D02*
X151882098Y-100328477D01*
X151882098Y-100328477D02*
X151887021Y-100289506D01*
X151887021Y-100289506D02*
X151890000Y-100251000D01*
X151890000Y-100251000D02*
X151590000Y-100251000D01*
X151590000Y-100251000D02*
X151590000Y-100251000D01*
G36*
X151887021Y-100289506D02*
G01*
X151882098Y-100328477D01*
X151875277Y-100367160D01*
X151866575Y-100405465D01*
X151856011Y-100443298D01*
X151843613Y-100480570D01*
X151829408Y-100517192D01*
X151813431Y-100553077D01*
X151795720Y-100588138D01*
X151776318Y-100622292D01*
X151755271Y-100655458D01*
X151732628Y-100687555D01*
X151708445Y-100718509D01*
X151682778Y-100748244D01*
X151655690Y-100776690D01*
X151627244Y-100803778D01*
X151597509Y-100829445D01*
X151566555Y-100853628D01*
X151534458Y-100876271D01*
X151501292Y-100897318D01*
X151467138Y-100916720D01*
X151432077Y-100934431D01*
X151396192Y-100950408D01*
X151359570Y-100964613D01*
X151322298Y-100977011D01*
X151284465Y-100987575D01*
X151246160Y-100996277D01*
X151207477Y-101003098D01*
X151168506Y-101008021D01*
X151130000Y-101011000D01*
X151130000Y-100711000D01*
X151151196Y-100708598D01*
X151174584Y-100704894D01*
X151197775Y-100700105D01*
X151220718Y-100694243D01*
X151243364Y-100687319D01*
X151265662Y-100679350D01*
X151287566Y-100670352D01*
X151309028Y-100660344D01*
X151330000Y-100649349D01*
X151350438Y-100637390D01*
X151370298Y-100624492D01*
X151389536Y-100610685D01*
X151408111Y-100595998D01*
X151425983Y-100580463D01*
X151443112Y-100564112D01*
X151459463Y-100546983D01*
X151474998Y-100529111D01*
X151489685Y-100510536D01*
X151503492Y-100491298D01*
X151516390Y-100471438D01*
X151528349Y-100451000D01*
X151539344Y-100430028D01*
X151549352Y-100408566D01*
X151558350Y-100386662D01*
X151566319Y-100364364D01*
X151573243Y-100341718D01*
X151579105Y-100318775D01*
X151583894Y-100295584D01*
X151587598Y-100272196D01*
X151590000Y-100251000D01*
X151890000Y-100251000D01*
X151887021Y-100289506D01*
G37*
X151887021Y-100289506D02*
X151882098Y-100328477D01*
X151875277Y-100367160D01*
X151866575Y-100405465D01*
X151856011Y-100443298D01*
X151843613Y-100480570D01*
X151829408Y-100517192D01*
X151813431Y-100553077D01*
X151795720Y-100588138D01*
X151776318Y-100622292D01*
X151755271Y-100655458D01*
X151732628Y-100687555D01*
X151708445Y-100718509D01*
X151682778Y-100748244D01*
X151655690Y-100776690D01*
X151627244Y-100803778D01*
X151597509Y-100829445D01*
X151566555Y-100853628D01*
X151534458Y-100876271D01*
X151501292Y-100897318D01*
X151467138Y-100916720D01*
X151432077Y-100934431D01*
X151396192Y-100950408D01*
X151359570Y-100964613D01*
X151322298Y-100977011D01*
X151284465Y-100987575D01*
X151246160Y-100996277D01*
X151207477Y-101003098D01*
X151168506Y-101008021D01*
X151130000Y-101011000D01*
X151130000Y-100711000D01*
X151151196Y-100708598D01*
X151174584Y-100704894D01*
X151197775Y-100700105D01*
X151220718Y-100694243D01*
X151243364Y-100687319D01*
X151265662Y-100679350D01*
X151287566Y-100670352D01*
X151309028Y-100660344D01*
X151330000Y-100649349D01*
X151350438Y-100637390D01*
X151370298Y-100624492D01*
X151389536Y-100610685D01*
X151408111Y-100595998D01*
X151425983Y-100580463D01*
X151443112Y-100564112D01*
X151459463Y-100546983D01*
X151474998Y-100529111D01*
X151489685Y-100510536D01*
X151503492Y-100491298D01*
X151516390Y-100471438D01*
X151528349Y-100451000D01*
X151539344Y-100430028D01*
X151549352Y-100408566D01*
X151558350Y-100386662D01*
X151566319Y-100364364D01*
X151573243Y-100341718D01*
X151579105Y-100318775D01*
X151583894Y-100295584D01*
X151587598Y-100272196D01*
X151590000Y-100251000D01*
X151890000Y-100251000D01*
X151887021Y-100289506D01*
%TD*%
D11*
%TO.C,J2*%
X153620000Y-112275000D03*
X153620000Y-107225000D03*
X156160000Y-112275000D03*
X156160000Y-107225000D03*
X158700000Y-112275000D03*
X158700000Y-107225000D03*
%TD*%
D12*
%TO.C,C1*%
X148540000Y-102275000D03*
X148540000Y-103235000D03*
%TD*%
D13*
%TO.C,R1*%
X151080000Y-108255000D03*
X151080000Y-107235000D03*
%TD*%
D11*
%TO.C,J1*%
X143460000Y-112300000D03*
X143460000Y-107250000D03*
X146000000Y-112300000D03*
X146000000Y-107250000D03*
X148540000Y-112300000D03*
X148540000Y-107250000D03*
%TD*%
M02*
