G04 #@! TF.GenerationSoftware,KiCad,Pcbnew,(5.99.0-11065-g2a3d8e22b6)*
G04 #@! TF.CreationDate,2021-07-08T09:19:06+01:00*
G04 #@! TF.ProjectId,NB3_ear,4e42335f-6561-4722-9e6b-696361645f70,0.0.1*
G04 #@! TF.SameCoordinates,PX868b5c0PY6ee3738*
G04 #@! TF.FileFunction,Paste,Top*
G04 #@! TF.FilePolarity,Positive*
%FSLAX46Y46*%
G04 Gerber Fmt 4.6, Leading zero omitted, Abs format (unit mm)*
G04 Created by KiCad (PCBNEW (5.99.0-11065-g2a3d8e22b6)) date 2021-07-08 09:19:06*
%MOMM*%
%LPD*%
G01*
G04 APERTURE LIST*
G04 Aperture macros list*
%AMRoundRect*
0 Rectangle with rounded corners*
0 $1 Rounding radius*
0 $2 $3 $4 $5 $6 $7 $8 $9 X,Y pos of 4 corners*
0 Add a 4 corners polygon primitive as box body*
4,1,4,$2,$3,$4,$5,$6,$7,$8,$9,$2,$3,0*
0 Add four circle primitives for the rounded corners*
1,1,$1+$1,$2,$3*
1,1,$1+$1,$4,$5*
1,1,$1+$1,$6,$7*
1,1,$1+$1,$8,$9*
0 Add four rect primitives between the rounded corners*
20,1,$1+$1,$2,$3,$4,$5,0*
20,1,$1+$1,$4,$5,$6,$7,0*
20,1,$1+$1,$6,$7,$8,$9,0*
20,1,$1+$1,$8,$9,$2,$3,0*%
G04 Aperture macros list end*
%ADD10C,0.001000*%
%ADD11RoundRect,0.140000X-0.170000X0.140000X-0.170000X-0.140000X0.170000X-0.140000X0.170000X0.140000X0*%
%ADD12RoundRect,0.135000X0.185000X-0.135000X0.185000X0.135000X-0.185000X0.135000X-0.185000X-0.135000X0*%
%ADD13R,1.000000X3.150000*%
G04 APERTURE END LIST*
D10*
X10510000Y16024000D02*
X10507598Y16002804D01*
X10507598Y16002804D02*
X10503894Y15979416D01*
X10503894Y15979416D02*
X10499105Y15956225D01*
X10499105Y15956225D02*
X10493243Y15933282D01*
X10493243Y15933282D02*
X10486319Y15910636D01*
X10486319Y15910636D02*
X10478350Y15888338D01*
X10478350Y15888338D02*
X10469352Y15866434D01*
X10469352Y15866434D02*
X10459344Y15844972D01*
X10459344Y15844972D02*
X10448349Y15824000D01*
X10448349Y15824000D02*
X10436390Y15803562D01*
X10436390Y15803562D02*
X10423492Y15783702D01*
X10423492Y15783702D02*
X10409685Y15764464D01*
X10409685Y15764464D02*
X10394998Y15745889D01*
X10394998Y15745889D02*
X10379463Y15728017D01*
X10379463Y15728017D02*
X10363112Y15710888D01*
X10363112Y15710888D02*
X10345983Y15694537D01*
X10345983Y15694537D02*
X10328111Y15679002D01*
X10328111Y15679002D02*
X10309536Y15664315D01*
X10309536Y15664315D02*
X10290298Y15650508D01*
X10290298Y15650508D02*
X10270438Y15637610D01*
X10270438Y15637610D02*
X10250000Y15625651D01*
X10250000Y15625651D02*
X10229028Y15614656D01*
X10229028Y15614656D02*
X10207566Y15604648D01*
X10207566Y15604648D02*
X10185662Y15595650D01*
X10185662Y15595650D02*
X10163364Y15587681D01*
X10163364Y15587681D02*
X10140718Y15580757D01*
X10140718Y15580757D02*
X10117775Y15574895D01*
X10117775Y15574895D02*
X10094584Y15570106D01*
X10094584Y15570106D02*
X10071196Y15566402D01*
X10071196Y15566402D02*
X10050000Y15564000D01*
X10050000Y15564000D02*
X10050000Y15264000D01*
X10050000Y15264000D02*
X10088506Y15266979D01*
X10088506Y15266979D02*
X10127477Y15271902D01*
X10127477Y15271902D02*
X10166160Y15278723D01*
X10166160Y15278723D02*
X10204465Y15287425D01*
X10204465Y15287425D02*
X10242298Y15297989D01*
X10242298Y15297989D02*
X10279570Y15310387D01*
X10279570Y15310387D02*
X10316192Y15324592D01*
X10316192Y15324592D02*
X10352077Y15340569D01*
X10352077Y15340569D02*
X10387138Y15358280D01*
X10387138Y15358280D02*
X10421292Y15377682D01*
X10421292Y15377682D02*
X10454458Y15398729D01*
X10454458Y15398729D02*
X10486555Y15421372D01*
X10486555Y15421372D02*
X10517509Y15445555D01*
X10517509Y15445555D02*
X10547244Y15471222D01*
X10547244Y15471222D02*
X10575690Y15498310D01*
X10575690Y15498310D02*
X10602778Y15526756D01*
X10602778Y15526756D02*
X10628445Y15556491D01*
X10628445Y15556491D02*
X10652628Y15587445D01*
X10652628Y15587445D02*
X10675271Y15619542D01*
X10675271Y15619542D02*
X10696318Y15652708D01*
X10696318Y15652708D02*
X10715720Y15686862D01*
X10715720Y15686862D02*
X10733431Y15721923D01*
X10733431Y15721923D02*
X10749408Y15757808D01*
X10749408Y15757808D02*
X10763613Y15794430D01*
X10763613Y15794430D02*
X10776011Y15831702D01*
X10776011Y15831702D02*
X10786575Y15869535D01*
X10786575Y15869535D02*
X10795277Y15907840D01*
X10795277Y15907840D02*
X10802098Y15946523D01*
X10802098Y15946523D02*
X10807021Y15985494D01*
X10807021Y15985494D02*
X10810000Y16024000D01*
X10810000Y16024000D02*
X10510000Y16024000D01*
X10510000Y16024000D02*
X10510000Y16024000D01*
G36*
X10807021Y15985494D02*
G01*
X10802098Y15946523D01*
X10795277Y15907840D01*
X10786575Y15869535D01*
X10776011Y15831702D01*
X10763613Y15794430D01*
X10749408Y15757808D01*
X10733431Y15721923D01*
X10715720Y15686862D01*
X10696318Y15652708D01*
X10675271Y15619542D01*
X10652628Y15587445D01*
X10628445Y15556491D01*
X10602778Y15526756D01*
X10575690Y15498310D01*
X10547244Y15471222D01*
X10517509Y15445555D01*
X10486555Y15421372D01*
X10454458Y15398729D01*
X10421292Y15377682D01*
X10387138Y15358280D01*
X10352077Y15340569D01*
X10316192Y15324592D01*
X10279570Y15310387D01*
X10242298Y15297989D01*
X10204465Y15287425D01*
X10166160Y15278723D01*
X10127477Y15271902D01*
X10088506Y15266979D01*
X10050000Y15264000D01*
X10050000Y15564000D01*
X10071196Y15566402D01*
X10094584Y15570106D01*
X10117775Y15574895D01*
X10140718Y15580757D01*
X10163364Y15587681D01*
X10185662Y15595650D01*
X10207566Y15604648D01*
X10229028Y15614656D01*
X10250000Y15625651D01*
X10270438Y15637610D01*
X10290298Y15650508D01*
X10309536Y15664315D01*
X10328111Y15679002D01*
X10345983Y15694537D01*
X10363112Y15710888D01*
X10379463Y15728017D01*
X10394998Y15745889D01*
X10409685Y15764464D01*
X10423492Y15783702D01*
X10436390Y15803562D01*
X10448349Y15824000D01*
X10459344Y15844972D01*
X10469352Y15866434D01*
X10478350Y15888338D01*
X10486319Y15910636D01*
X10493243Y15933282D01*
X10499105Y15956225D01*
X10503894Y15979416D01*
X10507598Y16002804D01*
X10510000Y16024000D01*
X10810000Y16024000D01*
X10807021Y15985494D01*
G37*
X10807021Y15985494D02*
X10802098Y15946523D01*
X10795277Y15907840D01*
X10786575Y15869535D01*
X10776011Y15831702D01*
X10763613Y15794430D01*
X10749408Y15757808D01*
X10733431Y15721923D01*
X10715720Y15686862D01*
X10696318Y15652708D01*
X10675271Y15619542D01*
X10652628Y15587445D01*
X10628445Y15556491D01*
X10602778Y15526756D01*
X10575690Y15498310D01*
X10547244Y15471222D01*
X10517509Y15445555D01*
X10486555Y15421372D01*
X10454458Y15398729D01*
X10421292Y15377682D01*
X10387138Y15358280D01*
X10352077Y15340569D01*
X10316192Y15324592D01*
X10279570Y15310387D01*
X10242298Y15297989D01*
X10204465Y15287425D01*
X10166160Y15278723D01*
X10127477Y15271902D01*
X10088506Y15266979D01*
X10050000Y15264000D01*
X10050000Y15564000D01*
X10071196Y15566402D01*
X10094584Y15570106D01*
X10117775Y15574895D01*
X10140718Y15580757D01*
X10163364Y15587681D01*
X10185662Y15595650D01*
X10207566Y15604648D01*
X10229028Y15614656D01*
X10250000Y15625651D01*
X10270438Y15637610D01*
X10290298Y15650508D01*
X10309536Y15664315D01*
X10328111Y15679002D01*
X10345983Y15694537D01*
X10363112Y15710888D01*
X10379463Y15728017D01*
X10394998Y15745889D01*
X10409685Y15764464D01*
X10423492Y15783702D01*
X10436390Y15803562D01*
X10448349Y15824000D01*
X10459344Y15844972D01*
X10469352Y15866434D01*
X10478350Y15888338D01*
X10486319Y15910636D01*
X10493243Y15933282D01*
X10499105Y15956225D01*
X10503894Y15979416D01*
X10507598Y16002804D01*
X10510000Y16024000D01*
X10810000Y16024000D01*
X10807021Y15985494D01*
X10650000Y13789000D02*
X10650000Y14211000D01*
X10650000Y14211000D02*
X11150000Y14211000D01*
X11150000Y14211000D02*
X11150000Y13789000D01*
X11150000Y13789000D02*
X10650000Y13789000D01*
G36*
X11150000Y13789000D02*
G01*
X10650000Y13789000D01*
X10650000Y14211000D01*
X11150000Y14211000D01*
X11150000Y13789000D01*
G37*
X11150000Y13789000D02*
X10650000Y13789000D01*
X10650000Y14211000D01*
X11150000Y14211000D01*
X11150000Y13789000D01*
X10050000Y16584000D02*
X10071196Y16581598D01*
X10071196Y16581598D02*
X10094584Y16577894D01*
X10094584Y16577894D02*
X10117775Y16573105D01*
X10117775Y16573105D02*
X10140718Y16567243D01*
X10140718Y16567243D02*
X10163364Y16560319D01*
X10163364Y16560319D02*
X10185662Y16552350D01*
X10185662Y16552350D02*
X10207566Y16543352D01*
X10207566Y16543352D02*
X10229028Y16533344D01*
X10229028Y16533344D02*
X10250000Y16522349D01*
X10250000Y16522349D02*
X10270438Y16510390D01*
X10270438Y16510390D02*
X10290298Y16497492D01*
X10290298Y16497492D02*
X10309536Y16483685D01*
X10309536Y16483685D02*
X10328111Y16468998D01*
X10328111Y16468998D02*
X10345983Y16453463D01*
X10345983Y16453463D02*
X10363112Y16437112D01*
X10363112Y16437112D02*
X10379463Y16419983D01*
X10379463Y16419983D02*
X10394998Y16402111D01*
X10394998Y16402111D02*
X10409685Y16383536D01*
X10409685Y16383536D02*
X10423492Y16364298D01*
X10423492Y16364298D02*
X10436390Y16344438D01*
X10436390Y16344438D02*
X10448349Y16324000D01*
X10448349Y16324000D02*
X10459344Y16303028D01*
X10459344Y16303028D02*
X10469352Y16281566D01*
X10469352Y16281566D02*
X10478350Y16259662D01*
X10478350Y16259662D02*
X10486319Y16237364D01*
X10486319Y16237364D02*
X10493243Y16214718D01*
X10493243Y16214718D02*
X10499105Y16191775D01*
X10499105Y16191775D02*
X10503894Y16168584D01*
X10503894Y16168584D02*
X10507598Y16145196D01*
X10507598Y16145196D02*
X10510000Y16124000D01*
X10510000Y16124000D02*
X10810000Y16124000D01*
X10810000Y16124000D02*
X10807021Y16162506D01*
X10807021Y16162506D02*
X10802098Y16201477D01*
X10802098Y16201477D02*
X10795277Y16240160D01*
X10795277Y16240160D02*
X10786575Y16278465D01*
X10786575Y16278465D02*
X10776011Y16316298D01*
X10776011Y16316298D02*
X10763613Y16353570D01*
X10763613Y16353570D02*
X10749408Y16390192D01*
X10749408Y16390192D02*
X10733431Y16426077D01*
X10733431Y16426077D02*
X10715720Y16461138D01*
X10715720Y16461138D02*
X10696318Y16495292D01*
X10696318Y16495292D02*
X10675271Y16528458D01*
X10675271Y16528458D02*
X10652628Y16560555D01*
X10652628Y16560555D02*
X10628445Y16591509D01*
X10628445Y16591509D02*
X10602778Y16621244D01*
X10602778Y16621244D02*
X10575690Y16649690D01*
X10575690Y16649690D02*
X10547244Y16676778D01*
X10547244Y16676778D02*
X10517509Y16702445D01*
X10517509Y16702445D02*
X10486555Y16726628D01*
X10486555Y16726628D02*
X10454458Y16749271D01*
X10454458Y16749271D02*
X10421292Y16770318D01*
X10421292Y16770318D02*
X10387138Y16789720D01*
X10387138Y16789720D02*
X10352077Y16807431D01*
X10352077Y16807431D02*
X10316192Y16823408D01*
X10316192Y16823408D02*
X10279570Y16837613D01*
X10279570Y16837613D02*
X10242298Y16850011D01*
X10242298Y16850011D02*
X10204465Y16860575D01*
X10204465Y16860575D02*
X10166160Y16869277D01*
X10166160Y16869277D02*
X10127477Y16876098D01*
X10127477Y16876098D02*
X10088506Y16881021D01*
X10088506Y16881021D02*
X10050000Y16884000D01*
X10050000Y16884000D02*
X10050000Y16584000D01*
X10050000Y16584000D02*
X10050000Y16584000D01*
G36*
X10088506Y16881021D02*
G01*
X10127477Y16876098D01*
X10166160Y16869277D01*
X10204465Y16860575D01*
X10242298Y16850011D01*
X10279570Y16837613D01*
X10316192Y16823408D01*
X10352077Y16807431D01*
X10387138Y16789720D01*
X10421292Y16770318D01*
X10454458Y16749271D01*
X10486555Y16726628D01*
X10517509Y16702445D01*
X10547244Y16676778D01*
X10575690Y16649690D01*
X10602778Y16621244D01*
X10628445Y16591509D01*
X10652628Y16560555D01*
X10675271Y16528458D01*
X10696318Y16495292D01*
X10715720Y16461138D01*
X10733431Y16426077D01*
X10749408Y16390192D01*
X10763613Y16353570D01*
X10776011Y16316298D01*
X10786575Y16278465D01*
X10795277Y16240160D01*
X10802098Y16201477D01*
X10807021Y16162506D01*
X10810000Y16124000D01*
X10510000Y16124000D01*
X10507598Y16145196D01*
X10503894Y16168584D01*
X10499105Y16191775D01*
X10493243Y16214718D01*
X10486319Y16237364D01*
X10478350Y16259662D01*
X10469352Y16281566D01*
X10459344Y16303028D01*
X10448349Y16324000D01*
X10436390Y16344438D01*
X10423492Y16364298D01*
X10409685Y16383536D01*
X10394998Y16402111D01*
X10379463Y16419983D01*
X10363112Y16437112D01*
X10345983Y16453463D01*
X10328111Y16468998D01*
X10309536Y16483685D01*
X10290298Y16497492D01*
X10270438Y16510390D01*
X10250000Y16522349D01*
X10229028Y16533344D01*
X10207566Y16543352D01*
X10185662Y16552350D01*
X10163364Y16560319D01*
X10140718Y16567243D01*
X10117775Y16573105D01*
X10094584Y16577894D01*
X10071196Y16581598D01*
X10050000Y16584000D01*
X10050000Y16884000D01*
X10088506Y16881021D01*
G37*
X10088506Y16881021D02*
X10127477Y16876098D01*
X10166160Y16869277D01*
X10204465Y16860575D01*
X10242298Y16850011D01*
X10279570Y16837613D01*
X10316192Y16823408D01*
X10352077Y16807431D01*
X10387138Y16789720D01*
X10421292Y16770318D01*
X10454458Y16749271D01*
X10486555Y16726628D01*
X10517509Y16702445D01*
X10547244Y16676778D01*
X10575690Y16649690D01*
X10602778Y16621244D01*
X10628445Y16591509D01*
X10652628Y16560555D01*
X10675271Y16528458D01*
X10696318Y16495292D01*
X10715720Y16461138D01*
X10733431Y16426077D01*
X10749408Y16390192D01*
X10763613Y16353570D01*
X10776011Y16316298D01*
X10786575Y16278465D01*
X10795277Y16240160D01*
X10802098Y16201477D01*
X10807021Y16162506D01*
X10810000Y16124000D01*
X10510000Y16124000D01*
X10507598Y16145196D01*
X10503894Y16168584D01*
X10499105Y16191775D01*
X10493243Y16214718D01*
X10486319Y16237364D01*
X10478350Y16259662D01*
X10469352Y16281566D01*
X10459344Y16303028D01*
X10448349Y16324000D01*
X10436390Y16344438D01*
X10423492Y16364298D01*
X10409685Y16383536D01*
X10394998Y16402111D01*
X10379463Y16419983D01*
X10363112Y16437112D01*
X10345983Y16453463D01*
X10328111Y16468998D01*
X10309536Y16483685D01*
X10290298Y16497492D01*
X10270438Y16510390D01*
X10250000Y16522349D01*
X10229028Y16533344D01*
X10207566Y16543352D01*
X10185662Y16552350D01*
X10163364Y16560319D01*
X10140718Y16567243D01*
X10117775Y16573105D01*
X10094584Y16577894D01*
X10071196Y16581598D01*
X10050000Y16584000D01*
X10050000Y16884000D01*
X10088506Y16881021D01*
X8850000Y13789000D02*
X8850000Y14211000D01*
X8850000Y14211000D02*
X9350000Y14211000D01*
X9350000Y14211000D02*
X9350000Y13789000D01*
X9350000Y13789000D02*
X8850000Y13789000D01*
G36*
X9350000Y13789000D02*
G01*
X8850000Y13789000D01*
X8850000Y14211000D01*
X9350000Y14211000D01*
X9350000Y13789000D01*
G37*
X9350000Y13789000D02*
X8850000Y13789000D01*
X8850000Y14211000D01*
X9350000Y14211000D01*
X9350000Y13789000D01*
X9750000Y13789000D02*
X9750000Y14211000D01*
X9750000Y14211000D02*
X10250000Y14211000D01*
X10250000Y14211000D02*
X10250000Y13789000D01*
X10250000Y13789000D02*
X9750000Y13789000D01*
G36*
X10250000Y13789000D02*
G01*
X9750000Y13789000D01*
X9750000Y14211000D01*
X10250000Y14211000D01*
X10250000Y13789000D01*
G37*
X10250000Y13789000D02*
X9750000Y13789000D01*
X9750000Y14211000D01*
X10250000Y14211000D01*
X10250000Y13789000D01*
X9490000Y16124000D02*
X9492402Y16145196D01*
X9492402Y16145196D02*
X9496106Y16168584D01*
X9496106Y16168584D02*
X9500895Y16191775D01*
X9500895Y16191775D02*
X9506757Y16214718D01*
X9506757Y16214718D02*
X9513681Y16237364D01*
X9513681Y16237364D02*
X9521650Y16259662D01*
X9521650Y16259662D02*
X9530648Y16281566D01*
X9530648Y16281566D02*
X9540656Y16303028D01*
X9540656Y16303028D02*
X9551651Y16324000D01*
X9551651Y16324000D02*
X9563610Y16344438D01*
X9563610Y16344438D02*
X9576508Y16364298D01*
X9576508Y16364298D02*
X9590315Y16383536D01*
X9590315Y16383536D02*
X9605002Y16402111D01*
X9605002Y16402111D02*
X9620537Y16419983D01*
X9620537Y16419983D02*
X9636888Y16437112D01*
X9636888Y16437112D02*
X9654017Y16453463D01*
X9654017Y16453463D02*
X9671889Y16468998D01*
X9671889Y16468998D02*
X9690464Y16483685D01*
X9690464Y16483685D02*
X9709702Y16497492D01*
X9709702Y16497492D02*
X9729562Y16510390D01*
X9729562Y16510390D02*
X9750000Y16522349D01*
X9750000Y16522349D02*
X9770972Y16533344D01*
X9770972Y16533344D02*
X9792434Y16543352D01*
X9792434Y16543352D02*
X9814338Y16552350D01*
X9814338Y16552350D02*
X9836636Y16560319D01*
X9836636Y16560319D02*
X9859282Y16567243D01*
X9859282Y16567243D02*
X9882225Y16573105D01*
X9882225Y16573105D02*
X9905416Y16577894D01*
X9905416Y16577894D02*
X9928804Y16581598D01*
X9928804Y16581598D02*
X9950000Y16584000D01*
X9950000Y16584000D02*
X9950000Y16884000D01*
X9950000Y16884000D02*
X9911494Y16881021D01*
X9911494Y16881021D02*
X9872523Y16876098D01*
X9872523Y16876098D02*
X9833840Y16869277D01*
X9833840Y16869277D02*
X9795535Y16860575D01*
X9795535Y16860575D02*
X9757702Y16850011D01*
X9757702Y16850011D02*
X9720430Y16837613D01*
X9720430Y16837613D02*
X9683808Y16823408D01*
X9683808Y16823408D02*
X9647923Y16807431D01*
X9647923Y16807431D02*
X9612862Y16789720D01*
X9612862Y16789720D02*
X9578708Y16770318D01*
X9578708Y16770318D02*
X9545542Y16749271D01*
X9545542Y16749271D02*
X9513445Y16726628D01*
X9513445Y16726628D02*
X9482491Y16702445D01*
X9482491Y16702445D02*
X9452756Y16676778D01*
X9452756Y16676778D02*
X9424310Y16649690D01*
X9424310Y16649690D02*
X9397222Y16621244D01*
X9397222Y16621244D02*
X9371555Y16591509D01*
X9371555Y16591509D02*
X9347372Y16560555D01*
X9347372Y16560555D02*
X9324729Y16528458D01*
X9324729Y16528458D02*
X9303682Y16495292D01*
X9303682Y16495292D02*
X9284280Y16461138D01*
X9284280Y16461138D02*
X9266569Y16426077D01*
X9266569Y16426077D02*
X9250592Y16390192D01*
X9250592Y16390192D02*
X9236387Y16353570D01*
X9236387Y16353570D02*
X9223989Y16316298D01*
X9223989Y16316298D02*
X9213425Y16278465D01*
X9213425Y16278465D02*
X9204723Y16240160D01*
X9204723Y16240160D02*
X9197902Y16201477D01*
X9197902Y16201477D02*
X9192979Y16162506D01*
X9192979Y16162506D02*
X9190000Y16124000D01*
X9190000Y16124000D02*
X9490000Y16124000D01*
X9490000Y16124000D02*
X9490000Y16124000D01*
G36*
X9950000Y16584000D02*
G01*
X9928804Y16581598D01*
X9905416Y16577894D01*
X9882225Y16573105D01*
X9859282Y16567243D01*
X9836636Y16560319D01*
X9814338Y16552350D01*
X9792434Y16543352D01*
X9770972Y16533344D01*
X9750000Y16522349D01*
X9729562Y16510390D01*
X9709702Y16497492D01*
X9690464Y16483685D01*
X9671889Y16468998D01*
X9654017Y16453463D01*
X9636888Y16437112D01*
X9620537Y16419983D01*
X9605002Y16402111D01*
X9590315Y16383536D01*
X9576508Y16364298D01*
X9563610Y16344438D01*
X9551651Y16324000D01*
X9540656Y16303028D01*
X9530648Y16281566D01*
X9521650Y16259662D01*
X9513681Y16237364D01*
X9506757Y16214718D01*
X9500895Y16191775D01*
X9496106Y16168584D01*
X9492402Y16145196D01*
X9490000Y16124000D01*
X9190000Y16124000D01*
X9192979Y16162506D01*
X9197902Y16201477D01*
X9204723Y16240160D01*
X9213425Y16278465D01*
X9223989Y16316298D01*
X9236387Y16353570D01*
X9250592Y16390192D01*
X9266569Y16426077D01*
X9284280Y16461138D01*
X9303682Y16495292D01*
X9324729Y16528458D01*
X9347372Y16560555D01*
X9371555Y16591509D01*
X9397222Y16621244D01*
X9424310Y16649690D01*
X9452756Y16676778D01*
X9482491Y16702445D01*
X9513445Y16726628D01*
X9545542Y16749271D01*
X9578708Y16770318D01*
X9612862Y16789720D01*
X9647923Y16807431D01*
X9683808Y16823408D01*
X9720430Y16837613D01*
X9757702Y16850011D01*
X9795535Y16860575D01*
X9833840Y16869277D01*
X9872523Y16876098D01*
X9911494Y16881021D01*
X9950000Y16884000D01*
X9950000Y16584000D01*
G37*
X9950000Y16584000D02*
X9928804Y16581598D01*
X9905416Y16577894D01*
X9882225Y16573105D01*
X9859282Y16567243D01*
X9836636Y16560319D01*
X9814338Y16552350D01*
X9792434Y16543352D01*
X9770972Y16533344D01*
X9750000Y16522349D01*
X9729562Y16510390D01*
X9709702Y16497492D01*
X9690464Y16483685D01*
X9671889Y16468998D01*
X9654017Y16453463D01*
X9636888Y16437112D01*
X9620537Y16419983D01*
X9605002Y16402111D01*
X9590315Y16383536D01*
X9576508Y16364298D01*
X9563610Y16344438D01*
X9551651Y16324000D01*
X9540656Y16303028D01*
X9530648Y16281566D01*
X9521650Y16259662D01*
X9513681Y16237364D01*
X9506757Y16214718D01*
X9500895Y16191775D01*
X9496106Y16168584D01*
X9492402Y16145196D01*
X9490000Y16124000D01*
X9190000Y16124000D01*
X9192979Y16162506D01*
X9197902Y16201477D01*
X9204723Y16240160D01*
X9213425Y16278465D01*
X9223989Y16316298D01*
X9236387Y16353570D01*
X9250592Y16390192D01*
X9266569Y16426077D01*
X9284280Y16461138D01*
X9303682Y16495292D01*
X9324729Y16528458D01*
X9347372Y16560555D01*
X9371555Y16591509D01*
X9397222Y16621244D01*
X9424310Y16649690D01*
X9452756Y16676778D01*
X9482491Y16702445D01*
X9513445Y16726628D01*
X9545542Y16749271D01*
X9578708Y16770318D01*
X9612862Y16789720D01*
X9647923Y16807431D01*
X9683808Y16823408D01*
X9720430Y16837613D01*
X9757702Y16850011D01*
X9795535Y16860575D01*
X9833840Y16869277D01*
X9872523Y16876098D01*
X9911494Y16881021D01*
X9950000Y16884000D01*
X9950000Y16584000D01*
X9950000Y15564000D02*
X9928804Y15566402D01*
X9928804Y15566402D02*
X9905416Y15570106D01*
X9905416Y15570106D02*
X9882225Y15574895D01*
X9882225Y15574895D02*
X9859282Y15580757D01*
X9859282Y15580757D02*
X9836636Y15587681D01*
X9836636Y15587681D02*
X9814338Y15595650D01*
X9814338Y15595650D02*
X9792434Y15604648D01*
X9792434Y15604648D02*
X9770972Y15614656D01*
X9770972Y15614656D02*
X9750000Y15625651D01*
X9750000Y15625651D02*
X9729562Y15637610D01*
X9729562Y15637610D02*
X9709702Y15650508D01*
X9709702Y15650508D02*
X9690464Y15664315D01*
X9690464Y15664315D02*
X9671889Y15679002D01*
X9671889Y15679002D02*
X9654017Y15694537D01*
X9654017Y15694537D02*
X9636888Y15710888D01*
X9636888Y15710888D02*
X9620537Y15728017D01*
X9620537Y15728017D02*
X9605002Y15745889D01*
X9605002Y15745889D02*
X9590315Y15764464D01*
X9590315Y15764464D02*
X9576508Y15783702D01*
X9576508Y15783702D02*
X9563610Y15803562D01*
X9563610Y15803562D02*
X9551651Y15824000D01*
X9551651Y15824000D02*
X9540656Y15844972D01*
X9540656Y15844972D02*
X9530648Y15866434D01*
X9530648Y15866434D02*
X9521650Y15888338D01*
X9521650Y15888338D02*
X9513681Y15910636D01*
X9513681Y15910636D02*
X9506757Y15933282D01*
X9506757Y15933282D02*
X9500895Y15956225D01*
X9500895Y15956225D02*
X9496106Y15979416D01*
X9496106Y15979416D02*
X9492402Y16002804D01*
X9492402Y16002804D02*
X9490000Y16024000D01*
X9490000Y16024000D02*
X9190000Y16024000D01*
X9190000Y16024000D02*
X9192979Y15985494D01*
X9192979Y15985494D02*
X9197902Y15946523D01*
X9197902Y15946523D02*
X9204723Y15907840D01*
X9204723Y15907840D02*
X9213425Y15869535D01*
X9213425Y15869535D02*
X9223989Y15831702D01*
X9223989Y15831702D02*
X9236387Y15794430D01*
X9236387Y15794430D02*
X9250592Y15757808D01*
X9250592Y15757808D02*
X9266569Y15721923D01*
X9266569Y15721923D02*
X9284280Y15686862D01*
X9284280Y15686862D02*
X9303682Y15652708D01*
X9303682Y15652708D02*
X9324729Y15619542D01*
X9324729Y15619542D02*
X9347372Y15587445D01*
X9347372Y15587445D02*
X9371555Y15556491D01*
X9371555Y15556491D02*
X9397222Y15526756D01*
X9397222Y15526756D02*
X9424310Y15498310D01*
X9424310Y15498310D02*
X9452756Y15471222D01*
X9452756Y15471222D02*
X9482491Y15445555D01*
X9482491Y15445555D02*
X9513445Y15421372D01*
X9513445Y15421372D02*
X9545542Y15398729D01*
X9545542Y15398729D02*
X9578708Y15377682D01*
X9578708Y15377682D02*
X9612862Y15358280D01*
X9612862Y15358280D02*
X9647923Y15340569D01*
X9647923Y15340569D02*
X9683808Y15324592D01*
X9683808Y15324592D02*
X9720430Y15310387D01*
X9720430Y15310387D02*
X9757702Y15297989D01*
X9757702Y15297989D02*
X9795535Y15287425D01*
X9795535Y15287425D02*
X9833840Y15278723D01*
X9833840Y15278723D02*
X9872523Y15271902D01*
X9872523Y15271902D02*
X9911494Y15266979D01*
X9911494Y15266979D02*
X9950000Y15264000D01*
X9950000Y15264000D02*
X9950000Y15564000D01*
X9950000Y15564000D02*
X9950000Y15564000D01*
G36*
X9492402Y16002804D02*
G01*
X9496106Y15979416D01*
X9500895Y15956225D01*
X9506757Y15933282D01*
X9513681Y15910636D01*
X9521650Y15888338D01*
X9530648Y15866434D01*
X9540656Y15844972D01*
X9551651Y15824000D01*
X9563610Y15803562D01*
X9576508Y15783702D01*
X9590315Y15764464D01*
X9605002Y15745889D01*
X9620537Y15728017D01*
X9636888Y15710888D01*
X9654017Y15694537D01*
X9671889Y15679002D01*
X9690464Y15664315D01*
X9709702Y15650508D01*
X9729562Y15637610D01*
X9750000Y15625651D01*
X9770972Y15614656D01*
X9792434Y15604648D01*
X9814338Y15595650D01*
X9836636Y15587681D01*
X9859282Y15580757D01*
X9882225Y15574895D01*
X9905416Y15570106D01*
X9928804Y15566402D01*
X9950000Y15564000D01*
X9950000Y15264000D01*
X9911494Y15266979D01*
X9872523Y15271902D01*
X9833840Y15278723D01*
X9795535Y15287425D01*
X9757702Y15297989D01*
X9720430Y15310387D01*
X9683808Y15324592D01*
X9647923Y15340569D01*
X9612862Y15358280D01*
X9578708Y15377682D01*
X9545542Y15398729D01*
X9513445Y15421372D01*
X9482491Y15445555D01*
X9452756Y15471222D01*
X9424310Y15498310D01*
X9397222Y15526756D01*
X9371555Y15556491D01*
X9347372Y15587445D01*
X9324729Y15619542D01*
X9303682Y15652708D01*
X9284280Y15686862D01*
X9266569Y15721923D01*
X9250592Y15757808D01*
X9236387Y15794430D01*
X9223989Y15831702D01*
X9213425Y15869535D01*
X9204723Y15907840D01*
X9197902Y15946523D01*
X9192979Y15985494D01*
X9190000Y16024000D01*
X9490000Y16024000D01*
X9492402Y16002804D01*
G37*
X9492402Y16002804D02*
X9496106Y15979416D01*
X9500895Y15956225D01*
X9506757Y15933282D01*
X9513681Y15910636D01*
X9521650Y15888338D01*
X9530648Y15866434D01*
X9540656Y15844972D01*
X9551651Y15824000D01*
X9563610Y15803562D01*
X9576508Y15783702D01*
X9590315Y15764464D01*
X9605002Y15745889D01*
X9620537Y15728017D01*
X9636888Y15710888D01*
X9654017Y15694537D01*
X9671889Y15679002D01*
X9690464Y15664315D01*
X9709702Y15650508D01*
X9729562Y15637610D01*
X9750000Y15625651D01*
X9770972Y15614656D01*
X9792434Y15604648D01*
X9814338Y15595650D01*
X9836636Y15587681D01*
X9859282Y15580757D01*
X9882225Y15574895D01*
X9905416Y15570106D01*
X9928804Y15566402D01*
X9950000Y15564000D01*
X9950000Y15264000D01*
X9911494Y15266979D01*
X9872523Y15271902D01*
X9833840Y15278723D01*
X9795535Y15287425D01*
X9757702Y15297989D01*
X9720430Y15310387D01*
X9683808Y15324592D01*
X9647923Y15340569D01*
X9612862Y15358280D01*
X9578708Y15377682D01*
X9545542Y15398729D01*
X9513445Y15421372D01*
X9482491Y15445555D01*
X9452756Y15471222D01*
X9424310Y15498310D01*
X9397222Y15526756D01*
X9371555Y15556491D01*
X9347372Y15587445D01*
X9324729Y15619542D01*
X9303682Y15652708D01*
X9284280Y15686862D01*
X9266569Y15721923D01*
X9250592Y15757808D01*
X9236387Y15794430D01*
X9223989Y15831702D01*
X9213425Y15869535D01*
X9204723Y15907840D01*
X9197902Y15946523D01*
X9192979Y15985494D01*
X9190000Y16024000D01*
X9490000Y16024000D01*
X9492402Y16002804D01*
X10650000Y14611000D02*
X10650000Y15033000D01*
X10650000Y15033000D02*
X11150000Y15033000D01*
X11150000Y15033000D02*
X11150000Y14611000D01*
X11150000Y14611000D02*
X10650000Y14611000D01*
G36*
X11150000Y14611000D02*
G01*
X10650000Y14611000D01*
X10650000Y15033000D01*
X11150000Y15033000D01*
X11150000Y14611000D01*
G37*
X11150000Y14611000D02*
X10650000Y14611000D01*
X10650000Y15033000D01*
X11150000Y15033000D01*
X11150000Y14611000D01*
X8850000Y14611000D02*
X8850000Y15033000D01*
X8850000Y15033000D02*
X9350000Y15033000D01*
X9350000Y15033000D02*
X9350000Y14611000D01*
X9350000Y14611000D02*
X8850000Y14611000D01*
G36*
X9350000Y14611000D02*
G01*
X8850000Y14611000D01*
X8850000Y15033000D01*
X9350000Y15033000D01*
X9350000Y14611000D01*
G37*
X9350000Y14611000D02*
X8850000Y14611000D01*
X8850000Y15033000D01*
X9350000Y15033000D01*
X9350000Y14611000D01*
D11*
X7460000Y14000000D03*
X7460000Y13040000D03*
D12*
X10000000Y8020000D03*
X10000000Y9040000D03*
D13*
X12540000Y4000000D03*
X12540000Y9050000D03*
X15080000Y4000000D03*
X15080000Y9050000D03*
X17620000Y4000000D03*
X17620000Y9050000D03*
X2380000Y3975000D03*
X2380000Y9025000D03*
X4920000Y3975000D03*
X4920000Y9025000D03*
X7460000Y3975000D03*
X7460000Y9025000D03*
M02*
