G04 #@! TF.GenerationSoftware,KiCad,Pcbnew,(5.99.0-11065-g2a3d8e22b6)*
G04 #@! TF.CreationDate,2021-07-08T09:19:06+01:00*
G04 #@! TF.ProjectId,NB3_ear,4e42335f-6561-4722-9e6b-696361645f70,0.0.1*
G04 #@! TF.SameCoordinates,PX868b5c0PY6ee3738*
G04 #@! TF.FileFunction,Copper,L2,Bot*
G04 #@! TF.FilePolarity,Positive*
%FSLAX46Y46*%
G04 Gerber Fmt 4.6, Leading zero omitted, Abs format (unit mm)*
G04 Created by KiCad (PCBNEW (5.99.0-11065-g2a3d8e22b6)) date 2021-07-08 09:19:06*
%MOMM*%
%LPD*%
G01*
G04 APERTURE LIST*
G04 #@! TA.AperFunction,ViaPad*
%ADD10C,0.800000*%
G04 #@! TD*
G04 APERTURE END LIST*
D10*
X16000000Y16500000D03*
X2000000Y1500000D03*
X10000000Y4500000D03*
X16000000Y1500000D03*
X7460000Y11580000D03*
X12540000Y11580000D03*
X10000000Y6500000D03*
X18000000Y16500000D03*
X2000000Y16500000D03*
X18000000Y1500000D03*
X4000000Y1500000D03*
X4000000Y16500000D03*
X3650000Y11580000D03*
X6190000Y11580000D03*
X7500000Y16750000D03*
X12494000Y16744000D03*
G04 #@! TA.AperFunction,Conductor*
G36*
X19692121Y17729998D02*
G01*
X19738614Y17676342D01*
X19750000Y17624000D01*
X19750000Y376000D01*
X19729998Y307879D01*
X19676342Y261386D01*
X19624000Y250000D01*
X376000Y250000D01*
X307879Y270002D01*
X261386Y323658D01*
X250000Y376000D01*
X250000Y16080176D01*
X9494538Y16080176D01*
X9495702Y16071274D01*
X9495702Y16071271D01*
X9496960Y16061650D01*
X9513121Y15938061D01*
X9570845Y15806874D01*
X9663068Y15697162D01*
X9670539Y15692189D01*
X9670540Y15692188D01*
X9774903Y15622718D01*
X9782377Y15617743D01*
X9919180Y15575003D01*
X9928152Y15574839D01*
X9928155Y15574838D01*
X9993374Y15573643D01*
X10062481Y15572376D01*
X10119043Y15587797D01*
X10192099Y15607714D01*
X10192101Y15607715D01*
X10200758Y15610075D01*
X10322897Y15685069D01*
X10333843Y15697162D01*
X10413050Y15784668D01*
X10413051Y15784669D01*
X10419078Y15791328D01*
X10481570Y15920311D01*
X10505349Y16061650D01*
X10505500Y16074000D01*
X10485182Y16215877D01*
X10425860Y16346349D01*
X10332303Y16454926D01*
X10212033Y16532882D01*
X10203436Y16535453D01*
X10203434Y16535454D01*
X10119696Y16560497D01*
X10074718Y16573948D01*
X10065742Y16574003D01*
X10065741Y16574003D01*
X10004027Y16574380D01*
X9931396Y16574823D01*
X9922765Y16572356D01*
X9922763Y16572356D01*
X9802223Y16537906D01*
X9802220Y16537905D01*
X9793589Y16535438D01*
X9672375Y16458958D01*
X9577499Y16351531D01*
X9516588Y16221794D01*
X9515207Y16212926D01*
X9515207Y16212925D01*
X9495919Y16089049D01*
X9495919Y16089045D01*
X9494538Y16080176D01*
X250000Y16080176D01*
X250000Y17624000D01*
X270002Y17692121D01*
X323658Y17738614D01*
X376000Y17750000D01*
X19624000Y17750000D01*
X19692121Y17729998D01*
G37*
G04 #@! TD.AperFunction*
M02*
