M48
; DRILL file {KiCad (6.0.7)} date Tue Aug  2 15:10:48 2022
; FORMAT={-:-/ absolute / inch / decimal}
; #@! TF.CreationDate,2022-08-02T15:10:48+01:00
; #@! TF.GenerationSoftware,Kicad,Pcbnew,(6.0.7)
; #@! TF.FileFunction,NonPlated,1,2,NPTH
FMAT,2
INCH
; #@! TA.AperFunction,NonPlated,NPTH,ComponentDrill
T1C0.0866
; #@! TA.AperFunction,NonPlated,NPTH,ComponentDrill
T2C0.0984
; #@! TA.AperFunction,NonPlated,NPTH,ComponentDrill
T3C0.1063
%
G90
G05
T1
X-0.3051Y7.2835
X0.3051Y7.2835
T2
X-3.4134Y1.4567
X-3.4134Y0.748
X3.4134Y1.4567
X3.4134Y0.748
T3
X-3.3465Y4.1339
X-1.8898Y0.2165
X-1.3189Y6.5551
X-1.3189Y5.0
X-1.1811Y7.6378
X-0.9646Y7.0079
X-0.9646Y4.7244
X0.4331Y6.5551
X0.4331Y5.0
X0.9646Y7.0079
X0.9646Y4.7244
X1.1811Y7.6378
X1.8898Y0.2165
X3.3465Y4.1339
T0
M30
