G04 #@! TF.GenerationSoftware,KiCad,Pcbnew,9.0.2*
G04 #@! TF.CreationDate,2025-07-28T15:17:51+01:00*
G04 #@! TF.ProjectId,NB3_mouth,4e42335f-6d6f-4757-9468-2e6b69636164,0.0.3*
G04 #@! TF.SameCoordinates,PX86d97c0PY6ea0500*
G04 #@! TF.FileFunction,Copper,L1,Top*
G04 #@! TF.FilePolarity,Positive*
%FSLAX46Y46*%
G04 Gerber Fmt 4.6, Leading zero omitted, Abs format (unit mm)*
G04 Created by KiCad (PCBNEW 9.0.2) date 2025-07-28 15:17:51*
%MOMM*%
%LPD*%
G01*
G04 APERTURE LIST*
G04 Aperture macros list*
%AMRoundRect*
0 Rectangle with rounded corners*
0 $1 Rounding radius*
0 $2 $3 $4 $5 $6 $7 $8 $9 X,Y pos of 4 corners*
0 Add a 4 corners polygon primitive as box body*
4,1,4,$2,$3,$4,$5,$6,$7,$8,$9,$2,$3,0*
0 Add four circle primitives for the rounded corners*
1,1,$1+$1,$2,$3*
1,1,$1+$1,$4,$5*
1,1,$1+$1,$6,$7*
1,1,$1+$1,$8,$9*
0 Add four rect primitives between the rounded corners*
20,1,$1+$1,$2,$3,$4,$5,0*
20,1,$1+$1,$4,$5,$6,$7,0*
20,1,$1+$1,$6,$7,$8,$9,0*
20,1,$1+$1,$8,$9,$2,$3,0*%
G04 Aperture macros list end*
G04 #@! TA.AperFunction,SMDPad,CuDef*
%ADD10R,0.300000X0.850000*%
G04 #@! TD*
G04 #@! TA.AperFunction,SMDPad,CuDef*
%ADD11R,0.850000X0.300000*%
G04 #@! TD*
G04 #@! TA.AperFunction,SMDPad,CuDef*
%ADD12R,1.250000X1.250000*%
G04 #@! TD*
G04 #@! TA.AperFunction,SMDPad,CuDef*
%ADD13RoundRect,0.250000X0.475000X-0.250000X0.475000X0.250000X-0.475000X0.250000X-0.475000X-0.250000X0*%
G04 #@! TD*
G04 #@! TA.AperFunction,SMDPad,CuDef*
%ADD14RoundRect,0.135000X0.185000X-0.135000X0.185000X0.135000X-0.185000X0.135000X-0.185000X-0.135000X0*%
G04 #@! TD*
G04 #@! TA.AperFunction,SMDPad,CuDef*
%ADD15RoundRect,0.140000X-0.170000X0.140000X-0.170000X-0.140000X0.170000X-0.140000X0.170000X0.140000X0*%
G04 #@! TD*
G04 #@! TA.AperFunction,SMDPad,CuDef*
%ADD16R,1.000000X3.150000*%
G04 #@! TD*
G04 #@! TA.AperFunction,ComponentPad*
%ADD17R,1.700000X1.700000*%
G04 #@! TD*
G04 #@! TA.AperFunction,ComponentPad*
%ADD18O,1.700000X1.700000*%
G04 #@! TD*
G04 #@! TA.AperFunction,ViaPad*
%ADD19C,0.800000*%
G04 #@! TD*
G04 #@! TA.AperFunction,Conductor*
%ADD20C,0.250000*%
G04 #@! TD*
G04 #@! TA.AperFunction,Conductor*
%ADD21C,0.500000*%
G04 #@! TD*
G04 #@! TA.AperFunction,Conductor*
%ADD22C,0.300000*%
G04 #@! TD*
G04 APERTURE END LIST*
D10*
X10750000Y16475000D03*
X10250000Y16475000D03*
X9750000Y16475000D03*
X9250000Y16475000D03*
D11*
X8550000Y15775000D03*
X8550000Y15275000D03*
X8550000Y14775000D03*
X8550000Y14275000D03*
D10*
X9250000Y13575000D03*
X9750000Y13575000D03*
X10250000Y13575000D03*
X10750000Y13575000D03*
D11*
X11450000Y14275000D03*
X11450000Y14775000D03*
X11450000Y15275000D03*
X11450000Y15775000D03*
D12*
X10000000Y15025000D03*
D13*
X5000000Y14475000D03*
X5000000Y16375000D03*
D14*
X6800000Y15740000D03*
X6800000Y16760000D03*
D15*
X6800000Y14460000D03*
X6800000Y13500000D03*
D16*
X12540000Y4450000D03*
X12540000Y9500000D03*
X15080000Y4450000D03*
X15080000Y9500000D03*
X17620000Y4450000D03*
X17620000Y9500000D03*
X2380000Y4450000D03*
X2380000Y9500000D03*
X4920000Y4450000D03*
X4920000Y9500000D03*
X7460000Y4450000D03*
X7460000Y9500000D03*
D17*
X11275000Y1500000D03*
D18*
X8735000Y1500000D03*
D19*
X2000000Y17000000D03*
X2000000Y1500000D03*
X6800000Y12275000D03*
X10000000Y9000000D03*
X6000000Y1475000D03*
X10000000Y4000000D03*
X18000000Y1500000D03*
X14000000Y1475000D03*
X10000000Y15000000D03*
X18000000Y17000000D03*
D20*
X9750000Y16475000D02*
X9750000Y15275000D01*
X10250000Y13575000D02*
X10250000Y14775000D01*
D21*
X7460000Y3975000D02*
X7460000Y9025000D01*
D20*
X10000000Y15025000D02*
X10000000Y15000000D01*
X9750000Y16475000D02*
X9750000Y17200000D01*
X11450000Y15275000D02*
X10250000Y15275000D01*
X9750000Y15275000D02*
X10000000Y15025000D01*
X6800000Y12275000D02*
X6800000Y13500000D01*
X10250000Y14775000D02*
X10000000Y15025000D01*
X10250000Y15275000D02*
X10000000Y15025000D01*
X12269455Y15775000D02*
X15080000Y12964455D01*
X15080000Y12964455D02*
X15080000Y9050000D01*
X15080000Y4000000D02*
X15080000Y9050000D01*
X11450000Y15775000D02*
X12269455Y15775000D01*
X17620000Y4000000D02*
X17620000Y9050000D01*
X12925000Y16475000D02*
X17620000Y11780000D01*
X10750000Y16475000D02*
X12925000Y16475000D01*
X17620000Y11780000D02*
X17620000Y9050000D01*
X12540000Y4000000D02*
X12540000Y9050000D01*
X12175000Y14775000D02*
X11450000Y14775000D01*
X12540000Y9050000D02*
X12540000Y14410000D01*
X12540000Y14410000D02*
X12175000Y14775000D01*
X8040000Y16760000D02*
X8325000Y16475000D01*
X6800000Y16760000D02*
X8040000Y16760000D01*
X8325000Y16475000D02*
X9250000Y16475000D01*
D22*
X9250000Y13575000D02*
X9250000Y12340000D01*
X8735000Y11825000D02*
X8735000Y1500000D01*
X9250000Y12340000D02*
X8735000Y11825000D01*
X9750000Y12500000D02*
X11275000Y10975000D01*
X11275000Y10975000D02*
X11275000Y1500000D01*
X9750000Y13575000D02*
X9750000Y12500000D01*
D20*
X7710000Y14275000D02*
X7525000Y14460000D01*
X8550000Y14775000D02*
X7840000Y14775000D01*
X7840000Y14775000D02*
X7525000Y14460000D01*
D21*
X4920000Y9025000D02*
X4920000Y14395000D01*
X5015000Y14460000D02*
X6800000Y14460000D01*
D22*
X7525000Y14460000D02*
X6800000Y14460000D01*
D20*
X8550000Y14275000D02*
X7710000Y14275000D01*
D21*
X5000000Y14475000D02*
X5015000Y14460000D01*
X4920000Y3975000D02*
X4920000Y9025000D01*
X4920000Y14395000D02*
X5000000Y14475000D01*
D20*
X3600000Y15400000D02*
X6460000Y15400000D01*
X2380000Y14180000D02*
X3600000Y15400000D01*
X6460000Y15400000D02*
X6800000Y15740000D01*
X2380000Y14180000D02*
X2380000Y9500000D01*
X2380000Y3975000D02*
X2380000Y9025000D01*
G04 #@! TA.AperFunction,Conductor*
G36*
X19015470Y17979815D02*
G01*
X19036112Y17963181D01*
X19963181Y17036112D01*
X19996666Y16974789D01*
X19999500Y16948431D01*
X19999500Y1051569D01*
X19979815Y984530D01*
X19963181Y963888D01*
X19036112Y36819D01*
X18974789Y3334D01*
X18948431Y500D01*
X1051569Y500D01*
X984530Y20185D01*
X963888Y36819D01*
X36819Y963888D01*
X3334Y1025211D01*
X500Y1051569D01*
X500Y11099679D01*
X1629500Y11099679D01*
X1629500Y7900322D01*
X1644032Y7827265D01*
X1644033Y7827261D01*
X1644034Y7827260D01*
X1699399Y7744399D01*
X1782259Y7689035D01*
X1782260Y7689034D01*
X1782264Y7689033D01*
X1855321Y7674501D01*
X1855324Y7674500D01*
X1855326Y7674500D01*
X1880500Y7674500D01*
X1947539Y7654815D01*
X1993294Y7602011D01*
X2004500Y7550500D01*
X2004500Y6399500D01*
X1984815Y6332461D01*
X1932011Y6286706D01*
X1880500Y6275500D01*
X1855323Y6275500D01*
X1782264Y6260968D01*
X1782260Y6260967D01*
X1699399Y6205601D01*
X1644033Y6122740D01*
X1644032Y6122736D01*
X1629500Y6049679D01*
X1629500Y2850322D01*
X1644032Y2777265D01*
X1644033Y2777261D01*
X1644034Y2777260D01*
X1699399Y2694399D01*
X1754682Y2657461D01*
X1782260Y2639034D01*
X1782264Y2639033D01*
X1855321Y2624501D01*
X1855324Y2624500D01*
X1855326Y2624500D01*
X2904676Y2624500D01*
X2904677Y2624501D01*
X2977740Y2639034D01*
X3060601Y2694399D01*
X3115966Y2777260D01*
X3130500Y2850326D01*
X3130500Y6049674D01*
X3130500Y6049676D01*
X3130500Y6049677D01*
X3130499Y6049679D01*
X3115967Y6122736D01*
X3115966Y6122740D01*
X3060601Y6205601D01*
X2977740Y6260966D01*
X2977739Y6260967D01*
X2977735Y6260968D01*
X2904677Y6275500D01*
X2904674Y6275500D01*
X2879500Y6275500D01*
X2812461Y6295185D01*
X2766706Y6347989D01*
X2755500Y6399500D01*
X2755500Y7550500D01*
X2775185Y7617539D01*
X2827989Y7663294D01*
X2879500Y7674500D01*
X2904676Y7674500D01*
X2904677Y7674501D01*
X2977740Y7689034D01*
X3060601Y7744399D01*
X3115966Y7827260D01*
X3130500Y7900326D01*
X3130500Y11099674D01*
X3130500Y11099676D01*
X3130500Y11099677D01*
X3130499Y11099679D01*
X3115967Y11172736D01*
X3115966Y11172740D01*
X3110942Y11180259D01*
X3060601Y11255601D01*
X2977740Y11310966D01*
X2977739Y11310967D01*
X2977735Y11310968D01*
X2904677Y11325500D01*
X2904674Y11325500D01*
X2879500Y11325500D01*
X2812461Y11345185D01*
X2766706Y11397989D01*
X2755500Y11449500D01*
X2755500Y13973101D01*
X2775185Y14040140D01*
X2791819Y14060782D01*
X3719218Y14988181D01*
X3746145Y15002885D01*
X3771964Y15019477D01*
X3778164Y15020369D01*
X3780541Y15021666D01*
X3806899Y15024500D01*
X3923933Y15024500D01*
X3990972Y15004815D01*
X4036727Y14952011D01*
X4046671Y14882853D01*
X4040115Y14857168D01*
X4030910Y14832489D01*
X4030909Y14832485D01*
X4030909Y14832483D01*
X4024500Y14772873D01*
X4024500Y14772866D01*
X4024500Y14772865D01*
X4024500Y14177130D01*
X4024501Y14177124D01*
X4030908Y14117517D01*
X4081202Y13982672D01*
X4081206Y13982665D01*
X4167452Y13867456D01*
X4167455Y13867453D01*
X4282664Y13781207D01*
X4282671Y13781203D01*
X4338833Y13760256D01*
X4394767Y13718385D01*
X4419184Y13652921D01*
X4419500Y13644074D01*
X4419500Y11432073D01*
X4399815Y11365034D01*
X4347011Y11319279D01*
X4325755Y11312414D01*
X4322260Y11310967D01*
X4239399Y11255601D01*
X4184033Y11172740D01*
X4184032Y11172736D01*
X4169500Y11099679D01*
X4169500Y7900322D01*
X4184032Y7827265D01*
X4184033Y7827261D01*
X4184034Y7827260D01*
X4239399Y7744399D01*
X4322259Y7689035D01*
X4322260Y7689034D01*
X4333544Y7684360D01*
X4332841Y7682665D01*
X4381595Y7657167D01*
X4416174Y7596454D01*
X4419500Y7567928D01*
X4419500Y6382073D01*
X4399815Y6315034D01*
X4347011Y6269279D01*
X4325755Y6262414D01*
X4322260Y6260967D01*
X4239399Y6205601D01*
X4184033Y6122740D01*
X4184032Y6122736D01*
X4169500Y6049679D01*
X4169500Y2850322D01*
X4184032Y2777265D01*
X4184033Y2777261D01*
X4184034Y2777260D01*
X4239399Y2694399D01*
X4294682Y2657461D01*
X4322260Y2639034D01*
X4322264Y2639033D01*
X4395321Y2624501D01*
X4395324Y2624500D01*
X4395326Y2624500D01*
X5444676Y2624500D01*
X5444677Y2624501D01*
X5517740Y2639034D01*
X5600601Y2694399D01*
X5655966Y2777260D01*
X5665891Y2827156D01*
X6460000Y2827156D01*
X6466401Y2767628D01*
X6466403Y2767621D01*
X6516645Y2632914D01*
X6516649Y2632907D01*
X6602809Y2517813D01*
X6602812Y2517810D01*
X6717906Y2431650D01*
X6717913Y2431646D01*
X6852620Y2381404D01*
X6852627Y2381402D01*
X6912155Y2375001D01*
X6912172Y2375000D01*
X7210000Y2375000D01*
X7210000Y4200000D01*
X6460000Y4200000D01*
X6460000Y2827156D01*
X5665891Y2827156D01*
X5670500Y2850326D01*
X5670500Y6049674D01*
X5670499Y6049677D01*
X5670047Y6051952D01*
X5670047Y6051955D01*
X5670046Y6051958D01*
X5665891Y6072845D01*
X6460000Y6072845D01*
X6460000Y4700000D01*
X7210000Y4700000D01*
X7210000Y6525000D01*
X6912155Y6525000D01*
X6852627Y6518599D01*
X6852620Y6518597D01*
X6717913Y6468355D01*
X6717906Y6468351D01*
X6602812Y6382191D01*
X6602809Y6382188D01*
X6516649Y6267094D01*
X6516645Y6267087D01*
X6466403Y6132380D01*
X6466401Y6132373D01*
X6460000Y6072845D01*
X5665891Y6072845D01*
X5655967Y6122736D01*
X5655966Y6122740D01*
X5600601Y6205601D01*
X5517740Y6260966D01*
X5517739Y6260967D01*
X5506456Y6265640D01*
X5507157Y6267335D01*
X5458396Y6292843D01*
X5423823Y6353559D01*
X5420500Y6382073D01*
X5420500Y7567928D01*
X5440185Y7634967D01*
X5492989Y7680722D01*
X5514239Y7687585D01*
X5517738Y7689034D01*
X5517740Y7689034D01*
X5600601Y7744399D01*
X5655966Y7827260D01*
X5665891Y7877156D01*
X6460000Y7877156D01*
X6466401Y7817628D01*
X6466403Y7817621D01*
X6516645Y7682914D01*
X6516649Y7682907D01*
X6602809Y7567813D01*
X6602812Y7567810D01*
X6717906Y7481650D01*
X6717913Y7481646D01*
X6852620Y7431404D01*
X6852627Y7431402D01*
X6912155Y7425001D01*
X6912172Y7425000D01*
X7210000Y7425000D01*
X7210000Y9250000D01*
X6460000Y9250000D01*
X6460000Y7877156D01*
X5665891Y7877156D01*
X5670500Y7900326D01*
X5670500Y11099674D01*
X5670499Y11099677D01*
X5670047Y11101952D01*
X5670047Y11101955D01*
X5670046Y11101958D01*
X5665891Y11122845D01*
X6460000Y11122845D01*
X6460000Y9750000D01*
X7210000Y9750000D01*
X7210000Y11575000D01*
X6912155Y11575000D01*
X6852627Y11568599D01*
X6852620Y11568597D01*
X6717913Y11518355D01*
X6717906Y11518351D01*
X6602812Y11432191D01*
X6602809Y11432188D01*
X6516649Y11317094D01*
X6516645Y11317087D01*
X6466403Y11182380D01*
X6466401Y11182373D01*
X6460000Y11122845D01*
X5665891Y11122845D01*
X5655967Y11172736D01*
X5655966Y11172740D01*
X5650942Y11180259D01*
X5600601Y11255601D01*
X5517740Y11310966D01*
X5517739Y11310967D01*
X5506456Y11315640D01*
X5507157Y11317335D01*
X5458396Y11342843D01*
X5423823Y11403559D01*
X5420500Y11432073D01*
X5420500Y13250000D01*
X5995496Y13250000D01*
X6037968Y13103805D01*
X6120278Y12964626D01*
X6120285Y12964617D01*
X6234616Y12850286D01*
X6234625Y12850279D01*
X6373804Y12767969D01*
X6529089Y12722855D01*
X6550000Y12721211D01*
X7050000Y12721211D01*
X7070910Y12722855D01*
X7226195Y12767969D01*
X7365374Y12850279D01*
X7365383Y12850286D01*
X7479714Y12964617D01*
X7479721Y12964626D01*
X7562031Y13103805D01*
X7604504Y13250000D01*
X7050000Y13250000D01*
X7050000Y12721211D01*
X6550000Y12721211D01*
X6550000Y13250000D01*
X5995496Y13250000D01*
X5420500Y13250000D01*
X5420500Y13602112D01*
X5440185Y13669151D01*
X5492989Y13714906D01*
X5531244Y13725402D01*
X5582483Y13730909D01*
X5717331Y13781204D01*
X5787558Y13833777D01*
X5853019Y13858193D01*
X5921292Y13843342D01*
X5970698Y13793938D01*
X5974040Y13778576D01*
X5995495Y13750000D01*
X7604505Y13750000D01*
X7607183Y13753567D01*
X7607346Y13810775D01*
X7645288Y13869444D01*
X7708927Y13898288D01*
X7726223Y13899500D01*
X7977327Y13899500D01*
X8024778Y13890062D01*
X8027258Y13889036D01*
X8027260Y13889034D01*
X8045526Y13885401D01*
X8100323Y13874500D01*
X8100326Y13874500D01*
X8725500Y13874500D01*
X8792539Y13854815D01*
X8838294Y13802011D01*
X8849500Y13750500D01*
X8849500Y12557255D01*
X8829815Y12490216D01*
X8813181Y12469574D01*
X8414522Y12070916D01*
X8414518Y12070910D01*
X8361792Y11979588D01*
X8361793Y11979587D01*
X8334500Y11877727D01*
X8334500Y11647561D01*
X8314815Y11580522D01*
X8262011Y11534767D01*
X8192853Y11524823D01*
X8167167Y11531379D01*
X8067380Y11568597D01*
X8067372Y11568599D01*
X8007844Y11575000D01*
X7710000Y11575000D01*
X7710000Y7425000D01*
X8007828Y7425000D01*
X8007844Y7425001D01*
X8067372Y7431402D01*
X8067376Y7431403D01*
X8167166Y7468622D01*
X8236858Y7473606D01*
X8298181Y7440121D01*
X8331666Y7378798D01*
X8334500Y7352440D01*
X8334500Y6597561D01*
X8314815Y6530522D01*
X8262011Y6484767D01*
X8192853Y6474823D01*
X8167167Y6481379D01*
X8067380Y6518597D01*
X8067372Y6518599D01*
X8007844Y6525000D01*
X7710000Y6525000D01*
X7710000Y2375000D01*
X7767068Y2375000D01*
X7834107Y2355315D01*
X7879862Y2302511D01*
X7889806Y2233353D01*
X7867386Y2178114D01*
X7793768Y2076789D01*
X7715128Y1922448D01*
X7661597Y1757698D01*
X7634500Y1586611D01*
X7634500Y1413389D01*
X7661598Y1242299D01*
X7715127Y1077555D01*
X7793768Y923212D01*
X7895586Y783072D01*
X8018072Y660586D01*
X8158212Y558768D01*
X8312555Y480127D01*
X8477299Y426598D01*
X8648389Y399500D01*
X8648390Y399500D01*
X8821610Y399500D01*
X8821611Y399500D01*
X8992701Y426598D01*
X9157445Y480127D01*
X9311788Y558768D01*
X9451928Y660586D01*
X9574414Y783072D01*
X9676232Y923212D01*
X9754873Y1077555D01*
X9808402Y1242299D01*
X9835500Y1413389D01*
X9835500Y1586611D01*
X9808402Y1757701D01*
X9754873Y1922445D01*
X9676232Y2076788D01*
X9574414Y2216928D01*
X9451928Y2339414D01*
X9381858Y2390323D01*
X9311786Y2441234D01*
X9203206Y2496557D01*
X9152409Y2544531D01*
X9135500Y2607042D01*
X9135500Y11607745D01*
X9155185Y11674784D01*
X9171819Y11695426D01*
X9305829Y11829436D01*
X9492321Y12015929D01*
X9553642Y12049412D01*
X9623333Y12044428D01*
X9667678Y12015929D01*
X10234108Y11449500D01*
X10838181Y10845427D01*
X10871666Y10784104D01*
X10874500Y10757746D01*
X10874500Y2724500D01*
X10854815Y2657461D01*
X10802011Y2611706D01*
X10750500Y2600500D01*
X10400323Y2600500D01*
X10327264Y2585968D01*
X10327260Y2585967D01*
X10244399Y2530601D01*
X10189033Y2447740D01*
X10189032Y2447736D01*
X10174500Y2374679D01*
X10174500Y625322D01*
X10189032Y552265D01*
X10189033Y552261D01*
X10189034Y552260D01*
X10244399Y469399D01*
X10327260Y414034D01*
X10327264Y414033D01*
X10400321Y399501D01*
X10400324Y399500D01*
X10400326Y399500D01*
X12149676Y399500D01*
X12149677Y399501D01*
X12222740Y414034D01*
X12305601Y469399D01*
X12360966Y552260D01*
X12375500Y625326D01*
X12375500Y2374674D01*
X12375500Y2374677D01*
X12375499Y2374679D01*
X12360967Y2447736D01*
X12360966Y2447737D01*
X12360966Y2447740D01*
X12360964Y2447743D01*
X12358768Y2453046D01*
X12351299Y2522515D01*
X12382573Y2584995D01*
X12442662Y2620648D01*
X12473329Y2624500D01*
X13064676Y2624500D01*
X13064677Y2624501D01*
X13137740Y2639034D01*
X13220601Y2694399D01*
X13275966Y2777260D01*
X13290500Y2850326D01*
X13290500Y6049674D01*
X13290500Y6049676D01*
X13290500Y6049677D01*
X13290499Y6049679D01*
X13275967Y6122736D01*
X13275966Y6122740D01*
X13220601Y6205601D01*
X13137740Y6260966D01*
X13137739Y6260967D01*
X13137735Y6260968D01*
X13064677Y6275500D01*
X13064674Y6275500D01*
X13039500Y6275500D01*
X12972461Y6295185D01*
X12926706Y6347989D01*
X12915500Y6399500D01*
X12915500Y7550500D01*
X12935185Y7617539D01*
X12987989Y7663294D01*
X13039500Y7674500D01*
X13064676Y7674500D01*
X13064677Y7674501D01*
X13137740Y7689034D01*
X13220601Y7744399D01*
X13275966Y7827260D01*
X13290500Y7900326D01*
X13290500Y11099674D01*
X13290500Y11099676D01*
X13290500Y11099677D01*
X13290499Y11099679D01*
X13275967Y11172736D01*
X13275966Y11172740D01*
X13270942Y11180259D01*
X13220601Y11255601D01*
X13137740Y11310966D01*
X13137739Y11310967D01*
X13137735Y11310968D01*
X13064677Y11325500D01*
X13064674Y11325500D01*
X13039500Y11325500D01*
X12972461Y11345185D01*
X12926706Y11397989D01*
X12915500Y11449500D01*
X12915500Y14298556D01*
X12935185Y14365595D01*
X12987989Y14411350D01*
X13057147Y14421294D01*
X13120703Y14392269D01*
X13127181Y14386237D01*
X14668181Y12845237D01*
X14701666Y12783914D01*
X14704500Y12757556D01*
X14704500Y11449500D01*
X14684815Y11382461D01*
X14632011Y11336706D01*
X14580500Y11325500D01*
X14555323Y11325500D01*
X14482264Y11310968D01*
X14482260Y11310967D01*
X14399399Y11255601D01*
X14344033Y11172740D01*
X14344032Y11172736D01*
X14329500Y11099679D01*
X14329500Y7900322D01*
X14344032Y7827265D01*
X14344033Y7827261D01*
X14344034Y7827260D01*
X14399399Y7744399D01*
X14482259Y7689035D01*
X14482260Y7689034D01*
X14482264Y7689033D01*
X14555321Y7674501D01*
X14555324Y7674500D01*
X14555326Y7674500D01*
X14580500Y7674500D01*
X14647539Y7654815D01*
X14693294Y7602011D01*
X14704500Y7550500D01*
X14704500Y6399500D01*
X14684815Y6332461D01*
X14632011Y6286706D01*
X14580500Y6275500D01*
X14555323Y6275500D01*
X14482264Y6260968D01*
X14482260Y6260967D01*
X14399399Y6205601D01*
X14344033Y6122740D01*
X14344032Y6122736D01*
X14329500Y6049679D01*
X14329500Y2850322D01*
X14344032Y2777265D01*
X14344033Y2777261D01*
X14344034Y2777260D01*
X14399399Y2694399D01*
X14454682Y2657461D01*
X14482260Y2639034D01*
X14482264Y2639033D01*
X14555321Y2624501D01*
X14555324Y2624500D01*
X14555326Y2624500D01*
X15604676Y2624500D01*
X15604677Y2624501D01*
X15677740Y2639034D01*
X15760601Y2694399D01*
X15815966Y2777260D01*
X15830500Y2850326D01*
X15830500Y6049674D01*
X15830500Y6049676D01*
X15830500Y6049677D01*
X15830499Y6049679D01*
X15815967Y6122736D01*
X15815966Y6122740D01*
X15760601Y6205601D01*
X15677740Y6260966D01*
X15677739Y6260967D01*
X15677735Y6260968D01*
X15604677Y6275500D01*
X15604674Y6275500D01*
X15579500Y6275500D01*
X15512461Y6295185D01*
X15466706Y6347989D01*
X15455500Y6399500D01*
X15455500Y7550500D01*
X15475185Y7617539D01*
X15527989Y7663294D01*
X15579500Y7674500D01*
X15604676Y7674500D01*
X15604677Y7674501D01*
X15677740Y7689034D01*
X15760601Y7744399D01*
X15815966Y7827260D01*
X15830500Y7900326D01*
X15830500Y11099674D01*
X15830500Y11099676D01*
X15830500Y11099677D01*
X15830499Y11099679D01*
X15815967Y11172736D01*
X15815966Y11172740D01*
X15810942Y11180259D01*
X15760601Y11255601D01*
X15677740Y11310966D01*
X15677739Y11310967D01*
X15677735Y11310968D01*
X15604677Y11325500D01*
X15604674Y11325500D01*
X15579500Y11325500D01*
X15512461Y11345185D01*
X15466706Y11397989D01*
X15455500Y11449500D01*
X15455500Y13013888D01*
X15455500Y13013890D01*
X15429910Y13109393D01*
X15429908Y13109396D01*
X15429020Y13112712D01*
X15430683Y13182562D01*
X15469845Y13240425D01*
X15534074Y13267929D01*
X15602976Y13256343D01*
X15636476Y13232487D01*
X17208181Y11660782D01*
X17222884Y11633855D01*
X17239477Y11608036D01*
X17240368Y11601836D01*
X17241666Y11599459D01*
X17244500Y11573101D01*
X17244500Y11449500D01*
X17224815Y11382461D01*
X17172011Y11336706D01*
X17120500Y11325500D01*
X17095323Y11325500D01*
X17022264Y11310968D01*
X17022260Y11310967D01*
X16939399Y11255601D01*
X16884033Y11172740D01*
X16884032Y11172736D01*
X16869500Y11099679D01*
X16869500Y7900322D01*
X16884032Y7827265D01*
X16884033Y7827261D01*
X16884034Y7827260D01*
X16939399Y7744399D01*
X17022259Y7689035D01*
X17022260Y7689034D01*
X17022264Y7689033D01*
X17095321Y7674501D01*
X17095324Y7674500D01*
X17095326Y7674500D01*
X17120500Y7674500D01*
X17187539Y7654815D01*
X17233294Y7602011D01*
X17244500Y7550500D01*
X17244500Y6399500D01*
X17224815Y6332461D01*
X17172011Y6286706D01*
X17120500Y6275500D01*
X17095323Y6275500D01*
X17022264Y6260968D01*
X17022260Y6260967D01*
X16939399Y6205601D01*
X16884033Y6122740D01*
X16884032Y6122736D01*
X16869500Y6049679D01*
X16869500Y2850322D01*
X16884032Y2777265D01*
X16884033Y2777261D01*
X16884034Y2777260D01*
X16939399Y2694399D01*
X16994682Y2657461D01*
X17022260Y2639034D01*
X17022264Y2639033D01*
X17095321Y2624501D01*
X17095324Y2624500D01*
X17095326Y2624500D01*
X18144676Y2624500D01*
X18144677Y2624501D01*
X18217740Y2639034D01*
X18300601Y2694399D01*
X18355966Y2777260D01*
X18370500Y2850326D01*
X18370500Y6049674D01*
X18370500Y6049676D01*
X18370500Y6049677D01*
X18370499Y6049679D01*
X18355967Y6122736D01*
X18355966Y6122740D01*
X18300601Y6205601D01*
X18217740Y6260966D01*
X18217739Y6260967D01*
X18217735Y6260968D01*
X18144677Y6275500D01*
X18144674Y6275500D01*
X18119500Y6275500D01*
X18052461Y6295185D01*
X18006706Y6347989D01*
X17995500Y6399500D01*
X17995500Y7550500D01*
X18015185Y7617539D01*
X18067989Y7663294D01*
X18119500Y7674500D01*
X18144676Y7674500D01*
X18144677Y7674501D01*
X18217740Y7689034D01*
X18300601Y7744399D01*
X18355966Y7827260D01*
X18370500Y7900326D01*
X18370500Y11099674D01*
X18370500Y11099676D01*
X18370500Y11099677D01*
X18370499Y11099679D01*
X18355967Y11172736D01*
X18355966Y11172740D01*
X18350942Y11180259D01*
X18300601Y11255601D01*
X18217740Y11310966D01*
X18217739Y11310967D01*
X18217735Y11310968D01*
X18144677Y11325500D01*
X18144674Y11325500D01*
X18119500Y11325500D01*
X18052461Y11345185D01*
X18006706Y11397989D01*
X17995500Y11449500D01*
X17995500Y11829434D01*
X17995500Y11829435D01*
X17995500Y11829436D01*
X17969911Y11924937D01*
X17920475Y12010563D01*
X13155563Y16775474D01*
X13155562Y16775475D01*
X13069938Y16824910D01*
X13022186Y16837705D01*
X13010099Y16840944D01*
X13010095Y16840946D01*
X12974436Y16850500D01*
X12974435Y16850500D01*
X11267019Y16850500D01*
X11199980Y16870185D01*
X11154225Y16922989D01*
X11145402Y16950308D01*
X11135967Y16997737D01*
X11135966Y16997740D01*
X11101746Y17048954D01*
X11080601Y17080601D01*
X11017584Y17122707D01*
X10997739Y17135967D01*
X10997735Y17135968D01*
X10924677Y17150500D01*
X10924674Y17150500D01*
X10899126Y17150500D01*
X10832087Y17170185D01*
X10799859Y17200189D01*
X10757190Y17257187D01*
X10757185Y17257192D01*
X10642093Y17343351D01*
X10642086Y17343355D01*
X10507379Y17393597D01*
X10507372Y17393599D01*
X10447844Y17400000D01*
X10400000Y17400000D01*
X10400000Y17089183D01*
X10380315Y17022144D01*
X10379103Y17020294D01*
X10364033Y16997741D01*
X10349500Y16924677D01*
X10349500Y16599000D01*
X10346949Y16590315D01*
X10348238Y16581353D01*
X10337259Y16557313D01*
X10329815Y16531961D01*
X10322974Y16526034D01*
X10319213Y16517797D01*
X10296978Y16503508D01*
X10277011Y16486206D01*
X10266496Y16483919D01*
X10260435Y16480023D01*
X10225500Y16475000D01*
X10224000Y16475000D01*
X10156961Y16494685D01*
X10111206Y16547489D01*
X10100000Y16599000D01*
X10100000Y17400000D01*
X10052164Y17400000D01*
X10013252Y17395817D01*
X9986748Y17395817D01*
X9947835Y17400000D01*
X9900000Y17400000D01*
X9900000Y16599000D01*
X9897449Y16590315D01*
X9898738Y16581353D01*
X9887759Y16557313D01*
X9880315Y16531961D01*
X9873474Y16526034D01*
X9869713Y16517797D01*
X9847478Y16503508D01*
X9827511Y16486206D01*
X9816996Y16483919D01*
X9810935Y16480023D01*
X9776000Y16475000D01*
X9774500Y16475000D01*
X9707461Y16494685D01*
X9661706Y16547489D01*
X9650500Y16599000D01*
X9650500Y16924677D01*
X9635966Y16997741D01*
X9620897Y17020294D01*
X9600020Y17086972D01*
X9600000Y17089183D01*
X9600000Y17400000D01*
X9552155Y17400000D01*
X9492627Y17393599D01*
X9492620Y17393597D01*
X9357913Y17343355D01*
X9357906Y17343351D01*
X9242814Y17257192D01*
X9242809Y17257187D01*
X9200141Y17200189D01*
X9144207Y17158318D01*
X9100874Y17150500D01*
X9075323Y17150500D01*
X9002264Y17135968D01*
X9002260Y17135967D01*
X8919399Y17080601D01*
X8864033Y16997740D01*
X8864032Y16997737D01*
X8854598Y16950308D01*
X8839886Y16922185D01*
X8826694Y16893297D01*
X8823803Y16891440D01*
X8822212Y16888397D01*
X8794628Y16872690D01*
X8767916Y16855523D01*
X8763321Y16854863D01*
X8761496Y16853823D01*
X8732981Y16850500D01*
X8531900Y16850500D01*
X8464861Y16870185D01*
X8444219Y16886819D01*
X8270563Y17060474D01*
X8270562Y17060475D01*
X8184938Y17109910D01*
X8137186Y17122705D01*
X8137184Y17122706D01*
X8137182Y17122707D01*
X8089436Y17135500D01*
X8089435Y17135500D01*
X7341040Y17135500D01*
X7274001Y17155185D01*
X7253358Y17171820D01*
X7212102Y17213077D01*
X7212099Y17213079D01*
X7096521Y17269581D01*
X7096519Y17269582D01*
X7096518Y17269582D01*
X7021582Y17280500D01*
X6578418Y17280500D01*
X6503482Y17269582D01*
X6503480Y17269582D01*
X6503478Y17269581D01*
X6387900Y17213079D01*
X6387897Y17213077D01*
X6296923Y17122103D01*
X6296923Y17122102D01*
X6286380Y17100536D01*
X6239252Y17048954D01*
X6171718Y17031040D01*
X6105219Y17052481D01*
X6069442Y17089898D01*
X6067315Y17093346D01*
X5943345Y17217316D01*
X5794124Y17309357D01*
X5794119Y17309359D01*
X5627697Y17364506D01*
X5627690Y17364507D01*
X5524986Y17375000D01*
X5250000Y17375000D01*
X5250000Y16499000D01*
X5230315Y16431961D01*
X5177511Y16386206D01*
X5126000Y16375000D01*
X5000000Y16375000D01*
X5000000Y16249000D01*
X4980315Y16181961D01*
X4927511Y16136206D01*
X4876000Y16125000D01*
X3775001Y16125000D01*
X3775001Y16075014D01*
X3785494Y15972303D01*
X3796694Y15938504D01*
X3799096Y15868676D01*
X3763364Y15808634D01*
X3700844Y15777441D01*
X3678988Y15775500D01*
X3550564Y15775500D01*
X3455061Y15749911D01*
X3369438Y15700475D01*
X3369435Y15700473D01*
X2079526Y14410564D01*
X2030090Y14324940D01*
X2029961Y14324460D01*
X2029955Y14324435D01*
X2012192Y14258143D01*
X2007751Y14241567D01*
X2006725Y14238864D01*
X2004500Y14229437D01*
X2004500Y11449500D01*
X1984815Y11382461D01*
X1932011Y11336706D01*
X1880500Y11325500D01*
X1855323Y11325500D01*
X1782264Y11310968D01*
X1782260Y11310967D01*
X1699399Y11255601D01*
X1644033Y11172740D01*
X1644032Y11172736D01*
X1629500Y11099679D01*
X500Y11099679D01*
X500Y16674987D01*
X3775000Y16674987D01*
X3775000Y16625000D01*
X4750000Y16625000D01*
X4750000Y17375000D01*
X4475029Y17375000D01*
X4475012Y17374999D01*
X4372302Y17364506D01*
X4205880Y17309359D01*
X4205875Y17309357D01*
X4056654Y17217316D01*
X3932684Y17093346D01*
X3840643Y16944125D01*
X3840641Y16944120D01*
X3785494Y16777698D01*
X3785493Y16777691D01*
X3775000Y16674987D01*
X500Y16674987D01*
X500Y16948431D01*
X20185Y17015470D01*
X36819Y17036112D01*
X963888Y17963181D01*
X1025211Y17996666D01*
X1051569Y17999500D01*
X18948431Y17999500D01*
X19015470Y17979815D01*
G37*
G04 #@! TD.AperFunction*
M02*
