G04 #@! TF.GenerationSoftware,KiCad,Pcbnew,7.0.10*
G04 #@! TF.CreationDate,2024-02-23T15:29:01+00:00*
G04 #@! TF.ProjectId,NB3_mouth,4e42335f-6d6f-4757-9468-2e6b69636164,0.0.2*
G04 #@! TF.SameCoordinates,PX86d97c0PY6ea0500*
G04 #@! TF.FileFunction,Legend,Bot*
G04 #@! TF.FilePolarity,Positive*
%FSLAX46Y46*%
G04 Gerber Fmt 4.6, Leading zero omitted, Abs format (unit mm)*
G04 Created by KiCad (PCBNEW 7.0.10) date 2024-02-23 15:29:01*
%MOMM*%
%LPD*%
G01*
G04 APERTURE LIST*
%ADD10C,0.150000*%
%ADD11C,0.120000*%
G04 APERTURE END LIST*
D10*
X6190000Y5255000D02*
X6190000Y2715000D01*
X3000000Y14750000D02*
X3000000Y13250000D01*
X1110000Y5255000D02*
X18890000Y5255000D01*
X18890000Y2715000D01*
X1110000Y2715000D01*
X1110000Y5255000D01*
X13810000Y5255000D02*
X13810000Y2715000D01*
X4500000Y14750000D02*
X4500000Y13250000D01*
X4500000Y13750000D02*
X5500000Y13750000D01*
X8730000Y5255000D02*
X8730000Y2715000D01*
X4500000Y14250000D02*
X5500000Y14250000D01*
X16350000Y5255000D02*
X16350000Y2715000D01*
X2000000Y12750000D02*
X2000000Y15250000D01*
X11270000Y5255000D02*
X11270000Y2715000D01*
X3000000Y14750000D02*
X4500000Y14750000D01*
X2000000Y15250000D02*
X3000000Y14750000D01*
X3000000Y13250000D02*
X2000000Y12750000D01*
X3650000Y5255000D02*
X3650000Y2715000D01*
X4500000Y13250000D02*
X3000000Y13250000D01*
X2896666Y3866753D02*
X2663333Y3866753D01*
X2563333Y3447705D02*
X2896666Y3447705D01*
X2896666Y3447705D02*
X2896666Y4247705D01*
X2896666Y4247705D02*
X2563333Y4247705D01*
X2263333Y3447705D02*
X2263333Y4247705D01*
X2263333Y4247705D02*
X1863333Y3447705D01*
X1863333Y3447705D02*
X1863333Y4247705D01*
X5033333Y4247705D02*
X5366666Y4247705D01*
X5366666Y4247705D02*
X5399999Y3866753D01*
X5399999Y3866753D02*
X5366666Y3904848D01*
X5366666Y3904848D02*
X5299999Y3942943D01*
X5299999Y3942943D02*
X5133333Y3942943D01*
X5133333Y3942943D02*
X5066666Y3904848D01*
X5066666Y3904848D02*
X5033333Y3866753D01*
X5033333Y3866753D02*
X4999999Y3790562D01*
X4999999Y3790562D02*
X4999999Y3600086D01*
X4999999Y3600086D02*
X5033333Y3523896D01*
X5033333Y3523896D02*
X5066666Y3485800D01*
X5066666Y3485800D02*
X5133333Y3447705D01*
X5133333Y3447705D02*
X5299999Y3447705D01*
X5299999Y3447705D02*
X5366666Y3485800D01*
X5366666Y3485800D02*
X5399999Y3523896D01*
X4799999Y4247705D02*
X4566666Y3447705D01*
X4566666Y3447705D02*
X4333332Y4247705D01*
X18169999Y3485800D02*
X18069999Y3447705D01*
X18069999Y3447705D02*
X17903333Y3447705D01*
X17903333Y3447705D02*
X17836666Y3485800D01*
X17836666Y3485800D02*
X17803333Y3523896D01*
X17803333Y3523896D02*
X17769999Y3600086D01*
X17769999Y3600086D02*
X17769999Y3676277D01*
X17769999Y3676277D02*
X17803333Y3752467D01*
X17803333Y3752467D02*
X17836666Y3790562D01*
X17836666Y3790562D02*
X17903333Y3828658D01*
X17903333Y3828658D02*
X18036666Y3866753D01*
X18036666Y3866753D02*
X18103333Y3904848D01*
X18103333Y3904848D02*
X18136666Y3942943D01*
X18136666Y3942943D02*
X18169999Y4019134D01*
X18169999Y4019134D02*
X18169999Y4095324D01*
X18169999Y4095324D02*
X18136666Y4171515D01*
X18136666Y4171515D02*
X18103333Y4209610D01*
X18103333Y4209610D02*
X18036666Y4247705D01*
X18036666Y4247705D02*
X17869999Y4247705D01*
X17869999Y4247705D02*
X17769999Y4209610D01*
X17469999Y3447705D02*
X17469999Y4247705D01*
X17469999Y4247705D02*
X17303332Y4247705D01*
X17303332Y4247705D02*
X17203332Y4209610D01*
X17203332Y4209610D02*
X17136666Y4133420D01*
X17136666Y4133420D02*
X17103332Y4057229D01*
X17103332Y4057229D02*
X17069999Y3904848D01*
X17069999Y3904848D02*
X17069999Y3790562D01*
X17069999Y3790562D02*
X17103332Y3638181D01*
X17103332Y3638181D02*
X17136666Y3561991D01*
X17136666Y3561991D02*
X17203332Y3485800D01*
X17203332Y3485800D02*
X17303332Y3447705D01*
X17303332Y3447705D02*
X17469999Y3447705D01*
X13173333Y4247705D02*
X13006666Y3447705D01*
X13006666Y3447705D02*
X12873333Y4019134D01*
X12873333Y4019134D02*
X12739999Y3447705D01*
X12739999Y3447705D02*
X12573333Y4247705D01*
X12339999Y3485800D02*
X12239999Y3447705D01*
X12239999Y3447705D02*
X12073333Y3447705D01*
X12073333Y3447705D02*
X12006666Y3485800D01*
X12006666Y3485800D02*
X11973333Y3523896D01*
X11973333Y3523896D02*
X11939999Y3600086D01*
X11939999Y3600086D02*
X11939999Y3676277D01*
X11939999Y3676277D02*
X11973333Y3752467D01*
X11973333Y3752467D02*
X12006666Y3790562D01*
X12006666Y3790562D02*
X12073333Y3828658D01*
X12073333Y3828658D02*
X12206666Y3866753D01*
X12206666Y3866753D02*
X12273333Y3904848D01*
X12273333Y3904848D02*
X12306666Y3942943D01*
X12306666Y3942943D02*
X12339999Y4019134D01*
X12339999Y4019134D02*
X12339999Y4095324D01*
X12339999Y4095324D02*
X12306666Y4171515D01*
X12306666Y4171515D02*
X12273333Y4209610D01*
X12273333Y4209610D02*
X12206666Y4247705D01*
X12206666Y4247705D02*
X12039999Y4247705D01*
X12039999Y4247705D02*
X11939999Y4209610D01*
X18595238Y7545181D02*
X18595238Y8545181D01*
X18595238Y8545181D02*
X18023810Y7545181D01*
X18023810Y7545181D02*
X18023810Y8545181D01*
X17214286Y8068991D02*
X17071429Y8021372D01*
X17071429Y8021372D02*
X17023810Y7973753D01*
X17023810Y7973753D02*
X16976191Y7878515D01*
X16976191Y7878515D02*
X16976191Y7735658D01*
X16976191Y7735658D02*
X17023810Y7640420D01*
X17023810Y7640420D02*
X17071429Y7592800D01*
X17071429Y7592800D02*
X17166667Y7545181D01*
X17166667Y7545181D02*
X17547619Y7545181D01*
X17547619Y7545181D02*
X17547619Y8545181D01*
X17547619Y8545181D02*
X17214286Y8545181D01*
X17214286Y8545181D02*
X17119048Y8497562D01*
X17119048Y8497562D02*
X17071429Y8449943D01*
X17071429Y8449943D02*
X17023810Y8354705D01*
X17023810Y8354705D02*
X17023810Y8259467D01*
X17023810Y8259467D02*
X17071429Y8164229D01*
X17071429Y8164229D02*
X17119048Y8116610D01*
X17119048Y8116610D02*
X17214286Y8068991D01*
X17214286Y8068991D02*
X17547619Y8068991D01*
X16642857Y8545181D02*
X16023810Y8545181D01*
X16023810Y8545181D02*
X16357143Y8164229D01*
X16357143Y8164229D02*
X16214286Y8164229D01*
X16214286Y8164229D02*
X16119048Y8116610D01*
X16119048Y8116610D02*
X16071429Y8068991D01*
X16071429Y8068991D02*
X16023810Y7973753D01*
X16023810Y7973753D02*
X16023810Y7735658D01*
X16023810Y7735658D02*
X16071429Y7640420D01*
X16071429Y7640420D02*
X16119048Y7592800D01*
X16119048Y7592800D02*
X16214286Y7545181D01*
X16214286Y7545181D02*
X16500000Y7545181D01*
X16500000Y7545181D02*
X16595238Y7592800D01*
X16595238Y7592800D02*
X16642857Y7640420D01*
X14833333Y7545181D02*
X14833333Y8545181D01*
X14833333Y8545181D02*
X14500000Y7830896D01*
X14500000Y7830896D02*
X14166667Y8545181D01*
X14166667Y8545181D02*
X14166667Y7545181D01*
X13547619Y7545181D02*
X13642857Y7592800D01*
X13642857Y7592800D02*
X13690476Y7640420D01*
X13690476Y7640420D02*
X13738095Y7735658D01*
X13738095Y7735658D02*
X13738095Y8021372D01*
X13738095Y8021372D02*
X13690476Y8116610D01*
X13690476Y8116610D02*
X13642857Y8164229D01*
X13642857Y8164229D02*
X13547619Y8211848D01*
X13547619Y8211848D02*
X13404762Y8211848D01*
X13404762Y8211848D02*
X13309524Y8164229D01*
X13309524Y8164229D02*
X13261905Y8116610D01*
X13261905Y8116610D02*
X13214286Y8021372D01*
X13214286Y8021372D02*
X13214286Y7735658D01*
X13214286Y7735658D02*
X13261905Y7640420D01*
X13261905Y7640420D02*
X13309524Y7592800D01*
X13309524Y7592800D02*
X13404762Y7545181D01*
X13404762Y7545181D02*
X13547619Y7545181D01*
X12357143Y8211848D02*
X12357143Y7545181D01*
X12785714Y8211848D02*
X12785714Y7688039D01*
X12785714Y7688039D02*
X12738095Y7592800D01*
X12738095Y7592800D02*
X12642857Y7545181D01*
X12642857Y7545181D02*
X12500000Y7545181D01*
X12500000Y7545181D02*
X12404762Y7592800D01*
X12404762Y7592800D02*
X12357143Y7640420D01*
X12023809Y8211848D02*
X11642857Y8211848D01*
X11880952Y8545181D02*
X11880952Y7688039D01*
X11880952Y7688039D02*
X11833333Y7592800D01*
X11833333Y7592800D02*
X11738095Y7545181D01*
X11738095Y7545181D02*
X11642857Y7545181D01*
X11309523Y7545181D02*
X11309523Y8545181D01*
X10880952Y7545181D02*
X10880952Y8068991D01*
X10880952Y8068991D02*
X10928571Y8164229D01*
X10928571Y8164229D02*
X11023809Y8211848D01*
X11023809Y8211848D02*
X11166666Y8211848D01*
X11166666Y8211848D02*
X11261904Y8164229D01*
X11261904Y8164229D02*
X11309523Y8116610D01*
X7547618Y7545181D02*
X7880951Y8021372D01*
X8119046Y7545181D02*
X8119046Y8545181D01*
X8119046Y8545181D02*
X7738094Y8545181D01*
X7738094Y8545181D02*
X7642856Y8497562D01*
X7642856Y8497562D02*
X7595237Y8449943D01*
X7595237Y8449943D02*
X7547618Y8354705D01*
X7547618Y8354705D02*
X7547618Y8211848D01*
X7547618Y8211848D02*
X7595237Y8116610D01*
X7595237Y8116610D02*
X7642856Y8068991D01*
X7642856Y8068991D02*
X7738094Y8021372D01*
X7738094Y8021372D02*
X8119046Y8021372D01*
X6738094Y7592800D02*
X6833332Y7545181D01*
X6833332Y7545181D02*
X7023808Y7545181D01*
X7023808Y7545181D02*
X7119046Y7592800D01*
X7119046Y7592800D02*
X7166665Y7688039D01*
X7166665Y7688039D02*
X7166665Y8068991D01*
X7166665Y8068991D02*
X7119046Y8164229D01*
X7119046Y8164229D02*
X7023808Y8211848D01*
X7023808Y8211848D02*
X6833332Y8211848D01*
X6833332Y8211848D02*
X6738094Y8164229D01*
X6738094Y8164229D02*
X6690475Y8068991D01*
X6690475Y8068991D02*
X6690475Y7973753D01*
X6690475Y7973753D02*
X7166665Y7878515D01*
X6357141Y8211848D02*
X6119046Y7545181D01*
X6119046Y7545181D02*
X5880951Y8211848D01*
X4547617Y8545181D02*
X4452379Y8545181D01*
X4452379Y8545181D02*
X4357141Y8497562D01*
X4357141Y8497562D02*
X4309522Y8449943D01*
X4309522Y8449943D02*
X4261903Y8354705D01*
X4261903Y8354705D02*
X4214284Y8164229D01*
X4214284Y8164229D02*
X4214284Y7926134D01*
X4214284Y7926134D02*
X4261903Y7735658D01*
X4261903Y7735658D02*
X4309522Y7640420D01*
X4309522Y7640420D02*
X4357141Y7592800D01*
X4357141Y7592800D02*
X4452379Y7545181D01*
X4452379Y7545181D02*
X4547617Y7545181D01*
X4547617Y7545181D02*
X4642855Y7592800D01*
X4642855Y7592800D02*
X4690474Y7640420D01*
X4690474Y7640420D02*
X4738093Y7735658D01*
X4738093Y7735658D02*
X4785712Y7926134D01*
X4785712Y7926134D02*
X4785712Y8164229D01*
X4785712Y8164229D02*
X4738093Y8354705D01*
X4738093Y8354705D02*
X4690474Y8449943D01*
X4690474Y8449943D02*
X4642855Y8497562D01*
X4642855Y8497562D02*
X4547617Y8545181D01*
X3785712Y7640420D02*
X3738093Y7592800D01*
X3738093Y7592800D02*
X3785712Y7545181D01*
X3785712Y7545181D02*
X3833331Y7592800D01*
X3833331Y7592800D02*
X3785712Y7640420D01*
X3785712Y7640420D02*
X3785712Y7545181D01*
X3119046Y8545181D02*
X3023808Y8545181D01*
X3023808Y8545181D02*
X2928570Y8497562D01*
X2928570Y8497562D02*
X2880951Y8449943D01*
X2880951Y8449943D02*
X2833332Y8354705D01*
X2833332Y8354705D02*
X2785713Y8164229D01*
X2785713Y8164229D02*
X2785713Y7926134D01*
X2785713Y7926134D02*
X2833332Y7735658D01*
X2833332Y7735658D02*
X2880951Y7640420D01*
X2880951Y7640420D02*
X2928570Y7592800D01*
X2928570Y7592800D02*
X3023808Y7545181D01*
X3023808Y7545181D02*
X3119046Y7545181D01*
X3119046Y7545181D02*
X3214284Y7592800D01*
X3214284Y7592800D02*
X3261903Y7640420D01*
X3261903Y7640420D02*
X3309522Y7735658D01*
X3309522Y7735658D02*
X3357141Y7926134D01*
X3357141Y7926134D02*
X3357141Y8164229D01*
X3357141Y8164229D02*
X3309522Y8354705D01*
X3309522Y8354705D02*
X3261903Y8449943D01*
X3261903Y8449943D02*
X3214284Y8497562D01*
X3214284Y8497562D02*
X3119046Y8545181D01*
X2357141Y7640420D02*
X2309522Y7592800D01*
X2309522Y7592800D02*
X2357141Y7545181D01*
X2357141Y7545181D02*
X2404760Y7592800D01*
X2404760Y7592800D02*
X2357141Y7640420D01*
X2357141Y7640420D02*
X2357141Y7545181D01*
X1928570Y8449943D02*
X1880951Y8497562D01*
X1880951Y8497562D02*
X1785713Y8545181D01*
X1785713Y8545181D02*
X1547618Y8545181D01*
X1547618Y8545181D02*
X1452380Y8497562D01*
X1452380Y8497562D02*
X1404761Y8449943D01*
X1404761Y8449943D02*
X1357142Y8354705D01*
X1357142Y8354705D02*
X1357142Y8259467D01*
X1357142Y8259467D02*
X1404761Y8116610D01*
X1404761Y8116610D02*
X1976189Y7545181D01*
X1976189Y7545181D02*
X1357142Y7545181D01*
X15979999Y3485800D02*
X15879999Y3447705D01*
X15879999Y3447705D02*
X15713333Y3447705D01*
X15713333Y3447705D02*
X15646666Y3485800D01*
X15646666Y3485800D02*
X15613333Y3523896D01*
X15613333Y3523896D02*
X15579999Y3600086D01*
X15579999Y3600086D02*
X15579999Y3676277D01*
X15579999Y3676277D02*
X15613333Y3752467D01*
X15613333Y3752467D02*
X15646666Y3790562D01*
X15646666Y3790562D02*
X15713333Y3828658D01*
X15713333Y3828658D02*
X15846666Y3866753D01*
X15846666Y3866753D02*
X15913333Y3904848D01*
X15913333Y3904848D02*
X15946666Y3942943D01*
X15946666Y3942943D02*
X15979999Y4019134D01*
X15979999Y4019134D02*
X15979999Y4095324D01*
X15979999Y4095324D02*
X15946666Y4171515D01*
X15946666Y4171515D02*
X15913333Y4209610D01*
X15913333Y4209610D02*
X15846666Y4247705D01*
X15846666Y4247705D02*
X15679999Y4247705D01*
X15679999Y4247705D02*
X15579999Y4209610D01*
X14879999Y3523896D02*
X14913332Y3485800D01*
X14913332Y3485800D02*
X15013332Y3447705D01*
X15013332Y3447705D02*
X15079999Y3447705D01*
X15079999Y3447705D02*
X15179999Y3485800D01*
X15179999Y3485800D02*
X15246666Y3561991D01*
X15246666Y3561991D02*
X15279999Y3638181D01*
X15279999Y3638181D02*
X15313332Y3790562D01*
X15313332Y3790562D02*
X15313332Y3904848D01*
X15313332Y3904848D02*
X15279999Y4057229D01*
X15279999Y4057229D02*
X15246666Y4133420D01*
X15246666Y4133420D02*
X15179999Y4209610D01*
X15179999Y4209610D02*
X15079999Y4247705D01*
X15079999Y4247705D02*
X15013332Y4247705D01*
X15013332Y4247705D02*
X14913332Y4209610D01*
X14913332Y4209610D02*
X14879999Y4171515D01*
X14579999Y3447705D02*
X14579999Y4247705D01*
X14179999Y3447705D02*
X14479999Y3904848D01*
X14179999Y4247705D02*
X14579999Y3790562D01*
X7993332Y4209610D02*
X8059999Y4247705D01*
X8059999Y4247705D02*
X8159999Y4247705D01*
X8159999Y4247705D02*
X8259999Y4209610D01*
X8259999Y4209610D02*
X8326666Y4133420D01*
X8326666Y4133420D02*
X8359999Y4057229D01*
X8359999Y4057229D02*
X8393332Y3904848D01*
X8393332Y3904848D02*
X8393332Y3790562D01*
X8393332Y3790562D02*
X8359999Y3638181D01*
X8359999Y3638181D02*
X8326666Y3561991D01*
X8326666Y3561991D02*
X8259999Y3485800D01*
X8259999Y3485800D02*
X8159999Y3447705D01*
X8159999Y3447705D02*
X8093332Y3447705D01*
X8093332Y3447705D02*
X7993332Y3485800D01*
X7993332Y3485800D02*
X7959999Y3523896D01*
X7959999Y3523896D02*
X7959999Y3790562D01*
X7959999Y3790562D02*
X8093332Y3790562D01*
X7659999Y3447705D02*
X7659999Y4247705D01*
X7659999Y4247705D02*
X7259999Y3447705D01*
X7259999Y3447705D02*
X7259999Y4247705D01*
X6926666Y3447705D02*
X6926666Y4247705D01*
X6926666Y4247705D02*
X6759999Y4247705D01*
X6759999Y4247705D02*
X6659999Y4209610D01*
X6659999Y4209610D02*
X6593333Y4133420D01*
X6593333Y4133420D02*
X6559999Y4057229D01*
X6559999Y4057229D02*
X6526666Y3904848D01*
X6526666Y3904848D02*
X6526666Y3790562D01*
X6526666Y3790562D02*
X6559999Y3638181D01*
X6559999Y3638181D02*
X6593333Y3561991D01*
X6593333Y3561991D02*
X6659999Y3485800D01*
X6659999Y3485800D02*
X6759999Y3447705D01*
X6759999Y3447705D02*
X6926666Y3447705D01*
D11*
X11275000Y10555000D02*
X12545000Y10555000D01*
X12545000Y10555000D02*
X12545000Y11825000D01*
X8355000Y12867929D02*
X8355000Y13265000D01*
X9115000Y12867929D02*
X9115000Y13265000D01*
X10895000Y12935000D02*
X10895000Y13265000D01*
X11655000Y12935000D02*
X11655000Y13265000D01*
X7405000Y13265000D02*
X7405000Y15925000D01*
X10005000Y13265000D02*
X10005000Y15925000D01*
X12605000Y13265000D02*
X7405000Y13265000D01*
X7405000Y15925000D02*
X12605000Y15925000D01*
X12605000Y15925000D02*
X12605000Y13265000D01*
G36*
X18742656Y13772063D02*
G01*
X18736209Y13733720D01*
X18728943Y13690704D01*
X18720989Y13643786D01*
X18712479Y13593735D01*
X18703546Y13541319D01*
X18694321Y13487309D01*
X18684935Y13432473D01*
X18675521Y13377581D01*
X18666211Y13323402D01*
X18657136Y13270705D01*
X18648428Y13220260D01*
X18640219Y13172836D01*
X18632640Y13129203D01*
X18625825Y13090129D01*
X18619903Y13056384D01*
X18615008Y13028738D01*
X18611271Y13007959D01*
X18608824Y12994816D01*
X18607798Y12990080D01*
X18607719Y12990089D01*
X18602139Y12991564D01*
X18588051Y12995460D01*
X18565864Y13001661D01*
X18535985Y13010052D01*
X18498821Y13020517D01*
X18454781Y13032941D01*
X18404271Y13047210D01*
X18347700Y13063206D01*
X18285476Y13080816D01*
X18218006Y13099923D01*
X18145697Y13120412D01*
X18068958Y13142169D01*
X17988196Y13165077D01*
X17903818Y13189021D01*
X17816234Y13213885D01*
X17725849Y13239556D01*
X17633072Y13265916D01*
X17621467Y13269214D01*
X17528966Y13295495D01*
X17438910Y13321072D01*
X17351705Y13345830D01*
X17267760Y13369653D01*
X17187481Y13392426D01*
X17111277Y13414034D01*
X17039555Y13434360D01*
X16972722Y13453291D01*
X16911186Y13470710D01*
X16855356Y13486502D01*
X16805637Y13500552D01*
X16762439Y13512744D01*
X16726168Y13522963D01*
X16697232Y13531093D01*
X16676039Y13537020D01*
X16662997Y13540627D01*
X16658512Y13541800D01*
X16658913Y13541017D01*
X16663095Y13533603D01*
X16671640Y13518675D01*
X16684327Y13496615D01*
X16700936Y13467805D01*
X16721245Y13432628D01*
X16745033Y13391464D01*
X16772079Y13344697D01*
X16802162Y13292708D01*
X16835061Y13235879D01*
X16870554Y13174593D01*
X16908421Y13109231D01*
X16948440Y13040175D01*
X16990391Y12967809D01*
X17034052Y12892513D01*
X17079202Y12814669D01*
X17125620Y12734661D01*
X17145636Y12700163D01*
X17191554Y12621004D01*
X17236117Y12544161D01*
X17279101Y12470015D01*
X17320286Y12398950D01*
X17359450Y12331350D01*
X17396371Y12267596D01*
X17430827Y12208074D01*
X17462598Y12153164D01*
X17491462Y12103251D01*
X17517196Y12058717D01*
X17539579Y12019946D01*
X17558390Y11987320D01*
X17573407Y11961223D01*
X17584409Y11942038D01*
X17591174Y11930147D01*
X17593479Y11925935D01*
X17592622Y11925315D01*
X17585064Y11921087D01*
X17570367Y11913254D01*
X17549343Y11902229D01*
X17522799Y11888426D01*
X17491546Y11872258D01*
X17456391Y11854137D01*
X17418146Y11834478D01*
X17377618Y11813693D01*
X17335617Y11792196D01*
X17292953Y11770400D01*
X17250434Y11748718D01*
X17208870Y11727563D01*
X17169071Y11707348D01*
X17131844Y11688488D01*
X17098001Y11671394D01*
X17068349Y11656481D01*
X17043698Y11644161D01*
X17024858Y11634848D01*
X17012637Y11628955D01*
X17007845Y11626894D01*
X17007839Y11626897D01*
X17005611Y11631232D01*
X16999667Y11643551D01*
X16990219Y11663397D01*
X16977483Y11690312D01*
X16961669Y11723840D01*
X16942993Y11763524D01*
X16921667Y11808908D01*
X16897905Y11859536D01*
X16871919Y11914949D01*
X16843923Y11974692D01*
X16814130Y12038309D01*
X16782753Y12105342D01*
X16750006Y12175334D01*
X16716102Y12247830D01*
X16681254Y12322372D01*
X16645675Y12398503D01*
X16609579Y12475768D01*
X16573179Y12553709D01*
X16536687Y12631870D01*
X16500318Y12709794D01*
X16464285Y12787025D01*
X16428800Y12863105D01*
X16394077Y12937578D01*
X16360330Y13009988D01*
X16327771Y13079878D01*
X16296613Y13146790D01*
X16267071Y13210270D01*
X16239356Y13269859D01*
X16213684Y13325101D01*
X16190265Y13375539D01*
X16169315Y13420717D01*
X16151046Y13460179D01*
X16135671Y13493467D01*
X16123404Y13520124D01*
X16114458Y13539695D01*
X16109046Y13551723D01*
X16108247Y13551876D01*
X16106646Y13549518D01*
X16104192Y13544209D01*
X16100783Y13535636D01*
X16096321Y13523485D01*
X16090703Y13507444D01*
X16083830Y13487200D01*
X16075602Y13462438D01*
X16065916Y13432845D01*
X16054674Y13398110D01*
X16041775Y13357917D01*
X16027117Y13311955D01*
X16010602Y13259909D01*
X15992127Y13201467D01*
X15971593Y13136316D01*
X15948899Y13064141D01*
X15923945Y12984631D01*
X15896630Y12897471D01*
X15866854Y12802348D01*
X15834515Y12698950D01*
X15799515Y12586963D01*
X15796768Y12578173D01*
X15767649Y12484980D01*
X15739137Y12393738D01*
X15711369Y12304880D01*
X15684480Y12218841D01*
X15658605Y12136054D01*
X15633882Y12056955D01*
X15610444Y11981977D01*
X15588429Y11911554D01*
X15567972Y11846120D01*
X15549208Y11786111D01*
X15532274Y11731959D01*
X15517304Y11684099D01*
X15504436Y11642966D01*
X15493804Y11608992D01*
X15485544Y11582614D01*
X15479792Y11564264D01*
X15476684Y11554377D01*
X15475546Y11550786D01*
X15468745Y11529878D01*
X15462927Y11512881D01*
X15458679Y11501462D01*
X15456587Y11497285D01*
X15456499Y11497303D01*
X15451143Y11499607D01*
X15438295Y11505501D01*
X15418793Y11514586D01*
X15393473Y11526463D01*
X15363172Y11540736D01*
X15328727Y11557005D01*
X15290975Y11574873D01*
X15250752Y11593941D01*
X15208896Y11613812D01*
X15166244Y11634087D01*
X15123633Y11654369D01*
X15081899Y11674259D01*
X15041879Y11693360D01*
X15004410Y11711272D01*
X14970330Y11727599D01*
X14940474Y11741942D01*
X14915681Y11753903D01*
X14896786Y11763084D01*
X14884628Y11769086D01*
X14880042Y11771513D01*
X14880304Y11772628D01*
X14883476Y11781113D01*
X14890066Y11797607D01*
X14899913Y11821726D01*
X14912856Y11853087D01*
X14928734Y11891306D01*
X14947386Y11936001D01*
X14968651Y11986789D01*
X14992367Y12043286D01*
X15018373Y12105110D01*
X15046510Y12171876D01*
X15076614Y12243203D01*
X15108526Y12318706D01*
X15142083Y12398003D01*
X15177126Y12480711D01*
X15213493Y12566446D01*
X15251023Y12654825D01*
X15289554Y12745466D01*
X15308070Y12789008D01*
X15346148Y12878608D01*
X15383153Y12965759D01*
X15418925Y13050078D01*
X15453302Y13131181D01*
X15486122Y13208687D01*
X15517224Y13282213D01*
X15546447Y13351374D01*
X15573629Y13415790D01*
X15598609Y13475076D01*
X15621226Y13528850D01*
X15641317Y13576729D01*
X15658723Y13618331D01*
X15673281Y13653272D01*
X15684830Y13681169D01*
X15693209Y13701640D01*
X15698256Y13714302D01*
X15699810Y13718772D01*
X15698732Y13719106D01*
X15689948Y13721306D01*
X15672671Y13725447D01*
X15647307Y13731435D01*
X15614262Y13739178D01*
X15573943Y13748580D01*
X15526754Y13759549D01*
X15473103Y13771990D01*
X15413395Y13785809D01*
X15348036Y13800913D01*
X15277432Y13817208D01*
X15201988Y13834600D01*
X15122112Y13852995D01*
X15038209Y13872299D01*
X14950685Y13892419D01*
X14859945Y13913260D01*
X14766397Y13934729D01*
X14670445Y13956731D01*
X14626069Y13966905D01*
X14531147Y13988686D01*
X14438805Y14009897D01*
X14349451Y14030444D01*
X14263490Y14050234D01*
X14181329Y14069172D01*
X14103375Y14087164D01*
X14097114Y14088611D01*
X16017982Y14088611D01*
X16098055Y13932086D01*
X16099660Y13928949D01*
X16117868Y13893535D01*
X16134958Y13860585D01*
X16150414Y13831074D01*
X16163720Y13805977D01*
X16174358Y13786269D01*
X16181813Y13772923D01*
X16185568Y13766916D01*
X16186176Y13766494D01*
X16191978Y13764123D01*
X16203865Y13760073D01*
X16222009Y13754295D01*
X16246580Y13746741D01*
X16277746Y13737360D01*
X16315678Y13726104D01*
X16360546Y13712924D01*
X16412520Y13697770D01*
X16471770Y13680592D01*
X16538466Y13661343D01*
X16612778Y13639973D01*
X16694875Y13616432D01*
X16784928Y13590671D01*
X16883107Y13562641D01*
X16989581Y13532294D01*
X17104521Y13499579D01*
X17228096Y13464447D01*
X17360477Y13426850D01*
X17435569Y13405533D01*
X17535689Y13377110D01*
X17633221Y13349421D01*
X17727789Y13322573D01*
X17819019Y13296671D01*
X17906535Y13271824D01*
X17989962Y13248136D01*
X18068925Y13225716D01*
X18143048Y13204669D01*
X18211956Y13185101D01*
X18275275Y13167120D01*
X18332628Y13150832D01*
X18383641Y13136344D01*
X18427939Y13123761D01*
X18465145Y13113191D01*
X18494886Y13104741D01*
X18516786Y13098516D01*
X18530469Y13094623D01*
X18535560Y13093169D01*
X18541095Y13093548D01*
X18545687Y13101537D01*
X18546710Y13106200D01*
X18549712Y13121467D01*
X18553872Y13143957D01*
X18559046Y13172808D01*
X18565090Y13207154D01*
X18571859Y13246133D01*
X18579209Y13288881D01*
X18586996Y13334534D01*
X18595075Y13382228D01*
X18603303Y13431101D01*
X18611534Y13480288D01*
X18619625Y13528925D01*
X18627431Y13576150D01*
X18634808Y13621098D01*
X18641611Y13662905D01*
X18647697Y13700709D01*
X18652921Y13733646D01*
X18657138Y13760851D01*
X18660205Y13781462D01*
X18661977Y13794615D01*
X18662309Y13799445D01*
X18662054Y13799578D01*
X18655374Y13801170D01*
X18640527Y13804006D01*
X18618407Y13807935D01*
X18589911Y13812807D01*
X18555934Y13818469D01*
X18517372Y13824770D01*
X18475120Y13831560D01*
X18430074Y13838686D01*
X18340994Y13852677D01*
X18238557Y13868783D01*
X18135460Y13885010D01*
X18032117Y13901292D01*
X17928936Y13917564D01*
X17826331Y13933761D01*
X17724711Y13949817D01*
X17624488Y13965666D01*
X17526072Y13981244D01*
X17429876Y13996486D01*
X17336310Y14011325D01*
X17245785Y14025696D01*
X17158713Y14039534D01*
X17075504Y14052774D01*
X16996569Y14065349D01*
X16922321Y14077196D01*
X16853169Y14088248D01*
X16789525Y14098440D01*
X16731800Y14107707D01*
X16680405Y14115983D01*
X16635751Y14123203D01*
X16598250Y14129301D01*
X16568312Y14134213D01*
X16546349Y14137872D01*
X16532771Y14140214D01*
X16527990Y14141172D01*
X16528752Y14143133D01*
X16533296Y14152762D01*
X16541759Y14170088D01*
X16553957Y14194745D01*
X16569704Y14226366D01*
X16588817Y14264582D01*
X16611108Y14309029D01*
X16636395Y14359337D01*
X16664492Y14415141D01*
X16695213Y14476074D01*
X16728374Y14541767D01*
X16763790Y14611856D01*
X16801276Y14685971D01*
X16840647Y14763747D01*
X16881718Y14844816D01*
X16924304Y14928812D01*
X16968220Y15015366D01*
X17013281Y15104114D01*
X17043047Y15162729D01*
X17087396Y15250121D01*
X17130484Y15335096D01*
X17172127Y15417287D01*
X17212139Y15496326D01*
X17250334Y15571844D01*
X17286527Y15643473D01*
X17320532Y15710844D01*
X17352165Y15773591D01*
X17381239Y15831344D01*
X17407569Y15883735D01*
X17430970Y15930396D01*
X17451256Y15970959D01*
X17468241Y16005056D01*
X17481742Y16032318D01*
X17491571Y16052378D01*
X17497543Y16064866D01*
X17499473Y16069416D01*
X17498713Y16070034D01*
X17491290Y16074250D01*
X17476604Y16081975D01*
X17455434Y16092825D01*
X17428562Y16106418D01*
X17396766Y16122370D01*
X17360828Y16140298D01*
X17321529Y16159819D01*
X17279647Y16180550D01*
X17235965Y16202107D01*
X17191261Y16224107D01*
X17146317Y16246167D01*
X17101913Y16267904D01*
X17058829Y16288934D01*
X17017846Y16308874D01*
X16979744Y16327342D01*
X16945303Y16343953D01*
X16915303Y16358324D01*
X16890526Y16370073D01*
X16871751Y16378816D01*
X16859758Y16384170D01*
X16855329Y16385751D01*
X16854189Y16382812D01*
X16850001Y16371541D01*
X16842864Y16352166D01*
X16832911Y16325051D01*
X16820275Y16290557D01*
X16805089Y16249048D01*
X16787483Y16200888D01*
X16767592Y16146438D01*
X16745548Y16086062D01*
X16721483Y16020124D01*
X16695529Y15948985D01*
X16667820Y15873010D01*
X16638487Y15792561D01*
X16607663Y15708001D01*
X16575480Y15619692D01*
X16542071Y15528000D01*
X16507569Y15433285D01*
X16472106Y15335911D01*
X16435815Y15236241D01*
X16017982Y14088611D01*
X14097114Y14088611D01*
X14030035Y14104115D01*
X13961715Y14119932D01*
X13898822Y14134519D01*
X13841763Y14147784D01*
X13790944Y14159630D01*
X13746771Y14169965D01*
X13709652Y14178694D01*
X13679993Y14185722D01*
X13658201Y14190955D01*
X13644682Y14194300D01*
X13639843Y14195661D01*
X13639807Y14195723D01*
X13640215Y14201294D01*
X13642179Y14215045D01*
X13645533Y14236067D01*
X13650110Y14263447D01*
X13655746Y14296275D01*
X13662273Y14333639D01*
X13669525Y14374629D01*
X13677336Y14418332D01*
X13685541Y14463838D01*
X13693972Y14510236D01*
X13702464Y14556615D01*
X13710851Y14602063D01*
X13718966Y14645669D01*
X13726643Y14686522D01*
X13733717Y14723712D01*
X13740020Y14756326D01*
X13745387Y14783454D01*
X13749652Y14804185D01*
X13752649Y14817607D01*
X13754210Y14822810D01*
X13756479Y14822267D01*
X13766967Y14819050D01*
X13785627Y14813076D01*
X13812072Y14804472D01*
X13845911Y14793371D01*
X13886754Y14779900D01*
X13934213Y14764190D01*
X13987898Y14746370D01*
X14047419Y14726571D01*
X14112386Y14704921D01*
X14182412Y14681551D01*
X14257105Y14656590D01*
X14336077Y14630168D01*
X14418937Y14602415D01*
X14505298Y14573460D01*
X14594768Y14543433D01*
X14686959Y14512464D01*
X14781482Y14480683D01*
X14847504Y14458475D01*
X14940409Y14427232D01*
X15030695Y14396877D01*
X15117973Y14367540D01*
X15201856Y14339352D01*
X15281955Y14312443D01*
X15357880Y14286943D01*
X15429245Y14262983D01*
X15495660Y14240693D01*
X15556737Y14220203D01*
X15612088Y14201644D01*
X15661323Y14185146D01*
X15704055Y14170839D01*
X15739896Y14158854D01*
X15768456Y14149320D01*
X15789347Y14142370D01*
X15802181Y14138132D01*
X15806569Y14136737D01*
X15805816Y14138161D01*
X15801038Y14146836D01*
X15792028Y14163074D01*
X15778987Y14186516D01*
X15762117Y14216801D01*
X15741617Y14253570D01*
X15717690Y14296461D01*
X15690536Y14345115D01*
X15660357Y14399172D01*
X15627353Y14458272D01*
X15591726Y14522054D01*
X15553677Y14590158D01*
X15513406Y14662225D01*
X15471116Y14737894D01*
X15427007Y14816805D01*
X15381280Y14898597D01*
X15334136Y14982912D01*
X15285777Y15069388D01*
X15257393Y15120154D01*
X15209744Y15205443D01*
X15163453Y15288382D01*
X15118720Y15368609D01*
X15075746Y15445762D01*
X15034730Y15519481D01*
X14995873Y15589405D01*
X14959373Y15655172D01*
X14925432Y15716420D01*
X14894249Y15772789D01*
X14866024Y15823918D01*
X14840957Y15869444D01*
X14819248Y15909008D01*
X14801096Y15942246D01*
X14786703Y15968799D01*
X14776268Y15988305D01*
X14769990Y16000403D01*
X14768070Y16004731D01*
X14768668Y16005135D01*
X14775740Y16009042D01*
X14790028Y16016602D01*
X14810717Y16027398D01*
X14836991Y16041013D01*
X14868033Y16057031D01*
X14903029Y16075035D01*
X14941161Y16094609D01*
X14981613Y16115335D01*
X15023570Y16136797D01*
X15066215Y16158579D01*
X15108732Y16180264D01*
X15150305Y16201435D01*
X15190118Y16221676D01*
X15227354Y16240569D01*
X15261199Y16257699D01*
X15290835Y16272649D01*
X15315447Y16285002D01*
X15334218Y16294341D01*
X15346332Y16300250D01*
X15350974Y16302312D01*
X15351421Y16301612D01*
X15355115Y16294076D01*
X15362353Y16278597D01*
X15372954Y16255577D01*
X15386734Y16225420D01*
X15403512Y16188530D01*
X15423105Y16145311D01*
X15445333Y16096165D01*
X15470012Y16041497D01*
X15496960Y15981709D01*
X15525996Y15917206D01*
X15556938Y15848390D01*
X15589603Y15775665D01*
X15623809Y15699436D01*
X15659375Y15620104D01*
X15696118Y15538074D01*
X15733856Y15453749D01*
X15749213Y15419421D01*
X15786574Y15335945D01*
X15822862Y15254911D01*
X15857895Y15176723D01*
X15891490Y15101787D01*
X15923467Y15030507D01*
X15953644Y14963287D01*
X15981837Y14900532D01*
X16007866Y14842646D01*
X16031548Y14790035D01*
X16052701Y14743101D01*
X16071144Y14702251D01*
X16086694Y14667889D01*
X16099170Y14640418D01*
X16108389Y14620245D01*
X16114170Y14607772D01*
X16116331Y14603405D01*
X16116356Y14603413D01*
X16118407Y14608123D01*
X16123484Y14621169D01*
X16131439Y14642153D01*
X16142127Y14670677D01*
X16155401Y14706342D01*
X16171115Y14748750D01*
X16189121Y14797503D01*
X16209275Y14852202D01*
X16231428Y14912449D01*
X16255435Y14977845D01*
X16281149Y15047993D01*
X16308424Y15122494D01*
X16337112Y15200948D01*
X16367069Y15282959D01*
X16398147Y15368128D01*
X16430199Y15456056D01*
X16463079Y15546345D01*
X16464960Y15551511D01*
X16497818Y15641756D01*
X16529842Y15729662D01*
X16560886Y15814827D01*
X16590802Y15896851D01*
X16619444Y15975332D01*
X16646664Y16049868D01*
X16672315Y16120059D01*
X16696251Y16185503D01*
X16718325Y16245799D01*
X16738390Y16300545D01*
X16756299Y16349340D01*
X16771905Y16391783D01*
X16785060Y16427472D01*
X16795619Y16456006D01*
X16803434Y16476985D01*
X16808358Y16490005D01*
X16810245Y16494667D01*
X16810743Y16494646D01*
X16817650Y16492009D01*
X16832168Y16485616D01*
X16853717Y16475745D01*
X16881714Y16462672D01*
X16915576Y16446674D01*
X16954723Y16428028D01*
X16998572Y16407011D01*
X17046541Y16383900D01*
X17098048Y16358971D01*
X17152511Y16332502D01*
X17209349Y16304770D01*
X17225725Y16296765D01*
X17282004Y16269261D01*
X17335757Y16243006D01*
X17386400Y16218282D01*
X17433347Y16195375D01*
X17476014Y16174571D01*
X17513816Y16156153D01*
X17546168Y16140407D01*
X17572487Y16127617D01*
X17592187Y16118070D01*
X17604683Y16112048D01*
X17609391Y16109838D01*
X17608900Y16108336D01*
X17604814Y16099398D01*
X17596793Y16082738D01*
X17585021Y16058724D01*
X17569684Y16027723D01*
X17550967Y15990105D01*
X17529054Y15946236D01*
X17504132Y15896486D01*
X17476385Y15841221D01*
X17445997Y15780810D01*
X17413154Y15715621D01*
X17378041Y15646022D01*
X17340844Y15572381D01*
X17301746Y15495065D01*
X17260933Y15414444D01*
X17218590Y15330885D01*
X17174902Y15244756D01*
X17130054Y15156424D01*
X17103662Y15104460D01*
X17059441Y15017359D01*
X17016467Y14932675D01*
X16974927Y14850775D01*
X16935007Y14772029D01*
X16896893Y14696804D01*
X16860771Y14625468D01*
X16826827Y14558390D01*
X16795247Y14495938D01*
X16766217Y14438480D01*
X16739924Y14386385D01*
X16716553Y14340021D01*
X16696291Y14299755D01*
X16679323Y14265957D01*
X16665837Y14238995D01*
X16656017Y14219236D01*
X16650050Y14207049D01*
X16648122Y14202802D01*
X16649702Y14202479D01*
X16659471Y14200809D01*
X16677805Y14197790D01*
X16704297Y14193486D01*
X16738538Y14187962D01*
X16780119Y14181284D01*
X16828633Y14173517D01*
X16883671Y14164725D01*
X16944824Y14154973D01*
X17011685Y14144328D01*
X17083845Y14132852D01*
X17160895Y14120613D01*
X17242428Y14107675D01*
X17328035Y14094102D01*
X17417308Y14079960D01*
X17509838Y14065314D01*
X17605217Y14050229D01*
X17703037Y14034770D01*
X17759213Y14025893D01*
X17855689Y14010641D01*
X17949492Y13995800D01*
X18040214Y13981437D01*
X18127444Y13967615D01*
X18210777Y13954401D01*
X18289802Y13941858D01*
X18364112Y13930053D01*
X18433298Y13919049D01*
X18496953Y13908913D01*
X18554667Y13899708D01*
X18606032Y13891501D01*
X18650640Y13884356D01*
X18688082Y13878338D01*
X18717951Y13873511D01*
X18739837Y13869942D01*
X18753333Y13867695D01*
X18758030Y13866835D01*
X18757616Y13863331D01*
X18755764Y13851369D01*
X18752565Y13831657D01*
X18748152Y13804965D01*
X18747230Y13799445D01*
X18742656Y13772063D01*
G37*
M02*
