G04 #@! TF.GenerationSoftware,KiCad,Pcbnew,7.0.10*
G04 #@! TF.CreationDate,2024-02-23T15:29:01+00:00*
G04 #@! TF.ProjectId,NB3_mouth,4e42335f-6d6f-4757-9468-2e6b69636164,0.0.2*
G04 #@! TF.SameCoordinates,PX86d97c0PY6ea0500*
G04 #@! TF.FileFunction,Copper,L1,Top*
G04 #@! TF.FilePolarity,Positive*
%FSLAX46Y46*%
G04 Gerber Fmt 4.6, Leading zero omitted, Abs format (unit mm)*
G04 Created by KiCad (PCBNEW 7.0.10) date 2024-02-23 15:29:01*
%MOMM*%
%LPD*%
G01*
G04 APERTURE LIST*
G04 Aperture macros list*
%AMRoundRect*
0 Rectangle with rounded corners*
0 $1 Rounding radius*
0 $2 $3 $4 $5 $6 $7 $8 $9 X,Y pos of 4 corners*
0 Add a 4 corners polygon primitive as box body*
4,1,4,$2,$3,$4,$5,$6,$7,$8,$9,$2,$3,0*
0 Add four circle primitives for the rounded corners*
1,1,$1+$1,$2,$3*
1,1,$1+$1,$4,$5*
1,1,$1+$1,$6,$7*
1,1,$1+$1,$8,$9*
0 Add four rect primitives between the rounded corners*
20,1,$1+$1,$2,$3,$4,$5,0*
20,1,$1+$1,$4,$5,$6,$7,0*
20,1,$1+$1,$6,$7,$8,$9,0*
20,1,$1+$1,$8,$9,$2,$3,0*%
G04 Aperture macros list end*
G04 #@! TA.AperFunction,SMDPad,CuDef*
%ADD10R,0.300000X0.850000*%
G04 #@! TD*
G04 #@! TA.AperFunction,SMDPad,CuDef*
%ADD11R,0.850000X0.300000*%
G04 #@! TD*
G04 #@! TA.AperFunction,SMDPad,CuDef*
%ADD12R,1.250000X1.250000*%
G04 #@! TD*
G04 #@! TA.AperFunction,SMDPad,CuDef*
%ADD13RoundRect,0.250000X0.475000X-0.250000X0.475000X0.250000X-0.475000X0.250000X-0.475000X-0.250000X0*%
G04 #@! TD*
G04 #@! TA.AperFunction,SMDPad,CuDef*
%ADD14RoundRect,0.135000X0.185000X-0.135000X0.185000X0.135000X-0.185000X0.135000X-0.185000X-0.135000X0*%
G04 #@! TD*
G04 #@! TA.AperFunction,SMDPad,CuDef*
%ADD15RoundRect,0.140000X-0.170000X0.140000X-0.170000X-0.140000X0.170000X-0.140000X0.170000X0.140000X0*%
G04 #@! TD*
G04 #@! TA.AperFunction,SMDPad,CuDef*
%ADD16R,1.000000X3.150000*%
G04 #@! TD*
G04 #@! TA.AperFunction,ComponentPad*
%ADD17R,1.700000X1.700000*%
G04 #@! TD*
G04 #@! TA.AperFunction,ComponentPad*
%ADD18O,1.700000X1.700000*%
G04 #@! TD*
G04 #@! TA.AperFunction,ViaPad*
%ADD19C,0.800000*%
G04 #@! TD*
G04 #@! TA.AperFunction,Conductor*
%ADD20C,0.250000*%
G04 #@! TD*
G04 #@! TA.AperFunction,Conductor*
%ADD21C,0.500000*%
G04 #@! TD*
G04 #@! TA.AperFunction,Conductor*
%ADD22C,0.300000*%
G04 #@! TD*
G04 APERTURE END LIST*
D10*
X10750000Y16475000D03*
X10250000Y16475000D03*
X9750000Y16475000D03*
X9250000Y16475000D03*
D11*
X8550000Y15775000D03*
X8550000Y15275000D03*
X8550000Y14775000D03*
X8550000Y14275000D03*
D10*
X9250000Y13575000D03*
X9750000Y13575000D03*
X10250000Y13575000D03*
X10750000Y13575000D03*
D11*
X11450000Y14275000D03*
X11450000Y14775000D03*
X11450000Y15275000D03*
X11450000Y15775000D03*
D12*
X10000000Y15025000D03*
D13*
X5000000Y14475000D03*
X5000000Y16375000D03*
D14*
X6800000Y15740000D03*
X6800000Y16760000D03*
D15*
X6800000Y14460000D03*
X6800000Y13500000D03*
D16*
X12540000Y4000000D03*
X12540000Y9050000D03*
X15080000Y4000000D03*
X15080000Y9050000D03*
X17620000Y4000000D03*
X17620000Y9050000D03*
X2380000Y3975000D03*
X2380000Y9025000D03*
X4920000Y3975000D03*
X4920000Y9025000D03*
X7460000Y3975000D03*
X7460000Y9025000D03*
D17*
X11275000Y11825000D03*
D18*
X8735000Y11825000D03*
D19*
X2000000Y17000000D03*
X2000000Y1500000D03*
X6800000Y12275000D03*
X10000000Y9000000D03*
X10000000Y1475000D03*
X18000000Y1500000D03*
X10000000Y15000000D03*
X18000000Y17000000D03*
D20*
X9750000Y16475000D02*
X9750000Y15275000D01*
X10250000Y13575000D02*
X10250000Y14775000D01*
D21*
X7460000Y3975000D02*
X7460000Y9025000D01*
D20*
X10000000Y15025000D02*
X10000000Y15000000D01*
X9750000Y16475000D02*
X9750000Y17200000D01*
X11450000Y15275000D02*
X10250000Y15275000D01*
X9750000Y15275000D02*
X10000000Y15025000D01*
X6800000Y12275000D02*
X6800000Y13500000D01*
X10250000Y14775000D02*
X10000000Y15025000D01*
X10250000Y15275000D02*
X10000000Y15025000D01*
X12269455Y15775000D02*
X15080000Y12964455D01*
X15080000Y12964455D02*
X15080000Y9050000D01*
X15080000Y4000000D02*
X15080000Y9050000D01*
X11450000Y15775000D02*
X12269455Y15775000D01*
X17620000Y4000000D02*
X17620000Y9050000D01*
X12925000Y16475000D02*
X17620000Y11780000D01*
X10750000Y16475000D02*
X12925000Y16475000D01*
X17620000Y11780000D02*
X17620000Y9050000D01*
X12540000Y4000000D02*
X12540000Y9050000D01*
X12175000Y14775000D02*
X11450000Y14775000D01*
X12540000Y9050000D02*
X12540000Y14410000D01*
X12540000Y14410000D02*
X12175000Y14775000D01*
X8040000Y16760000D02*
X8325000Y16475000D01*
X6800000Y16760000D02*
X8040000Y16760000D01*
X8325000Y16475000D02*
X9250000Y16475000D01*
D22*
X9250000Y13575000D02*
X9250000Y12340000D01*
X9250000Y12340000D02*
X8735000Y11825000D01*
X9750000Y13575000D02*
X9750000Y12500000D01*
X10425000Y11825000D02*
X11275000Y11825000D01*
X9750000Y12500000D02*
X10425000Y11825000D01*
D20*
X7710000Y14275000D02*
X7525000Y14460000D01*
X8550000Y14775000D02*
X7840000Y14775000D01*
X7840000Y14775000D02*
X7525000Y14460000D01*
D21*
X4920000Y9025000D02*
X4920000Y14395000D01*
X5015000Y14460000D02*
X6800000Y14460000D01*
D22*
X7525000Y14460000D02*
X6800000Y14460000D01*
D20*
X8550000Y14275000D02*
X7710000Y14275000D01*
D21*
X5000000Y14475000D02*
X5015000Y14460000D01*
X4920000Y3975000D02*
X4920000Y9025000D01*
X4920000Y14395000D02*
X5000000Y14475000D01*
D20*
X3600000Y15400000D02*
X6460000Y15400000D01*
X2380000Y14180000D02*
X3600000Y15400000D01*
X2380000Y9025000D02*
X2380000Y14180000D01*
X6460000Y15400000D02*
X6800000Y15740000D01*
X2380000Y3975000D02*
X2380000Y9025000D01*
G04 #@! TA.AperFunction,Conductor*
G36*
X19015469Y17979815D02*
G01*
X19036111Y17963181D01*
X19963181Y17036112D01*
X19996666Y16974789D01*
X19999500Y16948431D01*
X19999500Y1051570D01*
X19979815Y984531D01*
X19963181Y963889D01*
X19036111Y36819D01*
X18974788Y3334D01*
X18948430Y500D01*
X1051569Y500D01*
X984530Y20185D01*
X963888Y36819D01*
X36819Y963889D01*
X3334Y1025212D01*
X500Y1051570D01*
X500Y2375322D01*
X1629500Y2375322D01*
X1644032Y2302265D01*
X1644033Y2302261D01*
X1644034Y2302260D01*
X1699399Y2219399D01*
X1782260Y2164034D01*
X1782264Y2164033D01*
X1855321Y2149501D01*
X1855324Y2149500D01*
X1855326Y2149500D01*
X2904676Y2149500D01*
X2904677Y2149501D01*
X2977740Y2164034D01*
X3060601Y2219399D01*
X3115966Y2302260D01*
X3130500Y2375326D01*
X3130500Y5574674D01*
X3130500Y5574677D01*
X3130499Y5574679D01*
X3115967Y5647736D01*
X3115966Y5647740D01*
X3060601Y5730601D01*
X2977740Y5785966D01*
X2977739Y5785967D01*
X2977735Y5785968D01*
X2904677Y5800500D01*
X2904674Y5800500D01*
X2879500Y5800500D01*
X2812461Y5820185D01*
X2766706Y5872989D01*
X2755500Y5924500D01*
X2755500Y7075500D01*
X2775185Y7142539D01*
X2827989Y7188294D01*
X2879500Y7199500D01*
X2904676Y7199500D01*
X2904677Y7199501D01*
X2977740Y7214034D01*
X3060601Y7269399D01*
X3115966Y7352260D01*
X3130500Y7425326D01*
X3130500Y10624674D01*
X3130500Y10624677D01*
X3130499Y10624679D01*
X3115967Y10697736D01*
X3115966Y10697740D01*
X3111239Y10704815D01*
X3060601Y10780601D01*
X2977740Y10835966D01*
X2977739Y10835967D01*
X2977735Y10835968D01*
X2904677Y10850500D01*
X2904674Y10850500D01*
X2879500Y10850500D01*
X2812461Y10870185D01*
X2766706Y10922989D01*
X2755500Y10974500D01*
X2755500Y13973101D01*
X2775185Y14040140D01*
X2791819Y14060782D01*
X3719218Y14988181D01*
X3780541Y15021666D01*
X3806899Y15024500D01*
X3923933Y15024500D01*
X3990972Y15004815D01*
X4036727Y14952011D01*
X4046671Y14882853D01*
X4040115Y14857168D01*
X4030910Y14832489D01*
X4030909Y14832485D01*
X4030909Y14832483D01*
X4024500Y14772873D01*
X4024500Y14772866D01*
X4024500Y14772865D01*
X4024500Y14177130D01*
X4024501Y14177124D01*
X4030908Y14117517D01*
X4081202Y13982672D01*
X4081206Y13982665D01*
X4167452Y13867456D01*
X4167455Y13867453D01*
X4282664Y13781207D01*
X4282671Y13781203D01*
X4338833Y13760256D01*
X4394767Y13718385D01*
X4419184Y13652921D01*
X4419500Y13644074D01*
X4419500Y10957073D01*
X4399815Y10890034D01*
X4347011Y10844279D01*
X4325755Y10837414D01*
X4322260Y10835967D01*
X4239399Y10780601D01*
X4184033Y10697740D01*
X4184032Y10697736D01*
X4169500Y10624679D01*
X4169500Y7425322D01*
X4184032Y7352265D01*
X4184033Y7352261D01*
X4184034Y7352260D01*
X4239399Y7269399D01*
X4322260Y7214034D01*
X4333544Y7209360D01*
X4332841Y7207665D01*
X4381595Y7182167D01*
X4416174Y7121454D01*
X4419500Y7092928D01*
X4419500Y5907073D01*
X4399815Y5840034D01*
X4347011Y5794279D01*
X4325755Y5787414D01*
X4322260Y5785967D01*
X4239399Y5730601D01*
X4184033Y5647740D01*
X4184032Y5647736D01*
X4169500Y5574679D01*
X4169500Y2375322D01*
X4184032Y2302265D01*
X4184033Y2302261D01*
X4184034Y2302260D01*
X4239399Y2219399D01*
X4322260Y2164034D01*
X4322264Y2164033D01*
X4395321Y2149501D01*
X4395324Y2149500D01*
X4395326Y2149500D01*
X5444676Y2149500D01*
X5444677Y2149501D01*
X5517740Y2164034D01*
X5600601Y2219399D01*
X5655966Y2302260D01*
X5670500Y2375326D01*
X5670500Y3725000D01*
X6460000Y3725000D01*
X6460000Y2352156D01*
X6466401Y2292628D01*
X6466403Y2292621D01*
X6516645Y2157914D01*
X6516649Y2157907D01*
X6602809Y2042813D01*
X6602812Y2042810D01*
X6717906Y1956650D01*
X6717913Y1956646D01*
X6852620Y1906404D01*
X6852627Y1906402D01*
X6912155Y1900001D01*
X6912172Y1900000D01*
X7210000Y1900000D01*
X7210000Y3725000D01*
X7710000Y3725000D01*
X7710000Y1900000D01*
X8007828Y1900000D01*
X8007844Y1900001D01*
X8067372Y1906402D01*
X8067379Y1906404D01*
X8202086Y1956646D01*
X8202093Y1956650D01*
X8317187Y2042810D01*
X8317190Y2042813D01*
X8403350Y2157907D01*
X8403354Y2157914D01*
X8453596Y2292621D01*
X8453598Y2292628D01*
X8459999Y2352156D01*
X8460000Y2352173D01*
X8460000Y3725000D01*
X7710000Y3725000D01*
X7210000Y3725000D01*
X6460000Y3725000D01*
X5670500Y3725000D01*
X5670500Y4225000D01*
X6460000Y4225000D01*
X7210000Y4225000D01*
X7210000Y6050000D01*
X7710000Y6050000D01*
X7710000Y4225000D01*
X8460000Y4225000D01*
X8460000Y5597828D01*
X8459999Y5597845D01*
X8453598Y5657373D01*
X8453596Y5657380D01*
X8403354Y5792087D01*
X8403350Y5792094D01*
X8317190Y5907188D01*
X8317187Y5907191D01*
X8202093Y5993351D01*
X8202086Y5993355D01*
X8067379Y6043597D01*
X8067372Y6043599D01*
X8007844Y6050000D01*
X7710000Y6050000D01*
X7210000Y6050000D01*
X6912155Y6050000D01*
X6852627Y6043599D01*
X6852620Y6043597D01*
X6717913Y5993355D01*
X6717906Y5993351D01*
X6602812Y5907191D01*
X6602809Y5907188D01*
X6516649Y5792094D01*
X6516645Y5792087D01*
X6466403Y5657380D01*
X6466401Y5657373D01*
X6460000Y5597845D01*
X6460000Y4225000D01*
X5670500Y4225000D01*
X5670500Y5574674D01*
X5670500Y5574677D01*
X5670499Y5574679D01*
X5655967Y5647736D01*
X5655966Y5647740D01*
X5600601Y5730601D01*
X5517740Y5785966D01*
X5517739Y5785967D01*
X5506456Y5790640D01*
X5507157Y5792335D01*
X5458396Y5817843D01*
X5423823Y5878559D01*
X5420500Y5907073D01*
X5420500Y7092928D01*
X5440185Y7159967D01*
X5492989Y7205722D01*
X5514239Y7212585D01*
X5517738Y7214034D01*
X5517740Y7214034D01*
X5600601Y7269399D01*
X5655966Y7352260D01*
X5670500Y7425326D01*
X5670500Y8775000D01*
X6460000Y8775000D01*
X6460000Y7402156D01*
X6466401Y7342628D01*
X6466403Y7342621D01*
X6516645Y7207914D01*
X6516649Y7207907D01*
X6602809Y7092813D01*
X6602812Y7092810D01*
X6717906Y7006650D01*
X6717913Y7006646D01*
X6852620Y6956404D01*
X6852627Y6956402D01*
X6912155Y6950001D01*
X6912172Y6950000D01*
X7210000Y6950000D01*
X7210000Y8775000D01*
X7710000Y8775000D01*
X7710000Y6950000D01*
X8007828Y6950000D01*
X8007844Y6950001D01*
X8067372Y6956402D01*
X8067379Y6956404D01*
X8202086Y7006646D01*
X8202093Y7006650D01*
X8317187Y7092810D01*
X8317190Y7092813D01*
X8403350Y7207907D01*
X8403354Y7207914D01*
X8453596Y7342621D01*
X8453598Y7342628D01*
X8459999Y7402156D01*
X8460000Y7402173D01*
X8460000Y8775000D01*
X7710000Y8775000D01*
X7210000Y8775000D01*
X6460000Y8775000D01*
X5670500Y8775000D01*
X5670500Y9275000D01*
X6460000Y9275000D01*
X7210000Y9275000D01*
X7210000Y11100000D01*
X6912155Y11100000D01*
X6852627Y11093599D01*
X6852620Y11093597D01*
X6717913Y11043355D01*
X6717906Y11043351D01*
X6602812Y10957191D01*
X6602809Y10957188D01*
X6516649Y10842094D01*
X6516645Y10842087D01*
X6466403Y10707380D01*
X6466401Y10707373D01*
X6460000Y10647845D01*
X6460000Y9275000D01*
X5670500Y9275000D01*
X5670500Y10624674D01*
X5670500Y10624677D01*
X5670499Y10624679D01*
X5655967Y10697736D01*
X5655966Y10697740D01*
X5651239Y10704815D01*
X5600601Y10780601D01*
X5517740Y10835966D01*
X5517739Y10835967D01*
X5506456Y10840640D01*
X5507157Y10842335D01*
X5458396Y10867843D01*
X5423823Y10928559D01*
X5420500Y10957073D01*
X5420500Y13250000D01*
X5995496Y13250000D01*
X6037968Y13103805D01*
X6120278Y12964626D01*
X6120285Y12964617D01*
X6234616Y12850286D01*
X6234625Y12850279D01*
X6373804Y12767969D01*
X6529089Y12722855D01*
X6550000Y12721211D01*
X6550000Y13250000D01*
X7050000Y13250000D01*
X7050000Y12721211D01*
X7070910Y12722855D01*
X7226195Y12767969D01*
X7365374Y12850279D01*
X7365383Y12850286D01*
X7479714Y12964617D01*
X7479721Y12964626D01*
X7562031Y13103805D01*
X7604504Y13250000D01*
X7050000Y13250000D01*
X6550000Y13250000D01*
X5995496Y13250000D01*
X5420500Y13250000D01*
X5420500Y13602112D01*
X5440185Y13669151D01*
X5492989Y13714906D01*
X5531244Y13725402D01*
X5582483Y13730909D01*
X5717331Y13781204D01*
X5787558Y13833777D01*
X5853019Y13858193D01*
X5921292Y13843342D01*
X5970698Y13793938D01*
X5974040Y13778576D01*
X5995495Y13750000D01*
X7604505Y13750000D01*
X7607183Y13753567D01*
X7607346Y13810775D01*
X7645288Y13869444D01*
X7708927Y13898288D01*
X7726223Y13899500D01*
X7977327Y13899500D01*
X8024778Y13890062D01*
X8027258Y13889036D01*
X8027260Y13889034D01*
X8045526Y13885401D01*
X8100323Y13874500D01*
X8100326Y13874500D01*
X8725500Y13874500D01*
X8792539Y13854815D01*
X8838294Y13802011D01*
X8849500Y13750500D01*
X8849500Y13049500D01*
X8829815Y12982461D01*
X8777011Y12936706D01*
X8725500Y12925500D01*
X8633024Y12925500D01*
X8432544Y12888024D01*
X8432541Y12888024D01*
X8432541Y12888023D01*
X8242364Y12814349D01*
X8242357Y12814345D01*
X8068960Y12706983D01*
X8068958Y12706981D01*
X7918237Y12569582D01*
X7795327Y12406822D01*
X7704422Y12224261D01*
X7704417Y12224248D01*
X7648602Y12028083D01*
X7629785Y11825001D01*
X7629785Y11825000D01*
X7648602Y11621918D01*
X7704417Y11425753D01*
X7704422Y11425740D01*
X7777355Y11279272D01*
X7789616Y11210486D01*
X7762743Y11145991D01*
X7740878Y11130879D01*
X7710000Y11100000D01*
X7710000Y9275000D01*
X8460000Y9275000D01*
X8460000Y10607517D01*
X8479685Y10674556D01*
X8532489Y10720311D01*
X8601647Y10730255D01*
X8606757Y10729411D01*
X8633024Y10724500D01*
X8633025Y10724500D01*
X8836974Y10724500D01*
X8836976Y10724500D01*
X9037456Y10761976D01*
X9227637Y10835652D01*
X9401041Y10943019D01*
X9551764Y11080421D01*
X9674673Y11243179D01*
X9765582Y11425750D01*
X9816878Y11606038D01*
X9854157Y11665130D01*
X9917467Y11694687D01*
X9986706Y11685325D01*
X10023825Y11659783D01*
X10138181Y11545427D01*
X10171666Y11484104D01*
X10174500Y11457746D01*
X10174500Y10950322D01*
X10189032Y10877265D01*
X10189033Y10877261D01*
X10189034Y10877260D01*
X10244399Y10794399D01*
X10327260Y10739034D01*
X10327264Y10739033D01*
X10400321Y10724501D01*
X10400324Y10724500D01*
X10400326Y10724500D01*
X11665500Y10724500D01*
X11732539Y10704815D01*
X11778294Y10652011D01*
X11789500Y10600500D01*
X11789500Y7450322D01*
X11804032Y7377265D01*
X11804033Y7377261D01*
X11820738Y7352260D01*
X11859399Y7294399D01*
X11942260Y7239034D01*
X11942264Y7239033D01*
X12015321Y7224501D01*
X12015324Y7224500D01*
X12015326Y7224500D01*
X12040500Y7224500D01*
X12107539Y7204815D01*
X12153294Y7152011D01*
X12164500Y7100500D01*
X12164500Y5949500D01*
X12144815Y5882461D01*
X12092011Y5836706D01*
X12040500Y5825500D01*
X12015323Y5825500D01*
X11942264Y5810968D01*
X11942260Y5810967D01*
X11859399Y5755601D01*
X11804033Y5672740D01*
X11804032Y5672736D01*
X11789500Y5599679D01*
X11789500Y2400322D01*
X11804032Y2327265D01*
X11804033Y2327261D01*
X11820738Y2302260D01*
X11859399Y2244399D01*
X11942260Y2189034D01*
X11942264Y2189033D01*
X12015321Y2174501D01*
X12015324Y2174500D01*
X12015326Y2174500D01*
X13064676Y2174500D01*
X13064677Y2174501D01*
X13137740Y2189034D01*
X13220601Y2244399D01*
X13275966Y2327260D01*
X13290500Y2400326D01*
X13290500Y5599674D01*
X13290500Y5599677D01*
X13290499Y5599679D01*
X13275967Y5672736D01*
X13275966Y5672740D01*
X13220601Y5755601D01*
X13137740Y5810966D01*
X13137739Y5810967D01*
X13137735Y5810968D01*
X13064677Y5825500D01*
X13064674Y5825500D01*
X13039500Y5825500D01*
X12972461Y5845185D01*
X12926706Y5897989D01*
X12915500Y5949500D01*
X12915500Y7100500D01*
X12935185Y7167539D01*
X12987989Y7213294D01*
X13039500Y7224500D01*
X13064676Y7224500D01*
X13064677Y7224501D01*
X13137740Y7239034D01*
X13220601Y7294399D01*
X13275966Y7377260D01*
X13290500Y7450326D01*
X13290500Y10649674D01*
X13290500Y10649677D01*
X13290499Y10649679D01*
X13275967Y10722736D01*
X13275966Y10722740D01*
X13270945Y10730255D01*
X13220601Y10805601D01*
X13137740Y10860966D01*
X13137739Y10860967D01*
X13137735Y10860968D01*
X13064677Y10875500D01*
X13064674Y10875500D01*
X13039500Y10875500D01*
X12972461Y10895185D01*
X12926706Y10947989D01*
X12915500Y10999500D01*
X12915500Y14298556D01*
X12935185Y14365595D01*
X12987989Y14411350D01*
X13057147Y14421294D01*
X13120703Y14392269D01*
X13127181Y14386237D01*
X14668181Y12845237D01*
X14701666Y12783914D01*
X14704500Y12757556D01*
X14704500Y10999500D01*
X14684815Y10932461D01*
X14632011Y10886706D01*
X14580500Y10875500D01*
X14555323Y10875500D01*
X14482264Y10860968D01*
X14482260Y10860967D01*
X14399399Y10805601D01*
X14344033Y10722740D01*
X14344032Y10722736D01*
X14329500Y10649679D01*
X14329500Y7450322D01*
X14344032Y7377265D01*
X14344033Y7377261D01*
X14360738Y7352260D01*
X14399399Y7294399D01*
X14482260Y7239034D01*
X14482264Y7239033D01*
X14555321Y7224501D01*
X14555324Y7224500D01*
X14555326Y7224500D01*
X14580500Y7224500D01*
X14647539Y7204815D01*
X14693294Y7152011D01*
X14704500Y7100500D01*
X14704500Y5949500D01*
X14684815Y5882461D01*
X14632011Y5836706D01*
X14580500Y5825500D01*
X14555323Y5825500D01*
X14482264Y5810968D01*
X14482260Y5810967D01*
X14399399Y5755601D01*
X14344033Y5672740D01*
X14344032Y5672736D01*
X14329500Y5599679D01*
X14329500Y2400322D01*
X14344032Y2327265D01*
X14344033Y2327261D01*
X14360738Y2302260D01*
X14399399Y2244399D01*
X14482260Y2189034D01*
X14482264Y2189033D01*
X14555321Y2174501D01*
X14555324Y2174500D01*
X14555326Y2174500D01*
X15604676Y2174500D01*
X15604677Y2174501D01*
X15677740Y2189034D01*
X15760601Y2244399D01*
X15815966Y2327260D01*
X15830500Y2400326D01*
X15830500Y5599674D01*
X15830500Y5599677D01*
X15830499Y5599679D01*
X15815967Y5672736D01*
X15815966Y5672740D01*
X15760601Y5755601D01*
X15677740Y5810966D01*
X15677739Y5810967D01*
X15677735Y5810968D01*
X15604677Y5825500D01*
X15604674Y5825500D01*
X15579500Y5825500D01*
X15512461Y5845185D01*
X15466706Y5897989D01*
X15455500Y5949500D01*
X15455500Y7100500D01*
X15475185Y7167539D01*
X15527989Y7213294D01*
X15579500Y7224500D01*
X15604676Y7224500D01*
X15604677Y7224501D01*
X15677740Y7239034D01*
X15760601Y7294399D01*
X15815966Y7377260D01*
X15830500Y7450326D01*
X15830500Y10649674D01*
X15830500Y10649677D01*
X15830499Y10649679D01*
X15815967Y10722736D01*
X15815966Y10722740D01*
X15810945Y10730255D01*
X15760601Y10805601D01*
X15677740Y10860966D01*
X15677739Y10860967D01*
X15677735Y10860968D01*
X15604677Y10875500D01*
X15604674Y10875500D01*
X15579500Y10875500D01*
X15512461Y10895185D01*
X15466706Y10947989D01*
X15455500Y10999500D01*
X15455500Y12912652D01*
X15458139Y12938097D01*
X15459625Y12945185D01*
X15460367Y12948723D01*
X15456452Y12980132D01*
X15455500Y12995470D01*
X15455500Y12995566D01*
X15455500Y12995569D01*
X15452075Y13016086D01*
X15451341Y13021130D01*
X15447461Y13052260D01*
X15444866Y13073081D01*
X15444864Y13073085D01*
X15442622Y13080615D01*
X15440065Y13088062D01*
X15440065Y13088065D01*
X15440063Y13088068D01*
X15436729Y13097781D01*
X15438384Y13098350D01*
X15438310Y13098584D01*
X15438285Y13098738D01*
X15439596Y13098951D01*
X15428536Y13150719D01*
X15453195Y13216092D01*
X15509283Y13257756D01*
X15578992Y13262483D01*
X15639867Y13229096D01*
X17208181Y11660782D01*
X17241666Y11599459D01*
X17244500Y11573101D01*
X17244500Y10999500D01*
X17224815Y10932461D01*
X17172011Y10886706D01*
X17120500Y10875500D01*
X17095323Y10875500D01*
X17022264Y10860968D01*
X17022260Y10860967D01*
X16939399Y10805601D01*
X16884033Y10722740D01*
X16884032Y10722736D01*
X16869500Y10649679D01*
X16869500Y7450322D01*
X16884032Y7377265D01*
X16884033Y7377261D01*
X16900738Y7352260D01*
X16939399Y7294399D01*
X17022260Y7239034D01*
X17022264Y7239033D01*
X17095321Y7224501D01*
X17095324Y7224500D01*
X17095326Y7224500D01*
X17120500Y7224500D01*
X17187539Y7204815D01*
X17233294Y7152011D01*
X17244500Y7100500D01*
X17244500Y5949500D01*
X17224815Y5882461D01*
X17172011Y5836706D01*
X17120500Y5825500D01*
X17095323Y5825500D01*
X17022264Y5810968D01*
X17022260Y5810967D01*
X16939399Y5755601D01*
X16884033Y5672740D01*
X16884032Y5672736D01*
X16869500Y5599679D01*
X16869500Y2400322D01*
X16884032Y2327265D01*
X16884033Y2327261D01*
X16900738Y2302260D01*
X16939399Y2244399D01*
X17022260Y2189034D01*
X17022264Y2189033D01*
X17095321Y2174501D01*
X17095324Y2174500D01*
X17095326Y2174500D01*
X18144676Y2174500D01*
X18144677Y2174501D01*
X18217740Y2189034D01*
X18300601Y2244399D01*
X18355966Y2327260D01*
X18370500Y2400326D01*
X18370500Y5599674D01*
X18370500Y5599677D01*
X18370499Y5599679D01*
X18355967Y5672736D01*
X18355966Y5672740D01*
X18300601Y5755601D01*
X18217740Y5810966D01*
X18217739Y5810967D01*
X18217735Y5810968D01*
X18144677Y5825500D01*
X18144674Y5825500D01*
X18119500Y5825500D01*
X18052461Y5845185D01*
X18006706Y5897989D01*
X17995500Y5949500D01*
X17995500Y7100500D01*
X18015185Y7167539D01*
X18067989Y7213294D01*
X18119500Y7224500D01*
X18144676Y7224500D01*
X18144677Y7224501D01*
X18217740Y7239034D01*
X18300601Y7294399D01*
X18355966Y7377260D01*
X18370500Y7450326D01*
X18370500Y10649674D01*
X18370500Y10649677D01*
X18370499Y10649679D01*
X18355967Y10722736D01*
X18355966Y10722740D01*
X18350945Y10730255D01*
X18300601Y10805601D01*
X18217740Y10860966D01*
X18217739Y10860967D01*
X18217735Y10860968D01*
X18144677Y10875500D01*
X18144674Y10875500D01*
X18119500Y10875500D01*
X18052461Y10895185D01*
X18006706Y10947989D01*
X17995500Y10999500D01*
X17995500Y11728197D01*
X17998139Y11753642D01*
X17998177Y11753825D01*
X18000367Y11764268D01*
X17996452Y11795677D01*
X17995500Y11811015D01*
X17995500Y11811111D01*
X17995500Y11811114D01*
X17992075Y11831631D01*
X17991341Y11836675D01*
X17984866Y11888624D01*
X17984866Y11888626D01*
X17984864Y11888630D01*
X17982622Y11896160D01*
X17980065Y11903605D01*
X17980065Y11903610D01*
X17955148Y11949652D01*
X17952828Y11954160D01*
X17929826Y12001211D01*
X17929825Y12001212D01*
X17929825Y12001213D01*
X17925267Y12007596D01*
X17920418Y12013827D01*
X17904932Y12028083D01*
X17881891Y12049294D01*
X17878217Y12052820D01*
X13227149Y16703889D01*
X13211022Y16723748D01*
X13205086Y16732833D01*
X13205085Y16732834D01*
X13205084Y16732836D01*
X13180109Y16752275D01*
X13168591Y16762447D01*
X13168515Y16762523D01*
X13151595Y16774602D01*
X13147479Y16777671D01*
X13147444Y16777698D01*
X13142156Y16781815D01*
X13106189Y16809810D01*
X13099274Y16813552D01*
X13092197Y16817012D01*
X13042043Y16831944D01*
X13037167Y16833506D01*
X12987662Y16850500D01*
X12979923Y16851792D01*
X12972085Y16852769D01*
X12921201Y16850664D01*
X12919806Y16850606D01*
X12914684Y16850500D01*
X11267019Y16850500D01*
X11199980Y16870185D01*
X11154225Y16922989D01*
X11145402Y16950308D01*
X11135967Y16997737D01*
X11135966Y16997740D01*
X11134266Y17000284D01*
X11080601Y17080601D01*
X11018488Y17122103D01*
X10997739Y17135967D01*
X10997735Y17135968D01*
X10924677Y17150500D01*
X10924674Y17150500D01*
X10899126Y17150500D01*
X10832087Y17170185D01*
X10799859Y17200189D01*
X10757190Y17257187D01*
X10757185Y17257192D01*
X10642093Y17343351D01*
X10642086Y17343355D01*
X10507379Y17393597D01*
X10507372Y17393599D01*
X10447844Y17400000D01*
X10400000Y17400000D01*
X10400000Y17089183D01*
X10380315Y17022144D01*
X10379103Y17020294D01*
X10364033Y16997741D01*
X10349500Y16924677D01*
X10349500Y16449000D01*
X10329815Y16381961D01*
X10277011Y16336206D01*
X10225500Y16325000D01*
X10224000Y16325000D01*
X10156961Y16344685D01*
X10111206Y16397489D01*
X10100000Y16449000D01*
X10100000Y17400000D01*
X10052164Y17400000D01*
X10013252Y17395817D01*
X9986748Y17395817D01*
X9947835Y17400000D01*
X9900000Y17400000D01*
X9900000Y16449000D01*
X9880315Y16381961D01*
X9827511Y16336206D01*
X9776000Y16325000D01*
X9774500Y16325000D01*
X9707461Y16344685D01*
X9661706Y16397489D01*
X9650500Y16449000D01*
X9650500Y16924677D01*
X9635966Y16997741D01*
X9620897Y17020294D01*
X9600020Y17086972D01*
X9600000Y17089183D01*
X9600000Y17400000D01*
X9552155Y17400000D01*
X9492627Y17393599D01*
X9492620Y17393597D01*
X9357913Y17343355D01*
X9357906Y17343351D01*
X9242814Y17257192D01*
X9242809Y17257187D01*
X9200141Y17200189D01*
X9144207Y17158318D01*
X9100874Y17150500D01*
X9075323Y17150500D01*
X9002264Y17135968D01*
X9002260Y17135967D01*
X8919399Y17080601D01*
X8864033Y16997740D01*
X8864032Y16997737D01*
X8854598Y16950308D01*
X8822212Y16888397D01*
X8761496Y16853823D01*
X8732981Y16850500D01*
X8531900Y16850500D01*
X8464861Y16870185D01*
X8444219Y16886819D01*
X8342147Y16988891D01*
X8326022Y17008747D01*
X8320084Y17017836D01*
X8295109Y17037275D01*
X8283591Y17047447D01*
X8283515Y17047523D01*
X8266595Y17059602D01*
X8262479Y17062671D01*
X8221189Y17094810D01*
X8214274Y17098552D01*
X8207197Y17102012D01*
X8157043Y17116944D01*
X8152167Y17118506D01*
X8102662Y17135500D01*
X8094923Y17136792D01*
X8087085Y17137769D01*
X8036201Y17135664D01*
X8034806Y17135606D01*
X8029684Y17135500D01*
X7341040Y17135500D01*
X7274001Y17155185D01*
X7253358Y17171820D01*
X7212102Y17213077D01*
X7212099Y17213079D01*
X7096521Y17269581D01*
X7096519Y17269582D01*
X7096518Y17269582D01*
X7021582Y17280500D01*
X6578418Y17280500D01*
X6503482Y17269582D01*
X6503480Y17269582D01*
X6503478Y17269581D01*
X6387900Y17213079D01*
X6387897Y17213077D01*
X6296923Y17122103D01*
X6296923Y17122102D01*
X6286380Y17100536D01*
X6239252Y17048954D01*
X6171718Y17031040D01*
X6105219Y17052481D01*
X6069442Y17089898D01*
X6067315Y17093346D01*
X5943345Y17217316D01*
X5794124Y17309357D01*
X5794119Y17309359D01*
X5627697Y17364506D01*
X5627690Y17364507D01*
X5524986Y17375000D01*
X5250000Y17375000D01*
X5250000Y16249000D01*
X5230315Y16181961D01*
X5177511Y16136206D01*
X5126000Y16125000D01*
X3775001Y16125000D01*
X3775001Y16075014D01*
X3785494Y15972303D01*
X3796694Y15938504D01*
X3799096Y15868676D01*
X3763364Y15808634D01*
X3700844Y15777441D01*
X3678988Y15775500D01*
X3651803Y15775500D01*
X3626358Y15778139D01*
X3625539Y15778311D01*
X3615732Y15780367D01*
X3615731Y15780367D01*
X3584323Y15776452D01*
X3568985Y15775500D01*
X3568885Y15775500D01*
X3548381Y15772080D01*
X3543321Y15771343D01*
X3491382Y15764868D01*
X3483842Y15762623D01*
X3476393Y15760066D01*
X3476390Y15760065D01*
X3476386Y15760064D01*
X3476383Y15760062D01*
X3430367Y15735160D01*
X3425812Y15732815D01*
X3378791Y15709828D01*
X3372381Y15705252D01*
X3366174Y15700421D01*
X3330718Y15661906D01*
X3327172Y15658211D01*
X2151108Y14482148D01*
X2131254Y14466024D01*
X2122165Y14460086D01*
X2122164Y14460085D01*
X2102720Y14435104D01*
X2092574Y14423612D01*
X2092483Y14423521D01*
X2092474Y14423511D01*
X2080402Y14406603D01*
X2077341Y14402497D01*
X2045192Y14361192D01*
X2041447Y14354271D01*
X2037988Y14347196D01*
X2023057Y14297045D01*
X2021495Y14292169D01*
X2004500Y14242662D01*
X2003206Y14234908D01*
X2002231Y14227089D01*
X2004394Y14174809D01*
X2004500Y14169684D01*
X2004500Y10974500D01*
X1984815Y10907461D01*
X1932011Y10861706D01*
X1880500Y10850500D01*
X1855323Y10850500D01*
X1782264Y10835968D01*
X1782260Y10835967D01*
X1699399Y10780601D01*
X1644033Y10697740D01*
X1644032Y10697736D01*
X1629500Y10624679D01*
X1629500Y7425322D01*
X1644032Y7352265D01*
X1644033Y7352261D01*
X1644034Y7352260D01*
X1699399Y7269399D01*
X1782260Y7214034D01*
X1782264Y7214033D01*
X1855321Y7199501D01*
X1855324Y7199500D01*
X1855326Y7199500D01*
X1880500Y7199500D01*
X1947539Y7179815D01*
X1993294Y7127011D01*
X2004500Y7075500D01*
X2004500Y5924500D01*
X1984815Y5857461D01*
X1932011Y5811706D01*
X1880500Y5800500D01*
X1855323Y5800500D01*
X1782264Y5785968D01*
X1782260Y5785967D01*
X1699399Y5730601D01*
X1644033Y5647740D01*
X1644032Y5647736D01*
X1629500Y5574679D01*
X1629500Y2375322D01*
X500Y2375322D01*
X500Y16625000D01*
X3775000Y16625000D01*
X4750000Y16625000D01*
X4750000Y17375000D01*
X4475029Y17375000D01*
X4475012Y17374999D01*
X4372302Y17364506D01*
X4205880Y17309359D01*
X4205875Y17309357D01*
X4056654Y17217316D01*
X3932684Y17093346D01*
X3840643Y16944125D01*
X3840641Y16944120D01*
X3785494Y16777698D01*
X3785493Y16777691D01*
X3775000Y16674987D01*
X3775000Y16625000D01*
X500Y16625000D01*
X500Y16948431D01*
X20185Y17015470D01*
X36819Y17036112D01*
X963888Y17963181D01*
X1025211Y17996666D01*
X1051569Y17999500D01*
X18948430Y17999500D01*
X19015469Y17979815D01*
G37*
G04 #@! TD.AperFunction*
M02*
