G04 #@! TF.GenerationSoftware,KiCad,Pcbnew,7.0.4*
G04 #@! TF.CreationDate,2023-08-12T22:14:49+02:00*
G04 #@! TF.ProjectId,NB3_mouth,4e42335f-6d6f-4757-9468-2e6b69636164,0.0.1*
G04 #@! TF.SameCoordinates,PX868b5c0PY6ee3738*
G04 #@! TF.FileFunction,Copper,L2,Bot*
G04 #@! TF.FilePolarity,Positive*
%FSLAX46Y46*%
G04 Gerber Fmt 4.6, Leading zero omitted, Abs format (unit mm)*
G04 Created by KiCad (PCBNEW 7.0.4) date 2023-08-12 22:14:49*
%MOMM*%
%LPD*%
G01*
G04 APERTURE LIST*
G04 #@! TA.AperFunction,SMDPad,CuDef*
%ADD10R,1.000000X3.500000*%
G04 #@! TD*
G04 #@! TA.AperFunction,SMDPad,CuDef*
%ADD11R,1.500000X3.400000*%
G04 #@! TD*
G04 #@! TA.AperFunction,ViaPad*
%ADD12C,0.800000*%
G04 #@! TD*
G04 #@! TA.AperFunction,Conductor*
%ADD13C,0.250000*%
G04 #@! TD*
G04 #@! TA.AperFunction,Conductor*
%ADD14C,0.500000*%
G04 #@! TD*
G04 #@! TA.AperFunction,Conductor*
%ADD15C,0.200000*%
G04 #@! TD*
G04 APERTURE END LIST*
D10*
X9000000Y10000000D03*
X11000000Y10000000D03*
D11*
X6650000Y15550000D03*
X13350000Y15550000D03*
D12*
X2000000Y1500000D03*
X7250000Y12025000D03*
X10000000Y4500000D03*
X16000000Y1500000D03*
X8300000Y17275000D03*
X10000000Y6500000D03*
X18000000Y1500000D03*
X4000000Y1500000D03*
X10000000Y14975000D03*
X13400000Y13175000D03*
X2400000Y13175000D03*
X15100000Y12175000D03*
X12600000Y12175000D03*
X9200000Y12375000D03*
X11000000Y12375000D03*
D13*
X13400000Y13175000D02*
X2400000Y13175000D01*
X12600000Y12175000D02*
X15100000Y12175000D01*
D14*
X9200000Y12375000D02*
X9200000Y10200000D01*
D15*
X9200000Y10200000D02*
X9000000Y10000000D01*
D14*
X11000000Y12375000D02*
X11000000Y10000000D01*
G04 #@! TA.AperFunction,Conductor*
G36*
X19015677Y17855315D02*
G01*
X19036319Y17838681D01*
X19863682Y17011318D01*
X19897166Y16949997D01*
X19900000Y16923639D01*
X19900000Y1126362D01*
X19880315Y1059323D01*
X19863681Y1038681D01*
X18936319Y111319D01*
X18874996Y77834D01*
X18848638Y75000D01*
X1151362Y75000D01*
X1084323Y94685D01*
X1063681Y111319D01*
X136319Y1038681D01*
X102834Y1100004D01*
X100000Y1126362D01*
X100000Y13175000D01*
X1744722Y13175000D01*
X1763762Y13018182D01*
X1819780Y12870477D01*
X1909517Y12740470D01*
X2027760Y12635717D01*
X2027762Y12635716D01*
X2167634Y12562304D01*
X2321014Y12524500D01*
X2321015Y12524500D01*
X2478985Y12524500D01*
X2632365Y12562304D01*
X2702231Y12598973D01*
X2772240Y12635717D01*
X2890483Y12740470D01*
X2894257Y12745939D01*
X2948537Y12789929D01*
X2996308Y12799500D01*
X8485636Y12799500D01*
X8552675Y12779815D01*
X8598430Y12727011D01*
X8608374Y12657853D01*
X8601578Y12631529D01*
X8563763Y12531819D01*
X8544722Y12375001D01*
X8544722Y12375000D01*
X8563762Y12218184D01*
X8582708Y12168227D01*
X8588074Y12098563D01*
X8554926Y12037058D01*
X8493787Y12003237D01*
X8478919Y12000854D01*
X8475320Y12000500D01*
X8402264Y11985968D01*
X8402260Y11985967D01*
X8319399Y11930601D01*
X8264033Y11847740D01*
X8264032Y11847736D01*
X8249500Y11774679D01*
X8249500Y8225322D01*
X8264032Y8152265D01*
X8264033Y8152261D01*
X8264034Y8152260D01*
X8319399Y8069399D01*
X8402259Y8014034D01*
X8402260Y8014034D01*
X8402264Y8014033D01*
X8475321Y7999501D01*
X8475324Y7999500D01*
X8475326Y7999500D01*
X9524676Y7999500D01*
X9524677Y7999501D01*
X9597740Y8014034D01*
X9680601Y8069399D01*
X9735966Y8152260D01*
X9750500Y8225326D01*
X9750500Y11774674D01*
X9750500Y11774677D01*
X9735966Y11847740D01*
X9728898Y11858318D01*
X9708020Y11924996D01*
X9726505Y11992376D01*
X9729932Y11997624D01*
X9780220Y12070477D01*
X9836237Y12218182D01*
X9855278Y12375000D01*
X9836237Y12531818D01*
X9806765Y12609530D01*
X9798422Y12631529D01*
X9793055Y12701192D01*
X9826203Y12762698D01*
X9887341Y12796520D01*
X9914364Y12799500D01*
X10285636Y12799500D01*
X10352675Y12779815D01*
X10398430Y12727011D01*
X10408374Y12657853D01*
X10401578Y12631529D01*
X10363763Y12531819D01*
X10344722Y12375001D01*
X10344722Y12375000D01*
X10363763Y12218182D01*
X10406820Y12104649D01*
X10412187Y12034986D01*
X10379039Y11973480D01*
X10359770Y11957577D01*
X10319400Y11930603D01*
X10264033Y11847740D01*
X10264032Y11847736D01*
X10249500Y11774679D01*
X10249500Y8225322D01*
X10264032Y8152265D01*
X10264033Y8152261D01*
X10264034Y8152260D01*
X10319399Y8069399D01*
X10402259Y8014035D01*
X10402260Y8014034D01*
X10402264Y8014033D01*
X10475321Y7999501D01*
X10475324Y7999500D01*
X10475326Y7999500D01*
X11524676Y7999500D01*
X11524677Y7999501D01*
X11597740Y8014034D01*
X11680601Y8069399D01*
X11735966Y8152260D01*
X11750500Y8225326D01*
X11750500Y11774674D01*
X11750500Y11774677D01*
X11750499Y11774679D01*
X11735967Y11847736D01*
X11735966Y11847740D01*
X11728898Y11858318D01*
X11680601Y11930601D01*
X11680600Y11930602D01*
X11640230Y11957576D01*
X11595425Y12011188D01*
X11586718Y12080513D01*
X11593176Y12104641D01*
X11636237Y12218182D01*
X11655278Y12375000D01*
X11636237Y12531818D01*
X11606765Y12609530D01*
X11598422Y12631529D01*
X11593055Y12701192D01*
X11626203Y12762698D01*
X11687341Y12796520D01*
X11714364Y12799500D01*
X12004382Y12799500D01*
X12071421Y12779815D01*
X12117176Y12727011D01*
X12127120Y12657853D01*
X12106432Y12605062D01*
X12075378Y12560071D01*
X12019781Y12479525D01*
X12019780Y12479524D01*
X11963762Y12331819D01*
X11944722Y12175001D01*
X11944722Y12175000D01*
X11963762Y12018182D01*
X12008272Y11900820D01*
X12019780Y11870477D01*
X12109517Y11740470D01*
X12227760Y11635717D01*
X12227762Y11635716D01*
X12367634Y11562304D01*
X12521014Y11524500D01*
X12521015Y11524500D01*
X12678985Y11524500D01*
X12832365Y11562304D01*
X12832364Y11562304D01*
X12972240Y11635717D01*
X13090483Y11740470D01*
X13094257Y11745939D01*
X13148537Y11789929D01*
X13196308Y11799500D01*
X14503692Y11799500D01*
X14570731Y11779815D01*
X14605742Y11745939D01*
X14608163Y11742431D01*
X14609515Y11740472D01*
X14609517Y11740470D01*
X14727760Y11635717D01*
X14727762Y11635716D01*
X14867634Y11562304D01*
X15021014Y11524500D01*
X15021015Y11524500D01*
X15178985Y11524500D01*
X15332365Y11562304D01*
X15332365Y11562305D01*
X15472240Y11635717D01*
X15590483Y11740470D01*
X15680220Y11870477D01*
X15736237Y12018182D01*
X15755278Y12175000D01*
X15736237Y12331818D01*
X15680220Y12479523D01*
X15590483Y12609530D01*
X15472240Y12714283D01*
X15472238Y12714284D01*
X15472237Y12714285D01*
X15332365Y12787697D01*
X15178986Y12825500D01*
X15178985Y12825500D01*
X15021015Y12825500D01*
X15021014Y12825500D01*
X14867634Y12787697D01*
X14727762Y12714285D01*
X14609516Y12609530D01*
X14607089Y12606013D01*
X14605742Y12604062D01*
X14551463Y12560071D01*
X14503692Y12550500D01*
X13995618Y12550500D01*
X13928579Y12570185D01*
X13882824Y12622989D01*
X13872880Y12692147D01*
X13893568Y12744940D01*
X13980220Y12870477D01*
X14036237Y13018182D01*
X14055278Y13175000D01*
X14036237Y13331818D01*
X13998422Y13431529D01*
X13993055Y13501192D01*
X14026203Y13562698D01*
X14087341Y13596520D01*
X14114364Y13599500D01*
X14124676Y13599500D01*
X14124677Y13599501D01*
X14197740Y13614034D01*
X14280601Y13669399D01*
X14335966Y13752260D01*
X14350500Y13825326D01*
X14350500Y17274674D01*
X14350500Y17274675D01*
X14350500Y17274677D01*
X14350499Y17274679D01*
X14335967Y17347736D01*
X14335966Y17347740D01*
X14335965Y17347741D01*
X14280601Y17430601D01*
X14197740Y17485966D01*
X14197739Y17485967D01*
X14197735Y17485968D01*
X14124677Y17500500D01*
X14124674Y17500500D01*
X12575326Y17500500D01*
X12575323Y17500500D01*
X12502264Y17485968D01*
X12502260Y17485967D01*
X12419399Y17430601D01*
X12364033Y17347740D01*
X12364032Y17347736D01*
X12349500Y17274679D01*
X12349500Y13825322D01*
X12364032Y13752265D01*
X12364035Y13752257D01*
X12369960Y13743390D01*
X12390838Y13676713D01*
X12372353Y13609333D01*
X12320374Y13562643D01*
X12266858Y13550500D01*
X7733142Y13550500D01*
X7666103Y13570185D01*
X7620348Y13622989D01*
X7610404Y13692147D01*
X7630040Y13743390D01*
X7635964Y13752257D01*
X7635964Y13752258D01*
X7635966Y13752260D01*
X7650500Y13825326D01*
X7650500Y17274674D01*
X7650500Y17274675D01*
X7650500Y17274677D01*
X7650499Y17274679D01*
X7635967Y17347736D01*
X7635966Y17347740D01*
X7635965Y17347741D01*
X7580601Y17430601D01*
X7497740Y17485966D01*
X7497739Y17485967D01*
X7497735Y17485968D01*
X7424677Y17500500D01*
X7424674Y17500500D01*
X5875326Y17500500D01*
X5875323Y17500500D01*
X5802264Y17485968D01*
X5802260Y17485967D01*
X5719399Y17430601D01*
X5664033Y17347740D01*
X5664032Y17347736D01*
X5649500Y17274679D01*
X5649500Y13825322D01*
X5664032Y13752265D01*
X5664035Y13752257D01*
X5669960Y13743390D01*
X5690838Y13676713D01*
X5672353Y13609333D01*
X5620374Y13562643D01*
X5566858Y13550500D01*
X2996308Y13550500D01*
X2929269Y13570185D01*
X2894257Y13604062D01*
X2890483Y13609530D01*
X2772240Y13714283D01*
X2772238Y13714284D01*
X2772237Y13714285D01*
X2632365Y13787697D01*
X2478986Y13825500D01*
X2478985Y13825500D01*
X2321015Y13825500D01*
X2321014Y13825500D01*
X2167634Y13787697D01*
X2027762Y13714285D01*
X1909516Y13609529D01*
X1819781Y13479525D01*
X1819780Y13479524D01*
X1763762Y13331819D01*
X1744722Y13175001D01*
X1744722Y13175000D01*
X100000Y13175000D01*
X100000Y16923638D01*
X119685Y16990677D01*
X136319Y17011319D01*
X963681Y17838681D01*
X1025004Y17872166D01*
X1051362Y17875000D01*
X18948638Y17875000D01*
X19015677Y17855315D01*
G37*
G04 #@! TD.AperFunction*
M02*
