G04 #@! TF.GenerationSoftware,KiCad,Pcbnew,7.0.4*
G04 #@! TF.CreationDate,2023-08-12T22:14:49+02:00*
G04 #@! TF.ProjectId,NB3_mouth,4e42335f-6d6f-4757-9468-2e6b69636164,0.0.1*
G04 #@! TF.SameCoordinates,PX868b5c0PY6ee3738*
G04 #@! TF.FileFunction,Legend,Bot*
G04 #@! TF.FilePolarity,Positive*
%FSLAX46Y46*%
G04 Gerber Fmt 4.6, Leading zero omitted, Abs format (unit mm)*
G04 Created by KiCad (PCBNEW 7.0.4) date 2023-08-12 22:14:49*
%MOMM*%
%LPD*%
G01*
G04 APERTURE LIST*
%ADD10C,0.150000*%
%ADD11C,0.200000*%
G04 APERTURE END LIST*
D10*
X6190000Y5255000D02*
X6190000Y2715000D01*
X2250000Y15775000D02*
X2250000Y14275000D01*
X1110000Y5255000D02*
X18890000Y5255000D01*
X18890000Y2715000D01*
X1110000Y2715000D01*
X1110000Y5255000D01*
X13810000Y5255000D02*
X13810000Y2715000D01*
X3750000Y15775000D02*
X3750000Y14275000D01*
X3750000Y14775000D02*
X4750000Y14775000D01*
X8730000Y5255000D02*
X8730000Y2715000D01*
X3750000Y15275000D02*
X4750000Y15275000D01*
X16350000Y5255000D02*
X16350000Y2715000D01*
X1250000Y13775000D02*
X1250000Y16275000D01*
X11270000Y5255000D02*
X11270000Y2715000D01*
X2250000Y15775000D02*
X3750000Y15775000D01*
X1250000Y16275000D02*
X2250000Y15775000D01*
X2250000Y14275000D02*
X1250000Y13775000D01*
X3650000Y5255000D02*
X3650000Y2715000D01*
X3750000Y14275000D02*
X2250000Y14275000D01*
X3279999Y3485800D02*
X3179999Y3447705D01*
X3179999Y3447705D02*
X3013333Y3447705D01*
X3013333Y3447705D02*
X2946666Y3485800D01*
X2946666Y3485800D02*
X2913333Y3523896D01*
X2913333Y3523896D02*
X2879999Y3600086D01*
X2879999Y3600086D02*
X2879999Y3676277D01*
X2879999Y3676277D02*
X2913333Y3752467D01*
X2913333Y3752467D02*
X2946666Y3790562D01*
X2946666Y3790562D02*
X3013333Y3828658D01*
X3013333Y3828658D02*
X3146666Y3866753D01*
X3146666Y3866753D02*
X3213333Y3904848D01*
X3213333Y3904848D02*
X3246666Y3942943D01*
X3246666Y3942943D02*
X3279999Y4019134D01*
X3279999Y4019134D02*
X3279999Y4095324D01*
X3279999Y4095324D02*
X3246666Y4171515D01*
X3246666Y4171515D02*
X3213333Y4209610D01*
X3213333Y4209610D02*
X3146666Y4247705D01*
X3146666Y4247705D02*
X2979999Y4247705D01*
X2979999Y4247705D02*
X2879999Y4209610D01*
X2179999Y3523896D02*
X2213332Y3485800D01*
X2213332Y3485800D02*
X2313332Y3447705D01*
X2313332Y3447705D02*
X2379999Y3447705D01*
X2379999Y3447705D02*
X2479999Y3485800D01*
X2479999Y3485800D02*
X2546666Y3561991D01*
X2546666Y3561991D02*
X2579999Y3638181D01*
X2579999Y3638181D02*
X2613332Y3790562D01*
X2613332Y3790562D02*
X2613332Y3904848D01*
X2613332Y3904848D02*
X2579999Y4057229D01*
X2579999Y4057229D02*
X2546666Y4133420D01*
X2546666Y4133420D02*
X2479999Y4209610D01*
X2479999Y4209610D02*
X2379999Y4247705D01*
X2379999Y4247705D02*
X2313332Y4247705D01*
X2313332Y4247705D02*
X2213332Y4209610D01*
X2213332Y4209610D02*
X2179999Y4171515D01*
X1879999Y3447705D02*
X1879999Y4247705D01*
X1479999Y3447705D02*
X1779999Y3904848D01*
X1479999Y4247705D02*
X1879999Y3790562D01*
X5033333Y4247705D02*
X5366666Y4247705D01*
X5366666Y4247705D02*
X5399999Y3866753D01*
X5399999Y3866753D02*
X5366666Y3904848D01*
X5366666Y3904848D02*
X5299999Y3942943D01*
X5299999Y3942943D02*
X5133333Y3942943D01*
X5133333Y3942943D02*
X5066666Y3904848D01*
X5066666Y3904848D02*
X5033333Y3866753D01*
X5033333Y3866753D02*
X4999999Y3790562D01*
X4999999Y3790562D02*
X4999999Y3600086D01*
X4999999Y3600086D02*
X5033333Y3523896D01*
X5033333Y3523896D02*
X5066666Y3485800D01*
X5066666Y3485800D02*
X5133333Y3447705D01*
X5133333Y3447705D02*
X5299999Y3447705D01*
X5299999Y3447705D02*
X5366666Y3485800D01*
X5366666Y3485800D02*
X5399999Y3523896D01*
X4799999Y4247705D02*
X4566666Y3447705D01*
X4566666Y3447705D02*
X4333332Y4247705D01*
X17803332Y4209610D02*
X17869999Y4247705D01*
X17869999Y4247705D02*
X17969999Y4247705D01*
X17969999Y4247705D02*
X18069999Y4209610D01*
X18069999Y4209610D02*
X18136666Y4133420D01*
X18136666Y4133420D02*
X18169999Y4057229D01*
X18169999Y4057229D02*
X18203332Y3904848D01*
X18203332Y3904848D02*
X18203332Y3790562D01*
X18203332Y3790562D02*
X18169999Y3638181D01*
X18169999Y3638181D02*
X18136666Y3561991D01*
X18136666Y3561991D02*
X18069999Y3485800D01*
X18069999Y3485800D02*
X17969999Y3447705D01*
X17969999Y3447705D02*
X17903332Y3447705D01*
X17903332Y3447705D02*
X17803332Y3485800D01*
X17803332Y3485800D02*
X17769999Y3523896D01*
X17769999Y3523896D02*
X17769999Y3790562D01*
X17769999Y3790562D02*
X17903332Y3790562D01*
X17469999Y3447705D02*
X17469999Y4247705D01*
X17469999Y4247705D02*
X17069999Y3447705D01*
X17069999Y3447705D02*
X17069999Y4247705D01*
X13089999Y3485800D02*
X12989999Y3447705D01*
X12989999Y3447705D02*
X12823333Y3447705D01*
X12823333Y3447705D02*
X12756666Y3485800D01*
X12756666Y3485800D02*
X12723333Y3523896D01*
X12723333Y3523896D02*
X12689999Y3600086D01*
X12689999Y3600086D02*
X12689999Y3676277D01*
X12689999Y3676277D02*
X12723333Y3752467D01*
X12723333Y3752467D02*
X12756666Y3790562D01*
X12756666Y3790562D02*
X12823333Y3828658D01*
X12823333Y3828658D02*
X12956666Y3866753D01*
X12956666Y3866753D02*
X13023333Y3904848D01*
X13023333Y3904848D02*
X13056666Y3942943D01*
X13056666Y3942943D02*
X13089999Y4019134D01*
X13089999Y4019134D02*
X13089999Y4095324D01*
X13089999Y4095324D02*
X13056666Y4171515D01*
X13056666Y4171515D02*
X13023333Y4209610D01*
X13023333Y4209610D02*
X12956666Y4247705D01*
X12956666Y4247705D02*
X12789999Y4247705D01*
X12789999Y4247705D02*
X12689999Y4209610D01*
X12389999Y3447705D02*
X12389999Y4247705D01*
X12389999Y4247705D02*
X12223332Y4247705D01*
X12223332Y4247705D02*
X12123332Y4209610D01*
X12123332Y4209610D02*
X12056666Y4133420D01*
X12056666Y4133420D02*
X12023332Y4057229D01*
X12023332Y4057229D02*
X11989999Y3904848D01*
X11989999Y3904848D02*
X11989999Y3790562D01*
X11989999Y3790562D02*
X12023332Y3638181D01*
X12023332Y3638181D02*
X12056666Y3561991D01*
X12056666Y3561991D02*
X12123332Y3485800D01*
X12123332Y3485800D02*
X12223332Y3447705D01*
X12223332Y3447705D02*
X12389999Y3447705D01*
X18595238Y6620181D02*
X18595238Y7620181D01*
X18595238Y7620181D02*
X18023810Y6620181D01*
X18023810Y6620181D02*
X18023810Y7620181D01*
X17214286Y7143991D02*
X17071429Y7096372D01*
X17071429Y7096372D02*
X17023810Y7048753D01*
X17023810Y7048753D02*
X16976191Y6953515D01*
X16976191Y6953515D02*
X16976191Y6810658D01*
X16976191Y6810658D02*
X17023810Y6715420D01*
X17023810Y6715420D02*
X17071429Y6667800D01*
X17071429Y6667800D02*
X17166667Y6620181D01*
X17166667Y6620181D02*
X17547619Y6620181D01*
X17547619Y6620181D02*
X17547619Y7620181D01*
X17547619Y7620181D02*
X17214286Y7620181D01*
X17214286Y7620181D02*
X17119048Y7572562D01*
X17119048Y7572562D02*
X17071429Y7524943D01*
X17071429Y7524943D02*
X17023810Y7429705D01*
X17023810Y7429705D02*
X17023810Y7334467D01*
X17023810Y7334467D02*
X17071429Y7239229D01*
X17071429Y7239229D02*
X17119048Y7191610D01*
X17119048Y7191610D02*
X17214286Y7143991D01*
X17214286Y7143991D02*
X17547619Y7143991D01*
X16642857Y7620181D02*
X16023810Y7620181D01*
X16023810Y7620181D02*
X16357143Y7239229D01*
X16357143Y7239229D02*
X16214286Y7239229D01*
X16214286Y7239229D02*
X16119048Y7191610D01*
X16119048Y7191610D02*
X16071429Y7143991D01*
X16071429Y7143991D02*
X16023810Y7048753D01*
X16023810Y7048753D02*
X16023810Y6810658D01*
X16023810Y6810658D02*
X16071429Y6715420D01*
X16071429Y6715420D02*
X16119048Y6667800D01*
X16119048Y6667800D02*
X16214286Y6620181D01*
X16214286Y6620181D02*
X16500000Y6620181D01*
X16500000Y6620181D02*
X16595238Y6667800D01*
X16595238Y6667800D02*
X16642857Y6715420D01*
X14833333Y6620181D02*
X14833333Y7620181D01*
X14833333Y7620181D02*
X14500000Y6905896D01*
X14500000Y6905896D02*
X14166667Y7620181D01*
X14166667Y7620181D02*
X14166667Y6620181D01*
X13547619Y6620181D02*
X13642857Y6667800D01*
X13642857Y6667800D02*
X13690476Y6715420D01*
X13690476Y6715420D02*
X13738095Y6810658D01*
X13738095Y6810658D02*
X13738095Y7096372D01*
X13738095Y7096372D02*
X13690476Y7191610D01*
X13690476Y7191610D02*
X13642857Y7239229D01*
X13642857Y7239229D02*
X13547619Y7286848D01*
X13547619Y7286848D02*
X13404762Y7286848D01*
X13404762Y7286848D02*
X13309524Y7239229D01*
X13309524Y7239229D02*
X13261905Y7191610D01*
X13261905Y7191610D02*
X13214286Y7096372D01*
X13214286Y7096372D02*
X13214286Y6810658D01*
X13214286Y6810658D02*
X13261905Y6715420D01*
X13261905Y6715420D02*
X13309524Y6667800D01*
X13309524Y6667800D02*
X13404762Y6620181D01*
X13404762Y6620181D02*
X13547619Y6620181D01*
X12357143Y7286848D02*
X12357143Y6620181D01*
X12785714Y7286848D02*
X12785714Y6763039D01*
X12785714Y6763039D02*
X12738095Y6667800D01*
X12738095Y6667800D02*
X12642857Y6620181D01*
X12642857Y6620181D02*
X12500000Y6620181D01*
X12500000Y6620181D02*
X12404762Y6667800D01*
X12404762Y6667800D02*
X12357143Y6715420D01*
X12023809Y7286848D02*
X11642857Y7286848D01*
X11880952Y7620181D02*
X11880952Y6763039D01*
X11880952Y6763039D02*
X11833333Y6667800D01*
X11833333Y6667800D02*
X11738095Y6620181D01*
X11738095Y6620181D02*
X11642857Y6620181D01*
X11309523Y6620181D02*
X11309523Y7620181D01*
X10880952Y6620181D02*
X10880952Y7143991D01*
X10880952Y7143991D02*
X10928571Y7239229D01*
X10928571Y7239229D02*
X11023809Y7286848D01*
X11023809Y7286848D02*
X11166666Y7286848D01*
X11166666Y7286848D02*
X11261904Y7239229D01*
X11261904Y7239229D02*
X11309523Y7191610D01*
X7547618Y6620181D02*
X7880951Y7096372D01*
X8119046Y6620181D02*
X8119046Y7620181D01*
X8119046Y7620181D02*
X7738094Y7620181D01*
X7738094Y7620181D02*
X7642856Y7572562D01*
X7642856Y7572562D02*
X7595237Y7524943D01*
X7595237Y7524943D02*
X7547618Y7429705D01*
X7547618Y7429705D02*
X7547618Y7286848D01*
X7547618Y7286848D02*
X7595237Y7191610D01*
X7595237Y7191610D02*
X7642856Y7143991D01*
X7642856Y7143991D02*
X7738094Y7096372D01*
X7738094Y7096372D02*
X8119046Y7096372D01*
X6738094Y6667800D02*
X6833332Y6620181D01*
X6833332Y6620181D02*
X7023808Y6620181D01*
X7023808Y6620181D02*
X7119046Y6667800D01*
X7119046Y6667800D02*
X7166665Y6763039D01*
X7166665Y6763039D02*
X7166665Y7143991D01*
X7166665Y7143991D02*
X7119046Y7239229D01*
X7119046Y7239229D02*
X7023808Y7286848D01*
X7023808Y7286848D02*
X6833332Y7286848D01*
X6833332Y7286848D02*
X6738094Y7239229D01*
X6738094Y7239229D02*
X6690475Y7143991D01*
X6690475Y7143991D02*
X6690475Y7048753D01*
X6690475Y7048753D02*
X7166665Y6953515D01*
X6357141Y7286848D02*
X6119046Y6620181D01*
X6119046Y6620181D02*
X5880951Y7286848D01*
X4547617Y7620181D02*
X4452379Y7620181D01*
X4452379Y7620181D02*
X4357141Y7572562D01*
X4357141Y7572562D02*
X4309522Y7524943D01*
X4309522Y7524943D02*
X4261903Y7429705D01*
X4261903Y7429705D02*
X4214284Y7239229D01*
X4214284Y7239229D02*
X4214284Y7001134D01*
X4214284Y7001134D02*
X4261903Y6810658D01*
X4261903Y6810658D02*
X4309522Y6715420D01*
X4309522Y6715420D02*
X4357141Y6667800D01*
X4357141Y6667800D02*
X4452379Y6620181D01*
X4452379Y6620181D02*
X4547617Y6620181D01*
X4547617Y6620181D02*
X4642855Y6667800D01*
X4642855Y6667800D02*
X4690474Y6715420D01*
X4690474Y6715420D02*
X4738093Y6810658D01*
X4738093Y6810658D02*
X4785712Y7001134D01*
X4785712Y7001134D02*
X4785712Y7239229D01*
X4785712Y7239229D02*
X4738093Y7429705D01*
X4738093Y7429705D02*
X4690474Y7524943D01*
X4690474Y7524943D02*
X4642855Y7572562D01*
X4642855Y7572562D02*
X4547617Y7620181D01*
X3785712Y6715420D02*
X3738093Y6667800D01*
X3738093Y6667800D02*
X3785712Y6620181D01*
X3785712Y6620181D02*
X3833331Y6667800D01*
X3833331Y6667800D02*
X3785712Y6715420D01*
X3785712Y6715420D02*
X3785712Y6620181D01*
X3119046Y7620181D02*
X3023808Y7620181D01*
X3023808Y7620181D02*
X2928570Y7572562D01*
X2928570Y7572562D02*
X2880951Y7524943D01*
X2880951Y7524943D02*
X2833332Y7429705D01*
X2833332Y7429705D02*
X2785713Y7239229D01*
X2785713Y7239229D02*
X2785713Y7001134D01*
X2785713Y7001134D02*
X2833332Y6810658D01*
X2833332Y6810658D02*
X2880951Y6715420D01*
X2880951Y6715420D02*
X2928570Y6667800D01*
X2928570Y6667800D02*
X3023808Y6620181D01*
X3023808Y6620181D02*
X3119046Y6620181D01*
X3119046Y6620181D02*
X3214284Y6667800D01*
X3214284Y6667800D02*
X3261903Y6715420D01*
X3261903Y6715420D02*
X3309522Y6810658D01*
X3309522Y6810658D02*
X3357141Y7001134D01*
X3357141Y7001134D02*
X3357141Y7239229D01*
X3357141Y7239229D02*
X3309522Y7429705D01*
X3309522Y7429705D02*
X3261903Y7524943D01*
X3261903Y7524943D02*
X3214284Y7572562D01*
X3214284Y7572562D02*
X3119046Y7620181D01*
X2357141Y6715420D02*
X2309522Y6667800D01*
X2309522Y6667800D02*
X2357141Y6620181D01*
X2357141Y6620181D02*
X2404760Y6667800D01*
X2404760Y6667800D02*
X2357141Y6715420D01*
X2357141Y6715420D02*
X2357141Y6620181D01*
X1357142Y6620181D02*
X1928570Y6620181D01*
X1642856Y6620181D02*
X1642856Y7620181D01*
X1642856Y7620181D02*
X1738094Y7477324D01*
X1738094Y7477324D02*
X1833332Y7382086D01*
X1833332Y7382086D02*
X1928570Y7334467D01*
X15713333Y4247705D02*
X15546666Y3447705D01*
X15546666Y3447705D02*
X15413333Y4019134D01*
X15413333Y4019134D02*
X15279999Y3447705D01*
X15279999Y3447705D02*
X15113333Y4247705D01*
X14879999Y3485800D02*
X14779999Y3447705D01*
X14779999Y3447705D02*
X14613333Y3447705D01*
X14613333Y3447705D02*
X14546666Y3485800D01*
X14546666Y3485800D02*
X14513333Y3523896D01*
X14513333Y3523896D02*
X14479999Y3600086D01*
X14479999Y3600086D02*
X14479999Y3676277D01*
X14479999Y3676277D02*
X14513333Y3752467D01*
X14513333Y3752467D02*
X14546666Y3790562D01*
X14546666Y3790562D02*
X14613333Y3828658D01*
X14613333Y3828658D02*
X14746666Y3866753D01*
X14746666Y3866753D02*
X14813333Y3904848D01*
X14813333Y3904848D02*
X14846666Y3942943D01*
X14846666Y3942943D02*
X14879999Y4019134D01*
X14879999Y4019134D02*
X14879999Y4095324D01*
X14879999Y4095324D02*
X14846666Y4171515D01*
X14846666Y4171515D02*
X14813333Y4209610D01*
X14813333Y4209610D02*
X14746666Y4247705D01*
X14746666Y4247705D02*
X14579999Y4247705D01*
X14579999Y4247705D02*
X14479999Y4209610D01*
X7993332Y4209610D02*
X8059999Y4247705D01*
X8059999Y4247705D02*
X8159999Y4247705D01*
X8159999Y4247705D02*
X8259999Y4209610D01*
X8259999Y4209610D02*
X8326666Y4133420D01*
X8326666Y4133420D02*
X8359999Y4057229D01*
X8359999Y4057229D02*
X8393332Y3904848D01*
X8393332Y3904848D02*
X8393332Y3790562D01*
X8393332Y3790562D02*
X8359999Y3638181D01*
X8359999Y3638181D02*
X8326666Y3561991D01*
X8326666Y3561991D02*
X8259999Y3485800D01*
X8259999Y3485800D02*
X8159999Y3447705D01*
X8159999Y3447705D02*
X8093332Y3447705D01*
X8093332Y3447705D02*
X7993332Y3485800D01*
X7993332Y3485800D02*
X7959999Y3523896D01*
X7959999Y3523896D02*
X7959999Y3790562D01*
X7959999Y3790562D02*
X8093332Y3790562D01*
X7659999Y3447705D02*
X7659999Y4247705D01*
X7659999Y4247705D02*
X7259999Y3447705D01*
X7259999Y3447705D02*
X7259999Y4247705D01*
X6926666Y3447705D02*
X6926666Y4247705D01*
X6926666Y4247705D02*
X6759999Y4247705D01*
X6759999Y4247705D02*
X6659999Y4209610D01*
X6659999Y4209610D02*
X6593333Y4133420D01*
X6593333Y4133420D02*
X6559999Y4057229D01*
X6559999Y4057229D02*
X6526666Y3904848D01*
X6526666Y3904848D02*
X6526666Y3790562D01*
X6526666Y3790562D02*
X6559999Y3638181D01*
X6559999Y3638181D02*
X6593333Y3561991D01*
X6593333Y3561991D02*
X6659999Y3485800D01*
X6659999Y3485800D02*
X6759999Y3447705D01*
X6759999Y3447705D02*
X6926666Y3447705D01*
D11*
X6050000Y10000000D02*
X6050000Y13425000D01*
X6050000Y10000000D02*
X8100000Y10000000D01*
X7804000Y16849000D02*
X12196000Y16849000D01*
X13950000Y10000000D02*
X11900000Y10000000D01*
X13950000Y10000000D02*
X13950000Y13425000D01*
X8983000Y7418000D02*
G75*
G03*
X8983000Y7418000I-52000J0D01*
G01*
G36*
X19642656Y14797063D02*
G01*
X19636209Y14758720D01*
X19628943Y14715704D01*
X19620989Y14668786D01*
X19612479Y14618735D01*
X19603546Y14566319D01*
X19594321Y14512309D01*
X19584935Y14457473D01*
X19575521Y14402581D01*
X19566211Y14348402D01*
X19557136Y14295705D01*
X19548428Y14245260D01*
X19540219Y14197836D01*
X19532640Y14154203D01*
X19525825Y14115129D01*
X19519903Y14081384D01*
X19515008Y14053738D01*
X19511271Y14032959D01*
X19508824Y14019816D01*
X19507798Y14015080D01*
X19507719Y14015089D01*
X19502139Y14016564D01*
X19488051Y14020460D01*
X19465864Y14026661D01*
X19435985Y14035052D01*
X19398821Y14045517D01*
X19354781Y14057941D01*
X19304271Y14072210D01*
X19247700Y14088206D01*
X19185476Y14105816D01*
X19118006Y14124923D01*
X19045697Y14145412D01*
X18968958Y14167169D01*
X18888196Y14190077D01*
X18803818Y14214021D01*
X18716234Y14238885D01*
X18625849Y14264556D01*
X18533072Y14290916D01*
X18521467Y14294214D01*
X18428966Y14320495D01*
X18338910Y14346072D01*
X18251705Y14370830D01*
X18167760Y14394653D01*
X18087481Y14417426D01*
X18011277Y14439034D01*
X17939555Y14459360D01*
X17872722Y14478291D01*
X17811186Y14495710D01*
X17755356Y14511502D01*
X17705637Y14525552D01*
X17662439Y14537744D01*
X17626168Y14547963D01*
X17597232Y14556093D01*
X17576039Y14562020D01*
X17562997Y14565627D01*
X17558512Y14566800D01*
X17558913Y14566017D01*
X17563095Y14558603D01*
X17571640Y14543675D01*
X17584327Y14521615D01*
X17600936Y14492805D01*
X17621245Y14457628D01*
X17645033Y14416464D01*
X17672079Y14369697D01*
X17702162Y14317708D01*
X17735061Y14260879D01*
X17770554Y14199593D01*
X17808421Y14134231D01*
X17848440Y14065175D01*
X17890391Y13992809D01*
X17934052Y13917513D01*
X17979202Y13839669D01*
X18025620Y13759661D01*
X18045636Y13725163D01*
X18091554Y13646004D01*
X18136117Y13569161D01*
X18179101Y13495015D01*
X18220286Y13423950D01*
X18259450Y13356350D01*
X18296371Y13292596D01*
X18330827Y13233074D01*
X18362598Y13178164D01*
X18391462Y13128251D01*
X18417196Y13083717D01*
X18439579Y13044946D01*
X18458390Y13012320D01*
X18473407Y12986223D01*
X18484409Y12967038D01*
X18491174Y12955147D01*
X18493479Y12950935D01*
X18492622Y12950315D01*
X18485064Y12946087D01*
X18470367Y12938254D01*
X18449343Y12927229D01*
X18422799Y12913426D01*
X18391546Y12897258D01*
X18356391Y12879137D01*
X18318146Y12859478D01*
X18277618Y12838693D01*
X18235617Y12817196D01*
X18192953Y12795400D01*
X18150434Y12773718D01*
X18108870Y12752563D01*
X18069071Y12732348D01*
X18031844Y12713488D01*
X17998001Y12696394D01*
X17968349Y12681481D01*
X17943698Y12669161D01*
X17924858Y12659848D01*
X17912637Y12653955D01*
X17907845Y12651894D01*
X17907839Y12651897D01*
X17905611Y12656232D01*
X17899667Y12668551D01*
X17890219Y12688397D01*
X17877483Y12715312D01*
X17861669Y12748840D01*
X17842993Y12788524D01*
X17821667Y12833908D01*
X17797905Y12884536D01*
X17771919Y12939949D01*
X17743923Y12999692D01*
X17714130Y13063309D01*
X17682753Y13130342D01*
X17650006Y13200334D01*
X17616102Y13272830D01*
X17581254Y13347372D01*
X17545675Y13423503D01*
X17509579Y13500768D01*
X17473179Y13578709D01*
X17436687Y13656870D01*
X17400318Y13734794D01*
X17364285Y13812025D01*
X17328800Y13888105D01*
X17294077Y13962578D01*
X17260330Y14034988D01*
X17227771Y14104878D01*
X17196613Y14171790D01*
X17167071Y14235270D01*
X17139356Y14294859D01*
X17113684Y14350101D01*
X17090265Y14400539D01*
X17069315Y14445717D01*
X17051046Y14485179D01*
X17035671Y14518467D01*
X17023404Y14545124D01*
X17014458Y14564695D01*
X17009046Y14576723D01*
X17008247Y14576876D01*
X17006646Y14574518D01*
X17004192Y14569209D01*
X17000783Y14560636D01*
X16996321Y14548485D01*
X16990703Y14532444D01*
X16983830Y14512200D01*
X16975602Y14487438D01*
X16965916Y14457845D01*
X16954674Y14423110D01*
X16941775Y14382917D01*
X16927117Y14336955D01*
X16910602Y14284909D01*
X16892127Y14226467D01*
X16871593Y14161316D01*
X16848899Y14089141D01*
X16823945Y14009631D01*
X16796630Y13922471D01*
X16766854Y13827348D01*
X16734515Y13723950D01*
X16699515Y13611963D01*
X16696768Y13603173D01*
X16667649Y13509980D01*
X16639137Y13418738D01*
X16611369Y13329880D01*
X16584480Y13243841D01*
X16558605Y13161054D01*
X16533882Y13081955D01*
X16510444Y13006977D01*
X16488429Y12936554D01*
X16467972Y12871120D01*
X16449208Y12811111D01*
X16432274Y12756959D01*
X16417304Y12709099D01*
X16404436Y12667966D01*
X16393804Y12633992D01*
X16385544Y12607614D01*
X16379792Y12589264D01*
X16376684Y12579377D01*
X16375546Y12575786D01*
X16368745Y12554878D01*
X16362927Y12537881D01*
X16358679Y12526462D01*
X16356587Y12522285D01*
X16356499Y12522303D01*
X16351143Y12524607D01*
X16338295Y12530501D01*
X16318793Y12539586D01*
X16293473Y12551463D01*
X16263172Y12565736D01*
X16228727Y12582005D01*
X16190975Y12599873D01*
X16150752Y12618941D01*
X16108896Y12638812D01*
X16066244Y12659087D01*
X16023633Y12679369D01*
X15981899Y12699259D01*
X15941879Y12718360D01*
X15904410Y12736272D01*
X15870330Y12752599D01*
X15840474Y12766942D01*
X15815681Y12778903D01*
X15796786Y12788084D01*
X15784628Y12794086D01*
X15780042Y12796513D01*
X15780304Y12797628D01*
X15783476Y12806113D01*
X15790066Y12822607D01*
X15799913Y12846726D01*
X15812856Y12878087D01*
X15828734Y12916306D01*
X15847386Y12961001D01*
X15868651Y13011789D01*
X15892367Y13068286D01*
X15918373Y13130110D01*
X15946510Y13196876D01*
X15976614Y13268203D01*
X16008526Y13343706D01*
X16042083Y13423003D01*
X16077126Y13505711D01*
X16113493Y13591446D01*
X16151023Y13679825D01*
X16189554Y13770466D01*
X16208070Y13814008D01*
X16246148Y13903608D01*
X16283153Y13990759D01*
X16318925Y14075078D01*
X16353302Y14156181D01*
X16386122Y14233687D01*
X16417224Y14307213D01*
X16446447Y14376374D01*
X16473629Y14440790D01*
X16498609Y14500076D01*
X16521226Y14553850D01*
X16541317Y14601729D01*
X16558723Y14643331D01*
X16573281Y14678272D01*
X16584830Y14706169D01*
X16593209Y14726640D01*
X16598256Y14739302D01*
X16599810Y14743772D01*
X16598732Y14744106D01*
X16589948Y14746306D01*
X16572671Y14750447D01*
X16547307Y14756435D01*
X16514262Y14764178D01*
X16473943Y14773580D01*
X16426754Y14784549D01*
X16373103Y14796990D01*
X16313395Y14810809D01*
X16248036Y14825913D01*
X16177432Y14842208D01*
X16101988Y14859600D01*
X16022112Y14877995D01*
X15938209Y14897299D01*
X15850685Y14917419D01*
X15759945Y14938260D01*
X15666397Y14959729D01*
X15570445Y14981731D01*
X15526069Y14991905D01*
X15431147Y15013686D01*
X15338805Y15034897D01*
X15249451Y15055444D01*
X15163490Y15075234D01*
X15081329Y15094172D01*
X15003375Y15112164D01*
X14997114Y15113611D01*
X16917982Y15113611D01*
X16998055Y14957086D01*
X16999660Y14953949D01*
X17017868Y14918535D01*
X17034958Y14885585D01*
X17050414Y14856074D01*
X17063720Y14830977D01*
X17074358Y14811269D01*
X17081813Y14797923D01*
X17085568Y14791916D01*
X17086176Y14791494D01*
X17091978Y14789123D01*
X17103865Y14785073D01*
X17122009Y14779295D01*
X17146580Y14771741D01*
X17177746Y14762360D01*
X17215678Y14751104D01*
X17260546Y14737924D01*
X17312520Y14722770D01*
X17371770Y14705592D01*
X17438466Y14686343D01*
X17512778Y14664973D01*
X17594875Y14641432D01*
X17684928Y14615671D01*
X17783107Y14587641D01*
X17889581Y14557294D01*
X18004521Y14524579D01*
X18128096Y14489447D01*
X18260477Y14451850D01*
X18335569Y14430533D01*
X18435689Y14402110D01*
X18533221Y14374421D01*
X18627789Y14347573D01*
X18719019Y14321671D01*
X18806535Y14296824D01*
X18889962Y14273136D01*
X18968925Y14250716D01*
X19043048Y14229669D01*
X19111956Y14210101D01*
X19175275Y14192120D01*
X19232628Y14175832D01*
X19283641Y14161344D01*
X19327939Y14148761D01*
X19365145Y14138191D01*
X19394886Y14129741D01*
X19416786Y14123516D01*
X19430469Y14119623D01*
X19435560Y14118169D01*
X19441095Y14118548D01*
X19445687Y14126537D01*
X19446710Y14131200D01*
X19449712Y14146467D01*
X19453872Y14168957D01*
X19459046Y14197808D01*
X19465090Y14232154D01*
X19471859Y14271133D01*
X19479209Y14313881D01*
X19486996Y14359534D01*
X19495075Y14407228D01*
X19503303Y14456101D01*
X19511534Y14505288D01*
X19519625Y14553925D01*
X19527431Y14601150D01*
X19534808Y14646098D01*
X19541611Y14687905D01*
X19547697Y14725709D01*
X19552921Y14758646D01*
X19557138Y14785851D01*
X19560205Y14806462D01*
X19561977Y14819615D01*
X19562309Y14824445D01*
X19562054Y14824578D01*
X19555374Y14826170D01*
X19540527Y14829006D01*
X19518407Y14832935D01*
X19489911Y14837807D01*
X19455934Y14843469D01*
X19417372Y14849770D01*
X19375120Y14856560D01*
X19330074Y14863686D01*
X19240994Y14877677D01*
X19138557Y14893783D01*
X19035460Y14910010D01*
X18932117Y14926292D01*
X18828936Y14942564D01*
X18726331Y14958761D01*
X18624711Y14974817D01*
X18524488Y14990666D01*
X18426072Y15006244D01*
X18329876Y15021486D01*
X18236310Y15036325D01*
X18145785Y15050696D01*
X18058713Y15064534D01*
X17975504Y15077774D01*
X17896569Y15090349D01*
X17822321Y15102196D01*
X17753169Y15113248D01*
X17689525Y15123440D01*
X17631800Y15132707D01*
X17580405Y15140983D01*
X17535751Y15148203D01*
X17498250Y15154301D01*
X17468312Y15159213D01*
X17446349Y15162872D01*
X17432771Y15165214D01*
X17427990Y15166172D01*
X17428752Y15168133D01*
X17433296Y15177762D01*
X17441759Y15195088D01*
X17453957Y15219745D01*
X17469704Y15251366D01*
X17488817Y15289582D01*
X17511108Y15334029D01*
X17536395Y15384337D01*
X17564492Y15440141D01*
X17595213Y15501074D01*
X17628374Y15566767D01*
X17663790Y15636856D01*
X17701276Y15710971D01*
X17740647Y15788747D01*
X17781718Y15869816D01*
X17824304Y15953812D01*
X17868220Y16040366D01*
X17913281Y16129114D01*
X17943047Y16187729D01*
X17987396Y16275121D01*
X18030484Y16360096D01*
X18072127Y16442287D01*
X18112139Y16521326D01*
X18150334Y16596844D01*
X18186527Y16668473D01*
X18220532Y16735844D01*
X18252165Y16798591D01*
X18281239Y16856344D01*
X18307569Y16908735D01*
X18330970Y16955396D01*
X18351256Y16995959D01*
X18368241Y17030056D01*
X18381742Y17057318D01*
X18391571Y17077378D01*
X18397543Y17089866D01*
X18399473Y17094416D01*
X18398713Y17095034D01*
X18391290Y17099250D01*
X18376604Y17106975D01*
X18355434Y17117825D01*
X18328562Y17131418D01*
X18296766Y17147370D01*
X18260828Y17165298D01*
X18221529Y17184819D01*
X18179647Y17205550D01*
X18135965Y17227107D01*
X18091261Y17249107D01*
X18046317Y17271167D01*
X18001913Y17292904D01*
X17958829Y17313934D01*
X17917846Y17333874D01*
X17879744Y17352342D01*
X17845303Y17368953D01*
X17815303Y17383324D01*
X17790526Y17395073D01*
X17771751Y17403816D01*
X17759758Y17409170D01*
X17755329Y17410751D01*
X17754189Y17407812D01*
X17750001Y17396541D01*
X17742864Y17377166D01*
X17732911Y17350051D01*
X17720275Y17315557D01*
X17705089Y17274048D01*
X17687483Y17225888D01*
X17667592Y17171438D01*
X17645548Y17111062D01*
X17621483Y17045124D01*
X17595529Y16973985D01*
X17567820Y16898010D01*
X17538487Y16817561D01*
X17507663Y16733001D01*
X17475480Y16644692D01*
X17442071Y16553000D01*
X17407569Y16458285D01*
X17372106Y16360911D01*
X17335815Y16261241D01*
X16917982Y15113611D01*
X14997114Y15113611D01*
X14930035Y15129115D01*
X14861715Y15144932D01*
X14798822Y15159519D01*
X14741763Y15172784D01*
X14690944Y15184630D01*
X14646771Y15194965D01*
X14609652Y15203694D01*
X14579993Y15210722D01*
X14558201Y15215955D01*
X14544682Y15219300D01*
X14539843Y15220661D01*
X14539807Y15220723D01*
X14540215Y15226294D01*
X14542179Y15240045D01*
X14545533Y15261067D01*
X14550110Y15288447D01*
X14555746Y15321275D01*
X14562273Y15358639D01*
X14569525Y15399629D01*
X14577336Y15443332D01*
X14585541Y15488838D01*
X14593972Y15535236D01*
X14602464Y15581615D01*
X14610851Y15627063D01*
X14618966Y15670669D01*
X14626643Y15711522D01*
X14633717Y15748712D01*
X14640020Y15781326D01*
X14645387Y15808454D01*
X14649652Y15829185D01*
X14652649Y15842607D01*
X14654210Y15847810D01*
X14656479Y15847267D01*
X14666967Y15844050D01*
X14685627Y15838076D01*
X14712072Y15829472D01*
X14745911Y15818371D01*
X14786754Y15804900D01*
X14834213Y15789190D01*
X14887898Y15771370D01*
X14947419Y15751571D01*
X15012386Y15729921D01*
X15082412Y15706551D01*
X15157105Y15681590D01*
X15236077Y15655168D01*
X15318937Y15627415D01*
X15405298Y15598460D01*
X15494768Y15568433D01*
X15586959Y15537464D01*
X15681482Y15505683D01*
X15747504Y15483475D01*
X15840409Y15452232D01*
X15930695Y15421877D01*
X16017973Y15392540D01*
X16101856Y15364352D01*
X16181955Y15337443D01*
X16257880Y15311943D01*
X16329245Y15287983D01*
X16395660Y15265693D01*
X16456737Y15245203D01*
X16512088Y15226644D01*
X16561323Y15210146D01*
X16604055Y15195839D01*
X16639896Y15183854D01*
X16668456Y15174320D01*
X16689347Y15167370D01*
X16702181Y15163132D01*
X16706569Y15161737D01*
X16705816Y15163161D01*
X16701038Y15171836D01*
X16692028Y15188074D01*
X16678987Y15211516D01*
X16662117Y15241801D01*
X16641617Y15278570D01*
X16617690Y15321461D01*
X16590536Y15370115D01*
X16560357Y15424172D01*
X16527353Y15483272D01*
X16491726Y15547054D01*
X16453677Y15615158D01*
X16413406Y15687225D01*
X16371116Y15762894D01*
X16327007Y15841805D01*
X16281280Y15923597D01*
X16234136Y16007912D01*
X16185777Y16094388D01*
X16157393Y16145154D01*
X16109744Y16230443D01*
X16063453Y16313382D01*
X16018720Y16393609D01*
X15975746Y16470762D01*
X15934730Y16544481D01*
X15895873Y16614405D01*
X15859373Y16680172D01*
X15825432Y16741420D01*
X15794249Y16797789D01*
X15766024Y16848918D01*
X15740957Y16894444D01*
X15719248Y16934008D01*
X15701096Y16967246D01*
X15686703Y16993799D01*
X15676268Y17013305D01*
X15669990Y17025403D01*
X15668070Y17029731D01*
X15668668Y17030135D01*
X15675740Y17034042D01*
X15690028Y17041602D01*
X15710717Y17052398D01*
X15736991Y17066013D01*
X15768033Y17082031D01*
X15803029Y17100035D01*
X15841161Y17119609D01*
X15881613Y17140335D01*
X15923570Y17161797D01*
X15966215Y17183579D01*
X16008732Y17205264D01*
X16050305Y17226435D01*
X16090118Y17246676D01*
X16127354Y17265569D01*
X16161199Y17282699D01*
X16190835Y17297649D01*
X16215447Y17310002D01*
X16234218Y17319341D01*
X16246332Y17325250D01*
X16250974Y17327312D01*
X16251421Y17326612D01*
X16255115Y17319076D01*
X16262353Y17303597D01*
X16272954Y17280577D01*
X16286734Y17250420D01*
X16303512Y17213530D01*
X16323105Y17170311D01*
X16345333Y17121165D01*
X16370012Y17066497D01*
X16396960Y17006709D01*
X16425996Y16942206D01*
X16456938Y16873390D01*
X16489603Y16800665D01*
X16523809Y16724436D01*
X16559375Y16645104D01*
X16596118Y16563074D01*
X16633856Y16478749D01*
X16649213Y16444421D01*
X16686574Y16360945D01*
X16722862Y16279911D01*
X16757895Y16201723D01*
X16791490Y16126787D01*
X16823467Y16055507D01*
X16853644Y15988287D01*
X16881837Y15925532D01*
X16907866Y15867646D01*
X16931548Y15815035D01*
X16952701Y15768101D01*
X16971144Y15727251D01*
X16986694Y15692889D01*
X16999170Y15665418D01*
X17008389Y15645245D01*
X17014170Y15632772D01*
X17016331Y15628405D01*
X17016356Y15628413D01*
X17018407Y15633123D01*
X17023484Y15646169D01*
X17031439Y15667153D01*
X17042127Y15695677D01*
X17055401Y15731342D01*
X17071115Y15773750D01*
X17089121Y15822503D01*
X17109275Y15877202D01*
X17131428Y15937449D01*
X17155435Y16002845D01*
X17181149Y16072993D01*
X17208424Y16147494D01*
X17237112Y16225948D01*
X17267069Y16307959D01*
X17298147Y16393128D01*
X17330199Y16481056D01*
X17363079Y16571345D01*
X17364960Y16576511D01*
X17397818Y16666756D01*
X17429842Y16754662D01*
X17460886Y16839827D01*
X17490802Y16921851D01*
X17519444Y17000332D01*
X17546664Y17074868D01*
X17572315Y17145059D01*
X17596251Y17210503D01*
X17618325Y17270799D01*
X17638390Y17325545D01*
X17656299Y17374340D01*
X17671905Y17416783D01*
X17685060Y17452472D01*
X17695619Y17481006D01*
X17703434Y17501985D01*
X17708358Y17515005D01*
X17710245Y17519667D01*
X17710743Y17519646D01*
X17717650Y17517009D01*
X17732168Y17510616D01*
X17753717Y17500745D01*
X17781714Y17487672D01*
X17815576Y17471674D01*
X17854723Y17453028D01*
X17898572Y17432011D01*
X17946541Y17408900D01*
X17998048Y17383971D01*
X18052511Y17357502D01*
X18109349Y17329770D01*
X18125725Y17321765D01*
X18182004Y17294261D01*
X18235757Y17268006D01*
X18286400Y17243282D01*
X18333347Y17220375D01*
X18376014Y17199571D01*
X18413816Y17181153D01*
X18446168Y17165407D01*
X18472487Y17152617D01*
X18492187Y17143070D01*
X18504683Y17137048D01*
X18509391Y17134838D01*
X18508900Y17133336D01*
X18504814Y17124398D01*
X18496793Y17107738D01*
X18485021Y17083724D01*
X18469684Y17052723D01*
X18450967Y17015105D01*
X18429054Y16971236D01*
X18404132Y16921486D01*
X18376385Y16866221D01*
X18345997Y16805810D01*
X18313154Y16740621D01*
X18278041Y16671022D01*
X18240844Y16597381D01*
X18201746Y16520065D01*
X18160933Y16439444D01*
X18118590Y16355885D01*
X18074902Y16269756D01*
X18030054Y16181424D01*
X18003662Y16129460D01*
X17959441Y16042359D01*
X17916467Y15957675D01*
X17874927Y15875775D01*
X17835007Y15797029D01*
X17796893Y15721804D01*
X17760771Y15650468D01*
X17726827Y15583390D01*
X17695247Y15520938D01*
X17666217Y15463480D01*
X17639924Y15411385D01*
X17616553Y15365021D01*
X17596291Y15324755D01*
X17579323Y15290957D01*
X17565837Y15263995D01*
X17556017Y15244236D01*
X17550050Y15232049D01*
X17548122Y15227802D01*
X17549702Y15227479D01*
X17559471Y15225809D01*
X17577805Y15222790D01*
X17604297Y15218486D01*
X17638538Y15212962D01*
X17680119Y15206284D01*
X17728633Y15198517D01*
X17783671Y15189725D01*
X17844824Y15179973D01*
X17911685Y15169328D01*
X17983845Y15157852D01*
X18060895Y15145613D01*
X18142428Y15132675D01*
X18228035Y15119102D01*
X18317308Y15104960D01*
X18409838Y15090314D01*
X18505217Y15075229D01*
X18603037Y15059770D01*
X18659213Y15050893D01*
X18755689Y15035641D01*
X18849492Y15020800D01*
X18940214Y15006437D01*
X19027444Y14992615D01*
X19110777Y14979401D01*
X19189802Y14966858D01*
X19264112Y14955053D01*
X19333298Y14944049D01*
X19396953Y14933913D01*
X19454667Y14924708D01*
X19506032Y14916501D01*
X19550640Y14909356D01*
X19588082Y14903338D01*
X19617951Y14898511D01*
X19639837Y14894942D01*
X19653333Y14892695D01*
X19658030Y14891835D01*
X19657616Y14888331D01*
X19655764Y14876369D01*
X19652565Y14856657D01*
X19648152Y14829965D01*
X19647230Y14824445D01*
X19642656Y14797063D01*
G37*
M02*
