G04 #@! TF.GenerationSoftware,KiCad,Pcbnew,9.0.2*
G04 #@! TF.CreationDate,2025-07-28T15:17:51+01:00*
G04 #@! TF.ProjectId,NB3_mouth,4e42335f-6d6f-4757-9468-2e6b69636164,0.0.3*
G04 #@! TF.SameCoordinates,PX86d97c0PY6ea0500*
G04 #@! TF.FileFunction,Copper,L2,Bot*
G04 #@! TF.FilePolarity,Positive*
%FSLAX46Y46*%
G04 Gerber Fmt 4.6, Leading zero omitted, Abs format (unit mm)*
G04 Created by KiCad (PCBNEW 9.0.2) date 2025-07-28 15:17:51*
%MOMM*%
%LPD*%
G01*
G04 APERTURE LIST*
G04 #@! TA.AperFunction,ComponentPad*
%ADD10R,1.700000X1.700000*%
G04 #@! TD*
G04 #@! TA.AperFunction,ComponentPad*
%ADD11O,1.700000X1.700000*%
G04 #@! TD*
G04 #@! TA.AperFunction,ViaPad*
%ADD12C,0.800000*%
G04 #@! TD*
G04 APERTURE END LIST*
D10*
X11275000Y1500000D03*
D11*
X8735000Y1500000D03*
D12*
X2000000Y17000000D03*
X2000000Y1500000D03*
X6800000Y12275000D03*
X10000000Y9000000D03*
X6000000Y1475000D03*
X10000000Y4000000D03*
X18000000Y1500000D03*
X14000000Y1475000D03*
X10000000Y15000000D03*
X18000000Y17000000D03*
G04 #@! TA.AperFunction,Conductor*
G36*
X19015470Y17979815D02*
G01*
X19036112Y17963181D01*
X19963181Y17036112D01*
X19996666Y16974789D01*
X19999500Y16948431D01*
X19999500Y1051569D01*
X19979815Y984530D01*
X19963181Y963888D01*
X19036112Y36819D01*
X18974789Y3334D01*
X18948431Y500D01*
X1051569Y500D01*
X984530Y20185D01*
X963888Y36819D01*
X36819Y963888D01*
X3334Y1025211D01*
X500Y1051569D01*
X500Y1586611D01*
X7634500Y1586611D01*
X7634500Y1413389D01*
X7661598Y1242299D01*
X7715127Y1077555D01*
X7793768Y923212D01*
X7895586Y783072D01*
X8018072Y660586D01*
X8158212Y558768D01*
X8312555Y480127D01*
X8477299Y426598D01*
X8648389Y399500D01*
X8648390Y399500D01*
X8821610Y399500D01*
X8821611Y399500D01*
X8992701Y426598D01*
X9157445Y480127D01*
X9311788Y558768D01*
X9451928Y660586D01*
X9574414Y783072D01*
X9676232Y923212D01*
X9754873Y1077555D01*
X9808402Y1242299D01*
X9835500Y1413389D01*
X9835500Y1586611D01*
X9808402Y1757701D01*
X9754873Y1922445D01*
X9676232Y2076788D01*
X9574414Y2216928D01*
X9451928Y2339414D01*
X9403390Y2374679D01*
X10174500Y2374679D01*
X10174500Y625322D01*
X10189032Y552265D01*
X10189033Y552261D01*
X10189034Y552260D01*
X10244399Y469399D01*
X10327260Y414034D01*
X10327264Y414033D01*
X10400321Y399501D01*
X10400324Y399500D01*
X10400326Y399500D01*
X12149676Y399500D01*
X12149677Y399501D01*
X12222740Y414034D01*
X12305601Y469399D01*
X12360966Y552260D01*
X12375500Y625326D01*
X12375500Y2374674D01*
X12375500Y2374677D01*
X12375499Y2374679D01*
X12360967Y2447736D01*
X12360966Y2447740D01*
X12305601Y2530601D01*
X12222740Y2585966D01*
X12222739Y2585967D01*
X12222735Y2585968D01*
X12149677Y2600500D01*
X12149674Y2600500D01*
X10400326Y2600500D01*
X10400323Y2600500D01*
X10327264Y2585968D01*
X10327260Y2585967D01*
X10244399Y2530601D01*
X10189033Y2447740D01*
X10189032Y2447736D01*
X10174500Y2374679D01*
X9403390Y2374679D01*
X9311788Y2441232D01*
X9157445Y2519873D01*
X8992701Y2573402D01*
X8992699Y2573403D01*
X8992698Y2573403D01*
X8861271Y2594219D01*
X8821611Y2600500D01*
X8648389Y2600500D01*
X8608728Y2594219D01*
X8477302Y2573403D01*
X8312552Y2519872D01*
X8158211Y2441232D01*
X8078256Y2383141D01*
X8018072Y2339414D01*
X8018070Y2339412D01*
X8018069Y2339412D01*
X7895588Y2216931D01*
X7895588Y2216930D01*
X7895586Y2216928D01*
X7851859Y2156744D01*
X7793768Y2076789D01*
X7715128Y1922448D01*
X7661597Y1757698D01*
X7634500Y1586611D01*
X500Y1586611D01*
X500Y16948431D01*
X20185Y17015470D01*
X36819Y17036112D01*
X963888Y17963181D01*
X1025211Y17996666D01*
X1051569Y17999500D01*
X18948431Y17999500D01*
X19015470Y17979815D01*
G37*
G04 #@! TD.AperFunction*
M02*
