G04 #@! TF.GenerationSoftware,KiCad,Pcbnew,7.0.4*
G04 #@! TF.CreationDate,2023-08-12T22:14:49+02:00*
G04 #@! TF.ProjectId,NB3_mouth,4e42335f-6d6f-4757-9468-2e6b69636164,0.0.1*
G04 #@! TF.SameCoordinates,PX868b5c0PY6ee3738*
G04 #@! TF.FileFunction,Legend,Top*
G04 #@! TF.FilePolarity,Positive*
%FSLAX46Y46*%
G04 Gerber Fmt 4.6, Leading zero omitted, Abs format (unit mm)*
G04 Created by KiCad (PCBNEW 7.0.4) date 2023-08-12 22:14:49*
%MOMM*%
%LPD*%
G01*
G04 APERTURE LIST*
%ADD10C,0.150000*%
%ADD11C,0.250000*%
%ADD12C,0.120000*%
G04 APERTURE END LIST*
D10*
X16027255Y13805181D02*
X16217731Y13805181D01*
X16217731Y13805181D02*
X16312969Y13757562D01*
X16312969Y13757562D02*
X16408207Y13662324D01*
X16408207Y13662324D02*
X16455826Y13471848D01*
X16455826Y13471848D02*
X16455826Y13138515D01*
X16455826Y13138515D02*
X16408207Y12948039D01*
X16408207Y12948039D02*
X16312969Y12852800D01*
X16312969Y12852800D02*
X16217731Y12805181D01*
X16217731Y12805181D02*
X16027255Y12805181D01*
X16027255Y12805181D02*
X15932017Y12852800D01*
X15932017Y12852800D02*
X15836779Y12948039D01*
X15836779Y12948039D02*
X15789160Y13138515D01*
X15789160Y13138515D02*
X15789160Y13471848D01*
X15789160Y13471848D02*
X15836779Y13662324D01*
X15836779Y13662324D02*
X15932017Y13757562D01*
X15932017Y13757562D02*
X16027255Y13805181D01*
X16884398Y12805181D02*
X16884398Y13805181D01*
X16884398Y13805181D02*
X17455826Y12805181D01*
X17455826Y12805181D02*
X17455826Y13805181D01*
X18408207Y12805181D02*
X17932017Y12805181D01*
X17932017Y12805181D02*
X17932017Y13805181D01*
X18932017Y13281372D02*
X18932017Y12805181D01*
X18598684Y13805181D02*
X18932017Y13281372D01*
X18932017Y13281372D02*
X19265350Y13805181D01*
X13508207Y15905181D02*
X13174874Y16381372D01*
X12936779Y15905181D02*
X12936779Y16905181D01*
X12936779Y16905181D02*
X13317731Y16905181D01*
X13317731Y16905181D02*
X13412969Y16857562D01*
X13412969Y16857562D02*
X13460588Y16809943D01*
X13460588Y16809943D02*
X13508207Y16714705D01*
X13508207Y16714705D02*
X13508207Y16571848D01*
X13508207Y16571848D02*
X13460588Y16476610D01*
X13460588Y16476610D02*
X13412969Y16428991D01*
X13412969Y16428991D02*
X13317731Y16381372D01*
X13317731Y16381372D02*
X12936779Y16381372D01*
X14317731Y15952800D02*
X14222493Y15905181D01*
X14222493Y15905181D02*
X14032017Y15905181D01*
X14032017Y15905181D02*
X13936779Y15952800D01*
X13936779Y15952800D02*
X13889160Y16048039D01*
X13889160Y16048039D02*
X13889160Y16428991D01*
X13889160Y16428991D02*
X13936779Y16524229D01*
X13936779Y16524229D02*
X14032017Y16571848D01*
X14032017Y16571848D02*
X14222493Y16571848D01*
X14222493Y16571848D02*
X14317731Y16524229D01*
X14317731Y16524229D02*
X14365350Y16428991D01*
X14365350Y16428991D02*
X14365350Y16333753D01*
X14365350Y16333753D02*
X13889160Y16238515D01*
X14746303Y15952800D02*
X14841541Y15905181D01*
X14841541Y15905181D02*
X15032017Y15905181D01*
X15032017Y15905181D02*
X15127255Y15952800D01*
X15127255Y15952800D02*
X15174874Y16048039D01*
X15174874Y16048039D02*
X15174874Y16095658D01*
X15174874Y16095658D02*
X15127255Y16190896D01*
X15127255Y16190896D02*
X15032017Y16238515D01*
X15032017Y16238515D02*
X14889160Y16238515D01*
X14889160Y16238515D02*
X14793922Y16286134D01*
X14793922Y16286134D02*
X14746303Y16381372D01*
X14746303Y16381372D02*
X14746303Y16428991D01*
X14746303Y16428991D02*
X14793922Y16524229D01*
X14793922Y16524229D02*
X14889160Y16571848D01*
X14889160Y16571848D02*
X15032017Y16571848D01*
X15032017Y16571848D02*
X15127255Y16524229D01*
X15984398Y15952800D02*
X15889160Y15905181D01*
X15889160Y15905181D02*
X15698684Y15905181D01*
X15698684Y15905181D02*
X15603446Y15952800D01*
X15603446Y15952800D02*
X15555827Y16048039D01*
X15555827Y16048039D02*
X15555827Y16428991D01*
X15555827Y16428991D02*
X15603446Y16524229D01*
X15603446Y16524229D02*
X15698684Y16571848D01*
X15698684Y16571848D02*
X15889160Y16571848D01*
X15889160Y16571848D02*
X15984398Y16524229D01*
X15984398Y16524229D02*
X16032017Y16428991D01*
X16032017Y16428991D02*
X16032017Y16333753D01*
X16032017Y16333753D02*
X15555827Y16238515D01*
X16889160Y15905181D02*
X16889160Y16428991D01*
X16889160Y16428991D02*
X16841541Y16524229D01*
X16841541Y16524229D02*
X16746303Y16571848D01*
X16746303Y16571848D02*
X16555827Y16571848D01*
X16555827Y16571848D02*
X16460589Y16524229D01*
X16889160Y15952800D02*
X16793922Y15905181D01*
X16793922Y15905181D02*
X16555827Y15905181D01*
X16555827Y15905181D02*
X16460589Y15952800D01*
X16460589Y15952800D02*
X16412970Y16048039D01*
X16412970Y16048039D02*
X16412970Y16143277D01*
X16412970Y16143277D02*
X16460589Y16238515D01*
X16460589Y16238515D02*
X16555827Y16286134D01*
X16555827Y16286134D02*
X16793922Y16286134D01*
X16793922Y16286134D02*
X16889160Y16333753D01*
X17365351Y15905181D02*
X17365351Y16571848D01*
X17365351Y16381372D02*
X17412970Y16476610D01*
X17412970Y16476610D02*
X17460589Y16524229D01*
X17460589Y16524229D02*
X17555827Y16571848D01*
X17555827Y16571848D02*
X17651065Y16571848D01*
X18412970Y15952800D02*
X18317732Y15905181D01*
X18317732Y15905181D02*
X18127256Y15905181D01*
X18127256Y15905181D02*
X18032018Y15952800D01*
X18032018Y15952800D02*
X17984399Y16000420D01*
X17984399Y16000420D02*
X17936780Y16095658D01*
X17936780Y16095658D02*
X17936780Y16381372D01*
X17936780Y16381372D02*
X17984399Y16476610D01*
X17984399Y16476610D02*
X18032018Y16524229D01*
X18032018Y16524229D02*
X18127256Y16571848D01*
X18127256Y16571848D02*
X18317732Y16571848D01*
X18317732Y16571848D02*
X18412970Y16524229D01*
X18841542Y15905181D02*
X18841542Y16905181D01*
X19270113Y15905181D02*
X19270113Y16428991D01*
X19270113Y16428991D02*
X19222494Y16524229D01*
X19222494Y16524229D02*
X19127256Y16571848D01*
X19127256Y16571848D02*
X18984399Y16571848D01*
X18984399Y16571848D02*
X18889161Y16524229D01*
X18889161Y16524229D02*
X18841542Y16476610D01*
X12436779Y14928991D02*
X12770112Y14928991D01*
X12912969Y14405181D02*
X12436779Y14405181D01*
X12436779Y14405181D02*
X12436779Y15405181D01*
X12436779Y15405181D02*
X12912969Y15405181D01*
X13770112Y14405181D02*
X13770112Y15405181D01*
X13770112Y14452800D02*
X13674874Y14405181D01*
X13674874Y14405181D02*
X13484398Y14405181D01*
X13484398Y14405181D02*
X13389160Y14452800D01*
X13389160Y14452800D02*
X13341541Y14500420D01*
X13341541Y14500420D02*
X13293922Y14595658D01*
X13293922Y14595658D02*
X13293922Y14881372D01*
X13293922Y14881372D02*
X13341541Y14976610D01*
X13341541Y14976610D02*
X13389160Y15024229D01*
X13389160Y15024229D02*
X13484398Y15071848D01*
X13484398Y15071848D02*
X13674874Y15071848D01*
X13674874Y15071848D02*
X13770112Y15024229D01*
X14674874Y15071848D02*
X14674874Y14405181D01*
X14246303Y15071848D02*
X14246303Y14548039D01*
X14246303Y14548039D02*
X14293922Y14452800D01*
X14293922Y14452800D02*
X14389160Y14405181D01*
X14389160Y14405181D02*
X14532017Y14405181D01*
X14532017Y14405181D02*
X14627255Y14452800D01*
X14627255Y14452800D02*
X14674874Y14500420D01*
X15579636Y14452800D02*
X15484398Y14405181D01*
X15484398Y14405181D02*
X15293922Y14405181D01*
X15293922Y14405181D02*
X15198684Y14452800D01*
X15198684Y14452800D02*
X15151065Y14500420D01*
X15151065Y14500420D02*
X15103446Y14595658D01*
X15103446Y14595658D02*
X15103446Y14881372D01*
X15103446Y14881372D02*
X15151065Y14976610D01*
X15151065Y14976610D02*
X15198684Y15024229D01*
X15198684Y15024229D02*
X15293922Y15071848D01*
X15293922Y15071848D02*
X15484398Y15071848D01*
X15484398Y15071848D02*
X15579636Y15024229D01*
X16436779Y14405181D02*
X16436779Y14928991D01*
X16436779Y14928991D02*
X16389160Y15024229D01*
X16389160Y15024229D02*
X16293922Y15071848D01*
X16293922Y15071848D02*
X16103446Y15071848D01*
X16103446Y15071848D02*
X16008208Y15024229D01*
X16436779Y14452800D02*
X16341541Y14405181D01*
X16341541Y14405181D02*
X16103446Y14405181D01*
X16103446Y14405181D02*
X16008208Y14452800D01*
X16008208Y14452800D02*
X15960589Y14548039D01*
X15960589Y14548039D02*
X15960589Y14643277D01*
X15960589Y14643277D02*
X16008208Y14738515D01*
X16008208Y14738515D02*
X16103446Y14786134D01*
X16103446Y14786134D02*
X16341541Y14786134D01*
X16341541Y14786134D02*
X16436779Y14833753D01*
X16770113Y15071848D02*
X17151065Y15071848D01*
X16912970Y15405181D02*
X16912970Y14548039D01*
X16912970Y14548039D02*
X16960589Y14452800D01*
X16960589Y14452800D02*
X17055827Y14405181D01*
X17055827Y14405181D02*
X17151065Y14405181D01*
X17484399Y14405181D02*
X17484399Y15071848D01*
X17484399Y15405181D02*
X17436780Y15357562D01*
X17436780Y15357562D02*
X17484399Y15309943D01*
X17484399Y15309943D02*
X17532018Y15357562D01*
X17532018Y15357562D02*
X17484399Y15405181D01*
X17484399Y15405181D02*
X17484399Y15309943D01*
X18103446Y14405181D02*
X18008208Y14452800D01*
X18008208Y14452800D02*
X17960589Y14500420D01*
X17960589Y14500420D02*
X17912970Y14595658D01*
X17912970Y14595658D02*
X17912970Y14881372D01*
X17912970Y14881372D02*
X17960589Y14976610D01*
X17960589Y14976610D02*
X18008208Y15024229D01*
X18008208Y15024229D02*
X18103446Y15071848D01*
X18103446Y15071848D02*
X18246303Y15071848D01*
X18246303Y15071848D02*
X18341541Y15024229D01*
X18341541Y15024229D02*
X18389160Y14976610D01*
X18389160Y14976610D02*
X18436779Y14881372D01*
X18436779Y14881372D02*
X18436779Y14595658D01*
X18436779Y14595658D02*
X18389160Y14500420D01*
X18389160Y14500420D02*
X18341541Y14452800D01*
X18341541Y14452800D02*
X18246303Y14405181D01*
X18246303Y14405181D02*
X18103446Y14405181D01*
X18865351Y15071848D02*
X18865351Y14405181D01*
X18865351Y14976610D02*
X18912970Y15024229D01*
X18912970Y15024229D02*
X19008208Y15071848D01*
X19008208Y15071848D02*
X19151065Y15071848D01*
X19151065Y15071848D02*
X19246303Y15024229D01*
X19246303Y15024229D02*
X19293922Y14928991D01*
X19293922Y14928991D02*
X19293922Y14405181D01*
D11*
X11625000Y16875000D02*
G75*
G03*
X11625000Y16875000I-125000J0D01*
G01*
D12*
X4265000Y15163748D02*
X4265000Y15686252D01*
X5735000Y15163748D02*
X5735000Y15686252D01*
X6420000Y16096359D02*
X6420000Y16403641D01*
X7180000Y16096359D02*
X7180000Y16403641D01*
X7160000Y14087836D02*
X7160000Y13872164D01*
X6440000Y14087836D02*
X6440000Y13872164D01*
X11780000Y2485000D02*
X11780000Y3925000D01*
X11210000Y3925000D02*
X11780000Y3925000D01*
X11210000Y3925000D02*
X11210000Y9125000D01*
X13300000Y3925000D02*
X14320000Y3925000D01*
X15840000Y3925000D02*
X16860000Y3925000D01*
X18380000Y3925000D02*
X18950000Y3925000D01*
X18950000Y3925000D02*
X18950000Y9125000D01*
X11210000Y9125000D02*
X11780000Y9125000D01*
X13300000Y9125000D02*
X14320000Y9125000D01*
X15840000Y9125000D02*
X16860000Y9125000D01*
X18380000Y9125000D02*
X18950000Y9125000D01*
X1620000Y2460000D02*
X1620000Y3900000D01*
X1050000Y3900000D02*
X1620000Y3900000D01*
X1050000Y3900000D02*
X1050000Y9100000D01*
X3140000Y3900000D02*
X4160000Y3900000D01*
X5680000Y3900000D02*
X6700000Y3900000D01*
X8220000Y3900000D02*
X8790000Y3900000D01*
X8790000Y3900000D02*
X8790000Y9100000D01*
X1050000Y9100000D02*
X1620000Y9100000D01*
X3140000Y9100000D02*
X4160000Y9100000D01*
X5680000Y9100000D02*
X6700000Y9100000D01*
X8220000Y9100000D02*
X8790000Y9100000D01*
M02*
